<svg width="200" height="200" version="1.1" xmlns="http://www.w3.org/2000/svg" desc="Created with imagetracer.js version 1.2.6" ><path fill="rgb(0,0,0)" stroke="rgb(0,0,0)" stroke-width="1" opacity="0" d="M 0 0 L 84.5 0 L 85 2 L 80 3 Q 81.3 6 77.5 5 L 76 9 Q 73.3 7.9 74 10.5 L 73 15 L 71 15.5 L 71 32.5 L 68 34 L 68 44.5 L 73.5 50 Q 78.3 49.3 79 52.5 L 79 57.5 L 83.5 65 L 86 66.5 L 87.5 69 Q 90.1 68.3 89 71 L 91.5 71 L 93 73.5 L 92 76 Q 87.8 77 88.5 74 L 82.5 74 L 80.5 75 L 79.5 74 L 73 74 Q 74.1 76.7 71.5 76 L 67 75 Q 68.3 78 64.5 77 L 63 80 L 58 81 L 56.5 84 Q 54.3 83.3 55 85.5 L 54 90 Q 51 88.8 52 92.5 L 51 97.5 L 51.5 99 L 49 100.5 L 49 109.5 L 51.5 110 L 51 111.5 L 52 119 Q 55.7 117.7 54 123.5 L 57 125 L 58.5 128 Q 60.8 127.3 60 129.5 L 74 143.5 L 74 157.5 L 71 159 L 71 194.5 L 72.5 196 L 77 195 Q 75.9 197.7 78.5 197 L 79.5 198 L 133.5 198 Q 134 194.5 138.5 195 Q 139.8 197.3 141 194.5 L 141 165.5 L 142.5 164 L 146 164 Q 144.8 161 148.5 162 Q 153 161 152 154.5 L 151 153.5 L 151 122 L 155 121 Q 154 116.8 157 117.5 L 157 98.5 Q 154 97.3 155 93 L 152 91.5 L 150.5 89 Q 147.9 89.7 149 87 L 146.5 87 L 145 87.5 L 145 86 L 139.5 86 Q 140.5 83 135.5 84 L 134 84.5 L 134.5 83 L 129.5 83 L 120 78 L 120 71 Q 123.7 72.5 123 69.5 L 126 67.5 L 125.5 66 L 130 63.5 Q 129.3 60.9 132 62 L 132 59.5 L 133 55.5 L 132 51.5 L 134 51.5 Q 133.3 48.9 136 50 L 136 48 L 137.5 48 L 142 49 L 144 44.5 L 143 43.5 L 143 34.5 L 141 32.5 L 141 15.5 L 132.5 5 L 121 2 L 121.5 0 L 200 0 L 200 200 L 0 200 L 0 0 Z " /><path fill="rgb(0,0,0)" stroke="rgb(0,0,0)" stroke-width="1" opacity="0" d="M 90.5 0 L 117 0.5 L 90.5 1 L 90.5 0 Z " /><path fill="rgb(252,203,137)" stroke="rgb(252,203,137)" stroke-width="1" opacity="0.996078431372549" d="M 94.5 26 Q 96.8 25.3 96 27.5 Q 97 31 102.5 30 L 110.5 28 L 120 28 Q 120.3 34.1 124.5 37 L 135 39 Q 136.8 44.3 129.5 42 L 126 45.5 L 126 52.5 L 122 60 L 120 60 Q 121.1 62.7 118.5 62 L 109.5 67 L 101.5 67 Q 93.2 64.8 89 58.5 L 86 53.5 Q 86.9 45.9 84 43 L 77.5 42 L 76 40.5 L 77 38 Q 87 39.8 90 33.5 L 92 28.5 L 91.5 27 L 94.5 26 Z M 97 36 L 95 37 L 92 42 L 94 46 L 95 47 L 100 47 L 101 44 L 100 39 L 97 36 Z M 115 36 Q 110 37 111 45 Q 112 48 118 47 Q 121 46 120 40 L 115 36 Z M 101 51 L 98 52 L 97 57 L 102 60 Q 110 61 114 59 L 115 57 Q 116 52 113 51 L 109 52 L 101 51 Z " /><path fill="rgb(252,203,137)" stroke="rgb(252,203,137)" stroke-width="1" opacity="0.996078431372549" d="M 103.5 81 L 109 82 L 114.5 91 Q 116.8 90.3 116 92.5 L 110.5 88 Q 108.3 88.8 109 86.5 L 106 85 L 104.5 82 L 103.5 81 Z " /><path fill="rgb(252,203,137)" stroke="rgb(252,203,137)" stroke-width="1" opacity="0.996078431372549" d="M 76.5 94 Q 88.5 91.5 91 98.5 Q 93.5 102 92 109.5 Q 89.1 116.6 78.5 116 L 71 110.5 L 70 102.5 L 72.5 97 L 76.5 94 Z M 86 96 L 84 98 L 82 98 L 82 103 L 88 104 L 90 101 L 89 99 L 86 96 Z M 76 105 L 73 108 Q 72 112 76 113 L 80 112 L 81 109 Q 81 105 76 105 Z " /><path fill="rgb(252,203,137)" stroke="rgb(252,203,137)" stroke-width="1" opacity="0.996078431372549" d="M 139.5 132 L 140 147.5 L 136.5 151 L 85.5 151 Q 81.5 149.3 83 143 Q 87.6 141.8 89 144.5 Q 87.9 147.8 90.5 147 L 92.5 149 L 135.5 149 L 139 144.5 L 139.5 132 Z " /><path fill="rgb(226,169,116)" stroke="rgb(226,169,116)" stroke-width="1" opacity="0.9921568627450981" d="M 86.5 8 L 85.5 10 L 86.5 8 Z " /><path fill="rgb(226,169,116)" stroke="rgb(226,169,116)" stroke-width="1" opacity="0.9921568627450981" d="M 83.5 10 L 81.5 13 L 83.5 10 Z " /><path fill="rgb(226,169,116)" stroke="rgb(226,169,116)" stroke-width="1" opacity="0.9921568627450981" d="M 130.5 13 L 131.5 15 L 130.5 13 Z " /><path fill="rgb(226,169,116)" stroke="rgb(226,169,116)" stroke-width="1" opacity="0.9921568627450981" d="M 80.5 14 L 80 15.5 L 79.5 17 L 79 15.5 L 80.5 14 Z " /><path fill="rgb(226,169,116)" stroke="rgb(226,169,116)" stroke-width="1" opacity="0.9921568627450981" d="M 108.5 21 L 111 21.5 L 108.5 22 L 108.5 21 Z " /><path fill="rgb(226,169,116)" stroke="rgb(226,169,116)" stroke-width="1" opacity="0.9921568627450981" d="M 86.5 25 L 89 25.5 L 86.5 26 L 86.5 25 Z " /><path fill="rgb(226,169,116)" stroke="rgb(226,169,116)" stroke-width="1" opacity="0.9921568627450981" d="M 96.5 26 L 98.5 29 L 103 29.5 L 98.5 30 Q 94.9 28.9 96.5 26 Z " /><path fill="rgb(226,169,116)" stroke="rgb(226,169,116)" stroke-width="1" opacity="0.9921568627450981" d="M 115.5 26 Q 121 25 122 28.5 Q 121 35 125.5 36 L 129 37.5 L 126.5 38 L 122 34.5 L 120 28 L 112 27.5 L 115.5 26 Z " /><path fill="rgb(226,169,116)" stroke="rgb(226,169,116)" stroke-width="1" opacity="0.9921568627450981" d="M 90.5 27 Q 93.3 28.3 91 29.5 Q 90.6 35.1 86.5 37 L 83.5 38 L 83.5 37 L 89 33.5 L 91 28.5 L 90.5 27 Z " /><path fill="rgb(226,169,116)" stroke="rgb(226,169,116)" stroke-width="1" opacity="0.9921568627450981" d="M 106.5 28 L 110 28.5 L 106.5 29 L 106.5 28 Z " /><path fill="rgb(226,169,116)" stroke="rgb(226,169,116)" stroke-width="1" opacity="0.9921568627450981" d="M 78.5 30 L 81.5 31 L 83 30.5 L 79.5 32 L 78.5 30 Z " /><path fill="rgb(226,169,116)" stroke="rgb(226,169,116)" stroke-width="1" opacity="0.9921568627450981" d="M 133.5 30 L 132.5 32 L 131 31.5 L 133.5 30 Z " /><path fill="rgb(226,169,116)" stroke="rgb(226,169,116)" stroke-width="1" opacity="0.9921568627450981" d="M 96.5 36 L 100 38.5 L 98.5 38 L 94 38 L 94 44.5 L 93 44.5 L 92 41.5 L 94.5 37 L 96.5 36 Z " /><path fill="rgb(226,169,116)" stroke="rgb(226,169,116)" stroke-width="1" opacity="0.9921568627450981" d="M 114.5 36 L 120 39.5 Q 121.3 45.8 117.5 47 L 116 46.5 L 118 46 L 119 40.5 L 118 38 Q 113.4 36.8 112 39.5 Q 110.8 44.8 113.5 46 L 115 46.5 L 113.5 47 Q 109.8 45.8 111 39.5 L 114.5 36 Z " /><path fill="rgb(226,169,116)" stroke="rgb(226,169,116)" stroke-width="1" opacity="0.9921568627450981" d="M 76.5 38 L 77 39.5 Q 74.8 40.8 77.5 42 Q 82.3 41.3 84 43.5 L 78.5 44 L 75 41.5 L 76.5 38 Z " /><path fill="rgb(226,169,116)" stroke="rgb(226,169,116)" stroke-width="1" opacity="0.9921568627450981" d="M 130.5 38 Q 135.8 36.8 137 39.5 Q 138.1 42.8 135.5 42 L 128 45.5 Q 127.5 58.9 118.5 64 L 110.5 67 L 111.5 65 L 114.5 65 L 120 62 L 120 60 Q 122.7 61.1 122 58.5 Q 127.4 55.4 126 45.5 L 129.5 42 Q 136.8 44.3 135 39 L 130.5 39 L 130.5 38 Z " /><path fill="rgb(226,169,116)" stroke="rgb(226,169,116)" stroke-width="1" opacity="0.9921568627450981" d="M 100.5 41 L 101 43.5 L 100 43.5 L 100.5 41 Z " /><path fill="rgb(226,169,116)" stroke="rgb(226,169,116)" stroke-width="1" opacity="0.9921568627450981" d="M 84.5 45 L 87 54.5 L 85 53.5 L 84.5 45 Z " /><path fill="rgb(226,169,116)" stroke="rgb(226,169,116)" stroke-width="1" opacity="0.9921568627450981" d="M 99.5 45 L 100 47 L 98 46.5 L 99.5 45 Z " /><path fill="rgb(226,169,116)" stroke="rgb(226,169,116)" stroke-width="1" opacity="0.9921568627450981" d="M 100.5 51 L 108.5 52 L 112.5 51 Q 115.8 51.8 115 56.5 L 114 59 L 108.5 60 L 108.5 59 L 114 56.5 L 113 52 Q 108.5 51.2 106.5 54 L 100.5 52 L 98.5 53 L 98.5 52 L 100.5 51 Z " /><path fill="rgb(226,169,116)" stroke="rgb(226,169,116)" stroke-width="1" opacity="0.9921568627450981" d="M 97.5 54 L 99.5 58 L 104 59.5 L 101.5 60 L 97 56.5 L 97.5 54 Z " /><path fill="rgb(226,169,116)" stroke="rgb(226,169,116)" stroke-width="1" opacity="0.9921568627450981" d="M 87.5 56 L 94.5 64 L 101 66.5 L 98.5 67 L 91 63 L 89.5 60 Q 87.3 60.8 88 58.5 L 87.5 56 Z " /><path fill="rgb(226,169,116)" stroke="rgb(226,169,116)" stroke-width="1" opacity="0.9921568627450981" d="M 103.5 67 L 108 67.5 L 103.5 68 L 103.5 67 Z " /><path fill="rgb(226,169,116)" stroke="rgb(226,169,116)" stroke-width="1" opacity="0.9921568627450981" d="M 94 72 L 107.5 75 L 113.5 73 L 115 74.5 L 116 83.5 L 119 87.5 L 115.5 94 L 102.5 82 L 94 77 L 94 72 Z M 104 81 L 105 82 L 106 85 L 109 87 Q 108 89 111 88 L 112 89 L 109 82 L 104 81 Z M 115 91 L 116 93 Q 117 90 115 91 Z " /><path fill="rgb(226,169,116)" stroke="rgb(226,169,116)" stroke-width="1" opacity="0.9921568627450981" d="M 92.5 89 L 93.5 91 L 92.5 89 Z " /><path fill="rgb(226,169,116)" stroke="rgb(226,169,116)" stroke-width="1" opacity="0.9921568627450981" d="M 77.5 93 L 85 93.5 L 77.5 94 L 77.5 93 Z " /><path fill="rgb(226,169,116)" stroke="rgb(226,169,116)" stroke-width="1" opacity="0.9921568627450981" d="M 75.5 94 L 73.5 97 L 71.5 98 L 73.5 95 L 75.5 94 Z " /><path fill="rgb(226,169,116)" stroke="rgb(226,169,116)" stroke-width="1" opacity="0.9921568627450981" d="M 87.5 94 Q 93.6 97.4 94 106.5 L 89.5 114 Q 86.3 117.8 78.5 117 L 72 114 L 69 108.5 L 69 100.5 L 71 99.5 L 70 107.5 L 75.5 115 L 83.5 116 Q 89.6 114.6 92 109.5 L 92 100.5 L 87.5 94 Z " /><path fill="rgb(226,169,116)" stroke="rgb(226,169,116)" stroke-width="1" opacity="0.9921568627450981" d="M 85.5 96 L 89 98.5 L 90 100.5 L 87.5 104 L 82 103 L 82.5 101 Q 83.8 104 88 103 L 88 98 L 84.5 98 L 85.5 96 Z " /><path fill="rgb(226,169,116)" stroke="rgb(226,169,116)" stroke-width="1" opacity="0.9921568627450981" d="M 62.5 103 L 63 105.5 L 62 105.5 L 62.5 103 Z " /><path fill="rgb(226,169,116)" stroke="rgb(226,169,116)" stroke-width="1" opacity="0.9921568627450981" d="M 75.5 105 Q 80.5 104.5 81 108.5 L 80 112 L 75.5 113 Q 72.3 112.3 73 107.5 L 75.5 105 Z M 77 106 L 76 107 Q 73 106 74 111 L 78 112 L 80 109 L 77 106 Z " /><path fill="rgb(226,169,116)" stroke="rgb(226,169,116)" stroke-width="1" opacity="0.9921568627450981" d="M 108.5 107 L 109 115.5 L 108 115.5 L 108.5 107 Z " /><path fill="rgb(226,169,116)" stroke="rgb(226,169,116)" stroke-width="1" opacity="0.9921568627450981" d="M 119.5 108 L 120.5 110 L 119.5 108 Z " /><path fill="rgb(226,169,116)" stroke="rgb(226,169,116)" stroke-width="1" opacity="0.9921568627450981" d="M 122.5 111 L 123.5 113 L 122.5 111 Z " /><path fill="rgb(226,169,116)" stroke="rgb(226,169,116)" stroke-width="1" opacity="0.9921568627450981" d="M 98.5 112 L 97.5 114 L 98.5 112 Z " /><path fill="rgb(226,169,116)" stroke="rgb(226,169,116)" stroke-width="1" opacity="0.9921568627450981" d="M 66.5 116 L 69.5 120 L 66.5 116 Z " /><path fill="rgb(226,169,116)" stroke="rgb(226,169,116)" stroke-width="1" opacity="0.9921568627450981" d="M 71.5 120 L 72.5 122 L 71.5 120 Z " /><path fill="rgb(226,169,116)" stroke="rgb(226,169,116)" stroke-width="1" opacity="0.9921568627450981" d="M 63.5 121 L 67.5 126 L 63.5 121 Z " /><path fill="rgb(226,169,116)" stroke="rgb(226,169,116)" stroke-width="1" opacity="0.9921568627450981" d="M 130.5 122 L 131 139.5 L 130 139.5 L 130.5 122 Z " /><path fill="rgb(226,169,116)" stroke="rgb(226,169,116)" stroke-width="1" opacity="0.9921568627450981" d="M 137 123 L 144.5 123 L 146 124.5 L 146 151.5 L 142.5 156 L 140.5 157 L 91.5 157 L 85 154 L 82 149.5 L 81 144.5 Q 82.3 140.8 88.5 142 L 91 147 L 93.5 148 L 134.5 148 L 137 147 L 137 123 Z M 140 132 L 139 145 L 136 149 L 93 149 L 91 147 Q 88 148 89 145 Q 88 142 83 143 Q 82 149 86 151 L 137 151 L 140 148 L 140 132 Z " /><path fill="rgb(226,169,116)" stroke="rgb(226,169,116)" stroke-width="1" opacity="0.9921568627450981" d="M 105.5 125 L 104.5 127 L 105.5 125 Z " /><path fill="rgb(226,169,116)" stroke="rgb(226,169,116)" stroke-width="1" opacity="0.9921568627450981" d="M 69.5 127 L 70.5 129 L 69.5 127 Z " /><path fill="rgb(226,169,116)" stroke="rgb(226,169,116)" stroke-width="1" opacity="0.9921568627450981" d="M 111.5 128 L 110.5 130 L 111.5 128 Z " /><path fill="rgb(226,169,116)" stroke="rgb(226,169,116)" stroke-width="1" opacity="0.9921568627450981" d="M 72.5 130 L 73.5 132 L 72.5 130 Z " /><path fill="rgb(226,169,116)" stroke="rgb(226,169,116)" stroke-width="1" opacity="0.9921568627450981" d="M 101.5 131 L 100.5 133 L 101.5 131 Z " /><path fill="rgb(226,169,116)" stroke="rgb(226,169,116)" stroke-width="1" opacity="0.9921568627450981" d="M 75.5 133 L 76.5 135 L 75.5 133 Z " /><path fill="rgb(226,169,116)" stroke="rgb(226,169,116)" stroke-width="1" opacity="0.9921568627450981" d="M 96.5 136 L 95.5 138 L 96.5 136 Z " /><path fill="rgb(226,169,116)" stroke="rgb(226,169,116)" stroke-width="1" opacity="0.9921568627450981" d="M 104.5 138 L 103.5 140 L 104.5 138 Z " /><path fill="rgb(226,169,116)" stroke="rgb(226,169,116)" stroke-width="1" opacity="0.9921568627450981" d="M 75.5 153 L 76 158.5 L 75 158.5 L 75.5 153 Z " /><path fill="rgb(226,169,116)" stroke="rgb(226,169,116)" stroke-width="1" opacity="0.9921568627450981" d="M 133.5 182 L 134 191.5 L 133 191.5 L 133.5 182 Z " /><path fill="rgb(118,120,117)" stroke="rgb(118,120,117)" stroke-width="1" opacity="0.6823529411764706" d="M 85 0 L 90 0.5 L 80 5 Q 81.3 8.3 76.5 7 L 76.5 6 L 85 2 L 85 0 Z " /><path fill="rgb(118,120,117)" stroke="rgb(118,120,117)" stroke-width="1" opacity="0.6823529411764706" d="M 117.5 0 L 123.5 3 L 127.5 3 L 132.5 7 L 134 6.5 L 133.5 8 L 137 9.5 L 136.5 12 L 128.5 5 L 121.5 4 L 117.5 0 Z " /><path fill="rgb(118,120,117)" stroke="rgb(118,120,117)" stroke-width="1" opacity="0.6823529411764706" d="M 92.5 6 L 116 6.5 L 92.5 7 L 92.5 6 Z " /><path fill="rgb(118,120,117)" stroke="rgb(118,120,117)" stroke-width="1" opacity="0.6823529411764706" d="M 76.5 8 L 78 8.5 L 76 9 Q 77.1 11.7 74.5 11 L 76.5 8 Z " /><path fill="rgb(118,120,117)" stroke="rgb(118,120,117)" stroke-width="1" opacity="0.6823529411764706" d="M 85.5 8 L 84.5 10 L 85.5 8 Z " /><path fill="rgb(118,120,117)" stroke="rgb(118,120,117)" stroke-width="1" opacity="0.6823529411764706" d="M 128.5 11 L 129.5 13 L 128.5 11 Z " /><path fill="rgb(118,120,117)" stroke="rgb(118,120,117)" stroke-width="1" opacity="0.6823529411764706" d="M 74.5 12 L 75 14 L 73 13.5 L 74.5 12 Z " /><path fill="rgb(118,120,117)" stroke="rgb(118,120,117)" stroke-width="1" opacity="0.6823529411764706" d="M 80.5 13 L 79.5 15 L 80.5 13 Z " /><path fill="rgb(118,120,117)" stroke="rgb(118,120,117)" stroke-width="1" opacity="0.6823529411764706" d="M 137.5 13 Q 139.8 12.3 139 14.5 L 141 16.5 L 141 32.5 L 143 34.5 L 143 36.5 L 142.5 38 L 140 34.5 L 140 18.5 L 137.5 13 Z " /><path fill="rgb(118,120,117)" stroke="rgb(118,120,117)" stroke-width="1" opacity="0.6823529411764706" d="M 71 15 Q 75 13.6 73 20.5 L 72 21.5 L 72 34.5 L 69 41.5 L 73.5 48 L 79 50.5 L 78.5 52 Q 77.8 49.2 73.5 50 L 68 44.5 L 68 35.5 L 69.5 34 L 71 33.5 L 71 15 Z " /><path fill="rgb(118,120,117)" stroke="rgb(118,120,117)" stroke-width="1" opacity="0.6823529411764706" d="M 127.5 26 L 128 28.5 L 127 28.5 L 127.5 26 Z " /><path fill="rgb(118,120,117)" stroke="rgb(118,120,117)" stroke-width="1" opacity="0.6823529411764706" d="M 83.5 30 L 82.5 32 L 83.5 30 Z " /><path fill="rgb(118,120,117)" stroke="rgb(118,120,117)" stroke-width="1" opacity="0.6823529411764706" d="M 128.5 30 L 131 31.5 L 129.5 32 L 128.5 30 Z " /><path fill="rgb(118,120,117)" stroke="rgb(118,120,117)" stroke-width="1" opacity="0.6823529411764706" d="M 78.5 37 L 83 37.5 L 78.5 38 L 78.5 37 Z " /><path fill="rgb(118,120,117)" stroke="rgb(118,120,117)" stroke-width="1" opacity="0.6823529411764706" d="M 130.5 37 L 134 37.5 L 130.5 38 L 130.5 37 Z " /><path fill="rgb(118,120,117)" stroke="rgb(118,120,117)" stroke-width="1" opacity="0.6823529411764706" d="M 112.5 43 L 114 45.5 L 112 44.5 L 112.5 43 Z " /><path fill="rgb(118,120,117)" stroke="rgb(118,120,117)" stroke-width="1" opacity="0.6823529411764706" d="M 142.5 43 L 143 44.5 Q 138.7 46.8 140.5 49 L 138 48.5 L 142.5 43 Z " /><path fill="rgb(118,120,117)" stroke="rgb(118,120,117)" stroke-width="1" opacity="0.6823529411764706" d="M 98.5 45 L 97.5 47 L 96 46.5 L 98.5 45 Z " /><path fill="rgb(118,120,117)" stroke="rgb(118,120,117)" stroke-width="1" opacity="0.6823529411764706" d="M 134.5 49 L 136 49.5 L 134 50 L 133.5 52 L 133 50.5 L 134.5 49 Z " /><path fill="rgb(118,120,117)" stroke="rgb(118,120,117)" stroke-width="1" opacity="0.6823529411764706" d="M 100.5 52 L 103 52.5 L 100.5 53 L 100.5 52 Z " /><path fill="rgb(118,120,117)" stroke="rgb(118,120,117)" stroke-width="1" opacity="0.6823529411764706" d="M 109.5 52 L 113 52.5 L 109.5 53 L 109.5 52 Z " /><path fill="rgb(118,120,117)" stroke="rgb(118,120,117)" stroke-width="1" opacity="0.6823529411764706" d="M 85.5 54 L 86.5 56 L 85.5 54 Z " /><path fill="rgb(118,120,117)" stroke="rgb(118,120,117)" stroke-width="1" opacity="0.6823529411764706" d="M 79 55 Q 82 53.8 81 57.5 L 82 61 Q 84.7 59.9 84 62.5 Q 87.2 69 94 70 L 93.5 74 L 91.5 71 Q 88.2 72.1 89 69.5 L 86 68 L 84.5 65 Q 81.9 65.8 83 62.5 Q 79 60.3 79 55 Z " /><path fill="rgb(118,120,117)" stroke="rgb(118,120,117)" stroke-width="1" opacity="0.6823529411764706" d="M 98.5 56 L 99.5 58 L 98.5 56 Z " /><path fill="rgb(118,120,117)" stroke="rgb(118,120,117)" stroke-width="1" opacity="0.6823529411764706" d="M 113.5 56 L 112.5 58 L 113.5 56 Z " /><path fill="rgb(118,120,117)" stroke="rgb(118,120,117)" stroke-width="1" opacity="0.6823529411764706" d="M 131 56 Q 134 54.8 133 58.5 L 132 62 L 129 63.5 Q 129.8 65.8 127.5 65 L 126 65.5 L 131 58.5 L 131 56 Z " /><path fill="rgb(118,120,117)" stroke="rgb(118,120,117)" stroke-width="1" opacity="0.6823529411764706" d="M 104.5 59 L 108 59.5 L 104.5 60 L 104.5 59 Z " /><path fill="rgb(118,120,117)" stroke="rgb(118,120,117)" stroke-width="1" opacity="0.6823529411764706" d="M 89.5 60 L 90.5 62 L 89.5 60 Z " /><path fill="rgb(118,120,117)" stroke="rgb(118,120,117)" stroke-width="1" opacity="0.6823529411764706" d="M 124.5 66 L 125.5 68 L 123 69.5 Q 123.7 72.1 121 71 L 124.5 66 Z " /><path fill="rgb(118,120,117)" stroke="rgb(118,120,117)" stroke-width="1" opacity="0.6823529411764706" d="M 73 74 L 76 74.5 L 73 76 L 73 74 Z " /><path fill="rgb(118,120,117)" stroke="rgb(118,120,117)" stroke-width="1" opacity="0.6823529411764706" d="M 86.5 74 Q 90.3 73 89 76 L 86.5 74 Z " /><path fill="rgb(118,120,117)" stroke="rgb(118,120,117)" stroke-width="1" opacity="0.6823529411764706" d="M 67.5 75 L 71 75.5 L 63.5 80 L 57 86.5 L 55.5 89 L 54 88.5 L 56.5 85 L 55 84.5 L 60 83 L 61.5 80 Q 63.8 80.8 63 78.5 Q 64.4 75.9 69 76.5 L 67.5 75 Z " /><path fill="rgb(118,120,117)" stroke="rgb(118,120,117)" stroke-width="1" opacity="0.6823529411764706" d="M 92.5 75 L 93.5 77 Q 90.7 77.7 92.5 75 Z " /><path fill="rgb(118,120,117)" stroke="rgb(118,120,117)" stroke-width="1" opacity="0.6823529411764706" d="M 121.5 78 L 124.5 81 Q 128.3 80.3 129 82.5 L 125.5 83 L 122 82 L 121.5 78 Z " /><path fill="rgb(118,120,117)" stroke="rgb(118,120,117)" stroke-width="1" opacity="0.6823529411764706" d="M 76.5 80 L 86 80.5 L 76.5 81 L 76.5 80 Z " /><path fill="rgb(118,120,117)" stroke="rgb(118,120,117)" stroke-width="1" opacity="0.6823529411764706" d="M 91.5 82 L 95 84.5 L 92.5 83 L 91.5 82 Z " /><path fill="rgb(118,120,117)" stroke="rgb(118,120,117)" stroke-width="1" opacity="0.6823529411764706" d="M 68.5 83 L 67.5 85 L 68.5 83 Z " /><path fill="rgb(118,120,117)" stroke="rgb(118,120,117)" stroke-width="1" opacity="0.6823529411764706" d="M 130.5 83 Q 135.3 81.7 134 85 Q 130.2 85.8 130.5 83 Z " /><path fill="rgb(118,120,117)" stroke="rgb(118,120,117)" stroke-width="1" opacity="0.6823529411764706" d="M 135.5 84 L 139 85.5 L 137.5 86 L 135.5 84 Z " /><path fill="rgb(118,120,117)" stroke="rgb(118,120,117)" stroke-width="1" opacity="0.6823529411764706" d="M 65.5 85 L 62 89.5 L 59.5 93 L 61 90.5 L 65.5 85 Z " /><path fill="rgb(118,120,117)" stroke="rgb(118,120,117)" stroke-width="1" opacity="0.6823529411764706" d="M 77.5 86 L 85 86.5 L 75.5 88 L 75.5 87 L 77.5 86 Z " /><path fill="rgb(118,120,117)" stroke="rgb(118,120,117)" stroke-width="1" opacity="0.6823529411764706" d="M 97.5 86 L 98.5 88 L 97.5 86 Z " /><path fill="rgb(118,120,117)" stroke="rgb(118,120,117)" stroke-width="1" opacity="0.6823529411764706" d="M 141.5 86 L 145 86.5 L 142.5 88 L 141.5 86 Z " /><path fill="rgb(118,120,117)" stroke="rgb(118,120,117)" stroke-width="1" opacity="0.6823529411764706" d="M 146.5 87 L 149 87 Q 147.9 89.7 150.5 89 L 153.5 93 Q 156.5 92.2 155 96 Q 152.3 97.1 153 94.5 L 152 92 L 150.5 92 L 146.5 87 Z " /><path fill="rgb(118,120,117)" stroke="rgb(118,120,117)" stroke-width="1" opacity="0.6823529411764706" d="M 72.5 88 L 71.5 90 L 66.5 94 L 70.5 89 L 72.5 88 Z " /><path fill="rgb(118,120,117)" stroke="rgb(118,120,117)" stroke-width="1" opacity="0.6823529411764706" d="M 91.5 89 L 92.5 91 L 91.5 89 Z " /><path fill="rgb(118,120,117)" stroke="rgb(118,120,117)" stroke-width="1" opacity="0.6823529411764706" d="M 100.5 89 L 102.5 92 L 100.5 89 Z " /><path fill="rgb(118,120,117)" stroke="rgb(118,120,117)" stroke-width="1" opacity="0.6823529411764706" d="M 52 90 Q 54.7 88.9 54 91.5 L 53 96 Q 50 97.3 51 93.5 L 52 90 Z " /><path fill="rgb(118,120,117)" stroke="rgb(118,120,117)" stroke-width="1" opacity="0.6823529411764706" d="M 78.5 92 L 81 92.5 L 78.5 93 L 78.5 92 Z " /><path fill="rgb(118,120,117)" stroke="rgb(118,120,117)" stroke-width="1" opacity="0.6823529411764706" d="M 58.5 94 L 59 95.5 L 57.5 99 L 57 96.5 L 58.5 94 Z " /><path fill="rgb(118,120,117)" stroke="rgb(118,120,117)" stroke-width="1" opacity="0.6823529411764706" d="M 65.5 95 L 65 96.5 L 63.5 100 L 63 98.5 L 65.5 95 Z " /><path fill="rgb(118,120,117)" stroke="rgb(118,120,117)" stroke-width="1" opacity="0.6823529411764706" d="M 89.5 95 L 90.5 97 L 89.5 95 Z " /><path fill="rgb(118,120,117)" stroke="rgb(118,120,117)" stroke-width="1" opacity="0.6823529411764706" d="M 104.5 95 L 105.5 97 L 104.5 95 Z " /><path fill="rgb(118,120,117)" stroke="rgb(118,120,117)" stroke-width="1" opacity="0.6823529411764706" d="M 97.5 96 L 99 98.5 L 98 98.5 L 97.5 96 Z " /><path fill="rgb(118,120,117)" stroke="rgb(118,120,117)" stroke-width="1" opacity="0.6823529411764706" d="M 155.5 97 L 157 98.5 L 157 116.5 L 155 117.5 L 156 101.5 L 155.5 97 Z " /><path fill="rgb(118,120,117)" stroke="rgb(118,120,117)" stroke-width="1" opacity="0.6823529411764706" d="M 50.5 99 L 51 102.5 L 50 105.5 L 51 110 L 49 109.5 L 49 100.5 L 50.5 99 Z " /><path fill="rgb(118,120,117)" stroke="rgb(118,120,117)" stroke-width="1" opacity="0.6823529411764706" d="M 56.5 100 L 57 103.5 L 56 103.5 L 56.5 100 Z " /><path fill="rgb(118,120,117)" stroke="rgb(118,120,117)" stroke-width="1" opacity="0.6823529411764706" d="M 107.5 102 L 109 106.5 L 108 106.5 L 107.5 102 Z " /><path fill="rgb(118,120,117)" stroke="rgb(118,120,117)" stroke-width="1" opacity="0.6823529411764706" d="M 56.5 106 L 57 108.5 L 56 108.5 L 56.5 106 Z " /><path fill="rgb(118,120,117)" stroke="rgb(118,120,117)" stroke-width="1" opacity="0.6823529411764706" d="M 99.5 107 L 100 109.5 L 98.5 112 L 98 110.5 L 99.5 107 Z " /><path fill="rgb(118,120,117)" stroke="rgb(118,120,117)" stroke-width="1" opacity="0.6823529411764706" d="M 74.5 110 L 77 111.5 L 75.5 112 L 74.5 110 Z " /><path fill="rgb(118,120,117)" stroke="rgb(118,120,117)" stroke-width="1" opacity="0.6823529411764706" d="M 92.5 110 L 91.5 112 L 92.5 110 Z " /><path fill="rgb(118,120,117)" stroke="rgb(118,120,117)" stroke-width="1" opacity="0.6823529411764706" d="M 51.5 113 L 54 119 Q 51 120.3 52 116.5 L 51.5 113 Z " /><path fill="rgb(118,120,117)" stroke="rgb(118,120,117)" stroke-width="1" opacity="0.6823529411764706" d="M 96.5 115 L 92.5 120 L 96.5 115 Z " /><path fill="rgb(118,120,117)" stroke="rgb(118,120,117)" stroke-width="1" opacity="0.6823529411764706" d="M 126.5 115 L 128.5 118 L 126.5 115 Z " /><path fill="rgb(118,120,117)" stroke="rgb(118,120,117)" stroke-width="1" opacity="0.6823529411764706" d="M 108.5 116 L 109 118.5 L 107.5 121 L 107 119.5 L 108.5 116 Z " /><path fill="rgb(118,120,117)" stroke="rgb(118,120,117)" stroke-width="1" opacity="0.6823529411764706" d="M 114.5 116 L 115 119.5 L 113.5 122 L 113 120.5 L 114.5 116 Z " /><path fill="rgb(118,120,117)" stroke="rgb(118,120,117)" stroke-width="1" opacity="0.6823529411764706" d="M 60.5 118 L 62.5 121 L 60.5 118 Z " /><path fill="rgb(118,120,117)" stroke="rgb(118,120,117)" stroke-width="1" opacity="0.6823529411764706" d="M 129.5 119 L 131 121.5 L 130 121.5 L 129.5 119 Z " /><path fill="rgb(118,120,117)" stroke="rgb(118,120,117)" stroke-width="1" opacity="0.6823529411764706" d="M 153.5 119 Q 156.1 118.3 155 121 L 152.5 122 L 152 120.5 L 153.5 119 Z " /><path fill="rgb(118,120,117)" stroke="rgb(118,120,117)" stroke-width="1" opacity="0.6823529411764706" d="M 54 120 Q 56.7 118.9 56 121.5 L 60.5 127 Q 62.8 126.3 62 128.5 L 65 130 L 66.5 133 Q 68.8 132.3 68 134.5 Q 65.7 135.8 68.5 137 L 70.5 136 L 71.5 138 L 69.5 137 Q 67.8 139.8 66 135.5 Q 68.3 134.3 65.5 133 Q 64.3 135.3 63 132.5 Q 65.3 131.3 62.5 130 Q 61.3 132.3 60 129.5 L 61 128.5 L 57 124.5 L 55.5 122 Q 52.9 122.7 54 120 Z " /><path fill="rgb(118,120,117)" stroke="rgb(118,120,117)" stroke-width="1" opacity="0.6823529411764706" d="M 72.5 120 L 73.5 122 L 72.5 120 Z " /><path fill="rgb(118,120,117)" stroke="rgb(118,120,117)" stroke-width="1" opacity="0.6823529411764706" d="M 90.5 120 L 89.5 122 L 88 121.5 L 90.5 120 Z " /><path fill="rgb(118,120,117)" stroke="rgb(118,120,117)" stroke-width="1" opacity="0.6823529411764706" d="M 84.5 122 L 87 122.5 L 84.5 123 L 84.5 122 Z " /><path fill="rgb(118,120,117)" stroke="rgb(118,120,117)" stroke-width="1" opacity="0.6823529411764706" d="M 54.5 123 L 55.5 125 L 54.5 123 Z " /><path fill="rgb(118,120,117)" stroke="rgb(118,120,117)" stroke-width="1" opacity="0.6823529411764706" d="M 105.5 126 L 104.5 128 L 105.5 126 Z " /><path fill="rgb(118,120,117)" stroke="rgb(118,120,117)" stroke-width="1" opacity="0.6823529411764706" d="M 111.5 127 L 110.5 129 L 111.5 127 Z " /><path fill="rgb(118,120,117)" stroke="rgb(118,120,117)" stroke-width="1" opacity="0.6823529411764706" d="M 107 133 L 109 133.5 L 105.5 138 L 105 136.5 L 107 133 Z " /><path fill="rgb(118,120,117)" stroke="rgb(118,120,117)" stroke-width="1" opacity="0.6823529411764706" d="M 99.5 134 L 96.5 138 L 99.5 134 Z " /><path fill="rgb(118,120,117)" stroke="rgb(118,120,117)" stroke-width="1" opacity="0.6823529411764706" d="M 77.5 135 L 81 136.5 L 78.5 137 L 77.5 135 Z " /><path fill="rgb(118,120,117)" stroke="rgb(118,120,117)" stroke-width="1" opacity="0.6823529411764706" d="M 82.5 135 L 90 135.5 L 82.5 136 L 82.5 135 Z " /><path fill="rgb(118,120,117)" stroke="rgb(118,120,117)" stroke-width="1" opacity="0.6823529411764706" d="M 91.5 136 L 94 137.5 L 92.5 137 L 91.5 136 Z " /><path fill="rgb(118,120,117)" stroke="rgb(118,120,117)" stroke-width="1" opacity="0.6823529411764706" d="M 72.5 139 L 75 140.5 L 73.5 141 L 71 140.5 L 72.5 139 Z " /><path fill="rgb(118,120,117)" stroke="rgb(118,120,117)" stroke-width="1" opacity="0.6823529411764706" d="M 102.5 140 L 103.5 141 L 129.5 141 L 131 140.5 L 130.5 142 L 101.5 142 L 102.5 140 Z " /><path fill="rgb(118,120,117)" stroke="rgb(118,120,117)" stroke-width="1" opacity="0.6823529411764706" d="M 73.5 142 Q 76.9 141.1 75 146.5 L 76 150.5 L 74.5 158 L 74 143.5 L 73.5 142 Z " /><path fill="rgb(118,120,117)" stroke="rgb(118,120,117)" stroke-width="1" opacity="0.6823529411764706" d="M 151.5 155 L 152 157 L 150 156.5 L 151.5 155 Z " /><path fill="rgb(118,120,117)" stroke="rgb(118,120,117)" stroke-width="1" opacity="0.6823529411764706" d="M 149.5 158 L 149.5 161 Q 146.5 159.5 149.5 158 Z " /><path fill="rgb(118,120,117)" stroke="rgb(118,120,117)" stroke-width="1" opacity="0.6823529411764706" d="M 72.5 159 L 75 160.5 L 72 163.5 L 72 193.5 L 73 195.5 L 71 194.5 L 71 160.5 L 72.5 159 Z " /><path fill="rgb(118,120,117)" stroke="rgb(118,120,117)" stroke-width="1" opacity="0.6823529411764706" d="M 146.5 160 L 147 162 L 144 162.5 L 146 163.5 L 141 165.5 L 141 194.5 L 139.5 196 L 140 194.5 L 140 163.5 L 141.5 163 L 146.5 160 Z " /><path fill="rgb(118,120,117)" stroke="rgb(118,120,117)" stroke-width="1" opacity="0.6823529411764706" d="M 78.5 181 L 134 181.5 L 78.5 182 L 78.5 181 Z " /><path fill="rgb(118,120,117)" stroke="rgb(118,120,117)" stroke-width="1" opacity="0.6823529411764706" d="M 134.5 194 Q 137.5 195.5 134.5 197 L 134.5 194 Z " /><path fill="rgb(54,47,45)" stroke="rgb(54,47,45)" stroke-width="1" opacity="0.9019607843137255" d="M 89.5 1 L 91 1.5 L 85.5 4 L 86.5 2 L 89.5 1 Z " /><path fill="rgb(54,47,45)" stroke="rgb(54,47,45)" stroke-width="1" opacity="0.9019607843137255" d="M 117.5 1 L 121 3.5 L 119.5 3 L 117.5 1 Z " /><path fill="rgb(54,47,45)" stroke="rgb(54,47,45)" stroke-width="1" opacity="0.9019607843137255" d="M 82.5 4 L 77 10.5 L 75.5 13 L 75 11.5 L 76 9 L 78 9 L 78 7 L 80 7 Q 78.9 4.3 81.5 5 L 82.5 4 Z " /><path fill="rgb(54,47,45)" stroke="rgb(54,47,45)" stroke-width="1" opacity="0.9019607843137255" d="M 122.5 4 L 128.5 5 L 130 6.5 L 128.5 7 L 122.5 5 L 122.5 4 Z " /><path fill="rgb(54,47,45)" stroke="rgb(54,47,45)" stroke-width="1" opacity="0.9019607843137255" d="M 91.5 5 L 115.5 5 L 117 6.5 L 115.5 6 L 92.5 6 L 89.5 7 L 89.5 6 L 91.5 5 Z " /><path fill="rgb(54,47,45)" stroke="rgb(54,47,45)" stroke-width="1" opacity="0.9019607843137255" d="M 118.5 7 L 125 9.5 L 122.5 10 Q 118.5 9.5 118.5 7 Z " /><path fill="rgb(54,47,45)" stroke="rgb(54,47,45)" stroke-width="1" opacity="0.9019607843137255" d="M 131.5 7 L 133.5 10 L 131.5 7 Z " /><path fill="rgb(54,47,45)" stroke="rgb(54,47,45)" stroke-width="1" opacity="0.9019607843137255" d="M 84.5 8 L 83.5 10 L 84.5 8 Z " /><path fill="rgb(54,47,45)" stroke="rgb(54,47,45)" stroke-width="1" opacity="0.9019607843137255" d="M 81.5 11 L 79.5 14 L 81.5 11 Z " /><path fill="rgb(54,47,45)" stroke="rgb(54,47,45)" stroke-width="1" opacity="0.9019607843137255" d="M 129.5 11 L 132.5 15 L 129.5 11 Z " /><path fill="rgb(54,47,45)" stroke="rgb(54,47,45)" stroke-width="1" opacity="0.9019607843137255" d="M 135.5 11 L 138 14.5 L 135 12.5 L 135.5 11 Z " /><path fill="rgb(54,47,45)" stroke="rgb(54,47,45)" stroke-width="1" opacity="0.9019607843137255" d="M 73 14 L 75 14.5 L 74 15.5 L 74 32.5 L 71.5 36 L 72 34.5 L 72 21.5 L 73 20.5 L 73 14 Z " /><path fill="rgb(54,47,45)" stroke="rgb(54,47,45)" stroke-width="1" opacity="0.9019607843137255" d="M 138.5 17 L 140 18.5 L 140 34.5 L 139 34.5 L 139 21.5 L 138.5 17 Z " /><path fill="rgb(54,47,45)" stroke="rgb(54,47,45)" stroke-width="1" opacity="0.9019607843137255" d="M 77.5 20 L 78 30.5 L 77 30.5 L 77.5 20 Z " /><path fill="rgb(54,47,45)" stroke="rgb(54,47,45)" stroke-width="1" opacity="0.9019607843137255" d="M 117.5 20 Q 124.1 19.4 126 23.5 L 128 29.5 L 126 28.5 L 125 23 L 118.5 21 L 113.5 22 L 113.5 21 L 117.5 20 Z " /><path fill="rgb(54,47,45)" stroke="rgb(54,47,45)" stroke-width="1" opacity="0.9019607843137255" d="M 134.5 20 L 135 30.5 L 134 30.5 L 134.5 20 Z " /><path fill="rgb(54,47,45)" stroke="rgb(54,47,45)" stroke-width="1" opacity="0.9019607843137255" d="M 107.5 22 L 110 22.5 L 107.5 23 L 107.5 22 Z " /><path fill="rgb(54,47,45)" stroke="rgb(54,47,45)" stroke-width="1" opacity="0.9019607843137255" d="M 100.5 23 L 105 23.5 L 98 25 L 99.5 28 L 108.5 27 L 108.5 28 L 98.5 29 L 97 25.5 L 100.5 23 Z " /><path fill="rgb(54,47,45)" stroke="rgb(54,47,45)" stroke-width="1" opacity="0.9019607843137255" d="M 85 26 L 87 26.5 L 83.5 32 L 84 30.5 L 85 26 Z " /><path fill="rgb(54,47,45)" stroke="rgb(54,47,45)" stroke-width="1" opacity="0.9019607843137255" d="M 88.5 26 Q 91 27 90 31.5 L 87.5 35 L 87 33.5 Q 90 32.5 89 27.5 L 88.5 26 Z " /><path fill="rgb(54,47,45)" stroke="rgb(54,47,45)" stroke-width="1" opacity="0.9019607843137255" d="M 110.5 26 L 113 26.5 L 110.5 27 L 110.5 26 Z " /><path fill="rgb(54,47,45)" stroke="rgb(54,47,45)" stroke-width="1" opacity="0.9019607843137255" d="M 122.5 30 L 125 34.5 L 124 34.5 L 122.5 30 Z " /><path fill="rgb(54,47,45)" stroke="rgb(54,47,45)" stroke-width="1" opacity="0.9019607843137255" d="M 77.5 36 L 84 36.5 L 76.5 38 L 77.5 36 Z " /><path fill="rgb(54,47,45)" stroke="rgb(54,47,45)" stroke-width="1" opacity="0.9019607843137255" d="M 128.5 36 Q 134.5 34.5 136 37.5 L 134.5 38 Q 133.3 35.8 128.5 37 L 128.5 36 Z " /><path fill="rgb(54,47,45)" stroke="rgb(54,47,45)" stroke-width="1" opacity="0.9019607843137255" d="M 70.5 37 L 71 43.5 L 70 43.5 L 69 39.5 L 70.5 37 Z " /><path fill="rgb(54,47,45)" stroke="rgb(54,47,45)" stroke-width="1" opacity="0.9019607843137255" d="M 141.5 37 L 142.5 39 Q 139.7 39.7 141.5 37 Z " /><path fill="rgb(54,47,45)" stroke="rgb(54,47,45)" stroke-width="1" opacity="0.9019607843137255" d="M 94 38 L 96 38.5 L 95 45 L 99 43.5 L 98 38.5 L 99 38.5 L 100 45 L 95.5 46 L 94 44.5 L 94 38 Z " /><path fill="rgb(54,47,45)" stroke="rgb(54,47,45)" stroke-width="1" opacity="0.9019607843137255" d="M 113 38 L 115 38.5 L 113 39.5 L 113 38 Z " /><path fill="rgb(54,47,45)" stroke="rgb(54,47,45)" stroke-width="1" opacity="0.9019607843137255" d="M 116.5 38 Q 119.5 37.5 118 44.5 L 114.5 46 L 113.5 44 L 117 45 L 116.5 38 Z " /><path fill="rgb(54,47,45)" stroke="rgb(54,47,45)" stroke-width="1" opacity="0.9019607843137255" d="M 137.5 39 L 138 41.5 L 137 44 L 135 43.5 L 137.5 39 Z " /><path fill="rgb(54,47,45)" stroke="rgb(54,47,45)" stroke-width="1" opacity="0.9019607843137255" d="M 75.5 42 L 76.5 44 Q 73.7 44.7 75.5 42 Z " /><path fill="rgb(54,47,45)" stroke="rgb(54,47,45)" stroke-width="1" opacity="0.9019607843137255" d="M 141 42 L 143 42.5 L 141 43.5 L 141 42 Z " /><path fill="rgb(54,47,45)" stroke="rgb(54,47,45)" stroke-width="1" opacity="0.9019607843137255" d="M 82.5 44 L 84 46.5 L 83 46.5 L 82.5 44 Z " /><path fill="rgb(54,47,45)" stroke="rgb(54,47,45)" stroke-width="1" opacity="0.9019607843137255" d="M 129.5 44 L 128.5 46 L 129.5 44 Z " /><path fill="rgb(54,47,45)" stroke="rgb(54,47,45)" stroke-width="1" opacity="0.9019607843137255" d="M 71.5 45 L 73.5 48 L 71.5 45 Z " /><path fill="rgb(54,47,45)" stroke="rgb(54,47,45)" stroke-width="1" opacity="0.9019607843137255" d="M 140.5 45 L 138.5 48 L 140.5 45 Z " /><path fill="rgb(54,47,45)" stroke="rgb(54,47,45)" stroke-width="1" opacity="0.9019607843137255" d="M 76.5 48 Q 79.8 46.9 79 49.5 L 79.5 51 L 76.5 48 Z " /><path fill="rgb(54,47,45)" stroke="rgb(54,47,45)" stroke-width="1" opacity="0.9019607843137255" d="M 133.5 48 L 136 48.5 L 132.5 51 L 132 49.5 L 133.5 48 Z " /><path fill="rgb(54,47,45)" stroke="rgb(54,47,45)" stroke-width="1" opacity="0.9019607843137255" d="M 84.5 51 L 85 53.5 L 84 53.5 L 84.5 51 Z " /><path fill="rgb(54,47,45)" stroke="rgb(54,47,45)" stroke-width="1" opacity="0.9019607843137255" d="M 127.5 51 L 128 53.5 L 127 57 L 125 56.5 L 127.5 51 Z " /><path fill="rgb(54,47,45)" stroke="rgb(54,47,45)" stroke-width="1" opacity="0.9019607843137255" d="M 99.5 53 L 99 54.5 L 98.5 56 L 98 54.5 L 99.5 53 Z " /><path fill="rgb(54,47,45)" stroke="rgb(54,47,45)" stroke-width="1" opacity="0.9019607843137255" d="M 112.5 53 L 114 55.5 L 113 55.5 L 112.5 53 Z " /><path fill="rgb(54,47,45)" stroke="rgb(54,47,45)" stroke-width="1" opacity="0.9019607843137255" d="M 85.5 55 L 88 58.5 L 86 57.5 L 85.5 55 Z " /><path fill="rgb(54,47,45)" stroke="rgb(54,47,45)" stroke-width="1" opacity="0.9019607843137255" d="M 130.5 57 L 131 58.5 L 129 59.5 L 130.5 57 Z " /><path fill="rgb(54,47,45)" stroke="rgb(54,47,45)" stroke-width="1" opacity="0.9019607843137255" d="M 102.5 58 L 110 58.5 L 102.5 59 L 102.5 58 Z " /><path fill="rgb(54,47,45)" stroke="rgb(54,47,45)" stroke-width="1" opacity="0.9019607843137255" d="M 124.5 58 L 125 59.5 L 117.5 66 L 119.5 63 L 124 59.5 L 124.5 58 Z " /><path fill="rgb(54,47,45)" stroke="rgb(54,47,45)" stroke-width="1" opacity="0.9019607843137255" d="M 82.5 59 L 83.5 61 Q 80.7 61.7 82.5 59 Z " /><path fill="rgb(54,47,45)" stroke="rgb(54,47,45)" stroke-width="1" opacity="0.9019607843137255" d="M 88.5 60 L 95 65.5 L 92.5 64 L 88.5 60 Z " /><path fill="rgb(54,47,45)" stroke="rgb(54,47,45)" stroke-width="1" opacity="0.9019607843137255" d="M 84.5 62 L 86.5 65 L 84.5 62 Z " /><path fill="rgb(54,47,45)" stroke="rgb(54,47,45)" stroke-width="1" opacity="0.9019607843137255" d="M 126.5 63 L 127 64.5 L 125 65.5 L 126.5 63 Z " /><path fill="rgb(54,47,45)" stroke="rgb(54,47,45)" stroke-width="1" opacity="0.9019607843137255" d="M 88.5 66 L 90.5 69 L 88.5 66 Z " /><path fill="rgb(54,47,45)" stroke="rgb(54,47,45)" stroke-width="1" opacity="0.9019607843137255" d="M 123.5 66 L 120.5 70 L 123.5 66 Z " /><path fill="rgb(54,47,45)" stroke="rgb(54,47,45)" stroke-width="1" opacity="0.9019607843137255" d="M 98.5 67 L 109.5 68 L 113.5 67 L 113.5 68 L 101.5 69 L 98.5 68 L 98.5 67 Z " /><path fill="rgb(54,47,45)" stroke="rgb(54,47,45)" stroke-width="1" opacity="0.9019607843137255" d="M 94.5 70 L 100 72.5 L 97.5 73 L 94 72 L 94.5 70 Z " /><path fill="rgb(54,47,45)" stroke="rgb(54,47,45)" stroke-width="1" opacity="0.9019607843137255" d="M 113.5 72 L 116 72 L 116 78.5 L 115 78.5 Q 116.3 72.4 113.5 73 L 113.5 72 Z " /><path fill="rgb(54,47,45)" stroke="rgb(54,47,45)" stroke-width="1" opacity="0.9019607843137255" d="M 102.5 73 L 110 73.5 L 102.5 74 L 102.5 73 Z " /><path fill="rgb(54,47,45)" stroke="rgb(54,47,45)" stroke-width="1" opacity="0.9019607843137255" d="M 76.5 74 Q 81.3 72.7 80 76 L 75 75.5 L 76.5 74 Z " /><path fill="rgb(54,47,45)" stroke="rgb(54,47,45)" stroke-width="1" opacity="0.9019607843137255" d="M 82.5 74 Q 86.3 73.3 87 75.5 L 83.5 76 L 82.5 74 Z " /><path fill="rgb(54,47,45)" stroke="rgb(54,47,45)" stroke-width="1" opacity="0.9019607843137255" d="M 70.5 76 L 71 78 L 69 77.5 L 70.5 76 Z " /><path fill="rgb(54,47,45)" stroke="rgb(54,47,45)" stroke-width="1" opacity="0.9019607843137255" d="M 91.5 76 L 97 78.5 L 95.5 79 Q 91.5 78.5 91.5 76 Z " /><path fill="rgb(54,47,45)" stroke="rgb(54,47,45)" stroke-width="1" opacity="0.9019607843137255" d="M 78.5 79 L 84 79.5 L 78.5 80 L 78.5 79 Z " /><path fill="rgb(54,47,45)" stroke="rgb(54,47,45)" stroke-width="1" opacity="0.9019607843137255" d="M 98.5 79 L 103 82 L 104.5 85 Q 106.8 84.3 106 86.5 L 109 88 L 110.5 91 L 113 92.5 Q 112.3 94.8 114.5 94 L 130.5 111 L 119.5 100 L 118 100 Q 119.1 97.3 116.5 98 L 115 95 L 98 81 L 98.5 79 Z " /><path fill="rgb(54,47,45)" stroke="rgb(54,47,45)" stroke-width="1" opacity="0.9019607843137255" d="M 120.5 79 L 122 81.5 L 121 81.5 L 120.5 79 Z " /><path fill="rgb(54,47,45)" stroke="rgb(54,47,45)" stroke-width="1" opacity="0.9019607843137255" d="M 63.5 80 L 65 80.5 L 58 86.5 L 57.5 88 L 57 86.5 L 63.5 80 Z " /><path fill="rgb(54,47,45)" stroke="rgb(54,47,45)" stroke-width="1" opacity="0.9019607843137255" d="M 72.5 80 L 76 80.5 L 71.5 82 L 72.5 80 Z " /><path fill="rgb(54,47,45)" stroke="rgb(54,47,45)" stroke-width="1" opacity="0.9019607843137255" d="M 86.5 80 Q 90.3 79.3 91 81.5 L 89.5 82 L 86.5 81 L 86.5 80 Z " /><path fill="rgb(54,47,45)" stroke="rgb(54,47,45)" stroke-width="1" opacity="0.9019607843137255" d="M 116.5 81 L 121 87.5 L 119 86.5 L 116 82.5 L 116.5 81 Z " /><path fill="rgb(54,47,45)" stroke="rgb(54,47,45)" stroke-width="1" opacity="0.9019607843137255" d="M 93.5 82 L 103 90.5 L 96.5 85 L 93.5 82 Z " /><path fill="rgb(54,47,45)" stroke="rgb(54,47,45)" stroke-width="1" opacity="0.9019607843137255" d="M 124.5 82 L 131 84.5 L 129.5 85 L 125.5 84 L 124.5 82 Z " /><path fill="rgb(54,47,45)" stroke="rgb(54,47,45)" stroke-width="1" opacity="0.9019607843137255" d="M 66 83 L 68 83.5 L 66 84.5 L 66 83 Z " /><path fill="rgb(54,47,45)" stroke="rgb(54,47,45)" stroke-width="1" opacity="0.9019607843137255" d="M 64.5 85 L 61 89.5 L 59.5 92 L 60 90.5 L 64.5 85 Z " /><path fill="rgb(54,47,45)" stroke="rgb(54,47,45)" stroke-width="1" opacity="0.9019607843137255" d="M 135.5 85 L 138 86.5 L 136.5 86 L 135.5 85 Z " /><path fill="rgb(54,47,45)" stroke="rgb(54,47,45)" stroke-width="1" opacity="0.9019607843137255" d="M 140.5 86 L 141.5 88 Q 138.7 88.7 140.5 86 Z " /><path fill="rgb(54,47,45)" stroke="rgb(54,47,45)" stroke-width="1" opacity="0.9019607843137255" d="M 77.5 87 L 86 87.5 L 77.5 88 L 77.5 87 Z " /><path fill="rgb(54,47,45)" stroke="rgb(54,47,45)" stroke-width="1" opacity="0.9019607843137255" d="M 144.5 87 L 149 90.5 L 146.5 89 L 144.5 87 Z " /><path fill="rgb(54,47,45)" stroke="rgb(54,47,45)" stroke-width="1" opacity="0.9019607843137255" d="M 73.5 88 L 71.5 91 L 66.5 95 L 70.5 90 L 73.5 88 Z " /><path fill="rgb(54,47,45)" stroke="rgb(54,47,45)" stroke-width="1" opacity="0.9019607843137255" d="M 88.5 88 L 92 90.5 L 89.5 89 L 88.5 88 Z " /><path fill="rgb(54,47,45)" stroke="rgb(54,47,45)" stroke-width="1" opacity="0.9019607843137255" d="M 54 89 Q 56.7 87.9 56 90.5 L 53 92.5 L 54 89 Z " /><path fill="rgb(54,47,45)" stroke="rgb(54,47,45)" stroke-width="1" opacity="0.9019607843137255" d="M 126.5 89 Q 135.5 88 140 91.5 L 137.5 92 L 127.5 90 L 120.5 94 L 118 93 L 118.5 91 L 122.5 92 L 126.5 89 Z " /><path fill="rgb(54,47,45)" stroke="rgb(54,47,45)" stroke-width="1" opacity="0.9019607843137255" d="M 93.5 91 L 97 95.5 L 94 93.5 L 93.5 91 Z " /><path fill="rgb(54,47,45)" stroke="rgb(54,47,45)" stroke-width="1" opacity="0.9019607843137255" d="M 76.5 92 L 78 92.5 L 73.5 95 L 74.5 93 L 76.5 92 Z " /><path fill="rgb(54,47,45)" stroke="rgb(54,47,45)" stroke-width="1" opacity="0.9019607843137255" d="M 84.5 92 Q 88.5 91.5 89 94.5 L 86.5 93 Q 83.5 93.5 84.5 92 Z " /><path fill="rgb(54,47,45)" stroke="rgb(54,47,45)" stroke-width="1" opacity="0.9019607843137255" d="M 103.5 92 L 106 95.5 L 104 94.5 L 103.5 92 Z " /><path fill="rgb(54,47,45)" stroke="rgb(54,47,45)" stroke-width="1" opacity="0.9019607843137255" d="M 141.5 92 Q 147.1 92.5 149 96.5 L 150 100.5 L 149 100.5 L 145.5 94 Q 140.7 94 141.5 92 Z " /><path fill="rgb(54,47,45)" stroke="rgb(54,47,45)" stroke-width="1" opacity="0.9019607843137255" d="M 58.5 93 L 58 94.5 L 57.5 96 L 57 94.5 L 58.5 93 Z " /><path fill="rgb(54,47,45)" stroke="rgb(54,47,45)" stroke-width="1" opacity="0.9019607843137255" d="M 90.5 95 L 93 98.5 L 91 97.5 L 90.5 95 Z " /><path fill="rgb(54,47,45)" stroke="rgb(54,47,45)" stroke-width="1" opacity="0.9019607843137255" d="M 51 96 Q 54 95 53 98 Q 50 99 51 96 Z " /><path fill="rgb(54,47,45)" stroke="rgb(54,47,45)" stroke-width="1" opacity="0.9019607843137255" d="M 71.5 96 L 70 98.5 L 69.5 100 L 69 98.5 L 71.5 96 Z " /><path fill="rgb(54,47,45)" stroke="rgb(54,47,45)" stroke-width="1" opacity="0.9019607843137255" d="M 153.5 96 Q 156.9 95.1 155 100.5 L 156 101.5 L 156 113.5 L 155 119 L 152 120.5 L 151.5 122 L 151 120.5 L 154 116.5 L 154 97.5 L 153.5 96 Z " /><path fill="rgb(54,47,45)" stroke="rgb(54,47,45)" stroke-width="1" opacity="0.9019607843137255" d="M 106.5 97 L 109 103.5 L 108 103.5 L 106.5 97 Z " /><path fill="rgb(54,47,45)" stroke="rgb(54,47,45)" stroke-width="1" opacity="0.9019607843137255" d="M 64.5 98 L 65 99.5 L 64 100.5 L 64 108.5 L 65 111.5 L 64 111.5 Q 61.5 108 63 100.5 L 64.5 98 Z " /><path fill="rgb(54,47,45)" stroke="rgb(54,47,45)" stroke-width="1" opacity="0.9019607843137255" d="M 84.5 98 L 84 99.5 Q 82.8 103.3 86.5 102 L 88 101.5 L 84.5 103 L 83 99.5 L 84.5 98 Z " /><path fill="rgb(54,47,45)" stroke="rgb(54,47,45)" stroke-width="1" opacity="0.9019607843137255" d="M 86.5 98 Q 88.8 97.3 88 99.5 L 86.5 98 Z " /><path fill="rgb(54,47,45)" stroke="rgb(54,47,45)" stroke-width="1" opacity="0.9019607843137255" d="M 51.5 99 L 52 109.5 L 51 109.5 L 50 103.5 L 51.5 99 Z " /><path fill="rgb(54,47,45)" stroke="rgb(54,47,45)" stroke-width="1" opacity="0.9019607843137255" d="M 98.5 99 L 100 106.5 L 98.5 110 L 98 106.5 L 99 104.5 Q 96.7 103.2 98.5 99 Z " /><path fill="rgb(54,47,45)" stroke="rgb(54,47,45)" stroke-width="1" opacity="0.9019607843137255" d="M 68.5 102 L 69 107.5 L 68 107.5 L 68.5 102 Z " /><path fill="rgb(54,47,45)" stroke="rgb(54,47,45)" stroke-width="1" opacity="0.9019607843137255" d="M 113 102 L 119 105.5 Q 118.3 107.8 120.5 107 L 122 110 L 125 111.5 Q 124.3 113.8 126.5 113 L 131 119.5 L 129 118.5 L 124 111 L 121 109.5 Q 121.8 107.3 119.5 108 L 118 105 L 114.5 104 L 115 105.5 Q 116.3 114.8 113.5 120 L 113 116.5 L 114 115.5 L 114 106.5 L 113 102 Z " /><path fill="rgb(54,47,45)" stroke="rgb(54,47,45)" stroke-width="1" opacity="0.9019607843137255" d="M 132.5 105 Q 136.3 104.3 137 106.5 L 137 117 L 146.5 117 L 146.5 118 L 137.5 118 L 136 116.5 L 136 107.5 L 134.5 106 L 131.5 108 L 131 106.5 L 132.5 105 Z " /><path fill="rgb(54,47,45)" stroke="rgb(54,47,45)" stroke-width="1" opacity="0.9019607843137255" d="M 109.5 108 L 110 113.5 L 109 113.5 L 109.5 108 Z " /><path fill="rgb(54,47,45)" stroke="rgb(54,47,45)" stroke-width="1" opacity="0.9019607843137255" d="M 56.5 109 L 57 111.5 L 56 111.5 L 56.5 109 Z " /><path fill="rgb(54,47,45)" stroke="rgb(54,47,45)" stroke-width="1" opacity="0.9019607843137255" d="M 69.5 110 L 71 112.5 L 70 112.5 L 69.5 110 Z " /><path fill="rgb(54,47,45)" stroke="rgb(54,47,45)" stroke-width="1" opacity="0.9019607843137255" d="M 78.5 110 L 77.5 112 L 78.5 110 Z " /><path fill="rgb(54,47,45)" stroke="rgb(54,47,45)" stroke-width="1" opacity="0.9019607843137255" d="M 51.5 111 L 53 113.5 L 51 112.5 L 51.5 111 Z " /><path fill="rgb(54,47,45)" stroke="rgb(54,47,45)" stroke-width="1" opacity="0.9019607843137255" d="M 92.5 111 L 88.5 116 L 92.5 111 Z " /><path fill="rgb(54,47,45)" stroke="rgb(54,47,45)" stroke-width="1" opacity="0.9019607843137255" d="M 57.5 113 L 60 117.5 L 58 116.5 L 57.5 113 Z " /><path fill="rgb(54,47,45)" stroke="rgb(54,47,45)" stroke-width="1" opacity="0.9019607843137255" d="M 65.5 113 L 68 116.5 L 66 115.5 L 65.5 113 Z " /><path fill="rgb(54,47,45)" stroke="rgb(54,47,45)" stroke-width="1" opacity="0.9019607843137255" d="M 72.5 114 L 77 116.5 L 75.5 117 L 72.5 114 Z " /><path fill="rgb(54,47,45)" stroke="rgb(54,47,45)" stroke-width="1" opacity="0.9019607843137255" d="M 96.5 114 L 91.5 120 L 96.5 114 Z " /><path fill="rgb(54,47,45)" stroke="rgb(54,47,45)" stroke-width="1" opacity="0.9019607843137255" d="M 149.5 114 L 150 115.5 L 148 116.5 L 149.5 114 Z " /><path fill="rgb(54,47,45)" stroke="rgb(54,47,45)" stroke-width="1" opacity="0.9019607843137255" d="M 53.5 116 L 56 119.5 L 54 120 L 53.5 116 Z " /><path fill="rgb(54,47,45)" stroke="rgb(54,47,45)" stroke-width="1" opacity="0.9019607843137255" d="M 85.5 116 L 87 116.5 Q 84.6 119.1 78.5 118 L 78.5 117 Q 84 118.5 85.5 116 Z " /><path fill="rgb(54,47,45)" stroke="rgb(54,47,45)" stroke-width="1" opacity="0.9019607843137255" d="M 69.5 118 L 72 119.5 L 70.5 119 L 69.5 118 Z " /><path fill="rgb(54,47,45)" stroke="rgb(54,47,45)" stroke-width="1" opacity="0.9019607843137255" d="M 60.5 119 L 62.5 122 L 60.5 119 Z " /><path fill="rgb(54,47,45)" stroke="rgb(54,47,45)" stroke-width="1" opacity="0.9019607843137255" d="M 108.5 119 L 109 120.5 L 106.5 126 L 106 124.5 L 108.5 119 Z " /><path fill="rgb(54,47,45)" stroke="rgb(54,47,45)" stroke-width="1" opacity="0.9019607843137255" d="M 73.5 120 L 84 122.5 L 78.5 123 L 74.5 122 L 73.5 120 Z " /><path fill="rgb(54,47,45)" stroke="rgb(54,47,45)" stroke-width="1" opacity="0.9019607843137255" d="M 88.5 120 L 90 120.5 L 85.5 122 L 85.5 121 L 88.5 120 Z " /><path fill="rgb(54,47,45)" stroke="rgb(54,47,45)" stroke-width="1" opacity="0.9019607843137255" d="M 56.5 121 L 58.5 124 L 56.5 121 Z " /><path fill="rgb(54,47,45)" stroke="rgb(54,47,45)" stroke-width="1" opacity="0.9019607843137255" d="M 112.5 122 L 113 123.5 L 110.5 128 L 111 126.5 L 112.5 122 Z " /><path fill="rgb(54,47,45)" stroke="rgb(54,47,45)" stroke-width="1" opacity="0.9019607843137255" d="M 137.5 122 L 145.5 122 L 147 123.5 L 145.5 123 L 137 123 L 137 145.5 L 133.5 148 L 94.5 148 L 91 147 L 91.5 145 L 94.5 147 L 133.5 147 L 136 144.5 L 136 123.5 L 137.5 122 Z " /><path fill="rgb(54,47,45)" stroke="rgb(54,47,45)" stroke-width="1" opacity="0.9019607843137255" d="M 64.5 123 L 65.5 125 L 64.5 123 Z " /><path fill="rgb(54,47,45)" stroke="rgb(54,47,45)" stroke-width="1" opacity="0.9019607843137255" d="M 59.5 125 L 62 126.5 L 60.5 127 L 59.5 125 Z " /><path fill="rgb(54,47,45)" stroke="rgb(54,47,45)" stroke-width="1" opacity="0.9019607843137255" d="M 67.5 126 L 68.5 128 L 67.5 126 Z " /><path fill="rgb(54,47,45)" stroke="rgb(54,47,45)" stroke-width="1" opacity="0.9019607843137255" d="M 105.5 127 L 105 128.5 L 103.5 131 L 103 129.5 L 105.5 127 Z " /><path fill="rgb(54,47,45)" stroke="rgb(54,47,45)" stroke-width="1" opacity="0.9019607843137255" d="M 62.5 128 L 65 129.5 L 63.5 130 L 62.5 128 Z " /><path fill="rgb(54,47,45)" stroke="rgb(54,47,45)" stroke-width="1" opacity="0.9019607843137255" d="M 70.5 129 L 71.5 131 Q 68.7 131.7 70.5 129 Z " /><path fill="rgb(54,47,45)" stroke="rgb(54,47,45)" stroke-width="1" opacity="0.9019607843137255" d="M 65.5 131 L 69 133.5 Q 68.3 135.8 70.5 135 L 71.5 137 L 68 134.5 Q 68.8 132.3 66.5 133 L 65.5 131 Z " /><path fill="rgb(54,47,45)" stroke="rgb(54,47,45)" stroke-width="1" opacity="0.9019607843137255" d="M 108.5 131 L 109 133 L 107 132.5 L 108.5 131 Z " /><path fill="rgb(54,47,45)" stroke="rgb(54,47,45)" stroke-width="1" opacity="0.9019607843137255" d="M 73.5 132 L 74.5 134 L 73.5 132 Z " /><path fill="rgb(54,47,45)" stroke="rgb(54,47,45)" stroke-width="1" opacity="0.9019607843137255" d="M 101.5 132 L 102 133.5 L 97 137.5 L 101.5 132 Z " /><path fill="rgb(54,47,45)" stroke="rgb(54,47,45)" stroke-width="1" opacity="0.9019607843137255" d="M 106.5 134 L 105 136.5 L 104.5 138 L 104 136.5 L 106.5 134 Z " /><path fill="rgb(54,47,45)" stroke="rgb(54,47,45)" stroke-width="1" opacity="0.9019607843137255" d="M 76.5 135 L 80.5 137 L 81.5 136 L 90.5 136 L 96 138.5 L 93.5 139 Q 90.3 135.2 81.5 137 L 78.5 138 L 76.5 135 Z " /><path fill="rgb(54,47,45)" stroke="rgb(54,47,45)" stroke-width="1" opacity="0.9019607843137255" d="M 72.5 138 L 75 139.5 L 73.5 139 L 72.5 138 Z " /><path fill="rgb(54,47,45)" stroke="rgb(54,47,45)" stroke-width="1" opacity="0.9019607843137255" d="M 101 139 L 103 139.5 L 100 141.5 L 101 139 Z " /><path fill="rgb(54,47,45)" stroke="rgb(54,47,45)" stroke-width="1" opacity="0.9019607843137255" d="M 75.5 141 L 77 142.5 L 77 151.5 L 78 152.5 L 76 151.5 L 75.5 141 Z " /><path fill="rgb(54,47,45)" stroke="rgb(54,47,45)" stroke-width="1" opacity="0.9019607843137255" d="M 82.5 141 L 84 141.5 L 81.5 143 L 82.5 141 Z " /><path fill="rgb(54,47,45)" stroke="rgb(54,47,45)" stroke-width="1" opacity="0.9019607843137255" d="M 88.5 141 L 91 142.5 L 90.5 144 L 90 142 L 88.5 141 Z " /><path fill="rgb(54,47,45)" stroke="rgb(54,47,45)" stroke-width="1" opacity="0.9019607843137255" d="M 102.5 142 L 130 142.5 L 102.5 143 L 102.5 142 Z " /><path fill="rgb(54,47,45)" stroke="rgb(54,47,45)" stroke-width="1" opacity="0.9019607843137255" d="M 82.5 151 Q 84.8 150.3 84 152.5 L 90 156.5 L 88.5 157 L 82.5 151 Z " /><path fill="rgb(54,47,45)" stroke="rgb(54,47,45)" stroke-width="1" opacity="0.9019607843137255" d="M 146.5 151 L 147 153.5 L 146 156 L 143.5 157 L 146 153.5 L 146.5 151 Z " /><path fill="rgb(54,47,45)" stroke="rgb(54,47,45)" stroke-width="1" opacity="0.9019607843137255" d="M 78.5 154 L 83.5 160 L 79 157 L 78.5 154 Z " /><path fill="rgb(54,47,45)" stroke="rgb(54,47,45)" stroke-width="1" opacity="0.9019607843137255" d="M 150 154 L 152 154.5 L 150 155.5 L 150 154 Z " /><path fill="rgb(54,47,45)" stroke="rgb(54,47,45)" stroke-width="1" opacity="0.9019607843137255" d="M 93.5 157 L 141 157.5 L 93.5 158 L 93.5 157 Z " /><path fill="rgb(54,47,45)" stroke="rgb(54,47,45)" stroke-width="1" opacity="0.9019607843137255" d="M 149.5 157 L 147.5 160 L 147 158 L 149.5 157 Z " /><path fill="rgb(54,47,45)" stroke="rgb(54,47,45)" stroke-width="1" opacity="0.9019607843137255" d="M 75.5 160 L 78 161.5 L 77.5 163 Q 75.8 159.3 74 162.5 L 73.5 195 L 72 193.5 L 72 163.5 L 75.5 160 Z " /><path fill="rgb(54,47,45)" stroke="rgb(54,47,45)" stroke-width="1" opacity="0.9019607843137255" d="M 85.5 160 L 90.5 162 L 133 162.5 L 89.5 163 L 85.5 161 L 85.5 160 Z " /><path fill="rgb(54,47,45)" stroke="rgb(54,47,45)" stroke-width="1" opacity="0.9019607843137255" d="M 141.5 161 L 144 161.5 L 140 163 L 140 194.5 L 138 195 L 139 192.5 L 139 163.5 L 141.5 161 Z " /><path fill="rgb(54,47,45)" stroke="rgb(54,47,45)" stroke-width="1" opacity="0.9019607843137255" d="M 134.5 163 L 135 173.5 L 134 176 L 78 175.5 L 132.5 175 L 134 173.5 L 134.5 163 Z " /><path fill="rgb(54,47,45)" stroke="rgb(54,47,45)" stroke-width="1" opacity="0.9019607843137255" d="M 78.5 180 L 134 180.5 L 78.5 181 L 78.5 180 Z " /><path fill="rgb(54,47,45)" stroke="rgb(54,47,45)" stroke-width="1" opacity="0.9019607843137255" d="M 77.5 182 L 78 193.5 L 76 194.5 L 77 193.5 L 77.5 182 Z " /><path fill="rgb(54,47,45)" stroke="rgb(54,47,45)" stroke-width="1" opacity="0.9019607843137255" d="M 134.5 182 L 135 193.5 L 136 194.5 L 134 193.5 L 134.5 182 Z " /><path fill="rgb(12,10,9)" stroke="rgb(12,10,9)" stroke-width="1" opacity="0.9764705882352941" d="M 91.5 1 L 93 1.5 L 90.5 3 L 91.5 1 Z " /><path fill="rgb(12,10,9)" stroke="rgb(12,10,9)" stroke-width="1" opacity="0.9764705882352941" d="M 116.5 1 L 117.5 3 Q 114.7 3.7 116.5 1 Z " /><path fill="rgb(12,10,9)" stroke="rgb(12,10,9)" stroke-width="1" opacity="0.9764705882352941" d="M 83.5 4 L 85 4.5 L 81.5 7 L 83.5 4 Z " /><path fill="rgb(12,10,9)" stroke="rgb(12,10,9)" stroke-width="1" opacity="0.9764705882352941" d="M 121.5 4 L 124 5.5 L 122.5 6 L 121.5 4 Z " /><path fill="rgb(12,10,9)" stroke="rgb(12,10,9)" stroke-width="1" opacity="0.9764705882352941" d="M 89.5 5 L 91 5.5 L 85.5 8 L 86.5 6 L 89.5 5 Z " /><path fill="rgb(12,10,9)" stroke="rgb(12,10,9)" stroke-width="1" opacity="0.9764705882352941" d="M 116.5 5 L 120 7.5 L 118.5 7 L 116.5 5 Z " /><path fill="rgb(12,10,9)" stroke="rgb(12,10,9)" stroke-width="1" opacity="0.9764705882352941" d="M 129.5 7 L 133 9.5 L 130.5 8 L 129.5 7 Z " /><path fill="rgb(12,10,9)" stroke="rgb(12,10,9)" stroke-width="1" opacity="0.9764705882352941" d="M 79.5 8 L 78.5 10 L 79.5 8 Z " /><path fill="rgb(12,10,9)" stroke="rgb(12,10,9)" stroke-width="1" opacity="0.9764705882352941" d="M 83.5 8 L 79.5 13 L 83.5 8 Z " /><path fill="rgb(12,10,9)" stroke="rgb(12,10,9)" stroke-width="1" opacity="0.9764705882352941" d="M 122.5 8 Q 130.8 8.8 134 14.5 L 133.5 16 L 129.5 11 L 122.5 9 L 122.5 8 Z " /><path fill="rgb(12,10,9)" stroke="rgb(12,10,9)" stroke-width="1" opacity="0.9764705882352941" d="M 76.5 12 L 75.5 14 L 76.5 12 Z " /><path fill="rgb(12,10,9)" stroke="rgb(12,10,9)" stroke-width="1" opacity="0.9764705882352941" d="M 78.5 14 L 78 15.5 L 77 30.5 Q 78.4 33.1 83 32.5 L 78.5 33 L 76 30.5 L 76 20.5 L 78.5 14 Z " /><path fill="rgb(12,10,9)" stroke="rgb(12,10,9)" stroke-width="1" opacity="0.9764705882352941" d="M 136.5 14 L 137.5 16 L 136.5 14 Z " /><path fill="rgb(12,10,9)" stroke="rgb(12,10,9)" stroke-width="1" opacity="0.9764705882352941" d="M 134.5 17 L 136 19.5 L 136 32 L 129.5 33 L 129.5 32 Q 134 33 135 30.5 Q 135.5 21.5 134.5 17 Z " /><path fill="rgb(12,10,9)" stroke="rgb(12,10,9)" stroke-width="1" opacity="0.9764705882352941" d="M 118.5 21 L 121 21.5 L 118.5 22 L 118.5 21 Z " /><path fill="rgb(12,10,9)" stroke="rgb(12,10,9)" stroke-width="1" opacity="0.9764705882352941" d="M 138.5 21 L 139 35 Q 141.7 33.9 141 36.5 L 138 34.5 L 138.5 21 Z " /><path fill="rgb(12,10,9)" stroke="rgb(12,10,9)" stroke-width="1" opacity="0.9764705882352941" d="M 110.5 22 L 113 22.5 L 105.5 24 L 105.5 23 L 110.5 22 Z " /><path fill="rgb(12,10,9)" stroke="rgb(12,10,9)" stroke-width="1" opacity="0.9764705882352941" d="M 100.5 24 L 104 24.5 L 100.5 25 L 100.5 24 Z " /><path fill="rgb(12,10,9)" stroke="rgb(12,10,9)" stroke-width="1" opacity="0.9764705882352941" d="M 116.5 24 Q 122 23 123 26.5 Q 122.4 31.1 125 32.5 L 123 31.5 L 122 26 L 118.5 25 L 113.5 26 L 113.5 25 L 116.5 24 Z " /><path fill="rgb(12,10,9)" stroke="rgb(12,10,9)" stroke-width="1" opacity="0.9764705882352941" d="M 98.5 25 L 99 27 L 103 27.5 L 99.5 28 L 98.5 25 Z " /><path fill="rgb(12,10,9)" stroke="rgb(12,10,9)" stroke-width="1" opacity="0.9764705882352941" d="M 87.5 26 L 88.5 28 L 86 27.5 L 87.5 26 Z " /><path fill="rgb(12,10,9)" stroke="rgb(12,10,9)" stroke-width="1" opacity="0.9764705882352941" d="M 107.5 26 L 110 26.5 L 107.5 27 L 107.5 26 Z " /><path fill="rgb(12,10,9)" stroke="rgb(12,10,9)" stroke-width="1" opacity="0.9764705882352941" d="M 85.5 29 L 86 30.5 L 84 31.5 L 85.5 29 Z " /><path fill="rgb(12,10,9)" stroke="rgb(12,10,9)" stroke-width="1" opacity="0.9764705882352941" d="M 126.5 29 L 128 31.5 L 126 30.5 L 126.5 29 Z " /><path fill="rgb(12,10,9)" stroke="rgb(12,10,9)" stroke-width="1" opacity="0.9764705882352941" d="M 73.5 33 L 74 34.5 L 71 36.5 L 73.5 33 Z " /><path fill="rgb(12,10,9)" stroke="rgb(12,10,9)" stroke-width="1" opacity="0.9764705882352941" d="M 86.5 33 L 87 35 L 84.5 36 L 86.5 33 Z " /><path fill="rgb(12,10,9)" stroke="rgb(12,10,9)" stroke-width="1" opacity="0.9764705882352941" d="M 125.5 34 L 128 35.5 L 126.5 35 L 125.5 34 Z " /><path fill="rgb(12,10,9)" stroke="rgb(12,10,9)" stroke-width="1" opacity="0.9764705882352941" d="M 75 36 L 77 36.5 Q 74 38 74.5 43 L 73 39.5 L 75 36 Z " /><path fill="rgb(12,10,9)" stroke="rgb(12,10,9)" stroke-width="1" opacity="0.9764705882352941" d="M 135.5 36 Q 137.8 35.3 137 37.5 L 139 41.5 L 137 42.5 L 138 39.5 L 135.5 36 Z " /><path fill="rgb(12,10,9)" stroke="rgb(12,10,9)" stroke-width="1" opacity="0.9764705882352941" d="M 96.5 38 Q 98.8 37.3 98 39.5 L 99 43.5 L 98 43.5 Q 98.8 39.8 96.5 39 L 95.5 45 L 95 39.5 L 96.5 38 Z " /><path fill="rgb(12,10,9)" stroke="rgb(12,10,9)" stroke-width="1" opacity="0.9764705882352941" d="M 115.5 38 L 116.5 40 Q 115.3 37.8 114 40.5 L 113.5 44 L 113 40.5 L 115.5 38 Z " /><path fill="rgb(12,10,9)" stroke="rgb(12,10,9)" stroke-width="1" opacity="0.9764705882352941" d="M 141 39 Q 144.3 37.9 143 42 Q 139.7 43.1 141 39 Z " /><path fill="rgb(12,10,9)" stroke="rgb(12,10,9)" stroke-width="1" opacity="0.9764705882352941" d="M 71.5 44 L 74.5 48 L 71.5 44 Z " /><path fill="rgb(12,10,9)" stroke="rgb(12,10,9)" stroke-width="1" opacity="0.9764705882352941" d="M 76.5 44 Q 81.8 42.8 83 45.5 L 81.5 46 L 76.5 45 L 76.5 44 Z " /><path fill="rgb(12,10,9)" stroke="rgb(12,10,9)" stroke-width="1" opacity="0.9764705882352941" d="M 130.5 44 L 136 44.5 Q 130.5 44 129 47.5 L 128.5 52 L 128 46.5 L 130.5 44 Z " /><path fill="rgb(12,10,9)" stroke="rgb(12,10,9)" stroke-width="1" opacity="0.9764705882352941" d="M 140.5 44 L 137.5 48 L 140.5 44 Z " /><path fill="rgb(12,10,9)" stroke="rgb(12,10,9)" stroke-width="1" opacity="0.9764705882352941" d="M 83.5 47 L 85 54.5 L 83 53.5 L 83.5 47 Z " /><path fill="rgb(12,10,9)" stroke="rgb(12,10,9)" stroke-width="1" opacity="0.9764705882352941" d="M 79.5 51 L 81 54 Q 77.5 55.1 79.5 51 Z " /><path fill="rgb(12,10,9)" stroke="rgb(12,10,9)" stroke-width="1" opacity="0.9764705882352941" d="M 100.5 53 L 109 54.5 L 103.5 55 L 100 54 L 101.5 57 L 103 57.5 L 101.5 58 L 99 57 L 100.5 53 Z " /><path fill="rgb(12,10,9)" stroke="rgb(12,10,9)" stroke-width="1" opacity="0.9764705882352941" d="M 131.5 54 L 131 55.5 L 129.5 58 L 130 56.5 L 131.5 54 Z " /><path fill="rgb(12,10,9)" stroke="rgb(12,10,9)" stroke-width="1" opacity="0.9764705882352941" d="M 81.5 55 L 84 59.5 L 82 58.5 L 81.5 55 Z " /><path fill="rgb(12,10,9)" stroke="rgb(12,10,9)" stroke-width="1" opacity="0.9764705882352941" d="M 111.5 56 L 113 56.5 L 109.5 58 L 109.5 57 L 111.5 56 Z " /><path fill="rgb(12,10,9)" stroke="rgb(12,10,9)" stroke-width="1" opacity="0.9764705882352941" d="M 125 57 L 127 57.5 L 125 58.5 L 125 57 Z " /><path fill="rgb(12,10,9)" stroke="rgb(12,10,9)" stroke-width="1" opacity="0.9764705882352941" d="M 86.5 58 L 87.5 60 Q 84.7 60.7 86.5 58 Z " /><path fill="rgb(12,10,9)" stroke="rgb(12,10,9)" stroke-width="1" opacity="0.9764705882352941" d="M 124.5 60 L 120.5 65 L 124.5 60 Z " /><path fill="rgb(12,10,9)" stroke="rgb(12,10,9)" stroke-width="1" opacity="0.9764705882352941" d="M 128.5 60 L 128 61.5 Q 128.8 63.8 126.5 63 L 128.5 60 Z " /><path fill="rgb(12,10,9)" stroke="rgb(12,10,9)" stroke-width="1" opacity="0.9764705882352941" d="M 84.5 61 L 86.5 64 L 84.5 61 Z " /><path fill="rgb(12,10,9)" stroke="rgb(12,10,9)" stroke-width="1" opacity="0.9764705882352941" d="M 88.5 61 L 94 65.5 L 92.5 65 L 88.5 61 Z " /><path fill="rgb(12,10,9)" stroke="rgb(12,10,9)" stroke-width="1" opacity="0.9764705882352941" d="M 118.5 65 L 117.5 67 L 114.5 68 L 114.5 67 L 118.5 65 Z " /><path fill="rgb(12,10,9)" stroke="rgb(12,10,9)" stroke-width="1" opacity="0.9764705882352941" d="M 89.5 66 L 94 69.5 L 92.5 69 L 89.5 66 Z " /><path fill="rgb(12,10,9)" stroke="rgb(12,10,9)" stroke-width="1" opacity="0.9764705882352941" d="M 95.5 66 L 98 67.5 L 96.5 68 L 95.5 66 Z " /><path fill="rgb(12,10,9)" stroke="rgb(12,10,9)" stroke-width="1" opacity="0.9764705882352941" d="M 121.5 67 L 120.5 69 L 121.5 67 Z " /><path fill="rgb(12,10,9)" stroke="rgb(12,10,9)" stroke-width="1" opacity="0.9764705882352941" d="M 97.5 71 L 103 72.5 L 100.5 73 L 97.5 72 L 97.5 71 Z " /><path fill="rgb(12,10,9)" stroke="rgb(12,10,9)" stroke-width="1" opacity="0.9764705882352941" d="M 112.5 71 Q 116.3 70.3 117 72.5 L 117 80.5 L 122 87.5 L 121 87.5 L 116 80.5 L 116 72 L 109.5 73 L 109.5 72 L 112.5 71 Z " /><path fill="rgb(12,10,9)" stroke="rgb(12,10,9)" stroke-width="1" opacity="0.9764705882352941" d="M 80.5 75 L 83 75.5 L 80.5 76 L 80.5 75 Z " /><path fill="rgb(12,10,9)" stroke="rgb(12,10,9)" stroke-width="1" opacity="0.9764705882352941" d="M 71 76 L 79 76.5 L 71.5 78 L 71 76 Z " /><path fill="rgb(12,10,9)" stroke="rgb(12,10,9)" stroke-width="1" opacity="0.9764705882352941" d="M 84.5 76 Q 90.5 74.5 92 77.5 L 90.5 78 Q 89.2 75.7 84.5 77 L 84.5 76 Z " /><path fill="rgb(12,10,9)" stroke="rgb(12,10,9)" stroke-width="1" opacity="0.9764705882352941" d="M 68.5 78 L 67.5 80 L 65.5 81 L 65 79 L 68.5 78 Z " /><path fill="rgb(12,10,9)" stroke="rgb(12,10,9)" stroke-width="1" opacity="0.9764705882352941" d="M 75.5 79 L 78 79.5 L 75.5 80 L 75.5 79 Z " /><path fill="rgb(12,10,9)" stroke="rgb(12,10,9)" stroke-width="1" opacity="0.9764705882352941" d="M 84.5 79 L 87 79.5 L 84.5 80 L 84.5 79 Z " /><path fill="rgb(12,10,9)" stroke="rgb(12,10,9)" stroke-width="1" opacity="0.9764705882352941" d="M 96.5 79 L 99.5 81 L 102.5 85 L 96.5 79 Z " /><path fill="rgb(12,10,9)" stroke="rgb(12,10,9)" stroke-width="1" opacity="0.9764705882352941" d="M 70.5 80 L 72 80.5 L 68.5 83 L 70.5 80 Z " /><path fill="rgb(12,10,9)" stroke="rgb(12,10,9)" stroke-width="1" opacity="0.9764705882352941" d="M 90.5 80 L 93 81.5 L 91.5 82 L 90.5 80 Z " /><path fill="rgb(12,10,9)" stroke="rgb(12,10,9)" stroke-width="1" opacity="0.9764705882352941" d="M 122.5 82 L 125 83.5 L 123.5 84 L 122.5 82 Z " /><path fill="rgb(12,10,9)" stroke="rgb(12,10,9)" stroke-width="1" opacity="0.9764705882352941" d="M 61.5 83 L 60.5 85 L 61.5 83 Z " /><path fill="rgb(12,10,9)" stroke="rgb(12,10,9)" stroke-width="1" opacity="0.9764705882352941" d="M 96.5 83 Q 104.5 88.5 108 98.5 L 107 98.5 Q 103.1 88.5 96.5 83 Z " /><path fill="rgb(12,10,9)" stroke="rgb(12,10,9)" stroke-width="1" opacity="0.9764705882352941" d="M 64.5 84 L 66 84.5 L 61.5 88 L 64.5 84 Z " /><path fill="rgb(12,10,9)" stroke="rgb(12,10,9)" stroke-width="1" opacity="0.9764705882352941" d="M 132.5 85 L 137 86.5 L 134.5 87 L 132.5 85 Z " /><path fill="rgb(12,10,9)" stroke="rgb(12,10,9)" stroke-width="1" opacity="0.9764705882352941" d="M 104.5 86 L 105.5 88 L 104.5 86 Z " /><path fill="rgb(12,10,9)" stroke="rgb(12,10,9)" stroke-width="1" opacity="0.9764705882352941" d="M 138 86 Q 141 85 140 88 Q 137 89 138 86 Z " /><path fill="rgb(12,10,9)" stroke="rgb(12,10,9)" stroke-width="1" opacity="0.9764705882352941" d="M 74.5 88 L 76 88.5 L 72.5 91 L 74.5 88 Z " /><path fill="rgb(12,10,9)" stroke="rgb(12,10,9)" stroke-width="1" opacity="0.9764705882352941" d="M 86.5 88 L 91 90.5 L 89.5 90 Q 85.8 89.8 86.5 88 Z " /><path fill="rgb(12,10,9)" stroke="rgb(12,10,9)" stroke-width="1" opacity="0.9764705882352941" d="M 119.5 88 L 120 89.5 L 119.5 92 Q 116.8 90.8 119 89.5 L 119.5 88 Z " /><path fill="rgb(12,10,9)" stroke="rgb(12,10,9)" stroke-width="1" opacity="0.9764705882352941" d="M 144.5 88 L 148 90.5 L 146.5 90 L 144.5 88 Z " /><path fill="rgb(12,10,9)" stroke="rgb(12,10,9)" stroke-width="1" opacity="0.9764705882352941" d="M 107.5 89 L 108.5 91 L 107.5 89 Z " /><path fill="rgb(12,10,9)" stroke="rgb(12,10,9)" stroke-width="1" opacity="0.9764705882352941" d="M 125.5 89 L 124.5 91 L 122.5 92 L 123.5 90 L 125.5 89 Z " /><path fill="rgb(12,10,9)" stroke="rgb(12,10,9)" stroke-width="1" opacity="0.9764705882352941" d="M 134.5 89 L 141 91.5 L 139.5 91 L 134.5 90 L 134.5 89 Z " /><path fill="rgb(12,10,9)" stroke="rgb(12,10,9)" stroke-width="1" opacity="0.9764705882352941" d="M 59.5 90 L 59 91.5 L 57.5 94 L 58 92.5 L 59.5 90 Z " /><path fill="rgb(12,10,9)" stroke="rgb(12,10,9)" stroke-width="1" opacity="0.9764705882352941" d="M 70.5 91 L 67 95.5 L 65.5 98 L 66 96.5 L 70.5 91 Z " /><path fill="rgb(12,10,9)" stroke="rgb(12,10,9)" stroke-width="1" opacity="0.9764705882352941" d="M 79.5 91 L 83 91.5 L 79.5 92 L 79.5 91 Z " /><path fill="rgb(12,10,9)" stroke="rgb(12,10,9)" stroke-width="1" opacity="0.9764705882352941" d="M 92.5 91 L 93.5 93 L 92.5 91 Z " /><path fill="rgb(12,10,9)" stroke="rgb(12,10,9)" stroke-width="1" opacity="0.9764705882352941" d="M 54.5 92 L 55 93.5 L 53 94.5 L 54.5 92 Z " /><path fill="rgb(12,10,9)" stroke="rgb(12,10,9)" stroke-width="1" opacity="0.9764705882352941" d="M 74.5 92 L 76 92.5 L 69.5 98 L 70 96.5 Q 69.3 94.3 71.5 95 L 74.5 92 Z " /><path fill="rgb(12,10,9)" stroke="rgb(12,10,9)" stroke-width="1" opacity="0.9764705882352941" d="M 87.5 92 L 90 93 L 89.5 95 L 87.5 92 Z " /><path fill="rgb(12,10,9)" stroke="rgb(12,10,9)" stroke-width="1" opacity="0.9764705882352941" d="M 110.5 92 L 111.5 94 L 110.5 92 Z " /><path fill="rgb(12,10,9)" stroke="rgb(12,10,9)" stroke-width="1" opacity="0.9764705882352941" d="M 144.5 92 L 150 96.5 L 149.5 98 L 145.5 93 L 144.5 92 Z " /><path fill="rgb(12,10,9)" stroke="rgb(12,10,9)" stroke-width="1" opacity="0.9764705882352941" d="M 152.5 94 L 154 98.5 L 153 98.5 L 152.5 94 Z " /><path fill="rgb(12,10,9)" stroke="rgb(12,10,9)" stroke-width="1" opacity="0.9764705882352941" d="M 56.5 95 L 57 97.5 L 55.5 104 L 55 98.5 L 56.5 95 Z " /><path fill="rgb(12,10,9)" stroke="rgb(12,10,9)" stroke-width="1" opacity="0.9764705882352941" d="M 91.5 95 L 96 104.5 L 93.5 111 L 94 109.5 L 94 100.5 L 91.5 95 Z " /><path fill="rgb(12,10,9)" stroke="rgb(12,10,9)" stroke-width="1" opacity="0.9764705882352941" d="M 95.5 95 L 96.5 97 L 95.5 95 Z " /><path fill="rgb(12,10,9)" stroke="rgb(12,10,9)" stroke-width="1" opacity="0.9764705882352941" d="M 113.5 95 Q 115.8 94.3 115 96.5 L 113.5 95 Z " /><path fill="rgb(12,10,9)" stroke="rgb(12,10,9)" stroke-width="1" opacity="0.9764705882352941" d="M 85.5 98 Q 90 100 86.5 102 L 85.5 99 L 84 99.5 L 85.5 98 Z " /><path fill="rgb(12,10,9)" stroke="rgb(12,10,9)" stroke-width="1" opacity="0.9764705882352941" d="M 116.5 98 Q 118.8 97.3 118 99.5 L 116.5 98 Z " /><path fill="rgb(12,10,9)" stroke="rgb(12,10,9)" stroke-width="1" opacity="0.9764705882352941" d="M 68.5 99 L 69 101.5 Q 66.7 102.8 68 107.5 L 69 109.5 L 68 109.5 L 67 101.5 L 68.5 99 Z " /><path fill="rgb(12,10,9)" stroke="rgb(12,10,9)" stroke-width="1" opacity="0.9764705882352941" d="M 150.5 99 L 151 115.5 L 147.5 118 L 147.5 117 L 150 115.5 L 150.5 99 Z " /><path fill="rgb(12,10,9)" stroke="rgb(12,10,9)" stroke-width="1" opacity="0.9764705882352941" d="M 64.5 100 L 65 108.5 L 64 108.5 L 64.5 100 Z " /><path fill="rgb(12,10,9)" stroke="rgb(12,10,9)" stroke-width="1" opacity="0.9764705882352941" d="M 119.5 100 L 131 110.5 L 132.5 107 L 133 109.5 L 129 112 L 127.5 109 Q 125.3 109.8 126 107.5 L 123 106 L 121.5 103 Q 119.3 103.8 120 101.5 L 119.5 100 Z " /><path fill="rgb(12,10,9)" stroke="rgb(12,10,9)" stroke-width="1" opacity="0.9764705882352941" d="M 113.5 101 L 117 103.5 L 114.5 102 L 113.5 101 Z " /><path fill="rgb(12,10,9)" stroke="rgb(12,10,9)" stroke-width="1" opacity="0.9764705882352941" d="M 109.5 104 Q 112.2 107.8 111 115.5 L 109.5 119 L 109 114.5 Q 111.2 113.2 110 108.5 L 109.5 104 Z " /><path fill="rgb(12,10,9)" stroke="rgb(12,10,9)" stroke-width="1" opacity="0.9764705882352941" d="M 55.5 105 L 56 110.5 L 55 110.5 L 55.5 105 Z " /><path fill="rgb(12,10,9)" stroke="rgb(12,10,9)" stroke-width="1" opacity="0.9764705882352941" d="M 113.5 106 L 114 115.5 L 113 115.5 L 113.5 106 Z " /><path fill="rgb(12,10,9)" stroke="rgb(12,10,9)" stroke-width="1" opacity="0.9764705882352941" d="M 75 107 L 79 108.5 L 77.5 111 Q 72.9 112.2 75 107 Z M 76 108 Q 75 111 78 110 Q 79 107 76 108 Z " /><path fill="rgb(12,10,9)" stroke="rgb(12,10,9)" stroke-width="1" opacity="0.9764705882352941" d="M 135.5 107 L 136 116.5 L 137.5 118 L 146 118.5 L 137.5 119 L 135 116.5 L 135.5 107 Z " /><path fill="rgb(12,10,9)" stroke="rgb(12,10,9)" stroke-width="1" opacity="0.9764705882352941" d="M 52.5 109 L 53 111.5 L 52 111.5 L 52.5 109 Z " /><path fill="rgb(12,10,9)" stroke="rgb(12,10,9)" stroke-width="1" opacity="0.9764705882352941" d="M 65.5 112 L 69.5 117 L 73 119.5 L 70.5 118 L 67 115.5 L 65.5 112 Z " /><path fill="rgb(12,10,9)" stroke="rgb(12,10,9)" stroke-width="1" opacity="0.9764705882352941" d="M 92.5 112 L 92 113.5 Q 92.8 115.8 90.5 115 L 85.5 118 L 85.5 117 L 92.5 112 Z " /><path fill="rgb(12,10,9)" stroke="rgb(12,10,9)" stroke-width="1" opacity="0.9764705882352941" d="M 96.5 112 L 97 113.5 L 89.5 120 L 90.5 118 L 95 114.5 L 96.5 112 Z " /><path fill="rgb(12,10,9)" stroke="rgb(12,10,9)" stroke-width="1" opacity="0.9764705882352941" d="M 70.5 113 Q 72.8 112.3 72 114.5 L 72.5 116 L 70.5 113 Z " /><path fill="rgb(12,10,9)" stroke="rgb(12,10,9)" stroke-width="1" opacity="0.9764705882352941" d="M 53.5 115 L 54.5 117 L 53.5 115 Z " /><path fill="rgb(12,10,9)" stroke="rgb(12,10,9)" stroke-width="1" opacity="0.9764705882352941" d="M 57.5 115 Q 61.8 124.2 70 129.5 L 59 119.5 L 57.5 115 Z " /><path fill="rgb(12,10,9)" stroke="rgb(12,10,9)" stroke-width="1" opacity="0.9764705882352941" d="M 128.5 115 L 131 118.5 L 130 118.5 L 128.5 115 Z " /><path fill="rgb(12,10,9)" stroke="rgb(12,10,9)" stroke-width="1" opacity="0.9764705882352941" d="M 74.5 116 L 78 117.5 L 75.5 118 L 74.5 116 Z " /><path fill="rgb(12,10,9)" stroke="rgb(12,10,9)" stroke-width="1" opacity="0.9764705882352941" d="M 152.5 118 L 151.5 120 L 152.5 118 Z " /><path fill="rgb(12,10,9)" stroke="rgb(12,10,9)" stroke-width="1" opacity="0.9764705882352941" d="M 56.5 120 L 57.5 122 L 56.5 120 Z " /><path fill="rgb(12,10,9)" stroke="rgb(12,10,9)" stroke-width="1" opacity="0.9764705882352941" d="M 112.5 120 L 113 121.5 L 111.5 124 L 111 122.5 L 112.5 120 Z " /><path fill="rgb(12,10,9)" stroke="rgb(12,10,9)" stroke-width="1" opacity="0.9764705882352941" d="M 131.5 120 L 133 122.5 L 133 140.5 L 132 143 L 130 142.5 L 131 141.5 L 131.5 120 Z " /><path fill="rgb(12,10,9)" stroke="rgb(12,10,9)" stroke-width="1" opacity="0.9764705882352941" d="M 78.5 121 L 85 121.5 L 78.5 122 L 78.5 121 Z " /><path fill="rgb(12,10,9)" stroke="rgb(12,10,9)" stroke-width="1" opacity="0.9764705882352941" d="M 137.5 121 L 146.5 121 L 147 122.5 L 148 123.5 L 148 152.5 L 147 152.5 L 147 123.5 L 145.5 122 L 137.5 122 L 136 123.5 L 135.5 145 L 135 123.5 L 137.5 121 Z " /><path fill="rgb(12,10,9)" stroke="rgb(12,10,9)" stroke-width="1" opacity="0.9764705882352941" d="M 59.5 124 Q 61.8 123.3 61 125.5 L 59.5 124 Z " /><path fill="rgb(12,10,9)" stroke="rgb(12,10,9)" stroke-width="1" opacity="0.9764705882352941" d="M 107.5 124 L 108 125.5 L 106 126.5 L 107.5 124 Z " /><path fill="rgb(12,10,9)" stroke="rgb(12,10,9)" stroke-width="1" opacity="0.9764705882352941" d="M 62.5 127 L 63.5 129 L 62.5 127 Z " /><path fill="rgb(12,10,9)" stroke="rgb(12,10,9)" stroke-width="1" opacity="0.9764705882352941" d="M 109.5 128 L 109 129.5 L 107.5 132 L 108 130.5 L 109.5 128 Z " /><path fill="rgb(12,10,9)" stroke="rgb(12,10,9)" stroke-width="1" opacity="0.9764705882352941" d="M 65.5 130 L 66.5 132 L 65.5 130 Z " /><path fill="rgb(12,10,9)" stroke="rgb(12,10,9)" stroke-width="1" opacity="0.9764705882352941" d="M 104.5 130 L 103 132.5 L 101.5 135 L 102 133.5 L 104.5 130 Z " /><path fill="rgb(12,10,9)" stroke="rgb(12,10,9)" stroke-width="1" opacity="0.9764705882352941" d="M 71.5 131 L 77.5 138 L 71.5 131 Z " /><path fill="rgb(12,10,9)" stroke="rgb(12,10,9)" stroke-width="1" opacity="0.9764705882352941" d="M 106.5 133 L 104 136.5 L 102.5 139 L 103 137.5 L 106.5 133 Z " /><path fill="rgb(12,10,9)" stroke="rgb(12,10,9)" stroke-width="1" opacity="0.9764705882352941" d="M 99.5 136 L 98.5 138 L 99.5 136 Z " /><path fill="rgb(12,10,9)" stroke="rgb(12,10,9)" stroke-width="1" opacity="0.9764705882352941" d="M 92.5 138 L 95.5 139 L 97 138.5 L 93.5 140 L 92.5 138 Z " /><path fill="rgb(12,10,9)" stroke="rgb(12,10,9)" stroke-width="1" opacity="0.9764705882352941" d="M 100.5 139 L 101 140.5 L 100.5 142 L 102 142.5 L 100.5 143 Q 97.8 141.8 100 140.5 L 100.5 139 Z " /><path fill="rgb(12,10,9)" stroke="rgb(12,10,9)" stroke-width="1" opacity="0.9764705882352941" d="M 75.5 140 L 76.5 142 L 75.5 140 Z " /><path fill="rgb(12,10,9)" stroke="rgb(12,10,9)" stroke-width="1" opacity="0.9764705882352941" d="M 82.5 140 Q 90.2 138.3 92 142.5 L 93 145.5 L 91 144.5 L 89.5 141 Q 82.8 139.3 81 142.5 Q 79.3 148.8 82 150.5 L 80 149.5 Q 78.3 141.8 82.5 140 Z " /><path fill="rgb(12,10,9)" stroke="rgb(12,10,9)" stroke-width="1" opacity="0.9764705882352941" d="M 94.5 146 L 134 146.5 L 94.5 147 L 94.5 146 Z " /><path fill="rgb(12,10,9)" stroke="rgb(12,10,9)" stroke-width="1" opacity="0.9764705882352941" d="M 77.5 151 L 84.5 159 L 86 159.5 L 84.5 160 Q 77.8 156.6 77.5 151 Z " /><path fill="rgb(12,10,9)" stroke="rgb(12,10,9)" stroke-width="1" opacity="0.9764705882352941" d="M 82.5 152 L 85.5 156 L 82.5 152 Z " /><path fill="rgb(12,10,9)" stroke="rgb(12,10,9)" stroke-width="1" opacity="0.9764705882352941" d="M 149.5 155 L 150 156.5 L 148 157.5 L 149.5 155 Z " /><path fill="rgb(12,10,9)" stroke="rgb(12,10,9)" stroke-width="1" opacity="0.9764705882352941" d="M 144.5 156 L 143.5 158 L 141.5 159 L 91.5 159 L 89 157.5 L 92.5 157 L 93.5 158 L 140.5 158 L 144.5 156 Z " /><path fill="rgb(12,10,9)" stroke="rgb(12,10,9)" stroke-width="1" opacity="0.9764705882352941" d="M 145.5 159 L 147 159.5 L 144.5 161 L 145.5 159 Z " /><path fill="rgb(12,10,9)" stroke="rgb(12,10,9)" stroke-width="1" opacity="0.9764705882352941" d="M 75.5 161 L 78 163.5 L 78 176 L 133.5 176 L 134 174.5 L 135 173.5 L 135 163 L 132.5 162 L 90 161.5 L 133.5 161 L 136 163.5 L 136 174.5 L 133.5 177 L 78.5 177 L 76 173.5 L 76 162.5 L 75.5 161 Z " /><path fill="rgb(12,10,9)" stroke="rgb(12,10,9)" stroke-width="1" opacity="0.9764705882352941" d="M 139.5 161 L 141 161.5 L 139 163.5 L 138.5 193 L 138 162.5 L 139.5 161 Z " /><path fill="rgb(12,10,9)" stroke="rgb(12,10,9)" stroke-width="1" opacity="0.9764705882352941" d="M 77.5 180 L 78 181.5 L 77 182.5 L 76.5 194 L 76 181.5 L 77.5 180 Z " /><path fill="rgb(12,10,9)" stroke="rgb(12,10,9)" stroke-width="1" opacity="0.9764705882352941" d="M 134.5 180 L 136 181.5 L 136 193.5 L 137 194.5 L 135 193.5 Q 135.7 183.9 134.5 180 Z " /><path fill="rgb(192,227,242)" stroke="rgb(192,227,242)" stroke-width="1" opacity="0.9411764705882353" d="M 131.5 5 L 134.5 7 L 134.5 8 L 131.5 5 Z " /><path fill="rgb(192,227,242)" stroke="rgb(192,227,242)" stroke-width="1" opacity="0.9411764705882353" d="M 89.5 7 L 115.5 7 L 119.5 10 L 124.5 10 L 131 14.5 Q 135.5 19 134 29.5 L 130.5 31 L 128 30 L 127 23 L 125 23 Q 126.1 20.3 123.5 21 L 122.5 20 L 113.5 20 L 98.5 23 L 97 24.5 Q 97.8 27.1 94.5 26 L 90.5 27 L 86.5 25 Q 83.3 26.2 84 30 L 79.5 31 L 78 29.5 L 78 19.5 L 84.5 10 L 89.5 7 Z " /><path fill="rgb(192,227,242)" stroke="rgb(192,227,242)" stroke-width="1" opacity="0.9411764705882353" d="M 136.5 10 Q 138.8 9.3 138 11.5 L 138.5 13 Q 136.3 13.8 137 11.5 L 136.5 10 Z " /><path fill="rgb(192,227,242)" stroke="rgb(192,227,242)" stroke-width="1" opacity="0.9411764705882353" d="M 73 11 L 75 11.5 L 73 12.5 L 73 11 Z " /><path fill="rgb(192,227,242)" stroke="rgb(192,227,242)" stroke-width="1" opacity="0.9411764705882353" d="M 139.5 14 L 140.5 16 L 139.5 14 Z " /><path fill="rgb(192,227,242)" stroke="rgb(192,227,242)" stroke-width="1" opacity="0.9411764705882353" d="M 68.5 34 L 69.5 36 L 68.5 34 Z " /><path fill="rgb(192,227,242)" stroke="rgb(192,227,242)" stroke-width="1" opacity="0.9411764705882353" d="M 143.5 44 L 143 45.5 L 141.5 49 L 140 47.5 L 143.5 44 Z " /><path fill="rgb(192,227,242)" stroke="rgb(192,227,242)" stroke-width="1" opacity="0.9411764705882353" d="M 92.5 74 L 93.5 76 L 92.5 74 Z " /><path fill="rgb(192,227,242)" stroke="rgb(192,227,242)" stroke-width="1" opacity="0.9411764705882353" d="M 60.5 80 L 60 81.5 Q 60.8 83.8 58.5 83 L 57 83.5 L 60.5 80 Z " /><path fill="rgb(192,227,242)" stroke="rgb(192,227,242)" stroke-width="1" opacity="0.9411764705882353" d="M 75.5 81 L 90.5 82 L 103 92.5 L 108 105.5 L 108 117.5 L 106 124.5 L 97.5 136 L 94.5 138 Q 91.3 133.7 82.5 135 L 78.5 136 L 59 115.5 Q 55.9 110.1 57 100.5 Q 58.7 92.7 63.5 88 Q 65.8 88.8 65 86.5 L 71.5 82 L 75.5 81 Z M 77 86 L 66 92 Q 67 96 63 98 Q 64 102 62 104 L 63 112 L 66 117 L 76 123 Q 87 125 93 120 Q 98 116 100 110 L 100 100 L 96 92 Q 93 93 94 91 L 87 86 L 77 86 Z " /><path fill="rgb(192,227,242)" stroke="rgb(192,227,242)" stroke-width="1" opacity="0.9411764705882353" d="M 55.5 85 L 57 85.5 L 54 87.5 L 55.5 85 Z " /><path fill="rgb(192,227,242)" stroke="rgb(192,227,242)" stroke-width="1" opacity="0.9411764705882353" d="M 115.5 105 L 119 107 L 120.5 110 Q 122.8 109.3 122 111.5 L 125 113 L 130 121.5 L 130 141 L 103 140.5 L 112 128.5 L 115 119.5 L 115.5 105 Z " /><path fill="rgb(192,227,242)" stroke="rgb(192,227,242)" stroke-width="1" opacity="0.9411764705882353" d="M 54.5 122 L 57 123.5 L 61 128.5 L 59.5 128 L 57 126.5 L 54.5 122 Z " /><path fill="rgb(192,227,242)" stroke="rgb(192,227,242)" stroke-width="1" opacity="0.9411764705882353" d="M 62.5 130 L 69 135 L 70.5 138 Q 72.8 137.3 72 139.5 L 75 141.5 L 72 142 Q 73.1 139.3 70.5 140 L 66.5 135 Q 64.3 135.8 65 133.5 L 62 132 L 62.5 130 Z " /><path fill="rgb(192,227,242)" stroke="rgb(192,227,242)" stroke-width="1" opacity="0.9411764705882353" d="M 150 157 Q 152.7 155.9 152 158.5 L 149 160 Q 150 163 147 162 Q 145.9 159.3 148.5 160 L 150 157 Z " /><path fill="rgb(192,227,242)" stroke="rgb(192,227,242)" stroke-width="1" opacity="0.9411764705882353" d="M 73 158 Q 76 157 75 160 L 72.5 161 L 71.5 159 L 73 159.5 L 73 158 Z " /><path fill="rgb(192,227,242)" stroke="rgb(192,227,242)" stroke-width="1" opacity="0.9411764705882353" d="M 78 182 L 132.5 182 L 133 182.5 L 133 191.5 L 134 198 L 79.5 198 L 77 196.5 L 78 195.5 L 78 182 Z " /><path fill="rgb(240,108,127)" stroke="rgb(240,108,127)" stroke-width="1" opacity="0.996078431372549" d="M 117.5 7 L 118.5 9 L 117.5 7 Z " /><path fill="rgb(240,108,127)" stroke="rgb(240,108,127)" stroke-width="1" opacity="0.996078431372549" d="M 122.5 32 L 123.5 34 L 122.5 32 Z " /><path fill="rgb(240,108,127)" stroke="rgb(240,108,127)" stroke-width="1" opacity="0.996078431372549" d="M 118.5 40 L 119 43.5 L 118 43.5 L 118.5 40 Z " /><path fill="rgb(240,108,127)" stroke="rgb(240,108,127)" stroke-width="1" opacity="0.996078431372549" d="M 135.5 42 L 134.5 44 L 131 43.5 L 135.5 42 Z " /><path fill="rgb(240,108,127)" stroke="rgb(240,108,127)" stroke-width="1" opacity="0.996078431372549" d="M 121.5 61 L 120.5 63 L 121.5 61 Z " /><path fill="rgb(240,108,127)" stroke="rgb(240,108,127)" stroke-width="1" opacity="0.996078431372549" d="M 117.5 64 L 116.5 66 L 117.5 64 Z " /><path fill="rgb(240,108,127)" stroke="rgb(240,108,127)" stroke-width="1" opacity="0.996078431372549" d="M 104.5 74 L 108 74.5 L 104.5 75 L 104.5 74 Z " /><path fill="rgb(240,108,127)" stroke="rgb(240,108,127)" stroke-width="1" opacity="0.996078431372549" d="M 103.5 83 L 104.5 85 L 103.5 83 Z " /><path fill="rgb(240,108,127)" stroke="rgb(240,108,127)" stroke-width="1" opacity="0.996078431372549" d="M 116.5 83 L 118.5 86 L 116.5 83 Z " /><path fill="rgb(240,108,127)" stroke="rgb(240,108,127)" stroke-width="1" opacity="0.996078431372549" d="M 106.5 86 L 107.5 88 L 106.5 86 Z " /><path fill="rgb(240,108,127)" stroke="rgb(240,108,127)" stroke-width="1" opacity="0.996078431372549" d="M 117.5 89 L 118 93 L 121.5 94 L 127.5 90 L 131.5 90 L 140.5 92 L 147 95.5 Q 152 101 150 113.5 L 147.5 117 L 137 117 L 137 106.5 Q 136.3 104.3 132.5 105 L 130.5 110 L 115 94.5 L 117 92.5 L 117.5 89 Z " /><path fill="rgb(240,108,127)" stroke="rgb(240,108,127)" stroke-width="1" opacity="0.996078431372549" d="M 145.5 123 L 147 124.5 L 147 150.5 L 146 150.5 L 146 124.5 L 145.5 123 Z " /><path fill="rgb(240,108,127)" stroke="rgb(240,108,127)" stroke-width="1" opacity="0.996078431372549" d="M 84.5 141 L 88 141.5 L 84.5 142 L 84.5 141 Z " /><path fill="rgb(240,108,127)" stroke="rgb(240,108,127)" stroke-width="1" opacity="0.996078431372549" d="M 82.5 142 L 81.5 144 L 82.5 142 Z " /><path fill="rgb(240,108,127)" stroke="rgb(240,108,127)" stroke-width="1" opacity="0.996078431372549" d="M 75.5 151 L 76 153 Q 78.7 151.9 78 154.5 L 79 157 L 89.5 163 L 134 163 L 134 173.5 L 132.5 175 L 78.5 175 L 78 174.5 L 78 161.5 L 75 159.5 Q 77.2 158.3 76 153.5 L 75.5 151 Z " /><path fill="rgb(240,108,127)" stroke="rgb(240,108,127)" stroke-width="1" opacity="0.996078431372549" d="M 145.5 152 L 146 153.5 L 141.5 157 L 141.5 156 L 145 153.5 L 145.5 152 Z " /><path fill="rgb(0,0,0)" stroke="rgb(0,0,0)" stroke-width="1" opacity="0.9882352941176471" d="M 93.5 1 L 115.5 1 L 116 3 L 118.5 3 L 122.5 6 Q 130.2 6.5 134 10 L 138 16.5 L 138 34.5 Q 142.5 36 141 43.5 Q 139.3 49.3 132 48 L 132 53.5 L 124.5 65 L 121.5 67 L 120 68.5 L 120 82 L 134.5 87 L 143.5 88 Q 145.4 91.6 150 91 L 154 99.5 L 154 115.5 L 151 119.5 L 151 151.5 L 146.5 159 L 138 162.5 L 137.5 195 L 136 193.5 L 136 181.5 L 134.5 180 L 77.5 180 L 76 181.5 L 76 194.5 L 74 195 L 74 162.5 L 76 162 L 76 173.5 L 78.5 177 L 133.5 177 L 136 174.5 L 136 163.5 L 133.5 161 L 88.5 161 L 79 153.5 Q 75.2 150.3 77 141.5 L 74 137 L 72.5 137 L 61 125.5 Q 61.8 123.3 59.5 124 L 53 114.5 L 52 100.5 L 53 95.5 L 59 85 L 62 83.5 Q 61.3 81.3 63.5 82 L 72.5 77 L 83.5 76 L 93.5 78 L 104 85 L 105.5 88 Q 107.8 87.3 107 89.5 L 110 91 L 111.5 94 Q 113.8 93.3 113 95.5 L 116 97 L 117.5 100 L 120 101.5 Q 119.3 103.8 121.5 103 L 123 106 L 126 107.5 Q 125.3 109.8 127.5 109 L 129 112 L 133 109.5 Q 131.7 104.7 135 106 L 135 116.5 L 137.5 119 Q 147.6 120.6 151 115.5 L 151 99.5 L 145.5 92 L 141.5 92 L 136.5 89 L 128.5 88 L 120.5 92 Q 117.8 90.8 120 89.5 L 122 86.5 L 117 80.5 L 117 72.5 L 115.5 71 L 108.5 73 L 103.5 73 L 94.5 70 L 87 64.5 Q 80.5 58.5 80 48 Q 72.7 49.3 71 43.5 Q 69.5 36 74 34.5 L 74 16.5 L 77 12.5 L 77 10 L 80 8.5 Q 79.3 6.3 81.5 7 L 93.5 1 Z M 90 5 L 84 8 L 77 16 L 76 21 L 76 31 L 79 33 L 85 32 L 86 29 Q 88 26 89 29 L 88 33 L 84 36 L 75 36 L 73 40 L 74 43 L 77 45 L 83 46 Q 81 54 86 58 L 86 60 Q 89 59 88 62 Q 92 67 100 69 Q 114 71 121 65 L 128 56 L 129 48 Q 130 44 136 45 L 139 42 L 137 36 Q 128 38 125 34 L 123 27 L 121 24 L 107 27 L 100 27 L 99 25 L 110 24 L 114 22 L 123 22 L 123 24 L 125 24 Q 127 25 126 31 L 130 33 L 136 32 Q 138 21 134 15 L 130 10 Q 127 7 121 8 L 118 5 L 90 5 Z M 76 79 L 71 80 L 65 84 Q 58 89 55 99 Q 54 110 57 117 L 78 138 L 83 137 Q 91 136 94 140 L 100 137 Q 99 134 102 135 L 108 126 L 111 116 L 111 108 L 108 98 L 104 91 L 92 80 L 76 79 Z M 113 101 L 113 120 L 110 128 L 103 138 L 100 139 L 99 142 L 101 143 L 132 143 L 133 141 L 133 123 L 131 118 L 124 109 L 113 101 Z M 138 121 L 135 124 L 135 146 L 94 146 L 90 140 Q 82 138 80 143 Q 79 150 82 153 L 92 159 L 142 159 L 144 158 L 148 153 L 148 124 L 147 123 L 147 121 L 138 121 Z " /><path fill="rgb(0,0,0)" stroke="rgb(0,0,0)" stroke-width="1" opacity="0.9882352941176471" d="M 96.5 39 Q 99.3 40.4 98 45 L 96 45 L 96.5 39 Z " /><path fill="rgb(0,0,0)" stroke="rgb(0,0,0)" stroke-width="1" opacity="0.9882352941176471" d="M 115.5 39 Q 117.8 39.8 117 43.5 L 114 45 Q 112.8 40.4 115.5 39 Z " /><path fill="rgb(0,0,0)" stroke="rgb(0,0,0)" stroke-width="1" opacity="0.9882352941176471" d="M 100 54 L 108.5 55 L 113 54 Q 114.1 56.7 111.5 56 Q 109.5 59 103.5 58 L 100 55.5 L 100 54 Z " /><path fill="rgb(0,0,0)" stroke="rgb(0,0,0)" stroke-width="1" opacity="0.9882352941176471" d="M 76.5 88 L 85.5 88 L 95 94.5 Q 99.5 99 98 109.5 L 91.5 118 Q 87.1 123.1 75.5 121 L 68 115.5 L 65 111.5 L 65 98.5 L 71.5 91 L 76.5 88 Z M 80 91 L 75 92 L 70 95 L 67 102 L 67 108 L 70 114 L 76 118 L 81 119 L 87 118 L 92 115 L 96 105 L 92 95 Q 89 96 90 93 L 80 91 Z " /><path fill="rgb(0,0,0)" stroke="rgb(0,0,0)" stroke-width="1" opacity="0.9882352941176471" d="M 85.5 99 Q 88.5 100.5 85.5 102 Q 82.5 100.5 85.5 99 Z " /><path fill="rgb(0,0,0)" stroke="rgb(0,0,0)" stroke-width="1" opacity="0.9882352941176471" d="M 76 108 Q 79 107 78 110 Q 75 111 76 108 Z " /></svg>