<svg width="200" height="200" version="1.1" xmlns="http://www.w3.org/2000/svg" desc="Created with imagetracer.js version 1.2.6" ><path fill="rgb(0,0,0)" stroke="rgb(0,0,0)" stroke-width="1" opacity="0" d="M 0 0 L 200 0 L 200 200 L 112 199.5 L 117.5 198 L 130 185.5 L 135 178 L 140 174.5 Q 138.9 171.2 141.5 172 L 146.5 166 L 149 164.5 Q 148.5 160.5 151.5 160 L 155 157.5 L 156.5 155 L 159 153.5 L 159 151.5 L 169 138.5 L 173 129.5 L 172.5 128 Q 175.5 128.9 174 124.5 L 176 117.5 L 176 91.5 L 174 81.5 L 169 70.5 L 175 70 L 175 56.5 L 174 53.5 L 170 45.5 L 162.5 37 L 156 34 Q 157.1 31.3 154.5 32 L 144.5 29 L 113.5 29 L 112 27.5 L 112 3.5 L 109.5 1 L 100.5 1 L 98 3.5 L 97 6.5 L 97 26.5 L 94.5 29 L 63.5 29 Q 52.1 31.6 45 38.5 L 42.5 42 Q 39.9 41.2 41 44.5 L 36 51.5 L 34 59.5 L 34 70 L 40 70 L 40 72.5 L 39 76 Q 36 74.8 37 78.5 L 34 88.5 L 34 96.5 L 32 98.5 L 32 109.5 L 34 112.5 L 34 119.5 L 36 128.5 L 41 139.5 L 56 157.5 L 57 161 L 61 163.5 L 62.5 166 L 66 168.5 Q 65.5 172.5 68.5 173 Q 70.8 172.3 70 174.5 L 90.5 197 L 97 199.5 L 0 200 L 0 0 Z " /><path fill="rgb(14,148,98)" stroke="rgb(14,148,98)" stroke-width="1" opacity="0.9686274509803922" d="M 101.5 2 Q 110.5 0.5 112 6.5 L 112 27.5 L 111 30 L 98.5 30 L 98 28.5 L 97 27.5 L 97 8.5 L 101.5 2 Z " /><path fill="rgb(14,148,98)" stroke="rgb(14,148,98)" stroke-width="1" opacity="0.9686274509803922" d="M 102.5 54 L 101 56.5 L 99.5 59 L 100 57.5 L 102.5 54 Z " /><path fill="rgb(14,148,98)" stroke="rgb(14,148,98)" stroke-width="1" opacity="0.9686274509803922" d="M 106.5 54 L 109.5 58 L 106.5 54 Z " /><path fill="rgb(14,148,98)" stroke="rgb(14,148,98)" stroke-width="1" opacity="0.9686274509803922" d="M 97.5 59 L 96.5 61 L 97.5 59 Z " /><path fill="rgb(14,148,98)" stroke="rgb(14,148,98)" stroke-width="1" opacity="0.9686274509803922" d="M 111.5 59 L 118 63.5 L 116.5 63 Q 111.9 61.8 111.5 59 Z " /><path fill="rgb(14,148,98)" stroke="rgb(14,148,98)" stroke-width="1" opacity="0.9686274509803922" d="M 94.5 61 L 92.5 64 L 91 63.5 L 94.5 61 Z " /><path fill="rgb(14,148,98)" stroke="rgb(14,148,98)" stroke-width="1" opacity="0.9686274509803922" d="M 82.5 66 L 85 66.5 L 81.5 68 L 44.5 68 L 44.5 67 L 81.5 67 L 82.5 66 Z " /><path fill="rgb(14,148,98)" stroke="rgb(14,148,98)" stroke-width="1" opacity="0.9686274509803922" d="M 124.5 66 L 128.5 67 L 165 67.5 L 128.5 68 L 124.5 67 L 124.5 66 Z " /><path fill="rgb(0,210,106)" stroke="rgb(0,210,106)" stroke-width="1" opacity="0.996078431372549" d="M 97.5 29 L 98.5 30 L 110.5 30 L 112.5 29 L 113.5 30 L 142.5 30 Q 156.4 32.6 164 41.5 L 172 53.5 L 174 68 L 165.5 68 L 164.5 67 L 128.5 67 L 120.5 65 L 110 59 L 106.5 54 L 104.5 53 L 100 56.5 L 98.5 59 Q 91.9 64.9 81.5 67 L 44.5 67 L 43.5 68 L 35 68 L 37 54.5 Q 41.2 44.2 49.5 38 Q 56.1 32.1 66.5 30 L 96.5 30 L 97.5 29 Z " /><path fill="rgb(183,198,182)" stroke="rgb(183,198,182)" stroke-width="1" opacity="0.2901960784313726" d="M 100.5 1 L 109.5 1 L 112 3.5 L 111.5 6 Q 110 0.5 101.5 2 L 98 4.5 L 100.5 1 Z " /><path fill="rgb(183,198,182)" stroke="rgb(183,198,182)" stroke-width="1" opacity="0.2901960784313726" d="M 96.5 27 Q 99.5 28.5 96.5 30 L 66.5 30 L 62.5 31 Q 49.3 35.3 42 45.5 L 37 54.5 L 35 68 L 42.5 68 L 43 69.5 L 39 76.5 L 34.5 93 L 34 88.5 L 37 76 Q 40 77.3 39 73.5 L 40 70 L 34 70 L 34 59.5 L 36 51.5 L 41 44.5 L 41 42 L 45 39.5 L 47.5 36 L 58.5 30 L 63.5 29 L 94.5 29 L 96.5 27 Z " /><path fill="rgb(183,198,182)" stroke="rgb(183,198,182)" stroke-width="1" opacity="0.2901960784313726" d="M 111.5 28 L 113.5 29 L 144.5 29 L 156 32 Q 154.9 34.7 157.5 34 L 166 40.5 L 170 45.5 L 175 56.5 L 175 70 L 169 70.5 L 174 81.5 L 176 96.5 L 175 96.5 L 173 83.5 L 166 68.5 L 174 68 L 172 53.5 L 161.5 39 Q 154.4 32.1 142.5 30 L 113.5 30 L 111.5 28 Z " /><path fill="rgb(183,198,182)" stroke="rgb(183,198,182)" stroke-width="1" opacity="0.2901960784313726" d="M 33.5 97 L 34 111.5 L 33 111.5 L 32 109.5 L 32 98.5 L 33.5 97 Z " /><path fill="rgb(183,198,182)" stroke="rgb(183,198,182)" stroke-width="1" opacity="0.2901960784313726" d="M 175.5 112 L 176 118 Q 173.3 119.1 174 116.5 L 175.5 112 Z " /><path fill="rgb(183,198,182)" stroke="rgb(183,198,182)" stroke-width="1" opacity="0.2901960784313726" d="M 34.5 115 L 39 131.5 L 48 146.5 L 92.5 196 L 100 199.5 L 97.5 200 Q 88.4 197.5 84 190.5 L 70 173 L 66 170.5 Q 66.5 166.5 63.5 166 L 61 164.5 L 58.5 161 Q 56.3 161.8 57 159.5 L 41 139.5 L 36 128.5 L 34 119.5 L 34.5 115 Z " /><path fill="rgb(183,198,182)" stroke="rgb(183,198,182)" stroke-width="1" opacity="0.2901960784313726" d="M 174.5 119 L 175 123.5 L 174 128 L 172 128.5 L 172 130.5 L 169 138.5 L 157.5 155 L 155 156.5 L 152.5 160 L 149 162.5 L 147.5 166 L 145 167.5 L 141.5 172 Q 138.9 171.2 140 174.5 L 135 178 Q 128.4 189.5 117.5 198 L 109.5 200 L 109.5 199 Q 117.1 197.5 121 192.5 L 162 145.5 L 171 130.5 L 174.5 119 Z " /><path fill="rgb(247,80,78)" stroke="rgb(247,80,78)" stroke-width="1" opacity="0.8196078431372549" d="M 43.5 69 L 43 70.5 L 42.5 72 L 42 70.5 L 43.5 69 Z " /><path fill="rgb(247,80,78)" stroke="rgb(247,80,78)" stroke-width="1" opacity="0.8196078431372549" d="M 166.5 69 L 173 85.5 L 172 85.5 L 166.5 69 Z " /><path fill="rgb(247,80,78)" stroke="rgb(247,80,78)" stroke-width="1" opacity="0.8196078431372549" d="M 40.5 75 L 41 76.5 L 37.5 85 L 37 82.5 L 40.5 75 Z " /><path fill="rgb(247,80,78)" stroke="rgb(247,80,78)" stroke-width="1" opacity="0.8196078431372549" d="M 36.5 86 L 37 88.5 L 36 88.5 L 36.5 86 Z " /><path fill="rgb(247,80,78)" stroke="rgb(247,80,78)" stroke-width="1" opacity="0.8196078431372549" d="M 173.5 87 L 174 91.5 L 173 91.5 L 173.5 87 Z " /><path fill="rgb(247,80,78)" stroke="rgb(247,80,78)" stroke-width="1" opacity="0.8196078431372549" d="M 35.5 90 L 36 95.5 L 35 96.5 L 35 112.5 L 36 117.5 L 35 117.5 L 34 114.5 L 34 93.5 L 35.5 90 Z " /><path fill="rgb(247,80,78)" stroke="rgb(247,80,78)" stroke-width="1" opacity="0.8196078431372549" d="M 174.5 93 Q 177.8 99.8 176 111.5 L 174.5 116 L 174 107.5 Q 176.5 106 175 100.5 Q 172.2 98.7 174.5 93 Z " /><path fill="rgb(247,80,78)" stroke="rgb(247,80,78)" stroke-width="1" opacity="0.8196078431372549" d="M 173.5 117 L 174 120.5 L 173 120.5 L 173.5 117 Z " /><path fill="rgb(247,80,78)" stroke="rgb(247,80,78)" stroke-width="1" opacity="0.8196078431372549" d="M 36.5 119 L 41 132.5 L 39 131.5 L 36 122.5 L 36.5 119 Z " /><path fill="rgb(247,80,78)" stroke="rgb(247,80,78)" stroke-width="1" opacity="0.8196078431372549" d="M 172.5 122 L 173 124.5 L 169.5 132 L 169 130.5 L 172.5 122 Z " /><path fill="rgb(247,80,78)" stroke="rgb(247,80,78)" stroke-width="1" opacity="0.8196078431372549" d="M 168.5 133 L 168 134.5 L 167 138.5 L 158 150.5 L 119.5 194 L 108.5 200 L 100.5 200 Q 89.8 196.2 84 187.5 L 52 151.5 L 42 136.5 L 44 137.5 L 51 148.5 L 92.5 195 Q 98 200 110.5 198 L 115.5 196 L 127 184.5 L 157 150.5 L 168.5 133 Z " /><path fill="rgb(246,48,46)" stroke="rgb(246,48,46)" stroke-width="1" opacity="0.996078431372549" d="M 58.5 79 Q 64.4 79.6 67 83.5 Q 69.7 87.3 68 95.5 L 63.5 102 Q 53.8 103.8 52 97.5 L 52 83.5 L 53.5 82 Q 56.1 82.7 55 80 L 57.5 80 L 58.5 79 Z M 58 81 L 54 83 Q 52 87 53 97 L 59 101 Q 64 101 66 97 L 66 86 L 65 84 Q 64 80 58 81 Z " /><path fill="rgb(246,48,46)" stroke="rgb(246,48,46)" stroke-width="1" opacity="0.996078431372549" d="M 103.5 79 Q 109.3 79.7 112 83.5 L 113 95.5 L 108.5 102 Q 98.8 103.8 97 97.5 L 97 84.5 L 100.5 80 L 103.5 79 Z M 103 81 L 98 87 L 99 98 L 104 101 L 109 100 L 111 97 L 111 85 Q 109 80 103 81 Z " /><path fill="rgb(246,48,46)" stroke="rgb(246,48,46)" stroke-width="1" opacity="0.996078431372549" d="M 148.5 79 L 151.5 79 L 158 84.5 L 158 97.5 L 156 98 Q 157.5 101.7 154.5 101 Q 153 103.5 147.5 102 L 144 99.5 L 142 96.5 L 142 84.5 L 148.5 79 Z M 148 81 L 143 87 Q 142 94 144 98 L 150 101 L 154 100 L 157 95 Q 158 88 156 85 Q 155 80 148 81 Z " /><path fill="rgb(246,48,46)" stroke="rgb(246,48,46)" stroke-width="1" opacity="0.996078431372549" d="M 36.5 95 L 37 97.5 L 36 97.5 L 36.5 95 Z " /><path fill="rgb(246,48,46)" stroke="rgb(246,48,46)" stroke-width="1" opacity="0.996078431372549" d="M 173.5 99 L 174 108.5 L 173 108.5 L 173.5 99 Z " /><path fill="rgb(246,48,46)" stroke="rgb(246,48,46)" stroke-width="1" opacity="0.996078431372549" d="M 35.5 111 Q 38.1 110.2 37 113.5 L 36 113.5 L 35.5 111 Z " /><path fill="rgb(246,48,46)" stroke="rgb(246,48,46)" stroke-width="1" opacity="0.996078431372549" d="M 81.5 114 L 86.5 115 L 90 118.5 L 90 132.5 L 87.5 135 L 86 135 L 85.5 137 L 80.5 137 L 76 135 Q 72.4 130.5 74 119.5 L 77.5 115 L 81.5 114 Z M 80 116 L 75 123 Q 74 132 80 135 L 87 134 L 89 131 Q 91 122 88 119 Q 86 115 80 116 Z " /><path fill="rgb(246,48,46)" stroke="rgb(246,48,46)" stroke-width="1" opacity="0.996078431372549" d="M 125.5 114 Q 131.9 113.6 134 117.5 L 135 119.5 L 135 132.5 L 130.5 137 L 125.5 137 L 120 133.5 Q 117.8 128.8 119 120.5 L 121 116 L 125.5 114 Z M 125 116 L 121 120 L 121 132 L 128 136 L 131 135 L 134 131 Q 136 122 133 119 Q 132 115 125 116 Z " /><path fill="rgb(246,48,46)" stroke="rgb(246,48,46)" stroke-width="1" opacity="0.996078431372549" d="M 100.5 147 Q 110 145 112 150.5 L 113 161.5 L 110.5 167 L 109 167 L 108.5 169 L 102.5 169 L 97 164.5 L 97 151.5 L 100.5 147 Z M 103 148 L 100 149 L 98 154 L 99 165 L 104 168 L 110 166 L 111 164 L 111 153 L 110 151 Q 108 147 103 148 Z " /><path fill="rgb(246,48,46)" stroke="rgb(246,48,46)" stroke-width="1" opacity="0.996078431372549" d="M 56.5 153 L 58.5 156 L 56.5 153 Z " /><path fill="rgb(246,48,46)" stroke="rgb(246,48,46)" stroke-width="1" opacity="0.996078431372549" d="M 148.5 158 L 146.5 161 L 148.5 158 Z " /><path fill="rgb(248,49,47)" stroke="rgb(248,49,47)" stroke-width="1" opacity="1" d="M 104.5 54 Q 112.1 63.9 125.5 68 Q 130.2 66.7 131.5 69 L 164.5 69 L 167 71.5 L 168 74.5 L 167.5 76 Q 169.8 75.3 169 77.5 L 173 86.5 L 174 98.5 L 173 99.5 L 173 108.5 Q 175.7 110.2 174 116.5 L 167.5 134 L 166 134.5 L 166.5 136 L 165 136.5 Q 167.5 138 164 139.5 Q 158.6 150.6 149.5 158 L 147 159.5 L 148 160.5 L 142 166.5 L 115.5 196 Q 109.7 199.7 98.5 198 L 96 197 L 95.5 195 L 93.5 195 L 87 189.5 L 57 155.5 Q 59.3 154.3 56.5 153 L 51 148.5 L 42 135.5 L 38 124.5 L 38.5 123 Q 35.9 123.8 37 120.5 L 38 118.5 L 36 118.5 L 37 111 L 35 110.5 L 35 96.5 L 36 96.5 L 36.5 98 L 37 95.5 Q 34.8 94.3 36 89.5 L 40 81.5 L 40 79.5 Q 40.6 72.6 44.5 69 L 78.5 69 L 83.5 68 L 91.5 65 L 103 57 L 104.5 54 Z M 59 79 L 58 80 L 55 80 Q 56 83 54 82 L 52 84 L 52 98 Q 54 104 64 102 L 68 96 Q 70 87 67 84 Q 64 80 59 79 Z M 104 79 L 101 80 L 97 85 L 97 98 Q 99 104 109 102 L 113 96 L 112 84 Q 109 80 104 79 Z M 149 79 L 142 85 L 142 97 L 144 100 L 148 102 Q 153 104 155 101 Q 158 102 156 98 L 158 98 L 158 85 L 152 79 L 149 79 Z M 82 114 L 78 115 L 74 120 Q 72 130 76 135 L 81 137 L 86 137 L 86 135 L 88 135 L 90 133 L 90 119 L 87 115 L 82 114 Z M 126 114 L 121 116 L 119 121 Q 118 129 120 134 L 126 137 L 131 137 L 135 133 L 135 120 L 134 118 Q 132 114 126 114 Z M 101 147 L 97 152 L 97 165 L 103 169 L 109 169 L 109 167 L 111 167 L 113 162 L 112 151 Q 110 145 101 147 Z " /><path fill="rgb(248,49,47)" stroke="rgb(248,49,47)" stroke-width="1" opacity="1" d="M 174.5 100 L 175 106.5 L 174 106.5 L 174.5 100 Z " /><path fill="rgb(42,29,29)" stroke="rgb(42,29,29)" stroke-width="1" opacity="1" d="M 57.5 81 Q 63.8 79.8 65 83.5 L 66 85.5 L 66 96.5 Q 64 100.5 58.5 101 L 53 96.5 Q 51.6 86.9 54 83 L 57.5 81 Z " /><path fill="rgb(42,29,29)" stroke="rgb(42,29,29)" stroke-width="1" opacity="1" d="M 102.5 81 Q 109.4 80.1 111 84.5 L 111 96.5 L 108.5 100 L 103.5 101 L 99 97.5 L 98 86.5 L 102.5 81 Z " /><path fill="rgb(42,29,29)" stroke="rgb(42,29,29)" stroke-width="1" opacity="1" d="M 147.5 81 Q 154.8 79.8 156 84.5 Q 158.3 87.7 157 94.5 L 153.5 100 L 149.5 101 L 144 97.5 Q 141.5 94 143 86.5 L 147.5 81 Z " /><path fill="rgb(42,29,29)" stroke="rgb(42,29,29)" stroke-width="1" opacity="1" d="M 79.5 116 Q 86 115 88 118.5 Q 90.7 122.3 89 130.5 L 86.5 134 L 79.5 135 Q 73.8 132.2 75 122.5 L 79.5 116 Z " /><path fill="rgb(42,29,29)" stroke="rgb(42,29,29)" stroke-width="1" opacity="1" d="M 124.5 116 Q 131.5 114.5 133 118.5 Q 135.7 122.3 134 130.5 L 130.5 135 L 127.5 136 L 121 131.5 L 121 119.5 L 124.5 116 Z " /><path fill="rgb(42,29,29)" stroke="rgb(42,29,29)" stroke-width="1" opacity="1" d="M 102.5 148 Q 108.3 147.2 110 150.5 L 111 152.5 L 111 163.5 L 110 166 L 103.5 168 L 99 164.5 L 98 153.5 L 100 149 L 102.5 148 Z " /><path fill="rgb(187,94,69)" stroke="rgb(187,94,69)" stroke-width="1" opacity="0.8588235294117647" d="M 103.5 54 L 103 55.5 Q 103.8 57.8 101.5 57 L 103.5 54 Z " /><path fill="rgb(187,94,69)" stroke="rgb(187,94,69)" stroke-width="1" opacity="0.8588235294117647" d="M 105.5 54 L 111.5 61 L 105.5 54 Z " /><path fill="rgb(187,94,69)" stroke="rgb(187,94,69)" stroke-width="1" opacity="0.8588235294117647" d="M 98.5 59 L 96.5 62 L 94.5 63 L 95.5 61 L 98.5 59 Z " /><path fill="rgb(187,94,69)" stroke="rgb(187,94,69)" stroke-width="1" opacity="0.8588235294117647" d="M 113.5 61 L 114.5 63 L 113.5 61 Z " /><path fill="rgb(187,94,69)" stroke="rgb(187,94,69)" stroke-width="1" opacity="0.8588235294117647" d="M 90.5 64 L 92 64.5 L 85.5 67 L 85.5 66 L 90.5 64 Z " /><path fill="rgb(187,94,69)" stroke="rgb(187,94,69)" stroke-width="1" opacity="0.8588235294117647" d="M 125.5 67 L 128 67.5 L 125.5 68 L 125.5 67 Z " /><path fill="rgb(187,94,69)" stroke="rgb(187,94,69)" stroke-width="1" opacity="0.8588235294117647" d="M 43.5 68 L 79 68.5 L 43.5 69 L 43.5 68 Z " /><path fill="rgb(187,94,69)" stroke="rgb(187,94,69)" stroke-width="1" opacity="0.8588235294117647" d="M 131.5 68 L 166 68.5 L 131.5 69 L 131.5 68 Z " /></svg>