<svg width="200" height="200" version="1.1" xmlns="http://www.w3.org/2000/svg" desc="Created with imagetracer.js version 1.2.6" ><path fill="rgb(187,209,211)" stroke="rgb(187,209,211)" stroke-width="1" opacity="0.8823529411764706" d="M 20 14 Q 23 13 22 16 Q 19 17 20 14 Z " /><path fill="rgb(187,209,211)" stroke="rgb(187,209,211)" stroke-width="1" opacity="0.8823529411764706" d="M 17.5 15 L 19 18 L 13.5 20 L 13.5 19 L 17 16.5 L 17.5 15 Z " /><path fill="rgb(187,209,211)" stroke="rgb(187,209,211)" stroke-width="1" opacity="0.8823529411764706" d="M 182.5 15 L 185.5 19 Q 188.1 18.3 187 21 L 189 21 L 189 23.5 L 187.5 23 Q 185.3 23.8 186 21.5 L 183 20 L 183 18 Q 180.3 19.1 181 16.5 L 182.5 15 Z " /><path fill="rgb(187,209,211)" stroke="rgb(187,209,211)" stroke-width="1" opacity="0.8823529411764706" d="M 11.5 21 Q 13.8 20.3 13 22.5 L 12 25 L 9 24.5 L 11.5 21 Z " /><path fill="rgb(187,209,211)" stroke="rgb(187,209,211)" stroke-width="1" opacity="0.8823529411764706" d="M 8.5 26 Q 10.8 25.3 10 27.5 Q 8.5 30.5 7 27.5 L 8.5 26 Z " /><path fill="rgb(187,209,211)" stroke="rgb(187,209,211)" stroke-width="1" opacity="0.8823529411764706" d="M 191.5 30 L 192.5 32 Q 189.7 32.7 191.5 30 Z " /><path fill="rgb(187,209,211)" stroke="rgb(187,209,211)" stroke-width="1" opacity="0.8823529411764706" d="M 93 105 L 97 105 L 97 106.5 L 87 120.5 L 86 124 L 84 124 L 84 127 Q 81.3 125.9 82 128.5 L 79 134 Q 76 132.8 77 136.5 L 42 186.5 L 37 196 L 33.5 198 L 28 198 L 31 191 Q 33.7 192.1 33 189.5 L 40 179 Q 42.7 180.1 42 177.5 L 53 162.5 L 54 159 Q 56.7 160.1 56 157.5 L 59 152 Q 61.7 153.1 61 150.5 L 67 143.5 L 68 140 Q 70.7 141.1 70 138.5 L 77 127 Q 79.7 128.1 79 125.5 L 82 120 Q 84.7 121.1 84 118.5 L 86 115 Q 88.7 116.1 88 113.5 L 91 108 Q 94.3 109.1 93 105 Z " /><path fill="rgb(187,209,211)" stroke="rgb(187,209,211)" stroke-width="1" opacity="0.8823529411764706" d="M 102.5 105 L 107 105 L 107 108 Q 109.7 106.9 109 109.5 L 112 115 Q 115 113.8 114 117.5 Q 123.4 125.6 128 138 Q 130.7 136.9 130 139.5 L 133 145 L 137 147 L 137 150 Q 139.7 148.9 139 151.5 L 142 157 Q 144.7 155.9 144 158.5 L 151 170 L 153 170 L 153 173 Q 155.7 171.9 155 174.5 L 156 177 Q 158.7 175.9 158 178.5 L 160 182 Q 162.7 180.9 162 183.5 L 165 189 Q 167.7 187.9 167 190.5 L 171 195.5 L 171 198 L 165.5 198 L 165 196 L 163.5 196 L 130 147.5 L 130 145 Q 127.3 146.1 128 143.5 L 125 138 Q 122 139.3 123 135.5 L 111 119.5 L 111 117 Q 108.3 118.1 109 115.5 Q 106.3 114.4 107 111 Q 104.3 112.1 105 109.5 L 102.5 105 Z " /><path fill="rgb(187,209,211)" stroke="rgb(187,209,211)" stroke-width="1" opacity="0.8823529411764706" d="M 10.5 186 L 9.5 188 L 10.5 186 Z " /><path fill="rgb(187,209,211)" stroke="rgb(187,209,211)" stroke-width="1" opacity="0.8823529411764706" d="M 12.5 189 L 13 191 L 15 191 Q 13.9 193.7 16.5 193 L 20 195.5 L 17 197 Q 18.1 194.3 15.5 195 L 12 190.5 L 12.5 189 Z " /><path fill="rgb(187,209,211)" stroke="rgb(187,209,211)" stroke-width="1" opacity="0.8823529411764706" d="M 185 191 Q 187.7 189.9 187 192.5 L 180.5 197 L 179.5 195 Q 183.3 196 182 193 L 185 193 L 185 191 Z " /><path fill="rgb(187,209,211)" stroke="rgb(187,209,211)" stroke-width="1" opacity="0.8823529411764706" d="M 22 196 Q 24.7 194.9 24 197.5 L 22 198.5 L 22 196 Z " /><path fill="rgb(187,209,211)" stroke="rgb(187,209,211)" stroke-width="1" opacity="0.8823529411764706" d="M 174 196 L 178 196 L 178 197.5 Q 176.8 200.3 175.5 198 Q 172.9 198.7 174 196 Z " /><path fill="rgb(79,225,254)" stroke="rgb(79,225,254)" stroke-width="1" opacity="0.984313725490196" d="M 22 14 L 175.5 14 L 181 16 L 181 18 L 183 18 Q 181.9 20.7 184.5 20 L 186 23 L 189 24.5 L 192 32.5 L 192 79 L 189.5 80 L 189 33.5 L 186 24 L 184 24 L 184 22 L 182 22 Q 183.1 19.3 180.5 20 L 174.5 17 L 23.5 17 L 18 20 L 18 22 L 16 22 L 16 24 Q 13.3 22.9 14 25.5 L 11 29.5 L 10.5 80 L 8 79 L 8 29.5 Q 10.8 28.4 10 25 Q 12.7 26.1 12 23.5 L 13 20 L 19 18 L 19 16 Q 23.1 17.3 22 14 Z " /><path fill="rgb(80,226,255)" stroke="rgb(80,226,255)" stroke-width="1" opacity="1" d="M 23.5 17 L 174.5 17 L 176.5 19 L 182 20 L 182 22 L 186 24 L 186 26.5 L 189 33.5 L 189 80 L 176.5 80 L 168.5 83 L 164.5 83 L 129.5 103 Q 123.5 103 120.5 106 L 107.5 106 L 102.5 105 L 97.5 106 L 93.5 105 L 92.5 106 L 79.5 106 L 65 101 Q 66.3 98 62.5 99 Q 57.2 93.5 49 92 Q 50.3 89 46.5 90 Q 44.6 86.4 40 87 Q 41.3 83.7 36.5 85 L 34.5 83 Q 29.2 83.8 27.5 81 L 11 80 L 11 29.5 L 14 24 L 16 24 L 16 22 L 18 22 Q 16.9 19.3 19.5 20 L 23.5 17 Z " /><path fill="rgb(2,209,106)" stroke="rgb(2,209,106)" stroke-width="1" opacity="0.6941176470588235" d="M 8 79 L 10 79.5 L 10 181.5 L 13 188.5 L 12 188.5 Q 13 184.8 10 186 L 10 182 L 8 181.5 L 8 79 Z " /><path fill="rgb(2,209,106)" stroke="rgb(2,209,106)" stroke-width="1" opacity="0.6941176470588235" d="M 190 79 L 192 79.5 L 192 179 Q 188.7 177.7 190 182.5 L 190.5 184 L 188 184.5 L 189 187 L 186 186.5 L 190 176.5 L 190 79 Z " /><path fill="rgb(146,148,132)" stroke="rgb(146,148,132)" stroke-width="1" opacity="0.6196078431372549" d="M 178.5 15 L 182 15.5 L 178.5 16 L 178.5 15 Z " /><path fill="rgb(146,148,132)" stroke="rgb(146,148,132)" stroke-width="1" opacity="0.6196078431372549" d="M 16.5 16 L 15.5 18 L 16.5 16 Z " /><path fill="rgb(146,148,132)" stroke="rgb(146,148,132)" stroke-width="1" opacity="0.6196078431372549" d="M 183.5 16 L 184.5 18 L 183.5 16 Z " /><path fill="rgb(146,148,132)" stroke="rgb(146,148,132)" stroke-width="1" opacity="0.6196078431372549" d="M 189.5 24 Q 192 25 191 29.5 L 190 29.5 L 189.5 24 Z " /><path fill="rgb(146,148,132)" stroke="rgb(146,148,132)" stroke-width="1" opacity="0.6196078431372549" d="M 7.5 28 L 8 182 Q 11.7 180.7 10 186.5 L 12 186.5 L 12.5 191 L 13.5 189 L 22 195.5 Q 22.8 198.1 19.5 197 L 18.5 194 L 15 193 Q 16.1 190.3 13.5 191 Q 12.3 193.3 11 190.5 L 7 181.5 L 7.5 28 Z " /><path fill="rgb(146,148,132)" stroke="rgb(146,148,132)" stroke-width="1" opacity="0.6196078431372549" d="M 192.5 32 L 193 176.5 L 192 176.5 L 192.5 32 Z " /><path fill="rgb(146,148,132)" stroke="rgb(146,148,132)" stroke-width="1" opacity="0.6196078431372549" d="M 91 106 Q 94 105 93 108 Q 90 109 91 106 Z " /><path fill="rgb(146,148,132)" stroke="rgb(146,148,132)" stroke-width="1" opacity="0.6196078431372549" d="M 97.5 106 L 96 108.5 L 93.5 112 L 95 109.5 L 97.5 106 Z " /><path fill="rgb(146,148,132)" stroke="rgb(146,148,132)" stroke-width="1" opacity="0.6196078431372549" d="M 92.5 113 L 91.5 115 L 92.5 113 Z " /><path fill="rgb(146,148,132)" stroke="rgb(146,148,132)" stroke-width="1" opacity="0.6196078431372549" d="M 90.5 116 L 89.5 118 L 90.5 116 Z " /><path fill="rgb(146,148,132)" stroke="rgb(146,148,132)" stroke-width="1" opacity="0.6196078431372549" d="M 114.5 117 L 115.5 119 L 114.5 117 Z " /><path fill="rgb(146,148,132)" stroke="rgb(146,148,132)" stroke-width="1" opacity="0.6196078431372549" d="M 88.5 119 L 88 120.5 L 87.5 122 L 87 120.5 L 88.5 119 Z " /><path fill="rgb(146,148,132)" stroke="rgb(146,148,132)" stroke-width="1" opacity="0.6196078431372549" d="M 112.5 121 L 113.5 123 L 112.5 121 Z " /><path fill="rgb(146,148,132)" stroke="rgb(146,148,132)" stroke-width="1" opacity="0.6196078431372549" d="M 80.5 123 L 79.5 125 L 80.5 123 Z " /><path fill="rgb(146,148,132)" stroke="rgb(146,148,132)" stroke-width="1" opacity="0.6196078431372549" d="M 84 124 L 86 124.5 L 84 125.5 L 84 124 Z " /><path fill="rgb(146,148,132)" stroke="rgb(146,148,132)" stroke-width="1" opacity="0.6196078431372549" d="M 114.5 124 L 115.5 126 L 114.5 124 Z " /><path fill="rgb(146,148,132)" stroke="rgb(146,148,132)" stroke-width="1" opacity="0.6196078431372549" d="M 82.5 127 L 83 128.5 L 81.5 131 L 81 129.5 L 82.5 127 Z " /><path fill="rgb(146,148,132)" stroke="rgb(146,148,132)" stroke-width="1" opacity="0.6196078431372549" d="M 116.5 127 L 117.5 129 L 116.5 127 Z " /><path fill="rgb(146,148,132)" stroke="rgb(146,148,132)" stroke-width="1" opacity="0.6196078431372549" d="M 75.5 130 L 74.5 132 L 75.5 130 Z " /><path fill="rgb(146,148,132)" stroke="rgb(146,148,132)" stroke-width="1" opacity="0.6196078431372549" d="M 118.5 130 L 120.5 133 L 118.5 130 Z " /><path fill="rgb(146,148,132)" stroke="rgb(146,148,132)" stroke-width="1" opacity="0.6196078431372549" d="M 121.5 134 L 122.5 136 L 121.5 134 Z " /><path fill="rgb(146,148,132)" stroke="rgb(146,148,132)" stroke-width="1" opacity="0.6196078431372549" d="M 126.5 134 L 127.5 136 L 126.5 134 Z " /><path fill="rgb(146,148,132)" stroke="rgb(146,148,132)" stroke-width="1" opacity="0.6196078431372549" d="M 71.5 136 L 70.5 138 L 71.5 136 Z " /><path fill="rgb(146,148,132)" stroke="rgb(146,148,132)" stroke-width="1" opacity="0.6196078431372549" d="M 125.5 140 L 126.5 142 L 125.5 140 Z " /><path fill="rgb(146,148,132)" stroke="rgb(146,148,132)" stroke-width="1" opacity="0.6196078431372549" d="M 71.5 144 L 70.5 146 L 71.5 144 Z " /><path fill="rgb(146,148,132)" stroke="rgb(146,148,132)" stroke-width="1" opacity="0.6196078431372549" d="M 128.5 145 Q 130.8 144.3 130 146.5 L 128.5 145 Z " /><path fill="rgb(146,148,132)" stroke="rgb(146,148,132)" stroke-width="1" opacity="0.6196078431372549" d="M 69.5 147 L 70 149 L 68 148.5 L 69.5 147 Z " /><path fill="rgb(146,148,132)" stroke="rgb(146,148,132)" stroke-width="1" opacity="0.6196078431372549" d="M 62.5 148 L 61.5 150 L 62.5 148 Z " /><path fill="rgb(146,148,132)" stroke="rgb(146,148,132)" stroke-width="1" opacity="0.6196078431372549" d="M 130.5 148 L 131.5 150 Q 128.7 150.7 130.5 148 Z " /><path fill="rgb(146,148,132)" stroke="rgb(146,148,132)" stroke-width="1" opacity="0.6196078431372549" d="M 132.5 151 L 137 156.5 L 133 153.5 L 132.5 151 Z " /><path fill="rgb(146,148,132)" stroke="rgb(146,148,132)" stroke-width="1" opacity="0.6196078431372549" d="M 140.5 152 L 142 154.5 L 140 153.5 L 140.5 152 Z " /><path fill="rgb(146,148,132)" stroke="rgb(146,148,132)" stroke-width="1" opacity="0.6196078431372549" d="M 65.5 153 L 65 154.5 L 63.5 157 L 63 155.5 L 65.5 153 Z " /><path fill="rgb(146,148,132)" stroke="rgb(146,148,132)" stroke-width="1" opacity="0.6196078431372549" d="M 57.5 155 L 56.5 157 L 57.5 155 Z " /><path fill="rgb(146,148,132)" stroke="rgb(146,148,132)" stroke-width="1" opacity="0.6196078431372549" d="M 137.5 158 L 141 162.5 L 138 160.5 L 137.5 158 Z " /><path fill="rgb(146,148,132)" stroke="rgb(146,148,132)" stroke-width="1" opacity="0.6196078431372549" d="M 60.5 160 L 61 161.5 L 56.5 167 L 57 165.5 L 60.5 160 Z " /><path fill="rgb(146,148,132)" stroke="rgb(146,148,132)" stroke-width="1" opacity="0.6196078431372549" d="M 141.5 164 L 146 169.5 L 143 167.5 L 141.5 164 Z " /><path fill="rgb(146,148,132)" stroke="rgb(146,148,132)" stroke-width="1" opacity="0.6196078431372549" d="M 48.5 168 L 47.5 170 L 48.5 168 Z " /><path fill="rgb(146,148,132)" stroke="rgb(146,148,132)" stroke-width="1" opacity="0.6196078431372549" d="M 55.5 168 L 54 170.5 L 51.5 175 L 51 173.5 L 55.5 168 Z " /><path fill="rgb(146,148,132)" stroke="rgb(146,148,132)" stroke-width="1" opacity="0.6196078431372549" d="M 46.5 171 L 45.5 173 L 46.5 171 Z " /><path fill="rgb(146,148,132)" stroke="rgb(146,148,132)" stroke-width="1" opacity="0.6196078431372549" d="M 44.5 174 L 43.5 176 L 44.5 174 Z " /><path fill="rgb(146,148,132)" stroke="rgb(146,148,132)" stroke-width="1" opacity="0.6196078431372549" d="M 148.5 174 L 163.5 196 L 165 196 L 165.5 198 L 171 198 Q 169.9 194.7 174 196 Q 172.9 198.7 175.5 198 L 175.5 199 L 23 198.5 L 24 196 Q 29.3 194.8 28.5 198 L 33.5 198 L 37 196 L 38 192.5 L 48.5 178 L 49 179.5 L 42 191 L 40 191 L 40 194 Q 37 193 38 196 L 162 195.5 L 155 186.5 L 155 184 Q 152.3 185.1 153 182.5 L 148.5 174 Z " /><path fill="rgb(146,148,132)" stroke="rgb(146,148,132)" stroke-width="1" opacity="0.6196078431372549" d="M 190.5 179 L 191 182.5 L 190 182.5 L 190.5 179 Z " /><path fill="rgb(146,148,132)" stroke="rgb(146,148,132)" stroke-width="1" opacity="0.6196078431372549" d="M 39.5 180 L 38.5 182 L 39.5 180 Z " /><path fill="rgb(146,148,132)" stroke="rgb(146,148,132)" stroke-width="1" opacity="0.6196078431372549" d="M 188.5 184 Q 192.3 183 191 186 L 188.5 184 Z " /><path fill="rgb(146,148,132)" stroke="rgb(146,148,132)" stroke-width="1" opacity="0.6196078431372549" d="M 163.5 185 L 164.5 187 L 163.5 185 Z " /><path fill="rgb(146,148,132)" stroke="rgb(146,148,132)" stroke-width="1" opacity="0.6196078431372549" d="M 34.5 187 L 33.5 189 L 34.5 187 Z " /><path fill="rgb(146,148,132)" stroke="rgb(146,148,132)" stroke-width="1" opacity="0.6196078431372549" d="M 186 187 Q 190.5 185.5 189 190 L 185 191 L 185 193 L 182 193 Q 183.3 196 179.5 195 L 179.5 197 L 177 195.5 L 185 191 L 186 187 Z " /><path fill="rgb(139,85,68)" stroke="rgb(139,85,68)" stroke-width="1" opacity="0.996078431372549" d="M 86 106 Q 93.1 103.6 91 110 L 84.5 110 L 84 108 Q 87 109 86 106 Z " /><path fill="rgb(139,85,68)" stroke="rgb(139,85,68)" stroke-width="1" opacity="0.996078431372549" d="M 98.5 106 Q 103.3 105.3 104 108.5 L 107 112.5 L 104.5 111 L 96.5 110 L 94 111.5 L 98.5 106 Z " /><path fill="rgb(139,85,68)" stroke="rgb(139,85,68)" stroke-width="1" opacity="0.996078431372549" d="M 108.5 106 L 114 106 L 116 110 L 111 110.5 L 112 112.5 L 111 112.5 L 109 108 L 107 107.5 L 108.5 106 Z " /><path fill="rgb(139,85,68)" stroke="rgb(139,85,68)" stroke-width="1" opacity="0.996078431372549" d="M 109.5 117 L 118 130.5 L 116 129.5 Q 116.8 127.3 114.5 128 L 113.5 127 L 86.5 127 L 83 129.5 L 82.5 131 L 82 129.5 L 86 124.5 L 86 122 Q 88.7 123.1 88 120.5 L 89 118 L 91.5 119 L 109 119 L 109.5 117 Z " /><path fill="rgb(139,85,68)" stroke="rgb(139,85,68)" stroke-width="1" opacity="0.996078431372549" d="M 76.5 119 L 83 119.5 L 75.5 130 L 75 127 L 67 126.5 L 69 126 L 70 122 L 76.5 119 Z " /><path fill="rgb(139,85,68)" stroke="rgb(139,85,68)" stroke-width="1" opacity="0.996078431372549" d="M 116.5 119 Q 126.9 117.6 130 123.5 L 132 126.5 L 121 127 L 121 124 Q 118.3 125.1 119 122.5 L 118 120 L 116.5 119 Z " /><path fill="rgb(139,85,68)" stroke="rgb(139,85,68)" stroke-width="1" opacity="0.996078431372549" d="M 124.5 129 L 126 131.5 L 124 130.5 L 124.5 129 Z " /><path fill="rgb(139,85,68)" stroke="rgb(139,85,68)" stroke-width="1" opacity="0.996078431372549" d="M 73.5 131 L 74 133.5 L 72 134.5 L 73.5 131 Z " /><path fill="rgb(139,85,68)" stroke="rgb(139,85,68)" stroke-width="1" opacity="0.996078431372549" d="M 119.5 132 L 120.5 134 L 119.5 132 Z " /><path fill="rgb(139,85,68)" stroke="rgb(139,85,68)" stroke-width="1" opacity="0.996078431372549" d="M 78.5 134 L 77.5 136 L 78.5 134 Z " /><path fill="rgb(139,85,68)" stroke="rgb(139,85,68)" stroke-width="1" opacity="0.996078431372549" d="M 74.5 140 L 73.5 142 L 74.5 140 Z " /><path fill="rgb(139,85,68)" stroke="rgb(139,85,68)" stroke-width="1" opacity="0.996078431372549" d="M 132.5 142 L 133.5 144 L 132.5 142 Z " /><path fill="rgb(139,85,68)" stroke="rgb(139,85,68)" stroke-width="1" opacity="0.996078431372549" d="M 127.5 144 L 130 150 Q 132.7 148.9 132 151.5 L 141 163.5 L 139.5 164 L 137 159 L 134.5 158 L 65.5 158 L 63 159 L 61 164 L 58.5 165 L 61 161.5 L 61 159 Q 63.7 160.1 63 157.5 L 66 152 L 68 152 L 68 149 Q 71 150.3 70 146.5 L 71.5 145 L 126.5 145 L 127.5 144 Z " /><path fill="rgb(139,85,68)" stroke="rgb(139,85,68)" stroke-width="1" opacity="0.996078431372549" d="M 52.5 145 L 63.5 145 L 64 146.5 L 56 156.5 L 56 159 Q 53.3 157.9 54 160.5 L 50.5 166 L 50 163.5 L 53 158 L 40.5 158 L 39.5 159 L 40 157.5 L 44 152.5 L 52.5 145 Z " /><path fill="rgb(139,85,68)" stroke="rgb(139,85,68)" stroke-width="1" opacity="0.996078431372549" d="M 135.5 145 L 147.5 145 L 156 152.5 L 158 155.5 L 159.5 158 L 146.5 158 L 144 159 L 141 152 Q 138.3 153.1 139 150.5 L 135.5 145 Z " /><path fill="rgb(139,85,68)" stroke="rgb(139,85,68)" stroke-width="1" opacity="0.996078431372549" d="M 146.5 160 L 149 163.5 L 146 161.5 L 146.5 160 Z " /><path fill="rgb(139,85,68)" stroke="rgb(139,85,68)" stroke-width="1" opacity="0.996078431372549" d="M 141.5 165 L 142.5 167 L 141.5 165 Z " /><path fill="rgb(139,85,68)" stroke="rgb(139,85,68)" stroke-width="1" opacity="0.996078431372549" d="M 144.5 169 L 145.5 171 L 144.5 169 Z " /><path fill="rgb(139,85,68)" stroke="rgb(139,85,68)" stroke-width="1" opacity="0.996078431372549" d="M 50.5 175 L 51 176.5 Q 48.8 177.8 51.5 179 L 148.5 179 L 149 177.5 L 150 177.5 L 153 184 Q 156 182.8 155 186.5 L 162 195.5 L 38 196 L 38 194 L 40 194 L 40 191 Q 42.7 192.1 42 189.5 L 49 179.5 L 50.5 175 Z " /><path fill="rgb(139,85,68)" stroke="rgb(139,85,68)" stroke-width="1" opacity="0.996078431372549" d="M 40.5 178 L 38 181.5 L 38 184 Q 35.3 182.9 36 185.5 Q 32.2 186.8 33 191 Q 30.3 189.9 31 192.5 L 29 196 L 22.5 196 L 14 189.5 L 17 184 L 19 184 Q 17.9 181.3 20.5 182 L 23.5 179 L 39.5 179 L 40.5 178 Z " /><path fill="rgb(139,85,68)" stroke="rgb(139,85,68)" stroke-width="1" opacity="0.996078431372549" d="M 160 179 L 176.5 179 L 181 182 Q 180 185 183 184 L 183 186.5 Q 185.8 187.6 185 191 L 176.5 196 L 171.5 196 Q 168.3 194.8 169 191 Q 166.3 192.1 167 189.5 L 162 182 Q 158.7 183.1 160 179 Z " /><path fill="rgb(1,209,106)" stroke="rgb(1,209,106)" stroke-width="1" opacity="0.996078431372549" d="M 10 80 L 27.5 81 Q 29.2 83.8 34.5 83 L 36.5 85 L 40 85 Q 38.8 88 42.5 87 Q 44.4 90.6 49 90 Q 47.8 93 51.5 92 L 62.5 99 L 65 99 Q 63.8 102 67.5 101 L 72.5 104 L 84 106 L 79 117 Q 70.3 118.9 66 126.5 L 65 132.5 L 63 136 L 61 136 L 61 138 Q 58.3 136.9 59 139.5 L 56 144 L 49 145 Q 50.1 147.7 47.5 147 L 44 152 L 42 152 L 42 154 Q 39.3 152.9 40 155.5 L 36 161.5 Q 39.5 163 37 164.5 L 36 168 L 33 169.5 L 31 172.5 L 28 177 L 20 180 Q 21.1 182.7 18.5 182 L 14.5 187 L 12 185.5 L 10 181.5 L 10 80 Z " /><path fill="rgb(1,209,106)" stroke="rgb(1,209,106)" stroke-width="1" opacity="0.996078431372549" d="M 176.5 80 L 189.5 80 L 190 80.5 L 190 176.5 L 185.5 187 L 180 180 L 171 177 L 171 175 L 169 175 L 169 173 Q 166.3 174.1 167 171.5 L 162 165.5 L 162 159.5 Q 159.3 158.4 160 155 Q 157.3 156.1 158 153.5 L 155 149 L 153 149 L 151 145 L 144.5 145 L 144 143.5 Q 139.6 141.1 139 136 L 137 136 L 137 134 Q 134.3 135.1 135 132.5 L 132 124 Q 129.3 125.1 130 122.5 L 121 117 L 115 106 L 120.5 106 Q 123.5 103 129.5 103 L 164.5 83 L 168.5 83 L 176.5 80 Z " /><path fill="rgb(0,0,0)" stroke="rgb(0,0,0)" stroke-width="1" opacity="0" d="M 0 0 L 200 0 L 200 200 L 0 200 L 0 0 Z M 21 14 L 15 18 Q 16 20 13 19 L 13 21 L 12 21 L 7 28 L 7 183 L 9 186 Q 8 189 11 188 L 11 191 L 18 197 Q 23 195 22 199 L 178 199 Q 177 196 182 197 L 182 195 Q 186 196 187 193 Q 186 189 189 190 L 189 186 L 191 186 Q 189 179 193 178 L 193 32 L 189 24 L 189 21 L 187 21 L 187 19 Q 184 20 185 18 L 183 15 L 178 14 L 21 14 Z " /><path fill="rgb(54,41,36)" stroke="rgb(54,41,36)" stroke-width="1" opacity="1" d="M 83.5 112 L 87 112.5 L 86 116 Q 82.9 115.3 83.5 118 L 77.5 118 L 77.5 117 L 82.5 113 L 83.5 112 Z " /><path fill="rgb(54,41,36)" stroke="rgb(54,41,36)" stroke-width="1" opacity="1" d="M 95.5 112 L 104.5 112 L 107 114.5 L 109 117.5 L 91.5 118 L 92 116.5 L 93 113 L 95.5 112 Z " /><path fill="rgb(54,41,36)" stroke="rgb(54,41,36)" stroke-width="1" opacity="1" d="M 113 112 L 116.5 112 L 121 115 Q 122.8 119.9 116.5 118 L 113 112 Z " /><path fill="rgb(54,41,36)" stroke="rgb(54,41,36)" stroke-width="1" opacity="1" d="M 132.5 131 L 135 135 Q 137.7 133.9 137 136.5 L 139 140 Q 141.7 138.9 141 141.5 L 144 143 L 143.5 145 L 135.5 145 L 130 136 Q 127.3 137.1 128 134.5 L 127 132 L 132.5 131 Z " /><path fill="rgb(54,41,36)" stroke="rgb(54,41,36)" stroke-width="1" opacity="1" d="M 65 132 Q 71.1 130.3 73 133.5 L 71 134 L 70 138 L 68 138 L 68 141 Q 65.3 139.9 66 142.5 L 65 145 L 56.5 145 L 56 143.5 L 58 140 Q 60.7 141.1 60 138.5 L 63 134 Q 66 135 65 132 Z " /><path fill="rgb(54,41,36)" stroke="rgb(54,41,36)" stroke-width="1" opacity="1" d="M 82.5 132 L 117.5 132 L 121 135.5 L 126 145 L 73 144.5 L 75 140 Q 78 141.3 77 137.5 L 79 134 L 82.5 132 Z " /><path fill="rgb(54,41,36)" stroke="rgb(54,41,36)" stroke-width="1" opacity="1" d="M 38 164 Q 41.4 166.1 49 165 L 49 168 Q 46.3 166.9 47 169.5 L 45 173 Q 42.3 171.9 43 174.5 L 42 177 Q 38.1 179.4 28.5 178 L 29 176.5 L 31 172 L 33 172 L 33 170 Q 35.7 171.1 35 168.5 L 38 164 Z " /><path fill="rgb(54,41,36)" stroke="rgb(54,41,36)" stroke-width="1" opacity="1" d="M 158.5 164 L 162 165.5 L 165 171 Q 167.7 169.9 167 172.5 L 170 177 L 172 177.5 L 159.5 178 L 155 171 L 153 171 L 153 168 Q 150.3 169.1 151 166.5 L 150.5 165 Q 156.7 166.8 158.5 164 Z " /><path fill="rgb(54,41,36)" stroke="rgb(54,41,36)" stroke-width="1" opacity="1" d="M 60.5 165 L 139.5 165 L 142 166 L 144 172 Q 147 170.8 146 174.5 L 148 178 L 51 177.5 L 56 170.5 L 56 168 L 58 168 Q 56.9 165.3 59.5 166 L 60.5 165 Z " /><path fill="rgb(109,69,52)" stroke="rgb(109,69,52)" stroke-width="1" opacity="1" d="M 83 110 L 89 110.5 Q 87.6 113.3 83 112 L 83 110 Z " /><path fill="rgb(109,69,52)" stroke="rgb(109,69,52)" stroke-width="1" opacity="1" d="M 96.5 110 Q 102.6 108.9 105 111.5 L 95.5 112 L 96.5 110 Z " /><path fill="rgb(109,69,52)" stroke="rgb(109,69,52)" stroke-width="1" opacity="1" d="M 111.5 110 Q 118.4 108 117 112 Q 111.3 113.3 111.5 110 Z " /><path fill="rgb(109,69,52)" stroke="rgb(109,69,52)" stroke-width="1" opacity="1" d="M 78.5 118 L 82 118.5 L 78.5 119 L 78.5 118 Z " /><path fill="rgb(109,69,52)" stroke="rgb(109,69,52)" stroke-width="1" opacity="1" d="M 91.5 118 L 109 118.5 L 91.5 119 L 91.5 118 Z " /><path fill="rgb(109,69,52)" stroke="rgb(109,69,52)" stroke-width="1" opacity="1" d="M 117.5 118 L 121 118.5 L 117.5 119 L 117.5 118 Z " /><path fill="rgb(109,69,52)" stroke="rgb(109,69,52)" stroke-width="1" opacity="1" d="M 67 127 L 75 127 L 75 131 Q 72.3 129.9 73 132.5 L 71.5 132 L 67 132 L 67 127 Z " /><path fill="rgb(109,69,52)" stroke="rgb(109,69,52)" stroke-width="1" opacity="1" d="M 86.5 127 L 113.5 127 L 116 128 L 118 131.5 L 82.5 132 L 81.5 133 L 81 131 Q 83.7 132.1 83 129.5 L 86.5 127 Z " /><path fill="rgb(109,69,52)" stroke="rgb(109,69,52)" stroke-width="1" opacity="1" d="M 123 127 L 131.5 127 L 133 128.5 L 131.5 132 Q 126.3 133.3 125 130.5 Q 125.7 127.9 123 129 L 123 127 Z " /><path fill="rgb(109,69,52)" stroke="rgb(109,69,52)" stroke-width="1" opacity="1" d="M 40.5 158 L 52.5 158 L 53 159.5 L 50 165 L 40.5 165 L 38 162.5 L 40.5 158 Z " /><path fill="rgb(109,69,52)" stroke="rgb(109,69,52)" stroke-width="1" opacity="1" d="M 65.5 158 L 134.5 158 L 137 159 L 140 164.5 L 60.5 165 L 61 163.5 L 63 159 L 65.5 158 Z " /><path fill="rgb(109,69,52)" stroke="rgb(109,69,52)" stroke-width="1" opacity="1" d="M 146 158 L 159.5 158 L 161 159.5 Q 161.8 163.3 159.5 164 L 150.5 165 L 146 158 Z " /><path fill="rgb(109,69,52)" stroke="rgb(109,69,52)" stroke-width="1" opacity="1" d="M 148.5 177 L 149 179 L 51 178.5 L 147.5 178 L 148.5 177 Z " /><path fill="rgb(109,69,52)" stroke="rgb(109,69,52)" stroke-width="1" opacity="1" d="M 28.5 178 L 40 178.5 L 28.5 179 L 28.5 178 Z " /><path fill="rgb(109,69,52)" stroke="rgb(109,69,52)" stroke-width="1" opacity="1" d="M 160.5 178 L 171 178.5 L 160.5 179 L 160.5 178 Z " /><path fill="rgb(87,92,69)" stroke="rgb(87,92,69)" stroke-width="1" opacity="0.996078431372549" d="M 84 106 Q 87 105 86 108 Q 83.3 106.9 84 109.5 L 82.5 113 L 82 109.5 L 84 106 Z " /><path fill="rgb(87,92,69)" stroke="rgb(87,92,69)" stroke-width="1" opacity="0.996078431372549" d="M 116.5 109 L 120 114.5 L 117 112.5 L 116.5 109 Z " /><path fill="rgb(87,92,69)" stroke="rgb(87,92,69)" stroke-width="1" opacity="0.996078431372549" d="M 87.5 112 L 87 113.5 L 86.5 115 L 86 113.5 L 87.5 112 Z " /><path fill="rgb(87,92,69)" stroke="rgb(87,92,69)" stroke-width="1" opacity="0.996078431372549" d="M 105.5 112 L 106.5 114 L 105.5 112 Z " /><path fill="rgb(87,92,69)" stroke="rgb(87,92,69)" stroke-width="1" opacity="0.996078431372549" d="M 112.5 112 L 114 114.5 L 112 113.5 L 112.5 112 Z " /><path fill="rgb(87,92,69)" stroke="rgb(87,92,69)" stroke-width="1" opacity="0.996078431372549" d="M 91.5 115 L 92 116.5 L 90 117.5 L 91.5 115 Z " /><path fill="rgb(87,92,69)" stroke="rgb(87,92,69)" stroke-width="1" opacity="0.996078431372549" d="M 107.5 115 Q 109.8 114.3 109 116.5 L 107.5 115 Z " /><path fill="rgb(87,92,69)" stroke="rgb(87,92,69)" stroke-width="1" opacity="0.996078431372549" d="M 114.5 116 L 116.5 119 L 114.5 116 Z " /><path fill="rgb(87,92,69)" stroke="rgb(87,92,69)" stroke-width="1" opacity="0.996078431372549" d="M 121 117 L 130 122.5 L 127.5 121 L 121 119 L 121 117 Z " /><path fill="rgb(87,92,69)" stroke="rgb(87,92,69)" stroke-width="1" opacity="0.996078431372549" d="M 75.5 118 L 78 118.5 L 71.5 122 L 73.5 119 L 75.5 118 Z " /><path fill="rgb(87,92,69)" stroke="rgb(87,92,69)" stroke-width="1" opacity="0.996078431372549" d="M 69.5 123 L 69 124.5 L 69 126 L 67 126.5 L 67 132 L 65 132 Q 64.8 125.5 69.5 123 Z " /><path fill="rgb(87,92,69)" stroke="rgb(87,92,69)" stroke-width="1" opacity="0.996078431372549" d="M 130.5 124 Q 132.8 123.3 132 125.5 L 134 127.5 L 135 132.5 L 133 131.5 L 133 128.5 L 130.5 124 Z " /><path fill="rgb(87,92,69)" stroke="rgb(87,92,69)" stroke-width="1" opacity="0.996078431372549" d="M 118.5 131 L 121 134.5 L 118 132.5 L 118.5 131 Z " /><path fill="rgb(87,92,69)" stroke="rgb(87,92,69)" stroke-width="1" opacity="0.996078431372549" d="M 80.5 132 L 81 134 L 79 133.5 L 80.5 132 Z " /><path fill="rgb(87,92,69)" stroke="rgb(87,92,69)" stroke-width="1" opacity="0.996078431372549" d="M 126.5 132 L 128 134.5 L 126 133.5 L 126.5 132 Z " /><path fill="rgb(87,92,69)" stroke="rgb(87,92,69)" stroke-width="1" opacity="0.996078431372549" d="M 78.5 135 L 77.5 137 L 78.5 135 Z " /><path fill="rgb(87,92,69)" stroke="rgb(87,92,69)" stroke-width="1" opacity="0.996078431372549" d="M 121.5 136 Q 123.8 135.3 123 137.5 L 127 144.5 L 126 144.5 L 121.5 136 Z " /><path fill="rgb(87,92,69)" stroke="rgb(87,92,69)" stroke-width="1" opacity="0.996078431372549" d="M 129.5 136 L 132 139.5 L 130 140 L 129.5 136 Z " /><path fill="rgb(87,92,69)" stroke="rgb(87,92,69)" stroke-width="1" opacity="0.996078431372549" d="M 137.5 136 Q 139.8 135.3 139 137.5 L 140 139.5 L 139 139.5 L 137.5 136 Z " /><path fill="rgb(87,92,69)" stroke="rgb(87,92,69)" stroke-width="1" opacity="0.996078431372549" d="M 68 138 L 70 138.5 L 68 139.5 L 68 138 Z " /><path fill="rgb(87,92,69)" stroke="rgb(87,92,69)" stroke-width="1" opacity="0.996078431372549" d="M 76.5 138 L 77 140 L 75 139.5 L 76.5 138 Z " /><path fill="rgb(87,92,69)" stroke="rgb(87,92,69)" stroke-width="1" opacity="0.996078431372549" d="M 57.5 141 L 56.5 143 L 57.5 141 Z " /><path fill="rgb(87,92,69)" stroke="rgb(87,92,69)" stroke-width="1" opacity="0.996078431372549" d="M 66 141 L 68 141.5 L 65 143.5 L 66 141 Z " /><path fill="rgb(87,92,69)" stroke="rgb(87,92,69)" stroke-width="1" opacity="0.996078431372549" d="M 74.5 141 L 74 142.5 L 72.5 145 L 72 143.5 L 74.5 141 Z " /><path fill="rgb(87,92,69)" stroke="rgb(87,92,69)" stroke-width="1" opacity="0.996078431372549" d="M 132.5 141 L 133.5 143 L 132.5 141 Z " /><path fill="rgb(87,92,69)" stroke="rgb(87,92,69)" stroke-width="1" opacity="0.996078431372549" d="M 141.5 141 L 142.5 143 L 141.5 141 Z " /><path fill="rgb(87,92,69)" stroke="rgb(87,92,69)" stroke-width="1" opacity="0.996078431372549" d="M 49 145 L 52 145.5 L 44 152.5 L 40 157.5 L 38 162.5 L 38 164.5 L 36.5 167 L 37 165.5 L 38 163.5 Q 34.5 162 37 160.5 L 40 154 L 42 154 L 42 152 Q 44.7 153.1 44 150.5 L 49 147 L 49 145 Z " /><path fill="rgb(87,92,69)" stroke="rgb(87,92,69)" stroke-width="1" opacity="0.996078431372549" d="M 148.5 145 L 151 145 L 151 147 L 153 147 L 153 149 Q 155.7 147.9 155 150.5 L 157.5 154 Q 155.3 154.8 156 152.5 L 148.5 145 Z " /><path fill="rgb(87,92,69)" stroke="rgb(87,92,69)" stroke-width="1" opacity="0.996078431372549" d="M 158.5 155 Q 160.8 154.3 160 156.5 L 158.5 155 Z " /><path fill="rgb(87,92,69)" stroke="rgb(87,92,69)" stroke-width="1" opacity="0.996078431372549" d="M 160.5 158 Q 163.3 159.3 162 164.5 L 160 163.5 L 161 159.5 L 160.5 158 Z " /><path fill="rgb(87,92,69)" stroke="rgb(87,92,69)" stroke-width="1" opacity="0.996078431372549" d="M 59.5 164 L 60 166 Q 57.3 164.9 58 167.5 L 57 167.5 L 59.5 164 Z " /><path fill="rgb(87,92,69)" stroke="rgb(87,92,69)" stroke-width="1" opacity="0.996078431372549" d="M 162.5 166 L 164.5 169 L 162.5 166 Z " /><path fill="rgb(87,92,69)" stroke="rgb(87,92,69)" stroke-width="1" opacity="0.996078431372549" d="M 142.5 167 L 146 171.5 L 144 172 L 142.5 167 Z " /><path fill="rgb(87,92,69)" stroke="rgb(87,92,69)" stroke-width="1" opacity="0.996078431372549" d="M 34.5 168 L 35 170 L 33 169.5 L 34.5 168 Z " /><path fill="rgb(87,92,69)" stroke="rgb(87,92,69)" stroke-width="1" opacity="0.996078431372549" d="M 151.5 168 Q 153.8 167.3 153 169.5 L 151.5 168 Z " /><path fill="rgb(87,92,69)" stroke="rgb(87,92,69)" stroke-width="1" opacity="0.996078431372549" d="M 46.5 170 L 45.5 172 L 46.5 170 Z " /><path fill="rgb(87,92,69)" stroke="rgb(87,92,69)" stroke-width="1" opacity="0.996078431372549" d="M 54 170 L 56 170.5 L 54 171.5 L 54 170 Z " /><path fill="rgb(87,92,69)" stroke="rgb(87,92,69)" stroke-width="1" opacity="0.996078431372549" d="M 153.5 171 Q 155.8 170.3 155 172.5 L 156.5 175 Q 154.3 175.8 155 173.5 L 153.5 171 Z " /><path fill="rgb(87,92,69)" stroke="rgb(87,92,69)" stroke-width="1" opacity="0.996078431372549" d="M 30.5 173 L 29 175.5 L 28 179 Q 22.1 177.8 20.5 182 L 20 180 L 28 177 L 30.5 173 Z " /><path fill="rgb(87,92,69)" stroke="rgb(87,92,69)" stroke-width="1" opacity="0.996078431372549" d="M 43.5 173 L 44 174.5 L 42 175.5 L 43.5 173 Z " /><path fill="rgb(87,92,69)" stroke="rgb(87,92,69)" stroke-width="1" opacity="0.996078431372549" d="M 52 173 L 54 173.5 L 50.5 178 L 51 176.5 L 52 173 Z " /><path fill="rgb(87,92,69)" stroke="rgb(87,92,69)" stroke-width="1" opacity="0.996078431372549" d="M 146.5 173 L 149 176.5 L 146 174.5 L 146.5 173 Z " /><path fill="rgb(87,92,69)" stroke="rgb(87,92,69)" stroke-width="1" opacity="0.996078431372549" d="M 157.5 176 L 159.5 179 L 157.5 176 Z " /><path fill="rgb(87,92,69)" stroke="rgb(87,92,69)" stroke-width="1" opacity="0.996078431372549" d="M 172.5 177 L 180 180 L 179.5 182 Q 177.8 177.8 171 178.5 L 172.5 177 Z " /><path fill="rgb(87,92,69)" stroke="rgb(87,92,69)" stroke-width="1" opacity="0.996078431372549" d="M 18.5 182 L 19 184 L 17 183.5 L 18.5 182 Z " /><path fill="rgb(87,92,69)" stroke="rgb(87,92,69)" stroke-width="1" opacity="0.996078431372549" d="M 16.5 185 L 13.5 189 L 13 187 L 16.5 185 Z " /><path fill="rgb(87,92,69)" stroke="rgb(87,92,69)" stroke-width="1" opacity="0.996078431372549" d="M 183.5 185 L 186 188.5 L 183 186.5 L 183.5 185 Z " /></svg>