<svg width="200" height="200" version="1.1" xmlns="http://www.w3.org/2000/svg" desc="Created with imagetracer.js version 1.2.6" ><path fill="rgb(5,117,186)" stroke="rgb(5,117,186)" stroke-width="1" opacity="0.984313725490196" d="M 26 10 L 32.5 11 L 35 13.5 L 45 30 L 47 30 L 47 32 Q 49.7 30.9 49 33.5 L 54.5 40 Q 56.8 39.3 56 41.5 L 65.5 51 L 67 51 Q 65.9 53.7 68.5 53 L 72 55 L 73.5 58 L 76.5 60 Q 79.5 61.5 76.5 63 Q 74.5 65.8 70 65 Q 71.3 68 67.5 67 L 63.5 70 L 54 65 Q 55.1 62.3 52.5 63 L 47 60 L 47 58 L 45 58 Q 46.1 55.3 43.5 56 L 42 53 L 40 53 L 40 51 L 38 51 Q 39.1 48.3 36.5 49 L 35 46 L 33 46 L 33 44 Q 30.3 45.1 31 42.5 Q 27.3 41.3 28 37 Q 25.3 38.1 26 35.5 L 18 21.5 L 24.5 12 Q 27.1 12.7 26 10 Z " /><path fill="rgb(5,117,186)" stroke="rgb(5,117,186)" stroke-width="1" opacity="0.984313725490196" d="M 98 46 L 100 46.5 L 98 47.5 L 98 46 Z " /><path fill="rgb(5,117,186)" stroke="rgb(5,117,186)" stroke-width="1" opacity="0.984313725490196" d="M 96.5 51 L 97 53 L 95 52.5 L 96.5 51 Z " /><path fill="rgb(5,117,186)" stroke="rgb(5,117,186)" stroke-width="1" opacity="0.984313725490196" d="M 94.5 54 L 93.5 56 L 94.5 54 Z " /><path fill="rgb(207,207,207)" stroke="rgb(207,207,207)" stroke-width="1" opacity="0.9803921568627451" d="M 30.5 9 Q 35.5 8 36.5 11 L 58.5 11 L 61 10 L 61 12 Q 63.7 10.9 63 13.5 L 73 30 L 75 30 L 75 33 Q 78 31.8 77 35.5 L 82 41.5 L 82 44 Q 84.7 42.9 84 45.5 L 92 58 L 94 58.5 L 91.5 60 L 84.5 60 Q 83.1 62.6 78.5 62 L 70 55 Q 71.1 52.3 68.5 53 L 65 51 L 65 49 L 63 49 Q 64.1 46.3 61.5 47 L 60 44 L 58 44 L 58 42 Q 55.3 43.1 56 40.5 L 51 37 L 49 32 Q 46.3 33.1 47 30.5 L 42 23 Q 39 24.3 40 20.5 Q 35.8 17.6 35 12 Q 32 13 33 10 L 30.5 10 L 30.5 9 Z " /><path fill="rgb(207,207,207)" stroke="rgb(207,207,207)" stroke-width="1" opacity="0.9803921568627451" d="M 125.5 9 L 141.5 9 L 143.5 11 L 167 11 L 167 14 Q 164.3 12.9 165 15.5 L 160 25 L 158 25 L 158 28 Q 155.3 26.9 156 29.5 L 153 34 L 151 34 Q 152.5 37.8 149.5 37 L 146 42 L 144 42 L 144 44 L 142 44 L 142 46 Q 139.3 44.9 140 47.5 L 137 49 L 137 51 L 135 51 Q 136.1 53.7 133.5 53 L 123.5 62 L 121.5 62 L 118.5 60 Q 113 61.5 111.5 59 Q 110.2 61.3 109 58.5 L 112 56.5 L 114 51 L 116 51 L 116 48 Q 118.7 49.1 118 46.5 Q 121.6 44.6 121 40 L 123 40 L 123 37 Q 125.7 38.1 125 35.5 L 130 28.5 L 130 26 L 132 26 L 132 23 Q 134.7 24.1 134 21.5 L 139 14.5 L 139 12 L 141 11.5 L 139.5 10 L 125.5 10 L 125.5 9 Z " /><path fill="rgb(207,207,207)" stroke="rgb(207,207,207)" stroke-width="1" opacity="0.9803921568627451" d="M 110.5 27 L 109.5 29 L 110.5 27 Z " /><path fill="rgb(207,207,207)" stroke="rgb(207,207,207)" stroke-width="1" opacity="0.9803921568627451" d="M 103.5 38 L 102.5 40 L 103.5 38 Z " /><path fill="rgb(207,207,207)" stroke="rgb(207,207,207)" stroke-width="1" opacity="0.9803921568627451" d="M 31.5 44 Q 33.8 43.3 33 45.5 L 34.5 48 L 31.5 44 Z " /><path fill="rgb(207,207,207)" stroke="rgb(207,207,207)" stroke-width="1" opacity="0.9803921568627451" d="M 43.5 56 L 47 58 L 46.5 60 L 43.5 56 Z " /><path fill="rgb(207,207,207)" stroke="rgb(207,207,207)" stroke-width="1" opacity="0.9803921568627451" d="M 61 69 Q 64 68 63 71 Q 60 72 61 69 Z " /><path fill="rgb(14,167,234)" stroke="rgb(14,167,234)" stroke-width="1" opacity="0.9647058823529412" d="M 28.5 10 L 33 10.5 L 28.5 11 L 28.5 10 Z " /><path fill="rgb(14,167,234)" stroke="rgb(14,167,234)" stroke-width="1" opacity="0.9647058823529412" d="M 123.5 10 L 139.5 10 L 141 11.5 L 139 12 L 139 14.5 L 134 23 L 132 23 L 132 26 Q 129 24.8 130 28.5 L 125 37 L 123 37 L 123 40 Q 120 38.8 121 42.5 L 118 48 L 116 48 L 116 51 Q 113 49.8 114 53.5 L 110.5 58 L 93.5 58 L 93 56.5 L 95 53 Q 98 54.3 97 50.5 Q 100.6 48.6 100 44 Q 103.3 45.3 102 40.5 L 105 35 Q 108 36.3 107 32.5 Q 111.6 29.2 112 23 L 114 23 L 114 20 Q 117 21.3 116 17.5 L 121.5 11 L 123.5 10 Z " /><path fill="rgb(14,167,234)" stroke="rgb(14,167,234)" stroke-width="1" opacity="0.9647058823529412" d="M 23.5 12 L 22 14.5 L 19.5 19 L 20 17.5 L 23.5 12 Z " /><path fill="rgb(14,167,234)" stroke="rgb(14,167,234)" stroke-width="1" opacity="0.9647058823529412" d="M 38.5 19 L 39.5 21 L 38.5 19 Z " /><path fill="rgb(14,167,234)" stroke="rgb(14,167,234)" stroke-width="1" opacity="0.9647058823529412" d="M 19.5 25 L 21 27.5 L 20 27.5 L 19.5 25 Z " /><path fill="rgb(14,167,234)" stroke="rgb(14,167,234)" stroke-width="1" opacity="0.9647058823529412" d="M 42.5 25 L 43.5 27 L 42.5 25 Z " /><path fill="rgb(14,167,234)" stroke="rgb(14,167,234)" stroke-width="1" opacity="0.9647058823529412" d="M 21.5 29 L 23 31.5 L 22 31.5 L 21.5 29 Z " /><path fill="rgb(14,167,234)" stroke="rgb(14,167,234)" stroke-width="1" opacity="0.9647058823529412" d="M 52.5 37 L 54.5 40 L 52.5 37 Z " /><path fill="rgb(14,167,234)" stroke="rgb(14,167,234)" stroke-width="1" opacity="0.9647058823529412" d="M 35.5 48 L 38 49 L 38 51 L 40 51 L 40 53 Q 42.7 51.9 42 54.5 L 42.5 56 L 35.5 48 Z " /><path fill="rgb(14,167,234)" stroke="rgb(14,167,234)" stroke-width="1" opacity="0.9647058823529412" d="M 72.5 56 L 73.5 58 L 72.5 56 Z " /><path fill="rgb(14,167,234)" stroke="rgb(14,167,234)" stroke-width="1" opacity="0.9647058823529412" d="M 49.5 61 L 52 62.5 L 50.5 62 L 49.5 61 Z " /><path fill="rgb(14,167,234)" stroke="rgb(14,167,234)" stroke-width="1" opacity="0.9647058823529412" d="M 59.5 67 L 60.5 69 Q 57.7 69.7 59.5 67 Z " /><path fill="rgb(247,52,50)" stroke="rgb(247,52,50)" stroke-width="1" opacity="0.9568627450980393" d="M 63 10 L 79.5 10 L 82 12.5 Q 81.3 15.1 84 14 L 84 16 L 86 16 L 86 18.5 L 89 21.5 L 93 30 Q 96 28.8 95 32.5 Q 98.6 34.4 98 39 L 100 39 L 100 45 Q 97 43.8 98 47.5 L 93 56 Q 90.3 57.1 91 54.5 L 88 49 L 86 49 L 86 46 Q 83 47.3 84 43.5 L 79 35 Q 76 36.3 77 32.5 L 74 29.5 L 72 24 Q 69 25.3 70 21.5 Q 66.2 20.3 67 16 Q 64.3 17.1 65 14.5 Q 62.3 13.4 63 10 Z " /><path fill="rgb(247,52,50)" stroke="rgb(247,52,50)" stroke-width="1" opacity="0.9568627450980393" d="M 169 10 L 175.5 10 L 181 14.5 L 181 16 L 183 16.5 L 183 28 Q 180.3 26.9 181 29.5 L 180 33 Q 177.3 31.9 178 34.5 Q 175.3 35.6 176 39 Q 173.3 37.9 174 40.5 Q 170.2 41.8 171 46 L 165 49 L 159.5 56 Q 156.9 55.3 158 58 L 156 58 L 156 60 L 153 60 L 151 64 L 148.5 64 L 146 65 Q 147.1 67.7 144.5 67 Q 143 70.5 136.5 69 Q 135.4 66.3 132 67 L 132 65 L 128 65 L 128 63 Q 124.3 64.5 125 61.5 L 128 60 Q 126.9 57.3 129.5 58 L 134 55 L 134 53 L 136 53 Q 134.9 50.3 137.5 51 L 141 46 Q 143.7 47.1 143 44.5 L 146 43 L 146 41 L 148 41 L 148 39 Q 150.7 40.1 150 37.5 L 155 30 Q 157.7 31.1 157 28.5 Q 160.7 27.2 160 23 Q 162.7 24.1 162 21.5 L 167 14.5 L 167 12 Q 170 13 169 10 Z " /><path fill="rgb(0,0,0)" stroke="rgb(0,0,0)" stroke-width="1" opacity="0" d="M 0 0 L 200 0 L 200 200 L 0 200 L 0 0 Z M 27 8 L 27 10 L 22 10 Q 23 13 20 12 L 20 15 L 18 15 L 18 29 L 20 29 L 22 36 L 25 39 L 25 41 L 29 43 L 32 49 Q 31 51 34 50 L 34 52 L 39 56 Q 38 58 41 57 L 41 59 L 47 62 Q 49 61 48 64 L 52 64 L 52 66 Q 53 70 58 69 L 59 72 L 57 73 Q 54 72 55 75 L 53 75 L 52 78 Q 53 80 50 79 L 50 82 L 46 84 L 43 90 Q 44 94 41 93 L 36 106 L 36 116 L 34 116 L 34 136 L 36 138 L 37 151 L 41 157 Q 40 160 43 159 Q 42 164 46 167 Q 45 169 48 168 L 48 170 L 50 170 L 50 173 L 55 178 L 55 179 L 59 179 L 61 182 Q 63 181 62 184 L 66 184 L 66 186 L 76 191 Q 81 189 80 193 L 90 193 L 92 195 L 111 195 L 112 193 L 122 193 L 122 191 Q 129 192 132 188 Q 135 189 134 186 L 138 186 L 138 184 L 143 182 L 148 175 L 154 172 L 155 170 Q 154 167 157 168 L 157 165 L 159 165 L 159 161 L 161 161 L 164 154 Q 162 148 166 149 Q 165 144 168 143 L 168 110 L 166 109 L 164 99 L 157 87 Q 158 83 155 84 L 152 79 Q 149 80 150 77 L 148 77 L 145 72 Q 141 73 143 69 L 146 68 L 148 68 L 150 64 L 154 64 L 156 61 L 159 61 L 159 59 Q 162 60 161 58 L 168 52 L 171 48 L 171 45 L 175 43 L 175 41 L 177 41 L 178 38 Q 177 35 180 36 L 180 32 L 184 30 L 184 15 L 182 12 Q 179 13 180 10 L 146 10 L 144 8 L 123 8 Q 123 11 119 10 L 119 12 L 115 15 Q 116 18 113 17 L 112 21 Q 113 23 110 22 L 110 26 L 108 26 L 108 29 L 103 35 Q 104 37 102 36 Q 100 38 99 36 L 99 33 L 95 31 L 95 27 L 94 27 L 90 22 Q 91 18 88 19 Q 88 14 85 12 L 83 12 L 83 10 L 63 10 L 62 8 L 57 8 L 57 10 L 38 10 L 37 8 L 27 8 Z " /><path fill="rgb(252,207,65)" stroke="rgb(252,207,65)" stroke-width="1" opacity="0.9686274509803922" d="M 84.5 60 L 86 60.5 L 82.5 62 L 82.5 61 L 84.5 60 Z " /><path fill="rgb(252,207,65)" stroke="rgb(252,207,65)" stroke-width="1" opacity="0.9686274509803922" d="M 117.5 60 L 121 61.5 L 118.5 62 L 117.5 60 Z " /><path fill="rgb(252,207,65)" stroke="rgb(252,207,65)" stroke-width="1" opacity="0.9686274509803922" d="M 90.5 67 L 112.5 67 L 114.5 69 L 118.5 69 L 126.5 72 L 140 81 Q 138.9 83.7 141.5 83 L 146 90 Q 148.7 88.9 148 91.5 L 155 102.5 Q 155 108.5 158 111.5 L 158 119.5 L 160 126.5 Q 157 131.5 158 140.5 Q 155 143.5 155 149.5 L 151 157.5 L 139.5 171 Q 129 181 112.5 185 L 90.5 185 L 80.5 182 L 65 173 L 65 171 L 63 171 Q 64.1 168.3 61.5 169 L 58 164 Q 55.3 165.1 56 162.5 L 54 159 Q 51.3 160.1 52 157.5 L 49 150 Q 45 151.4 47 144.5 L 45 142.5 L 43 124.5 L 44 123.5 L 44 114.5 L 45 109.5 L 47 107.5 L 47 102 Q 50 103.3 49 99.5 L 54 90 L 56 90 L 56 88 Q 58.7 89.1 58 86.5 L 63 83 L 63 81 L 65 81 Q 63.9 78.3 66.5 79 Q 67.7 75.2 72 76 Q 70.8 73 74.5 74 L 76.5 72 L 90.5 67 Z M 98 74 L 95 76 L 85 77 L 82 79 Q 78 78 79 81 L 75 81 L 75 83 Q 69 85 65 91 Q 66 93 63 92 L 61 96 Q 62 98 59 97 L 58 100 Q 59 103 56 102 L 56 106 L 54 106 L 51 121 L 51 132 L 54 146 L 63 160 L 74 169 Q 76 168 75 171 L 85 175 L 98 178 L 105 178 L 119 175 L 133 166 Q 135 167 134 164 L 137 163 Q 136 160 139 161 L 142 157 Q 141 154 144 155 L 151 137 L 151 116 Q 148 113 148 107 L 144 101 Q 145 96 142 97 L 139 93 Q 140 90 138 91 L 136 88 L 132 85 Q 129 86 130 83 L 115 76 Q 107 78 106 74 L 98 74 Z " /><path fill="rgb(252,207,65)" stroke="rgb(252,207,65)" stroke-width="1" opacity="0.9686274509803922" d="M 61.5 71 Q 63.8 70.3 63 72.5 L 61 72.5 L 60.5 74 L 60 72.5 L 61.5 71 Z " /><path fill="rgb(252,207,65)" stroke="rgb(252,207,65)" stroke-width="1" opacity="0.9686274509803922" d="M 53.5 79 L 52 81.5 L 50.5 84 L 51 82.5 L 53.5 79 Z " /><path fill="rgb(252,207,65)" stroke="rgb(252,207,65)" stroke-width="1" opacity="0.9686274509803922" d="M 153.5 85 L 154.5 87 L 153.5 85 Z " /><path fill="rgb(252,207,65)" stroke="rgb(252,207,65)" stroke-width="1" opacity="0.9686274509803922" d="M 46.5 88 L 47 90 L 45 89.5 L 46.5 88 Z " /><path fill="rgb(252,207,65)" stroke="rgb(252,207,65)" stroke-width="1" opacity="0.9686274509803922" d="M 156.5 89 L 157.5 91 L 156.5 89 Z " /><path fill="rgb(252,207,65)" stroke="rgb(252,207,65)" stroke-width="1" opacity="0.9686274509803922" d="M 158.5 93 L 159.5 95 L 158.5 93 Z " /><path fill="rgb(252,207,65)" stroke="rgb(252,207,65)" stroke-width="1" opacity="0.9686274509803922" d="M 43.5 94 L 42.5 96 L 43.5 94 Z " /><path fill="rgb(252,207,65)" stroke="rgb(252,207,65)" stroke-width="1" opacity="0.9686274509803922" d="M 39.5 103 L 38.5 105 L 39.5 103 Z " /><path fill="rgb(252,207,65)" stroke="rgb(252,207,65)" stroke-width="1" opacity="0.9686274509803922" d="M 163.5 104 L 165 107.5 L 164 107.5 L 163.5 104 Z " /><path fill="rgb(252,207,65)" stroke="rgb(252,207,65)" stroke-width="1" opacity="0.9686274509803922" d="M 38.5 108 L 39 109.5 L 37 110.5 L 38.5 108 Z " /><path fill="rgb(252,207,65)" stroke="rgb(252,207,65)" stroke-width="1" opacity="0.9686274509803922" d="M 165.5 111 L 167 116.5 L 166 116.5 L 165.5 111 Z " /><path fill="rgb(252,207,65)" stroke="rgb(252,207,65)" stroke-width="1" opacity="0.9686274509803922" d="M 35 120 Q 37.7 118.9 37 121.5 Q 34.5 123 36 128.5 L 37 132 L 35 131.5 L 35 120 Z " /><path fill="rgb(252,207,65)" stroke="rgb(252,207,65)" stroke-width="1" opacity="0.9686274509803922" d="M 166.5 134 L 167 138.5 L 165.5 141 L 165 136.5 L 166.5 134 Z " /><path fill="rgb(252,207,65)" stroke="rgb(252,207,65)" stroke-width="1" opacity="0.9686274509803922" d="M 38.5 147 L 40 149.5 L 39 149.5 L 38.5 147 Z " /><path fill="rgb(252,207,65)" stroke="rgb(252,207,65)" stroke-width="1" opacity="0.9686274509803922" d="M 43.5 157 L 45 159.5 L 43 158.5 L 43.5 157 Z " /><path fill="rgb(252,207,65)" stroke="rgb(252,207,65)" stroke-width="1" opacity="0.9686274509803922" d="M 159.5 157 L 158.5 159 L 159.5 157 Z " /><path fill="rgb(252,207,65)" stroke="rgb(252,207,65)" stroke-width="1" opacity="0.9686274509803922" d="M 157.5 161 L 157 162.5 L 156.5 164 L 156 162.5 L 157.5 161 Z " /><path fill="rgb(252,207,65)" stroke="rgb(252,207,65)" stroke-width="1" opacity="0.9686274509803922" d="M 45.5 162 L 46.5 164 L 45.5 162 Z " /><path fill="rgb(252,207,65)" stroke="rgb(252,207,65)" stroke-width="1" opacity="0.9686274509803922" d="M 49.5 167 L 51.5 170 L 49.5 167 Z " /><path fill="rgb(252,207,65)" stroke="rgb(252,207,65)" stroke-width="1" opacity="0.9686274509803922" d="M 52.5 171 Q 54.8 170.3 54 172.5 L 59 176.5 L 57.5 176 L 52.5 171 Z " /><path fill="rgb(252,207,65)" stroke="rgb(252,207,65)" stroke-width="1" opacity="0.9686274509803922" d="M 67.5 183 L 68.5 185 L 67.5 183 Z " /><path fill="rgb(252,207,65)" stroke="rgb(252,207,65)" stroke-width="1" opacity="0.9686274509803922" d="M 134.5 183 L 136 183.5 L 133.5 185 L 134.5 183 Z " /><path fill="rgb(252,207,65)" stroke="rgb(252,207,65)" stroke-width="1" opacity="0.9686274509803922" d="M 70.5 185 Q 72.8 184.3 72 186.5 L 70.5 185 Z " /><path fill="rgb(252,207,65)" stroke="rgb(252,207,65)" stroke-width="1" opacity="0.9686274509803922" d="M 131.5 185 L 130.5 187 L 131.5 185 Z " /><path fill="rgb(252,207,65)" stroke="rgb(252,207,65)" stroke-width="1" opacity="0.9686274509803922" d="M 74.5 187 L 75.5 189 L 74.5 187 Z " /><path fill="rgb(252,207,65)" stroke="rgb(252,207,65)" stroke-width="1" opacity="0.9686274509803922" d="M 81.5 190 L 86 191.5 L 84.5 192 L 81.5 191 L 81.5 190 Z " /><path fill="rgb(252,207,65)" stroke="rgb(252,207,65)" stroke-width="1" opacity="0.9686274509803922" d="M 119.5 190 L 121 190.5 L 117.5 192 L 117.5 191 L 119.5 190 Z " /><path fill="rgb(252,207,65)" stroke="rgb(252,207,65)" stroke-width="1" opacity="0.9686274509803922" d="M 93.5 192 L 103.5 193 L 108.5 192 L 108.5 193 L 106.5 194 L 95.5 194 L 93.5 192 Z " /><path fill="rgb(232,158,55)" stroke="rgb(232,158,55)" stroke-width="1" opacity="0.9921568627450981" d="M 63.5 13 L 64.5 15 L 63.5 13 Z " /><path fill="rgb(232,158,55)" stroke="rgb(232,158,55)" stroke-width="1" opacity="0.9921568627450981" d="M 165 14 L 167 14.5 L 161.5 23 L 161 21.5 L 165 14 Z " /><path fill="rgb(232,158,55)" stroke="rgb(232,158,55)" stroke-width="1" opacity="0.9921568627450981" d="M 65.5 16 Q 68.1 15.2 67 18.5 L 70 22.5 L 68 21.5 L 65.5 16 Z " /><path fill="rgb(232,158,55)" stroke="rgb(232,158,55)" stroke-width="1" opacity="0.9921568627450981" d="M 70.5 24 Q 72.8 23.3 72 25.5 L 74 29.5 L 73 29.5 L 70.5 24 Z " /><path fill="rgb(232,158,55)" stroke="rgb(232,158,55)" stroke-width="1" opacity="0.9921568627450981" d="M 158 25 L 160 25.5 L 158 26.5 L 158 25 Z " /><path fill="rgb(232,158,55)" stroke="rgb(232,158,55)" stroke-width="1" opacity="0.9921568627450981" d="M 75.5 31 L 76.5 33 Q 73.7 33.7 75.5 31 Z " /><path fill="rgb(232,158,55)" stroke="rgb(232,158,55)" stroke-width="1" opacity="0.9921568627450981" d="M 154.5 31 L 153.5 33 L 154.5 31 Z " /><path fill="rgb(232,158,55)" stroke="rgb(232,158,55)" stroke-width="1" opacity="0.9921568627450981" d="M 151 34 L 153 34.5 L 151 35.5 L 151 34 Z " /><path fill="rgb(232,158,55)" stroke="rgb(232,158,55)" stroke-width="1" opacity="0.9921568627450981" d="M 77.5 35 Q 79.8 34.3 79 36.5 L 82 40.5 L 79 38.5 L 77.5 35 Z " /><path fill="rgb(232,158,55)" stroke="rgb(232,158,55)" stroke-width="1" opacity="0.9921568627450981" d="M 149.5 37 L 150 39 L 148 39 Q 149.1 41.7 146.5 41 L 149.5 37 Z " /><path fill="rgb(232,158,55)" stroke="rgb(232,158,55)" stroke-width="1" opacity="0.9921568627450981" d="M 82.5 42 L 83.5 44 Q 80.7 44.7 82.5 42 Z " /><path fill="rgb(232,158,55)" stroke="rgb(232,158,55)" stroke-width="1" opacity="0.9921568627450981" d="M 140.5 46 L 141 47.5 L 137 50.5 Q 136.3 48.3 138.5 49 L 140.5 46 Z " /><path fill="rgb(232,158,55)" stroke="rgb(232,158,55)" stroke-width="1" opacity="0.9921568627450981" d="M 87.5 49 L 91 54.5 L 88 52.5 L 87.5 49 Z " /><path fill="rgb(232,158,55)" stroke="rgb(232,158,55)" stroke-width="1" opacity="0.9921568627450981" d="M 133.5 53 L 134 55 L 129.5 58 L 133.5 53 Z " /><path fill="rgb(232,158,55)" stroke="rgb(232,158,55)" stroke-width="1" opacity="0.9921568627450981" d="M 97.5 58 Q 105.5 57 110 59.5 L 102.5 60 L 100.5 59 Q 99 61.5 93.5 60 L 93.5 59 L 97.5 58 Z " /><path fill="rgb(232,158,55)" stroke="rgb(232,158,55)" stroke-width="1" opacity="0.9921568627450981" d="M 127.5 58 L 128 60 L 125 61.5 Q 125.8 63.8 123.5 63 L 127.5 58 Z " /><path fill="rgb(232,158,55)" stroke="rgb(232,158,55)" stroke-width="1" opacity="0.9921568627450981" d="M 79.5 62 L 81 62.5 L 77.5 64 L 77.5 63 L 79.5 62 Z " /><path fill="rgb(232,158,55)" stroke="rgb(232,158,55)" stroke-width="1" opacity="0.9921568627450981" d="M 74.5 64 L 76 64.5 L 71.5 67 L 72.5 65 L 74.5 64 Z " /><path fill="rgb(232,158,55)" stroke="rgb(232,158,55)" stroke-width="1" opacity="0.9921568627450981" d="M 68 67 Q 71 66 70 69 Q 67 70 68 67 Z " /><path fill="rgb(232,158,55)" stroke="rgb(232,158,55)" stroke-width="1" opacity="0.9921568627450981" d="M 65.5 69 L 67 69.5 L 63.5 71 L 63.5 70 L 65.5 69 Z " /><path fill="rgb(232,158,55)" stroke="rgb(232,158,55)" stroke-width="1" opacity="0.9921568627450981" d="M 104.5 97 L 107 100.5 L 105 99.5 L 104.5 97 Z " /><path fill="rgb(232,158,55)" stroke="rgb(232,158,55)" stroke-width="1" opacity="0.9921568627450981" d="M 96 98 L 98 98.5 L 96 99.5 L 96 98 Z " /><path fill="rgb(232,158,55)" stroke="rgb(232,158,55)" stroke-width="1" opacity="0.9921568627450981" d="M 95.5 101 L 95 102.5 Q 96.3 107.3 93 106 L 95.5 101 Z " /><path fill="rgb(232,158,55)" stroke="rgb(232,158,55)" stroke-width="1" opacity="0.9921568627450981" d="M 107.5 102 L 109 104.5 L 107 103.5 L 107.5 102 Z " /><path fill="rgb(232,158,55)" stroke="rgb(232,158,55)" stroke-width="1" opacity="0.9921568627450981" d="M 92.5 107 L 93 108.5 L 91 109.5 L 92.5 107 Z " /><path fill="rgb(232,158,55)" stroke="rgb(232,158,55)" stroke-width="1" opacity="0.9921568627450981" d="M 109.5 107 Q 111.8 106.3 111 108.5 L 109.5 107 Z " /><path fill="rgb(232,158,55)" stroke="rgb(232,158,55)" stroke-width="1" opacity="0.9921568627450981" d="M 89.5 111 L 91 111.5 Q 90.3 113.8 86.5 113 L 86.5 112 L 89.5 111 Z " /><path fill="rgb(232,158,55)" stroke="rgb(232,158,55)" stroke-width="1" opacity="0.9921568627450981" d="M 112.5 111 L 116 112.5 L 112 113 L 112.5 111 Z " /><path fill="rgb(232,158,55)" stroke="rgb(232,158,55)" stroke-width="1" opacity="0.9921568627450981" d="M 80.5 113 L 85 113.5 L 75.5 115 L 73 117.5 L 72 120.5 L 72.5 122 Q 69.5 122.9 71 118.5 L 74.5 114 Q 79.3 115.3 80.5 113 Z " /><path fill="rgb(232,158,55)" stroke="rgb(232,158,55)" stroke-width="1" opacity="0.9921568627450981" d="M 118.5 113 L 127.5 114 L 130 116.5 L 127.5 115 L 118.5 114 L 118.5 113 Z " /><path fill="rgb(232,158,55)" stroke="rgb(232,158,55)" stroke-width="1" opacity="0.9921568627450981" d="M 129.5 122 L 130 124 L 127 125.5 L 121 132.5 L 120 136.5 L 123 144.5 L 122 144.5 L 119 136.5 L 119 132.5 L 123 127 L 129.5 122 Z " /><path fill="rgb(232,158,55)" stroke="rgb(232,158,55)" stroke-width="1" opacity="0.9921568627450981" d="M 73.5 123 L 77 125 L 77 127 Q 79.7 125.9 79 128.5 Q 84 129.5 83 136.5 L 82 136.5 Q 83 130 78.5 129 Q 75.9 129.7 77 127 L 75 127 L 75 125.5 L 73.5 123 Z " /><path fill="rgb(232,158,55)" stroke="rgb(232,158,55)" stroke-width="1" opacity="0.9921568627450981" d="M 81.5 139 L 82 140.5 L 79 146.5 L 79 150.5 Q 80 154 85.5 153 L 88 152 L 87.5 154 L 80 154 L 78 150.5 L 78 146.5 L 81.5 139 Z " /><path fill="rgb(232,158,55)" stroke="rgb(232,158,55)" stroke-width="1" opacity="0.9921568627450981" d="M 100.5 146 L 104 147.5 L 102.5 148 L 100.5 147 L 94.5 150 L 95.5 148 L 100.5 146 Z " /><path fill="rgb(232,158,55)" stroke="rgb(232,158,55)" stroke-width="1" opacity="0.9921568627450981" d="M 105.5 148 L 109 149.5 L 107.5 150 L 105.5 148 Z " /><path fill="rgb(232,158,55)" stroke="rgb(232,158,55)" stroke-width="1" opacity="0.9921568627450981" d="M 123 148 Q 126 147 125 150 Q 122 151 123 148 Z " /><path fill="rgb(232,158,55)" stroke="rgb(232,158,55)" stroke-width="1" opacity="0.9921568627450981" d="M 91.5 150 L 93 150.5 L 89.5 152 L 89.5 151 L 91.5 150 Z " /><path fill="rgb(232,158,55)" stroke="rgb(232,158,55)" stroke-width="1" opacity="0.9921568627450981" d="M 110 150 L 113 151.5 L 110 152 L 110 150 Z " /><path fill="rgb(232,158,55)" stroke="rgb(232,158,55)" stroke-width="1" opacity="0.9921568627450981" d="M 114.5 152 L 120.5 153 L 122.5 152 L 121.5 154 Q 114.3 155.5 114.5 152 Z " /><path fill="rgb(254,176,46)" stroke="rgb(254,176,46)" stroke-width="1" opacity="0.996078431372549" d="M 100.5 59 L 102.5 60 L 116.5 60 L 118.5 62 L 128 63 L 128 65 L 132 65 Q 130.8 68 134.5 67 L 138 69 L 140 72.5 L 138 73 L 135.5 69 L 129.5 66 L 126 66 Q 127.3 62.3 121.5 64 L 114.5 61 L 88.5 61 L 80.5 64 L 81.5 62 L 86.5 60 L 99.5 60 L 100.5 59 Z " /><path fill="rgb(254,176,46)" stroke="rgb(254,176,46)" stroke-width="1" opacity="0.996078431372549" d="M 76.5 64 L 78 64.5 L 75.5 66 L 76.5 64 Z " /><path fill="rgb(254,176,46)" stroke="rgb(254,176,46)" stroke-width="1" opacity="0.996078431372549" d="M 72.5 66 Q 75.1 65.3 74 68 Q 69.9 66.7 71 70 L 67.5 70 L 66 70.5 L 70 69 Q 68.9 66.3 71.5 67 L 72.5 66 Z " /><path fill="rgb(254,176,46)" stroke="rgb(254,176,46)" stroke-width="1" opacity="0.996078431372549" d="M 92.5 66 L 109 66.5 L 92.5 67 L 92.5 66 Z " /><path fill="rgb(254,176,46)" stroke="rgb(254,176,46)" stroke-width="1" opacity="0.996078431372549" d="M 87.5 67 L 90 67.5 L 82 70 Q 80.7 66.3 86.5 68 L 87.5 67 Z " /><path fill="rgb(254,176,46)" stroke="rgb(254,176,46)" stroke-width="1" opacity="0.996078431372549" d="M 113.5 67 L 120.5 68 Q 121.6 70.8 125 70 L 124.5 72 Q 121.7 68.3 114.5 69 L 113.5 67 Z " /><path fill="rgb(254,176,46)" stroke="rgb(254,176,46)" stroke-width="1" opacity="0.996078431372549" d="M 77 70 L 81 70.5 L 77 72 L 77 70 Z " /><path fill="rgb(254,176,46)" stroke="rgb(254,176,46)" stroke-width="1" opacity="0.996078431372549" d="M 73 72 L 76 72.5 L 73 74 L 73 72 Z " /><path fill="rgb(254,176,46)" stroke="rgb(254,176,46)" stroke-width="1" opacity="0.996078431372549" d="M 127.5 72 L 138 77 L 139 80.5 L 133.5 76 Q 127.9 75.2 127.5 72 Z " /><path fill="rgb(254,176,46)" stroke="rgb(254,176,46)" stroke-width="1" opacity="0.996078431372549" d="M 61.5 73 L 62 75 L 60 74.5 L 61.5 73 Z " /><path fill="rgb(254,176,46)" stroke="rgb(254,176,46)" stroke-width="1" opacity="0.996078431372549" d="M 70.5 74 Q 73.1 73.3 72 76 Q 67.7 75.2 66.5 79 L 66 77 L 68 77 Q 66.9 74.3 69.5 75 L 70.5 74 Z " /><path fill="rgb(254,176,46)" stroke="rgb(254,176,46)" stroke-width="1" opacity="0.996078431372549" d="M 97.5 74 L 105.5 74 L 107 75.5 L 95.5 76 L 95.5 75 L 97.5 74 Z " /><path fill="rgb(254,176,46)" stroke="rgb(254,176,46)" stroke-width="1" opacity="0.996078431372549" d="M 140.5 74 L 142 74 L 142 76 Q 144.7 74.9 144 77.5 L 140.5 74 Z " /><path fill="rgb(254,176,46)" stroke="rgb(254,176,46)" stroke-width="1" opacity="0.996078431372549" d="M 58 76 L 60 76.5 L 58 77.5 L 58 76 Z " /><path fill="rgb(254,176,46)" stroke="rgb(254,176,46)" stroke-width="1" opacity="0.996078431372549" d="M 88.5 76 Q 91.1 75.3 90 78 L 85 78 L 85 80 L 81 80 Q 82.3 83 78.5 82 L 75 83 L 75 81 L 79 81 Q 77.8 78 81.5 79 L 88.5 76 Z " /><path fill="rgb(254,176,46)" stroke="rgb(254,176,46)" stroke-width="1" opacity="0.996078431372549" d="M 112 76 L 118 77.5 L 112 78 L 112 76 Z " /><path fill="rgb(254,176,46)" stroke="rgb(254,176,46)" stroke-width="1" opacity="0.996078431372549" d="M 119 78 L 128 82.5 L 126.5 83 L 119 80 L 119 78 Z " /><path fill="rgb(254,176,46)" stroke="rgb(254,176,46)" stroke-width="1" opacity="0.996078431372549" d="M 64.5 79 L 65 81 L 63 81 Q 64.1 83.7 61.5 83 L 57.5 88 L 57 84 L 59 84 Q 57.9 81.3 60.5 82 L 64.5 79 Z " /><path fill="rgb(254,176,46)" stroke="rgb(254,176,46)" stroke-width="1" opacity="0.996078431372549" d="M 54.5 80 L 55 82 L 53 81.5 L 54.5 80 Z " /><path fill="rgb(254,176,46)" stroke="rgb(254,176,46)" stroke-width="1" opacity="0.996078431372549" d="M 140.5 81 L 145 84 L 146 88 Q 149 87 148 90 Q 145.3 91.1 146 88.5 L 141.5 83 Q 138.7 83.7 140.5 81 Z " /><path fill="rgb(254,176,46)" stroke="rgb(254,176,46)" stroke-width="1" opacity="0.996078431372549" d="M 147.5 81 L 149 81 L 149 83 Q 151.7 81.9 151 84.5 L 147.5 81 Z " /><path fill="rgb(254,176,46)" stroke="rgb(254,176,46)" stroke-width="1" opacity="0.996078431372549" d="M 52.5 83 L 53 86 L 50 87.5 Q 50.7 90.1 48 89 L 48 93 L 46.5 93 L 47 91.5 L 47 89.5 L 52.5 83 Z " /><path fill="rgb(254,176,46)" stroke="rgb(254,176,46)" stroke-width="1" opacity="0.996078431372549" d="M 73.5 83 L 74 85 L 72 85 L 70 89 L 67.5 89 L 65 90.5 L 73.5 83 Z " /><path fill="rgb(254,176,46)" stroke="rgb(254,176,46)" stroke-width="1" opacity="0.996078431372549" d="M 131.5 85 L 136 88 L 135.5 90 L 133 89 Q 134 86 131 87 L 131.5 85 Z " /><path fill="rgb(254,176,46)" stroke="rgb(254,176,46)" stroke-width="1" opacity="0.996078431372549" d="M 55.5 88 L 56 90 L 54 89.5 L 55.5 88 Z " /><path fill="rgb(254,176,46)" stroke="rgb(254,176,46)" stroke-width="1" opacity="0.996078431372549" d="M 154.5 88 L 156 90.5 L 154 91 L 154.5 88 Z " /><path fill="rgb(254,176,46)" stroke="rgb(254,176,46)" stroke-width="1" opacity="0.996078431372549" d="M 52 91 L 54 91.5 L 52 92.5 L 52 91 Z " /><path fill="rgb(254,176,46)" stroke="rgb(254,176,46)" stroke-width="1" opacity="0.996078431372549" d="M 137.5 91 Q 139.8 90.3 139 92.5 L 142 97 Q 145 95.8 144 99.5 L 142 98.5 L 138 92.5 L 137.5 91 Z " /><path fill="rgb(254,176,46)" stroke="rgb(254,176,46)" stroke-width="1" opacity="0.996078431372549" d="M 148.5 91 Q 151.1 90.3 150 93 L 152 93 L 152 96.5 L 155 101.5 L 153 100.5 Q 151.6 93.9 148.5 91 Z " /><path fill="rgb(254,176,46)" stroke="rgb(254,176,46)" stroke-width="1" opacity="0.996078431372549" d="M 63 92 Q 66 91 65 94 Q 62.3 92.9 63 95.5 L 61 96.5 L 63 92 Z " /><path fill="rgb(254,176,46)" stroke="rgb(254,176,46)" stroke-width="1" opacity="0.996078431372549" d="M 156.5 93 L 158 97 Q 161.3 95.7 160 100.5 L 159 100.5 L 156.5 93 Z " /><path fill="rgb(254,176,46)" stroke="rgb(254,176,46)" stroke-width="1" opacity="0.996078431372549" d="M 45.5 94 L 46 96 L 44 95.5 L 45.5 94 Z " /><path fill="rgb(254,176,46)" stroke="rgb(254,176,46)" stroke-width="1" opacity="0.996078431372549" d="M 50 95 L 52 95.5 Q 48.4 97.4 49 102 Q 46.3 103.1 47 100.5 L 48 97 Q 51 98 50 95 Z " /><path fill="rgb(254,176,46)" stroke="rgb(254,176,46)" stroke-width="1" opacity="0.996078431372549" d="M 96 96 L 106 96 Q 105 99 108 98 L 108 102 L 110 102 L 110 104.5 L 115 111.5 L 113.5 112 L 111 111 L 111 107 Q 108 108.3 109 104.5 L 104.5 97 Q 98.4 96.3 96 98 L 96 96 Z " /><path fill="rgb(254,176,46)" stroke="rgb(254,176,46)" stroke-width="1" opacity="0.996078431372549" d="M 59.5 97 L 60 101 Q 57.3 102.1 58 99.5 L 59.5 97 Z " /><path fill="rgb(254,176,46)" stroke="rgb(254,176,46)" stroke-width="1" opacity="0.996078431372549" d="M 43.5 98 L 44 99.5 L 43 103 Q 39.3 101.7 41 107.5 L 40 107.5 L 40 103.5 L 43.5 98 Z " /><path fill="rgb(254,176,46)" stroke="rgb(254,176,46)" stroke-width="1" opacity="0.996078431372549" d="M 94 100 L 96 100.5 L 94 101.5 L 94 100 Z " /><path fill="rgb(254,176,46)" stroke="rgb(254,176,46)" stroke-width="1" opacity="0.996078431372549" d="M 144.5 101 Q 148.4 104.6 149 111.5 L 147 110.5 L 147 106.5 L 145 106 L 145 103.5 L 144.5 101 Z " /><path fill="rgb(254,176,46)" stroke="rgb(254,176,46)" stroke-width="1" opacity="0.996078431372549" d="M 56 102 Q 58.7 100.9 58 103.5 L 56 104.5 L 56 102 Z " /><path fill="rgb(254,176,46)" stroke="rgb(254,176,46)" stroke-width="1" opacity="0.996078431372549" d="M 92 103 L 94 103.5 L 91 111 L 88.5 112 L 90 109.5 Q 89 105.8 92 107 L 92 103 Z " /><path fill="rgb(254,176,46)" stroke="rgb(254,176,46)" stroke-width="1" opacity="0.996078431372549" d="M 161.5 103 L 163 106.5 L 161 105.5 L 161.5 103 Z " /><path fill="rgb(254,176,46)" stroke="rgb(254,176,46)" stroke-width="1" opacity="0.996078431372549" d="M 46.5 104 L 47 107.5 L 45 108.5 Q 44.3 104.8 46.5 104 Z " /><path fill="rgb(254,176,46)" stroke="rgb(254,176,46)" stroke-width="1" opacity="0.996078431372549" d="M 155.5 104 L 157 104 L 157 109 L 159 109.5 L 159 115.5 L 161 126.5 L 160 127.5 L 159 143 L 157 143 L 157 149 L 155 149 L 158 140.5 L 158 132.5 L 160 125.5 Q 157 120.5 158 111.5 L 155.5 104 Z " /><path fill="rgb(254,176,46)" stroke="rgb(254,176,46)" stroke-width="1" opacity="0.996078431372549" d="M 54 106 Q 56.7 104.9 56 107.5 L 55 113 L 53 113.5 L 53 139 Q 56.7 137.7 55 143.5 L 56 146.5 L 54 145.5 L 51 131.5 L 51 120.5 L 54 106 Z " /><path fill="rgb(254,176,46)" stroke="rgb(254,176,46)" stroke-width="1" opacity="0.996078431372549" d="M 38.5 110 L 39 119 L 37 118.5 L 38.5 110 Z " /><path fill="rgb(254,176,46)" stroke="rgb(254,176,46)" stroke-width="1" opacity="0.996078431372549" d="M 43 111 Q 46 109.8 45 113.5 L 44 114.5 L 43.5 124 L 43 111 Z " /><path fill="rgb(254,176,46)" stroke="rgb(254,176,46)" stroke-width="1" opacity="0.996078431372549" d="M 163.5 111 L 165 111.5 L 165 141 L 163 140.5 L 164 139.5 L 164 112.5 L 163.5 111 Z " /><path fill="rgb(254,176,46)" stroke="rgb(254,176,46)" stroke-width="1" opacity="0.996078431372549" d="M 80.5 112 L 86 112.5 L 80.5 113 L 80.5 112 Z " /><path fill="rgb(254,176,46)" stroke="rgb(254,176,46)" stroke-width="1" opacity="0.996078431372549" d="M 116.5 112 L 123.5 112 L 124 113.5 L 122.5 113 L 116.5 113 L 116.5 112 Z " /><path fill="rgb(254,176,46)" stroke="rgb(254,176,46)" stroke-width="1" opacity="0.996078431372549" d="M 149.5 113 Q 151.9 115.3 151 120 L 149 119.5 L 149.5 113 Z " /><path fill="rgb(254,176,46)" stroke="rgb(254,176,46)" stroke-width="1" opacity="0.996078431372549" d="M 73.5 114 L 72 116.5 L 71.5 118 L 71 115 L 73.5 114 Z " /><path fill="rgb(254,176,46)" stroke="rgb(254,176,46)" stroke-width="1" opacity="0.996078431372549" d="M 128.5 114 L 131 114.5 L 131 123.5 L 130 123.5 Q 131.1 115.8 128.5 114 Z " /><path fill="rgb(254,176,46)" stroke="rgb(254,176,46)" stroke-width="1" opacity="0.996078431372549" d="M 71 122 Q 73.7 120.9 73 123.5 L 75 127 L 77 127 Q 75.9 129.7 78.5 129 Q 83.5 130.5 82 138.5 L 80 139.5 L 81 133.5 L 80 131 L 73 125.5 Q 73.7 122.9 71 124 L 71 122 Z " /><path fill="rgb(254,176,46)" stroke="rgb(254,176,46)" stroke-width="1" opacity="0.996078431372549" d="M 128.5 124 L 129 126 L 127 125.5 L 128.5 124 Z " /><path fill="rgb(254,176,46)" stroke="rgb(254,176,46)" stroke-width="1" opacity="0.996078431372549" d="M 41 125 Q 43.7 123.9 43 126.5 L 44 127.5 Q 42.7 136.4 45 140 L 43 139.5 L 43 127.5 Q 40.3 128.1 41 125 Z " /><path fill="rgb(254,176,46)" stroke="rgb(254,176,46)" stroke-width="1" opacity="0.996078431372549" d="M 125 127 L 127 127.5 L 126 130 L 123.5 131 L 123 129 Q 126 130 125 127 Z " /><path fill="rgb(254,176,46)" stroke="rgb(254,176,46)" stroke-width="1" opacity="0.996078431372549" d="M 149 132 Q 152.7 130.7 151 136.5 L 149.5 139 L 149 132 Z " /><path fill="rgb(254,176,46)" stroke="rgb(254,176,46)" stroke-width="1" opacity="0.996078431372549" d="M 37.5 133 L 39 133.5 L 39 140.5 L 38 140.5 Q 38.5 134.5 37.5 133 Z " /><path fill="rgb(254,176,46)" stroke="rgb(254,176,46)" stroke-width="1" opacity="0.996078431372549" d="M 122.5 140 L 124 141.5 L 124 146.5 Q 126.8 147.6 126 151 L 124 151 Q 125.5 154.7 122.5 154 L 123 152.5 L 123 150 Q 126 151 125 148 Q 121 149.4 123 142.5 L 122.5 140 Z " /><path fill="rgb(254,176,46)" stroke="rgb(254,176,46)" stroke-width="1" opacity="0.996078431372549" d="M 147 141 Q 149.7 139.9 149 142.5 L 144.5 152 L 144 149.5 L 145 146 L 147 146 L 147 141 Z " /><path fill="rgb(254,176,46)" stroke="rgb(254,176,46)" stroke-width="1" opacity="0.996078431372549" d="M 39.5 142 L 41 142 L 41 148.5 Q 44 147.5 43 152.5 L 43.5 154 L 42 150 Q 38.5 151.1 40 143.5 L 39.5 142 Z " /><path fill="rgb(254,176,46)" stroke="rgb(254,176,46)" stroke-width="1" opacity="0.996078431372549" d="M 78 142 Q 80.7 140.9 80 143.5 L 78.5 146 L 78 142 Z " /><path fill="rgb(254,176,46)" stroke="rgb(254,176,46)" stroke-width="1" opacity="0.996078431372549" d="M 45.5 143 Q 48.5 144.6 47 150 Q 50 148.8 49 152.5 L 51 156.5 L 50 156.5 L 50 154 Q 47.3 155.1 48 152.5 Q 43.8 149.1 45.5 143 Z " /><path fill="rgb(254,176,46)" stroke="rgb(254,176,46)" stroke-width="1" opacity="0.996078431372549" d="M 161 145 L 163 145.5 L 161.5 149 L 161 145 Z " /><path fill="rgb(254,176,46)" stroke="rgb(254,176,46)" stroke-width="1" opacity="0.996078431372549" d="M 100.5 147 L 110 150.5 L 105 151 Q 106.1 147.5 98.5 149 L 98.5 148 L 100.5 147 Z " /><path fill="rgb(254,176,46)" stroke="rgb(254,176,46)" stroke-width="1" opacity="0.996078431372549" d="M 56 148 L 58 148 L 58 151 L 60 151 L 60 155 Q 62.7 153.9 62 156.5 L 65 158 L 64.5 161 Q 58.5 155.7 56 148 Z " /><path fill="rgb(254,176,46)" stroke="rgb(254,176,46)" stroke-width="1" opacity="0.996078431372549" d="M 96.5 149 L 97 151 L 88 154 Q 86.7 150.7 91.5 152 L 96.5 149 Z " /><path fill="rgb(254,176,46)" stroke="rgb(254,176,46)" stroke-width="1" opacity="0.996078431372549" d="M 154.5 150 L 155 151.5 L 153 152.5 L 154.5 150 Z " /><path fill="rgb(254,176,46)" stroke="rgb(254,176,46)" stroke-width="1" opacity="0.996078431372549" d="M 78.5 151 L 80 154 Q 76.5 155.1 78.5 151 Z " /><path fill="rgb(254,176,46)" stroke="rgb(254,176,46)" stroke-width="1" opacity="0.996078431372549" d="M 159 151 L 161 151.5 L 160 155 L 158 155 L 158 159 L 156.5 159 L 157 157.5 L 157 154 Q 160.3 155.1 159 151 Z " /><path fill="rgb(254,176,46)" stroke="rgb(254,176,46)" stroke-width="1" opacity="0.996078431372549" d="M 111.5 152 L 115 153.5 L 113.5 154 L 111.5 152 Z " /><path fill="rgb(254,176,46)" stroke="rgb(254,176,46)" stroke-width="1" opacity="0.996078431372549" d="M 142 153 Q 145 152 144 155 Q 141.3 153.9 142 156.5 L 139 161 L 137 160.5 L 138 158 L 140 158 L 140 155 Q 143 156 142 153 Z " /><path fill="rgb(254,176,46)" stroke="rgb(254,176,46)" stroke-width="1" opacity="0.996078431372549" d="M 152.5 154 L 153 155.5 L 152 159 L 150 159 Q 151.1 161.7 148.5 161 L 151 157.5 L 152.5 154 Z " /><path fill="rgb(254,176,46)" stroke="rgb(254,176,46)" stroke-width="1" opacity="0.996078431372549" d="M 44.5 156 Q 47.1 155.2 46 158.5 L 45 158.5 L 44.5 156 Z " /><path fill="rgb(254,176,46)" stroke="rgb(254,176,46)" stroke-width="1" opacity="0.996078431372549" d="M 52 159 Q 54.7 157.9 54 160.5 L 56 164 Q 58.7 162.9 58 165.5 L 54 162.5 Q 54.7 159.9 52 161 L 52 159 Z " /><path fill="rgb(254,176,46)" stroke="rgb(254,176,46)" stroke-width="1" opacity="0.996078431372549" d="M 47.5 160 L 53 168.5 L 52 168.5 L 48.5 164 Q 45 164.8 47.5 160 Z " /><path fill="rgb(254,176,46)" stroke="rgb(254,176,46)" stroke-width="1" opacity="0.996078431372549" d="M 154 161 L 156 161.5 L 154.5 164 L 154 161 Z " /><path fill="rgb(254,176,46)" stroke="rgb(254,176,46)" stroke-width="1" opacity="0.996078431372549" d="M 135 162 L 137 162.5 L 135 163.5 L 135 162 Z " /><path fill="rgb(254,176,46)" stroke="rgb(254,176,46)" stroke-width="1" opacity="0.996078431372549" d="M 147.5 162 L 148 165 L 145 166.5 L 145 168 L 143 168 L 143 170 L 141 170 Q 142.1 172.7 139.5 172 L 136 177 L 132 177 Q 133.3 180 129.5 179 L 127.5 180 L 128.5 178 L 133.5 176 L 144 166.5 L 147.5 162 Z " /><path fill="rgb(254,176,46)" stroke="rgb(254,176,46)" stroke-width="1" opacity="0.996078431372549" d="M 68.5 164 L 72 165 L 72 167 Q 74.7 165.9 74 168.5 L 71.5 167 L 68.5 164 Z " /><path fill="rgb(254,176,46)" stroke="rgb(254,176,46)" stroke-width="1" opacity="0.996078431372549" d="M 133.5 164 L 134 166 L 129.5 169 L 131 166.5 Q 130.3 164.3 132.5 165 L 133.5 164 Z " /><path fill="rgb(254,176,46)" stroke="rgb(254,176,46)" stroke-width="1" opacity="0.996078431372549" d="M 59.5 167 L 63 169 L 63 171 Q 65.7 169.9 65 172.5 L 61.5 170 Q 57.1 171.1 59.5 167 Z " /><path fill="rgb(254,176,46)" stroke="rgb(254,176,46)" stroke-width="1" opacity="0.996078431372549" d="M 150.5 167 L 151 169 L 149 168.5 L 150.5 167 Z " /><path fill="rgb(254,176,46)" stroke="rgb(254,176,46)" stroke-width="1" opacity="0.996078431372549" d="M 75 169 L 78 169 Q 76.8 172 80.5 171 L 85.5 174 L 90 174 Q 91.1 176.7 88.5 176 L 75 171 L 75 169 Z " /><path fill="rgb(254,176,46)" stroke="rgb(254,176,46)" stroke-width="1" opacity="0.996078431372549" d="M 126 169 L 128 169.5 L 126 170.5 L 126 169 Z " /><path fill="rgb(254,176,46)" stroke="rgb(254,176,46)" stroke-width="1" opacity="0.996078431372549" d="M 53.5 170 Q 56.1 169.3 55 172 L 57 172 L 57 173.5 L 53.5 170 Z " /><path fill="rgb(254,176,46)" stroke="rgb(254,176,46)" stroke-width="1" opacity="0.996078431372549" d="M 122.5 171 L 124 171.5 L 114.5 176 L 114 174 L 118.5 174 L 119 172 L 121.5 172 L 122.5 171 Z " /><path fill="rgb(254,176,46)" stroke="rgb(254,176,46)" stroke-width="1" opacity="0.996078431372549" d="M 145 172 L 147 172.5 L 145 173.5 L 145 172 Z " /><path fill="rgb(254,176,46)" stroke="rgb(254,176,46)" stroke-width="1" opacity="0.996078431372549" d="M 66.5 173 L 76 179.5 L 73.5 180 Q 72.3 176.3 68 177 Q 69 174 66 175 L 66.5 173 Z " /><path fill="rgb(254,176,46)" stroke="rgb(254,176,46)" stroke-width="1" opacity="0.996078431372549" d="M 58.5 174 L 59.5 176 Q 56.7 176.7 58.5 174 Z " /><path fill="rgb(254,176,46)" stroke="rgb(254,176,46)" stroke-width="1" opacity="0.996078431372549" d="M 143.5 174 L 144 176 L 142 176 Q 143.1 178.7 140.5 178 L 143.5 174 Z " /><path fill="rgb(254,176,46)" stroke="rgb(254,176,46)" stroke-width="1" opacity="0.996078431372549" d="M 61.5 176 L 66 179 L 65.5 181 L 63 180 Q 64 177 61 178 L 61.5 176 Z " /><path fill="rgb(254,176,46)" stroke="rgb(254,176,46)" stroke-width="1" opacity="0.996078431372549" d="M 91.5 176 L 111 176.5 L 97.5 178 Q 96.3 175.8 91.5 177 L 91.5 176 Z " /><path fill="rgb(254,176,46)" stroke="rgb(254,176,46)" stroke-width="1" opacity="0.996078431372549" d="M 136 179 L 140 179.5 L 136.5 181 L 136 179 Z " /><path fill="rgb(254,176,46)" stroke="rgb(254,176,46)" stroke-width="1" opacity="0.996078431372549" d="M 77 180 L 80 181.5 L 77 182 L 77 180 Z " /><path fill="rgb(254,176,46)" stroke="rgb(254,176,46)" stroke-width="1" opacity="0.996078431372549" d="M 124.5 180 L 126 180.5 L 123.5 182 L 124.5 180 Z " /><path fill="rgb(254,176,46)" stroke="rgb(254,176,46)" stroke-width="1" opacity="0.996078431372549" d="M 67.5 181 Q 69.8 180.3 69 182.5 L 67.5 181 Z " /><path fill="rgb(254,176,46)" stroke="rgb(254,176,46)" stroke-width="1" opacity="0.996078431372549" d="M 82 182 L 90.5 185 L 112.5 185 L 122 182 L 122 184 L 116 184 L 115.5 186 L 104.5 186 L 100.5 187 L 99.5 186 L 87 186 L 87 184 L 82 184 L 82 182 Z " /><path fill="rgb(254,176,46)" stroke="rgb(254,176,46)" stroke-width="1" opacity="0.996078431372549" d="M 70.5 183 L 74 184.5 L 70 185 L 70.5 183 Z " /><path fill="rgb(254,176,46)" stroke="rgb(254,176,46)" stroke-width="1" opacity="0.996078431372549" d="M 131.5 183 L 132 185 L 128 185 Q 129.3 188 125.5 187 L 124 187.5 Q 123.2 184.5 127 186 L 127 184 L 130.5 184 L 131.5 183 Z " /><path fill="rgb(254,176,46)" stroke="rgb(254,176,46)" stroke-width="1" opacity="0.996078431372549" d="M 74.5 186 Q 78.9 184.5 78 187.5 L 76.5 187 Q 73.5 187.5 74.5 186 Z " /><path fill="rgb(254,176,46)" stroke="rgb(254,176,46)" stroke-width="1" opacity="0.996078431372549" d="M 79.5 188 Q 83.9 186.5 83 189.5 L 81.5 189 Q 78.5 189.5 79.5 188 Z " /><path fill="rgb(254,176,46)" stroke="rgb(254,176,46)" stroke-width="1" opacity="0.996078431372549" d="M 119.5 188 L 123 188.5 L 118.5 190 L 119.5 188 Z " /><path fill="rgb(254,176,46)" stroke="rgb(254,176,46)" stroke-width="1" opacity="0.996078431372549" d="M 93.5 190 L 94.5 191 L 107.5 191 L 109 190.5 L 108.5 192 L 93 192 L 93.5 190 Z " /><path fill="rgb(139,92,54)" stroke="rgb(139,92,54)" stroke-width="1" opacity="0.996078431372549" d="M 97.5 48 L 97 49.5 L 93.5 55 L 94 53.5 L 97.5 48 Z " /><path fill="rgb(139,92,54)" stroke="rgb(139,92,54)" stroke-width="1" opacity="0.996078431372549" d="M 94.5 58 L 97 58.5 L 94.5 59 L 94.5 58 Z " /><path fill="rgb(139,92,54)" stroke="rgb(139,92,54)" stroke-width="1" opacity="0.996078431372549" d="M 106.5 58 L 109 58.5 L 106.5 59 L 106.5 58 Z " /><path fill="rgb(139,92,54)" stroke="rgb(139,92,54)" stroke-width="1" opacity="0.996078431372549" d="M 71.5 65 L 70.5 67 L 71.5 65 Z " /><path fill="rgb(139,92,54)" stroke="rgb(139,92,54)" stroke-width="1" opacity="0.996078431372549" d="M 98 97 Q 101 96 100 99 Q 97.3 97.9 98 100.5 L 97 104 Q 94.3 105.1 95 102.5 L 98 97 Z " /><path fill="rgb(139,92,54)" stroke="rgb(139,92,54)" stroke-width="1" opacity="0.996078431372549" d="M 103.5 97 L 104.5 99 Q 101.7 99.7 103.5 97 Z " /><path fill="rgb(139,92,54)" stroke="rgb(139,92,54)" stroke-width="1" opacity="0.996078431372549" d="M 105.5 100 L 107 103 Q 103.5 104.1 105.5 100 Z " /><path fill="rgb(139,92,54)" stroke="rgb(139,92,54)" stroke-width="1" opacity="0.996078431372549" d="M 107.5 104 L 112 112.5 L 110 111.5 L 107.5 104 Z " /><path fill="rgb(139,92,54)" stroke="rgb(139,92,54)" stroke-width="1" opacity="0.996078431372549" d="M 93 106 Q 96 105 95 108 Q 92 109 93 106 Z " /><path fill="rgb(139,92,54)" stroke="rgb(139,92,54)" stroke-width="1" opacity="0.996078431372549" d="M 92.5 109 L 93 110.5 L 92 113 L 90 112.5 L 92.5 109 Z " /><path fill="rgb(139,92,54)" stroke="rgb(139,92,54)" stroke-width="1" opacity="0.996078431372549" d="M 85.5 113 L 89 113.5 Q 87.5 116.5 81.5 115 L 81.5 114 L 85.5 113 Z " /><path fill="rgb(139,92,54)" stroke="rgb(139,92,54)" stroke-width="1" opacity="0.996078431372549" d="M 114 113 L 122 114.5 L 114 115 L 114 113 Z " /><path fill="rgb(139,92,54)" stroke="rgb(139,92,54)" stroke-width="1" opacity="0.996078431372549" d="M 75.5 115 Q 78.1 114.3 77 117 L 74 117 L 74 123 Q 76.7 121.9 76 124.5 L 73 122.5 L 72 119.5 L 75.5 115 Z " /><path fill="rgb(139,92,54)" stroke="rgb(139,92,54)" stroke-width="1" opacity="0.996078431372549" d="M 125.5 115 Q 129.5 114.5 130 117.5 L 128.5 118 L 125.5 115 Z " /><path fill="rgb(139,92,54)" stroke="rgb(139,92,54)" stroke-width="1" opacity="0.996078431372549" d="M 128 121 L 130 121.5 L 124 126.5 Q 123.3 123.9 126 125 L 126 123 L 128 123 L 128 121 Z " /><path fill="rgb(139,92,54)" stroke="rgb(139,92,54)" stroke-width="1" opacity="0.996078431372549" d="M 79.5 128 Q 82.1 127.3 81 130 L 83 130 L 83 131.5 Q 85.3 132.7 84 137.5 L 83 143 Q 80.3 144.1 81 141.5 Q 83.6 138.6 83 132.5 L 79.5 128 Z " /><path fill="rgb(139,92,54)" stroke="rgb(139,92,54)" stroke-width="1" opacity="0.996078431372549" d="M 121 128 L 123 128.5 L 119 131.5 Q 118.3 128.9 121 130 L 121 128 Z " /><path fill="rgb(139,92,54)" stroke="rgb(139,92,54)" stroke-width="1" opacity="0.996078431372549" d="M 118.5 133 L 119 135.5 L 118 135.5 L 118.5 133 Z " /><path fill="rgb(139,92,54)" stroke="rgb(139,92,54)" stroke-width="1" opacity="0.996078431372549" d="M 119.5 137 L 121 141 Q 117.2 142.2 119.5 137 Z " /><path fill="rgb(139,92,54)" stroke="rgb(139,92,54)" stroke-width="1" opacity="0.996078431372549" d="M 121.5 143 L 123 146.5 L 121 145.5 L 121.5 143 Z " /><path fill="rgb(139,92,54)" stroke="rgb(139,92,54)" stroke-width="1" opacity="0.996078431372549" d="M 80.5 144 L 81 150.5 L 83 152.5 L 81.5 153 Q 78 152 79 146.5 L 80.5 144 Z " /><path fill="rgb(139,92,54)" stroke="rgb(139,92,54)" stroke-width="1" opacity="0.996078431372549" d="M 97.5 146 L 100 146.5 L 96.5 148 L 97.5 146 Z " /><path fill="rgb(139,92,54)" stroke="rgb(139,92,54)" stroke-width="1" opacity="0.996078431372549" d="M 103.5 146 L 106 147.5 L 104.5 148 L 103.5 146 Z " /><path fill="rgb(139,92,54)" stroke="rgb(139,92,54)" stroke-width="1" opacity="0.996078431372549" d="M 93.5 148 L 95 148.5 L 92.5 150 L 93.5 148 Z " /><path fill="rgb(139,92,54)" stroke="rgb(139,92,54)" stroke-width="1" opacity="0.996078431372549" d="M 107.5 148 L 111 149.5 L 109.5 150 L 107.5 148 Z " /><path fill="rgb(139,92,54)" stroke="rgb(139,92,54)" stroke-width="1" opacity="0.996078431372549" d="M 89.5 150 L 91 150.5 L 85.5 153 L 86.5 151 L 89.5 150 Z " /><path fill="rgb(139,92,54)" stroke="rgb(139,92,54)" stroke-width="1" opacity="0.996078431372549" d="M 112.5 150 L 118 152.5 L 116.5 153 Q 112.5 152.5 112.5 150 Z " /><path fill="rgb(139,92,54)" stroke="rgb(139,92,54)" stroke-width="1" opacity="0.996078431372549" d="M 122.5 150 L 123 152 L 120.5 153 L 122.5 150 Z " /><path fill="rgb(109,69,52)" stroke="rgb(109,69,52)" stroke-width="1" opacity="1" d="M 67.5 67 L 66.5 69 L 67.5 67 Z " /><path fill="rgb(109,69,52)" stroke="rgb(109,69,52)" stroke-width="1" opacity="1" d="M 100 97 L 103 97 Q 102 100 105 99 L 105 103 Q 108 101.8 107 105.5 L 111.5 113 L 114 113 L 114.5 115 L 124.5 115 L 130 118 L 130 121 L 128 121 L 128 123 L 126 123 L 126 125 Q 123.3 123.9 124 126.5 L 121 128 Q 122 131 119 130 L 119 132.5 L 118 135.5 L 119 141 Q 122.7 139.7 121 145.5 L 123 149.5 L 118.5 153 L 104.5 146 L 97.5 146 L 83.5 153 L 81 150.5 L 81 143 Q 84.7 144.3 83 138.5 Q 85.3 137.2 84 132.5 L 83 130 L 81 130 Q 82.1 127.3 79.5 128 L 76 123 L 74 123 L 74 117 Q 78.3 118 77.5 115 L 87.5 115 Q 88.6 112.3 92 113 L 93 108 L 95 108 L 95 104 Q 98 105.3 97 101.5 L 98 99 Q 101 100 100 97 Z " /><path fill="rgb(254,176,48)" stroke="rgb(254,176,48)" stroke-width="1" opacity="0.8745098039215686" d="M 96.5 34 L 97.5 36 L 96.5 34 Z " /><path fill="rgb(254,176,48)" stroke="rgb(254,176,48)" stroke-width="1" opacity="0.8745098039215686" d="M 139 69 Q 141.7 67.9 141 70.5 L 140.5 72 L 147.5 78 L 149 81 Q 151.7 79.9 151 82.5 L 152.5 85 L 147.5 81 L 146 78 L 144 78 L 144 76 L 142 76 L 142 74 Q 139.3 75.1 140 72.5 L 139 69 Z " /><path fill="rgb(254,176,48)" stroke="rgb(254,176,48)" stroke-width="1" opacity="0.8745098039215686" d="M 59.5 74 L 60 76 L 58 76 L 58 78 L 56 78 Q 57.1 80.7 54.5 80 L 47.5 89 L 47 87.5 Q 52.3 84 54 78 L 56 78 Q 54.9 75.3 57.5 76 L 59.5 74 Z " /><path fill="rgb(254,176,48)" stroke="rgb(254,176,48)" stroke-width="1" opacity="0.8745098039215686" d="M 153.5 86 Q 158.5 90.3 160 97 Q 157 98.3 158 94.5 L 153.5 86 Z " /><path fill="rgb(254,176,48)" stroke="rgb(254,176,48)" stroke-width="1" opacity="0.8745098039215686" d="M 45 90 Q 47.7 88.9 47 91.5 L 40.5 103 L 40 99 Q 43 100.3 42 96.5 Q 45.6 94.6 45 90 Z " /><path fill="rgb(254,176,48)" stroke="rgb(254,176,48)" stroke-width="1" opacity="0.8745098039215686" d="M 160 98 L 162 98 L 162 102 Q 164.7 100.9 164 103.5 L 163 105.5 L 165 111 Q 161.3 112.3 163 106.5 L 160 98 Z " /><path fill="rgb(254,176,48)" stroke="rgb(254,176,48)" stroke-width="1" opacity="0.8745098039215686" d="M 39.5 104 L 40 108 Q 37 109.3 38 105.5 L 39.5 104 Z " /><path fill="rgb(254,176,48)" stroke="rgb(254,176,48)" stroke-width="1" opacity="0.8745098039215686" d="M 36 111 Q 39.5 109.9 38 117.5 L 36.5 120 L 36 111 Z " /><path fill="rgb(254,176,48)" stroke="rgb(254,176,48)" stroke-width="1" opacity="0.8745098039215686" d="M 165.5 115 L 167 117.5 L 167 133.5 L 165.5 136 L 165.5 115 Z " /><path fill="rgb(254,176,48)" stroke="rgb(254,176,48)" stroke-width="1" opacity="0.8745098039215686" d="M 36.5 122 L 37 128.5 L 36 128.5 L 36.5 122 Z " /><path fill="rgb(254,176,48)" stroke="rgb(254,176,48)" stroke-width="1" opacity="0.8745098039215686" d="M 36 134 Q 39.5 132.9 38 140.5 Q 40.8 142.2 40 147.5 L 38 146.5 Q 39.5 139.5 36 140.5 L 36 134 Z " /><path fill="rgb(254,176,48)" stroke="rgb(254,176,48)" stroke-width="1" opacity="0.8745098039215686" d="M 163 141 Q 166 139.8 165 143.5 L 163 147.5 L 164 150 Q 160.7 148.7 162 153.5 L 158.5 158 L 158 155 Q 161 156.3 160 152.5 Q 163.7 148.2 163 141 Z " /><path fill="rgb(254,176,48)" stroke="rgb(254,176,48)" stroke-width="1" opacity="0.8745098039215686" d="M 40 150 Q 43 148.8 42 152.5 L 47 162.5 L 45 161.5 L 44 157 L 42 157 L 42 153 Q 38.7 154.1 40 150 Z " /><path fill="rgb(254,176,48)" stroke="rgb(254,176,48)" stroke-width="1" opacity="0.8745098039215686" d="M 156 159 Q 158.7 157.9 158 160.5 L 155.5 164 L 155 162.5 L 156 159 Z " /><path fill="rgb(254,176,48)" stroke="rgb(254,176,48)" stroke-width="1" opacity="0.8745098039215686" d="M 47.5 164 L 52 167.5 L 53 170.5 L 52 170.5 L 47.5 164 Z " /><path fill="rgb(254,176,48)" stroke="rgb(254,176,48)" stroke-width="1" opacity="0.8745098039215686" d="M 151 167 L 153 167.5 L 151 171 Q 148.3 169.9 149 172.5 L 146 174 L 146 176 L 142 178 L 142 176 L 144 176 Q 142.9 173.3 145.5 174 L 147 171 L 149 171 L 151 167 Z " /><path fill="rgb(254,176,48)" stroke="rgb(254,176,48)" stroke-width="1" opacity="0.8745098039215686" d="M 54.5 172 L 58 174.5 L 56.5 175 L 54.5 172 Z " /><path fill="rgb(254,176,48)" stroke="rgb(254,176,48)" stroke-width="1" opacity="0.8745098039215686" d="M 59 176 L 61 176 L 61 178 L 63 178 Q 61.9 180.7 64.5 180 L 70 183 L 69.5 185 L 61 180 L 59 176 Z " /><path fill="rgb(254,176,48)" stroke="rgb(254,176,48)" stroke-width="1" opacity="0.8745098039215686" d="M 137.5 180 Q 140.1 179.3 139 182 L 135 183 Q 133.9 180.3 136.5 181 L 137.5 180 Z " /><path fill="rgb(254,176,48)" stroke="rgb(254,176,48)" stroke-width="1" opacity="0.8745098039215686" d="M 132 183 L 134 183.5 L 132 184.5 L 132 183 Z " /><path fill="rgb(254,176,48)" stroke="rgb(254,176,48)" stroke-width="1" opacity="0.8745098039215686" d="M 72 185 Q 75 184 74 187 Q 71 188 72 185 Z " /><path fill="rgb(254,176,48)" stroke="rgb(254,176,48)" stroke-width="1" opacity="0.8745098039215686" d="M 128 185 L 131 185.5 L 128 187 L 128 189 L 123 189 Q 124.1 191.7 121.5 191 L 119.5 190 Q 116.4 193.6 109 192 L 109.5 190 L 118.5 190 L 128 187 L 128 185 Z " /><path fill="rgb(254,176,48)" stroke="rgb(254,176,48)" stroke-width="1" opacity="0.8745098039215686" d="M 75.5 187 L 78 188.5 L 76.5 189 L 75.5 187 Z " /><path fill="rgb(254,176,48)" stroke="rgb(254,176,48)" stroke-width="1" opacity="0.8745098039215686" d="M 79.5 189 L 82 189.5 L 79.5 190 L 79.5 189 Z " /><path fill="rgb(254,176,48)" stroke="rgb(254,176,48)" stroke-width="1" opacity="0.8745098039215686" d="M 84.5 190 L 92.5 190 L 93 192 Q 85.6 193.4 84.5 190 Z " /><path fill="rgb(254,176,48)" stroke="rgb(254,176,48)" stroke-width="1" opacity="0.8745098039215686" d="M 98.5 192 L 104 192.5 L 98.5 193 L 98.5 192 Z " /><path fill="rgb(255,176,46)" stroke="rgb(255,176,46)" stroke-width="1" opacity="1" d="M 88.5 61 L 114.5 61 Q 118.7 64.8 126 64 Q 124.7 67.3 129.5 66 L 138 71.5 L 140 74.5 L 145 78 L 145 80 Q 147.7 78.9 147 81.5 L 152 85 Q 151 88 154 87 L 154 91 L 156 91 L 156 93.5 L 159 101 Q 162.7 99.7 161 105.5 L 163 107.5 L 164 112.5 L 164 139.5 L 163 145 L 161 145 L 161 151 L 159 151 Q 160.3 155.1 157 154 L 157 157.5 L 156 161 L 154 161 L 154 165 L 152 165 Q 153.1 167.7 150.5 167 L 149 170 L 147 170 L 147 172 L 145 172 Q 146.1 174.7 143.5 174 L 140 179 L 136 179 L 134 183 L 131.5 183 L 127 184 L 127 186 Q 122.9 184.7 124 188 L 119.5 188 L 117.5 190 L 94.5 191 L 93.5 190 L 83 190 L 83 188 L 78 188 L 78 186 L 74 186 Q 75.3 183 71.5 184 L 69 183 L 69 181 L 66 181 Q 67.1 178.3 64.5 179 L 57 174 L 57 172 L 53 170 L 53 167.5 L 48 162.5 L 48 160 L 46 160 L 46 156 Q 43 157.3 44 153.5 L 43 149 L 41 149 L 41 142.5 L 39 141.5 L 39 133.5 L 37 132.5 L 37 119 L 39 119 L 39 108.5 L 41 108 L 41 103.5 L 43 103 L 43 100.5 L 44 96 L 46 96 L 46 93 L 48 93 L 48 89 Q 50.7 90.1 50 87.5 L 53 86 L 53 82 L 55 82 L 55 80 L 57 80 Q 55.9 77.3 58.5 78 L 60 75 L 62 75 L 64 71 L 66.5 71 L 71 70 L 71 68 L 74 68 Q 72.8 65 76.5 66 L 78.5 64 Q 85.7 64.7 88.5 61 Z M 93 66 L 87 68 L 83 68 Q 83 71 77 70 Q 78 74 73 72 L 73 74 L 70 75 Q 67 74 68 77 L 66 77 L 66 79 L 61 82 Q 58 81 59 84 L 57 84 L 57 88 L 54 90 Q 55 92 52 91 L 52 95 L 48 97 L 47 104 L 45 106 Q 47 112 43 112 L 43 125 L 41 125 Q 40 128 43 128 L 43 140 L 45 140 Q 44 148 48 153 Q 47 155 50 154 L 50 157 L 52 157 L 52 161 L 54 161 L 58 166 L 59 166 L 59 170 Q 63 169 65 173 Q 67 172 66 175 L 68 175 L 68 177 Q 72 176 74 180 Q 79 179 78 182 L 82 182 L 82 184 L 87 184 L 87 186 L 100 186 L 101 187 L 105 186 L 116 186 L 116 184 L 122 184 L 122 182 L 130 179 Q 133 180 132 177 L 136 177 L 140 172 Q 142 173 141 170 L 143 170 L 143 168 L 145 168 L 147 165 L 148 165 L 148 161 L 152 159 Q 152 154 155 152 L 155 149 L 157 149 L 157 143 L 159 143 L 160 128 L 161 127 L 159 116 L 159 109 L 157 109 L 157 104 L 155 104 Q 156 99 152 97 L 152 93 L 148 91 L 148 88 L 146 88 L 145 84 L 139 81 L 138 77 L 129 72 Q 124 73 125 70 Q 122 71 121 68 L 110 67 L 109 66 L 93 66 Z " /><path fill="rgb(255,176,46)" stroke="rgb(255,176,46)" stroke-width="1" opacity="1" d="M 90 76 L 111.5 76 L 112 78 L 118.5 78 L 119 80 L 121.5 80 L 131 85.5 Q 130.3 88.1 133 87 L 133 89 L 134.5 89 L 137 90 L 138 94 L 140 94 L 140 97 Q 142.7 95.9 142 98.5 Q 145.5 100.7 145 106 Q 148.7 104.7 147 110.5 L 149 112.5 L 149 120 L 151 120.5 L 151 132 L 149 132 L 149 140.5 L 147 141 L 147 145.5 L 145 146 L 145 148.5 L 144 153 L 140 155 L 140 158 Q 137.3 156.9 138 159.5 L 137 162 L 135 162 Q 136.1 164.7 133.5 164 L 131 165 L 128.5 169 Q 124.8 168 126 171 L 122.5 171 L 119 172 L 119 174 Q 112.7 172.5 113.5 176 L 90 176 Q 91.3 172.3 85.5 174 Q 83.3 170.5 78 171 L 78 169 L 74 169 L 74 167 L 72 167 Q 73.1 164.3 70.5 165 L 67 164 Q 68 161 65 162 L 65 158 L 63.5 158 L 62 155 L 60 155 L 60 151 L 58 151 Q 59.3 146.9 56 148 L 56 144.5 L 55 139 L 53 138.5 L 53 113 Q 56.7 114.3 55 108.5 L 58 101 L 60 101 L 60 97 L 61.5 97 L 63 94 Q 66 95.3 65 91.5 Q 66.2 88.3 70 89 L 70 87 L 72 87 L 74 83 L 77.5 83 L 81 82 L 81 80 Q 86.3 81.3 85.5 78 L 90 78 L 90 76 Z M 96 96 L 96 100 Q 93 99 94 103 L 92 103 L 92 107 L 90 107 Q 91 111 88 112 L 81 112 L 80 114 Q 74 113 71 115 L 71 124 L 73 124 L 73 126 L 80 131 L 81 134 L 80 139 Q 81 144 78 143 L 78 154 L 90 154 L 95 151 Q 98 152 97 149 L 105 149 L 105 151 Q 111 150 114 154 L 124 154 L 124 151 L 126 151 Q 127 148 124 147 L 124 142 L 122 140 Q 123 136 120 137 L 120 133 Q 123 134 122 131 L 126 130 L 127 128 Q 126 125 129 126 L 129 124 L 131 124 L 131 114 L 125 114 L 124 112 L 116 112 L 110 105 L 110 102 L 108 102 L 108 98 Q 105 99 106 96 L 96 96 Z " /><path fill="rgb(217,200,186)" stroke="rgb(217,200,186)" stroke-width="1" opacity="0.20392156862745098" d="M 27 8 L 36.5 8 L 37.5 10 L 57 10 L 57 8 L 62 8 L 63 12 L 61 12 Q 62.1 9.3 59.5 10 L 58.5 11 L 36.5 11 Q 35.5 8 30.5 9 L 27 10 L 27 8 Z " /><path fill="rgb(217,200,186)" stroke="rgb(217,200,186)" stroke-width="1" opacity="0.20392156862745098" d="M 122 8 L 143.5 8 L 145.5 10 L 169 10 Q 170.1 12.7 167.5 12 L 166.5 11 L 143.5 11 L 141.5 9 L 125.5 9 L 118 14.5 Q 118.7 17.1 116 16 L 116 18.5 Q 113.2 19.6 114 23 Q 111.3 21.9 112 24.5 L 101.5 42 L 95 31 L 99 33 L 99 35.5 Q 100.3 38.3 101.5 36 Q 103.8 36.8 103 34.5 L 108 28.5 L 108 26 L 110 26 L 110 22 Q 112.7 23.1 112 20.5 L 113 17 Q 116 18.3 115 14.5 L 119 12 L 119 10 Q 123.1 11.3 122 8 Z " /><path fill="rgb(217,200,186)" stroke="rgb(217,200,186)" stroke-width="1" opacity="0.20392156862745098" d="M 22 10 L 26 10.5 L 21 14.5 L 18.5 21 L 18 15 L 20 15 L 20 12 Q 23 13 22 10 Z " /><path fill="rgb(217,200,186)" stroke="rgb(217,200,186)" stroke-width="1" opacity="0.20392156862745098" d="M 80.5 10 L 83 10 Q 81.9 12.7 84.5 12 Q 88.1 14.1 88 19 Q 91 17.8 90 21.5 L 93.5 27 Q 96.5 26.2 95 30 Q 92.3 31.1 93 28.5 L 88 19 L 86 19 L 86 16 Q 83.3 17.1 84 14.5 L 80.5 10 Z " /><path fill="rgb(217,200,186)" stroke="rgb(217,200,186)" stroke-width="1" opacity="0.20392156862745098" d="M 176.5 10 L 180 10 Q 178.9 12.7 181.5 12 L 184 14.5 L 184 29.5 L 180 32 L 181 28 L 183 27.5 L 183 16 Q 180.3 17.1 181 14.5 L 176.5 10 Z " /><path fill="rgb(217,200,186)" stroke="rgb(217,200,186)" stroke-width="1" opacity="0.20392156862745098" d="M 18.5 23 L 24 35 L 26 35 L 26 39 L 27.5 39 L 29 42 Q 32 40.8 31 44.5 L 46.5 60 L 49 60 Q 47.9 62.7 50.5 62 L 56 65 Q 54.9 67.7 57.5 67 L 61 69 L 60 74 L 58 74 L 58 76 L 56 76 Q 57.1 78.7 54.5 78 L 48.5 86 Q 46.3 85.3 47 87.5 L 40 99.5 L 36.5 111 L 36 105.5 L 41 93 Q 44.3 94.3 43 89.5 L 46 84 L 50 82 L 50 79 Q 52.7 80.1 52 77.5 L 53 75 L 55 75 Q 53.9 72.3 56.5 73 L 59 72 L 57.5 69 Q 52.5 69.5 52 65.5 L 52 64 L 48 64 Q 49.1 61.3 46.5 62 L 41 59 L 41 57 Q 38.3 58.1 39 55.5 L 34 52 L 34 50 Q 31.3 51.1 32 48.5 L 29 43 L 25 41 L 25 38.5 L 22 35.5 L 20 29 L 18 29 L 18.5 23 Z " /><path fill="rgb(217,200,186)" stroke="rgb(217,200,186)" stroke-width="1" opacity="0.20392156862745098" d="M 179.5 33 L 180 36 Q 177.3 34.9 178 37.5 L 177 41 L 175 41 L 175 43 L 171 45 L 174 39 Q 177 40.3 176 36.5 L 179.5 33 Z " /><path fill="rgb(217,200,186)" stroke="rgb(217,200,186)" stroke-width="1" opacity="0.20392156862745098" d="M 169.5 46 Q 171.8 45.3 171 47.5 L 168 52 L 161 57.5 Q 161.7 60.1 159 59 L 159 61 L 155.5 61 L 154 64 Q 149.9 65.3 151 62 Q 154 63 153 60 L 155.5 60 L 162 55 L 169.5 46 Z " /><path fill="rgb(217,200,186)" stroke="rgb(217,200,186)" stroke-width="1" opacity="0.20392156862745098" d="M 148.5 64 Q 151.1 63.3 150 66 Q 147 65 148 68 L 145.5 68 L 143 69 Q 141.5 72.7 144.5 72 L 148 77 L 150 77 Q 148.9 79.7 151.5 79 L 155 84 Q 158 82.8 157 86.5 L 164 98.5 L 164 101.5 L 162 100.5 L 162 97 Q 159 98.3 160 94.5 L 153 83 L 151 83 L 151 81 Q 148.3 82.1 149 79.5 L 144 76 L 144 74 Q 141.3 75.1 142 72.5 L 141 69 L 146 67 Q 144.9 64.3 147.5 65 L 148.5 64 Z " /><path fill="rgb(217,200,186)" stroke="rgb(217,200,186)" stroke-width="1" opacity="0.20392156862745098" d="M 164.5 103 Q 167.3 104.4 166 109 L 168 109.5 L 168 142.5 Q 164.8 144 166 149 Q 163 150.3 164 146.5 L 165 141.5 L 167 139.5 L 167 112.5 L 165 110.5 L 164.5 103 Z " /><path fill="rgb(217,200,186)" stroke="rgb(217,200,186)" stroke-width="1" opacity="0.20392156862745098" d="M 34 116 Q 37 114.8 36 118.5 L 35 119.5 L 35 133.5 L 36 136.5 L 34 135.5 L 34 116 Z " /><path fill="rgb(217,200,186)" stroke="rgb(217,200,186)" stroke-width="1" opacity="0.20392156862745098" d="M 36.5 141 L 40 152.5 L 47 166 Q 49.7 164.9 49 167.5 L 56.5 176 Q 59.1 175.3 58 178 L 61 178 L 61 180 L 63 180 Q 61.9 182.7 64.5 182 L 71.5 187 L 83.5 192 L 92.5 192 L 94.5 194 L 107.5 194 L 109.5 192 Q 117.8 192.9 122 191 L 122 193 L 111.5 193 L 110.5 195 L 91.5 195 L 89.5 193 L 80 193 Q 81.3 189.3 75.5 191 L 66 185.5 L 66 184 L 62 184 Q 63.1 181.3 60.5 182 L 59 179 L 55 179 L 55 177.5 L 50 172.5 L 50 170 L 48 170 L 48 168 Q 45.3 169.1 46 166.5 Q 42.1 164.4 43 159 Q 40 160.3 41 156.5 L 37 150.5 L 36.5 141 Z " /><path fill="rgb(217,200,186)" stroke="rgb(217,200,186)" stroke-width="1" opacity="0.20392156862745098" d="M 163.5 150 L 164 153.5 L 161 161 L 159 161 L 159 165 L 157 165 L 157 168 Q 154.3 166.9 155 169.5 L 154 172 L 148 175 L 142.5 182 L 138 184 L 138 186 L 134 186 Q 135.3 189 131.5 188 Q 129.5 191.5 123.5 191 L 124.5 189 L 128 189 Q 126.8 186 130.5 187 L 142 180 L 142 178 L 144 178 Q 142.9 175.3 145.5 176 L 149 171 L 151 171 L 151 169 Q 153.7 170.1 153 167.5 L 157 163.5 L 160 155 Q 163.3 156.3 162 151.5 L 163.5 150 Z " /></svg>