<svg width="200" height="200" version="1.1" xmlns="http://www.w3.org/2000/svg" desc="Created with imagetracer.js version 1.2.6" ><path fill="rgb(0,0,0)" stroke="rgb(0,0,0)" stroke-width="1" opacity="0" d="M 0 0 L 200 0 L 200 200 L 0 200 L 0 0 Z M 87 4 L 86 5 Q 82 4 83 7 L 75 8 L 65 14 L 52 27 L 46 36 L 43 45 L 43 49 L 41 51 L 41 75 L 43 77 L 43 81 L 46 90 L 52 98 L 52 100 L 55 101 L 57 105 L 62 108 L 65 114 L 69 116 L 77 131 L 80 143 L 77 144 L 77 160 L 76 161 L 73 161 L 73 168 L 77 170 Q 78 175 75 176 L 73 177 L 73 182 L 77 182 Q 80 187 88 188 L 90 192 L 96 194 L 107 194 L 109 193 L 111 190 L 115 187 L 121 186 Q 124 183 124 177 L 127 175 L 127 168 L 125 167 L 124 162 L 127 160 L 127 154 L 125 153 L 124 147 L 121 142 L 124 130 Q 128 127 129 121 L 147 102 L 154 91 L 157 79 L 159 76 Q 158 70 160 69 L 159 51 L 153 35 Q 154 32 151 33 L 151 31 L 146 24 L 132 11 L 120 7 L 118 5 L 113 4 L 87 4 Z " /><path fill="rgb(251,215,64)" stroke="rgb(251,215,64)" stroke-width="1" opacity="0.7294117647058823" d="M 88.5 5 L 113.5 5 L 117.5 7 L 119.5 7 Q 136.5 12.5 146 25.5 L 147 29 L 150 30.5 L 154 37.5 L 153.5 39 Q 156.1 38.2 155 41.5 Q 157.8 43.2 157 48.5 L 159 50.5 L 159 68.5 L 159 70.5 L 159 75.5 Q 155.5 74.5 157 81.5 Q 151.7 87.6 150 96 L 147 97.5 Q 148.1 100.8 145.5 100 L 133 112.5 L 125 126.5 L 125.5 128 Q 122.9 127.2 124 130.5 L 119.5 144 L 119 138.5 L 121 130.5 L 127 118.5 L 145 99.5 L 154 83.5 L 157 73.5 L 158 57.5 L 155 44.5 L 150 33.5 L 137.5 19 Q 128.7 10.8 115.5 7 L 110.5 6 L 89.5 6 Q 65.7 11.2 54 28.5 L 48 37.5 L 43 52.5 L 43 72.5 L 48 87.5 L 52 94.5 L 74 119.5 L 80 132.5 L 82 144.5 L 81 144.5 L 79 139.5 L 79 137.5 L 75 124.5 L 66.5 112 L 64 110.5 L 62.5 108 Q 57.5 108.5 57 104.5 L 54 98 L 51 96.5 L 45 85.5 L 43 75.5 L 41 73.5 L 41 51.5 L 43 49.5 L 45 38 L 48 36.5 L 47 34.5 L 50 33 L 51 29.5 L 58.5 20 L 66 16 Q 64.9 13.3 67.5 14 Q 68.6 11.3 72 12 L 72.5 10 L 74 10.5 Q 73.3 8.3 75.5 9 L 88.5 5 Z " /><path fill="rgb(254,241,119)" stroke="rgb(254,241,119)" stroke-width="1" opacity="0.9372549019607843" d="M 109.5 13 L 117.5 14 L 128 20.5 Q 135.6 26.9 135 41.5 L 133 49.5 L 127 59 L 119.5 64 L 106.5 67 Q 94.4 64.6 88 56.5 Q 82.2 49.8 84 35.5 L 87 27.5 L 94.5 19 L 104.5 14 L 109.5 13 Z " /><path fill="rgb(254,241,119)" stroke="rgb(254,241,119)" stroke-width="1" opacity="0.9372549019607843" d="M 63.5 16 L 61.5 19 L 63.5 16 Z " /><path fill="rgb(254,241,119)" stroke="rgb(254,241,119)" stroke-width="1" opacity="0.9372549019607843" d="M 148.5 96 L 147.5 98 L 148.5 96 Z " /><path fill="rgb(254,241,119)" stroke="rgb(254,241,119)" stroke-width="1" opacity="0.9372549019607843" d="M 145.5 100 L 133.5 113 L 145.5 100 Z " /><path fill="rgb(254,241,119)" stroke="rgb(254,241,119)" stroke-width="1" opacity="0.9372549019607843" d="M 55.5 101 L 56.5 103 L 55.5 101 Z " /><path fill="rgb(246,195,62)" stroke="rgb(246,195,62)" stroke-width="1" opacity="0.9254901960784314" d="M 83.5 146 L 92 146.5 L 83.5 147 L 83.5 146 Z " /><path fill="rgb(246,195,62)" stroke="rgb(246,195,62)" stroke-width="1" opacity="0.9254901960784314" d="M 109.5 146 L 117 146.5 L 109.5 147 L 109.5 146 Z " /><path fill="rgb(254,177,47)" stroke="rgb(254,177,47)" stroke-width="1" opacity="1" d="M 87.5 59 L 89.5 59 L 95 63.5 Q 87 66 83 72.5 L 80 80.5 L 80 85.5 L 83 93.5 Q 90.7 98.8 94 108.5 L 98 128.5 L 98 140 L 102 140 L 102 133.5 L 107 106.5 L 119 90.5 L 120 78.5 L 113 66 L 119.5 65 Q 128.3 71.2 127 87.5 L 123 97.5 L 113 110.5 L 110 126.5 L 110 133.5 L 109 134.5 L 109 147 L 92.5 147 L 92 145.5 L 91 144.5 L 91 128.5 L 88 112.5 L 85 105.5 L 77 96.5 L 74 90.5 L 73 82.5 Q 75.5 81 74 75.5 L 77 69.5 L 84.5 61 L 87.5 59 Z " /><path fill="rgb(251,212,63)" stroke="rgb(251,212,63)" stroke-width="1" opacity="0.996078431372549" d="M 89.5 6 L 110.5 6 L 118.5 8 Q 134.3 13.7 144 25.5 Q 151.2 33.3 155 44.5 L 158 57.5 L 158 66.5 L 156.5 74 L 156 67.5 L 157 66.5 L 157 58.5 Q 154.5 57 156 51.5 L 154 49.5 L 154 46.5 L 149 33 Q 146.3 34.1 147 31.5 L 138.5 21 L 129.5 14 L 117.5 10 L 115.5 8 L 110.5 7 L 89.5 7 L 84.5 10 L 77.5 11 L 69 15 Q 70.1 17.7 67.5 17 L 61 22.5 L 59.5 25 L 55 28.5 L 53 34 L 51 33.5 Q 57.1 22.1 67.5 15 Q 76.6 8.6 89.5 6 Z " /><path fill="rgb(251,212,63)" stroke="rgb(251,212,63)" stroke-width="1" opacity="0.996078431372549" d="M 50.5 35 L 51 36.5 L 49 38.5 L 46 50.5 L 44 52.5 L 43.5 73 L 43 52.5 L 48 37.5 L 50.5 35 Z " /><path fill="rgb(251,212,63)" stroke="rgb(251,212,63)" stroke-width="1" opacity="0.996078431372549" d="M 44 74 Q 47.7 72.7 46 78.5 L 50 89.5 L 57 100 L 64 105.5 Q 63.3 107.8 65.5 107 L 70.5 114 L 73 115.5 L 80 128.5 L 83 145 L 91 145.5 L 82 146 L 80 132.5 L 74 119.5 L 52 94.5 Q 45.8 85.8 44 74 Z " /><path fill="rgb(251,212,63)" stroke="rgb(251,212,63)" stroke-width="1" opacity="0.996078431372549" d="M 154 75 Q 156.7 73.9 156 76.5 L 148 95.5 L 131 113.5 L 123.5 126 L 123 124.5 L 127.5 116 L 130 114.5 L 130 112.5 L 134.5 108 L 137 106.5 L 141.5 101 Q 143.8 101.8 143 99.5 L 151 87.5 L 154 75 Z " /><path fill="rgb(251,212,63)" stroke="rgb(251,212,63)" stroke-width="1" opacity="0.996078431372549" d="M 121 127 L 123 127.5 L 119 138.5 L 119 146 L 110 145.5 L 118 145 L 118 137.5 L 121 127 Z " /><path fill="rgb(252,213,63)" stroke="rgb(252,213,63)" stroke-width="1" opacity="1" d="M 89.5 7 L 110.5 7 L 115.5 8 L 117.5 10 L 129.5 14 L 143 25.5 L 147 33 Q 149.7 31.9 149 34.5 Q 153 40.5 154 49.5 L 156 51.5 L 157 66.5 L 156 67.5 L 156 75 Q 152.7 73.7 154 78.5 L 151 87.5 L 143 101 L 137 105.5 L 135.5 108 L 130 112.5 L 128.5 116 L 126 117.5 L 123 127 Q 120.3 125.9 121 128.5 L 118 137.5 L 118 145 L 110.5 145 L 109.5 146 L 109 134.5 L 110 133.5 L 110 126.5 L 113 110.5 L 126 91.5 L 127 78.5 Q 125.5 69.5 119.5 65 L 117 64.5 L 127 59 L 133 49.5 L 135 41.5 L 135 35.5 L 133 27.5 L 126.5 19 L 117.5 14 L 109.5 13 L 97.5 17 L 91 22.5 Q 85.8 27.3 84 35.5 L 84 47.5 Q 85.8 55.7 91.5 60 Q 96.8 66.2 107.5 67 L 115.5 65 L 115.5 66 Q 112.2 64.9 113 67.5 Q 121.2 72.8 120 87.5 L 116 95.5 L 107 106.5 L 103 124.5 L 102 140 L 98 140 L 98 128.5 L 93 105.5 L 83 93.5 L 80 85.5 L 80 80.5 Q 82 70.5 89.5 66 L 95 63.5 L 89.5 59 L 87.5 59 L 79 66.5 L 74 75.5 L 73 84.5 Q 75.3 85.8 74 90.5 L 77 96.5 L 85 105.5 L 88 112.5 L 91 128.5 L 91 144.5 L 92 145.5 L 90.5 145 L 83 145 L 83 140.5 L 80 128.5 L 71.5 114 L 69 112.5 L 65.5 107 Q 63.3 107.8 64 105.5 L 57 100 L 49 87.5 L 49 84.5 L 46 78.5 L 46 74 L 44 73.5 L 44 52.5 L 46 50.5 L 46 47.5 L 51 34 Q 53.7 35.1 53 32.5 L 58.5 25 L 61 23.5 L 65.5 18 L 69 17 Q 67.9 14.3 70.5 15 L 77.5 11 L 84.5 10 L 89.5 7 Z " /><path fill="rgb(211,210,205)" stroke="rgb(211,210,205)" stroke-width="1" opacity="0.7568627450980392" d="M 74.5 8 L 76 8.5 L 73.5 10 L 74.5 8 Z " /><path fill="rgb(211,210,205)" stroke="rgb(211,210,205)" stroke-width="1" opacity="0.7568627450980392" d="M 126.5 9 L 129 10.5 L 127.5 10 L 126.5 9 Z " /><path fill="rgb(211,210,205)" stroke="rgb(211,210,205)" stroke-width="1" opacity="0.7568627450980392" d="M 64.5 14 L 66 14.5 L 62.5 17 L 64.5 14 Z " /><path fill="rgb(211,210,205)" stroke="rgb(211,210,205)" stroke-width="1" opacity="0.7568627450980392" d="M 134.5 14 L 137 15.5 L 135.5 15 L 134.5 14 Z " /><path fill="rgb(211,210,205)" stroke="rgb(211,210,205)" stroke-width="1" opacity="0.7568627450980392" d="M 140.5 19 L 146 23.5 L 144.5 24 L 140.5 19 Z " /><path fill="rgb(211,210,205)" stroke="rgb(211,210,205)" stroke-width="1" opacity="0.7568627450980392" d="M 54.5 25 L 53.5 27 L 52 26.5 L 54.5 25 Z " /><path fill="rgb(211,210,205)" stroke="rgb(211,210,205)" stroke-width="1" opacity="0.7568627450980392" d="M 147.5 27 Q 149.8 26.3 149 28.5 L 147.5 27 Z " /><path fill="rgb(211,210,205)" stroke="rgb(211,210,205)" stroke-width="1" opacity="0.7568627450980392" d="M 51.5 28 L 51 29.5 L 50.5 31 L 50 29.5 L 51.5 28 Z " /><path fill="rgb(211,210,205)" stroke="rgb(211,210,205)" stroke-width="1" opacity="0.7568627450980392" d="M 42.5 49 L 41.5 51 L 42.5 49 Z " /><path fill="rgb(211,210,205)" stroke="rgb(211,210,205)" stroke-width="1" opacity="0.7568627450980392" d="M 48.5 91 L 50 93.5 L 48 92.5 L 48.5 91 Z " /><path fill="rgb(211,210,205)" stroke="rgb(211,210,205)" stroke-width="1" opacity="0.7568627450980392" d="M 149.5 96 L 147.5 99 L 149.5 96 Z " /><path fill="rgb(211,210,205)" stroke="rgb(211,210,205)" stroke-width="1" opacity="0.7568627450980392" d="M 52.5 98 L 54.5 101 L 52 99.5 L 52.5 98 Z " /><path fill="rgb(211,210,205)" stroke="rgb(211,210,205)" stroke-width="1" opacity="0.7568627450980392" d="M 145.5 101 L 146 103 L 143 104.5 L 141 107.5 L 137 110 L 135.5 113 L 133.5 114 L 145.5 101 Z " /><path fill="rgb(211,210,205)" stroke="rgb(211,210,205)" stroke-width="1" opacity="0.7568627450980392" d="M 64.5 111 L 67 112 L 69 115.5 L 67 116 L 64.5 111 Z " /><path fill="rgb(211,210,205)" stroke="rgb(211,210,205)" stroke-width="1" opacity="0.7568627450980392" d="M 131.5 116 L 133 116.5 L 130 118.5 L 131.5 116 Z " /><path fill="rgb(211,210,205)" stroke="rgb(211,210,205)" stroke-width="1" opacity="0.7568627450980392" d="M 120.5 142 L 124 146.5 L 125 153 L 127 153.5 L 124 164.5 L 125 167 Q 127.7 165.9 127 168.5 L 124 179 Q 121.3 180.1 122 177.5 L 123 175.5 L 120.5 174 L 115.5 176 L 81.5 181 L 80 182.5 L 84 185 L 83.5 187 L 76.5 182 L 73 182 L 74 177.5 L 73.5 176 L 78 174 L 78.5 176 L 94.5 172 L 117.5 169 L 123 166.5 Q 124.3 161.3 121.5 160 L 78 167 Q 79.1 169.7 76.5 169 L 73 167.5 L 74 163.5 Q 71.8 162.3 74.5 161 L 77.5 160 L 79.5 161 L 85.5 159 L 91.5 159 L 123 153 L 122 146.5 L 120 144.5 L 120.5 142 Z " /><path fill="rgb(211,210,205)" stroke="rgb(211,210,205)" stroke-width="1" opacity="0.7568627450980392" d="M 77 145 Q 80 144 79 147 Q 76 148 77 145 Z " /><path fill="rgb(211,210,205)" stroke="rgb(211,210,205)" stroke-width="1" opacity="0.7568627450980392" d="M 121 181 Q 123.7 179.9 123 182.5 L 120.5 186 L 117.5 187 L 116.5 185 Q 120.5 185.5 121 182.5 L 121 181 Z " /><path fill="rgb(211,210,205)" stroke="rgb(211,210,205)" stroke-width="1" opacity="0.7568627450980392" d="M 87.5 186 Q 91 191 98 192.5 L 95 194 L 94.5 192 L 92 193 L 91.5 191 L 90 191.5 L 87.5 188 L 86 187.5 L 87.5 186 Z " /><path fill="rgb(211,210,205)" stroke="rgb(211,210,205)" stroke-width="1" opacity="0.7568627450980392" d="M 112.5 186 L 113 187.5 L 111 191 L 109 191 Q 110.1 193.7 107.5 193 L 103 194 Q 101.8 191 105.5 192 L 112.5 186 Z " /><path fill="rgb(159,158,153)" stroke="rgb(159,158,153)" stroke-width="1" opacity="0.8509803921568627" d="M 87.5 4 L 113 4.5 L 87.5 5 L 83.5 6 L 83.5 5 L 87.5 4 Z " /><path fill="rgb(159,158,153)" stroke="rgb(159,158,153)" stroke-width="1" opacity="0.8509803921568627" d="M 114.5 5 L 117 5.5 L 114.5 6 L 114.5 5 Z " /><path fill="rgb(159,158,153)" stroke="rgb(159,158,153)" stroke-width="1" opacity="0.8509803921568627" d="M 72.5 9 L 71.5 11 L 72.5 9 Z " /><path fill="rgb(159,158,153)" stroke="rgb(159,158,153)" stroke-width="1" opacity="0.8509803921568627" d="M 129.5 10 L 134 13.5 L 131.5 12 L 129.5 10 Z " /><path fill="rgb(159,158,153)" stroke="rgb(159,158,153)" stroke-width="1" opacity="0.8509803921568627" d="M 69.5 11 L 68.5 13 L 69.5 11 Z " /><path fill="rgb(159,158,153)" stroke="rgb(159,158,153)" stroke-width="1" opacity="0.8509803921568627" d="M 137.5 16 L 141 18.5 L 139.5 19 L 137.5 16 Z " /><path fill="rgb(159,158,153)" stroke="rgb(159,158,153)" stroke-width="1" opacity="0.8509803921568627" d="M 61.5 17 L 59.5 20 L 61.5 17 Z " /><path fill="rgb(159,158,153)" stroke="rgb(159,158,153)" stroke-width="1" opacity="0.8509803921568627" d="M 55.5 23 L 53.5 26 L 55.5 23 Z " /><path fill="rgb(159,158,153)" stroke="rgb(159,158,153)" stroke-width="1" opacity="0.8509803921568627" d="M 149.5 29 L 150.5 31 L 149.5 29 Z " /><path fill="rgb(159,158,153)" stroke="rgb(159,158,153)" stroke-width="1" opacity="0.8509803921568627" d="M 46.5 35 L 47 37.5 L 46 37.5 L 46.5 35 Z " /><path fill="rgb(159,158,153)" stroke="rgb(159,158,153)" stroke-width="1" opacity="0.8509803921568627" d="M 159.5 56 L 160 68.5 L 158 69.5 L 159 68.5 L 159.5 56 Z " /><path fill="rgb(159,158,153)" stroke="rgb(159,158,153)" stroke-width="1" opacity="0.8509803921568627" d="M 155.5 85 L 155 86.5 L 152.5 92 L 152 90.5 L 155.5 85 Z " /><path fill="rgb(159,158,153)" stroke="rgb(159,158,153)" stroke-width="1" opacity="0.8509803921568627" d="M 45.5 86 L 48 91.5 L 47 91.5 L 45.5 86 Z " /><path fill="rgb(159,158,153)" stroke="rgb(159,158,153)" stroke-width="1" opacity="0.8509803921568627" d="M 149.5 97 L 147 100.5 L 146.5 102 L 146 100.5 L 149.5 97 Z " /><path fill="rgb(159,158,153)" stroke="rgb(159,158,153)" stroke-width="1" opacity="0.8509803921568627" d="M 144.5 103 L 143.5 105 L 144.5 103 Z " /><path fill="rgb(159,158,153)" stroke="rgb(159,158,153)" stroke-width="1" opacity="0.8509803921568627" d="M 65.5 113 L 66.5 115 L 65.5 113 Z " /><path fill="rgb(159,158,153)" stroke="rgb(159,158,153)" stroke-width="1" opacity="0.8509803921568627" d="M 134.5 113 L 132.5 116 L 134.5 113 Z " /><path fill="rgb(159,158,153)" stroke="rgb(159,158,153)" stroke-width="1" opacity="0.8509803921568627" d="M 70.5 119 L 75 126.5 L 74 126.5 L 70.5 119 Z " /><path fill="rgb(159,158,153)" stroke="rgb(159,158,153)" stroke-width="1" opacity="0.8509803921568627" d="M 127.5 122 L 128 123.5 L 126.5 126 L 126 124.5 L 127.5 122 Z " /><path fill="rgb(159,158,153)" stroke="rgb(159,158,153)" stroke-width="1" opacity="0.8509803921568627" d="M 121.5 139 L 121 140.5 L 122 142.5 L 120 141.5 L 121.5 139 Z " /><path fill="rgb(159,158,153)" stroke="rgb(159,158,153)" stroke-width="1" opacity="0.8509803921568627" d="M 79.5 140 L 81 146 L 83.5 147 L 117.5 147 L 120.5 145 L 122 146.5 L 123 153 L 78.5 161 L 77 159.5 L 77 147 Q 80 148 79 145 L 77 144.5 L 80 142.5 L 79.5 140 Z " /><path fill="rgb(159,158,153)" stroke="rgb(159,158,153)" stroke-width="1" opacity="0.8509803921568627" d="M 126.5 154 L 127 159.5 L 126 159.5 L 126.5 154 Z " /><path fill="rgb(159,158,153)" stroke="rgb(159,158,153)" stroke-width="1" opacity="0.8509803921568627" d="M 118.5 160 Q 122.3 159.3 123 161.5 Q 124.3 166.8 121.5 168 L 83.5 174 L 78.5 176 Q 76.3 174.3 77 169.5 L 78 167 L 107.5 163 L 118.5 160 Z " /><path fill="rgb(159,158,153)" stroke="rgb(159,158,153)" stroke-width="1" opacity="0.8509803921568627" d="M 73.5 163 L 74 166.5 L 73 166.5 L 73.5 163 Z " /><path fill="rgb(159,158,153)" stroke="rgb(159,158,153)" stroke-width="1" opacity="0.8509803921568627" d="M 126.5 169 L 127 174.5 L 126 174.5 L 126.5 169 Z " /><path fill="rgb(159,158,153)" stroke="rgb(159,158,153)" stroke-width="1" opacity="0.8509803921568627" d="M 120.5 174 L 123 175.5 L 122 179 L 124 179.5 L 121 181 L 120 183.5 L 120.5 185 L 118.5 185 L 116 185.5 L 116.5 187 L 113.5 188 L 112.5 186 Q 109.8 191.7 103 192 Q 104.4 196 97.5 194 L 97.5 192 L 94.5 193 L 94.5 191 L 87.5 186 L 84 187 Q 85.1 184.3 82.5 185 L 82.5 187 L 80 185.5 L 82 184.5 Q 78.3 182.8 81.5 181 L 115.5 176 L 120.5 174 Z " /><path fill="rgb(159,158,153)" stroke="rgb(159,158,153)" stroke-width="1" opacity="0.8509803921568627" d="M 73.5 177 L 74 179.5 L 73 179.5 L 73.5 177 Z " /></svg>