<svg width="200" height="200" version="1.1" xmlns="http://www.w3.org/2000/svg" desc="Created with imagetracer.js version 1.2.6" ><path fill="rgb(0,0,0)" stroke="rgb(0,0,0)" stroke-width="1" opacity="0" d="M 0 0 L 200 0 L 200 200 L 0 200 L 0 0 Z M 114 7 L 114 16 L 126 16 L 131 19 Q 133 18 132 21 L 135 21 L 143 31 L 144 32 L 144 37 L 146 37 L 147 46 L 152 48 L 154 47 L 154 31 L 151 27 L 151 23 L 147 18 Q 144 19 145 17 L 136 9 Q 130 10 131 7 L 114 7 Z M 102 18 L 102 26 L 108 28 L 118 28 L 118 30 Q 120 33 125 33 L 130 40 Q 129 43 132 42 Q 131 47 135 50 L 135 57 L 133 57 L 133 51 L 131 51 Q 131 46 128 44 Q 129 40 126 41 L 126 37 L 122 34 L 106 34 L 104 36 Q 100 35 102 39 L 100 39 L 100 47 L 94 43 L 80 43 L 74 47 Q 75 51 72 50 L 72 65 L 75 70 Q 74 73 77 72 L 77 75 L 76 74 L 65 74 L 63 76 L 60 76 Q 61 79 58 78 L 58 82 L 56 82 L 56 95 L 58 95 Q 57 101 61 103 L 61 106 L 56 106 L 56 108 Q 52 107 51 111 Q 52 114 49 113 L 49 129 L 51 129 L 51 132 L 57 139 Q 59 138 58 141 L 60 141 L 64 146 Q 66 145 65 148 L 67 148 L 67 150 L 72 154 L 74 154 L 84 165 L 84 166 L 93 173 Q 96 172 95 175 L 98 177 Q 97 179 100 178 L 100 180 L 103 180 L 114 187 Q 117 186 116 189 Q 119 188 121 191 Q 126 190 128 192 L 149 192 L 150 191 Q 157 193 156 189 Q 159 190 161 187 Q 164 188 163 185 L 167 185 L 167 183 L 170 182 L 172 182 L 174 178 L 176 178 L 178 175 L 179 175 L 179 171 L 183 169 L 186 162 Q 185 154 188 155 L 188 130 L 186 129 L 186 121 L 183 113 L 183 104 L 181 102 L 181 84 L 183 82 L 183 64 L 175 53 L 159 53 Q 159 56 155 55 Q 156 59 153 59 L 153 64 L 151 65 L 151 81 L 147 83 Q 147 76 142 74 Q 143 70 140 71 L 140 68 L 135 58 Q 138 57 138 60 L 144 60 L 144 46 L 142 44 Q 144 38 140 39 Q 139 31 133 27 Q 130 28 131 26 L 122 20 Q 116 21 117 18 L 102 18 Z M 16 106 L 16 124 L 17 128 L 21 132 Q 20 135 23 134 L 29 141 Q 31 140 30 143 L 33 145 L 41 148 L 58 148 L 57 142 L 57 140 L 45 140 L 44 136 Q 43 132 37 134 L 26 122 Q 27 118 24 119 L 22 109 L 22 106 L 16 106 Z M 3 119 L 3 127 L 5 128 L 5 136 Q 9 135 7 141 L 9 141 Q 8 147 13 148 Q 15 147 14 150 L 16 150 L 16 152 L 24 157 Q 29 156 29 159 L 43 159 L 44 156 L 43 150 Q 31 152 27 145 Q 23 146 24 143 L 21 142 Q 22 139 20 140 L 14 131 L 14 128 L 12 128 L 12 119 L 3 119 Z " /><path fill="rgb(253,199,64)" stroke="rgb(253,199,64)" stroke-width="1" opacity="0.9372549019607843" d="M 111.5 34 L 115.5 34 L 123 38 L 127 47 Q 124 48.3 125 44.5 Q 122.3 43.4 123 40 Q 120.3 41.1 121 38.5 L 119.5 37 L 107 36.5 L 111.5 34 Z " /><path fill="rgb(253,199,64)" stroke="rgb(253,199,64)" stroke-width="1" opacity="0.9372549019607843" d="M 102.5 41 L 101.5 43 L 102.5 41 Z " /><path fill="rgb(253,199,64)" stroke="rgb(253,199,64)" stroke-width="1" opacity="0.9372549019607843" d="M 86.5 43 L 94 46.5 L 92.5 47 L 91.5 46 L 82.5 46 L 78.5 47 L 79.5 45 L 86.5 43 Z " /><path fill="rgb(253,199,64)" stroke="rgb(253,199,64)" stroke-width="1" opacity="0.9372549019607843" d="M 95.5 47 L 96.5 49 Q 93.7 49.7 95.5 47 Z " /><path fill="rgb(253,199,64)" stroke="rgb(253,199,64)" stroke-width="1" opacity="0.9372549019607843" d="M 127.5 48 L 141 77 Q 144 76 143 79 L 139 77 L 139 73 Q 136 74.3 137 70.5 L 134 63 L 132 63 Q 133.7 57.8 130 59 L 130 54.5 L 127 50.5 L 127.5 48 Z " /><path fill="rgb(253,199,64)" stroke="rgb(253,199,64)" stroke-width="1" opacity="0.9372549019607843" d="M 97.5 50 L 99 52.5 L 97 51.5 L 97.5 50 Z " /><path fill="rgb(253,199,64)" stroke="rgb(253,199,64)" stroke-width="1" opacity="0.9372549019607843" d="M 166.5 54 Q 173 54.3 176 57 L 176 59 Q 178.7 57.9 178 60.5 L 180 64.5 L 178 63.5 L 178 61 L 176 61 Q 177.1 58.3 174.5 59 L 173 56 L 164 55.5 L 166.5 54 Z " /><path fill="rgb(253,199,64)" stroke="rgb(253,199,64)" stroke-width="1" opacity="0.9372549019607843" d="M 155.5 59 L 156 60.5 L 154.5 63 L 154 61.5 L 155.5 59 Z " /><path fill="rgb(253,199,64)" stroke="rgb(253,199,64)" stroke-width="1" opacity="0.9372549019607843" d="M 74.5 63 L 76 65.5 L 74 64.5 L 74.5 63 Z " /><path fill="rgb(253,199,64)" stroke="rgb(253,199,64)" stroke-width="1" opacity="0.9372549019607843" d="M 153.5 66 L 154 69.5 L 152.5 75 L 152 69.5 L 153.5 66 Z " /><path fill="rgb(253,199,64)" stroke="rgb(253,199,64)" stroke-width="1" opacity="0.9372549019607843" d="M 180.5 66 L 182 70.5 L 180.5 75 L 180.5 66 Z " /><path fill="rgb(253,199,64)" stroke="rgb(253,199,64)" stroke-width="1" opacity="0.9372549019607843" d="M 76.5 69 L 77.5 71 L 76.5 69 Z " /><path fill="rgb(253,199,64)" stroke="rgb(253,199,64)" stroke-width="1" opacity="0.9372549019607843" d="M 68.5 75 Q 73.8 73.8 75 76.5 L 67.5 77 L 68.5 75 Z " /><path fill="rgb(253,199,64)" stroke="rgb(253,199,64)" stroke-width="1" opacity="0.9372549019607843" d="M 62.5 77 Q 67.3 75.7 66 79 Q 61.8 79.1 62.5 77 Z " /><path fill="rgb(253,199,64)" stroke="rgb(253,199,64)" stroke-width="1" opacity="0.9372549019607843" d="M 76 77 L 78.5 78 L 80 77.5 L 80 79 L 76 79 L 76 77 Z " /><path fill="rgb(253,199,64)" stroke="rgb(253,199,64)" stroke-width="1" opacity="0.9372549019607843" d="M 143.5 80 L 149.5 88 L 151.5 84 L 152 88 L 148.5 89 L 146 88 L 143.5 80 Z " /><path fill="rgb(253,199,64)" stroke="rgb(253,199,64)" stroke-width="1" opacity="0.9372549019607843" d="M 178 80 L 180 80.5 L 180 105 L 178 104.5 L 178 80 Z " /><path fill="rgb(253,199,64)" stroke="rgb(253,199,64)" stroke-width="1" opacity="0.9372549019607843" d="M 58.5 84 L 59 85.5 L 57.5 91 L 57 86.5 L 58.5 84 Z " /><path fill="rgb(253,199,64)" stroke="rgb(253,199,64)" stroke-width="1" opacity="0.9372549019607843" d="M 60.5 98 L 61.5 100 L 60.5 98 Z " /><path fill="rgb(253,199,64)" stroke="rgb(253,199,64)" stroke-width="1" opacity="0.9372549019607843" d="M 62.5 107 Q 65.1 106.3 64 109 L 60 108.5 L 62.5 107 Z " /><path fill="rgb(253,199,64)" stroke="rgb(253,199,64)" stroke-width="1" opacity="0.9372549019607843" d="M 180.5 108 L 182 110.5 L 182 117.5 L 184 121.5 L 185 131.5 L 187 135.5 L 187 148.5 L 182 165 Q 179.3 166.1 180 163.5 Q 183.9 160.9 183 153.5 L 185 151.5 L 185 132.5 L 183 130.5 L 183 123.5 L 180 115.5 L 180.5 108 Z " /><path fill="rgb(253,199,64)" stroke="rgb(253,199,64)" stroke-width="1" opacity="0.9372549019607843" d="M 57.5 109 Q 60.1 108.3 59 111 L 55 110.5 L 57.5 109 Z " /><path fill="rgb(253,199,64)" stroke="rgb(253,199,64)" stroke-width="1" opacity="0.9372549019607843" d="M 53 112 L 55 112.5 L 54 116 L 52 116.5 L 52 125.5 L 55 131 Q 58 129.8 57 133.5 L 55 132.5 L 50 124.5 L 50 116 Q 52.7 117.1 52 114.5 L 53 112 Z " /><path fill="rgb(253,199,64)" stroke="rgb(253,199,64)" stroke-width="1" opacity="0.9372549019607843" d="M 58.5 135 L 61.5 139 Q 58.9 139.7 60 137 L 58 137 L 58.5 135 Z " /><path fill="rgb(253,199,64)" stroke="rgb(253,199,64)" stroke-width="1" opacity="0.9372549019607843" d="M 62.5 140 Q 65.1 139.3 64 142 L 66 142 L 66 143.5 L 62.5 140 Z " /><path fill="rgb(253,199,64)" stroke="rgb(253,199,64)" stroke-width="1" opacity="0.9372549019607843" d="M 67.5 144 L 68.5 146 Q 65.7 146.7 67.5 144 Z " /><path fill="rgb(253,199,64)" stroke="rgb(253,199,64)" stroke-width="1" opacity="0.9372549019607843" d="M 74.5 151 L 78 152 L 78 154 L 80 154 L 80 156 Q 82.7 154.9 82 157.5 L 85 159 L 85 161 L 87 161 L 87 163 L 89 163 Q 87.9 165.7 90.5 165 L 91.5 167 L 80 158 L 80 156 L 78 156 Q 79.1 153.3 76.5 154 L 74.5 151 Z " /><path fill="rgb(253,199,64)" stroke="rgb(253,199,64)" stroke-width="1" opacity="0.9372549019607843" d="M 178 166 Q 180.7 164.9 180 167.5 L 173 177 L 169 179 L 169 177 L 171 177 L 171 175 Q 173.7 176.1 173 173.5 L 176 172 L 178 166 Z " /><path fill="rgb(253,199,64)" stroke="rgb(253,199,64)" stroke-width="1" opacity="0.9372549019607843" d="M 94.5 170 L 96.5 170 L 103 175 L 103 177 L 106 177 L 108 181 L 106 181 Q 107.1 178.3 104.5 179 L 95.5 172 L 94.5 170 Z " /><path fill="rgb(253,199,64)" stroke="rgb(253,199,64)" stroke-width="1" opacity="0.9372549019607843" d="M 166.5 179 Q 169.1 178.3 168 181 L 155.5 188 L 153 188 L 153 186 L 157 186 Q 155.8 183 159.5 184 L 166.5 179 Z " /><path fill="rgb(253,199,64)" stroke="rgb(253,199,64)" stroke-width="1" opacity="0.9372549019607843" d="M 109.5 181 L 122 186 Q 123.1 188.7 120.5 188 L 110.5 183 L 109.5 181 Z " /><path fill="rgb(253,199,64)" stroke="rgb(253,199,64)" stroke-width="1" opacity="0.9372549019607843" d="M 125.5 188 Q 133.4 190.6 145.5 189 L 150.5 188 L 149.5 190 L 134.5 191 Q 132.8 188.3 126.5 190 L 125.5 188 Z " /><path fill="rgb(246,220,159)" stroke="rgb(246,220,159)" stroke-width="1" opacity="0.4980392156862745" d="M 138 11 L 141 12.5 L 138 13 L 138 11 Z " /><path fill="rgb(246,220,159)" stroke="rgb(246,220,159)" stroke-width="1" opacity="0.4980392156862745" d="M 115.5 14 L 114.5 16 L 115.5 14 Z " /><path fill="rgb(246,220,159)" stroke="rgb(246,220,159)" stroke-width="1" opacity="0.4980392156862745" d="M 108 26 L 113 27.5 L 108 28 L 108 26 Z " /><path fill="rgb(246,220,159)" stroke="rgb(246,220,159)" stroke-width="1" opacity="0.4980392156862745" d="M 140.5 27 L 143 28.5 L 140 29 L 140.5 27 Z " /><path fill="rgb(246,220,159)" stroke="rgb(246,220,159)" stroke-width="1" opacity="0.4980392156862745" d="M 136.5 32 L 137.5 34 Q 134.7 34.7 136.5 32 Z " /><path fill="rgb(246,220,159)" stroke="rgb(246,220,159)" stroke-width="1" opacity="0.4980392156862745" d="M 106.5 34 L 111 34.5 L 104 38.5 L 100.5 43 L 100 39 L 102 39 Q 100.5 35.2 103.5 36 L 106.5 34 Z " /><path fill="rgb(246,220,159)" stroke="rgb(246,220,159)" stroke-width="1" opacity="0.4980392156862745" d="M 116.5 34 L 122 34 L 122 36 Q 124.7 34.9 124 37.5 L 126 37.5 Q 124.5 41.9 127.5 41 L 128 43.5 L 129 48 Q 132.3 46.7 131 51.5 L 133 51.5 L 133 56.5 Q 136.9 58.6 136 64 Q 138.7 62.9 138 65.5 L 144.5 77 Q 146.8 76.3 146 78.5 L 145.5 80 Q 148.1 79.2 147 82.5 L 148.5 84 L 152 81.5 L 149.5 88 L 143 79.5 L 143 77 Q 140.3 78.1 141 75.5 L 123 38 L 116.5 35 L 116.5 34 Z " /><path fill="rgb(246,220,159)" stroke="rgb(246,220,159)" stroke-width="1" opacity="0.4980392156862745" d="M 145.5 35 L 144.5 37 L 145.5 35 Z " /><path fill="rgb(246,220,159)" stroke="rgb(246,220,159)" stroke-width="1" opacity="0.4980392156862745" d="M 79 43 L 86 43.5 L 76 47 L 74 54 Q 70.3 55.2 72 50 L 74 50 L 74 47 L 76 47 Q 74.5 43.2 77.5 44 L 79 44.5 L 79 43 Z " /><path fill="rgb(246,220,159)" stroke="rgb(246,220,159)" stroke-width="1" opacity="0.4980392156862745" d="M 88.5 43 L 93.5 43 L 94 45 L 96.5 45 Q 99.8 46.2 99 50 Q 101.7 48.9 101 51.5 L 99.5 54 L 95.5 47 L 88.5 44 L 88.5 43 Z " /><path fill="rgb(246,220,159)" stroke="rgb(246,220,159)" stroke-width="1" opacity="0.4980392156862745" d="M 160.5 53 L 163 53.5 L 157 57 L 157 59 Q 154.3 57.9 155 60.5 L 153.5 63 L 153 59 Q 156.7 60.2 155 55 L 158.5 55 L 160.5 53 Z " /><path fill="rgb(246,220,159)" stroke="rgb(246,220,159)" stroke-width="1" opacity="0.4980392156862745" d="M 166.5 53 Q 175 51 177 55.5 Q 176.3 57.8 178.5 57 Q 181 58.2 180 62 Q 184 60.6 182 67.5 L 181 67.5 L 178 59 L 176 59 Q 177.1 56.3 174.5 57 Q 172.5 53.5 166.5 54 L 166.5 53 Z " /><path fill="rgb(246,220,159)" stroke="rgb(246,220,159)" stroke-width="1" opacity="0.4980392156862745" d="M 72.5 60 L 76 68.5 L 74 67.5 Q 71 64.8 72.5 60 Z " /><path fill="rgb(246,220,159)" stroke="rgb(246,220,159)" stroke-width="1" opacity="0.4980392156862745" d="M 152.5 64 Q 154.8 63.3 154 65.5 L 153 69 Q 150.3 70.1 151 67.5 L 152.5 64 Z " /><path fill="rgb(246,220,159)" stroke="rgb(246,220,159)" stroke-width="1" opacity="0.4980392156862745" d="M 76.5 70 L 77.5 72 Q 74.7 72.7 76.5 70 Z " /><path fill="rgb(246,220,159)" stroke="rgb(246,220,159)" stroke-width="1" opacity="0.4980392156862745" d="M 181.5 71 L 182 80.5 L 183 81.5 L 180 83 Q 179 75.7 181.5 71 Z " /><path fill="rgb(246,220,159)" stroke="rgb(246,220,159)" stroke-width="1" opacity="0.4980392156862745" d="M 64.5 74 L 68 75.5 Q 67.3 77.8 63.5 77 L 64 75.5 L 64.5 74 Z " /><path fill="rgb(246,220,159)" stroke="rgb(246,220,159)" stroke-width="1" opacity="0.4980392156862745" d="M 74.5 75 L 77.5 76 L 80 75 L 78.5 78 Q 74.5 77.5 74.5 75 Z " /><path fill="rgb(246,220,159)" stroke="rgb(246,220,159)" stroke-width="1" opacity="0.4980392156862745" d="M 61.5 76 L 62 78.5 Q 58 80.8 58 86 Q 55 87.3 56 83.5 L 61.5 76 Z " /><path fill="rgb(246,220,159)" stroke="rgb(246,220,159)" stroke-width="1" opacity="0.4980392156862745" d="M 56 91 Q 58.7 89.9 58 92.5 L 59 95 L 56 93.5 L 56 91 Z " /><path fill="rgb(246,220,159)" stroke="rgb(246,220,159)" stroke-width="1" opacity="0.4980392156862745" d="M 180.5 95 L 181 103 L 183 103.5 L 181.5 110 L 180 107.5 L 180.5 95 Z " /><path fill="rgb(246,220,159)" stroke="rgb(246,220,159)" stroke-width="1" opacity="0.4980392156862745" d="M 58.5 96 L 65 107 L 55 110 L 55 112 Q 52.3 110.9 53 113.5 L 52 116 L 50 116.5 L 50 124.5 L 58 137 L 60 137 L 60 139 Q 62.7 137.9 62 140.5 L 67 144 L 67 146 L 69 146 Q 67.9 148.7 70.5 148 L 72 151 L 78 154 L 78 156 L 80 156 Q 78.9 158.7 81.5 158 L 90.5 167 L 92 167 L 92 169 Q 94.7 167.9 94 170.5 L 106 179 Q 104.8 182 108.5 181 L 120.5 188 Q 125 187 126 189.5 L 120.5 191 L 118.5 188 L 116.5 189 L 116 187 L 113 187 L 113 185 L 109 185 L 109 183.5 Q 106.7 185.2 104.5 181 L 97 175.5 L 96.5 174 L 95 174.5 Q 95.8 172.3 93.5 173 L 88 169 L 85.5 165 L 84 165.5 L 84.5 164 L 77.5 158 L 76 155 Q 73.3 156.1 74 153.5 L 72.5 154 L 71 154 Q 72.5 150.2 69.5 151 L 62 142 L 55 136.5 Q 56.1 133.2 53.5 134 Q 50.3 132.7 50.5 128 L 49 128.5 L 49.5 113 L 51 113.5 Q 50.3 109.8 52.5 109 L 62 106 L 61 103.5 L 61.5 102 Q 58.9 102.7 60 100 L 58 100 L 58.5 96 Z " /><path fill="rgb(246,220,159)" stroke="rgb(246,220,159)" stroke-width="1" opacity="0.4980392156862745" d="M 22.5 109 L 23 112.5 L 22 112.5 L 22.5 109 Z " /><path fill="rgb(246,220,159)" stroke="rgb(246,220,159)" stroke-width="1" opacity="0.4980392156862745" d="M 182 113 Q 185.7 111.7 184 117.5 Q 187.2 120.8 186 128.5 L 188 130.5 L 188 153.5 L 186 155.5 L 186 161.5 L 182 169 L 180 169.5 L 180.5 171 Q 177.5 170.1 179 174.5 L 177 174.5 Q 177.8 176.8 175.5 176 L 175.5 178 L 172 179.5 L 171.5 182 L 168.5 181 L 168.5 183 Q 164.8 182 166 185 L 163 185 L 163 187 L 159.5 187 L 156 188 L 155.5 191 L 150 189.5 Q 151 187 155.5 188 L 168 181 L 168 179 L 171 179 L 171 177 Q 173.7 178.1 173 175.5 Q 178.8 171.9 180 165 Q 183 166.3 182 162.5 L 187 148.5 L 187 135.5 L 185 131.5 L 185 126.5 L 182 117.5 L 182 113 Z " /><path fill="rgb(246,220,159)" stroke="rgb(246,220,159)" stroke-width="1" opacity="0.4980392156862745" d="M 27.5 124 L 28.5 126 Q 25.7 126.7 27.5 124 Z " /><path fill="rgb(246,220,159)" stroke="rgb(246,220,159)" stroke-width="1" opacity="0.4980392156862745" d="M 33.5 132 L 36 133.5 L 34.5 134 L 33.5 132 Z " /><path fill="rgb(246,220,159)" stroke="rgb(246,220,159)" stroke-width="1" opacity="0.4980392156862745" d="M 37 135 L 44 135.5 L 42.5 139 L 42 136 L 37.5 137 L 37 135 Z " /><path fill="rgb(246,220,159)" stroke="rgb(246,220,159)" stroke-width="1" opacity="0.4980392156862745" d="M 20.5 140 L 20.5 142 L 22 142.5 L 20.5 143 Q 17.5 141.5 20.5 140 Z " /><path fill="rgb(246,220,159)" stroke="rgb(246,220,159)" stroke-width="1" opacity="0.4980392156862745" d="M 55 140 Q 57.7 138.9 57 141.5 Q 59.3 142.8 58 147.5 L 57 147.5 L 57 142.5 Q 54.3 143.1 55 140 Z " /><path fill="rgb(246,220,159)" stroke="rgb(246,220,159)" stroke-width="1" opacity="0.4980392156862745" d="M 23.5 143 L 24.5 146 L 27 146.5 L 24.5 147 Q 20 145 23.5 143 Z " /><path fill="rgb(246,220,159)" stroke="rgb(246,220,159)" stroke-width="1" opacity="0.4980392156862745" d="M 31.5 143 L 34 143.5 L 31.5 144 L 31.5 143 Z " /><path fill="rgb(246,220,159)" stroke="rgb(246,220,159)" stroke-width="1" opacity="0.4980392156862745" d="M 10.5 145 L 11.5 147 L 10.5 145 Z " /><path fill="rgb(246,220,159)" stroke="rgb(246,220,159)" stroke-width="1" opacity="0.4980392156862745" d="M 36.5 145 L 37.5 147 Q 34.7 147.7 36.5 145 Z " /><path fill="rgb(246,220,159)" stroke="rgb(246,220,159)" stroke-width="1" opacity="0.4980392156862745" d="M 17.5 152 L 18.5 154 L 17.5 152 Z " /><path fill="rgb(246,220,159)" stroke="rgb(246,220,159)" stroke-width="1" opacity="0.4980392156862745" d="M 127 190 L 141.5 191 L 142.5 190 L 149 190 L 148.5 192 L 127 192 L 127 190 Z " /><path fill="rgb(221,139,14)" stroke="rgb(221,139,14)" stroke-width="1" opacity="0.9686274509803922" d="M 106.5 36 L 108 38.5 L 106 40.5 L 106 49.5 L 108 51.5 L 111 62.5 L 113 64.5 L 113 68 Q 116.3 66.7 115 71.5 L 120 79.5 L 120 82 Q 123 80.8 122 84.5 Q 125.3 86 124 91 L 120.5 92 L 116 88.5 L 115 84 L 113 84 L 113 80 Q 110 81.3 111 77.5 L 101 53.5 L 100 43 L 103 41.5 L 104 38 Q 106.8 39 106.5 36 Z " /><path fill="rgb(221,139,14)" stroke="rgb(221,139,14)" stroke-width="1" opacity="0.9686274509803922" d="M 77.5 47 L 80 47.5 Q 77.2 49.2 78 54.5 L 81 64.5 L 83 66.5 L 83 70 Q 86 68.8 85 72.5 L 92 83.5 L 92 86 Q 95 84.8 94 88.5 L 102 98.5 L 104 104.5 L 103 107 Q 98.3 108 97 104.5 L 95 101.5 L 86 88.5 L 85 84 Q 82.3 85.1 83 82.5 L 79 73 L 77 72.5 L 78 70.5 L 76 68.5 L 74 60 L 72 60 L 72 54 Q 74.7 55.1 74 52.5 L 77.5 47 Z " /><path fill="rgb(221,139,14)" stroke="rgb(221,139,14)" stroke-width="1" opacity="0.9686274509803922" d="M 163 53 Q 167.1 51.7 166 55 Q 163.3 53.9 164 56.5 L 159 66.5 L 159 80 L 157 80.5 L 157 92.5 Q 156 95 151.5 94 Q 149.3 93.3 150 89.5 Q 153.5 88 152 81.5 L 151 75 Q 154.7 76.3 153 70.5 Q 155.3 69.3 154 64.5 L 153.5 63 Q 155.8 63.8 155 61.5 L 157 57 L 163 55 L 163 53 Z " /><path fill="rgb(221,139,14)" stroke="rgb(221,139,14)" stroke-width="1" opacity="0.9686274509803922" d="M 62.5 78 Q 65.9 77.1 64 82.5 L 63 84.5 Q 65.5 86 64 91.5 L 67 98 L 69 98 L 69 101 Q 71.7 99.9 71 102.5 L 74 107 L 76 107 Q 74.9 109.7 77.5 109 L 81 114 L 83 114 Q 81.9 116.7 84.5 116 L 92 122 L 94 128 L 89.5 130 L 86 128 L 84.5 125 L 79.5 121 L 76 116 L 74 116 Q 75.1 113.3 72.5 114 L 69 109 Q 66.3 110.1 67 107.5 L 66 105 L 64 105 L 64 102 Q 61 103.3 62 99.5 L 60 96 L 58 95.5 L 59 92.5 Q 56.7 91.3 58 86.5 L 60 80.5 L 62.5 78 Z " /><path fill="rgb(254,200,61)" stroke="rgb(254,200,61)" stroke-width="1" opacity="0.996078431372549" d="M 110.5 26 L 113 26.5 L 110.5 27 L 110.5 26 Z " /><path fill="rgb(254,200,61)" stroke="rgb(254,200,61)" stroke-width="1" opacity="0.996078431372549" d="M 108 37 L 110 37.5 L 109 42 Q 105.7 40.7 107 45.5 L 109 47.5 L 110 57 L 112 57 L 112 62 L 114 62 L 114 66 Q 117 64.8 116 68.5 L 117 73 Q 120 71.8 119 75.5 Q 121.8 76.6 121 80 Q 124 78.8 123 82.5 L 126 89.5 L 122.5 94 L 119.5 94 L 116 92 L 114 86 Q 111 87.3 112 83.5 L 103 65.5 L 102 58 L 100 58 L 100 55 L 96 53 L 96 49.5 L 97 49.5 Q 96.5 53.5 99.5 54 Q 102.8 52.9 102 55.5 L 111 80 L 113 80 L 113 84 Q 116 82.8 115 86.5 L 118.5 91 L 121.5 92 L 124 91 L 124 86.5 Q 121.3 85.4 122 82 Q 119 83.3 120 79.5 L 115 71.5 L 115 68 Q 111.7 69.3 113 64.5 L 111 62.5 L 108 51.5 L 106 49.5 L 106 40.5 L 108 37 Z " /><path fill="rgb(254,200,61)" stroke="rgb(254,200,61)" stroke-width="1" opacity="0.996078431372549" d="M 119.5 37 L 120.5 39 L 119.5 37 Z " /><path fill="rgb(254,200,61)" stroke="rgb(254,200,61)" stroke-width="1" opacity="0.996078431372549" d="M 123.5 43 L 125 47 Q 128.3 45.7 127 50.5 L 126 50.5 L 123.5 43 Z " /><path fill="rgb(254,200,61)" stroke="rgb(254,200,61)" stroke-width="1" opacity="0.996078431372549" d="M 91.5 46 L 95 47.5 L 91 48 L 91.5 46 Z " /><path fill="rgb(254,200,61)" stroke="rgb(254,200,61)" stroke-width="1" opacity="0.996078431372549" d="M 80.5 47 L 82 47.5 Q 79 49.5 80 55.5 Q 82.8 58.5 82 64 Q 85.3 62.7 84 67.5 L 89 75.5 L 89 78 Q 92 76.8 91 80.5 Q 95.3 83.4 96 89 L 98 89 L 98 92 Q 100.7 90.9 100 93.5 L 103 99 L 105 99.5 L 105 108 L 97.5 108 L 95 105.5 L 91 99.5 L 91 97 Q 88.3 98.1 89 95.5 L 78.5 80 L 74.5 78 L 66 77.5 L 76 77 Q 74.8 80.7 80 79 L 80.5 77 L 83 84 Q 86 82.8 85 86.5 L 95 103 Q 97.7 101.9 97 104.5 Q 98.3 108 103 107 L 104 102.5 L 94 88.5 L 94 86 Q 91 87.3 92 83.5 Q 86.5 78.4 85 70 Q 81.7 71.3 83 66.5 L 80 61.5 L 78 50.5 L 80.5 47 Z " /><path fill="rgb(254,200,61)" stroke="rgb(254,200,61)" stroke-width="1" opacity="0.996078431372549" d="M 128.5 52 L 130 54.5 L 128 53.5 L 128.5 52 Z " /><path fill="rgb(254,200,61)" stroke="rgb(254,200,61)" stroke-width="1" opacity="0.996078431372549" d="M 164.5 56 Q 166.8 55.3 166 57.5 L 165 60 Q 162 58.8 163 62.5 Q 160.8 63.8 162 68.5 L 160 70.5 L 160 86 L 158 86.5 L 158 95 L 149 95 L 149 90 Q 146.3 91.1 147 88.5 L 148.5 89 L 150.5 88 L 150 89.5 Q 149.3 93.3 151.5 94 Q 156 95 157 92.5 L 157 80.5 L 159 79.5 L 159 66.5 L 164.5 56 Z " /><path fill="rgb(254,200,61)" stroke="rgb(254,200,61)" stroke-width="1" opacity="0.996078431372549" d="M 130.5 59 Q 133.5 58.1 132 62.5 L 131 62.5 L 130.5 59 Z " /><path fill="rgb(254,200,61)" stroke="rgb(254,200,61)" stroke-width="1" opacity="0.996078431372549" d="M 177.5 61 L 180 65.5 L 180 80 L 178 80.5 L 178 105 L 180 105.5 L 180 115.5 L 179 115.5 L 179 106.5 L 177 104.5 L 177 79 L 179 78.5 L 179 65 Q 175.2 66.2 177.5 61 Z " /><path fill="rgb(254,200,61)" stroke="rgb(254,200,61)" stroke-width="1" opacity="0.996078431372549" d="M 133.5 63 L 135 66.5 L 133 67 L 133.5 63 Z " /><path fill="rgb(254,200,61)" stroke="rgb(254,200,61)" stroke-width="1" opacity="0.996078431372549" d="M 135.5 68 L 137 70.5 L 135 69.5 L 135.5 68 Z " /><path fill="rgb(254,200,61)" stroke="rgb(254,200,61)" stroke-width="1" opacity="0.996078431372549" d="M 64 79 L 66 79.5 L 65 80.5 L 65 89.5 L 66 94 L 68 94 L 68 97 Q 70.7 95.9 70 98.5 L 73 103 L 75 103 Q 73.9 105.7 76.5 105 L 78 108 L 80 108 L 80 110 L 82 110 L 82 112 Q 84.7 110.9 84 113.5 L 87 115 Q 85.9 117.7 88.5 117 L 95 123.5 L 95 127.5 L 92.5 131 L 87.5 131 L 78.5 122 L 77 122 L 77 120 Q 74.3 121.1 75 118.5 L 70 115 L 70 113 Q 67.3 114.1 68 111.5 Q 66.3 107.2 64.5 110 L 59 109.5 L 64 109 Q 62.9 105.7 67 107 L 67 109 Q 69.7 107.9 69 110.5 L 74 114 L 74 116 Q 76.7 114.9 76 117.5 L 81 121 L 81 123 L 83 123 Q 81.9 125.7 84.5 125 L 86 128 L 89.5 130 L 94 128 L 92 122 L 83 116 L 83 114 Q 80.3 115.1 81 112.5 L 76 109 L 76 107 Q 73.3 108.1 74 105.5 L 71 101 L 69 101 L 69 98 Q 66.3 99.1 67 96.5 L 64 91.5 L 63 83.5 L 64 79 Z " /><path fill="rgb(254,200,61)" stroke="rgb(254,200,61)" stroke-width="1" opacity="0.996078431372549" d="M 142.5 79 L 144 82.5 L 142 83 L 142.5 79 Z " /><path fill="rgb(254,200,61)" stroke="rgb(254,200,61)" stroke-width="1" opacity="0.996078431372549" d="M 181.5 119 L 182 122.5 L 181 122.5 L 181.5 119 Z " /><path fill="rgb(254,200,61)" stroke="rgb(254,200,61)" stroke-width="1" opacity="0.996078431372549" d="M 52.5 125 L 53.5 127 L 52.5 125 Z " /><path fill="rgb(254,200,61)" stroke="rgb(254,200,61)" stroke-width="1" opacity="0.996078431372549" d="M 57.5 131 L 59 134.5 L 57 135 L 57.5 131 Z " /><path fill="rgb(254,200,61)" stroke="rgb(254,200,61)" stroke-width="1" opacity="0.996078431372549" d="M 38.5 136 Q 43.3 134.7 42 138 Q 37.8 138.1 38.5 136 Z " /><path fill="rgb(254,200,61)" stroke="rgb(254,200,61)" stroke-width="1" opacity="0.996078431372549" d="M 64.5 140 L 65.5 142 Q 62.7 142.7 64.5 140 Z " /><path fill="rgb(254,200,61)" stroke="rgb(254,200,61)" stroke-width="1" opacity="0.996078431372549" d="M 71.5 147 L 72.5 149 Q 69.7 149.7 71.5 147 Z " /><path fill="rgb(254,200,61)" stroke="rgb(254,200,61)" stroke-width="1" opacity="0.996078431372549" d="M 73.5 150 Q 77.9 148.5 77 151.5 L 75.5 151 Q 72.5 151.5 73.5 150 Z " /><path fill="rgb(254,200,61)" stroke="rgb(254,200,61)" stroke-width="1" opacity="0.996078431372549" d="M 82.5 157 Q 84.8 156.3 84 158.5 L 82.5 157 Z " /><path fill="rgb(254,200,61)" stroke="rgb(254,200,61)" stroke-width="1" opacity="0.996078431372549" d="M 179 162 L 181 162.5 L 179.5 166 L 179 162 Z " /><path fill="rgb(254,200,61)" stroke="rgb(254,200,61)" stroke-width="1" opacity="0.996078431372549" d="M 177.5 167 L 176.5 169 L 177.5 167 Z " /><path fill="rgb(254,200,61)" stroke="rgb(254,200,61)" stroke-width="1" opacity="0.996078431372549" d="M 94.5 168 L 95.5 170 Q 92.7 170.7 94.5 168 Z " /><path fill="rgb(254,200,61)" stroke="rgb(254,200,61)" stroke-width="1" opacity="0.996078431372549" d="M 97.5 170 L 102 173 L 101.5 175 L 97.5 170 Z " /><path fill="rgb(254,200,61)" stroke="rgb(254,200,61)" stroke-width="1" opacity="0.996078431372549" d="M 170.5 175 L 171 177 L 169 176.5 L 170.5 175 Z " /><path fill="rgb(254,200,61)" stroke="rgb(254,200,61)" stroke-width="1" opacity="0.996078431372549" d="M 106.5 177 L 112 180.5 L 108 181 Q 109 178 106 179 L 106.5 177 Z " /><path fill="rgb(254,200,61)" stroke="rgb(254,200,61)" stroke-width="1" opacity="0.996078431372549" d="M 165 178 L 169 178.5 L 163.5 182 L 163 180 Q 166 181 165 178 Z " /><path fill="rgb(254,200,61)" stroke="rgb(254,200,61)" stroke-width="1" opacity="0.996078431372549" d="M 114.5 182 Q 116.8 181.3 116 183.5 L 114.5 182 Z " /><path fill="rgb(254,200,61)" stroke="rgb(254,200,61)" stroke-width="1" opacity="0.996078431372549" d="M 118.5 184 L 123.5 187 Q 128.8 185.8 130 188.5 L 128.5 188 L 122.5 188 L 122 186 L 119.5 186 L 118.5 184 Z " /><path fill="rgb(254,200,61)" stroke="rgb(254,200,61)" stroke-width="1" opacity="0.996078431372549" d="M 156.5 184 L 157 186 L 153 185.5 L 156.5 184 Z " /><path fill="rgb(254,200,61)" stroke="rgb(254,200,61)" stroke-width="1" opacity="0.996078431372549" d="M 146.5 187 L 153 187.5 L 146.5 188 L 146.5 187 Z " /><path fill="rgb(82,146,250)" stroke="rgb(82,146,250)" stroke-width="1" opacity="0.9686274509803922" d="M 117.5 8 L 126.5 8 L 141 15 L 141 17 L 143 17 Q 141.9 19.7 144.5 19 L 148 25 Q 151.3 23.7 150 28.5 L 154 36.5 L 154 43.5 L 150 46.5 L 150 45 L 148 44.5 L 148 38.5 L 145 29 Q 142 30.3 143 26.5 L 140 22 Q 137 23 138 20 L 134.5 20 L 133 17 L 128.5 15 L 118.5 14 L 115 11.5 L 117.5 8 Z " /><path fill="rgb(82,146,250)" stroke="rgb(82,146,250)" stroke-width="1" opacity="0.9686274509803922" d="M 104.5 19 L 117.5 20 L 129 26 L 130.5 29 Q 133.1 28.3 132 31 L 134 31 L 134 33 L 136 33 L 136 35.5 L 143 49.5 L 143 57.5 Q 141.8 60 138 59 L 136 51.5 L 136 45 Q 133 46.3 134 42.5 L 131 36 L 129 36 L 129 34 Q 126.3 35.1 127 32.5 L 122.5 29 L 120 29 Q 121.3 25.7 116.5 27 L 114.5 27 L 103 24 Q 102 20.2 104.5 19 Z " /><path fill="rgb(82,146,250)" stroke="rgb(82,146,250)" stroke-width="1" opacity="0.9686274509803922" d="M 17 107 Q 20.8 106.3 22 109.5 L 23 120.5 L 30 132 L 32 132 Q 30.9 134.7 33.5 134 L 36.5 137 Q 41.6 136.4 43 139.5 Q 42.5 142.5 49.5 141 L 55 142 Q 53.9 144.7 56.5 144 L 54.5 147 Q 49.7 145.8 48.5 148 L 40.5 146 L 29 139 L 29 137 L 27 137 L 27 135 Q 24.3 136.1 25 133.5 L 22 128 Q 19 129.3 20 125.5 L 16 116.5 L 16 109.5 L 17 107 Z " /><path fill="rgb(82,146,250)" stroke="rgb(82,146,250)" stroke-width="1" opacity="0.9686274509803922" d="M 6 120 L 11 121 L 11 129.5 Q 14.3 128.5 13 134.5 L 19.5 144 Q 22.1 143.3 21 146 L 23.5 146 L 29.5 151 L 36.5 151 Q 38.5 153.8 43 153 Q 44 156.8 41.5 158 L 32.5 158 L 20 153 L 20 151 Q 17.3 152.1 18 149.5 L 13 146 Q 14 143 11 144 L 11 141.5 L 6 132.5 Q 7.3 125.7 5 122.5 L 6 120 Z " /><path fill="rgb(255,200,61)" stroke="rgb(255,200,61)" stroke-width="1" opacity="1" d="M 110.5 37 Q 121 35 123 41.5 L 126 51 Q 129 49.8 128 53.5 L 130 55.5 L 131 63 L 133 63 L 133 67 Q 136 65.8 135 69.5 Q 137.8 70.6 137 74 Q 140 72.8 139 76.5 L 140 79 L 142 79 L 142 83 L 144 83 L 144 86 Q 146.7 84.9 146 87.5 L 147 90 L 149 90 L 149 95 L 158 95 L 158 86.5 L 160 85.5 L 160 70.5 L 162 68.5 L 163 60 Q 165.7 61.1 165 58.5 L 166 56 L 172 56 L 172 58 L 174 58 Q 172.9 60.7 175.5 60 Q 178 61.2 177 65 L 179 65.5 L 179 79 L 177 79.5 L 177 104.5 L 179 106.5 L 179 116 L 181 116 L 181 122.5 L 183 123.5 L 183 131.5 L 185 132.5 L 185 152 L 183 152 L 183 159 L 181 159 Q 182.3 163.1 179 162 L 179 165.5 Q 175.2 166.8 176 171 L 174 171 L 174 173 L 172 173 Q 173.1 175.7 170.5 175 L 169 178 L 165 178 L 163 182 Q 158.9 180.7 160 184 L 156.5 184 L 153 185 L 153 187 L 146.5 187 L 145.5 189 L 130.5 189 L 128.5 187 L 123.5 187 Q 121.3 183.5 116 184 L 116 182 L 112 182 Q 113.3 179 109.5 180 Q 108.1 176 103 177 L 102 173 L 93 168 L 93 166 L 91 166 Q 92.1 163.3 89.5 164 L 88 161 L 86 161 L 86 159 L 84 159 Q 85.1 156.3 82.5 157 L 81 154 L 79 154 L 77 150 L 73 150 L 73 148.5 L 70 147 L 70 145 L 68 145 L 68 143 Q 65.3 144.1 66 141.5 L 63 140 L 63 138 L 61 138 L 61 136 Q 58.3 137.1 59 134.5 L 58 131 L 54 129 L 54 126.5 L 52 124.5 L 52 117 L 54 117 L 54 113 Q 57 114 56 111 L 58.5 111 L 65.5 109 L 68 113 L 70 113 Q 68.9 115.7 71.5 115 L 75 120 L 77 120 Q 75.9 122.7 78.5 122 L 87.5 131 L 92.5 131 Q 95.8 129.3 95 123.5 L 87 117 Q 88.1 114.3 85.5 115 L 84 112 L 82 112 L 82 110 L 80 110 L 80 108 Q 77.3 109.1 78 106.5 L 75 105 L 75 103 Q 72.3 104.1 73 101.5 L 70 97 L 68 97 Q 69.3 92.9 66 94 L 66 90.5 L 65 89.5 L 65 80.5 L 66 78 L 74.5 78 L 82 83.5 L 89 97 Q 92 95.8 91 99.5 L 97.5 108 L 105 108 L 105 99 Q 102.3 100.1 103 97.5 L 100 92 L 98 92 L 98 89 Q 95.3 90.1 96 87.5 L 91 80.5 L 91 78 Q 88 79.3 89 75.5 L 84 67.5 L 84 64 Q 80.3 65.3 82 59.5 Q 79.2 56.8 80 50.5 L 82 46 L 90.5 46 Q 89.5 49 94.5 48 Q 97 49.2 96 53 L 98 53 Q 97 56 100 55 L 100 58 L 102 58 L 102 62.5 L 112 86 Q 115 84.8 114 88.5 L 116 92 L 119.5 94 L 122.5 94 L 126 87.5 L 123 80 Q 120 81.3 121 77.5 Q 118.3 76.4 119 73 Q 115.7 74.3 117 69.5 L 116 66 L 114 66 Q 115.7 60.8 112 62 L 112 57.5 Q 109 58.5 110 53.5 L 107 42 Q 110.3 43.3 109 38.5 L 110.5 37 Z " /><path fill="rgb(158,185,229)" stroke="rgb(158,185,229)" stroke-width="1" opacity="0.3803921568627451" d="M 114 7 L 130.5 7 Q 129.5 10.3 135.5 9 L 138 13 Q 143.6 12 145 16.5 Q 144.3 19.1 147 18 L 147 20.5 Q 149 18.8 151 22.5 Q 150.1 28.9 154 30.5 L 154 35.5 L 153 35.5 L 150 25 Q 147.3 26.1 148 23.5 L 144.5 19 L 139.5 15 L 132.5 10 Q 127.9 10.6 126.5 8 L 117.5 8 L 115 11.5 L 118.5 14 L 128.5 15 L 133 17 Q 134.3 20 130.5 19 L 126.5 16 L 115.5 16 L 114 14.5 L 114 7 Z " /><path fill="rgb(158,185,229)" stroke="rgb(158,185,229)" stroke-width="1" opacity="0.3803921568627451" d="M 102 18 L 116.5 18 L 117 20 Q 112.5 18.3 104.5 19 Q 102 20.2 103 24 L 110 25.5 L 108 26 L 107.5 28 L 107 26 Q 103.2 27 102 24.5 L 102 18 Z " /><path fill="rgb(158,185,229)" stroke="rgb(158,185,229)" stroke-width="1" opacity="0.3803921568627451" d="M 118.5 20 L 121.5 20 L 129 23.5 L 128.5 25 L 131 25 Q 129.9 27.7 132.5 27 L 137.5 33 L 135.5 33 L 130.5 29 L 129 26 L 119.5 22 L 118.5 20 Z " /><path fill="rgb(158,185,229)" stroke="rgb(158,185,229)" stroke-width="1" opacity="0.3803921568627451" d="M 132.5 20 L 138 20 L 138 22 Q 140.7 20.9 140 23.5 L 143 28 L 139 25.5 Q 139.8 23.3 137.5 24 Q 137 20.5 132.5 21 L 132.5 20 Z " /><path fill="rgb(158,185,229)" stroke="rgb(158,185,229)" stroke-width="1" opacity="0.3803921568627451" d="M 115.5 26 L 120 27 Q 118.8 30 122.5 29 L 127 32.5 L 131 37.5 L 134 45 Q 137.5 43.9 136 51.5 L 138 59 Q 141.8 60 143 57.5 L 143 49.5 L 136 34 L 140 36.5 L 140 39 L 142 39.5 L 142 43.5 L 144 45.5 L 144 58.5 Q 143 61 138.5 60 L 134 57.5 Q 136.7 55.8 135 49.5 L 133 47.5 L 132 42 Q 129 43.3 130 39.5 L 125 33 L 120 31.5 L 120.5 30 L 118 30 L 117.5 28 L 113.5 28 L 113.5 27 L 115.5 26 Z " /><path fill="rgb(158,185,229)" stroke="rgb(158,185,229)" stroke-width="1" opacity="0.3803921568627451" d="M 141.5 29 Q 146.3 27.3 145 31.5 L 147 34.5 L 148 44 Q 144.5 45.1 146 37.5 Q 142.8 36 144 31 L 141.5 29 Z " /><path fill="rgb(158,185,229)" stroke="rgb(158,185,229)" stroke-width="1" opacity="0.3803921568627451" d="M 94.5 44 Q 99.5 43.5 100 47.5 L 99.5 50 L 96.5 45 Q 93.5 45.5 94.5 44 Z " /><path fill="rgb(158,185,229)" stroke="rgb(158,185,229)" stroke-width="1" opacity="0.3803921568627451" d="M 128.5 44 L 130 47.5 L 129 47.5 L 128.5 44 Z " /><path fill="rgb(158,185,229)" stroke="rgb(158,185,229)" stroke-width="1" opacity="0.3803921568627451" d="M 153.5 44 L 154 47 L 151 46.5 L 153.5 44 Z " /><path fill="rgb(158,185,229)" stroke="rgb(158,185,229)" stroke-width="1" opacity="0.3803921568627451" d="M 75.5 45 L 76 47 L 74 46.5 L 75.5 45 Z " /><path fill="rgb(158,185,229)" stroke="rgb(158,185,229)" stroke-width="1" opacity="0.3803921568627451" d="M 148 45 Q 151 44 150 47 Q 147 48 148 45 Z " /><path fill="rgb(158,185,229)" stroke="rgb(158,185,229)" stroke-width="1" opacity="0.3803921568627451" d="M 158 53 L 160 53.5 L 158 54.5 L 158 53 Z " /><path fill="rgb(158,185,229)" stroke="rgb(158,185,229)" stroke-width="1" opacity="0.3803921568627451" d="M 180.5 59 L 181 61.5 L 180 61.5 L 180.5 59 Z " /><path fill="rgb(158,185,229)" stroke="rgb(158,185,229)" stroke-width="1" opacity="0.3803921568627451" d="M 136.5 61 L 137 63.5 L 136 63.5 L 136.5 61 Z " /><path fill="rgb(158,185,229)" stroke="rgb(158,185,229)" stroke-width="1" opacity="0.3803921568627451" d="M 182.5 63 L 183 80.5 L 182 80.5 L 182.5 63 Z " /><path fill="rgb(158,185,229)" stroke="rgb(158,185,229)" stroke-width="1" opacity="0.3803921568627451" d="M 74.5 68 L 76 71.5 L 75 71.5 L 74.5 68 Z " /><path fill="rgb(158,185,229)" stroke="rgb(158,185,229)" stroke-width="1" opacity="0.3803921568627451" d="M 151.5 69 L 152 74.5 L 151 74.5 L 151.5 69 Z " /><path fill="rgb(158,185,229)" stroke="rgb(158,185,229)" stroke-width="1" opacity="0.3803921568627451" d="M 77.5 73 L 78 75.5 L 77 75.5 L 77.5 73 Z " /><path fill="rgb(158,185,229)" stroke="rgb(158,185,229)" stroke-width="1" opacity="0.3803921568627451" d="M 65.5 74 L 76 74.5 L 65.5 75 L 65.5 74 Z " /><path fill="rgb(158,185,229)" stroke="rgb(158,185,229)" stroke-width="1" opacity="0.3803921568627451" d="M 142.5 74 L 144.5 77 L 142.5 74 Z " /><path fill="rgb(158,185,229)" stroke="rgb(158,185,229)" stroke-width="1" opacity="0.3803921568627451" d="M 63.5 75 L 62.5 77 L 63.5 75 Z " /><path fill="rgb(158,185,229)" stroke="rgb(158,185,229)" stroke-width="1" opacity="0.3803921568627451" d="M 150.5 81 L 149.5 85 Q 146 83 150.5 81 Z " /><path fill="rgb(158,185,229)" stroke="rgb(158,185,229)" stroke-width="1" opacity="0.3803921568627451" d="M 180.5 83 L 181 94.5 L 180 94.5 L 180.5 83 Z " /><path fill="rgb(158,185,229)" stroke="rgb(158,185,229)" stroke-width="1" opacity="0.3803921568627451" d="M 56.5 86 L 57 90.5 L 56 90.5 L 56.5 86 Z " /><path fill="rgb(158,185,229)" stroke="rgb(158,185,229)" stroke-width="1" opacity="0.3803921568627451" d="M 182.5 104 L 183 112.5 L 182 112.5 L 182.5 104 Z " /><path fill="rgb(158,185,229)" stroke="rgb(158,185,229)" stroke-width="1" opacity="0.3803921568627451" d="M 16 106 L 22 106 L 22 108.5 L 19.5 107 Q 16.2 105.9 17 108.5 L 16 108.5 L 16 106 Z " /><path fill="rgb(158,185,229)" stroke="rgb(158,185,229)" stroke-width="1" opacity="0.3803921568627451" d="M 56 106 L 60 106.5 L 56.5 108 L 56 106 Z " /><path fill="rgb(158,185,229)" stroke="rgb(158,185,229)" stroke-width="1" opacity="0.3803921568627451" d="M 22.5 113 Q 25.3 114.4 24 119 Q 27 117.8 26 121.5 L 28.5 125 L 27 124.5 Q 26.3 126.8 28.5 126 L 35 132.5 L 34.5 134 L 43 134.5 L 37 135 L 36.5 137 L 32 134 L 32 132 Q 29.3 133.1 30 130.5 L 23 120.5 L 22.5 113 Z " /><path fill="rgb(158,185,229)" stroke="rgb(158,185,229)" stroke-width="1" opacity="0.3803921568627451" d="M 16.5 117 L 20 128 Q 22.7 126.9 22 129.5 L 25 135 L 27 135 L 27 137 L 29 137 Q 27.9 139.7 30.5 139 L 40.5 146 L 48 147.5 L 40.5 148 L 36.5 145 L 34.5 145 L 32 144.5 L 34 143.5 L 30 143 L 30 141 L 28 141 Q 29.1 138.3 26.5 139 L 25 136 L 21 134 L 21 131.5 Q 16.8 129.3 18.5 127 Q 15.5 127.9 17 123.5 Q 14.4 121.9 16.5 117 Z " /><path fill="rgb(158,185,229)" stroke="rgb(158,185,229)" stroke-width="1" opacity="0.3803921568627451" d="M 4.5 119 L 12 119 L 12 127.5 Q 15.7 129.8 15.5 136 L 17 135.5 L 17 137.5 L 21 141.5 L 20.5 143 L 26.5 145 L 29 147.5 Q 28.1 150.5 32.5 149 L 33.5 150 L 41.5 150 L 43 151.5 Q 43.9 154.5 39.5 153 Q 36.9 149.6 29.5 151 L 25 147.5 L 27 146.5 L 23.5 145 L 21 146 Q 22.1 143.3 19.5 144 L 13 134.5 L 13 130 L 11 130 L 11 121.5 L 9.5 121 L 6 120 L 5 123.5 L 6 124.5 L 6 132.5 L 8 134.5 L 11 144 L 13 144 Q 11.9 146.7 14.5 146 L 18 151 Q 21.3 149.7 20 154.5 L 19 154.5 L 17.5 152 L 16 152 L 16 150 L 14 150 L 14 148 Q 11.3 149.1 12 146.5 L 9 144.5 L 9 142.5 Q 9.7 139.9 7 141 L 7 136.5 L 5 134.5 L 5 127.5 Q 1.7 126.3 3 120.5 L 4.5 119 Z " /><path fill="rgb(158,185,229)" stroke="rgb(158,185,229)" stroke-width="1" opacity="0.3803921568627451" d="M 54.5 134 L 57 138.5 L 54 136.5 L 54.5 134 Z " /><path fill="rgb(158,185,229)" stroke="rgb(158,185,229)" stroke-width="1" opacity="0.3803921568627451" d="M 43.5 136 L 45 140 L 55 140 L 57 144 Q 54 145 55 142 L 50.5 142 L 49.5 141 L 43 141 L 43.5 136 Z " /><path fill="rgb(158,185,229)" stroke="rgb(158,185,229)" stroke-width="1" opacity="0.3803921568627451" d="M 60.5 142 Q 62.8 141.3 62 143.5 L 63.5 146 L 60.5 142 Z " /><path fill="rgb(158,185,229)" stroke="rgb(158,185,229)" stroke-width="1" opacity="0.3803921568627451" d="M 56.5 145 L 57 148 L 49 147.5 Q 54.8 148.3 56.5 145 Z " /><path fill="rgb(158,185,229)" stroke="rgb(158,185,229)" stroke-width="1" opacity="0.3803921568627451" d="M 67.5 149 L 71 151 L 70.5 153 L 67.5 149 Z " /><path fill="rgb(158,185,229)" stroke="rgb(158,185,229)" stroke-width="1" opacity="0.3803921568627451" d="M 21 153 L 32.5 158 L 41.5 158 L 43 157.5 L 42.5 159 L 29.5 159 Q 28.1 155.7 23 157 L 21 153 Z " /><path fill="rgb(158,185,229)" stroke="rgb(158,185,229)" stroke-width="1" opacity="0.3803921568627451" d="M 84.5 164 L 87.5 168 L 84.5 164 Z " /><path fill="rgb(158,185,229)" stroke="rgb(158,185,229)" stroke-width="1" opacity="0.3803921568627451" d="M 89.5 169 L 92.5 173 L 89.5 169 Z " /><path fill="rgb(158,185,229)" stroke="rgb(158,185,229)" stroke-width="1" opacity="0.3803921568627451" d="M 100.5 178 L 101.5 180 Q 98.7 180.7 100.5 178 Z " /><path fill="rgb(158,185,229)" stroke="rgb(158,185,229)" stroke-width="1" opacity="0.3803921568627451" d="M 173.5 178 L 174 180 L 172 179.5 L 173.5 178 Z " /><path fill="rgb(158,185,229)" stroke="rgb(158,185,229)" stroke-width="1" opacity="0.3803921568627451" d="M 104.5 181 L 105.5 183 L 104.5 181 Z " /><path fill="rgb(158,185,229)" stroke="rgb(158,185,229)" stroke-width="1" opacity="0.3803921568627451" d="M 168.5 181 L 171 181.5 L 168.5 182 L 168.5 181 Z " /><path fill="rgb(158,185,229)" stroke="rgb(158,185,229)" stroke-width="1" opacity="0.3803921568627451" d="M 159.5 187 L 158.5 189 L 156 188.5 L 159.5 187 Z " /><path fill="rgb(158,185,229)" stroke="rgb(158,185,229)" stroke-width="1" opacity="0.3803921568627451" d="M 117.5 188 L 120 189.5 L 118.5 189 L 117.5 188 Z " /><path fill="rgb(158,185,229)" stroke="rgb(158,185,229)" stroke-width="1" opacity="0.3803921568627451" d="M 121.5 190 L 127 190.5 L 121.5 191 L 121.5 190 Z " /><path fill="rgb(158,185,229)" stroke="rgb(158,185,229)" stroke-width="1" opacity="0.3803921568627451" d="M 149.5 190 L 155 190.5 L 149.5 191 L 149.5 190 Z " /></svg>