<svg width="200" height="200" version="1.1" xmlns="http://www.w3.org/2000/svg" desc="Created with imagetracer.js version 1.2.6" ><path fill="rgb(0,0,0)" stroke="rgb(0,0,0)" stroke-width="1" opacity="0" d="M 0 0 L 200 0 L 200 200 L 0 200 L 0 0 Z M 87 8 L 79 12 Q 74 14 74 20 L 72 22 L 61 26 L 59 29 L 55 32 Q 56 34 53 33 L 51 41 L 51 61 L 48 66 L 48 80 L 52 88 L 52 104 L 56 112 L 59 113 L 61 117 L 59 120 Q 60 122 58 121 L 55 125 L 52 126 L 51 130 L 49 131 L 37 146 Q 38 148 36 147 L 33 152 L 31 153 L 21 166 L 20 170 Q 18 180 22 186 L 31 192 L 70 192 L 71 193 L 166 192 L 167 191 Q 166 188 169 189 L 171 187 L 171 161 L 175 153 L 175 136 L 171 127 L 164 119 L 157 117 L 155 115 L 147 115 L 139 110 L 148 108 L 153 104 L 155 104 L 160 95 L 160 78 L 156 72 L 156 55 L 155 54 Q 156 50 153 51 L 153 49 L 147 42 L 142 28 Q 143 24 141 25 L 139 23 L 126 14 L 115 14 L 105 8 L 87 8 Z " /><path fill="rgb(244,190,95)" stroke="rgb(244,190,95)" stroke-width="1" opacity="0.5098039215686274" d="M 102.5 9 Q 109.7 10.3 113.5 15 L 125.5 15 L 136 20 L 137.5 23 L 140 24.5 L 142 30.5 L 141 30.5 L 141 28.5 L 135.5 22 L 124.5 16 L 113.5 16 L 102.5 10 L 102.5 9 Z " /><path fill="rgb(244,190,95)" stroke="rgb(244,190,95)" stroke-width="1" opacity="0.5098039215686274" d="M 84.5 10 L 86 10.5 L 77 17.5 L 73.5 23 L 66.5 26 L 66 24.5 L 68.5 23 L 70.5 23 L 74 22 L 77 15 L 81 12.5 Q 80.2 9.9 83.5 11 L 84.5 10 Z " /><path fill="rgb(244,190,95)" stroke="rgb(244,190,95)" stroke-width="1" opacity="0.5098039215686274" d="M 63.5 26 L 65 26.5 L 57 32.5 L 54.5 36 L 55 34.5 Q 53.9 31.2 56.5 32 L 59.5 27 L 61.5 27 L 63.5 26 Z " /><path fill="rgb(244,190,95)" stroke="rgb(244,190,95)" stroke-width="1" opacity="0.5098039215686274" d="M 142.5 32 L 145 38.5 L 144 38.5 L 142.5 32 Z " /><path fill="rgb(244,190,95)" stroke="rgb(244,190,95)" stroke-width="1" opacity="0.5098039215686274" d="M 145.5 40 L 153.5 51 L 155 51.5 L 154 53.5 L 155 56.5 L 154 56.5 L 153 52.5 L 146 43.5 L 145.5 40 Z " /><path fill="rgb(244,190,95)" stroke="rgb(244,190,95)" stroke-width="1" opacity="0.5098039215686274" d="M 52.5 41 L 53 43.5 L 52 43.5 L 52.5 41 Z " /><path fill="rgb(244,190,95)" stroke="rgb(244,190,95)" stroke-width="1" opacity="0.5098039215686274" d="M 52.5 51 L 53 57.5 L 52 57.5 L 52.5 51 Z " /><path fill="rgb(244,190,95)" stroke="rgb(244,190,95)" stroke-width="1" opacity="0.5098039215686274" d="M 50.5 62 L 52 62.5 L 49.5 69 L 49 66.5 L 49 64.5 L 50.5 62 Z " /><path fill="rgb(244,190,95)" stroke="rgb(244,190,95)" stroke-width="1" opacity="0.5098039215686274" d="M 155 72 Q 158 70.8 157 74.5 L 159 79.5 L 158 79.5 L 155 72 Z " /><path fill="rgb(244,190,95)" stroke="rgb(244,190,95)" stroke-width="1" opacity="0.5098039215686274" d="M 49.5 78 L 52 83.5 L 50 84 L 49 81.5 L 49 79.5 L 49.5 78 Z " /><path fill="rgb(244,190,95)" stroke="rgb(244,190,95)" stroke-width="1" opacity="0.5098039215686274" d="M 52.5 85 L 54 88.5 L 53 88.5 L 52.5 85 Z " /><path fill="rgb(244,190,95)" stroke="rgb(244,190,95)" stroke-width="1" opacity="0.5098039215686274" d="M 53.5 90 L 54 92.5 L 53 92.5 L 53.5 90 Z " /><path fill="rgb(244,190,95)" stroke="rgb(244,190,95)" stroke-width="1" opacity="0.5098039215686274" d="M 158.5 92 L 159 93.5 L 158 97 L 156 96.5 L 158.5 92 Z " /><path fill="rgb(244,190,95)" stroke="rgb(244,190,95)" stroke-width="1" opacity="0.5098039215686274" d="M 155 98 L 157 98.5 L 146.5 107 L 147.5 105 L 155 99.5 L 155 98 Z " /><path fill="rgb(244,190,95)" stroke="rgb(244,190,95)" stroke-width="1" opacity="0.5098039215686274" d="M 53.5 101 Q 55.7 109.8 62 114.5 L 60.5 114 L 57 112.5 L 57 110.5 Q 57.7 107.9 55 109 L 55 106.5 Q 52 104.7 53.5 101 Z " /><path fill="rgb(244,190,95)" stroke="rgb(244,190,95)" stroke-width="1" opacity="0.5098039215686274" d="M 142.5 107 L 144 107.5 Q 142.6 110.3 138 109 Q 136.9 111.7 139.5 111 L 145 115.5 L 142.5 114 L 137 110.5 Q 135.7 105.9 141.5 108 L 142.5 107 Z " /><path fill="rgb(244,190,95)" stroke="rgb(244,190,95)" stroke-width="1" opacity="0.5098039215686274" d="M 63.5 115 L 64.5 117 L 63.5 115 Z " /><path fill="rgb(238,158,33)" stroke="rgb(238,158,33)" stroke-width="1" opacity="0.9803921568627451" d="M 89.5 9 L 101.5 9 L 115.5 17 Q 117.3 14.3 123.5 16 Q 132.9 18.1 138 24.5 L 141 28.5 L 146 43.5 L 154 54.5 Q 156.5 60 155 69.5 L 155 71.5 L 159 80.5 L 159 91.5 Q 156.8 98.8 151.5 103 L 145.5 107 L 133.5 109 Q 129.5 105.3 123 105 Q 121.9 102.3 124.5 103 L 128 101 L 137 87.5 L 139 79.5 L 139 71.5 Q 146.8 68.8 145 56.5 L 139.5 50 L 135 47.5 L 131.5 42 Q 128.3 39.7 121.5 41 L 105.5 45 L 94.5 45 Q 86 42.5 80.5 37 L 78 37 L 76 44.5 L 67 53.5 L 66 57.5 L 67 62.5 Q 60.4 64.9 62 75.5 L 66.5 82 L 72 84 Q 74.2 95 82.5 101 L 89 104.5 L 80.5 107 L 65.5 117 L 65 115 Q 61.2 116.5 62 113.5 Q 52.8 108.2 53 93.5 Q 55.3 92.2 54 87.5 L 49 77.5 L 49 69.5 Q 53.7 62.2 53 49.5 L 52 44.5 L 54 36.5 L 58.5 31 L 63.5 27 L 70.5 25 L 75 21.5 L 81.5 13 L 89.5 9 Z " /><path fill="rgb(238,158,33)" stroke="rgb(238,158,33)" stroke-width="1" opacity="0.9803921568627451" d="M 113.5 46 Q 123.6 43.9 127 48.5 Q 128.3 52.7 123.5 51 Q 121.8 48.3 115.5 50 L 111 51 Q 110.3 47.2 113.5 46 Z " /><path fill="rgb(238,158,33)" stroke="rgb(238,158,33)" stroke-width="1" opacity="0.9803921568627451" d="M 86.5 51 Q 90.5 50.5 91 53.5 L 88.5 56 L 84.5 56 L 76.5 60 L 75 56.5 L 77.5 54 L 86.5 51 Z " /><path fill="rgb(238,158,33)" stroke="rgb(238,158,33)" stroke-width="1" opacity="0.9803921568627451" d="M 124.5 62 L 128 63.5 L 124.5 68 Q 121.8 70.8 115.5 70 L 111 66.5 Q 109.8 62.8 113.5 64 Q 114.9 66.6 119.5 66 L 124.5 62 Z " /><path fill="rgb(238,158,33)" stroke="rgb(238,158,33)" stroke-width="1" opacity="0.9803921568627451" d="M 92.5 67 L 95 68.5 L 92 74 Q 88.6 75.7 81.5 75 L 78 72.5 Q 76.7 68.3 81.5 70 Q 82.7 72.3 87.5 71 L 92.5 67 Z " /><path fill="rgb(238,158,33)" stroke="rgb(238,158,33)" stroke-width="1" opacity="0.9803921568627451" d="M 102.5 67 Q 106.3 66.3 107 68.5 L 113 81.5 Q 110.2 86.2 101.5 85 L 99 79.5 L 100.5 72 L 101 78.5 L 100 81.5 L 101 84 Q 108.8 85.2 112 80.5 L 104.5 68 L 101.5 70 L 101 68.5 L 102.5 67 Z " /><path fill="rgb(238,158,33)" stroke="rgb(238,158,33)" stroke-width="1" opacity="0.9803921568627451" d="M 116.5 86 Q 120.7 84.7 119 89.5 L 114.5 95 Q 110.5 98 102.5 97 L 95 91.5 Q 96.8 88.3 103.5 90 L 105.5 90 L 113.5 89 L 116.5 86 Z M 117 88 L 109 92 L 100 92 L 99 91 L 97 92 L 100 94 L 106 96 L 114 94 L 118 89 L 117 88 Z " /><path fill="rgb(238,158,33)" stroke="rgb(238,158,33)" stroke-width="1" opacity="0.9803921568627451" d="M 92.5 107 L 93 124.5 L 92 124.5 L 92.5 107 Z " /><path fill="rgb(238,158,33)" stroke="rgb(238,158,33)" stroke-width="1" opacity="0.9803921568627451" d="M 135.5 117 L 134.5 119 L 135.5 117 Z " /><path fill="rgb(238,158,33)" stroke="rgb(238,158,33)" stroke-width="1" opacity="0.9803921568627451" d="M 128.5 122 L 126.5 125 L 128.5 122 Z " /><path fill="rgb(238,158,33)" stroke="rgb(238,158,33)" stroke-width="1" opacity="0.9803921568627451" d="M 93.5 126 L 96 135.5 L 95 135.5 Q 91.9 131.9 93.5 126 Z " /><path fill="rgb(238,158,33)" stroke="rgb(238,158,33)" stroke-width="1" opacity="0.9803921568627451" d="M 122.5 129 L 121.5 131 L 122.5 129 Z " /><path fill="rgb(238,158,33)" stroke="rgb(238,158,33)" stroke-width="1" opacity="0.9803921568627451" d="M 97.5 139 L 100.5 140 L 102.5 139 L 102.5 140 L 98.5 141 L 97.5 139 Z " /><path fill="rgb(238,158,33)" stroke="rgb(238,158,33)" stroke-width="1" opacity="0.9803921568627451" d="M 160.5 169 L 161 172.5 L 160 172.5 L 160.5 169 Z " /><path fill="rgb(238,158,33)" stroke="rgb(238,158,33)" stroke-width="1" opacity="0.9803921568627451" d="M 86.5 177 L 87 190.5 L 86 190.5 L 86.5 177 Z " /><path fill="rgb(238,158,33)" stroke="rgb(238,158,33)" stroke-width="1" opacity="0.9803921568627451" d="M 158.5 177 L 154.5 182 L 158.5 177 Z " /><path fill="rgb(251,199,60)" stroke="rgb(251,199,60)" stroke-width="1" opacity="0.996078431372549" d="M 78 37 L 80.5 37 Q 86 42.5 94.5 45 L 105.5 45 L 109.5 44 L 109.5 45 Q 103.6 47.6 93.5 46 L 79 38 L 78 43.5 L 73.5 49 L 69 52.5 L 67.5 64 L 66 57.5 L 67 53.5 L 76 44.5 L 78 37 Z " /><path fill="rgb(251,199,60)" stroke="rgb(251,199,60)" stroke-width="1" opacity="0.996078431372549" d="M 121.5 41 Q 131.3 39.3 134 44.5 L 136 49.5 L 134 48.5 L 131.5 43 L 124.5 42 L 123.5 43 L 112.5 44 L 112.5 43 Q 118.6 43.6 121.5 41 Z " /><path fill="rgb(251,199,60)" stroke="rgb(251,199,60)" stroke-width="1" opacity="0.996078431372549" d="M 116.5 45 L 122 45.5 L 116.5 46 L 116.5 45 Z " /><path fill="rgb(251,199,60)" stroke="rgb(251,199,60)" stroke-width="1" opacity="0.996078431372549" d="M 111.5 46 L 113 46.5 Q 110.3 47.6 111 51 L 122.5 50 L 127 51 L 125.5 47 L 124 46.5 L 126.5 46 Q 128.8 46.8 128 50.5 Q 127.3 52.8 123.5 52 Q 122 49.5 116.5 51 L 111.5 52 Q 109.3 51.3 110 47.5 L 111.5 46 Z " /><path fill="rgb(251,199,60)" stroke="rgb(251,199,60)" stroke-width="1" opacity="0.996078431372549" d="M 81.5 51 L 86 51.5 L 78.5 54 L 79.5 52 L 81.5 51 Z " /><path fill="rgb(251,199,60)" stroke="rgb(251,199,60)" stroke-width="1" opacity="0.996078431372549" d="M 89.5 51 Q 91.8 50.3 91 52.5 L 89.5 51 Z " /><path fill="rgb(251,199,60)" stroke="rgb(251,199,60)" stroke-width="1" opacity="0.996078431372549" d="M 76.5 54 L 75 56.5 L 76.5 60 L 82.5 57 L 81.5 59 L 75.5 61 Q 73.3 60.3 74 56.5 L 76.5 54 Z " /><path fill="rgb(251,199,60)" stroke="rgb(251,199,60)" stroke-width="1" opacity="0.996078431372549" d="M 90.5 54 L 91 56 L 89 55.5 L 90.5 54 Z " /><path fill="rgb(251,199,60)" stroke="rgb(251,199,60)" stroke-width="1" opacity="0.996078431372549" d="M 84.5 56 L 87 56.5 L 84.5 57 L 84.5 56 Z " /><path fill="rgb(251,199,60)" stroke="rgb(251,199,60)" stroke-width="1" opacity="0.996078431372549" d="M 124.5 61 Q 128.3 60.3 129 62.5 L 126 69 L 121.5 70 L 121.5 69 L 127 65.5 L 128 63.5 L 124.5 62 Q 122.5 66 116.5 66 L 111 64 Q 110.3 67.8 113.5 69 L 115 69.5 L 113.5 70 L 110 67.5 Q 109.3 63.8 111.5 63 L 119.5 65 L 124.5 61 Z " /><path fill="rgb(251,199,60)" stroke="rgb(251,199,60)" stroke-width="1" opacity="0.996078431372549" d="M 92.5 66 L 91.5 68 L 87.5 71 L 82.5 71 L 78 70 L 79 73.5 L 77 72.5 Q 75.2 66.4 82.5 69 L 87.5 70 L 92.5 66 Z " /><path fill="rgb(251,199,60)" stroke="rgb(251,199,60)" stroke-width="1" opacity="0.996078431372549" d="M 101.5 67 L 101 68.5 L 99.5 79 L 99 72.5 L 101.5 67 Z " /><path fill="rgb(251,199,60)" stroke="rgb(251,199,60)" stroke-width="1" opacity="0.996078431372549" d="M 106.5 67 L 109 70.5 L 107 69.5 L 106.5 67 Z " /><path fill="rgb(251,199,60)" stroke="rgb(251,199,60)" stroke-width="1" opacity="0.996078431372549" d="M 138.5 67 L 139 79.5 L 138 79.5 L 138.5 67 Z " /><path fill="rgb(251,199,60)" stroke="rgb(251,199,60)" stroke-width="1" opacity="0.996078431372549" d="M 94.5 70 L 95 71.5 L 92 73.5 L 94.5 70 Z " /><path fill="rgb(251,199,60)" stroke="rgb(251,199,60)" stroke-width="1" opacity="0.996078431372549" d="M 109.5 72 L 113 78.5 L 112 78.5 L 109 73.5 L 109.5 72 Z " /><path fill="rgb(251,199,60)" stroke="rgb(251,199,60)" stroke-width="1" opacity="0.996078431372549" d="M 80.5 74 Q 82.3 76.8 88.5 75 L 90.5 74 L 90.5 75 L 81.5 76 L 80.5 74 Z " /><path fill="rgb(251,199,60)" stroke="rgb(251,199,60)" stroke-width="1" opacity="0.996078431372549" d="M 137.5 81 L 138 83.5 L 137 83.5 L 137.5 81 Z " /><path fill="rgb(251,199,60)" stroke="rgb(251,199,60)" stroke-width="1" opacity="0.996078431372549" d="M 71.5 82 L 79 97 L 88 103.5 L 86.5 104 L 77 95.5 L 71.5 82 Z " /><path fill="rgb(251,199,60)" stroke="rgb(251,199,60)" stroke-width="1" opacity="0.996078431372549" d="M 99.5 82 L 101.5 85 Q 109.6 86.1 112.5 82 L 110.5 85 L 101.5 86 Q 97.9 84.9 99.5 82 Z " /><path fill="rgb(251,199,60)" stroke="rgb(251,199,60)" stroke-width="1" opacity="0.996078431372549" d="M 136.5 85 L 137 87.5 L 128 101 L 121.5 105 L 121 103 Q 127.1 102.2 130 96.5 L 136.5 85 Z " /><path fill="rgb(251,199,60)" stroke="rgb(251,199,60)" stroke-width="1" opacity="0.996078431372549" d="M 115.5 86 L 113.5 89 L 109.5 90 L 110.5 88 L 115.5 86 Z " /><path fill="rgb(251,199,60)" stroke="rgb(251,199,60)" stroke-width="1" opacity="0.996078431372549" d="M 119.5 86 L 120 91 L 118 90.5 L 119.5 86 Z " /><path fill="rgb(251,199,60)" stroke="rgb(251,199,60)" stroke-width="1" opacity="0.996078431372549" d="M 95.5 92 L 100 95.5 L 98.5 96 L 95.5 92 Z " /><path fill="rgb(251,199,60)" stroke="rgb(251,199,60)" stroke-width="1" opacity="0.996078431372549" d="M 117.5 92 L 115.5 95 L 117.5 92 Z " /><path fill="rgb(251,199,60)" stroke="rgb(251,199,60)" stroke-width="1" opacity="0.996078431372549" d="M 110.5 96 L 112 96.5 Q 109.6 99.1 103.5 98 L 103.5 97 Q 109 98.5 110.5 96 Z " /><path fill="rgb(251,199,60)" stroke="rgb(251,199,60)" stroke-width="1" opacity="0.996078431372549" d="M 89.5 104 L 94 106.5 L 92.5 107 L 89.5 104 Z " /><path fill="rgb(251,199,60)" stroke="rgb(251,199,60)" stroke-width="1" opacity="0.996078431372549" d="M 136.5 108 L 137 110.5 L 135 109.5 L 136.5 108 Z " /><path fill="rgb(251,199,60)" stroke="rgb(251,199,60)" stroke-width="1" opacity="0.996078431372549" d="M 136.5 117 L 139 117.5 L 135.5 119 L 136.5 117 Z " /><path fill="rgb(251,199,60)" stroke="rgb(251,199,60)" stroke-width="1" opacity="0.996078431372549" d="M 122.5 130 L 122 131.5 L 120.5 134 L 121 132.5 L 122.5 130 Z " /><path fill="rgb(251,199,60)" stroke="rgb(251,199,60)" stroke-width="1" opacity="0.996078431372549" d="M 130.5 139 L 136 141 L 136 142.5 L 146.5 153 L 148 143 L 151.5 142 L 154 143 L 156 154.5 L 154 153.5 L 153 144 Q 149.2 143 148 145.5 L 148 153.5 L 146.5 154 L 143 151.5 Q 143.8 149.3 141.5 150 L 138 145 L 135 143.5 L 132.5 140 L 130 141.5 L 130 144.5 L 136.5 152 Q 139.1 151.3 138 154 L 134.5 154 L 123.5 144 L 121 147.5 L 131 157.5 L 131 159 L 119.5 154 L 118 158 L 127 163.5 Q 128.3 167.3 124.5 166 L 119.5 164 L 118 168 L 146 182.5 L 144.5 183 Q 128.9 177.1 117 167.5 Q 116.3 163.8 118.5 163 L 123 162.5 L 117 157.5 Q 116.3 153.8 118.5 153 Q 123.8 152.2 125.5 155 L 120 148.5 Q 119.3 144.8 121.5 144 L 124.5 143 L 130.5 148 L 129 145.5 L 128 141.5 L 130.5 139 Z " /><path fill="rgb(251,199,60)" stroke="rgb(251,199,60)" stroke-width="1" opacity="0.996078431372549" d="M 156.5 156 L 160 165.5 L 158 164.5 Q 155 161.1 156.5 156 Z " /><path fill="rgb(251,199,60)" stroke="rgb(251,199,60)" stroke-width="1" opacity="0.996078431372549" d="M 98.5 165 Q 104.7 164.3 106 168.5 Q 107.5 176 103 177.5 L 118.5 178 L 125 182.5 L 124.5 184 L 123 181 L 120.5 180 L 102 180 L 102 176.5 L 105 170.5 L 102.5 167 L 100.5 166 L 97.5 167 L 86.5 177 L 95.5 167 L 98.5 165 Z " /><path fill="rgb(251,199,60)" stroke="rgb(251,199,60)" stroke-width="1" opacity="0.996078431372549" d="M 158 174 L 160 174.5 L 153.5 182 L 149.5 183 L 150.5 181 Q 155.3 180.8 157 177.5 L 158 174 Z " /><path fill="rgb(251,199,60)" stroke="rgb(251,199,60)" stroke-width="1" opacity="0.996078431372549" d="M 124.5 186 L 125 187.5 L 124 190 L 117.5 192 L 87 192 L 87.5 190 L 120.5 190 L 124.5 186 Z " /><path fill="rgb(255,200,61)" stroke="rgb(255,200,61)" stroke-width="1" opacity="1" d="M 79 38 L 93.5 46 L 106.5 46 L 110.5 44 L 128.5 42 L 133 44.5 L 137 53.5 L 138 80.5 Q 134.4 94.4 124.5 102 L 121 103 Q 122.1 105.7 119.5 105 L 116.5 107 L 101.5 109 L 88.5 104 L 79 97 L 71 81.5 Q 70.8 71.2 67 64.5 L 68 63.5 L 68 54.5 L 72.5 49 L 76 46.5 L 79 38 Z M 117 45 L 110 48 Q 109 51 112 52 L 117 51 L 127 52 Q 129 51 128 48 L 127 46 L 117 45 Z M 82 51 L 74 57 Q 73 60 76 61 L 84 57 L 91 56 L 91 51 L 82 51 Z M 125 61 L 120 65 L 112 63 Q 109 64 110 68 L 114 70 Q 122 71 126 69 L 129 63 Q 128 60 125 61 Z M 93 66 L 88 70 L 83 69 Q 75 66 77 73 L 82 76 Q 89 77 93 74 Q 96 73 95 67 L 93 66 Z M 102 67 L 99 73 L 99 84 L 102 86 Q 110 87 113 83 L 113 78 L 108 69 Q 107 66 102 67 Z M 116 86 L 109 90 L 100 90 L 99 89 L 97 90 Q 94 89 95 93 L 99 96 L 104 98 L 110 98 L 118 93 Q 117 90 120 91 L 120 86 L 116 86 Z " /><path fill="rgb(255,200,61)" stroke="rgb(255,200,61)" stroke-width="1" opacity="1" d="M 131.5 140 L 135 142.5 L 136.5 145 Q 138.8 144.3 138 146.5 L 143 150 L 144.5 153 L 148 154 L 148 145.5 L 149.5 144 Q 154.3 142.3 153 146.5 L 157 162.5 L 160 166.5 L 160 174 Q 157.3 172.9 158 175.5 L 154.5 180 L 146.5 183 L 118 168 L 119.5 164 L 127 166 L 125.5 162 L 118 158 L 119.5 154 L 131 159 L 121 146.5 Q 122.8 142.3 124.5 145 L 134.5 154 L 138 154 Q 139.1 151.3 136.5 152 L 130 144.5 L 130 141.5 L 131.5 140 Z " /><path fill="rgb(255,200,61)" stroke="rgb(255,200,61)" stroke-width="1" opacity="1" d="M 100.5 166 L 104 168.5 L 105 172.5 Q 101.1 174.6 102 180 L 120.5 180 L 123 181 L 125 185.5 L 120.5 190 L 87 190 L 87 177.5 L 97.5 167 L 100.5 166 Z " /><path fill="rgb(139,98,186)" stroke="rgb(139,98,186)" stroke-width="1" opacity="0.9725490196078431" d="M 116.5 88 L 118 88.5 L 113.5 94 L 105.5 96 L 99.5 94 L 97 91.5 L 98.5 91 L 99.5 92 L 108.5 92 L 116.5 88 Z " /><path fill="rgb(139,98,186)" stroke="rgb(139,98,186)" stroke-width="1" opacity="0.9725490196078431" d="M 87.5 105 L 92 107.5 L 92 125.5 Q 93.5 135 98 141.5 L 75 155 L 71 160.5 L 70 165 Q 75.5 163.9 78 166.5 L 76.5 167 Q 75.3 164.8 70.5 166 L 68.5 164 L 50.5 162 L 40.5 159 L 31.5 159 L 29.5 160 L 31 157.5 L 40.5 145 Q 42.8 145.8 42 143.5 L 54.5 128 L 57 126.5 L 63.5 119 L 66 117.5 L 67.5 115 L 80.5 107 L 87.5 105 Z " /><path fill="rgb(139,98,186)" stroke="rgb(139,98,186)" stroke-width="1" opacity="0.9725490196078431" d="M 170.5 160 L 171 183 Q 168 181.8 169 185.5 L 162.5 191 L 124.5 191 L 125.5 189 L 132 184.5 L 135.5 179 L 144.5 184 L 149.5 184 L 158 180 L 162 169.5 L 161.5 168 L 164 166.5 Q 163.3 164.3 165.5 165 L 168 161 L 170.5 160 Z " /><path fill="rgb(139,98,186)" stroke="rgb(139,98,186)" stroke-width="1" opacity="0.9725490196078431" d="M 79.5 167 L 84 170.5 L 80.5 168 L 79.5 167 Z " /><path fill="rgb(139,98,186)" stroke="rgb(139,98,186)" stroke-width="1" opacity="0.9725490196078431" d="M 85.5 174 L 86 176.5 L 85 176.5 L 85.5 174 Z " /><path fill="rgb(250,176,3)" stroke="rgb(250,176,3)" stroke-width="1" opacity="0.9921568627450981" d="M 136 49 Q 141.4 49.7 144 54.5 Q 146.3 57.7 145 64.5 L 139.5 71 L 136 49 Z " /><path fill="rgb(250,176,3)" stroke="rgb(250,176,3)" stroke-width="1" opacity="0.9921568627450981" d="M 66.5 63 L 72 83.5 L 70.5 84 L 63 78.5 L 62 68.5 L 66.5 63 Z " /><path fill="rgb(250,176,3)" stroke="rgb(250,176,3)" stroke-width="1" opacity="0.9921568627450981" d="M 103.5 68 L 107 70.5 L 112 80.5 Q 108.8 85.2 101 84 L 100 79.5 L 101 78.5 L 101 70.5 L 103.5 68 Z " /><path fill="rgb(250,176,3)" stroke="rgb(250,176,3)" stroke-width="1" opacity="0.9921568627450981" d="M 122.5 104 L 134.5 109 L 144 115.5 L 135.5 117 L 124 126.5 L 121 130.5 L 120 136.5 L 118.5 138 L 106.5 138 L 98.5 140 L 96 136.5 L 93 125.5 L 93 107 Q 97.9 109.9 107.5 109 L 116.5 107 L 122.5 104 Z " /><path fill="rgb(159,238,202)" stroke="rgb(159,238,202)" stroke-width="1" opacity="0.30980392156862746" d="M 79.5 12 L 80 13.5 L 77 15 L 76.5 17 Q 73 15 77.5 13 L 79.5 12 Z " /><path fill="rgb(159,238,202)" stroke="rgb(159,238,202)" stroke-width="1" opacity="0.30980392156862746" d="M 125.5 14 L 128 15.5 L 126.5 16 L 125.5 14 Z " /><path fill="rgb(159,238,202)" stroke="rgb(159,238,202)" stroke-width="1" opacity="0.30980392156862746" d="M 140 25 L 142 25.5 L 140 26.5 L 140 25 Z " /><path fill="rgb(159,238,202)" stroke="rgb(159,238,202)" stroke-width="1" opacity="0.30980392156862746" d="M 53.5 33 Q 55.8 32.3 55 34.5 L 53.5 33 Z " /><path fill="rgb(159,238,202)" stroke="rgb(159,238,202)" stroke-width="1" opacity="0.30980392156862746" d="M 148.5 44 Q 150.8 43.3 150 45.5 L 148.5 44 Z " /><path fill="rgb(159,238,202)" stroke="rgb(159,238,202)" stroke-width="1" opacity="0.30980392156862746" d="M 154.5 101 Q 156.8 100.3 156 102.5 L 153 104 L 154.5 101 Z " /><path fill="rgb(159,238,202)" stroke="rgb(159,238,202)" stroke-width="1" opacity="0.30980392156862746" d="M 55.5 109 Q 58.1 108.2 57 111.5 L 56 111.5 L 55.5 109 Z " /><path fill="rgb(159,238,202)" stroke="rgb(159,238,202)" stroke-width="1" opacity="0.30980392156862746" d="M 140.5 111 Q 142.8 110.3 142 112.5 L 140.5 111 Z " /><path fill="rgb(159,238,202)" stroke="rgb(159,238,202)" stroke-width="1" opacity="0.30980392156862746" d="M 144.5 113 L 145 115 L 147 115.5 L 145.5 116 L 144.5 113 Z " /><path fill="rgb(159,238,202)" stroke="rgb(159,238,202)" stroke-width="1" opacity="0.30980392156862746" d="M 60.5 115 L 64 116.5 L 60.5 121 Q 58.3 120.3 59 122.5 L 42.5 142 Q 40.3 141.3 41 143.5 L 39 147 Q 36.3 145.9 37 148.5 Q 35.5 151.5 34 148.5 L 39 144.5 L 39 142 Q 41.7 143.1 41 140.5 L 46 136.5 L 48.5 131 L 50 131.5 Q 49.3 129.3 51.5 130 L 51 128.5 L 56 123.5 L 57.5 121 Q 59.8 121.8 59 119.5 L 62 117.5 L 60.5 115 Z " /><path fill="rgb(159,238,202)" stroke="rgb(159,238,202)" stroke-width="1" opacity="0.30980392156862746" d="M 150.5 116 L 155.5 116 L 162 118 Q 160.8 121 164.5 120 L 171 126.5 L 175 135.5 L 175 139.5 L 174 139.5 L 172 131.5 L 167 124 L 159.5 119 L 150.5 117 L 150.5 116 Z " /><path fill="rgb(159,238,202)" stroke="rgb(159,238,202)" stroke-width="1" opacity="0.30980392156862746" d="M 174.5 147 L 175 152.5 L 174 157 Q 171.3 155.9 172 158.5 L 171 158.5 L 174.5 147 Z " /><path fill="rgb(159,238,202)" stroke="rgb(159,238,202)" stroke-width="1" opacity="0.30980392156862746" d="M 33.5 150 L 35 151.5 L 30 156.5 L 23 167 Q 20.3 168.1 21 165.5 L 24 164 L 24 161 L 28 159 L 28 156.5 L 30.5 153 L 33 151.5 L 33.5 150 Z " /><path fill="rgb(159,238,202)" stroke="rgb(159,238,202)" stroke-width="1" opacity="0.30980392156862746" d="M 21.5 168 L 22 170.5 L 21 171.5 L 21 179.5 L 23 183.5 L 22 183.5 L 22 182 L 20 181.5 L 20 169.5 L 21.5 168 Z " /><path fill="rgb(159,238,202)" stroke="rgb(159,238,202)" stroke-width="1" opacity="0.30980392156862746" d="M 170.5 183 L 171 185.5 L 165.5 192 Q 162.5 190.5 165.5 189 L 169 186.5 L 170.5 183 Z " /><path fill="rgb(159,238,202)" stroke="rgb(159,238,202)" stroke-width="1" opacity="0.30980392156862746" d="M 22.5 185 Q 26.5 184.5 27 187.5 Q 26.3 189.8 28.5 189 L 32.5 191 L 70.5 191 L 71.5 192 L 87 192.5 L 70.5 193 L 69.5 192 L 30.5 192 Q 24.4 189.3 22.5 185 Z " /><path fill="rgb(159,238,202)" stroke="rgb(159,238,202)" stroke-width="1" opacity="0.30980392156862746" d="M 121.5 191 Q 124.1 190.3 123 193 L 119 192.5 L 121.5 191 Z " /><path fill="rgb(164,133,211)" stroke="rgb(164,133,211)" stroke-width="1" opacity="0.8862745098039215" d="M 64.5 117 L 66 117.5 L 57 125.5 L 55.5 128 L 53.5 129 L 64.5 117 Z " /><path fill="rgb(164,133,211)" stroke="rgb(164,133,211)" stroke-width="1" opacity="0.8862745098039215" d="M 52.5 130 L 49 134.5 L 45.5 139 L 48 135.5 L 52.5 130 Z " /><path fill="rgb(164,133,211)" stroke="rgb(164,133,211)" stroke-width="1" opacity="0.8862745098039215" d="M 43.5 141 L 42 143.5 Q 42.8 145.8 40.5 145 L 43.5 141 Z " /><path fill="rgb(164,133,211)" stroke="rgb(164,133,211)" stroke-width="1" opacity="0.8862745098039215" d="M 38.5 147 L 35.5 151 L 38.5 147 Z " /><path fill="rgb(164,133,211)" stroke="rgb(164,133,211)" stroke-width="1" opacity="0.8862745098039215" d="M 34.5 152 L 31 156.5 L 29 159.5 L 30.5 160 L 31.5 159 L 40.5 159 L 50.5 162 L 68.5 164 L 70.5 166 L 75.5 166 Q 81.3 167.3 84 171.5 L 86 177.5 L 86 190.5 L 87 191.5 L 72.5 192 L 71.5 191 L 32.5 191 L 23 183.5 Q 19.7 179.8 21 171.5 L 24 164.5 L 34.5 152 Z " /><path fill="rgb(164,133,211)" stroke="rgb(164,133,211)" stroke-width="1" opacity="0.8862745098039215" d="M 136.5 179 L 137.5 181 L 136.5 179 Z " /><path fill="rgb(164,133,211)" stroke="rgb(164,133,211)" stroke-width="1" opacity="0.8862745098039215" d="M 144.5 183 L 150 183.5 L 144.5 184 L 144.5 183 Z " /><path fill="rgb(164,133,211)" stroke="rgb(164,133,211)" stroke-width="1" opacity="0.8862745098039215" d="M 167.5 187 L 166.5 189 L 163.5 191 L 165.5 188 L 167.5 187 Z " /><path fill="rgb(164,133,211)" stroke="rgb(164,133,211)" stroke-width="1" opacity="0.8862745098039215" d="M 118.5 191 L 121 191.5 L 118.5 192 L 118.5 191 Z " /><path fill="rgb(11,208,105)" stroke="rgb(11,208,105)" stroke-width="1" opacity="0.996078431372549" d="M 143.5 116 L 145 116.5 L 139.5 118 L 139.5 117 L 143.5 116 Z " /><path fill="rgb(11,208,105)" stroke="rgb(11,208,105)" stroke-width="1" opacity="0.996078431372549" d="M 136.5 118 L 138 118.5 Q 130.9 124.4 131 137.5 L 131.5 139 L 128 141.5 Q 128.8 147.7 133 150.5 L 131 149.5 Q 131.8 147.3 129.5 148 L 123.5 143 L 120 145.5 L 120 148.5 L 127 155.5 L 125.5 155 Q 123.8 152.2 118.5 153 Q 116.3 153.8 117 157.5 L 124 163.5 L 122.5 163 Q 118 162 117 164.5 Q 116.3 169.3 119.5 170 L 135 178 L 135 180.5 L 130.5 186 L 124.5 190 L 124 188.5 Q 126.2 187.3 125 182.5 L 118.5 178 L 103 177.5 Q 107.5 176 106 168.5 Q 104.7 164.3 98.5 165 L 86.5 176 L 80.5 167 Q 77.8 164.2 71.5 165 L 70 163.5 L 75 155 L 98.5 141 L 109.5 138 L 114.5 138 L 118.5 139 L 123 128.5 L 130.5 121 L 136.5 118 Z " /><path fill="rgb(11,208,105)" stroke="rgb(11,208,105)" stroke-width="1" opacity="0.996078431372549" d="M 133.5 139 L 134.5 141 L 133.5 139 Z " /><path fill="rgb(11,208,105)" stroke="rgb(11,208,105)" stroke-width="1" opacity="0.996078431372549" d="M 136.5 142 L 146.5 153 L 136.5 142 Z " /><path fill="rgb(11,208,105)" stroke="rgb(11,208,105)" stroke-width="1" opacity="0.996078431372549" d="M 155.5 149 L 156 151.5 L 155 151.5 L 155.5 149 Z " /><path fill="rgb(11,208,105)" stroke="rgb(11,208,105)" stroke-width="1" opacity="0.996078431372549" d="M 159.5 163 L 165 164.5 L 161.5 168 L 160 166.5 L 159.5 163 Z " /><path fill="rgb(182,173,114)" stroke="rgb(182,173,114)" stroke-width="1" opacity="0.3254901960784314" d="M 86.5 8 L 104.5 8 L 108 10.5 L 106.5 10 L 104.5 9 L 87.5 9 L 83.5 11 L 84.5 9 L 86.5 8 Z " /><path fill="rgb(182,173,114)" stroke="rgb(182,173,114)" stroke-width="1" opacity="0.3254901960784314" d="M 110.5 11 L 114.5 14 L 125 14.5 L 114.5 15 L 110 12.5 L 110.5 11 Z " /><path fill="rgb(182,173,114)" stroke="rgb(182,173,114)" stroke-width="1" opacity="0.3254901960784314" d="M 75.5 16 L 76 17.5 L 74 22 L 69.5 24 L 69 22 Q 72.8 22.8 74 19.5 L 75.5 16 Z " /><path fill="rgb(182,173,114)" stroke="rgb(182,173,114)" stroke-width="1" opacity="0.3254901960784314" d="M 128.5 16 L 134 18.5 L 132.5 19 L 128.5 17 L 128.5 16 Z " /><path fill="rgb(182,173,114)" stroke="rgb(182,173,114)" stroke-width="1" opacity="0.3254901960784314" d="M 136.5 21 L 139 22.5 L 137.5 23 L 136.5 21 Z " /><path fill="rgb(182,173,114)" stroke="rgb(182,173,114)" stroke-width="1" opacity="0.3254901960784314" d="M 65.5 24 L 66 26 L 60.5 28 L 60 26 L 65.5 24 Z " /><path fill="rgb(182,173,114)" stroke="rgb(182,173,114)" stroke-width="1" opacity="0.3254901960784314" d="M 141.5 26 L 143 31.5 L 142 31.5 L 141.5 26 Z " /><path fill="rgb(182,173,114)" stroke="rgb(182,173,114)" stroke-width="1" opacity="0.3254901960784314" d="M 57.5 29 L 58 30.5 L 55.5 32 L 57.5 29 Z " /><path fill="rgb(182,173,114)" stroke="rgb(182,173,114)" stroke-width="1" opacity="0.3254901960784314" d="M 53.5 34 L 54 36.5 L 52 41.5 L 52 62 L 50 61.5 L 51 60.5 L 51 41.5 L 53.5 34 Z " /><path fill="rgb(182,173,114)" stroke="rgb(182,173,114)" stroke-width="1" opacity="0.3254901960784314" d="M 144.5 35 L 149 43.5 L 146 41.5 L 144.5 35 Z " /><path fill="rgb(182,173,114)" stroke="rgb(182,173,114)" stroke-width="1" opacity="0.3254901960784314" d="M 150.5 45 L 152 48.5 L 151 48.5 L 150.5 45 Z " /><path fill="rgb(182,173,114)" stroke="rgb(182,173,114)" stroke-width="1" opacity="0.3254901960784314" d="M 154.5 52 L 156 54.5 L 156 71.5 L 155 71.5 L 155 54.5 L 154.5 52 Z " /><path fill="rgb(182,173,114)" stroke="rgb(182,173,114)" stroke-width="1" opacity="0.3254901960784314" d="M 49.5 65 L 49 66.5 L 49 79.5 L 50 80.5 L 48 79.5 L 48 66.5 L 49.5 65 Z " /><path fill="rgb(182,173,114)" stroke="rgb(182,173,114)" stroke-width="1" opacity="0.3254901960784314" d="M 158.5 74 L 160 77.5 L 160 94.5 L 157.5 98 L 156 97.5 L 158 97 L 159 93.5 L 159 77.5 L 158.5 74 Z " /><path fill="rgb(182,173,114)" stroke="rgb(182,173,114)" stroke-width="1" opacity="0.3254901960784314" d="M 50.5 84 Q 53.1 83.2 52 86.5 L 54 89.5 L 53 90.5 L 53 103.5 L 54 105.5 L 53 105.5 L 52 103.5 L 52 90.5 L 52 88.5 L 50.5 84 Z " /><path fill="rgb(182,173,114)" stroke="rgb(182,173,114)" stroke-width="1" opacity="0.3254901960784314" d="M 156.5 99 L 155.5 101 L 156.5 99 Z " /><path fill="rgb(182,173,114)" stroke="rgb(182,173,114)" stroke-width="1" opacity="0.3254901960784314" d="M 152.5 103 L 149.5 107 L 143.5 109 L 144.5 107 Q 150.5 107 152.5 103 Z " /><path fill="rgb(182,173,114)" stroke="rgb(182,173,114)" stroke-width="1" opacity="0.3254901960784314" d="M 138.5 109 L 141 110.5 L 139.5 111 L 138.5 109 Z " /><path fill="rgb(182,173,114)" stroke="rgb(182,173,114)" stroke-width="1" opacity="0.3254901960784314" d="M 142.5 112 L 143.5 114 L 142.5 112 Z " /><path fill="rgb(182,173,114)" stroke="rgb(182,173,114)" stroke-width="1" opacity="0.3254901960784314" d="M 60.5 114 L 61.5 116 L 60.5 114 Z " /><path fill="rgb(182,173,114)" stroke="rgb(182,173,114)" stroke-width="1" opacity="0.3254901960784314" d="M 147.5 115 L 155 115.5 L 147.5 116 L 147.5 115 Z " /><path fill="rgb(182,173,114)" stroke="rgb(182,173,114)" stroke-width="1" opacity="0.3254901960784314" d="M 171.5 128 L 174 131.5 L 172 130.5 L 171.5 128 Z " /><path fill="rgb(182,173,114)" stroke="rgb(182,173,114)" stroke-width="1" opacity="0.3254901960784314" d="M 49.5 131 L 48.5 133 L 49.5 131 Z " /><path fill="rgb(182,173,114)" stroke="rgb(182,173,114)" stroke-width="1" opacity="0.3254901960784314" d="M 45.5 136 L 43.5 139 L 45.5 136 Z " /><path fill="rgb(182,173,114)" stroke="rgb(182,173,114)" stroke-width="1" opacity="0.3254901960784314" d="M 40.5 141 L 41.5 143 L 40.5 141 Z " /><path fill="rgb(182,173,114)" stroke="rgb(182,173,114)" stroke-width="1" opacity="0.3254901960784314" d="M 38.5 144 L 39.5 146 L 37 145.5 L 38.5 144 Z " /><path fill="rgb(182,173,114)" stroke="rgb(182,173,114)" stroke-width="1" opacity="0.3254901960784314" d="M 172.5 157 L 173 158.5 L 170.5 160 L 170.5 159 Q 173 159.7 172.5 157 Z " /><path fill="rgb(182,173,114)" stroke="rgb(182,173,114)" stroke-width="1" opacity="0.3254901960784314" d="M 25.5 160 L 26.5 162 L 25.5 160 Z " /><path fill="rgb(182,173,114)" stroke="rgb(182,173,114)" stroke-width="1" opacity="0.3254901960784314" d="M 21.5 182 L 22 184 L 24 184.5 L 22.5 185 L 21.5 182 Z " /><path fill="rgb(182,173,114)" stroke="rgb(182,173,114)" stroke-width="1" opacity="0.3254901960784314" d="M 168.5 186 L 171 186.5 L 168 188.5 L 168.5 186 Z " /><path fill="rgb(182,173,114)" stroke="rgb(182,173,114)" stroke-width="1" opacity="0.3254901960784314" d="M 29.5 189 L 28.5 191 L 29.5 189 Z " /><path fill="rgb(182,173,114)" stroke="rgb(182,173,114)" stroke-width="1" opacity="0.3254901960784314" d="M 123 191 L 165 191.5 L 124.5 192 L 123.5 193 L 123 191 Z " /><path fill="rgb(182,173,114)" stroke="rgb(182,173,114)" stroke-width="1" opacity="0.3254901960784314" d="M 87.5 192 L 119 192.5 L 87.5 193 L 87.5 192 Z " /><path fill="rgb(3,241,150)" stroke="rgb(3,241,150)" stroke-width="1" opacity="0.9921568627450981" d="M 145.5 116 L 159.5 119 L 167 124 L 172 131.5 L 175 140.5 L 175 146.5 L 171 158.5 L 165.5 165 L 159 162.5 L 156 153.5 L 155 144.5 L 152.5 142 L 147 143 L 146 147.5 L 147 151.5 L 133.5 139 L 131 137.5 Q 131 124 138.5 118 Q 143.8 118.8 145.5 116 Z " /><path fill="rgb(3,241,150)" stroke="rgb(3,241,150)" stroke-width="1" opacity="0.9921568627450981" d="M 163.5 166 L 162.5 168 L 163.5 166 Z " /></svg>