<svg width="200" height="200" version="1.1" xmlns="http://www.w3.org/2000/svg" desc="Created with imagetracer.js version 1.2.6" ><path fill="rgb(0,0,0)" stroke="rgb(0,0,0)" stroke-width="1" opacity="0" d="M 0 0 L 200 0 L 200 200 L 0 200 L 0 0 Z M 86 20 L 86 22 L 80 22 L 79 23 Q 73 21 74 25 L 71 25 L 62 29 L 60 32 L 53 35 L 51 38 L 48 40 Q 49 42 47 41 L 45 44 L 42 46 Q 43 48 41 47 L 35 56 Q 36 59 33 58 L 32 62 Q 33 65 30 64 L 29 71 L 26 77 Q 28 84 24 83 L 24 112 L 26 114 L 26 121 L 33 139 L 36 140 L 36 143 L 41 149 Q 43 148 42 151 L 45 152 L 47 155 Q 49 154 48 157 L 51 158 L 53 161 Q 55 160 54 163 L 57 163 L 60 166 L 72 172 Q 80 172 86 176 L 121 176 L 126 175 L 128 173 L 135 172 L 145 167 L 146 164 L 154 161 L 155 158 L 158 157 Q 157 154 160 155 L 161 152 L 164 151 Q 163 148 166 149 L 166 147 L 171 141 Q 170 137 173 138 L 174 135 Q 173 131 176 132 L 177 127 Q 176 122 179 123 L 180 119 L 180 112 L 182 111 L 182 86 L 180 85 L 179 75 L 177 73 L 176 66 L 170 56 Q 171 53 168 54 L 168 52 L 164 45 L 150 33 L 131 23 L 121 22 L 119 20 L 86 20 Z " /><path fill="rgb(241,213,103)" stroke="rgb(241,213,103)" stroke-width="1" opacity="0.5176470588235295" d="M 86 20 L 118.5 20 L 120.5 22 L 130.5 23 L 149.5 33 L 164 45 L 168 51.5 L 168 54 Q 170.7 52.9 170 55.5 L 176 65.5 L 177 72.5 L 179 74.5 L 180 85 L 182 85.5 L 182 111 L 180 111.5 L 180 118.5 L 179 123 Q 175.7 121.7 177 126.5 L 176 132 Q 173 130.8 174 134.5 L 173 138 Q 170 136.8 171 140.5 L 166 146.5 L 166 149 Q 163.3 147.9 164 150.5 L 161 152 L 159.5 155 Q 157.3 154.3 158 156.5 L 155 158 L 153.5 161 L 146 164 L 144.5 167 L 134.5 172 L 127.5 173 L 125.5 175 L 120.5 176 L 85.5 176 Q 80.1 172.4 71.5 172 L 59.5 166 L 56.5 163 L 54 163 Q 55.1 160.3 52.5 161 L 51 158 L 48 156.5 Q 48.8 154.3 46.5 155 L 45 152 L 42 150.5 Q 42.8 148.3 40.5 149 L 36 142.5 L 36 140 L 33 138.5 L 26 120.5 L 26 113.5 L 24 111.5 L 24 83 Q 27.5 84.1 26 76.5 L 29 70.5 L 30 64 Q 33 65.3 32 61.5 L 33 58 Q 36 59.3 35 55.5 L 40.5 47 Q 42.8 47.8 42 45.5 L 45 44 L 46.5 41 Q 48.8 41.8 48 39.5 L 51 38 L 52.5 35 L 60 32 L 61.5 29 L 70.5 25 L 74 25 Q 72.7 21.3 78.5 23 L 79.5 22 L 86 22 L 86 20 Z M 91 21 L 88 23 L 83 23 L 77 26 L 74 26 L 55 37 Q 44 45 37 57 L 31 68 L 30 74 L 27 80 L 27 85 L 25 88 L 25 109 Q 28 111 27 118 L 35 137 L 41 146 Q 50 157 63 165 L 73 170 L 76 170 L 82 173 L 86 173 L 89 175 L 118 175 L 120 173 L 125 173 L 133 170 L 147 162 Q 149 163 148 160 L 152 159 L 164 147 L 170 138 L 178 119 L 180 109 L 180 102 L 181 101 L 179 83 L 175 69 Q 169 55 159 45 L 144 32 L 128 24 L 118 23 L 116 21 L 91 21 Z " /><path fill="rgb(251,212,62)" stroke="rgb(251,212,62)" stroke-width="1" opacity="0.996078431372549" d="M 90.5 21 L 113.5 21 Q 116.2 23.8 122.5 23 L 145 33 Q 143.9 35.7 146.5 35 L 163 49.5 L 175 69.5 L 175 71.5 L 178 79.5 L 178 81.5 L 180 88.5 L 180 107.5 L 177 117.5 Q 179.5 119 176 120.5 L 175 122.5 L 175 124.5 L 169 138.5 L 166 141.5 L 166 144 Q 163.3 142.9 164 145.5 L 162 149 L 159 150.5 L 154.5 156 L 143 163 Q 144.1 165.7 141.5 165 L 127.5 172 L 125.5 172 L 115.5 175 L 89.5 175 L 86.5 173 L 78.5 172 L 76.5 170 L 73.5 170 L 63.5 165 Q 51.4 158.2 43 147.5 L 41 144.5 L 31 128.5 L 31 126.5 L 27 115.5 L 28 112.5 L 25 107.5 L 25 87.5 L 27 85.5 L 28 75.5 Q 31.7 73.1 31 67 Q 34 68.3 33 64.5 L 46 45 Q 48.7 46.1 48 43.5 L 62.5 32 L 78.5 24 L 80.5 25 Q 82.5 22 88.5 23 L 90.5 21 Z M 89 23 L 89 25 L 83 25 L 82 26 Q 76 24 77 28 L 73 29 Q 69 28 70 31 L 64 32 L 63 35 Q 59 34 60 37 L 58 38 Q 54 37 55 40 L 51 43 Q 52 45 50 44 L 47 48 Q 44 47 45 50 L 42 51 L 41 55 Q 42 57 39 56 L 38 60 Q 39 62 36 61 L 35 65 Q 36 68 33 67 L 32 71 Q 34 76 30 75 L 29 80 Q 31 87 27 86 L 27 110 L 29 110 L 29 119 L 33 127 Q 32 131 35 130 L 36 136 L 47 149 Q 49 148 48 151 Q 58 162 74 168 Q 78 167 77 170 L 87 171 L 89 173 L 118 173 L 118 171 L 125 170 Q 130 172 129 168 L 134 167 Q 137 168 136 165 L 142 164 L 144 161 Q 147 162 146 159 L 152 157 Q 151 154 154 155 L 155 152 L 158 151 Q 157 148 160 149 L 165 142 Q 164 138 167 139 L 168 137 Q 167 133 170 134 L 171 132 Q 170 128 173 129 L 174 124 Q 173 119 176 120 L 177 115 Q 176 107 179 108 Q 177 101 178 89 L 176 82 Q 178 75 174 76 L 173 72 Q 175 66 171 67 L 170 64 Q 171 60 168 61 L 168 59 L 165 57 L 165 55 L 161 48 L 158 47 Q 159 44 157 45 L 155 42 L 152 41 L 140 32 L 124 25 Q 116 26 117 23 L 89 23 Z " /><path fill="rgb(252,213,63)" stroke="rgb(252,213,63)" stroke-width="1" opacity="1" d="M 88.5 22 L 89.5 23 L 117 23 Q 115.9 26.5 123.5 25 L 144.5 35 L 146 34.5 Q 143.8 35.8 146.5 37 L 155 42 L 156.5 45 L 158 44.5 L 157.5 43 Q 160.3 44.3 158 45.5 L 159.5 48 Q 161.8 47.3 161 49.5 L 165 54.5 L 165 57 L 167.5 56 Q 170.3 57.3 168 58.5 L 168 61 Q 171 59.8 170 63.5 L 171 67 Q 174.7 65.7 173 71.5 L 174 76 L 176.5 75 L 176 76.5 L 177 87.5 L 178 88.5 L 178 103.5 L 180 108.5 L 178.5 108 Q 175.5 107.5 177 114.5 L 176 119.5 L 176.5 121 L 174 120 L 173 128.5 L 173.5 130 L 171 129 L 170 134 Q 167 132.8 168 136.5 L 167 139 Q 164 137.8 165 141.5 L 160 148.5 Q 162.3 149.8 159.5 151 L 159.5 149 Q 157.3 148.3 158 150.5 L 155 152 L 153.5 155 Q 151.3 154.3 152 156.5 L 154 156.5 Q 152.3 160.8 150.5 158 L 146 159 Q 147.3 162 143.5 161 L 142 164 L 136 165 Q 137.3 168 133.5 167 L 129 168 L 130 170.5 L 128.5 170 L 118 171 L 117.5 173 L 88.5 173 L 86.5 171 L 77.5 170 L 76 170.5 L 77 168 L 73.5 168 L 64.5 164 Q 54.8 158.8 48 150.5 Q 48.8 148.3 46.5 149 Q 44.3 144.7 42 146.5 L 42 144.5 L 42 142.5 L 36 135.5 L 35 130 Q 31.7 131.3 33 126.5 L 29 118.5 L 29 110 L 26.5 111 L 27 109.5 L 27 86.5 L 26 85.5 L 27.5 86 Q 30.5 86.5 29 79.5 L 30 75 Q 33.7 76.3 32 70.5 L 33 67.5 L 32.5 66 L 35 67 L 36 61.5 L 35.5 60 L 38 61 L 39 56 Q 41.7 57.1 41 54.5 L 42 51.5 L 41 50.5 L 45.5 46 L 45.5 48 L 48 46.5 L 47 44.5 L 49.5 44 Q 51.8 44.8 51 42.5 L 50 41.5 L 54.5 37 L 57.5 38 L 60 37 Q 58.8 34 62.5 35 L 64 32.5 L 63.5 31 L 66.5 32 L 70 31 L 69 28.5 L 70.5 29 L 77 28 Q 75.7 24.3 81.5 26 L 82.5 25 L 89 25 L 88.5 22 Z M 55 38 L 53 41 L 55 40 L 55 38 Z M 45 48 L 43 51 L 45 50 L 45 48 Z " /><path fill="rgb(252,213,63)" stroke="rgb(252,213,63)" stroke-width="1" opacity="1" d="M 125.5 24 L 128 24.5 L 125.5 25 L 125.5 24 Z " /><path fill="rgb(252,213,63)" stroke="rgb(252,213,63)" stroke-width="1" opacity="1" d="M 180.5 95 L 181 100.5 L 180 100.5 L 180.5 95 Z " /><path fill="rgb(252,213,63)" stroke="rgb(252,213,63)" stroke-width="1" opacity="1" d="M 27.5 112 L 28 114.5 L 27 114.5 L 27.5 112 Z " /><path fill="rgb(252,213,63)" stroke="rgb(252,213,63)" stroke-width="1" opacity="1" d="M 38.5 141 L 39.5 143 L 38.5 141 Z " /><path fill="rgb(252,213,63)" stroke="rgb(252,213,63)" stroke-width="1" opacity="1" d="M 163.5 146 L 162.5 148 L 163.5 146 Z " /><path fill="rgb(252,213,63)" stroke="rgb(252,213,63)" stroke-width="1" opacity="1" d="M 55.5 159 L 56.5 161 L 55.5 159 Z " /><path fill="rgb(252,213,63)" stroke="rgb(252,213,63)" stroke-width="1" opacity="1" d="M 58.5 161 L 59.5 163 L 58.5 161 Z " /><path fill="rgb(252,213,63)" stroke="rgb(252,213,63)" stroke-width="1" opacity="1" d="M 61.5 163 L 62.5 165 L 61.5 163 Z " /></svg>