<svg width="200" height="200" version="1.1" xmlns="http://www.w3.org/2000/svg" desc="Created with imagetracer.js version 1.2.6" ><path fill="rgb(0,0,0)" stroke="rgb(0,0,0)" stroke-width="1" opacity="0" d="M 0 0 L 200 0 L 200 200 L 0 200 L 0 0 Z M 42 74 L 36 80 L 36 82 L 32 84 L 29 90 L 25 91 L 23 95 L 23 128 L 23 130 L 26 133 Q 28 132 27 135 L 29 135 Q 28 139 31 140 Q 33 139 32 142 L 34 142 L 34 144 L 36 144 L 36 146 L 39 148 Q 38 150 42 149 L 42 151 L 45 150 L 137 150 L 138 151 Q 142 152 141 149 Q 146 149 148 146 L 148 144 L 152 144 Q 151 141 154 142 L 155 139 L 157 139 L 159 139 L 161 135 L 164 135 L 164 133 L 169 130 L 171 130 L 173 126 L 176 125 L 178 125 L 180 121 L 184 121 L 186 114 L 185 105 L 182 104 Q 179 105 180 102 L 178 102 L 167 93 Q 163 94 164 91 L 161 90 L 161 88 L 157 88 L 157 86 Q 154 87 155 85 L 150 81 Q 147 82 148 79 L 146 79 L 139 74 L 42 74 Z " /><path fill="rgb(61,61,61)" stroke="rgb(61,61,61)" stroke-width="1" opacity="0.8901960784313725" d="M 45.5 74 L 134.5 74 L 135 76 L 44.5 76 L 42 78.5 L 42 80 L 40 80 Q 41.1 82.7 38.5 82 L 40 79.5 L 40 78 L 42 78 Q 40.9 75.3 43.5 76 L 45.5 74 Z " /><path fill="rgb(61,61,61)" stroke="rgb(61,61,61)" stroke-width="1" opacity="0.8901960784313725" d="M 138.5 76 L 141 77.5 L 139.5 78 L 138.5 76 Z " /><path fill="rgb(61,61,61)" stroke="rgb(61,61,61)" stroke-width="1" opacity="0.8901960784313725" d="M 52.5 79 L 132.5 79 L 135 81.5 L 137 85.5 L 135 84.5 L 132.5 80 L 52 80.5 L 53.5 83 Q 51.3 83.8 52 81.5 Q 49.8 80.3 52.5 79 Z " /><path fill="rgb(61,61,61)" stroke="rgb(61,61,61)" stroke-width="1" opacity="0.8901960784313725" d="M 144.5 80 L 150 83 L 149.5 85 L 144 82 L 144.5 80 Z " /><path fill="rgb(61,61,61)" stroke="rgb(61,61,61)" stroke-width="1" opacity="0.8901960784313725" d="M 44.5 81 L 49 83 L 51 86.5 L 49 87 L 49 85 L 47 85 Q 48.1 82.3 45.5 83 Q 44.3 80.8 43 83.5 L 36.5 91 L 38 88.5 L 42 83.5 L 44.5 81 Z " /><path fill="rgb(61,61,61)" stroke="rgb(61,61,61)" stroke-width="1" opacity="0.8901960784313725" d="M 36 83 L 38 83.5 L 36 84.5 L 36 83 Z " /><path fill="rgb(61,61,61)" stroke="rgb(61,61,61)" stroke-width="1" opacity="0.8901960784313725" d="M 140.5 85 L 142 88.5 L 141 88.5 L 140.5 85 Z " /><path fill="rgb(61,61,61)" stroke="rgb(61,61,61)" stroke-width="1" opacity="0.8901960784313725" d="M 142.5 85 L 145 86.5 L 143.5 86 L 142.5 85 Z " /><path fill="rgb(61,61,61)" stroke="rgb(61,61,61)" stroke-width="1" opacity="0.8901960784313725" d="M 151 85 Q 154 84 153 87 Q 150 88 151 85 Z " /><path fill="rgb(61,61,61)" stroke="rgb(61,61,61)" stroke-width="1" opacity="0.8901960784313725" d="M 57.5 87 L 58.5 89 Q 55.7 89.7 57.5 87 Z " /><path fill="rgb(61,61,61)" stroke="rgb(61,61,61)" stroke-width="1" opacity="0.8901960784313725" d="M 154.5 87 Q 155.7 90.7 160 90 Q 161.1 92.7 158.5 92 L 154.5 87 Z " /><path fill="rgb(61,61,61)" stroke="rgb(61,61,61)" stroke-width="1" opacity="0.8901960784313725" d="M 32.5 88 L 33 90 Q 30.3 88.9 31 91.5 L 30 94 L 26 96 L 26 94 L 28 94 L 28 92 Q 30.7 93.1 30 90.5 L 32.5 88 Z " /><path fill="rgb(61,61,61)" stroke="rgb(61,61,61)" stroke-width="1" opacity="0.8901960784313725" d="M 51.5 88 L 52.5 90 L 51.5 88 Z " /><path fill="rgb(61,61,61)" stroke="rgb(61,61,61)" stroke-width="1" opacity="0.8901960784313725" d="M 137.5 88 Q 140.1 90.5 139 96 L 137 95.5 L 138 93.5 Q 135.7 92.1 137.5 88 Z " /><path fill="rgb(61,61,61)" stroke="rgb(61,61,61)" stroke-width="1" opacity="0.8901960784313725" d="M 147.5 88 L 148.5 90 L 147.5 88 Z " /><path fill="rgb(61,61,61)" stroke="rgb(61,61,61)" stroke-width="1" opacity="0.8901960784313725" d="M 59.5 90 L 61 90 L 61 92 Q 63.7 90.9 63 93.5 L 64.5 96 L 63 96 L 63 94 Q 60.3 95.1 61 92.5 L 59.5 90 Z " /><path fill="rgb(61,61,61)" stroke="rgb(61,61,61)" stroke-width="1" opacity="0.8901960784313725" d="M 142.5 90 L 144 94.5 L 142 93.5 L 142.5 90 Z " /><path fill="rgb(61,61,61)" stroke="rgb(61,61,61)" stroke-width="1" opacity="0.8901960784313725" d="M 34.5 92 L 35 94 L 33 93.5 L 34.5 92 Z " /><path fill="rgb(61,61,61)" stroke="rgb(61,61,61)" stroke-width="1" opacity="0.8901960784313725" d="M 153.5 93 L 159 96.5 L 156.5 95 Q 152.7 94.8 153.5 93 Z " /><path fill="rgb(61,61,61)" stroke="rgb(61,61,61)" stroke-width="1" opacity="0.8901960784313725" d="M 164.5 93 L 167.5 97 L 169 97.5 L 167.5 98 L 163 94.5 L 164.5 93 Z " /><path fill="rgb(61,61,61)" stroke="rgb(61,61,61)" stroke-width="1" opacity="0.8901960784313725" d="M 56.5 94 Q 58.8 93.3 58 95.5 L 61 97 L 60.5 99 L 56.5 94 Z " /><path fill="rgb(61,61,61)" stroke="rgb(61,61,61)" stroke-width="1" opacity="0.8901960784313725" d="M 31 95 L 33 95.5 L 29.5 100 L 29 97 Q 32 98 31 95 Z " /><path fill="rgb(61,61,61)" stroke="rgb(61,61,61)" stroke-width="1" opacity="0.8901960784313725" d="M 24 97 L 26 97.5 L 26 128.5 L 27.5 131 L 24 128.5 L 24 97 Z " /><path fill="rgb(61,61,61)" stroke="rgb(61,61,61)" stroke-width="1" opacity="0.8901960784313725" d="M 160.5 97 L 161.5 99 Q 158.7 99.7 160.5 97 Z " /><path fill="rgb(61,61,61)" stroke="rgb(61,61,61)" stroke-width="1" opacity="0.8901960784313725" d="M 42.5 98 L 45 98.5 L 40.5 100 L 40.5 99 L 42.5 98 Z " /><path fill="rgb(61,61,61)" stroke="rgb(61,61,61)" stroke-width="1" opacity="0.8901960784313725" d="M 47.5 99 L 49 101.5 L 47 100.5 L 47.5 99 Z " /><path fill="rgb(61,61,61)" stroke="rgb(61,61,61)" stroke-width="1" opacity="0.8901960784313725" d="M 144.5 99 L 146 101.5 L 146 124.5 L 144.5 127 L 144 122.5 L 145 121.5 L 145 105.5 Q 142.4 103.9 144.5 99 Z " /><path fill="rgb(61,61,61)" stroke="rgb(61,61,61)" stroke-width="1" opacity="0.8901960784313725" d="M 163.5 99 L 171 104 L 170.5 106 Q 168.1 101.6 163 101 L 163.5 99 Z " /><path fill="rgb(61,61,61)" stroke="rgb(61,61,61)" stroke-width="1" opacity="0.8901960784313725" d="M 170.5 99 Q 172.8 98.3 172 100.5 L 170.5 99 Z " /><path fill="rgb(61,61,61)" stroke="rgb(61,61,61)" stroke-width="1" opacity="0.8901960784313725" d="M 66.5 100 L 138.5 100 L 141 101 L 140.5 105 L 138.5 101 L 66.5 101 L 66.5 100 Z " /><path fill="rgb(61,61,61)" stroke="rgb(61,61,61)" stroke-width="1" opacity="0.8901960784313725" d="M 39.5 101 L 40 102.5 L 37.5 108 L 37 105.5 L 39.5 101 Z " /><path fill="rgb(61,61,61)" stroke="rgb(61,61,61)" stroke-width="1" opacity="0.8901960784313725" d="M 64.5 101 L 65 124.5 L 66.5 126 L 138.5 126 L 140 124.5 L 140.5 122 L 141 126 L 138.5 127 L 65 127 L 64 124.5 L 64.5 101 Z " /><path fill="rgb(61,61,61)" stroke="rgb(61,61,61)" stroke-width="1" opacity="0.8901960784313725" d="M 174.5 102 L 179 105.5 L 177.5 105 L 174.5 103 L 174.5 102 Z " /><path fill="rgb(61,61,61)" stroke="rgb(61,61,61)" stroke-width="1" opacity="0.8901960784313725" d="M 50.5 106 L 52 114.5 L 49.5 122 L 49 120.5 L 50 119.5 L 50.5 106 Z " /><path fill="rgb(61,61,61)" stroke="rgb(61,61,61)" stroke-width="1" opacity="0.8901960784313725" d="M 180.5 106 L 181.5 108 L 180.5 106 Z " /><path fill="rgb(61,61,61)" stroke="rgb(61,61,61)" stroke-width="1" opacity="0.8901960784313725" d="M 171.5 108 L 172 117.5 L 171 117.5 L 171.5 108 Z " /><path fill="rgb(61,61,61)" stroke="rgb(61,61,61)" stroke-width="1" opacity="0.8901960784313725" d="M 183 108 Q 186 107 185 110 Q 182 111 183 108 Z " /><path fill="rgb(61,61,61)" stroke="rgb(61,61,61)" stroke-width="1" opacity="0.8901960784313725" d="M 36.5 111 L 37 114.5 L 36 114.5 L 36.5 111 Z " /><path fill="rgb(61,61,61)" stroke="rgb(61,61,61)" stroke-width="1" opacity="0.8901960784313725" d="M 183 115 Q 186 114 185 117 L 179.5 120 L 179 118 L 183 117 L 183 115 Z " /><path fill="rgb(61,61,61)" stroke="rgb(61,61,61)" stroke-width="1" opacity="0.8901960784313725" d="M 37.5 117 L 38 119.5 L 37 119.5 L 37.5 117 Z " /><path fill="rgb(61,61,61)" stroke="rgb(61,61,61)" stroke-width="1" opacity="0.8901960784313725" d="M 170.5 120 L 171 122 L 167 124 Q 165.9 121.3 168.5 122 L 170.5 120 Z " /><path fill="rgb(61,61,61)" stroke="rgb(61,61,61)" stroke-width="1" opacity="0.8901960784313725" d="M 38.5 121 L 40 123.5 L 38 124 L 38.5 121 Z " /><path fill="rgb(61,61,61)" stroke="rgb(61,61,61)" stroke-width="1" opacity="0.8901960784313725" d="M 174 122 Q 177 121 176 124 Q 173 125 174 122 Z " /><path fill="rgb(61,61,61)" stroke="rgb(61,61,61)" stroke-width="1" opacity="0.8901960784313725" d="M 48.5 123 L 49 125 L 47 124.5 L 48.5 123 Z " /><path fill="rgb(61,61,61)" stroke="rgb(61,61,61)" stroke-width="1" opacity="0.8901960784313725" d="M 165.5 124 L 166 126 L 160.5 128 L 160.5 127 L 165.5 124 Z " /><path fill="rgb(61,61,61)" stroke="rgb(61,61,61)" stroke-width="1" opacity="0.8901960784313725" d="M 172.5 124 L 173 126 L 167.5 129 L 167 127 L 172.5 124 Z " /><path fill="rgb(61,61,61)" stroke="rgb(61,61,61)" stroke-width="1" opacity="0.8901960784313725" d="M 40.5 125 Q 42.8 124.3 42 126.5 L 40.5 125 Z " /><path fill="rgb(61,61,61)" stroke="rgb(61,61,61)" stroke-width="1" opacity="0.8901960784313725" d="M 29.5 127 L 32.5 131 Q 30.3 131.8 31 129.5 L 29.5 127 Z " /><path fill="rgb(61,61,61)" stroke="rgb(61,61,61)" stroke-width="1" opacity="0.8901960784313725" d="M 60.5 127 L 58.5 130 L 60.5 127 Z " /><path fill="rgb(61,61,61)" stroke="rgb(61,61,61)" stroke-width="1" opacity="0.8901960784313725" d="M 157 129 L 159 129.5 L 157 130.5 L 157 129 Z " /><path fill="rgb(61,61,61)" stroke="rgb(61,61,61)" stroke-width="1" opacity="0.8901960784313725" d="M 165.5 129 L 164.5 131 L 165.5 129 Z " /><path fill="rgb(61,61,61)" stroke="rgb(61,61,61)" stroke-width="1" opacity="0.8901960784313725" d="M 56 131 L 58 131.5 L 56 135 L 54 134.5 L 56 131 Z " /><path fill="rgb(61,61,61)" stroke="rgb(61,61,61)" stroke-width="1" opacity="0.8901960784313725" d="M 138.5 131 L 139 138 Q 135.7 139.3 137 134.5 L 138.5 131 Z " /><path fill="rgb(61,61,61)" stroke="rgb(61,61,61)" stroke-width="1" opacity="0.8901960784313725" d="M 143.5 131 L 144 132.5 L 142.5 135 L 142 132.5 L 143.5 131 Z " /><path fill="rgb(61,61,61)" stroke="rgb(61,61,61)" stroke-width="1" opacity="0.8901960784313725" d="M 162.5 131 L 161.5 133 L 160 132.5 L 162.5 131 Z " /><path fill="rgb(61,61,61)" stroke="rgb(61,61,61)" stroke-width="1" opacity="0.8901960784313725" d="M 28.5 132 L 30.5 135 L 28.5 132 Z " /><path fill="rgb(61,61,61)" stroke="rgb(61,61,61)" stroke-width="1" opacity="0.8901960784313725" d="M 33.5 132 L 37.5 137 L 33.5 132 Z " /><path fill="rgb(61,61,61)" stroke="rgb(61,61,61)" stroke-width="1" opacity="0.8901960784313725" d="M 151.5 133 L 153 133.5 L 146.5 138 L 147.5 136 L 151.5 133 Z " /><path fill="rgb(61,61,61)" stroke="rgb(61,61,61)" stroke-width="1" opacity="0.8901960784313725" d="M 158.5 134 L 160 134.5 L 157.5 136 L 158.5 134 Z " /><path fill="rgb(61,61,61)" stroke="rgb(61,61,61)" stroke-width="1" opacity="0.8901960784313725" d="M 60.5 135 L 59.5 137 L 60.5 135 Z " /><path fill="rgb(61,61,61)" stroke="rgb(61,61,61)" stroke-width="1" opacity="0.8901960784313725" d="M 31.5 136 Q 34.1 135.3 33 138 L 35 138 L 35 139.5 L 37 142.5 L 36 142.5 L 34.5 140 Q 32.3 140.8 33 138.5 L 31.5 136 Z " /><path fill="rgb(61,61,61)" stroke="rgb(61,61,61)" stroke-width="1" opacity="0.8901960784313725" d="M 141.5 137 L 142 139.5 L 141.5 141 L 140 138.5 L 141.5 137 Z " /><path fill="rgb(61,61,61)" stroke="rgb(61,61,61)" stroke-width="1" opacity="0.8901960784313725" d="M 57.5 138 L 56.5 140 L 57.5 138 Z " /><path fill="rgb(61,61,61)" stroke="rgb(61,61,61)" stroke-width="1" opacity="0.8901960784313725" d="M 151.5 139 L 153 139.5 L 150.5 141 L 151.5 139 Z " /><path fill="rgb(61,61,61)" stroke="rgb(61,61,61)" stroke-width="1" opacity="0.8901960784313725" d="M 41.5 140 L 43.5 143 Q 47.8 143.8 48.5 141 L 45.5 145 L 41 141.5 L 41.5 140 Z " /><path fill="rgb(61,61,61)" stroke="rgb(61,61,61)" stroke-width="1" opacity="0.8901960784313725" d="M 136.5 141 L 136 142.5 L 134 147 L 132 146.5 L 136.5 141 Z " /><path fill="rgb(61,61,61)" stroke="rgb(61,61,61)" stroke-width="1" opacity="0.8901960784313725" d="M 148.5 141 L 147.5 143 L 148.5 141 Z " /><path fill="rgb(61,61,61)" stroke="rgb(61,61,61)" stroke-width="1" opacity="0.8901960784313725" d="M 52 143 L 54 143.5 Q 50.9 145.3 52.5 147 Q 49.8 145.8 52 144.5 L 52 143 Z " /><path fill="rgb(61,61,61)" stroke="rgb(61,61,61)" stroke-width="1" opacity="0.8901960784313725" d="M 142.5 145 Q 145.1 144.3 144 147 L 141 147 L 141 149 L 137 151 L 138.5 148 L 142.5 145 Z " /><path fill="rgb(61,61,61)" stroke="rgb(61,61,61)" stroke-width="1" opacity="0.8901960784313725" d="M 40.5 146 L 44 150.5 L 41 148.5 L 40.5 146 Z " /><path fill="rgb(152,152,152)" stroke="rgb(152,152,152)" stroke-width="1" opacity="0.7803921568627451" d="M 43 74 L 45 74.5 L 43 75.5 L 43 74 Z " /><path fill="rgb(152,152,152)" stroke="rgb(152,152,152)" stroke-width="1" opacity="0.7803921568627451" d="M 135 74 L 141 75 Q 139.8 78 143.5 77 L 146 81 L 148 81.5 L 146.5 82 L 139.5 76 L 135 76 L 135 74 Z " /><path fill="rgb(152,152,152)" stroke="rgb(152,152,152)" stroke-width="1" opacity="0.7803921568627451" d="M 41.5 75 L 42 77.5 L 41 77.5 L 41.5 75 Z " /><path fill="rgb(152,152,152)" stroke="rgb(152,152,152)" stroke-width="1" opacity="0.7803921568627451" d="M 39.5 76 L 40 78 L 38 77.5 L 39.5 76 Z " /><path fill="rgb(152,152,152)" stroke="rgb(152,152,152)" stroke-width="1" opacity="0.7803921568627451" d="M 38 79 L 40 79.5 L 38 83 Q 35.3 81.9 36 84.5 L 31 88.5 L 31 86.5 L 34.5 83 Q 37.1 83.7 36 81 L 38 81 L 38 79 Z " /><path fill="rgb(152,152,152)" stroke="rgb(152,152,152)" stroke-width="1" opacity="0.7803921568627451" d="M 52.5 80 L 53.5 82 L 52.5 80 Z " /><path fill="rgb(152,152,152)" stroke="rgb(152,152,152)" stroke-width="1" opacity="0.7803921568627451" d="M 132.5 80 L 135 83.5 L 133 82.5 L 132.5 80 Z " /><path fill="rgb(152,152,152)" stroke="rgb(152,152,152)" stroke-width="1" opacity="0.7803921568627451" d="M 149.5 81 L 151 84.5 L 150 84.5 L 149.5 81 Z " /><path fill="rgb(152,152,152)" stroke="rgb(152,152,152)" stroke-width="1" opacity="0.7803921568627451" d="M 44.5 82 L 44 83.5 L 43.5 85 L 43 83.5 L 44.5 82 Z " /><path fill="rgb(152,152,152)" stroke="rgb(152,152,152)" stroke-width="1" opacity="0.7803921568627451" d="M 54.5 83 Q 56.8 82.3 56 84.5 L 57.5 87 Q 55.3 87.8 56 85.5 L 54.5 83 Z " /><path fill="rgb(152,152,152)" stroke="rgb(152,152,152)" stroke-width="1" opacity="0.7803921568627451" d="M 153.5 83 L 154.5 85 L 153.5 83 Z " /><path fill="rgb(152,152,152)" stroke="rgb(152,152,152)" stroke-width="1" opacity="0.7803921568627451" d="M 135.5 85 L 137 87.5 L 135 86.5 L 135.5 85 Z " /><path fill="rgb(152,152,152)" stroke="rgb(152,152,152)" stroke-width="1" opacity="0.7803921568627451" d="M 141.5 85 L 148 89.5 L 145.5 88 L 143.5 87 L 143 89.5 L 144 91.5 L 143 91.5 L 141.5 85 Z " /><path fill="rgb(152,152,152)" stroke="rgb(152,152,152)" stroke-width="1" opacity="0.7803921568627451" d="M 153.5 86 Q 157.9 84.5 157 87.5 L 158 89.5 L 154.5 87 L 153.5 86 Z " /><path fill="rgb(152,152,152)" stroke="rgb(152,152,152)" stroke-width="1" opacity="0.7803921568627451" d="M 50.5 87 L 52.5 90 Q 54.8 89.3 54 91.5 L 55.5 94 Q 53.3 94.8 54 92.5 L 50 88.5 L 50.5 87 Z " /><path fill="rgb(152,152,152)" stroke="rgb(152,152,152)" stroke-width="1" opacity="0.7803921568627451" d="M 39.5 88 L 36 92.5 L 35.5 94 L 35 92.5 L 39.5 88 Z " /><path fill="rgb(152,152,152)" stroke="rgb(152,152,152)" stroke-width="1" opacity="0.7803921568627451" d="M 149.5 90 L 150.5 92 Q 147.7 92.7 149.5 90 Z " /><path fill="rgb(152,152,152)" stroke="rgb(152,152,152)" stroke-width="1" opacity="0.7803921568627451" d="M 26.5 91 L 28 93.5 L 27 93.5 L 26.5 91 Z " /><path fill="rgb(152,152,152)" stroke="rgb(152,152,152)" stroke-width="1" opacity="0.7803921568627451" d="M 162.5 91 L 164 94 Q 160.5 95.1 162.5 91 Z " /><path fill="rgb(152,152,152)" stroke="rgb(152,152,152)" stroke-width="1" opacity="0.7803921568627451" d="M 137.5 93 L 138 94.5 L 136.5 96 L 65.5 96 L 64.5 94 L 65.5 95 L 137 95 L 137.5 93 Z " /><path fill="rgb(152,152,152)" stroke="rgb(152,152,152)" stroke-width="1" opacity="0.7803921568627451" d="M 165.5 93 L 166.5 95 L 167.5 94 L 171 97.5 Q 171.7 100.1 169 99 Q 170.1 96.3 167.5 97 Q 163.9 95.9 165.5 93 Z " /><path fill="rgb(152,152,152)" stroke="rgb(152,152,152)" stroke-width="1" opacity="0.7803921568627451" d="M 23.5 94 L 26 95 Q 26.8 98.1 24 97.5 L 24 127.5 L 23 127.5 L 23.5 94 Z " /><path fill="rgb(152,152,152)" stroke="rgb(152,152,152)" stroke-width="1" opacity="0.7803921568627451" d="M 56.5 95 L 61 99.5 L 61 126.5 L 59 127.5 L 60 126.5 L 60 100.5 L 56.5 95 Z " /><path fill="rgb(152,152,152)" stroke="rgb(152,152,152)" stroke-width="1" opacity="0.7803921568627451" d="M 155.5 95 L 160 97.5 L 158.5 98 L 155.5 95 Z " /><path fill="rgb(152,152,152)" stroke="rgb(152,152,152)" stroke-width="1" opacity="0.7803921568627451" d="M 32.5 96 L 31.5 98 L 32.5 96 Z " /><path fill="rgb(152,152,152)" stroke="rgb(152,152,152)" stroke-width="1" opacity="0.7803921568627451" d="M 144.5 96 L 146 100.5 L 145 100.5 L 144.5 96 Z " /><path fill="rgb(152,152,152)" stroke="rgb(152,152,152)" stroke-width="1" opacity="0.7803921568627451" d="M 42.5 97 Q 46.3 96.3 47 98.5 L 45.5 99 L 42.5 98 L 41 98.5 L 42.5 97 Z " /><path fill="rgb(152,152,152)" stroke="rgb(152,152,152)" stroke-width="1" opacity="0.7803921568627451" d="M 173.5 98 L 178 104 Q 180.7 102.9 180 105.5 L 175.5 102 L 172 101 L 173.5 98 Z " /><path fill="rgb(152,152,152)" stroke="rgb(152,152,152)" stroke-width="1" opacity="0.7803921568627451" d="M 48.5 99 L 51 105.5 L 50 105.5 L 48.5 99 Z " /><path fill="rgb(152,152,152)" stroke="rgb(152,152,152)" stroke-width="1" opacity="0.7803921568627451" d="M 29.5 100 L 30 126.5 L 31 127.5 L 29 126.5 L 29.5 100 Z " /><path fill="rgb(152,152,152)" stroke="rgb(152,152,152)" stroke-width="1" opacity="0.7803921568627451" d="M 39.5 100 L 38.5 102 L 39.5 100 Z " /><path fill="rgb(152,152,152)" stroke="rgb(152,152,152)" stroke-width="1" opacity="0.7803921568627451" d="M 65.5 101 L 66 124.5 L 67 125.5 L 65 124.5 L 65.5 101 Z " /><path fill="rgb(152,152,152)" stroke="rgb(152,152,152)" stroke-width="1" opacity="0.7803921568627451" d="M 165.5 102 L 171 106.5 L 171 119.5 L 169.5 121 L 170 119.5 L 170 106.5 L 166.5 103 L 165.5 102 Z " /><path fill="rgb(152,152,152)" stroke="rgb(152,152,152)" stroke-width="1" opacity="0.7803921568627451" d="M 37.5 104 L 37 105.5 L 36.5 111 L 36 105.5 L 37.5 104 Z " /><path fill="rgb(152,152,152)" stroke="rgb(152,152,152)" stroke-width="1" opacity="0.7803921568627451" d="M 181.5 104 L 183 107.5 L 181 106.5 L 181.5 104 Z " /><path fill="rgb(152,152,152)" stroke="rgb(152,152,152)" stroke-width="1" opacity="0.7803921568627451" d="M 140.5 105 L 141 111.5 L 140 111.5 L 140.5 105 Z " /><path fill="rgb(152,152,152)" stroke="rgb(152,152,152)" stroke-width="1" opacity="0.7803921568627451" d="M 51.5 107 L 52 110.5 L 51 110.5 L 51.5 107 Z " /><path fill="rgb(152,152,152)" stroke="rgb(152,152,152)" stroke-width="1" opacity="0.7803921568627451" d="M 185.5 111 L 186 113.5 L 185 113.5 L 185.5 111 Z " /><path fill="rgb(152,152,152)" stroke="rgb(152,152,152)" stroke-width="1" opacity="0.7803921568627451" d="M 140.5 114 L 141 121.5 L 138.5 126 L 139 124.5 L 140.5 114 Z " /><path fill="rgb(152,152,152)" stroke="rgb(152,152,152)" stroke-width="1" opacity="0.7803921568627451" d="M 36.5 115 L 38 121.5 L 37 121.5 L 36.5 115 Z " /><path fill="rgb(152,152,152)" stroke="rgb(152,152,152)" stroke-width="1" opacity="0.7803921568627451" d="M 51.5 115 L 52 118.5 L 51 118.5 L 51.5 115 Z " /><path fill="rgb(152,152,152)" stroke="rgb(152,152,152)" stroke-width="1" opacity="0.7803921568627451" d="M 183.5 117 L 184 119.5 L 182.5 119 L 181 119.5 L 181.5 121 Q 178.9 120.3 180 123 L 176.5 123 L 176.5 122 L 179.5 120 L 183.5 117 Z " /><path fill="rgb(152,152,152)" stroke="rgb(152,152,152)" stroke-width="1" opacity="0.7803921568627451" d="M 50.5 120 L 51 121.5 L 49.5 124 L 49 122.5 L 50.5 120 Z " /><path fill="rgb(152,152,152)" stroke="rgb(152,152,152)" stroke-width="1" opacity="0.7803921568627451" d="M 164.5 124 L 163.5 126 L 162 125.5 L 164.5 124 Z " /><path fill="rgb(152,152,152)" stroke="rgb(152,152,152)" stroke-width="1" opacity="0.7803921568627451" d="M 173 124 L 177 124.5 L 173 126 Q 174.3 129.3 169.5 128 L 169.5 130 L 165 132 L 166.5 129 L 173 125.5 L 173 124 Z " /><path fill="rgb(152,152,152)" stroke="rgb(152,152,152)" stroke-width="1" opacity="0.7803921568627451" d="M 145.5 125 L 146 127.5 L 144.5 130 L 144 127.5 L 145.5 125 Z " /><path fill="rgb(152,152,152)" stroke="rgb(152,152,152)" stroke-width="1" opacity="0.7803921568627451" d="M 42.5 127 L 47 127.5 L 42.5 128 L 42.5 127 Z " /><path fill="rgb(152,152,152)" stroke="rgb(152,152,152)" stroke-width="1" opacity="0.7803921568627451" d="M 25.5 129 L 26 131 Q 28.7 129.9 28 132.5 L 30.5 136 L 27 135 L 26.5 132 Q 25.3 134.3 24 131.5 L 25.5 129 Z " /><path fill="rgb(152,152,152)" stroke="rgb(152,152,152)" stroke-width="1" opacity="0.7803921568627451" d="M 33.5 131 Q 35.8 130.3 35 132.5 L 39 137.5 L 38 137.5 L 33.5 131 Z " /><path fill="rgb(152,152,152)" stroke="rgb(152,152,152)" stroke-width="1" opacity="0.7803921568627451" d="M 137.5 131 L 138 133.5 L 137 133.5 L 137.5 131 Z " /><path fill="rgb(152,152,152)" stroke="rgb(152,152,152)" stroke-width="1" opacity="0.7803921568627451" d="M 153 131 L 155 131.5 L 153 132.5 L 153 131 Z " /><path fill="rgb(152,152,152)" stroke="rgb(152,152,152)" stroke-width="1" opacity="0.7803921568627451" d="M 163.5 131 L 164 133 Q 161.3 131.9 162 134.5 L 157 137.5 L 157.5 139 Q 154.5 139.7 156 136 L 158.5 135 L 160 135.5 Q 158.9 132.2 161.5 133 L 163.5 131 Z " /><path fill="rgb(152,152,152)" stroke="rgb(152,152,152)" stroke-width="1" opacity="0.7803921568627451" d="M 55.5 132 L 54 134.5 L 52 137.5 L 51 137.5 L 55.5 132 Z " /><path fill="rgb(152,152,152)" stroke="rgb(152,152,152)" stroke-width="1" opacity="0.7803921568627451" d="M 143.5 133 L 144 134.5 L 143 137.5 L 144 140 L 141 138.5 L 143.5 133 Z " /><path fill="rgb(152,152,152)" stroke="rgb(152,152,152)" stroke-width="1" opacity="0.7803921568627451" d="M 149.5 134 L 148.5 136 L 149.5 134 Z " /><path fill="rgb(152,152,152)" stroke="rgb(152,152,152)" stroke-width="1" opacity="0.7803921568627451" d="M 60.5 136 L 56.5 141 L 60.5 136 Z " /><path fill="rgb(152,152,152)" stroke="rgb(152,152,152)" stroke-width="1" opacity="0.7803921568627451" d="M 31.5 137 L 32.5 139 L 31.5 137 Z " /><path fill="rgb(152,152,152)" stroke="rgb(152,152,152)" stroke-width="1" opacity="0.7803921568627451" d="M 49.5 138 L 50 139.5 L 47 141.5 L 49.5 138 Z " /><path fill="rgb(152,152,152)" stroke="rgb(152,152,152)" stroke-width="1" opacity="0.7803921568627451" d="M 153 138 Q 155.7 136.9 155 139.5 L 153.5 142 L 153 138 Z " /><path fill="rgb(152,152,152)" stroke="rgb(152,152,152)" stroke-width="1" opacity="0.7803921568627451" d="M 136.5 139 L 137 140.5 L 135 141.5 L 136.5 139 Z " /><path fill="rgb(152,152,152)" stroke="rgb(152,152,152)" stroke-width="1" opacity="0.7803921568627451" d="M 34.5 140 L 35.5 143 L 38 143 L 38 145 Q 40.7 143.9 40 146.5 L 41 148.5 L 35.5 144 Q 32 144.8 34.5 140 Z " /><path fill="rgb(152,152,152)" stroke="rgb(152,152,152)" stroke-width="1" opacity="0.7803921568627451" d="M 151.5 140 L 152 142 L 150 142 L 150 144 Q 147.3 142.9 148 145.5 L 146 146.5 Q 144.5 142.1 147.5 143 L 151.5 140 Z " /><path fill="rgb(152,152,152)" stroke="rgb(152,152,152)" stroke-width="1" opacity="0.7803921568627451" d="M 42.5 141 L 43.5 143 L 42.5 141 Z " /><path fill="rgb(152,152,152)" stroke="rgb(152,152,152)" stroke-width="1" opacity="0.7803921568627451" d="M 134.5 143 L 131.5 147 L 53.5 147 L 52 145.5 Q 53.2 142.8 54.5 145 L 132.5 145 L 134.5 143 Z " /><path fill="rgb(152,152,152)" stroke="rgb(152,152,152)" stroke-width="1" opacity="0.7803921568627451" d="M 141 147 L 144 147.5 L 141 149 L 141 147 Z " /><path fill="rgb(221,221,221)" stroke="rgb(221,221,221)" stroke-width="1" opacity="0.9254901960784314" d="M 41.5 74 Q 43.8 73.3 43 75.5 L 41.5 74 Z " /><path fill="rgb(221,221,221)" stroke="rgb(221,221,221)" stroke-width="1" opacity="0.9254901960784314" d="M 40.5 76 L 41 77.5 L 39 78.5 L 40.5 76 Z " /><path fill="rgb(221,221,221)" stroke="rgb(221,221,221)" stroke-width="1" opacity="0.9254901960784314" d="M 146 79 L 148 79.5 L 146 80.5 L 146 79 Z " /><path fill="rgb(221,221,221)" stroke="rgb(221,221,221)" stroke-width="1" opacity="0.9254901960784314" d="M 53.5 80 L 131.5 80 L 133 81.5 L 131.5 81 L 55.5 81 L 55 82.5 L 54 82.5 L 53.5 80 Z " /><path fill="rgb(221,221,221)" stroke="rgb(221,221,221)" stroke-width="1" opacity="0.9254901960784314" d="M 44.5 83 Q 47.8 81.9 47 84.5 L 53 91.5 L 49 88.5 L 47 85.5 L 44.5 83 Z " /><path fill="rgb(221,221,221)" stroke="rgb(221,221,221)" stroke-width="1" opacity="0.9254901960784314" d="M 133.5 83 L 134.5 85 L 133.5 83 Z " /><path fill="rgb(221,221,221)" stroke="rgb(221,221,221)" stroke-width="1" opacity="0.9254901960784314" d="M 151.5 83 L 155 85.5 L 153.5 86 L 151 85 L 151.5 83 Z " /><path fill="rgb(221,221,221)" stroke="rgb(221,221,221)" stroke-width="1" opacity="0.9254901960784314" d="M 31.5 87 L 31 88.5 Q 31.7 91.1 29 90 Q 27.9 87.3 30.5 88 L 31.5 87 Z " /><path fill="rgb(221,221,221)" stroke="rgb(221,221,221)" stroke-width="1" opacity="0.9254901960784314" d="M 58.5 87 L 61 88.5 L 63 91.5 L 60 89.5 Q 60.8 87.3 58.5 88 L 58.5 87 Z " /><path fill="rgb(221,221,221)" stroke="rgb(221,221,221)" stroke-width="1" opacity="0.9254901960784314" d="M 135.5 87 L 137 90.5 L 136 90.5 L 135.5 87 Z " /><path fill="rgb(221,221,221)" stroke="rgb(221,221,221)" stroke-width="1" opacity="0.9254901960784314" d="M 143 88 L 149 90.5 L 147.5 91 L 144.5 89 L 143 89.5 L 143 88 Z " /><path fill="rgb(221,221,221)" stroke="rgb(221,221,221)" stroke-width="1" opacity="0.9254901960784314" d="M 158 88 L 160 88.5 L 158 89.5 L 158 88 Z " /><path fill="rgb(221,221,221)" stroke="rgb(221,221,221)" stroke-width="1" opacity="0.9254901960784314" d="M 39.5 89 L 37 92.5 L 36.5 94 L 36 92.5 L 39.5 89 Z " /><path fill="rgb(221,221,221)" stroke="rgb(221,221,221)" stroke-width="1" opacity="0.9254901960784314" d="M 27.5 90 L 28.5 92 Q 25.7 92.7 27.5 90 Z " /><path fill="rgb(221,221,221)" stroke="rgb(221,221,221)" stroke-width="1" opacity="0.9254901960784314" d="M 160.5 90 Q 162.8 89.3 162 91.5 L 160.5 90 Z " /><path fill="rgb(221,221,221)" stroke="rgb(221,221,221)" stroke-width="1" opacity="0.9254901960784314" d="M 25.5 92 Q 28.5 93.5 25.5 95 Q 22.5 93.5 25.5 92 Z " /><path fill="rgb(221,221,221)" stroke="rgb(221,221,221)" stroke-width="1" opacity="0.9254901960784314" d="M 151.5 92 L 152.5 94 Q 149.7 94.7 151.5 92 Z " /><path fill="rgb(221,221,221)" stroke="rgb(221,221,221)" stroke-width="1" opacity="0.9254901960784314" d="M 144.5 93 L 146 97.5 L 145 97.5 L 144.5 93 Z " /><path fill="rgb(221,221,221)" stroke="rgb(221,221,221)" stroke-width="1" opacity="0.9254901960784314" d="M 34.5 94 L 35 96 L 33 95.5 L 34.5 94 Z " /><path fill="rgb(221,221,221)" stroke="rgb(221,221,221)" stroke-width="1" opacity="0.9254901960784314" d="M 156.5 96 L 162 99 L 161.5 101 L 156.5 96 Z " /><path fill="rgb(221,221,221)" stroke="rgb(221,221,221)" stroke-width="1" opacity="0.9254901960784314" d="M 32.5 97 L 31 99.5 L 31 126.5 L 32 128.5 L 31 128.5 L 30 126.5 L 30 99.5 L 32.5 97 Z " /><path fill="rgb(221,221,221)" stroke="rgb(221,221,221)" stroke-width="1" opacity="0.9254901960784314" d="M 40 97 L 42 97.5 L 38 100.5 Q 37.3 97.9 40 99 L 40 97 Z " /><path fill="rgb(221,221,221)" stroke="rgb(221,221,221)" stroke-width="1" opacity="0.9254901960784314" d="M 172.5 97 L 174 99.5 L 172.5 99 L 171 98.5 L 172.5 97 Z " /><path fill="rgb(221,221,221)" stroke="rgb(221,221,221)" stroke-width="1" opacity="0.9254901960784314" d="M 59.5 100 L 60 126.5 L 58.5 129 L 58 127.5 L 59 126.5 L 59.5 100 Z " /><path fill="rgb(221,221,221)" stroke="rgb(221,221,221)" stroke-width="1" opacity="0.9254901960784314" d="M 66.5 101 L 67 125 L 137.5 125 L 138.5 124 L 137.5 126 L 67.5 126 L 66 124.5 L 66.5 101 Z " /><path fill="rgb(221,221,221)" stroke="rgb(221,221,221)" stroke-width="1" opacity="0.9254901960784314" d="M 163.5 101 Q 165.8 100.3 165 102.5 L 163.5 101 Z " /><path fill="rgb(221,221,221)" stroke="rgb(221,221,221)" stroke-width="1" opacity="0.9254901960784314" d="M 37.5 102 L 38 103.5 L 36 104.5 L 37.5 102 Z " /><path fill="rgb(221,221,221)" stroke="rgb(221,221,221)" stroke-width="1" opacity="0.9254901960784314" d="M 178 102 Q 180.7 100.9 180 103.5 L 181 105.5 L 180 105.5 Q 180.7 102.9 178 104 L 178 102 Z " /><path fill="rgb(221,221,221)" stroke="rgb(221,221,221)" stroke-width="1" opacity="0.9254901960784314" d="M 139.5 104 L 140 121.5 L 139 121.5 L 139.5 104 Z " /><path fill="rgb(221,221,221)" stroke="rgb(221,221,221)" stroke-width="1" opacity="0.9254901960784314" d="M 146.5 104 L 147 121.5 L 146 121.5 L 146.5 104 Z " /><path fill="rgb(221,221,221)" stroke="rgb(221,221,221)" stroke-width="1" opacity="0.9254901960784314" d="M 167.5 104 L 170 107.5 L 169 107.5 L 167.5 104 Z " /><path fill="rgb(221,221,221)" stroke="rgb(221,221,221)" stroke-width="1" opacity="0.9254901960784314" d="M 51.5 105 L 53 106.5 L 53 118.5 L 51.5 121 L 51 119.5 L 52 118.5 L 52 107.5 L 51.5 105 Z " /><path fill="rgb(221,221,221)" stroke="rgb(221,221,221)" stroke-width="1" opacity="0.9254901960784314" d="M 35.5 108 L 36 116.5 L 35 116.5 L 35.5 108 Z " /><path fill="rgb(221,221,221)" stroke="rgb(221,221,221)" stroke-width="1" opacity="0.9254901960784314" d="M 169.5 117 L 170 119.5 L 168.5 122 L 168 120.5 L 169.5 117 Z " /><path fill="rgb(221,221,221)" stroke="rgb(221,221,221)" stroke-width="1" opacity="0.9254901960784314" d="M 181.5 119 L 182.5 121 L 181.5 119 Z " /><path fill="rgb(221,221,221)" stroke="rgb(221,221,221)" stroke-width="1" opacity="0.9254901960784314" d="M 36.5 120 L 40 125.5 L 38 126 L 36.5 120 Z " /><path fill="rgb(221,221,221)" stroke="rgb(221,221,221)" stroke-width="1" opacity="0.9254901960784314" d="M 50.5 122 L 51 123.5 L 49 124.5 L 50.5 122 Z " /><path fill="rgb(221,221,221)" stroke="rgb(221,221,221)" stroke-width="1" opacity="0.9254901960784314" d="M 166.5 122 L 165.5 124 L 166.5 122 Z " /><path fill="rgb(221,221,221)" stroke="rgb(221,221,221)" stroke-width="1" opacity="0.9254901960784314" d="M 161.5 125 L 162 127 L 158.5 128 L 158.5 127 L 161.5 125 Z " /><path fill="rgb(221,221,221)" stroke="rgb(221,221,221)" stroke-width="1" opacity="0.9254901960784314" d="M 145.5 128 L 146 130.5 L 144.5 133 L 144 130.5 L 145.5 128 Z " /><path fill="rgb(221,221,221)" stroke="rgb(221,221,221)" stroke-width="1" opacity="0.9254901960784314" d="M 169.5 128 L 170.5 130 L 169.5 128 Z " /><path fill="rgb(221,221,221)" stroke="rgb(221,221,221)" stroke-width="1" opacity="0.9254901960784314" d="M 56.5 129 L 57 130.5 L 54 132.5 L 56.5 129 Z " /><path fill="rgb(221,221,221)" stroke="rgb(221,221,221)" stroke-width="1" opacity="0.9254901960784314" d="M 155.5 129 L 156 131 L 154 130.5 L 155.5 129 Z " /><path fill="rgb(221,221,221)" stroke="rgb(221,221,221)" stroke-width="1" opacity="0.9254901960784314" d="M 65 131 L 136.5 131 L 137 132.5 L 135.5 132 L 66.5 132 L 63.5 134 L 63.5 133 Q 66.1 133.7 65 131 Z " /><path fill="rgb(221,221,221)" stroke="rgb(221,221,221)" stroke-width="1" opacity="0.9254901960784314" d="M 164.5 131 L 165.5 133 Q 162.7 133.7 164.5 131 Z " /><path fill="rgb(221,221,221)" stroke="rgb(221,221,221)" stroke-width="1" opacity="0.9254901960784314" d="M 35.5 132 L 40 138 L 42 138.5 L 40.5 139 L 35.5 132 Z " /><path fill="rgb(221,221,221)" stroke="rgb(221,221,221)" stroke-width="1" opacity="0.9254901960784314" d="M 151.5 132 L 153 132.5 L 150.5 134 L 151.5 132 Z " /><path fill="rgb(221,221,221)" stroke="rgb(221,221,221)" stroke-width="1" opacity="0.9254901960784314" d="M 148.5 134 L 147.5 136 L 148.5 134 Z " /><path fill="rgb(221,221,221)" stroke="rgb(221,221,221)" stroke-width="1" opacity="0.9254901960784314" d="M 61 135 L 63 135.5 L 60 140 L 58 140 Q 59.1 142.7 56.5 142 L 61 136.5 L 61 135 Z " /><path fill="rgb(221,221,221)" stroke="rgb(221,221,221)" stroke-width="1" opacity="0.9254901960784314" d="M 143.5 135 L 144.5 137 L 146 136.5 Q 146.7 139.5 143 138 L 143.5 135 Z " /><path fill="rgb(221,221,221)" stroke="rgb(221,221,221)" stroke-width="1" opacity="0.9254901960784314" d="M 136.5 136 L 137 138.5 L 135 139.5 L 136.5 136 Z " /><path fill="rgb(221,221,221)" stroke="rgb(221,221,221)" stroke-width="1" opacity="0.9254901960784314" d="M 30.5 138 L 34 140.5 L 33.5 142 L 33 140 L 30.5 138 Z " /><path fill="rgb(221,221,221)" stroke="rgb(221,221,221)" stroke-width="1" opacity="0.9254901960784314" d="M 48.5 139 L 47 141.5 Q 47.8 143.8 45.5 143 L 48.5 139 Z " /><path fill="rgb(221,221,221)" stroke="rgb(221,221,221)" stroke-width="1" opacity="0.9254901960784314" d="M 42.5 140 L 43.5 142 L 42.5 140 Z " /><path fill="rgb(221,221,221)" stroke="rgb(221,221,221)" stroke-width="1" opacity="0.9254901960784314" d="M 152.5 140 L 153 141.5 L 152 144 L 150 143.5 L 152.5 140 Z " /><path fill="rgb(221,221,221)" stroke="rgb(221,221,221)" stroke-width="1" opacity="0.9254901960784314" d="M 134.5 142 L 133.5 144 L 134.5 142 Z " /><path fill="rgb(221,221,221)" stroke="rgb(221,221,221)" stroke-width="1" opacity="0.9254901960784314" d="M 54 143 L 56 143.5 L 54 144.5 L 54 143 Z " /><path fill="rgb(221,221,221)" stroke="rgb(221,221,221)" stroke-width="1" opacity="0.9254901960784314" d="M 145.5 145 L 146 147 L 144 146.5 L 145.5 145 Z " /><path fill="rgb(2,2,2)" stroke="rgb(2,2,2)" stroke-width="1" opacity="0.9764705882352941" d="M 44.5 76 L 137.5 76 Q 138.6 78.8 142 78 L 142 80 L 144 80 Q 142.9 82.7 145.5 82 L 151 85 Q 149.8 88 153.5 87 L 158.5 92 L 161 92 Q 159.9 94.7 162.5 94 L 171.5 101 L 174 101 L 174 103 L 176 103 Q 174.9 105.7 177.5 105 L 183 108 Q 182 111 185 110 L 185 115 L 183 115 Q 184.1 117.7 181.5 117 L 179 118 L 177 122 L 174 122 Q 175.1 124.7 172.5 124 L 167 127 Q 168.1 129.7 165.5 129 L 160 132 Q 161.1 134.7 158.5 134 L 155 136 Q 156.1 138.7 153.5 138 L 145 143 Q 146.3 146 142.5 145 L 136.5 150 L 44.5 150 Q 37.4 145.6 35 138 L 33 138 L 33 136 Q 30.3 137.1 31 134.5 L 26 128.5 L 26 96 L 28 96 L 28 94 Q 30.7 95.1 30 92.5 L 31 90 L 33 90 L 33 87 L 35 87 Q 33.9 84.3 36.5 85 L 38 82 L 40 82 L 40 80 Q 42.7 81.1 42 78.5 L 44.5 76 Z M 53 79 Q 50 80 52 82 Q 51 84 54 83 L 54 85 L 56 85 L 57 88 Q 56 90 59 89 L 61 93 L 64 96 L 139 96 L 139 91 L 135 82 L 133 79 L 53 79 Z M 45 81 L 42 84 Q 43 86 40 85 L 40 87 L 38 87 L 36 92 L 33 94 Q 34 96 31 95 L 31 97 L 29 97 L 29 128 L 31 130 Q 30 132 33 131 L 45 145 L 49 142 L 53 137 L 56 135 L 61 128 L 61 97 L 58 96 Q 59 93 56 94 L 56 92 L 54 92 L 49 83 L 45 81 Z M 140 85 Q 143 87 142 94 L 144 96 L 144 105 L 145 106 L 144 131 L 140 139 L 142 141 L 154 133 Q 156 134 155 131 L 158 131 L 165 126 Q 167 127 166 124 L 169 124 L 169 122 L 171 122 L 172 118 Q 173 109 171 104 L 153 92 Q 150 93 151 90 L 144 85 L 140 85 Z M 67 100 L 64 101 L 64 125 L 65 127 L 139 127 L 140 126 L 141 126 L 141 101 L 139 100 L 67 100 Z M 63 131 L 59 138 L 56 140 Q 57 142 54 141 L 54 143 L 52 143 L 51 146 L 53 147 L 134 147 L 137 142 Q 136 137 139 138 L 139 132 L 139 131 L 63 131 Z " /><path fill="rgb(2,2,2)" stroke="rgb(2,2,2)" stroke-width="1" opacity="0.9764705882352941" d="M 42.5 99 Q 47.9 97.1 47 100.5 L 50 105.5 L 50 119.5 L 47 126 L 42 127 L 42 125 Q 39.3 126.1 40 123.5 Q 35.8 118.7 37 108.5 L 40 100 L 42.5 99 Z " /><path fill="rgb(249,249,249)" stroke="rgb(249,249,249)" stroke-width="1" opacity="0.9803921568627451" d="M 55 81 L 131.5 81 L 133 82.5 L 131.5 82 L 56 82.5 L 57.5 85 Q 55.3 85.8 56 83.5 L 55 81 Z " /><path fill="rgb(249,249,249)" stroke="rgb(249,249,249)" stroke-width="1" opacity="0.9803921568627451" d="M 44.5 84 L 46 84.5 L 44 85 L 44 87 L 42 87 Q 43.1 89.7 40.5 89 L 44.5 84 Z " /><path fill="rgb(249,249,249)" stroke="rgb(249,249,249)" stroke-width="1" opacity="0.9803921568627451" d="M 133.5 84 L 134.5 86 L 133.5 84 Z " /><path fill="rgb(249,249,249)" stroke="rgb(249,249,249)" stroke-width="1" opacity="0.9803921568627451" d="M 61.5 88 L 63 90.5 L 61 89.5 L 61.5 88 Z " /><path fill="rgb(249,249,249)" stroke="rgb(249,249,249)" stroke-width="1" opacity="0.9803921568627451" d="M 135.5 89 L 137 94.5 L 136 94.5 L 135.5 89 Z " /><path fill="rgb(249,249,249)" stroke="rgb(249,249,249)" stroke-width="1" opacity="0.9803921568627451" d="M 144 89 L 151 92.5 L 149.5 93 L 145.5 90 L 145 92.5 L 146 94.5 L 145 94.5 L 144 89 Z " /><path fill="rgb(249,249,249)" stroke="rgb(249,249,249)" stroke-width="1" opacity="0.9803921568627451" d="M 39.5 90 L 39 91.5 Q 39.8 93.8 37.5 93 L 39.5 90 Z " /><path fill="rgb(249,249,249)" stroke="rgb(249,249,249)" stroke-width="1" opacity="0.9803921568627451" d="M 52.5 92 Q 54.8 91.3 54 93.5 L 57 98 L 59 98.5 L 57.5 99 L 52.5 92 Z " /><path fill="rgb(249,249,249)" stroke="rgb(249,249,249)" stroke-width="1" opacity="0.9803921568627451" d="M 152.5 94 Q 154.8 93.3 154 95.5 L 152.5 94 Z " /><path fill="rgb(249,249,249)" stroke="rgb(249,249,249)" stroke-width="1" opacity="0.9803921568627451" d="M 47.5 97 L 50.5 101 Q 47.9 101.7 49 99 L 47 99 L 47.5 97 Z " /><path fill="rgb(249,249,249)" stroke="rgb(249,249,249)" stroke-width="1" opacity="0.9803921568627451" d="M 32.5 98 L 32 99.5 L 32 126.5 L 33 129 Q 35.7 127.9 35 130.5 L 36.5 133 L 31 126.5 L 31 99.5 L 32.5 98 Z " /><path fill="rgb(249,249,249)" stroke="rgb(249,249,249)" stroke-width="1" opacity="0.9803921568627451" d="M 146.5 98 L 148 102.5 L 148 123.5 L 146.5 128 L 146 122.5 L 147 121.5 L 147 104.5 Q 144.4 102.9 146.5 98 Z " /><path fill="rgb(249,249,249)" stroke="rgb(249,249,249)" stroke-width="1" opacity="0.9803921568627451" d="M 36 101 L 38 101.5 L 36 102.5 L 36 101 Z " /><path fill="rgb(249,249,249)" stroke="rgb(249,249,249)" stroke-width="1" opacity="0.9803921568627451" d="M 67.5 101 L 138 101.5 L 67.5 102 L 67.5 101 Z " /><path fill="rgb(249,249,249)" stroke="rgb(249,249,249)" stroke-width="1" opacity="0.9803921568627451" d="M 162.5 101 L 163.5 103 L 162.5 101 Z " /><path fill="rgb(249,249,249)" stroke="rgb(249,249,249)" stroke-width="1" opacity="0.9803921568627451" d="M 51.5 103 L 53 105.5 L 51 104.5 L 51.5 103 Z " /><path fill="rgb(249,249,249)" stroke="rgb(249,249,249)" stroke-width="1" opacity="0.9803921568627451" d="M 138.5 103 L 139 123.5 L 138 123.5 L 138.5 103 Z " /><path fill="rgb(249,249,249)" stroke="rgb(249,249,249)" stroke-width="1" opacity="0.9803921568627451" d="M 165.5 103 Q 167.8 102.3 167 104.5 L 165.5 103 Z " /><path fill="rgb(249,249,249)" stroke="rgb(249,249,249)" stroke-width="1" opacity="0.9803921568627451" d="M 35.5 106 L 36 107.5 L 35 108.5 L 35 116.5 L 36 119.5 L 34 118.5 L 34 107.5 L 35.5 106 Z " /><path fill="rgb(249,249,249)" stroke="rgb(249,249,249)" stroke-width="1" opacity="0.9803921568627451" d="M 168.5 106 Q 171.5 109 170 116.5 L 168 122 L 163.5 124 L 163.5 123 L 168 119.5 L 169 110.5 L 168.5 106 Z " /><path fill="rgb(249,249,249)" stroke="rgb(249,249,249)" stroke-width="1" opacity="0.9803921568627451" d="M 52.5 119 L 53 122 L 51 121.5 L 52.5 119 Z " /><path fill="rgb(249,249,249)" stroke="rgb(249,249,249)" stroke-width="1" opacity="0.9803921568627451" d="M 50.5 124 L 51 126 L 49 125.5 L 50.5 124 Z " /><path fill="rgb(249,249,249)" stroke="rgb(249,249,249)" stroke-width="1" opacity="0.9803921568627451" d="M 41.5 128 L 44.5 129 L 46 128.5 Q 44.7 131.3 43.5 129 Q 40.5 129.5 41.5 128 Z " /><path fill="rgb(249,249,249)" stroke="rgb(249,249,249)" stroke-width="1" opacity="0.9803921568627451" d="M 55.5 129 L 56 130.5 L 54 134 L 52 133.5 L 55.5 129 Z " /><path fill="rgb(249,249,249)" stroke="rgb(249,249,249)" stroke-width="1" opacity="0.9803921568627451" d="M 154.5 129 L 152.5 132 L 154.5 129 Z " /><path fill="rgb(249,249,249)" stroke="rgb(249,249,249)" stroke-width="1" opacity="0.9803921568627451" d="M 145.5 131 L 146 132.5 L 144.5 137 L 144 133.5 L 145.5 131 Z " /><path fill="rgb(249,249,249)" stroke="rgb(249,249,249)" stroke-width="1" opacity="0.9803921568627451" d="M 66.5 132 L 135.5 132 L 137 133.5 L 135.5 138 L 135 136.5 L 136 133 L 66.5 133 L 66.5 132 Z " /><path fill="rgb(249,249,249)" stroke="rgb(249,249,249)" stroke-width="1" opacity="0.9803921568627451" d="M 149 132 L 151 132.5 L 149 133.5 L 149 132 Z " /><path fill="rgb(249,249,249)" stroke="rgb(249,249,249)" stroke-width="1" opacity="0.9803921568627451" d="M 147.5 134 L 146.5 136 L 147.5 134 Z " /><path fill="rgb(249,249,249)" stroke="rgb(249,249,249)" stroke-width="1" opacity="0.9803921568627451" d="M 62.5 136 L 61.5 138 L 62.5 136 Z " /><path fill="rgb(249,249,249)" stroke="rgb(249,249,249)" stroke-width="1" opacity="0.9803921568627451" d="M 48 137 L 50 137.5 L 47 139.5 L 48 137 Z " /><path fill="rgb(249,249,249)" stroke="rgb(249,249,249)" stroke-width="1" opacity="0.9803921568627451" d="M 42.5 139 L 45.5 141 L 44.5 143 L 42.5 139 Z " /><path fill="rgb(249,249,249)" stroke="rgb(249,249,249)" stroke-width="1" opacity="0.9803921568627451" d="M 133 141 L 135 141.5 L 133 145 L 55 144.5 L 131.5 144 L 133 142.5 L 133 141 Z " /><path fill="rgb(255,255,255)" stroke="rgb(255,255,255)" stroke-width="1" opacity="0.9921568627450981" d="M 183.5 105 Q 185.8 104.3 185 106.5 L 183.5 105 Z " /><path fill="rgb(255,255,255)" stroke="rgb(255,255,255)" stroke-width="1" opacity="0.9921568627450981" d="M 29.5 138 L 30.5 140 L 29.5 138 Z " /><path fill="rgb(255,255,255)" stroke="rgb(255,255,255)" stroke-width="1" opacity="1" d="M 56.5 82 L 131.5 82 L 133 83.5 L 135 86.5 L 136 95 L 66.5 95 L 65 93.5 L 63 90.5 L 62 88 L 60 88 L 60 86 Q 57.3 87.1 58 84.5 L 56.5 82 Z " /><path fill="rgb(255,255,255)" stroke="rgb(255,255,255)" stroke-width="1" opacity="1" d="M 44 85 Q 47.7 83.5 47 86.5 L 48 89 L 50 89 L 50 91 Q 52.7 89.9 52 92.5 L 57.5 99 L 59 99.5 L 59 127 L 57 127 L 57 129 Q 54.3 127.9 55 130.5 L 52 135 L 50 135 L 50 137 Q 47.3 135.9 48 138.5 L 47 141 L 44 141 Q 45.1 138.3 42.5 139 L 39 134 Q 36.3 135.1 37 132.5 L 35 129 Q 32.3 130.1 33 127.5 L 32 126.5 L 32 99.5 L 37.5 93 Q 39.8 93.8 39 91.5 L 40 89 L 42 89 L 44 85 Z M 41 97 L 38 100 Q 39 102 36 101 Q 37 106 34 108 L 34 119 L 36 121 L 36 124 Q 39 123 38 126 Q 38 130 44 129 Q 45 132 47 128 L 49 128 Q 48 125 51 126 L 51 122 L 53 122 L 53 105 L 51 101 Q 49 95 41 97 Z " /><path fill="rgb(255,255,255)" stroke="rgb(255,255,255)" stroke-width="1" opacity="1" d="M 145.5 90 L 153.5 96 L 156 96 Q 154.9 98.7 157.5 98 L 168 105 L 169 115.5 L 168 119.5 L 164.5 123 L 158.5 127 L 151.5 132 L 149 132 Q 150.1 134.7 147.5 134 L 145 135.5 L 148 123.5 L 148 102.5 Q 144.9 97.2 145.5 90 Z " /><path fill="rgb(255,255,255)" stroke="rgb(255,255,255)" stroke-width="1" opacity="1" d="M 67 102 L 137.5 102 L 138 102.5 L 138 125 L 67.5 125 L 67 124.5 L 67 102 Z " /><path fill="rgb(255,255,255)" stroke="rgb(255,255,255)" stroke-width="1" opacity="1" d="M 65 133 L 135.5 133 L 136 135.5 L 135 141 Q 132.3 139.9 133 142.5 L 131.5 144 L 56.5 144 L 58 141.5 L 58 140 L 60 140 Q 58.9 137.3 61.5 138 L 63 135 Q 66 136 65 133 Z " /></svg>