<svg width="200" height="200" version="1.1" xmlns="http://www.w3.org/2000/svg" desc="Created with imagetracer.js version 1.2.6" ><path fill="rgb(205,30,82)" stroke="rgb(205,30,82)" stroke-width="1" opacity="0.9568627450980393" d="M 45.5 19 Q 52.2 17.3 54 20.5 L 54 87.5 L 56.5 92 L 60 93.5 L 57.5 94 L 53 88.5 L 53 21 L 40.5 21 L 36 24 L 32.5 29 L 34 26.5 L 37.5 22 L 45.5 19 Z " /><path fill="rgb(205,30,82)" stroke="rgb(205,30,82)" stroke-width="1" opacity="0.9568627450980393" d="M 68 19 L 88.5 19 L 89 21 L 68.5 21 L 68 19 Z " /><path fill="rgb(205,30,82)" stroke="rgb(205,30,82)" stroke-width="1" opacity="0.9568627450980393" d="M 115.5 21 L 119 23.5 L 117.5 24 L 115.5 21 Z " /><path fill="rgb(205,30,82)" stroke="rgb(205,30,82)" stroke-width="1" opacity="0.9568627450980393" d="M 119.5 25 L 122 28.5 L 120 27.5 L 119.5 25 Z " /><path fill="rgb(205,30,82)" stroke="rgb(205,30,82)" stroke-width="1" opacity="0.9568627450980393" d="M 32.5 34 L 33 40.5 L 32 40.5 L 32.5 34 Z " /><path fill="rgb(205,30,82)" stroke="rgb(205,30,82)" stroke-width="1" opacity="0.9568627450980393" d="M 32.5 55 L 33 90.5 L 32 90.5 L 32.5 55 Z " /><path fill="rgb(205,30,82)" stroke="rgb(205,30,82)" stroke-width="1" opacity="0.9568627450980393" d="M 67.5 89 L 68 90.5 Q 67.3 94.8 61.5 94 L 61.5 93 L 63.5 93 L 67.5 89 Z " /><path fill="rgb(205,30,82)" stroke="rgb(205,30,82)" stroke-width="1" opacity="0.9568627450980393" d="M 122.5 95 L 125 103.5 L 123 102.5 L 122.5 95 Z " /><path fill="rgb(205,30,82)" stroke="rgb(205,30,82)" stroke-width="1" opacity="0.9568627450980393" d="M 32.5 102 L 33 124 L 77.5 124 L 79 125.5 L 33 126 L 32 123.5 L 32.5 102 Z " /><path fill="rgb(205,30,82)" stroke="rgb(205,30,82)" stroke-width="1" opacity="0.9568627450980393" d="M 125.5 106 L 127.5 109 Q 125.3 109.8 126 107.5 L 125.5 106 Z " /><path fill="rgb(205,30,82)" stroke="rgb(205,30,82)" stroke-width="1" opacity="0.9568627450980393" d="M 128.5 110 L 133.5 116 L 131 115 Q 132.1 112.3 129.5 113 L 128.5 110 Z " /><path fill="rgb(205,30,82)" stroke="rgb(205,30,82)" stroke-width="1" opacity="0.9568627450980393" d="M 135.5 116 L 139 118.5 L 137.5 118 Q 133.5 119 135.5 116 Z " /><path fill="rgb(205,30,82)" stroke="rgb(205,30,82)" stroke-width="1" opacity="0.9568627450980393" d="M 140.5 119 L 146 121.5 L 144.5 122 Q 140.5 121.5 140.5 119 Z " /><path fill="rgb(205,30,82)" stroke="rgb(205,30,82)" stroke-width="1" opacity="0.9568627450980393" d="M 148.5 122 L 155.5 123 L 157 124.5 L 154.5 125 L 148.5 123 L 148.5 122 Z " /><path fill="rgb(205,30,82)" stroke="rgb(205,30,82)" stroke-width="1" opacity="0.9568627450980393" d="M 160.5 125 L 167 127.5 L 165.5 128 L 161.5 127 L 160.5 125 Z " /><path fill="rgb(205,30,82)" stroke="rgb(205,30,82)" stroke-width="1" opacity="0.9568627450980393" d="M 82.5 126 L 88 128.5 L 86.5 128 Q 81.7 128 82.5 126 Z " /><path fill="rgb(205,30,82)" stroke="rgb(205,30,82)" stroke-width="1" opacity="0.9568627450980393" d="M 169.5 128 L 177 132 L 176.5 134 L 171.5 131 L 169.5 128 Z " /><path fill="rgb(205,30,82)" stroke="rgb(205,30,82)" stroke-width="1" opacity="0.9568627450980393" d="M 89.5 129 L 92 130 L 96 136.5 L 94 135.5 L 89.5 129 Z " /><path fill="rgb(205,30,82)" stroke="rgb(205,30,82)" stroke-width="1" opacity="0.9568627450980393" d="M 179.5 135 L 180.5 137 Q 177.7 137.7 179.5 135 Z " /><path fill="rgb(205,30,82)" stroke="rgb(205,30,82)" stroke-width="1" opacity="0.9568627450980393" d="M 96.5 138 L 98 139.5 L 99 147.5 L 98 147.5 L 96.5 138 Z " /><path fill="rgb(205,30,82)" stroke="rgb(205,30,82)" stroke-width="1" opacity="0.9568627450980393" d="M 181.5 138 L 184 142.5 L 182 141.5 L 181.5 138 Z " /><path fill="rgb(205,30,82)" stroke="rgb(205,30,82)" stroke-width="1" opacity="0.9568627450980393" d="M 185.5 146 L 187 150.5 L 186 150.5 L 185.5 146 Z " /><path fill="rgb(205,30,82)" stroke="rgb(205,30,82)" stroke-width="1" opacity="0.9568627450980393" d="M 99.5 150 L 103.5 156 L 109.5 158 L 187 158.5 L 109.5 159 Q 102.9 158.1 100 153.5 L 99.5 150 Z " /><path fill="rgb(205,30,82)" stroke="rgb(205,30,82)" stroke-width="1" opacity="0.9568627450980393" d="M 187.5 153 L 189 156 Q 185.5 157.1 187.5 153 Z " /><path fill="rgb(202,11,74)" stroke="rgb(202,11,74)" stroke-width="1" opacity="1" d="M 89.5 20 L 112.5 20 L 119 24 L 122 29.5 L 122 99.5 L 126 109 Q 129 107.8 128 111.5 L 131 113 Q 129.9 115.7 132.5 115 L 135 116 Q 133.8 119 137.5 118 L 141.5 121 Q 147.5 121 150.5 124 L 159.5 125 L 161.5 127 L 168.5 128 L 179 135.5 Q 178.3 138.1 181 137 L 181 139.5 L 185 145.5 L 187 156 Q 190 155 189 158 L 109.5 158 L 103.5 156 L 101 153.5 L 99 149.5 L 98 139.5 L 92 130 L 86.5 127 L 79.5 126 L 77.5 124 L 33 124 L 33 28.5 L 36 24 L 40.5 21 L 53 21 L 53 88.5 L 57.5 94 Q 66.3 95.8 68 90.5 L 68 21.5 L 68.5 21 L 88.5 21 L 89.5 20 Z " /><path fill="rgb(0,0,0)" stroke="rgb(0,0,0)" stroke-width="1" opacity="0" d="M 0 0 L 200 0 L 200 200 L 0 200 L 0 0 Z M 40 18 L 36 21 L 33 21 L 32 28 L 30 30 L 30 134 L 32 135 L 32 177 L 33 177 L 63 177 L 63 146 L 64 143 L 69 143 L 75 147 Q 77 146 76 149 L 79 150 Q 81 154 80 163 Q 83 163 82 168 L 87 172 Q 89 171 88 174 L 95 177 L 188 177 L 189 175 L 189 149 L 188 148 Q 190 142 186 143 L 186 141 L 182 133 Q 179 134 180 132 L 169 125 L 162 124 L 160 122 L 150 121 L 136 114 L 130 109 L 125 99 L 125 31 Q 122 29 123 25 L 120 23 L 119 20 Q 116 21 117 18 Q 112 16 113 20 L 90 20 L 89 18 L 40 18 Z " /><path fill="rgb(234,162,146)" stroke="rgb(234,162,146)" stroke-width="1" opacity="0.7372549019607844" d="M 116.5 19 L 117 21.5 L 116 21.5 L 116.5 19 Z " /><path fill="rgb(234,162,146)" stroke="rgb(234,162,146)" stroke-width="1" opacity="0.7372549019607844" d="M 39.5 20 L 38.5 22 L 34.5 25 L 34 23.5 L 39.5 20 Z " /><path fill="rgb(234,162,146)" stroke="rgb(234,162,146)" stroke-width="1" opacity="0.7372549019607844" d="M 119.5 24 L 122 27.5 L 121 27.5 L 119.5 24 Z " /><path fill="rgb(234,162,146)" stroke="rgb(234,162,146)" stroke-width="1" opacity="0.7372549019607844" d="M 32.5 29 L 33 33.5 Q 30.5 35 32 40.5 L 33 41.5 L 33 54.5 L 32 55.5 L 32 90.5 L 33 91.5 L 33 101.5 L 32 102.5 L 32 123.5 L 33 125.5 L 32 130.5 L 33 131.5 L 33 172.5 L 34 175 L 59.5 175 L 61 173.5 L 61.5 144 L 62 174.5 L 60.5 176 L 34.5 176 L 32 172.5 L 32 132.5 L 31 131.5 L 31 30.5 L 32.5 29 Z " /><path fill="rgb(234,162,146)" stroke="rgb(234,162,146)" stroke-width="1" opacity="0.7372549019607844" d="M 122.5 29 L 124 31.5 L 124 97.5 L 123 97.5 L 122 94.5 L 122.5 29 Z " /><path fill="rgb(234,162,146)" stroke="rgb(234,162,146)" stroke-width="1" opacity="0.7372549019607844" d="M 124.5 101 L 127 106.5 L 133.5 114 L 137 116.5 L 135.5 116 L 128 109.5 Q 124 106.4 124.5 101 Z " /><path fill="rgb(234,162,146)" stroke="rgb(234,162,146)" stroke-width="1" opacity="0.7372549019607844" d="M 138.5 117 L 143 119.5 L 141.5 120 L 138.5 117 Z " /><path fill="rgb(234,162,146)" stroke="rgb(234,162,146)" stroke-width="1" opacity="0.7372549019607844" d="M 145.5 120 L 149 121.5 L 146.5 122 L 145.5 120 Z " /><path fill="rgb(234,162,146)" stroke="rgb(234,162,146)" stroke-width="1" opacity="0.7372549019607844" d="M 150.5 122 L 154 122.5 L 150.5 123 L 150.5 122 Z " /><path fill="rgb(234,162,146)" stroke="rgb(234,162,146)" stroke-width="1" opacity="0.7372549019607844" d="M 156.5 123 L 164 125.5 L 161.5 126 L 157.5 125 L 156.5 123 Z " /><path fill="rgb(234,162,146)" stroke="rgb(234,162,146)" stroke-width="1" opacity="0.7372549019607844" d="M 166.5 126 L 169 127.5 L 167.5 128 L 166.5 126 Z " /><path fill="rgb(234,162,146)" stroke="rgb(234,162,146)" stroke-width="1" opacity="0.7372549019607844" d="M 172.5 129 L 183 137.5 L 184 140.5 L 182 139.5 L 179.5 135 L 177 133.5 Q 177.8 131.3 175.5 132 L 172.5 129 Z " /><path fill="rgb(234,162,146)" stroke="rgb(234,162,146)" stroke-width="1" opacity="0.7372549019607844" d="M 69.5 142 L 78 145 L 82 152.5 L 83 163.5 L 91.5 173 L 96.5 175 L 136 175.5 L 95.5 176 L 87 170.5 L 85 167.5 Q 79.2 163.8 81 152.5 L 74.5 144 Q 69.6 144.6 69.5 142 Z " /><path fill="rgb(234,162,146)" stroke="rgb(234,162,146)" stroke-width="1" opacity="0.7372549019607844" d="M 184.5 142 L 187 147.5 L 186 147.5 L 184.5 142 Z " /><path fill="rgb(234,162,146)" stroke="rgb(234,162,146)" stroke-width="1" opacity="0.7372549019607844" d="M 187.5 149 L 188 152.5 L 187 152.5 L 187.5 149 Z " /><path fill="rgb(234,162,146)" stroke="rgb(234,162,146)" stroke-width="1" opacity="0.7372549019607844" d="M 187.5 158 L 189 159.5 L 189 171.5 L 185.5 176 L 182 175.5 L 188 171.5 L 188 159.5 L 187.5 158 Z " /><path fill="rgb(192,166,159)" stroke="rgb(192,166,159)" stroke-width="1" opacity="0.12941176470588237" d="M 39.5 18 L 89 18.5 L 41.5 19 L 34 23.5 L 31 30.5 L 31 131.5 L 32 134 L 30 133.5 L 30 29.5 L 32 27.5 L 33 21 L 35.5 21 L 39.5 18 Z " /><path fill="rgb(192,166,159)" stroke="rgb(192,166,159)" stroke-width="1" opacity="0.12941176470588237" d="M 113.5 18 L 117 18.5 L 113.5 19 L 113.5 18 Z " /><path fill="rgb(192,166,159)" stroke="rgb(192,166,159)" stroke-width="1" opacity="0.12941176470588237" d="M 117 20 L 120 21.5 Q 119.3 23.8 121.5 23 L 125 30.5 L 125 98.5 L 130 108.5 L 135.5 114 L 149.5 121 L 159.5 122 L 161.5 124 L 168.5 125 L 180 131.5 Q 179.3 133.8 181.5 133 L 186 140.5 L 186 143 Q 189.7 141.7 188 147.5 Q 190.2 148.8 189 153.5 L 188 153.5 L 187 145.5 L 183 137.5 L 176.5 131 L 166.5 126 Q 165 128.5 163.5 125 L 143.5 120 L 137.5 117 L 130 110.5 L 124 100.5 L 124 31.5 L 117 20 Z " /><path fill="rgb(192,166,159)" stroke="rgb(192,166,159)" stroke-width="1" opacity="0.12941176470588237" d="M 64.5 142 L 74.5 144 L 79 148.5 Q 82.5 152.5 81 161.5 L 85 169 Q 87.7 167.9 87 170.5 L 95.5 176 L 185.5 176 L 188.5 172 L 189 174.5 L 188 177 L 94.5 177 L 88 173.5 Q 88.8 171.3 86.5 172 L 82 167.5 Q 82.8 163.3 80 162.5 Q 80.9 154.2 79 150 L 76 148.5 Q 76.8 146.3 74.5 147 L 68.5 143 L 64 143 L 63 145.5 L 63 177 L 32.5 177 L 32 173.5 L 33 173.5 L 34.5 176 L 60.5 176 L 62 174.5 L 62 143.5 L 63.5 143 L 64.5 142 Z " /><path fill="rgb(241,187,121)" stroke="rgb(241,187,121)" stroke-width="1" opacity="0.996078431372549" d="M 42.5 19 L 45 19.5 L 42.5 20 L 42.5 19 Z " /><path fill="rgb(241,187,121)" stroke="rgb(241,187,121)" stroke-width="1" opacity="0.996078431372549" d="M 53.5 19 L 67.5 19 L 68 19.5 L 68 88.5 L 60.5 94 L 55 90.5 Q 54.3 88.3 56.5 89 L 58 92 L 64 92 Q 63 89 66 90 L 66 86.5 L 67 85.5 L 67 21 L 55.5 21 L 55 21.5 L 55 87.5 L 54 87.5 L 54 20.5 L 53.5 19 Z " /><path fill="rgb(241,187,121)" stroke="rgb(241,187,121)" stroke-width="1" opacity="0.996078431372549" d="M 32 126 L 81.5 126 L 84 127.5 L 79.5 128 L 78.5 127 L 33 127 L 32.5 131 L 32 126 Z " /><path fill="rgb(241,187,121)" stroke="rgb(241,187,121)" stroke-width="1" opacity="0.996078431372549" d="M 85 128 Q 91.1 128.8 94 134.5 Q 97 137.5 97 143.5 L 95 142.5 Q 95 133.5 88.5 131 L 85 130 L 85 128 Z " /><path fill="rgb(241,187,121)" stroke="rgb(241,187,121)" stroke-width="1" opacity="0.996078431372549" d="M 97.5 145 L 99 151.5 L 103.5 157 L 109 158.5 L 103.5 159 L 98 153.5 L 97.5 145 Z " /><path fill="rgb(243,192,123)" stroke="rgb(243,192,123)" stroke-width="1" opacity="1" d="M 55 21 L 66.5 21 L 67 21.5 L 67 85.5 L 66 90 Q 62.9 89.3 63.5 92 L 58 92 L 56.5 89 L 55 88.5 L 55 21 Z " /><path fill="rgb(243,192,123)" stroke="rgb(243,192,123)" stroke-width="1" opacity="1" d="M 33 127 L 78.5 127 L 85 128 Q 83.9 130.7 86.5 130 L 94 136.5 L 95 142.5 L 97 144.5 L 98 153.5 L 103.5 159 L 187.5 159 L 188 159.5 L 188 171.5 L 181.5 176 L 136.5 176 L 135.5 175 L 96.5 175 Q 87.9 172.6 84 165.5 Q 81.1 160.9 82 152.5 L 78 145 Q 73 140.5 62 142 L 61 144.5 L 61 173.5 L 59.5 175 L 34.5 175 L 34 173.5 L 33 172.5 L 33 127 Z " /></svg>