<svg width="200" height="200" version="1.1" xmlns="http://www.w3.org/2000/svg" desc="Created with imagetracer.js version 1.2.6" ><path fill="rgb(152,202,234)" stroke="rgb(152,202,234)" stroke-width="1" opacity="0.47058823529411764" d="M 91.5 4 L 108.5 4 L 118.5 9 L 129 11 Q 127.7 14.7 133.5 13 L 143.5 18 L 148 18 L 148 20 L 153.5 20 Q 152.5 23.3 158.5 22 L 162 23 Q 160.7 26.7 166.5 25 Q 168 28.3 173 27 Q 171.7 30.7 177.5 29 L 182.5 32 L 187.5 32 L 191 35.5 Q 191.7 38.5 188 37 Q 189.1 34.3 186.5 35 L 183.5 33 L 178.5 33 Q 171 27.5 159.5 26 L 157.5 24 Q 148.7 23.3 143.5 19 L 134.5 17 L 124.5 12 L 114.5 10 L 104.5 5 L 95.5 5 L 83.5 10 L 79.5 10 L 73.5 14 L 70.5 14 L 64.5 17 L 60.5 17 L 48.5 23 L 41.5 24 L 39.5 26 L 35.5 26 L 28.5 30 L 16.5 33 L 10 36 Q 11.1 39.3 7 38 L 8.5 34 L 11 34 L 11.5 32 L 15.5 32 L 17.5 30 L 27 29 Q 25.8 26 29.5 27 Q 30.9 23.8 36 25 Q 34.6 21.3 40.5 23 L 46.5 20 L 52 20 Q 50.8 17 54.5 18 Q 60.7 12.9 71 13 L 71 11 Q 76.2 12.7 75 9 Q 81.3 10.5 80.5 7 L 84.5 7 L 89.5 6 L 91.5 4 Z " /><path fill="rgb(152,202,234)" stroke="rgb(152,202,234)" stroke-width="1" opacity="0.47058823529411764" d="M 190 38 L 193 39.5 L 192.5 42 L 192 40 Q 189 41 190 38 Z " /><path fill="rgb(152,202,234)" stroke="rgb(152,202,234)" stroke-width="1" opacity="0.47058823529411764" d="M 6.5 39 Q 8.8 39.8 8 43.5 L 7 44.5 L 7 147.5 L 8 152 L 6 151.5 L 6.5 39 Z " /><path fill="rgb(152,202,234)" stroke="rgb(152,202,234)" stroke-width="1" opacity="0.47058823529411764" d="M 192.5 150 L 193 152.5 Q 191.5 155.5 190 152.5 Q 189.3 150.3 191.5 151 L 192.5 150 Z " /><path fill="rgb(152,202,234)" stroke="rgb(152,202,234)" stroke-width="1" opacity="0.47058823529411764" d="M 7.5 153 L 10 157 L 15.5 160 L 19 160 Q 20.7 164.1 16.5 163 L 7 155.5 L 7.5 153 Z " /><path fill="rgb(152,202,234)" stroke="rgb(152,202,234)" stroke-width="1" opacity="0.47058823529411764" d="M 188 155 Q 192.1 153.7 191 157 L 187 159.5 Q 187.8 161.8 185.5 161 L 184 160.5 L 182.5 163 Q 178.3 164.1 180 160 L 183.5 160 L 188 156.5 L 188 155 Z " /><path fill="rgb(152,202,234)" stroke="rgb(152,202,234)" stroke-width="1" opacity="0.47058823529411764" d="M 20 162 Q 25.2 160.3 24 164 Q 18.8 165.7 20 162 Z " /><path fill="rgb(152,202,234)" stroke="rgb(152,202,234)" stroke-width="1" opacity="0.47058823529411764" d="M 176.5 162 Q 179.1 161.3 178 164 L 175 163.5 L 176.5 162 Z " /><path fill="rgb(152,202,234)" stroke="rgb(152,202,234)" stroke-width="1" opacity="0.47058823529411764" d="M 25 164 L 29 165.5 L 25 166 L 25 164 Z " /><path fill="rgb(152,202,234)" stroke="rgb(152,202,234)" stroke-width="1" opacity="0.47058823529411764" d="M 170.5 164 Q 174.3 163 173 166 L 170.5 164 Z " /><path fill="rgb(152,202,234)" stroke="rgb(152,202,234)" stroke-width="1" opacity="0.47058823529411764" d="M 31.5 165 Q 33 168.3 38 167 L 38 169 L 43 169 L 43 171 L 35.5 170 L 30 166.5 L 31.5 165 Z " /><path fill="rgb(152,202,234)" stroke="rgb(152,202,234)" stroke-width="1" opacity="0.47058823529411764" d="M 166.5 165 L 168 168 L 165 166.5 L 166.5 165 Z " /><path fill="rgb(152,202,234)" stroke="rgb(152,202,234)" stroke-width="1" opacity="0.47058823529411764" d="M 161.5 167 Q 165.7 165.9 164 170 L 161.5 169 L 160 169.5 L 161.5 167 Z " /><path fill="rgb(152,202,234)" stroke="rgb(152,202,234)" stroke-width="1" opacity="0.47058823529411764" d="M 156 169 Q 160.1 167.7 159 171 Q 154.9 172.3 156 169 Z " /><path fill="rgb(152,202,234)" stroke="rgb(152,202,234)" stroke-width="1" opacity="0.47058823529411764" d="M 44.5 171 L 48 172.5 L 45.5 173 L 44.5 171 Z " /><path fill="rgb(152,202,234)" stroke="rgb(152,202,234)" stroke-width="1" opacity="0.47058823529411764" d="M 151 171 Q 155.1 169.7 154 173 Q 149.9 174.3 151 171 Z " /><path fill="rgb(152,202,234)" stroke="rgb(152,202,234)" stroke-width="1" opacity="0.47058823529411764" d="M 148.5 172 Q 151.5 171.2 150 175 L 146 173.5 L 148.5 172 Z " /><path fill="rgb(152,202,234)" stroke="rgb(152,202,234)" stroke-width="1" opacity="0.47058823529411764" d="M 50 173 L 56.5 174 L 58 175.5 Q 58.9 178.5 54.5 177 Q 53.4 174.3 50 175 L 50 173 Z " /><path fill="rgb(152,202,234)" stroke="rgb(152,202,234)" stroke-width="1" opacity="0.47058823529411764" d="M 142.5 174 Q 145.8 172.9 145 175.5 L 142.5 177 Q 139.5 175.5 142.5 174 Z " /><path fill="rgb(152,202,234)" stroke="rgb(152,202,234)" stroke-width="1" opacity="0.47058823529411764" d="M 59 176 L 63 177.5 L 59 178 L 59 176 Z " /><path fill="rgb(152,202,234)" stroke="rgb(152,202,234)" stroke-width="1" opacity="0.47058823529411764" d="M 137 176 L 140 177.5 L 137 178 L 137 176 Z " /><path fill="rgb(152,202,234)" stroke="rgb(152,202,234)" stroke-width="1" opacity="0.47058823529411764" d="M 64 178 Q 68.1 176.7 67 180 Q 62.9 181.3 64 178 Z " /><path fill="rgb(152,202,234)" stroke="rgb(152,202,234)" stroke-width="1" opacity="0.47058823529411764" d="M 132 178 L 136 178.5 L 132 180 L 132 178 Z " /><path fill="rgb(152,202,234)" stroke="rgb(152,202,234)" stroke-width="1" opacity="0.47058823529411764" d="M 129.5 179 L 131 182 L 127 180.5 L 129.5 179 Z " /><path fill="rgb(152,202,234)" stroke="rgb(152,202,234)" stroke-width="1" opacity="0.47058823529411764" d="M 69.5 180 Q 73.3 179 72 182 L 69.5 180 Z " /><path fill="rgb(152,202,234)" stroke="rgb(152,202,234)" stroke-width="1" opacity="0.47058823529411764" d="M 73 181 L 77 182.5 L 77 184 L 73 184 L 73 181 Z " /><path fill="rgb(152,202,234)" stroke="rgb(152,202,234)" stroke-width="1" opacity="0.47058823529411764" d="M 123 181 Q 126.3 179.9 125 184 Q 121.7 185.1 123 181 Z " /><path fill="rgb(152,202,234)" stroke="rgb(152,202,234)" stroke-width="1" opacity="0.47058823529411764" d="M 78 183 L 86 185 Q 87.3 188 83.5 187 L 78 185 L 78 183 Z " /><path fill="rgb(152,202,234)" stroke="rgb(152,202,234)" stroke-width="1" opacity="0.47058823529411764" d="M 118.5 183 Q 121.1 182.3 120 185 L 116.5 187 L 112.5 187 L 113.5 185 Q 117.8 185.8 118.5 183 Z " /><path fill="rgb(152,202,234)" stroke="rgb(152,202,234)" stroke-width="1" opacity="0.47058823529411764" d="M 87 186 L 91 187 Q 92.2 190.7 87 189 L 87 186 Z " /><path fill="rgb(152,202,234)" stroke="rgb(152,202,234)" stroke-width="1" opacity="0.47058823529411764" d="M 110.5 186 L 111 189 Q 106.9 190.3 108 187 L 110.5 186 Z " /><path fill="rgb(129,202,254)" stroke="rgb(129,202,254)" stroke-width="1" opacity="0.996078431372549" d="M 96.5 5 Q 104.1 3.5 103 7 L 95 6.5 L 96.5 5 Z " /><path fill="rgb(129,202,254)" stroke="rgb(129,202,254)" stroke-width="1" opacity="0.996078431372549" d="M 91.5 7 L 94 8.5 L 91 9 L 91.5 7 Z " /><path fill="rgb(129,202,254)" stroke="rgb(129,202,254)" stroke-width="1" opacity="0.996078431372549" d="M 108.5 7 L 109 9 L 106 8.5 L 108.5 7 Z " /><path fill="rgb(129,202,254)" stroke="rgb(129,202,254)" stroke-width="1" opacity="0.996078431372549" d="M 86 9 L 89 9.5 L 86 11 L 86 9 Z " /><path fill="rgb(129,202,254)" stroke="rgb(129,202,254)" stroke-width="1" opacity="0.996078431372549" d="M 111.5 9 L 119 10 Q 117.9 12.7 120.5 12 L 124 13.5 L 120.5 14 L 116 13 Q 117.3 10 113.5 11 L 111.5 9 Z " /><path fill="rgb(129,202,254)" stroke="rgb(129,202,254)" stroke-width="1" opacity="0.996078431372549" d="M 83.5 10 L 83 11.5 Q 83.9 14.5 79.5 13 L 79.5 12 L 83.5 10 Z " /><path fill="rgb(129,202,254)" stroke="rgb(129,202,254)" stroke-width="1" opacity="0.996078431372549" d="M 76 12 L 78 12.5 L 76 13.5 L 76 12 Z " /><path fill="rgb(129,202,254)" stroke="rgb(129,202,254)" stroke-width="1" opacity="0.996078431372549" d="M 67.5 16 Q 70.1 15.3 69 18 L 65 17.5 L 67.5 16 Z " /><path fill="rgb(129,202,254)" stroke="rgb(129,202,254)" stroke-width="1" opacity="0.996078431372549" d="M 131 16 L 136.5 18 L 138 17.5 Q 135.8 22.3 133.5 18 Q 129.8 19 131 16 Z " /><path fill="rgb(129,202,254)" stroke="rgb(129,202,254)" stroke-width="1" opacity="0.996078431372549" d="M 57.5 19 Q 59.8 18.3 59 20.5 L 53.5 23 L 51 22.5 L 57.5 19 Z " /><path fill="rgb(129,202,254)" stroke="rgb(129,202,254)" stroke-width="1" opacity="0.996078431372549" d="M 140.5 19 L 148 22.5 L 145.5 23 L 140 20.5 L 140.5 19 Z " /><path fill="rgb(129,202,254)" stroke="rgb(129,202,254)" stroke-width="1" opacity="0.996078431372549" d="M 47.5 24 L 50 24.5 L 47.5 25 L 47.5 24 Z " /><path fill="rgb(129,202,254)" stroke="rgb(129,202,254)" stroke-width="1" opacity="0.996078431372549" d="M 156 25 L 167 28 Q 168.3 31 164.5 30 L 160 29 Q 161.1 26.3 158.5 27 L 156 26.5 L 156 25 Z " /><path fill="rgb(129,202,254)" stroke="rgb(129,202,254)" stroke-width="1" opacity="0.996078431372549" d="M 37.5 27 L 38.5 29 L 32 28.5 L 37.5 27 Z " /><path fill="rgb(129,202,254)" stroke="rgb(129,202,254)" stroke-width="1" opacity="0.996078431372549" d="M 27.5 30 Q 31.3 29 30 32 L 26 31.5 L 27.5 30 Z " /><path fill="rgb(129,202,254)" stroke="rgb(129,202,254)" stroke-width="1" opacity="0.996078431372549" d="M 171.5 30 L 174 31.5 L 170.5 32 L 171.5 30 Z " /><path fill="rgb(129,202,254)" stroke="rgb(129,202,254)" stroke-width="1" opacity="0.996078431372549" d="M 23.5 32 Q 25.8 31.3 25 33.5 L 22.5 34 L 21 33.5 L 23.5 32 Z " /><path fill="rgb(129,202,254)" stroke="rgb(129,202,254)" stroke-width="1" opacity="0.996078431372549" d="M 175 32 L 182 33 L 182 35 L 188 35 L 188 38.5 L 186 42 L 174.5 45 L 172.5 47 L 168.5 47 L 166.5 49 L 149.5 54 L 147.5 56 L 135.5 59 L 133.5 61 L 124.5 63 L 122.5 65 L 110.5 68 L 108.5 70 L 98.5 72 L 93 69.5 L 105.5 69 Q 108.5 65.1 115 66 L 115 64 L 120.5 64 L 121 62 L 125.5 62 Q 124.5 59 129.5 60 L 135 59 L 135 57 Q 141.3 58.5 140.5 55 L 144.5 55 L 154.5 50 L 160 50 L 160 48 Q 166.3 49.5 165.5 46 L 169.5 46 Q 172.9 42.3 179 43 L 179 41 L 184 41 Q 183 38 186 39 L 186 36 Q 178.5 37.8 176.5 33 L 175 33.5 L 175 32 Z " /><path fill="rgb(129,202,254)" stroke="rgb(129,202,254)" stroke-width="1" opacity="0.996078431372549" d="M 18.5 33 Q 21.5 32.2 20 36 L 14 35.5 L 18.5 33 Z " /><path fill="rgb(129,202,254)" stroke="rgb(129,202,254)" stroke-width="1" opacity="0.996078431372549" d="M 11.5 36 L 12.5 38 L 11.5 36 Z " /><path fill="rgb(129,202,254)" stroke="rgb(129,202,254)" stroke-width="1" opacity="0.996078431372549" d="M 12.5 40 L 18.5 41 L 20.5 43 L 28.5 44 L 35.5 48 L 40 48 Q 38.7 51.3 43.5 50 L 55.5 55 L 58.5 55 L 60.5 57 L 72.5 60 L 79.5 64 L 83 64 Q 84.1 66.7 81.5 66 L 75.5 63 L 66.5 61 L 64.5 59 L 52.5 56 L 45.5 52 L 33.5 49 L 31.5 47 L 27.5 47 L 25.5 45 L 13.5 42 L 12.5 40 Z " /><path fill="rgb(129,202,254)" stroke="rgb(129,202,254)" stroke-width="1" opacity="0.996078431372549" d="M 7.5 44 L 8 147.5 L 7 147.5 L 7.5 44 Z " /><path fill="rgb(129,202,254)" stroke="rgb(129,202,254)" stroke-width="1" opacity="0.996078431372549" d="M 84.5 66 L 90 67 L 91 69.5 L 88.5 68 Q 83.7 68 84.5 66 Z " /><path fill="rgb(129,202,254)" stroke="rgb(129,202,254)" stroke-width="1" opacity="0.996078431372549" d="M 128 81 Q 131.8 80 133 82.5 Q 132.3 85.1 135 84 L 135 86 L 137 86 L 137 89 Q 139.7 87.9 139 90.5 Q 143 93.5 143 100.5 L 141 109 L 139 109 L 139 111 Q 136.3 109.9 137 112.5 Q 135.8 115 132 114 Q 133.1 117.5 125.5 116 Q 124.4 113.2 121 114 L 118 109.5 L 117 100.5 L 121 91 Q 123.7 92.1 123 89.5 L 128 81 Z M 129 83 Q 130 86 127 85 L 127 88 L 122 94 Q 123 97 120 96 L 119 101 Q 118 106 120 108 L 120 110 Q 123 109 122 112 L 127 114 Q 134 114 137 110 Q 140 111 138 107 L 140 107 L 141 103 Q 142 98 140 97 L 140 93 Q 137 94 138 90 L 136 90 L 135 87 Q 132 88 133 86 L 129 83 Z " /><path fill="rgb(129,202,254)" stroke="rgb(129,202,254)" stroke-width="1" opacity="0.996078431372549" d="M 167 123 L 174.5 123 L 176 124.5 L 177 129.5 L 173.5 135 Q 170.9 134.3 172 137 L 167 137 L 167 135 Q 164.3 136.1 165 133.5 Q 162.8 132.3 164 127.5 L 165 125 Q 168 126 167 123 Z M 170 124 L 166 128 Q 164 133 168 135 L 174 133 L 175 125 L 170 124 Z " /><path fill="rgb(131,203,255)" stroke="rgb(131,203,255)" stroke-width="1" opacity="1" d="M 95.5 5 L 95.5 7 L 102.5 7 L 103 5 L 104.5 5 L 108 7.5 L 106 8.5 L 109 9 Q 107.9 6.3 110.5 7 L 114 9.5 L 113.5 11 Q 117.3 10 116 13 L 119.5 13 L 123.5 14 L 123.5 13 L 119 11.5 L 120.5 11 L 126 13.5 L 126.5 16 L 127 14 L 132 15.5 L 131 18 Q 134.4 17.3 135.5 20 L 136.5 18 L 135 17.5 L 136.5 17 L 140 18 L 141.5 22 L 147.5 23 L 147.5 21 L 159 25.5 L 158.5 27 Q 161.1 26.3 160 29 L 163.5 29 L 167 30 Q 165.9 27.3 168.5 28 L 171 29 L 170 31.5 L 173.5 32 L 173.5 31 L 172 30.5 L 173.5 30 L 178 32.5 Q 175.3 34.3 179.5 36 L 186 36 L 186 39 Q 183 38 184 41 L 179 41 L 179 43 L 175.5 43 L 169.5 46 L 165 46 L 165 48 L 160 48 L 160 50 L 154.5 50 L 144.5 55 L 140 55 L 140 57 Q 133.7 55.5 134.5 59 L 130.5 59 L 126 60 L 126 62 L 121 62 L 121 64 L 115.5 64 Q 116.5 67.3 110.5 66 L 105.5 69 L 93.5 69 L 91.5 70 L 90 67 L 83 66 Q 84.3 62.7 79.5 64 L 72.5 60 L 60.5 57 L 58.5 55 L 55.5 55 L 43.5 50 L 40 50 Q 41.4 46.3 35.5 48 L 28.5 44 L 20.5 43 L 18.5 41 L 12 40 L 13 37.5 L 12 35 L 17.5 33 L 16.5 35 L 14 35.5 L 20 36 L 20 32 L 21.5 32 L 26.5 30 L 26.5 32 Q 30.9 33.5 30 30.5 L 29.5 29 L 31.5 28 Q 33 30.5 38.5 29 L 37.5 27 L 33.5 28 L 33.5 27 L 39.5 26 L 41.5 24 Q 48.3 24.3 51.5 21 L 54.5 23 L 59 20.5 L 60.5 17 L 66.5 16 L 66.5 17 L 65 17.5 L 69 18 L 68 15.5 L 72.5 14 L 74 14.5 L 75.5 12 L 76.5 14 L 79.5 10 L 83.5 11 L 84 9 L 86 9 Q 84.9 11.7 87.5 11 L 88.5 9 L 87 8.5 L 91 7 Q 89.8 10 93.5 9 L 93.5 8 L 92 7.5 L 95.5 5 Z M 83 11 L 79 13 L 83 13 L 83 11 Z M 48 24 L 48 25 L 50 25 L 48 24 Z M 156 25 L 156 27 L 158 26 L 156 25 Z M 24 32 L 25 34 Q 26 31 24 32 Z M 175 32 L 175 34 L 177 33 L 175 32 Z " /><path fill="rgb(131,203,255)" stroke="rgb(131,203,255)" stroke-width="1" opacity="1" d="M 56.5 19 L 55.5 21 L 54 20.5 L 56.5 19 Z " /><path fill="rgb(131,203,255)" stroke="rgb(131,203,255)" stroke-width="1" opacity="1" d="M 141.5 19 L 146 20.5 L 143.5 21 L 141.5 19 Z " /><path fill="rgb(131,203,255)" stroke="rgb(131,203,255)" stroke-width="1" opacity="1" d="M 161.5 26 L 165 27.5 L 163.5 28 L 161.5 26 Z " /><path fill="rgb(131,203,255)" stroke="rgb(131,203,255)" stroke-width="1" opacity="1" d="M 182 33 L 186 34.5 L 182 35 L 182 33 Z " /><path fill="rgb(131,203,255)" stroke="rgb(131,203,255)" stroke-width="1" opacity="1" d="M 129 83 L 133 85.5 Q 132.3 87.8 134.5 87 L 136 90 L 138 90 Q 136.7 94.1 140 93 L 140 96.5 Q 142.3 97.7 141 102.5 L 140 107 L 138 107 Q 139.5 110.7 136.5 110 Q 133.5 114 126.5 114 L 122 112 Q 123 109 120 110 L 120 107.5 Q 117.5 106 119 100.5 L 120 96 Q 123 97.3 122 93.5 L 127 87.5 L 127 85 Q 130 86 129 83 Z " /><path fill="rgb(131,203,255)" stroke="rgb(131,203,255)" stroke-width="1" opacity="1" d="M 169.5 124 L 175 125 L 174 133 L 167.5 135 Q 164.5 133.5 166 127.5 L 169.5 124 Z " /><path fill="rgb(1,165,236)" stroke="rgb(1,165,236)" stroke-width="1" opacity="0.8235294117647058" d="M 188.5 37 L 190 40 Q 186.5 41.1 188.5 37 Z " /><path fill="rgb(1,165,236)" stroke="rgb(1,165,236)" stroke-width="1" opacity="0.8235294117647058" d="M 190.5 41 L 192 42.5 L 192 148.5 L 190 149.5 L 190.5 41 Z " /><path fill="rgb(1,165,236)" stroke="rgb(1,165,236)" stroke-width="1" opacity="0.8235294117647058" d="M 188 151 Q 191.3 149.9 190 154 Q 187.3 152.9 188 155.5 L 181 160 Q 179.8 157 183.5 158 L 188 153.5 L 188 151 Z " /><path fill="rgb(1,165,236)" stroke="rgb(1,165,236)" stroke-width="1" opacity="0.8235294117647058" d="M 176.5 160 Q 180.3 159 179 162 L 175 161.5 L 176.5 160 Z " /><path fill="rgb(1,165,236)" stroke="rgb(1,165,236)" stroke-width="1" opacity="0.8235294117647058" d="M 171.5 162 Q 174.8 160.9 174 163.5 L 172.5 163 L 162 167 Q 160.8 164 164.5 165 L 171.5 162 Z " /><path fill="rgb(1,165,236)" stroke="rgb(1,165,236)" stroke-width="1" opacity="0.8235294117647058" d="M 157.5 167 Q 161.3 166 160 169 L 156 168.5 L 157.5 167 Z " /><path fill="rgb(1,165,236)" stroke="rgb(1,165,236)" stroke-width="1" opacity="0.8235294117647058" d="M 151.5 169 Q 156.3 167.7 155 171 L 151.5 170 L 148.5 172 L 149.5 170 L 151.5 169 Z " /><path fill="rgb(1,165,236)" stroke="rgb(1,165,236)" stroke-width="1" opacity="0.8235294117647058" d="M 143.5 172 L 147 172.5 Q 146.3 174.8 142.5 174 L 143.5 172 Z " /><path fill="rgb(1,165,236)" stroke="rgb(1,165,236)" stroke-width="1" opacity="0.8235294117647058" d="M 137 174 L 141 174.5 L 137 176 L 137 174 Z " /><path fill="rgb(1,165,236)" stroke="rgb(1,165,236)" stroke-width="1" opacity="0.8235294117647058" d="M 132.5 176 L 136 176.5 L 133.5 178 Q 132 175.5 130.5 179 L 123 181 Q 121.7 177.3 127.5 179 L 132.5 176 Z " /><path fill="rgb(1,165,236)" stroke="rgb(1,165,236)" stroke-width="1" opacity="0.8235294117647058" d="M 118.5 181 L 122 181.5 Q 121.3 183.8 117.5 183 L 118.5 181 Z " /><path fill="rgb(1,165,236)" stroke="rgb(1,165,236)" stroke-width="1" opacity="0.8235294117647058" d="M 114.5 183 L 116 183.5 L 106.5 188 L 96 188 L 96.5 186 L 108.5 186 L 114.5 183 Z " /><path fill="rgb(0,0,0)" stroke="rgb(0,0,0)" stroke-width="1" opacity="0" d="M 0 0 L 200 0 L 200 200 L 0 200 L 0 0 Z M 92 4 L 90 6 L 85 7 L 81 7 Q 81 10 75 9 Q 76 13 71 11 L 71 13 Q 61 13 55 18 Q 51 17 52 20 L 47 20 L 41 23 Q 35 21 36 25 Q 31 24 30 27 Q 26 26 27 29 L 18 30 L 16 32 L 12 32 L 11 34 L 9 34 L 6 40 L 6 152 L 7 156 L 13 161 L 21 164 Q 26 162 25 166 L 30 166 L 36 170 L 44 171 L 46 173 Q 51 171 50 175 L 60 178 Q 65 176 64 180 Q 69 179 71 182 Q 74 181 73 184 L 78 184 L 84 187 Q 88 186 87 189 L 111 189 L 111 187 Q 118 188 121 184 Q 126 185 126 182 L 131 182 L 131 180 L 144 177 L 146 175 L 150 175 Q 149 171 154 173 L 154 171 L 160 170 L 164 170 Q 163 166 168 168 L 168 166 L 173 166 L 173 164 L 183 163 L 185 161 L 187 161 L 189 157 L 191 157 Q 190 154 193 153 L 193 40 L 191 36 L 188 32 L 183 32 L 178 29 Q 172 31 173 27 Q 168 28 167 25 Q 161 27 162 23 L 159 22 Q 153 23 154 20 L 148 20 L 148 18 L 144 18 L 134 13 Q 128 15 129 11 L 119 9 L 109 4 L 92 4 Z " /><path fill="rgb(0,165,236)" stroke="rgb(0,165,236)" stroke-width="1" opacity="0.996078431372549" d="M 187.5 40 L 190 41.5 L 190 150.5 L 188 151 L 188 153.5 L 186 154.5 L 187 150 L 189 149.5 L 189 41 L 187.5 40 Z " /><path fill="rgb(0,165,236)" stroke="rgb(0,165,236)" stroke-width="1" opacity="0.996078431372549" d="M 16.5 42 L 19 43.5 L 17.5 44 L 16.5 42 Z " /><path fill="rgb(0,165,236)" stroke="rgb(0,165,236)" stroke-width="1" opacity="0.996078431372549" d="M 24.5 45 L 27 46.5 L 25.5 46 L 24.5 45 Z " /><path fill="rgb(0,165,236)" stroke="rgb(0,165,236)" stroke-width="1" opacity="0.996078431372549" d="M 30.5 47 L 33 48.5 L 31.5 49 L 30.5 47 Z " /><path fill="rgb(0,165,236)" stroke="rgb(0,165,236)" stroke-width="1" opacity="0.996078431372549" d="M 43.5 52 L 47 53.5 L 45.5 54 L 43.5 52 Z " /><path fill="rgb(0,165,236)" stroke="rgb(0,165,236)" stroke-width="1" opacity="0.996078431372549" d="M 49.5 54 L 52 55.5 L 50.5 56 L 49.5 54 Z " /><path fill="rgb(0,165,236)" stroke="rgb(0,165,236)" stroke-width="1" opacity="0.996078431372549" d="M 54.5 56 L 58 57.5 L 56.5 58 L 54.5 56 Z " /><path fill="rgb(0,165,236)" stroke="rgb(0,165,236)" stroke-width="1" opacity="0.996078431372549" d="M 68.5 61 L 71 62.5 L 69.5 62 L 68.5 61 Z " /><path fill="rgb(0,165,236)" stroke="rgb(0,165,236)" stroke-width="1" opacity="0.996078431372549" d="M 74.5 63 L 77 64.5 L 75.5 65 L 74.5 63 Z " /><path fill="rgb(0,165,236)" stroke="rgb(0,165,236)" stroke-width="1" opacity="0.996078431372549" d="M 79.5 65 L 86 67.5 L 84.5 68 L 79.5 66 L 79.5 65 Z " /><path fill="rgb(0,165,236)" stroke="rgb(0,165,236)" stroke-width="1" opacity="0.996078431372549" d="M 33.5 69 L 37 70 L 38 74 L 40 74 L 40 77 Q 42.7 75.9 42 78.5 L 45 84 Q 48.7 82.7 47 88.5 Q 50.5 90 49 96.5 Q 46 97.8 47 102 Q 44.3 100.9 45 103.5 Q 42.2 108.2 33.5 107 Q 27 105.5 24 100.5 Q 19.3 95.7 21 84.5 L 24 79 Q 26.7 80.1 26 77.5 L 33.5 69 Z M 34 71 L 34 73 L 30 74 L 27 80 Q 28 82 25 81 L 25 83 L 23 83 L 22 89 L 23 92 L 23 96 L 25 96 L 25 99 L 31 104 L 35 105 L 43 103 L 46 99 L 46 88 L 43 85 L 43 81 L 39 79 L 39 76 L 37 76 L 36 74 Q 37 70 34 71 Z " /><path fill="rgb(0,165,236)" stroke="rgb(0,165,236)" stroke-width="1" opacity="0.996078431372549" d="M 92.5 70 L 97 72 Q 96 76.3 99 75.5 L 99 80 L 101 80.5 L 101 184.5 L 98 186 Q 97 181.8 100 182.5 L 100 83.5 Q 97.2 81.8 98 76.5 L 94.5 72 L 92.5 70 Z " /><path fill="rgb(0,165,236)" stroke="rgb(0,165,236)" stroke-width="1" opacity="0.996078431372549" d="M 77.5 108 L 84 109 L 86 112.5 L 86 120 L 79.5 123 L 79 121 L 75 119.5 L 73 112.5 L 75.5 109 L 77.5 108 Z M 76 110 Q 77 114 74 113 L 76 119 L 83 120 L 85 117 L 83 112 Q 81 109 76 110 Z " /><path fill="rgb(0,165,236)" stroke="rgb(0,165,236)" stroke-width="1" opacity="0.996078431372549" d="M 49.5 139 L 52.5 139 L 57 142.5 L 58 151 Q 54.9 150.3 55.5 153 L 49 153 L 49 151 Q 46.3 152.1 47 149.5 Q 44 148.5 45 143.5 L 47 140 L 49.5 139 Z M 51 141 L 50 142 Q 46 141 48 145 L 46 145 Q 45 148 48 147 L 48 150 L 52 152 L 55 152 Q 54 148 57 149 L 57 145 Q 54 146 55 144 Q 55 141 51 141 Z " /><path fill="rgb(0,165,236)" stroke="rgb(0,165,236)" stroke-width="1" opacity="0.996078431372549" d="M 180 157 L 184 157.5 L 181 158 Q 182.3 161.7 176.5 160 L 175 160.5 L 175 159 L 180 159 L 180 157 Z " /><path fill="rgb(0,165,236)" stroke="rgb(0,165,236)" stroke-width="1" opacity="0.996078431372549" d="M 164.5 163 L 167 163.5 L 162 165 Q 163.3 168.7 157.5 167 L 154.5 169 L 154.5 168 Q 157.1 168.7 156 166 L 160.5 166 L 161 164 L 163.5 164 L 164.5 163 Z " /><path fill="rgb(0,165,236)" stroke="rgb(0,165,236)" stroke-width="1" opacity="0.996078431372549" d="M 148.5 170 L 147.5 172 L 137 174 L 136.5 176 L 136 173 L 140.5 173 L 142.5 171 Q 147.3 172.3 148.5 170 Z " /><path fill="rgb(0,165,236)" stroke="rgb(0,165,236)" stroke-width="1" opacity="0.996078431372549" d="M 127.5 177 L 128 179 Q 121.7 177.5 122.5 181 L 118.5 181 L 117 181.5 L 117 180 L 122 180 L 122 178 L 126.5 178 L 127.5 177 Z " /><path fill="rgb(0,165,236)" stroke="rgb(0,165,236)" stroke-width="1" opacity="0.996078431372549" d="M 113 182 L 116 182.5 L 113.5 184 L 113 182 Z " /><path fill="rgb(0,166,237)" stroke="rgb(0,166,237)" stroke-width="1" opacity="1" d="M 187.5 39 L 187.5 41 L 189.5 40 L 189 41.5 L 189 149.5 Q 186 148.5 187 153.5 L 184.5 157 L 180.5 157 Q 181.3 160.5 175 159 L 175 161.5 L 172.5 162 L 170.5 161 L 170 163 L 161 164 L 161 166 L 156 166 Q 157.1 168.7 154.5 168 L 150 168.5 Q 150.8 170.8 148.5 170 Q 147.3 172.3 142.5 171 L 140.5 173 L 136 173 L 135.5 176 L 132.5 175 L 131 175.5 L 131.5 177 L 128.5 178 L 126.5 178 L 122.5 178 Q 123.3 181.5 117 180 L 117 182.5 L 115.5 182 L 113 182 Q 114.3 185 110.5 184 L 108 184.5 L 107.5 186 L 100.5 186 L 101 184.5 L 101 80.5 L 99 80 L 99 75 L 97 75 Q 98.5 71.2 95.5 72 L 93 70.5 L 94.5 70 L 100.5 72 L 119.5 65 L 122.5 65 L 124.5 63 L 133.5 61 L 135.5 59 L 147.5 56 L 149.5 54 L 166.5 49 L 168.5 47 L 172.5 47 L 174.5 45 L 186 42 L 187.5 39 Z M 128 81 L 123 90 Q 124 92 121 91 L 117 101 L 118 110 L 121 114 Q 124 113 126 116 Q 133 118 132 114 Q 136 115 137 113 Q 136 110 139 111 L 139 109 L 141 109 L 143 101 Q 143 94 139 91 Q 140 88 137 89 L 137 86 L 135 86 L 135 84 Q 132 85 133 83 Q 132 80 128 81 Z M 167 123 Q 168 126 165 125 L 164 128 Q 163 132 165 134 Q 164 136 167 135 L 167 137 L 172 137 Q 171 134 174 135 L 177 130 L 176 125 L 175 123 L 167 123 Z " /><path fill="rgb(0,166,237)" stroke="rgb(0,166,237)" stroke-width="1" opacity="1" d="M 34 71 Q 37 69.8 36 73.5 L 37 76 L 39 76 L 39 79 L 43 81 L 43 84.5 L 46 87.5 L 46 98.5 L 43 103 L 34.5 105 L 30.5 104 L 25 98.5 L 25 96 L 23 95.5 L 23 91.5 L 22 88.5 L 23 83 L 25 83 L 25 81 Q 27.7 82.1 27 79.5 L 30 74 L 34 73 L 34 71 Z " /><path fill="rgb(0,166,237)" stroke="rgb(0,166,237)" stroke-width="1" opacity="1" d="M 76 110 Q 81.4 108.5 83 111.5 L 85 116.5 L 83 120 L 76 119 L 74 113 Q 77.3 114.1 76 110 Z " /><path fill="rgb(0,166,237)" stroke="rgb(0,166,237)" stroke-width="1" opacity="1" d="M 50.5 141 Q 54.5 140.5 55 143.5 Q 54.3 146.1 57 145 L 57 149 Q 53.7 147.9 55 152 L 51.5 152 L 48 149.5 L 48 147 Q 45 148 46 145 L 48 145 Q 46.5 141.2 49.5 142 L 50.5 141 Z " /><path fill="rgb(1,116,186)" stroke="rgb(1,116,186)" stroke-width="1" opacity="0.996078431372549" d="M 10.5 37 Q 13 38.2 12 42 Q 15.8 41 17 43.5 L 13.5 44 Q 12 40.5 10.5 43 L 9 43.5 L 9 149 L 11 149 L 11 154 Q 13.7 152.9 13 155.5 L 18.5 159 L 23 159 Q 21.6 162.7 27.5 161 L 29.5 163 L 37 164 Q 35.6 167.7 41.5 166 Q 42.9 169.3 48 168 Q 46.6 171.7 52.5 170 L 57.5 173 L 62 173 L 62 175 L 67 175 L 67 177 L 72.5 177 L 76.5 180 L 87 182 L 87 184 Q 91.1 182.7 90 186 L 79.5 183 L 77.5 181 L 74.5 181 L 72.5 179 L 60.5 176 L 58.5 174 L 54 174 Q 55.4 170.3 49.5 172 L 39.5 167 L 35 167 Q 36.4 163.3 30.5 165 L 28.5 163 L 12 158 L 8 149.5 L 8 42.5 L 10.5 37 Z " /><path fill="rgb(1,116,186)" stroke="rgb(1,116,186)" stroke-width="1" opacity="0.996078431372549" d="M 18.5 44 L 37 50.5 L 33.5 51 Q 30.1 47.3 24 48 Q 25.4 44.3 19.5 46 L 18.5 44 Z " /><path fill="rgb(1,116,186)" stroke="rgb(1,116,186)" stroke-width="1" opacity="0.996078431372549" d="M 38 51 L 56 57.5 L 52.5 58 L 47.5 55 L 43 55 L 43 53 L 38 53 L 38 51 Z " /><path fill="rgb(1,116,186)" stroke="rgb(1,116,186)" stroke-width="1" opacity="0.996078431372549" d="M 57 58 L 75 64.5 L 72.5 65 L 66.5 62 L 63.5 62 L 61.5 60 L 57 60 L 57 58 Z " /><path fill="rgb(1,116,186)" stroke="rgb(1,116,186)" stroke-width="1" opacity="0.996078431372549" d="M 76.5 65 L 81 66.5 L 77.5 67 L 76.5 65 Z " /><path fill="rgb(1,116,186)" stroke="rgb(1,116,186)" stroke-width="1" opacity="0.996078431372549" d="M 82 67 L 87.5 68 L 93 71.5 L 91.5 72 L 86.5 69 L 82 69 L 82 67 Z " /><path fill="rgb(1,116,186)" stroke="rgb(1,116,186)" stroke-width="1" opacity="0.996078431372549" d="M 94.5 72 L 95.5 74 Q 92.7 74.7 94.5 72 Z " /><path fill="rgb(1,116,186)" stroke="rgb(1,116,186)" stroke-width="1" opacity="0.996078431372549" d="M 96.5 75 L 98 78 Q 94.5 79.1 96.5 75 Z " /><path fill="rgb(1,116,186)" stroke="rgb(1,116,186)" stroke-width="1" opacity="0.996078431372549" d="M 97.5 79 L 100 83.5 L 100 183 L 98 183 Q 99.5 186.8 96.5 186 L 91.5 187 L 91.5 186 Q 96.9 187.9 96 184.5 L 98 182.5 L 98 81.5 L 97.5 79 Z " /><path fill="rgb(55,160,205)" stroke="rgb(55,160,205)" stroke-width="1" opacity="0.6196078431372549" d="M 7 38 L 10 38.5 L 8.5 42 L 7 38 Z " /><path fill="rgb(55,160,205)" stroke="rgb(55,160,205)" stroke-width="1" opacity="0.6196078431372549" d="M 190.5 40 Q 192.8 39.3 192 41.5 L 193 42.5 L 193 149.5 L 190.5 151 L 192 148.5 L 192 42.5 L 190.5 40 Z " /><path fill="rgb(55,160,205)" stroke="rgb(55,160,205)" stroke-width="1" opacity="0.6196078431372549" d="M 8.5 150 L 12 156.5 L 10 157 L 7 152.5 L 8.5 150 Z " /><path fill="rgb(55,160,205)" stroke="rgb(55,160,205)" stroke-width="1" opacity="0.6196078431372549" d="M 190.5 153 L 191 155 L 188 154.5 L 190.5 153 Z " /><path fill="rgb(55,160,205)" stroke="rgb(55,160,205)" stroke-width="1" opacity="0.6196078431372549" d="M 187.5 156 L 186.5 158 L 187.5 156 Z " /><path fill="rgb(55,160,205)" stroke="rgb(55,160,205)" stroke-width="1" opacity="0.6196078431372549" d="M 14.5 158 L 15.5 160 L 14.5 158 Z " /><path fill="rgb(55,160,205)" stroke="rgb(55,160,205)" stroke-width="1" opacity="0.6196078431372549" d="M 184.5 158 L 184.5 161 Q 181.5 159.5 184.5 158 Z " /><path fill="rgb(55,160,205)" stroke="rgb(55,160,205)" stroke-width="1" opacity="0.6196078431372549" d="M 19 160 L 22 161.5 L 19.5 163 L 19 160 Z " /><path fill="rgb(55,160,205)" stroke="rgb(55,160,205)" stroke-width="1" opacity="0.6196078431372549" d="M 179.5 160 L 180 163 L 178 162.5 L 179.5 160 Z " /><path fill="rgb(55,160,205)" stroke="rgb(55,160,205)" stroke-width="1" opacity="0.6196078431372549" d="M 24 162 Q 28.9 161.9 31 165.5 L 29.5 166 Q 28.3 163 24 164 L 24 162 Z " /><path fill="rgb(55,160,205)" stroke="rgb(55,160,205)" stroke-width="1" opacity="0.6196078431372549" d="M 174 162 L 176 162.5 L 174 163.5 L 174 162 Z " /><path fill="rgb(55,160,205)" stroke="rgb(55,160,205)" stroke-width="1" opacity="0.6196078431372549" d="M 169.5 164 L 170.5 166 L 167 165.5 L 169.5 164 Z " /><path fill="rgb(55,160,205)" stroke="rgb(55,160,205)" stroke-width="1" opacity="0.6196078431372549" d="M 32.5 165 Q 36.3 164 35 167 L 32.5 165 Z " /><path fill="rgb(55,160,205)" stroke="rgb(55,160,205)" stroke-width="1" opacity="0.6196078431372549" d="M 165.5 165 L 165.5 168 Q 163.3 168.8 164 166.5 L 165.5 165 Z " /><path fill="rgb(55,160,205)" stroke="rgb(55,160,205)" stroke-width="1" opacity="0.6196078431372549" d="M 38 167 L 41 168.5 L 38 169 L 38 167 Z " /><path fill="rgb(55,160,205)" stroke="rgb(55,160,205)" stroke-width="1" opacity="0.6196078431372549" d="M 43.5 169 L 49.5 172 L 54 172 L 53.5 174 L 43 171 L 43.5 169 Z " /><path fill="rgb(55,160,205)" stroke="rgb(55,160,205)" stroke-width="1" opacity="0.6196078431372549" d="M 151.5 170 L 153 170.5 L 151 171 L 150.5 173 L 150 171.5 L 151.5 170 Z " /><path fill="rgb(55,160,205)" stroke="rgb(55,160,205)" stroke-width="1" opacity="0.6196078431372549" d="M 57.5 174 L 60 175.5 L 58 176.5 L 57.5 174 Z " /><path fill="rgb(55,160,205)" stroke="rgb(55,160,205)" stroke-width="1" opacity="0.6196078431372549" d="M 141.5 174 L 141.5 177 L 139 176.5 L 141.5 174 Z " /><path fill="rgb(55,160,205)" stroke="rgb(55,160,205)" stroke-width="1" opacity="0.6196078431372549" d="M 62.5 176 L 74 180.5 L 72 181.5 L 72 180 L 67 180 L 67 178 L 63.5 178 L 62.5 176 Z " /><path fill="rgb(55,160,205)" stroke="rgb(55,160,205)" stroke-width="1" opacity="0.6196078431372549" d="M 136.5 176 L 137 178 L 135 177.5 L 136.5 176 Z " /><path fill="rgb(55,160,205)" stroke="rgb(55,160,205)" stroke-width="1" opacity="0.6196078431372549" d="M 132.5 177 L 132 178.5 Q 132.8 180.8 130.5 180 L 132.5 177 Z " /><path fill="rgb(55,160,205)" stroke="rgb(55,160,205)" stroke-width="1" opacity="0.6196078431372549" d="M 126.5 180 L 127.5 182 L 125 181.5 L 126.5 180 Z " /><path fill="rgb(55,160,205)" stroke="rgb(55,160,205)" stroke-width="1" opacity="0.6196078431372549" d="M 76.5 181 L 79 182.5 L 77 183.5 L 76.5 181 Z " /><path fill="rgb(55,160,205)" stroke="rgb(55,160,205)" stroke-width="1" opacity="0.6196078431372549" d="M 122.5 181 L 123 184 L 120 183.5 L 122.5 181 Z " /><path fill="rgb(55,160,205)" stroke="rgb(55,160,205)" stroke-width="1" opacity="0.6196078431372549" d="M 81.5 183 L 88 185.5 L 86 186.5 Q 86.9 183.5 82.5 185 L 81.5 183 Z " /><path fill="rgb(55,160,205)" stroke="rgb(55,160,205)" stroke-width="1" opacity="0.6196078431372549" d="M 116.5 183 L 118 183.5 L 114.5 185 L 114.5 184 L 116.5 183 Z " /><path fill="rgb(55,160,205)" stroke="rgb(55,160,205)" stroke-width="1" opacity="0.6196078431372549" d="M 112.5 185 L 111.5 187 L 112.5 185 Z " /><path fill="rgb(55,160,205)" stroke="rgb(55,160,205)" stroke-width="1" opacity="0.6196078431372549" d="M 89.5 186 L 96.5 188 L 106.5 188 L 108 187.5 L 107.5 189 L 91 189 Q 92.1 186.3 89.5 187 L 89.5 186 Z " /><path fill="rgb(0,116,186)" stroke="rgb(0,116,186)" stroke-width="1" opacity="1" d="M 11.5 42 L 19.5 46 L 24 46 Q 22.7 49.3 27.5 48 L 33.5 51 L 38 51 L 38 53 Q 44.3 51.5 43.5 55 L 47.5 55 Q 50.5 58.9 57 58 Q 55.6 61.7 61.5 60 L 63.5 62 L 75.5 65 L 77.5 67 L 82 67 Q 80.7 70.7 86.5 69 Q 88.7 72.5 94 72 Q 93 75 96 74 L 96 78 L 97.5 78 L 97 79.5 L 98 81.5 L 98 182.5 L 96 186 L 90 186 L 90 184 Q 85.9 185.3 87 182 L 82.5 182 L 72.5 177 L 67 177 L 67 175 Q 60.7 176.5 61.5 173 L 57.5 173 Q 54.5 169.1 48 170 Q 49.4 166.3 43.5 168 Q 42 164.8 37 166 Q 38.3 163 34.5 164 L 29.5 163 L 27.5 161 L 23 161 Q 24.4 157.3 18.5 159 L 13 155.5 Q 13.7 152.9 11 154 L 11 149 L 9 148.5 L 9 43 L 11.5 42 Z M 34 69 L 26 78 Q 27 80 24 79 L 21 85 Q 19 96 24 101 Q 27 105 34 107 Q 42 108 45 104 Q 44 101 47 102 Q 46 98 49 97 Q 51 90 47 89 Q 49 83 45 84 L 42 79 Q 43 76 40 77 L 40 74 L 38 74 L 37 70 L 34 69 Z M 78 108 L 76 109 L 73 113 L 75 120 L 79 121 L 80 123 L 86 120 L 86 113 L 84 109 L 78 108 Z M 50 139 L 47 140 L 45 144 Q 44 149 47 150 Q 46 152 49 151 L 49 153 L 56 153 Q 55 150 58 151 L 57 143 L 53 139 L 50 139 Z " /></svg>