<svg width="200" height="200" version="1.1" xmlns="http://www.w3.org/2000/svg" desc="Created with imagetracer.js version 1.2.6" ><path fill="rgb(0,0,0)" stroke="rgb(0,0,0)" stroke-width="1" opacity="0" d="M 0 0 L 200 0 L 200 200 L 0 200 L 0 0 Z M 117 9 L 115 11 Q 107 10 108 13 Q 99 13 94 18 Q 90 17 91 20 L 87 20 L 87 22 L 85 23 L 82 23 L 80 27 L 77 27 L 77 29 L 70 35 Q 71 37 69 36 Q 63 39 61 46 Q 58 45 59 48 L 57 48 L 57 52 L 55 52 L 54 56 Q 55 58 52 57 Q 53 60 50 62 Q 52 67 48 66 L 45 76 Q 47 83 43 82 L 43 92 Q 40 93 41 99 L 39 101 Q 33 100 32 103 Q 26 101 27 105 L 25 106 L 22 106 L 20 110 L 18 110 L 17 113 Q 14 112 15 115 L 13 115 L 13 117 L 11 117 L 8 127 L 6 129 L 6 138 L 4 138 L 4 148 L 6 149 L 6 159 L 8 159 L 9 167 L 15 171 L 17 177 L 21 178 Q 23 177 22 180 L 24 180 L 24 182 L 39 187 L 60 187 L 62 185 L 64 186 L 67 184 L 71 184 L 73 180 L 76 180 L 76 178 L 83 173 Q 82 170 85 171 L 85 168 L 89 166 L 90 163 Q 88 156 92 157 L 92 132 L 90 131 L 89 122 L 87 119 Q 84 120 85 117 L 83 117 L 83 113 L 80 112 Q 81 109 78 110 L 78 108 L 74 108 L 74 107 L 65 101 L 60 101 L 57 99 L 57 91 L 59 90 L 60 81 L 62 78 Q 61 73 64 74 L 64 72 L 69 64 Q 68 61 71 62 L 71 58 L 73 58 Q 76 56 76 51 L 80 49 L 82 51 Q 81 54 84 53 L 87 59 Q 86 61 89 60 L 92 68 L 96 72 Q 95 75 98 74 L 102 81 L 103 81 L 103 85 L 105 85 L 105 88 L 107 88 Q 107 93 111 95 L 112 95 L 112 99 L 114 99 L 117 105 Q 116 107 119 106 L 119 110 Q 116 109 117 112 L 114 114 Q 115 116 112 115 L 112 117 L 110 117 L 107 125 Q 108 128 105 127 L 105 159 L 107 159 L 110 169 L 114 171 L 115 176 L 120 178 Q 122 177 121 180 L 133 186 L 135 185 L 138 187 L 159 187 L 161 185 L 163 186 Q 164 183 169 184 L 173 180 Q 176 181 175 178 L 180 175 Q 179 172 182 173 L 182 171 L 184 171 L 184 169 L 189 163 Q 187 156 191 157 L 191 131 L 189 129 L 189 125 L 187 121 L 184 119 L 184 117 L 176 108 Q 172 109 173 107 L 164 101 Q 156 103 157 99 L 140 99 L 138 101 Q 133 102 133 98 L 131 98 L 131 94 L 129 94 L 119 78 L 119 75 L 115 73 L 112 66 L 108 62 Q 109 58 106 59 L 103 52 L 101 52 L 101 48 L 100 48 L 94 39 Q 93 36 96 37 L 98 34 L 101 34 L 103 30 L 108 30 L 108 28 L 114 27 L 119 35 Q 118 38 121 37 L 121 41 L 124 47 L 128 51 Q 127 54 130 53 L 131 56 L 131 58 L 133 58 L 133 60 L 135 60 L 135 62 Q 138 61 137 64 L 143 67 Q 145 66 144 69 L 147 69 L 153 73 Q 157 72 159 74 L 182 74 L 183 73 L 187 73 Q 186 70 189 71 L 189 63 L 182 53 Q 183 49 180 50 L 179 48 Q 180 44 177 45 L 177 43 L 173 39 Q 173 33 170 32 L 170 29 L 166 27 Q 167 23 163 22 Q 164 19 161 20 L 161 18 L 157 15 Q 153 16 154 13 L 150 13 L 150 11 Q 145 12 144 9 L 117 9 Z " /><path fill="rgb(210,208,161)" stroke="rgb(210,208,161)" stroke-width="1" opacity="0.3568627450980392" d="M 116.5 9 L 143.5 9 Q 145 12.3 150 11 L 150 13 L 154 13 Q 152.8 16 156.5 15 L 161 18 L 161 20 Q 163.7 18.9 163 21.5 Q 166.8 22.7 166 27 L 170 29 L 170 31.5 Q 173.2 33.3 173 38.5 L 177 42.5 L 177 45 Q 180 43.8 179 47.5 L 180 50 Q 183 48.8 182 52.5 L 189 62.5 L 189 66.5 L 188 66.5 L 187 63 Q 184 64.3 185 60.5 L 169 35.5 L 169 33.5 L 159.5 21 L 156.5 19 L 151.5 15 L 145.5 12 L 142.5 12 L 140.5 10 L 121.5 10 L 118.5 12 L 113.5 12 Q 110.3 15.3 103.5 15 L 101.5 17 L 98 17 Q 99.3 20 95.5 19 L 86 24 L 86 26 L 83 26 Q 84.1 28.7 81.5 28 L 74 33 L 74 35 Q 71.3 33.9 72 36.5 L 67 40 L 67 42 L 65 42 L 65 45 Q 62.3 43.9 63 46.5 L 62 49 Q 59.3 47.9 60 50.5 L 54 59.5 L 51 65.5 L 51 68.5 L 49 70.5 L 49 73.5 L 47 75.5 Q 47.5 83 44 86.5 L 44 95.5 L 42 102 L 39 100.5 L 41 98.5 Q 39.7 92.8 43 91.5 L 43 82 Q 46.5 83.1 45 75.5 L 48 66 Q 51.7 67.3 50 61.5 Q 52.8 60.4 52 57 Q 54.7 58.1 54 55.5 L 55 52 L 57 52 L 57 48 L 59 48 Q 57.9 45.3 60.5 46 Q 62.7 39.2 68.5 36 Q 70.8 36.8 70 34.5 L 77 29 L 77 27 L 80 27 L 82 23 L 84.5 23 L 87 22 L 87 20 L 91 20 Q 89.8 17 93.5 18 Q 98.8 13 108 13 Q 106.9 9.5 114.5 11 L 116.5 9 Z " /><path fill="rgb(210,208,161)" stroke="rgb(210,208,161)" stroke-width="1" opacity="0.3568627450980392" d="M 113.5 25 Q 117.5 24.5 118 27.5 L 127 47 Q 129.7 45.9 129 48.5 L 132 54 Q 134.7 52.9 134 55.5 Q 140.9 64.6 151.5 70 L 166 73.5 L 158.5 74 Q 157.3 71.8 152.5 73 L 146.5 69 L 144 69 Q 145.1 66.3 142.5 67 L 137 63.5 Q 137.7 60.9 135 62 L 135 60 L 133 60 L 133 58 L 131 58 L 131 55.5 L 130 53 Q 127 54.3 128 50.5 L 124 46.5 L 121 40.5 L 121 37 Q 118 38.3 119 34.5 L 113.5 27 L 108 28 L 108 30 L 103 30 L 101 34 L 97.5 34 L 96 37 Q 93.3 35.9 94 38.5 L 99.5 48 L 101 48 L 101 52 L 102.5 52 L 106 59 Q 109 57.8 108 61.5 L 112 65.5 L 115 73 L 119 75 L 119 77.5 L 129 94 L 131 94 L 131 98 L 132.5 98 L 137 101.5 L 132 103 L 132 100 Q 129.3 101.1 130 98.5 L 127 93 Q 124 94.3 125 90.5 L 118 81.5 L 118 79 Q 115 80.3 116 76.5 L 111 68 L 109 68 L 109 65 Q 106.3 66.1 107 63.5 L 102 56.5 L 102 54 Q 99.3 55.1 100 52.5 L 93 42.5 L 93 40 Q 89.7 41.3 91 36.5 Q 92.3 32.3 97 33 L 97 31 Q 101.1 32.3 100 29 L 103.5 29 L 108.5 26 L 113.5 25 Z " /><path fill="rgb(210,208,161)" stroke="rgb(210,208,161)" stroke-width="1" opacity="0.3568627450980392" d="M 77 47 L 82.5 47 L 83 48.5 L 86 54 Q 89 52.8 88 56.5 L 93 65 L 95 65 L 95 68 Q 97.7 66.9 97 69.5 L 102 76.5 L 102 79 L 104 79 L 104 82 Q 106.7 80.9 106 83.5 L 111 90.5 L 111 93 Q 113.7 91.9 113 94.5 L 116 100 Q 119 98.8 118 102.5 L 122 107.5 L 122 109.5 L 118 112 L 118 114 L 116 114 L 116 116 Q 113.3 114.9 114 117.5 L 111 123 L 109 123 Q 110.7 128.2 107 127 L 107 131.5 L 105 132.5 L 105 127.5 L 107 127 L 107 124.5 L 110 117 L 112 117 L 112 115 Q 114.7 116.1 114 113.5 L 117 112 Q 116 109 119 110 L 119 106 Q 116.3 107.1 117 104.5 L 114 99 L 112 99 L 112 95 L 110.5 95 Q 106.9 92.9 107 88 L 105 88 L 105 85 L 103 85 L 103 81 L 101.5 81 L 98 74 Q 95 75.3 96 71.5 L 92 67.5 L 89 60 Q 86.3 61.1 87 58.5 L 84 53 Q 81 54.3 82 50.5 L 79.5 49 L 76 51 Q 76.1 55.9 72.5 58 L 71 58 L 71 62 Q 68.3 60.9 69 63.5 L 64 71.5 L 64 74 Q 60.7 72.7 62 77.5 L 60 80.5 L 59 90 L 57 90.5 L 57 98.5 L 59.5 101 L 64.5 101 L 74 106.5 L 74 108 L 78 108 L 78 110 Q 80.7 108.9 80 111.5 L 83 113 L 83 117 L 85 117 Q 83.9 119.7 86.5 119 L 89 121.5 L 90 128.5 L 88 127.5 L 88 124.5 L 86 121 Q 83.3 122.1 84 119.5 L 81 114 L 79 114 Q 80.1 111.3 77.5 112 L 72 109 L 70 105 L 66.5 105 L 58.5 101 L 56 102 L 55 98.5 L 56 97.5 L 56 86.5 L 58 84.5 L 60 74.5 L 65 63 Q 68 64.3 67 60.5 L 75.5 49 Q 78.1 49.7 77 47 Z " /><path fill="rgb(210,208,161)" stroke="rgb(210,208,161)" stroke-width="1" opacity="0.3568627450980392" d="M 188.5 68 L 189 71 Q 186 70 187 73 L 182.5 73 Q 180.8 75.8 174.5 74 L 174.5 73 L 182.5 72 Q 183.8 69 188 70 L 188.5 68 Z " /><path fill="rgb(210,208,161)" stroke="rgb(210,208,161)" stroke-width="1" opacity="0.3568627450980392" d="M 139.5 99 L 156.5 99 L 157 102 Q 153.1 98.7 143.5 100 L 139.5 102 Q 136.5 100.5 139.5 99 Z " /><path fill="rgb(210,208,161)" stroke="rgb(210,208,161)" stroke-width="1" opacity="0.3568627450980392" d="M 33.5 101 L 38 101.5 L 28 105 Q 29.1 107.7 26.5 107 L 19 112 L 19 114 Q 16.3 112.9 17 115.5 L 12 123 L 10 123 Q 11.7 128.2 8 127 L 8 131.5 L 6 132.5 L 6 128.5 L 8 126.5 L 11 117 L 13 117 L 13 115 L 15 115 Q 13.9 112.3 16.5 113 L 18 110 L 20 110 L 22 106 L 24.5 106 L 27 105 Q 25.6 101.3 31.5 103 L 33.5 101 Z " /><path fill="rgb(210,208,161)" stroke="rgb(210,208,161)" stroke-width="1" opacity="0.3568627450980392" d="M 158.5 101 L 163.5 101 L 173 106.5 Q 172.2 109.1 175.5 108 L 184 116.5 L 184 119 L 187 120.5 L 189 124.5 L 189 128.5 L 191 130.5 L 191 136.5 L 190 136.5 L 185 121 Q 182.3 122.1 183 119.5 L 175.5 111 L 171 109 Q 172.1 106.3 169.5 107 L 167.5 105 L 158.5 102 L 158.5 101 Z " /><path fill="rgb(210,208,161)" stroke="rgb(210,208,161)" stroke-width="1" opacity="0.3568627450980392" d="M 90 131 Q 94 129.6 92 136.5 L 91 136.5 L 90 131 Z " /><path fill="rgb(210,208,161)" stroke="rgb(210,208,161)" stroke-width="1" opacity="0.3568627450980392" d="M 4 138 L 7 139.5 L 5 144.5 L 7 148 L 4 147.5 L 4 138 Z " /><path fill="rgb(210,208,161)" stroke="rgb(210,208,161)" stroke-width="1" opacity="0.3568627450980392" d="M 190.5 150 L 191 157 Q 187.7 158.3 189 153.5 L 190.5 150 Z " /><path fill="rgb(210,208,161)" stroke="rgb(210,208,161)" stroke-width="1" opacity="0.3568627450980392" d="M 91.5 151 L 92 157 Q 88.7 158.3 90 153.5 L 91.5 151 Z " /><path fill="rgb(210,208,161)" stroke="rgb(210,208,161)" stroke-width="1" opacity="0.3568627450980392" d="M 6.5 153 L 8 159 L 6 159 L 6.5 153 Z " /><path fill="rgb(210,208,161)" stroke="rgb(210,208,161)" stroke-width="1" opacity="0.3568627450980392" d="M 105.5 154 Q 108 155.2 107 159 Q 102.9 160.2 105.5 154 Z " /><path fill="rgb(210,208,161)" stroke="rgb(210,208,161)" stroke-width="1" opacity="0.3568627450980392" d="M 89.5 158 L 90 162.5 L 89 166 L 85 168 L 85 171 Q 82.3 169.9 83 172.5 L 76 178 L 76 180 L 73 180 L 71 184 L 66.5 184 L 63.5 186 L 63 183 L 66.5 183 L 72 180 Q 70.9 177.3 73.5 178 L 77 176 L 77 174 L 79 174 L 79 172 Q 81.7 173.1 81 170.5 L 89.5 158 Z " /><path fill="rgb(210,208,161)" stroke="rgb(210,208,161)" stroke-width="1" opacity="0.3568627450980392" d="M 188.5 158 L 189 162.5 L 184 168.5 L 184 171 L 182 171 L 182 173 Q 179.3 171.9 180 174.5 L 175 178 Q 176.3 181 172.5 180 L 168.5 184 Q 163.9 183.4 162.5 186 Q 159.5 184.5 162.5 183 L 165.5 183 L 176 176 L 176 174 L 178 174 L 178 172 Q 180.7 173.1 180 170.5 L 188.5 158 Z " /><path fill="rgb(210,208,161)" stroke="rgb(210,208,161)" stroke-width="1" opacity="0.3568627450980392" d="M 8 160 L 10 160 L 10 164 L 12 164 L 12 167 Q 14.7 165.9 14 168.5 L 20.5 176 Q 23.8 174.9 23 177.5 L 31.5 183 L 35 183 Q 33.9 186.5 41.5 185 L 44 186.5 L 38.5 187 L 24 182 L 24 180 L 22 180 Q 23.1 177.3 20.5 178 L 17 177 L 15 171 L 9 166.5 L 8 160 Z " /><path fill="rgb(210,208,161)" stroke="rgb(210,208,161)" stroke-width="1" opacity="0.3568627450980392" d="M 107 160 Q 110 158.8 109 162.5 Q 111.8 163.6 111 167 Q 113.7 165.9 113 168.5 L 119.5 176 L 134 184.5 Q 134.8 186.8 132.5 186 L 121 179.5 Q 121.8 177.3 119.5 178 L 115 175.5 L 114 171 L 110 168.5 L 107 160 Z " /><path fill="rgb(210,208,161)" stroke="rgb(210,208,161)" stroke-width="1" opacity="0.3568627450980392" d="M 56.5 185 L 61 185.5 Q 59.8 188.3 54.5 187 L 54.5 186 L 56.5 185 Z " /><path fill="rgb(210,208,161)" stroke="rgb(210,208,161)" stroke-width="1" opacity="0.3568627450980392" d="M 135.5 185 L 143 186.5 L 137.5 187 L 135.5 185 Z " /><path fill="rgb(210,208,161)" stroke="rgb(210,208,161)" stroke-width="1" opacity="0.3568627450980392" d="M 155.5 185 L 160 185.5 Q 158.8 188.3 153.5 187 L 153.5 186 L 155.5 185 Z " /><path fill="rgb(154,207,43)" stroke="rgb(154,207,43)" stroke-width="1" opacity="0.9882352941176471" d="M 121.5 10 L 140.5 10 L 158 19 Q 156.9 21.7 159.5 21 L 169 33.5 L 169 35.5 L 185 60.5 L 185 63 Q 187.7 61.9 187 64.5 L 189 67.5 L 188 70 Q 183.8 69 182.5 72 L 176.5 72 L 173.5 74 L 166.5 74 L 151.5 70 Q 140.9 64.6 134 55.5 L 132 52.5 L 129 47 Q 126.3 48.1 127 45.5 L 115.5 25 L 100 29 L 100 31 L 97 31 Q 98.3 34 94.5 33 Q 90 34.4 91 40 Q 94 38.8 93 42.5 L 100 54 Q 103 52.8 102 56.5 L 107 65 L 109 65 L 109 68 Q 111.7 66.9 111 69.5 L 116 76.5 L 116 79 Q 119 77.8 118 81.5 L 125 90.5 L 125 93 Q 127.7 91.9 127 94.5 L 130 100 Q 133.7 98.8 132 104 L 127 105 Q 128.1 107.7 125.5 107 L 122 109 L 118 102.5 L 118 100 Q 115.3 101.1 116 98.5 L 113 93 Q 110 94.3 111 90.5 L 106 82 L 104 82 L 104 79 Q 101 80.3 102 76.5 L 97 68 L 95 68 L 95 65 Q 92.3 66.1 93 63.5 L 88 56.5 L 88 54 Q 85.3 55.1 86 52.5 L 83 47 L 77.5 47 L 77 49 L 75.5 49 L 67 60.5 L 67 63 Q 64 61.8 65 65.5 L 63 67.5 L 60 74.5 L 60 78.5 L 58 80.5 L 58 84.5 L 56 86.5 Q 57.4 96.1 55 100 L 44.5 101 Q 42.3 100.3 43 96.5 L 44 95.5 L 44 86.5 Q 47.5 83 47 75.5 L 60 49 Q 62.7 50.1 62 47.5 L 63 45 L 65 45 L 65 42 L 67 42 Q 65.9 39.3 68.5 40 L 72 35 L 74 35 Q 72.9 32.3 75.5 33 Q 77.9 28.6 83 28 L 83 26 L 86 26 Q 84.9 23.3 87.5 24 L 95.5 19 L 98 19 Q 96.7 15.7 101.5 17 L 103.5 15 Q 110.3 15.3 113.5 12 L 118.5 12 L 121.5 10 Z " /><path fill="rgb(245,77,74)" stroke="rgb(245,77,74)" stroke-width="1" opacity="0.7607843137254902" d="M 42 100 Q 45 99 44 102 Q 41 103 42 100 Z " /><path fill="rgb(245,77,74)" stroke="rgb(245,77,74)" stroke-width="1" opacity="0.7607843137254902" d="M 54 100 Q 57 99 56 102 Q 53 103 54 100 Z " /><path fill="rgb(245,77,74)" stroke="rgb(245,77,74)" stroke-width="1" opacity="0.7607843137254902" d="M 143.5 100 Q 151.7 98.3 155 101.5 L 141.5 102 L 141.5 101 L 143.5 100 Z " /><path fill="rgb(245,77,74)" stroke="rgb(245,77,74)" stroke-width="1" opacity="0.7607843137254902" d="M 38.5 101 L 40 101.5 L 37.5 104 L 33.5 104 L 28.5 107 L 19 114.5 L 17 117.5 L 14 122 L 12 121.5 L 17 114 L 19 114 Q 17.9 111.3 20.5 112 L 28 107 Q 26.8 104 30.5 105 L 38.5 101 Z " /><path fill="rgb(245,77,74)" stroke="rgb(245,77,74)" stroke-width="1" opacity="0.7607843137254902" d="M 58.5 101 L 64 103.5 L 60.5 104 L 58.5 101 Z " /><path fill="rgb(245,77,74)" stroke="rgb(245,77,74)" stroke-width="1" opacity="0.7607843137254902" d="M 137.5 101 L 139 101.5 Q 138 105 132.5 104 L 132.5 103 L 137.5 101 Z " /><path fill="rgb(245,77,74)" stroke="rgb(245,77,74)" stroke-width="1" opacity="0.7607843137254902" d="M 157.5 101 L 171 107 Q 172 110 169 109 Q 170.1 106.3 167.5 107 L 162.5 104 L 159.5 104 L 157.5 101 Z " /><path fill="rgb(245,77,74)" stroke="rgb(245,77,74)" stroke-width="1" opacity="0.7607843137254902" d="M 65.5 104 L 70 105 L 70 107 Q 72.7 105.9 72 108.5 L 69.5 107 L 65 106 L 65.5 104 Z " /><path fill="rgb(245,77,74)" stroke="rgb(245,77,74)" stroke-width="1" opacity="0.7607843137254902" d="M 73.5 109 L 79 112 L 79 114 Q 81.7 112.9 81 115.5 L 84 121 Q 86.7 119.9 86 122.5 L 88 124.5 L 92 137.5 L 92 150.5 L 88.5 159 L 88 156.5 L 91 146.5 L 91 139.5 Q 88 135.5 88 128.5 L 86 126.5 L 86 123 Q 83.3 124.1 84 121.5 L 81 116 L 79 116 Q 80.1 113.3 77.5 114 L 73.5 109 Z " /><path fill="rgb(245,77,74)" stroke="rgb(245,77,74)" stroke-width="1" opacity="0.7607843137254902" d="M 122.5 109 L 123 110.5 L 120 112 L 120 114 L 118 114 L 118 116 Q 115.3 114.9 116 117.5 L 113 122 L 111 121.5 L 114 116 L 116 116 L 116 114 L 118 114 Q 116.9 111.3 119.5 112 L 122.5 109 Z " /><path fill="rgb(245,77,74)" stroke="rgb(245,77,74)" stroke-width="1" opacity="0.7607843137254902" d="M 172.5 109 L 181 116.5 L 183 121 Q 186 120 185 123 Q 182.3 124.1 183 121.5 L 178 114 L 172 111 L 172.5 109 Z " /><path fill="rgb(245,77,74)" stroke="rgb(245,77,74)" stroke-width="1" opacity="0.7607843137254902" d="M 10 123 Q 12.7 121.9 12 124.5 L 9 129.5 L 9 133.5 L 6.5 139 L 6 133.5 Q 9.3 132.1 8 127 Q 11.7 128.2 10 123 Z " /><path fill="rgb(245,77,74)" stroke="rgb(245,77,74)" stroke-width="1" opacity="0.7607843137254902" d="M 109 123 Q 111.7 121.9 111 124.5 L 109 125.5 L 109 123 Z " /><path fill="rgb(245,77,74)" stroke="rgb(245,77,74)" stroke-width="1" opacity="0.7607843137254902" d="M 185.5 124 L 188 129.5 L 186 128.5 L 185.5 124 Z " /><path fill="rgb(245,77,74)" stroke="rgb(245,77,74)" stroke-width="1" opacity="0.7607843137254902" d="M 107 127 Q 110 125.8 109 129.5 Q 103.9 136.4 106 150.5 L 111 163.5 L 109 162.5 L 109 160 L 107 159.5 L 107 155.5 L 105 153.5 L 105 133.5 Q 108.3 132.1 107 127 Z " /><path fill="rgb(245,77,74)" stroke="rgb(245,77,74)" stroke-width="1" opacity="0.7607843137254902" d="M 188.5 131 Q 192.7 137.3 191 149.5 Q 188.3 151.8 189 157.5 L 183.5 166 L 183 164.5 L 188 155.5 L 188 149 L 190 148.5 L 190 139.5 Q 186.6 137 188.5 131 Z " /><path fill="rgb(245,77,74)" stroke="rgb(245,77,74)" stroke-width="1" opacity="0.7607843137254902" d="M 6.5 140 L 7 145.5 L 5 144.5 L 6.5 140 Z " /><path fill="rgb(245,77,74)" stroke="rgb(245,77,74)" stroke-width="1" opacity="0.7607843137254902" d="M 6.5 148 L 12 164 L 10 164 Q 11.7 158.8 8 160 L 8 155.5 Q 4.8 153.3 6.5 148 Z " /><path fill="rgb(245,77,74)" stroke="rgb(245,77,74)" stroke-width="1" opacity="0.7607843137254902" d="M 87.5 160 L 88 161.5 L 86 162.5 L 87.5 160 Z " /><path fill="rgb(245,77,74)" stroke="rgb(245,77,74)" stroke-width="1" opacity="0.7607843137254902" d="M 84 164 L 86 164.5 L 84 165.5 L 84 164 Z " /><path fill="rgb(245,77,74)" stroke="rgb(245,77,74)" stroke-width="1" opacity="0.7607843137254902" d="M 12 165 L 14 165 L 14 167 Q 16.7 165.9 16 168.5 L 19 174 L 22 175.5 L 20.5 176 L 14 167 Q 11 168 12 165 Z " /><path fill="rgb(245,77,74)" stroke="rgb(245,77,74)" stroke-width="1" opacity="0.7607843137254902" d="M 111 165 Q 113.7 163.9 113 166.5 L 118 174 L 125 177 Q 123.9 179.7 126.5 179 L 127.5 181 L 116 172.5 L 113 167 Q 110 168 111 165 Z " /><path fill="rgb(245,77,74)" stroke="rgb(245,77,74)" stroke-width="1" opacity="0.7607843137254902" d="M 82 167 L 84 167.5 L 81 172 L 79 172 L 79 174 L 77 174 Q 78.1 176.7 75.5 176 L 72.5 178 L 72.5 177 L 82 168.5 L 82 167 Z " /><path fill="rgb(245,77,74)" stroke="rgb(245,77,74)" stroke-width="1" opacity="0.7607843137254902" d="M 181 167 L 183 167.5 L 180 172 L 178 172 L 178 174 L 176 174 Q 177.1 176.7 174.5 176 L 165.5 183 Q 161.3 182.3 160.5 185 Q 154.5 184 152.5 187 L 143.5 187 Q 140.8 184.2 134.5 185 L 133 183.5 L 135.5 183 L 142.5 185 L 152.5 185 L 166.5 181 L 174 176 Q 172.9 173.3 175.5 174 L 179 169 Q 182 170 181 167 Z " /><path fill="rgb(245,77,74)" stroke="rgb(245,77,74)" stroke-width="1" opacity="0.7607843137254902" d="M 23.5 176 L 29 180.5 L 27.5 181 L 23 177.5 L 23.5 176 Z " /><path fill="rgb(245,77,74)" stroke="rgb(245,77,74)" stroke-width="1" opacity="0.7607843137254902" d="M 69.5 179 L 72 179.5 L 66.5 183 L 63 183 Q 64.1 186.5 56.5 185 Q 53.3 188.8 44.5 187 Q 41.7 183.6 35 185 Q 33.9 182.3 36.5 183 Q 43 186.5 54.5 185 L 67.5 181 L 69.5 179 Z " /><path fill="rgb(245,77,74)" stroke="rgb(245,77,74)" stroke-width="1" opacity="0.7607843137254902" d="M 30.5 181 L 33 182.5 L 31.5 183 L 30.5 181 Z " /><path fill="rgb(245,77,74)" stroke="rgb(245,77,74)" stroke-width="1" opacity="0.7607843137254902" d="M 129.5 181 L 132 182.5 L 130.5 183 L 129.5 181 Z " /><path fill="rgb(247,49,46)" stroke="rgb(247,49,46)" stroke-width="1" opacity="0.996078431372549" d="M 53.5 100 L 54 102 L 59 102 L 59 104 Q 54.3 105 53 101.5 L 53.5 100 Z " /><path fill="rgb(247,49,46)" stroke="rgb(247,49,46)" stroke-width="1" opacity="0.996078431372549" d="M 44.5 101 L 47 101.5 L 42.5 104 L 40.5 104 Q 37.9 104.7 39 102 L 44.5 101 Z " /><path fill="rgb(247,49,46)" stroke="rgb(247,49,46)" stroke-width="1" opacity="0.996078431372549" d="M 138 102 L 157.5 102 L 158 104 L 155.5 103 L 153.5 103 Q 143.6 102.1 138 104 L 138 102 Z " /><path fill="rgb(247,49,46)" stroke="rgb(247,49,46)" stroke-width="1" opacity="0.996078431372549" d="M 33.5 104 Q 37.3 103 36 106 L 32 105.5 L 33.5 104 Z " /><path fill="rgb(247,49,46)" stroke="rgb(247,49,46)" stroke-width="1" opacity="0.996078431372549" d="M 62.5 104 L 65 104.5 Q 65.8 107.5 62 106 L 62.5 104 Z " /><path fill="rgb(247,49,46)" stroke="rgb(247,49,46)" stroke-width="1" opacity="0.996078431372549" d="M 161 104 L 164 105.5 L 161 106 L 161 104 Z " /><path fill="rgb(247,49,46)" stroke="rgb(247,49,46)" stroke-width="1" opacity="0.996078431372549" d="M 30.5 106 L 31 108 Q 28 107 29 110 L 25.5 110 L 25.5 109 L 30.5 106 Z " /><path fill="rgb(247,49,46)" stroke="rgb(247,49,46)" stroke-width="1" opacity="0.996078431372549" d="M 66 106 L 73 109 Q 71.9 111.7 74.5 111 L 79 114 L 79 116 Q 81.7 114.9 81 117.5 L 82 120 Q 79 121.3 80 117.5 Q 74.8 110.4 66 108 L 66 106 Z " /><path fill="rgb(247,49,46)" stroke="rgb(247,49,46)" stroke-width="1" opacity="0.996078431372549" d="M 165 106 L 169 107 Q 167.8 110 171.5 109 L 170.5 111 Q 169.3 107.2 165 108 L 165 106 Z " /><path fill="rgb(247,49,46)" stroke="rgb(247,49,46)" stroke-width="1" opacity="0.996078431372549" d="M 123.5 109 L 124 112 L 121 113.5 L 121 115 L 119 115 L 119 117 L 117 117 Q 118.1 119.7 115.5 119 L 112 124.5 L 112 127 L 110 127 L 110 131 L 108.5 131 L 109 129.5 L 111 122 Q 113.7 123.1 113 120.5 L 116 116 L 118 116 Q 116.9 113.3 119.5 114 L 123.5 109 Z " /><path fill="rgb(247,49,46)" stroke="rgb(247,49,46)" stroke-width="1" opacity="0.996078431372549" d="M 23.5 111 L 25 111.5 L 22 113.5 L 22 115 L 20 115 L 20 117 L 18 117 Q 19.1 119.7 16.5 119 L 20 114.5 Q 19.3 112.3 21.5 113 L 23.5 111 Z " /><path fill="rgb(247,49,46)" stroke="rgb(247,49,46)" stroke-width="1" opacity="0.996078431372549" d="M 172.5 111 L 181 118.5 L 181 121 L 185 123 L 185 126.5 L 184 126.5 L 184 124.5 L 178.5 117 L 173.5 113 L 172.5 111 Z " /><path fill="rgb(247,49,46)" stroke="rgb(247,49,46)" stroke-width="1" opacity="0.996078431372549" d="M 14.5 120 L 15 124 L 13 124 Q 14.3 128.1 11 127 L 12 122 Q 14.8 123 14.5 120 Z " /><path fill="rgb(247,49,46)" stroke="rgb(247,49,46)" stroke-width="1" opacity="0.996078431372549" d="M 82.5 121 Q 85.1 120.3 84 123 L 86 123 L 86 126.5 L 89 132.5 L 87 133.5 L 87 129.5 Q 83.8 130.5 85 124.5 L 82.5 121 Z " /><path fill="rgb(247,49,46)" stroke="rgb(247,49,46)" stroke-width="1" opacity="0.996078431372549" d="M 10.5 128 L 11 131 Q 8.3 132.1 9 129.5 L 10.5 128 Z " /><path fill="rgb(247,49,46)" stroke="rgb(247,49,46)" stroke-width="1" opacity="0.996078431372549" d="M 186.5 129 L 188 132.5 L 186 131.5 L 186.5 129 Z " /><path fill="rgb(247,49,46)" stroke="rgb(247,49,46)" stroke-width="1" opacity="0.996078431372549" d="M 107.5 133 L 108 153.5 L 107 153.5 Q 104.3 147.3 106 136.5 L 107.5 133 Z " /><path fill="rgb(247,49,46)" stroke="rgb(247,49,46)" stroke-width="1" opacity="0.996078431372549" d="M 8.5 136 L 9 137.5 L 9 139.5 L 8 144.5 Q 10.3 145.8 9 150.5 L 8 150.5 L 7 141.5 L 7 139.5 L 8.5 136 Z " /><path fill="rgb(247,49,46)" stroke="rgb(247,49,46)" stroke-width="1" opacity="0.996078431372549" d="M 89.5 136 L 90 150.5 L 89 150.5 L 89.5 136 Z " /><path fill="rgb(247,49,46)" stroke="rgb(247,49,46)" stroke-width="1" opacity="0.996078431372549" d="M 188 139 L 190 139.5 L 190 149 L 188 148.5 L 188 139 Z " /><path fill="rgb(247,49,46)" stroke="rgb(247,49,46)" stroke-width="1" opacity="0.996078431372549" d="M 87 154 Q 89.7 152.9 89 155.5 L 88 160 Q 84.7 158.7 86 163.5 L 85 163.5 L 85 159.5 Q 88.5 160.3 87 154 Z " /><path fill="rgb(247,49,46)" stroke="rgb(247,49,46)" stroke-width="1" opacity="0.996078431372549" d="M 186 154 Q 188.7 152.9 188 155.5 L 186.5 158 L 186 154 Z " /><path fill="rgb(247,49,46)" stroke="rgb(247,49,46)" stroke-width="1" opacity="0.996078431372549" d="M 10.5 156 L 11 159.5 L 10 159.5 L 9 157.5 L 10.5 156 Z " /><path fill="rgb(247,49,46)" stroke="rgb(247,49,46)" stroke-width="1" opacity="0.996078431372549" d="M 109.5 156 L 112 163 Q 115 161.8 114 165.5 L 114.5 167 L 111.5 165 L 111 162.5 L 111 160 Q 108.3 161.1 109 158.5 Q 106.8 157.3 109.5 156 Z " /><path fill="rgb(247,49,46)" stroke="rgb(247,49,46)" stroke-width="1" opacity="0.996078431372549" d="M 184 159 L 186 159.5 L 184.5 163 L 184 159 Z " /><path fill="rgb(247,49,46)" stroke="rgb(247,49,46)" stroke-width="1" opacity="0.996078431372549" d="M 11.5 161 Q 14.5 160.1 13 164.5 L 12 164.5 L 11.5 161 Z " /><path fill="rgb(247,49,46)" stroke="rgb(247,49,46)" stroke-width="1" opacity="0.996078431372549" d="M 83.5 163 L 84 167 Q 81 168.3 82 164.5 L 83.5 163 Z " /><path fill="rgb(247,49,46)" stroke="rgb(247,49,46)" stroke-width="1" opacity="0.996078431372549" d="M 182.5 163 L 183 164.5 L 182.5 167 L 181 166.5 Q 182.1 169.8 179.5 169 L 180 167.5 L 182.5 163 Z " /><path fill="rgb(247,49,46)" stroke="rgb(247,49,46)" stroke-width="1" opacity="0.996078431372549" d="M 14.5 165 L 15.5 167 Q 12.7 167.7 14.5 165 Z " /><path fill="rgb(247,49,46)" stroke="rgb(247,49,46)" stroke-width="1" opacity="0.996078431372549" d="M 80 168 L 82 168.5 L 80 169.5 L 80 168 Z " /><path fill="rgb(247,49,46)" stroke="rgb(247,49,46)" stroke-width="1" opacity="0.996078431372549" d="M 115.5 168 Q 118.1 167.3 117 170 L 119 170 L 119 173 L 122 173 L 122 175 Q 124.7 173.9 124 176.5 L 121.5 175 L 118 174 L 115.5 168 Z " /><path fill="rgb(247,49,46)" stroke="rgb(247,49,46)" stroke-width="1" opacity="0.996078431372549" d="M 18 170 Q 21.3 168.9 20 173 L 22.5 173 L 24.5 176 L 19 174 L 18 170 Z " /><path fill="rgb(247,49,46)" stroke="rgb(247,49,46)" stroke-width="1" opacity="0.996078431372549" d="M 78.5 170 L 79 172 L 77 172 Q 78.1 174.7 75.5 174 L 78.5 170 Z " /><path fill="rgb(247,49,46)" stroke="rgb(247,49,46)" stroke-width="1" opacity="0.996078431372549" d="M 177.5 170 L 178 171.5 L 174 174 Q 175.1 176.7 172.5 176 L 175 172.5 Q 174.3 170.3 176.5 171 L 177.5 170 Z " /><path fill="rgb(247,49,46)" stroke="rgb(247,49,46)" stroke-width="1" opacity="0.996078431372549" d="M 73 175 L 75 175.5 L 73 176.5 L 73 175 Z " /><path fill="rgb(247,49,46)" stroke="rgb(247,49,46)" stroke-width="1" opacity="0.996078431372549" d="M 26.5 177 L 34.5 182 L 41 182 Q 42.3 185.3 37.5 184 L 33 183 Q 34.3 180 30.5 181 Q 29.4 178.2 26 179 L 26.5 177 Z " /><path fill="rgb(247,49,46)" stroke="rgb(247,49,46)" stroke-width="1" opacity="0.996078431372549" d="M 69.5 177 Q 73.3 176 72 179 L 68 178.5 L 69.5 177 Z " /><path fill="rgb(247,49,46)" stroke="rgb(247,49,46)" stroke-width="1" opacity="0.996078431372549" d="M 125.5 177 L 133.5 182 L 140 182 Q 141.3 185.3 136.5 184 L 132 183 Q 133.3 180 129.5 181 Q 128.4 178.2 125 179 L 125.5 177 Z " /><path fill="rgb(247,49,46)" stroke="rgb(247,49,46)" stroke-width="1" opacity="0.996078431372549" d="M 168.5 177 Q 171.1 176.3 170 179 L 167 179 Q 168.3 182 164.5 181 L 162 181.5 Q 162.8 184.1 159.5 183 L 156 184 L 156 182 L 161 182 L 161 180 L 166 180 Q 164.9 177.3 167.5 178 L 168.5 177 Z " /><path fill="rgb(247,49,46)" stroke="rgb(247,49,46)" stroke-width="1" opacity="0.996078431372549" d="M 62 180 L 68 180.5 L 63 181 Q 64.3 184 60.5 183 L 57 184 L 57 182 L 62 182 L 62 180 Z " /><path fill="rgb(247,49,46)" stroke="rgb(247,49,46)" stroke-width="1" opacity="0.996078431372549" d="M 42.5 184 L 55 184.5 L 42.5 185 L 42.5 184 Z " /><path fill="rgb(247,49,46)" stroke="rgb(247,49,46)" stroke-width="1" opacity="0.996078431372549" d="M 142.5 184 L 153 184.5 L 142.5 185 L 142.5 184 Z " /><path fill="rgb(248,49,47)" stroke="rgb(248,49,47)" stroke-width="1" opacity="1" d="M 47 100 L 52.5 100 L 53 101.5 Q 53.8 104.8 58.5 104 L 60.5 104 Q 63.1 103.3 62 106 L 66 106 Q 64.8 109 68.5 108 L 72.5 111 L 74 110.5 L 73.5 112 L 80 117.5 Q 78.8 121.3 82.5 120 Q 80.7 122.2 85 124.5 Q 83.1 129.9 86.5 129 L 88 128.5 L 87 133.5 L 89 133.5 L 89 153.5 L 87 154 Q 88.5 160.3 85 159.5 L 85 163.5 L 82 164.5 L 82 168 Q 79 166.8 80 170.5 L 77 171.5 L 77.5 173 Q 76.3 170.8 75 173.5 L 75.5 175 Q 71.8 174 73 177 L 69.5 177 L 68.5 180 L 62 180 L 62 182 Q 55.7 180.5 56.5 184 L 41 184 Q 42.1 180.5 34.5 182 L 32 181.5 L 32.5 180 L 29.5 179 L 29.5 181 L 28.5 178 L 26.5 177 Q 25.3 179.3 24 176.5 Q 26.7 174.8 22.5 173 L 20 173 Q 21.7 168.9 17.5 170 L 17.5 168 Q 15.3 168.8 16 166.5 L 13 165 Q 14.3 159.7 11 160.5 L 11 156.5 L 9 156.5 L 7 148.5 L 8 148.5 L 8.5 151 L 9 145.5 L 8 142.5 L 9 139.5 L 7 136.5 L 9 131 Q 12 132.3 11 128.5 L 10.5 127 L 13 127 Q 12 122.8 15 123.5 L 15 119 Q 18.7 120.5 18 117.5 L 17.5 116 L 20 117 L 19 114.5 L 20.5 115 Q 22.8 115.8 22 113.5 L 21.5 112 L 23.5 112 L 25 111.5 L 24.5 110 L 29 110 L 31 106 L 36 106 Q 34.9 103.3 37.5 104 L 39.5 104 L 41.5 103 L 43.5 103 L 47 102 L 47 100 Z " /><path fill="rgb(248,49,47)" stroke="rgb(248,49,47)" stroke-width="1" opacity="1" d="M 137.5 103 L 141.5 104 L 142.5 103 L 153.5 103 L 156.5 104 L 158.5 103 L 161 104 L 161 106 L 165 106 Q 163.8 109 167.5 108 Q 169.7 112.3 172 110.5 L 173.5 113 L 176.5 115 L 178 114.5 L 177 117 L 180 118.5 L 180.5 121 L 182 120.5 L 181 121.5 L 184 124.5 L 184.5 127 L 186 126.5 L 186 131.5 L 188 133.5 L 189 138.5 L 188 139.5 L 188 154 L 186 154 Q 187.5 160.3 184 159.5 L 184 163.5 L 181 164.5 L 181.5 166 L 183 165.5 L 180 166.5 L 178.5 171 L 176.5 171 Q 174.3 170.3 175 172.5 L 170.5 178 L 168.5 177 L 166 178 L 166 180 L 161 180 L 161 182 Q 154.7 180.5 155.5 184 L 140 184 Q 141.1 180.5 133.5 182 L 131 181.5 L 131.5 180 L 128.5 181 L 127.5 178 L 124 177 Q 125.1 174.3 122.5 175 L 121 175.5 L 122 173 L 119 173 Q 120.5 169.2 117.5 170 L 116 170.5 L 117 168 L 114 167.5 L 114 165.5 Q 115.1 162.2 112.5 163 L 111 163.5 L 112 160.5 L 110 160.5 L 110 158.5 L 109.5 156 L 108 156.5 L 108 131.5 Q 111 132.5 110 127.5 L 109.5 126 L 112 127 L 112 124.5 L 115.5 119 L 117 119 L 117 117 L 119 117 L 119 115 Q 121.7 116.1 121 113.5 L 120.5 112 L 122.5 112 Q 125.5 112.9 124 108.5 L 127 107.5 Q 125.9 104.2 128.5 105 L 130 105.5 Q 129.5 102.5 136.5 104 L 137.5 103 Z " /><path fill="rgb(248,49,47)" stroke="rgb(248,49,47)" stroke-width="1" opacity="1" d="M 90.5 139 L 91 146.5 L 90 146.5 L 90.5 139 Z " /></svg>