<svg width="200" height="200" version="1.1" xmlns="http://www.w3.org/2000/svg" desc="Created with imagetracer.js version 1.2.6" ><path fill="rgb(0,0,0)" stroke="rgb(0,0,0)" stroke-width="1" opacity="0" d="M 0 0 L 200 0 L 200 200 L 0 200 L 0 0 Z M 78 14 L 71 16 L 71 39 Q 74 38 73 41 L 82 41 L 83 43 L 83 53 L 82 54 L 82 55 L 73 55 Q 74 59 69 57 L 69 59 L 66 60 L 62 59 Q 59 60 60 57 L 58 57 L 56 53 L 44 53 Q 44 56 41 55 L 41 57 L 39 57 L 38 60 Q 35 59 36 62 L 34 62 L 34 64 L 32 64 L 32 66 L 29 68 Q 30 70 27 69 L 27 71 L 25 71 L 25 84 L 32 91 L 32 94 L 29 98 L 29 103 L 27 103 L 27 108 L 25 108 L 25 143 Q 29 142 27 148 L 29 148 L 30 158 L 34 162 Q 33 165 36 164 Q 35 169 39 172 Q 38 174 41 173 L 41 175 L 46 179 Q 45 181 48 180 L 48 182 L 50 182 L 50 184 L 53 186 L 53 187 L 57 187 L 57 189 L 64 191 L 67 194 Q 72 192 71 196 Q 78 194 80 198 L 118 198 L 118 196 L 124 196 L 124 194 Q 131 195 134 191 Q 137 192 136 189 L 139 189 L 141 185 Q 146 185 148 182 Q 147 179 150 180 L 150 178 L 152 178 L 156 172 L 161 168 Q 160 163 164 161 Q 163 156 166 157 L 166 152 L 168 152 Q 167 147 170 146 L 170 135 L 171 134 L 170 108 L 166 101 Q 168 95 164 96 L 164 90 L 166 90 Q 165 87 168 88 L 171 83 Q 173 72 168 68 Q 165 69 166 66 L 164 66 L 159 59 Q 156 60 157 57 L 155 57 L 153 53 L 141 53 Q 141 56 136 55 L 135 59 L 133 60 L 127 59 L 125 57 Q 119 59 120 55 L 116 55 L 111 52 L 111 44 Q 114 44 113 41 L 123 41 L 126 36 L 126 20 L 125 17 L 122 15 L 120 15 L 119 14 L 78 14 Z " /><path fill="rgb(123,123,123)" stroke="rgb(123,123,123)" stroke-width="1" opacity="0.09019607843137255" d="M 77.5 14 L 118.5 14 L 120 15.5 L 118.5 15 L 77.5 15 L 75.5 16 L 75.5 15 L 77.5 14 Z " /><path fill="rgb(123,123,123)" stroke="rgb(123,123,123)" stroke-width="1" opacity="0.09019607843137255" d="M 71.5 19 L 72 35.5 L 71 35.5 L 71.5 19 Z " /><path fill="rgb(123,123,123)" stroke="rgb(123,123,123)" stroke-width="1" opacity="0.09019607843137255" d="M 125.5 22 L 126 31.5 L 125 31.5 L 125.5 22 Z " /><path fill="rgb(123,123,123)" stroke="rgb(123,123,123)" stroke-width="1" opacity="0.09019607843137255" d="M 75.5 40 L 82 40.5 L 75.5 41 L 75.5 40 Z " /><path fill="rgb(123,123,123)" stroke="rgb(123,123,123)" stroke-width="1" opacity="0.09019607843137255" d="M 113.5 40 L 122 40.5 L 113.5 41 L 113.5 40 Z " /><path fill="rgb(123,123,123)" stroke="rgb(123,123,123)" stroke-width="1" opacity="0.09019607843137255" d="M 83.5 43 L 84 52.5 L 82 53.5 L 83 52.5 L 83.5 43 Z " /><path fill="rgb(123,123,123)" stroke="rgb(123,123,123)" stroke-width="1" opacity="0.09019607843137255" d="M 48.5 53 L 52 53.5 L 48.5 54 L 48.5 53 Z " /><path fill="rgb(123,123,123)" stroke="rgb(123,123,123)" stroke-width="1" opacity="0.09019607843137255" d="M 53.5 53 L 56 53.5 L 53.5 54 L 53.5 53 Z " /><path fill="rgb(123,123,123)" stroke="rgb(123,123,123)" stroke-width="1" opacity="0.09019607843137255" d="M 145.5 53 L 149 53.5 L 145.5 54 L 145.5 53 Z " /><path fill="rgb(123,123,123)" stroke="rgb(123,123,123)" stroke-width="1" opacity="0.09019607843137255" d="M 150.5 53 L 153 53.5 L 150.5 54 L 150.5 53 Z " /><path fill="rgb(123,123,123)" stroke="rgb(123,123,123)" stroke-width="1" opacity="0.09019607843137255" d="M 76.5 55 L 82 55.5 L 76.5 56 L 76.5 55 Z " /><path fill="rgb(123,123,123)" stroke="rgb(123,123,123)" stroke-width="1" opacity="0.09019607843137255" d="M 114.5 55 L 118 55.5 L 114.5 56 L 114.5 55 Z " /><path fill="rgb(123,123,123)" stroke="rgb(123,123,123)" stroke-width="1" opacity="0.09019607843137255" d="M 69.5 57 L 70 59.5 L 69 59.5 L 69.5 57 Z " /><path fill="rgb(123,123,123)" stroke="rgb(123,123,123)" stroke-width="1" opacity="0.09019607843137255" d="M 119.5 57 L 123 57.5 L 119.5 58 L 119.5 57 Z " /><path fill="rgb(123,123,123)" stroke="rgb(123,123,123)" stroke-width="1" opacity="0.09019607843137255" d="M 165.5 98 L 166 101.5 L 165 101.5 L 165.5 98 Z " /><path fill="rgb(123,123,123)" stroke="rgb(123,123,123)" stroke-width="1" opacity="0.09019607843137255" d="M 167.5 102 L 168 106.5 L 167 106.5 L 167.5 102 Z " /><path fill="rgb(123,123,123)" stroke="rgb(123,123,123)" stroke-width="1" opacity="0.09019607843137255" d="M 27.5 106 L 28 108.5 L 27 108.5 L 27.5 106 Z " /><path fill="rgb(123,123,123)" stroke="rgb(123,123,123)" stroke-width="1" opacity="0.09019607843137255" d="M 169.5 110 L 170 116.5 L 169 116.5 L 169.5 110 Z " /><path fill="rgb(123,123,123)" stroke="rgb(123,123,123)" stroke-width="1" opacity="0.09019607843137255" d="M 25.5 112 L 26 138.5 L 25 138.5 L 25.5 112 Z " /><path fill="rgb(123,123,123)" stroke="rgb(123,123,123)" stroke-width="1" opacity="0.09019607843137255" d="M 170.5 125 L 171 127.5 L 170 127.5 L 170.5 125 Z " /><path fill="rgb(123,123,123)" stroke="rgb(123,123,123)" stroke-width="1" opacity="0.09019607843137255" d="M 169.5 134 L 170 144.5 L 169 144.5 L 169.5 134 Z " /><path fill="rgb(123,123,123)" stroke="rgb(123,123,123)" stroke-width="1" opacity="0.09019607843137255" d="M 167 146 L 169 146.5 L 167.5 150 L 167 146 Z " /><path fill="rgb(123,123,123)" stroke="rgb(123,123,123)" stroke-width="1" opacity="0.09019607843137255" d="M 165.5 151 L 166 154.5 L 165 154.5 L 165.5 151 Z " /><path fill="rgb(123,123,123)" stroke="rgb(123,123,123)" stroke-width="1" opacity="0.09019607843137255" d="M 30.5 154 L 31 156.5 L 30 156.5 L 30.5 154 Z " /><path fill="rgb(123,123,123)" stroke="rgb(123,123,123)" stroke-width="1" opacity="0.09019607843137255" d="M 33.5 160 Q 35.8 159.3 35 161.5 L 33.5 160 Z " /><path fill="rgb(123,123,123)" stroke="rgb(123,123,123)" stroke-width="1" opacity="0.09019607843137255" d="M 36.5 167 L 37.5 169 L 36.5 167 Z " /><path fill="rgb(123,123,123)" stroke="rgb(123,123,123)" stroke-width="1" opacity="0.09019607843137255" d="M 153.5 175 L 152.5 177 L 153.5 175 Z " /><path fill="rgb(123,123,123)" stroke="rgb(123,123,123)" stroke-width="1" opacity="0.09019607843137255" d="M 128.5 191 L 129.5 193 L 128.5 191 Z " /><path fill="rgb(123,123,123)" stroke="rgb(123,123,123)" stroke-width="1" opacity="0.09019607843137255" d="M 124.5 193 L 126 193.5 L 123.5 195 L 124.5 193 Z " /><path fill="rgb(123,123,123)" stroke="rgb(123,123,123)" stroke-width="1" opacity="0.09019607843137255" d="M 75.5 195 Q 79.9 193.5 79 196.5 L 77.5 196 Q 74.5 196.5 75.5 195 Z " /><path fill="rgb(123,123,123)" stroke="rgb(123,123,123)" stroke-width="1" opacity="0.09019607843137255" d="M 118.5 195 L 122 195.5 L 118.5 196 L 118.5 195 Z " /><path fill="rgb(123,123,123)" stroke="rgb(123,123,123)" stroke-width="1" opacity="0.09019607843137255" d="M 80.5 197 L 117 197.5 L 80.5 198 L 80.5 197 Z " /><path fill="rgb(188,188,188)" stroke="rgb(188,188,188)" stroke-width="1" opacity="0.16862745098039217" d="M 73 15 Q 76 14 75 17 L 71 19 L 73 15 Z " /><path fill="rgb(188,188,188)" stroke="rgb(188,188,188)" stroke-width="1" opacity="0.16862745098039217" d="M 124.5 33 L 125 37 Q 122.3 38.1 123 35.5 L 124.5 33 Z " /><path fill="rgb(188,188,188)" stroke="rgb(188,188,188)" stroke-width="1" opacity="0.16862745098039217" d="M 71 36 L 73 36.5 L 72.5 38 L 75 38.5 L 71 39 L 71 36 Z " /><path fill="rgb(188,188,188)" stroke="rgb(188,188,188)" stroke-width="1" opacity="0.16862745098039217" d="M 121.5 38 L 124 38.5 L 121.5 39 L 121.5 38 Z " /><path fill="rgb(188,188,188)" stroke="rgb(188,188,188)" stroke-width="1" opacity="0.16862745098039217" d="M 82 40 Q 85 38.8 84 42.5 L 82 41.5 L 82 40 Z " /><path fill="rgb(188,188,188)" stroke="rgb(188,188,188)" stroke-width="1" opacity="0.16862745098039217" d="M 111.5 40 Q 114.1 39.3 113 42 L 111 42.5 L 111 51.5 L 110 51.5 L 110 41.5 L 111.5 40 Z " /><path fill="rgb(188,188,188)" stroke="rgb(188,188,188)" stroke-width="1" opacity="0.16862745098039217" d="M 83.5 53 L 84 56 Q 81.3 57.1 82 54.5 L 83.5 53 Z " /><path fill="rgb(188,188,188)" stroke="rgb(188,188,188)" stroke-width="1" opacity="0.16862745098039217" d="M 112.5 54 L 115 54.5 Q 112.9 57.8 112.5 54 Z " /><path fill="rgb(188,188,188)" stroke="rgb(188,188,188)" stroke-width="1" opacity="0.16862745098039217" d="M 140.5 54 L 141 56 L 136.5 57 L 137.5 55 L 140.5 54 Z " /><path fill="rgb(188,188,188)" stroke="rgb(188,188,188)" stroke-width="1" opacity="0.16862745098039217" d="M 41 55 L 43 55.5 L 41 56.5 L 41 55 Z " /><path fill="rgb(188,188,188)" stroke="rgb(188,188,188)" stroke-width="1" opacity="0.16862745098039217" d="M 73.5 55 Q 76.8 53.9 76 56.5 L 73.5 58 L 73.5 57 L 75 56.5 L 73.5 55 Z " /><path fill="rgb(188,188,188)" stroke="rgb(188,188,188)" stroke-width="1" opacity="0.16862745098039217" d="M 118.5 55 L 119.5 57 Q 116.7 57.7 118.5 55 Z " /><path fill="rgb(188,188,188)" stroke="rgb(188,188,188)" stroke-width="1" opacity="0.16862745098039217" d="M 70 57 Q 73 56 72 59 Q 69 60 70 57 Z " /><path fill="rgb(188,188,188)" stroke="rgb(188,188,188)" stroke-width="1" opacity="0.16862745098039217" d="M 123 57 Q 126 56 125 59 Q 122 60 123 57 Z " /><path fill="rgb(188,188,188)" stroke="rgb(188,188,188)" stroke-width="1" opacity="0.16862745098039217" d="M 66 59 Q 69 58 68 61 Q 65 62 66 59 Z " /><path fill="rgb(188,188,188)" stroke="rgb(188,188,188)" stroke-width="1" opacity="0.16862745098039217" d="M 127.5 59 Q 129.8 58.3 129 60.5 L 127.5 59 Z " /><path fill="rgb(188,188,188)" stroke="rgb(188,188,188)" stroke-width="1" opacity="0.16862745098039217" d="M 64.5 60 L 65 63 L 63 62.5 L 64.5 60 Z " /><path fill="rgb(188,188,188)" stroke="rgb(188,188,188)" stroke-width="1" opacity="0.16862745098039217" d="M 130.5 60 L 132 63 Q 128.5 64.1 130.5 60 Z " /><path fill="rgb(188,188,188)" stroke="rgb(188,188,188)" stroke-width="1" opacity="0.16862745098039217" d="M 25 71 L 28 71.5 L 26 72 L 26 83.5 L 28 85.5 L 25 83.5 L 25 71 Z " /><path fill="rgb(188,188,188)" stroke="rgb(188,188,188)" stroke-width="1" opacity="0.16862745098039217" d="M 169.5 72 L 170.5 74 L 169.5 72 Z " /><path fill="rgb(188,188,188)" stroke="rgb(188,188,188)" stroke-width="1" opacity="0.16862745098039217" d="M 32.5 90 L 33.5 92 L 34.5 90 L 35 93 Q 30.3 94.5 32.5 90 Z " /><path fill="rgb(188,188,188)" stroke="rgb(188,188,188)" stroke-width="1" opacity="0.16862745098039217" d="M 162 91 L 164 91.5 L 164 93.5 Q 164.7 96.1 162 95 L 162 91 Z " /><path fill="rgb(188,188,188)" stroke="rgb(188,188,188)" stroke-width="1" opacity="0.16862745098039217" d="M 31 94 Q 33.7 92.9 33 95.5 L 30.5 97 L 31 95.5 L 31 94 Z " /><path fill="rgb(188,188,188)" stroke="rgb(188,188,188)" stroke-width="1" opacity="0.16862745098039217" d="M 164.5 96 L 165.5 98 Q 162.7 98.7 164.5 96 Z " /><path fill="rgb(188,188,188)" stroke="rgb(188,188,188)" stroke-width="1" opacity="0.16862745098039217" d="M 30.5 98 L 31 99.5 L 29 100.5 L 30.5 98 Z " /><path fill="rgb(188,188,188)" stroke="rgb(188,188,188)" stroke-width="1" opacity="0.16862745098039217" d="M 27 103 Q 29.7 101.9 29 104.5 L 27 105.5 L 27 103 Z " /><path fill="rgb(188,188,188)" stroke="rgb(188,188,188)" stroke-width="1" opacity="0.16862745098039217" d="M 167 107 Q 169.7 105.9 169 108.5 L 169.5 110 L 167 109 L 167 107 Z " /><path fill="rgb(188,188,188)" stroke="rgb(188,188,188)" stroke-width="1" opacity="0.16862745098039217" d="M 25 108 L 28 109.5 L 26 109.5 L 25.5 112 L 25 108 Z " /><path fill="rgb(188,188,188)" stroke="rgb(188,188,188)" stroke-width="1" opacity="0.16862745098039217" d="M 169 117 Q 172.3 115.7 171 120.5 L 170 120.5 L 169 117 Z " /><path fill="rgb(188,188,188)" stroke="rgb(188,188,188)" stroke-width="1" opacity="0.16862745098039217" d="M 170.5 130 L 171 134 Q 168.3 135.1 169 132.5 L 170.5 130 Z " /><path fill="rgb(188,188,188)" stroke="rgb(188,188,188)" stroke-width="1" opacity="0.16862745098039217" d="M 25.5 139 L 27 142.5 L 25 141.5 L 25.5 139 Z " /><path fill="rgb(188,188,188)" stroke="rgb(188,188,188)" stroke-width="1" opacity="0.16862745098039217" d="M 167 144 Q 170 143 169 146 Q 166 147 167 144 Z " /><path fill="rgb(188,188,188)" stroke="rgb(188,188,188)" stroke-width="1" opacity="0.16862745098039217" d="M 27.5 145 L 29 148 Q 25.5 149.1 27.5 145 Z " /><path fill="rgb(188,188,188)" stroke="rgb(188,188,188)" stroke-width="1" opacity="0.16862745098039217" d="M 166.5 149 Q 169.5 150.5 166.5 152 L 166.5 149 Z " /><path fill="rgb(188,188,188)" stroke="rgb(188,188,188)" stroke-width="1" opacity="0.16862745098039217" d="M 29 151 Q 32 149.8 31 153.5 L 29 152.5 L 29 151 Z " /><path fill="rgb(188,188,188)" stroke="rgb(188,188,188)" stroke-width="1" opacity="0.16862745098039217" d="M 164 155 Q 167 154 166 157 Q 163 158 164 155 Z " /><path fill="rgb(188,188,188)" stroke="rgb(188,188,188)" stroke-width="1" opacity="0.16862745098039217" d="M 31.5 156 Q 34.1 155.2 33 158.5 L 33.5 160 L 31 158.5 L 31.5 156 Z " /><path fill="rgb(188,188,188)" stroke="rgb(188,188,188)" stroke-width="1" opacity="0.16862745098039217" d="M 162 158 L 164 158.5 L 163.5 161 L 161.5 162 L 162 160.5 L 162 158 Z " /><path fill="rgb(188,188,188)" stroke="rgb(188,188,188)" stroke-width="1" opacity="0.16862745098039217" d="M 34.5 162 Q 36.8 161.3 36 163.5 L 34.5 162 Z " /><path fill="rgb(188,188,188)" stroke="rgb(188,188,188)" stroke-width="1" opacity="0.16862745098039217" d="M 36 165 Q 39 163.8 38 167.5 L 38.5 169 L 36 165 Z " /><path fill="rgb(188,188,188)" stroke="rgb(188,188,188)" stroke-width="1" opacity="0.16862745098039217" d="M 158 165 L 161 166.5 L 157 169 Q 158 172 155 171 L 155 169 Q 157.7 170.1 157 167.5 L 158 165 Z " /><path fill="rgb(188,188,188)" stroke="rgb(188,188,188)" stroke-width="1" opacity="0.16862745098039217" d="M 40.5 170 Q 44.2 172 42.5 174 L 45 174 L 45 176 L 47 176 Q 45.9 178.7 48.5 178 L 53 182.5 L 51.5 184 L 51.5 182 L 49.5 182 L 39 171.5 L 40.5 170 Z " /><path fill="rgb(188,188,188)" stroke="rgb(188,188,188)" stroke-width="1" opacity="0.16862745098039217" d="M 151 174 L 155 174.5 L 152 175 L 151.5 178 L 151 174 Z " /><path fill="rgb(188,188,188)" stroke="rgb(188,188,188)" stroke-width="1" opacity="0.16862745098039217" d="M 149.5 176 L 150 180 L 146 179.5 L 149 179 L 149.5 176 Z " /><path fill="rgb(188,188,188)" stroke="rgb(188,188,188)" stroke-width="1" opacity="0.16862745098039217" d="M 144.5 181 L 148 181.5 L 144.5 182 L 144.5 181 Z " /><path fill="rgb(188,188,188)" stroke="rgb(188,188,188)" stroke-width="1" opacity="0.16862745098039217" d="M 141 183 Q 144 182 143 185 L 138.5 187 L 139.5 185 Q 142.1 185.7 141 183 Z " /><path fill="rgb(188,188,188)" stroke="rgb(188,188,188)" stroke-width="1" opacity="0.16862745098039217" d="M 54.5 184 L 53.5 186 L 54.5 184 Z " /><path fill="rgb(188,188,188)" stroke="rgb(188,188,188)" stroke-width="1" opacity="0.16862745098039217" d="M 56.5 186 Q 58.8 185.3 58 187.5 L 60 187.5 Q 60.8 189.8 58.5 189 L 56.5 186 Z " /><path fill="rgb(188,188,188)" stroke="rgb(188,188,188)" stroke-width="1" opacity="0.16862745098039217" d="M 61.5 188 Q 64.5 189.5 61.5 191 L 61.5 188 Z " /><path fill="rgb(188,188,188)" stroke="rgb(188,188,188)" stroke-width="1" opacity="0.16862745098039217" d="M 134.5 188 L 139 188.5 L 130 192 Q 128.8 189 132.5 190 L 134.5 188 Z " /><path fill="rgb(188,188,188)" stroke="rgb(188,188,188)" stroke-width="1" opacity="0.16862745098039217" d="M 64 190 Q 67 189 66 192 Q 63 193 64 190 Z " /><path fill="rgb(188,188,188)" stroke="rgb(188,188,188)" stroke-width="1" opacity="0.16862745098039217" d="M 68.5 192 L 69.5 194 Q 66.7 194.7 68.5 192 Z " /><path fill="rgb(188,188,188)" stroke="rgb(188,188,188)" stroke-width="1" opacity="0.16862745098039217" d="M 127.5 192 Q 130.1 191.3 129 194 L 126 193.5 L 127.5 192 Z " /><path fill="rgb(188,188,188)" stroke="rgb(188,188,188)" stroke-width="1" opacity="0.16862745098039217" d="M 71.5 194 L 75 195.5 L 72.5 196 L 71.5 194 Z " /><path fill="rgb(188,188,188)" stroke="rgb(188,188,188)" stroke-width="1" opacity="0.16862745098039217" d="M 121.5 194 Q 123.8 193.3 123 195.5 L 121.5 194 Z " /><path fill="rgb(188,188,188)" stroke="rgb(188,188,188)" stroke-width="1" opacity="0.16862745098039217" d="M 116.5 196 Q 118.8 195.3 118 197.5 L 116.5 196 Z " /><path fill="rgb(194,176,176)" stroke="rgb(194,176,176)" stroke-width="1" opacity="0.9764705882352941" d="M 84.5 40 L 111 40.5 L 109.5 42 L 86.5 42 L 84.5 40 Z " /><path fill="rgb(194,176,176)" stroke="rgb(194,176,176)" stroke-width="1" opacity="0.9764705882352941" d="M 96.5 52 L 101 53.5 L 93.5 54 L 93.5 53 L 96.5 52 Z " /><path fill="rgb(194,176,176)" stroke="rgb(194,176,176)" stroke-width="1" opacity="0.9764705882352941" d="M 134.5 63 L 141 66 L 140.5 68 L 135.5 65 L 134.5 63 Z " /><path fill="rgb(194,176,176)" stroke="rgb(194,176,176)" stroke-width="1" opacity="0.9764705882352941" d="M 58.5 64 L 61 64.5 L 54 68 Q 55.1 70.7 52.5 70 L 49 72 Q 50.1 74.7 47.5 74 L 45 75.5 L 52 70 Q 50.9 67.3 53.5 68 L 58.5 64 Z " /><path fill="rgb(194,176,176)" stroke="rgb(194,176,176)" stroke-width="1" opacity="0.9764705882352941" d="M 91.5 67 L 96 67.5 L 91.5 68 L 91.5 67 Z " /><path fill="rgb(194,176,176)" stroke="rgb(194,176,176)" stroke-width="1" opacity="0.9764705882352941" d="M 100.5 67 L 105 67.5 L 100.5 68 L 100.5 67 Z " /><path fill="rgb(194,176,176)" stroke="rgb(194,176,176)" stroke-width="1" opacity="0.9764705882352941" d="M 83.5 68 L 86 68.5 L 82.5 70 L 83.5 68 Z " /><path fill="rgb(194,176,176)" stroke="rgb(194,176,176)" stroke-width="1" opacity="0.9764705882352941" d="M 111.5 68 L 114 69.5 L 112.5 70 L 111.5 68 Z " /><path fill="rgb(194,176,176)" stroke="rgb(194,176,176)" stroke-width="1" opacity="0.9764705882352941" d="M 142.5 68 L 146 70 Q 144.9 72.7 147.5 72 L 151 77 L 153 77 L 155 81 Q 152.3 82.1 153 79.5 L 148.5 74 L 144 72 Q 145 69 142 70 L 142.5 68 Z " /><path fill="rgb(194,176,176)" stroke="rgb(194,176,176)" stroke-width="1" opacity="0.9764705882352941" d="M 77.5 70 L 79 70.5 L 75.5 72 L 75.5 71 L 77.5 70 Z " /><path fill="rgb(194,176,176)" stroke="rgb(194,176,176)" stroke-width="1" opacity="0.9764705882352941" d="M 117.5 70 L 120 71.5 L 118.5 72 L 117.5 70 Z " /><path fill="rgb(194,176,176)" stroke="rgb(194,176,176)" stroke-width="1" opacity="0.9764705882352941" d="M 73.5 72 L 72.5 74 L 71 73.5 L 73.5 72 Z " /><path fill="rgb(194,176,176)" stroke="rgb(194,176,176)" stroke-width="1" opacity="0.9764705882352941" d="M 122.5 72 L 126 74.5 L 124.5 74 L 122.5 72 Z " /><path fill="rgb(194,176,176)" stroke="rgb(194,176,176)" stroke-width="1" opacity="0.9764705882352941" d="M 67.5 75 L 66.5 77 L 67.5 75 Z " /><path fill="rgb(194,176,176)" stroke="rgb(194,176,176)" stroke-width="1" opacity="0.9764705882352941" d="M 128.5 75 L 129.5 77 Q 126.7 77.7 128.5 75 Z " /><path fill="rgb(194,176,176)" stroke="rgb(194,176,176)" stroke-width="1" opacity="0.9764705882352941" d="M 43.5 77 L 44 78.5 L 42 82 L 40 82 Q 41.1 84.7 38.5 84 L 43 78.5 L 43.5 77 Z " /><path fill="rgb(194,176,176)" stroke="rgb(194,176,176)" stroke-width="1" opacity="0.9764705882352941" d="M 64.5 77 L 65 79 L 63 78.5 L 64.5 77 Z " /><path fill="rgb(194,176,176)" stroke="rgb(194,176,176)" stroke-width="1" opacity="0.9764705882352941" d="M 134.5 79 L 139 82.5 L 137.5 83 L 134 81 L 134.5 79 Z " /><path fill="rgb(194,176,176)" stroke="rgb(194,176,176)" stroke-width="1" opacity="0.9764705882352941" d="M 55.5 84 L 56 86 L 54 85.5 L 55.5 84 Z " /><path fill="rgb(194,176,176)" stroke="rgb(194,176,176)" stroke-width="1" opacity="0.9764705882352941" d="M 158.5 84 L 160 87.5 L 158 86.5 L 158.5 84 Z " /><path fill="rgb(194,176,176)" stroke="rgb(194,176,176)" stroke-width="1" opacity="0.9764705882352941" d="M 37.5 85 L 37 86.5 L 36 90 L 34 89.5 L 37.5 85 Z " /><path fill="rgb(194,176,176)" stroke="rgb(194,176,176)" stroke-width="1" opacity="0.9764705882352941" d="M 129.5 86 L 134 87.5 L 127.5 88 L 127.5 87 L 129.5 86 Z " /><path fill="rgb(194,176,176)" stroke="rgb(194,176,176)" stroke-width="1" opacity="0.9764705882352941" d="M 53.5 87 L 49.5 92 L 53.5 87 Z " /><path fill="rgb(194,176,176)" stroke="rgb(194,176,176)" stroke-width="1" opacity="0.9764705882352941" d="M 142.5 87 L 145.5 91 Q 143.3 91.8 144 89.5 L 142.5 87 Z " /><path fill="rgb(194,176,176)" stroke="rgb(194,176,176)" stroke-width="1" opacity="0.9764705882352941" d="M 135.5 89 L 136.5 91 L 135.5 89 Z " /><path fill="rgb(194,176,176)" stroke="rgb(194,176,176)" stroke-width="1" opacity="0.9764705882352941" d="M 160.5 89 L 161.5 91 Q 158.7 91.7 160.5 89 Z " /><path fill="rgb(194,176,176)" stroke="rgb(194,176,176)" stroke-width="1" opacity="0.9764705882352941" d="M 146.5 92 L 147.5 94 L 146.5 92 Z " /><path fill="rgb(194,176,176)" stroke="rgb(194,176,176)" stroke-width="1" opacity="0.9764705882352941" d="M 48.5 93 L 49 95 L 47 94.5 L 48.5 93 Z " /><path fill="rgb(194,176,176)" stroke="rgb(194,176,176)" stroke-width="1" opacity="0.9764705882352941" d="M 118.5 96 L 117.5 98 L 118.5 96 Z " /><path fill="rgb(194,176,176)" stroke="rgb(194,176,176)" stroke-width="1" opacity="0.9764705882352941" d="M 46.5 97 L 46 98.5 L 43.5 104 L 43 102.5 L 46.5 97 Z " /><path fill="rgb(194,176,176)" stroke="rgb(194,176,176)" stroke-width="1" opacity="0.9764705882352941" d="M 149.5 97 L 151 99.5 L 150 99.5 L 149.5 97 Z " /><path fill="rgb(194,176,176)" stroke="rgb(194,176,176)" stroke-width="1" opacity="0.9764705882352941" d="M 132.5 100 L 133 101.5 L 130.5 103 L 130.5 102 Q 133 102.7 132.5 100 Z " /><path fill="rgb(194,176,176)" stroke="rgb(194,176,176)" stroke-width="1" opacity="0.9764705882352941" d="M 151.5 101 L 152.5 103 L 151.5 101 Z " /><path fill="rgb(194,176,176)" stroke="rgb(194,176,176)" stroke-width="1" opacity="0.9764705882352941" d="M 111.5 103 L 110.5 105 L 111.5 103 Z " /><path fill="rgb(194,176,176)" stroke="rgb(194,176,176)" stroke-width="1" opacity="0.9764705882352941" d="M 128.5 104 L 130 104.5 L 128 105 L 127.5 107 L 127 105.5 L 128.5 104 Z " /><path fill="rgb(194,176,176)" stroke="rgb(194,176,176)" stroke-width="1" opacity="0.9764705882352941" d="M 153.5 106 L 155 108.5 L 154 108.5 L 153.5 106 Z " /><path fill="rgb(194,176,176)" stroke="rgb(194,176,176)" stroke-width="1" opacity="0.9764705882352941" d="M 41.5 109 L 42 110.5 L 40 111.5 L 41.5 109 Z " /><path fill="rgb(194,176,176)" stroke="rgb(194,176,176)" stroke-width="1" opacity="0.9764705882352941" d="M 104.5 110 L 103.5 112 L 104.5 110 Z " /><path fill="rgb(194,176,176)" stroke="rgb(194,176,176)" stroke-width="1" opacity="0.9764705882352941" d="M 121.5 111 L 123 111.5 L 121 112 L 120.5 114 L 120 112.5 L 121.5 111 Z " /><path fill="rgb(194,176,176)" stroke="rgb(194,176,176)" stroke-width="1" opacity="0.9764705882352941" d="M 156.5 115 L 157 123.5 L 156 123.5 L 156.5 115 Z " /><path fill="rgb(194,176,176)" stroke="rgb(194,176,176)" stroke-width="1" opacity="0.9764705882352941" d="M 97.5 117 L 96.5 119 L 97.5 117 Z " /><path fill="rgb(194,176,176)" stroke="rgb(194,176,176)" stroke-width="1" opacity="0.9764705882352941" d="M 39.5 118 L 40 122.5 L 39 127.5 Q 41.2 128.8 40 133.5 L 39 133.5 L 38 121.5 L 39.5 118 Z " /><path fill="rgb(194,176,176)" stroke="rgb(194,176,176)" stroke-width="1" opacity="0.9764705882352941" d="M 112.5 120 L 114 120.5 L 112 121 L 111.5 123 L 111 121.5 L 112.5 120 Z " /><path fill="rgb(194,176,176)" stroke="rgb(194,176,176)" stroke-width="1" opacity="0.9764705882352941" d="M 91.5 127 L 93 129.5 L 91 130 L 91.5 127 Z " /><path fill="rgb(194,176,176)" stroke="rgb(194,176,176)" stroke-width="1" opacity="0.9764705882352941" d="M 105.5 127 L 107 127.5 L 105 128 L 104.5 130 L 104 128.5 L 105.5 127 Z " /><path fill="rgb(194,176,176)" stroke="rgb(194,176,176)" stroke-width="1" opacity="0.9764705882352941" d="M 156.5 128 L 157 136.5 L 156 136.5 L 156.5 128 Z " /><path fill="rgb(194,176,176)" stroke="rgb(194,176,176)" stroke-width="1" opacity="0.9764705882352941" d="M 96.5 132 L 100 132.5 L 96.5 133 L 96.5 132 Z " /><path fill="rgb(194,176,176)" stroke="rgb(194,176,176)" stroke-width="1" opacity="0.9764705882352941" d="M 40.5 140 L 42 142.5 L 40 141.5 L 40.5 140 Z " /><path fill="rgb(194,176,176)" stroke="rgb(194,176,176)" stroke-width="1" opacity="0.9764705882352941" d="M 154.5 142 L 155 144.5 L 153 145.5 L 154.5 142 Z " /><path fill="rgb(194,176,176)" stroke="rgb(194,176,176)" stroke-width="1" opacity="0.9764705882352941" d="M 42.5 146 L 45 151.5 L 43 150.5 L 42.5 146 Z " /><path fill="rgb(194,176,176)" stroke="rgb(194,176,176)" stroke-width="1" opacity="0.9764705882352941" d="M 45.5 153 L 46.5 155 Q 43.7 155.7 45.5 153 Z " /><path fill="rgb(194,176,176)" stroke="rgb(194,176,176)" stroke-width="1" opacity="0.9764705882352941" d="M 150.5 153 L 150 154.5 L 147.5 160 L 147 158.5 L 150.5 153 Z " /><path fill="rgb(194,176,176)" stroke="rgb(194,176,176)" stroke-width="1" opacity="0.9764705882352941" d="M 47.5 157 L 48.5 159 L 47.5 157 Z " /><path fill="rgb(194,176,176)" stroke="rgb(194,176,176)" stroke-width="1" opacity="0.9764705882352941" d="M 49.5 160 L 51.5 163 L 49.5 160 Z " /><path fill="rgb(194,176,176)" stroke="rgb(194,176,176)" stroke-width="1" opacity="0.9764705882352941" d="M 141.5 166 L 139.5 169 L 141.5 166 Z " /><path fill="rgb(194,176,176)" stroke="rgb(194,176,176)" stroke-width="1" opacity="0.9764705882352941" d="M 58.5 170 L 63 172 L 62.5 174 L 58.5 170 Z " /><path fill="rgb(194,176,176)" stroke="rgb(194,176,176)" stroke-width="1" opacity="0.9764705882352941" d="M 135.5 171 L 133.5 174 L 135.5 171 Z " /><path fill="rgb(194,176,176)" stroke="rgb(194,176,176)" stroke-width="1" opacity="0.9764705882352941" d="M 131.5 174 L 132 176 L 127.5 178 L 128.5 176 L 131.5 174 Z " /><path fill="rgb(194,176,176)" stroke="rgb(194,176,176)" stroke-width="1" opacity="0.9764705882352941" d="M 67.5 176 L 68.5 178 L 67.5 176 Z " /><path fill="rgb(194,176,176)" stroke="rgb(194,176,176)" stroke-width="1" opacity="0.9764705882352941" d="M 72.5 179 L 75 180.5 L 73.5 180 L 72.5 179 Z " /><path fill="rgb(194,176,176)" stroke="rgb(194,176,176)" stroke-width="1" opacity="0.9764705882352941" d="M 122.5 179 L 124 179.5 L 121.5 181 L 122.5 179 Z " /><path fill="rgb(194,176,176)" stroke="rgb(194,176,176)" stroke-width="1" opacity="0.9764705882352941" d="M 77.5 181 L 80 182.5 L 78.5 182 L 77.5 181 Z " /><path fill="rgb(194,176,176)" stroke="rgb(194,176,176)" stroke-width="1" opacity="0.9764705882352941" d="M 116 181 Q 119 180 118 183 Q 115 184 116 181 Z " /><path fill="rgb(194,176,176)" stroke="rgb(194,176,176)" stroke-width="1" opacity="0.9764705882352941" d="M 84.5 183 L 89 184.5 L 85.5 185 L 84.5 183 Z " /><path fill="rgb(194,176,176)" stroke="rgb(194,176,176)" stroke-width="1" opacity="0.9764705882352941" d="M 110.5 183 L 112 183.5 Q 111.3 185.8 107.5 185 L 107.5 184 L 110.5 183 Z " /><path fill="rgb(194,176,176)" stroke="rgb(194,176,176)" stroke-width="1" opacity="0.9764705882352941" d="M 95.5 185 L 100 185.5 L 95.5 186 L 95.5 185 Z " /><path fill="rgb(254,254,254)" stroke="rgb(254,254,254)" stroke-width="1" opacity="0.047058823529411764" d="M 122 15 L 125 16.5 L 126 21.5 L 125 21.5 L 122 15 Z " /><path fill="rgb(254,254,254)" stroke="rgb(254,254,254)" stroke-width="1" opacity="0.047058823529411764" d="M 125.5 32 L 126 35.5 L 125 35.5 L 125.5 32 Z " /><path fill="rgb(254,254,254)" stroke="rgb(254,254,254)" stroke-width="1" opacity="0.047058823529411764" d="M 73 39 L 75 39.5 L 73 40.5 L 73 39 Z " /><path fill="rgb(254,254,254)" stroke="rgb(254,254,254)" stroke-width="1" opacity="0.047058823529411764" d="M 111.5 52 Q 113.8 51.3 113 53.5 L 111.5 52 Z " /><path fill="rgb(254,254,254)" stroke="rgb(254,254,254)" stroke-width="1" opacity="0.047058823529411764" d="M 43.5 53 L 45 56 L 40 59.5 Q 40.8 61.8 38.5 61 L 31 70 L 27 71 L 27.5 69 L 29 69.5 L 30.5 66 Q 33.8 67.1 33 64.5 L 36 63 L 36.5 60 L 38 60.5 L 38 59 L 40 59 Q 38.9 56.3 41.5 57 L 43.5 53 Z " /><path fill="rgb(254,254,254)" stroke="rgb(254,254,254)" stroke-width="1" opacity="0.047058823529411764" d="M 140.5 53 L 141.5 55 L 140.5 53 Z " /><path fill="rgb(254,254,254)" stroke="rgb(254,254,254)" stroke-width="1" opacity="0.047058823529411764" d="M 54.5 54 L 57 54.5 L 56.5 56 L 61 59.5 L 60.5 61 L 60 59 L 58 59 Q 59.1 56.3 56.5 57 L 54.5 54 Z " /><path fill="rgb(254,254,254)" stroke="rgb(254,254,254)" stroke-width="1" opacity="0.047058823529411764" d="M 151.5 54 L 154 54.5 L 153.5 56 L 160 60 L 161.5 63 Q 163.8 62.3 163 64.5 L 170 70.5 L 168.5 72 L 164 67.5 Q 164.8 65.3 162.5 66 L 151.5 54 Z " /><path fill="rgb(254,254,254)" stroke="rgb(254,254,254)" stroke-width="1" opacity="0.047058823529411764" d="M 136.5 55 L 139 56.5 L 137 57 L 137 59 L 135 59 Q 136.1 61.7 133.5 61 L 132 61.5 L 133 59 L 135 59 Q 133.9 56.3 136.5 57 L 136.5 55 Z " /><path fill="rgb(254,254,254)" stroke="rgb(254,254,254)" stroke-width="1" opacity="0.047058823529411764" d="M 129 59 L 131 59.5 L 129 60.5 L 129 59 Z " /><path fill="rgb(254,254,254)" stroke="rgb(254,254,254)" stroke-width="1" opacity="0.047058823529411764" d="M 169.5 73 L 170.5 75 L 169.5 73 Z " /><path fill="rgb(254,254,254)" stroke="rgb(254,254,254)" stroke-width="1" opacity="0.047058823529411764" d="M 26.5 83 L 32.5 90 L 31 90 L 31 88 Q 28.3 89.1 29 86.5 L 26.5 83 Z " /><path fill="rgb(254,254,254)" stroke="rgb(254,254,254)" stroke-width="1" opacity="0.047058823529411764" d="M 168.5 84 L 169.5 86 Q 166.2 84.9 167 87.5 L 162.5 91 L 168.5 84 Z " /><path fill="rgb(254,254,254)" stroke="rgb(254,254,254)" stroke-width="1" opacity="0.047058823529411764" d="M 168.5 106 L 169.5 108 L 168.5 106 Z " /><path fill="rgb(254,254,254)" stroke="rgb(254,254,254)" stroke-width="1" opacity="0.047058823529411764" d="M 161 162 L 163 162.5 L 161 163.5 L 161 162 Z " /><path fill="rgb(254,254,254)" stroke="rgb(254,254,254)" stroke-width="1" opacity="0.047058823529411764" d="M 159.5 166 L 160.5 168 L 159.5 166 Z " /><path fill="rgb(254,254,254)" stroke="rgb(254,254,254)" stroke-width="1" opacity="0.047058823529411764" d="M 37.5 169 L 41 171.5 L 39 172.5 L 39.5 171 L 37.5 169 Z " /><path fill="rgb(254,254,254)" stroke="rgb(254,254,254)" stroke-width="1" opacity="0.047058823529411764" d="M 155.5 171 L 156 172.5 L 153.5 174 L 153.5 173 Q 156 173.7 155.5 171 Z " /><path fill="rgb(254,254,254)" stroke="rgb(254,254,254)" stroke-width="1" opacity="0.047058823529411764" d="M 42.5 173 L 41.5 175 L 42.5 173 Z " /><path fill="rgb(254,254,254)" stroke="rgb(254,254,254)" stroke-width="1" opacity="0.047058823529411764" d="M 49.5 180 L 48.5 182 L 49.5 180 Z " /><path fill="rgb(254,254,254)" stroke="rgb(254,254,254)" stroke-width="1" opacity="0.047058823529411764" d="M 50 182 L 56 186.5 L 53.5 187 L 53.5 185 Q 51.3 185.8 52 183.5 L 50 183.5 L 50 182 Z " /><path fill="rgb(254,254,254)" stroke="rgb(254,254,254)" stroke-width="1" opacity="0.047058823529411764" d="M 140.5 186 L 139.5 188 L 138 187.5 L 140.5 186 Z " /><path fill="rgb(254,254,254)" stroke="rgb(254,254,254)" stroke-width="1" opacity="0.047058823529411764" d="M 132.5 191 L 131.5 193 L 130 192.5 L 132.5 191 Z " /><path fill="rgb(254,254,254)" stroke="rgb(254,254,254)" stroke-width="1" opacity="0.047058823529411764" d="M 65.5 192 Q 69.3 191 68 194 L 65.5 192 Z " /><path fill="rgb(254,254,254)" stroke="rgb(254,254,254)" stroke-width="1" opacity="1" d="M 86.5 69 L 87 71 L 84 70.5 L 86.5 69 Z " /><path fill="rgb(254,254,254)" stroke="rgb(254,254,254)" stroke-width="1" opacity="1" d="M 108.5 69 L 112 70.5 L 109.5 71 L 108.5 69 Z " /><path fill="rgb(254,254,254)" stroke="rgb(254,254,254)" stroke-width="1" opacity="1" d="M 81.5 71 L 80.5 73 L 76 72.5 L 81.5 71 Z " /><path fill="rgb(254,254,254)" stroke="rgb(254,254,254)" stroke-width="1" opacity="1" d="M 116.5 72 Q 120.3 71.3 121 73.5 L 119.5 74 L 116.5 73 L 116.5 72 Z " /><path fill="rgb(254,254,254)" stroke="rgb(254,254,254)" stroke-width="1" opacity="1" d="M 92 73 L 94 73.5 L 92 74.5 L 92 73 Z " /><path fill="rgb(254,254,254)" stroke="rgb(254,254,254)" stroke-width="1" opacity="1" d="M 102 73 Q 105 72 104 75 Q 101 76 102 73 Z " /><path fill="rgb(254,254,254)" stroke="rgb(254,254,254)" stroke-width="1" opacity="1" d="M 122.5 74 Q 124.8 73.3 124 75.5 L 122.5 74 Z " /><path fill="rgb(254,254,254)" stroke="rgb(254,254,254)" stroke-width="1" opacity="1" d="M 90.5 75 L 91 90.5 L 93.5 93 L 97 94.5 L 95.5 94 Q 90.5 94.5 90 90.5 L 90.5 75 Z " /><path fill="rgb(254,254,254)" stroke="rgb(254,254,254)" stroke-width="1" opacity="1" d="M 66.5 78 L 67 80 L 64 80 Q 65.1 82.7 62.5 82 L 64.5 79 L 66.5 78 Z " /><path fill="rgb(254,254,254)" stroke="rgb(254,254,254)" stroke-width="1" opacity="1" d="M 129.5 78 L 132 79 L 131.5 81 L 129.5 78 Z " /><path fill="rgb(254,254,254)" stroke="rgb(254,254,254)" stroke-width="1" opacity="1" d="M 62 85 L 68.5 85 L 69 86.5 L 67.5 86 L 62.5 87 L 62 85 Z " /><path fill="rgb(254,254,254)" stroke="rgb(254,254,254)" stroke-width="1" opacity="1" d="M 138.5 85 L 139.5 87 L 138.5 85 Z " /><path fill="rgb(254,254,254)" stroke="rgb(254,254,254)" stroke-width="1" opacity="1" d="M 72.5 89 L 73.5 91 Q 70.7 91.7 72.5 89 Z " /><path fill="rgb(254,254,254)" stroke="rgb(254,254,254)" stroke-width="1" opacity="1" d="M 120 90 L 122 90.5 L 117 94.5 L 120 90 Z " /><path fill="rgb(254,254,254)" stroke="rgb(254,254,254)" stroke-width="1" opacity="1" d="M 51.5 92 L 50 94.5 L 49.5 97 L 49 94.5 L 51.5 92 Z " /><path fill="rgb(254,254,254)" stroke="rgb(254,254,254)" stroke-width="1" opacity="1" d="M 103.5 92 L 104 94 L 98.5 95 L 99.5 93 L 103.5 92 Z " /><path fill="rgb(254,254,254)" stroke="rgb(254,254,254)" stroke-width="1" opacity="1" d="M 145.5 93 L 147 95.5 L 145 94.5 L 145.5 93 Z " /><path fill="rgb(254,254,254)" stroke="rgb(254,254,254)" stroke-width="1" opacity="1" d="M 77.5 94 L 78 103 L 76 102.5 L 77.5 94 Z " /><path fill="rgb(254,254,254)" stroke="rgb(254,254,254)" stroke-width="1" opacity="1" d="M 57.5 95 L 59 97.5 L 57 96.5 L 57.5 95 Z " /><path fill="rgb(254,254,254)" stroke="rgb(254,254,254)" stroke-width="1" opacity="1" d="M 115.5 96 L 114 98.5 Q 114.8 100.8 112.5 100 L 111 100.5 L 113 97 L 115.5 96 Z " /><path fill="rgb(254,254,254)" stroke="rgb(254,254,254)" stroke-width="1" opacity="1" d="M 147.5 97 L 152 105.5 L 150 104.5 L 147.5 97 Z " /><path fill="rgb(254,254,254)" stroke="rgb(254,254,254)" stroke-width="1" opacity="1" d="M 47.5 99 L 48 101 L 46 100.5 L 47.5 99 Z " /><path fill="rgb(254,254,254)" stroke="rgb(254,254,254)" stroke-width="1" opacity="1" d="M 59.5 99 Q 61.8 98.3 61 100.5 L 64 102 Q 65 105 62 104 L 59.5 99 Z " /><path fill="rgb(254,254,254)" stroke="rgb(254,254,254)" stroke-width="1" opacity="1" d="M 132 102 L 134 102.5 L 132 103.5 L 132 102 Z " /><path fill="rgb(254,254,254)" stroke="rgb(254,254,254)" stroke-width="1" opacity="1" d="M 108.5 103 L 107 105.5 Q 107.8 107.8 105.5 107 L 103 108.5 L 104 106 L 106 106 Q 104.9 103.3 107.5 104 L 108.5 103 Z " /><path fill="rgb(254,254,254)" stroke="rgb(254,254,254)" stroke-width="1" opacity="1" d="M 42 109 L 44 109.5 L 43 115 L 41 114.5 L 42 109 Z " /><path fill="rgb(254,254,254)" stroke="rgb(254,254,254)" stroke-width="1" opacity="1" d="M 125 109 L 127 109.5 L 126 112 L 123.5 113 L 123 111 Q 126 112 125 109 Z " /><path fill="rgb(254,254,254)" stroke="rgb(254,254,254)" stroke-width="1" opacity="1" d="M 101.5 110 L 100 112.5 Q 100.8 114.8 98.5 114 L 96 115.5 L 97 113 L 99 113 Q 97.9 110.3 100.5 111 L 101.5 110 Z " /><path fill="rgb(254,254,254)" stroke="rgb(254,254,254)" stroke-width="1" opacity="1" d="M 118 116 L 120 116.5 L 116 119.5 Q 115.3 116.9 118 118 L 118 116 Z " /><path fill="rgb(254,254,254)" stroke="rgb(254,254,254)" stroke-width="1" opacity="1" d="M 94.5 117 L 91 121.5 L 91 129.5 L 92 130.5 L 90 131 L 90 120.5 L 93.5 118 L 94.5 117 Z " /><path fill="rgb(254,254,254)" stroke="rgb(254,254,254)" stroke-width="1" opacity="1" d="M 154.5 117 L 156 119.5 L 154 120 L 154.5 117 Z " /><path fill="rgb(254,254,254)" stroke="rgb(254,254,254)" stroke-width="1" opacity="1" d="M 48.5 118 L 60 118.5 L 48.5 119 L 48.5 118 Z " /><path fill="rgb(254,254,254)" stroke="rgb(254,254,254)" stroke-width="1" opacity="1" d="M 133.5 118 L 147 118.5 L 133.5 119 L 133.5 118 Z " /><path fill="rgb(254,254,254)" stroke="rgb(254,254,254)" stroke-width="1" opacity="1" d="M 46.5 119 L 47 121 L 45 121.5 L 45 129.5 L 49 132 L 48.5 134 L 44 130.5 L 44 121.5 L 46.5 119 Z " /><path fill="rgb(254,254,254)" stroke="rgb(254,254,254)" stroke-width="1" opacity="1" d="M 63.5 119 Q 67.1 120.9 67 126.5 L 65 133 L 61.5 134 L 62.5 132 L 65 130.5 L 66 125.5 L 65 121 Q 61.8 122 63.5 119 Z " /><path fill="rgb(254,254,254)" stroke="rgb(254,254,254)" stroke-width="1" opacity="1" d="M 148 119 Q 151 118 150 121 Q 147 122 148 119 Z " /><path fill="rgb(254,254,254)" stroke="rgb(254,254,254)" stroke-width="1" opacity="1" d="M 129 122 L 131 122.5 Q 128.5 124 130 129.5 L 135 133.5 L 133.5 134 Q 127 131.7 129 122 Z " /><path fill="rgb(254,254,254)" stroke="rgb(254,254,254)" stroke-width="1" opacity="1" d="M 40.5 123 L 41 128.5 L 40 128.5 L 40.5 123 Z " /><path fill="rgb(254,254,254)" stroke="rgb(254,254,254)" stroke-width="1" opacity="1" d="M 109 125 L 111 125.5 L 109 126.5 L 109 125 Z " /><path fill="rgb(254,254,254)" stroke="rgb(254,254,254)" stroke-width="1" opacity="1" d="M 151.5 128 L 152 131 L 150 130.5 L 151.5 128 Z " /><path fill="rgb(254,254,254)" stroke="rgb(254,254,254)" stroke-width="1" opacity="1" d="M 93.5 132 L 94.5 134 L 93.5 132 Z " /><path fill="rgb(254,254,254)" stroke="rgb(254,254,254)" stroke-width="1" opacity="1" d="M 102 132 L 104 132.5 L 102 133.5 L 102 132 Z " /><path fill="rgb(254,254,254)" stroke="rgb(254,254,254)" stroke-width="1" opacity="1" d="M 148.5 132 L 150 132.5 L 146.5 134 L 146.5 133 L 148.5 132 Z " /><path fill="rgb(254,254,254)" stroke="rgb(254,254,254)" stroke-width="1" opacity="1" d="M 154 133 L 156 133.5 L 154 134.5 L 154 133 Z " /><path fill="rgb(254,254,254)" stroke="rgb(254,254,254)" stroke-width="1" opacity="1" d="M 41.5 136 L 43 137.5 Q 41.7 142.2 44 143.5 L 42 142.5 L 41.5 136 Z " /><path fill="rgb(254,254,254)" stroke="rgb(254,254,254)" stroke-width="1" opacity="1" d="M 153.5 140 L 154 141.5 L 152 142.5 L 153.5 140 Z " /><path fill="rgb(254,254,254)" stroke="rgb(254,254,254)" stroke-width="1" opacity="1" d="M 64 147 L 66 147.5 L 64 148.5 L 64 147 Z " /><path fill="rgb(254,254,254)" stroke="rgb(254,254,254)" stroke-width="1" opacity="1" d="M 74.5 147 L 78 149.5 L 78 159 L 76 158.5 Q 78.5 157 77 151.5 L 74.5 147 Z " /><path fill="rgb(254,254,254)" stroke="rgb(254,254,254)" stroke-width="1" opacity="1" d="M 150 147 L 152 147.5 L 151 151 L 149 150.5 L 150 147 Z " /><path fill="rgb(254,254,254)" stroke="rgb(254,254,254)" stroke-width="1" opacity="1" d="M 62.5 149 L 63 151 L 61 151 Q 62.1 153.7 59.5 153 L 62.5 149 Z " /><path fill="rgb(254,254,254)" stroke="rgb(254,254,254)" stroke-width="1" opacity="1" d="M 132.5 149 L 134 149 L 134 151 Q 136.7 149.9 136 152.5 L 132.5 149 Z " /><path fill="rgb(254,254,254)" stroke="rgb(254,254,254)" stroke-width="1" opacity="1" d="M 118.5 151 Q 117.8 158.8 122 161.5 L 120 160.5 Q 116.4 157.7 118.5 151 Z " /><path fill="rgb(254,254,254)" stroke="rgb(254,254,254)" stroke-width="1" opacity="1" d="M 148.5 153 L 147.5 155 L 148.5 153 Z " /><path fill="rgb(254,254,254)" stroke="rgb(254,254,254)" stroke-width="1" opacity="1" d="M 58.5 155 L 57.5 157 L 58.5 155 Z " /><path fill="rgb(254,254,254)" stroke="rgb(254,254,254)" stroke-width="1" opacity="1" d="M 49.5 156 L 52 160.5 L 50 159.5 L 49.5 156 Z " /><path fill="rgb(254,254,254)" stroke="rgb(254,254,254)" stroke-width="1" opacity="1" d="M 94 157 Q 101.2 155.5 104 159.5 L 102.5 160 Q 101.3 156.8 95.5 158 L 92 160.5 Q 91.3 157.9 94 159 L 94 157 Z " /><path fill="rgb(254,254,254)" stroke="rgb(254,254,254)" stroke-width="1" opacity="1" d="M 144.5 159 L 144 160.5 L 142 165 L 140 164.5 L 144.5 159 Z " /><path fill="rgb(254,254,254)" stroke="rgb(254,254,254)" stroke-width="1" opacity="1" d="M 57.5 160 L 59 163.5 L 58 163.5 L 57.5 160 Z " /><path fill="rgb(254,254,254)" stroke="rgb(254,254,254)" stroke-width="1" opacity="1" d="M 90.5 161 L 91 175.5 L 95 179.5 L 90 175.5 L 90.5 161 Z " /><path fill="rgb(254,254,254)" stroke="rgb(254,254,254)" stroke-width="1" opacity="1" d="M 104.5 161 Q 106.8 160.3 106 162.5 L 104.5 161 Z " /><path fill="rgb(254,254,254)" stroke="rgb(254,254,254)" stroke-width="1" opacity="1" d="M 137.5 161 L 138 163.5 L 137 163.5 L 137.5 161 Z " /><path fill="rgb(254,254,254)" stroke="rgb(254,254,254)" stroke-width="1" opacity="1" d="M 72 162 L 74 162.5 L 72 163.5 L 72 162 Z " /><path fill="rgb(254,254,254)" stroke="rgb(254,254,254)" stroke-width="1" opacity="1" d="M 55.5 164 L 59.5 169 L 56 167 L 55.5 164 Z " /><path fill="rgb(254,254,254)" stroke="rgb(254,254,254)" stroke-width="1" opacity="1" d="M 135 168 L 137 168.5 L 135 169.5 L 135 168 Z " /><path fill="rgb(254,254,254)" stroke="rgb(254,254,254)" stroke-width="1" opacity="1" d="M 133.5 170 L 132.5 172 L 131 171.5 L 133.5 170 Z " /><path fill="rgb(254,254,254)" stroke="rgb(254,254,254)" stroke-width="1" opacity="1" d="M 64.5 172 L 67 173.5 L 65.5 174 L 64.5 172 Z " /><path fill="rgb(254,254,254)" stroke="rgb(254,254,254)" stroke-width="1" opacity="1" d="M 129 173 L 131 173.5 L 129 174.5 L 129 173 Z " /><path fill="rgb(254,254,254)" stroke="rgb(254,254,254)" stroke-width="1" opacity="1" d="M 105.5 174 L 106 177 L 104 176.5 L 105.5 174 Z " /><path fill="rgb(254,254,254)" stroke="rgb(254,254,254)" stroke-width="1" opacity="1" d="M 68.5 175 L 71 176.5 L 69.5 176 L 68.5 175 Z " /><path fill="rgb(254,254,254)" stroke="rgb(254,254,254)" stroke-width="1" opacity="1" d="M 122.5 177 L 123 179 L 119 178.5 L 122.5 177 Z " /><path fill="rgb(254,254,254)" stroke="rgb(254,254,254)" stroke-width="1" opacity="1" d="M 102 178 L 104 178.5 L 102 179.5 L 102 178 Z " /><path fill="rgb(254,254,254)" stroke="rgb(254,254,254)" stroke-width="1" opacity="1" d="M 77.5 179 L 82 180.5 L 78.5 181 L 77.5 179 Z " /><path fill="rgb(254,254,254)" stroke="rgb(254,254,254)" stroke-width="1" opacity="1" d="M 113 180 L 118 180.5 L 113.5 182 L 113 180 Z " /><path fill="rgb(254,254,254)" stroke="rgb(254,254,254)" stroke-width="1" opacity="1" d="M 87.5 182 L 90 182.5 L 87.5 183 L 87.5 182 Z " /><path fill="rgb(254,254,254)" stroke="rgb(254,254,254)" stroke-width="1" opacity="1" d="M 106 182 L 108 182.5 L 106 183.5 L 106 182 Z " /><path fill="rgb(213,212,212)" stroke="rgb(213,212,212)" stroke-width="1" opacity="0.9686274509803922" d="M 84.5 41 L 86.5 42 L 110 42 L 110 54 L 101.5 54 L 96.5 52 Q 92.6 55.3 85 54 L 85 42.5 L 84.5 41 Z " /><path fill="rgb(213,212,212)" stroke="rgb(213,212,212)" stroke-width="1" opacity="0.9686274509803922" d="M 47 54 L 53 54 L 53 56 Q 56.8 54.5 56 57.5 L 61 61 Q 62.7 65.1 58.5 64 L 52 68 Q 53.1 70.7 50.5 70 L 45 77 Q 42.3 75.9 43 78.5 L 34.5 89 L 31.5 87 L 30 84 L 26 82 L 26 75 L 28 75 L 28 72 L 30 72 Q 28.9 69.3 31.5 70 L 33 67 L 35 67 L 35 65 L 37 65 Q 35.9 62.3 38.5 63 L 40 60 L 42 60 L 44 56 L 47 56 L 47 54 Z " /><path fill="rgb(213,212,212)" stroke="rgb(213,212,212)" stroke-width="1" opacity="0.9686274509803922" d="M 143 54 L 148.5 54 L 149 56 L 150.5 56 L 153 57 L 153 59 L 155 59 L 155 61 Q 157.7 59.9 157 62.5 L 160 64 L 167 74 Q 170 72.8 169 76.5 L 169 78.5 L 169 81.5 L 161.5 90 L 159 84 L 155 82 L 155 79 L 153 79 L 153 77 Q 150.3 78.1 151 75.5 L 146 72 Q 147.1 69.3 144.5 70 L 141 68 Q 142.1 65.3 139.5 66 L 135 62.5 Q 134.3 59.9 137 61 L 137 59 L 138.5 59 L 143 56 L 143 54 Z " /><path fill="rgb(213,212,212)" stroke="rgb(213,212,212)" stroke-width="1" opacity="0.9686274509803922" d="M 96.5 67 L 100 67.5 L 96.5 68 L 96.5 67 Z " /><path fill="rgb(213,212,212)" stroke="rgb(213,212,212)" stroke-width="1" opacity="0.9686274509803922" d="M 86.5 68 L 92 68.5 L 84.5 70 L 84.5 69 L 86.5 68 Z " /><path fill="rgb(213,212,212)" stroke="rgb(213,212,212)" stroke-width="1" opacity="0.9686274509803922" d="M 104.5 68 Q 110.5 66.5 112 69.5 L 110.5 69 L 104.5 69 L 104.5 68 Z " /><path fill="rgb(213,212,212)" stroke="rgb(213,212,212)" stroke-width="1" opacity="0.9686274509803922" d="M 79.5 70 L 78.5 72 L 79.5 70 Z " /><path fill="rgb(213,212,212)" stroke="rgb(213,212,212)" stroke-width="1" opacity="0.9686274509803922" d="M 116.5 70 L 117.5 72 Q 114.7 72.7 116.5 70 Z " /><path fill="rgb(213,212,212)" stroke="rgb(213,212,212)" stroke-width="1" opacity="0.9686274509803922" d="M 74.5 72 L 73.5 74 L 74.5 72 Z " /><path fill="rgb(213,212,212)" stroke="rgb(213,212,212)" stroke-width="1" opacity="0.9686274509803922" d="M 121.5 72 L 122.5 74 L 121.5 72 Z " /><path fill="rgb(213,212,212)" stroke="rgb(213,212,212)" stroke-width="1" opacity="0.9686274509803922" d="M 70.5 74 L 72 74.5 L 67.5 77 L 68.5 75 L 70.5 74 Z " /><path fill="rgb(213,212,212)" stroke="rgb(213,212,212)" stroke-width="1" opacity="0.9686274509803922" d="M 95.5 74 Q 102.8 72.8 104 77.5 Q 106.4 89.4 100.5 93 Q 94.3 94.3 93 90.5 L 93 89 L 91 88.5 L 91 78.5 L 93 75 L 95.5 74 Z " /><path fill="rgb(213,212,212)" stroke="rgb(213,212,212)" stroke-width="1" opacity="0.9686274509803922" d="M 130.5 77 L 131.5 79 L 130.5 77 Z " /><path fill="rgb(213,212,212)" stroke="rgb(213,212,212)" stroke-width="1" opacity="0.9686274509803922" d="M 62.5 79 L 63 81 L 58.5 83 L 58.5 82 L 62.5 79 Z " /><path fill="rgb(213,212,212)" stroke="rgb(213,212,212)" stroke-width="1" opacity="0.9686274509803922" d="M 138.5 83 L 139.5 85 L 138.5 83 Z " /><path fill="rgb(213,212,212)" stroke="rgb(213,212,212)" stroke-width="1" opacity="0.9686274509803922" d="M 126.5 87 L 125.5 89 L 126.5 87 Z " /><path fill="rgb(213,212,212)" stroke="rgb(213,212,212)" stroke-width="1" opacity="0.9686274509803922" d="M 134.5 87 L 136.5 90 L 134.5 87 Z " /><path fill="rgb(213,212,212)" stroke="rgb(213,212,212)" stroke-width="1" opacity="0.9686274509803922" d="M 61 88 L 68.5 88 L 75 93 L 77 99.5 L 75 103 L 71.5 105 L 68.5 105 L 63 102 L 63 100 Q 60.3 101.1 61 98.5 Q 58.2 96.8 59 91.5 L 61 88 Z " /><path fill="rgb(213,212,212)" stroke="rgb(213,212,212)" stroke-width="1" opacity="0.9686274509803922" d="M 142.5 88 L 143.5 90 L 142.5 88 Z " /><path fill="rgb(213,212,212)" stroke="rgb(213,212,212)" stroke-width="1" opacity="0.9686274509803922" d="M 52.5 89 L 51 91.5 Q 51.8 93.8 49.5 93 L 52.5 89 Z " /><path fill="rgb(213,212,212)" stroke="rgb(213,212,212)" stroke-width="1" opacity="0.9686274509803922" d="M 123.5 90 L 93.5 121 L 121 92.5 Q 120.3 90.3 122.5 91 L 123.5 90 Z " /><path fill="rgb(213,212,212)" stroke="rgb(213,212,212)" stroke-width="1" opacity="0.9686274509803922" d="M 147.5 94 L 149 96.5 L 147 95.5 L 147.5 94 Z " /><path fill="rgb(213,212,212)" stroke="rgb(213,212,212)" stroke-width="1" opacity="0.9686274509803922" d="M 151.5 102 L 152.5 104 L 151.5 102 Z " /><path fill="rgb(213,212,212)" stroke="rgb(213,212,212)" stroke-width="1" opacity="0.9686274509803922" d="M 43.5 104 L 44 107 L 42 106.5 L 43.5 104 Z " /><path fill="rgb(213,212,212)" stroke="rgb(213,212,212)" stroke-width="1" opacity="0.9686274509803922" d="M 126.5 107 L 123.5 111 L 126.5 107 Z " /><path fill="rgb(213,212,212)" stroke="rgb(213,212,212)" stroke-width="1" opacity="0.9686274509803922" d="M 153.5 107 L 155 111.5 L 154 111.5 L 153.5 107 Z " /><path fill="rgb(213,212,212)" stroke="rgb(213,212,212)" stroke-width="1" opacity="0.9686274509803922" d="M 41.5 111 L 42 113 L 40 112.5 L 41.5 111 Z " /><path fill="rgb(213,212,212)" stroke="rgb(213,212,212)" stroke-width="1" opacity="0.9686274509803922" d="M 117.5 116 L 116.5 118 L 117.5 116 Z " /><path fill="rgb(213,212,212)" stroke="rgb(213,212,212)" stroke-width="1" opacity="0.9686274509803922" d="M 53.5 119 L 63 121 Q 62 124 65 123 L 65 127.5 L 61.5 132 L 48.5 132 L 47 130.5 L 45 125.5 L 47 121 L 53.5 119 Z " /><path fill="rgb(213,212,212)" stroke="rgb(213,212,212)" stroke-width="1" opacity="0.9686274509803922" d="M 138.5 119 L 149 121 L 151 125.5 L 148 132 L 134.5 132 L 132 129.5 L 131 125.5 L 133.5 121 L 138.5 119 Z " /><path fill="rgb(213,212,212)" stroke="rgb(213,212,212)" stroke-width="1" opacity="0.9686274509803922" d="M 39.5 123 L 40 127.5 L 39 127.5 L 39.5 123 Z " /><path fill="rgb(213,212,212)" stroke="rgb(213,212,212)" stroke-width="1" opacity="0.9686274509803922" d="M 110.5 123 L 107.5 127 L 110.5 123 Z " /><path fill="rgb(213,212,212)" stroke="rgb(213,212,212)" stroke-width="1" opacity="0.9686274509803922" d="M 156.5 124 L 157 127.5 L 156 127.5 L 156.5 124 Z " /><path fill="rgb(213,212,212)" stroke="rgb(213,212,212)" stroke-width="1" opacity="0.9686274509803922" d="M 103.5 130 L 102.5 132 L 103.5 130 Z " /><path fill="rgb(213,212,212)" stroke="rgb(213,212,212)" stroke-width="1" opacity="0.9686274509803922" d="M 95.5 132 L 100 133.5 L 96.5 134 L 95.5 132 Z " /><path fill="rgb(213,212,212)" stroke="rgb(213,212,212)" stroke-width="1" opacity="0.9686274509803922" d="M 40.5 139 Q 42.8 138.3 42 140.5 L 40.5 139 Z " /><path fill="rgb(213,212,212)" stroke="rgb(213,212,212)" stroke-width="1" opacity="0.9686274509803922" d="M 154.5 139 L 155 141.5 L 154 141.5 L 154.5 139 Z " /><path fill="rgb(213,212,212)" stroke="rgb(213,212,212)" stroke-width="1" opacity="0.9686274509803922" d="M 42.5 145 L 44 147.5 L 43 147.5 L 42.5 145 Z " /><path fill="rgb(213,212,212)" stroke="rgb(213,212,212)" stroke-width="1" opacity="0.9686274509803922" d="M 67.5 148 Q 74.8 146.8 76 151.5 L 77 154.5 L 74 160 L 72 160 L 72 162 L 70 162 Q 71.1 164.7 68.5 164 L 63.5 165 L 60 162.5 L 59 156.5 L 61 153 L 63 153 L 63 151 L 65 151 Q 63.9 148.3 66.5 149 L 67.5 148 Z " /><path fill="rgb(213,212,212)" stroke="rgb(213,212,212)" stroke-width="1" opacity="0.9686274509803922" d="M 123.5 148 L 128.5 148 L 133 151.5 L 135 154.5 Q 138.5 156.2 137 162 L 135 162 Q 136.1 164.7 133.5 164 L 128.5 165 L 121 160 L 119 153.5 L 121 149 L 123.5 148 Z " /><path fill="rgb(213,212,212)" stroke="rgb(213,212,212)" stroke-width="1" opacity="0.9686274509803922" d="M 152.5 148 L 153 150 L 151 149.5 L 152.5 148 Z " /><path fill="rgb(213,212,212)" stroke="rgb(213,212,212)" stroke-width="1" opacity="0.9686274509803922" d="M 44.5 150 L 47 153.5 L 45 152.5 L 44.5 150 Z " /><path fill="rgb(213,212,212)" stroke="rgb(213,212,212)" stroke-width="1" opacity="0.9686274509803922" d="M 47.5 156 L 48.5 158 L 47.5 156 Z " /><path fill="rgb(213,212,212)" stroke="rgb(213,212,212)" stroke-width="1" opacity="0.9686274509803922" d="M 94.5 160 L 101.5 160 L 102 161.5 L 104 163.5 L 104 174.5 L 102 178 L 97.5 179 L 93 176.5 Q 89.2 173.3 91 164.5 L 94.5 160 Z " /><path fill="rgb(213,212,212)" stroke="rgb(213,212,212)" stroke-width="1" opacity="0.9686274509803922" d="M 52.5 163 L 55.5 167 Q 53.3 167.8 54 165.5 L 52.5 163 Z " /><path fill="rgb(213,212,212)" stroke="rgb(213,212,212)" stroke-width="1" opacity="0.9686274509803922" d="M 141.5 165 L 138.5 169 L 141.5 165 Z " /><path fill="rgb(213,212,212)" stroke="rgb(213,212,212)" stroke-width="1" opacity="0.9686274509803922" d="M 56.5 168 L 59 169.5 L 57.5 169 L 56.5 168 Z " /><path fill="rgb(213,212,212)" stroke="rgb(213,212,212)" stroke-width="1" opacity="0.9686274509803922" d="M 133.5 172 L 132.5 174 L 133.5 172 Z " /><path fill="rgb(213,212,212)" stroke="rgb(213,212,212)" stroke-width="1" opacity="0.9686274509803922" d="M 69.5 177 L 72 178.5 L 70.5 178 L 69.5 177 Z " /><path fill="rgb(213,212,212)" stroke="rgb(213,212,212)" stroke-width="1" opacity="0.9686274509803922" d="M 125.5 177 L 127 177.5 L 124.5 179 L 125.5 177 Z " /><path fill="rgb(213,212,212)" stroke="rgb(213,212,212)" stroke-width="1" opacity="0.9686274509803922" d="M 74.5 179 L 75.5 181 L 74.5 179 Z " /><path fill="rgb(213,212,212)" stroke="rgb(213,212,212)" stroke-width="1" opacity="0.9686274509803922" d="M 79.5 181 L 82 182.5 L 80.5 183 L 79.5 181 Z " /><path fill="rgb(213,212,212)" stroke="rgb(213,212,212)" stroke-width="1" opacity="0.9686274509803922" d="M 115.5 181 L 116 183 L 114 182.5 L 115.5 181 Z " /><path fill="rgb(213,212,212)" stroke="rgb(213,212,212)" stroke-width="1" opacity="0.9686274509803922" d="M 89.5 184 L 107 184.5 L 89.5 185 L 89.5 184 Z " /><path fill="rgb(237,237,237)" stroke="rgb(237,237,237)" stroke-width="1" opacity="0.7529411764705882" d="M 84.5 42 L 85 53.5 L 84 53.5 L 84.5 42 Z " /><path fill="rgb(237,237,237)" stroke="rgb(237,237,237)" stroke-width="1" opacity="0.7529411764705882" d="M 110.5 52 L 111.5 54 Q 108.7 54.7 110.5 52 Z " /><path fill="rgb(237,237,237)" stroke="rgb(237,237,237)" stroke-width="1" opacity="0.7529411764705882" d="M 45 54 Q 48 53 47 56 Q 44 57 45 54 Z " /><path fill="rgb(237,237,237)" stroke="rgb(237,237,237)" stroke-width="1" opacity="0.7529411764705882" d="M 53.5 54 L 54.5 56 Q 51.7 56.7 53.5 54 Z " /><path fill="rgb(237,237,237)" stroke="rgb(237,237,237)" stroke-width="1" opacity="0.7529411764705882" d="M 142.5 54 L 143 56 L 137 59 L 135 63 L 132.5 63 L 133.5 61 L 138.5 57 L 142.5 54 Z " /><path fill="rgb(237,237,237)" stroke="rgb(237,237,237)" stroke-width="1" opacity="0.7529411764705882" d="M 149 54 L 164 66 L 171 75.5 L 171 79.5 L 162.5 90 L 162 88.5 L 169 81.5 L 170 77.5 L 169 74 Q 166.3 75.1 167 72.5 L 160 64 L 157 62.5 L 157 61 L 155 61 L 155 59 L 153 59 Q 154.1 56.3 151.5 57 L 149 56 L 149 54 Z " /><path fill="rgb(237,237,237)" stroke="rgb(237,237,237)" stroke-width="1" opacity="0.7529411764705882" d="M 43.5 56 L 44 58 L 42 58 Q 43.1 60.7 40.5 60 L 43.5 56 Z " /><path fill="rgb(237,237,237)" stroke="rgb(237,237,237)" stroke-width="1" opacity="0.7529411764705882" d="M 56.5 57 L 58 57 L 58 59 Q 60.7 57.9 60 60.5 L 56.5 57 Z " /><path fill="rgb(237,237,237)" stroke="rgb(237,237,237)" stroke-width="1" opacity="0.7529411764705882" d="M 38.5 61 L 40 61.5 L 37 63 L 37 65 L 35 65 L 35 67 Q 32.3 65.9 33 68.5 L 31 69.5 L 38.5 61 Z " /><path fill="rgb(237,237,237)" stroke="rgb(237,237,237)" stroke-width="1" opacity="0.7529411764705882" d="M 61.5 61 L 62.5 63 Q 59.7 63.7 61.5 61 Z " /><path fill="rgb(237,237,237)" stroke="rgb(237,237,237)" stroke-width="1" opacity="0.7529411764705882" d="M 29.5 70 L 30 72 L 28 72 Q 29.3 76.1 26 75 L 29.5 70 Z " /><path fill="rgb(237,237,237)" stroke="rgb(237,237,237)" stroke-width="1" opacity="0.7529411764705882" d="M 26.5 82 L 28 82 L 28 84 Q 30.7 82.9 30 85.5 L 33 87 L 34 91.5 L 33 91.5 L 33 89.5 L 26.5 82 Z " /><path fill="rgb(255,255,255)" stroke="rgb(255,255,255)" stroke-width="1" opacity="1" d="M 87 69 L 107.5 69 L 109.5 71 L 113.5 71 L 126 76 Q 124.8 79 128.5 78 Q 129.8 81.7 134 81 L 134 83 L 136 83 Q 134.9 85.7 137.5 85 L 141 90 L 145 92 L 145 94.5 L 152 106.5 L 152 111 L 154 111 L 154 119.5 L 156 120.5 L 156 133 Q 152.5 131.9 154 139.5 Q 150.5 141.2 152 147 Q 149 145.8 150 149.5 L 147 157 Q 144.3 155.9 145 158.5 L 140 166 L 138 166 L 138 168 L 135 168 Q 136.1 170.7 133.5 170 L 131 171 L 129 175 Q 124.9 173.7 126 177 L 122.5 177 L 119 178 L 119 180 L 113 180 L 112.5 182 L 106.5 182 L 105.5 184 L 90 184 Q 91.1 180.5 83.5 182 L 81.5 180 L 74 179 Q 75.3 176 71.5 177 Q 70.4 174.3 67 175 Q 68.1 172.3 65.5 173 L 63 172 L 63 170 Q 59.3 171.5 60 168.5 L 53 163 L 50 156 L 48 156 L 48 152 L 46 152 Q 47.3 147.9 44 149 L 44 143.5 Q 41.7 142.2 43 137.5 L 41 135.5 L 41 115 Q 44.7 116.3 43 110.5 L 44 104 L 46 104 Q 44.7 99.9 48 101 L 48 97 Q 51 98.3 50 94.5 L 53 90 L 57 88 L 57 85 L 60 85 Q 58.9 82.3 61.5 83 L 64 82 L 64 80 L 67 80 L 67 78 L 70 78 L 70 76 L 73 76 Q 71.8 73 75.5 74 L 80.5 73 L 82.5 71 L 87 71 L 87 69 Z M 92 73 Q 93 76 90 76 L 90 91 L 97 95 L 100 94 L 104 94 Q 102 89 106 90 L 106 78 L 104 76 L 104 73 L 92 73 Z M 62 85 Q 63 88 59 87 L 59 90 L 57 90 L 57 97 L 62 103 L 62 104 L 66 104 L 66 106 L 74 106 L 74 104 L 78 103 L 78 94 L 74 92 L 73 89 Q 70 90 71 87 L 69 87 L 69 85 L 62 85 Z M 126 85 L 126 87 L 124 88 Q 121 87 122 90 L 120 90 L 117 96 L 113 97 L 110 103 L 108 104 Q 105 103 106 106 L 104 106 L 103 110 L 101 111 Q 98 110 99 113 L 97 113 L 96 117 L 94 118 L 90 121 L 90 131 L 95 134 L 103 134 L 104 133 Q 103 130 106 131 L 106 129 L 108 129 L 108 127 L 111 126 Q 110 123 113 124 L 113 122 L 115 122 L 115 120 L 120 117 Q 119 114 122 115 L 122 113 L 126 112 L 127 110 Q 126 107 129 108 L 129 106 L 131 106 L 131 104 L 134 103 Q 133 100 136 101 L 136 99 L 138 99 L 138 89 L 134 87 L 134 85 L 126 85 Z M 49 118 L 47 119 L 44 122 L 44 131 L 49 134 Q 59 135 65 133 L 67 127 L 66 122 Q 61 116 49 118 Z M 133 118 L 131 122 L 129 122 Q 127 132 134 134 L 148 134 L 149 133 Q 151 134 150 131 L 152 131 L 152 123 Q 149 123 150 119 L 147 118 L 133 118 Z M 64 147 Q 65 150 63 149 L 57 157 Q 56 161 58 163 Q 57 165 60 164 L 60 166 L 71 166 L 71 164 L 74 163 Q 73 160 76 161 L 76 159 L 78 159 L 78 150 Q 75 150 76 147 L 64 147 Z M 120 147 L 118 152 Q 117 158 120 161 L 125 164 Q 127 163 126 166 L 136 166 Q 135 163 138 164 L 138 155 L 136 154 L 136 151 Q 133 152 134 149 Q 130 150 131 147 L 120 147 Z M 94 157 L 92 161 L 90 161 L 90 176 L 95 180 L 103 180 L 104 179 Q 103 176 106 177 L 106 162 L 104 161 L 104 160 Q 101 156 94 157 Z " /><path fill="rgb(212,72,71)" stroke="rgb(212,72,71)" stroke-width="1" opacity="0.984313725490196" d="M 126.5 88 L 134.5 88 L 135 89.5 Q 138.5 91.2 137 97 Q 134.3 95.9 135 98.5 L 132 100 L 132 102 L 130 102 Q 131.1 104.7 128.5 104 L 127 107 L 125 107 L 125 109 L 123 109 Q 124.1 111.7 121.5 111 L 120 114 L 118 114 L 118 116 L 116 116 L 116 118 L 114 118 Q 115.1 120.7 112.5 120 L 111 123 L 109 123 L 109 125 L 107 125 Q 108.1 127.7 105.5 127 L 104 130 Q 100.9 129.3 101.5 132 L 95.5 132 L 93 131 L 91 125.5 L 93 121 L 95 121 Q 93.9 118.3 96.5 119 L 98 116 L 100 116 L 100 114 L 102 114 Q 100.9 111.3 103.5 112 L 105 109 L 107 109 L 107 107 L 109 107 Q 107.9 104.3 110.5 105 L 112 102 L 114 102 L 114 100 L 116 100 Q 114.9 97.3 117.5 98 L 119 95 L 121 95 L 121 93 L 123 93 L 123 91 Q 125.7 92.1 125 89.5 L 126.5 88 Z " /><path fill="rgb(99,99,99)" stroke="rgb(99,99,99)" stroke-width="1" opacity="0.9803921568627451" d="M 77.5 15 L 118.5 15 L 119 17 L 120.5 17 L 123 19.5 L 123 36 L 121 36 L 121 38 Q 117.9 37.3 118.5 40 L 77 40 Q 78.1 36.7 74 38 L 74 35.5 L 72 33.5 L 72 21.5 L 74 17 L 77.5 15 Z " /><path fill="rgb(99,99,99)" stroke="rgb(99,99,99)" stroke-width="1" opacity="0.9803921568627451" d="M 88.5 54 L 105.5 54 Q 109 57.2 116 56 Q 114.7 59.7 120.5 58 L 124.5 60 L 126 59.5 Q 125.3 61.8 127.5 61 L 137 65 Q 135.9 67.7 138.5 67 L 144 70 L 144 72 L 146 72 Q 144.9 74.7 147.5 74 L 149 77 L 151 77 L 151 79 Q 153.7 77.9 153 80.5 Q 157.4 83 158 88 Q 161.7 86.7 160 92.5 L 165 100.5 L 165 105 L 167 105 L 167 111 L 169 111.5 L 169 142 Q 165.3 140.7 167 146.5 L 165 148.5 L 165 152.5 L 160 160.5 L 160 163 L 158 163 L 158 167 L 156 167 Q 157.1 169.7 154.5 169 L 153 172 Q 150.3 170.9 151 173.5 L 149 177 L 144 179 L 144 181 L 142 181 Q 143.1 183.7 140.5 183 L 135 186 L 135 188 Q 130.9 186.7 132 190 L 128.5 190 L 123.5 194 L 121.5 193 Q 119.3 196 114 195 L 113.5 197 L 82 197 Q 83.3 193.3 77.5 195 Q 75.8 192.2 70.5 193 L 63.5 188 L 61 188 Q 62.3 185 58.5 186 L 54 183 Q 55.1 180.3 52.5 181 L 49 179 Q 50.1 176.3 47.5 177 L 46 174 Q 43.3 175.1 44 172.5 L 42 169 Q 39.3 170.1 40 167.5 L 35 160.5 L 35 158 L 33 158 L 33 154 L 31 154 L 31 149 L 29.5 149 L 30 147.5 L 28 143.5 L 28 134.5 L 26 131.5 L 26 117.5 L 28 115.5 L 28 108.5 L 30 106.5 L 30 102.5 L 33 95 Q 36.3 96.3 35 91.5 L 39 84.5 L 50.5 72 L 53.5 70 L 59.5 65 L 63 65 Q 61.7 61.7 66.5 63 L 74.5 58 L 79 58 Q 77.9 54.5 85.5 56 L 88.5 54 Z M 93 66 Q 90 69 83 68 L 81 70 L 77 70 L 69 75 Q 65 74 66 77 L 63 77 L 63 79 L 61 80 Q 58 79 59 82 L 56 82 L 56 84 L 54 84 L 52 88 Q 53 90 50 89 L 49 92 Q 50 94 47 93 Q 48 96 45 98 Q 46 101 43 100 Q 44 106 40 110 L 40 116 L 38 119 L 38 135 L 40 138 L 40 143 L 42 149 L 49 162 L 60 172 Q 62 171 61 174 L 68 178 Q 71 177 70 180 Q 75 180 78 183 L 83 183 L 85 185 Q 93 184 97 187 L 104 185 L 112 185 L 114 183 L 118 183 L 123 181 L 127 178 L 130 178 L 132 174 L 141 169 L 153 151 L 155 146 L 155 142 L 157 139 L 157 131 L 158 130 L 157 113 L 155 111 L 155 107 L 153 105 L 153 102 L 150 96 L 146 91 Q 147 88 144 89 L 141 84 Q 138 85 139 82 L 137 82 L 137 80 L 132 77 Q 129 78 130 75 L 128 75 L 120 70 Q 113 72 114 68 Q 107 69 104 66 L 93 66 Z " /><path fill="rgb(249,248,248)" stroke="rgb(249,248,248)" stroke-width="1" opacity="1" d="M 92.5 68 L 104 68.5 L 92.5 69 L 92.5 68 Z " /><path fill="rgb(249,248,248)" stroke="rgb(249,248,248)" stroke-width="1" opacity="1" d="M 80.5 70 L 84 70.5 L 79.5 72 L 80.5 70 Z " /><path fill="rgb(249,248,248)" stroke="rgb(249,248,248)" stroke-width="1" opacity="1" d="M 112.5 70 Q 116.9 68.5 116 71.5 L 114.5 71 Q 111.5 71.5 112.5 70 Z " /><path fill="rgb(249,248,248)" stroke="rgb(249,248,248)" stroke-width="1" opacity="1" d="M 75.5 72 L 76 74 L 74 73.5 L 75.5 72 Z " /><path fill="rgb(249,248,248)" stroke="rgb(249,248,248)" stroke-width="1" opacity="1" d="M 120.5 72 L 121.5 74 L 120.5 72 Z " /><path fill="rgb(249,248,248)" stroke="rgb(249,248,248)" stroke-width="1" opacity="1" d="M 94.5 73 L 102 73 L 102 75 L 106 77 L 106 88.5 L 102.5 93 L 101 92.5 L 104 88.5 L 104 77.5 Q 102.7 72.7 95.5 74 L 93 75 L 91.5 78 L 91 75 L 94.5 73 Z " /><path fill="rgb(249,248,248)" stroke="rgb(249,248,248)" stroke-width="1" opacity="1" d="M 124.5 74 L 131 78.5 L 129.5 78 L 124 76 L 124.5 74 Z " /><path fill="rgb(249,248,248)" stroke="rgb(249,248,248)" stroke-width="1" opacity="1" d="M 68.5 76 L 69 78 L 65.5 79 L 65 77 L 68.5 76 Z " /><path fill="rgb(249,248,248)" stroke="rgb(249,248,248)" stroke-width="1" opacity="1" d="M 61.5 81 L 62 83 L 56 86.5 L 54 89.5 L 53 92 L 51 91.5 L 56 84 L 61.5 81 Z " /><path fill="rgb(249,248,248)" stroke="rgb(249,248,248)" stroke-width="1" opacity="1" d="M 135.5 82 L 142 87.5 L 140 88 L 138.5 85 L 135.5 83 L 135.5 82 Z " /><path fill="rgb(249,248,248)" stroke="rgb(249,248,248)" stroke-width="1" opacity="1" d="M 128.5 85 Q 133 84 134 86.5 L 132.5 86 Q 124.1 85.1 122.5 91 L 122 89 L 124 89 Q 122.9 86.3 125.5 87 L 128.5 85 Z " /><path fill="rgb(249,248,248)" stroke="rgb(249,248,248)" stroke-width="1" opacity="1" d="M 63.5 86 L 70 87 L 70 89 L 72 89 L 72 91 Q 74.7 89.9 74 92.5 L 68.5 88 L 61.5 88 L 61 89.5 Q 58 90.5 59 95.5 L 61 98.5 L 59 99 L 57 91 Q 60 92.3 59 88.5 L 63.5 86 Z " /><path fill="rgb(249,248,248)" stroke="rgb(249,248,248)" stroke-width="1" opacity="1" d="M 91 89 Q 93.7 87.9 93 90.5 L 94.5 93 L 91 90.5 L 91 89 Z " /><path fill="rgb(249,248,248)" stroke="rgb(249,248,248)" stroke-width="1" opacity="1" d="M 137.5 89 L 138 97.5 L 134 100.5 L 137 97.5 L 137.5 89 Z " /><path fill="rgb(249,248,248)" stroke="rgb(249,248,248)" stroke-width="1" opacity="1" d="M 144.5 91 L 147 94.5 L 146 94.5 L 144.5 91 Z " /><path fill="rgb(249,248,248)" stroke="rgb(249,248,248)" stroke-width="1" opacity="1" d="M 120.5 92 L 114.5 99 L 120.5 92 Z " /><path fill="rgb(249,248,248)" stroke="rgb(249,248,248)" stroke-width="1" opacity="1" d="M 75.5 93 L 77 96.5 L 75 95.5 L 75.5 93 Z " /><path fill="rgb(249,248,248)" stroke="rgb(249,248,248)" stroke-width="1" opacity="1" d="M 96.5 93 L 99 93.5 Q 96.9 96.8 96.5 93 Z " /><path fill="rgb(249,248,248)" stroke="rgb(249,248,248)" stroke-width="1" opacity="1" d="M 48.5 95 L 49 96.5 L 46.5 100 L 47 98.5 L 48.5 95 Z " /><path fill="rgb(249,248,248)" stroke="rgb(249,248,248)" stroke-width="1" opacity="1" d="M 147.5 96 L 148.5 98 L 147.5 96 Z " /><path fill="rgb(249,248,248)" stroke="rgb(249,248,248)" stroke-width="1" opacity="1" d="M 61.5 100 Q 63.8 99.3 63 101.5 L 61.5 100 Z " /><path fill="rgb(249,248,248)" stroke="rgb(249,248,248)" stroke-width="1" opacity="1" d="M 76.5 100 L 77 101.5 L 76 104 Q 72.9 103.3 73.5 106 L 67.5 106 L 64 104 L 64.5 102 Q 65.9 105.6 71.5 105 L 75 103 L 76.5 100 Z " /><path fill="rgb(249,248,248)" stroke="rgb(249,248,248)" stroke-width="1" opacity="1" d="M 112.5 100 L 107.5 106 L 110 102.5 Q 109.3 100.3 111.5 101 L 112.5 100 Z " /><path fill="rgb(249,248,248)" stroke="rgb(249,248,248)" stroke-width="1" opacity="1" d="M 45.5 101 L 46 102.5 L 44 103.5 L 45.5 101 Z " /><path fill="rgb(249,248,248)" stroke="rgb(249,248,248)" stroke-width="1" opacity="1" d="M 151.5 103 L 153 104.5 L 154 110.5 L 153 110.5 L 151.5 103 Z " /><path fill="rgb(249,248,248)" stroke="rgb(249,248,248)" stroke-width="1" opacity="1" d="M 129.5 105 L 126.5 109 L 129.5 105 Z " /><path fill="rgb(249,248,248)" stroke="rgb(249,248,248)" stroke-width="1" opacity="1" d="M 42 107 Q 45 106 44 109 Q 41 110 42 107 Z " /><path fill="rgb(249,248,248)" stroke="rgb(249,248,248)" stroke-width="1" opacity="1" d="M 105.5 107 L 100.5 113 L 105.5 107 Z " /><path fill="rgb(249,248,248)" stroke="rgb(249,248,248)" stroke-width="1" opacity="1" d="M 122.5 112 L 119.5 116 L 122.5 112 Z " /><path fill="rgb(249,248,248)" stroke="rgb(249,248,248)" stroke-width="1" opacity="1" d="M 154.5 112 L 156 118.5 L 155 118.5 L 154.5 112 Z " /><path fill="rgb(249,248,248)" stroke="rgb(249,248,248)" stroke-width="1" opacity="1" d="M 40 113 L 42 113.5 L 41 114.5 L 40.5 123 L 40 113 Z " /><path fill="rgb(249,248,248)" stroke="rgb(249,248,248)" stroke-width="1" opacity="1" d="M 98.5 114 L 93 120.5 L 91.5 123 L 91 121.5 L 98.5 114 Z " /><path fill="rgb(249,248,248)" stroke="rgb(249,248,248)" stroke-width="1" opacity="1" d="M 47 119 L 53 119.5 L 47 121 L 45.5 125 L 45 121 Q 48 122 47 119 Z " /><path fill="rgb(249,248,248)" stroke="rgb(249,248,248)" stroke-width="1" opacity="1" d="M 57.5 119 L 63 119 L 65 123 L 63 123 Q 64.1 120.3 61.5 121 L 57.5 120 L 57.5 119 Z " /><path fill="rgb(249,248,248)" stroke="rgb(249,248,248)" stroke-width="1" opacity="1" d="M 115.5 119 L 112.5 123 L 115.5 119 Z " /><path fill="rgb(249,248,248)" stroke="rgb(249,248,248)" stroke-width="1" opacity="1" d="M 133 119 L 138 119.5 L 132 122.5 L 131 125.5 L 132 129.5 L 134.5 132 L 147.5 132 L 148 130.5 L 151 125.5 L 149 121.5 L 150 121.5 Q 149.3 124.1 152 123 L 152 127.5 L 150 132 Q 145.8 135.4 135.5 134 L 130 129.5 Q 129.3 123.4 131 121 Q 134 122 133 119 Z " /><path fill="rgb(249,248,248)" stroke="rgb(249,248,248)" stroke-width="1" opacity="1" d="M 143.5 119 Q 148.9 117.1 148 120.5 L 146.5 120 Q 142.5 120.8 143.5 119 Z " /><path fill="rgb(249,248,248)" stroke="rgb(249,248,248)" stroke-width="1" opacity="1" d="M 108.5 126 L 105.5 130 L 108.5 126 Z " /><path fill="rgb(249,248,248)" stroke="rgb(249,248,248)" stroke-width="1" opacity="1" d="M 45.5 128 L 48 131.5 L 45 129.5 L 45.5 128 Z " /><path fill="rgb(249,248,248)" stroke="rgb(249,248,248)" stroke-width="1" opacity="1" d="M 64.5 128 L 65 130.5 L 60.5 134 L 49 134 L 49.5 132 L 61.5 132 L 64.5 128 Z " /><path fill="rgb(249,248,248)" stroke="rgb(249,248,248)" stroke-width="1" opacity="1" d="M 40.5 129 L 42 139 L 40 138.5 L 40.5 129 Z " /><path fill="rgb(249,248,248)" stroke="rgb(249,248,248)" stroke-width="1" opacity="1" d="M 94.5 132 L 95.5 134 L 94.5 132 Z " /><path fill="rgb(249,248,248)" stroke="rgb(249,248,248)" stroke-width="1" opacity="1" d="M 100 132 Q 103 131 102 134 Q 99 135 100 132 Z " /><path fill="rgb(249,248,248)" stroke="rgb(249,248,248)" stroke-width="1" opacity="1" d="M 155.5 134 L 156 136.5 L 154.5 139 L 154 135.5 L 155.5 134 Z " /><path fill="rgb(249,248,248)" stroke="rgb(249,248,248)" stroke-width="1" opacity="1" d="M 153.5 142 L 153 143.5 Q 154 148 151.5 149 L 152 147.5 Q 151 143 153.5 142 Z " /><path fill="rgb(249,248,248)" stroke="rgb(249,248,248)" stroke-width="1" opacity="1" d="M 42.5 143 L 44 145.5 L 42 144.5 L 42.5 143 Z " /><path fill="rgb(249,248,248)" stroke="rgb(249,248,248)" stroke-width="1" opacity="1" d="M 66.5 147 Q 74.2 145.3 76 149.5 L 77 152.5 L 76 152.5 L 72.5 148 Q 67.1 147.4 65 149 L 65 151 L 63 151 L 63 153 Q 60.3 151.9 61 154.5 Q 58 155.5 59 160.5 L 61.5 164 L 67.5 165 L 70 164 L 70 162 L 72 162 L 72 160 Q 74.7 161.1 74 158.5 L 76.5 155 L 77 157.5 L 76 160 L 74 160 L 74 162 L 72 162 L 70 166 L 61 166 L 61 164 Q 58.3 165.1 59 162.5 L 57 157.5 Q 59.7 156.4 59 153 L 61 153 L 61 151 L 63 151 Q 61.9 148.3 64.5 149 L 66.5 147 Z " /><path fill="rgb(249,248,248)" stroke="rgb(249,248,248)" stroke-width="1" opacity="1" d="M 121 147 L 129.5 147 L 130 149 L 131.5 149 Q 138 151.5 138 160.5 L 137 160.5 L 137 156.5 L 135 153 Q 132.3 154.1 133 151.5 L 128.5 148 L 123.5 148 L 121 149 L 119.5 153 L 119 149 Q 122 150 121 147 Z " /><path fill="rgb(249,248,248)" stroke="rgb(249,248,248)" stroke-width="1" opacity="1" d="M 44.5 149 Q 46.8 148.3 46 150.5 L 44.5 149 Z " /><path fill="rgb(249,248,248)" stroke="rgb(249,248,248)" stroke-width="1" opacity="1" d="M 149 151 Q 152 150 151 153 Q 148 154 149 151 Z " /><path fill="rgb(249,248,248)" stroke="rgb(249,248,248)" stroke-width="1" opacity="1" d="M 46.5 152 L 49 156.5 L 47 155.5 L 46.5 152 Z " /><path fill="rgb(249,248,248)" stroke="rgb(249,248,248)" stroke-width="1" opacity="1" d="M 119.5 154 L 121 158.5 L 119 157.5 L 119.5 154 Z " /><path fill="rgb(249,248,248)" stroke="rgb(249,248,248)" stroke-width="1" opacity="1" d="M 148.5 154 L 149 155.5 L 147 156.5 L 148.5 154 Z " /><path fill="rgb(249,248,248)" stroke="rgb(249,248,248)" stroke-width="1" opacity="1" d="M 95.5 158 L 100.5 158 L 104 160 Q 107.7 163.4 106 173.5 L 104 178 Q 100.9 177.3 101.5 180 L 95.5 180 L 91 174.5 L 93 175.5 L 94.5 178 L 97.5 179 L 102 178 Q 105.8 174.3 104 163.5 L 102 160 L 94.5 160 L 93 161.5 L 91.5 164 L 91 161 L 95.5 158 Z " /><path fill="rgb(249,248,248)" stroke="rgb(249,248,248)" stroke-width="1" opacity="1" d="M 145 158 L 147 158.5 L 146 161 L 144 160.5 L 145 158 Z " /><path fill="rgb(249,248,248)" stroke="rgb(249,248,248)" stroke-width="1" opacity="1" d="M 121.5 160 L 128.5 165 L 132.5 165 L 135 164 Q 134 161 137 162 L 134.5 166 L 127.5 166 L 124 164 Q 125.1 161.3 122.5 162 L 121.5 160 Z " /><path fill="rgb(249,248,248)" stroke="rgb(249,248,248)" stroke-width="1" opacity="1" d="M 51.5 161 Q 54.1 160.3 53 163 L 55 163 L 55 164.5 L 55.5 166 L 51.5 161 Z " /><path fill="rgb(249,248,248)" stroke="rgb(249,248,248)" stroke-width="1" opacity="1" d="M 56.5 167 L 60 169.5 L 57.5 168 L 56.5 167 Z " /><path fill="rgb(249,248,248)" stroke="rgb(249,248,248)" stroke-width="1" opacity="1" d="M 138.5 167 L 136.5 170 L 138.5 167 Z " /><path fill="rgb(249,248,248)" stroke="rgb(249,248,248)" stroke-width="1" opacity="1" d="M 134.5 170 L 135 172 L 131.5 174 L 131 172 L 134.5 170 Z " /><path fill="rgb(249,248,248)" stroke="rgb(249,248,248)" stroke-width="1" opacity="1" d="M 63.5 172 L 70 176.5 L 68.5 177 L 63 174 L 63.5 172 Z " /><path fill="rgb(249,248,248)" stroke="rgb(249,248,248)" stroke-width="1" opacity="1" d="M 127.5 175 L 130 175.5 L 126.5 177 L 127.5 175 Z " /><path fill="rgb(249,248,248)" stroke="rgb(249,248,248)" stroke-width="1" opacity="1" d="M 71.5 177 L 74 178.5 L 72.5 179 L 71.5 177 Z " /><path fill="rgb(249,248,248)" stroke="rgb(249,248,248)" stroke-width="1" opacity="1" d="M 123 177 L 125 177.5 L 123 178.5 L 123 177 Z " /><path fill="rgb(249,248,248)" stroke="rgb(249,248,248)" stroke-width="1" opacity="1" d="M 75.5 179 L 78 180.5 L 76.5 181 L 75.5 179 Z " /><path fill="rgb(249,248,248)" stroke="rgb(249,248,248)" stroke-width="1" opacity="1" d="M 119.5 179 Q 122.1 178.3 121 181 L 118 180.5 L 119.5 179 Z " /><path fill="rgb(249,248,248)" stroke="rgb(249,248,248)" stroke-width="1" opacity="1" d="M 81.5 181 L 87 182.5 L 82.5 183 L 81.5 181 Z " /><path fill="rgb(249,248,248)" stroke="rgb(249,248,248)" stroke-width="1" opacity="1" d="M 114.5 181 L 113.5 183 L 107.5 184 L 108.5 182 Q 113.2 183.2 114.5 181 Z " /><path fill="rgb(141,141,141)" stroke="rgb(141,141,141)" stroke-width="1" opacity="0.7803921568627451" d="M 120.5 15 L 121 17 Q 123.7 15.9 123 18.5 L 120.5 17 L 119 16.5 L 120.5 15 Z " /><path fill="rgb(141,141,141)" stroke="rgb(141,141,141)" stroke-width="1" opacity="0.7803921568627451" d="M 73.5 17 L 74 18.5 L 72.5 21 L 72 19.5 L 73.5 17 Z " /><path fill="rgb(141,141,141)" stroke="rgb(141,141,141)" stroke-width="1" opacity="0.7803921568627451" d="M 123 21 L 125 21.5 L 125 32.5 L 123 33.5 L 123 21 Z " /><path fill="rgb(141,141,141)" stroke="rgb(141,141,141)" stroke-width="1" opacity="0.7803921568627451" d="M 72.5 34 L 74 37.5 L 73 37.5 L 72.5 34 Z " /><path fill="rgb(141,141,141)" stroke="rgb(141,141,141)" stroke-width="1" opacity="0.7803921568627451" d="M 121 36 Q 124 35 123 38 L 119 40 L 121 36 Z " /><path fill="rgb(141,141,141)" stroke="rgb(141,141,141)" stroke-width="1" opacity="0.7803921568627451" d="M 75 38 Q 78 37 77 40 Q 74 41 75 38 Z " /><path fill="rgb(141,141,141)" stroke="rgb(141,141,141)" stroke-width="1" opacity="0.7803921568627451" d="M 84 54 L 88 54.5 L 84 56 L 84 54 Z " /><path fill="rgb(141,141,141)" stroke="rgb(141,141,141)" stroke-width="1" opacity="0.7803921568627451" d="M 106.5 54 Q 111.3 53.3 113 55.5 L 109.5 56 L 106.5 55 L 106.5 54 Z " /><path fill="rgb(141,141,141)" stroke="rgb(141,141,141)" stroke-width="1" opacity="0.7803921568627451" d="M 77.5 56 Q 80.1 55.3 79 58 L 75 57.5 L 77.5 56 Z " /><path fill="rgb(141,141,141)" stroke="rgb(141,141,141)" stroke-width="1" opacity="0.7803921568627451" d="M 116 56 L 119 57.5 L 116 58 L 116 56 Z " /><path fill="rgb(141,141,141)" stroke="rgb(141,141,141)" stroke-width="1" opacity="0.7803921568627451" d="M 72.5 58 L 74 58.5 L 65 63 L 65 61 Q 68.8 62.5 68 59.5 L 70.5 59 L 72.5 58 Z " /><path fill="rgb(141,141,141)" stroke="rgb(141,141,141)" stroke-width="1" opacity="0.7803921568627451" d="M 121.5 58 L 125 59.5 L 123.5 60 L 121.5 58 Z " /><path fill="rgb(141,141,141)" stroke="rgb(141,141,141)" stroke-width="1" opacity="0.7803921568627451" d="M 126.5 59 L 130 61.5 L 128.5 62 L 126 61 L 126.5 59 Z " /><path fill="rgb(141,141,141)" stroke="rgb(141,141,141)" stroke-width="1" opacity="0.7803921568627451" d="M 61 63 Q 64 62 63 65 Q 60 66 61 63 Z " /><path fill="rgb(141,141,141)" stroke="rgb(141,141,141)" stroke-width="1" opacity="0.7803921568627451" d="M 133.5 63 L 134.5 65 L 133.5 63 Z " /><path fill="rgb(141,141,141)" stroke="rgb(141,141,141)" stroke-width="1" opacity="0.7803921568627451" d="M 92.5 66 L 97 66.5 L 92.5 67 L 92.5 66 Z " /><path fill="rgb(141,141,141)" stroke="rgb(141,141,141)" stroke-width="1" opacity="0.7803921568627451" d="M 98.5 66 L 104 66.5 L 98.5 67 L 98.5 66 Z " /><path fill="rgb(141,141,141)" stroke="rgb(141,141,141)" stroke-width="1" opacity="0.7803921568627451" d="M 137.5 66 L 140 67.5 L 138.5 67 L 137.5 66 Z " /><path fill="rgb(141,141,141)" stroke="rgb(141,141,141)" stroke-width="1" opacity="0.7803921568627451" d="M 82.5 68 L 81.5 70 L 82.5 68 Z " /><path fill="rgb(141,141,141)" stroke="rgb(141,141,141)" stroke-width="1" opacity="0.7803921568627451" d="M 119.5 70 L 122 71.5 L 120.5 72 L 119.5 70 Z " /><path fill="rgb(141,141,141)" stroke="rgb(141,141,141)" stroke-width="1" opacity="0.7803921568627451" d="M 70.5 73 L 69.5 75 L 70.5 73 Z " /><path fill="rgb(141,141,141)" stroke="rgb(141,141,141)" stroke-width="1" opacity="0.7803921568627451" d="M 125.5 73 L 126.5 75 L 125.5 73 Z " /><path fill="rgb(141,141,141)" stroke="rgb(141,141,141)" stroke-width="1" opacity="0.7803921568627451" d="M 47.5 74 L 45 77.5 L 42.5 81 L 44 78.5 L 47.5 74 Z " /><path fill="rgb(141,141,141)" stroke="rgb(141,141,141)" stroke-width="1" opacity="0.7803921568627451" d="M 148.5 74 L 150 76.5 L 149 76.5 L 148.5 74 Z " /><path fill="rgb(141,141,141)" stroke="rgb(141,141,141)" stroke-width="1" opacity="0.7803921568627451" d="M 154.5 81 L 155.5 83 L 154.5 81 Z " /><path fill="rgb(141,141,141)" stroke="rgb(141,141,141)" stroke-width="1" opacity="0.7803921568627451" d="M 38.5 84 L 39 85.5 L 37 86.5 L 38.5 84 Z " /><path fill="rgb(141,141,141)" stroke="rgb(141,141,141)" stroke-width="1" opacity="0.7803921568627451" d="M 141.5 85 L 143.5 88 L 141.5 85 Z " /><path fill="rgb(141,141,141)" stroke="rgb(141,141,141)" stroke-width="1" opacity="0.7803921568627451" d="M 53.5 86 L 52.5 88 L 53.5 86 Z " /><path fill="rgb(141,141,141)" stroke="rgb(141,141,141)" stroke-width="1" opacity="0.7803921568627451" d="M 36.5 88 L 37 89.5 L 35 90.5 L 36.5 88 Z " /><path fill="rgb(141,141,141)" stroke="rgb(141,141,141)" stroke-width="1" opacity="0.7803921568627451" d="M 146.5 91 L 147.5 93 L 146.5 91 Z " /><path fill="rgb(141,141,141)" stroke="rgb(141,141,141)" stroke-width="1" opacity="0.7803921568627451" d="M 160 91 Q 163 89.8 162 93.5 L 160 92.5 L 160 91 Z " /><path fill="rgb(141,141,141)" stroke="rgb(141,141,141)" stroke-width="1" opacity="0.7803921568627451" d="M 33 93 Q 36 92 35 95 Q 32 96 33 93 Z " /><path fill="rgb(141,141,141)" stroke="rgb(141,141,141)" stroke-width="1" opacity="0.7803921568627451" d="M 148.5 94 L 150 96.5 L 149 96.5 L 148.5 94 Z " /><path fill="rgb(141,141,141)" stroke="rgb(141,141,141)" stroke-width="1" opacity="0.7803921568627451" d="M 162.5 95 L 165 99.5 L 163 98.5 L 162.5 95 Z " /><path fill="rgb(141,141,141)" stroke="rgb(141,141,141)" stroke-width="1" opacity="0.7803921568627451" d="M 32.5 96 L 33 97.5 L 31 102 L 29 101.5 L 32.5 96 Z " /><path fill="rgb(141,141,141)" stroke="rgb(141,141,141)" stroke-width="1" opacity="0.7803921568627451" d="M 46.5 96 L 45.5 98 L 46.5 96 Z " /><path fill="rgb(141,141,141)" stroke="rgb(141,141,141)" stroke-width="1" opacity="0.7803921568627451" d="M 151.5 100 L 152.5 102 L 151.5 100 Z " /><path fill="rgb(141,141,141)" stroke="rgb(141,141,141)" stroke-width="1" opacity="0.7803921568627451" d="M 165.5 102 L 167 105 Q 163.5 106.1 165.5 102 Z " /><path fill="rgb(141,141,141)" stroke="rgb(141,141,141)" stroke-width="1" opacity="0.7803921568627451" d="M 29.5 104 L 30 106.5 L 28 107.5 L 29.5 104 Z " /><path fill="rgb(141,141,141)" stroke="rgb(141,141,141)" stroke-width="1" opacity="0.7803921568627451" d="M 153.5 105 L 154.5 107 L 153.5 105 Z " /><path fill="rgb(141,141,141)" stroke="rgb(141,141,141)" stroke-width="1" opacity="0.7803921568627451" d="M 41.5 107 L 42 108.5 L 40 109.5 L 41.5 107 Z " /><path fill="rgb(141,141,141)" stroke="rgb(141,141,141)" stroke-width="1" opacity="0.7803921568627451" d="M 167 109 Q 170 108 169 111 Q 166 112 167 109 Z " /><path fill="rgb(141,141,141)" stroke="rgb(141,141,141)" stroke-width="1" opacity="0.7803921568627451" d="M 27.5 110 L 28 115.5 L 26 116.5 L 27.5 110 Z " /><path fill="rgb(141,141,141)" stroke="rgb(141,141,141)" stroke-width="1" opacity="0.7803921568627451" d="M 155.5 111 L 157 114.5 L 156 114.5 L 155.5 111 Z " /><path fill="rgb(141,141,141)" stroke="rgb(141,141,141)" stroke-width="1" opacity="0.7803921568627451" d="M 39.5 116 L 40 117.5 L 38.5 121 L 38 118.5 L 39.5 116 Z " /><path fill="rgb(141,141,141)" stroke="rgb(141,141,141)" stroke-width="1" opacity="0.7803921568627451" d="M 169.5 119 L 171 124.5 L 170 127.5 L 171 129.5 L 169.5 132 L 169.5 119 Z " /><path fill="rgb(141,141,141)" stroke="rgb(141,141,141)" stroke-width="1" opacity="0.7803921568627451" d="M 157.5 122 L 158 124.5 L 157 124.5 L 157.5 122 Z " /><path fill="rgb(141,141,141)" stroke="rgb(141,141,141)" stroke-width="1" opacity="0.7803921568627451" d="M 157.5 127 L 158 129.5 L 157 129.5 L 157.5 127 Z " /><path fill="rgb(141,141,141)" stroke="rgb(141,141,141)" stroke-width="1" opacity="0.7803921568627451" d="M 38.5 131 L 40 136.5 L 39 136.5 L 38.5 131 Z " /><path fill="rgb(141,141,141)" stroke="rgb(141,141,141)" stroke-width="1" opacity="0.7803921568627451" d="M 26.5 132 Q 29.5 135 28 142.5 L 27 142.5 L 26.5 132 Z " /><path fill="rgb(141,141,141)" stroke="rgb(141,141,141)" stroke-width="1" opacity="0.7803921568627451" d="M 40.5 142 L 42 145.5 L 41 145.5 L 40.5 142 Z " /><path fill="rgb(141,141,141)" stroke="rgb(141,141,141)" stroke-width="1" opacity="0.7803921568627451" d="M 167 142 Q 170 141 169 144 Q 166 145 167 142 Z " /><path fill="rgb(141,141,141)" stroke="rgb(141,141,141)" stroke-width="1" opacity="0.7803921568627451" d="M 28.5 144 L 30 147.5 L 29 147.5 L 28.5 144 Z " /><path fill="rgb(141,141,141)" stroke="rgb(141,141,141)" stroke-width="1" opacity="0.7803921568627451" d="M 154.5 145 L 154 146.5 L 153.5 148 L 153 146.5 L 154.5 145 Z " /><path fill="rgb(141,141,141)" stroke="rgb(141,141,141)" stroke-width="1" opacity="0.7803921568627451" d="M 166.5 147 L 167 148.5 L 165.5 151 L 165 148.5 L 166.5 147 Z " /><path fill="rgb(141,141,141)" stroke="rgb(141,141,141)" stroke-width="1" opacity="0.7803921568627451" d="M 30.5 149 L 31 151 L 29 150.5 L 30.5 149 Z " /><path fill="rgb(141,141,141)" stroke="rgb(141,141,141)" stroke-width="1" opacity="0.7803921568627451" d="M 164.5 153 L 165 154.5 L 160.5 162 L 160 160.5 L 164.5 153 Z " /><path fill="rgb(141,141,141)" stroke="rgb(141,141,141)" stroke-width="1" opacity="0.7803921568627451" d="M 31 154 Q 34 153 33 156 Q 30 157 31 154 Z " /><path fill="rgb(141,141,141)" stroke="rgb(141,141,141)" stroke-width="1" opacity="0.7803921568627451" d="M 33.5 158 Q 35.8 157.3 35 159.5 L 33.5 158 Z " /><path fill="rgb(141,141,141)" stroke="rgb(141,141,141)" stroke-width="1" opacity="0.7803921568627451" d="M 47.5 158 L 48.5 160 L 47.5 158 Z " /><path fill="rgb(141,141,141)" stroke="rgb(141,141,141)" stroke-width="1" opacity="0.7803921568627451" d="M 35.5 161 L 38 164.5 L 36 163.5 L 35.5 161 Z " /><path fill="rgb(141,141,141)" stroke="rgb(141,141,141)" stroke-width="1" opacity="0.7803921568627451" d="M 49.5 161 L 51.5 164 L 49.5 161 Z " /><path fill="rgb(141,141,141)" stroke="rgb(141,141,141)" stroke-width="1" opacity="0.7803921568627451" d="M 145.5 162 L 142.5 166 L 145.5 162 Z " /><path fill="rgb(141,141,141)" stroke="rgb(141,141,141)" stroke-width="1" opacity="0.7803921568627451" d="M 158 163 Q 161 162 160 165 Q 157 166 158 163 Z " /><path fill="rgb(141,141,141)" stroke="rgb(141,141,141)" stroke-width="1" opacity="0.7803921568627451" d="M 38.5 166 L 40 169 Q 42.7 167.9 42 170.5 L 44 173.5 L 43 173.5 L 38 167.5 L 38.5 166 Z " /><path fill="rgb(141,141,141)" stroke="rgb(141,141,141)" stroke-width="1" opacity="0.7803921568627451" d="M 138.5 169 L 135.5 173 L 138.5 169 Z " /><path fill="rgb(141,141,141)" stroke="rgb(141,141,141)" stroke-width="1" opacity="0.7803921568627451" d="M 154.5 169 L 155 172 L 153 172 L 153 174 L 151 174 Q 152.1 176.7 149.5 176 L 151 173.5 L 153 170.5 L 154.5 169 Z " /><path fill="rgb(141,141,141)" stroke="rgb(141,141,141)" stroke-width="1" opacity="0.7803921568627451" d="M 63.5 174 L 64.5 176 L 63.5 174 Z " /><path fill="rgb(141,141,141)" stroke="rgb(141,141,141)" stroke-width="1" opacity="0.7803921568627451" d="M 66.5 176 L 67.5 178 L 66.5 176 Z " /><path fill="rgb(141,141,141)" stroke="rgb(141,141,141)" stroke-width="1" opacity="0.7803921568627451" d="M 147.5 177 L 149 177.5 L 146 179 Q 147.1 181.7 144.5 181 L 142 182.5 L 142 181 L 144 181 Q 142.9 178.3 145.5 179 L 147.5 177 Z " /><path fill="rgb(141,141,141)" stroke="rgb(141,141,141)" stroke-width="1" opacity="0.7803921568627451" d="M 50.5 179 L 54 181 Q 52.9 183.7 55.5 183 Q 56.7 186.8 61 186 L 60.5 188 Q 53.4 184.8 50.5 179 Z " /><path fill="rgb(141,141,141)" stroke="rgb(141,141,141)" stroke-width="1" opacity="0.7803921568627451" d="M 76.5 181 L 79 182.5 L 77.5 183 L 76.5 181 Z " /><path fill="rgb(141,141,141)" stroke="rgb(141,141,141)" stroke-width="1" opacity="0.7803921568627451" d="M 83.5 183 L 84.5 185 L 83.5 183 Z " /><path fill="rgb(141,141,141)" stroke="rgb(141,141,141)" stroke-width="1" opacity="0.7803921568627451" d="M 112.5 183 L 111.5 185 L 112.5 183 Z " /><path fill="rgb(141,141,141)" stroke="rgb(141,141,141)" stroke-width="1" opacity="0.7803921568627451" d="M 140.5 183 L 141 185 L 135.5 188 L 135 186 L 140.5 183 Z " /><path fill="rgb(141,141,141)" stroke="rgb(141,141,141)" stroke-width="1" opacity="0.7803921568627451" d="M 100.5 185 L 103 185.5 L 96.5 187 L 96.5 186 L 100.5 185 Z " /><path fill="rgb(141,141,141)" stroke="rgb(141,141,141)" stroke-width="1" opacity="0.7803921568627451" d="M 62.5 188 L 65 189.5 L 63.5 190 L 62.5 188 Z " /><path fill="rgb(141,141,141)" stroke="rgb(141,141,141)" stroke-width="1" opacity="0.7803921568627451" d="M 132 188 L 134 188.5 L 132 189.5 L 132 188 Z " /><path fill="rgb(141,141,141)" stroke="rgb(141,141,141)" stroke-width="1" opacity="0.7803921568627451" d="M 66.5 190 L 70 192.5 L 68.5 192 Q 64.5 193 66.5 190 Z " /><path fill="rgb(141,141,141)" stroke="rgb(141,141,141)" stroke-width="1" opacity="0.7803921568627451" d="M 128.5 190 Q 130.8 189.3 130 191.5 Q 128.3 189.9 126.5 193 L 125 192.5 L 128.5 190 Z " /><path fill="rgb(141,141,141)" stroke="rgb(141,141,141)" stroke-width="1" opacity="0.7803921568627451" d="M 72.5 193 L 77 194.5 L 74.5 195 L 72.5 193 Z " /><path fill="rgb(141,141,141)" stroke="rgb(141,141,141)" stroke-width="1" opacity="0.7803921568627451" d="M 121.5 193 L 123 193.5 L 119.5 195 L 119.5 194 L 121.5 193 Z " /><path fill="rgb(141,141,141)" stroke="rgb(141,141,141)" stroke-width="1" opacity="0.7803921568627451" d="M 79.5 195 Q 83.3 194 82 197 L 79.5 195 Z " /><path fill="rgb(141,141,141)" stroke="rgb(141,141,141)" stroke-width="1" opacity="0.7803921568627451" d="M 114 195 L 118 195.5 L 114 197 L 114 195 Z " /></svg>