<svg width="200" height="200" version="1.1" xmlns="http://www.w3.org/2000/svg" desc="Created with imagetracer.js version 1.2.6" ><path fill="rgb(0,0,0)" stroke="rgb(0,0,0)" stroke-width="1" opacity="0" d="M 0 0 L 200 0 L 200 200 L 0 200 L 0 0 Z M 137 31 L 130 36 L 130 43 Q 133 42 132 45 L 151 45 L 152 46 Q 155 45 154 48 L 157 48 L 167 59 L 168 62 Q 167 66 170 65 L 170 77 L 165 86 L 163 85 Q 160 86 161 83 L 159 83 L 150 77 L 145 76 L 125 76 L 124 77 Q 120 76 121 79 L 115 80 L 93 92 L 91 91 L 91 77 Q 87 75 88 69 L 82 60 Q 79 61 80 59 L 77 57 L 76 54 Q 73 55 74 53 L 71 51 L 71 49 L 62 39 L 55 39 L 55 54 L 48 58 Q 45 57 46 60 L 42 63 Q 43 65 41 64 L 36 72 Q 37 77 34 79 L 27 82 L 27 93 L 29 93 L 30 100 L 39 108 Q 43 107 44 110 L 48 110 L 51 114 Q 49 128 55 134 Q 54 137 57 136 L 58 139 Q 63 138 65 142 L 70 142 L 71 144 L 71 181 L 73 182 L 90 182 L 91 180 L 92 160 L 93 172 L 95 174 L 96 181 L 98 182 L 114 182 L 113 167 L 111 165 L 110 157 L 108 155 L 107 146 L 109 144 L 124 144 L 123 150 L 123 157 L 121 157 L 120 163 L 120 170 L 118 170 L 117 175 Q 115 180 119 182 L 136 182 L 136 175 L 138 174 L 139 162 L 141 158 L 143 156 L 146 160 L 145 162 Q 146 165 143 164 L 142 168 Q 143 171 140 170 L 139 175 L 139 182 L 156 182 L 161 171 Q 160 167 163 168 L 164 162 L 171 148 L 171 100 L 173 99 L 174 96 L 177 95 Q 176 91 179 92 L 180 89 Q 179 85 182 86 L 183 82 L 183 64 L 182 63 Q 184 56 180 57 L 180 53 L 174 46 L 174 44 L 172 42 L 170 39 L 168 39 Q 164 34 158 33 Q 151 34 149 31 L 137 31 Z " /><path fill="rgb(249,205,145)" stroke="rgb(249,205,145)" stroke-width="1" opacity="0.9333333333333333" d="M 137.5 33 L 143 33.5 L 137.5 34 L 137.5 33 Z " /><path fill="rgb(249,205,145)" stroke="rgb(249,205,145)" stroke-width="1" opacity="0.9333333333333333" d="M 144.5 33 L 150 33.5 L 144.5 34 L 144.5 33 Z " /><path fill="rgb(249,205,145)" stroke="rgb(249,205,145)" stroke-width="1" opacity="0.9333333333333333" d="M 132.5 36 L 132 37.5 Q 131.3 41.8 134 42.5 L 131 40.5 Q 130.3 36.8 132.5 36 Z " /><path fill="rgb(249,205,145)" stroke="rgb(249,205,145)" stroke-width="1" opacity="0.9333333333333333" d="M 162.5 37 L 163.5 39 L 162.5 37 Z " /><path fill="rgb(249,205,145)" stroke="rgb(249,205,145)" stroke-width="1" opacity="0.9333333333333333" d="M 56.5 40 L 57 55.5 L 53.5 58 L 53.5 57 L 56 55.5 L 56.5 40 Z " /><path fill="rgb(249,205,145)" stroke="rgb(249,205,145)" stroke-width="1" opacity="0.9333333333333333" d="M 166.5 40 L 169 41 L 168.5 43 L 166.5 40 Z " /><path fill="rgb(249,205,145)" stroke="rgb(249,205,145)" stroke-width="1" opacity="0.9333333333333333" d="M 140.5 43 L 147 43.5 L 140.5 44 L 140.5 43 Z " /><path fill="rgb(249,205,145)" stroke="rgb(249,205,145)" stroke-width="1" opacity="0.9333333333333333" d="M 170.5 43 L 171.5 45 L 170.5 43 Z " /><path fill="rgb(249,205,145)" stroke="rgb(249,205,145)" stroke-width="1" opacity="0.9333333333333333" d="M 64.5 45 L 69.5 51 L 64.5 45 Z " /><path fill="rgb(249,205,145)" stroke="rgb(249,205,145)" stroke-width="1" opacity="0.9333333333333333" d="M 155.5 45 L 156.5 47 L 155.5 45 Z " /><path fill="rgb(249,205,145)" stroke="rgb(249,205,145)" stroke-width="1" opacity="0.9333333333333333" d="M 172.5 46 L 173.5 48 L 172.5 46 Z " /><path fill="rgb(249,205,145)" stroke="rgb(249,205,145)" stroke-width="1" opacity="0.9333333333333333" d="M 160.5 49 L 166 53.5 L 161.5 50 L 160.5 49 Z " /><path fill="rgb(249,205,145)" stroke="rgb(249,205,145)" stroke-width="1" opacity="0.9333333333333333" d="M 176.5 51 L 177.5 53 Q 174.7 53.7 176.5 51 Z " /><path fill="rgb(249,205,145)" stroke="rgb(249,205,145)" stroke-width="1" opacity="0.9333333333333333" d="M 72.5 54 L 73.5 56 L 72.5 54 Z " /><path fill="rgb(249,205,145)" stroke="rgb(249,205,145)" stroke-width="1" opacity="0.9333333333333333" d="M 75.5 57 L 76.5 59 L 75.5 57 Z " /><path fill="rgb(249,205,145)" stroke="rgb(249,205,145)" stroke-width="1" opacity="0.9333333333333333" d="M 50.5 58 L 52 58.5 L 48.5 61 L 50.5 58 Z " /><path fill="rgb(249,205,145)" stroke="rgb(249,205,145)" stroke-width="1" opacity="0.9333333333333333" d="M 179.5 58 L 180.5 60 L 179.5 58 Z " /><path fill="rgb(249,205,145)" stroke="rgb(249,205,145)" stroke-width="1" opacity="0.9333333333333333" d="M 169.5 61 L 171 63.5 L 170 63.5 L 169.5 61 Z " /><path fill="rgb(249,205,145)" stroke="rgb(249,205,145)" stroke-width="1" opacity="0.9333333333333333" d="M 181.5 65 L 182 67.5 L 181 67.5 L 181.5 65 Z " /><path fill="rgb(249,205,145)" stroke="rgb(249,205,145)" stroke-width="1" opacity="0.9333333333333333" d="M 41 66 L 43 66.5 L 40 68.5 L 41 66 Z " /><path fill="rgb(249,205,145)" stroke="rgb(249,205,145)" stroke-width="1" opacity="0.9333333333333333" d="M 171.5 66 L 172 75.5 L 171 75.5 L 171.5 66 Z " /><path fill="rgb(249,205,145)" stroke="rgb(249,205,145)" stroke-width="1" opacity="0.9333333333333333" d="M 181.5 72 L 182 78.5 L 181 78.5 L 181.5 72 Z " /><path fill="rgb(249,205,145)" stroke="rgb(249,205,145)" stroke-width="1" opacity="0.9333333333333333" d="M 88.5 76 L 89 84.5 L 88 84.5 L 88.5 76 Z " /><path fill="rgb(249,205,145)" stroke="rgb(249,205,145)" stroke-width="1" opacity="0.9333333333333333" d="M 127.5 77 L 130 77.5 L 127.5 78 L 127.5 77 Z " /><path fill="rgb(249,205,145)" stroke="rgb(249,205,145)" stroke-width="1" opacity="0.9333333333333333" d="M 139.5 77 L 143 77.5 L 139.5 78 L 139.5 77 Z " /><path fill="rgb(249,205,145)" stroke="rgb(249,205,145)" stroke-width="1" opacity="0.9333333333333333" d="M 36.5 78 L 37 79.5 L 35 80.5 L 36.5 78 Z " /><path fill="rgb(249,205,145)" stroke="rgb(249,205,145)" stroke-width="1" opacity="0.9333333333333333" d="M 124.5 78 L 123.5 80 L 122 79.5 L 124.5 78 Z " /><path fill="rgb(249,205,145)" stroke="rgb(249,205,145)" stroke-width="1" opacity="0.9333333333333333" d="M 147.5 78 L 151 80.5 L 149.5 80 Q 145.5 81 147.5 78 Z " /><path fill="rgb(249,205,145)" stroke="rgb(249,205,145)" stroke-width="1" opacity="0.9333333333333333" d="M 170.5 79 L 171 80.5 L 169 81.5 L 170.5 79 Z " /><path fill="rgb(249,205,145)" stroke="rgb(249,205,145)" stroke-width="1" opacity="0.9333333333333333" d="M 153.5 81 L 154.5 83 L 153.5 81 Z " /><path fill="rgb(249,205,145)" stroke="rgb(249,205,145)" stroke-width="1" opacity="0.9333333333333333" d="M 179 82 L 181 82.5 L 179.5 85 L 179 82 Z " /><path fill="rgb(249,205,145)" stroke="rgb(249,205,145)" stroke-width="1" opacity="0.9333333333333333" d="M 157.5 84 L 160 85.5 Q 159.3 87.8 161.5 87 L 164.5 89 L 166 88.5 L 162.5 90 L 157.5 84 Z " /><path fill="rgb(249,205,145)" stroke="rgb(249,205,145)" stroke-width="1" opacity="0.9333333333333333" d="M 109.5 85 L 108.5 87 L 107 86.5 L 109.5 85 Z " /><path fill="rgb(249,205,145)" stroke="rgb(249,205,145)" stroke-width="1" opacity="0.9333333333333333" d="M 88.5 88 L 91 92.5 L 88 90.5 L 88.5 88 Z " /><path fill="rgb(249,205,145)" stroke="rgb(249,205,145)" stroke-width="1" opacity="0.9333333333333333" d="M 176.5 89 L 177 90.5 L 175 91.5 L 176.5 89 Z " /><path fill="rgb(249,205,145)" stroke="rgb(249,205,145)" stroke-width="1" opacity="0.9333333333333333" d="M 173.5 94 L 172.5 96 L 173.5 94 Z " /><path fill="rgb(249,205,145)" stroke="rgb(249,205,145)" stroke-width="1" opacity="0.9333333333333333" d="M 31.5 97 L 33 99.5 L 32 99.5 L 31.5 97 Z " /><path fill="rgb(249,205,145)" stroke="rgb(249,205,145)" stroke-width="1" opacity="0.9333333333333333" d="M 170.5 97 L 169.5 99 L 170.5 97 Z " /><path fill="rgb(249,205,145)" stroke="rgb(249,205,145)" stroke-width="1" opacity="0.9333333333333333" d="M 50.5 109 Q 58.8 108.1 63 110 L 63 112 Q 65.7 110.9 65 113.5 L 73 126.5 L 74 178.5 L 75.5 180 L 88 180.5 L 74.5 181 L 72 178.5 L 72 141 L 66.5 141 L 59 137 Q 60.1 134.3 57.5 135 L 53 128.5 L 52 112.5 L 50.5 109 Z " /><path fill="rgb(249,205,145)" stroke="rgb(249,205,145)" stroke-width="1" opacity="0.9333333333333333" d="M 90.5 126 L 109.5 126 L 114.5 127 L 119.5 129 L 129 138.5 L 131 141.5 L 127 142 L 126.5 144 L 124.5 142 L 107.5 142 L 105.5 145 L 104 142 L 89 142 L 89 127.5 L 90.5 126 Z " /><path fill="rgb(249,205,145)" stroke="rgb(249,205,145)" stroke-width="1" opacity="0.9333333333333333" d="M 89 151 Q 91.7 149.9 91 152.5 L 89 155.5 L 88.5 179 L 88 153.5 L 89 151 Z " /><path fill="rgb(249,205,145)" stroke="rgb(249,205,145)" stroke-width="1" opacity="0.9333333333333333" d="M 141.5 152 L 144 153.5 L 142.5 154 L 140 153.5 L 141.5 152 Z " /><path fill="rgb(249,205,145)" stroke="rgb(249,205,145)" stroke-width="1" opacity="0.9333333333333333" d="M 161.5 164 L 161 165.5 L 160.5 167 L 160 165.5 L 161.5 164 Z " /><path fill="rgb(249,205,145)" stroke="rgb(249,205,145)" stroke-width="1" opacity="0.9333333333333333" d="M 145.5 165 L 146 166.5 L 144 167.5 L 145.5 165 Z " /><path fill="rgb(249,205,145)" stroke="rgb(249,205,145)" stroke-width="1" opacity="0.9333333333333333" d="M 142.5 172 L 143 174 L 141 173.5 L 142.5 172 Z " /><path fill="rgb(249,205,145)" stroke="rgb(249,205,145)" stroke-width="1" opacity="0.9333333333333333" d="M 157 172 L 159 172.5 L 157 173.5 L 157 172 Z " /><path fill="rgb(249,205,145)" stroke="rgb(249,205,145)" stroke-width="1" opacity="0.9333333333333333" d="M 140.5 179 L 142.5 180 L 153.5 180 L 155 179.5 L 153.5 181 L 141.5 181 L 140.5 179 Z " /><path fill="rgb(242,172,96)" stroke="rgb(242,172,96)" stroke-width="1" opacity="0.9921568627450981" d="M 143.5 33 L 144.5 34 L 152.5 34 L 161 37 Q 162.1 39.7 159.5 39 L 154.5 36 L 138.5 35 L 137 35.5 Q 136.4 32.8 142.5 34 L 143.5 33 Z " /><path fill="rgb(242,172,96)" stroke="rgb(242,172,96)" stroke-width="1" opacity="0.9921568627450981" d="M 134.5 34 Q 137.3 35.3 135 36.5 L 133 39.5 L 140 43.5 L 135 44 L 135 42 Q 132.3 43.1 133 40.5 L 132 38.5 L 134.5 34 Z " /><path fill="rgb(242,172,96)" stroke="rgb(242,172,96)" stroke-width="1" opacity="0.9921568627450981" d="M 162.5 38 L 164.5 41 L 166 40.5 Q 166.8 42.8 164.5 42 Q 160.9 40.9 162.5 38 Z " /><path fill="rgb(242,172,96)" stroke="rgb(242,172,96)" stroke-width="1" opacity="0.9921568627450981" d="M 59.5 40 L 65 48 L 67 48.5 L 65.5 49 L 64 46 L 61 44.5 Q 63.3 43.3 60.5 42 Q 59.3 44.3 58 41.5 L 59.5 40 Z " /><path fill="rgb(242,172,96)" stroke="rgb(242,172,96)" stroke-width="1" opacity="0.9921568627450981" d="M 147 42 L 153.5 42 L 161 46.5 Q 160.3 48.8 162.5 48 L 163.5 50 L 159 48 L 158.5 46 L 157 46.5 Q 157.8 43.9 154.5 45 L 151.5 43 L 147 44 L 147 42 Z " /><path fill="rgb(242,172,96)" stroke="rgb(242,172,96)" stroke-width="1" opacity="0.9921568627450981" d="M 168.5 43 L 169.5 45 Q 166.7 45.7 168.5 43 Z " /><path fill="rgb(242,172,96)" stroke="rgb(242,172,96)" stroke-width="1" opacity="0.9921568627450981" d="M 171.5 46 L 175 51.5 L 173 50.5 Q 173.7 47.9 171 49 L 171.5 46 Z " /><path fill="rgb(242,172,96)" stroke="rgb(242,172,96)" stroke-width="1" opacity="0.9921568627450981" d="M 67.5 50 Q 69.8 49.3 69 51.5 L 72 53.5 L 71.5 55 Q 73.8 54.3 73 56.5 L 75 56.5 L 74.5 58 L 79 60.5 L 77.5 60 Q 70.3 58.8 68 62.5 Q 66.5 68.5 69.5 70 L 71.5 71 L 85 71 L 85.5 69 L 87 71.5 L 86.5 74 Q 81 71.5 71.5 73 Q 70.4 70.3 67 71 L 65 63.5 L 68.5 59 L 73 57.5 L 71 57 L 67.5 50 Z " /><path fill="rgb(242,172,96)" stroke="rgb(242,172,96)" stroke-width="1" opacity="0.9921568627450981" d="M 165.5 51 L 166.5 53 Q 163.7 53.7 165.5 51 Z " /><path fill="rgb(242,172,96)" stroke="rgb(242,172,96)" stroke-width="1" opacity="0.9921568627450981" d="M 176.5 53 Q 179.7 55.3 179.5 61 L 181 60.5 L 180 65.5 Q 182.6 66.9 182 71.5 L 180 78.5 L 181 81 Q 177.3 79.7 179 85.5 L 176 87.5 L 180 77.5 L 180 66.5 L 178 64.5 L 178 59.5 L 176.5 53 Z " /><path fill="rgb(242,172,96)" stroke="rgb(242,172,96)" stroke-width="1" opacity="0.9921568627450981" d="M 167.5 54 L 170 55.5 L 169.5 57 L 167.5 54 Z " /><path fill="rgb(242,172,96)" stroke="rgb(242,172,96)" stroke-width="1" opacity="0.9921568627450981" d="M 56 56 L 58 56.5 L 56 57.5 L 56 56 Z " /><path fill="rgb(242,172,96)" stroke="rgb(242,172,96)" stroke-width="1" opacity="0.9921568627450981" d="M 53.5 58 Q 56.1 57.3 55 60 L 49 61 L 47.5 64 Q 45.3 63.3 46 65.5 L 42 68.5 L 47.5 61 L 53.5 58 Z " /><path fill="rgb(242,172,96)" stroke="rgb(242,172,96)" stroke-width="1" opacity="0.9921568627450981" d="M 169.5 58 L 172 59.5 Q 174.6 67.4 173 79.5 L 170.5 83 L 170 81.5 Q 173.3 75.8 172 65.5 L 169.5 58 Z " /><path fill="rgb(242,172,96)" stroke="rgb(242,172,96)" stroke-width="1" opacity="0.9921568627450981" d="M 81.5 64 L 83.5 67 L 81.5 64 Z " /><path fill="rgb(242,172,96)" stroke="rgb(242,172,96)" stroke-width="1" opacity="0.9921568627450981" d="M 40.5 69 L 42 71.5 L 41 74 L 38.5 75 L 40 72.5 L 40.5 69 Z " /><path fill="rgb(242,172,96)" stroke="rgb(242,172,96)" stroke-width="1" opacity="0.9921568627450981" d="M 86.5 75 Q 89.1 74.3 88 77 L 78.5 77 L 76 79.5 L 75 81.5 L 78.5 87 L 87.5 87 L 88 85.5 L 89 85.5 L 88 91.5 Q 89.3 95 94 94 Q 92.1 104.7 97.5 109 Q 103.8 110.3 105 106.5 L 106 103.5 L 106 89 L 101.5 90 L 101.5 89 Q 108.6 88.6 111.5 84 L 112 85.5 L 111 86.5 L 111 99.5 L 113.5 104 L 116.5 105 L 121 103 L 122 100.5 L 122 80 Q 124.7 78.9 124 81.5 L 123 82.5 L 123 104 L 117.5 107 L 114 107 Q 115.3 104 111.5 105 L 109 101.5 L 108.5 88 L 107 89.5 L 107 108 Q 104.3 106.9 105 109.5 Q 103.5 112.5 97.5 111 L 95 110 Q 95.8 106.9 93 107.5 L 93 95 L 89 95 Q 90 92 87 93 L 87 89 L 78.5 89 L 74 86 L 74 78.5 L 76.5 76 L 85.5 76 L 86.5 75 Z " /><path fill="rgb(242,172,96)" stroke="rgb(242,172,96)" stroke-width="1" opacity="0.9921568627450981" d="M 37 76 L 39 76.5 L 39 80.5 L 38.5 83 Q 34.3 81.3 37 79.5 L 37 76 Z " /><path fill="rgb(242,172,96)" stroke="rgb(242,172,96)" stroke-width="1" opacity="0.9921568627450981" d="M 56.5 76 L 58 77.5 L 58 85.5 L 57 89 Q 50.7 90.5 49 86.5 L 49 77.5 L 50.5 77 L 50 78.5 Q 48.3 86.2 52.5 88 L 56 86.5 L 57 78.5 L 56.5 76 Z " /><path fill="rgb(242,172,96)" stroke="rgb(242,172,96)" stroke-width="1" opacity="0.9921568627450981" d="M 138.5 77 Q 140 79.5 145.5 78 L 147 79.5 L 142.5 80 L 139 79 L 139 98.5 L 138 101 Q 135.9 102.6 130.5 102 L 127 99.5 L 126 97.5 L 126 80.5 L 125 79.5 L 128 78 L 128 97.5 L 130.5 100 Q 135.8 101.3 137 98.5 L 138 96.5 L 138.5 77 Z " /><path fill="rgb(242,172,96)" stroke="rgb(242,172,96)" stroke-width="1" opacity="0.9921568627450981" d="M 148.5 80 L 157 84 Q 158.1 86.7 155.5 86 Q 153.3 82 148 82 L 148.5 80 Z " /><path fill="rgb(242,172,96)" stroke="rgb(242,172,96)" stroke-width="1" opacity="0.9921568627450981" d="M 115.5 82 L 117 82.5 L 114.5 84 L 115.5 82 Z " /><path fill="rgb(242,172,96)" stroke="rgb(242,172,96)" stroke-width="1" opacity="0.9921568627450981" d="M 169.5 84 L 170 87.5 L 167 89 L 169.5 84 Z " /><path fill="rgb(242,172,96)" stroke="rgb(242,172,96)" stroke-width="1" opacity="0.9921568627450981" d="M 38.5 85 L 39 87.5 L 36 89 L 35 93 Q 32 91.8 33 95.5 L 31 96.5 L 31 94.5 L 38.5 85 Z " /><path fill="rgb(242,172,96)" stroke="rgb(242,172,96)" stroke-width="1" opacity="0.9921568627450981" d="M 158.5 86 L 160 88.5 L 159 88.5 L 158.5 86 Z " /><path fill="rgb(242,172,96)" stroke="rgb(242,172,96)" stroke-width="1" opacity="0.9921568627450981" d="M 165.5 89 Q 168.5 90.5 165.5 92 Q 160.7 93.3 162 90 L 165.5 89 Z " /><path fill="rgb(242,172,96)" stroke="rgb(242,172,96)" stroke-width="1" opacity="0.9921568627450981" d="M 174 89 L 176 89.5 L 174.5 92 L 174 89 Z " /><path fill="rgb(242,172,96)" stroke="rgb(242,172,96)" stroke-width="1" opacity="0.9921568627450981" d="M 96.5 91 L 97 93 L 95 92.5 L 96.5 91 Z " /><path fill="rgb(242,172,96)" stroke="rgb(242,172,96)" stroke-width="1" opacity="0.9921568627450981" d="M 171 93 L 173 93.5 L 171.5 97 Q 170.3 94.8 169 97.5 Q 167.6 106.3 171 105.5 L 171 141.5 Q 167.7 143 169 148 Q 166 146.8 167 150.5 L 162 158.5 L 162.5 160 Q 159.8 158.8 162 157.5 L 162 155 Q 165 156.3 164 152.5 L 165 148 Q 168 149.3 167 145.5 L 168 144.5 L 168 104.5 L 167 101.5 L 168 96 L 171 94.5 L 171 93 Z " /><path fill="rgb(242,172,96)" stroke="rgb(242,172,96)" stroke-width="1" opacity="0.9921568627450981" d="M 33 98 L 36 99.5 Q 35.3 101.8 37.5 101 L 39 104 L 49.5 106 L 51 107.5 L 46.5 109 L 40.5 105 L 33 99.5 L 33 98 Z " /><path fill="rgb(242,172,96)" stroke="rgb(242,172,96)" stroke-width="1" opacity="0.9921568627450981" d="M 133.5 142 L 138 145 L 142 151.5 L 140 152.5 Q 141.1 149.2 138.5 150 L 137 147 L 134 145.5 Q 134.8 143.3 132.5 144 L 133.5 142 Z " /><path fill="rgb(242,172,96)" stroke="rgb(242,172,96)" stroke-width="1" opacity="0.9921568627450981" d="M 88.5 143 Q 91.1 142.2 90 145.5 L 89 145.5 L 88.5 143 Z " /><path fill="rgb(242,172,96)" stroke="rgb(242,172,96)" stroke-width="1" opacity="0.9921568627450981" d="M 104.5 144 L 106 146.5 L 104 145.5 L 104.5 144 Z " /><path fill="rgb(242,172,96)" stroke="rgb(242,172,96)" stroke-width="1" opacity="0.9921568627450981" d="M 126.5 144 L 127 146.5 L 125 147.5 L 126.5 144 Z " /><path fill="rgb(242,172,96)" stroke="rgb(242,172,96)" stroke-width="1" opacity="0.9921568627450981" d="M 143.5 151 L 144.5 153 Q 141.7 153.7 143.5 151 Z " /><path fill="rgb(242,172,96)" stroke="rgb(242,172,96)" stroke-width="1" opacity="0.9921568627450981" d="M 87.5 152 L 88 179 L 74 178.5 L 87 178 L 87.5 152 Z " /><path fill="rgb(242,172,96)" stroke="rgb(242,172,96)" stroke-width="1" opacity="0.9921568627450981" d="M 145.5 154 L 148 155.5 L 147.5 157 L 147 155 L 145.5 154 Z " /><path fill="rgb(242,172,96)" stroke="rgb(242,172,96)" stroke-width="1" opacity="0.9921568627450981" d="M 123.5 158 L 124 159.5 L 122 160.5 L 123.5 158 Z " /><path fill="rgb(242,172,96)" stroke="rgb(242,172,96)" stroke-width="1" opacity="0.9921568627450981" d="M 148.5 158 L 149 163.5 L 145.5 170 L 144 169.5 L 148 162.5 L 148 160.5 L 148.5 158 Z " /><path fill="rgb(242,172,96)" stroke="rgb(242,172,96)" stroke-width="1" opacity="0.9921568627450981" d="M 159 162 L 162 162.5 L 158 168.5 L 157 175 Q 154.3 176.1 155 173.5 L 159 162 Z " /><path fill="rgb(242,172,96)" stroke="rgb(242,172,96)" stroke-width="1" opacity="0.9921568627450981" d="M 94.5 168 L 96 170.5 L 95 170.5 L 94.5 168 Z " /><path fill="rgb(242,172,96)" stroke="rgb(242,172,96)" stroke-width="1" opacity="0.9921568627450981" d="M 110.5 169 L 112 171.5 L 110 170.5 L 110.5 169 Z " /><path fill="rgb(242,172,96)" stroke="rgb(242,172,96)" stroke-width="1" opacity="0.9921568627450981" d="M 135 170 L 137 170.5 L 135 171.5 L 135 170 Z " /><path fill="rgb(242,172,96)" stroke="rgb(242,172,96)" stroke-width="1" opacity="0.9921568627450981" d="M 144.5 171 L 145 172.5 L 143.5 177 L 141 176.5 L 144.5 171 Z " /><path fill="rgb(242,172,96)" stroke="rgb(242,172,96)" stroke-width="1" opacity="0.9921568627450981" d="M 154.5 176 Q 157.5 177.5 154.5 179 L 141 178.5 L 152.5 178 L 154.5 176 Z " /><path fill="rgb(242,172,96)" stroke="rgb(242,172,96)" stroke-width="1" opacity="0.9921568627450981" d="M 118.5 178 Q 120 181.5 121.5 179 L 134 179.5 L 131.5 181 L 120.5 181 L 118.5 178 Z " /><path fill="rgb(242,172,96)" stroke="rgb(242,172,96)" stroke-width="1" opacity="0.9921568627450981" d="M 98.5 179 L 100.5 180 L 101.5 179 L 112.5 179 L 111.5 181 L 99.5 181 L 98.5 179 Z " /><path fill="rgb(202,132,62)" stroke="rgb(202,132,62)" stroke-width="1" opacity="0.9764705882352941" d="M 71.5 60 Q 77.5 58.5 79 61.5 L 81 64.5 Q 85.8 65.9 85 71 L 71.5 71 L 68 68.5 Q 66.5 62.5 69.5 61 L 71.5 60 Z " /><path fill="rgb(202,132,62)" stroke="rgb(202,132,62)" stroke-width="1" opacity="0.9764705882352941" d="M 51 76 L 56 76 L 56 77.5 Q 58.5 79 57 84.5 L 54.5 88 Q 50.5 88.5 50 85.5 Q 49.1 78.7 51 76 Z " /><path fill="rgb(202,132,62)" stroke="rgb(202,132,62)" stroke-width="1" opacity="0.9764705882352941" d="M 133.5 76 Q 138 75.5 138 76.5 L 138 96.5 L 135.5 100 Q 129.3 101.3 128 97.5 L 128 78.5 L 131.5 78 L 133.5 76 Z " /><path fill="rgb(202,132,62)" stroke="rgb(202,132,62)" stroke-width="1" opacity="0.9764705882352941" d="M 78.5 77 L 88 77 L 88 87 L 78.5 87 L 76 84.5 L 75 81.5 L 78.5 77 Z " /><path fill="rgb(202,132,62)" stroke="rgb(202,132,62)" stroke-width="1" opacity="0.9764705882352941" d="M 121.5 80 L 122 100.5 L 121 103 L 116.5 105 L 112 102.5 Q 109.4 96.6 111 86.5 L 112 84 L 121.5 80 Z " /><path fill="rgb(202,132,62)" stroke="rgb(202,132,62)" stroke-width="1" opacity="0.9764705882352941" d="M 35.5 81 L 39 83.5 L 31.5 94 L 29 94 L 29 88.5 L 28 85.5 L 30 82 L 35.5 81 Z " /><path fill="rgb(202,132,62)" stroke="rgb(202,132,62)" stroke-width="1" opacity="0.9764705882352941" d="M 103.5 89 L 106 89.5 L 106 103.5 L 102.5 109 Q 97.3 110.3 96 107.5 Q 92.2 102.7 94 93 L 97 93 Q 95.8 90 99.5 91 L 103.5 89 Z " /><path fill="rgb(202,132,62)" stroke="rgb(202,132,62)" stroke-width="1" opacity="0.9764705882352941" d="M 90 143 L 103.5 143 L 104 145.5 L 106 147.5 L 107 159 Q 111 157.6 109 164.5 L 113 178.5 L 99.5 180 L 97 179 L 96 169.5 L 94 167.5 L 93 156 Q 89.5 157.1 91 149.5 L 90 143 Z " /><path fill="rgb(202,132,62)" stroke="rgb(202,132,62)" stroke-width="1" opacity="0.9764705882352941" d="M 127 143 L 134 144 L 135.5 147 Q 137.8 146.3 137 148.5 L 140 150 L 139 155.5 Q 141.5 157 138 158.5 L 137 170 Q 133 168.6 135 175.5 L 134 179 L 121.5 179 L 120.5 180 Q 117.5 178.4 119 173 Q 122 174.3 121 170.5 L 120 168.5 L 122 166.5 L 122 161.5 L 124 157.5 L 123 155 Q 126.5 156.1 125 148.5 Q 128 147.3 127 143 Z " /><path fill="rgb(220,193,164)" stroke="rgb(220,193,164)" stroke-width="1" opacity="0.27450980392156865" d="M 136.5 31 L 148.5 31 Q 151.2 33.8 157.5 33 Q 164.1 34.4 167.5 39 L 170 39 L 171.5 42 L 174 43.5 L 174 45.5 L 180 52.5 L 180 57 Q 184 55.6 182 62.5 L 183 63.5 L 183 81.5 L 182 86 Q 179 84.8 180 88.5 L 179 92 Q 176 90.8 177 94.5 L 174 96 L 172.5 99 Q 169.8 98.4 171 104.5 L 170 104.5 L 169 99.5 Q 177.1 93.1 181 82.5 Q 183.3 75.8 182 65.5 L 178 52.5 L 170.5 43 L 167.5 41 L 155.5 34 L 137.5 33 L 131 37.5 Q 130.3 43.3 134.5 44 L 152.5 44 L 160 48.5 Q 159.3 50.8 161.5 50 L 166 56 Q 169 54.8 168 58.5 L 171 64.5 L 171 78.5 Q 167.8 80.3 168 85.5 L 164.5 89 L 160 87 L 158.5 84 L 147.5 78 L 138 76.5 L 144.5 76 L 149.5 77 L 158.5 83 L 161 83 Q 159.9 85.7 162.5 85 L 164.5 86 L 170 76.5 L 170 65 Q 166.7 66.3 168 61.5 L 167 58.5 L 156.5 48 L 154 48 Q 155.3 45 151.5 46 L 150.5 45 L 132 45 Q 132.8 41.9 130 42.5 L 130 35.5 L 136.5 31 Z " /><path fill="rgb(220,193,164)" stroke="rgb(220,193,164)" stroke-width="1" opacity="0.27450980392156865" d="M 55 39 L 61.5 39 L 71 48.5 Q 69.9 51.8 72.5 51 L 74 54 L 77 55.5 Q 76.3 57.8 78.5 57 L 80 60 L 85 63.5 L 91 76.5 L 91 90.5 L 92.5 92 L 114.5 80 L 121 79 Q 119.8 76 123.5 77 L 124.5 76 L 132.5 76 L 132.5 77 L 124.5 78 L 94.5 93 L 91.5 93 L 89 89.5 L 89 76.5 L 81 62 Q 78.3 63.1 79 60.5 L 59.5 40 L 56 40.5 L 56 55.5 L 44 63 L 42.5 66 Q 40.3 65.3 41 67.5 L 37 74.5 L 37 77.5 L 33.5 82 Q 29.1 80.5 30 83.5 Q 27 84.5 28 89.5 L 29 93 L 27 92.5 L 27 82 L 34 78.5 Q 36.8 76.8 36 71.5 L 40.5 64 Q 42.8 64.8 42 62.5 L 46 59.5 Q 45.3 57.3 47.5 58 L 55 53.5 L 55 39 Z " /><path fill="rgb(220,193,164)" stroke="rgb(220,193,164)" stroke-width="1" opacity="0.27450980392156865" d="M 29.5 94 L 32 100 L 38 104.5 Q 37.3 106.8 39.5 106 L 51 110.5 L 53 128.5 L 57.5 135 L 60.5 137 L 66.5 141 L 72 141 L 72 178.5 L 74.5 181 L 87.5 181 L 88 179.5 L 89 178.5 L 89 155.5 L 90.5 153 L 93 158.5 L 93 163.5 L 96 171.5 L 96 175.5 L 99.5 181 L 111.5 181 L 113 179.5 L 113 175.5 L 110 167.5 L 110 162.5 L 107 156.5 L 106 143.5 L 107.5 142 L 124.5 142 Q 126.8 142.8 126 146.5 L 123.5 155 L 123 149.5 L 124 144 L 108.5 144 L 107 145.5 L 108 154.5 L 110 156.5 L 111 164.5 L 113 166.5 L 114 182 L 97.5 182 L 96 180.5 L 95 173.5 L 93 171.5 L 91.5 160 L 91 179.5 L 90 182 L 72.5 182 L 71 180.5 L 71 143.5 L 69.5 142 L 64.5 142 Q 62.6 138.4 58 139 L 56.5 136 Q 53.9 136.8 55 133.5 Q 48.6 127.9 51 113.5 L 47.5 110 L 43.5 110 Q 42.8 107.3 38.5 108 L 30 99.5 L 29.5 94 Z " /><path fill="rgb(220,193,164)" stroke="rgb(220,193,164)" stroke-width="1" opacity="0.27450980392156865" d="M 170.5 143 L 171 147.5 L 164 161.5 L 163 168 Q 160 166.8 161 170.5 L 155.5 182 L 139 182 L 139 174.5 L 140 170 Q 143 171.3 142 167.5 L 143 164 Q 146 165.3 145 161.5 L 146 159.5 L 142.5 156 L 141 157.5 L 139 161.5 L 138 174 L 136 174.5 L 136 182 L 118.5 182 Q 115.5 180.5 117 174.5 L 118 170 L 121 170.5 L 118 178.5 L 120.5 181 L 131.5 181 L 135 178.5 L 135 172.5 L 137 170.5 L 138 159.5 L 141.5 153 L 144 154 Q 142.9 156.7 145.5 156 Q 148.3 157.3 147 162.5 L 141 173.5 L 140 179.5 L 141.5 181 L 153.5 181 L 159 172.5 L 159 169.5 L 170.5 143 Z " /><path fill="rgb(220,193,164)" stroke="rgb(220,193,164)" stroke-width="1" opacity="0.27450980392156865" d="M 121 157 L 124 157.5 L 122 160.5 L 120.5 168 L 120 162.5 L 121 157 Z " /><path fill="rgb(243,173,97)" stroke="rgb(243,173,97)" stroke-width="1" opacity="1" d="M 135.5 34 Q 137.8 33.3 137 35.5 L 138.5 35 L 154.5 36 L 154.5 35 L 153 34.5 L 154.5 34 L 159 35.5 L 155 36.5 L 161 39 L 161.5 37 L 162.5 40 L 165 39 L 164 41.5 L 165.5 42 Q 166.8 39.8 168 42.5 Q 166.9 45.8 169.5 45 L 169.5 43 Q 173.8 44.7 171 46.5 Q 169.9 49.8 172.5 49 Q 174.3 46.3 176 50.5 L 178 64.5 L 179.5 66 L 181 65.5 L 180 66.5 L 180 77.5 L 180.5 79 L 179 78.5 L 176 87.5 L 178 87.5 L 178 89 L 174 89 L 174 91.5 Q 176.8 93.3 172.5 95 L 172.5 93 Q 170.3 92.3 171 94.5 L 169.5 98 L 169.5 96 Q 167.3 95.3 168 97.5 L 167 101.5 L 168 104.5 L 168 144.5 L 167 147.5 L 168 150.5 L 167 150.5 Q 168 146.8 165 148 L 164 154.5 L 166 154.5 L 163.5 159 L 162 159.5 L 163 162 Q 157.8 159.9 159 164.5 L 158 167.5 L 160 167.5 L 159 172 L 157 171.5 L 158 168.5 L 156 169.5 L 155 174.5 L 156 176.5 Q 154.3 174.9 152.5 178 L 141.5 178 L 140.5 179 L 142 176.5 L 141 175.5 Q 140.3 173.3 142.5 174 L 143.5 177 L 145 171.5 L 143 171.5 L 147 168.5 Q 149.7 165.2 149 158.5 L 148 158.5 L 147.5 161 L 147 157.5 L 148 155.5 L 146.5 156 L 144 154.5 L 145 152.5 L 143 151.5 L 142.5 153 L 138 145 L 133.5 142 L 128.5 143 L 128.5 142 L 131 141.5 L 119.5 129 Q 108.7 123.8 90.5 126 L 89 127.5 L 89 142 L 104 142.5 L 88 143.5 L 91 150.5 L 89 151 L 88.5 153 L 87 152.5 L 87 178 L 74 178 L 73 126.5 L 65 112 Q 62 113 63 110 L 60.5 110 L 59.5 109 L 48 108.5 L 51 107.5 L 49.5 106 L 41.5 105 L 41.5 107 L 38 104.5 L 39 102.5 L 36 101 L 34.5 98 Q 31.2 99.1 32 96.5 L 33 93 Q 35.7 94.1 35 91.5 L 36 89 L 39 87.5 Q 40.7 81.3 38 79.5 L 38.5 76 L 37 75.5 L 39 74.5 L 38 72 L 40 72.5 L 39.5 74 Q 41.8 74.8 41 72.5 L 42 70.5 L 41 68.5 Q 43.5 70.3 46 65.5 Q 45.3 63.3 47.5 64 L 49 61 L 55 60 L 55.5 57 Q 56.8 59.3 58 56.5 L 57 55.5 L 57 40 L 59 40.5 Q 56.8 41.8 59.5 43 Q 60.8 40.8 62 43.5 Q 59.8 44.7 62.5 46 Q 64.8 45.3 64 47.5 L 66 47.5 L 65.5 49 L 68 49.5 L 68 51.5 L 70.5 55 L 72 54.5 L 71 57 L 73.5 56 L 74.5 58 L 72.5 58 L 67 60.5 Q 64.4 61.9 65 66.5 Q 67.8 67.6 67 71 Q 70.4 70.3 71.5 73 Q 81.8 71.2 87 74.5 L 85.5 76 L 76.5 76 L 74 78.5 L 74 85.5 L 75.5 86 L 78.5 89 L 87 89 L 87 93 L 88.5 93 L 88.5 91 L 92 93.5 L 90.5 94 L 89 93.5 L 89 95 L 93 95 L 93 107.5 L 96.5 110 Q 98 112.5 103.5 111 L 105 108 L 107 107.5 L 107 89.5 L 109 88.5 L 109 101.5 L 111.5 105 Q 115.3 104 114 107 L 117.5 107 L 123 104 L 123 82.5 L 125.5 78 L 126 80.5 L 126 97.5 L 128.5 101 L 135.5 102 L 138 101 L 139 98.5 L 139 79 L 148 80 Q 146.8 83 150.5 82 L 152.5 83 L 152.5 81 L 155.5 86 L 157.5 85 L 159.5 89 Q 160.8 86.8 162 89.5 Q 160.7 93.7 165.5 92 Q 168.3 90.8 166 89.5 L 166.5 87 L 167 89 L 170 87.5 L 169.5 84 L 168 84.5 L 169.5 82 Q 170.8 84.3 172 81.5 L 173 79.5 L 173 63.5 L 170.5 58 L 166 54.5 L 167 52.5 L 163 50.5 Q 165.3 49.3 162.5 48 L 160.5 49 L 161 47.5 L 159.5 45 L 156.5 46 L 155.5 43 L 147.5 42 Q 145.8 44.8 139.5 43 L 135 42 L 134.5 44 L 134 42.5 Q 136.3 41.3 133.5 40 L 132 40.5 L 133 38.5 L 132.5 37 L 135 38 L 136 35.5 L 135.5 34 Z M 174 49 L 173 51 L 175 52 L 174 49 Z M 168 54 L 170 57 L 170 56 L 168 54 Z M 52 76 L 51 77 L 49 78 L 49 87 Q 51 91 57 89 Q 59 85 58 78 Q 57 75 52 76 Z M 162 155 L 162 158 L 164 157 Q 165 154 162 155 Z " /><path fill="rgb(243,173,97)" stroke="rgb(243,173,97)" stroke-width="1" opacity="1" d="M 69.5 51 L 70.5 53 L 69.5 51 Z " /><path fill="rgb(243,173,97)" stroke="rgb(243,173,97)" stroke-width="1" opacity="1" d="M 169.5 59 L 171 61.5 L 169 60.5 L 169.5 59 Z " /><path fill="rgb(243,173,97)" stroke="rgb(243,173,97)" stroke-width="1" opacity="1" d="M 43.5 106 L 45.5 109 L 43.5 106 Z " /><path fill="rgb(243,173,97)" stroke="rgb(243,173,97)" stroke-width="1" opacity="1" d="M 170.5 142 L 169.5 144 L 170.5 142 Z " /><path fill="rgb(243,173,97)" stroke="rgb(243,173,97)" stroke-width="1" opacity="1" d="M 161.5 163 L 160.5 165 L 161.5 163 Z " /><path fill="rgb(243,173,97)" stroke="rgb(243,173,97)" stroke-width="1" opacity="1" d="M 145.5 167 L 144.5 169 L 145.5 167 Z " /><path fill="rgb(243,173,97)" stroke="rgb(243,173,97)" stroke-width="1" opacity="1" d="M 75.5 179 L 88 179.5 L 75.5 180 L 75.5 179 Z " /><path fill="rgb(243,173,97)" stroke="rgb(243,173,97)" stroke-width="1" opacity="1" d="M 142.5 179 L 154 179.5 L 142.5 180 L 142.5 179 Z " /></svg>