<svg width="200" height="200" version="1.1" xmlns="http://www.w3.org/2000/svg" desc="Created with imagetracer.js version 1.2.6" ><path fill="rgb(0,0,0)" stroke="rgb(0,0,0)" stroke-width="1" opacity="0" d="M 0 0 L 200 0 L 200 200 L 0 200 L 0 0 Z M 118 21 L 113 24 L 108 24 Q 103 28 96 28 L 90 32 L 87 31 Q 81 30 80 32 Q 75 33 74 31 L 68 31 L 57 40 L 52 41 Q 48 43 49 49 Q 47 53 41 53 L 38 56 Q 39 60 36 62 L 36 73 L 37 74 L 37 83 L 36 84 L 36 104 L 38 105 L 38 115 L 36 115 Q 37 119 34 118 L 31 129 Q 30 139 32 145 L 29 147 L 29 172 L 27 173 L 27 182 L 29 183 L 96 183 L 95 180 L 95 172 L 96 171 L 96 157 L 95 156 L 95 138 L 97 134 L 108 126 L 121 112 Q 135 95 153 83 Q 155 84 154 81 L 157 81 L 157 79 L 165 77 L 167 75 L 167 67 L 161 59 L 156 60 Q 149 62 148 59 Q 140 58 138 62 Q 135 61 136 64 L 124 70 L 123 68 L 123 49 L 126 48 L 139 48 L 141 46 L 151 46 L 161 43 L 166 37 L 166 29 L 163 25 L 149 25 L 147 26 L 147 24 L 138 24 L 138 22 L 133 21 L 118 21 Z " /><path fill="rgb(245,245,246)" stroke="rgb(245,245,246)" stroke-width="1" opacity="1" d="M 118.5 27 L 132.5 27 L 147 30.5 L 141.5 31 L 131.5 28 L 119.5 28 L 106.5 32 L 106.5 31 L 118.5 27 Z " /><path fill="rgb(245,245,246)" stroke="rgb(245,245,246)" stroke-width="1" opacity="1" d="M 151.5 31 L 160 31 L 160 34.5 L 156 37.5 L 159 32 L 151.5 32 L 151.5 31 Z " /><path fill="rgb(245,245,246)" stroke="rgb(245,245,246)" stroke-width="1" opacity="1" d="M 102.5 32 L 105 32.5 L 101 34.5 L 104 36.5 L 102.5 37 L 98 34.5 L 102.5 32 Z " /><path fill="rgb(245,245,246)" stroke="rgb(245,245,246)" stroke-width="1" opacity="1" d="M 71.5 36 L 76 36.5 L 69 38.5 L 84 44.5 L 81.5 45 L 66 39.5 L 71.5 36 Z " /><path fill="rgb(245,245,246)" stroke="rgb(245,245,246)" stroke-width="1" opacity="1" d="M 79.5 36 L 87 37.5 L 83.5 38 L 79.5 37 L 79.5 36 Z " /><path fill="rgb(245,245,246)" stroke="rgb(245,245,246)" stroke-width="1" opacity="1" d="M 105.5 37 L 118.5 42 L 122.5 42 L 133.5 40 L 147.5 40 L 154.5 38 L 154.5 39 L 147.5 41 L 133.5 41 L 132.5 42 L 118.5 43 L 105.5 38 L 105.5 37 Z " /><path fill="rgb(245,245,246)" stroke="rgb(245,245,246)" stroke-width="1" opacity="1" d="M 88.5 38 L 107 45.5 L 105.5 46 L 88.5 39 L 88.5 38 Z " /><path fill="rgb(245,245,246)" stroke="rgb(245,245,246)" stroke-width="1" opacity="1" d="M 57.5 45 L 63 45.5 Q 56.7 44.7 55 48.5 Q 56.1 51.8 53.5 51 L 54 49.5 L 57.5 45 Z " /><path fill="rgb(245,245,246)" stroke="rgb(245,245,246)" stroke-width="1" opacity="1" d="M 85.5 45 Q 93.9 45.6 98 50.5 L 96.5 50 L 85.5 46 L 85.5 45 Z " /><path fill="rgb(245,245,246)" stroke="rgb(245,245,246)" stroke-width="1" opacity="1" d="M 64.5 46 L 82 51.5 L 78.5 52 L 64.5 47 L 64.5 46 Z " /><path fill="rgb(245,245,246)" stroke="rgb(245,245,246)" stroke-width="1" opacity="1" d="M 108.5 46 L 119 49 L 120 58.5 L 119 59.5 L 118.5 68 L 118 59.5 Q 120.5 58 119 52.5 L 118 50 L 108.5 47 L 108.5 46 Z " /><path fill="rgb(245,245,246)" stroke="rgb(245,245,246)" stroke-width="1" opacity="1" d="M 57.5 51 Q 76.4 52.1 87 61.5 L 89 66.5 L 88 66.5 L 85 60 Q 74 53.7 57.5 52 L 57.5 51 Z " /><path fill="rgb(245,245,246)" stroke="rgb(245,245,246)" stroke-width="1" opacity="1" d="M 99.5 51 L 104 54.5 Q 111.1 59.4 109 73.5 L 108 73.5 L 108 62.5 L 99.5 51 Z " /><path fill="rgb(245,245,246)" stroke="rgb(245,245,246)" stroke-width="1" opacity="1" d="M 83.5 52 Q 95.3 54.2 101 62.5 L 102 69.5 L 101 70.5 L 100 81.5 L 97.5 88 L 97 85.5 L 99 80.5 L 101 64.5 L 95.5 58 L 83.5 53 L 83.5 52 Z " /><path fill="rgb(245,245,246)" stroke="rgb(245,245,246)" stroke-width="1" opacity="1" d="M 47.5 57 L 54 57.5 Q 46.8 56.8 44 60.5 L 42 65.5 L 41 80.5 L 42 84.5 L 40 85.5 L 41 65.5 L 45.5 58 L 47.5 57 Z " /><path fill="rgb(245,245,246)" stroke="rgb(245,245,246)" stroke-width="1" opacity="1" d="M 55.5 58 L 59 58.5 L 55.5 59 L 55.5 58 Z " /><path fill="rgb(245,245,246)" stroke="rgb(245,245,246)" stroke-width="1" opacity="1" d="M 61.5 59 L 68.5 60 L 79 64.5 L 77.5 65 L 70.5 63 L 68.5 61 L 61.5 60 L 61.5 59 Z " /><path fill="rgb(245,245,246)" stroke="rgb(245,245,246)" stroke-width="1" opacity="1" d="M 147.5 64 Q 158.3 62.2 161 68.5 L 159.5 72 L 157.5 73 L 158.5 71 Q 160.8 71.8 160 69.5 L 157.5 66 Q 154.3 63.7 147.5 65 L 130 75 Q 131.3 78.3 126.5 77 L 124 78 L 123.5 83 L 123 78.5 L 147.5 64 Z " /><path fill="rgb(245,245,246)" stroke="rgb(245,245,246)" stroke-width="1" opacity="1" d="M 80.5 65 Q 84.3 69.3 83 78.5 L 79 88.5 L 75.5 92 Q 71.1 93.5 72 90.5 Q 69.3 88.7 71 82.5 L 73 77.5 L 72 75 L 70 74.5 L 71.5 74 Q 74.5 74.5 74 78.5 Q 70.8 81.8 72 89.5 L 75.5 91 L 82 78.5 L 82 70.5 L 80.5 65 Z " /><path fill="rgb(245,245,246)" stroke="rgb(245,245,246)" stroke-width="1" opacity="1" d="M 58.5 69 L 61.5 69 Q 63.8 72.8 69 73.5 L 66.5 74 L 61.5 70 L 59.5 70 L 57 71.5 L 58.5 69 Z " /><path fill="rgb(245,245,246)" stroke="rgb(245,245,246)" stroke-width="1" opacity="1" d="M 89.5 69 L 90 82.5 L 89 82.5 L 89.5 69 Z " /><path fill="rgb(245,245,246)" stroke="rgb(245,245,246)" stroke-width="1" opacity="1" d="M 117.5 69 L 118 75.5 L 116.5 80 L 116 76.5 L 117.5 69 Z " /><path fill="rgb(245,245,246)" stroke="rgb(245,245,246)" stroke-width="1" opacity="1" d="M 154.5 73 L 156 73.5 L 149.5 78 L 152.5 74 L 154.5 73 Z " /><path fill="rgb(245,245,246)" stroke="rgb(245,245,246)" stroke-width="1" opacity="1" d="M 57.5 75 L 65 80.5 Q 63.1 93.4 69.5 98 L 75.5 99 L 79 98 Q 79 105.7 83.5 110 L 85 110.5 L 83.5 111 Q 78 107.5 77.5 99 Q 76 101.5 70.5 100 L 64 92.5 L 63 84.5 L 64 81.5 L 58 78 L 57.5 75 Z " /><path fill="rgb(245,245,246)" stroke="rgb(245,245,246)" stroke-width="1" opacity="1" d="M 107.5 75 L 108 81.5 L 108 83.5 Q 104.9 88.9 105 97.5 L 105.5 99 Q 102.8 97.8 104 92.5 L 107.5 75 Z " /><path fill="rgb(245,245,246)" stroke="rgb(245,245,246)" stroke-width="1" opacity="1" d="M 146.5 78 L 148 78.5 L 124 98 L 124 99.5 L 103.5 121 L 91 131.5 L 90.5 133 L 90 131.5 L 94.5 126 L 110 113.5 L 111.5 111 Q 113.8 111.8 113 109.5 L 118 103.5 L 115.5 105 L 112.5 106 L 112.5 105 L 119 100.5 L 121.5 93 L 122 97.5 L 120 100.5 L 130.5 91 Q 132.8 91.8 132 89.5 L 143 82 Q 141.9 79.3 144.5 80 L 146.5 78 Z " /><path fill="rgb(245,245,246)" stroke="rgb(245,245,246)" stroke-width="1" opacity="1" d="M 115.5 83 L 116 87.5 Q 113.8 88.8 115 93.5 L 112.5 98 L 109.5 99 L 109.5 98 L 113 95.5 L 115.5 83 Z " /><path fill="rgb(245,245,246)" stroke="rgb(245,245,246)" stroke-width="1" opacity="1" d="M 88.5 84 L 89 87.5 L 88 87.5 L 88.5 84 Z " /><path fill="rgb(245,245,246)" stroke="rgb(245,245,246)" stroke-width="1" opacity="1" d="M 122.5 84 L 123 90.5 L 122 90.5 L 122.5 84 Z " /><path fill="rgb(245,245,246)" stroke="rgb(245,245,246)" stroke-width="1" opacity="1" d="M 41.5 87 L 42 95.5 L 41 95.5 L 41.5 87 Z " /><path fill="rgb(245,245,246)" stroke="rgb(245,245,246)" stroke-width="1" opacity="1" d="M 87.5 89 L 88 92.5 Q 85.2 95.2 86 101.5 L 90 104 L 95.5 92 L 96 93.5 Q 94.8 101.3 89.5 105 L 86 103.5 L 85 95.5 L 87.5 89 Z " /><path fill="rgb(245,245,246)" stroke="rgb(245,245,246)" stroke-width="1" opacity="1" d="M 42.5 98 L 43 116.5 L 37.5 132 L 37 128.5 L 42 116.5 L 42.5 98 Z " /><path fill="rgb(245,245,246)" stroke="rgb(245,245,246)" stroke-width="1" opacity="1" d="M 99.5 102 L 104 105.5 L 102.5 106 L 100.5 104 L 97 107.5 L 94.5 111 L 92 110.5 L 98 105.5 L 99.5 102 Z " /><path fill="rgb(245,245,246)" stroke="rgb(245,245,246)" stroke-width="1" opacity="1" d="M 106.5 106 L 111 106.5 L 106.5 107 L 106.5 106 Z " /><path fill="rgb(245,245,246)" stroke="rgb(245,245,246)" stroke-width="1" opacity="1" d="M 86.5 111 L 91 111.5 L 86.5 112 L 86.5 111 Z " /><path fill="rgb(245,245,246)" stroke="rgb(245,245,246)" stroke-width="1" opacity="1" d="M 89.5 136 L 90 157.5 L 83.5 163 L 66.5 163 L 59 160.5 L 63.5 160 L 66.5 162 L 84 162 Q 82.8 159 86.5 160 Q 90.7 157.2 89 148.5 L 88 144.5 L 89.5 136 Z " /><path fill="rgb(245,245,246)" stroke="rgb(245,245,246)" stroke-width="1" opacity="1" d="M 36.5 137 L 37 143.5 L 36 143.5 L 36.5 137 Z " /><path fill="rgb(245,245,246)" stroke="rgb(245,245,246)" stroke-width="1" opacity="1" d="M 35.5 149 L 36 151 L 51 157.5 L 48.5 158 L 35 150.5 L 35.5 149 Z " /><path fill="rgb(245,245,246)" stroke="rgb(245,245,246)" stroke-width="1" opacity="1" d="M 52.5 158 L 55 158.5 L 52.5 159 L 52.5 158 Z " /><path fill="rgb(247,247,247)" stroke="rgb(247,247,247)" stroke-width="1" opacity="0.9921568627450981" d="M 40.5 53 L 38.5 56 L 40.5 53 Z " /><path fill="rgb(247,247,247)" stroke="rgb(247,247,247)" stroke-width="1" opacity="0.9921568627450981" d="M 160.5 59 L 161.5 61 L 160.5 59 Z " /><path fill="rgb(247,247,247)" stroke="rgb(247,247,247)" stroke-width="1" opacity="0.9921568627450981" d="M 132.5 99 L 131.5 101 L 132.5 99 Z " /><path fill="rgb(247,247,247)" stroke="rgb(247,247,247)" stroke-width="1" opacity="0.9921568627450981" d="M 125.5 106 L 124.5 108 L 125.5 106 Z " /><path fill="rgb(247,247,247)" stroke="rgb(247,247,247)" stroke-width="1" opacity="0.9921568627450981" d="M 105.5 126 L 104.5 128 L 105.5 126 Z " /><path fill="rgb(123,123,123)" stroke="rgb(123,123,123)" stroke-width="1" opacity="0.21568627450980393" d="M 117.5 21 L 132.5 21 L 138 23.5 L 136.5 24 Q 130.8 20.8 120.5 22 L 113.5 24 L 114.5 22 L 117.5 21 Z " /><path fill="rgb(123,123,123)" stroke="rgb(123,123,123)" stroke-width="1" opacity="0.21568627450980393" d="M 108.5 24 L 111 24.5 L 94.5 31 L 93 30.5 L 91.5 33 Q 86.1 33.9 84 31.5 L 86.5 31 L 89.5 32 L 95.5 28 L 108.5 24 Z " /><path fill="rgb(123,123,123)" stroke="rgb(123,123,123)" stroke-width="1" opacity="0.21568627450980393" d="M 141.5 24 L 147 24.5 L 141.5 25 L 141.5 24 Z " /><path fill="rgb(123,123,123)" stroke="rgb(123,123,123)" stroke-width="1" opacity="0.21568627450980393" d="M 151.5 25 L 162.5 25 L 165 27.5 L 166 36.5 Q 162.3 43.8 152.5 45 L 152.5 44 Q 160.6 42.6 164 36.5 L 165 30.5 L 162.5 27 Q 159 24.5 151.5 26 L 151.5 25 Z " /><path fill="rgb(123,123,123)" stroke="rgb(123,123,123)" stroke-width="1" opacity="0.21568627450980393" d="M 68.5 31 L 71 31.5 Q 63.9 33.4 60 38.5 Q 60.8 40.8 58.5 40 L 53.5 43 L 52 42.5 L 49.5 47 L 50 45.5 L 51 41 L 56.5 40 Q 60.3 33.3 68.5 31 Z " /><path fill="rgb(123,123,123)" stroke="rgb(123,123,123)" stroke-width="1" opacity="0.21568627450980393" d="M 147.5 45 L 151 45.5 L 147.5 46 L 147.5 45 Z " /><path fill="rgb(123,123,123)" stroke="rgb(123,123,123)" stroke-width="1" opacity="0.21568627450980393" d="M 127.5 46 L 140 46.5 L 137.5 48 L 125.5 48 L 124.5 49 L 124 47 L 127.5 46 Z " /><path fill="rgb(123,123,123)" stroke="rgb(123,123,123)" stroke-width="1" opacity="0.21568627450980393" d="M 48.5 49 L 49 51.5 L 42.5 55 Q 41.3 52.7 40 55.5 Q 42.5 57 39 58.5 L 36.5 64 L 36 61.5 L 38 56.5 L 41.5 53 Q 46.7 52.7 48.5 49 Z " /><path fill="rgb(123,123,123)" stroke="rgb(123,123,123)" stroke-width="1" opacity="0.21568627450980393" d="M 143.5 59 L 148 59.5 L 138.5 63 L 124.5 72 L 123 69.5 L 124 69.5 L 124.5 71 L 136 63.5 Q 135.3 61.3 137.5 62 L 143.5 59 Z " /><path fill="rgb(123,123,123)" stroke="rgb(123,123,123)" stroke-width="1" opacity="0.21568627450980393" d="M 156.5 59 L 159.5 59 L 166 65.5 L 167 74.5 L 147.5 86 L 131 100.5 L 126.5 106 L 124 107.5 Q 117.9 118.9 107.5 126 L 104 127.5 Q 104.8 129.8 102.5 129 L 97 133.5 L 95 137.5 L 95 155.5 L 96 156.5 L 96 170.5 L 95 170.5 L 94 136.5 L 100.5 128 L 104.5 126 L 120 110.5 L 136.5 93 L 147 86 Q 145.9 83.3 148.5 84 L 166 73.5 L 165 66.5 L 158.5 60 Q 155.5 60.5 156.5 59 Z " /><path fill="rgb(123,123,123)" stroke="rgb(123,123,123)" stroke-width="1" opacity="0.21568627450980393" d="M 36.5 96 L 38 102.5 L 36 103.5 L 36.5 96 Z " /><path fill="rgb(123,123,123)" stroke="rgb(123,123,123)" stroke-width="1" opacity="0.21568627450980393" d="M 36.5 114 L 37 116.5 L 36 116.5 L 36.5 114 Z " /><path fill="rgb(123,123,123)" stroke="rgb(123,123,123)" stroke-width="1" opacity="0.21568627450980393" d="M 35.5 118 L 36 119.5 Q 30.9 127.4 31.5 141 L 31 128.5 L 35.5 118 Z " /><path fill="rgb(123,123,123)" stroke="rgb(123,123,123)" stroke-width="1" opacity="0.21568627450980393" d="M 30.5 145 L 32 145.5 L 30 148.5 L 29.5 159 L 29 146.5 L 30.5 145 Z " /><path fill="rgb(123,123,123)" stroke="rgb(123,123,123)" stroke-width="1" opacity="0.21568627450980393" d="M 28.5 172 L 29 177.5 L 28 179.5 L 30.5 182 L 80.5 182 L 81.5 181 L 94.5 181 L 95.5 180 L 96 183 L 28.5 183 L 28 181.5 Q 25.3 179.8 27 173.5 L 28.5 172 Z " /><path fill="rgb(239,239,239)" stroke="rgb(239,239,239)" stroke-width="1" opacity="1" d="M 120.5 26 L 131 26.5 L 120.5 27 L 120.5 26 Z " /><path fill="rgb(239,239,239)" stroke="rgb(239,239,239)" stroke-width="1" opacity="1" d="M 115.5 27 L 118 27.5 L 103.5 32 L 103.5 31 L 115.5 27 Z " /><path fill="rgb(239,239,239)" stroke="rgb(239,239,239)" stroke-width="1" opacity="1" d="M 133.5 27 L 147.5 30 L 161 30 Q 162.3 37.3 156.5 39 L 153.5 40 L 153.5 39 L 160 34.5 L 159.5 31 L 147.5 31 L 133.5 28 L 133.5 27 Z " /><path fill="rgb(239,239,239)" stroke="rgb(239,239,239)" stroke-width="1" opacity="1" d="M 100.5 32 L 102 32.5 L 98 34.5 L 98.5 36 L 96 34.5 L 100.5 32 Z " /><path fill="rgb(239,239,239)" stroke="rgb(239,239,239)" stroke-width="1" opacity="1" d="M 71.5 35 Q 85.3 33.3 92 38.5 L 90.5 39 Q 84.3 34.2 71.5 36 L 66 39.5 L 75 42.5 L 73.5 43 L 65 39.5 L 71.5 35 Z " /><path fill="rgb(239,239,239)" stroke="rgb(239,239,239)" stroke-width="1" opacity="1" d="M 103.5 37 L 107 38.5 L 105.5 39 L 103.5 37 Z " /><path fill="rgb(239,239,239)" stroke="rgb(239,239,239)" stroke-width="1" opacity="1" d="M 93.5 39 L 110 45.5 L 107.5 46 L 93.5 40 L 93.5 39 Z " /><path fill="rgb(239,239,239)" stroke="rgb(239,239,239)" stroke-width="1" opacity="1" d="M 108.5 39 L 118 42.5 L 116.5 43 L 108.5 40 L 108.5 39 Z " /><path fill="rgb(239,239,239)" stroke="rgb(239,239,239)" stroke-width="1" opacity="1" d="M 148.5 40 L 152 40.5 Q 145.3 43.8 133.5 42 L 133.5 41 L 147.5 41 L 148.5 40 Z " /><path fill="rgb(239,239,239)" stroke="rgb(239,239,239)" stroke-width="1" opacity="1" d="M 124.5 42 L 130 42.5 L 119.5 44 L 119.5 43 L 124.5 42 Z " /><path fill="rgb(239,239,239)" stroke="rgb(239,239,239)" stroke-width="1" opacity="1" d="M 58.5 44 L 62 44.5 L 58.5 45 L 58.5 44 Z " /><path fill="rgb(239,239,239)" stroke="rgb(239,239,239)" stroke-width="1" opacity="1" d="M 56.5 45 L 54 48.5 L 53 50.5 L 57 51.5 L 53.5 52 L 52 49.5 L 54 46 L 56.5 45 Z " /><path fill="rgb(239,239,239)" stroke="rgb(239,239,239)" stroke-width="1" opacity="1" d="M 63.5 45 L 66 45.5 L 63.5 46 L 63.5 45 Z " /><path fill="rgb(239,239,239)" stroke="rgb(239,239,239)" stroke-width="1" opacity="1" d="M 82.5 45 L 92 48.5 L 90.5 49 L 82.5 46 L 82.5 45 Z " /><path fill="rgb(239,239,239)" stroke="rgb(239,239,239)" stroke-width="1" opacity="1" d="M 111.5 46 L 115 47.5 L 113.5 48 L 111.5 46 Z " /><path fill="rgb(239,239,239)" stroke="rgb(239,239,239)" stroke-width="1" opacity="1" d="M 70.5 47 L 87 52.5 L 85.5 53 L 70.5 48 L 70.5 47 Z " /><path fill="rgb(239,239,239)" stroke="rgb(239,239,239)" stroke-width="1" opacity="1" d="M 116.5 48 L 120 49.5 L 119.5 52 L 119 49 Q 115.7 49.7 116.5 48 Z " /><path fill="rgb(239,239,239)" stroke="rgb(239,239,239)" stroke-width="1" opacity="1" d="M 95.5 50 L 98.5 51 L 106 58.5 L 98.5 52 Q 94.8 51.7 95.5 50 Z " /><path fill="rgb(239,239,239)" stroke="rgb(239,239,239)" stroke-width="1" opacity="1" d="M 58.5 52 L 62 52.5 L 58.5 53 L 58.5 52 Z " /><path fill="rgb(239,239,239)" stroke="rgb(239,239,239)" stroke-width="1" opacity="1" d="M 63.5 53 L 73 55.5 L 70.5 56 L 63.5 54 L 63.5 53 Z " /><path fill="rgb(239,239,239)" stroke="rgb(239,239,239)" stroke-width="1" opacity="1" d="M 88.5 53 L 92 54.5 L 90.5 55 L 88.5 53 Z " /><path fill="rgb(239,239,239)" stroke="rgb(239,239,239)" stroke-width="1" opacity="1" d="M 93.5 55 L 100 59.5 L 102 63.5 L 101 63.5 L 95.5 57 L 93.5 55 Z " /><path fill="rgb(239,239,239)" stroke="rgb(239,239,239)" stroke-width="1" opacity="1" d="M 47.5 56 L 53 56.5 Q 45.5 56 43 60.5 Q 40.3 64.8 40.5 72 L 40 65.5 Q 41.3 59.8 45.5 57 L 47.5 56 Z " /><path fill="rgb(239,239,239)" stroke="rgb(239,239,239)" stroke-width="1" opacity="1" d="M 54.5 57 L 58 57.5 L 54.5 58 L 54.5 57 Z " /><path fill="rgb(239,239,239)" stroke="rgb(239,239,239)" stroke-width="1" opacity="1" d="M 77.5 57 L 85 60 L 87 63.5 L 82.5 60 L 77.5 58 L 77.5 57 Z " /><path fill="rgb(239,239,239)" stroke="rgb(239,239,239)" stroke-width="1" opacity="1" d="M 59.5 58 L 63 58.5 L 59.5 59 L 59.5 58 Z " /><path fill="rgb(239,239,239)" stroke="rgb(239,239,239)" stroke-width="1" opacity="1" d="M 64.5 59 L 68 59.5 L 64.5 60 L 64.5 59 Z " /><path fill="rgb(239,239,239)" stroke="rgb(239,239,239)" stroke-width="1" opacity="1" d="M 119.5 59 L 120 67.5 L 118.5 75 L 118 68.5 L 119 67.5 L 119.5 59 Z " /><path fill="rgb(239,239,239)" stroke="rgb(239,239,239)" stroke-width="1" opacity="1" d="M 69.5 60 Q 77.3 61.3 82 65.5 L 80.5 65 L 69.5 61 L 69.5 60 Z " /><path fill="rgb(239,239,239)" stroke="rgb(239,239,239)" stroke-width="1" opacity="1" d="M 107.5 62 L 108 74.5 L 105.5 87 L 105 82.5 L 107 74.5 L 107.5 62 Z " /><path fill="rgb(239,239,239)" stroke="rgb(239,239,239)" stroke-width="1" opacity="1" d="M 148.5 63 Q 158.6 61.4 161 67.5 L 157.5 65 L 148.5 64 L 148.5 63 Z " /><path fill="rgb(239,239,239)" stroke="rgb(239,239,239)" stroke-width="1" opacity="1" d="M 87.5 65 L 89 67.5 L 89 83.5 L 85.5 95 L 85 93.5 L 88 82.5 L 88 68.5 L 87.5 65 Z " /><path fill="rgb(239,239,239)" stroke="rgb(239,239,239)" stroke-width="1" opacity="1" d="M 141.5 66 L 140.5 68 L 123.5 78 L 123 76 L 129.5 74 L 141.5 66 Z " /><path fill="rgb(239,239,239)" stroke="rgb(239,239,239)" stroke-width="1" opacity="1" d="M 82.5 67 L 83 69.5 L 82 69.5 L 82.5 67 Z " /><path fill="rgb(239,239,239)" stroke="rgb(239,239,239)" stroke-width="1" opacity="1" d="M 161.5 69 L 162 72 Q 134.7 85.3 116 108.5 L 103.5 122 L 93 130.5 Q 90.3 132.8 90.5 138 L 90 133.5 L 97.5 125 L 115 109.5 L 124 98 L 145.5 80 L 161 70.5 L 161.5 69 Z " /><path fill="rgb(239,239,239)" stroke="rgb(239,239,239)" stroke-width="1" opacity="1" d="M 59.5 70 L 72 75.5 L 70.5 76 L 59.5 71 L 58 74.5 L 63 78.5 L 61.5 78 L 57 74.5 Q 56.5 70.5 59.5 70 Z " /><path fill="rgb(239,239,239)" stroke="rgb(239,239,239)" stroke-width="1" opacity="1" d="M 101.5 70 L 102 74.5 L 101 74.5 L 101.5 70 Z " /><path fill="rgb(239,239,239)" stroke="rgb(239,239,239)" stroke-width="1" opacity="1" d="M 83.5 72 L 84 76.5 L 83 76.5 L 83.5 72 Z " /><path fill="rgb(239,239,239)" stroke="rgb(239,239,239)" stroke-width="1" opacity="1" d="M 39.5 73 L 40 81.5 L 39 81.5 L 39.5 73 Z " /><path fill="rgb(239,239,239)" stroke="rgb(239,239,239)" stroke-width="1" opacity="1" d="M 100.5 76 L 101 81.5 L 97.5 90 L 97 88.5 Q 100.5 84 100.5 76 Z " /><path fill="rgb(239,239,239)" stroke="rgb(239,239,239)" stroke-width="1" opacity="1" d="M 117.5 76 L 118 78.5 L 117 78.5 L 117.5 76 Z " /><path fill="rgb(239,239,239)" stroke="rgb(239,239,239)" stroke-width="1" opacity="1" d="M 64.5 79 L 66 80.5 L 66 90.5 L 69.5 97 L 71 97.5 L 69.5 98 L 65 90.5 L 65 80.5 L 64.5 79 Z " /><path fill="rgb(239,239,239)" stroke="rgb(239,239,239)" stroke-width="1" opacity="1" d="M 82.5 79 L 83 81.5 L 81.5 84 L 81 82.5 L 82.5 79 Z " /><path fill="rgb(239,239,239)" stroke="rgb(239,239,239)" stroke-width="1" opacity="1" d="M 122.5 79 L 123 83.5 L 122 83.5 L 122.5 79 Z " /><path fill="rgb(239,239,239)" stroke="rgb(239,239,239)" stroke-width="1" opacity="1" d="M 116.5 80 L 117 83.5 L 116 83.5 L 116.5 80 Z " /><path fill="rgb(239,239,239)" stroke="rgb(239,239,239)" stroke-width="1" opacity="1" d="M 70.5 84 L 71 87.5 L 70 87.5 L 70.5 84 Z " /><path fill="rgb(239,239,239)" stroke="rgb(239,239,239)" stroke-width="1" opacity="1" d="M 80.5 85 L 81 86.5 L 75.5 93 Q 71.8 93.8 71 91.5 L 71.5 90 L 72 92 Q 77.6 93 79 88.5 L 80.5 85 Z " /><path fill="rgb(239,239,239)" stroke="rgb(239,239,239)" stroke-width="1" opacity="1" d="M 121.5 85 L 122 92.5 Q 120.8 100.3 115.5 104 Q 112.2 107.2 104.5 106 L 99.5 102 L 98.5 104 L 98 102.5 Q 100.2 98.7 102.5 104 L 111.5 105 L 118 100.5 Q 121.7 94.7 121.5 85 Z " /><path fill="rgb(239,239,239)" stroke="rgb(239,239,239)" stroke-width="1" opacity="1" d="M 40.5 86 L 41 95.5 L 42 96.5 L 42 116.5 L 40.5 120 L 40 117.5 L 41 116.5 L 41 96.5 L 40 95.5 L 40.5 86 Z " /><path fill="rgb(239,239,239)" stroke="rgb(239,239,239)" stroke-width="1" opacity="1" d="M 115.5 88 L 116 92.5 L 115 92.5 L 115.5 88 Z " /><path fill="rgb(239,239,239)" stroke="rgb(239,239,239)" stroke-width="1" opacity="1" d="M 104.5 89 L 105 91.5 L 104 91.5 L 104.5 89 Z " /><path fill="rgb(239,239,239)" stroke="rgb(239,239,239)" stroke-width="1" opacity="1" d="M 95.5 94 L 96 96.5 L 95 96.5 L 95.5 94 Z " /><path fill="rgb(239,239,239)" stroke="rgb(239,239,239)" stroke-width="1" opacity="1" d="M 114.5 94 L 115 96.5 Q 113.1 101.1 105.5 100 L 103 96.5 L 104 96.5 L 105.5 99 Q 112 100 114 96.5 L 114.5 94 Z " /><path fill="rgb(239,239,239)" stroke="rgb(239,239,239)" stroke-width="1" opacity="1" d="M 79.5 96 L 81 104.5 L 80 104.5 L 79 98 L 77 97.5 L 79.5 96 Z " /><path fill="rgb(239,239,239)" stroke="rgb(239,239,239)" stroke-width="1" opacity="1" d="M 72.5 98 L 76 98.5 L 72.5 99 L 72.5 98 Z " /><path fill="rgb(239,239,239)" stroke="rgb(239,239,239)" stroke-width="1" opacity="1" d="M 94.5 98 L 95 99.5 L 90.5 105 L 93 101.5 L 94.5 98 Z " /><path fill="rgb(239,239,239)" stroke="rgb(239,239,239)" stroke-width="1" opacity="1" d="M 85.5 102 L 87 104.5 L 85 103.5 L 85.5 102 Z " /><path fill="rgb(239,239,239)" stroke="rgb(239,239,239)" stroke-width="1" opacity="1" d="M 97.5 105 L 93.5 110 L 85.5 111 L 82 108.5 L 81 106.5 L 85.5 110 Q 95.4 111.4 97.5 105 Z " /><path fill="rgb(239,239,239)" stroke="rgb(239,239,239)" stroke-width="1" opacity="1" d="M 39.5 121 L 40 122.5 L 37.5 128 L 37 125.5 L 39.5 121 Z " /><path fill="rgb(239,239,239)" stroke="rgb(239,239,239)" stroke-width="1" opacity="1" d="M 36.5 129 L 37 136.5 L 36 136.5 L 36.5 129 Z " /><path fill="rgb(239,239,239)" stroke="rgb(239,239,239)" stroke-width="1" opacity="1" d="M 35.5 139 L 36 148.5 L 35 150.5 L 46 156.5 L 44.5 157 L 34 150.5 L 35.5 139 Z " /><path fill="rgb(239,239,239)" stroke="rgb(239,239,239)" stroke-width="1" opacity="1" d="M 49.5 158 L 52 158.5 L 49.5 159 L 49.5 158 Z " /><path fill="rgb(239,239,239)" stroke="rgb(239,239,239)" stroke-width="1" opacity="1" d="M 89.5 158 L 85.5 163 L 84 162.5 L 89.5 158 Z " /><path fill="rgb(239,239,239)" stroke="rgb(239,239,239)" stroke-width="1" opacity="1" d="M 53.5 159 L 66 162.5 L 63.5 163 L 53.5 160 L 53.5 159 Z " /><path fill="rgb(239,239,239)" stroke="rgb(239,239,239)" stroke-width="1" opacity="1" d="M 68.5 163 L 83 163.5 L 68.5 164 L 68.5 163 Z " /><path fill="rgb(247,247,247)" stroke="rgb(247,247,247)" stroke-width="1" opacity="1" d="M 119.5 28 L 131.5 28 L 141.5 31 L 159 32 L 156 38 L 147.5 40 L 133.5 40 L 132.5 41 L 118.5 42 L 101 34.5 L 119.5 28 Z " /><path fill="rgb(247,247,247)" stroke="rgb(247,247,247)" stroke-width="1" opacity="1" d="M 76.5 36 L 87.5 38 L 99.5 44 L 118 50 Q 119.8 52.4 119 58.5 L 118 59.5 L 118 68.5 L 117 69.5 L 116 82.5 L 114 86.5 L 114 92.5 L 110.5 98 L 106.5 99 Q 104 98 105 93.5 L 108 83.5 L 108 81.5 L 109 62.5 L 101.5 52 L 93.5 47 L 88.5 45 L 84.5 45 L 69 38.5 L 76.5 36 Z " /><path fill="rgb(247,247,247)" stroke="rgb(247,247,247)" stroke-width="1" opacity="1" d="M 57.5 46 L 63.5 46 L 78.5 52 L 82.5 52 Q 86 55.5 92.5 56 L 99 61.5 Q 101.8 63.2 101 68.5 L 97 88.5 L 90 104 L 86 101.5 L 86 96.5 L 90 82.5 L 90 69.5 L 89 64.5 L 84.5 59 Q 72.8 51.4 55 51 Q 54.3 47.2 57.5 46 Z " /><path fill="rgb(247,247,247)" stroke="rgb(247,247,247)" stroke-width="1" opacity="1" d="M 47.5 58 L 60.5 59 L 80 65 Q 83 69.3 82 78.5 L 75.5 91 L 72 89.5 Q 71.1 81.1 74 76.5 L 71.5 74 L 64.5 72 L 61.5 69 L 58.5 69 Q 55.8 70.3 57 75.5 L 58 78 L 64 81.5 L 63 87.5 L 65 94.5 L 70.5 100 Q 76 101.5 77.5 99 Q 78.1 107.4 83.5 111 L 90.5 112 L 94.5 111 L 97 108.5 L 100.5 104 L 102.5 106 L 110.5 107 Q 117 105.5 120 100.5 L 122 97.5 L 124 78 L 130 77 Q 128.9 74.3 131.5 75 L 144.5 66 L 155.5 65 L 159 67.5 L 160 71 L 143 80 Q 144.1 82.7 141.5 82 L 132 89.5 Q 132.8 91.8 130.5 91 Q 119.6 99.5 113 111 L 110 112.5 L 108.5 115 L 91 129.5 L 89 136.5 L 88 147.5 L 89 148.5 L 89 156.5 L 86.5 160 L 84 160 L 83.5 162 L 66.5 162 L 63.5 160 L 58.5 160 L 51.5 158 L 36 151 L 37 132.5 L 43 116.5 L 43 98.5 L 42 97.5 Q 43.7 89.3 41 85.5 L 42 81.5 Q 39.7 80.3 41 75.5 L 42 74.5 L 42 65.5 L 45.5 59 L 47.5 58 Z " /><path fill="rgb(77,77,77)" stroke="rgb(77,77,77)" stroke-width="1" opacity="0.9215686274509803" d="M 120.5 22 L 131 22.5 L 120.5 23 L 120.5 22 Z " /><path fill="rgb(77,77,77)" stroke="rgb(77,77,77)" stroke-width="1" opacity="0.9215686274509803" d="M 111.5 24 L 113 24.5 L 109.5 26 L 109.5 25 L 111.5 24 Z " /><path fill="rgb(77,77,77)" stroke="rgb(77,77,77)" stroke-width="1" opacity="0.9215686274509803" d="M 121.5 24 L 128 24.5 L 117.5 26 L 117.5 25 L 121.5 24 Z " /><path fill="rgb(77,77,77)" stroke="rgb(77,77,77)" stroke-width="1" opacity="0.9215686274509803" d="M 139.5 24 L 147 25.5 L 141.5 26 L 139.5 24 Z " /><path fill="rgb(77,77,77)" stroke="rgb(77,77,77)" stroke-width="1" opacity="0.9215686274509803" d="M 129.5 25 L 139 26.5 L 135.5 27 Q 134.3 24.8 129.5 26 L 129.5 25 Z " /><path fill="rgb(77,77,77)" stroke="rgb(77,77,77)" stroke-width="1" opacity="0.9215686274509803" d="M 148.5 25 L 161 26.5 L 149.5 27 L 148.5 25 Z " /><path fill="rgb(77,77,77)" stroke="rgb(77,77,77)" stroke-width="1" opacity="0.9215686274509803" d="M 113.5 26 L 116 26.5 L 110.5 28 L 110.5 27 L 113.5 26 Z " /><path fill="rgb(77,77,77)" stroke="rgb(77,77,77)" stroke-width="1" opacity="0.9215686274509803" d="M 140.5 27 L 144 27.5 L 140.5 28 L 140.5 27 Z " /><path fill="rgb(77,77,77)" stroke="rgb(77,77,77)" stroke-width="1" opacity="0.9215686274509803" d="M 162.5 27 Q 165.8 28.7 165 34.5 L 162.5 38 L 163 36.5 L 164 30.5 L 162.5 27 Z " /><path fill="rgb(77,77,77)" stroke="rgb(77,77,77)" stroke-width="1" opacity="0.9215686274509803" d="M 146.5 28 L 160 28.5 L 146.5 29 L 146.5 28 Z " /><path fill="rgb(77,77,77)" stroke="rgb(77,77,77)" stroke-width="1" opacity="0.9215686274509803" d="M 161.5 29 L 163 33.5 L 160 39 L 155.5 41 L 155.5 40 L 161 35.5 L 162 31.5 L 161.5 29 Z " /><path fill="rgb(77,77,77)" stroke="rgb(77,77,77)" stroke-width="1" opacity="0.9215686274509803" d="M 95.5 30 L 97 30.5 L 92.5 33 L 93.5 31 L 95.5 30 Z " /><path fill="rgb(77,77,77)" stroke="rgb(77,77,77)" stroke-width="1" opacity="0.9215686274509803" d="M 101.5 30 L 103 30.5 L 94 34.5 L 94.5 36 Q 91.5 34.5 94.5 33 L 101.5 30 Z " /><path fill="rgb(77,77,77)" stroke="rgb(77,77,77)" stroke-width="1" opacity="0.9215686274509803" d="M 71.5 31 L 70.5 33 L 69 32.5 L 71.5 31 Z " /><path fill="rgb(77,77,77)" stroke="rgb(77,77,77)" stroke-width="1" opacity="0.9215686274509803" d="M 82.5 31 L 86 32.5 L 84.5 33 L 82.5 31 Z " /><path fill="rgb(77,77,77)" stroke="rgb(77,77,77)" stroke-width="1" opacity="0.9215686274509803" d="M 73.5 33 L 81 33.5 L 73.5 34 L 73.5 33 Z " /><path fill="rgb(77,77,77)" stroke="rgb(77,77,77)" stroke-width="1" opacity="0.9215686274509803" d="M 87.5 33 L 91 33.5 L 87.5 34 L 87.5 33 Z " /><path fill="rgb(77,77,77)" stroke="rgb(77,77,77)" stroke-width="1" opacity="0.9215686274509803" d="M 69.5 34 L 72 34.5 Q 65.9 35.4 63 39.5 L 62.5 41 L 62 39.5 L 69.5 34 Z " /><path fill="rgb(77,77,77)" stroke="rgb(77,77,77)" stroke-width="1" opacity="0.9215686274509803" d="M 82.5 34 L 85 34.5 L 82.5 35 L 82.5 34 Z " /><path fill="rgb(77,77,77)" stroke="rgb(77,77,77)" stroke-width="1" opacity="0.9215686274509803" d="M 63.5 35 L 60.5 39 L 63.5 35 Z " /><path fill="rgb(77,77,77)" stroke="rgb(77,77,77)" stroke-width="1" opacity="0.9215686274509803" d="M 89.5 36 L 94 37.5 L 92.5 38 L 89.5 37 L 89.5 36 Z " /><path fill="rgb(77,77,77)" stroke="rgb(77,77,77)" stroke-width="1" opacity="0.9215686274509803" d="M 96.5 36 L 105 39.5 L 103.5 40 L 96.5 37 L 96.5 36 Z " /><path fill="rgb(77,77,77)" stroke="rgb(77,77,77)" stroke-width="1" opacity="0.9215686274509803" d="M 95.5 38 L 101 40.5 L 99.5 41 L 95.5 39 L 95.5 38 Z " /><path fill="rgb(77,77,77)" stroke="rgb(77,77,77)" stroke-width="1" opacity="0.9215686274509803" d="M 102.5 41 L 106 42.5 L 104.5 43 L 102.5 41 Z " /><path fill="rgb(77,77,77)" stroke="rgb(77,77,77)" stroke-width="1" opacity="0.9215686274509803" d="M 67.5 42 L 70 42.5 L 67.5 43 L 67.5 42 Z " /><path fill="rgb(77,77,77)" stroke="rgb(77,77,77)" stroke-width="1" opacity="0.9215686274509803" d="M 147.5 42 L 154 43.5 L 145.5 46 L 146.5 44 L 151 43.5 Q 146.6 43.9 147.5 42 Z " /><path fill="rgb(77,77,77)" stroke="rgb(77,77,77)" stroke-width="1" opacity="0.9215686274509803" d="M 52.5 43 L 52 44.5 L 52.5 46 L 57.5 43 L 57.5 44 L 53 46.5 L 52 51.5 L 52.5 53 L 51 53 L 51 48 L 49.5 48 L 51 45.5 L 52.5 43 Z " /><path fill="rgb(77,77,77)" stroke="rgb(77,77,77)" stroke-width="1" opacity="0.9215686274509803" d="M 62.5 43 L 65 43.5 L 62.5 44 L 62.5 43 Z " /><path fill="rgb(77,77,77)" stroke="rgb(77,77,77)" stroke-width="1" opacity="0.9215686274509803" d="M 71.5 43 L 79 45.5 L 77.5 46 L 71.5 44 L 71.5 43 Z " /><path fill="rgb(77,77,77)" stroke="rgb(77,77,77)" stroke-width="1" opacity="0.9215686274509803" d="M 127.5 43 L 145 43.5 L 127.5 44 L 127.5 43 Z " /><path fill="rgb(77,77,77)" stroke="rgb(77,77,77)" stroke-width="1" opacity="0.9215686274509803" d="M 110.5 44 L 114 45.5 L 112.5 46 L 110.5 44 Z " /><path fill="rgb(77,77,77)" stroke="rgb(77,77,77)" stroke-width="1" opacity="0.9215686274509803" d="M 117.5 44 L 122.5 45 L 125.5 44 L 125.5 45 L 120.5 46 L 117.5 45 L 117.5 44 Z " /><path fill="rgb(77,77,77)" stroke="rgb(77,77,77)" stroke-width="1" opacity="0.9215686274509803" d="M 127.5 45 L 139 45.5 L 125.5 47 L 125.5 46 L 127.5 45 Z " /><path fill="rgb(77,77,77)" stroke="rgb(77,77,77)" stroke-width="1" opacity="0.9215686274509803" d="M 72.5 46 L 78 47.5 L 75.5 48 L 72.5 47 L 72.5 46 Z " /><path fill="rgb(77,77,77)" stroke="rgb(77,77,77)" stroke-width="1" opacity="0.9215686274509803" d="M 115.5 46 Q 120.3 46.3 122 49.5 L 121.5 65 L 121 49.5 L 119.5 48 L 115.5 47 L 115.5 46 Z " /><path fill="rgb(77,77,77)" stroke="rgb(77,77,77)" stroke-width="1" opacity="0.9215686274509803" d="M 89.5 49 Q 99.8 51.8 105 59.5 L 106 62.5 L 105 62.5 Q 103.6 56.4 98.5 54 L 89.5 50 L 89.5 49 Z " /><path fill="rgb(77,77,77)" stroke="rgb(77,77,77)" stroke-width="1" opacity="0.9215686274509803" d="M 85.5 50 L 95 54.5 L 93.5 54 L 85.5 51 L 85.5 50 Z " /><path fill="rgb(77,77,77)" stroke="rgb(77,77,77)" stroke-width="1" opacity="0.9215686274509803" d="M 54.5 53 L 58 53.5 L 54.5 54 L 54.5 53 Z " /><path fill="rgb(77,77,77)" stroke="rgb(77,77,77)" stroke-width="1" opacity="0.9215686274509803" d="M 60.5 54 L 63 54.5 L 60.5 55 L 60.5 54 Z " /><path fill="rgb(77,77,77)" stroke="rgb(77,77,77)" stroke-width="1" opacity="0.9215686274509803" d="M 45.5 55 L 47 55.5 L 41 60.5 L 40.5 62 L 40 60.5 L 43.5 56 L 45.5 55 Z " /><path fill="rgb(77,77,77)" stroke="rgb(77,77,77)" stroke-width="1" opacity="0.9215686274509803" d="M 52.5 55 L 56 55.5 L 52.5 56 L 52.5 55 Z " /><path fill="rgb(77,77,77)" stroke="rgb(77,77,77)" stroke-width="1" opacity="0.9215686274509803" d="M 96.5 55 L 102 59.5 Q 106 63 104 72.5 L 103 72.5 L 103 62.5 L 98.5 57 L 96.5 55 Z " /><path fill="rgb(77,77,77)" stroke="rgb(77,77,77)" stroke-width="1" opacity="0.9215686274509803" d="M 58.5 56 L 62 56.5 L 58.5 57 L 58.5 56 Z " /><path fill="rgb(77,77,77)" stroke="rgb(77,77,77)" stroke-width="1" opacity="0.9215686274509803" d="M 68.5 56 L 71 56.5 L 68.5 57 L 68.5 56 Z " /><path fill="rgb(77,77,77)" stroke="rgb(77,77,77)" stroke-width="1" opacity="0.9215686274509803" d="M 40.5 57 L 39.5 59 L 40.5 57 Z " /><path fill="rgb(77,77,77)" stroke="rgb(77,77,77)" stroke-width="1" opacity="0.9215686274509803" d="M 63.5 57 L 66 57.5 L 63.5 58 L 63.5 57 Z " /><path fill="rgb(77,77,77)" stroke="rgb(77,77,77)" stroke-width="1" opacity="0.9215686274509803" d="M 72.5 57 L 77 58.5 L 75.5 59 L 72.5 58 L 72.5 57 Z " /><path fill="rgb(77,77,77)" stroke="rgb(77,77,77)" stroke-width="1" opacity="0.9215686274509803" d="M 67.5 58 L 73 59.5 L 70.5 60 L 67.5 59 L 67.5 58 Z " /><path fill="rgb(77,77,77)" stroke="rgb(77,77,77)" stroke-width="1" opacity="0.9215686274509803" d="M 157.5 60 L 160 61.5 L 158.5 61 L 157.5 60 Z " /><path fill="rgb(77,77,77)" stroke="rgb(77,77,77)" stroke-width="1" opacity="0.9215686274509803" d="M 77.5 61 L 84 65.5 L 85 72.5 L 84 72.5 Q 85.1 64.9 80.5 63 Q 76.8 62.7 77.5 61 Z " /><path fill="rgb(77,77,77)" stroke="rgb(77,77,77)" stroke-width="1" opacity="0.9215686274509803" d="M 82.5 61 L 86 65.5 L 85 65.5 L 82.5 61 Z " /><path fill="rgb(77,77,77)" stroke="rgb(77,77,77)" stroke-width="1" opacity="0.9215686274509803" d="M 150.5 61 L 154 61.5 L 150.5 62 L 150.5 61 Z " /><path fill="rgb(77,77,77)" stroke="rgb(77,77,77)" stroke-width="1" opacity="0.9215686274509803" d="M 37.5 62 L 38 64.5 L 36 65.5 L 37.5 62 Z " /><path fill="rgb(77,77,77)" stroke="rgb(77,77,77)" stroke-width="1" opacity="0.9215686274509803" d="M 140.5 62 L 139.5 64 L 134.5 67 L 135.5 65 L 140.5 62 Z " /><path fill="rgb(77,77,77)" stroke="rgb(77,77,77)" stroke-width="1" opacity="0.9215686274509803" d="M 145.5 62 L 148 62.5 L 124.5 75 L 124.5 74 L 126 73.5 L 122 71.5 L 123.5 68 L 123 69.5 L 124.5 72 L 129.5 69 L 129.5 71 L 145.5 62 Z M 128 71 L 127 73 L 129 72 L 128 71 Z " /><path fill="rgb(77,77,77)" stroke="rgb(77,77,77)" stroke-width="1" opacity="0.9215686274509803" d="M 156.5 62 L 163 67.5 L 162.5 69 L 157.5 63 L 156.5 62 Z " /><path fill="rgb(77,77,77)" stroke="rgb(77,77,77)" stroke-width="1" opacity="0.9215686274509803" d="M 39.5 63 L 40 65.5 L 39 65.5 L 39.5 63 Z " /><path fill="rgb(77,77,77)" stroke="rgb(77,77,77)" stroke-width="1" opacity="0.9215686274509803" d="M 106.5 64 L 107 67.5 L 106 67.5 L 106.5 64 Z " /><path fill="rgb(77,77,77)" stroke="rgb(77,77,77)" stroke-width="1" opacity="0.9215686274509803" d="M 163.5 65 L 165 67.5 L 164 67.5 L 163.5 65 Z " /><path fill="rgb(77,77,77)" stroke="rgb(77,77,77)" stroke-width="1" opacity="0.9215686274509803" d="M 38.5 67 L 39 89.5 L 38 89.5 L 38.5 67 Z " /><path fill="rgb(77,77,77)" stroke="rgb(77,77,77)" stroke-width="1" opacity="0.9215686274509803" d="M 86.5 67 L 87 70.5 L 86 70.5 L 86.5 67 Z " /><path fill="rgb(77,77,77)" stroke="rgb(77,77,77)" stroke-width="1" opacity="0.9215686274509803" d="M 120.5 67 L 121 71.5 L 120 71.5 L 120.5 67 Z " /><path fill="rgb(77,77,77)" stroke="rgb(77,77,77)" stroke-width="1" opacity="0.9215686274509803" d="M 165.5 69 L 166 73.5 L 164 74.5 L 165.5 69 Z " /><path fill="rgb(77,77,77)" stroke="rgb(77,77,77)" stroke-width="1" opacity="0.9215686274509803" d="M 163.5 70 L 164 73 L 158 75.5 L 160 76.5 L 154.5 80 L 155.5 78 L 158 76.5 L 156.5 76 L 146 83.5 L 147 86 L 143.5 88 L 145.5 84 L 134.5 93 L 134 91 L 148.5 80 L 163 71.5 L 163.5 70 Z " /><path fill="rgb(77,77,77)" stroke="rgb(77,77,77)" stroke-width="1" opacity="0.9215686274509803" d="M 105.5 71 L 106 76.5 L 105 76.5 L 105.5 71 Z " /><path fill="rgb(77,77,77)" stroke="rgb(77,77,77)" stroke-width="1" opacity="0.9215686274509803" d="M 59 72 L 61.5 72 L 66 75.5 L 64.5 76 L 60 73 L 61 75.5 L 59 74.5 L 59 72 Z " /><path fill="rgb(77,77,77)" stroke="rgb(77,77,77)" stroke-width="1" opacity="0.9215686274509803" d="M 102.5 74 L 103 80.5 L 100.5 86 L 100 84.5 Q 103 81 102.5 74 Z " /><path fill="rgb(77,77,77)" stroke="rgb(77,77,77)" stroke-width="1" opacity="0.9215686274509803" d="M 119.5 74 L 120 76.5 L 119 76.5 L 119.5 74 Z " /><path fill="rgb(77,77,77)" stroke="rgb(77,77,77)" stroke-width="1" opacity="0.9215686274509803" d="M 122.5 75 L 122 76.5 L 121.5 79 L 121 76.5 L 122.5 75 Z " /><path fill="rgb(77,77,77)" stroke="rgb(77,77,77)" stroke-width="1" opacity="0.9215686274509803" d="M 62.5 76 L 68 79.5 L 67.5 82 L 67 79 Q 62.7 78.9 62.5 76 Z " /><path fill="rgb(77,77,77)" stroke="rgb(77,77,77)" stroke-width="1" opacity="0.9215686274509803" d="M 67.5 76 L 71 77.5 L 69.5 85 L 69 80.5 L 70 77 Q 66.7 77.8 67.5 76 Z " /><path fill="rgb(77,77,77)" stroke="rgb(77,77,77)" stroke-width="1" opacity="0.9215686274509803" d="M 84.5 76 L 85 80.5 L 84 80.5 L 84.5 76 Z " /><path fill="rgb(77,77,77)" stroke="rgb(77,77,77)" stroke-width="1" opacity="0.9215686274509803" d="M 86.5 79 L 87 84.5 L 86 84.5 L 86.5 79 Z " /><path fill="rgb(77,77,77)" stroke="rgb(77,77,77)" stroke-width="1" opacity="0.9215686274509803" d="M 104.5 79 L 105 83.5 L 104 83.5 L 104.5 79 Z " /><path fill="rgb(77,77,77)" stroke="rgb(77,77,77)" stroke-width="1" opacity="0.9215686274509803" d="M 118.5 79 L 119 81.5 L 118 81.5 L 118.5 79 Z " /><path fill="rgb(77,77,77)" stroke="rgb(77,77,77)" stroke-width="1" opacity="0.9215686274509803" d="M 120.5 80 L 121 84.5 L 120 84.5 L 120.5 80 Z " /><path fill="rgb(77,77,77)" stroke="rgb(77,77,77)" stroke-width="1" opacity="0.9215686274509803" d="M 152.5 80 L 151.5 82 L 152.5 80 Z " /><path fill="rgb(77,77,77)" stroke="rgb(77,77,77)" stroke-width="1" opacity="0.9215686274509803" d="M 83.5 82 L 84 83.5 L 77.5 94 L 76 93.5 L 79 91.5 L 83.5 82 Z " /><path fill="rgb(77,77,77)" stroke="rgb(77,77,77)" stroke-width="1" opacity="0.9215686274509803" d="M 149.5 82 L 148.5 84 L 149.5 82 Z " /><path fill="rgb(77,77,77)" stroke="rgb(77,77,77)" stroke-width="1" opacity="0.9215686274509803" d="M 66.5 84 L 67 87.5 L 66 87.5 L 66.5 84 Z " /><path fill="rgb(77,77,77)" stroke="rgb(77,77,77)" stroke-width="1" opacity="0.9215686274509803" d="M 117.5 84 L 118 91.5 L 117 91.5 L 117.5 84 Z " /><path fill="rgb(77,77,77)" stroke="rgb(77,77,77)" stroke-width="1" opacity="0.9215686274509803" d="M 103.5 85 L 104 89.5 L 103 89.5 L 103.5 85 Z " /><path fill="rgb(77,77,77)" stroke="rgb(77,77,77)" stroke-width="1" opacity="0.9215686274509803" d="M 85.5 87 L 86 90.5 L 84.5 94 L 84 91.5 L 85.5 87 Z " /><path fill="rgb(77,77,77)" stroke="rgb(77,77,77)" stroke-width="1" opacity="0.9215686274509803" d="M 69.5 88 L 72.5 94 L 75 94.5 L 72.5 95 Q 67.7 93 69.5 88 Z " /><path fill="rgb(77,77,77)" stroke="rgb(77,77,77)" stroke-width="1" opacity="0.9215686274509803" d="M 119.5 89 L 120 93.5 L 119 93.5 L 119.5 89 Z " /><path fill="rgb(77,77,77)" stroke="rgb(77,77,77)" stroke-width="1" opacity="0.9215686274509803" d="M 140.5 89 L 137.5 93 L 140.5 89 Z " /><path fill="rgb(77,77,77)" stroke="rgb(77,77,77)" stroke-width="1" opacity="0.9215686274509803" d="M 98.5 90 L 99 92.5 L 92.5 106 L 86.5 107 Q 81.5 104.5 83 95.5 L 84 95.5 Q 82.5 103.5 86.5 106 L 93 105 L 98.5 90 Z " /><path fill="rgb(77,77,77)" stroke="rgb(77,77,77)" stroke-width="1" opacity="0.9215686274509803" d="M 36.5 91 Q 38.8 94.8 38 101.5 L 37 101.5 L 36.5 91 Z " /><path fill="rgb(77,77,77)" stroke="rgb(77,77,77)" stroke-width="1" opacity="0.9215686274509803" d="M 102.5 91 L 103 94.5 L 102 94.5 L 102.5 91 Z " /><path fill="rgb(77,77,77)" stroke="rgb(77,77,77)" stroke-width="1" opacity="0.9215686274509803" d="M 39.5 93 L 40 102.5 L 39 102.5 L 39.5 93 Z " /><path fill="rgb(77,77,77)" stroke="rgb(77,77,77)" stroke-width="1" opacity="0.9215686274509803" d="M 68.5 93 L 73 96.5 L 71.5 97 L 68.5 93 Z " /><path fill="rgb(77,77,77)" stroke="rgb(77,77,77)" stroke-width="1" opacity="0.9215686274509803" d="M 80.5 93 L 82 93.5 L 82 103.5 L 85.5 108 L 87 108.5 L 85.5 109 L 81 103.5 L 80.5 94 L 74.5 97 L 74.5 96 L 80.5 93 Z " /><path fill="rgb(77,77,77)" stroke="rgb(77,77,77)" stroke-width="1" opacity="0.9215686274509803" d="M 116.5 93 L 117 95.5 L 112.5 101 L 111 100.5 L 115 97.5 L 116.5 93 Z " /><path fill="rgb(77,77,77)" stroke="rgb(77,77,77)" stroke-width="1" opacity="0.9215686274509803" d="M 131.5 94 L 120.5 106 L 131.5 94 Z " /><path fill="rgb(77,77,77)" stroke="rgb(77,77,77)" stroke-width="1" opacity="0.9215686274509803" d="M 134.5 94 L 133.5 96 L 134.5 94 Z " /><path fill="rgb(77,77,77)" stroke="rgb(77,77,77)" stroke-width="1" opacity="0.9215686274509803" d="M 118.5 95 L 119 97.5 L 117 101 L 113.5 103 L 118 97.5 L 118.5 95 Z " /><path fill="rgb(77,77,77)" stroke="rgb(77,77,77)" stroke-width="1" opacity="0.9215686274509803" d="M 131.5 97 L 123.5 106 L 131.5 97 Z " /><path fill="rgb(77,77,77)" stroke="rgb(77,77,77)" stroke-width="1" opacity="0.9215686274509803" d="M 99.5 98 L 103 102.5 L 100 100.5 L 99.5 99 L 93.5 108 L 95 105.5 L 99.5 98 Z " /><path fill="rgb(77,77,77)" stroke="rgb(77,77,77)" stroke-width="1" opacity="0.9215686274509803" d="M 102.5 98 L 103 100 L 105 100.5 L 103.5 101 L 102.5 98 Z " /><path fill="rgb(77,77,77)" stroke="rgb(77,77,77)" stroke-width="1" opacity="0.9215686274509803" d="M 106.5 101 L 110 101.5 L 106.5 102 L 106.5 101 Z " /><path fill="rgb(77,77,77)" stroke="rgb(77,77,77)" stroke-width="1" opacity="0.9215686274509803" d="M 104.5 103 L 112 103.5 L 104.5 104 L 104.5 103 Z " /><path fill="rgb(77,77,77)" stroke="rgb(77,77,77)" stroke-width="1" opacity="0.9215686274509803" d="M 119.5 107 L 112 115.5 L 113 117.5 L 109.5 119 L 94.5 131 L 97.5 127 L 102.5 124 L 119.5 107 Z " /><path fill="rgb(77,77,77)" stroke="rgb(77,77,77)" stroke-width="1" opacity="0.9215686274509803" d="M 119.5 110 L 114.5 116 L 119.5 110 Z " /><path fill="rgb(77,77,77)" stroke="rgb(77,77,77)" stroke-width="1" opacity="0.9215686274509803" d="M 39.5 114 L 40 117.5 L 39 117.5 L 39.5 114 Z " /><path fill="rgb(77,77,77)" stroke="rgb(77,77,77)" stroke-width="1" opacity="0.9215686274509803" d="M 37.5 115 L 38 116.5 L 37 120.5 L 38 120.5 L 38.5 119 L 39 120.5 L 36.5 125 L 36 123.5 L 37 121.5 L 35 121.5 L 37.5 115 Z " /><path fill="rgb(77,77,77)" stroke="rgb(77,77,77)" stroke-width="1" opacity="0.9215686274509803" d="M 107.5 122 L 104.5 126 L 107.5 122 Z " /><path fill="rgb(77,77,77)" stroke="rgb(77,77,77)" stroke-width="1" opacity="0.9215686274509803" d="M 35.5 126 L 36 128.5 L 35 128.5 L 35.5 126 Z " /><path fill="rgb(77,77,77)" stroke="rgb(77,77,77)" stroke-width="1" opacity="0.9215686274509803" d="M 102.5 126 L 101.5 128 L 102.5 126 Z " /><path fill="rgb(77,77,77)" stroke="rgb(77,77,77)" stroke-width="1" opacity="0.9215686274509803" d="M 98.5 129 L 96.5 132 L 98.5 129 Z " /><path fill="rgb(77,77,77)" stroke="rgb(77,77,77)" stroke-width="1" opacity="0.9215686274509803" d="M 32.5 130 L 33 134.5 L 32 134.5 L 32.5 130 Z " /><path fill="rgb(77,77,77)" stroke="rgb(77,77,77)" stroke-width="1" opacity="0.9215686274509803" d="M 34.5 130 L 35 137.5 L 34 137.5 L 34.5 130 Z " /><path fill="rgb(77,77,77)" stroke="rgb(77,77,77)" stroke-width="1" opacity="0.9215686274509803" d="M 92.5 134 L 93 136.5 L 92 136.5 L 92.5 134 Z " /><path fill="rgb(77,77,77)" stroke="rgb(77,77,77)" stroke-width="1" opacity="0.9215686274509803" d="M 91.5 139 L 92 158.5 L 89.5 162 Q 83.9 167.4 71.5 166 L 71.5 165 L 80.5 165 L 90 161 L 91 158.5 L 91.5 139 Z " /><path fill="rgb(77,77,77)" stroke="rgb(77,77,77)" stroke-width="1" opacity="0.9215686274509803" d="M 33.5 142 L 34 152.5 L 33 152.5 L 33.5 142 Z " /><path fill="rgb(77,77,77)" stroke="rgb(77,77,77)" stroke-width="1" opacity="0.9215686274509803" d="M 31.5 146 L 32 147.5 L 31 148.5 Q 32.4 159.9 29.5 167 L 29 159.5 L 30 158.5 L 30 148.5 L 31.5 146 Z " /><path fill="rgb(77,77,77)" stroke="rgb(77,77,77)" stroke-width="1" opacity="0.9215686274509803" d="M 35.5 153 L 42 156.5 L 40.5 157 Q 35.9 155.8 35.5 153 Z " /><path fill="rgb(77,77,77)" stroke="rgb(77,77,77)" stroke-width="1" opacity="0.9215686274509803" d="M 43.5 157 L 47 158.5 L 45.5 159 L 43.5 157 Z " /><path fill="rgb(77,77,77)" stroke="rgb(77,77,77)" stroke-width="1" opacity="0.9215686274509803" d="M 48.5 159 L 53 160.5 L 50.5 161 L 48.5 159 Z " /><path fill="rgb(77,77,77)" stroke="rgb(77,77,77)" stroke-width="1" opacity="0.9215686274509803" d="M 94.5 159 L 95 167.5 L 94 167.5 L 94.5 159 Z " /><path fill="rgb(77,77,77)" stroke="rgb(77,77,77)" stroke-width="1" opacity="0.9215686274509803" d="M 57.5 162 L 60 162.5 L 57.5 163 L 57.5 162 Z " /><path fill="rgb(77,77,77)" stroke="rgb(77,77,77)" stroke-width="1" opacity="0.9215686274509803" d="M 61.5 163 L 64 163.5 L 61.5 164 L 61.5 163 Z " /><path fill="rgb(77,77,77)" stroke="rgb(77,77,77)" stroke-width="1" opacity="0.9215686274509803" d="M 65.5 164 L 70 164.5 L 65.5 165 L 65.5 164 Z " /><path fill="rgb(77,77,77)" stroke="rgb(77,77,77)" stroke-width="1" opacity="0.9215686274509803" d="M 29.5 173 L 30 176.5 L 29 176.5 L 29.5 173 Z " /><path fill="rgb(77,77,77)" stroke="rgb(77,77,77)" stroke-width="1" opacity="0.9215686274509803" d="M 28.5 178 L 30.5 181 L 81 181.5 L 30.5 182 Q 26.9 180.9 28.5 178 Z " /><path fill="rgb(188,188,188)" stroke="rgb(188,188,188)" stroke-width="1" opacity="0.9921568627450981" d="M 121.5 25 L 129 25.5 L 121.5 26 L 121.5 25 Z " /><path fill="rgb(188,188,188)" stroke="rgb(188,188,188)" stroke-width="1" opacity="0.9921568627450981" d="M 116.5 26 L 120 26.5 L 116.5 27 L 116.5 26 Z " /><path fill="rgb(188,188,188)" stroke="rgb(188,188,188)" stroke-width="1" opacity="0.9921568627450981" d="M 131.5 26 L 135 26.5 L 131.5 27 L 131.5 26 Z " /><path fill="rgb(188,188,188)" stroke="rgb(188,188,188)" stroke-width="1" opacity="0.9921568627450981" d="M 137.5 27 L 140 27.5 L 137.5 28 L 137.5 27 Z " /><path fill="rgb(188,188,188)" stroke="rgb(188,188,188)" stroke-width="1" opacity="0.9921568627450981" d="M 109.5 28 L 112 28.5 L 101.5 32 L 101.5 31 L 109.5 28 Z " /><path fill="rgb(188,188,188)" stroke="rgb(188,188,188)" stroke-width="1" opacity="0.9921568627450981" d="M 141.5 28 L 146 28.5 L 141.5 29 L 141.5 28 Z " /><path fill="rgb(188,188,188)" stroke="rgb(188,188,188)" stroke-width="1" opacity="0.9921568627450981" d="M 147.5 29 L 161 29.5 L 147.5 30 L 147.5 29 Z " /><path fill="rgb(188,188,188)" stroke="rgb(188,188,188)" stroke-width="1" opacity="0.9921568627450981" d="M 161.5 31 L 162 33.5 L 161 33.5 L 161.5 31 Z " /><path fill="rgb(188,188,188)" stroke="rgb(188,188,188)" stroke-width="1" opacity="0.9921568627450981" d="M 96.5 33 L 98 33.5 L 96 34.5 L 96.5 36 L 94 34.5 L 96.5 33 Z " /><path fill="rgb(188,188,188)" stroke="rgb(188,188,188)" stroke-width="1" opacity="0.9921568627450981" d="M 72.5 34 L 82 34.5 L 72.5 35 L 72.5 34 Z " /><path fill="rgb(188,188,188)" stroke="rgb(188,188,188)" stroke-width="1" opacity="0.9921568627450981" d="M 69.5 35 L 71 35.5 L 65 39.5 L 69 41.5 L 66.5 42 L 63 41 L 65.5 37 L 69.5 35 Z " /><path fill="rgb(188,188,188)" stroke="rgb(188,188,188)" stroke-width="1" opacity="0.9921568627450981" d="M 84.5 35 L 89 36.5 L 87.5 37 L 84.5 36 L 84.5 35 Z " /><path fill="rgb(188,188,188)" stroke="rgb(188,188,188)" stroke-width="1" opacity="0.9921568627450981" d="M 160.5 35 L 156.5 40 L 148.5 42 L 148.5 41 Q 157.3 40.8 160.5 35 Z " /><path fill="rgb(188,188,188)" stroke="rgb(188,188,188)" stroke-width="1" opacity="0.9921568627450981" d="M 98.5 36 L 119 43.5 L 116.5 44 L 100.5 38 L 98.5 36 Z " /><path fill="rgb(188,188,188)" stroke="rgb(188,188,188)" stroke-width="1" opacity="0.9921568627450981" d="M 90.5 37 L 97 39.5 L 95.5 40 L 90.5 38 L 90.5 37 Z " /><path fill="rgb(188,188,188)" stroke="rgb(188,188,188)" stroke-width="1" opacity="0.9921568627450981" d="M 100.5 41 L 104 42.5 L 102.5 43 L 100.5 41 Z " /><path fill="rgb(188,188,188)" stroke="rgb(188,188,188)" stroke-width="1" opacity="0.9921568627450981" d="M 70.5 42 L 73 42.5 L 70.5 43 L 70.5 42 Z " /><path fill="rgb(188,188,188)" stroke="rgb(188,188,188)" stroke-width="1" opacity="0.9921568627450981" d="M 130.5 42 L 147 42.5 L 130.5 43 L 130.5 42 Z " /><path fill="rgb(188,188,188)" stroke="rgb(188,188,188)" stroke-width="1" opacity="0.9921568627450981" d="M 58.5 43 L 72 46.5 L 69.5 47 Q 65.5 44 58.5 44 L 54 46 L 52.5 49 L 53 47.5 L 54.5 45 L 58.5 43 Z " /><path fill="rgb(188,188,188)" stroke="rgb(188,188,188)" stroke-width="1" opacity="0.9921568627450981" d="M 105.5 43 L 112 45.5 L 110.5 46 L 105.5 44 L 105.5 43 Z " /><path fill="rgb(188,188,188)" stroke="rgb(188,188,188)" stroke-width="1" opacity="0.9921568627450981" d="M 124.5 43 L 127 43.5 L 124.5 44 L 124.5 43 Z " /><path fill="rgb(188,188,188)" stroke="rgb(188,188,188)" stroke-width="1" opacity="0.9921568627450981" d="M 77.5 44 L 90 48.5 L 88.5 49 L 77.5 45 L 77.5 44 Z " /><path fill="rgb(188,188,188)" stroke="rgb(188,188,188)" stroke-width="1" opacity="0.9921568627450981" d="M 120.5 44 L 123 44.5 L 120.5 45 L 120.5 44 Z " /><path fill="rgb(188,188,188)" stroke="rgb(188,188,188)" stroke-width="1" opacity="0.9921568627450981" d="M 113.5 46 L 118 47.5 L 115.5 48 L 113.5 46 Z " /><path fill="rgb(188,188,188)" stroke="rgb(188,188,188)" stroke-width="1" opacity="0.9921568627450981" d="M 76.5 48 L 89 52.5 L 87.5 53 L 76.5 49 L 76.5 48 Z " /><path fill="rgb(188,188,188)" stroke="rgb(188,188,188)" stroke-width="1" opacity="0.9921568627450981" d="M 119.5 48 L 121 49.5 L 121 66.5 L 120 66.5 L 120 49.5 L 119.5 48 Z " /><path fill="rgb(188,188,188)" stroke="rgb(188,188,188)" stroke-width="1" opacity="0.9921568627450981" d="M 91.5 49 Q 101.2 51.7 106 59.5 L 107 63.5 L 106 63.5 Q 105 55.6 98.5 53 L 91.5 50 L 91.5 49 Z " /><path fill="rgb(188,188,188)" stroke="rgb(188,188,188)" stroke-width="1" opacity="0.9921568627450981" d="M 52.5 51 L 66 54.5 L 63.5 55 L 53.5 53 L 52.5 51 Z " /><path fill="rgb(188,188,188)" stroke="rgb(188,188,188)" stroke-width="1" opacity="0.9921568627450981" d="M 90.5 53 L 94 54.5 L 92.5 55 L 90.5 53 Z " /><path fill="rgb(188,188,188)" stroke="rgb(188,188,188)" stroke-width="1" opacity="0.9921568627450981" d="M 41.5 54 L 40.5 56 L 41.5 54 Z " /><path fill="rgb(188,188,188)" stroke="rgb(188,188,188)" stroke-width="1" opacity="0.9921568627450981" d="M 47.5 55 L 52 55.5 Q 44.4 55.4 42 60.5 L 40.5 65 L 40 62.5 L 45.5 56 L 47.5 55 Z " /><path fill="rgb(188,188,188)" stroke="rgb(188,188,188)" stroke-width="1" opacity="0.9921568627450981" d="M 67.5 55 L 70 55.5 L 67.5 56 L 67.5 55 Z " /><path fill="rgb(188,188,188)" stroke="rgb(188,188,188)" stroke-width="1" opacity="0.9921568627450981" d="M 95.5 55 L 101 59.5 L 103 64.5 L 102 64.5 L 98.5 58 L 95.5 55 Z " /><path fill="rgb(188,188,188)" stroke="rgb(188,188,188)" stroke-width="1" opacity="0.9921568627450981" d="M 53.5 56 L 67 58.5 L 63.5 59 L 53.5 57 L 53.5 56 Z " /><path fill="rgb(188,188,188)" stroke="rgb(188,188,188)" stroke-width="1" opacity="0.9921568627450981" d="M 71.5 56 L 74 56.5 L 71.5 57 L 71.5 56 Z " /><path fill="rgb(188,188,188)" stroke="rgb(188,188,188)" stroke-width="1" opacity="0.9921568627450981" d="M 75.5 57 Q 83.1 58.9 87 64.5 L 86.5 67 L 82.5 61 L 75.5 58 L 75.5 57 Z " /><path fill="rgb(188,188,188)" stroke="rgb(188,188,188)" stroke-width="1" opacity="0.9921568627450981" d="M 72.5 60 Q 79.6 60.9 83 65.5 L 84 71.5 L 83 71.5 Q 83.8 65.7 80.5 64 L 72.5 61 L 72.5 60 Z " /><path fill="rgb(188,188,188)" stroke="rgb(188,188,188)" stroke-width="1" opacity="0.9921568627450981" d="M 148.5 62 Q 159.6 60.4 162 67.5 L 163 71.5 L 148.5 80 L 134 91 L 132.5 94 L 120 105.5 L 102.5 124 L 94 130.5 L 91 139.5 L 91 158.5 L 90 161 L 86.5 163 L 90 158.5 L 90 138.5 L 91 133.5 L 97.5 126 Q 108.5 119.5 116 109.5 L 134.5 90 L 154.5 75 L 162 72 Q 161.9 66.4 157.5 64 L 148.5 63 L 138.5 68 L 139.5 66 L 148.5 62 Z " /><path fill="rgb(188,188,188)" stroke="rgb(188,188,188)" stroke-width="1" opacity="0.9921568627450981" d="M 39.5 66 L 40 72.5 L 39 72.5 L 39.5 66 Z " /><path fill="rgb(188,188,188)" stroke="rgb(188,188,188)" stroke-width="1" opacity="0.9921568627450981" d="M 102.5 67 L 103 73.5 L 102 73.5 L 102.5 67 Z " /><path fill="rgb(188,188,188)" stroke="rgb(188,188,188)" stroke-width="1" opacity="0.9921568627450981" d="M 87.5 68 L 88 82.5 L 87 82.5 L 87.5 68 Z " /><path fill="rgb(188,188,188)" stroke="rgb(188,188,188)" stroke-width="1" opacity="0.9921568627450981" d="M 106.5 68 L 107 74.5 L 106 74.5 L 106.5 68 Z " /><path fill="rgb(188,188,188)" stroke="rgb(188,188,188)" stroke-width="1" opacity="0.9921568627450981" d="M 119.5 68 L 120 73.5 L 119 73.5 L 119.5 68 Z " /><path fill="rgb(188,188,188)" stroke="rgb(188,188,188)" stroke-width="1" opacity="0.9921568627450981" d="M 136.5 68 L 135.5 70 L 125.5 76 L 123 76 L 120.5 93 L 120 85.5 Q 122.2 84.2 121 79.5 L 123.5 75 Q 131.7 73.2 136.5 68 Z " /><path fill="rgb(188,188,188)" stroke="rgb(188,188,188)" stroke-width="1" opacity="0.9921568627450981" d="M 59.5 71 L 61.5 71 L 66.5 75 L 72 76 L 70.5 84 L 70 80.5 L 71 77.5 L 64.5 75 L 61.5 72 L 59 72 L 60.5 76 L 67 79 L 66.5 84 L 64.5 79 L 58 74.5 L 59.5 71 Z " /><path fill="rgb(188,188,188)" stroke="rgb(188,188,188)" stroke-width="1" opacity="0.9921568627450981" d="M 84.5 73 L 85 75.5 L 84 75.5 L 84.5 73 Z " /><path fill="rgb(188,188,188)" stroke="rgb(188,188,188)" stroke-width="1" opacity="0.9921568627450981" d="M 101.5 75 L 102 80.5 L 101 80.5 L 101.5 75 Z " /><path fill="rgb(188,188,188)" stroke="rgb(188,188,188)" stroke-width="1" opacity="0.9921568627450981" d="M 118.5 75 L 119 78.5 L 115.5 96 L 115 93.5 L 118.5 75 Z " /><path fill="rgb(188,188,188)" stroke="rgb(188,188,188)" stroke-width="1" opacity="0.9921568627450981" d="M 83.5 77 L 84 81.5 L 77.5 93 L 72.5 94 L 71.5 92 L 75.5 93 L 80 88.5 L 83.5 77 Z " /><path fill="rgb(188,188,188)" stroke="rgb(188,188,188)" stroke-width="1" opacity="0.9921568627450981" d="M 105.5 77 L 106 81.5 L 105 81.5 L 105.5 77 Z " /><path fill="rgb(188,188,188)" stroke="rgb(188,188,188)" stroke-width="1" opacity="0.9921568627450981" d="M 39.5 82 L 40 92.5 L 39 92.5 L 39.5 82 Z " /><path fill="rgb(188,188,188)" stroke="rgb(188,188,188)" stroke-width="1" opacity="0.9921568627450981" d="M 104.5 84 L 105 88.5 L 104 88.5 L 104.5 84 Z " /><path fill="rgb(188,188,188)" stroke="rgb(188,188,188)" stroke-width="1" opacity="0.9921568627450981" d="M 69.5 85 L 71 90.5 L 70 90.5 L 69.5 85 Z " /><path fill="rgb(188,188,188)" stroke="rgb(188,188,188)" stroke-width="1" opacity="0.9921568627450981" d="M 86.5 85 L 87 88.5 L 86 88.5 L 86.5 85 Z " /><path fill="rgb(188,188,188)" stroke="rgb(188,188,188)" stroke-width="1" opacity="0.9921568627450981" d="M 66.5 88 L 67 90.5 L 66 90.5 L 66.5 88 Z " /><path fill="rgb(188,188,188)" stroke="rgb(188,188,188)" stroke-width="1" opacity="0.9921568627450981" d="M 98.5 88 L 99 89.5 L 96.5 96 L 96 93.5 L 98.5 88 Z " /><path fill="rgb(188,188,188)" stroke="rgb(188,188,188)" stroke-width="1" opacity="0.9921568627450981" d="M 103.5 90 L 104 95.5 L 103 97.5 Q 104.3 101.3 110.5 100 L 114.5 97 L 112.5 100 L 105.5 101 L 103 100 L 102 95.5 L 103.5 90 Z " /><path fill="rgb(188,188,188)" stroke="rgb(188,188,188)" stroke-width="1" opacity="0.9921568627450981" d="M 67.5 92 L 71.5 97 Q 78.6 98.1 80.5 94 L 81 101.5 L 80 101.5 L 79.5 96 Q 77.5 99 71.5 98 L 68 95.5 L 67.5 92 Z " /><path fill="rgb(188,188,188)" stroke="rgb(188,188,188)" stroke-width="1" opacity="0.9921568627450981" d="M 84.5 94 L 85 102.5 L 84 102.5 L 84.5 94 Z " /><path fill="rgb(188,188,188)" stroke="rgb(188,188,188)" stroke-width="1" opacity="0.9921568627450981" d="M 119.5 94 L 120 96.5 L 119 96.5 L 119.5 94 Z " /><path fill="rgb(188,188,188)" stroke="rgb(188,188,188)" stroke-width="1" opacity="0.9921568627450981" d="M 40.5 96 L 41 116.5 L 40 116.5 L 40.5 96 Z " /><path fill="rgb(188,188,188)" stroke="rgb(188,188,188)" stroke-width="1" opacity="0.9921568627450981" d="M 118.5 98 L 118 99.5 L 116.5 102 Q 113.3 106.3 104.5 105 L 99.5 101 L 98 101.5 L 99.5 99 L 102.5 103 L 111.5 104 L 117 101 L 118.5 98 Z " /><path fill="rgb(188,188,188)" stroke="rgb(188,188,188)" stroke-width="1" opacity="0.9921568627450981" d="M 93.5 102 L 93 103.5 Q 93.8 105.8 91.5 105 L 86.5 106 L 85.5 104 L 90.5 105 L 93.5 102 Z " /><path fill="rgb(188,188,188)" stroke="rgb(188,188,188)" stroke-width="1" opacity="0.9921568627450981" d="M 97.5 103 L 98 104.5 Q 95.9 111.4 85.5 110 L 81 104.5 L 82 104.5 L 85.5 109 Q 93.8 110.3 96 105.5 L 97.5 103 Z " /><path fill="rgb(188,188,188)" stroke="rgb(188,188,188)" stroke-width="1" opacity="0.9921568627450981" d="M 39.5 118 L 40 120.5 L 36 129.5 L 34.5 149 L 34 138.5 L 35 137.5 L 36 125.5 L 39.5 118 Z " /><path fill="rgb(188,188,188)" stroke="rgb(188,188,188)" stroke-width="1" opacity="0.9921568627450981" d="M 34.5 151 L 44 156.5 L 42.5 157 L 34 153 L 34.5 151 Z " /><path fill="rgb(188,188,188)" stroke="rgb(188,188,188)" stroke-width="1" opacity="0.9921568627450981" d="M 45.5 157 L 49 158.5 L 47.5 159 L 45.5 157 Z " /><path fill="rgb(188,188,188)" stroke="rgb(188,188,188)" stroke-width="1" opacity="0.9921568627450981" d="M 50.5 159 L 59 161.5 L 56.5 162 L 50.5 160 L 50.5 159 Z " /><path fill="rgb(188,188,188)" stroke="rgb(188,188,188)" stroke-width="1" opacity="0.9921568627450981" d="M 60.5 162 L 63 162.5 L 60.5 163 L 60.5 162 Z " /><path fill="rgb(188,188,188)" stroke="rgb(188,188,188)" stroke-width="1" opacity="0.9921568627450981" d="M 64.5 163 L 68 163.5 L 64.5 164 L 64.5 163 Z " /><path fill="rgb(188,188,188)" stroke="rgb(188,188,188)" stroke-width="1" opacity="0.9921568627450981" d="M 70.5 164 L 81 164.5 L 70.5 165 L 70.5 164 Z " /><path fill="rgb(11,11,11)" stroke="rgb(11,11,11)" stroke-width="1" opacity="0.9725490196078431" d="M 118.5 23 L 133.5 23 L 141.5 26 L 161.5 27 L 163 28.5 L 164 34.5 L 159.5 41 L 150.5 44 L 146.5 44 L 144.5 46 L 139.5 46 L 138.5 45 L 127.5 45 L 123 47.5 L 123 49.5 L 123 68.5 L 122 71.5 L 125.5 73 L 141.5 62 Q 146.9 58.9 156.5 60 L 163 64.5 Q 165.8 67.2 165 73.5 Q 146.4 81.9 133 95.5 Q 133.8 97.8 131.5 97 L 114 115.5 L 114 117 L 111 118.5 L 108.5 122 L 96 131.5 L 94 135.5 Q 95.5 143 93 146.5 L 94 147.5 L 94 167.5 L 95 168.5 L 95 181 L 30.5 181 L 29 179.5 L 30 173.5 Q 27.8 172.3 29 167.5 L 31 161.5 L 31 148.5 L 32 147.5 L 33 127.5 L 38 116.5 L 38 95.5 Q 35 91.5 36 83.5 L 37 82.5 L 37 73.5 Q 34.5 72 36 66.5 L 42.5 55 L 49 53 L 49 48 Q 51.7 49.1 51 46.5 L 53.5 43 Q 61 41 64.5 35 L 73.5 31 Q 74.7 33.2 79.5 32 L 81.5 31 Q 84.5 34 90.5 34 Q 98.8 27.8 111.5 26 L 113.5 24 L 115.5 24 L 118.5 23 Z M 122 24 L 102 30 L 93 35 L 101 39 L 121 46 L 127 44 L 145 44 Q 146 42 151 43 L 160 39 L 163 34 L 162 29 L 160 28 L 145 28 L 135 25 L 122 24 Z M 74 33 L 66 36 L 62 41 L 89 49 L 99 54 L 106 64 L 105 79 L 102 92 L 102 100 L 107 102 L 113 101 Q 117 98 118 92 L 118 83 L 122 65 L 122 50 L 118 46 Q 103 43 92 36 L 81 33 L 74 33 Z M 60 42 L 55 44 Q 50 46 51 53 L 65 55 L 82 61 L 85 65 L 87 72 L 86 87 L 83 96 Q 81 105 87 107 L 93 106 L 97 99 L 100 87 L 103 81 Q 101 74 104 73 Q 106 63 102 60 L 92 52 L 60 42 Z M 46 55 L 44 56 L 40 61 L 38 68 L 38 90 L 39 91 L 39 103 L 40 104 L 39 119 L 34 131 L 33 153 L 51 161 L 72 166 Q 84 167 90 162 L 92 159 L 92 138 L 94 132 L 110 119 L 120 107 Q 138 85 164 73 L 163 68 L 158 62 L 154 61 L 146 62 L 123 75 L 120 81 L 120 89 L 118 98 L 113 103 L 104 103 L 100 98 L 95 106 L 90 109 L 86 108 L 82 104 L 82 93 L 74 97 L 72 96 L 67 90 L 68 80 L 62 76 L 60 73 L 65 76 L 70 77 L 69 81 Q 67 92 73 95 L 78 94 Q 83 89 85 81 L 85 68 L 84 66 Q 70 55 46 55 Z " /></svg>