<svg width="200" height="200" version="1.1" xmlns="http://www.w3.org/2000/svg" desc="Created with imagetracer.js version 1.2.6" ><path fill="rgb(0,0,0)" stroke="rgb(0,0,0)" stroke-width="1" opacity="0" d="M 0 0 L 200 0 L 200 200 L 0 200 L 0 0 Z M 92 12 L 92 94 L 94 95 L 138 95 L 139 94 L 127 70 L 124 67 L 120 57 L 117 54 L 114 46 L 97 18 L 96 14 L 92 12 Z M 82 33 L 77 40 L 77 43 L 73 49 L 69 61 L 62 75 Q 63 78 60 77 L 55 92 L 56 95 L 83 95 L 83 34 L 82 33 Z M 36 105 L 32 106 L 29 109 L 29 119 Q 31 125 42 123 Q 46 126 46 132 L 48 133 L 43 135 L 38 135 L 27 130 L 18 130 L 17 131 L 17 170 L 189 170 L 189 170 L 189 130 Q 178 128 173 133 L 172 124 L 175 122 L 177 117 L 176 107 L 171 105 L 36 105 Z " /><path fill="rgb(240,214,149)" stroke="rgb(240,214,149)" stroke-width="1" opacity="0.4117647058823529" d="M 93.5 13 L 96 14.5 L 98 19.5 L 96 18.5 L 93.5 13 Z " /><path fill="rgb(240,214,149)" stroke="rgb(240,214,149)" stroke-width="1" opacity="0.4117647058823529" d="M 98.5 21 L 104 28.5 L 104 31 L 106 31.5 L 104 32.5 L 98.5 21 Z " /><path fill="rgb(240,214,149)" stroke="rgb(240,214,149)" stroke-width="1" opacity="0.4117647058823529" d="M 81.5 34 L 83 34.5 L 83 93.5 L 82 93.5 L 81.5 35 L 80 35.5 L 81.5 34 Z " /><path fill="rgb(240,214,149)" stroke="rgb(240,214,149)" stroke-width="1" opacity="0.4117647058823529" d="M 105.5 34 L 108 35.5 Q 105.5 37 109 38.5 L 110 42 L 112 42.5 Q 109.5 44 113 45.5 L 112.5 47 L 105.5 34 Z " /><path fill="rgb(240,214,149)" stroke="rgb(240,214,149)" stroke-width="1" opacity="0.4117647058823529" d="M 79.5 37 L 80 38.5 L 79 41 L 77 40.5 L 79.5 37 Z " /><path fill="rgb(240,214,149)" stroke="rgb(240,214,149)" stroke-width="1" opacity="0.4117647058823529" d="M 77.5 43 L 77 44.5 L 74.5 50 L 74 48.5 L 77.5 43 Z " /><path fill="rgb(240,214,149)" stroke="rgb(240,214,149)" stroke-width="1" opacity="0.4117647058823529" d="M 113.5 48 Q 115.8 47.3 115 49.5 L 120 60 Q 123 58.8 122 62.5 L 130 76.5 L 130 79 Q 133 77.8 132 81.5 L 138 93.5 L 137 93.5 L 113.5 48 Z " /><path fill="rgb(240,214,149)" stroke="rgb(240,214,149)" stroke-width="1" opacity="0.4117647058823529" d="M 71.5 56 L 72 57.5 L 67.5 66 L 67 64.5 L 71.5 56 Z " /><path fill="rgb(240,214,149)" stroke="rgb(240,214,149)" stroke-width="1" opacity="0.4117647058823529" d="M 64.5 68 L 66 70.5 L 65 70.5 L 64.5 68 Z " /><path fill="rgb(240,214,149)" stroke="rgb(240,214,149)" stroke-width="1" opacity="0.4117647058823529" d="M 64.5 72 L 65 73.5 L 61.5 80 L 60 77.5 L 62 77 L 64.5 72 Z " /><path fill="rgb(240,214,149)" stroke="rgb(240,214,149)" stroke-width="1" opacity="0.4117647058823529" d="M 59.5 83 L 60 84.5 L 55.5 94 L 55 92.5 L 59.5 83 Z " /><path fill="rgb(240,214,149)" stroke="rgb(240,214,149)" stroke-width="1" opacity="0.4117647058823529" d="M 35 105 L 170.5 105 L 171 107 L 172.5 107 L 174 106.5 L 173.5 108 L 175.5 107 Q 177.9 110.1 177 116.5 L 174.5 121 L 172 121.5 L 172.5 123 L 171 122.5 L 172 132.5 L 171.5 134 L 173 134.5 L 170 135 L 170 121.5 L 171.5 121 L 174 120 L 176 112.5 L 172.5 108 L 167.5 106 L 38.5 106 L 35 107 L 35 105 Z " /><path fill="rgb(240,214,149)" stroke="rgb(240,214,149)" stroke-width="1" opacity="0.4117647058823529" d="M 32.5 107 L 34 107.5 L 32 108 L 30 111.5 L 30 116.5 L 32.5 120 L 36 121.5 L 33.5 123 L 31.5 120 L 29 118.5 L 29 108.5 L 31.5 108 L 32.5 107 Z " /><path fill="rgb(240,214,149)" stroke="rgb(240,214,149)" stroke-width="1" opacity="0.4117647058823529" d="M 42 122 L 45 123.5 L 50 132.5 L 47 134.5 L 48 132 L 46 131.5 L 46.5 130 L 45 129.5 L 46 127.5 L 43 126 L 42 122 Z " /><path fill="rgb(240,214,149)" stroke="rgb(240,214,149)" stroke-width="1" opacity="0.4117647058823529" d="M 32.5 132 L 31.5 134 L 32.5 132 Z " /><path fill="rgb(240,214,149)" stroke="rgb(240,214,149)" stroke-width="1" opacity="0.4117647058823529" d="M 173.5 132 L 174.5 134 L 173.5 132 Z " /><path fill="rgb(251,212,63)" stroke="rgb(251,212,63)" stroke-width="1" opacity="0.8901960784313725" d="M 93.5 14 L 131 80.5 L 137 94 L 93 94 L 93.5 14 Z M 95 17 L 94 92 L 96 93 L 135 93 L 132 85 L 128 80 L 125 72 L 122 69 L 119 61 L 102 33 L 95 17 Z " /><path fill="rgb(251,212,63)" stroke="rgb(251,212,63)" stroke-width="1" opacity="0.8901960784313725" d="M 81.5 35 L 82 94 L 56.5 94 L 56 92.5 L 81.5 35 Z M 81 40 L 58 92 L 58 93 L 80 93 L 81 92 L 81 40 Z " /><path fill="rgb(251,212,63)" stroke="rgb(251,212,63)" stroke-width="1" opacity="0.8901960784313725" d="M 38.5 106 L 168 106.5 L 38.5 107 L 38.5 106 Z " /><path fill="rgb(251,212,63)" stroke="rgb(251,212,63)" stroke-width="1" opacity="0.8901960784313725" d="M 34.5 107 L 33.5 109 L 32 108.5 L 34.5 107 Z " /><path fill="rgb(251,212,63)" stroke="rgb(251,212,63)" stroke-width="1" opacity="0.8901960784313725" d="M 172.5 108 L 174.5 111 L 172.5 108 Z " /><path fill="rgb(251,212,63)" stroke="rgb(251,212,63)" stroke-width="1" opacity="0.8901960784313725" d="M 31.5 110 L 31 111.5 L 30.5 117 L 30 111.5 L 31.5 110 Z " /><path fill="rgb(251,212,63)" stroke="rgb(251,212,63)" stroke-width="1" opacity="0.8901960784313725" d="M 175.5 112 L 176 114.5 L 175 114.5 L 175.5 112 Z " /><path fill="rgb(251,212,63)" stroke="rgb(251,212,63)" stroke-width="1" opacity="0.8901960784313725" d="M 31.5 118 L 32.5 120 L 31.5 118 Z " /><path fill="rgb(251,212,63)" stroke="rgb(251,212,63)" stroke-width="1" opacity="0.8901960784313725" d="M 172.5 119 L 174 119.5 L 171.5 121 L 172.5 119 Z " /><path fill="rgb(251,212,63)" stroke="rgb(251,212,63)" stroke-width="1" opacity="0.8901960784313725" d="M 36.5 121 L 43 121.5 L 36.5 122 L 36.5 121 Z " /><path fill="rgb(252,213,63)" stroke="rgb(252,213,63)" stroke-width="1" opacity="0.9882352941176471" d="M 94.5 17 L 102 32.5 L 119 60.5 L 122 68.5 L 125 71.5 L 128 79.5 L 132 84.5 L 135 93 L 95.5 93 L 94 91.5 L 94.5 17 Z " /><path fill="rgb(252,213,63)" stroke="rgb(252,213,63)" stroke-width="1" opacity="0.9882352941176471" d="M 80.5 40 L 81 91.5 L 79.5 93 L 57.5 93 L 58 91.5 L 80.5 40 Z " /><path fill="rgb(175,164,119)" stroke="rgb(175,164,119)" stroke-width="1" opacity="0.06274509803921569" d="M 92 12 L 96 13.5 L 94.5 13 L 93 13.5 L 93 94 L 137.5 94 L 138 92.5 L 137.5 91 L 139 93.5 L 137.5 95 L 93.5 95 L 92 93.5 L 92 12 Z " /><path fill="rgb(175,164,119)" stroke="rgb(175,164,119)" stroke-width="1" opacity="0.06274509803921569" d="M 98.5 19 L 102 24.5 L 100 23.5 L 98.5 19 Z " /><path fill="rgb(175,164,119)" stroke="rgb(175,164,119)" stroke-width="1" opacity="0.06274509803921569" d="M 105.5 32 L 107 34.5 L 105 33.5 L 105.5 32 Z " /><path fill="rgb(175,164,119)" stroke="rgb(175,164,119)" stroke-width="1" opacity="0.06274509803921569" d="M 81.5 33 L 83 33.5 L 80 35.5 L 77.5 40 L 78 38.5 L 81.5 33 Z " /><path fill="rgb(175,164,119)" stroke="rgb(175,164,119)" stroke-width="1" opacity="0.06274509803921569" d="M 107.5 36 L 108.5 38 L 107.5 36 Z " /><path fill="rgb(175,164,119)" stroke="rgb(175,164,119)" stroke-width="1" opacity="0.06274509803921569" d="M 77.5 41 L 78 42.5 L 76 43.5 L 77.5 41 Z " /><path fill="rgb(175,164,119)" stroke="rgb(175,164,119)" stroke-width="1" opacity="0.06274509803921569" d="M 111.5 43 Q 114.5 43.5 114 47.5 L 113 47.5 L 111.5 43 Z " /><path fill="rgb(175,164,119)" stroke="rgb(175,164,119)" stroke-width="1" opacity="0.06274509803921569" d="M 74.5 47 L 74 48.5 Q 73.8 54.3 70.5 57 L 71 55.5 L 74.5 47 Z " /><path fill="rgb(175,164,119)" stroke="rgb(175,164,119)" stroke-width="1" opacity="0.06274509803921569" d="M 117.5 54 L 121 59.5 L 120 59.5 L 117.5 54 Z " /><path fill="rgb(175,164,119)" stroke="rgb(175,164,119)" stroke-width="1" opacity="0.06274509803921569" d="M 67.5 63 L 67 64.5 L 62.5 75 L 63 73.5 L 67.5 63 Z " /><path fill="rgb(175,164,119)" stroke="rgb(175,164,119)" stroke-width="1" opacity="0.06274509803921569" d="M 124.5 67 L 129 73.5 L 127 72.5 L 124.5 67 Z " /><path fill="rgb(175,164,119)" stroke="rgb(175,164,119)" stroke-width="1" opacity="0.06274509803921569" d="M 60.5 78 L 61 80.5 L 56.5 88 L 57 86.5 L 60.5 78 Z " /><path fill="rgb(175,164,119)" stroke="rgb(175,164,119)" stroke-width="1" opacity="0.06274509803921569" d="M 132.5 80 L 135 84.5 L 133 83.5 L 132.5 80 Z " /><path fill="rgb(175,164,119)" stroke="rgb(175,164,119)" stroke-width="1" opacity="0.06274509803921569" d="M 55.5 94 L 83 94.5 L 55.5 95 L 55.5 94 Z " /><path fill="rgb(175,164,119)" stroke="rgb(175,164,119)" stroke-width="1" opacity="0.06274509803921569" d="M 31.5 106 L 35 106.5 L 30.5 108 L 31.5 106 Z " /><path fill="rgb(175,164,119)" stroke="rgb(175,164,119)" stroke-width="1" opacity="0.06274509803921569" d="M 171.5 106 L 175 107.5 L 173.5 108 L 171.5 106 Z " /><path fill="rgb(175,164,119)" stroke="rgb(175,164,119)" stroke-width="1" opacity="0.06274509803921569" d="M 31.5 120 L 32.5 122 L 31.5 120 Z " /><path fill="rgb(175,164,119)" stroke="rgb(175,164,119)" stroke-width="1" opacity="0.06274509803921569" d="M 175.5 120 L 174.5 122 L 172 122 L 172 127.5 L 171 127.5 Q 169.8 122.3 172.5 121 L 175.5 120 Z " /><path fill="rgb(175,164,119)" stroke="rgb(175,164,119)" stroke-width="1" opacity="0.06274509803921569" d="M 34.5 122 L 42 122.5 L 34.5 123 L 34.5 122 Z " /><path fill="rgb(175,164,119)" stroke="rgb(175,164,119)" stroke-width="1" opacity="0.06274509803921569" d="M 44.5 126 L 46 128.5 L 45 128.5 L 44.5 126 Z " /><path fill="rgb(175,164,119)" stroke="rgb(175,164,119)" stroke-width="1" opacity="0.06274509803921569" d="M 28.5 131 L 37.5 135 L 42.5 135 L 47.5 133 L 46.5 135 L 36.5 136 L 28.5 132 L 28.5 131 Z " /><path fill="rgb(175,164,119)" stroke="rgb(175,164,119)" stroke-width="1" opacity="0.06274509803921569" d="M 174.5 132 L 173.5 134 L 171 133.5 L 174.5 132 Z " /><path fill="rgb(250,132,87)" stroke="rgb(250,132,87)" stroke-width="1" opacity="0.996078431372549" d="M 43.5 121 L 44.5 122 L 168.5 122 L 170 121.5 L 170 136 L 160.5 136 Q 154 130.5 142.5 130 L 128.5 136 L 118.5 136 Q 112.6 129.9 100.5 130 L 86.5 136 L 77.5 136 L 67.5 131 L 58.5 130 L 50.5 133 L 43.5 121 Z " /><path fill="rgb(254,159,46)" stroke="rgb(254,159,46)" stroke-width="1" opacity="0.996078431372549" d="M 35.5 107 L 169.5 107 L 175 111.5 Q 175.6 116.9 174 119 L 169.5 121 L 168.5 120 L 44.5 120 L 43.5 121 L 35.5 121 L 31 117.5 Q 30.3 111.4 32 109 L 35.5 107 Z " /><path fill="rgb(255,157,47)" stroke="rgb(255,157,47)" stroke-width="1" opacity="1" d="M 44 120 L 168.5 120 L 169 122 L 44.5 122 L 44 120 Z " /><path fill="rgb(32,162,217)" stroke="rgb(32,162,217)" stroke-width="1" opacity="0.49411764705882355" d="M 17 130 Q 25.2 128.6 29 132.5 L 27.5 132 L 18 131 L 18 167.5 L 19.5 169 L 186.5 169 L 188 167.5 L 188 132.5 L 186.5 131 Q 178.7 130.2 175.5 134 L 175 132 Q 180.2 129.1 189 130 L 189 168.5 L 187.5 169 L 186.5 170 L 19.5 170 L 17 169 L 17 130 Z " /><path fill="rgb(32,162,217)" stroke="rgb(32,162,217)" stroke-width="1" opacity="0.49411764705882355" d="M 49.5 133 L 48.5 135 L 49.5 133 Z " /><path fill="rgb(32,162,217)" stroke="rgb(32,162,217)" stroke-width="1" opacity="0.49411764705882355" d="M 34.5 135 Q 37.7 137.3 44.5 136 L 46.5 135 L 46.5 136 Q 43.3 138.3 36.5 137 L 34.5 135 Z " /><path fill="rgb(1,165,236)" stroke="rgb(1,165,236)" stroke-width="1" opacity="0.996078431372549" d="M 58.5 130 L 67.5 131 L 77.5 136 L 86.5 136 L 93.5 132 L 104.5 130 L 109.5 131 L 118.5 136 L 128.5 136 Q 135 130.5 146.5 130 L 160.5 136 L 169.5 136 L 181.5 131 L 186.5 131 L 188 132.5 L 188 167.5 L 186.5 169 L 19.5 169 L 18 167.5 L 18 132 L 23.5 131 L 36.5 137 L 43 137.5 L 36.5 138 L 24.5 133 L 20 133 L 20 166.5 L 20.5 167 L 186 167 L 186 133.5 Q 186 132.5 181.5 133 L 173.5 137 L 158.5 137 Q 152.7 132.3 143.5 131 L 130.5 137 L 116.5 137 Q 111.5 132 102.5 131 L 88.5 137 L 75.5 137 L 68.5 133 L 60.5 131 L 44.5 138 L 45.5 136 L 58.5 130 Z " /><path fill="rgb(0,166,237)" stroke="rgb(0,166,237)" stroke-width="1" opacity="1" d="M 60.5 131 L 68.5 133 L 75.5 137 L 88.5 137 L 103.5 131 Q 111.7 132.3 116.5 137 L 130.5 137 L 144.5 131 L 158.5 137 L 173.5 137 L 181.5 133 L 186 133 L 186 166.5 L 185.5 167 L 20 167 L 20 133.5 Q 20 132.5 24.5 133 Q 30.7 138.3 42.5 138 L 44.5 138 L 60.5 131 Z " /></svg>