<svg version="1.1" id="Layer_1" xmlns="http://www.w3.org/2000/svg" xmlns:xlink="http://www.w3.org/1999/xlink" x="0px" y="0px"
	 width="100%" viewBox="0 0 200 200" enable-background="new 0 0 200 200" xml:space="preserve">
<path fill="#000000" opacity="1.000000" stroke="none" 
	d="
M124.000000,201.000000 
	C82.692200,201.000000 41.884399,201.000000 1.038300,201.000000 
	C1.038300,134.400574 1.038300,67.801117 1.038300,1.100832 
	C67.557625,1.100832 134.115448,1.100832 200.836639,1.100832 
	C200.836639,67.666344 200.836639,134.333130 200.836639,201.000000 
	C175.468063,201.000000 149.984039,201.000000 124.000000,201.000000 
M50.231236,170.195572 
	C46.581982,173.892746 42.775620,177.453705 39.379631,181.370468 
	C38.366730,182.538712 37.937233,184.854019 38.335293,186.353058 
	C38.558071,187.192001 41.036125,187.886658 42.480366,187.854523 
	C45.749306,187.781815 49.061283,187.473297 52.257820,186.797485 
	C57.784473,185.629028 63.236736,184.108749 69.552597,182.804886 
	C75.258179,184.625092 80.700218,186.982468 87.099159,186.120712 
	C96.412056,184.866531 106.059799,185.443344 115.153999,183.405930 
	C124.166420,181.386841 132.669693,177.095093 142.205200,173.930679 
	C150.219131,172.895264 158.249954,171.967758 166.230453,170.718658 
	C167.566788,170.509506 169.574860,169.012695 169.705811,167.922638 
	C169.930893,166.049042 169.533478,163.393356 168.299988,162.204346 
	C165.987503,159.975220 162.891373,158.559036 159.826752,156.618286 
	C160.865219,156.150604 161.570053,156.065903 161.721725,155.730804 
	C165.470810,147.447922 170.610855,139.451630 172.489624,130.753372 
	C174.757950,120.251488 174.857025,109.147987 174.812454,98.309341 
	C174.736786,79.897057 167.593506,64.871338 151.559311,54.703827 
	C150.362244,53.944748 149.121048,50.765553 149.409271,50.525887 
	C154.022842,46.689320 151.757935,41.606014 151.739639,37.167690 
	C151.730026,34.834343 150.120651,31.214224 148.333206,30.531059 
	C146.393570,29.789724 142.964966,31.194902 140.959305,32.697048 
	C134.424957,37.591000 131.711929,44.388943 133.117020,52.524773 
	C122.505112,53.972897 116.282173,60.219662 112.487770,69.196457 
	C111.989967,70.374168 112.608215,72.479103 113.446480,73.606804 
	C114.010468,74.365517 115.865204,74.263405 117.155739,74.350906 
	C118.115837,74.416008 119.161987,73.892418 120.058586,74.103477 
	C125.940147,75.487991 130.591370,72.675400 134.249680,68.939857 
	C136.452530,66.690491 137.681976,66.491302 139.064453,68.713211 
	C142.370987,74.027382 146.223053,79.242973 148.241135,85.058365 
	C150.898407,92.715637 151.318054,100.945076 148.996124,108.977173 
	C147.703186,113.449699 144.871887,117.775436 140.283920,117.579880 
	C135.839981,117.390457 131.992218,113.829285 130.997406,108.873611 
	C130.261963,105.210075 130.204193,101.410500 129.919357,96.958321 
	C129.270889,95.151222 129.049026,92.980362 127.883827,91.613861 
	C125.561447,88.890251 122.720879,86.608490 119.407143,83.868217 
	C113.391426,79.207230 106.410347,78.542656 98.711052,78.302307 
	C86.778175,80.093765 74.833916,81.814613 62.921711,83.734367 
	C60.446144,84.133339 58.089359,85.269394 55.079800,86.377731 
	C41.104176,93.201195 31.328175,102.764450 33.060581,120.854477 
	C32.844612,131.010651 33.634594,140.961105 39.159851,150.744049 
	C40.236202,153.099823 41.066158,155.612091 42.441608,157.777924 
	C45.080517,161.933197 48.028988,165.891891 50.231236,170.195572 
M70.326454,61.901035 
	C71.317581,61.292652 72.256508,60.431129 73.327545,60.210289 
	C73.713516,60.130703 74.826065,61.548740 74.908234,62.354599 
	C75.399101,67.168709 75.685814,72.003632 76.058411,77.068016 
	C78.670280,76.932869 80.722389,76.826691 82.626930,76.728149 
	C83.765884,69.644928 84.792976,63.257366 86.041656,55.491749 
	C88.119400,57.831722 89.637955,58.768063 89.888535,59.968964 
	C90.646255,63.600479 93.462418,65.390518 96.188850,64.757797 
	C99.354286,64.023193 103.060852,62.080612 104.796974,59.496372 
	C107.976143,54.764111 105.523560,44.505665 101.416512,41.125340 
	C98.295135,38.556271 86.259209,38.044380 83.235413,40.953392 
	C80.462563,43.620979 77.893974,42.664715 74.750969,42.584702 
	C70.211868,42.469154 64.980148,42.789139 61.213699,44.956287 
	C54.451157,48.847340 51.666794,59.445068 54.137836,67.032600 
	C54.392372,67.814163 55.300697,68.477402 56.047237,68.988899 
	C61.181145,72.506409 67.066246,69.463814 70.326454,61.901035 
M114.717201,46.851349 
	C116.285896,46.539642 117.903587,46.378319 119.413551,45.886364 
	C123.071404,44.694622 125.632751,37.117691 122.719292,35.632259 
	C119.901711,34.195721 116.076584,33.984875 112.855705,34.423344 
	C111.364937,34.626289 109.524628,37.504021 109.136528,39.429813 
	C108.416695,43.001720 109.906830,45.927761 114.717201,46.851349 
M38.979889,80.173340 
	C40.883190,83.659348 45.072750,84.411621 47.343620,80.984161 
	C48.670528,78.981445 48.358414,75.597954 47.959869,72.960106 
	C47.863659,72.323318 44.488514,71.807320 42.646378,71.879318 
	C37.159458,72.093781 39.560719,76.487289 38.979889,80.173340 
z"/>
<path fill="#05A7EC" opacity="1.000000" stroke="none" 
	d="
M129.844498,97.671532 
	C130.204193,101.410500 130.261963,105.210075 130.997406,108.873611 
	C131.992218,113.829285 135.839981,117.390457 140.283920,117.579880 
	C144.871887,117.775436 147.703186,113.449699 148.996124,108.977173 
	C151.318054,100.945076 150.898407,92.715637 148.241135,85.058365 
	C146.223053,79.242973 142.370987,74.027382 139.064453,68.713211 
	C137.681976,66.491302 136.452530,66.690491 134.249680,68.939857 
	C130.591370,72.675400 125.940147,75.487991 120.058586,74.103477 
	C119.161987,73.892418 118.115837,74.416008 117.155739,74.350906 
	C115.865204,74.263405 114.010468,74.365517 113.446480,73.606804 
	C112.608215,72.479103 111.989967,70.374168 112.487770,69.196457 
	C116.282173,60.219662 122.505112,53.972897 133.117020,52.524773 
	C131.711929,44.388943 134.424957,37.591000 140.959305,32.697048 
	C142.964966,31.194902 146.393570,29.789724 148.333206,30.531059 
	C150.120651,31.214224 151.730026,34.834343 151.739639,37.167690 
	C151.757935,41.606014 154.022842,46.689320 149.409271,50.525887 
	C149.121048,50.765553 150.362244,53.944748 151.559311,54.703827 
	C167.593506,64.871338 174.736786,79.897057 174.812454,98.309341 
	C174.857025,109.147987 174.757950,120.251488 172.489624,130.753372 
	C170.610855,139.451630 165.470810,147.447922 161.721725,155.730804 
	C161.570053,156.065903 160.865219,156.150604 159.826752,156.618286 
	C162.891373,158.559036 165.987503,159.975220 168.299988,162.204346 
	C169.533478,163.393356 169.930893,166.049042 169.705811,167.922638 
	C169.574860,169.012695 167.566788,170.509506 166.230453,170.718658 
	C158.249954,171.967758 150.219131,172.895264 141.590057,173.535965 
	C135.100372,171.566742 129.124710,170.290970 123.375763,168.345367 
	C115.424019,165.654251 110.899345,159.861145 109.992813,151.447540 
	C109.477715,146.666931 109.006058,141.874435 108.749084,137.074753 
	C108.250572,127.763565 103.995895,121.142082 95.492538,117.081726 
	C88.124023,113.563271 80.512337,113.183563 72.632065,114.322823 
	C59.491135,116.222626 46.341148,118.059799 33.194977,119.923347 
	C31.328175,102.764450 41.104176,93.201195 55.757504,86.328217 
	C62.282383,85.493294 68.162247,84.894653 73.968964,83.878128 
	C82.394859,82.403099 90.767921,80.626297 99.163521,78.978203 
	C106.410347,78.542656 113.391426,79.207230 119.773819,84.343369 
	C122.531776,88.452034 124.870628,92.122025 127.353294,95.692001 
	C127.933273,96.525993 129.001114,97.020714 129.844498,97.671532 
M106.363159,99.323723 
	C105.464867,97.698257 104.566566,96.072792 103.668282,94.447334 
	C102.433899,95.884415 100.316734,97.248581 100.190468,98.777199 
	C100.035545,100.652596 101.545036,102.665489 102.334991,104.618958 
	C103.669853,103.106712 105.004715,101.594475 106.363159,99.323723 
z"/>
<path fill="#ACDBFD" opacity="1.000000" stroke="none" 
	d="
M33.127777,120.388916 
	C46.341148,118.059799 59.491135,116.222626 72.632065,114.322823 
	C80.512337,113.183563 88.124023,113.563271 95.492538,117.081726 
	C103.995895,121.142082 108.250572,127.763565 108.749084,137.074753 
	C109.006058,141.874435 109.477715,146.666931 109.992813,151.447540 
	C110.899345,159.861145 115.424019,165.654251 123.375763,168.345367 
	C129.124710,170.290970 135.100372,171.566742 141.185593,173.470703 
	C132.669693,177.095093 124.166420,181.386841 115.153999,183.405930 
	C106.059799,185.443344 96.412056,184.866531 87.099159,186.120712 
	C80.700218,186.982468 75.258179,184.625092 69.257172,182.432220 
	C63.607891,177.979507 58.254032,173.899475 52.895332,169.471863 
	C50.912163,166.393250 48.934010,163.662048 46.955456,160.931168 
	C44.308884,157.278259 41.661999,153.625565 39.015247,149.972778 
	C33.634594,140.961105 32.844612,131.010651 33.127777,120.388916 
z"/>
<path fill="#2DE7F8" opacity="1.000000" stroke="none" 
	d="
M69.933655,61.976349 
	C67.066246,69.463814 61.181145,72.506409 56.047237,68.988899 
	C55.300697,68.477402 54.392372,67.814163 54.137836,67.032600 
	C51.666794,59.445068 54.451157,48.847340 61.213699,44.956287 
	C64.980148,42.789139 70.211868,42.469154 74.750969,42.584702 
	C77.893974,42.664715 80.462563,43.620979 83.235413,40.953392 
	C86.259209,38.044380 98.295135,38.556271 101.416512,41.125340 
	C105.523560,44.505665 107.976143,54.764111 104.796974,59.496372 
	C103.060852,62.080612 99.354286,64.023193 96.188850,64.757797 
	C93.462418,65.390518 90.646255,63.600479 89.888535,59.968964 
	C89.637955,58.768063 88.119400,57.831722 86.041656,55.491749 
	C84.792976,63.257366 83.765884,69.644928 82.626930,76.728149 
	C80.722389,76.826691 78.670280,76.932869 76.058411,77.068016 
	C75.685814,72.003632 75.399101,67.168709 74.908234,62.354599 
	C74.826065,61.548740 73.713516,60.130703 73.327545,60.210289 
	C72.256508,60.431129 71.317581,61.292652 69.933655,61.976349 
z"/>
<path fill="#10A8E9" opacity="1.000000" stroke="none" 
	d="
M52.900177,169.819443 
	C58.254032,173.899475 63.607891,177.979507 68.840981,182.397797 
	C63.236736,184.108749 57.784473,185.629028 52.257820,186.797485 
	C49.061283,187.473297 45.749306,187.781815 42.480366,187.854523 
	C41.036125,187.886658 38.558071,187.192001 38.335293,186.353058 
	C37.937233,184.854019 38.366730,182.538712 39.379631,181.370468 
	C42.775620,177.453705 46.581982,173.892746 50.883137,170.133453 
	C51.990086,169.987381 52.445133,169.903412 52.900177,169.819443 
z"/>
<path fill="#37E3F2" opacity="1.000000" stroke="none" 
	d="
M114.318596,46.842857 
	C109.906830,45.927761 108.416695,43.001720 109.136528,39.429813 
	C109.524628,37.504021 111.364937,34.626289 112.855705,34.423344 
	C116.076584,33.984875 119.901711,34.195721 122.719292,35.632259 
	C125.632751,37.117691 123.071404,44.694622 119.413551,45.886364 
	C117.903587,46.378319 116.285896,46.539642 114.318596,46.842857 
z"/>
<path fill="#3ADBEA" opacity="1.000000" stroke="none" 
	d="
M38.977829,79.734131 
	C39.560719,76.487289 37.159458,72.093781 42.646378,71.879318 
	C44.488514,71.807320 47.863659,72.323318 47.959869,72.960106 
	C48.358414,75.597954 48.670528,78.981445 47.343620,80.984161 
	C45.072750,84.411621 40.883190,83.659348 38.977829,79.734131 
z"/>
<path fill="#4DAFD7" opacity="1.000000" stroke="none" 
	d="
M98.937286,78.640259 
	C90.767921,80.626297 82.394859,82.403099 73.968964,83.878128 
	C68.162247,84.894653 62.282383,85.493294 56.056519,86.172226 
	C58.089359,85.269394 60.446144,84.133339 62.921711,83.734367 
	C74.833916,81.814613 86.778175,80.093765 98.937286,78.640259 
z"/>
<path fill="#CAD9E4" opacity="1.000000" stroke="none" 
	d="
M52.895336,169.471863 
	C52.445133,169.903412 51.990086,169.987381 51.192032,170.001740 
	C48.028988,165.891891 45.080517,161.933197 42.441608,157.777924 
	C41.066158,155.612091 40.236202,153.099823 39.087547,150.358414 
	C41.661999,153.625565 44.308884,157.278259 46.955456,160.931168 
	C48.934010,163.662048 50.912163,166.393250 52.895336,169.471863 
z"/>
<path fill="#9DD0E6" opacity="1.000000" stroke="none" 
	d="
M129.881927,97.314926 
	C129.001114,97.020714 127.933273,96.525993 127.353294,95.692001 
	C124.870628,92.122025 122.531776,88.452034 120.117416,84.481369 
	C122.720879,86.608490 125.561447,88.890251 127.883827,91.613861 
	C129.049026,92.980362 129.270889,95.151222 129.881927,97.314926 
z"/>
<path fill="#182C34" opacity="1.000000" stroke="none" 
	d="
M106.351372,99.702980 
	C105.004715,101.594475 103.669853,103.106712 102.334991,104.618958 
	C101.545036,102.665489 100.035545,100.652596 100.190468,98.777199 
	C100.316734,97.248581 102.433899,95.884415 103.668274,94.447327 
	C104.566566,96.072792 105.464867,97.698257 106.351372,99.702980 
z"/>
</svg>