<svg width="200" height="200" version="1.1" xmlns="http://www.w3.org/2000/svg" desc="Created with imagetracer.js version 1.2.6" ><path fill="rgb(0,0,0)" stroke="rgb(0,0,0)" stroke-width="1" opacity="0" d="M 0 0 L 200 0 L 200 200 L 0 200 L 0 0 Z M 99 14 L 99 30 L 97 31 L 97 49 L 102 51 L 106 50 L 105 48 L 106 46 L 106 31 L 103 30 L 104 28 L 104 14 L 99 14 Z M 48 31 L 46 33 Q 45 37 48 36 L 48 39 L 52 43 Q 52 48 56 50 L 57 50 L 57 54 L 59 54 L 59 57 L 62 61 L 66 60 L 70 61 L 73 60 Q 74 54 71 53 Q 72 50 69 51 L 69 49 L 67 49 L 67 47 L 65 47 L 64 44 Q 61 45 62 42 L 60 42 L 60 40 L 58 40 L 57 37 L 52 31 L 48 31 Z M 152 31 L 149 34 Q 150 36 147 35 L 147 37 L 145 37 Q 146 41 142 43 Q 143 45 141 44 L 135 51 L 131 54 L 131 61 Q 134 60 133 63 L 143 63 L 143 56 L 147 54 Q 146 50 149 49 L 150 49 L 150 45 L 152 45 L 152 43 L 155 39 L 155 37 L 157 36 Q 160 29 152 31 Z M 92 59 L 87 61 L 82 61 Q 83 65 78 63 L 78 65 L 71 68 L 66 73 Q 67 75 65 74 L 59 83 Q 60 88 57 87 L 57 91 L 55 91 L 55 103 L 56 104 L 55 109 L 55 119 L 58 119 L 57 121 L 60 131 L 63 133 L 64 133 L 64 137 Q 67 136 66 139 L 69 141 Q 68 143 71 142 L 71 144 L 75 144 L 75 146 Q 80 146 83 149 L 85 148 L 85 151 L 92 150 L 113 150 L 116 151 L 117 148 L 122 149 Q 123 146 125 148 L 125 146 L 129 146 L 129 144 Q 133 145 134 142 Q 133 139 136 140 L 142 132 L 143 132 L 143 128 L 145 128 L 148 119 L 148 109 L 147 108 L 148 103 Q 150 88 143 82 Q 144 78 141 79 Q 142 75 138 74 Q 139 71 136 72 L 136 70 L 132 67 Q 128 68 129 65 L 125 65 L 125 63 Q 122 64 121 61 L 118 62 L 117 60 L 112 59 L 92 59 Z M 15 75 L 15 78 Q 12 79 16 81 L 17 82 L 22 82 L 22 84 L 35 89 L 39 89 Q 38 93 43 91 L 43 93 L 51 93 L 51 84 L 50 82 Q 45 83 44 81 Q 39 80 38 82 L 37 79 L 31 80 Q 26 81 28 77 L 22 77 Q 20 74 15 75 Z M 186 75 L 184 77 L 176 77 L 175 80 L 174 79 L 167 79 L 166 81 L 157 81 L 154 84 L 155 86 L 154 91 L 158 90 L 161 91 Q 165 92 164 89 Q 171 90 174 86 L 178 86 Q 177 82 182 84 L 182 82 L 187 82 Q 186 79 189 80 L 189 77 L 186 75 Z M 40 119 L 38 120 L 36 123 Q 31 122 30 125 Q 24 123 25 127 L 18 128 Q 14 130 15 135 L 21 135 L 21 133 L 37 132 L 38 129 L 39 130 L 46 130 L 47 127 L 50 128 L 49 123 L 50 120 L 40 119 Z M 158 119 L 154 120 L 155 123 L 154 128 Q 159 127 161 130 L 166 130 L 168 132 Q 174 130 176 133 L 182 133 L 183 135 L 189 135 L 189 130 Q 184 132 185 128 Q 180 128 178 125 Q 172 127 173 123 L 163 120 L 161 120 L 158 119 Z M 136 149 L 131 150 L 131 158 L 135 160 L 137 163 Q 139 162 138 165 L 140 165 L 140 167 L 142 167 L 144 170 Q 146 169 145 173 L 152 179 L 157 179 L 157 175 L 150 165 Q 151 161 148 162 L 147 160 Q 148 156 145 157 L 145 155 L 140 149 L 139 150 L 136 149 Z M 63 150 L 59 156 Q 60 158 57 157 L 57 160 L 53 162 L 52 166 L 52 169 L 48 171 Q 49 174 46 176 L 46 179 L 53 179 L 58 174 L 58 172 L 62 169 L 68 162 Q 70 163 69 160 L 71 160 L 73 157 L 73 152 L 72 150 L 63 150 Z M 99 160 L 97 162 L 97 180 L 99 182 L 99 196 Q 100 198 104 197 L 104 184 L 103 183 Q 102 180 106 181 L 106 166 L 105 165 L 106 160 L 103 161 L 99 160 Z " /><path fill="rgb(16,16,16)" stroke="rgb(16,16,16)" stroke-width="1" opacity="0.8549019607843137" d="M 100 18 Q 104.5 16.3 103 21.5 Q 105.2 22.8 104 27.5 Q 102.7 30.3 101.5 28 L 100 27.5 L 100 18 Z " /><path fill="rgb(16,16,16)" stroke="rgb(16,16,16)" stroke-width="1" opacity="0.8549019607843137" d="M 103.5 32 L 105 39.5 L 105 48.5 L 103 49.5 L 103.5 32 Z " /><path fill="rgb(16,16,16)" stroke="rgb(16,16,16)" stroke-width="1" opacity="0.8549019607843137" d="M 153.5 32 L 155 34.5 L 146 47.5 L 146 50 Q 143.3 51.1 144 48.5 L 149 40.5 L 147 40.5 L 151 35 Q 154.1 36.1 153.5 32 Z " /><path fill="rgb(16,16,16)" stroke="rgb(16,16,16)" stroke-width="1" opacity="0.8549019607843137" d="M 49.5 34 L 52 35.5 L 50.5 36 L 49.5 34 Z " /><path fill="rgb(16,16,16)" stroke="rgb(16,16,16)" stroke-width="1" opacity="0.8549019607843137" d="M 51 37 L 54 37.5 L 53 39.5 L 54.5 39 Q 56.8 38.3 56 40.5 L 68 53.5 L 63 49.5 L 63 48 L 61 48 Q 62.1 45.3 59.5 46 L 56.5 43 L 55.5 44 Q 52.9 44.8 54 41.5 L 51 37 Z " /><path fill="rgb(16,16,16)" stroke="rgb(16,16,16)" stroke-width="1" opacity="0.8549019607843137" d="M 99.5 37 L 100 48.5 L 98 47.5 Q 97 40.4 99.5 37 Z " /><path fill="rgb(16,16,16)" stroke="rgb(16,16,16)" stroke-width="1" opacity="0.8549019607843137" d="M 144 43 Q 147 42 146 45 L 143 46.5 L 143 48 L 141 48 L 141 50 L 139 50 Q 140.1 52.7 137.5 52 L 139 49.5 Q 138.3 46.9 141 48 L 141 46 L 142.5 46 L 144 43 Z " /><path fill="rgb(16,16,16)" stroke="rgb(16,16,16)" stroke-width="1" opacity="0.8549019607843137" d="M 56.5 46 Q 58.8 45.3 58 47.5 L 63 55.5 L 61 54.5 L 56.5 46 Z " /><path fill="rgb(16,16,16)" stroke="rgb(16,16,16)" stroke-width="1" opacity="0.8549019607843137" d="M 142 51 Q 145 50 144 53 Q 141.3 51.9 142 54.5 L 138.5 60 L 138 58.5 L 142 51 Z " /><path fill="rgb(16,16,16)" stroke="rgb(16,16,16)" stroke-width="1" opacity="0.8549019607843137" d="M 135 53 L 137 53.5 L 135 54.5 L 135 53 Z " /><path fill="rgb(16,16,16)" stroke="rgb(16,16,16)" stroke-width="1" opacity="0.8549019607843137" d="M 63.5 57 Q 65.8 56.3 65 58.5 L 63.5 57 Z " /><path fill="rgb(16,16,16)" stroke="rgb(16,16,16)" stroke-width="1" opacity="0.8549019607843137" d="M 133.5 57 L 135.5 60 Q 133.3 60.8 134 58.5 L 133.5 57 Z " /><path fill="rgb(16,16,16)" stroke="rgb(16,16,16)" stroke-width="1" opacity="0.8549019607843137" d="M 68 58 Q 71 57 70 60 Q 67 61 68 58 Z " /><path fill="rgb(16,16,16)" stroke="rgb(16,16,16)" stroke-width="1" opacity="0.8549019607843137" d="M 90 60 L 93 61.5 L 88.5 63 L 88.5 62 Q 91.1 62.7 90 60 Z " /><path fill="rgb(16,16,16)" stroke="rgb(16,16,16)" stroke-width="1" opacity="0.8549019607843137" d="M 111 60 L 114 60 Q 112.9 62.7 115.5 62 L 115.5 63 L 111 62 L 111 60 Z " /><path fill="rgb(16,16,16)" stroke="rgb(16,16,16)" stroke-width="1" opacity="0.8549019607843137" d="M 84 62 Q 87 61 86 64 Q 83 65 84 62 Z " /><path fill="rgb(16,16,16)" stroke="rgb(16,16,16)" stroke-width="1" opacity="0.8549019607843137" d="M 117 62 Q 120 61 119 64 Q 116 65 117 62 Z " /><path fill="rgb(16,16,16)" stroke="rgb(16,16,16)" stroke-width="1" opacity="0.8549019607843137" d="M 81.5 64 Q 84.1 63.3 83 66 L 80 65.5 L 81.5 64 Z " /><path fill="rgb(16,16,16)" stroke="rgb(16,16,16)" stroke-width="1" opacity="0.8549019607843137" d="M 121 64 Q 124 63 123 66 Q 120 67 121 64 Z " /><path fill="rgb(16,16,16)" stroke="rgb(16,16,16)" stroke-width="1" opacity="0.8549019607843137" d="M 77 66 Q 80 65 79 68 L 73.5 71 L 73 69 L 77 68 L 77 66 Z " /><path fill="rgb(16,16,16)" stroke="rgb(16,16,16)" stroke-width="1" opacity="0.8549019607843137" d="M 124.5 66 L 128 67 L 127.5 69 L 124.5 66 Z " /><path fill="rgb(16,16,16)" stroke="rgb(16,16,16)" stroke-width="1" opacity="0.8549019607843137" d="M 129.5 69 L 133 71 L 133 73 L 135 73 L 135 75 Q 137.7 73.9 137 76.5 L 129.5 69 Z " /><path fill="rgb(16,16,16)" stroke="rgb(16,16,16)" stroke-width="1" opacity="0.8549019607843137" d="M 70 71 Q 73 70 72 73 Q 69.3 71.9 70 74.5 L 67 76 L 66.5 78 L 66 76.5 L 70 71 Z " /><path fill="rgb(16,16,16)" stroke="rgb(16,16,16)" stroke-width="1" opacity="0.8549019607843137" d="M 17.5 78 L 20.5 79 L 23.5 78 L 24.5 80 L 21.5 81 Q 17.5 80.5 17.5 78 Z " /><path fill="rgb(16,16,16)" stroke="rgb(16,16,16)" stroke-width="1" opacity="0.8549019607843137" d="M 138.5 78 L 142 85 Q 145 83.8 144 87.5 L 142 86.5 L 138 79.5 L 138.5 78 Z " /><path fill="rgb(16,16,16)" stroke="rgb(16,16,16)" stroke-width="1" opacity="0.8549019607843137" d="M 180.5 78 L 185.5 79 L 187 78.5 L 181.5 81 L 179 79.5 L 180.5 78 Z " /><path fill="rgb(16,16,16)" stroke="rgb(16,16,16)" stroke-width="1" opacity="0.8549019607843137" d="M 64.5 79 L 65 80.5 L 61 85.5 L 58.5 93 L 58 90.5 L 64.5 79 Z " /><path fill="rgb(16,16,16)" stroke="rgb(16,16,16)" stroke-width="1" opacity="0.8549019607843137" d="M 29.5 80 L 35 81.5 L 30.5 82 L 29.5 80 Z " /><path fill="rgb(16,16,16)" stroke="rgb(16,16,16)" stroke-width="1" opacity="0.8549019607843137" d="M 172.5 80 Q 175.1 79.3 174 82 L 169 81.5 L 172.5 80 Z " /><path fill="rgb(16,16,16)" stroke="rgb(16,16,16)" stroke-width="1" opacity="0.8549019607843137" d="M 24.5 81 L 27 82.5 L 25.5 82 L 24.5 81 Z " /><path fill="rgb(16,16,16)" stroke="rgb(16,16,16)" stroke-width="1" opacity="0.8549019607843137" d="M 38.5 81 Q 39.8 83.8 44 83.5 L 40.5 84 L 36 82.5 L 38.5 81 Z " /><path fill="rgb(16,16,16)" stroke="rgb(16,16,16)" stroke-width="1" opacity="0.8549019607843137" d="M 164.5 81 Q 168.3 80 167 83 L 158.5 84 L 156 86.5 L 157.5 89 L 169 85 Q 170.3 88.3 165.5 87 L 159.5 90 L 156.5 90 Q 154 88.8 155 85 L 158.5 83 L 162.5 83 L 164.5 81 Z " /><path fill="rgb(16,16,16)" stroke="rgb(16,16,16)" stroke-width="1" opacity="0.8549019607843137" d="M 177.5 81 L 179 81.5 L 176.5 83 L 177.5 81 Z " /><path fill="rgb(16,16,16)" stroke="rgb(16,16,16)" stroke-width="1" opacity="0.8549019607843137" d="M 29.5 83 L 33 84.5 L 30.5 85 L 29.5 83 Z " /><path fill="rgb(16,16,16)" stroke="rgb(16,16,16)" stroke-width="1" opacity="0.8549019607843137" d="M 45 83 Q 48 82 47 85 Q 44 86 45 83 Z " /><path fill="rgb(16,16,16)" stroke="rgb(16,16,16)" stroke-width="1" opacity="0.8549019607843137" d="M 172.5 83 Q 175.1 82.3 174 85 L 171 84.5 L 172.5 83 Z " /><path fill="rgb(16,16,16)" stroke="rgb(16,16,16)" stroke-width="1" opacity="0.8549019607843137" d="M 34.5 85 L 40 87.5 L 38.5 88 Q 34.5 87.5 34.5 85 Z " /><path fill="rgb(16,16,16)" stroke="rgb(16,16,16)" stroke-width="1" opacity="0.8549019607843137" d="M 48.5 85 L 49 87.5 L 47 88.5 L 48.5 85 Z " /><path fill="rgb(16,16,16)" stroke="rgb(16,16,16)" stroke-width="1" opacity="0.8549019607843137" d="M 42.5 88 L 45 89.5 L 43.5 90 L 42.5 88 Z " /><path fill="rgb(16,16,16)" stroke="rgb(16,16,16)" stroke-width="1" opacity="0.8549019607843137" d="M 144.5 89 Q 147 90 146 94.5 L 145 94.5 L 144.5 89 Z " /><path fill="rgb(16,16,16)" stroke="rgb(16,16,16)" stroke-width="1" opacity="0.8549019607843137" d="M 57.5 94 L 58 103 Q 54.5 104.1 56 96.5 L 57.5 94 Z " /><path fill="rgb(16,16,16)" stroke="rgb(16,16,16)" stroke-width="1" opacity="0.8549019607843137" d="M 146.5 96 Q 149.5 97.6 148 103 L 146 102.5 L 146.5 96 Z " /><path fill="rgb(16,16,16)" stroke="rgb(16,16,16)" stroke-width="1" opacity="0.8549019607843137" d="M 56 108 L 58 108.5 L 58 116.5 L 57 116.5 L 56 108 Z " /><path fill="rgb(16,16,16)" stroke="rgb(16,16,16)" stroke-width="1" opacity="0.8549019607843137" d="M 146 108 Q 150 106.6 148 113.5 L 146 115.5 L 146 120.5 L 142 126.5 L 142 129 Q 139.3 127.9 140 130.5 L 137 136 L 135 136 Q 136.1 138.7 133.5 138 L 130.5 140 L 131.5 138 L 133 138 L 133 136 L 135 136 L 135 134 Q 137.7 135.1 137 132.5 L 144 121.5 L 146 114.5 L 146 108 Z " /><path fill="rgb(16,16,16)" stroke="rgb(16,16,16)" stroke-width="1" opacity="0.8549019607843137" d="M 58.5 118 L 63 129 Q 65.7 127.9 65 130.5 L 70 138 L 80 144.5 L 77 145 Q 78.1 142.3 75.5 143 L 67 135.5 L 63 129.5 L 58 120.5 L 58.5 118 Z " /><path fill="rgb(16,16,16)" stroke="rgb(16,16,16)" stroke-width="1" opacity="0.8549019607843137" d="M 44.5 120 L 47 120 Q 46 123 49 122 L 49 126 L 45.5 127 L 45.5 126 L 47 126 L 47 122 L 43 121.5 L 44.5 120 Z " /><path fill="rgb(16,16,16)" stroke="rgb(16,16,16)" stroke-width="1" opacity="0.8549019607843137" d="M 156.5 120 L 158.5 120 Q 161.1 119.3 160 122 L 156 123.5 L 157 127 L 160 127.5 L 157.5 128 Q 154.3 127.3 155 122.5 L 156.5 120 Z " /><path fill="rgb(16,16,16)" stroke="rgb(16,16,16)" stroke-width="1" opacity="0.8549019607843137" d="M 40.5 122 L 42 122.5 L 39.5 124 L 40.5 122 Z " /><path fill="rgb(16,16,16)" stroke="rgb(16,16,16)" stroke-width="1" opacity="0.8549019607843137" d="M 162.5 122 Q 166.3 121 165 124 L 162.5 122 Z " /><path fill="rgb(16,16,16)" stroke="rgb(16,16,16)" stroke-width="1" opacity="0.8549019607843137" d="M 35.5 124 L 37 124.5 L 33.5 126 L 33.5 125 L 35.5 124 Z " /><path fill="rgb(16,16,16)" stroke="rgb(16,16,16)" stroke-width="1" opacity="0.8549019607843137" d="M 167.5 124 L 170 125.5 L 168.5 126 L 167.5 124 Z " /><path fill="rgb(16,16,16)" stroke="rgb(16,16,16)" stroke-width="1" opacity="0.8549019607843137" d="M 30.5 126 L 32 126.5 Q 30.8 129 27 128 L 28 130.5 L 24 131 L 23.5 133 L 17 133 Q 15.9 130.3 18.5 131 Q 19.7 133.3 21 130.5 Q 20.1 127.1 25.5 129 L 30.5 126 Z " /><path fill="rgb(16,16,16)" stroke="rgb(16,16,16)" stroke-width="1" opacity="0.8549019607843137" d="M 171.5 126 L 183 130.5 L 181 131.5 L 184.5 132 L 186 131.5 L 185.5 133 L 179 133 L 180 130.5 L 178.5 130 L 175.5 131 L 175.5 130 L 178 129.5 L 171.5 127 L 171.5 126 Z " /><path fill="rgb(16,16,16)" stroke="rgb(16,16,16)" stroke-width="1" opacity="0.8549019607843137" d="M 38 127 L 42 127.5 L 38 129 L 38 127 Z " /><path fill="rgb(16,16,16)" stroke="rgb(16,16,16)" stroke-width="1" opacity="0.8549019607843137" d="M 162.5 127 L 169 128.5 L 163.5 129 L 162.5 127 Z " /><path fill="rgb(16,16,16)" stroke="rgb(16,16,16)" stroke-width="1" opacity="0.8549019607843137" d="M 29 129 L 33 129.5 L 29 131 L 29 129 Z " /><path fill="rgb(16,16,16)" stroke="rgb(16,16,16)" stroke-width="1" opacity="0.8549019607843137" d="M 171 129 Q 175.1 127.7 174 131 Q 169.9 132.3 171 129 Z " /><path fill="rgb(16,16,16)" stroke="rgb(16,16,16)" stroke-width="1" opacity="0.8549019607843137" d="M 128.5 141 L 130 141.5 L 127.5 143 L 128.5 141 Z " /><path fill="rgb(16,16,16)" stroke="rgb(16,16,16)" stroke-width="1" opacity="0.8549019607843137" d="M 124.5 143 Q 127.1 142.3 126 145 L 123 145 L 123 147 L 119 147 L 119 148.5 L 117 147.5 L 124.5 143 Z " /><path fill="rgb(16,16,16)" stroke="rgb(16,16,16)" stroke-width="1" opacity="0.8549019607843137" d="M 81 145 L 86 147 L 85.5 149 Q 84.4 146.3 81 147 L 81 145 Z " /><path fill="rgb(16,16,16)" stroke="rgb(16,16,16)" stroke-width="1" opacity="0.8549019607843137" d="M 87.5 148 Q 91.3 147.3 92 149.5 L 89.5 150 L 87.5 148 Z " /><path fill="rgb(16,16,16)" stroke="rgb(16,16,16)" stroke-width="1" opacity="0.8549019607843137" d="M 112.5 148 L 116 148.5 L 111.5 150 L 112.5 148 Z " /><path fill="rgb(16,16,16)" stroke="rgb(16,16,16)" stroke-width="1" opacity="0.8549019607843137" d="M 65.5 150 L 66 151.5 L 65 154 Q 62 155 63 152 Q 65.8 153 65.5 150 Z " /><path fill="rgb(16,16,16)" stroke="rgb(16,16,16)" stroke-width="1" opacity="0.8549019607843137" d="M 68.5 150 L 69.5 152 Q 66.7 152.7 68.5 150 Z " /><path fill="rgb(16,16,16)" stroke="rgb(16,16,16)" stroke-width="1" opacity="0.8549019607843137" d="M 134 150 Q 137 149 136 152 Q 133 150.8 134 154.5 L 136.5 158 Q 132.5 157.5 133 152.5 L 134 150 Z " /><path fill="rgb(16,16,16)" stroke="rgb(16,16,16)" stroke-width="1" opacity="0.8549019607843137" d="M 138.5 150 L 142 155.5 L 140 156 L 138.5 150 Z " /><path fill="rgb(16,16,16)" stroke="rgb(16,16,16)" stroke-width="1" opacity="0.8549019607843137" d="M 62.5 155 L 63 156.5 L 60 159.5 L 58 165 L 56 164.5 L 62.5 155 Z " /><path fill="rgb(16,16,16)" stroke="rgb(16,16,16)" stroke-width="1" opacity="0.8549019607843137" d="M 68 155 L 70 155.5 L 68 159 L 65 160.5 L 59 167.5 L 54 171.5 L 56 168.5 L 53 170.5 L 54 173.5 L 51 174.5 L 49.5 178 L 49 175.5 L 54 168.5 L 54 166 Q 56.7 164.9 56 167.5 L 59 165.5 L 59 164 L 61 164 Q 59.9 161.3 62.5 162 L 64 159 L 66 159 L 68 155 Z " /><path fill="rgb(16,16,16)" stroke="rgb(16,16,16)" stroke-width="1" opacity="0.8549019607843137" d="M 142.5 157 L 143.5 159 Q 140.7 159.7 142.5 157 Z " /><path fill="rgb(16,16,16)" stroke="rgb(16,16,16)" stroke-width="1" opacity="0.8549019607843137" d="M 137.5 159 L 140.5 161 L 144 166 Q 147 165 146 168 Q 143.3 169.1 144 166.5 L 137.5 159 Z " /><path fill="rgb(16,16,16)" stroke="rgb(16,16,16)" stroke-width="1" opacity="0.8549019607843137" d="M 100.5 161 L 100 162.5 L 99.5 173 Q 96.8 169 98 162 L 100.5 161 Z " /><path fill="rgb(16,16,16)" stroke="rgb(16,16,16)" stroke-width="1" opacity="0.8549019607843137" d="M 103.5 161 L 105 162.5 L 105 172.5 L 103.5 179 L 103 164.5 L 103 162.5 L 103.5 161 Z " /><path fill="rgb(16,16,16)" stroke="rgb(16,16,16)" stroke-width="1" opacity="0.8549019607843137" d="M 144 161 Q 147 160 146 163 Q 143 164 144 161 Z " /><path fill="rgb(16,16,16)" stroke="rgb(16,16,16)" stroke-width="1" opacity="0.8549019607843137" d="M 146.5 164 L 154 176.5 L 148 171.5 L 149 168 Q 146 169.3 147 165.5 L 146.5 164 Z " /><path fill="rgb(16,16,16)" stroke="rgb(16,16,16)" stroke-width="1" opacity="0.8549019607843137" d="M 101.5 182 L 104 183.5 L 103 193 L 100 192.5 L 100 183.5 L 101.5 182 Z " /><path fill="rgb(0,0,0)" stroke="rgb(0,0,0)" stroke-width="1" opacity="0.996078431372549" d="M 100 28 L 103 29.5 Q 104 34.5 101 33.5 L 101 41.5 L 100 41.5 L 100 28 Z " /><path fill="rgb(0,0,0)" stroke="rgb(0,0,0)" stroke-width="1" opacity="0.996078431372549" d="M 148.5 40 L 149 41.5 L 143.5 51 L 143 49 L 141 48.5 L 143 48 L 144.5 45 L 146 45 L 146 41 L 147.5 41 L 148.5 40 Z " /><path fill="rgb(0,0,0)" stroke="rgb(0,0,0)" stroke-width="1" opacity="0.996078431372549" d="M 56.5 43 L 61 46 L 61 48 Q 63.7 46.9 63 49.5 L 64.5 52 L 60.5 48 Q 59.3 50.3 58 47.5 Q 58.7 44.9 56 46 L 56.5 43 Z " /><path fill="rgb(0,0,0)" stroke="rgb(0,0,0)" stroke-width="1" opacity="0.996078431372549" d="M 100.5 46 L 103 47 Q 104.5 51.5 100 50 L 100.5 46 Z " /><path fill="rgb(0,0,0)" stroke="rgb(0,0,0)" stroke-width="1" opacity="0.996078431372549" d="M 139 50 L 142 51.5 L 140.5 55 L 139 50 Z " /><path fill="rgb(0,0,0)" stroke="rgb(0,0,0)" stroke-width="1" opacity="0.996078431372549" d="M 62.5 54 Q 65.1 53.3 64 56 L 66 56 L 66 58 L 68 58 L 68 60 L 65 60 L 65 57 Q 62.3 58.1 63 55.5 L 62.5 54 Z " /><path fill="rgb(0,0,0)" stroke="rgb(0,0,0)" stroke-width="1" opacity="0.996078431372549" d="M 67.5 54 L 70 57.5 L 69 57.5 L 67.5 54 Z " /><path fill="rgb(0,0,0)" stroke="rgb(0,0,0)" stroke-width="1" opacity="0.996078431372549" d="M 135.5 58 L 136.5 60 L 135.5 58 Z " /><path fill="rgb(0,0,0)" stroke="rgb(0,0,0)" stroke-width="1" opacity="0.996078431372549" d="M 92.5 60 L 110.5 60 L 111 62 L 113.5 62 L 115.5 63 L 117 62.5 L 117 64 L 121 64 Q 119.8 67 123.5 66 L 124.5 68 L 114.5 65 L 112.5 63 L 90 63 L 90 65 L 85.5 65 Q 86.5 68 81.5 67 L 79 68 L 79 66 L 83 66 L 83 64 L 86 64 Q 84.9 61.3 87.5 62 L 89.5 63 L 93 61.5 L 92.5 60 Z " /><path fill="rgb(0,0,0)" stroke="rgb(0,0,0)" stroke-width="1" opacity="0.996078431372549" d="M 77.5 68 L 78 70 L 76 70 L 76 72 L 73 72 Q 74.1 74.7 71.5 74 L 70 74.5 L 70 73 L 72 73 Q 70.9 70.3 73.5 71 L 77.5 68 Z " /><path fill="rgb(0,0,0)" stroke="rgb(0,0,0)" stroke-width="1" opacity="0.996078431372549" d="M 126.5 68 L 138 78.5 L 136 79 L 136 77 Q 133.3 78.1 134 75.5 L 129 72 Q 130.1 68.7 126 70 L 126.5 68 Z " /><path fill="rgb(0,0,0)" stroke="rgb(0,0,0)" stroke-width="1" opacity="0.996078431372549" d="M 65 78 L 67 78.5 L 66 82 L 64 82 L 64 86 L 62 86 Q 63.5 89.8 60.5 89 L 61 87.5 L 65 78 Z " /><path fill="rgb(0,0,0)" stroke="rgb(0,0,0)" stroke-width="1" opacity="0.996078431372549" d="M 182.5 78 L 186 78.5 L 182.5 79 L 182.5 78 Z " /><path fill="rgb(0,0,0)" stroke="rgb(0,0,0)" stroke-width="1" opacity="0.996078431372549" d="M 23.5 80 L 28.5 80 L 33.5 83 L 35.5 82 L 40 83.5 L 37 84 L 36.5 86 L 31.5 83 L 27.5 83 L 23.5 81 L 23.5 80 Z " /><path fill="rgb(0,0,0)" stroke="rgb(0,0,0)" stroke-width="1" opacity="0.996078431372549" d="M 138.5 80 L 139.5 82 Q 136.7 82.7 138.5 80 Z " /><path fill="rgb(0,0,0)" stroke="rgb(0,0,0)" stroke-width="1" opacity="0.996078431372549" d="M 174 80 L 181 80.5 L 166.5 86 L 166 84 L 164 83.5 Q 167.6 81 174 82 L 174 80 Z " /><path fill="rgb(0,0,0)" stroke="rgb(0,0,0)" stroke-width="1" opacity="0.996078431372549" d="M 44.5 83 L 45 85 L 48 85.5 L 43 86 Q 44.3 89 40.5 88 L 38 86.5 L 41 86 Q 39.8 83 43.5 84 L 44.5 83 Z " /><path fill="rgb(0,0,0)" stroke="rgb(0,0,0)" stroke-width="1" opacity="0.996078431372549" d="M 140.5 84 L 144 88.5 Q 143.2 93.8 146 95.5 L 147 107.5 L 145.5 115 L 145 95.5 Q 141.8 94 143 89 Q 140 90.3 141 86.5 L 140.5 84 Z " /><path fill="rgb(0,0,0)" stroke="rgb(0,0,0)" stroke-width="1" opacity="0.996078431372549" d="M 158.5 84 L 159 86 Q 156 85 157 88 L 159 88.5 L 157.5 89 L 156 86.5 L 158.5 84 Z " /><path fill="rgb(0,0,0)" stroke="rgb(0,0,0)" stroke-width="1" opacity="0.996078431372549" d="M 161 86 L 164 86.5 L 161.5 88 L 161 86 Z " /><path fill="rgb(0,0,0)" stroke="rgb(0,0,0)" stroke-width="1" opacity="0.996078431372549" d="M 44.5 88 Q 46.8 87.3 46 89.5 L 44.5 88 Z " /><path fill="rgb(0,0,0)" stroke="rgb(0,0,0)" stroke-width="1" opacity="0.996078431372549" d="M 59.5 91 L 60 94.5 L 59 95.5 L 59 115.5 L 60 118.5 L 58 117.5 L 58 108.5 Q 54.5 109.3 56 103 L 58 102.5 L 58 93.5 L 59.5 91 Z " /><path fill="rgb(0,0,0)" stroke="rgb(0,0,0)" stroke-width="1" opacity="0.996078431372549" d="M 143 116 Q 145.7 114.9 145 117.5 L 140.5 127 L 140 125.5 L 143 120.5 L 143 116 Z " /><path fill="rgb(0,0,0)" stroke="rgb(0,0,0)" stroke-width="1" opacity="0.996078431372549" d="M 60 121 L 62 121 L 62 125 Q 65 123.8 64 127.5 L 67 131.5 L 65 130.5 Q 65.7 127.9 63 129 L 63 126.5 L 60 121 Z " /><path fill="rgb(0,0,0)" stroke="rgb(0,0,0)" stroke-width="1" opacity="0.996078431372549" d="M 44.5 122 Q 49.1 120.8 47 126 Q 44.2 127.9 38 127 Q 39.1 129.7 36.5 129 L 34.5 129 Q 28.4 127.8 29 130.5 L 27 129.5 Q 26.1 126.5 30.5 128 L 40.5 123 L 41 125 L 39 125.5 L 42.5 126 L 46 125 Q 47.1 122.3 44.5 123 L 44.5 122 Z " /><path fill="rgb(0,0,0)" stroke="rgb(0,0,0)" stroke-width="1" opacity="0.996078431372549" d="M 157.5 122 L 161.5 122 L 163.5 124 L 166.5 124 L 180 130.5 L 178.5 131 L 175.5 130 L 174 130.5 Q 174.9 127.1 169.5 129 Q 165.3 125.7 157 126.5 L 166 125.5 L 161 125 Q 162.2 121.3 157 123 L 156.5 125 L 156 123.5 L 157.5 122 Z " /><path fill="rgb(0,0,0)" stroke="rgb(0,0,0)" stroke-width="1" opacity="0.996078431372549" d="M 138 128 L 140 128.5 L 137 134 L 135 134 Q 136.1 136.7 133.5 136 L 134 134.5 Q 133.3 131.9 136 133 L 136 130 L 138 130 L 138 128 Z " /><path fill="rgb(0,0,0)" stroke="rgb(0,0,0)" stroke-width="1" opacity="0.996078431372549" d="M 181.5 131 L 185 131.5 L 181.5 132 L 181.5 131 Z " /><path fill="rgb(0,0,0)" stroke="rgb(0,0,0)" stroke-width="1" opacity="0.996078431372549" d="M 68.5 134 L 73 137 L 74 139.5 L 71.5 138 Q 69.3 138.8 70 136.5 L 68.5 134 Z " /><path fill="rgb(0,0,0)" stroke="rgb(0,0,0)" stroke-width="1" opacity="0.996078431372549" d="M 76.5 141 L 85 144 Q 83.8 147 87.5 146 L 88.5 148 L 80.5 145 L 76.5 141 Z " /><path fill="rgb(0,0,0)" stroke="rgb(0,0,0)" stroke-width="1" opacity="0.996078431372549" d="M 126.5 141 L 128 141.5 L 116.5 148 L 113 148 Q 111.7 144.3 117.5 146 Q 118.6 143.2 122 144 Q 120.7 140.7 125.5 142 L 126.5 141 Z " /><path fill="rgb(0,0,0)" stroke="rgb(0,0,0)" stroke-width="1" opacity="0.996078431372549" d="M 91.5 148 L 112 148.5 L 110.5 150 L 92.5 150 L 91.5 148 Z " /><path fill="rgb(0,0,0)" stroke="rgb(0,0,0)" stroke-width="1" opacity="0.996078431372549" d="M 66 150 L 70 152 L 70 154.5 L 69 154.5 Q 69.7 151.5 66 153 Q 67 156 64 155 L 64 158 L 66 158.5 L 64.5 159 L 62 157.5 L 63 154 Q 65.7 155.1 65 152.5 L 66 150 Z " /><path fill="rgb(0,0,0)" stroke="rgb(0,0,0)" stroke-width="1" opacity="0.996078431372549" d="M 136 150 Q 138.7 148.9 138 151.5 L 140 154.5 L 138 155 Q 139.3 151.7 134.5 153 L 134.5 152 Q 137.1 152.7 136 150 Z " /><path fill="rgb(0,0,0)" stroke="rgb(0,0,0)" stroke-width="1" opacity="0.996078431372549" d="M 67.5 155 L 68 157 L 66 156.5 L 67.5 155 Z " /><path fill="rgb(0,0,0)" stroke="rgb(0,0,0)" stroke-width="1" opacity="0.996078431372549" d="M 135.5 155 L 138 158.5 L 137 158.5 L 135.5 155 Z " /><path fill="rgb(0,0,0)" stroke="rgb(0,0,0)" stroke-width="1" opacity="0.996078431372549" d="M 141.5 156 L 142 159 L 144 159 L 144 163 Q 147 161.8 146 165.5 L 147 168 Q 150 166.8 149 170.5 L 148 170.5 Q 148.7 167.9 146 169 L 146 166 L 144 166 L 144 163 L 142.5 163 L 139 160.5 L 140.5 160 L 143 161.5 Q 140 159.7 141.5 156 Z " /><path fill="rgb(0,0,0)" stroke="rgb(0,0,0)" stroke-width="1" opacity="0.996078431372549" d="M 101.5 161 Q 103.8 160.3 103 162.5 L 103.5 164 L 101 164.5 L 101 178 Q 104.7 176.8 103 182 L 100.5 183 L 100 162.5 L 101.5 161 Z " /><path fill="rgb(0,0,0)" stroke="rgb(0,0,0)" stroke-width="1" opacity="0.996078431372549" d="M 59.5 162 Q 62.1 161.3 61 164 Q 58.3 162.9 59 165.5 L 53.5 173 L 53 170.5 Q 56.8 169.3 56 165 Q 58.7 166.1 58 163.5 L 59.5 162 Z " /><path fill="rgb(200,200,200)" stroke="rgb(200,200,200)" stroke-width="1" opacity="0.21568627450980393" d="M 97 30 Q 100 29 99 32 Q 96 33 97 30 Z " /><path fill="rgb(200,200,200)" stroke="rgb(200,200,200)" stroke-width="1" opacity="0.21568627450980393" d="M 104 30 Q 107 29 106 32 Q 103 33 104 30 Z " /><path fill="rgb(200,200,200)" stroke="rgb(200,200,200)" stroke-width="1" opacity="0.21568627450980393" d="M 50.5 31 L 56 35.5 L 58 40 Q 60.7 38.9 60 41.5 L 65 45.5 L 71 52.5 Q 74.5 54 72 55.5 L 71.5 57 L 70 53 Q 67.3 54.1 68 51.5 L 65 50 L 65 48 L 63 48 L 63 46 Q 60.3 47.1 61 44.5 L 58 40 L 56 39.5 L 56.5 38 L 51 33.5 L 50.5 31 Z " /><path fill="rgb(200,200,200)" stroke="rgb(200,200,200)" stroke-width="1" opacity="0.21568627450980393" d="M 151.5 31 Q 154.5 30.2 153 34 L 148 37.5 Q 148.7 40.5 145 39 L 145 37 L 147 37 L 147 35 Q 149.7 36.1 149 33.5 L 151.5 31 Z " /><path fill="rgb(200,200,200)" stroke="rgb(200,200,200)" stroke-width="1" opacity="0.21568627450980393" d="M 46.5 33 L 49 34 L 50 39 Q 53 38 52 41 L 48 38.5 Q 49 34.8 46 36 L 46.5 33 Z " /><path fill="rgb(200,200,200)" stroke="rgb(200,200,200)" stroke-width="1" opacity="0.21568627450980393" d="M 155 34 Q 158 33 157 36 Q 154 37 155 34 Z " /><path fill="rgb(200,200,200)" stroke="rgb(200,200,200)" stroke-width="1" opacity="0.21568627450980393" d="M 153 37 L 156 37.5 L 155 40 L 152.5 41 L 152 39.5 L 153 37 Z " /><path fill="rgb(200,200,200)" stroke="rgb(200,200,200)" stroke-width="1" opacity="0.21568627450980393" d="M 144.5 41 L 144 42.5 L 140 47.5 L 135 51 L 133 57 Q 129.7 58.3 131 53.5 L 135 51 L 140.5 44 L 143.5 42 L 144.5 41 Z " /><path fill="rgb(200,200,200)" stroke="rgb(200,200,200)" stroke-width="1" opacity="0.21568627450980393" d="M 52 43 Q 54.7 41.9 54 44.5 L 57 50 Q 54.3 51.1 55 48.5 L 52 43 Z " /><path fill="rgb(200,200,200)" stroke="rgb(200,200,200)" stroke-width="1" opacity="0.21568627450980393" d="M 150 43 Q 153 42 152 45 Q 149 43.8 150 47.5 L 146 50 L 146 48 Q 148.7 49.1 148 46.5 L 150 43 Z " /><path fill="rgb(200,200,200)" stroke="rgb(200,200,200)" stroke-width="1" opacity="0.21568627450980393" d="M 57 51 Q 60 49.8 59 53.5 L 61 57 Q 64.3 55.7 63 60.5 L 62 60.5 L 59 56.5 L 59 54 Q 55.7 55.1 57 51 Z " /><path fill="rgb(200,200,200)" stroke="rgb(200,200,200)" stroke-width="1" opacity="0.21568627450980393" d="M 145.5 51 L 147 53.5 L 145 54 Q 146 57 143 56 L 145.5 51 Z " /><path fill="rgb(200,200,200)" stroke="rgb(200,200,200)" stroke-width="1" opacity="0.21568627450980393" d="M 141 57 L 143 57 L 143 63 L 133 63 Q 134 60 131 61 L 131 58 Q 133.7 56.9 133 59.5 Q 133.8 61.8 137.5 61 L 141 58.5 L 141 57 Z " /><path fill="rgb(200,200,200)" stroke="rgb(200,200,200)" stroke-width="1" opacity="0.21568627450980393" d="M 71.5 58 Q 74.5 59.5 71.5 61 Q 69.3 61.8 70 59.5 L 71.5 58 Z " /><path fill="rgb(200,200,200)" stroke="rgb(200,200,200)" stroke-width="1" opacity="0.21568627450980393" d="M 82.5 61 L 83.5 63 Q 80.7 63.7 82.5 61 Z " /><path fill="rgb(200,200,200)" stroke="rgb(200,200,200)" stroke-width="1" opacity="0.21568627450980393" d="M 120.5 61 L 121.5 63 Q 118.7 63.7 120.5 61 Z " /><path fill="rgb(200,200,200)" stroke="rgb(200,200,200)" stroke-width="1" opacity="0.21568627450980393" d="M 78 63 Q 81 62 80 65 Q 77 66 78 63 Z " /><path fill="rgb(200,200,200)" stroke="rgb(200,200,200)" stroke-width="1" opacity="0.21568627450980393" d="M 75.5 65 Q 78.1 64.3 77 67 L 74 66.5 L 75.5 65 Z " /><path fill="rgb(200,200,200)" stroke="rgb(200,200,200)" stroke-width="1" opacity="0.21568627450980393" d="M 127 65 Q 130 64 129 67 Q 126 68 127 65 Z " /><path fill="rgb(200,200,200)" stroke="rgb(200,200,200)" stroke-width="1" opacity="0.21568627450980393" d="M 130 67 L 136 70 L 136 72 Q 138.7 70.9 138 73.5 L 141 78 L 139 78 L 139 76 L 137 76 L 137 74 Q 134.3 75.1 135 72.5 L 132 71 L 130 67 Z " /><path fill="rgb(200,200,200)" stroke="rgb(200,200,200)" stroke-width="1" opacity="0.21568627450980393" d="M 69.5 69 Q 73.3 68 72 71 L 68 72 L 68 74 Q 65.3 72.9 66 75.5 L 65 78 Q 61.2 79.5 62 76.5 L 66 74 L 69.5 69 Z " /><path fill="rgb(200,200,200)" stroke="rgb(200,200,200)" stroke-width="1" opacity="0.21568627450980393" d="M 18.5 75 L 21 76 Q 22 79 19 78 L 18.5 75 Z " /><path fill="rgb(200,200,200)" stroke="rgb(200,200,200)" stroke-width="1" opacity="0.21568627450980393" d="M 26.5 77 L 27.5 79 Q 24.7 79.7 26.5 77 Z " /><path fill="rgb(200,200,200)" stroke="rgb(200,200,200)" stroke-width="1" opacity="0.21568627450980393" d="M 176.5 77 L 177.5 79 L 175 78.5 L 176.5 77 Z " /><path fill="rgb(200,200,200)" stroke="rgb(200,200,200)" stroke-width="1" opacity="0.21568627450980393" d="M 34 79 Q 38.1 77.7 37 81 Q 32.9 82.3 34 79 Z " /><path fill="rgb(200,200,200)" stroke="rgb(200,200,200)" stroke-width="1" opacity="0.21568627450980393" d="M 61 79 Q 64 78 63 81 Q 60 82 61 79 Z " /><path fill="rgb(200,200,200)" stroke="rgb(200,200,200)" stroke-width="1" opacity="0.21568627450980393" d="M 141 79 Q 144 78 143 81 Q 140 82 141 79 Z " /><path fill="rgb(200,200,200)" stroke="rgb(200,200,200)" stroke-width="1" opacity="0.21568627450980393" d="M 166 79 L 170 79.5 L 166 81 L 166 79 Z " /><path fill="rgb(200,200,200)" stroke="rgb(200,200,200)" stroke-width="1" opacity="0.21568627450980393" d="M 16 80 Q 21.2 78.3 20 82 Q 14.8 83.7 16 80 Z " /><path fill="rgb(200,200,200)" stroke="rgb(200,200,200)" stroke-width="1" opacity="0.21568627450980393" d="M 184 80 Q 188.1 78.7 187 82 Q 182.9 83.3 184 80 Z " /><path fill="rgb(200,200,200)" stroke="rgb(200,200,200)" stroke-width="1" opacity="0.21568627450980393" d="M 42 81 Q 45 80 44 83 Q 41 84 42 81 Z " /><path fill="rgb(200,200,200)" stroke="rgb(200,200,200)" stroke-width="1" opacity="0.21568627450980393" d="M 156.5 81 Q 162.3 79.3 161 83 L 155 82.5 L 156.5 81 Z " /><path fill="rgb(200,200,200)" stroke="rgb(200,200,200)" stroke-width="1" opacity="0.21568627450980393" d="M 22 82 Q 25 81 24 84 Q 21 85 22 82 Z " /><path fill="rgb(200,200,200)" stroke="rgb(200,200,200)" stroke-width="1" opacity="0.21568627450980393" d="M 49.5 82 L 51 83.5 L 51 93 L 43.5 93 L 43 91 L 49 90 L 49.5 82 Z " /><path fill="rgb(200,200,200)" stroke="rgb(200,200,200)" stroke-width="1" opacity="0.21568627450980393" d="M 143.5 82 L 145 85 Q 141.5 86.1 143.5 82 Z " /><path fill="rgb(200,200,200)" stroke="rgb(200,200,200)" stroke-width="1" opacity="0.21568627450980393" d="M 180 82 Q 183 81 182 84 Q 179 85 180 82 Z " /><path fill="rgb(200,200,200)" stroke="rgb(200,200,200)" stroke-width="1" opacity="0.21568627450980393" d="M 25 83 L 29 84 Q 30.3 87 26.5 86 L 25 83 Z " /><path fill="rgb(200,200,200)" stroke="rgb(200,200,200)" stroke-width="1" opacity="0.21568627450980393" d="M 176.5 83 L 178 86 Q 174.2 87.5 175 84.5 L 176.5 83 Z " /><path fill="rgb(200,200,200)" stroke="rgb(200,200,200)" stroke-width="1" opacity="0.21568627450980393" d="M 31.5 85 Q 34.1 84.2 33 87.5 L 31.5 87 L 30 86.5 L 31.5 85 Z " /><path fill="rgb(200,200,200)" stroke="rgb(200,200,200)" stroke-width="1" opacity="0.21568627450980393" d="M 171 85 Q 173.7 83.9 173 86.5 L 171 87.5 L 171 85 Z " /><path fill="rgb(200,200,200)" stroke="rgb(200,200,200)" stroke-width="1" opacity="0.21568627450980393" d="M 57 86 Q 60 85 59 88 Q 56 89 57 86 Z " /><path fill="rgb(200,200,200)" stroke="rgb(200,200,200)" stroke-width="1" opacity="0.21568627450980393" d="M 34 87 Q 38.1 85.7 37 89 Q 32.9 90.3 34 87 Z " /><path fill="rgb(200,200,200)" stroke="rgb(200,200,200)" stroke-width="1" opacity="0.21568627450980393" d="M 166 87 L 170 88.5 L 166 89 L 166 87 Z " /><path fill="rgb(200,200,200)" stroke="rgb(200,200,200)" stroke-width="1" opacity="0.21568627450980393" d="M 39 89 Q 43.1 87.7 42 91 Q 37.9 92.3 39 89 Z " /><path fill="rgb(200,200,200)" stroke="rgb(200,200,200)" stroke-width="1" opacity="0.21568627450980393" d="M 162 89 Q 165 88 164 91 Q 161 92 162 89 Z " /><path fill="rgb(200,200,200)" stroke="rgb(200,200,200)" stroke-width="1" opacity="0.21568627450980393" d="M 55.5 91 Q 57.8 90.3 57 92.5 L 55.5 91 Z " /><path fill="rgb(200,200,200)" stroke="rgb(200,200,200)" stroke-width="1" opacity="0.21568627450980393" d="M 147.5 91 L 148 93.5 L 146 92.5 L 147.5 91 Z " /><path fill="rgb(200,200,200)" stroke="rgb(200,200,200)" stroke-width="1" opacity="0.21568627450980393" d="M 55 117 Q 58 116 57 119 Q 54 120 55 117 Z " /><path fill="rgb(200,200,200)" stroke="rgb(200,200,200)" stroke-width="1" opacity="0.21568627450980393" d="M 39.5 119 L 42 120 Q 43.3 123.3 38.5 122 L 36.5 123 L 37 121.5 Q 36.3 119.3 38.5 120 L 39.5 119 Z " /><path fill="rgb(200,200,200)" stroke="rgb(200,200,200)" stroke-width="1" opacity="0.21568627450980393" d="M 161.5 119 L 164 120 Q 165 123 162 122 L 161.5 119 Z " /><path fill="rgb(200,200,200)" stroke="rgb(200,200,200)" stroke-width="1" opacity="0.21568627450980393" d="M 166 121 L 173 123 Q 174.1 125.7 171.5 125 Q 170 121.5 168.5 124 L 166 122.5 L 166 121 Z " /><path fill="rgb(200,200,200)" stroke="rgb(200,200,200)" stroke-width="1" opacity="0.21568627450980393" d="M 57.5 122 L 58.5 124 Q 55.7 124.7 57.5 122 Z " /><path fill="rgb(200,200,200)" stroke="rgb(200,200,200)" stroke-width="1" opacity="0.21568627450980393" d="M 146.5 122 L 145.5 124 L 146.5 122 Z " /><path fill="rgb(200,200,200)" stroke="rgb(200,200,200)" stroke-width="1" opacity="0.21568627450980393" d="M 31 123 Q 34 122 33 125 Q 30 126 31 123 Z " /><path fill="rgb(200,200,200)" stroke="rgb(200,200,200)" stroke-width="1" opacity="0.21568627450980393" d="M 25 125 Q 30.2 123.3 29 127 Q 23.8 128.7 25 125 Z " /><path fill="rgb(200,200,200)" stroke="rgb(200,200,200)" stroke-width="1" opacity="0.21568627450980393" d="M 175 125 L 182 127 Q 183.1 130.3 179 129 L 179 127 Q 173.8 128.7 175 125 Z " /><path fill="rgb(200,200,200)" stroke="rgb(200,200,200)" stroke-width="1" opacity="0.21568627450980393" d="M 22 127 Q 25 126 24 129 Q 21 130 22 127 Z " /><path fill="rgb(200,200,200)" stroke="rgb(200,200,200)" stroke-width="1" opacity="0.21568627450980393" d="M 43 128 Q 47.1 126.7 46 130 Q 41.9 131.3 43 128 Z " /><path fill="rgb(200,200,200)" stroke="rgb(200,200,200)" stroke-width="1" opacity="0.21568627450980393" d="M 183 128 Q 186 127 185 130 Q 182 131 183 128 Z " /><path fill="rgb(200,200,200)" stroke="rgb(200,200,200)" stroke-width="1" opacity="0.21568627450980393" d="M 16.5 129 L 20 129.5 L 17.5 131 L 16.5 129 Z " /><path fill="rgb(200,200,200)" stroke="rgb(200,200,200)" stroke-width="1" opacity="0.21568627450980393" d="M 61.5 129 Q 64.5 130.5 61.5 132 Q 58.5 130.5 61.5 129 Z " /><path fill="rgb(200,200,200)" stroke="rgb(200,200,200)" stroke-width="1" opacity="0.21568627450980393" d="M 141 129 Q 144 127.8 143 131.5 L 141 130.5 L 141 129 Z " /><path fill="rgb(200,200,200)" stroke="rgb(200,200,200)" stroke-width="1" opacity="0.21568627450980393" d="M 167.5 129 L 169.5 132 L 167 130.5 L 167.5 129 Z " /><path fill="rgb(200,200,200)" stroke="rgb(200,200,200)" stroke-width="1" opacity="0.21568627450980393" d="M 35.5 130 Q 38.1 129.3 37 132 L 34 131.5 L 35.5 130 Z " /><path fill="rgb(200,200,200)" stroke="rgb(200,200,200)" stroke-width="1" opacity="0.21568627450980393" d="M 26 131 Q 29 130 28 133 Q 25 134 26 131 Z " /><path fill="rgb(200,200,200)" stroke="rgb(200,200,200)" stroke-width="1" opacity="0.21568627450980393" d="M 176.5 131 L 177 133 L 175 132.5 L 176.5 131 Z " /><path fill="rgb(200,200,200)" stroke="rgb(200,200,200)" stroke-width="1" opacity="0.21568627450980393" d="M 18.5 133 Q 22.3 132 21 135 L 17 134.5 L 18.5 133 Z " /><path fill="rgb(200,200,200)" stroke="rgb(200,200,200)" stroke-width="1" opacity="0.21568627450980393" d="M 183.5 133 Q 186.1 132.3 185 135 L 182 134.5 L 183.5 133 Z " /><path fill="rgb(200,200,200)" stroke="rgb(200,200,200)" stroke-width="1" opacity="0.21568627450980393" d="M 64.5 134 L 68 136 L 68 138 L 70 138 L 70 140 L 72 140 L 74 144 L 71 144 L 71 142 Q 68.3 143.1 69 140.5 L 66 139 Q 67 136 64 137 L 64.5 134 Z " /><path fill="rgb(200,200,200)" stroke="rgb(200,200,200)" stroke-width="1" opacity="0.21568627450980393" d="M 137.5 135 L 140 135.5 L 134 140 L 131.5 144 Q 129.3 144.8 130 142.5 L 134 140 L 134 138 Q 136.7 139.1 136 136.5 L 137.5 135 Z " /><path fill="rgb(200,200,200)" stroke="rgb(200,200,200)" stroke-width="1" opacity="0.21568627450980393" d="M 127 144 Q 130 143 129 146 Q 126 147 127 144 Z " /><path fill="rgb(200,200,200)" stroke="rgb(200,200,200)" stroke-width="1" opacity="0.21568627450980393" d="M 85 149 L 88 150.5 L 85 151 L 85 149 Z " /><path fill="rgb(200,200,200)" stroke="rgb(200,200,200)" stroke-width="1" opacity="0.21568627450980393" d="M 62.5 150 Q 64.8 149.3 64 151.5 L 63 154 L 60 152.5 L 62.5 150 Z " /><path fill="rgb(200,200,200)" stroke="rgb(200,200,200)" stroke-width="1" opacity="0.21568627450980393" d="M 70 150 L 73 151.5 L 70 152 L 70 150 Z " /><path fill="rgb(200,200,200)" stroke="rgb(200,200,200)" stroke-width="1" opacity="0.21568627450980393" d="M 131 150 Q 134 149 133 152 Q 130 153 131 150 Z " /><path fill="rgb(200,200,200)" stroke="rgb(200,200,200)" stroke-width="1" opacity="0.21568627450980393" d="M 141 152 L 145 154.5 Q 143.9 157.8 146.5 157 Q 144.9 158.8 148 160.5 Q 147.3 163.1 150 162 L 150 164.5 L 152 168 L 148 166 L 148 163.5 Q 145.3 162.4 146 159 Q 143.3 160.1 144 157.5 L 141 152 Z " /><path fill="rgb(200,200,200)" stroke="rgb(200,200,200)" stroke-width="1" opacity="0.21568627450980393" d="M 71.5 154 L 73 156.5 L 71 160 Q 68.3 158.9 69 161.5 L 67 161.5 L 64.5 165 Q 62.3 164.3 63 166.5 L 62 169 L 58 171.5 L 58 174 Q 55.3 172.9 56 175.5 L 51 179 L 52 175 L 54 175 L 54 173 L 56 173 L 56 171 Q 58.7 172.1 58 169.5 L 63 163 L 65 163 L 65 161 Q 67.7 162.1 67 159.5 L 71.5 154 Z " /><path fill="rgb(200,200,200)" stroke="rgb(200,200,200)" stroke-width="1" opacity="0.21568627450980393" d="M 131.5 154 L 135 159 L 137 159 L 137 161 Q 139.7 159.9 139 162.5 L 145 170 L 142 168.5 L 139.5 165 L 136.5 163 L 135 160 L 131 158 L 131.5 154 Z " /><path fill="rgb(200,200,200)" stroke="rgb(200,200,200)" stroke-width="1" opacity="0.21568627450980393" d="M 59 155 Q 62 154 61 157 L 57 159 L 59 155 Z " /><path fill="rgb(200,200,200)" stroke="rgb(200,200,200)" stroke-width="1" opacity="0.21568627450980393" d="M 56.5 160 L 57 161.5 L 56 165 L 54 165 Q 55.3 169.1 52 168 L 52 165 Q 54.7 166.1 54 163.5 L 53.5 162 L 56.5 160 Z " /><path fill="rgb(200,200,200)" stroke="rgb(200,200,200)" stroke-width="1" opacity="0.21568627450980393" d="M 50 169 Q 53 168 52 171 L 48 173 L 50 169 Z " /><path fill="rgb(200,200,200)" stroke="rgb(200,200,200)" stroke-width="1" opacity="0.21568627450980393" d="M 151.5 169 L 153 169 L 153 171 Q 155.7 169.9 155 172.5 Q 157.8 173.6 157 177 L 155 177 L 155 174 Q 152 175.3 153 171.5 L 151.5 169 Z " /><path fill="rgb(200,200,200)" stroke="rgb(200,200,200)" stroke-width="1" opacity="0.21568627450980393" d="M 145 171 L 149 173.5 Q 148.3 176.1 151 175 L 151 177 L 153 177 L 153 179 L 145 172.5 L 145 171 Z " /><path fill="rgb(200,200,200)" stroke="rgb(200,200,200)" stroke-width="1" opacity="0.21568627450980393" d="M 47.5 174 L 48 176.5 L 46 175.5 L 47.5 174 Z " /><path fill="rgb(200,200,200)" stroke="rgb(200,200,200)" stroke-width="1" opacity="0.21568627450980393" d="M 97.5 178 L 99 180.5 L 97 179.5 L 97.5 178 Z " /><path fill="rgb(200,200,200)" stroke="rgb(200,200,200)" stroke-width="1" opacity="0.21568627450980393" d="M 104 179 L 106 179.5 L 104 180.5 L 104 179 Z " /><path fill="rgb(0,0,0)" stroke="rgb(0,0,0)" stroke-width="1" opacity="1" d="M 101 33 L 103 33.5 L 103 47 L 100 45.5 L 101 33 Z " /><path fill="rgb(0,0,0)" stroke="rgb(0,0,0)" stroke-width="1" opacity="1" d="M 60.5 48 L 67 53.5 L 69 58 L 66 58 L 66 56 L 62 54 Q 63.3 49.9 60 51 L 60.5 48 Z " /><path fill="rgb(0,0,0)" stroke="rgb(0,0,0)" stroke-width="1" opacity="1" d="M 141 49 Q 144 48 143 51 L 140 52.5 Q 140.8 58.3 137.5 60 L 134 58 L 134 56 L 136 56 L 136 54 L 138 54 Q 136.9 51.3 139.5 52 L 141 49 Z " /><path fill="rgb(0,0,0)" stroke="rgb(0,0,0)" stroke-width="1" opacity="1" d="M 90 63 L 112.5 63 L 114.5 65 L 126 68 L 126 70 L 129 70 Q 127.9 72.7 130.5 72 L 134 77 L 138 79 Q 136.7 83.1 140 82 L 140 85.5 L 141 89 Q 144.7 87.7 143 93.5 L 145 95.5 L 145 116 Q 141.3 114.7 143 120.5 Q 139.5 122.7 140 128 L 136 130 L 136 133 Q 133.3 131.9 134 134.5 L 133 137 L 131 137 L 129 141 L 126.5 141 L 122 142 Q 123.3 145 119.5 144 Q 118 147.3 113 146 L 112.5 148 L 89.5 148 Q 88.4 145.3 85 146 Q 86.3 143 82.5 144 Q 80.1 140.2 74 141 L 73 137 L 67 134 L 67 130.5 Q 63.3 129.3 64 125 L 62 125 Q 63.7 119.8 60 121 L 60 116.5 L 59 115.5 L 59 95.5 L 60 89 L 62 89 Q 60.7 84.9 64 86 L 64 82 Q 67 83.3 66 79.5 L 67 77 L 69 77 Q 67.9 74.3 70.5 75 L 73 74 L 73 72 L 76 72 L 78 68 L 80.5 68 L 85 67 L 85 65 L 90 65 L 90 63 Z " /><path fill="rgb(0,0,0)" stroke="rgb(0,0,0)" stroke-width="1" opacity="1" d="M 37 84 Q 42.2 82.3 41 86 Q 35.8 87.7 37 84 Z " /><path fill="rgb(0,0,0)" stroke="rgb(0,0,0)" stroke-width="1" opacity="1" d="M 159 84 L 165.5 84 L 166 86 L 161.5 86 Q 162.3 89.3 157 88 L 159 84 Z " /><path fill="rgb(0,0,0)" stroke="rgb(0,0,0)" stroke-width="1" opacity="1" d="M 43 86 L 48 86 L 48 87.5 L 46.5 90 L 46 88 Q 41.9 89.3 43 86 Z " /><path fill="rgb(0,0,0)" stroke="rgb(0,0,0)" stroke-width="1" opacity="1" d="M 42.5 122 L 46 123 Q 47.3 126 43.5 125 L 39.5 126 L 39.5 125 Q 41.8 125.8 41 123.5 L 42.5 122 Z " /><path fill="rgb(0,0,0)" stroke="rgb(0,0,0)" stroke-width="1" opacity="1" d="M 157 123 Q 162.3 121.8 161.5 125 L 165.5 125 L 165.5 126 L 157 126 L 157 123 Z " /><path fill="rgb(0,0,0)" stroke="rgb(0,0,0)" stroke-width="1" opacity="1" d="M 66 153 Q 70.1 151.7 69 155 L 66 156.5 Q 66.7 159.1 64 158 L 64 160.5 L 60 162 L 61.5 158 L 64 158 L 64 155 Q 67 156 66 153 Z " /><path fill="rgb(0,0,0)" stroke="rgb(0,0,0)" stroke-width="1" opacity="1" d="M 134 153 L 138 153 Q 136.9 155.7 139.5 155 L 143 161.5 L 140.5 160 L 138 158.5 L 135.5 155 Q 132.9 155.7 134 153 Z " /><path fill="rgb(0,0,0)" stroke="rgb(0,0,0)" stroke-width="1" opacity="1" d="M 101 164 L 103 164.5 L 103 178 L 101 177.5 L 101 164 Z " /><path fill="rgb(101,101,101)" stroke="rgb(101,101,101)" stroke-width="1" opacity="0.40784313725490196" d="M 99 14 L 104 14 L 104 21.5 L 103 21.5 Q 104.5 16.3 100 18 L 100 36.5 Q 96.8 39.8 98 47.5 L 99.5 50 L 97 48.5 L 97 32.5 L 99 31.5 L 99 14 Z " /><path fill="rgb(101,101,101)" stroke="rgb(101,101,101)" stroke-width="1" opacity="0.40784313725490196" d="M 103.5 30 L 104 32 L 106 32.5 L 106 45.5 L 105 45.5 L 103.5 30 Z " /><path fill="rgb(101,101,101)" stroke="rgb(101,101,101)" stroke-width="1" opacity="0.40784313725490196" d="M 47.5 31 L 51 32.5 L 55.5 38 L 57 38.5 L 54 39 L 54 37 Q 51.3 38.1 52 35.5 L 46 32.5 L 47.5 31 Z " /><path fill="rgb(101,101,101)" stroke="rgb(101,101,101)" stroke-width="1" opacity="0.40784313725490196" d="M 153.5 31 Q 158.8 29.5 157 34 L 153.5 31 Z " /><path fill="rgb(101,101,101)" stroke="rgb(101,101,101)" stroke-width="1" opacity="0.40784313725490196" d="M 151.5 34 L 153 34.5 L 151 35 L 146 43 L 143 41.5 Q 144.2 38.3 148 39 L 151.5 34 Z " /><path fill="rgb(101,101,101)" stroke="rgb(101,101,101)" stroke-width="1" opacity="0.40784313725490196" d="M 49.5 35 L 51 38.5 L 50 38.5 L 49.5 35 Z " /><path fill="rgb(101,101,101)" stroke="rgb(101,101,101)" stroke-width="1" opacity="0.40784313725490196" d="M 154.5 35 L 155 37 L 153 36.5 L 154.5 35 Z " /><path fill="rgb(101,101,101)" stroke="rgb(101,101,101)" stroke-width="1" opacity="0.40784313725490196" d="M 152.5 38 L 152 39.5 L 152.5 41 L 154 40.5 L 150 43 L 148 48 L 146 47.5 L 152.5 38 Z " /><path fill="rgb(101,101,101)" stroke="rgb(101,101,101)" stroke-width="1" opacity="0.40784313725490196" d="M 52.5 40 L 54 43 L 51 41.5 L 52.5 40 Z " /><path fill="rgb(101,101,101)" stroke="rgb(101,101,101)" stroke-width="1" opacity="0.40784313725490196" d="M 56.5 40 Q 58.8 39.3 58 41.5 L 60.5 45 L 56.5 40 Z " /><path fill="rgb(101,101,101)" stroke="rgb(101,101,101)" stroke-width="1" opacity="0.40784313725490196" d="M 54.5 44 Q 56.8 43.3 56 45.5 L 54.5 44 Z " /><path fill="rgb(101,101,101)" stroke="rgb(101,101,101)" stroke-width="1" opacity="0.40784313725490196" d="M 142 44 L 144 44.5 L 142 45.5 L 142 44 Z " /><path fill="rgb(101,101,101)" stroke="rgb(101,101,101)" stroke-width="1" opacity="0.40784313725490196" d="M 53.5 46 L 55 48.5 L 53 47.5 L 53.5 46 Z " /><path fill="rgb(101,101,101)" stroke="rgb(101,101,101)" stroke-width="1" opacity="0.40784313725490196" d="M 56.5 47 L 63 56.5 L 61 57 L 59 51 Q 56 52.3 57 48.5 L 56.5 47 Z " /><path fill="rgb(101,101,101)" stroke="rgb(101,101,101)" stroke-width="1" opacity="0.40784313725490196" d="M 64.5 48 L 65 50 L 68 51.5 Q 67.3 54.1 70 53 L 70 55 Q 67.3 56.1 68 53.5 L 64 49.5 L 64.5 48 Z " /><path fill="rgb(101,101,101)" stroke="rgb(101,101,101)" stroke-width="1" opacity="0.40784313725490196" d="M 105.5 48 L 106 50 L 104 49.5 L 105.5 48 Z " /><path fill="rgb(101,101,101)" stroke="rgb(101,101,101)" stroke-width="1" opacity="0.40784313725490196" d="M 138.5 49 L 137 51.5 L 135 54.5 L 133 57.5 L 134 60 L 138 60.5 L 134.5 61 L 133 58 L 131 57.5 L 133 57 L 135 51 L 138.5 49 Z " /><path fill="rgb(101,101,101)" stroke="rgb(101,101,101)" stroke-width="1" opacity="0.40784313725490196" d="M 144 50 Q 148.1 48.3 147 52.5 L 146 52.5 L 145.5 51 L 144 51.5 L 144 50 Z " /><path fill="rgb(101,101,101)" stroke="rgb(101,101,101)" stroke-width="1" opacity="0.40784313725490196" d="M 142 53 L 144 53.5 L 143 57 Q 140.3 55.9 141 58.5 L 139 59.5 L 142 53 Z " /><path fill="rgb(101,101,101)" stroke="rgb(101,101,101)" stroke-width="1" opacity="0.40784313725490196" d="M 72.5 55 L 73 58.5 L 70 58.5 L 70.5 56 L 72 56.5 L 72.5 55 Z " /><path fill="rgb(101,101,101)" stroke="rgb(101,101,101)" stroke-width="1" opacity="0.40784313725490196" d="M 63.5 58 L 65 61 Q 61.5 62.1 63.5 58 Z " /><path fill="rgb(101,101,101)" stroke="rgb(101,101,101)" stroke-width="1" opacity="0.40784313725490196" d="M 91.5 59 L 112 59.5 L 91.5 60 L 91.5 59 Z " /><path fill="rgb(101,101,101)" stroke="rgb(101,101,101)" stroke-width="1" opacity="0.40784313725490196" d="M 87.5 60 Q 91.3 59 90 62 L 83 61.5 L 87.5 60 Z " /><path fill="rgb(101,101,101)" stroke="rgb(101,101,101)" stroke-width="1" opacity="0.40784313725490196" d="M 114 60 L 117 61.5 L 114 62 L 114 60 Z " /><path fill="rgb(101,101,101)" stroke="rgb(101,101,101)" stroke-width="1" opacity="0.40784313725490196" d="M 118.5 61 Q 121.1 60.3 120 63 L 123.5 63 L 127 65 L 126.5 67 L 123 66 L 123 64 L 119 64 L 119 62.5 L 118.5 61 Z " /><path fill="rgb(101,101,101)" stroke="rgb(101,101,101)" stroke-width="1" opacity="0.40784313725490196" d="M 80 63 L 84 63.5 L 77.5 66 L 77.5 65 Q 81.3 66 80 63 Z " /><path fill="rgb(101,101,101)" stroke="rgb(101,101,101)" stroke-width="1" opacity="0.40784313725490196" d="M 73.5 67 L 77 67.5 L 73 69 L 72.5 71 L 72 69 L 70 68.5 L 73.5 67 Z " /><path fill="rgb(101,101,101)" stroke="rgb(101,101,101)" stroke-width="1" opacity="0.40784313725490196" d="M 128 67 L 130 67 L 130 69 Q 132.7 67.9 132 70.5 L 129.5 69 Q 126.9 69.7 128 67 Z " /><path fill="rgb(101,101,101)" stroke="rgb(101,101,101)" stroke-width="1" opacity="0.40784313725490196" d="M 133.5 71 L 134.5 73 Q 131.7 73.7 133.5 71 Z " /><path fill="rgb(101,101,101)" stroke="rgb(101,101,101)" stroke-width="1" opacity="0.40784313725490196" d="M 68 72 L 70 72.5 L 63.5 80 L 62.5 78 Q 65.8 79.1 65 76.5 L 66 74 Q 69 75 68 72 Z " /><path fill="rgb(101,101,101)" stroke="rgb(101,101,101)" stroke-width="1" opacity="0.40784313725490196" d="M 15 75 L 18.5 76 L 20 75.5 L 19 78 L 17 78.5 L 17.5 80 L 15 80 L 15 75 Z " /><path fill="rgb(101,101,101)" stroke="rgb(101,101,101)" stroke-width="1" opacity="0.40784313725490196" d="M 185.5 75 L 189 76.5 Q 190.7 81.3 186.5 80 L 186.5 78 L 180.5 78 Q 179.7 80.8 175.5 80 L 175.5 79 L 178 78.5 L 177.5 77 L 186 76.5 L 185.5 75 Z " /><path fill="rgb(101,101,101)" stroke="rgb(101,101,101)" stroke-width="1" opacity="0.40784313725490196" d="M 137 76 L 141 78 Q 139.7 82.1 143 81 L 143 84.5 L 142 84.5 L 139 78 Q 136 79 137 76 Z " /><path fill="rgb(101,101,101)" stroke="rgb(101,101,101)" stroke-width="1" opacity="0.40784313725490196" d="M 21.5 77 L 26 77 Q 24.9 79.7 27.5 79 L 27.5 80 L 21.5 78 L 21.5 77 Z " /><path fill="rgb(101,101,101)" stroke="rgb(101,101,101)" stroke-width="1" opacity="0.40784313725490196" d="M 31.5 79 Q 35.3 78 34 81 L 31.5 79 Z " /><path fill="rgb(101,101,101)" stroke="rgb(101,101,101)" stroke-width="1" opacity="0.40784313725490196" d="M 170.5 79 L 174 79.5 L 167.5 82 L 167.5 81 L 170.5 79 Z " /><path fill="rgb(101,101,101)" stroke="rgb(101,101,101)" stroke-width="1" opacity="0.40784313725490196" d="M 20.5 80 L 26 82.5 L 24 83.5 L 24 82 L 20 82 L 20.5 80 Z " /><path fill="rgb(101,101,101)" stroke="rgb(101,101,101)" stroke-width="1" opacity="0.40784313725490196" d="M 60.5 80 L 63 81.5 L 59.5 87 L 59 84.5 L 60.5 80 Z " /><path fill="rgb(101,101,101)" stroke="rgb(101,101,101)" stroke-width="1" opacity="0.40784313725490196" d="M 183.5 80 L 184 82 L 180 82 Q 181.3 85 177.5 84 L 179.5 81 L 183.5 80 Z " /><path fill="rgb(101,101,101)" stroke="rgb(101,101,101)" stroke-width="1" opacity="0.40784313725490196" d="M 39.5 81 Q 43.3 80 42 83 L 39.5 81 Z " /><path fill="rgb(101,101,101)" stroke="rgb(101,101,101)" stroke-width="1" opacity="0.40784313725490196" d="M 161 81 L 164 81.5 L 161 83 L 161 81 Z " /><path fill="rgb(101,101,101)" stroke="rgb(101,101,101)" stroke-width="1" opacity="0.40784313725490196" d="M 44.5 82 Q 50.8 80.1 49 85 Q 46 86 47 83 L 44.5 83 L 44.5 82 Z " /><path fill="rgb(101,101,101)" stroke="rgb(101,101,101)" stroke-width="1" opacity="0.40784313725490196" d="M 27.5 83 L 31 85.5 L 29 86 Q 30.1 83.3 27.5 84 L 27.5 83 Z " /><path fill="rgb(101,101,101)" stroke="rgb(101,101,101)" stroke-width="1" opacity="0.40784313725490196" d="M 154 83 L 158 83.5 L 154 85 L 154 83 Z " /><path fill="rgb(101,101,101)" stroke="rgb(101,101,101)" stroke-width="1" opacity="0.40784313725490196" d="M 174 83 L 176 83.5 L 175 86 L 173 85.5 L 174 83 Z " /><path fill="rgb(101,101,101)" stroke="rgb(101,101,101)" stroke-width="1" opacity="0.40784313725490196" d="M 33.5 85 Q 36.5 86.5 33.5 88 L 33.5 85 Z " /><path fill="rgb(101,101,101)" stroke="rgb(101,101,101)" stroke-width="1" opacity="0.40784313725490196" d="M 144.5 85 L 145.5 88 L 147 87.5 L 146.5 92 Q 142.8 90 144.5 85 Z " /><path fill="rgb(101,101,101)" stroke="rgb(101,101,101)" stroke-width="1" opacity="0.40784313725490196" d="M 169 85 Q 172.3 83.9 171 88 Q 167.7 89.1 169 85 Z " /><path fill="rgb(101,101,101)" stroke="rgb(101,101,101)" stroke-width="1" opacity="0.40784313725490196" d="M 37.5 87 L 45 90.5 L 42 91 L 42 89 L 37 89 L 37.5 87 Z " /><path fill="rgb(101,101,101)" stroke="rgb(101,101,101)" stroke-width="1" opacity="0.40784313725490196" d="M 165.5 87 L 166 89 L 162 89 Q 163 92 160 91 Q 158.9 88.3 161.5 89 L 165.5 87 Z " /><path fill="rgb(101,101,101)" stroke="rgb(101,101,101)" stroke-width="1" opacity="0.40784313725490196" d="M 48.5 88 L 49 90 L 47 89.5 L 48.5 88 Z " /><path fill="rgb(101,101,101)" stroke="rgb(101,101,101)" stroke-width="1" opacity="0.40784313725490196" d="M 57 88 Q 59.7 86.9 59 89.5 L 56 96.5 L 55.5 103 L 55 92.5 L 57 92.5 L 57 88 Z " /><path fill="rgb(101,101,101)" stroke="rgb(101,101,101)" stroke-width="1" opacity="0.40784313725490196" d="M 154.5 88 L 156.5 91 Q 152.1 92.1 154.5 88 Z " /><path fill="rgb(101,101,101)" stroke="rgb(101,101,101)" stroke-width="1" opacity="0.40784313725490196" d="M 146.5 93 L 148 96.5 L 146 95.5 L 146.5 93 Z " /><path fill="rgb(101,101,101)" stroke="rgb(101,101,101)" stroke-width="1" opacity="0.40784313725490196" d="M 55.5 108 Q 55 115 58 118.5 L 57 118.5 L 57 117 L 55 116.5 L 55.5 108 Z " /><path fill="rgb(101,101,101)" stroke="rgb(101,101,101)" stroke-width="1" opacity="0.40784313725490196" d="M 147.5 114 L 148 116.5 L 146 122.5 Q 148.5 124 145 125.5 L 142.5 129 L 142 126.5 L 146 120.5 Q 144.8 115.3 147.5 114 Z " /><path fill="rgb(101,101,101)" stroke="rgb(101,101,101)" stroke-width="1" opacity="0.40784313725490196" d="M 40.5 119 L 46 119.5 L 42.5 122 L 42 120 L 40.5 119 Z " /><path fill="rgb(101,101,101)" stroke="rgb(101,101,101)" stroke-width="1" opacity="0.40784313725490196" d="M 47 120 Q 51.1 118.7 50 122 Q 45.9 123.3 47 120 Z " /><path fill="rgb(101,101,101)" stroke="rgb(101,101,101)" stroke-width="1" opacity="0.40784313725490196" d="M 57.5 120 L 63 129.5 L 60 129.5 Q 60.8 125.3 58 124.5 Q 60.5 123 57 121.5 L 57.5 120 Z " /><path fill="rgb(101,101,101)" stroke="rgb(101,101,101)" stroke-width="1" opacity="0.40784313725490196" d="M 154 120 Q 157 119 156 122 Q 153 123 154 120 Z " /><path fill="rgb(101,101,101)" stroke="rgb(101,101,101)" stroke-width="1" opacity="0.40784313725490196" d="M 160 120 Q 163 119 162 122 Q 159 123 160 120 Z " /><path fill="rgb(101,101,101)" stroke="rgb(101,101,101)" stroke-width="1" opacity="0.40784313725490196" d="M 164.5 121 Q 166.8 120.3 166 122.5 L 166.5 124 Q 164.3 124.8 165 122.5 L 164.5 121 Z " /><path fill="rgb(101,101,101)" stroke="rgb(101,101,101)" stroke-width="1" opacity="0.40784313725490196" d="M 38.5 122 L 40 122.5 L 29.5 127 L 29 125.5 Q 30.3 122.7 31.5 125 Q 34.1 125.7 33 123 L 37.5 123 L 38.5 122 Z " /><path fill="rgb(101,101,101)" stroke="rgb(101,101,101)" stroke-width="1" opacity="0.40784313725490196" d="M 49.5 123 L 50 128 Q 45.9 129.3 47 126 Q 50.1 127.1 49.5 123 Z " /><path fill="rgb(101,101,101)" stroke="rgb(101,101,101)" stroke-width="1" opacity="0.40784313725490196" d="M 169.5 123 Q 170.8 126 175 125 L 174.5 127 L 169 124.5 L 169.5 123 Z " /><path fill="rgb(101,101,101)" stroke="rgb(101,101,101)" stroke-width="1" opacity="0.40784313725490196" d="M 154.5 125 L 156.5 128 Q 152.1 129.1 154.5 125 Z " /><path fill="rgb(101,101,101)" stroke="rgb(101,101,101)" stroke-width="1" opacity="0.40784313725490196" d="M 24 127 L 27 127.5 L 24 129 L 24 127 Z " /><path fill="rgb(101,101,101)" stroke="rgb(101,101,101)" stroke-width="1" opacity="0.40784313725490196" d="M 42.5 127 L 46 127.5 L 43 128 Q 44.4 131.7 38.5 130 L 38.5 129 L 42.5 127 Z " /><path fill="rgb(101,101,101)" stroke="rgb(101,101,101)" stroke-width="1" opacity="0.40784313725490196" d="M 160.5 127 Q 162.5 129.8 167 129 L 168 131.5 L 165.5 130 Q 160.1 131.9 161 128.5 L 159 128.5 L 160.5 127 Z " /><path fill="rgb(101,101,101)" stroke="rgb(101,101,101)" stroke-width="1" opacity="0.40784313725490196" d="M 176.5 127 Q 179.8 125.9 179 128.5 L 177.5 128 L 176.5 127 Z " /><path fill="rgb(101,101,101)" stroke="rgb(101,101,101)" stroke-width="1" opacity="0.40784313725490196" d="M 17.5 128 L 22 128.5 L 21 131 L 19 130.5 L 19.5 129 Q 16.5 129.5 17.5 128 Z " /><path fill="rgb(101,101,101)" stroke="rgb(101,101,101)" stroke-width="1" opacity="0.40784313725490196" d="M 182.5 128 L 183 130 L 189 130 L 189 135 L 185 135 L 185 133.5 L 186 131 L 181 129.5 L 182.5 128 Z " /><path fill="rgb(101,101,101)" stroke="rgb(101,101,101)" stroke-width="1" opacity="0.40784313725490196" d="M 33.5 129 L 37 129.5 Q 35 133 28.5 132 L 28.5 131 Q 32.8 131.8 33.5 129 Z " /><path fill="rgb(101,101,101)" stroke="rgb(101,101,101)" stroke-width="1" opacity="0.40784313725490196" d="M 140.5 129 L 142 131.5 L 140 135 L 137 134.5 L 140.5 129 Z " /><path fill="rgb(101,101,101)" stroke="rgb(101,101,101)" stroke-width="1" opacity="0.40784313725490196" d="M 168.5 129 L 171 129 L 171.5 131 L 175.5 131 L 175.5 132 Q 168.3 133.3 168.5 129 Z " /><path fill="rgb(101,101,101)" stroke="rgb(101,101,101)" stroke-width="1" opacity="0.40784313725490196" d="M 15 130 Q 18 128.8 17 132.5 Q 19.2 133.8 16.5 135 L 15 135 L 15 130 Z " /><path fill="rgb(101,101,101)" stroke="rgb(101,101,101)" stroke-width="1" opacity="0.40784313725490196" d="M 24 131 Q 27 130 26 133 Q 23 134 24 131 Z " /><path fill="rgb(101,101,101)" stroke="rgb(101,101,101)" stroke-width="1" opacity="0.40784313725490196" d="M 62 131 L 65 131 L 65 134 Q 67.7 132.9 67 135.5 L 63.5 133 Q 60.9 133.7 62 131 Z " /><path fill="rgb(101,101,101)" stroke="rgb(101,101,101)" stroke-width="1" opacity="0.40784313725490196" d="M 177 131 Q 180 130 179 133 Q 176 134 177 131 Z " /><path fill="rgb(101,101,101)" stroke="rgb(101,101,101)" stroke-width="1" opacity="0.40784313725490196" d="M 133.5 138 L 134 140 L 130 142.5 L 130 144 L 127 144 Q 128.1 146.7 125.5 146 L 121.5 149 L 119 148.5 L 119 147 L 123 147 L 123 145 L 126 145 Q 124.9 142.3 127.5 143 L 130 142 Q 128.9 139.3 131.5 140 L 133.5 138 Z " /><path fill="rgb(101,101,101)" stroke="rgb(101,101,101)" stroke-width="1" opacity="0.40784313725490196" d="M 72.5 141 L 77 143.5 L 74 144 Q 75.1 141.3 72.5 142 L 72.5 141 Z " /><path fill="rgb(101,101,101)" stroke="rgb(101,101,101)" stroke-width="1" opacity="0.40784313725490196" d="M 75.5 145 L 81 145 L 81 147 Q 85.1 145.7 84 149 L 75.5 146 L 75.5 145 Z " /><path fill="rgb(101,101,101)" stroke="rgb(101,101,101)" stroke-width="1" opacity="0.40784313725490196" d="M 86.5 148 L 91 150.5 L 88.5 151 L 86.5 148 Z " /><path fill="rgb(101,101,101)" stroke="rgb(101,101,101)" stroke-width="1" opacity="0.40784313725490196" d="M 114.5 149 L 117 149.5 L 113.5 151 L 114.5 149 Z " /><path fill="rgb(101,101,101)" stroke="rgb(101,101,101)" stroke-width="1" opacity="0.40784313725490196" d="M 135.5 149 L 138 149.5 L 135.5 150 L 135.5 149 Z " /><path fill="rgb(101,101,101)" stroke="rgb(101,101,101)" stroke-width="1" opacity="0.40784313725490196" d="M 133.5 150 L 134 151.5 L 133 154.5 L 136.5 159 Q 134.3 159.8 135 157.5 L 131 152 Q 133.8 153 133.5 150 Z " /><path fill="rgb(101,101,101)" stroke="rgb(101,101,101)" stroke-width="1" opacity="0.40784313725490196" d="M 139 150 L 142 151.5 L 141 153.5 L 144 157.5 L 142 156.5 L 139 150 Z " /><path fill="rgb(101,101,101)" stroke="rgb(101,101,101)" stroke-width="1" opacity="0.40784313725490196" d="M 70 152 Q 74.5 150.3 73 155.5 L 72 155.5 L 71.5 154 L 70 154.5 L 70 152 Z " /><path fill="rgb(101,101,101)" stroke="rgb(101,101,101)" stroke-width="1" opacity="0.40784313725490196" d="M 60.5 153 L 63 154.5 Q 61.5 157.5 60 154.5 L 60.5 153 Z " /><path fill="rgb(101,101,101)" stroke="rgb(101,101,101)" stroke-width="1" opacity="0.40784313725490196" d="M 69.5 156 L 68.5 158 L 69.5 156 Z " /><path fill="rgb(101,101,101)" stroke="rgb(101,101,101)" stroke-width="1" opacity="0.40784313725490196" d="M 59 157 L 61 157.5 L 56.5 164 L 56 162.5 L 57 159 Q 60 160 59 157 Z " /><path fill="rgb(101,101,101)" stroke="rgb(101,101,101)" stroke-width="1" opacity="0.40784313725490196" d="M 146.5 158 L 146 159.5 Q 146.7 162.1 144 161 Q 142.9 158.3 145.5 159 L 146.5 158 Z " /><path fill="rgb(101,101,101)" stroke="rgb(101,101,101)" stroke-width="1" opacity="0.40784313725490196" d="M 66.5 159 L 68 161.5 L 66.5 161 L 65 160.5 L 66.5 159 Z " /><path fill="rgb(101,101,101)" stroke="rgb(101,101,101)" stroke-width="1" opacity="0.40784313725490196" d="M 98.5 160 Q 101.1 159.3 100 162 L 98 162.5 L 98 169.5 L 100 173.5 L 100 193 Q 104.5 194.8 103 189.5 L 104 189.5 L 104 197 L 100.5 197 L 99 195.5 L 99 179.5 L 97 177.5 L 97 161.5 L 98.5 160 Z " /><path fill="rgb(101,101,101)" stroke="rgb(101,101,101)" stroke-width="1" opacity="0.40784313725490196" d="M 103.5 160 Q 107.3 158.8 106 162.5 L 103.5 160 Z " /><path fill="rgb(101,101,101)" stroke="rgb(101,101,101)" stroke-width="1" opacity="0.40784313725490196" d="M 139.5 162 L 143.5 167 L 139.5 162 Z " /><path fill="rgb(101,101,101)" stroke="rgb(101,101,101)" stroke-width="1" opacity="0.40784313725490196" d="M 146.5 162 L 148 164.5 L 146 163.5 L 146.5 162 Z " /><path fill="rgb(101,101,101)" stroke="rgb(101,101,101)" stroke-width="1" opacity="0.40784313725490196" d="M 53.5 163 L 54 165 L 56 165.5 L 54.5 166 L 53.5 163 Z " /><path fill="rgb(101,101,101)" stroke="rgb(101,101,101)" stroke-width="1" opacity="0.40784313725490196" d="M 61 164 L 64 165.5 L 62.5 165 L 58 169.5 L 58 171 L 56 171 Q 57.1 173.7 54.5 173 L 59 167.5 Q 58.3 164.9 61 166 L 61 164 Z " /><path fill="rgb(101,101,101)" stroke="rgb(101,101,101)" stroke-width="1" opacity="0.40784313725490196" d="M 105.5 165 L 106 179 L 103.5 180 L 104 178.5 L 105.5 165 Z " /><path fill="rgb(101,101,101)" stroke="rgb(101,101,101)" stroke-width="1" opacity="0.40784313725490196" d="M 149.5 166 L 150 168 L 152 168.5 Q 149.8 169.7 152.5 171 L 154 170.5 L 152.5 173 L 149 167.5 L 149.5 166 Z " /><path fill="rgb(101,101,101)" stroke="rgb(101,101,101)" stroke-width="1" opacity="0.40784313725490196" d="M 52 168 L 54 168.5 L 52 169.5 L 52 168 Z " /><path fill="rgb(101,101,101)" stroke="rgb(101,101,101)" stroke-width="1" opacity="0.40784313725490196" d="M 145.5 168 L 146 170 Q 148.7 168.9 148 171.5 L 154 176.5 L 153 174.5 L 155 174 L 155 177 Q 158 176 157 179 L 153 179 L 153 177 L 151 177 L 151 175 Q 148.3 176.1 149 173.5 L 145 171 L 145.5 168 Z " /><path fill="rgb(101,101,101)" stroke="rgb(101,101,101)" stroke-width="1" opacity="0.40784313725490196" d="M 50 171 L 52 171.5 L 49 177.5 L 51 176.5 L 51.5 175 L 52 176.5 L 51 179 L 46 179 L 46 176.5 L 48 176.5 L 48 173 Q 51 174 50 171 Z " /></svg>