<svg width="200" height="200" version="1.1" xmlns="http://www.w3.org/2000/svg" desc="Created with imagetracer.js version 1.2.6" ><path fill="rgb(158,167,80)" stroke="rgb(158,167,80)" stroke-width="1" opacity="0.9176470588235294" d="M 68.5 43 L 72 45.5 L 70.5 46 L 68.5 43 Z " /><path fill="rgb(158,167,80)" stroke="rgb(158,167,80)" stroke-width="1" opacity="0.9176470588235294" d="M 65.5 44 L 64.5 46 L 63 45.5 L 65.5 44 Z " /><path fill="rgb(158,167,80)" stroke="rgb(158,167,80)" stroke-width="1" opacity="0.9176470588235294" d="M 73.5 47 L 76 51.5 Q 75.3 53.8 71.5 53 L 72.5 51 Q 74.8 51.8 74 49.5 L 73.5 47 Z " /><path fill="rgb(158,167,80)" stroke="rgb(158,167,80)" stroke-width="1" opacity="0.9176470588235294" d="M 57.5 51 L 58 53 L 56 52.5 L 57.5 51 Z " /><path fill="rgb(158,167,80)" stroke="rgb(158,167,80)" stroke-width="1" opacity="0.9176470588235294" d="M 68 54 L 70 54.5 L 66 57.5 Q 65.3 54.9 68 56 L 68 54 Z " /><path fill="rgb(158,167,80)" stroke="rgb(158,167,80)" stroke-width="1" opacity="0.9176470588235294" d="M 50.5 58 L 51 60 L 49 60 Q 50.1 62.7 47.5 62 L 50.5 58 Z " /><path fill="rgb(158,167,80)" stroke="rgb(158,167,80)" stroke-width="1" opacity="0.9176470588235294" d="M 59 63 L 61 63.5 L 59 64.5 L 59 63 Z " /><path fill="rgb(158,167,80)" stroke="rgb(158,167,80)" stroke-width="1" opacity="0.9176470588235294" d="M 43.5 65 L 44 66.5 L 43 71.5 L 45.5 75 L 50 76 L 50.5 74 L 51 77 Q 45.1 77.9 43 73.5 L 41 70.5 L 43.5 65 Z " /><path fill="rgb(158,167,80)" stroke="rgb(158,167,80)" stroke-width="1" opacity="0.9176470588235294" d="M 54 68 L 56 68.5 L 51 72.5 L 52 70 Q 55 71 54 68 Z " /><path fill="rgb(158,167,80)" stroke="rgb(158,167,80)" stroke-width="1" opacity="0.9176470588235294" d="M 103 72 Q 109.2 70.7 112 73.5 L 105.5 74 L 104 73.5 L 102.5 80 L 102 74.5 L 103 72 Z " /><path fill="rgb(158,167,80)" stroke="rgb(158,167,80)" stroke-width="1" opacity="0.9176470588235294" d="M 116.5 73 L 122 75.5 L 118.5 76 L 116.5 73 Z " /><path fill="rgb(158,167,80)" stroke="rgb(158,167,80)" stroke-width="1" opacity="0.9176470588235294" d="M 123.5 76 L 130 77 Q 131.1 79.7 128.5 79 L 123.5 77 L 123.5 76 Z " /><path fill="rgb(158,167,80)" stroke="rgb(158,167,80)" stroke-width="1" opacity="0.9176470588235294" d="M 132.5 79 L 135 80.5 L 133.5 81 L 132.5 79 Z " /><path fill="rgb(158,167,80)" stroke="rgb(158,167,80)" stroke-width="1" opacity="0.9176470588235294" d="M 137.5 81 L 138.5 83 Q 135.7 83.7 137.5 81 Z " /><path fill="rgb(158,167,80)" stroke="rgb(158,167,80)" stroke-width="1" opacity="0.9176470588235294" d="M 140.5 83 L 144 85.5 L 142.5 85 L 140.5 83 Z " /><path fill="rgb(158,167,80)" stroke="rgb(158,167,80)" stroke-width="1" opacity="0.9176470588235294" d="M 101.5 84 L 102 90.5 L 100.5 93 L 100 88.5 L 101.5 84 Z " /><path fill="rgb(158,167,80)" stroke="rgb(158,167,80)" stroke-width="1" opacity="0.9176470588235294" d="M 145.5 86 L 146.5 88 L 145.5 86 Z " /><path fill="rgb(158,167,80)" stroke="rgb(158,167,80)" stroke-width="1" opacity="0.9176470588235294" d="M 151.5 90 L 156 93 L 155.5 95 L 151 92 L 151.5 90 Z " /><path fill="rgb(158,167,80)" stroke="rgb(158,167,80)" stroke-width="1" opacity="0.9176470588235294" d="M 99.5 97 L 100 98.5 L 94.5 102 L 95.5 100 Q 98.8 101.1 98 98.5 L 99.5 97 Z " /><path fill="rgb(158,167,80)" stroke="rgb(158,167,80)" stroke-width="1" opacity="0.9176470588235294" d="M 161.5 99 L 164.5 103 L 161.5 99 Z " /><path fill="rgb(158,167,80)" stroke="rgb(158,167,80)" stroke-width="1" opacity="0.9176470588235294" d="M 84.5 102 L 89 102.5 Q 86.9 104.9 81.5 104 L 81.5 103 L 84.5 102 Z " /><path fill="rgb(158,167,80)" stroke="rgb(158,167,80)" stroke-width="1" opacity="0.9176470588235294" d="M 72.5 104 L 76 104.5 L 72 106 L 71.5 111 L 71 105.5 L 72.5 104 Z " /><path fill="rgb(158,167,80)" stroke="rgb(158,167,80)" stroke-width="1" opacity="0.9176470588235294" d="M 168.5 106 L 171.5 110 L 168.5 106 Z " /><path fill="rgb(158,167,80)" stroke="rgb(158,167,80)" stroke-width="1" opacity="0.9176470588235294" d="M 148.5 111 L 147.5 113 L 148.5 111 Z " /><path fill="rgb(158,167,80)" stroke="rgb(158,167,80)" stroke-width="1" opacity="0.9176470588235294" d="M 152.5 111 L 155 112.5 L 153.5 113 L 152.5 111 Z " /><path fill="rgb(158,167,80)" stroke="rgb(158,167,80)" stroke-width="1" opacity="0.9176470588235294" d="M 71.5 113 Q 75 115 74 121.5 L 73 121.5 L 71.5 113 Z " /><path fill="rgb(158,167,80)" stroke="rgb(158,167,80)" stroke-width="1" opacity="0.9176470588235294" d="M 175.5 113 L 178.5 117 L 175.5 113 Z " /><path fill="rgb(158,167,80)" stroke="rgb(158,167,80)" stroke-width="1" opacity="0.9176470588235294" d="M 144 114 L 146 114.5 L 142 117.5 Q 141.3 114.9 144 116 L 144 114 Z " /><path fill="rgb(158,167,80)" stroke="rgb(158,167,80)" stroke-width="1" opacity="0.9176470588235294" d="M 155.5 114 Q 157.8 113.3 157 115.5 L 155.5 114 Z " /><path fill="rgb(158,167,80)" stroke="rgb(158,167,80)" stroke-width="1" opacity="0.9176470588235294" d="M 182.5 120 L 185.5 124 L 182.5 120 Z " /><path fill="rgb(158,167,80)" stroke="rgb(158,167,80)" stroke-width="1" opacity="0.9176470588235294" d="M 162.5 121 Q 164.8 120.3 164 122.5 L 165.5 125 L 162.5 121 Z " /><path fill="rgb(158,167,80)" stroke="rgb(158,167,80)" stroke-width="1" opacity="0.9176470588235294" d="M 73.5 123 Q 75.8 122.3 75 124.5 L 73.5 123 Z " /><path fill="rgb(158,167,80)" stroke="rgb(158,167,80)" stroke-width="1" opacity="0.9176470588235294" d="M 135 123 L 137 123.5 L 135 124.5 L 135 123 Z " /><path fill="rgb(158,167,80)" stroke="rgb(158,167,80)" stroke-width="1" opacity="0.9176470588235294" d="M 75.5 126 L 77 129.5 L 75 130 L 75.5 126 Z " /><path fill="rgb(158,167,80)" stroke="rgb(158,167,80)" stroke-width="1" opacity="0.9176470588235294" d="M 130 128 L 132 128.5 L 126 133.5 Q 125.3 130.9 128 132 L 128 130 L 130 130 L 130 128 Z " /><path fill="rgb(158,167,80)" stroke="rgb(158,167,80)" stroke-width="1" opacity="0.9176470588235294" d="M 169.5 128 L 171 128 L 171 130 Q 173.7 128.9 173 131.5 L 169.5 128 Z " /><path fill="rgb(158,167,80)" stroke="rgb(158,167,80)" stroke-width="1" opacity="0.9176470588235294" d="M 190.5 129 L 195 132.5 L 193.5 132 L 190.5 130 L 190.5 129 Z " /><path fill="rgb(158,167,80)" stroke="rgb(158,167,80)" stroke-width="1" opacity="0.9176470588235294" d="M 77.5 133 L 79 135.5 L 78 135.5 L 77.5 133 Z " /><path fill="rgb(158,167,80)" stroke="rgb(158,167,80)" stroke-width="1" opacity="0.9176470588235294" d="M 174.5 133 L 176 135.5 L 174 134.5 L 174.5 133 Z " /><path fill="rgb(158,167,80)" stroke="rgb(158,167,80)" stroke-width="1" opacity="0.9176470588235294" d="M 195 134 Q 197.7 132.9 197 135.5 L 198 137.5 L 197 137.5 Q 197.7 134.9 195 136 L 195 134 Z " /><path fill="rgb(158,167,80)" stroke="rgb(158,167,80)" stroke-width="1" opacity="0.9176470588235294" d="M 124.5 135 L 109.5 151 L 112 147.5 L 112 146 L 114 146 Q 112.9 143.3 115.5 144 L 119 139 L 121 139 Q 119.9 136.3 122.5 137 L 124.5 135 Z " /><path fill="rgb(158,167,80)" stroke="rgb(158,167,80)" stroke-width="1" opacity="0.9176470588235294" d="M 79.5 137 L 81 139.5 L 79 138.5 L 79.5 137 Z " /><path fill="rgb(158,167,80)" stroke="rgb(158,167,80)" stroke-width="1" opacity="0.9176470588235294" d="M 175.5 137 L 176 139.5 L 174 140.5 L 175.5 137 Z " /><path fill="rgb(158,167,80)" stroke="rgb(158,167,80)" stroke-width="1" opacity="0.9176470588235294" d="M 197.5 140 L 197 141.5 Q 197.8 143.8 195.5 143 L 197.5 140 Z " /><path fill="rgb(158,167,80)" stroke="rgb(158,167,80)" stroke-width="1" opacity="0.9176470588235294" d="M 81.5 141 L 84 144.5 L 82 143.5 L 81.5 141 Z " /><path fill="rgb(158,167,80)" stroke="rgb(158,167,80)" stroke-width="1" opacity="0.9176470588235294" d="M 172.5 141 L 173 143 L 171 143 Q 172.1 145.7 169.5 145 L 172.5 141 Z " /><path fill="rgb(158,167,80)" stroke="rgb(158,167,80)" stroke-width="1" opacity="0.9176470588235294" d="M 193 144 L 195 144.5 L 193 145.5 L 193 144 Z " /><path fill="rgb(158,167,80)" stroke="rgb(158,167,80)" stroke-width="1" opacity="0.9176470588235294" d="M 84 146 Q 87 145 86 148 Q 83 149 84 146 Z " /><path fill="rgb(158,167,80)" stroke="rgb(158,167,80)" stroke-width="1" opacity="0.9176470588235294" d="M 86.5 149 L 93 156.5 L 91 157 L 86.5 149 Z " /><path fill="rgb(158,167,80)" stroke="rgb(158,167,80)" stroke-width="1" opacity="0.9176470588235294" d="M 163.5 150 L 164 152 L 162 151.5 L 163.5 150 Z " /><path fill="rgb(158,167,80)" stroke="rgb(158,167,80)" stroke-width="1" opacity="0.9176470588235294" d="M 186 151 L 188 151.5 L 186 152.5 L 186 151 Z " /><path fill="rgb(158,167,80)" stroke="rgb(158,167,80)" stroke-width="1" opacity="0.9176470588235294" d="M 109.5 153 L 111 156.5 L 110 156.5 L 109.5 153 Z " /><path fill="rgb(158,167,80)" stroke="rgb(158,167,80)" stroke-width="1" opacity="0.9176470588235294" d="M 112.5 157 L 113.5 159 Q 110.7 159.7 112.5 157 Z " /><path fill="rgb(158,167,80)" stroke="rgb(158,167,80)" stroke-width="1" opacity="0.9176470588235294" d="M 156.5 157 L 157 159 L 155 159 Q 156.1 161.7 153.5 161 L 156.5 157 Z " /><path fill="rgb(158,167,80)" stroke="rgb(158,167,80)" stroke-width="1" opacity="0.9176470588235294" d="M 179 158 L 181 158.5 L 177 161.5 Q 176.3 158.9 179 160 L 179 158 Z " /><path fill="rgb(158,167,80)" stroke="rgb(158,167,80)" stroke-width="1" opacity="0.9176470588235294" d="M 95.5 160 Q 97.8 159.3 97 161.5 L 95.5 160 Z " /><path fill="rgb(158,167,80)" stroke="rgb(158,167,80)" stroke-width="1" opacity="0.9176470588235294" d="M 119.5 164 L 122.5 168 L 119 166 L 119.5 164 Z " /><path fill="rgb(158,167,80)" stroke="rgb(158,167,80)" stroke-width="1" opacity="0.9176470588235294" d="M 149.5 164 L 150 166 L 148 166 Q 149.1 168.7 146.5 168 L 149.5 164 Z " /><path fill="rgb(158,167,80)" stroke="rgb(158,167,80)" stroke-width="1" opacity="0.9176470588235294" d="M 100.5 165 Q 103.1 164.3 102 167 L 104 167 L 104 168.5 L 100.5 165 Z " /><path fill="rgb(158,167,80)" stroke="rgb(158,167,80)" stroke-width="1" opacity="0.9176470588235294" d="M 172 165 L 174 165.5 L 170 168.5 Q 169.3 165.9 172 167 L 172 165 Z " /><path fill="rgb(158,167,80)" stroke="rgb(158,167,80)" stroke-width="1" opacity="0.9176470588235294" d="M 126.5 171 L 129.5 175 L 126 173 L 126.5 171 Z " /><path fill="rgb(158,167,80)" stroke="rgb(158,167,80)" stroke-width="1" opacity="0.9176470588235294" d="M 142.5 171 L 143 173 L 141 173 Q 142.1 175.7 139.5 175 L 142.5 171 Z " /><path fill="rgb(158,167,80)" stroke="rgb(158,167,80)" stroke-width="1" opacity="0.9176470588235294" d="M 166.5 172 L 161.5 178 L 163 175.5 Q 162.3 173.3 164.5 174 L 166.5 172 Z " /><path fill="rgb(158,167,80)" stroke="rgb(158,167,80)" stroke-width="1" opacity="0.9176470588235294" d="M 109.5 174 Q 112.1 173.3 111 176 L 113 176 L 113 177.5 L 109.5 174 Z " /><path fill="rgb(158,167,80)" stroke="rgb(158,167,80)" stroke-width="1" opacity="0.9176470588235294" d="M 131.5 176 Q 133.8 175.3 133 177.5 L 131.5 176 Z " /><path fill="rgb(158,167,80)" stroke="rgb(158,167,80)" stroke-width="1" opacity="0.9176470588235294" d="M 137.5 176 L 136.5 178 L 137.5 176 Z " /><path fill="rgb(158,167,80)" stroke="rgb(158,167,80)" stroke-width="1" opacity="0.9176470588235294" d="M 159.5 179 L 154.5 185 L 154 183 L 156 183 Q 154.9 180.3 157.5 181 L 159.5 179 Z " /><path fill="rgb(158,167,80)" stroke="rgb(158,167,80)" stroke-width="1" opacity="0.9176470588235294" d="M 116.5 181 Q 118.8 180.3 118 182.5 L 119.5 185 L 116.5 181 Z " /><path fill="rgb(158,167,80)" stroke="rgb(158,167,80)" stroke-width="1" opacity="0.9176470588235294" d="M 123.5 188 L 126.5 192 L 123.5 188 Z " /><path fill="rgb(158,167,80)" stroke="rgb(158,167,80)" stroke-width="1" opacity="0.9176470588235294" d="M 149 188 L 151 188.5 L 147 191.5 Q 146.3 188.9 149 190 L 149 188 Z " /><path fill="rgb(158,167,80)" stroke="rgb(158,167,80)" stroke-width="1" opacity="0.9176470588235294" d="M 130.5 195 Q 132.8 194.3 132 196.5 L 130.5 195 Z " /><path fill="rgb(158,167,80)" stroke="rgb(158,167,80)" stroke-width="1" opacity="0.9176470588235294" d="M 142 195 L 144 195.5 L 142 196.5 L 142 195 Z " /><path fill="rgb(158,167,80)" stroke="rgb(158,167,80)" stroke-width="1" opacity="0.9176470588235294" d="M 133.5 197 L 136.5 198 L 140.5 197 L 139.5 199 Q 133.1 200.3 133.5 197 Z " /><path fill="rgb(0,0,0)" stroke="rgb(0,0,0)" stroke-width="1" opacity="0" d="M 0 0 L 200 0 L 200 200 L 143.5 200 L 143 198 L 147 198 L 147 196.5 L 150 195 L 150 193 L 152 193 L 152 191 Q 154.7 192.1 154 189.5 L 157 188 L 157 186 L 159 186 L 159 184 Q 161.7 185.1 161 182.5 L 164 181 L 164 179 L 166 179 L 166 177 L 168 177 L 168 175 Q 170.7 176.1 170 173.5 L 173 172 L 173 170 L 175 170 L 175 168 Q 177.7 169.1 177 166.5 L 180 165 L 180 161 L 182 161 Q 180.9 158.3 183.5 159 L 185 156 L 187 156 L 187 154 L 189 154 Q 187.9 151.3 190.5 152 L 194 147 L 196 147 Q 195.3 143.9 198 144.5 L 198 132.5 L 194 130 L 188.5 123 L 187 123 L 187 121 Q 184.3 122.1 185 119.5 L 178 114 L 172.5 107 Q 170.3 107.8 171 105.5 L 164 100 L 158.5 93 Q 155.9 93.7 157 91 L 155 91 L 155 89 L 152.5 89 Q 150.1 84.6 145 84 L 145 82 L 141 82 Q 142.3 79 138.5 80 Q 135.5 76.1 129 77 Q 130.3 73.3 124.5 75 L 122.5 73 Q 115.3 74.7 113.5 71 L 95.5 71 L 94 69.5 L 94 68 L 92 68 L 92 66 L 90 66 Q 91.1 63.3 88.5 64 L 87 61 L 78 53.5 L 78 52 L 76 51.5 L 76 45 Q 72.9 45.8 73.5 43 L 67 43 L 67 41.5 L 66 40.5 L 66 12.5 L 64.5 11 L 55 11 L 55 28.5 L 53.5 29 L 48 22 L 46 21.5 L 46 15 L 44 15 L 42 11 L 29 11 L 29 13 L 27 13 L 27 15 L 25 15 Q 26.1 17.7 23.5 17 L 22 20 L 20 20 L 20 22 L 18 22 Q 19.1 24.7 16.5 24 L 15 27 L 13 27 L 13 29 L 9 31 L 9 41.5 L 15.5 48 L 27 48 Q 28.7 55.1 24.5 57 L 9 57 L 9 66.5 L 10.5 68 L 38.5 68 L 41 69 L 41 76 L 43.5 76 Q 45.4 79.7 52 78 L 55.5 83 L 57 83 L 57 85 Q 59.7 83.9 59 86.5 L 66 92 L 69 96.5 L 69 113 L 71 113.5 L 71 121.5 Q 74.2 120.6 73 128.5 L 76 138 Q 79 136.8 78 140.5 Q 80.8 141.6 80 145 Q 83.3 143.7 82 148.5 L 85 150 L 85 154 L 86.5 154 L 92 161 Q 95 159.8 94 163.5 L 128.5 198 L 131 198 L 130.5 200 L 0 200 L 0 0 Z M 73 25 L 69 27 L 69 37 L 72 39 L 83 39 L 83 27 L 82 25 L 73 25 Z M 28 69 L 24 70 L 21 77 L 22 85 L 25 87 L 39 87 L 39 73 L 37 70 L 28 69 Z " /><path fill="rgb(252,232,185)" stroke="rgb(252,232,185)" stroke-width="1" opacity="0.9333333333333333" d="M 38.5 12 L 42 14 L 45 18.5 L 38.5 12 Z " /><path fill="rgb(252,232,185)" stroke="rgb(252,232,185)" stroke-width="1" opacity="0.9333333333333333" d="M 56 12 L 63.5 12 L 64 13.5 L 65 14.5 L 65 44 L 63 44 Q 64.1 46.7 61.5 46 L 58 51 L 56 51 Q 57.1 53.7 54.5 53 L 51 58 L 49 58 L 49 60 L 47 60 Q 48.1 62.7 45.5 62 L 41.5 67 L 12.5 67 Q 12.8 64.3 10 64.5 L 10 58 L 27.5 58 L 28 56.5 L 29 53.5 L 27 46.5 L 30.5 44 L 42 44 L 42 28.5 L 44.5 24 L 47 24 L 47 26 L 49 26 L 49 28 Q 51.7 26.9 51 29.5 Q 52.2 32 56 31 L 56 12 Z " /><path fill="rgb(252,232,185)" stroke="rgb(252,232,185)" stroke-width="1" opacity="0.9333333333333333" d="M 20.5 24 L 10.5 35 L 15 29.5 L 15 28 L 17 28 Q 15.9 25.3 18.5 26 L 20.5 24 Z " /><path fill="rgb(252,232,185)" stroke="rgb(252,232,185)" stroke-width="1" opacity="0.9333333333333333" d="M 75.5 26 Q 80.6 25.4 82 28.5 L 82 36.5 L 80.5 38 Q 74.4 38.8 72 37 Q 72.8 33.9 70 34.5 L 70 28 L 75.5 26 Z " /><path fill="rgb(252,232,185)" stroke="rgb(252,232,185)" stroke-width="1" opacity="0.9333333333333333" d="M 75.5 54 L 91.5 71 L 86 67 L 86 65 Q 83.3 66.1 84 63.5 L 75.5 54 Z " /><path fill="rgb(252,232,185)" stroke="rgb(252,232,185)" stroke-width="1" opacity="0.9333333333333333" d="M 28.5 70 Q 29.7 72.3 34.5 71 L 38 74.5 L 38 83.5 L 35.5 86 Q 25.3 88.3 23 82.5 Q 24.3 77.8 22 76.5 L 24 72 L 28.5 70 Z " /><path fill="rgb(252,232,185)" stroke="rgb(252,232,185)" stroke-width="1" opacity="0.9333333333333333" d="M 70.5 97 L 72 99.5 L 70.5 102 L 70.5 97 Z " /><path fill="rgb(252,232,185)" stroke="rgb(252,232,185)" stroke-width="1" opacity="0.9333333333333333" d="M 70.5 106 L 71 108.5 L 70 108.5 L 70.5 106 Z " /><path fill="rgb(252,232,185)" stroke="rgb(252,232,185)" stroke-width="1" opacity="0.9333333333333333" d="M 176.5 162 L 177 163.5 L 174.5 165 L 174.5 164 Q 177 164.7 176.5 162 Z " /><path fill="rgb(83,150,39)" stroke="rgb(83,150,39)" stroke-width="1" opacity="0.9490196078431372" d="M 67.5 43 L 69.5 46 Q 67.3 46.8 68 44.5 L 67 44.5 Q 67.8 46.8 65.5 46 L 67.5 43 Z " /><path fill="rgb(83,150,39)" stroke="rgb(83,150,39)" stroke-width="1" opacity="0.9490196078431372" d="M 71.5 46 Q 73.8 45.3 73 47.5 L 71.5 46 Z " /><path fill="rgb(83,150,39)" stroke="rgb(83,150,39)" stroke-width="1" opacity="0.9490196078431372" d="M 62.5 47 L 60.5 50 L 62.5 47 Z " /><path fill="rgb(83,150,39)" stroke="rgb(83,150,39)" stroke-width="1" opacity="0.9490196078431372" d="M 71.5 51 L 69.5 54 L 68 54 L 68 56 Q 65.3 54.9 66 57.5 L 65 57.5 L 68.5 53 L 71.5 51 Z " /><path fill="rgb(83,150,39)" stroke="rgb(83,150,39)" stroke-width="1" opacity="0.9490196078431372" d="M 54.5 55 L 52.5 58 L 54.5 55 Z " /><path fill="rgb(83,150,39)" stroke="rgb(83,150,39)" stroke-width="1" opacity="0.9490196078431372" d="M 63.5 58 L 64 59.5 L 61.5 61 L 61.5 60 Q 64 60.7 63.5 58 Z " /><path fill="rgb(83,150,39)" stroke="rgb(83,150,39)" stroke-width="1" opacity="0.9490196078431372" d="M 47.5 62 L 44.5 66 L 47.5 62 Z " /><path fill="rgb(83,150,39)" stroke="rgb(83,150,39)" stroke-width="1" opacity="0.9490196078431372" d="M 56.5 65 L 57 66.5 L 55 67.5 L 56.5 65 Z " /><path fill="rgb(83,150,39)" stroke="rgb(83,150,39)" stroke-width="1" opacity="0.9490196078431372" d="M 43.5 67 L 44 71.5 L 43 71.5 L 43.5 67 Z " /><path fill="rgb(83,150,39)" stroke="rgb(83,150,39)" stroke-width="1" opacity="0.9490196078431372" d="M 51.5 71 L 51 72.5 L 50.5 74 L 50 72.5 L 51.5 71 Z " /><path fill="rgb(83,150,39)" stroke="rgb(83,150,39)" stroke-width="1" opacity="0.9490196078431372" d="M 44.5 73 L 45.5 75 L 44.5 73 Z " /><path fill="rgb(83,150,39)" stroke="rgb(83,150,39)" stroke-width="1" opacity="0.9490196078431372" d="M 115.5 73 L 117.5 76 L 115 74.5 L 115.5 73 Z " /><path fill="rgb(83,150,39)" stroke="rgb(83,150,39)" stroke-width="1" opacity="0.9490196078431372" d="M 47.5 75 L 50 75.5 L 47.5 76 L 47.5 75 Z " /><path fill="rgb(83,150,39)" stroke="rgb(83,150,39)" stroke-width="1" opacity="0.9490196078431372" d="M 103.5 76 L 104 81.5 L 102 82.5 L 103.5 76 Z " /><path fill="rgb(83,150,39)" stroke="rgb(83,150,39)" stroke-width="1" opacity="0.9490196078431372" d="M 128.5 79 Q 132.3 78.3 133 80.5 L 131.5 80 Q 127.5 80.8 128.5 79 Z " /><path fill="rgb(83,150,39)" stroke="rgb(83,150,39)" stroke-width="1" opacity="0.9490196078431372" d="M 135 81 Q 138 80 137 83 Q 134 84 135 81 Z " /><path fill="rgb(83,150,39)" stroke="rgb(83,150,39)" stroke-width="1" opacity="0.9490196078431372" d="M 139.5 83 L 140.5 85 Q 137.7 85.7 139.5 83 Z " /><path fill="rgb(83,150,39)" stroke="rgb(83,150,39)" stroke-width="1" opacity="0.9490196078431372" d="M 142.5 85 L 146 87.5 L 144.5 87 Q 140.5 88 142.5 85 Z " /><path fill="rgb(83,150,39)" stroke="rgb(83,150,39)" stroke-width="1" opacity="0.9490196078431372" d="M 147 88 Q 150 87 149 90 Q 146 91 147 88 Z " /><path fill="rgb(83,150,39)" stroke="rgb(83,150,39)" stroke-width="1" opacity="0.9490196078431372" d="M 101.5 91 L 102 94.5 L 100.5 97 L 100 93.5 L 101.5 91 Z " /><path fill="rgb(83,150,39)" stroke="rgb(83,150,39)" stroke-width="1" opacity="0.9490196078431372" d="M 152.5 92 L 154.5 95 L 152.5 92 Z " /><path fill="rgb(83,150,39)" stroke="rgb(83,150,39)" stroke-width="1" opacity="0.9490196078431372" d="M 158.5 97 L 189.5 129 L 184.5 125 L 183 122 L 181 122 L 181 120 L 179 120 Q 180.1 117.3 177.5 118 L 176 115 L 174 115 L 174 113 L 172 113 Q 173.1 110.3 170.5 111 L 167 106 L 165 106 L 165 104 L 163 104 Q 164.1 101.3 161.5 102 L 160 99 Q 156.8 100 158.5 97 Z " /><path fill="rgb(83,150,39)" stroke="rgb(83,150,39)" stroke-width="1" opacity="0.9490196078431372" d="M 99.5 99 L 97.5 102 L 96 101.5 L 99.5 99 Z " /><path fill="rgb(83,150,39)" stroke="rgb(83,150,39)" stroke-width="1" opacity="0.9490196078431372" d="M 89.5 102 L 95 102.5 L 87.5 104 L 87.5 103 L 89.5 102 Z " /><path fill="rgb(83,150,39)" stroke="rgb(83,150,39)" stroke-width="1" opacity="0.9490196078431372" d="M 76.5 104 Q 80.3 103 79 106 L 74 105.5 L 76.5 104 Z " /><path fill="rgb(83,150,39)" stroke="rgb(83,150,39)" stroke-width="1" opacity="0.9490196078431372" d="M 149.5 110 L 152 110.5 L 149.5 111 L 149.5 110 Z " /><path fill="rgb(83,150,39)" stroke="rgb(83,150,39)" stroke-width="1" opacity="0.9490196078431372" d="M 147.5 111 L 145.5 114 L 147.5 111 Z " /><path fill="rgb(83,150,39)" stroke="rgb(83,150,39)" stroke-width="1" opacity="0.9490196078431372" d="M 153.5 111 L 160 116.5 Q 159.3 118.8 161.5 118 L 161.5 119 L 159 117.5 L 159 116 L 157 116 L 157 114 L 155 114 Q 156.1 111.3 153.5 112 L 153.5 111 Z " /><path fill="rgb(83,150,39)" stroke="rgb(83,150,39)" stroke-width="1" opacity="0.9490196078431372" d="M 72.5 112 L 74 115.5 L 72 114.5 L 72.5 112 Z " /><path fill="rgb(83,150,39)" stroke="rgb(83,150,39)" stroke-width="1" opacity="0.9490196078431372" d="M 138 119 L 140 119.5 L 138 120.5 L 138 119 Z " /><path fill="rgb(83,150,39)" stroke="rgb(83,150,39)" stroke-width="1" opacity="0.9490196078431372" d="M 162.5 120 L 167 123.5 Q 166.3 126.1 169 125 L 169 127 L 170.5 127 L 174 132 Q 176.7 130.9 176 133.5 L 173 131.5 L 173 130 L 171 130 Q 172.1 127.3 169.5 128 L 164 121 L 162.5 120 Z " /><path fill="rgb(83,150,39)" stroke="rgb(83,150,39)" stroke-width="1" opacity="0.9490196078431372" d="M 74.5 121 L 76 125.5 L 75 125.5 Q 76.1 122.2 73.5 123 L 74.5 121 Z " /><path fill="rgb(83,150,39)" stroke="rgb(83,150,39)" stroke-width="1" opacity="0.9490196078431372" d="M 132.5 126 L 131.5 128 L 132.5 126 Z " /><path fill="rgb(83,150,39)" stroke="rgb(83,150,39)" stroke-width="1" opacity="0.9490196078431372" d="M 77.5 130 L 79 133.5 L 77 132.5 L 77.5 130 Z " /><path fill="rgb(83,150,39)" stroke="rgb(83,150,39)" stroke-width="1" opacity="0.9490196078431372" d="M 190.5 130 L 193.5 132 L 194.5 134 L 190.5 130 Z " /><path fill="rgb(83,150,39)" stroke="rgb(83,150,39)" stroke-width="1" opacity="0.9490196078431372" d="M 125.5 133 L 122.5 137 L 125.5 133 Z " /><path fill="rgb(83,150,39)" stroke="rgb(83,150,39)" stroke-width="1" opacity="0.9490196078431372" d="M 79.5 135 L 81 137.5 L 79 136.5 L 79.5 135 Z " /><path fill="rgb(83,150,39)" stroke="rgb(83,150,39)" stroke-width="1" opacity="0.9490196078431372" d="M 195 136 Q 197.7 134.9 197 137.5 L 198 139.5 L 195 141.5 Q 194.3 138.9 197 140 L 197 138 Q 194 139 195 136 Z " /><path fill="rgb(83,150,39)" stroke="rgb(83,150,39)" stroke-width="1" opacity="0.9490196078431372" d="M 81.5 139 L 85 145.5 L 84 145.5 L 81 140.5 L 81.5 139 Z " /><path fill="rgb(83,150,39)" stroke="rgb(83,150,39)" stroke-width="1" opacity="0.9490196078431372" d="M 118.5 140 L 115.5 144 L 118.5 140 Z " /><path fill="rgb(83,150,39)" stroke="rgb(83,150,39)" stroke-width="1" opacity="0.9490196078431372" d="M 173.5 141 L 174 142.5 L 169.5 146 L 169.5 145 Q 172.1 145.7 171 143 L 173 143 L 173.5 141 Z " /><path fill="rgb(83,150,39)" stroke="rgb(83,150,39)" stroke-width="1" opacity="0.9490196078431372" d="M 193.5 143 L 195 143.5 L 193 144 L 187.5 151 Q 185.3 150.3 186 152.5 L 179 158 Q 180.1 160.7 177.5 160 L 179.5 157 L 181 157 L 181 155 L 183 155 L 183 153 Q 185.7 154.1 185 151.5 L 188 150 L 188 148 L 190 148 L 190 146 Q 192.7 147.1 192 144.5 L 193.5 143 Z " /><path fill="rgb(83,150,39)" stroke="rgb(83,150,39)" stroke-width="1" opacity="0.9490196078431372" d="M 167.5 147 L 169 147.5 L 167 148 L 161.5 155 Q 159.3 154.3 160 156.5 L 159 156.5 L 160.5 154 L 162 154 L 162 152 L 164 152 L 164 150 Q 166.7 151.1 166 148.5 L 167.5 147 Z " /><path fill="rgb(83,150,39)" stroke="rgb(83,150,39)" stroke-width="1" opacity="0.9490196078431372" d="M 86.5 148 Q 88.8 147.3 88 149.5 L 86.5 148 Z " /><path fill="rgb(83,150,39)" stroke="rgb(83,150,39)" stroke-width="1" opacity="0.9490196078431372" d="M 110.5 148 L 109 150.5 L 110 156.5 L 109 156.5 L 108 150.5 L 110.5 148 Z " /><path fill="rgb(83,150,39)" stroke="rgb(83,150,39)" stroke-width="1" opacity="0.9490196078431372" d="M 89.5 151 L 97 159.5 L 95 160 L 95 158 Q 92.3 159.1 93 156.5 L 89 152.5 L 89.5 151 Z " /><path fill="rgb(83,150,39)" stroke="rgb(83,150,39)" stroke-width="1" opacity="0.9490196078431372" d="M 157.5 157 L 158 158.5 L 153 162 L 152.5 164 L 152 162.5 L 155 161 L 155 159 Q 157.8 160 157.5 157 Z " /><path fill="rgb(83,150,39)" stroke="rgb(83,150,39)" stroke-width="1" opacity="0.9490196078431372" d="M 97.5 161 L 100.5 165 L 97.5 161 Z " /><path fill="rgb(83,150,39)" stroke="rgb(83,150,39)" stroke-width="1" opacity="0.9490196078431372" d="M 114.5 161 L 117 162.5 L 116.5 164 L 116 162 L 114.5 161 Z " /><path fill="rgb(83,150,39)" stroke="rgb(83,150,39)" stroke-width="1" opacity="0.9490196078431372" d="M 176.5 161 L 173.5 165 L 176.5 161 Z " /><path fill="rgb(83,150,39)" stroke="rgb(83,150,39)" stroke-width="1" opacity="0.9490196078431372" d="M 150.5 164 L 151 165.5 L 146.5 169 L 146.5 168 Q 149.1 168.7 148 166 L 150 166 L 150.5 164 Z " /><path fill="rgb(83,150,39)" stroke="rgb(83,150,39)" stroke-width="1" opacity="0.9490196078431372" d="M 120.5 166 L 125.5 172 L 121 169 L 120.5 166 Z " /><path fill="rgb(83,150,39)" stroke="rgb(83,150,39)" stroke-width="1" opacity="0.9490196078431372" d="M 169.5 168 L 164.5 174 L 169.5 168 Z " /><path fill="rgb(83,150,39)" stroke="rgb(83,150,39)" stroke-width="1" opacity="0.9490196078431372" d="M 106.5 170 L 109.5 174 L 106.5 170 Z " /><path fill="rgb(83,150,39)" stroke="rgb(83,150,39)" stroke-width="1" opacity="0.9490196078431372" d="M 144.5 170 L 146 170.5 L 144 171 L 140.5 176 L 137.5 178 L 139.5 175 L 141 175 L 141 173 Q 143.7 174.1 143 171.5 L 144.5 170 Z " /><path fill="rgb(83,150,39)" stroke="rgb(83,150,39)" stroke-width="1" opacity="0.9490196078431372" d="M 127.5 173 L 131.5 178 Q 129.3 178.8 130 176.5 L 127.5 173 Z " /><path fill="rgb(83,150,39)" stroke="rgb(83,150,39)" stroke-width="1" opacity="0.9490196078431372" d="M 162.5 175 L 157.5 181 L 162.5 175 Z " /><path fill="rgb(83,150,39)" stroke="rgb(83,150,39)" stroke-width="1" opacity="0.9490196078431372" d="M 113.5 177 L 116.5 181 L 113.5 177 Z " /><path fill="rgb(83,150,39)" stroke="rgb(83,150,39)" stroke-width="1" opacity="0.9490196078431372" d="M 119.5 183 L 124.5 189 L 119.5 183 Z " /><path fill="rgb(83,150,39)" stroke="rgb(83,150,39)" stroke-width="1" opacity="0.9490196078431372" d="M 153.5 184 L 150.5 188 L 153.5 184 Z " /><path fill="rgb(83,150,39)" stroke="rgb(83,150,39)" stroke-width="1" opacity="0.9490196078431372" d="M 146.5 191 L 143.5 195 L 146.5 191 Z " /><path fill="rgb(83,150,39)" stroke="rgb(83,150,39)" stroke-width="1" opacity="0.9490196078431372" d="M 128.5 192 L 129.5 194 L 128.5 192 Z " /><path fill="rgb(83,150,39)" stroke="rgb(83,150,39)" stroke-width="1" opacity="0.9490196078431372" d="M 132.5 195 L 133.5 197 Q 130.7 197.7 132.5 195 Z " /><path fill="rgb(83,150,39)" stroke="rgb(83,150,39)" stroke-width="1" opacity="0.9490196078431372" d="M 141.5 195 L 142 197 L 140 196.5 L 141.5 195 Z " /><path fill="rgb(68,144,27)" stroke="rgb(68,144,27)" stroke-width="1" opacity="0.996078431372549" d="M 67.5 44 L 68 46 L 72 47.5 L 70.5 47 L 65 46.5 L 67 46 L 67.5 44 Z " /><path fill="rgb(68,144,27)" stroke="rgb(68,144,27)" stroke-width="1" opacity="0.996078431372549" d="M 45.5 73 Q 49.3 72 48 75 L 45.5 73 Z " /><path fill="rgb(68,144,27)" stroke="rgb(68,144,27)" stroke-width="1" opacity="0.996078431372549" d="M 104.5 74 L 114.5 74 Q 116.4 77.8 123 76 Q 124.3 79 120.5 78 Q 119 75.5 113.5 77 L 110.5 75 L 104.5 75 L 104.5 74 Z " /><path fill="rgb(68,144,27)" stroke="rgb(68,144,27)" stroke-width="1" opacity="0.996078431372549" d="M 126 78 Q 129 77 128 80 Q 125 81 126 78 Z " /><path fill="rgb(68,144,27)" stroke="rgb(68,144,27)" stroke-width="1" opacity="0.996078431372549" d="M 131.5 80 L 135 81 L 135 83 L 139 83 L 139 84.5 L 137.5 84 L 131 82 L 131.5 80 Z " /><path fill="rgb(68,144,27)" stroke="rgb(68,144,27)" stroke-width="1" opacity="0.996078431372549" d="M 143.5 87 L 147 88.5 L 144.5 89 L 143.5 87 Z " /><path fill="rgb(68,144,27)" stroke="rgb(68,144,27)" stroke-width="1" opacity="0.996078431372549" d="M 148 90 Q 151 89 150 92 Q 147 93 148 90 Z " /><path fill="rgb(68,144,27)" stroke="rgb(68,144,27)" stroke-width="1" opacity="0.996078431372549" d="M 156.5 97 Q 158.8 96.3 158 98.5 L 156.5 97 Z " /><path fill="rgb(68,144,27)" stroke="rgb(68,144,27)" stroke-width="1" opacity="0.996078431372549" d="M 163.5 104 Q 165.8 103.3 165 105.5 L 163.5 104 Z " /><path fill="rgb(68,144,27)" stroke="rgb(68,144,27)" stroke-width="1" opacity="0.996078431372549" d="M 72.5 106 L 74 112.5 L 72 111.5 L 72.5 106 Z " /><path fill="rgb(68,144,27)" stroke="rgb(68,144,27)" stroke-width="1" opacity="0.996078431372549" d="M 170.5 111 L 172 111 L 172 113 Q 174.7 111.9 174 114.5 L 170.5 111 Z " /><path fill="rgb(68,144,27)" stroke="rgb(68,144,27)" stroke-width="1" opacity="0.996078431372549" d="M 177.5 118 L 179 118 L 179 120 Q 181.7 118.9 181 121.5 L 177.5 118 Z " /><path fill="rgb(68,144,27)" stroke="rgb(68,144,27)" stroke-width="1" opacity="0.996078431372549" d="M 74 119 Q 77.3 117.7 76 122.5 L 75 122.5 L 74 119 Z " /><path fill="rgb(68,144,27)" stroke="rgb(68,144,27)" stroke-width="1" opacity="0.996078431372549" d="M 76.5 126 Q 79.5 125.1 78 129.5 L 77 129.5 L 76.5 126 Z " /><path fill="rgb(68,144,27)" stroke="rgb(68,144,27)" stroke-width="1" opacity="0.996078431372549" d="M 186.5 127 Q 188.8 126.3 188 128.5 L 186.5 127 Z " /><path fill="rgb(68,144,27)" stroke="rgb(68,144,27)" stroke-width="1" opacity="0.996078431372549" d="M 78.5 131 L 80 135 Q 83 133.8 82 137.5 L 83 139.5 L 81 138.5 L 78.5 131 Z " /><path fill="rgb(68,144,27)" stroke="rgb(68,144,27)" stroke-width="1" opacity="0.996078431372549" d="M 193.5 134 L 195 134 L 195 138 Q 198 137 197 140 L 195 140 Q 196.5 143.7 193.5 143 L 194 141.5 Q 194.5 135.5 193.5 134 Z " /><path fill="rgb(68,144,27)" stroke="rgb(68,144,27)" stroke-width="1" opacity="0.996078431372549" d="M 191.5 144 L 192 146 L 190 146 L 190 148 L 188 148 Q 189.1 150.7 186.5 150 L 187 148.5 L 187 147 L 189 147 Q 187.9 144.3 190.5 145 L 191.5 144 Z " /><path fill="rgb(68,144,27)" stroke="rgb(68,144,27)" stroke-width="1" opacity="0.996078431372549" d="M 85.5 145 Q 89.5 145.5 89 150.5 L 88 150.5 L 88 148 Q 85.3 149.1 86 146.5 L 85.5 145 Z " /><path fill="rgb(68,144,27)" stroke="rgb(68,144,27)" stroke-width="1" opacity="0.996078431372549" d="M 184.5 151 L 185 153 L 183 153 L 183 155 L 181 155 Q 182.1 157.7 179.5 157 L 177 158.5 L 180 154 L 182 154 Q 180.9 151.3 183.5 152 L 184.5 151 Z " /><path fill="rgb(68,144,27)" stroke="rgb(68,144,27)" stroke-width="1" opacity="0.996078431372549" d="M 90.5 152 L 94 154 L 94 156 Q 96.7 154.9 96 157.5 L 96.5 159 L 90.5 152 Z " /><path fill="rgb(68,144,27)" stroke="rgb(68,144,27)" stroke-width="1" opacity="0.996078431372549" d="M 171.5 165 L 170.5 167 L 171.5 165 Z " /><path fill="rgb(68,144,27)" stroke="rgb(68,144,27)" stroke-width="1" opacity="0.996078431372549" d="M 118.5 181 L 119.5 183 Q 116.7 183.7 118.5 181 Z " /><path fill="rgb(68,144,27)" stroke="rgb(68,144,27)" stroke-width="1" opacity="0.996078431372549" d="M 133.5 195 Q 134.8 197.3 139.5 196 L 141 195.5 Q 139.8 198.3 134.5 197 L 133.5 195 Z " /><path fill="rgb(68,145,27)" stroke="rgb(68,145,27)" stroke-width="1" opacity="1" d="M 63 46 L 73 48 Q 74.5 51.7 71.5 51 L 65 56.5 L 61 61.5 L 56 65 L 50 72.5 L 50 75 Q 47 76 48 73 L 44 73 L 44 66.5 L 49 60 L 51 60 Q 49.9 57.3 52.5 58 L 56 53 L 58 53 Q 56.9 50.3 59.5 51 L 63 46 Z " /><path fill="rgb(68,145,27)" stroke="rgb(68,145,27)" stroke-width="1" opacity="1" d="M 104 75 L 126 78 L 126 80 L 130.5 80 L 131 82 L 133.5 82 L 148 90.5 L 148 92 L 152 92 L 152 94 L 154 94 L 154 96 Q 156.7 94.9 156 97.5 L 159 99 L 159 101 L 161 101 L 161 103 Q 163.7 101.9 163 104.5 L 166 106 L 166 108 L 168 108 L 168 110 Q 170.7 108.9 170 111.5 L 175 115 L 175 117 Q 177.7 115.9 177 118.5 L 182 122 L 182 124 L 184 124 L 184 126 Q 186.7 124.9 186 127.5 L 189 129 L 189 131 L 191 131 L 191 133 Q 193.7 131.9 193 134.5 Q 195.5 136 194 141.5 L 193 144 L 189 145 L 189 147 Q 186.3 145.9 187 148.5 L 186 151 L 182 152 L 182 154 Q 179.3 152.9 180 155.5 Q 176.3 156.7 177 161 L 175 161 L 175 163 L 173 163 Q 174.1 165.7 171.5 165 L 170 168 L 168 168 L 168 170 L 166 170 L 166 172 Q 163.3 170.9 164 173.5 L 161 175 L 161 177 L 159 177 L 159 179 Q 156.3 177.9 157 180.5 L 154 182 L 154 184 L 152 184 L 152 186 Q 149.3 184.9 150 187.5 L 147 189 L 147 191 L 145 191 L 143 195 L 140.5 195 Q 139.2 197.3 134.5 196 L 131 195 L 131 193 L 129 193 Q 130.1 190.3 127.5 191 L 126 188 L 124 188 L 124 186 L 122 186 L 122 184 Q 119.3 185.1 120 182.5 L 117 181 L 117 179 L 115 179 Q 116.1 176.3 113.5 177 L 112 174 L 110 174 L 110 172 L 108 172 L 108 170 L 106 170 Q 107.1 167.3 104.5 168 L 103 165 L 101 165 L 101 163 L 97 161 L 97 158.5 L 96 156 L 94 156 Q 95.1 153.3 92.5 154 L 85 144.5 L 85 142 Q 81.7 143.3 83 138.5 L 82 135 Q 79 136.3 80 132.5 Q 76.8 131.1 78 126 L 76 126 L 76 119.5 L 74 118.5 L 74 110.5 L 73 106 L 79 106 L 79.5 104 L 89.5 104 L 97.5 102 L 100 99.5 L 102 94.5 L 102 83.5 Q 105.8 81.6 104 75 Z M 150 110 L 138 119 L 138 121 L 114 145 Q 115 147 112 146 L 112 148 L 108 151 L 109 157 L 114 161 Q 113 163 116 162 L 116 164 L 118 164 L 118 166 L 121 168 Q 120 170 123 169 L 130 178 L 139 178 L 139 176 L 144 173 Q 143 170 146 171 L 146 169 L 151 166 Q 150 163 153 164 L 153 162 L 158 159 Q 157 156 160 157 L 160 155 L 167 150 Q 166 147 169 148 L 169 146 L 174 143 Q 173 140 176 141 L 176 133 L 174 132 L 171 127 Q 168 128 169 125 L 167 125 L 164 120 L 162 120 L 162 118 Q 159 119 160 117 Q 158 110 150 110 Z " /><path fill="rgb(211,214,193)" stroke="rgb(211,214,193)" stroke-width="1" opacity="0.26666666666666666" d="M 29 11 L 42 11 L 42 13 L 46 15 L 46 21.5 L 48 22 L 48 23.5 L 55 29 L 55 11 L 64.5 11 L 66 12.5 L 66 40.5 L 67 44 L 65 43.5 L 65 14.5 L 64 12 L 56 12 L 56 30.5 L 52.5 31 L 51 28 L 49 28 L 49 26 L 45 24 L 45 18.5 L 42 14 L 38.5 12 L 32.5 12 L 24 19 L 18.5 26 L 17 26 L 17 28 Q 14.3 26.9 15 29.5 L 10 34.5 L 10 40 L 12 40 L 12 42 Q 14.7 40.9 14 43.5 Q 15 48 21.5 47 L 26 44 L 28 47.5 L 29 55.5 L 28 58 L 10 58 L 10 65 Q 13.1 64.3 12.5 67 L 41.5 67 L 42 69.5 L 40.5 69 L 38.5 68 L 10.5 68 L 9 66.5 L 9 57 L 24.5 57 Q 28.8 55.1 27 48 L 15.5 48 L 9 41.5 L 9 31 L 11 31 L 11 29 L 13 29 L 13 27 Q 15.7 28.1 15 25.5 L 18 24 L 18 22 L 20 22 L 20 20 Q 22.7 21.1 22 18.5 L 25 17 L 25 15 L 27 15 L 29 11 Z " /><path fill="rgb(211,214,193)" stroke="rgb(211,214,193)" stroke-width="1" opacity="0.26666666666666666" d="M 72.5 25 L 81.5 25 L 83 26.5 L 83 39 L 71.5 39 L 69 36.5 L 69 27 L 72.5 25 Z M 76 26 L 70 28 L 70 35 Q 73 34 72 37 Q 74 39 81 38 L 82 37 L 82 29 Q 81 25 76 26 Z " /><path fill="rgb(211,214,193)" stroke="rgb(211,214,193)" stroke-width="1" opacity="0.26666666666666666" d="M 70.5 43 L 74 43 Q 73 46 76 45 L 76 49.5 L 75 49.5 L 70.5 43 Z " /><path fill="rgb(211,214,193)" stroke="rgb(211,214,193)" stroke-width="1" opacity="0.26666666666666666" d="M 75 52 Q 78.8 50.5 78 53.5 L 87 61 L 88.5 64 L 90 64 L 90 66 L 92 66 L 92 68 Q 94.7 66.9 94 69.5 L 95.5 71 L 113.5 71 L 115 72.5 Q 115.8 75.1 112.5 74 L 109.5 72 L 93.5 72 L 75 53.5 L 75 52 Z " /><path fill="rgb(211,214,193)" stroke="rgb(211,214,193)" stroke-width="1" opacity="0.26666666666666666" d="M 27.5 69 L 36.5 70 L 39 72.5 L 39 87 L 24.5 87 L 22 84.5 L 21 76.5 L 23.5 70 L 27.5 69 Z M 29 70 L 24 72 L 22 77 Q 24 78 23 83 Q 25 88 36 86 L 38 84 L 38 75 L 35 71 Q 30 72 29 70 Z " /><path fill="rgb(211,214,193)" stroke="rgb(211,214,193)" stroke-width="1" opacity="0.26666666666666666" d="M 41.5 71 L 45.5 76 L 54 77 L 54 79 L 56 79 L 56 81 L 58 81 Q 56.9 83.7 59.5 83 L 61 86 L 63 86 L 63 88 L 65 88 Q 63.9 90.7 66.5 90 L 68 93 L 70 93.5 L 70 108.5 L 72 113 L 69 112.5 L 69 96.5 L 66 92 L 59 86.5 L 59 85 L 57 85 Q 58.1 82.3 55.5 83 L 52 78 L 45.5 78 Q 44.4 75.3 41 76 L 41.5 71 Z " /><path fill="rgb(211,214,193)" stroke="rgb(211,214,193)" stroke-width="1" opacity="0.26666666666666666" d="M 118.5 73 L 129 75 Q 130.3 78 126.5 77 L 118.5 74 L 118.5 73 Z " /><path fill="rgb(211,214,193)" stroke="rgb(211,214,193)" stroke-width="1" opacity="0.26666666666666666" d="M 130 77 L 141 80 L 141 82 L 145 82 Q 143.9 84.7 146.5 84 L 152.5 89 L 155 89 L 155 91 L 157 91 Q 155.9 93.7 158.5 93 L 164 100 L 171 105.5 Q 170.3 107.8 172.5 107 L 178 114 L 185 119.5 Q 184.3 122.1 187 121 L 187 123 L 188.5 123 L 194 130 L 198 132.5 L 197.5 136 L 197 134 Q 194.3 135.1 195 132.5 L 190 129 L 190 127 L 188 127 L 188 125 Q 185.3 126.1 186 123.5 L 181 120 L 181 118 Q 178.3 119.1 179 116.5 L 174 113 L 174 111 Q 171.3 112.1 172 109.5 L 167 106 L 167 104 Q 164.3 105.1 165 102.5 L 160 99 L 160 97 L 158 97 L 158 95 L 156 95 Q 157.1 92.3 154.5 93 L 137.5 81 L 130 79 L 130 77 Z " /><path fill="rgb(211,214,193)" stroke="rgb(211,214,193)" stroke-width="1" opacity="0.26666666666666666" d="M 71.5 116 L 73 122 L 71 122 L 71.5 116 Z " /><path fill="rgb(211,214,193)" stroke="rgb(211,214,193)" stroke-width="1" opacity="0.26666666666666666" d="M 73.5 124 L 79 138.5 L 84 145.5 L 84 148 Q 86.7 146.9 86 149.5 L 91 157 L 93 157 Q 92 160 95 159 L 95 162 L 97 162 Q 95.9 164.7 98.5 164 L 100 167 L 102 167 L 102 169 L 104 169 Q 102.9 171.7 105.5 171 L 109 176 L 111 176 Q 109.9 178.7 112.5 178 L 116 183 L 118 183 Q 116.9 185.7 119.5 185 L 123 190 L 125 190 Q 123.9 192.7 126.5 192 L 134.5 199 L 139.5 199 L 149 192 L 149 190 L 151 190 L 151 188 Q 153.7 189.1 153 186.5 L 156 185 L 156 183 L 158 183 L 158 181 Q 160.7 182.1 160 179.5 L 163 178 L 163 176 L 165 176 L 165 174 Q 167.7 175.1 167 172.5 L 170 171 L 170 169 L 172 169 L 172 167 L 174 167 Q 172.9 164.3 175.5 165 L 177 162 Q 179.7 163.1 179 160.5 L 181 157 L 183 157 L 183 155 L 185 155 Q 183.9 152.3 186.5 153 L 188 150 L 190 150 L 190 148 L 192 148 Q 190.9 145.3 193.5 146 L 195 143 Q 197.7 144.1 197 141.5 L 198 141.5 L 198 145 L 196 145 L 196 147 Q 193.3 145.9 194 148.5 L 189 152 L 189 154 L 187 154 L 187 156 Q 184.3 154.9 185 157.5 L 182 159 Q 183 162 180 161 L 180 165 L 178.5 165 L 177 168 L 175 168 L 175 170 L 173 170 Q 174.1 172.7 171.5 172 L 170 175 L 168 175 L 168 177 L 166 177 L 166 179 L 164 179 Q 165.1 181.7 162.5 181 L 161 184 L 159 184 L 159 186 L 157 186 Q 158.1 188.7 155.5 188 L 154 191 L 152 191 L 152 193 L 150 193 Q 151.1 195.7 148.5 195 L 147 198 Q 141.7 196.7 142.5 200 L 131 200 Q 132.3 197 128.5 198 L 94 163.5 L 94 161 Q 91.3 162.1 92 159.5 L 85 154 L 85 150 L 83.5 150 Q 81 148.8 82 145 Q 79 146.3 80 142.5 Q 77.3 141.4 78 138 Q 75 139.3 76 135.5 L 73 128.5 L 73.5 124 Z " /><path fill="rgb(241,191,122)" stroke="rgb(241,191,122)" stroke-width="1" opacity="0.9921568627450981" d="M 32.5 12 L 37.5 12 L 45 19.5 L 45 23.5 L 42 28.5 L 42 44 L 30.5 44 L 26.5 46 L 27 44.5 L 26.5 43 L 21.5 47 L 17.5 47 L 14 42 L 10 40 L 10 35.5 L 21 24.5 L 21 23 Q 23.7 24.1 23 21.5 L 26 20 L 26 18 L 28 18 L 28 16 Q 30.7 17.1 30 14.5 L 32.5 12 Z " /><path fill="rgb(241,191,122)" stroke="rgb(241,191,122)" stroke-width="1" opacity="0.9921568627450981" d="M 61.5 46 L 63 46.5 L 61 47 L 61 49 Q 58.3 47.9 59 50.5 L 58 50.5 L 61.5 46 Z " /><path fill="rgb(241,191,122)" stroke="rgb(241,191,122)" stroke-width="1" opacity="0.9921568627450981" d="M 54.5 53 L 56 53.5 L 54 54 L 54 56 Q 51.3 54.9 52 57.5 L 51 57.5 L 54.5 53 Z " /><path fill="rgb(241,191,122)" stroke="rgb(241,191,122)" stroke-width="1" opacity="0.9921568627450981" d="M 70 53 L 75 53 L 75 54.5 L 84 63.5 L 84 65 L 86 65 Q 84.9 67.7 87.5 67 Q 91 74.3 103 72 Q 100.9 75.3 102 83.5 L 100 88.5 L 100 96.5 L 98 100 Q 94.6 99.3 93.5 102 L 84.5 102 Q 80.8 105.3 72.5 104 L 70.5 106 L 70 102.5 L 72 99.5 Q 69.4 98.1 70 93.5 L 64.5 88 L 63 88 L 63 86 Q 60.3 87.1 61 84.5 L 56 81 L 54 77 L 51 77 L 51 73.5 L 56 67 L 58 67 Q 56.9 64.3 59.5 65 L 61 62 L 63 62 L 63 60 L 65 60 Q 63.9 57.3 66.5 58 L 70 53 Z " /><path fill="rgb(241,191,122)" stroke="rgb(241,191,122)" stroke-width="1" opacity="0.9921568627450981" d="M 45.5 62 L 47 62.5 L 45 63 L 44.5 65 L 44 63.5 L 45.5 62 Z " /><path fill="rgb(241,191,122)" stroke="rgb(241,191,122)" stroke-width="1" opacity="0.9921568627450981" d="M 149.5 111 L 155 113 L 156.5 116 L 158 116 L 158 118 L 160 118 L 160 120 Q 162.7 118.9 162 121.5 L 167 125 L 167 127 Q 169.7 125.9 169 128.5 L 174 132 Q 173.3 135.4 176 136.5 Q 173.3 137.6 174 141 L 169 144.5 L 169 146 L 167 146 L 167 148 L 165 148 Q 166.1 150.7 163.5 150 L 162 153 L 160 153 L 160 155 L 158 155 Q 159.1 157.7 156.5 157 L 153 162 L 151 162 Q 152.1 164.7 149.5 164 L 146 169 L 144 169 Q 145.1 171.7 142.5 171 L 139 176 L 133 178 L 133 176 Q 129.3 177.5 130 174.5 L 125 171 L 125 169 Q 122.3 170.1 123 167.5 L 118 164 L 118 162 L 116 162 L 116 160 Q 113.3 161.1 114 158.5 L 111 157 L 109 151.5 L 125 135.5 L 125 134 L 132 128.5 Q 131.3 125.9 134 127 L 134 125 L 135.5 125 L 137 122 L 139 122 L 139 120 L 141 120 Q 139.9 117.3 142.5 118 L 146 113 L 149.5 111 Z " /></svg>