<svg width="200" height="200" version="1.1" xmlns="http://www.w3.org/2000/svg" desc="Created with imagetracer.js version 1.2.6" ><path fill="rgb(246,178,172)" stroke="rgb(246,178,172)" stroke-width="1" opacity="0.9686274509803922" d="M 84.5 30 L 93.5 30 L 101 34.5 L 104 40.5 L 103 40.5 L 97.5 33 Q 93.5 30 85.5 31 L 76 38.5 L 74.5 50 Q 71.8 48.8 73 43.5 Q 74.5 36.5 79.5 33 L 84.5 30 Z " /><path fill="rgb(246,178,172)" stroke="rgb(246,178,172)" stroke-width="1" opacity="0.9686274509803922" d="M 104.5 42 L 105 48.5 L 104 48.5 L 104.5 42 Z " /><path fill="rgb(246,178,172)" stroke="rgb(246,178,172)" stroke-width="1" opacity="0.9686274509803922" d="M 103.5 50 L 104 52.5 L 99.5 58 Q 95.4 62.9 84.5 61 L 81 58.5 L 82.5 59 L 93.5 60 L 102 53.5 L 103.5 50 Z " /><path fill="rgb(246,178,172)" stroke="rgb(246,178,172)" stroke-width="1" opacity="0.9686274509803922" d="M 75.5 51 L 80 57.5 L 76 54.5 L 75.5 51 Z " /><path fill="rgb(246,178,172)" stroke="rgb(246,178,172)" stroke-width="1" opacity="0.9686274509803922" d="M 83.5 131 Q 93.7 130.8 98 136.5 L 100 139.5 L 96 136.5 Q 96.8 134.3 94.5 135 Q 91.3 131.7 84.5 132 L 79.5 134 L 80.5 132 L 83.5 131 Z " /><path fill="rgb(246,178,172)" stroke="rgb(246,178,172)" stroke-width="1" opacity="0.9686274509803922" d="M 77.5 134 L 73 139.5 L 72.5 141 L 72 139.5 L 75.5 135 L 77.5 134 Z " /><path fill="rgb(246,178,172)" stroke="rgb(246,178,172)" stroke-width="1" opacity="0.9686274509803922" d="M 100.5 142 Q 103.8 143.8 102 150.5 L 101 150.5 Q 101.6 143.8 100.5 142 Z " /><path fill="rgb(246,178,172)" stroke="rgb(246,178,172)" stroke-width="1" opacity="0.9686274509803922" d="M 72.5 154 L 77.5 160 L 81 161.5 L 79.5 162 L 73 156.5 L 72.5 154 Z " /><path fill="rgb(246,178,172)" stroke="rgb(246,178,172)" stroke-width="1" opacity="0.9686274509803922" d="M 99.5 154 L 100 155.5 L 92.5 162 L 93.5 160 L 99 155.5 L 99.5 154 Z " /><path fill="rgb(246,178,172)" stroke="rgb(246,178,172)" stroke-width="1" opacity="0.9686274509803922" d="M 87.5 162 L 90 162.5 L 87.5 163 L 87.5 162 Z " /><path fill="rgb(145,108,196)" stroke="rgb(145,108,196)" stroke-width="1" opacity="1" d="M 85.5 31 Q 98 30 102 37.5 Q 105.3 41.2 104 49.5 L 97.5 58 Q 93.8 61.3 85.5 60 L 79 56.5 Q 73 52.5 75 40.5 L 81.5 33 L 85.5 31 Z " /><path fill="rgb(145,108,196)" stroke="rgb(145,108,196)" stroke-width="1" opacity="1" d="M 84.5 132 L 88 132.5 L 84.5 133 L 84.5 132 Z " /><path fill="rgb(145,108,196)" stroke="rgb(145,108,196)" stroke-width="1" opacity="1" d="M 80.5 133 L 82 133.5 L 76.5 137 L 78.5 134 L 80.5 133 Z " /><path fill="rgb(145,108,196)" stroke="rgb(145,108,196)" stroke-width="1" opacity="1" d="M 90.5 133 L 96 135 L 95.5 137 L 90.5 134 L 90.5 133 Z " /><path fill="rgb(145,108,196)" stroke="rgb(145,108,196)" stroke-width="1" opacity="1" d="M 74.5 138 L 74 139.5 Q 71.1 143.1 72 150.5 L 74 154.5 L 72 153.5 L 71 143.5 L 74.5 138 Z " /><path fill="rgb(145,108,196)" stroke="rgb(145,108,196)" stroke-width="1" opacity="1" d="M 97.5 138 Q 102.6 141.4 101 151.5 L 94.5 160 L 98 155.5 Q 101.3 151.8 100 143.5 L 97.5 138 Z " /><path fill="rgb(145,108,196)" stroke="rgb(145,108,196)" stroke-width="1" opacity="1" d="M 74.5 156 Q 78.1 162.9 90.5 161 L 92.5 160 L 91.5 162 L 85.5 163 L 77.5 160 L 74.5 156 Z " /><path fill="rgb(250,184,170)" stroke="rgb(250,184,170)" stroke-width="1" opacity="0.996078431372549" d="M 82.5 15 L 108.5 16 L 111.5 18 L 116.5 18 L 123.5 20 L 143.5 29 L 163 42.5 L 164.5 45 L 167 46.5 L 168.5 49 L 172 51.5 L 173.5 54 Q 175.8 53.3 175 55.5 L 182 65.5 L 180 66 L 179 61.5 L 160.5 42 Q 157.2 43.1 158 40.5 Q 156.7 36.3 152 37 L 150.5 34 L 146.5 33 L 143.5 30 L 133.5 25 L 115.5 19 L 110.5 19 L 108.5 17 L 82.5 16 Q 80.7 18.8 74.5 17 L 74.5 16 Q 80.7 17.8 82.5 15 Z " /><path fill="rgb(250,184,170)" stroke="rgb(250,184,170)" stroke-width="1" opacity="0.996078431372549" d="M 72.5 17 L 73 19 L 61.5 21 L 62.5 19 L 72.5 17 Z " /><path fill="rgb(250,184,170)" stroke="rgb(250,184,170)" stroke-width="1" opacity="0.996078431372549" d="M 59.5 21 L 60 23 L 51 25 Q 52.1 27.7 49.5 27 L 43.5 30 L 44.5 28 L 59.5 21 Z " /><path fill="rgb(250,184,170)" stroke="rgb(250,184,170)" stroke-width="1" opacity="0.996078431372549" d="M 40.5 31 L 42 31.5 L 38.5 34 L 40.5 31 Z " /><path fill="rgb(250,184,170)" stroke="rgb(250,184,170)" stroke-width="1" opacity="0.996078431372549" d="M 36.5 34 L 37 35.5 L 33 38 L 29.5 43 Q 26.9 42.2 28 45.5 L 26 49 Q 23.3 47.9 24 50.5 L 18 60.5 L 17 65 L 15 64.5 Q 22.2 45.7 36.5 34 Z " /><path fill="rgb(250,184,170)" stroke="rgb(250,184,170)" stroke-width="1" opacity="0.996078431372549" d="M 45.5 56 L 54.5 56 L 64 63.5 L 65 67.5 L 64 67.5 Q 62.6 61.4 57.5 59 Q 54.2 56.3 47.5 57 Q 40.3 58.8 37 64.5 L 36.5 66 L 36 64.5 L 37 61 L 45.5 56 Z " /><path fill="rgb(250,184,170)" stroke="rgb(250,184,170)" stroke-width="1" opacity="0.996078431372549" d="M 14.5 66 L 15 68.5 L 12 81.5 L 12 104.5 L 13 105.5 L 14 116.5 L 17 120.5 L 19 130 Q 21.7 128.9 21 131.5 L 24 137.5 L 22 136.5 L 22 134.5 L 17 127.5 L 17 124.5 L 12 111.5 Q 13.2 106.7 11 105.5 L 11 78.5 L 14.5 66 Z " /><path fill="rgb(250,184,170)" stroke="rgb(250,184,170)" stroke-width="1" opacity="0.996078431372549" d="M 35.5 67 L 36 68.5 Q 33.7 69.8 35 74.5 L 41.5 84 Q 45.5 87.5 54.5 86 Q 60.6 84.6 63 79.5 L 64.5 75 L 65 77.5 L 61.5 83 Q 59.3 82.3 60 84.5 L 58.5 86 L 49.5 88 L 41 86 L 39.5 83 L 37 81.5 Q 33.1 77.4 34 68.5 L 35.5 67 Z " /><path fill="rgb(250,184,170)" stroke="rgb(250,184,170)" stroke-width="1" opacity="0.996078431372549" d="M 182.5 67 L 186 72.5 L 184 73 L 182.5 67 Z " /><path fill="rgb(250,184,170)" stroke="rgb(250,184,170)" stroke-width="1" opacity="0.996078431372549" d="M 65.5 69 L 66 73.5 L 65 73.5 L 65.5 69 Z " /><path fill="rgb(250,184,170)" stroke="rgb(250,184,170)" stroke-width="1" opacity="0.996078431372549" d="M 149 71 L 156.5 71 Q 157.5 74 162.5 73 L 173 82.5 Q 175.3 89.2 174 99.5 L 173 103.5 L 167 111 L 159 113 L 158.5 115 L 150.5 115 Q 148.8 112.2 143.5 113 L 136 108 L 134 102.5 L 136 103.5 Q 135.5 108.5 139.5 109 L 150.5 114 L 155.5 114 L 167 108.5 L 168.5 106 L 171 104.5 Q 174.9 98.4 173 86.5 Q 171.2 79.3 165.5 76 L 155.5 72 L 152.5 73 L 150.5 73 Q 147.9 73.7 149 71 Z " /><path fill="rgb(250,184,170)" stroke="rgb(250,184,170)" stroke-width="1" opacity="0.996078431372549" d="M 144.5 73 L 148 73.5 L 142.5 75 L 135 82.5 Q 131.8 88.3 133 98.5 L 134 101 L 132 100.5 L 132 86.5 L 136.5 79 L 139 77.5 L 140.5 75 L 144.5 73 Z " /><path fill="rgb(250,184,170)" stroke="rgb(250,184,170)" stroke-width="1" opacity="0.996078431372549" d="M 186.5 74 L 192 88.5 L 192 103.5 L 188 113.5 L 182.5 121 Q 180.3 120.3 181 122.5 L 177.5 125 L 180 121.5 Q 179.3 119.3 181.5 120 Q 184.8 118.8 184 115 L 187 113.5 L 189 104 L 191 103.5 L 191 89.5 L 189 87.5 L 189 83.5 L 186 76.5 L 186.5 74 Z " /><path fill="rgb(250,184,170)" stroke="rgb(250,184,170)" stroke-width="1" opacity="0.996078431372549" d="M 49.5 101 L 56.5 102 L 63 107.5 L 66 112.5 L 66 123.5 L 61.5 130 Q 57.1 135.6 45.5 134 L 38 129.5 Q 32.2 124.8 34 112.5 L 39.5 105 L 43 104 Q 41.6 100 48.5 102 L 49.5 101 Z M 46 103 L 41 106 L 35 115 Q 34 122 37 126 Q 40 131 48 133 Q 54 134 58 131 Q 63 127 65 121 L 65 115 L 62 109 L 54 103 L 46 103 Z " /><path fill="rgb(250,184,170)" stroke="rgb(250,184,170)" stroke-width="1" opacity="0.996078431372549" d="M 175.5 126 L 177 126.5 L 170.5 130 L 170 128 L 175.5 126 Z " /><path fill="rgb(250,184,170)" stroke="rgb(250,184,170)" stroke-width="1" opacity="0.996078431372549" d="M 166.5 130 L 169 130.5 L 161.5 133 L 149.5 134 L 147.5 134 L 138.5 134 L 137.5 133 L 136.5 134 L 128.5 134 L 119 141.5 L 119 147.5 L 126 160.5 L 126 168.5 L 125 168.5 L 125 160.5 L 118 148.5 L 118 140.5 L 121 139 L 123.5 135 L 126 135 L 126.5 133 L 132.5 133 Q 133.7 130.8 138.5 132 Q 140.3 134.8 146.5 133 L 147.5 132 L 160.5 132 L 166.5 130 Z " /><path fill="rgb(250,184,170)" stroke="rgb(250,184,170)" stroke-width="1" opacity="0.996078431372549" d="M 24.5 139 L 27 140.5 L 28.5 144 L 31 145.5 L 31 147.5 L 42.5 159 Q 45.8 157.9 45 160.5 L 54.5 167 L 59 168 L 58.5 170 L 53 168 Q 54.1 165.3 51.5 166 Q 38.8 158.8 30 147.5 L 24.5 139 Z " /><path fill="rgb(250,184,170)" stroke="rgb(250,184,170)" stroke-width="1" opacity="0.996078431372549" d="M 60.5 170 L 72.5 176 L 77.5 177 L 79.5 179 L 90.5 181 L 92 182.5 L 90.5 183 L 71.5 177 L 61.5 172 L 60.5 170 Z " /><path fill="rgb(250,184,170)" stroke="rgb(250,184,170)" stroke-width="1" opacity="0.996078431372549" d="M 123 170 L 125 170.5 L 116.5 181 L 109.5 184 L 93.5 184 L 93.5 183 L 109.5 183 L 118 178.5 Q 117.3 176.3 119.5 177 Q 123.1 174.9 123 170 Z " /><path fill="rgb(251,209,201)" stroke="rgb(251,209,201)" stroke-width="1" opacity="0.6431372549019608" d="M 81.5 14 L 109.5 15 L 127.5 20 L 151.5 32 L 165 42 L 168.5 47 Q 170.8 46.3 170 48.5 L 174 51 L 187 70.5 L 192 83.5 Q 194.7 91.8 193 104.5 Q 188.5 120.5 176.5 129 Q 169.3 134.3 156.5 134 L 156.5 133 Q 177 132 185 118.5 L 189 112.5 L 192 103.5 L 192 88.5 Q 188.4 73.6 181 62.5 L 161.5 41 L 142.5 28 L 132.5 23 L 117.5 18 L 108.5 16 L 100.5 16 L 99.5 15 L 82.5 15 L 66.5 18 L 66.5 17 L 81.5 14 Z " /><path fill="rgb(251,209,201)" stroke="rgb(251,209,201)" stroke-width="1" opacity="0.6431372549019608" d="M 62.5 18 L 65 18.5 Q 40 26 26 44.5 Q 16.4 55.4 12.5 72 L 12 68.5 Q 19.7 45.7 36.5 32 Q 47.5 23 62.5 18 Z " /><path fill="rgb(251,209,201)" stroke="rgb(251,209,201)" stroke-width="1" opacity="0.6431372549019608" d="M 11.5 73 L 12 75.5 L 11 75.5 L 11.5 73 Z " /><path fill="rgb(251,209,201)" stroke="rgb(251,209,201)" stroke-width="1" opacity="0.6431372549019608" d="M 148.5 73 L 157.5 73 L 167 77 L 173 87.5 L 173 98.5 L 170 106 L 166 108.5 Q 166.8 110.8 164.5 110 Q 159.3 114.4 148.5 113 Q 140.2 110.9 136 104.5 L 133 96.5 L 133 89.5 Q 134.8 80.3 141.5 76 L 148.5 73 Z M 151 74 L 144 76 L 136 84 L 135 88 Q 133 99 137 105 Q 141 110 150 112 L 161 111 L 167 107 L 172 99 Q 174 88 170 83 Q 165 73 151 74 Z " /><path fill="rgb(251,209,201)" stroke="rgb(251,209,201)" stroke-width="1" opacity="0.6431372549019608" d="M 10.5 78 L 11 81.5 L 10 82.5 L 10 101.5 Q 12.3 102.8 11 107.5 L 10 107.5 L 9 105.5 L 9 80.5 L 10.5 78 Z " /><path fill="rgb(251,209,201)" stroke="rgb(251,209,201)" stroke-width="1" opacity="0.6431372549019608" d="M 11.5 109 L 12 112.5 L 11 112.5 L 11.5 109 Z " /><path fill="rgb(251,209,201)" stroke="rgb(251,209,201)" stroke-width="1" opacity="0.6431372549019608" d="M 12.5 114 L 19 131.5 L 31 150 L 34 151.5 L 36.5 155 L 39 156.5 L 40.5 159 L 62 172.5 L 60.5 173 L 46.5 165 L 29 148.5 L 16 128.5 L 16 125.5 L 12 117.5 L 12.5 114 Z " /><path fill="rgb(251,209,201)" stroke="rgb(251,209,201)" stroke-width="1" opacity="0.6431372549019608" d="M 129.5 134 L 135 134.5 L 125.5 137 L 120 142.5 L 119.5 146 L 119 142.5 L 124.5 136 L 129.5 134 Z " /><path fill="rgb(251,209,201)" stroke="rgb(251,209,201)" stroke-width="1" opacity="0.6431372549019608" d="M 137.5 134 L 149 134.5 Q 146.3 137.3 139.5 136 L 137.5 134 Z " /><path fill="rgb(251,209,201)" stroke="rgb(251,209,201)" stroke-width="1" opacity="0.6431372549019608" d="M 120.5 147 L 127 159.5 L 127 170.5 L 117.5 182 L 111.5 185 L 91.5 185 L 74.5 180 L 63 173.5 L 64.5 173 L 75.5 179 L 92.5 184 L 109.5 184 Q 118.8 182.3 123 175.5 Q 127.5 171 126 160.5 L 120 149.5 L 120.5 147 Z " /><path fill="rgb(247,16,141)" stroke="rgb(247,16,141)" stroke-width="1" opacity="1" d="M 47.5 57 Q 59.3 56.7 63 64.5 Q 66 67.5 65 74.5 Q 63.2 81.7 57.5 85 L 45.5 86 L 38 80.5 Q 34.2 77.3 35 69.5 Q 36.8 62.3 42.5 59 L 47.5 57 Z " /><path fill="rgb(251,184,171)" stroke="rgb(251,184,171)" stroke-width="1" opacity="1" d="M 99.5 15 L 99.5 17 L 108.5 17 L 110.5 19 L 115.5 19 L 127.5 23 L 129.5 22 L 129.5 23 L 128 23.5 L 133.5 25 L 135 24.5 L 134.5 26 L 144.5 31 L 146 30.5 Q 143.8 31.7 146.5 33 L 152 35.5 Q 151.2 38.1 154.5 37 L 160 40.5 L 158 40.5 Q 157.2 43.1 160.5 42 L 165 44.5 Q 162.3 46.3 166.5 48 Q 167.8 45.7 169 48.5 L 168 49.5 L 171.5 53 Q 172.8 50.8 174 53.5 L 174 55.5 L 175.5 58 L 177 57.5 L 176 58.5 L 179 61.5 L 180 66 L 183 66.5 L 182 68.5 L 185 69.5 L 184 73 L 187 73.5 L 186 76.5 L 187.5 79 L 189 78.5 L 188 82.5 L 189 87.5 L 191 89.5 L 191 104 Q 187.7 102.7 189 107.5 L 187 113.5 Q 189.3 114.8 186.5 116 L 184 115 Q 184.8 118.8 181.5 120 Q 179.3 119.3 180 121.5 Q 175.8 123.7 177.5 126 L 170 128 L 169.5 131 L 166.5 130 L 160.5 132 L 139.5 133 Q 138.3 130.8 133.5 132 L 132.5 133 L 126 133 Q 127.3 136 123.5 135 L 121 139 L 118 140.5 Q 116.3 149.2 120.5 152 L 122 151.5 L 121 153.5 L 123 153.5 L 122 156.5 L 125 160.5 L 125 168.5 L 126 169.5 L 123 170 L 122 174.5 L 123 175.5 L 117.5 181 L 114.5 180 L 109.5 183 L 93.5 183 L 92.5 184 L 90.5 181 L 79.5 179 L 78 179.5 Q 80.3 178.2 77.5 177 L 68.5 174 L 67 174.5 Q 69.3 173.3 66.5 172 L 60.5 170 L 59 170.5 Q 60.1 167.2 57.5 168 L 53.5 166 L 52 166.5 Q 54.3 165.3 51.5 164 L 45 160.5 Q 45.8 157.9 42.5 159 L 39 157.5 Q 41.7 155.8 37.5 154 Q 35.7 156.8 34 152.5 Q 36.8 150.7 32.5 149 L 31 149.5 L 31 147.5 L 29.5 144 L 27 142.5 L 25.5 139 L 23 138.5 L 24 136.5 L 22.5 134 L 21 134.5 L 22 132.5 L 21 130 Q 18 131.3 19 127.5 L 15.5 119 L 14 119.5 L 15 117.5 L 13.5 112 L 12.5 114 L 12 112.5 Q 14.5 111 13 105.5 L 12 104.5 L 12 81.5 L 13 80.5 L 14 69.5 L 13.5 68 L 15 68.5 L 15 65 Q 17.7 66.1 17 63.5 L 20 56.5 L 19.5 55 Q 20.8 57.2 22 54.5 L 21 51.5 L 24 50.5 L 26 47.5 Q 28.8 46.4 28 43 L 33 39.5 Q 32.3 37.3 34.5 38 L 38.5 32 L 38.5 34 L 42 31.5 L 41.5 30 Q 45.3 30.8 46 28.5 L 45.5 27 L 48.5 28 L 51 27 Q 49.8 24 53.5 25 L 60 23 L 60.5 20 L 62.5 21 L 73 19 L 73.5 17 L 81.5 17 L 82.5 16 L 98.5 16 L 99.5 15 Z M 85 30 L 80 33 Q 75 37 73 44 L 73 49 L 76 55 L 85 61 Q 95 63 100 58 Q 104 55 105 49 L 104 39 L 101 35 L 94 30 L 85 30 Z M 46 56 L 37 61 Q 37 66 34 69 Q 33 77 37 82 L 40 83 L 41 86 L 50 88 L 59 86 L 60 85 Q 59 82 62 83 L 66 74 L 64 64 L 55 56 L 46 56 Z M 149 71 L 149 73 L 143 74 L 143 76 L 141 75 L 139 78 L 135 81 L 136 83 L 134 83 L 135 86 L 132 87 L 132 101 L 135 101 L 134 103 L 135 106 L 137 105 L 140 109 Q 138 110 141 111 L 143 110 L 142 112 L 149 114 L 151 113 L 156 114 L 150 115 L 159 115 L 158 113 L 160 113 L 167 111 L 166 109 L 168 109 L 171 106 L 170 105 L 173 104 L 172 100 L 174 100 L 174 87 L 172 87 L 173 83 Q 172 80 171 82 L 167 79 L 168 78 Q 167 75 166 77 L 166 76 Q 164 72 159 73 L 157 71 L 149 71 Z M 50 101 L 49 102 Q 42 100 43 104 L 40 105 L 34 113 Q 32 125 38 130 L 46 134 Q 57 136 62 130 L 66 124 L 66 113 L 63 108 L 57 102 L 50 101 Z M 137 106 Q 135 109 138 108 L 137 106 Z M 84 131 L 76 135 L 71 143 Q 69 152 73 157 Q 76 162 84 163 L 94 162 Q 100 158 102 151 L 102 144 L 98 137 Q 94 131 84 131 Z M 118 177 L 118 179 L 120 178 L 118 177 Z " /><path fill="rgb(251,184,171)" stroke="rgb(251,184,171)" stroke-width="1" opacity="1" d="M 111.5 17 L 114 17.5 L 111.5 18 L 111.5 17 Z " /><path fill="rgb(251,184,171)" stroke="rgb(251,184,171)" stroke-width="1" opacity="1" d="M 10.5 82 L 11 101.5 L 10 101.5 L 10.5 82 Z " /><path fill="rgb(251,184,171)" stroke="rgb(251,184,171)" stroke-width="1" opacity="1" d="M 11.5 106 L 12 108.5 L 11 108.5 L 11.5 106 Z " /><path fill="rgb(0,0,0)" stroke="rgb(0,0,0)" stroke-width="1" opacity="0" d="M 0 0 L 200 0 L 200 200 L 0 200 L 0 0 Z M 81 13 L 80 14 L 72 14 L 70 16 L 60 18 Q 57 17 58 20 L 52 21 L 36 31 L 23 45 Q 24 47 21 46 L 12 64 L 10 72 L 10 78 L 8 80 L 8 107 L 10 109 L 11 119 Q 15 122 15 130 L 21 139 Q 20 142 23 141 L 28 150 L 48 167 Q 51 166 50 169 L 73 180 Q 77 179 76 182 L 84 184 L 89 184 L 91 186 L 113 186 L 113 184 L 120 183 L 121 181 L 124 179 L 128 172 L 128 159 L 121 147 L 121 144 L 127 138 Q 130 139 129 136 L 136 135 L 140 137 Q 148 139 151 135 L 164 135 L 178 130 L 179 127 L 187 121 Q 186 117 189 118 L 194 106 L 194 87 L 191 81 L 189 72 L 185 67 Q 186 63 183 64 Q 183 57 177 55 Q 178 51 176 52 L 174 50 L 171 47 L 169 45 L 167 43 L 165 41 L 146 27 L 126 18 L 113 16 L 111 14 L 81 13 Z " /><path fill="rgb(0,0,0)" stroke="rgb(0,0,0)" stroke-width="1" opacity="0" d="M 152 74 L 159.5 76 L 166 80.5 Q 165.3 82.8 167.5 82 Q 172.4 86.1 171 96.5 L 168 104 L 164 106.5 Q 164.8 108.8 162.5 108 L 159.5 110 L 150.5 111 Q 142 109.5 138 103.5 L 135 97.5 L 135 89.5 L 140.5 81 Q 142.8 81.8 142 79.5 Q 144.7 75 152 76 L 152 74 Z " /><path fill="rgb(9,208,108)" stroke="rgb(9,208,108)" stroke-width="1" opacity="1" d="M 46.5 103 L 53.5 103 L 61 107 L 65 115.5 L 65 120.5 L 58.5 130 L 55.5 132 L 49.5 133 L 44.5 132 L 38 126.5 Q 34.2 123.3 35 115.5 L 39 107 L 46.5 103 Z " /><path fill="rgb(218,209,207)" stroke="rgb(218,209,207)" stroke-width="1" opacity="0.13333333333333333" d="M 80.5 13 L 100.5 13 L 101.5 14 L 110.5 14 L 112 15.5 L 110.5 16 L 99.5 14 L 81.5 14 L 70.5 16 L 71.5 14 L 79.5 14 L 80.5 13 Z " /><path fill="rgb(218,209,207)" stroke="rgb(218,209,207)" stroke-width="1" opacity="0.13333333333333333" d="M 65.5 16 L 69 16.5 L 58.5 20 L 58 18 L 65.5 16 Z " /><path fill="rgb(218,209,207)" stroke="rgb(218,209,207)" stroke-width="1" opacity="0.13333333333333333" d="M 116.5 16 L 133.5 21 L 145.5 27 L 165 40.5 L 166.5 43 L 169 44.5 L 170.5 47 L 174 49.5 L 175.5 52 Q 178.1 51.2 177 54.5 Q 181.8 56.7 183 62.5 L 181 61.5 L 174 51 L 170 48.5 Q 170.8 46.3 168.5 47 L 165 42 L 144.5 28 L 127.5 20 L 118.5 18 L 116.5 16 Z " /><path fill="rgb(218,209,207)" stroke="rgb(218,209,207)" stroke-width="1" opacity="0.13333333333333333" d="M 54.5 20 L 56 20.5 L 41.5 28 L 26 42.5 L 13 64.5 L 11 77.5 L 9 80.5 L 9 105.5 L 11 108.5 L 12 117.5 L 14 121.5 L 12 120.5 L 10 113.5 L 10 108.5 L 8 106.5 L 8 79.5 L 10 77.5 L 10 71.5 L 12 63.5 L 21 46 Q 23.7 47.1 23 44.5 L 35.5 31 L 43.5 25 L 54.5 20 Z " /><path fill="rgb(218,209,207)" stroke="rgb(218,209,207)" stroke-width="1" opacity="0.13333333333333333" d="M 183.5 64 Q 186.1 63.2 185 66.5 L 189 71.5 L 191 80.5 L 194 86.5 L 194 105.5 L 188.5 118 Q 185.9 117.2 187 120.5 L 179 127 L 177.5 130 L 163.5 135 L 150.5 135 Q 147.6 138.6 139.5 137 L 135.5 135 L 133.5 136 L 133.5 135 L 136.5 134 Q 139.1 137.4 146.5 136 L 149.5 134 L 162.5 134 L 170.5 132 Q 180.6 128.1 186 119.5 L 193 104.5 L 193 87.5 L 188 75.5 L 188 72.5 Q 183.3 69.3 183.5 64 Z " /><path fill="rgb(218,209,207)" stroke="rgb(218,209,207)" stroke-width="1" opacity="0.13333333333333333" d="M 150.5 74 Q 153.1 73.3 152 76 Q 144.7 75 142 79.5 Q 142.8 81.8 140.5 81 L 135.5 89 L 135 87.5 L 136 83.5 L 143.5 76 L 150.5 74 Z " /><path fill="rgb(218,209,207)" stroke="rgb(218,209,207)" stroke-width="1" opacity="0.13333333333333333" d="M 155.5 74 Q 165.6 75.4 170 82.5 Q 173.6 87.9 172 98.5 L 167 107 L 160.5 111 L 149.5 112 Q 141.2 110.3 137 104.5 L 135 98.5 L 137 99.5 Q 137.7 105.9 142.5 108 L 150.5 111 L 155.5 111 L 164 108 L 166.5 104 Q 168.8 104.8 168 102.5 Q 172.3 98.3 171 88.5 L 170 84.5 L 167.5 82 Q 165.3 82.8 166 80.5 L 159.5 76 L 156.5 76 L 155.5 74 Z " /><path fill="rgb(218,209,207)" stroke="rgb(218,209,207)" stroke-width="1" opacity="0.13333333333333333" d="M 14.5 123 Q 23.2 146.8 41.5 161 L 58.5 172 L 74 179.5 L 72.5 180 L 50 168.5 Q 50.8 165.9 47.5 167 L 28 149.5 L 23 141 Q 20 142.3 21 138.5 L 15 129.5 L 14.5 123 Z " /><path fill="rgb(218,209,207)" stroke="rgb(218,209,207)" stroke-width="1" opacity="0.13333333333333333" d="M 127.5 136 Q 130.1 135.3 129 138 L 126.5 138 L 121 143.5 L 121 146.5 L 128 158.5 L 128 171.5 L 123.5 179 L 121 180.5 L 119.5 183 L 115.5 184 L 116.5 182 L 124 175.5 Q 129.1 171.1 127 159.5 L 120 146.5 L 120 142.5 L 127.5 136 Z " /><path fill="rgb(218,209,207)" stroke="rgb(218,209,207)" stroke-width="1" opacity="0.13333333333333333" d="M 76.5 180 L 87 183.5 L 83.5 184 L 76 182 L 76.5 180 Z " /><path fill="rgb(218,209,207)" stroke="rgb(218,209,207)" stroke-width="1" opacity="0.13333333333333333" d="M 89.5 184 L 91.5 185 L 111.5 185 L 113 184.5 L 112.5 186 L 90.5 186 L 89.5 184 Z " /><path fill="rgb(65,96,253)" stroke="rgb(65,96,253)" stroke-width="1" opacity="1" d="M 82.5 133 L 89.5 133 L 97 137 L 100 143.5 L 100 151.5 L 93.5 160 L 81.5 161 L 74 155.5 Q 71.1 151.9 72 144.5 L 75 137 L 82.5 133 Z " /></svg>