<svg width="200" height="200" version="1.1" xmlns="http://www.w3.org/2000/svg" desc="Created with imagetracer.js version 1.2.6" ><path fill="rgb(169,193,204)" stroke="rgb(169,193,204)" stroke-width="1" opacity="0.9882352941176471" d="M 153.5 26 L 178 26.5 L 153.5 27 L 153.5 26 Z " /><path fill="rgb(169,193,204)" stroke="rgb(169,193,204)" stroke-width="1" opacity="0.9882352941176471" d="M 14.5 27 L 12.5 30 L 14.5 27 Z " /><path fill="rgb(169,193,204)" stroke="rgb(169,193,204)" stroke-width="1" opacity="0.9882352941176471" d="M 193.5 28 L 198 34.5 L 197 34.5 L 193.5 28 Z " /><path fill="rgb(169,193,204)" stroke="rgb(169,193,204)" stroke-width="1" opacity="0.9882352941176471" d="M 18.5 30 L 177 30.5 L 18.5 31 L 18.5 30 Z " /><path fill="rgb(169,193,204)" stroke="rgb(169,193,204)" stroke-width="1" opacity="0.9882352941176471" d="M 16.5 31 L 15 33.5 L 14.5 36 L 14 33.5 L 16.5 31 Z " /><path fill="rgb(169,193,204)" stroke="rgb(169,193,204)" stroke-width="1" opacity="0.9882352941176471" d="M 192.5 33 L 194 36.5 L 193 36.5 L 192.5 33 Z " /><path fill="rgb(169,193,204)" stroke="rgb(169,193,204)" stroke-width="1" opacity="0.9882352941176471" d="M 193.5 38 L 194 63.5 L 193 63.5 L 193.5 38 Z " /><path fill="rgb(169,193,204)" stroke="rgb(169,193,204)" stroke-width="1" opacity="0.9882352941176471" d="M 14.5 40 L 15.5 48 L 18.5 46 L 17.5 48 L 14 49 L 14.5 40 Z " /><path fill="rgb(169,193,204)" stroke="rgb(169,193,204)" stroke-width="1" opacity="0.9882352941176471" d="M 30.5 42 L 38 42.5 L 30.5 43 L 30.5 42 Z " /><path fill="rgb(169,193,204)" stroke="rgb(169,193,204)" stroke-width="1" opacity="0.9882352941176471" d="M 25.5 43 L 28 43.5 L 25.5 44 L 25.5 43 Z " /><path fill="rgb(169,193,204)" stroke="rgb(169,193,204)" stroke-width="1" opacity="0.9882352941176471" d="M 158.5 43 L 161 43.5 L 158.5 44 L 158.5 43 Z " /><path fill="rgb(169,193,204)" stroke="rgb(169,193,204)" stroke-width="1" opacity="0.9882352941176471" d="M 166.5 43 L 169 43.5 L 166.5 44 L 166.5 43 Z " /><path fill="rgb(169,193,204)" stroke="rgb(169,193,204)" stroke-width="1" opacity="0.9882352941176471" d="M 153.5 45 L 152.5 47 L 146 52.5 L 144.5 56 L 144 54.5 L 151.5 46 L 153.5 45 Z " /><path fill="rgb(169,193,204)" stroke="rgb(169,193,204)" stroke-width="1" opacity="0.9882352941176471" d="M 173.5 45 L 174.5 47 L 173.5 45 Z " /><path fill="rgb(169,193,204)" stroke="rgb(169,193,204)" stroke-width="1" opacity="0.9882352941176471" d="M 28.5 46 L 31 46.5 L 28.5 47 L 28.5 46 Z " /><path fill="rgb(169,193,204)" stroke="rgb(169,193,204)" stroke-width="1" opacity="0.9882352941176471" d="M 38.5 46 L 41 46.5 L 38.5 47 L 38.5 46 Z " /><path fill="rgb(169,193,204)" stroke="rgb(169,193,204)" stroke-width="1" opacity="0.9882352941176471" d="M 176.5 47 L 180.5 52 L 176.5 47 Z " /><path fill="rgb(169,193,204)" stroke="rgb(169,193,204)" stroke-width="1" opacity="0.9882352941176471" d="M 53.5 48 L 61.5 57 L 53.5 48 Z " /><path fill="rgb(169,193,204)" stroke="rgb(169,193,204)" stroke-width="1" opacity="0.9882352941176471" d="M 48.5 49 L 49.5 51 L 48.5 49 Z " /><path fill="rgb(169,193,204)" stroke="rgb(169,193,204)" stroke-width="1" opacity="0.9882352941176471" d="M 18.5 50 L 17.5 52 L 18.5 50 Z " /><path fill="rgb(169,193,204)" stroke="rgb(169,193,204)" stroke-width="1" opacity="0.9882352941176471" d="M 51.5 51 L 52.5 53 L 51.5 51 Z " /><path fill="rgb(169,193,204)" stroke="rgb(169,193,204)" stroke-width="1" opacity="0.9882352941176471" d="M 14.5 54 L 15 70.5 L 14 70.5 L 14.5 54 Z " /><path fill="rgb(169,193,204)" stroke="rgb(169,193,204)" stroke-width="1" opacity="0.9882352941176471" d="M 57.5 57 L 58.5 59 L 57.5 57 Z " /><path fill="rgb(169,193,204)" stroke="rgb(169,193,204)" stroke-width="1" opacity="0.9882352941176471" d="M 183.5 57 L 184 59.5 L 183 59.5 L 183.5 57 Z " /><path fill="rgb(169,193,204)" stroke="rgb(169,193,204)" stroke-width="1" opacity="0.9882352941176471" d="M 62.5 58 L 66 64.5 L 65 64.5 L 62.5 58 Z " /><path fill="rgb(169,193,204)" stroke="rgb(169,193,204)" stroke-width="1" opacity="0.9882352941176471" d="M 10.5 59 L 11 61.5 L 10 61.5 L 10.5 59 Z " /><path fill="rgb(169,193,204)" stroke="rgb(169,193,204)" stroke-width="1" opacity="0.9882352941176471" d="M 142.5 60 L 143 66.5 L 142 66.5 L 142.5 60 Z " /><path fill="rgb(169,193,204)" stroke="rgb(169,193,204)" stroke-width="1" opacity="0.9882352941176471" d="M 106.5 65 L 109 65.5 L 106.5 66 L 106.5 65 Z " /><path fill="rgb(169,193,204)" stroke="rgb(169,193,204)" stroke-width="1" opacity="0.9882352941176471" d="M 116.5 65 L 119 65.5 L 116.5 66 L 116.5 65 Z " /><path fill="rgb(169,193,204)" stroke="rgb(169,193,204)" stroke-width="1" opacity="0.9882352941176471" d="M 66.5 66 L 67 68.5 L 66 68.5 L 66.5 66 Z " /><path fill="rgb(169,193,204)" stroke="rgb(169,193,204)" stroke-width="1" opacity="0.9882352941176471" d="M 103.5 66 L 105 66.5 Q 97 69 93 75.5 L 90.5 81 L 90 79.5 Q 93 72 99.5 68 L 103.5 66 Z " /><path fill="rgb(169,193,204)" stroke="rgb(169,193,204)" stroke-width="1" opacity="0.9882352941176471" d="M 183.5 67 L 184 69.5 L 183 69.5 L 183.5 67 Z " /><path fill="rgb(169,193,204)" stroke="rgb(169,193,204)" stroke-width="1" opacity="0.9882352941176471" d="M 109.5 68 L 117 68.5 L 109.5 69 L 109.5 68 Z " /><path fill="rgb(169,193,204)" stroke="rgb(169,193,204)" stroke-width="1" opacity="0.9882352941176471" d="M 125.5 68 L 126.5 70 L 125.5 68 Z " /><path fill="rgb(169,193,204)" stroke="rgb(169,193,204)" stroke-width="1" opacity="0.9882352941176471" d="M 67.5 70 L 68 80 L 71 80.5 L 68.5 81 L 67 79.5 L 67.5 70 Z " /><path fill="rgb(169,193,204)" stroke="rgb(169,193,204)" stroke-width="1" opacity="0.9882352941176471" d="M 101.5 71 L 99.5 74 L 101.5 71 Z " /><path fill="rgb(169,193,204)" stroke="rgb(169,193,204)" stroke-width="1" opacity="0.9882352941176471" d="M 126.5 73 L 127.5 75 L 126.5 73 Z " /><path fill="rgb(169,193,204)" stroke="rgb(169,193,204)" stroke-width="1" opacity="0.9882352941176471" d="M 131.5 74 L 132.5 76 L 131.5 74 Z " /><path fill="rgb(169,193,204)" stroke="rgb(169,193,204)" stroke-width="1" opacity="0.9882352941176471" d="M 145.5 74 L 146.5 76 L 145.5 74 Z " /><path fill="rgb(169,193,204)" stroke="rgb(169,193,204)" stroke-width="1" opacity="0.9882352941176471" d="M 97.5 75 L 95.5 78 L 97.5 75 Z " /><path fill="rgb(169,193,204)" stroke="rgb(169,193,204)" stroke-width="1" opacity="0.9882352941176471" d="M 180.5 75 L 175.5 81 L 180.5 75 Z " /><path fill="rgb(169,193,204)" stroke="rgb(169,193,204)" stroke-width="1" opacity="0.9882352941176471" d="M 129.5 77 L 130.5 79 L 129.5 77 Z " /><path fill="rgb(169,193,204)" stroke="rgb(169,193,204)" stroke-width="1" opacity="0.9882352941176471" d="M 147.5 77 L 149.5 80 L 147.5 77 Z " /><path fill="rgb(169,193,204)" stroke="rgb(169,193,204)" stroke-width="1" opacity="0.9882352941176471" d="M 151.5 80 L 152.5 82 L 151.5 80 Z " /><path fill="rgb(169,193,204)" stroke="rgb(169,193,204)" stroke-width="1" opacity="0.9882352941176471" d="M 63.5 81 L 64 83 L 68 83.5 L 64.5 84 L 63.5 81 Z " /><path fill="rgb(169,193,204)" stroke="rgb(169,193,204)" stroke-width="1" opacity="0.9882352941176471" d="M 89.5 82 L 90 85.5 L 89 85.5 L 89.5 82 Z " /><path fill="rgb(169,193,204)" stroke="rgb(169,193,204)" stroke-width="1" opacity="0.9882352941176471" d="M 192.5 82 L 193 107.5 L 192 107.5 L 192.5 82 Z " /><path fill="rgb(169,193,204)" stroke="rgb(169,193,204)" stroke-width="1" opacity="0.9882352941176471" d="M 76.5 83 L 79.5 87 L 76.5 83 Z " /><path fill="rgb(169,193,204)" stroke="rgb(169,193,204)" stroke-width="1" opacity="0.9882352941176471" d="M 132.5 83 L 133 85.5 L 132 85.5 L 132.5 83 Z " /><path fill="rgb(169,193,204)" stroke="rgb(169,193,204)" stroke-width="1" opacity="0.9882352941176471" d="M 161.5 84 L 166 84.5 L 161.5 85 L 161.5 84 Z " /><path fill="rgb(169,193,204)" stroke="rgb(169,193,204)" stroke-width="1" opacity="0.9882352941176471" d="M 92.5 85 L 93 90.5 L 92 90.5 L 92.5 85 Z " /><path fill="rgb(169,193,204)" stroke="rgb(169,193,204)" stroke-width="1" opacity="0.9882352941176471" d="M 136.5 85 L 137 91.5 L 136 91.5 L 136.5 85 Z " /><path fill="rgb(169,193,204)" stroke="rgb(169,193,204)" stroke-width="1" opacity="0.9882352941176471" d="M 74.5 86 L 77.5 90 L 74.5 86 Z " /><path fill="rgb(169,193,204)" stroke="rgb(169,193,204)" stroke-width="1" opacity="0.9882352941176471" d="M 80.5 88 L 84 90.5 L 82.5 91 L 80.5 88 Z " /><path fill="rgb(169,193,204)" stroke="rgb(169,193,204)" stroke-width="1" opacity="0.9882352941176471" d="M 85.5 89 L 89 89.5 L 85.5 90 L 85.5 89 Z " /><path fill="rgb(169,193,204)" stroke="rgb(169,193,204)" stroke-width="1" opacity="0.9882352941176471" d="M 132.5 91 L 133 93.5 L 132 93.5 L 132.5 91 Z " /><path fill="rgb(169,193,204)" stroke="rgb(169,193,204)" stroke-width="1" opacity="0.9882352941176471" d="M 92.5 92 L 91.5 94 L 90 93.5 L 92.5 92 Z " /><path fill="rgb(169,193,204)" stroke="rgb(169,193,204)" stroke-width="1" opacity="0.9882352941176471" d="M 79.5 93 L 80 95 L 82 95.5 L 80.5 96 L 79.5 93 Z " /><path fill="rgb(169,193,204)" stroke="rgb(169,193,204)" stroke-width="1" opacity="0.9882352941176471" d="M 84.5 93 L 86 93.5 L 83.5 95 L 84.5 93 Z " /><path fill="rgb(169,193,204)" stroke="rgb(169,193,204)" stroke-width="1" opacity="0.9882352941176471" d="M 135.5 93 L 136 95.5 L 135 95.5 L 135.5 93 Z " /><path fill="rgb(169,193,204)" stroke="rgb(169,193,204)" stroke-width="1" opacity="0.9882352941176471" d="M 15.5 98 L 16 118.5 L 15 118.5 L 15.5 98 Z " /><path fill="rgb(169,193,204)" stroke="rgb(169,193,204)" stroke-width="1" opacity="0.9882352941176471" d="M 137.5 101 L 139.5 104 L 137.5 101 Z " /><path fill="rgb(169,193,204)" stroke="rgb(169,193,204)" stroke-width="1" opacity="0.9882352941176471" d="M 147.5 102 L 156 102.5 L 147.5 103 L 147.5 102 Z " /><path fill="rgb(169,193,204)" stroke="rgb(169,193,204)" stroke-width="1" opacity="0.9882352941176471" d="M 144.5 103 L 146 103.5 L 141.5 106 L 142.5 104 L 144.5 103 Z " /><path fill="rgb(169,193,204)" stroke="rgb(169,193,204)" stroke-width="1" opacity="0.9882352941176471" d="M 135.5 104 L 137.5 107 L 135.5 104 Z " /><path fill="rgb(169,193,204)" stroke="rgb(169,193,204)" stroke-width="1" opacity="0.9882352941176471" d="M 160.5 104 L 167 109.5 L 162.5 106 L 160.5 104 Z " /><path fill="rgb(169,193,204)" stroke="rgb(169,193,204)" stroke-width="1" opacity="0.9882352941176471" d="M 11.5 105 L 12 108.5 L 11 108.5 L 11.5 105 Z " /><path fill="rgb(169,193,204)" stroke="rgb(169,193,204)" stroke-width="1" opacity="0.9882352941176471" d="M 78.5 108 L 81 108.5 L 78.5 109 L 78.5 108 Z " /><path fill="rgb(169,193,204)" stroke="rgb(169,193,204)" stroke-width="1" opacity="0.9882352941176471" d="M 85.5 108 L 88 108.5 L 85.5 109 L 85.5 108 Z " /><path fill="rgb(169,193,204)" stroke="rgb(169,193,204)" stroke-width="1" opacity="0.9882352941176471" d="M 142.5 108 L 141.5 110 L 142.5 108 Z " /><path fill="rgb(169,193,204)" stroke="rgb(169,193,204)" stroke-width="1" opacity="0.9882352941176471" d="M 160.5 108 L 164.5 113 L 160.5 108 Z " /><path fill="rgb(169,193,204)" stroke="rgb(169,193,204)" stroke-width="1" opacity="0.9882352941176471" d="M 73.5 110 L 72.5 112 L 73.5 110 Z " /><path fill="rgb(169,193,204)" stroke="rgb(169,193,204)" stroke-width="1" opacity="0.9882352941176471" d="M 92.5 110 L 93.5 112 L 92.5 110 Z " /><path fill="rgb(169,193,204)" stroke="rgb(169,193,204)" stroke-width="1" opacity="0.9882352941176471" d="M 80.5 111 L 86 111.5 L 80.5 112 L 80.5 111 Z " /><path fill="rgb(169,193,204)" stroke="rgb(169,193,204)" stroke-width="1" opacity="0.9882352941176471" d="M 167.5 111 L 168.5 113 L 167.5 111 Z " /><path fill="rgb(169,193,204)" stroke="rgb(169,193,204)" stroke-width="1" opacity="0.9882352941176471" d="M 73.5 114 L 71.5 117 L 73.5 114 Z " /><path fill="rgb(169,193,204)" stroke="rgb(169,193,204)" stroke-width="1" opacity="0.9882352941176471" d="M 92.5 114 L 95.5 118 L 92.5 114 Z " /><path fill="rgb(169,193,204)" stroke="rgb(169,193,204)" stroke-width="1" opacity="0.9882352941176471" d="M 68.5 115 L 67.5 117 L 68.5 115 Z " /><path fill="rgb(169,193,204)" stroke="rgb(169,193,204)" stroke-width="1" opacity="0.9882352941176471" d="M 98.5 116 L 99.5 118 L 98.5 116 Z " /><path fill="rgb(169,193,204)" stroke="rgb(169,193,204)" stroke-width="1" opacity="0.9882352941176471" d="M 70.5 118 L 69.5 120 L 70.5 118 Z " /><path fill="rgb(169,193,204)" stroke="rgb(169,193,204)" stroke-width="1" opacity="0.9882352941176471" d="M 170.5 118 L 171 120.5 L 170 120.5 L 170.5 118 Z " /><path fill="rgb(169,193,204)" stroke="rgb(169,193,204)" stroke-width="1" opacity="0.9882352941176471" d="M 59.5 120 L 62 120.5 L 59.5 121 L 59.5 120 Z " /><path fill="rgb(169,193,204)" stroke="rgb(169,193,204)" stroke-width="1" opacity="0.9882352941176471" d="M 102.5 120 L 107 120.5 L 102.5 121 L 102.5 120 Z " /><path fill="rgb(169,193,204)" stroke="rgb(169,193,204)" stroke-width="1" opacity="0.9882352941176471" d="M 57.5 121 L 54.5 125 L 57.5 121 Z " /><path fill="rgb(169,193,204)" stroke="rgb(169,193,204)" stroke-width="1" opacity="0.9882352941176471" d="M 181.5 121 L 184 121.5 L 178.5 124 L 179.5 122 L 181.5 121 Z " /><path fill="rgb(169,193,204)" stroke="rgb(169,193,204)" stroke-width="1" opacity="0.9882352941176471" d="M 187.5 121 L 190 121.5 L 187.5 122 L 187.5 121 Z " /><path fill="rgb(169,193,204)" stroke="rgb(169,193,204)" stroke-width="1" opacity="0.9882352941176471" d="M 175.5 122 L 176.5 124 L 175.5 122 Z " /><path fill="rgb(169,193,204)" stroke="rgb(169,193,204)" stroke-width="1" opacity="0.9882352941176471" d="M 61.5 123 L 65 123.5 L 61.5 124 L 61.5 123 Z " /><path fill="rgb(169,193,204)" stroke="rgb(169,193,204)" stroke-width="1" opacity="0.9882352941176471" d="M 142.5 123 L 138.5 128 L 142.5 123 Z " /><path fill="rgb(169,193,204)" stroke="rgb(169,193,204)" stroke-width="1" opacity="0.9882352941176471" d="M 148.5 124 L 155 124.5 L 148.5 125 L 148.5 124 Z " /><path fill="rgb(169,193,204)" stroke="rgb(169,193,204)" stroke-width="1" opacity="0.9882352941176471" d="M 161.5 124 L 163.5 127 L 161.5 124 Z " /><path fill="rgb(169,193,204)" stroke="rgb(169,193,204)" stroke-width="1" opacity="0.9882352941176471" d="M 168.5 124 L 172 124.5 L 168.5 125 L 168.5 124 Z " /><path fill="rgb(169,193,204)" stroke="rgb(169,193,204)" stroke-width="1" opacity="0.9882352941176471" d="M 184.5 124 L 188 124.5 L 184.5 125 L 184.5 124 Z " /><path fill="rgb(169,193,204)" stroke="rgb(169,193,204)" stroke-width="1" opacity="0.9882352941176471" d="M 145.5 125 L 144.5 127 L 145.5 125 Z " /><path fill="rgb(169,193,204)" stroke="rgb(169,193,204)" stroke-width="1" opacity="0.9882352941176471" d="M 173.5 125 L 177.5 128 L 180 126.5 L 176.5 129 L 173.5 125 Z " /><path fill="rgb(169,193,204)" stroke="rgb(169,193,204)" stroke-width="1" opacity="0.9882352941176471" d="M 50.5 126 L 54 126.5 L 50.5 127 L 50.5 126 Z " /><path fill="rgb(169,193,204)" stroke="rgb(169,193,204)" stroke-width="1" opacity="0.9882352941176471" d="M 158.5 126 L 161.5 130 L 158.5 126 Z " /><path fill="rgb(169,193,204)" stroke="rgb(169,193,204)" stroke-width="1" opacity="0.9882352941176471" d="M 38.5 128 L 34.5 133 L 38.5 128 Z " /><path fill="rgb(169,193,204)" stroke="rgb(169,193,204)" stroke-width="1" opacity="0.9882352941176471" d="M 117.5 128 L 116.5 130 L 117.5 128 Z " /><path fill="rgb(169,193,204)" stroke="rgb(169,193,204)" stroke-width="1" opacity="0.9882352941176471" d="M 126.5 128 L 128.5 131 L 126.5 128 Z " /><path fill="rgb(169,193,204)" stroke="rgb(169,193,204)" stroke-width="1" opacity="0.9882352941176471" d="M 164.5 128 L 165.5 130 L 164.5 128 Z " /><path fill="rgb(169,193,204)" stroke="rgb(169,193,204)" stroke-width="1" opacity="0.9882352941176471" d="M 44.5 129 L 51 129.5 L 44.5 130 L 44.5 129 Z " /><path fill="rgb(169,193,204)" stroke="rgb(169,193,204)" stroke-width="1" opacity="0.9882352941176471" d="M 55.5 129 L 54.5 131 L 53 130.5 L 55.5 129 Z " /><path fill="rgb(169,193,204)" stroke="rgb(169,193,204)" stroke-width="1" opacity="0.9882352941176471" d="M 137.5 129 L 136.5 131 L 135 130.5 L 137.5 129 Z " /><path fill="rgb(169,193,204)" stroke="rgb(169,193,204)" stroke-width="1" opacity="0.9882352941176471" d="M 141.5 129 L 140.5 131 L 141.5 129 Z " /><path fill="rgb(169,193,204)" stroke="rgb(169,193,204)" stroke-width="1" opacity="0.9882352941176471" d="M 40.5 131 L 39.5 133 L 40.5 131 Z " /><path fill="rgb(169,193,204)" stroke="rgb(169,193,204)" stroke-width="1" opacity="0.9882352941176471" d="M 129.5 132 L 132 133.5 L 130.5 134 L 129.5 132 Z " /><path fill="rgb(169,193,204)" stroke="rgb(169,193,204)" stroke-width="1" opacity="0.9882352941176471" d="M 139.5 132 L 140 133.5 L 138 134.5 L 139.5 132 Z " /><path fill="rgb(169,193,204)" stroke="rgb(169,193,204)" stroke-width="1" opacity="0.9882352941176471" d="M 37.5 134 L 36.5 136 L 37.5 134 Z " /><path fill="rgb(169,193,204)" stroke="rgb(169,193,204)" stroke-width="1" opacity="0.9882352941176471" d="M 163.5 134 L 164 139 L 168 139.5 L 164.5 140 Q 161.6 138.6 163.5 134 Z " /><path fill="rgb(169,193,204)" stroke="rgb(169,193,204)" stroke-width="1" opacity="0.9882352941176471" d="M 191.5 135 L 192 141.5 L 191 141.5 L 191.5 135 Z " /><path fill="rgb(169,193,204)" stroke="rgb(169,193,204)" stroke-width="1" opacity="0.9882352941176471" d="M 171.5 137 L 174.5 141 L 171.5 137 Z " /><path fill="rgb(169,193,204)" stroke="rgb(169,193,204)" stroke-width="1" opacity="0.9882352941176471" d="M 31.5 138 L 32 141.5 L 31 141.5 L 31.5 138 Z " /><path fill="rgb(169,193,204)" stroke="rgb(169,193,204)" stroke-width="1" opacity="0.9882352941176471" d="M 12.5 140 L 17.5 146 L 19 146.5 L 17.5 147 Q 12.6 144.3 12.5 140 Z " /><path fill="rgb(169,193,204)" stroke="rgb(169,193,204)" stroke-width="1" opacity="0.9882352941176471" d="M 34.5 140 L 35 143.5 L 34 143.5 L 34.5 140 Z " /><path fill="rgb(169,193,204)" stroke="rgb(169,193,204)" stroke-width="1" opacity="0.9882352941176471" d="M 17.5 141 L 18.5 143 L 17.5 141 Z " /><path fill="rgb(169,193,204)" stroke="rgb(169,193,204)" stroke-width="1" opacity="0.9882352941176471" d="M 172.5 143 L 173 146 L 156 145.5 L 172 145 L 172.5 143 Z " /><path fill="rgb(169,193,204)" stroke="rgb(169,193,204)" stroke-width="1" opacity="0.9882352941176471" d="M 194.5 143 L 195 144.5 L 189.5 149 L 189.5 148 L 194 144.5 L 194.5 143 Z " /><path fill="rgb(169,193,204)" stroke="rgb(169,193,204)" stroke-width="1" opacity="0.9882352941176471" d="M 66.5 144 L 112 144.5 L 66.5 145 L 66.5 144 Z " /><path fill="rgb(169,193,204)" stroke="rgb(169,193,204)" stroke-width="1" opacity="0.9882352941176471" d="M 176.5 145 L 188 145.5 L 176.5 146 L 176.5 145 Z " /><path fill="rgb(169,193,204)" stroke="rgb(169,193,204)" stroke-width="1" opacity="0.9882352941176471" d="M 91.5 148 L 96 148.5 L 91.5 149 L 91.5 148 Z " /><path fill="rgb(169,193,204)" stroke="rgb(169,193,204)" stroke-width="1" opacity="0.9882352941176471" d="M 180.5 149 L 185 149.5 L 180.5 150 L 180.5 149 Z " /><path fill="rgb(184,227,248)" stroke="rgb(184,227,248)" stroke-width="1" opacity="1" d="M 17.5 31 L 19 31.5 L 16 33.5 L 15.5 35 L 15 33.5 L 17.5 31 Z " /><path fill="rgb(184,227,248)" stroke="rgb(184,227,248)" stroke-width="1" opacity="1" d="M 176.5 31 L 190 31.5 L 176.5 32 L 176.5 31 Z " /><path fill="rgb(184,227,248)" stroke="rgb(184,227,248)" stroke-width="1" opacity="1" d="M 14.5 36 L 15 39.5 L 14 39.5 L 14.5 36 Z " /><path fill="rgb(184,227,248)" stroke="rgb(184,227,248)" stroke-width="1" opacity="1" d="M 26.5 42 L 30 42.5 L 26.5 43 L 26.5 42 Z " /><path fill="rgb(184,227,248)" stroke="rgb(184,227,248)" stroke-width="1" opacity="1" d="M 38.5 42 L 41 42.5 L 38.5 43 L 38.5 42 Z " /><path fill="rgb(184,227,248)" stroke="rgb(184,227,248)" stroke-width="1" opacity="1" d="M 159.5 42 L 168 42.5 L 159.5 43 L 159.5 42 Z " /><path fill="rgb(184,227,248)" stroke="rgb(184,227,248)" stroke-width="1" opacity="1" d="M 155.5 43 L 158 43.5 Q 149.4 45.4 145.5 52 L 148 48.5 Q 147.3 46.3 149.5 47 L 155.5 43 Z " /><path fill="rgb(184,227,248)" stroke="rgb(184,227,248)" stroke-width="1" opacity="1" d="M 20.5 44 L 22 44.5 L 15.5 48 L 16.5 46 L 20.5 44 Z " /><path fill="rgb(184,227,248)" stroke="rgb(184,227,248)" stroke-width="1" opacity="1" d="M 46.5 44 L 53 47.5 L 51.5 47 L 46.5 45 L 46.5 44 Z " /><path fill="rgb(184,227,248)" stroke="rgb(184,227,248)" stroke-width="1" opacity="1" d="M 174.5 45 L 181 50.5 L 176.5 47 L 174.5 45 Z " /><path fill="rgb(184,227,248)" stroke="rgb(184,227,248)" stroke-width="1" opacity="1" d="M 54.5 48 L 61.5 56 L 54.5 48 Z " /><path fill="rgb(184,227,248)" stroke="rgb(184,227,248)" stroke-width="1" opacity="1" d="M 181.5 52 L 183 54.5 L 182 54.5 L 181.5 52 Z " /><path fill="rgb(184,227,248)" stroke="rgb(184,227,248)" stroke-width="1" opacity="1" d="M 143.5 55 L 144 56.5 L 142.5 60 L 142 57.5 L 143.5 55 Z " /><path fill="rgb(184,227,248)" stroke="rgb(184,227,248)" stroke-width="1" opacity="1" d="M 62.5 57 L 63.5 59 L 62.5 57 Z " /><path fill="rgb(184,227,248)" stroke="rgb(184,227,248)" stroke-width="1" opacity="1" d="M 184.5 58 L 185 68.5 L 184 68.5 L 184.5 58 Z " /><path fill="rgb(184,227,248)" stroke="rgb(184,227,248)" stroke-width="1" opacity="1" d="M 64.5 60 L 66 62.5 L 65 62.5 L 64.5 60 Z " /><path fill="rgb(184,227,248)" stroke="rgb(184,227,248)" stroke-width="1" opacity="1" d="M 192.5 63 L 193 81.5 L 192 81.5 L 192.5 63 Z " /><path fill="rgb(184,227,248)" stroke="rgb(184,227,248)" stroke-width="1" opacity="1" d="M 108.5 64 L 117 64.5 L 108.5 65 L 108.5 64 Z " /><path fill="rgb(184,227,248)" stroke="rgb(184,227,248)" stroke-width="1" opacity="1" d="M 101.5 66 L 103 66.5 Q 95.8 68.8 92.5 75 L 94 72.5 L 95.5 70 L 101.5 66 Z " /><path fill="rgb(184,227,248)" stroke="rgb(184,227,248)" stroke-width="1" opacity="1" d="M 122.5 66 L 125 67.5 L 123.5 67 L 122.5 66 Z " /><path fill="rgb(184,227,248)" stroke="rgb(184,227,248)" stroke-width="1" opacity="1" d="M 67.5 67 L 68 69.5 L 67 69.5 L 67.5 67 Z " /><path fill="rgb(184,227,248)" stroke="rgb(184,227,248)" stroke-width="1" opacity="1" d="M 142.5 67 Q 143.9 75.1 149 79.5 L 146 77.5 L 142 70.5 L 142.5 67 Z " /><path fill="rgb(184,227,248)" stroke="rgb(184,227,248)" stroke-width="1" opacity="1" d="M 126.5 68 L 128.5 71 L 126.5 68 Z " /><path fill="rgb(184,227,248)" stroke="rgb(184,227,248)" stroke-width="1" opacity="1" d="M 183.5 70 L 184 71.5 L 175.5 82 L 170.5 84 L 170.5 83 Q 177.7 81.2 181 75.5 L 183.5 70 Z " /><path fill="rgb(184,227,248)" stroke="rgb(184,227,248)" stroke-width="1" opacity="1" d="M 130.5 72 Q 134.8 74.8 136 80.5 L 135 80.5 L 130.5 72 Z " /><path fill="rgb(184,227,248)" stroke="rgb(184,227,248)" stroke-width="1" opacity="1" d="M 91.5 76 L 91 77.5 L 90.5 79 L 90 77.5 L 91.5 76 Z " /><path fill="rgb(184,227,248)" stroke="rgb(184,227,248)" stroke-width="1" opacity="1" d="M 150.5 80 L 151.5 82 L 150.5 80 Z " /><path fill="rgb(184,227,248)" stroke="rgb(184,227,248)" stroke-width="1" opacity="1" d="M 73.5 81 L 76 82.5 L 74.5 82 L 73.5 81 Z " /><path fill="rgb(184,227,248)" stroke="rgb(184,227,248)" stroke-width="1" opacity="1" d="M 136.5 82 L 137 84.5 L 136 84.5 L 136.5 82 Z " /><path fill="rgb(184,227,248)" stroke="rgb(184,227,248)" stroke-width="1" opacity="1" d="M 77.5 83 L 82 88.5 L 80 87.5 L 77.5 83 Z " /><path fill="rgb(184,227,248)" stroke="rgb(184,227,248)" stroke-width="1" opacity="1" d="M 88.5 83 L 89 88.5 L 88 88.5 L 88.5 83 Z " /><path fill="rgb(184,227,248)" stroke="rgb(184,227,248)" stroke-width="1" opacity="1" d="M 157.5 84 L 161 84.5 L 157.5 85 L 157.5 84 Z " /><path fill="rgb(184,227,248)" stroke="rgb(184,227,248)" stroke-width="1" opacity="1" d="M 166.5 84 L 169 84.5 L 166.5 85 L 166.5 84 Z " /><path fill="rgb(184,227,248)" stroke="rgb(184,227,248)" stroke-width="1" opacity="1" d="M 136.5 92 L 137 94.5 L 136 94.5 L 136.5 92 Z " /><path fill="rgb(184,227,248)" stroke="rgb(184,227,248)" stroke-width="1" opacity="1" d="M 135.5 96 L 136 97.5 L 134.5 100 L 134 98.5 L 135.5 96 Z " /><path fill="rgb(184,227,248)" stroke="rgb(184,227,248)" stroke-width="1" opacity="1" d="M 139.5 102 L 141.5 105 Q 139.3 105.8 140 103.5 L 139.5 102 Z " /><path fill="rgb(184,227,248)" stroke="rgb(184,227,248)" stroke-width="1" opacity="1" d="M 144.5 102 L 147 102.5 L 143.5 104 L 144.5 102 Z " /><path fill="rgb(184,227,248)" stroke="rgb(184,227,248)" stroke-width="1" opacity="1" d="M 164.5 106 L 166.5 109 L 164.5 106 Z " /><path fill="rgb(184,227,248)" stroke="rgb(184,227,248)" stroke-width="1" opacity="1" d="M 191.5 107 L 192 122 L 190 121.5 L 191 120.5 L 191.5 107 Z " /><path fill="rgb(184,227,248)" stroke="rgb(184,227,248)" stroke-width="1" opacity="1" d="M 167.5 110 L 168.5 112 L 167.5 110 Z " /><path fill="rgb(184,227,248)" stroke="rgb(184,227,248)" stroke-width="1" opacity="1" d="M 170.5 115 L 171 117.5 L 170 117.5 L 170.5 115 Z " /><path fill="rgb(184,227,248)" stroke="rgb(184,227,248)" stroke-width="1" opacity="1" d="M 182.5 120 L 188 120.5 L 182.5 121 L 182.5 120 Z " /><path fill="rgb(184,227,248)" stroke="rgb(184,227,248)" stroke-width="1" opacity="1" d="M 176.5 122 L 179 122.5 Q 176.9 125.8 176.5 122 Z " /><path fill="rgb(185,228,249)" stroke="rgb(185,228,249)" stroke-width="1" opacity="1" d="M 19.5 31 L 175.5 31 L 176.5 32 L 190.5 32 L 192 33.5 L 193 35.5 L 193 62.5 L 192 63.5 L 192 106.5 L 191 107.5 L 191 121 L 182.5 120 L 177.5 123 L 171 120 L 171 115.5 L 164.5 106 Q 158.5 100 144.5 102 L 141.5 104 L 135 100 Q 138.5 94.4 137 82.5 Q 134.3 72.8 126.5 68 L 116.5 64 L 108.5 64 Q 99.1 65.5 94 71.5 Q 87.9 77.6 88 89 L 82.5 90 L 77.5 83 L 68 78.5 Q 69.4 67.6 66 61.5 L 54.5 48 L 40.5 42 L 26.5 42 L 15.5 47 L 15 35.5 L 17.5 32 L 19.5 31 Z M 160 42 L 148 47 L 142 58 Q 140 72 146 78 L 158 85 Q 170 87 176 82 Q 183 78 185 69 L 185 59 L 181 51 Q 175 41 160 42 Z " /><path fill="rgb(239,239,239)" stroke="rgb(239,239,239)" stroke-width="1" opacity="1" d="M 27.5 47 L 30 47.5 L 27.5 48 L 27.5 47 Z " /><path fill="rgb(239,239,239)" stroke="rgb(239,239,239)" stroke-width="1" opacity="1" d="M 18.5 51 L 17.5 53 L 18.5 51 Z " /><path fill="rgb(239,239,239)" stroke="rgb(239,239,239)" stroke-width="1" opacity="1" d="M 50.5 51 L 51.5 53 L 50.5 51 Z " /><path fill="rgb(239,239,239)" stroke="rgb(239,239,239)" stroke-width="1" opacity="1" d="M 57.5 58 L 58.5 60 L 57.5 58 Z " /><path fill="rgb(239,239,239)" stroke="rgb(239,239,239)" stroke-width="1" opacity="1" d="M 15.5 70 L 16 85.5 L 15 85.5 L 15.5 70 Z " /><path fill="rgb(239,239,239)" stroke="rgb(239,239,239)" stroke-width="1" opacity="1" d="M 63.5 72 L 64 79.5 L 63 79.5 L 63.5 72 Z " /><path fill="rgb(239,239,239)" stroke="rgb(239,239,239)" stroke-width="1" opacity="1" d="M 101.5 72 L 96.5 78 L 101.5 72 Z " /><path fill="rgb(239,239,239)" stroke="rgb(239,239,239)" stroke-width="1" opacity="1" d="M 125.5 73 L 127.5 76 L 125.5 73 Z " /><path fill="rgb(239,239,239)" stroke="rgb(239,239,239)" stroke-width="1" opacity="1" d="M 93.5 84 L 94 86.5 L 93 86.5 L 93.5 84 Z " /><path fill="rgb(239,239,239)" stroke="rgb(239,239,239)" stroke-width="1" opacity="1" d="M 73.5 86 L 77.5 91 L 73.5 86 Z " /><path fill="rgb(239,239,239)" stroke="rgb(239,239,239)" stroke-width="1" opacity="1" d="M 93.5 89 L 94 92.5 L 93 92.5 L 93.5 89 Z " /><path fill="rgb(239,239,239)" stroke="rgb(239,239,239)" stroke-width="1" opacity="1" d="M 84.5 94 L 83.5 96 L 84.5 94 Z " /><path fill="rgb(239,239,239)" stroke="rgb(239,239,239)" stroke-width="1" opacity="1" d="M 129.5 98 L 129 99.5 L 128.5 102 L 128 99.5 L 129.5 98 Z " /><path fill="rgb(239,239,239)" stroke="rgb(239,239,239)" stroke-width="1" opacity="1" d="M 134.5 104 L 136.5 107 L 134.5 104 Z " /><path fill="rgb(239,239,239)" stroke="rgb(239,239,239)" stroke-width="1" opacity="1" d="M 149.5 106 L 154 106.5 L 149.5 107 L 149.5 106 Z " /><path fill="rgb(239,239,239)" stroke="rgb(239,239,239)" stroke-width="1" opacity="1" d="M 79.5 107 L 86 107.5 L 79.5 108 L 79.5 107 Z " /><path fill="rgb(239,239,239)" stroke="rgb(239,239,239)" stroke-width="1" opacity="1" d="M 159.5 108 L 161.5 111 L 159.5 108 Z " /><path fill="rgb(239,239,239)" stroke="rgb(239,239,239)" stroke-width="1" opacity="1" d="M 142.5 109 L 141.5 111 L 142.5 109 Z " /><path fill="rgb(239,239,239)" stroke="rgb(239,239,239)" stroke-width="1" opacity="1" d="M 70.5 111 L 68.5 114 L 70.5 111 Z " /><path fill="rgb(239,239,239)" stroke="rgb(239,239,239)" stroke-width="1" opacity="1" d="M 80.5 112 Q 91.3 111.3 95 117.5 L 98 125 L 105.5 124 L 115.5 131 Q 117.4 126.9 124.5 128 L 128 130.5 L 129 134 Q 135 132.8 137.5 136 L 140 135 Q 140.3 128.6 145.5 126 L 154.5 125 L 161 129.5 Q 164.2 133 163 140 Q 169.7 138.9 172 143.5 L 171.5 145 L 145.5 145 L 144.5 144 L 55.5 144 L 54.5 143 L 35 143 Q 35.2 135.4 40.5 132 Q 43.8 128.8 51.5 130 L 55.5 131 L 59.5 125 L 65.5 124 L 67.5 125 L 70 119.5 L 75.5 114 L 80.5 112 Z " /><path fill="rgb(239,239,239)" stroke="rgb(239,239,239)" stroke-width="1" opacity="1" d="M 67.5 115 L 66.5 117 L 67.5 115 Z " /><path fill="rgb(239,239,239)" stroke="rgb(239,239,239)" stroke-width="1" opacity="1" d="M 16.5 118 L 17 133.5 L 16 133.5 L 16.5 118 Z " /><path fill="rgb(239,239,239)" stroke="rgb(239,239,239)" stroke-width="1" opacity="1" d="M 65.5 118 L 64.5 120 L 60 119.5 L 65.5 118 Z " /><path fill="rgb(239,239,239)" stroke="rgb(239,239,239)" stroke-width="1" opacity="1" d="M 57.5 120 L 59 120.5 L 53.5 125 L 57.5 120 Z " /><path fill="rgb(239,239,239)" stroke="rgb(239,239,239)" stroke-width="1" opacity="1" d="M 148.5 120 L 151 120.5 L 148.5 121 L 148.5 120 Z " /><path fill="rgb(239,239,239)" stroke="rgb(239,239,239)" stroke-width="1" opacity="1" d="M 152.5 120 L 155 120.5 L 152.5 121 L 152.5 120 Z " /><path fill="rgb(239,239,239)" stroke="rgb(239,239,239)" stroke-width="1" opacity="1" d="M 111.5 121 L 113.5 124 L 111.5 121 Z " /><path fill="rgb(239,239,239)" stroke="rgb(239,239,239)" stroke-width="1" opacity="1" d="M 142.5 122 L 141.5 124 L 142.5 122 Z " /><path fill="rgb(239,239,239)" stroke="rgb(239,239,239)" stroke-width="1" opacity="1" d="M 162.5 124 L 163.5 126 L 162.5 124 Z " /><path fill="rgb(239,239,239)" stroke="rgb(239,239,239)" stroke-width="1" opacity="1" d="M 44.5 125 L 51 125.5 L 44.5 126 L 44.5 125 Z " /><path fill="rgb(239,239,239)" stroke="rgb(239,239,239)" stroke-width="1" opacity="1" d="M 138.5 126 L 137.5 128 L 138.5 126 Z " /><path fill="rgb(239,239,239)" stroke="rgb(239,239,239)" stroke-width="1" opacity="1" d="M 38.5 127 L 40 127.5 L 33.5 133 L 38.5 127 Z " /><path fill="rgb(239,239,239)" stroke="rgb(239,239,239)" stroke-width="1" opacity="1" d="M 174.5 127 L 178 129.5 L 176.5 130 L 174.5 127 Z " /><path fill="rgb(239,239,239)" stroke="rgb(239,239,239)" stroke-width="1" opacity="1" d="M 167.5 133 L 168 135.5 L 167 135.5 L 167.5 133 Z " /><path fill="rgb(239,239,239)" stroke="rgb(239,239,239)" stroke-width="1" opacity="1" d="M 172.5 137 L 175.5 141 L 172.5 137 Z " /><path fill="rgb(239,239,239)" stroke="rgb(239,239,239)" stroke-width="1" opacity="1" d="M 30.5 139 L 31 142.5 L 30 142.5 L 30.5 139 Z " /><path fill="rgb(239,239,239)" stroke="rgb(239,239,239)" stroke-width="1" opacity="1" d="M 17.5 140 L 19.5 143 L 17.5 140 Z " /><path fill="rgb(242,242,242)" stroke="rgb(242,242,242)" stroke-width="1" opacity="0.996078431372549" d="M 14.5 144 L 15.5 146 L 14.5 144 Z " /><path fill="rgb(98,99,98)" stroke="rgb(98,99,98)" stroke-width="1" opacity="0.8666666666666667" d="M 16.5 26 L 18.5 26 L 152.5 26 L 153.5 27 L 189.5 27 L 191.5 28 L 193 27.5 L 194.5 30 L 196 29.5 L 196 31.5 L 198 35.5 L 198 60.5 L 197 61.5 L 196 143 Q 193.3 141.9 194 144.5 L 187.5 150 L 185.5 150 L 184.5 149 L 19 148 Q 20.1 145.3 17.5 146 L 12 139.5 L 10 34.5 L 11 31.5 Q 10.3 29.3 12.5 30 L 16.5 26 Z M 19 30 L 17 31 L 14 34 L 14 49 L 29 43 L 41 43 L 53 48 Q 62 54 66 66 L 67 80 L 76 83 L 83 91 L 89 90 L 90 82 L 93 76 Q 98 67 110 65 Q 121 65 128 70 Q 133 75 136 84 Q 137 94 133 100 L 142 106 L 147 103 Q 158 101 163 106 L 169 114 L 170 121 L 177 124 L 185 121 L 192 123 L 192 109 L 193 108 L 194 35 L 191 31 L 178 31 L 177 30 L 19 30 Z M 29 46 Q 19 48 14 55 L 14 71 L 15 72 L 15 119 L 16 120 L 16 140 L 17 142 L 21 144 L 31 144 L 33 135 Q 37 128 46 126 L 51 127 Q 55 128 54 126 Q 57 120 66 120 L 69 115 L 75 110 L 82 108 Q 90 108 95 112 L 100 120 Q 102 123 109 121 L 116 126 L 119 124 Q 126 123 129 126 L 131 130 L 137 131 L 138 129 Q 141 123 149 121 L 154 121 L 160 123 Q 166 126 167 135 Q 166 139 171 137 L 176 144 L 177 146 L 188 146 L 192 142 L 192 126 L 188 124 Q 181 124 178 128 Q 174 123 167 124 Q 168 116 165 113 L 157 106 L 147 106 L 139 110 L 138 107 Q 135 102 129 102 L 133 94 Q 135 80 128 75 L 117 68 L 110 68 L 102 71 Q 94 76 92 86 Q 91 90 93 92 L 92 93 L 85 93 Q 83 96 80 95 L 78 90 Q 74 83 64 83 Q 66 67 59 59 L 47 48 Q 40 45 29 46 Z M 81 111 L 74 114 Q 68 117 68 124 L 65 123 L 60 124 L 55 130 L 51 129 Q 44 128 41 131 Q 34 135 34 144 L 66 144 L 67 145 L 156 145 L 157 146 L 173 146 L 173 144 Q 171 139 164 139 L 162 130 L 155 124 L 149 124 L 142 127 L 138 135 Q 136 132 131 133 L 129 131 L 125 127 Q 117 126 115 130 L 112 126 L 109 124 L 101 124 L 100 125 L 96 118 Q 92 111 81 111 Z " /><path fill="rgb(98,99,98)" stroke="rgb(98,99,98)" stroke-width="1" opacity="0.8666666666666667" d="M 161.5 43 Q 175.8 43.2 181 52.5 L 184 60.5 L 184 66.5 Q 182 76.5 174.5 81 Q 169.3 85.3 158.5 84 Q 151.1 81.9 147 76.5 Q 141.5 71.5 143 59.5 Q 145.1 51.1 151.5 47 L 161.5 43 Z M 159 47 L 155 49 Q 148 53 146 61 L 146 67 L 148 73 Q 152 79 161 81 L 170 80 L 176 76 L 180 69 Q 182 59 178 55 L 169 47 L 159 47 Z " /><path fill="rgb(242,242,242)" stroke="rgb(242,242,242)" stroke-width="1" opacity="1" d="M 30.5 47 L 43.5 48 Q 51.9 51.1 57 57.5 L 63 69.5 L 63 84 Q 73.9 83.9 78 91.5 L 79 96 Q 84 97.3 85.5 94 L 90.5 94 Q 92.2 96.8 94 92.5 L 93 87.5 Q 94.6 76.6 102.5 72 Q 106.6 68.1 115.5 69 Q 124.8 70.8 129 77.5 Q 133.2 82.3 132 92.5 L 128 101.5 L 137 107.5 L 139.5 111 L 147.5 107 L 156.5 107 L 163 111 L 165 114.5 L 166 123.5 L 167.5 125 L 174 126 L 176.5 130 L 186.5 125 L 191 127.5 L 191 140.5 L 188.5 144 L 186.5 145 L 177 145 Q 176.9 139.4 172.5 137 L 168 136 Q 167.6 128.2 162.5 124 Q 158.5 119 148.5 120 Q 140.4 121.4 137 127.5 L 135.5 130 L 125.5 123 L 118.5 123 L 114.5 124 Q 110.8 118.4 101 120 Q 100 113.2 93.5 110 L 85.5 107 L 79.5 107 L 68 113.5 L 64.5 119 Q 55.6 118.6 53 124.5 Q 53.8 126.8 51.5 126 Q 50 123.5 44.5 125 Q 36.4 126.4 33 132.5 L 30 143 L 20.5 143 L 17 139.5 L 15 54.5 L 25.5 48 L 30.5 47 Z " /><path fill="rgb(232,215,198)" stroke="rgb(232,215,198)" stroke-width="1" opacity="1" d="M 31.5 46 L 38 46.5 L 31.5 47 L 31.5 46 Z " /><path fill="rgb(232,215,198)" stroke="rgb(232,215,198)" stroke-width="1" opacity="1" d="M 159.5 47 Q 173.7 45.8 178 54.5 Q 181.7 58.8 180 68.5 L 172.5 78 Q 168.5 81 161.5 81 Q 153 79.5 149 73.5 L 146 66.5 L 146 61.5 Q 148.1 53.2 154.5 49 L 159.5 47 Z " /><path fill="rgb(232,215,198)" stroke="rgb(232,215,198)" stroke-width="1" opacity="1" d="M 16.5 52 L 15.5 54 L 16.5 52 Z " /><path fill="rgb(232,215,198)" stroke="rgb(232,215,198)" stroke-width="1" opacity="1" d="M 53.5 53 L 56.5 57 L 53.5 53 Z " /><path fill="rgb(232,215,198)" stroke="rgb(232,215,198)" stroke-width="1" opacity="1" d="M 15.5 86 L 16 97.5 L 15 97.5 L 15.5 86 Z " /><path fill="rgb(232,215,198)" stroke="rgb(232,215,198)" stroke-width="1" opacity="1" d="M 132.5 86 L 133 90.5 L 132 90.5 L 132.5 86 Z " /><path fill="rgb(232,215,198)" stroke="rgb(232,215,198)" stroke-width="1" opacity="1" d="M 71.5 111 L 68.5 115 L 71.5 111 Z " /><path fill="rgb(232,215,198)" stroke="rgb(232,215,198)" stroke-width="1" opacity="1" d="M 94.5 111 L 95.5 113 L 94.5 111 Z " /><path fill="rgb(232,215,198)" stroke="rgb(232,215,198)" stroke-width="1" opacity="1" d="M 74.5 114 L 71.5 118 L 74.5 114 Z " /><path fill="rgb(232,215,198)" stroke="rgb(232,215,198)" stroke-width="1" opacity="1" d="M 97.5 114 L 98.5 116 L 97.5 114 Z " /><path fill="rgb(232,215,198)" stroke="rgb(232,215,198)" stroke-width="1" opacity="1" d="M 68.5 123 L 67.5 125 L 66 124.5 L 68.5 123 Z " /><path fill="rgb(232,215,198)" stroke="rgb(232,215,198)" stroke-width="1" opacity="1" d="M 140.5 124 L 139.5 126 L 140.5 124 Z " /><path fill="rgb(232,215,198)" stroke="rgb(232,215,198)" stroke-width="1" opacity="1" d="M 58.5 125 L 57.5 127 L 58.5 125 Z " /><path fill="rgb(232,215,198)" stroke="rgb(232,215,198)" stroke-width="1" opacity="1" d="M 109.5 125 L 112.5 129 L 109.5 125 Z " /><path fill="rgb(232,215,198)" stroke="rgb(232,215,198)" stroke-width="1" opacity="1" d="M 128.5 125 L 130.5 128 L 128.5 125 Z " /><path fill="rgb(232,215,198)" stroke="rgb(232,215,198)" stroke-width="1" opacity="1" d="M 180.5 126 L 178.5 129 L 180.5 126 Z " /><path fill="rgb(232,215,198)" stroke="rgb(232,215,198)" stroke-width="1" opacity="1" d="M 120.5 127 L 124 127.5 L 120.5 128 L 120.5 127 Z " /><path fill="rgb(232,215,198)" stroke="rgb(232,215,198)" stroke-width="1" opacity="1" d="M 143.5 127 L 142.5 129 L 143.5 127 Z " /><path fill="rgb(232,215,198)" stroke="rgb(232,215,198)" stroke-width="1" opacity="1" d="M 191.5 127 L 192 134.5 L 191 134.5 L 191.5 127 Z " /><path fill="rgb(232,215,198)" stroke="rgb(232,215,198)" stroke-width="1" opacity="1" d="M 56.5 128 L 57 129.5 L 55 130.5 L 56.5 128 Z " /><path fill="rgb(232,215,198)" stroke="rgb(232,215,198)" stroke-width="1" opacity="1" d="M 16.5 134 L 17 138.5 L 16 138.5 L 16.5 134 Z " /><path fill="rgb(232,215,198)" stroke="rgb(232,215,198)" stroke-width="1" opacity="1" d="M 170.5 141 L 171.5 143 L 170.5 141 Z " /><path fill="rgb(232,215,198)" stroke="rgb(232,215,198)" stroke-width="1" opacity="1" d="M 190.5 142 L 188.5 145 L 190.5 142 Z " /><path fill="rgb(232,215,198)" stroke="rgb(232,215,198)" stroke-width="1" opacity="1" d="M 21.5 143 L 31 143.5 L 21.5 144 L 21.5 143 Z " /><path fill="rgb(232,215,198)" stroke="rgb(232,215,198)" stroke-width="1" opacity="1" d="M 35.5 143 L 55 143.5 L 35.5 144 L 35.5 143 Z " /><path fill="rgb(232,215,198)" stroke="rgb(232,215,198)" stroke-width="1" opacity="1" d="M 112.5 144 L 145 144.5 L 112.5 145 L 112.5 144 Z " /><path fill="rgb(0,0,0)" stroke="rgb(0,0,0)" stroke-width="1" opacity="0" d="M 0 0 L 200 0 L 200 200 L 0 200 L 0 0 Z M 17 26 L 15 27 L 10 33 L 12 141 L 14 145 L 20 148 L 180 149 L 181 150 Q 187 151 191 149 L 196 143 L 197 64 L 198 63 L 198 34 L 196 29 L 193 27 L 179 27 L 178 26 L 17 26 Z " /></svg>