<svg width="200" height="200" version="1.1" xmlns="http://www.w3.org/2000/svg" desc="Created with imagetracer.js version 1.2.6" ><path fill="rgb(0,0,0)" stroke="rgb(0,0,0)" stroke-width="1" opacity="0" d="M 0 0 L 146 0.5 L 140 3.5 Q 140.8 5.8 138.5 5 L 134 13.5 L 134.5 15 L 133 15.5 L 133 29 L 135 29.5 L 134 32.5 L 140 39.5 L 136 45 L 133 46.5 Q 133.8 48.8 131.5 48 L 128.5 52 L 126 53.5 Q 126.8 55.8 124.5 55 L 121.5 59 Q 119.3 58.3 120 60.5 L 116 63 L 114.5 66 Q 112.3 65.3 113 67.5 L 97 83.5 L 97 85 L 94 86.5 Q 94.8 88.8 92.5 88 L 90 92 L 87 93.5 Q 87.8 95.8 85.5 95 L 82.5 99 L 80 100.5 Q 80.8 102.8 78.5 102 L 75.5 106 L 73 107.5 L 71.5 110 Q 69.3 109.3 70 111.5 L 67 113 L 64.5 117 L 47 100.5 Q 47.8 98.3 45.5 99 L 42.5 95 L 33.5 96 L 18 110.5 Q 19.1 113.8 16.5 113 L 8 127.5 L 8 130.5 L 8.5 132 L 7 131.5 L 8 139.5 Q 2.7 141.8 2 148.5 L 3 149.5 L 4 163.5 L 2 173.5 L 3 176 Q 5.7 174.9 5 177.5 L 4 181 Q 6.7 179.9 6 182.5 L 5 186 Q 8.7 184.7 7 190.5 L 8 193 L 13.5 195 L 15 194.5 Q 14.1 197.5 18.5 196 L 20.5 195 L 21.5 198 L 24.5 197 L 25 199 L 42.5 198 L 43.5 199 L 52 199.5 L 0 200 L 0 0 Z " /><path fill="rgb(0,0,0)" stroke="rgb(0,0,0)" stroke-width="1" opacity="0" d="M 166.5 0 L 199.5 0 L 200 0.5 L 200 200 L 56.5 200 L 56 197.5 L 57.5 198 Q 60.1 198.7 59 196 L 62.5 196 L 65 197 L 64 194.5 L 65.5 195 L 69 194.5 L 68.5 193 L 72.5 194 L 80 189.5 Q 79.2 186.9 82.5 188 L 87 186 Q 85.8 183 89.5 184 L 92.5 180 L 95 178.5 Q 94.3 176.3 96.5 177 L 99.5 173 Q 102.1 173.8 101 170.5 Q 106.3 168.3 105 159.5 L 90 144.5 L 90 143 L 87 141.5 Q 87.8 139.3 85.5 140 L 83 136.5 L 88 130 L 91 128.5 L 92.5 126 L 95 124.5 Q 94.3 122.3 96.5 123 L 99.5 119 Q 101.8 119.8 101 117.5 L 105 114.5 L 106.5 112 Q 108.8 112.8 108 110.5 L 115 105 L 115 103.5 L 134 84.5 L 134 83 L 141 77.5 Q 140.3 75.3 142.5 76 L 144 73 L 148 70.5 Q 147.3 68.3 149.5 69 L 151 66 L 154 64.5 L 155.5 62 Q 157.8 62.8 157 60.5 L 159.5 59 L 162.5 63 L 168.5 65 L 170 64.5 L 170.5 66 L 183.5 66 L 183.5 64 L 188 65 Q 186.8 62 190.5 63 L 193.5 59 Q 195.8 59.8 195 57.5 L 199 51.5 L 199 46.5 L 198 41.5 L 199 35 L 197 34.5 L 198 32 Q 195 33.3 196 29.5 L 190.5 22 Q 188.3 22.8 189 20.5 L 186 19 L 183.5 15 Q 181.3 15.8 182 13.5 L 179 12 L 176.5 8 Q 174.3 8.8 175 6.5 L 172 5 Q 173.3 2 169.5 3 L 166.5 0 Z " /><path fill="rgb(0,0,0)" stroke="rgb(0,0,0)" stroke-width="1" opacity="0" d="M 155.5 20 L 160 23 L 160 24.5 L 178 42.5 L 178 45 Q 174.2 46.5 175 43.5 L 172 42 L 170.5 39 L 168 37.5 L 166.5 35 Q 163.9 35.7 165 33 L 160.5 33 L 156 31 L 157 25 Q 154.3 26.1 155 23.5 L 154 21.5 L 155.5 20 Z " /><path fill="rgb(42,30,26)" stroke="rgb(42,30,26)" stroke-width="1" opacity="0.9490196078431372" d="M 149.5 0 Q 161.4 -1.5 167 2 Q 165.9 4.7 168.5 4 L 194 29.5 L 194 31 Q 197 29.8 196 33.5 L 199 40.5 L 198 45.5 L 199 47.5 Q 195.5 49.7 196 55 Q 193.3 53.9 194 56.5 L 188 61 Q 189.3 64 185.5 63 L 175.5 66 Q 173.8 63.2 168.5 64 L 159.5 57 L 157.5 57 L 135 79.5 L 135 81 L 130 84.5 L 80 136.5 L 83 141 L 86 142.5 Q 85.3 144.8 87.5 144 L 90.5 148 Q 92.8 147.3 92 149.5 L 96 152 L 104 161.5 L 104 163.5 L 96 175 L 93 176.5 L 91.5 179 L 85 183.5 Q 85.8 185.8 83.5 185 L 81 186 Q 82.3 189 78.5 188 L 72.5 192 L 67 193 Q 68.1 195.7 65.5 195 L 63.5 195 L 50.5 199 L 43.5 199 Q 42 196.5 36.5 198 Q 35.3 200.3 30.5 199 L 19.5 195 Q 18 197.5 16.5 194 L 10 193 L 7 187.5 Q 6.6 177.9 3 171.5 L 3 164.5 Q 5.5 163 4 157.5 Q 1.5 156 3 150.5 L 4 146.5 L 7.5 143 Q 11.8 144.8 10 152.5 L 9 153.5 L 9 168.5 L 13 185.5 L 15.5 188 L 33.5 193 L 46.5 193 L 60.5 190 L 72.5 185 Q 84.6 178.6 93 168.5 L 97 162.5 L 75.5 141 L 74.5 142 L 72 143.5 L 58.5 158 L 49.5 159 L 43 153.5 L 42 144.5 L 46 138 L 49 136.5 Q 48.3 134.3 50.5 135 L 60 124.5 L 58 124 L 58 122.5 L 38.5 103 L 31 108.5 Q 31.8 110.8 29.5 110 L 21 120.5 L 14 135.5 L 11.5 138 L 8 135.5 L 10 127.5 L 14 121.5 L 14 119 Q 16.7 120.1 16 117.5 L 30.5 101 L 35.5 97 L 38 97 L 38.5 95 L 43 98.5 L 44.5 101 Q 46.8 100.3 46 102.5 L 50 105.5 L 51.5 108 Q 53.8 107.3 53 109.5 L 56 111 L 63.5 120 L 96 88.5 Q 95.3 86.3 97.5 87 L 142 41.5 L 142 39.5 L 141 37 Q 138.3 38.1 139 35.5 L 136 32.5 Q 136 26.5 133 23.5 L 133 19.5 L 135 17.5 L 136 10 Q 138.7 11.1 138 8.5 L 143.5 3 L 146 3 Q 144.8 0 148.5 1 L 149.5 0 Z M 155 18 L 152 21 L 152 24 L 156 28 L 156 33 L 159 35 L 162 34 L 176 47 L 178 47 Q 181 46 180 42 L 157 18 L 155 18 Z M 174 21 L 173 24 L 178 30 Q 177 32 180 31 Q 186 34 187 43 L 186 49 L 182 53 Q 172 55 169 50 L 166 46 Q 163 47 164 45 L 158 39 L 148 49 L 148 50 L 145 52 Q 146 54 144 53 L 142 56 L 138 59 Q 139 61 137 60 L 134 64 Q 131 63 132 67 L 136 70 Q 135 67 138 68 L 141 64 Q 143 65 142 63 L 145 61 L 148 57 Q 150 58 149 56 L 152 54 L 157 48 L 161 48 Q 165 55 173 58 L 182 58 L 187 55 L 191 49 L 191 38 L 187 31 L 183 29 Q 184 26 182 27 L 180 24 L 177 23 Q 178 19 174 21 Z M 124 69 L 93 100 Q 94 102 92 101 L 87 107 L 81 111 L 81 113 L 48 147 L 49 152 L 52 153 L 55 152 Q 58 153 57 151 L 64 145 L 64 144 L 99 108 Q 101 109 100 107 L 103 105 L 106 101 Q 108 102 107 100 L 114 94 L 114 93 L 130 77 L 130 75 L 124 69 Z " /><path fill="rgb(200,200,200)" stroke="rgb(200,200,200)" stroke-width="1" opacity="0.23137254901960785" d="M 146.5 0 L 149 0.5 L 146 1 Q 147.3 4 143.5 3 L 138 10 Q 135 8.8 136 12.5 L 134 13.5 L 138.5 5 Q 140.8 5.8 140 3.5 L 146.5 0 Z " /><path fill="rgb(200,200,200)" stroke="rgb(200,200,200)" stroke-width="1" opacity="0.23137254901960785" d="M 165.5 0 Q 167.4 3.6 172 3 Q 170.9 5.7 173.5 5 L 175 8 L 179 10.5 Q 178.3 12.8 180.5 12 L 182 15 L 186 17.5 Q 185.3 19.8 187.5 19 L 189 22 L 192 23.5 L 196 31 Q 193.3 32.1 194 29.5 L 168.5 4 L 167 4 Q 168 1 165 2 L 165.5 0 Z " /><path fill="rgb(200,200,200)" stroke="rgb(200,200,200)" stroke-width="1" opacity="0.23137254901960785" d="M 133 15 Q 136 13.8 135 17.5 L 133 18.5 L 133 15 Z " /><path fill="rgb(200,200,200)" stroke="rgb(200,200,200)" stroke-width="1" opacity="0.23137254901960785" d="M 154.5 18 L 156.5 18 L 180 41.5 Q 180.8 46.3 177.5 47 L 175.5 47 L 162.5 34 L 158.5 35 L 156 31 Q 159 33.7 165 33 Q 163.9 35.7 166.5 35 L 169.5 39 L 172 40.5 Q 171.3 42.8 173.5 42 L 175 45 Q 179.1 46.7 178 42.5 L 160 24.5 L 160 23 L 155.5 20 L 154 22.5 L 155 25 Q 158 24 157 27 L 152 23.5 Q 151.3 18.8 154.5 18 Z " /><path fill="rgb(200,200,200)" stroke="rgb(200,200,200)" stroke-width="1" opacity="0.23137254901960785" d="M 133.5 24 L 135 29 Q 130.9 30.2 133.5 24 Z " /><path fill="rgb(200,200,200)" stroke="rgb(200,200,200)" stroke-width="1" opacity="0.23137254901960785" d="M 134 30 Q 137 28.8 136 32.5 L 139 37 Q 141.7 35.9 141 38.5 L 142 41.5 L 97.5 87 Q 95.3 86.3 96 88.5 L 63.5 120 L 56 111 L 53 109.5 Q 53.8 107.3 51.5 108 L 48.5 104 L 46 102.5 Q 46.8 100.3 44.5 101 L 41.5 97 L 39 95.5 L 42.5 95 L 45.5 99 Q 47.8 98.3 47 100.5 L 64.5 117 L 67 113 L 70 111.5 Q 69.3 109.3 71.5 110 L 74.5 106 L 77 104.5 L 78.5 102 Q 80.8 102.8 80 100.5 L 84 97.5 L 85.5 95 Q 87.8 95.8 87 93.5 L 90 92 L 92.5 88 Q 94.8 88.8 94 86.5 L 97 85 L 113 66 L 116 64.5 Q 115.3 62.3 117.5 63 L 120 59 L 123 57.5 L 124.5 55 Q 126.8 55.8 126 53.5 L 130 50.5 L 131.5 48 Q 133.8 48.8 133 46.5 L 136 45 L 140 39.5 L 134 32.5 L 134 30 Z " /><path fill="rgb(200,200,200)" stroke="rgb(200,200,200)" stroke-width="1" opacity="0.23137254901960785" d="M 196 32 Q 199 31 198 34 Q 195 35 196 32 Z " /><path fill="rgb(200,200,200)" stroke="rgb(200,200,200)" stroke-width="1" opacity="0.23137254901960785" d="M 197 35 Q 200 33.8 199 37.5 L 197 36.5 L 197 35 Z " /><path fill="rgb(200,200,200)" stroke="rgb(200,200,200)" stroke-width="1" opacity="0.23137254901960785" d="M 198.5 48 L 199 51.5 L 195 59 L 192 60.5 L 190.5 63 Q 186.8 62 188 65 L 185 65 L 185 63 L 188 63 Q 186.9 60.3 189.5 61 L 194 55 Q 197 56.3 196 52.5 L 198.5 48 Z " /><path fill="rgb(200,200,200)" stroke="rgb(200,200,200)" stroke-width="1" opacity="0.23137254901960785" d="M 157.5 57 L 159.5 57 L 169 64.5 L 166.5 65 L 161 61.5 L 159.5 59 L 157 60.5 Q 157.8 62.8 155.5 62 L 152.5 66 Q 150.3 65.3 151 67.5 L 148 69 L 145.5 73 Q 143.3 72.3 144 74.5 L 141 76 L 135.5 83 Q 133.3 82.3 134 84.5 L 115 103.5 L 115 105 L 108 110.5 Q 108.8 112.8 106.5 112 L 103.5 116 L 101 117.5 Q 101.8 119.8 99.5 119 L 96.5 123 Q 94.3 122.3 95 124.5 L 91 127.5 L 89.5 130 Q 87.3 129.3 88 131.5 L 83 136.5 L 84 137.5 L 85.5 140 Q 87.8 139.3 87 141.5 L 90 143 L 90 144.5 L 105 159.5 L 105 165.5 L 101 170.5 L 101 173 L 98 174.5 L 96.5 177 Q 94.3 176.3 95 178.5 L 91 181.5 L 89.5 184 L 87 184 Q 88.1 186.7 85.5 186 L 81 188 Q 79.9 185.3 82.5 186 L 85 185 Q 83.9 182.3 86.5 183 L 93 177.5 L 94.5 175 Q 96.8 175.8 96 173.5 L 103 165.5 L 104 161.5 L 96 152 L 92 149.5 Q 92.8 147.3 90.5 148 L 87.5 144 Q 85.3 144.8 86 142.5 L 83 141 L 80 135.5 L 133.5 81 Q 135.8 81.8 135 79.5 L 157.5 57 Z " /><path fill="rgb(200,200,200)" stroke="rgb(200,200,200)" stroke-width="1" opacity="0.23137254901960785" d="M 170 64 L 175 65.5 L 170 66 L 170 64 Z " /><path fill="rgb(200,200,200)" stroke="rgb(200,200,200)" stroke-width="1" opacity="0.23137254901960785" d="M 181.5 64 L 184 65.5 L 179.5 66 L 179.5 65 L 181.5 64 Z " /><path fill="rgb(200,200,200)" stroke="rgb(200,200,200)" stroke-width="1" opacity="0.23137254901960785" d="M 36.5 95 Q 39.1 94.3 38 97 L 35.5 97 L 21 110.5 L 16 119 Q 13 117.8 14 121.5 L 8 131.5 L 8 133.5 L 9 140.5 L 4 146.5 L 3.5 150 L 2 146.5 L 8 138.5 Q 5.5 137 7 131.5 Q 10.3 120.8 16.5 113 Q 19.1 113.8 18 110.5 Q 24.9 100.4 36.5 95 Z " /><path fill="rgb(200,200,200)" stroke="rgb(200,200,200)" stroke-width="1" opacity="0.23137254901960785" d="M 3.5 172 L 4 175.5 L 3 175.5 L 2 173.5 L 3.5 172 Z " /><path fill="rgb(200,200,200)" stroke="rgb(200,200,200)" stroke-width="1" opacity="0.23137254901960785" d="M 4.5 178 L 6 181 Q 2.5 182.1 4.5 178 Z " /><path fill="rgb(200,200,200)" stroke="rgb(200,200,200)" stroke-width="1" opacity="0.23137254901960785" d="M 5.5 183 L 7 186 Q 3.5 187.1 5.5 183 Z " /><path fill="rgb(200,200,200)" stroke="rgb(200,200,200)" stroke-width="1" opacity="0.23137254901960785" d="M 7.5 188 L 10 193 L 14 194.5 L 11.5 195 L 8 193 L 7.5 188 Z " /><path fill="rgb(200,200,200)" stroke="rgb(200,200,200)" stroke-width="1" opacity="0.23137254901960785" d="M 78.5 188 Q 80.8 187.3 80 189.5 L 72.5 194 L 70 194 Q 68.8 191 72.5 192 L 78.5 188 Z " /><path fill="rgb(200,200,200)" stroke="rgb(200,200,200)" stroke-width="1" opacity="0.23137254901960785" d="M 67.5 193 L 68.5 195 Q 65.7 195.7 67.5 193 Z " /><path fill="rgb(200,200,200)" stroke="rgb(200,200,200)" stroke-width="1" opacity="0.23137254901960785" d="M 15 194 L 18 195.5 L 15 196 L 15 194 Z " /><path fill="rgb(200,200,200)" stroke="rgb(200,200,200)" stroke-width="1" opacity="0.23137254901960785" d="M 62.5 195 Q 66.3 194 65 197 L 62.5 195 Z " /><path fill="rgb(200,200,200)" stroke="rgb(200,200,200)" stroke-width="1" opacity="0.23137254901960785" d="M 20.5 196 L 24 197.5 L 21.5 198 L 20.5 196 Z " /><path fill="rgb(200,200,200)" stroke="rgb(200,200,200)" stroke-width="1" opacity="0.23137254901960785" d="M 57 196 Q 60 195 59 198 Q 56 199 57 196 Z " /><path fill="rgb(200,200,200)" stroke="rgb(200,200,200)" stroke-width="1" opacity="0.23137254901960785" d="M 25 197 L 30 198.5 L 25 199 L 25 197 Z " /><path fill="rgb(200,200,200)" stroke="rgb(200,200,200)" stroke-width="1" opacity="0.23137254901960785" d="M 55.5 197 L 56 200 Q 52.2 201 51 198.5 L 55.5 197 Z " /><path fill="rgb(221,215,213)" stroke="rgb(221,215,213)" stroke-width="1" opacity="0.996078431372549" d="M 174 21 Q 177.8 19.5 177 22.5 L 180 24 L 181.5 27 Q 183.8 26.3 183 28.5 L 187 31 L 191 37.5 L 191 48.5 L 186.5 55 L 181.5 58 L 172.5 58 Q 164.7 54.8 160.5 48 L 156.5 48 L 152 54 L 149 55.5 Q 149.8 57.8 147.5 57 L 144.5 61 L 142 62.5 Q 142.8 64.8 140.5 64 L 137.5 68 Q 135.3 67.3 136 69.5 L 132 66.5 Q 130.9 63.2 133.5 64 L 136.5 60 Q 138.8 60.8 138 58.5 L 142 55.5 L 143.5 53 Q 145.8 53.8 145 51.5 L 148 50 L 148 48.5 L 157.5 39 L 164 44.5 Q 163.3 46.8 165.5 46 L 168.5 50 Q 171.6 54.9 181.5 53 L 186 48.5 L 187 42.5 Q 185.8 34.2 179.5 31 Q 177.3 31.8 178 29.5 L 173 23.5 L 174 21 Z " /><path fill="rgb(221,215,213)" stroke="rgb(221,215,213)" stroke-width="1" opacity="0.996078431372549" d="M 123.5 69 L 130 74.5 L 130 76.5 L 114 92.5 L 114 94 L 107 99.5 Q 107.8 101.8 105.5 101 L 102.5 105 L 100 106.5 Q 100.8 108.8 98.5 108 L 64 143.5 L 64 145 L 57 150.5 Q 57.8 153.1 54.5 152 L 51.5 153 L 49 152 L 48 146.5 L 81 112.5 L 81 111 L 87 106.5 L 91.5 101 Q 93.8 101.8 93 99.5 L 123.5 69 Z M 126 73 L 122 76 L 120 79 L 117 80 L 112 87 Q 109 86 110 89 L 103 94 L 103 96 L 84 115 Q 85 117 83 116 L 77 123 L 72 127 L 70 130 L 63 135 L 51 150 Q 49 151 52 152 L 57 150 L 60 146 Q 62 147 61 145 L 65 142 L 67 139 Q 69 140 68 138 L 72 135 L 72 134 L 91 115 Q 90 112 93 113 L 95 109 L 98 108 Q 97 105 100 106 L 101 104 L 105 101 Q 104 98 107 99 L 108 97 L 112 94 Q 111 91 114 92 L 117 88 Q 119 89 118 87 L 121 85 L 122 83 L 125 81 L 129 76 L 126 73 Z " /><path fill="rgb(221,215,213)" stroke="rgb(221,215,213)" stroke-width="1" opacity="0.996078431372549" d="M 38.5 103 L 58 122.5 L 58 124 L 60 124.5 L 50.5 135 Q 48.3 134.3 49 136.5 L 46 138 L 42 144.5 L 42 151.5 L 47.5 158 L 56.5 159 L 72 144.5 L 73.5 142 L 75.5 141 L 97 162.5 L 96 163.5 L 84.5 177 Q 74.2 186.2 58.5 190 L 59.5 188 Q 82.1 182.1 94 165.5 L 95 162.5 L 79 146.5 L 79 145 L 74.5 143 L 73 146 L 69 148.5 Q 69.8 150.8 67.5 150 L 66 153 L 62 155.5 Q 62.8 157.8 60.5 157 Q 57.7 161.7 48.5 160 L 43 155.5 Q 39.2 152.3 41 143.5 L 52 130 L 58 125.5 L 38.5 104 L 34 107 L 32.5 110 L 30 111.5 Q 30.8 113.8 28.5 113 L 16.5 131 L 16 129.5 Q 21.3 118.3 29.5 110 Q 31.8 110.8 31 108.5 L 38.5 103 Z " /><path fill="rgb(221,215,213)" stroke="rgb(221,215,213)" stroke-width="1" opacity="0.996078431372549" d="M 15.5 132 L 16 133.5 L 15 137 L 12.5 138 L 14 135.5 L 15.5 132 Z " /><path fill="rgb(221,215,213)" stroke="rgb(221,215,213)" stroke-width="1" opacity="0.996078431372549" d="M 9.5 137 Q 12.3 138.3 10 139.5 L 9.5 141 L 9.5 137 Z " /><path fill="rgb(221,215,213)" stroke="rgb(221,215,213)" stroke-width="1" opacity="0.996078431372549" d="M 8.5 143 L 12 145.5 L 11 148.5 L 11 172.5 Q 13.2 173.8 12 178.5 L 11 178.5 L 9 168.5 L 9 153.5 Q 11.7 151.8 10 145.5 L 8.5 143 Z " /><path fill="rgb(221,215,213)" stroke="rgb(221,215,213)" stroke-width="1" opacity="0.996078431372549" d="M 12.5 180 L 15 187 L 28 190.5 L 24.5 191 L 17.5 189 L 13 185.5 L 12.5 180 Z " /><path fill="rgb(221,215,213)" stroke="rgb(221,215,213)" stroke-width="1" opacity="0.996078431372549" d="M 52.5 190 L 57 190.5 L 46.5 193 L 33.5 193 L 29 191.5 L 51.5 191 L 52.5 190 Z " /><path fill="rgb(230,230,230)" stroke="rgb(230,230,230)" stroke-width="1" opacity="1" d="M 125.5 73 L 129 75.5 L 125 81 L 122 82.5 L 120.5 85 L 118 86.5 Q 118.8 88.8 116.5 88 L 113.5 92 Q 111.3 91.3 112 93.5 L 108 96.5 L 106.5 99 Q 104.3 98.3 105 100.5 L 101 103.5 L 99.5 106 Q 97.3 105.3 98 107.5 L 95 109 L 92.5 113 Q 90.3 112.3 91 114.5 L 72 133.5 L 72 135 L 68 137.5 Q 68.8 139.8 66.5 139 L 65 142 L 61 144.5 Q 61.8 146.8 59.5 146 L 56.5 150 L 51.5 152 Q 48.8 150.8 51 149.5 L 63 135 L 70 129.5 L 71.5 127 L 77 122.5 L 82.5 116 Q 84.8 116.8 84 114.5 L 103 95.5 L 103 94 L 110 88.5 Q 109.3 86.3 111.5 87 L 117 80 L 120 78.5 L 121.5 76 L 125.5 73 Z " /><path fill="rgb(230,230,230)" stroke="rgb(230,230,230)" stroke-width="1" opacity="1" d="M 38.5 104 L 58 125.5 L 52 130 L 41 143.5 L 41 152.5 L 45.5 158 Q 48.4 161.6 56.5 160 L 62 157 L 64.5 153 Q 66.8 153.8 66 151.5 L 69 150 L 71.5 146 Q 73.8 146.8 73 144.5 L 75.5 143 L 79 145 L 79 146.5 L 95 163.5 L 82.5 177 L 73.5 183 Q 68.3 187.3 59.5 188 L 57.5 190 Q 52.8 188.8 51.5 191 L 28.5 191 L 15 187 L 12 179.5 Q 13.5 174 11 172.5 L 11 148.5 L 12 145.5 L 7 142.5 L 10 141 L 11.5 138 L 15 137 L 16 131.5 L 28.5 113 Q 30.8 113.8 30 111.5 L 34 108.5 Q 33.3 106.3 35.5 107 L 38.5 104 Z " /></svg>