<svg width="200" height="200" version="1.1" xmlns="http://www.w3.org/2000/svg" desc="Created with imagetracer.js version 1.2.6" ><path fill="rgb(215,43,41)" stroke="rgb(215,43,41)" stroke-width="1" opacity="1" d="M 53.5 31 L 48 37.5 L 47 42.5 L 50.5 47 L 52 47.5 L 50.5 48 L 48 47 L 46 39.5 L 51.5 32 L 53.5 31 Z " /><path fill="rgb(215,43,41)" stroke="rgb(215,43,41)" stroke-width="1" opacity="1" d="M 71.5 32 L 68.5 36 L 71.5 32 Z " /><path fill="rgb(215,43,41)" stroke="rgb(215,43,41)" stroke-width="1" opacity="1" d="M 65.5 38 L 64 40.5 L 62 45 L 56.5 48 L 56.5 47 L 63 41.5 L 65.5 38 Z " /><path fill="rgb(215,43,41)" stroke="rgb(215,43,41)" stroke-width="1" opacity="1" d="M 93.5 52 L 95.5 55 L 93.5 52 Z " /><path fill="rgb(215,43,41)" stroke="rgb(215,43,41)" stroke-width="1" opacity="1" d="M 88.5 54 L 87.5 56 L 88.5 54 Z " /><path fill="rgb(215,43,41)" stroke="rgb(215,43,41)" stroke-width="1" opacity="1" d="M 81.5 60 L 83 60.5 L 78 64.5 Q 75 66.5 76 72.5 Q 77.5 77.5 85.5 76 L 92 70.5 L 88.5 75 L 81.5 78 L 76 75 Q 74.4 72.9 75 67.5 L 81.5 60 Z " /><path fill="rgb(215,43,41)" stroke="rgb(215,43,41)" stroke-width="1" opacity="1" d="M 121.5 80 L 122.5 82 L 121.5 80 Z " /><path fill="rgb(215,43,41)" stroke="rgb(215,43,41)" stroke-width="1" opacity="1" d="M 110.5 88 L 111 90 L 107 92.5 Q 103.8 94.8 105 101.5 Q 106.3 105.7 112.5 105 L 120.5 98 L 121 99.5 Q 118.3 106.3 108.5 106 Q 103.6 103.9 103 97.5 Q 104.6 90.6 110.5 88 Z " /><path fill="rgb(241,240,240)" stroke="rgb(241,240,240)" stroke-width="1" opacity="0.8862745098039215" d="M 24.5 4 L 25.5 5 L 42.5 5 Q 44 2.5 45.5 6 L 53.5 10 L 73 28.5 L 92.5 50 L 93.5 49 L 102 57.5 L 122.5 79 L 129 84.5 L 130 88 L 131.5 88 L 142.5 99 L 160.5 99 L 167.5 101 L 171.5 104 Q 173 101.5 174.5 105 L 180 107 L 180 108.5 L 189 117.5 L 195 129.5 Q 199 139 197 154.5 L 195 164.5 L 192 167.5 Q 194.5 169 191 170.5 L 189 174.5 L 177.5 186 Q 172.8 190.8 163.5 191 L 161.5 193 L 138.5 193 L 133.5 192 L 131.5 190 L 129.5 191 L 112 179 L 112 176.5 L 107 170.5 L 103 160.5 Q 100.3 152.2 102 139.5 L 52.5 90 Q 50.3 90.8 51 88.5 L 27.5 65 L 26 65 L 20.5 58 L 18 56.5 Q 18.8 54.3 16.5 55 L 12 51.5 Q 12.7 48.9 10 50 L 10 47.5 L 7 42.5 L 7 26.5 L 8 23.5 L 7 22.5 Q 10.1 20.7 8.5 19 Q 10.8 19.8 10 17.5 Q 12.7 16.4 12 13 L 14 13 Q 12.9 10.3 15.5 11 L 18.5 7 L 24 6 L 24.5 4 Z M 30 18 L 27 20 L 21 28 Q 20 37 24 41 L 117 134 L 115 142 L 116 156 L 121 166 Q 129 177 146 180 L 159 179 L 172 172 L 180 162 L 184 147 L 181 133 L 177 126 Q 170 116 157 112 L 143 112 L 139 114 L 135 112 L 131 108 L 129 106 L 122 99 L 130 90 L 129 88 Q 130 85 128 86 L 122 79 L 112 88 L 103 81 Q 104 78 102 79 L 97 74 L 93 71 L 102 61 L 101 58 L 93 51 L 91 51 L 88 55 L 82 59 L 78 55 L 75 52 L 71 48 L 65 43 L 65 41 L 72 33 L 73 32 L 68 27 Q 69 24 66 25 L 65 22 L 63 22 L 55 30 L 53 30 L 51 28 L 40 18 L 30 18 Z " /><path fill="rgb(0,0,0)" stroke="rgb(0,0,0)" stroke-width="1" opacity="0" d="M 0 0 L 200 0 L 200 200 L 0 200 L 0 0 Z M 24 4 L 24 6 L 19 7 L 10 17 Q 11 20 8 19 L 6 27 L 6 38 L 7 39 L 7 46 L 9 46 L 10 50 L 21 58 L 26 65 L 28 65 L 51 89 Q 50 91 53 90 L 102 140 L 102 157 L 104 165 L 112 177 L 112 179 L 130 191 L 138 193 L 162 193 L 170 191 L 178 186 L 193 169 L 197 155 L 197 137 L 194 126 L 180 107 L 178 107 L 169 101 L 161 99 L 143 99 L 129 85 L 123 79 L 102 58 L 93 49 L 74 30 L 50 7 L 44 4 L 24 4 Z " /><path fill="rgb(247,49,47)" stroke="rgb(247,49,47)" stroke-width="1" opacity="1" d="M 30.5 19 L 32 19.5 L 25 23 Q 21.9 26.6 23 35.5 L 26 41 L 27.5 41 L 97 110.5 L 95.5 110 L 93 108.5 L 89.5 104 L 86 101.5 L 82.5 97 L 79 94.5 L 75.5 90 L 72 87.5 L 69.5 84 L 65 80.5 L 62.5 77 L 58 73.5 L 55.5 70 L 52 67.5 L 50.5 65 L 45 60.5 L 43.5 58 L 38 53.5 L 36.5 51 L 32 47.5 L 30.5 45 L 25 40.5 Q 20.5 37 22 27.5 L 26.5 21 L 30.5 19 Z " /><path fill="rgb(247,49,47)" stroke="rgb(247,49,47)" stroke-width="1" opacity="1" d="M 37.5 19 L 40 19.5 L 37.5 20 L 37.5 19 Z " /><path fill="rgb(247,49,47)" stroke="rgb(247,49,47)" stroke-width="1" opacity="1" d="M 42.5 21 L 46.5 26 L 42.5 21 Z " /><path fill="rgb(247,49,47)" stroke="rgb(247,49,47)" stroke-width="1" opacity="1" d="M 48.5 27 L 52.5 32 Q 50.3 32.8 51 30.5 L 48.5 27 Z " /><path fill="rgb(247,49,47)" stroke="rgb(247,49,47)" stroke-width="1" opacity="1" d="M 47.5 35 L 49 35.5 L 46.5 39 L 46 36.5 L 47.5 35 Z " /><path fill="rgb(247,49,47)" stroke="rgb(247,49,47)" stroke-width="1" opacity="1" d="M 63.5 42 L 73 50 L 81 60.5 L 76 64.5 L 80 59.5 L 63.5 44 L 57.5 49 L 49.5 49 L 46 43.5 L 47 43.5 L 48 47 Q 50.7 48.9 57.5 48 L 62 45 L 63.5 42 Z " /><path fill="rgb(247,49,47)" stroke="rgb(247,49,47)" stroke-width="1" opacity="1" d="M 74 66 L 76 66.5 Q 73.8 67.8 75 72.5 L 75.5 74 L 74 73.5 L 74 66 Z " /><path fill="rgb(247,49,47)" stroke="rgb(247,49,47)" stroke-width="1" opacity="1" d="M 92.5 70 L 110 88.5 L 104 93.5 L 107.5 89 L 109 88.5 L 92.5 72 L 91 72.5 L 92.5 70 Z " /><path fill="rgb(247,49,47)" stroke="rgb(247,49,47)" stroke-width="1" opacity="1" d="M 89.5 74 L 87.5 77 L 84.5 78 L 84.5 77 L 89.5 74 Z " /><path fill="rgb(247,49,47)" stroke="rgb(247,49,47)" stroke-width="1" opacity="1" d="M 76.5 75 L 81 77.5 L 79.5 78 L 76.5 75 Z " /><path fill="rgb(247,49,47)" stroke="rgb(247,49,47)" stroke-width="1" opacity="1" d="M 103.5 100 L 108 105.5 L 106.5 105 L 104 103.5 L 103.5 100 Z " /><path fill="rgb(247,49,47)" stroke="rgb(247,49,47)" stroke-width="1" opacity="1" d="M 120.5 100 L 133 110 L 136 114.5 L 121.5 101 L 118.5 104 L 116.5 105 L 120.5 100 Z " /><path fill="rgb(247,49,47)" stroke="rgb(247,49,47)" stroke-width="1" opacity="1" d="M 143.5 113 L 146 113.5 L 143.5 114 L 143.5 113 Z " /><path fill="rgb(247,49,47)" stroke="rgb(247,49,47)" stroke-width="1" opacity="1" d="M 99.5 114 L 102 115.5 L 101.5 117 L 99.5 114 Z " /><path fill="rgb(247,49,47)" stroke="rgb(247,49,47)" stroke-width="1" opacity="1" d="M 164.5 116 L 175 124.5 L 180 132.5 L 178 131.5 L 173 123 Q 166 120.5 164.5 116 Z " /><path fill="rgb(247,49,47)" stroke="rgb(247,49,47)" stroke-width="1" opacity="1" d="M 103.5 117 L 119 132.5 L 119 134.5 L 118 134.5 Q 118.5 130.5 115.5 130 L 113 128.5 L 108.5 123 L 106 121.5 L 103.5 117 Z " /><path fill="rgb(247,49,47)" stroke="rgb(247,49,47)" stroke-width="1" opacity="1" d="M 116.5 143 L 117 149.5 L 116 149.5 L 116.5 143 Z " /><path fill="rgb(247,49,47)" stroke="rgb(247,49,47)" stroke-width="1" opacity="1" d="M 179.5 158 L 180 159.5 L 171.5 171 L 168.5 173 L 170.5 170 Q 172.8 170.8 172 168.5 L 179.5 158 Z " /><path fill="rgb(247,49,47)" stroke="rgb(247,49,47)" stroke-width="1" opacity="1" d="M 119.5 159 L 129 171.5 L 123 166.5 L 119 160.5 L 119.5 159 Z " /><path fill="rgb(247,49,47)" stroke="rgb(247,49,47)" stroke-width="1" opacity="1" d="M 130.5 172 L 131.5 174 L 130.5 172 Z " /><path fill="rgb(247,49,47)" stroke="rgb(247,49,47)" stroke-width="1" opacity="1" d="M 133.5 174 L 141 177.5 L 139.5 178 L 134.5 176 L 133.5 174 Z " /><path fill="rgb(247,49,47)" stroke="rgb(247,49,47)" stroke-width="1" opacity="1" d="M 164.5 174 L 166 174.5 L 158.5 178 L 159.5 176 L 164.5 174 Z " /><path fill="rgb(10,5,4)" stroke="rgb(10,5,4)" stroke-width="1" opacity="0.996078431372549" d="M 62.5 23 Q 66.5 22.5 67 25.5 L 69.5 29 L 72 30.5 L 66.5 38 L 63 40.5 L 57.5 47 L 52.5 48 L 48 44.5 L 47 39.5 L 62.5 23 Z " /><path fill="rgb(10,5,4)" stroke="rgb(10,5,4)" stroke-width="1" opacity="0.996078431372549" d="M 92.5 51 L 95.5 55 L 100 58.5 L 101 60.5 L 85.5 76 L 79.5 76 Q 74.7 74.8 76 67.5 L 81.5 61 L 86 57.5 Q 85.3 55.3 87.5 56 L 92.5 51 Z " /><path fill="rgb(10,5,4)" stroke="rgb(10,5,4)" stroke-width="1" opacity="0.996078431372549" d="M 120.5 80 L 126 84.5 L 129 89.5 L 114.5 104 L 109.5 105 L 105 101.5 L 105 95.5 L 109.5 90 L 120.5 80 Z " /><path fill="rgb(248,49,47)" stroke="rgb(248,49,47)" stroke-width="1" opacity="1" d="M 32.5 19 L 40.5 20 L 48 26 L 51 32.5 L 46 36.5 Q 44.3 46.3 49.5 49 L 57.5 49 L 64.5 44 L 80 59.5 L 77 62.5 L 76 66 L 74 66.5 L 74 74 Q 76.7 72.9 76 75.5 Q 78.3 79.3 85.5 78 L 90 74.5 Q 89.3 72.3 91.5 73 L 92.5 72 L 109 88.5 L 106 90.5 Q 101.9 93.4 103 101.5 L 105.5 105 L 114.5 106 L 121.5 101 L 135.5 115 L 139.5 115 L 146.5 113 L 153.5 113 L 163.5 116 L 173 123 L 181 136.5 L 182 151.5 L 180 157.5 L 172 170 L 157.5 178 L 145.5 179 Q 131.5 176 124 166.5 Q 114.9 158.1 117 138.5 L 119 132.5 L 103.5 117 L 102 117 L 100.5 114 L 97 111.5 L 27.5 41 Q 25.3 41.8 26 39.5 Q 21.3 36.7 23 27.5 L 25 23 L 32.5 19 Z M 160 126 L 153 129 L 149 138 L 152 148 L 155 150 L 163 153 L 168 152 L 173 149 L 176 143 Q 177 135 174 132 L 167 126 L 160 126 Z " /><path fill="rgb(241,125,125)" stroke="rgb(241,125,125)" stroke-width="1" opacity="0.9803921568627451" d="M 25.5 4 L 43 4.5 L 25.5 5 L 25.5 4 Z " /><path fill="rgb(241,125,125)" stroke="rgb(241,125,125)" stroke-width="1" opacity="0.9803921568627451" d="M 16.5 9 L 15.5 11 L 16.5 9 Z " /><path fill="rgb(241,125,125)" stroke="rgb(241,125,125)" stroke-width="1" opacity="0.9803921568627451" d="M 11.5 15 L 10.5 17 L 11.5 15 Z " /><path fill="rgb(241,125,125)" stroke="rgb(241,125,125)" stroke-width="1" opacity="0.9803921568627451" d="M 29.5 18 L 39.5 18 L 51 27.5 L 52.5 30 L 54.5 30 L 62.5 22 L 64.5 22 L 65.5 24 L 62.5 23 L 54.5 31 L 52.5 31 L 39.5 19 L 30.5 19 L 24 23.5 Q 20.7 27.2 22 35.5 L 29.5 45 L 32 46.5 L 35.5 51 L 38 52.5 L 42.5 58 L 45 59.5 L 49.5 65 L 52 66.5 L 54.5 70 L 58 72.5 L 61.5 77 L 65 79.5 L 68.5 84 L 72 86.5 L 74.5 90 L 79 93.5 L 81.5 97 L 86 100.5 L 88.5 104 L 93 107.5 L 94.5 110 L 99 113.5 L 101.5 117 L 106 120.5 L 107.5 123 L 113 127.5 L 114.5 130 L 118 132.5 L 116 149.5 L 119 159.5 L 118 159.5 L 115 150.5 L 115 141.5 L 117 133.5 L 24 40.5 Q 19.5 37 21 27.5 L 26.5 20 L 29.5 18 Z " /><path fill="rgb(241,125,125)" stroke="rgb(241,125,125)" stroke-width="1" opacity="0.9803921568627451" d="M 8.5 20 L 7.5 22 L 8.5 20 Z " /><path fill="rgb(241,125,125)" stroke="rgb(241,125,125)" stroke-width="1" opacity="0.9803921568627451" d="M 7.5 23 L 8 25.5 L 7 26.5 L 6.5 38 L 6 26.5 L 7.5 23 Z " /><path fill="rgb(241,125,125)" stroke="rgb(241,125,125)" stroke-width="1" opacity="0.9803921568627451" d="M 71.5 33 L 65 40.5 Q 64.5 45.5 68.5 46 L 71 47.5 L 72 49.5 L 64 42.5 L 64 40.5 L 71.5 33 Z " /><path fill="rgb(241,125,125)" stroke="rgb(241,125,125)" stroke-width="1" opacity="0.9803921568627451" d="M 7.5 43 L 8 45.5 L 7 45.5 L 7.5 43 Z " /><path fill="rgb(241,125,125)" stroke="rgb(241,125,125)" stroke-width="1" opacity="0.9803921568627451" d="M 73.5 51 L 78 54.5 L 81.5 59 L 84.5 58 L 83.5 60 L 81.5 60 L 73.5 51 Z " /><path fill="rgb(241,125,125)" stroke="rgb(241,125,125)" stroke-width="1" opacity="0.9803921568627451" d="M 90.5 51 L 92 51.5 L 88.5 54 L 90.5 51 Z " /><path fill="rgb(241,125,125)" stroke="rgb(241,125,125)" stroke-width="1" opacity="0.9803921568627451" d="M 101.5 60 L 92.5 70 L 101.5 60 Z " /><path fill="rgb(241,125,125)" stroke="rgb(241,125,125)" stroke-width="1" opacity="0.9803921568627451" d="M 93.5 71 L 97 73.5 L 101.5 79 Q 103.8 78.3 103 80.5 L 111.5 88 L 121.5 79 L 122.5 81 L 120.5 80 L 111.5 89 L 110.5 88 L 93.5 71 Z " /><path fill="rgb(241,125,125)" stroke="rgb(241,125,125)" stroke-width="1" opacity="0.9803921568627451" d="M 130.5 87 L 130 88.5 L 122 98.5 L 128.5 106 L 131 107.5 L 132 109.5 L 121 99.5 L 121 97.5 L 130.5 87 Z " /><path fill="rgb(241,125,125)" stroke="rgb(241,125,125)" stroke-width="1" opacity="0.9803921568627451" d="M 170.5 102 L 171.5 104 L 170.5 102 Z " /><path fill="rgb(241,125,125)" stroke="rgb(241,125,125)" stroke-width="1" opacity="0.9803921568627451" d="M 133.5 111 L 138.5 114 L 142.5 112 L 156.5 112 L 162 114.5 L 160.5 115 Q 154.7 111.3 143.5 113 L 136.5 115 L 133.5 111 Z " /><path fill="rgb(241,125,125)" stroke="rgb(241,125,125)" stroke-width="1" opacity="0.9803921568627451" d="M 167.5 117 L 177 125.5 L 181 133.5 L 180 133.5 Q 177.4 124.6 170.5 120 L 167.5 117 Z " /><path fill="rgb(241,125,125)" stroke="rgb(241,125,125)" stroke-width="1" opacity="0.9803921568627451" d="M 191.5 122 L 194 126.5 L 193 126.5 L 191.5 122 Z " /><path fill="rgb(241,125,125)" stroke="rgb(241,125,125)" stroke-width="1" opacity="0.9803921568627451" d="M 159.5 126 L 166.5 126 L 174 131.5 Q 177.2 134.8 176 142.5 L 173 149 L 167.5 152 L 162.5 153 L 154.5 150 L 152 147.5 L 149 137.5 L 153 129 L 159.5 126 Z " /><path fill="rgb(241,125,125)" stroke="rgb(241,125,125)" stroke-width="1" opacity="0.9803921568627451" d="M 181.5 135 L 184 146.5 Q 181.5 148 183 153.5 L 180.5 159 L 180 157.5 L 182 153.5 L 182 138.5 L 181.5 135 Z " /><path fill="rgb(241,125,125)" stroke="rgb(241,125,125)" stroke-width="1" opacity="0.9803921568627451" d="M 179.5 160 L 180 161.5 L 171.5 172 L 162.5 177 L 162.5 176 L 174 168.5 L 179.5 160 Z " /><path fill="rgb(241,125,125)" stroke="rgb(241,125,125)" stroke-width="1" opacity="0.9803921568627451" d="M 120.5 163 L 128.5 172 L 134 175.5 L 132.5 175 Q 125 172 121 165.5 L 120.5 163 Z " /><path fill="rgb(241,125,125)" stroke="rgb(241,125,125)" stroke-width="1" opacity="0.9803921568627451" d="M 193.5 166 L 192.5 168 L 193.5 166 Z " /><path fill="rgb(241,125,125)" stroke="rgb(241,125,125)" stroke-width="1" opacity="0.9803921568627451" d="M 105.5 167 L 106.5 169 L 105.5 167 Z " /><path fill="rgb(241,125,125)" stroke="rgb(241,125,125)" stroke-width="1" opacity="0.9803921568627451" d="M 140.5 178 L 143 178.5 L 140.5 179 L 140.5 178 Z " /><path fill="rgb(241,125,125)" stroke="rgb(241,125,125)" stroke-width="1" opacity="0.9803921568627451" d="M 155.5 178 L 159 178.5 L 155.5 179 L 155.5 178 Z " /><path fill="rgb(241,125,125)" stroke="rgb(241,125,125)" stroke-width="1" opacity="0.9803921568627451" d="M 145.5 179 L 154 179.5 L 145.5 180 L 145.5 179 Z " /><path fill="rgb(241,125,125)" stroke="rgb(241,125,125)" stroke-width="1" opacity="0.9803921568627451" d="M 167.5 190 L 170 190.5 L 167.5 191 L 167.5 190 Z " /><path fill="rgb(241,125,125)" stroke="rgb(241,125,125)" stroke-width="1" opacity="0.9803921568627451" d="M 163.5 191 L 166 191.5 L 163.5 192 L 163.5 191 Z " /></svg>