<svg width="200" height="200" version="1.1" xmlns="http://www.w3.org/2000/svg" desc="Created with imagetracer.js version 1.2.6" ><path fill="rgb(248,248,248)" stroke="rgb(248,248,248)" stroke-width="1" opacity="1" d="M 47.5 22 L 66.5 22 L 70 23.5 L 67.5 24 L 66.5 23 L 47.5 23 L 45.5 24 L 45.5 23 L 47.5 22 Z " /><path fill="rgb(248,248,248)" stroke="rgb(248,248,248)" stroke-width="1" opacity="1" d="M 134.5 22 L 153.5 22 L 157 23.5 L 154.5 24 L 153.5 23 L 134.5 23 L 132.5 24 L 132.5 23 L 134.5 22 Z " /><path fill="rgb(248,248,248)" stroke="rgb(248,248,248)" stroke-width="1" opacity="1" d="M 39.5 25 L 38.5 27 L 33.5 29 L 33.5 28 L 39.5 25 Z " /><path fill="rgb(248,248,248)" stroke="rgb(248,248,248)" stroke-width="1" opacity="1" d="M 125.5 25 L 127 25.5 L 119.5 29 L 120.5 27 L 125.5 25 Z " /><path fill="rgb(248,248,248)" stroke="rgb(248,248,248)" stroke-width="1" opacity="1" d="M 161.5 25 L 168 28.5 L 166.5 29 L 161.5 26 L 161.5 25 Z " /><path fill="rgb(248,248,248)" stroke="rgb(248,248,248)" stroke-width="1" opacity="1" d="M 77.5 26 L 82 28.5 L 80.5 28 Q 76.8 27.7 77.5 26 Z " /><path fill="rgb(248,248,248)" stroke="rgb(248,248,248)" stroke-width="1" opacity="1" d="M 31.5 29 L 28.5 33 L 21 39.5 L 16.5 46 L 17 44.5 L 28.5 31 L 31.5 29 Z " /><path fill="rgb(248,248,248)" stroke="rgb(248,248,248)" stroke-width="1" opacity="1" d="M 83.5 29 L 89 32.5 L 87.5 33 L 83.5 29 Z " /><path fill="rgb(248,248,248)" stroke="rgb(248,248,248)" stroke-width="1" opacity="1" d="M 117.5 29 L 115.5 32 L 112.5 33 L 112.5 32 L 117.5 29 Z " /><path fill="rgb(248,248,248)" stroke="rgb(248,248,248)" stroke-width="1" opacity="1" d="M 169.5 29 L 182 40.5 L 172.5 32 L 169.5 29 Z " /><path fill="rgb(248,248,248)" stroke="rgb(248,248,248)" stroke-width="1" opacity="1" d="M 58.5 31 L 74.5 32 L 92 43.5 L 90.5 43 L 73.5 33 Q 68 30.5 58.5 32 L 45 35.5 L 53 37.5 L 48.5 38 L 42 35.5 L 45.5 33 L 57.5 32 L 58.5 31 Z " /><path fill="rgb(248,248,248)" stroke="rgb(248,248,248)" stroke-width="1" opacity="1" d="M 127.5 31 L 134 31.5 L 127.5 32 L 127.5 31 Z " /><path fill="rgb(248,248,248)" stroke="rgb(248,248,248)" stroke-width="1" opacity="1" d="M 122.5 32 L 126 32.5 L 119.5 35 L 106.5 45 L 99.5 47 L 93 44.5 L 94.5 44 L 95.5 45 L 104.5 45 L 122.5 32 Z " /><path fill="rgb(248,248,248)" stroke="rgb(248,248,248)" stroke-width="1" opacity="1" d="M 135.5 32 L 150.5 33 L 154 35.5 Q 154.9 38.9 149.5 37 L 145.5 38 L 145.5 37 L 152 35.5 L 149.5 34 L 135.5 33 L 135.5 32 Z " /><path fill="rgb(248,248,248)" stroke="rgb(248,248,248)" stroke-width="1" opacity="1" d="M 92.5 34 Q 97.3 36.3 105.5 35 L 108.5 34 L 108.5 35 Q 103.8 37.3 95.5 36 L 92.5 35 L 92.5 34 Z " /><path fill="rgb(248,248,248)" stroke="rgb(248,248,248)" stroke-width="1" opacity="1" d="M 54.5 38 L 57 38.5 L 54.5 39 L 54.5 38 Z " /><path fill="rgb(248,248,248)" stroke="rgb(248,248,248)" stroke-width="1" opacity="1" d="M 58.5 39 L 64.5 40 L 74.5 45 L 91 55.5 L 89.5 56 L 70.5 44 L 60.5 41 L 58.5 39 Z " /><path fill="rgb(248,248,248)" stroke="rgb(248,248,248)" stroke-width="1" opacity="1" d="M 138.5 39 L 140 39.5 L 123.5 48 L 125.5 45 L 138.5 39 Z " /><path fill="rgb(248,248,248)" stroke="rgb(248,248,248)" stroke-width="1" opacity="1" d="M 182.5 42 L 186 46.5 L 184 45.5 L 182.5 42 Z " /><path fill="rgb(248,248,248)" stroke="rgb(248,248,248)" stroke-width="1" opacity="1" d="M 15.5 47 L 15 48.5 L 13.5 52 L 13 50.5 L 15.5 47 Z " /><path fill="rgb(248,248,248)" stroke="rgb(248,248,248)" stroke-width="1" opacity="1" d="M 121.5 48 L 122 50 Q 115.7 51.8 112 57.5 L 106.5 67 L 106 65.5 Q 110.3 55.8 118.5 50 L 121.5 48 Z " /><path fill="rgb(248,248,248)" stroke="rgb(248,248,248)" stroke-width="1" opacity="1" d="M 187.5 50 L 190 57.5 L 189 57.5 L 187.5 50 Z " /><path fill="rgb(248,248,248)" stroke="rgb(248,248,248)" stroke-width="1" opacity="1" d="M 11.5 56 L 12 58.5 L 10 65.5 L 10 74.5 L 12 83.5 L 11 83.5 L 9 75.5 L 9 65.5 L 11.5 56 Z " /><path fill="rgb(248,248,248)" stroke="rgb(248,248,248)" stroke-width="1" opacity="1" d="M 96.5 57 Q 103.5 55.5 103 58.5 L 98.5 68 L 98 65.5 L 102 58.5 L 96.5 58 L 96.5 57 Z " /><path fill="rgb(248,248,248)" stroke="rgb(248,248,248)" stroke-width="1" opacity="1" d="M 191.5 66 L 192 74.5 L 191 74.5 L 191.5 66 Z " /><path fill="rgb(248,248,248)" stroke="rgb(248,248,248)" stroke-width="1" opacity="1" d="M 105.5 68 L 106 69.5 L 103.5 78 L 103 75.5 L 105.5 68 Z " /><path fill="rgb(248,248,248)" stroke="rgb(248,248,248)" stroke-width="1" opacity="1" d="M 97.5 69 L 98 73.5 L 97 75.5 L 98 78 L 102 78.5 L 98.5 79 Q 94.8 77.8 96 71.5 L 97.5 69 Z " /><path fill="rgb(248,248,248)" stroke="rgb(248,248,248)" stroke-width="1" opacity="1" d="M 190.5 80 L 191 81.5 L 188.5 88 L 188 85.5 L 190.5 80 Z " /><path fill="rgb(248,248,248)" stroke="rgb(248,248,248)" stroke-width="1" opacity="1" d="M 14.5 91 L 18 96.5 L 16 95.5 L 14.5 91 Z " /><path fill="rgb(248,248,248)" stroke="rgb(248,248,248)" stroke-width="1" opacity="1" d="M 185.5 93 L 186 94.5 L 183 96.5 L 185.5 93 Z " /><path fill="rgb(248,248,248)" stroke="rgb(248,248,248)" stroke-width="1" opacity="1" d="M 18.5 98 L 20.5 101 L 18.5 98 Z " /><path fill="rgb(248,248,248)" stroke="rgb(248,248,248)" stroke-width="1" opacity="1" d="M 182.5 98 L 181 100.5 Q 181.8 102.8 179.5 102 L 182.5 98 Z " /><path fill="rgb(248,248,248)" stroke="rgb(248,248,248)" stroke-width="1" opacity="1" d="M 23.5 103 L 25 105.5 L 23 104.5 L 23.5 103 Z " /><path fill="rgb(248,248,248)" stroke="rgb(248,248,248)" stroke-width="1" opacity="1" d="M 178.5 103 L 175.5 107 L 169.5 111 L 170.5 109 L 178.5 103 Z " /><path fill="rgb(248,248,248)" stroke="rgb(248,248,248)" stroke-width="1" opacity="1" d="M 26.5 106 L 30 108 L 29.5 110 L 26.5 106 Z " /><path fill="rgb(248,248,248)" stroke="rgb(248,248,248)" stroke-width="1" opacity="1" d="M 31.5 110 L 36 113.5 L 33.5 112 L 31.5 110 Z " /><path fill="rgb(248,248,248)" stroke="rgb(248,248,248)" stroke-width="1" opacity="1" d="M 167.5 111 L 165.5 114 L 167.5 111 Z " /><path fill="rgb(248,248,248)" stroke="rgb(248,248,248)" stroke-width="1" opacity="1" d="M 37.5 114 L 43 122.5 L 42 122.5 L 37.5 114 Z " /><path fill="rgb(248,248,248)" stroke="rgb(248,248,248)" stroke-width="1" opacity="1" d="M 162.5 115 L 162 116.5 L 160.5 119 L 161 117.5 L 162.5 115 Z " /><path fill="rgb(248,248,248)" stroke="rgb(248,248,248)" stroke-width="1" opacity="1" d="M 159.5 120 L 159 121.5 L 157.5 132 L 157 124.5 L 159.5 120 Z " /><path fill="rgb(248,248,248)" stroke="rgb(248,248,248)" stroke-width="1" opacity="1" d="M 97.5 125 Q 102.9 124.1 105 126.5 L 103.5 127 L 98.5 126 Q 92.8 127.3 90.5 132 L 91 130.5 L 92.5 128 L 97.5 125 Z " /><path fill="rgb(248,248,248)" stroke="rgb(248,248,248)" stroke-width="1" opacity="1" d="M 43.5 127 L 44 130.5 L 43 130.5 L 43.5 127 Z " /><path fill="rgb(248,248,248)" stroke="rgb(248,248,248)" stroke-width="1" opacity="1" d="M 107.5 128 L 113 134.5 L 111 133.5 L 107.5 128 Z " /><path fill="rgb(248,248,248)" stroke="rgb(248,248,248)" stroke-width="1" opacity="1" d="M 89.5 133 L 89 134.5 L 87.5 137 L 87 135.5 L 89.5 133 Z " /><path fill="rgb(248,248,248)" stroke="rgb(248,248,248)" stroke-width="1" opacity="1" d="M 156.5 139 L 157 142.5 L 156 142.5 L 156.5 139 Z " /><path fill="rgb(248,248,248)" stroke="rgb(248,248,248)" stroke-width="1" opacity="1" d="M 44.5 141 L 47 151.5 L 46 151.5 L 44.5 141 Z " /><path fill="rgb(248,248,248)" stroke="rgb(248,248,248)" stroke-width="1" opacity="1" d="M 115.5 141 Q 118.7 145.8 117 155.5 L 116 155.5 L 115.5 141 Z " /><path fill="rgb(248,248,248)" stroke="rgb(248,248,248)" stroke-width="1" opacity="1" d="M 84.5 148 L 85 154.5 L 84 155.5 L 84 165.5 L 82.5 172 L 82 166.5 L 83 165.5 L 83 154.5 L 84.5 148 Z " /><path fill="rgb(248,248,248)" stroke="rgb(248,248,248)" stroke-width="1" opacity="1" d="M 154.5 150 L 155 152.5 L 152.5 158 L 152 156.5 L 154.5 150 Z " /><path fill="rgb(248,248,248)" stroke="rgb(248,248,248)" stroke-width="1" opacity="1" d="M 117.5 157 L 118 161.5 L 117 161.5 L 117.5 157 Z " /><path fill="rgb(248,248,248)" stroke="rgb(248,248,248)" stroke-width="1" opacity="1" d="M 49.5 159 L 53 166.5 L 52 166.5 L 49.5 159 Z " /><path fill="rgb(248,248,248)" stroke="rgb(248,248,248)" stroke-width="1" opacity="1" d="M 150.5 162 L 150 163.5 L 148.5 166 L 149 164.5 L 150.5 162 Z " /><path fill="rgb(248,248,248)" stroke="rgb(248,248,248)" stroke-width="1" opacity="1" d="M 54.5 168 L 56 170.5 L 54 169.5 L 54.5 168 Z " /><path fill="rgb(248,248,248)" stroke="rgb(248,248,248)" stroke-width="1" opacity="1" d="M 146.5 169 L 146 170.5 L 142.5 175 L 144 172.5 L 146.5 169 Z " /><path fill="rgb(248,248,248)" stroke="rgb(248,248,248)" stroke-width="1" opacity="1" d="M 118.5 170 L 119 173.5 L 118 173.5 L 118.5 170 Z " /><path fill="rgb(248,248,248)" stroke="rgb(248,248,248)" stroke-width="1" opacity="1" d="M 56.5 172 L 65.5 182 L 70 184.5 L 68.5 185 L 58 175.5 L 56.5 172 Z " /><path fill="rgb(248,248,248)" stroke="rgb(248,248,248)" stroke-width="1" opacity="1" d="M 140 176 L 142 176.5 L 131.5 185 L 131.5 184 L 140 177.5 L 140 176 Z " /><path fill="rgb(248,248,248)" stroke="rgb(248,248,248)" stroke-width="1" opacity="1" d="M 119.5 178 L 123.5 183 L 126 184.5 L 124.5 184 L 119 179.5 L 119.5 178 Z " /><path fill="rgb(248,248,248)" stroke="rgb(248,248,248)" stroke-width="1" opacity="1" d="M 80.5 180 L 77.5 184 L 74.5 185 L 74.5 184 L 80.5 180 Z " /><path fill="rgb(210,210,210)" stroke="rgb(210,210,210)" stroke-width="1" opacity="0.6549019607843137" d="M 52.5 14 L 55 14.5 L 51.5 16 L 52.5 14 Z " /><path fill="rgb(210,210,210)" stroke="rgb(210,210,210)" stroke-width="1" opacity="0.6549019607843137" d="M 60.5 14 L 64 14.5 L 60.5 15 L 60.5 14 Z " /><path fill="rgb(210,210,210)" stroke="rgb(210,210,210)" stroke-width="1" opacity="0.6549019607843137" d="M 145.5 14 Q 150 13 151 15.5 L 149.5 15 Q 144.5 16 145.5 14 Z " /><path fill="rgb(210,210,210)" stroke="rgb(210,210,210)" stroke-width="1" opacity="0.6549019607843137" d="M 78.5 18 L 85 21.5 L 83.5 21 L 78.5 19 L 78.5 18 Z " /><path fill="rgb(210,210,210)" stroke="rgb(210,210,210)" stroke-width="1" opacity="0.6549019607843137" d="M 121.5 18 L 123 18.5 L 120.5 20 L 121.5 18 Z " /><path fill="rgb(210,210,210)" stroke="rgb(210,210,210)" stroke-width="1" opacity="0.6549019607843137" d="M 164.5 18 L 169 20.5 L 167.5 21 L 164.5 18 Z " /><path fill="rgb(210,210,210)" stroke="rgb(210,210,210)" stroke-width="1" opacity="0.6549019607843137" d="M 32.5 20 L 34 20.5 L 30.5 22 L 30.5 21 L 32.5 20 Z " /><path fill="rgb(210,210,210)" stroke="rgb(210,210,210)" stroke-width="1" opacity="0.6549019607843137" d="M 28.5 22 L 26.5 25 L 28.5 22 Z " /><path fill="rgb(210,210,210)" stroke="rgb(210,210,210)" stroke-width="1" opacity="0.6549019607843137" d="M 86.5 22 L 87.5 24 L 86.5 22 Z " /><path fill="rgb(210,210,210)" stroke="rgb(210,210,210)" stroke-width="1" opacity="0.6549019607843137" d="M 111.5 24 L 110.5 26 L 109 25.5 L 111.5 24 Z " /><path fill="rgb(210,210,210)" stroke="rgb(210,210,210)" stroke-width="1" opacity="0.6549019607843137" d="M 98.5 27 L 104 27.5 L 98.5 28 L 98.5 27 Z " /><path fill="rgb(210,210,210)" stroke="rgb(210,210,210)" stroke-width="1" opacity="0.6549019607843137" d="M 181.5 29 L 189 37.5 L 187 36.5 L 181.5 29 Z " /><path fill="rgb(210,210,210)" stroke="rgb(210,210,210)" stroke-width="1" opacity="0.6549019607843137" d="M 13.5 36 L 11.5 39 L 13.5 36 Z " /><path fill="rgb(210,210,210)" stroke="rgb(210,210,210)" stroke-width="1" opacity="0.6549019607843137" d="M 190.5 41 L 194 45.5 L 192 44.5 L 190.5 41 Z " /><path fill="rgb(210,210,210)" stroke="rgb(210,210,210)" stroke-width="1" opacity="0.6549019607843137" d="M 9.5 42 L 9 43.5 L 6.5 48 L 7 46.5 L 9.5 42 Z " /><path fill="rgb(210,210,210)" stroke="rgb(210,210,210)" stroke-width="1" opacity="0.6549019607843137" d="M 3.5 59 L 3 60.5 L 2.5 64 L 2 60.5 L 3.5 59 Z " /><path fill="rgb(210,210,210)" stroke="rgb(210,210,210)" stroke-width="1" opacity="0.6549019607843137" d="M 197.5 84 L 198 85.5 L 196 86.5 L 197.5 84 Z " /><path fill="rgb(210,210,210)" stroke="rgb(210,210,210)" stroke-width="1" opacity="0.6549019607843137" d="M 189.5 101 L 190 102.5 L 188 103.5 L 189.5 101 Z " /><path fill="rgb(210,210,210)" stroke="rgb(210,210,210)" stroke-width="1" opacity="0.6549019607843137" d="M 15.5 106 L 17 108.5 L 16 108.5 L 15.5 106 Z " /><path fill="rgb(210,210,210)" stroke="rgb(210,210,210)" stroke-width="1" opacity="0.6549019607843137" d="M 19.5 110 L 22.5 114 L 19 111.5 L 19.5 110 Z " /><path fill="rgb(210,210,210)" stroke="rgb(210,210,210)" stroke-width="1" opacity="0.6549019607843137" d="M 170.5 118 L 167.5 122 L 170.5 118 Z " /><path fill="rgb(210,210,210)" stroke="rgb(210,210,210)" stroke-width="1" opacity="0.6549019607843137" d="M 166.5 123 L 165.5 125 L 166.5 123 Z " /><path fill="rgb(210,210,210)" stroke="rgb(210,210,210)" stroke-width="1" opacity="0.6549019607843137" d="M 164.5 132 L 165 134.5 L 164 134.5 L 164.5 132 Z " /><path fill="rgb(210,210,210)" stroke="rgb(210,210,210)" stroke-width="1" opacity="0.6549019607843137" d="M 98.5 133 L 97.5 135 L 98.5 133 Z " /><path fill="rgb(210,210,210)" stroke="rgb(210,210,210)" stroke-width="1" opacity="0.6549019607843137" d="M 36.5 134 L 37 139.5 L 36 139.5 L 36.5 134 Z " /><path fill="rgb(210,210,210)" stroke="rgb(210,210,210)" stroke-width="1" opacity="0.6549019607843137" d="M 92.5 145 L 93 148.5 L 92 148.5 L 92.5 145 Z " /><path fill="rgb(210,210,210)" stroke="rgb(210,210,210)" stroke-width="1" opacity="0.6549019607843137" d="M 108.5 151 L 110 153.5 L 109 153.5 L 108.5 151 Z " /><path fill="rgb(210,210,210)" stroke="rgb(210,210,210)" stroke-width="1" opacity="0.6549019607843137" d="M 91.5 158 L 92 162.5 L 90 163.5 L 91.5 158 Z " /><path fill="rgb(210,210,210)" stroke="rgb(210,210,210)" stroke-width="1" opacity="0.6549019607843137" d="M 43.5 164 L 45 166.5 L 43 165.5 L 43.5 164 Z " /><path fill="rgb(210,210,210)" stroke="rgb(210,210,210)" stroke-width="1" opacity="0.6549019607843137" d="M 110.5 164 L 111 167.5 L 110 167.5 L 110.5 164 Z " /><path fill="rgb(210,210,210)" stroke="rgb(210,210,210)" stroke-width="1" opacity="0.6549019607843137" d="M 89.5 174 L 90 177.5 L 89 177.5 L 89.5 174 Z " /><path fill="rgb(210,210,210)" stroke="rgb(210,210,210)" stroke-width="1" opacity="0.6549019607843137" d="M 50.5 176 L 52 178.5 L 51 178.5 L 50.5 176 Z " /><path fill="rgb(210,210,210)" stroke="rgb(210,210,210)" stroke-width="1" opacity="0.6549019607843137" d="M 111.5 176 L 112 178.5 L 111 178.5 L 111.5 176 Z " /><path fill="rgb(210,210,210)" stroke="rgb(210,210,210)" stroke-width="1" opacity="0.6549019607843137" d="M 149.5 178 L 146.5 182 L 149.5 178 Z " /><path fill="rgb(210,210,210)" stroke="rgb(210,210,210)" stroke-width="1" opacity="0.6549019607843137" d="M 55.5 182 L 60.5 188 L 65 190.5 L 63.5 191 L 56 184.5 L 55.5 182 Z " /><path fill="rgb(210,210,210)" stroke="rgb(210,210,210)" stroke-width="1" opacity="0.6549019607843137" d="M 86.5 184 L 85.5 186 L 86.5 184 Z " /><path fill="rgb(210,210,210)" stroke="rgb(210,210,210)" stroke-width="1" opacity="0.6549019607843137" d="M 114.5 185 L 117.5 189 L 114.5 185 Z " /><path fill="rgb(210,210,210)" stroke="rgb(210,210,210)" stroke-width="1" opacity="0.6549019607843137" d="M 84.5 187 L 83.5 189 L 84.5 187 Z " /><path fill="rgb(210,210,210)" stroke="rgb(210,210,210)" stroke-width="1" opacity="0.6549019607843137" d="M 139.5 188 L 138.5 190 L 139.5 188 Z " /><path fill="rgb(210,210,210)" stroke="rgb(210,210,210)" stroke-width="1" opacity="0.6549019607843137" d="M 135.5 190 L 137 190.5 L 134.5 192 L 135.5 190 Z " /><path fill="rgb(210,210,210)" stroke="rgb(210,210,210)" stroke-width="1" opacity="0.6549019607843137" d="M 68.5 192 L 76 192.5 L 68.5 193 L 68.5 192 Z " /><path fill="rgb(210,210,210)" stroke="rgb(210,210,210)" stroke-width="1" opacity="0.6549019607843137" d="M 126.5 192 L 132 192.5 L 126.5 193 L 126.5 192 Z " /><path fill="rgb(213,213,213)" stroke="rgb(213,213,213)" stroke-width="1" opacity="1" d="M 52.5 21 L 63 21.5 L 52.5 22 L 52.5 21 Z " /><path fill="rgb(213,213,213)" stroke="rgb(213,213,213)" stroke-width="1" opacity="1" d="M 138.5 21 L 151 21.5 L 138.5 22 L 138.5 21 Z " /><path fill="rgb(213,213,213)" stroke="rgb(213,213,213)" stroke-width="1" opacity="1" d="M 45.5 22 L 47 22.5 L 40.5 25 L 40.5 24 L 45.5 22 Z " /><path fill="rgb(213,213,213)" stroke="rgb(213,213,213)" stroke-width="1" opacity="1" d="M 67.5 22 Q 74.3 22.3 78 25.5 L 76.5 26 Q 73.5 23 67.5 23 L 67.5 22 Z " /><path fill="rgb(213,213,213)" stroke="rgb(213,213,213)" stroke-width="1" opacity="1" d="M 131.5 22 L 134 22.5 L 126.5 25 L 126.5 24 L 131.5 22 Z " /><path fill="rgb(213,213,213)" stroke="rgb(213,213,213)" stroke-width="1" opacity="1" d="M 154.5 22 L 162 24.5 L 160.5 25 L 154.5 23 L 154.5 22 Z " /><path fill="rgb(213,213,213)" stroke="rgb(213,213,213)" stroke-width="1" opacity="1" d="M 35.5 26 L 34.5 28 L 29.5 31 L 31.5 28 L 35.5 26 Z " /><path fill="rgb(213,213,213)" stroke="rgb(213,213,213)" stroke-width="1" opacity="1" d="M 165.5 26 L 169 28.5 L 167.5 28 L 165.5 26 Z " /><path fill="rgb(213,213,213)" stroke="rgb(213,213,213)" stroke-width="1" opacity="1" d="M 81.5 27 L 93 33.5 L 91.5 34 L 82.5 29 L 81.5 27 Z " /><path fill="rgb(213,213,213)" stroke="rgb(213,213,213)" stroke-width="1" opacity="1" d="M 119.5 27 L 118.5 29 L 116.5 30 L 117.5 28 L 119.5 27 Z " /><path fill="rgb(213,213,213)" stroke="rgb(213,213,213)" stroke-width="1" opacity="1" d="M 170.5 29 L 171.5 31 L 170.5 29 Z " /><path fill="rgb(213,213,213)" stroke="rgb(213,213,213)" stroke-width="1" opacity="1" d="M 114.5 30 L 113.5 32 L 108.5 34 L 108.5 33 L 114.5 30 Z " /><path fill="rgb(213,213,213)" stroke="rgb(213,213,213)" stroke-width="1" opacity="1" d="M 27.5 31 L 20 39.5 L 14.5 48 L 15 46.5 Q 19.3 36.8 27.5 31 Z " /><path fill="rgb(213,213,213)" stroke="rgb(213,213,213)" stroke-width="1" opacity="1" d="M 173.5 31 L 185 43.5 L 182 41.5 L 173.5 31 Z " /><path fill="rgb(213,213,213)" stroke="rgb(213,213,213)" stroke-width="1" opacity="1" d="M 58.5 32 Q 68 30.5 73.5 33 L 87.5 42 Q 92.7 46.3 101.5 47 L 106.5 45 L 123.5 33 L 134.5 32 L 135.5 33 L 149.5 34 L 152 35.5 L 135.5 40 L 125.5 45 L 110 58.5 L 104 70.5 L 103 78 L 98 78 L 98 76.5 L 97 74.5 L 99 65.5 L 103 57 L 91.5 56 L 64.5 40 L 45 35.5 L 58.5 32 Z " /><path fill="rgb(213,213,213)" stroke="rgb(213,213,213)" stroke-width="1" opacity="1" d="M 95.5 34 L 100 34.5 L 95.5 35 L 95.5 34 Z " /><path fill="rgb(213,213,213)" stroke="rgb(213,213,213)" stroke-width="1" opacity="1" d="M 101.5 34 L 106 34.5 L 101.5 35 L 101.5 34 Z " /><path fill="rgb(213,213,213)" stroke="rgb(213,213,213)" stroke-width="1" opacity="1" d="M 186.5 47 L 189 51.5 L 188 51.5 L 186.5 47 Z " /><path fill="rgb(213,213,213)" stroke="rgb(213,213,213)" stroke-width="1" opacity="1" d="M 12.5 51 L 13 52.5 L 10.5 58 L 10 56.5 L 12.5 51 Z " /><path fill="rgb(213,213,213)" stroke="rgb(213,213,213)" stroke-width="1" opacity="1" d="M 191.5 60 Q 194.1 65.9 193 75.5 L 191.5 80 L 191 75.5 L 192 74.5 L 192 66.5 Q 189.4 64.9 191.5 60 Z " /><path fill="rgb(213,213,213)" stroke="rgb(213,213,213)" stroke-width="1" opacity="1" d="M 9.5 61 L 10 64.5 L 9 64.5 L 9.5 61 Z " /><path fill="rgb(213,213,213)" stroke="rgb(213,213,213)" stroke-width="1" opacity="1" d="M 9.5 76 L 10 79.5 L 9 79.5 L 9.5 76 Z " /><path fill="rgb(213,213,213)" stroke="rgb(213,213,213)" stroke-width="1" opacity="1" d="M 10.5 82 L 13 88.5 L 12 88.5 L 10.5 82 Z " /><path fill="rgb(213,213,213)" stroke="rgb(213,213,213)" stroke-width="1" opacity="1" d="M 189.5 86 L 190 87.5 L 186.5 94 L 186 92.5 L 189.5 86 Z " /><path fill="rgb(213,213,213)" stroke="rgb(213,213,213)" stroke-width="1" opacity="1" d="M 14.5 93 L 18 97.5 L 15 95.5 L 14.5 93 Z " /><path fill="rgb(213,213,213)" stroke="rgb(213,213,213)" stroke-width="1" opacity="1" d="M 185.5 95 L 184 97.5 L 181.5 101 L 183 98.5 L 185.5 95 Z " /><path fill="rgb(213,213,213)" stroke="rgb(213,213,213)" stroke-width="1" opacity="1" d="M 18.5 99 L 22.5 104 L 18.5 99 Z " /><path fill="rgb(213,213,213)" stroke="rgb(213,213,213)" stroke-width="1" opacity="1" d="M 179 102 L 181 102.5 L 172.5 110 L 174.5 107 L 179 103.5 L 179 102 Z " /><path fill="rgb(213,213,213)" stroke="rgb(213,213,213)" stroke-width="1" opacity="1" d="M 25.5 106 L 28.5 110 L 25.5 106 Z " /><path fill="rgb(213,213,213)" stroke="rgb(213,213,213)" stroke-width="1" opacity="1" d="M 30.5 110 L 35 113.5 L 33.5 113 L 30.5 110 Z " /><path fill="rgb(213,213,213)" stroke="rgb(213,213,213)" stroke-width="1" opacity="1" d="M 170.5 110 L 168.5 113 L 166.5 114 L 168.5 111 L 170.5 110 Z " /><path fill="rgb(213,213,213)" stroke="rgb(213,213,213)" stroke-width="1" opacity="1" d="M 36.5 114 L 38.5 117 L 36.5 114 Z " /><path fill="rgb(213,213,213)" stroke="rgb(213,213,213)" stroke-width="1" opacity="1" d="M 164.5 114 L 164 115.5 L 160.5 120 L 162 117.5 L 164.5 114 Z " /><path fill="rgb(213,213,213)" stroke="rgb(213,213,213)" stroke-width="1" opacity="1" d="M 41.5 121 L 43 123.5 L 44 139.5 L 43 139.5 L 43 131.5 L 41.5 121 Z " /><path fill="rgb(213,213,213)" stroke="rgb(213,213,213)" stroke-width="1" opacity="1" d="M 158.5 125 L 159 130.5 L 158 130.5 L 158.5 125 Z " /><path fill="rgb(213,213,213)" stroke="rgb(213,213,213)" stroke-width="1" opacity="1" d="M 98.5 126 L 103 126.5 L 98.5 127 L 98.5 126 Z " /><path fill="rgb(213,213,213)" stroke="rgb(213,213,213)" stroke-width="1" opacity="1" d="M 95.5 127 L 90.5 133 L 95.5 127 Z " /><path fill="rgb(213,213,213)" stroke="rgb(213,213,213)" stroke-width="1" opacity="1" d="M 104.5 127 L 111 132.5 L 105.5 128 L 104.5 127 Z " /><path fill="rgb(213,213,213)" stroke="rgb(213,213,213)" stroke-width="1" opacity="1" d="M 157.5 132 L 158 143.5 L 156.5 147 L 156 143.5 L 157 142.5 L 157.5 132 Z " /><path fill="rgb(213,213,213)" stroke="rgb(213,213,213)" stroke-width="1" opacity="1" d="M 111.5 134 L 114 138.5 L 113 138.5 L 111.5 134 Z " /><path fill="rgb(213,213,213)" stroke="rgb(213,213,213)" stroke-width="1" opacity="1" d="M 88.5 136 L 88 137.5 L 85.5 149 L 85 143.5 L 88.5 136 Z " /><path fill="rgb(213,213,213)" stroke="rgb(213,213,213)" stroke-width="1" opacity="1" d="M 44.5 144 L 45 146.5 L 44 146.5 L 44.5 144 Z " /><path fill="rgb(213,213,213)" stroke="rgb(213,213,213)" stroke-width="1" opacity="1" d="M 115.5 145 L 116 150.5 L 115 150.5 L 115.5 145 Z " /><path fill="rgb(213,213,213)" stroke="rgb(213,213,213)" stroke-width="1" opacity="1" d="M 45.5 150 L 49 159.5 L 48 159.5 L 45.5 150 Z " /><path fill="rgb(213,213,213)" stroke="rgb(213,213,213)" stroke-width="1" opacity="1" d="M 84.5 155 L 85 160.5 L 84 160.5 L 84.5 155 Z " /><path fill="rgb(213,213,213)" stroke="rgb(213,213,213)" stroke-width="1" opacity="1" d="M 116.5 156 L 118 162.5 L 118 172.5 L 117 172.5 L 116.5 156 Z " /><path fill="rgb(213,213,213)" stroke="rgb(213,213,213)" stroke-width="1" opacity="1" d="M 153.5 156 L 154 157.5 L 151.5 162 L 152 160.5 L 153.5 156 Z " /><path fill="rgb(213,213,213)" stroke="rgb(213,213,213)" stroke-width="1" opacity="1" d="M 50.5 163 L 52 165.5 L 50 164.5 L 50.5 163 Z " /><path fill="rgb(213,213,213)" stroke="rgb(213,213,213)" stroke-width="1" opacity="1" d="M 149.5 165 L 150 166.5 L 146.5 171 L 147 169.5 L 149.5 165 Z " /><path fill="rgb(213,213,213)" stroke="rgb(213,213,213)" stroke-width="1" opacity="1" d="M 83.5 166 L 84 172.5 Q 81.7 173.8 83 178.5 L 78.5 184 L 81 180.5 L 83.5 166 Z " /><path fill="rgb(213,213,213)" stroke="rgb(213,213,213)" stroke-width="1" opacity="1" d="M 52.5 167 L 58 174.5 L 55 172.5 L 52.5 167 Z " /><path fill="rgb(213,213,213)" stroke="rgb(213,213,213)" stroke-width="1" opacity="1" d="M 145.5 172 L 142.5 176 L 145.5 172 Z " /><path fill="rgb(213,213,213)" stroke="rgb(213,213,213)" stroke-width="1" opacity="1" d="M 118.5 174 L 119 177.5 L 118 177.5 L 118.5 174 Z " /><path fill="rgb(213,213,213)" stroke="rgb(213,213,213)" stroke-width="1" opacity="1" d="M 59.5 177 L 65.5 184 L 59.5 177 Z " /><path fill="rgb(213,213,213)" stroke="rgb(213,213,213)" stroke-width="1" opacity="1" d="M 141.5 177 L 135.5 184 L 133.5 185 L 134.5 183 L 141.5 177 Z " /><path fill="rgb(213,213,213)" stroke="rgb(213,213,213)" stroke-width="1" opacity="1" d="M 120.5 181 L 122.5 184 L 120.5 181 Z " /><path fill="rgb(213,213,213)" stroke="rgb(213,213,213)" stroke-width="1" opacity="1" d="M 70.5 185 L 74 185.5 L 70.5 186 L 70.5 185 Z " /><path fill="rgb(213,213,213)" stroke="rgb(213,213,213)" stroke-width="1" opacity="1" d="M 126.5 185 L 132 185.5 L 126.5 186 L 126.5 185 Z " /><path fill="rgb(255,255,255)" stroke="rgb(255,255,255)" stroke-width="1" opacity="1" d="M 47.5 23 L 66.5 23 L 71.5 24 L 92.5 35 Q 97.3 37.3 105.5 36 L 130.5 24 L 134.5 23 L 153.5 23 L 158.5 24 L 168.5 29 L 182 41.5 L 187 49.5 L 191 61.5 L 191 79.5 L 186 92.5 L 175.5 106 L 161 116.5 L 157 124.5 L 156 146.5 L 151 161.5 L 142 176 Q 139.3 174.9 140 177.5 L 132.5 184 L 126.5 185 L 120 179.5 L 118 169.5 L 117 144.5 L 112 132.5 L 107.5 128 Q 104.9 124.1 97.5 125 L 91 129.5 L 87 135.5 L 85 142.5 L 85 147.5 L 83 154.5 L 82 176.5 L 77.5 183 L 70.5 185 L 60 176.5 L 55 168 Q 52 169.3 53 165.5 L 48 156.5 L 46 144.5 L 44 140.5 L 43 121.5 L 37.5 114 L 30 110 Q 31.1 107.3 28.5 108 L 24 104.5 Q 24.8 102.3 22.5 103 L 13 88.5 L 10 74.5 L 10 65.5 L 12 55.5 L 16 46.5 L 27.5 33 L 32.5 29 L 47.5 23 Z M 59 31 L 58 32 L 46 33 L 42 36 L 44 37 L 54 38 L 67 42 L 90 56 L 102 59 L 99 63 Q 99 69 96 72 Q 95 78 99 79 L 104 78 L 106 68 L 112 58 L 121 50 Q 123 51 122 48 L 141 39 L 150 37 Q 155 39 154 36 L 151 33 L 135 32 L 134 31 L 123 32 L 105 45 L 93 44 L 75 32 L 59 31 Z " /><path fill="rgb(156,156,156)" stroke="rgb(156,156,156)" stroke-width="1" opacity="0.9725490196078431" d="M 48.5 16 L 67.5 16 L 72.5 17 L 94.5 28 L 103.5 29 L 128.5 17 L 132.5 16 L 153.5 16 Q 175.3 21.2 187 36.5 L 196 53.5 L 198 61.5 L 198 78.5 L 198 80.5 L 196 83.5 L 194 92.5 L 190 99.5 L 180.5 111 L 166 121.5 L 164 126.5 Q 165.8 139.3 162 146.5 L 163 148.5 L 154 170.5 L 140.5 187 L 136.5 190 L 128.5 192 L 125.5 191 L 123 192 Q 124.1 189.3 121.5 190 L 114 183.5 L 111 171.5 L 110 146.5 L 108 144.5 L 109 141.5 L 103.5 133 L 99.5 132 L 95 135.5 Q 91.4 140.9 91 149.5 L 92 153.5 L 90 156.5 L 89 177.5 Q 86.9 184.9 81.5 189 L 72.5 192 L 62.5 189 L 57 183.5 Q 44.1 171 40 151 L 38 150.5 L 39 145.5 L 37 141.5 L 38 139.5 L 37 138.5 L 36 123.5 L 32.5 119 L 17 107.5 L 11 99.5 L 5 86.5 L 4 74.5 Q 1.2 72.8 2 67.5 L 4 64.5 L 5 53.5 L 10 42.5 L 24.5 26 L 40.5 18 L 48.5 16 Z M 51 21 L 42 23 L 29 30 Q 17 39 11 53 L 9 61 L 9 71 L 8 72 L 11 88 L 19 102 Q 25 109 34 113 L 41 121 L 43 144 L 46 156 L 52 169 L 58 177 L 69 186 L 78 185 L 83 180 L 86 146 L 88 138 L 91 133 L 98 127 L 106 128 Q 113 133 115 144 L 117 176 L 120 183 L 129 187 L 136 184 L 145 175 L 154 159 L 158 145 L 159 124 L 161 120 L 181 103 Q 180 100 183 101 L 189 91 L 193 78 L 193 64 L 190 53 L 181 38 L 178 35 L 176 32 L 161 23 L 152 21 L 137 21 L 128 23 L 107 34 Q 97 36 92 33 L 83 27 L 71 22 L 51 21 Z " /><path fill="rgb(181,181,181)" stroke="rgb(181,181,181)" stroke-width="1" opacity="0.792156862745098" d="M 55.5 14 L 66 15.5 L 52.5 16 L 52.5 15 L 55.5 14 Z " /><path fill="rgb(181,181,181)" stroke="rgb(181,181,181)" stroke-width="1" opacity="0.792156862745098" d="M 139.5 14 L 150 15.5 L 135.5 16 L 135.5 15 L 139.5 14 Z " /><path fill="rgb(181,181,181)" stroke="rgb(181,181,181)" stroke-width="1" opacity="0.792156862745098" d="M 68.5 16 L 71 16.5 L 68.5 17 L 68.5 16 Z " /><path fill="rgb(181,181,181)" stroke="rgb(181,181,181)" stroke-width="1" opacity="0.792156862745098" d="M 38.5 18 L 40 18.5 L 34.5 21 L 35.5 19 L 38.5 18 Z " /><path fill="rgb(181,181,181)" stroke="rgb(181,181,181)" stroke-width="1" opacity="0.792156862745098" d="M 76.5 18 L 80 19.5 L 78.5 20 L 76.5 18 Z " /><path fill="rgb(181,181,181)" stroke="rgb(181,181,181)" stroke-width="1" opacity="0.792156862745098" d="M 123.5 18 L 125 18.5 L 121.5 20 L 121.5 19 L 123.5 18 Z " /><path fill="rgb(181,181,181)" stroke="rgb(181,181,181)" stroke-width="1" opacity="0.792156862745098" d="M 161.5 18 L 165 19.5 L 163.5 19 Q 160.5 19.5 161.5 18 Z " /><path fill="rgb(181,181,181)" stroke="rgb(181,181,181)" stroke-width="1" opacity="0.792156862745098" d="M 168.5 21 L 174 24.5 L 171.5 23 Q 167.8 22.7 168.5 21 Z " /><path fill="rgb(181,181,181)" stroke="rgb(181,181,181)" stroke-width="1" opacity="0.792156862745098" d="M 29.5 22 L 31 22.5 L 27.5 25 L 29.5 22 Z " /><path fill="rgb(181,181,181)" stroke="rgb(181,181,181)" stroke-width="1" opacity="0.792156862745098" d="M 85.5 22 L 86.5 24 L 85.5 22 Z " /><path fill="rgb(181,181,181)" stroke="rgb(181,181,181)" stroke-width="1" opacity="0.792156862745098" d="M 115.5 22 L 113.5 25 L 112 24.5 L 115.5 22 Z " /><path fill="rgb(181,181,181)" stroke="rgb(181,181,181)" stroke-width="1" opacity="0.792156862745098" d="M 175.5 25 L 187 35.5 L 179.5 29 L 175.5 25 Z " /><path fill="rgb(181,181,181)" stroke="rgb(181,181,181)" stroke-width="1" opacity="0.792156862745098" d="M 23.5 26 L 14.5 36 L 23.5 26 Z " /><path fill="rgb(181,181,181)" stroke="rgb(181,181,181)" stroke-width="1" opacity="0.792156862745098" d="M 108.5 26 L 107.5 28 L 97.5 29 L 94 27.5 L 97.5 27 Q 98.8 29.3 103.5 28 L 108.5 26 Z " /><path fill="rgb(181,181,181)" stroke="rgb(181,181,181)" stroke-width="1" opacity="0.792156862745098" d="M 178.5 35 L 180.5 38 L 178.5 35 Z " /><path fill="rgb(181,181,181)" stroke="rgb(181,181,181)" stroke-width="1" opacity="0.792156862745098" d="M 13.5 37 L 12 39.5 L 10.5 42 L 11 40.5 L 13.5 37 Z " /><path fill="rgb(181,181,181)" stroke="rgb(181,181,181)" stroke-width="1" opacity="0.792156862745098" d="M 187.5 37 L 188.5 39 L 187.5 37 Z " /><path fill="rgb(181,181,181)" stroke="rgb(181,181,181)" stroke-width="1" opacity="0.792156862745098" d="M 190.5 42 L 191.5 44 L 190.5 42 Z " /><path fill="rgb(181,181,181)" stroke="rgb(181,181,181)" stroke-width="1" opacity="0.792156862745098" d="M 192.5 45 L 194 47.5 L 193 47.5 L 192.5 45 Z " /><path fill="rgb(181,181,181)" stroke="rgb(181,181,181)" stroke-width="1" opacity="0.792156862745098" d="M 7.5 47 L 7 48.5 L 6.5 51 L 6 48.5 L 7.5 47 Z " /><path fill="rgb(181,181,181)" stroke="rgb(181,181,181)" stroke-width="1" opacity="0.792156862745098" d="M 196.5 54 L 198 60.5 L 197 60.5 L 196.5 54 Z " /><path fill="rgb(181,181,181)" stroke="rgb(181,181,181)" stroke-width="1" opacity="0.792156862745098" d="M 3.5 60 L 4 64.5 L 2.5 67 L 2 64.5 L 3.5 60 Z " /><path fill="rgb(181,181,181)" stroke="rgb(181,181,181)" stroke-width="1" opacity="0.792156862745098" d="M 198.5 63 L 199 76.5 L 198 76.5 L 198.5 63 Z " /><path fill="rgb(181,181,181)" stroke="rgb(181,181,181)" stroke-width="1" opacity="0.792156862745098" d="M 2.5 72 Q 4.9 74.1 4 79.5 L 3 79.5 L 2.5 72 Z " /><path fill="rgb(181,181,181)" stroke="rgb(181,181,181)" stroke-width="1" opacity="0.792156862745098" d="M 197.5 82 L 198 83.5 L 196.5 86 L 196 83.5 L 197.5 82 Z " /><path fill="rgb(181,181,181)" stroke="rgb(181,181,181)" stroke-width="1" opacity="0.792156862745098" d="M 195 87 L 197 87.5 L 195 88.5 L 195 87 Z " /><path fill="rgb(181,181,181)" stroke="rgb(181,181,181)" stroke-width="1" opacity="0.792156862745098" d="M 6.5 89 L 9 94.5 L 8 94.5 Q 5 92.7 6.5 89 Z " /><path fill="rgb(181,181,181)" stroke="rgb(181,181,181)" stroke-width="1" opacity="0.792156862745098" d="M 193.5 93 L 193 94.5 Q 193.5 98.5 190.5 99 L 191 97.5 L 193.5 93 Z " /><path fill="rgb(181,181,181)" stroke="rgb(181,181,181)" stroke-width="1" opacity="0.792156862745098" d="M 16.5 97 L 17.5 99 L 16.5 97 Z " /><path fill="rgb(181,181,181)" stroke="rgb(181,181,181)" stroke-width="1" opacity="0.792156862745098" d="M 10.5 98 L 13 101.5 L 10 99.5 L 10.5 98 Z " /><path fill="rgb(181,181,181)" stroke="rgb(181,181,181)" stroke-width="1" opacity="0.792156862745098" d="M 183.5 99 L 182.5 101 L 183.5 99 Z " /><path fill="rgb(181,181,181)" stroke="rgb(181,181,181)" stroke-width="1" opacity="0.792156862745098" d="M 189.5 100 L 189 101.5 L 179.5 113 L 171.5 118 L 172.5 116 L 183 108.5 L 189.5 100 Z " /><path fill="rgb(181,181,181)" stroke="rgb(181,181,181)" stroke-width="1" opacity="0.792156862745098" d="M 19.5 101 L 22.5 105 L 19.5 101 Z " /><path fill="rgb(181,181,181)" stroke="rgb(181,181,181)" stroke-width="1" opacity="0.792156862745098" d="M 13.5 103 L 16.5 107 L 13.5 103 Z " /><path fill="rgb(181,181,181)" stroke="rgb(181,181,181)" stroke-width="1" opacity="0.792156862745098" d="M 24.5 106 L 25.5 108 L 24.5 106 Z " /><path fill="rgb(181,181,181)" stroke="rgb(181,181,181)" stroke-width="1" opacity="0.792156862745098" d="M 17.5 108 L 18.5 110 L 17.5 108 Z " /><path fill="rgb(181,181,181)" stroke="rgb(181,181,181)" stroke-width="1" opacity="0.792156862745098" d="M 171.5 110 L 170.5 112 L 171.5 110 Z " /><path fill="rgb(181,181,181)" stroke="rgb(181,181,181)" stroke-width="1" opacity="0.792156862745098" d="M 21.5 111 L 30 117.5 L 28.5 118 L 21.5 111 Z " /><path fill="rgb(181,181,181)" stroke="rgb(181,181,181)" stroke-width="1" opacity="0.792156862745098" d="M 35.5 114 L 39.5 119 L 35.5 114 Z " /><path fill="rgb(181,181,181)" stroke="rgb(181,181,181)" stroke-width="1" opacity="0.792156862745098" d="M 165.5 114 L 164.5 116 L 165.5 114 Z " /><path fill="rgb(181,181,181)" stroke="rgb(181,181,181)" stroke-width="1" opacity="0.792156862745098" d="M 169.5 118 L 167 121.5 L 165.5 124 L 166 122.5 L 169.5 118 Z " /><path fill="rgb(181,181,181)" stroke="rgb(181,181,181)" stroke-width="1" opacity="0.792156862745098" d="M 32.5 119 L 34.5 122 L 32.5 119 Z " /><path fill="rgb(181,181,181)" stroke="rgb(181,181,181)" stroke-width="1" opacity="0.792156862745098" d="M 164.5 126 L 165 131.5 L 164 131.5 L 164.5 126 Z " /><path fill="rgb(181,181,181)" stroke="rgb(181,181,181)" stroke-width="1" opacity="0.792156862745098" d="M 36.5 127 L 37 133.5 L 36 133.5 L 36.5 127 Z " /><path fill="rgb(181,181,181)" stroke="rgb(181,181,181)" stroke-width="1" opacity="0.792156862745098" d="M 42.5 131 L 43 135.5 L 42 135.5 L 42.5 131 Z " /><path fill="rgb(181,181,181)" stroke="rgb(181,181,181)" stroke-width="1" opacity="0.792156862745098" d="M 158.5 131 L 159 133.5 L 158 133.5 L 158.5 131 Z " /><path fill="rgb(181,181,181)" stroke="rgb(181,181,181)" stroke-width="1" opacity="0.792156862745098" d="M 99.5 132 L 105 134.5 L 106 136.5 L 101.5 133 Q 98.5 133.5 99.5 132 Z " /><path fill="rgb(181,181,181)" stroke="rgb(181,181,181)" stroke-width="1" opacity="0.792156862745098" d="M 97.5 133 L 97 134.5 L 94.5 138 L 95 136.5 L 97.5 133 Z " /><path fill="rgb(181,181,181)" stroke="rgb(181,181,181)" stroke-width="1" opacity="0.792156862745098" d="M 43.5 140 L 44 143.5 L 43 143.5 L 43.5 140 Z " /><path fill="rgb(181,181,181)" stroke="rgb(181,181,181)" stroke-width="1" opacity="0.792156862745098" d="M 107.5 140 L 109 143.5 L 108 143.5 L 107.5 140 Z " /><path fill="rgb(181,181,181)" stroke="rgb(181,181,181)" stroke-width="1" opacity="0.792156862745098" d="M 163.5 141 L 164 144.5 L 163 144.5 L 163.5 141 Z " /><path fill="rgb(181,181,181)" stroke="rgb(181,181,181)" stroke-width="1" opacity="0.792156862745098" d="M 92.5 142 L 93 144.5 L 92 144.5 L 92.5 142 Z " /><path fill="rgb(181,181,181)" stroke="rgb(181,181,181)" stroke-width="1" opacity="0.792156862745098" d="M 37.5 144 Q 39.8 144.8 39 148.5 L 38 148.5 L 37.5 144 Z " /><path fill="rgb(181,181,181)" stroke="rgb(181,181,181)" stroke-width="1" opacity="0.792156862745098" d="M 108.5 145 Q 111.3 146.3 110 151.5 L 109 151.5 L 108.5 145 Z " /><path fill="rgb(181,181,181)" stroke="rgb(181,181,181)" stroke-width="1" opacity="0.792156862745098" d="M 91.5 146 L 92 149.5 L 91 149.5 L 91.5 146 Z " /><path fill="rgb(181,181,181)" stroke="rgb(181,181,181)" stroke-width="1" opacity="0.792156862745098" d="M 156.5 147 L 157 149.5 L 156 149.5 L 156.5 147 Z " /><path fill="rgb(181,181,181)" stroke="rgb(181,181,181)" stroke-width="1" opacity="0.792156862745098" d="M 162.5 149 L 163 150.5 L 160.5 156 L 160 154.5 L 162.5 149 Z " /><path fill="rgb(181,181,181)" stroke="rgb(181,181,181)" stroke-width="1" opacity="0.792156862745098" d="M 91.5 154 L 92 157.5 L 90.5 163 L 90 156.5 L 91.5 154 Z " /><path fill="rgb(181,181,181)" stroke="rgb(181,181,181)" stroke-width="1" opacity="0.792156862745098" d="M 41.5 158 L 44 163.5 L 42 162.5 L 41.5 158 Z " /><path fill="rgb(181,181,181)" stroke="rgb(181,181,181)" stroke-width="1" opacity="0.792156862745098" d="M 110.5 158 L 111 163.5 L 110 163.5 L 110.5 158 Z " /><path fill="rgb(181,181,181)" stroke="rgb(181,181,181)" stroke-width="1" opacity="0.792156862745098" d="M 157.5 163 L 158 164.5 L 156 165.5 L 157.5 163 Z " /><path fill="rgb(181,181,181)" stroke="rgb(181,181,181)" stroke-width="1" opacity="0.792156862745098" d="M 45.5 167 L 48 170.5 L 46 169.5 L 45.5 167 Z " /><path fill="rgb(181,181,181)" stroke="rgb(181,181,181)" stroke-width="1" opacity="0.792156862745098" d="M 89.5 168 L 90 173.5 L 89 173.5 L 89.5 168 Z " /><path fill="rgb(181,181,181)" stroke="rgb(181,181,181)" stroke-width="1" opacity="0.792156862745098" d="M 153.5 171 L 153 172.5 L 150.5 176 L 151 174.5 L 153.5 171 Z " /><path fill="rgb(181,181,181)" stroke="rgb(181,181,181)" stroke-width="1" opacity="0.792156862745098" d="M 111.5 172 L 112 175.5 L 111 175.5 L 111.5 172 Z " /><path fill="rgb(181,181,181)" stroke="rgb(181,181,181)" stroke-width="1" opacity="0.792156862745098" d="M 117.5 173 L 118 175.5 L 117 175.5 L 117.5 173 Z " /><path fill="rgb(181,181,181)" stroke="rgb(181,181,181)" stroke-width="1" opacity="0.792156862745098" d="M 49.5 174 L 51.5 177 L 49.5 174 Z " /><path fill="rgb(181,181,181)" stroke="rgb(181,181,181)" stroke-width="1" opacity="0.792156862745098" d="M 144.5 174 L 142.5 177 L 144.5 174 Z " /><path fill="rgb(181,181,181)" stroke="rgb(181,181,181)" stroke-width="1" opacity="0.792156862745098" d="M 149.5 177 L 146 181.5 L 144.5 184 L 144 182.5 L 149.5 177 Z " /><path fill="rgb(181,181,181)" stroke="rgb(181,181,181)" stroke-width="1" opacity="0.792156862745098" d="M 52.5 178 L 56.5 183 L 52.5 178 Z " /><path fill="rgb(181,181,181)" stroke="rgb(181,181,181)" stroke-width="1" opacity="0.792156862745098" d="M 112.5 178 L 114 182.5 L 112 181.5 L 112.5 178 Z " /><path fill="rgb(181,181,181)" stroke="rgb(181,181,181)" stroke-width="1" opacity="0.792156862745098" d="M 87.5 181 L 88 184 L 85.5 185 L 87 182.5 L 87.5 181 Z " /><path fill="rgb(181,181,181)" stroke="rgb(181,181,181)" stroke-width="1" opacity="0.792156862745098" d="M 120.5 182 L 121.5 184 L 120.5 182 Z " /><path fill="rgb(181,181,181)" stroke="rgb(181,181,181)" stroke-width="1" opacity="0.792156862745098" d="M 114.5 184 L 118.5 189 L 114.5 184 Z " /><path fill="rgb(181,181,181)" stroke="rgb(181,181,181)" stroke-width="1" opacity="0.792156862745098" d="M 59.5 186 L 60.5 188 L 59.5 186 Z " /><path fill="rgb(181,181,181)" stroke="rgb(181,181,181)" stroke-width="1" opacity="0.792156862745098" d="M 84.5 186 L 82.5 189 L 84.5 186 Z " /><path fill="rgb(181,181,181)" stroke="rgb(181,181,181)" stroke-width="1" opacity="0.792156862745098" d="M 141.5 186 L 140.5 188 L 137.5 190 L 139.5 187 L 141.5 186 Z " /><path fill="rgb(181,181,181)" stroke="rgb(181,181,181)" stroke-width="1" opacity="0.792156862745098" d="M 65.5 190 L 72 191.5 L 66.5 192 L 65.5 190 Z " /><path fill="rgb(181,181,181)" stroke="rgb(181,181,181)" stroke-width="1" opacity="0.792156862745098" d="M 77.5 190 L 79 190.5 Q 78 193 73.5 192 L 73.5 191 L 77.5 190 Z " /><path fill="rgb(181,181,181)" stroke="rgb(181,181,181)" stroke-width="1" opacity="0.792156862745098" d="M 133.5 190 L 135 190.5 Q 134.3 192.8 130.5 192 L 130.5 191 L 133.5 190 Z " /><path fill="rgb(181,181,181)" stroke="rgb(181,181,181)" stroke-width="1" opacity="0.792156862745098" d="M 125.5 191 L 128 191.5 L 125.5 192 L 125.5 191 Z " /><path fill="rgb(0,0,0)" stroke="rgb(0,0,0)" stroke-width="1" opacity="0" d="M 0 0 L 199.5 0 L 200 0.5 L 200 58.5 L 199 58.5 L 195 44.5 Q 190.8 41.7 190 35.5 L 181.5 27 L 171.5 20 L 162.5 16 L 152.5 15 L 148.5 13 L 137.5 13 L 134.5 15 L 127.5 15 L 120.5 17 L 113 21.5 Q 113.8 24.1 110.5 23 Q 106.3 27.3 96.5 26 L 80.5 17 L 73.5 15 L 66.5 15 L 63.5 13 L 57.5 13 L 56.5 14 L 38.5 16 L 21 25.5 L 19.5 28 L 16 30.5 L 14.5 33 L 12 34.5 L 7 42.5 L 7 45 Q 3.7 43.7 5 48.5 Q 2.2 51.2 3 57.5 L 1 59.5 L 1 79.5 L 8 99.5 L 18.5 113 L 21.5 115 Q 29.3 118.3 34 124.5 L 35 126.5 L 35 141.5 Q 37.3 142.8 36 147.5 L 38 150.5 L 39 159.5 Q 42.7 162.3 43 168.5 L 49 176.5 L 49 179 Q 51.7 177.9 51 180.5 L 55 183 L 55 185.5 L 59.5 190 L 67.5 194 L 77.5 194 Q 80.2 189.4 86 190 L 86 187.5 L 91 179.5 L 92 151 L 94 150.5 L 94 143.5 L 97.5 137 L 100 135.5 L 100.5 134 L 104 137.5 L 108 145.5 L 110 179.5 L 113 186.5 L 116.5 190 L 125.5 194 L 133.5 194 Q 144.9 189.4 151 179.5 L 154.5 173 Q 157.1 173.8 156 170.5 L 161 162.5 L 162 155.5 L 164 153.5 L 166 126.5 L 171.5 120 L 175 119 Q 173.9 116.3 176.5 117 L 184 112 L 191 103.5 L 197 91.5 L 197 88.5 L 199 86.5 L 199.5 81 L 200 200 L 0 200 L 0 0 Z " /><path fill="rgb(202,202,202)" stroke="rgb(202,202,202)" stroke-width="1" opacity="0.1843137254901961" d="M 57.5 13 L 63.5 13 L 66.5 15 L 77.5 16 L 96.5 26 L 104.5 26 L 113 23 L 114.5 20 L 127.5 15 Q 134.9 16.4 137.5 13 L 148.5 13 L 148.5 14 L 137.5 14 Q 135.2 17.2 128.5 16 L 121.5 18 L 106.5 27 L 95.5 27 L 79.5 18 L 72.5 16 L 66.5 16 L 63.5 14 L 57.5 14 L 57.5 13 Z " /><path fill="rgb(202,202,202)" stroke="rgb(202,202,202)" stroke-width="1" opacity="0.1843137254901961" d="M 49.5 14 L 52 14.5 L 50.5 16 L 40.5 17 L 28.5 22 L 11 38.5 L 6 47.5 L 4 58.5 L 2 60.5 L 2 78.5 L 4 81.5 L 5 89.5 L 9 95.5 L 9 98.5 L 15 105.5 L 16 109 L 19 110.5 L 20.5 113 L 30.5 118 L 34 121.5 L 36 125.5 L 37 147.5 L 39 149.5 L 37 150 L 35 141.5 L 35 126.5 L 28.5 119 L 20 115 Q 21.1 112.3 18.5 113 L 8 99.5 Q 7.7 93.3 4 90.5 L 3 82.5 L 1 79.5 L 1 59.5 L 3 57.5 L 3 52.5 L 5 45 Q 8 46.3 7 42.5 L 13.5 33 L 16 31.5 L 18.5 28 L 21 26.5 L 22.5 24 L 38.5 16 L 49.5 14 Z " /><path fill="rgb(202,202,202)" stroke="rgb(202,202,202)" stroke-width="1" opacity="0.1843137254901961" d="M 150.5 14 L 162.5 16 L 171.5 20 Q 182.3 26.3 190 35.5 L 191 39.5 L 196 46.5 L 197 53.5 L 200 59.5 L 200 80.5 Q 197.7 81.8 199 86.5 L 197 88.5 L 197 91.5 L 191 103.5 L 184 112 L 175 117 Q 176.1 119.7 173.5 119 L 170 121.5 L 166 126.5 L 164 153.5 L 162 155.5 L 161 162.5 L 156 170.5 L 156 173 L 153 174.5 L 151 179.5 L 139.5 191 L 133.5 194 L 125.5 194 Q 117.2 192.3 113 186.5 L 110 179.5 L 109 155.5 L 108 152.5 L 109 152.5 L 110 154.5 L 111 178.5 Q 112.5 185.5 117.5 189 L 120 189 Q 118.8 192 122.5 191 Q 125.2 193.8 131.5 193 Q 138.5 191.4 142 186.5 Q 141.3 184.3 143.5 185 L 150 178.5 L 150 176 Q 152.7 177.1 152 174.5 L 163 152.5 L 165 125.5 L 171.5 118 L 183 111 L 187.5 104 L 190 102.5 L 198 85.5 L 199 61.5 L 193 43.5 L 188 35.5 L 181.5 29 L 164.5 18 L 151.5 16 L 150.5 14 Z " /><path fill="rgb(202,202,202)" stroke="rgb(202,202,202)" stroke-width="1" opacity="0.1843137254901961" d="M 99.5 133 Q 104.5 132.5 105 136.5 L 108 144.5 L 106 143.5 Q 105.1 136.9 100.5 134 L 98.5 137 L 96 138.5 L 94 143.5 L 94 151 Q 91.3 152.1 92 149.5 L 95 137.5 L 99.5 133 Z " /><path fill="rgb(202,202,202)" stroke="rgb(202,202,202)" stroke-width="1" opacity="0.1843137254901961" d="M 108.5 148 L 109 150.5 L 108 150.5 L 108.5 148 Z " /><path fill="rgb(202,202,202)" stroke="rgb(202,202,202)" stroke-width="1" opacity="0.1843137254901961" d="M 38.5 151 L 43 165.5 L 46 168.5 L 51 179 L 55 181.5 L 60.5 189 L 68.5 193 L 75.5 193 L 85 187.5 L 89 181.5 L 90 165.5 L 91.5 163 L 92 164.5 L 91 165.5 L 91 179.5 L 86 187.5 L 86 190 Q 80.2 189.4 77.5 194 L 67.5 194 Q 59.5 191.5 55 185.5 Q 56.1 182.2 53.5 183 L 51 179 Q 48 180.3 49 176.5 L 43 168.5 Q 42.7 162.3 39 159.5 L 38.5 151 Z " /></svg>