<svg width="200" height="200" version="1.1" xmlns="http://www.w3.org/2000/svg" desc="Created with imagetracer.js version 1.2.6" ><path fill="rgb(7,164,231)" stroke="rgb(7,164,231)" stroke-width="1" opacity="0.7019607843137254" d="M 76.5 4 L 95 4.5 L 76.5 5 L 76.5 4 Z " /><path fill="rgb(7,164,231)" stroke="rgb(7,164,231)" stroke-width="1" opacity="0.7019607843137254" d="M 69.5 5 L 73 5.5 L 69.5 6 L 69.5 5 Z " /><path fill="rgb(7,164,231)" stroke="rgb(7,164,231)" stroke-width="1" opacity="0.7019607843137254" d="M 100.5 5 L 104 5.5 L 100.5 6 L 100.5 5 Z " /><path fill="rgb(7,164,231)" stroke="rgb(7,164,231)" stroke-width="1" opacity="0.7019607843137254" d="M 65.5 6 L 68 6.5 L 63.5 9 L 62 8.5 L 65.5 6 Z " /><path fill="rgb(7,164,231)" stroke="rgb(7,164,231)" stroke-width="1" opacity="0.7019607843137254" d="M 105.5 6 L 109 6.5 Q 107.8 9.3 106.5 7 L 105.5 6 Z " /><path fill="rgb(7,164,231)" stroke="rgb(7,164,231)" stroke-width="1" opacity="0.7019607843137254" d="M 111.5 8 L 118 10.5 L 115.5 11 L 111.5 9 L 111.5 8 Z " /><path fill="rgb(7,164,231)" stroke="rgb(7,164,231)" stroke-width="1" opacity="0.7019607843137254" d="M 51.5 13 L 53 13.5 L 49.5 15 L 49.5 14 L 51.5 13 Z " /><path fill="rgb(7,164,231)" stroke="rgb(7,164,231)" stroke-width="1" opacity="0.7019607843137254" d="M 47.5 16 L 46.5 18 L 41.5 22 L 42 20.5 L 43.5 18 L 47.5 16 Z " /><path fill="rgb(7,164,231)" stroke="rgb(7,164,231)" stroke-width="1" opacity="0.7019607843137254" d="M 126.5 16 L 129 17.5 L 127.5 17 L 126.5 16 Z " /><path fill="rgb(7,164,231)" stroke="rgb(7,164,231)" stroke-width="1" opacity="0.7019607843137254" d="M 141.5 30 L 142.5 32 L 141.5 30 Z " /><path fill="rgb(7,164,231)" stroke="rgb(7,164,231)" stroke-width="1" opacity="0.7019607843137254" d="M 30.5 31 L 31 32.5 L 27 35.5 L 30.5 31 Z " /><path fill="rgb(7,164,231)" stroke="rgb(7,164,231)" stroke-width="1" opacity="0.7019607843137254" d="M 25.5 37 L 26 38.5 L 24 39.5 L 25.5 37 Z " /><path fill="rgb(7,164,231)" stroke="rgb(7,164,231)" stroke-width="1" opacity="0.7019607843137254" d="M 14.5 59 L 15 61 L 13 60.5 L 14.5 59 Z " /><path fill="rgb(7,164,231)" stroke="rgb(7,164,231)" stroke-width="1" opacity="0.7019607843137254" d="M 12.5 63 L 13 65.5 L 12 65.5 L 12.5 63 Z " /><path fill="rgb(7,164,231)" stroke="rgb(7,164,231)" stroke-width="1" opacity="0.7019607843137254" d="M 11.5 68 L 12 71.5 L 11 71.5 L 11.5 68 Z " /><path fill="rgb(7,164,231)" stroke="rgb(7,164,231)" stroke-width="1" opacity="0.7019607843137254" d="M 10.5 79 L 11 177.5 L 9 176.5 L 9 81.5 L 10.5 79 Z " /><path fill="rgb(7,164,231)" stroke="rgb(7,164,231)" stroke-width="1" opacity="0.7019607843137254" d="M 191 103 L 194 104.5 L 193.5 177 L 193 105 Q 190 106 191 103 Z " /><path fill="rgb(7,164,231)" stroke="rgb(7,164,231)" stroke-width="1" opacity="0.7019607843137254" d="M 185.5 106 L 187 106.5 L 184.5 108 L 185.5 106 Z " /><path fill="rgb(7,164,231)" stroke="rgb(7,164,231)" stroke-width="1" opacity="0.7019607843137254" d="M 175.5 113 L 177 113.5 L 174.5 115 L 175.5 113 Z " /><path fill="rgb(7,164,231)" stroke="rgb(7,164,231)" stroke-width="1" opacity="0.7019607843137254" d="M 172.5 115 L 168.5 120 L 172.5 115 Z " /><path fill="rgb(7,164,231)" stroke="rgb(7,164,231)" stroke-width="1" opacity="0.7019607843137254" d="M 164.5 122 L 161.5 126 L 161 124 L 164.5 122 Z " /><path fill="rgb(7,164,231)" stroke="rgb(7,164,231)" stroke-width="1" opacity="0.7019607843137254" d="M 191.5 179 L 188.5 183 L 14 182.5 Q 15.3 179.8 16.5 182 L 186.5 182 L 191.5 179 Z " /><path fill="rgb(140,229,249)" stroke="rgb(140,229,249)" stroke-width="1" opacity="0.9607843137254902" d="M 129.5 17 Q 132.5 18.5 129.5 20 L 129.5 17 Z " /><path fill="rgb(140,229,249)" stroke="rgb(140,229,249)" stroke-width="1" opacity="0.9607843137254902" d="M 38.5 22 L 37.5 24 L 38.5 22 Z " /><path fill="rgb(140,229,249)" stroke="rgb(140,229,249)" stroke-width="1" opacity="0.9607843137254902" d="M 127.5 23 L 128 25.5 L 127 25.5 L 127.5 23 Z " /><path fill="rgb(140,229,249)" stroke="rgb(140,229,249)" stroke-width="1" opacity="0.9607843137254902" d="M 140.5 28 Q 143.1 27.3 142 30 L 138.5 31 L 140.5 28 Z " /><path fill="rgb(140,229,249)" stroke="rgb(140,229,249)" stroke-width="1" opacity="0.9607843137254902" d="M 129.5 29 L 132 30.5 L 130.5 31 L 129.5 29 Z " /><path fill="rgb(140,229,249)" stroke="rgb(140,229,249)" stroke-width="1" opacity="0.9607843137254902" d="M 90.5 31 Q 99.1 29.9 103 33.5 L 101.5 34 Q 98.5 31 91.5 32 L 86.5 34 L 87.5 32 L 90.5 31 Z " /><path fill="rgb(140,229,249)" stroke="rgb(140,229,249)" stroke-width="1" opacity="0.9607843137254902" d="M 117.5 31 Q 125.4 30.1 129 33.5 L 127.5 34 Q 124.5 31 117.5 32 L 111.5 35 L 112.5 33 L 117.5 31 Z " /><path fill="rgb(140,229,249)" stroke="rgb(140,229,249)" stroke-width="1" opacity="0.9607843137254902" d="M 133.5 31 L 136 31.5 L 133.5 32 L 133.5 31 Z " /><path fill="rgb(140,229,249)" stroke="rgb(140,229,249)" stroke-width="1" opacity="0.9607843137254902" d="M 141.5 33 L 143 33.5 L 140.5 35 L 141.5 33 Z " /><path fill="rgb(140,229,249)" stroke="rgb(140,229,249)" stroke-width="1" opacity="0.9607843137254902" d="M 84.5 34 L 80.5 39 L 84.5 34 Z " /><path fill="rgb(140,229,249)" stroke="rgb(140,229,249)" stroke-width="1" opacity="0.9607843137254902" d="M 104.5 34 L 108.5 36 L 110 35.5 L 107.5 38 L 104.5 34 Z " /><path fill="rgb(140,229,249)" stroke="rgb(140,229,249)" stroke-width="1" opacity="0.9607843137254902" d="M 130.5 34 L 135.5 38 L 139 35.5 L 137 39 L 134.5 39 L 130.5 34 Z " /><path fill="rgb(140,229,249)" stroke="rgb(140,229,249)" stroke-width="1" opacity="0.9607843137254902" d="M 79.5 40 L 79 41.5 L 77.5 46 L 77 43.5 L 79.5 40 Z " /><path fill="rgb(140,229,249)" stroke="rgb(140,229,249)" stroke-width="1" opacity="0.9607843137254902" d="M 77.5 51 L 82 61.5 L 80 62.5 L 81 59.5 Q 76.5 57.1 77.5 51 Z " /><path fill="rgb(140,229,249)" stroke="rgb(140,229,249)" stroke-width="1" opacity="0.9607843137254902" d="M 75.5 72 L 75 73.5 L 74.5 75 L 74 73.5 L 75.5 72 Z " /><path fill="rgb(140,229,249)" stroke="rgb(140,229,249)" stroke-width="1" opacity="0.9607843137254902" d="M 78.5 113 L 79.5 115 L 78.5 113 Z " /><path fill="rgb(140,229,249)" stroke="rgb(140,229,249)" stroke-width="1" opacity="0.9607843137254902" d="M 83.5 120 L 88.5 126 L 83.5 120 Z " /><path fill="rgb(140,229,249)" stroke="rgb(140,229,249)" stroke-width="1" opacity="0.9607843137254902" d="M 93.5 128 L 95.5 131 L 93.5 128 Z " /><path fill="rgb(140,229,249)" stroke="rgb(140,229,249)" stroke-width="1" opacity="0.9607843137254902" d="M 103.5 133 L 104.5 135 L 103.5 133 Z " /><path fill="rgb(140,229,249)" stroke="rgb(140,229,249)" stroke-width="1" opacity="0.9607843137254902" d="M 140.5 133 L 142 133.5 L 138.5 135 L 138.5 134 L 140.5 133 Z " /><path fill="rgb(140,229,249)" stroke="rgb(140,229,249)" stroke-width="1" opacity="0.9607843137254902" d="M 107.5 135 L 111 135.5 L 107.5 136 L 107.5 135 Z " /><path fill="rgb(140,229,249)" stroke="rgb(140,229,249)" stroke-width="1" opacity="0.9607843137254902" d="M 116.5 136 L 124 136.5 L 116.5 137 L 116.5 136 Z " /><path fill="rgb(180,245,251)" stroke="rgb(180,245,251)" stroke-width="1" opacity="0.9803921568627451" d="M 131 17 Q 139.9 15.3 142 21.5 Q 143.5 29.1 140 28 L 140 21.5 L 138.5 21 Q 137.5 18 132.5 19 L 130.5 20 L 131 18.5 L 131 17 Z " /><path fill="rgb(180,245,251)" stroke="rgb(180,245,251)" stroke-width="1" opacity="0.9803921568627451" d="M 146.5 31 Q 160.4 30.6 165 39.5 L 166 41.5 L 166 55.5 L 165 58.5 Q 168.9 60.1 168 66.5 L 163.5 72 Q 155.5 73.5 154 68.5 L 152.5 66 L 146.5 66 L 134.5 60 L 127.5 65 L 116.5 66 L 106.5 61 L 104 62 Q 105.1 64.7 102.5 64 Q 98.8 67.3 90.5 66 L 82 62 Q 80.8 59 84.5 60 L 87.5 63 L 97.5 64 L 101.5 63 L 105.5 59 L 109.5 59 L 116.5 64 L 123.5 64 L 128 63 Q 126.9 60.3 129.5 61 L 133.5 58 L 136.5 58 L 143.5 63 L 153.5 64 L 155 65.5 Q 153.9 68.8 156.5 68 Q 157.5 71 162.5 70 L 166 68 L 166 62.5 Q 162 61.5 163 55.5 L 164 54.5 L 164 42.5 L 160.5 37 L 152.5 33 L 146.5 33 L 143 34 Q 141.8 31 145.5 32 L 146.5 31 Z " /><path fill="rgb(180,245,251)" stroke="rgb(180,245,251)" stroke-width="1" opacity="0.9803921568627451" d="M 177.5 39 L 182.5 39 L 187 43.5 L 187 48.5 L 182.5 53 Q 175.7 54.8 174 51.5 Q 171.7 48.3 173 41.5 L 177.5 39 Z M 178 41 L 175 42 L 175 50 L 177 51 Q 182 52 184 50 L 185 44 Q 184 40 178 41 Z " /><path fill="rgb(180,245,251)" stroke="rgb(180,245,251)" stroke-width="1" opacity="0.9803921568627451" d="M 112.5 71 L 117.5 71 L 122 75.5 Q 123.3 82.8 119.5 85 Q 112 86 109 84 Q 107.2 81.6 108 75.5 L 112.5 71 Z M 114 73 Q 109 74 110 82 L 112 83 L 119 83 L 120 81 L 119 75 Q 118 72 114 73 Z " /><path fill="rgb(180,245,251)" stroke="rgb(180,245,251)" stroke-width="1" opacity="0.9803921568627451" d="M 177.5 77 Q 185.1 75.9 187 80.5 Q 188.8 88.2 184.5 90 Q 183.1 92.6 178.5 92 L 173 87.5 Q 171.3 79.7 175.5 78 L 177.5 77 Z M 180 78 L 175 82 Q 174 87 176 89 L 180 90 L 183 89 Q 186 88 185 82 L 180 78 Z " /><path fill="rgb(180,246,252)" stroke="rgb(180,246,252)" stroke-width="1" opacity="1" d="M 132.5 19 L 136.5 19 L 140 21 L 140 28.5 L 137.5 31 Q 131 32 129 28.5 L 128 22.5 L 129 20 L 132.5 19 Z " /><path fill="rgb(180,246,252)" stroke="rgb(180,246,252)" stroke-width="1" opacity="1" d="M 91.5 32 Q 103.4 31.1 107.5 38 Q 112 31.5 123.5 32 Q 131.3 33.3 134.5 39 L 137 39 L 139.5 35 L 146.5 33 L 152.5 33 L 163 39.5 Q 165.5 45 164 54.5 L 163 59.5 Q 167.5 61.3 166 68 L 162.5 70 L 158.5 70 L 155 68 L 153.5 64 L 146.5 64 L 136.5 58 L 133.5 58 L 128 61 Q 129.3 64.3 124.5 63 Q 122.7 65.8 116.5 64 L 109.5 59 L 105.5 59 L 101.5 63 L 91.5 64 L 87.5 63 L 80 57.5 L 77 50.5 L 77 46.5 L 80 39.5 L 85.5 34 L 91.5 32 Z " /><path fill="rgb(180,246,252)" stroke="rgb(180,246,252)" stroke-width="1" opacity="1" d="M 177.5 41 Q 183.8 39.8 185 43.5 L 184 50 Q 181.9 51.6 176.5 51 L 175 49.5 L 175 42 L 177.5 41 Z " /><path fill="rgb(180,246,252)" stroke="rgb(180,246,252)" stroke-width="1" opacity="1" d="M 113.5 73 Q 118 72 119 74.5 L 120 80.5 L 119 83 L 111.5 83 L 110 81.5 Q 108.8 74.3 113.5 73 Z " /><path fill="rgb(180,246,252)" stroke="rgb(180,246,252)" stroke-width="1" opacity="1" d="M 179.5 78 L 185 81.5 Q 186.3 87.8 182.5 89 L 179.5 90 L 176 89 Q 174.4 86.9 175 81.5 L 179.5 78 Z " /><path fill="rgb(0,166,237)" stroke="rgb(0,166,237)" stroke-width="1" opacity="0.996078431372549" d="M 74.5 5 L 98.5 5 L 103 6.5 L 99.5 7 L 98.5 6 L 74.5 6 L 70.5 7 L 70.5 6 L 74.5 5 Z " /><path fill="rgb(0,166,237)" stroke="rgb(0,166,237)" stroke-width="1" opacity="0.996078431372549" d="M 67.5 7 Q 70.1 6.3 69 9 L 61.5 10 L 44 20 L 42.5 23 L 39 24.5 L 36.5 28 L 34 29.5 L 33 33 Q 30.3 31.9 31 34.5 L 23.5 45 Q 20.9 44.2 22 47.5 L 20 53 Q 17.3 51.9 18 54.5 L 13.5 67 L 13 64.5 Q 21.3 37.8 40.5 22 Q 51.5 12 67.5 7 Z " /><path fill="rgb(0,166,237)" stroke="rgb(0,166,237)" stroke-width="1" opacity="0.996078431372549" d="M 105 7 Q 119.3 9.9 129 18.5 L 127.5 19 L 124.5 16 L 114.5 11 L 105 9 L 105 7 Z " /><path fill="rgb(0,166,237)" stroke="rgb(0,166,237)" stroke-width="1" opacity="0.996078431372549" d="M 140.5 30 L 141.5 32 Q 138.7 32.7 140.5 30 Z " /><path fill="rgb(0,166,237)" stroke="rgb(0,166,237)" stroke-width="1" opacity="0.996078431372549" d="M 12.5 68 L 13 72.5 L 12 73.5 L 12 178.5 L 13.5 180 L 188.5 180 L 191 177.5 L 191 107 L 185 108 Q 186.1 110.7 183.5 110 L 179 112 L 177.5 115 L 172 117 L 169.5 121 L 168 120.5 L 180.5 110 L 192 105 L 192 178.5 L 189.5 181 L 186.5 182 L 16.5 182 L 12 181 L 11 178.5 L 11 72.5 L 12.5 68 Z " /><path fill="rgb(0,166,237)" stroke="rgb(0,166,237)" stroke-width="1" opacity="0.996078431372549" d="M 166.5 121 L 167 122.5 L 162 126.5 Q 162.8 129.1 159.5 128 L 156 130 Q 157.3 133 153.5 132 L 151.5 133 L 151.5 132 Q 160.6 128.1 166.5 121 Z " /><path fill="rgb(0,0,0)" stroke="rgb(0,0,0)" stroke-width="1" opacity="0" d="M 0 0 L 200 0 L 200 200 L 0 200 L 0 0 Z M 72 3 L 71 4 Q 65 2 66 6 L 59 7 L 49 13 Q 46 12 47 15 Q 41 16 38 21 Q 35 20 36 23 L 33 25 L 22 39 L 22 41 L 19 42 L 10 65 Q 11 69 9 71 L 9 182 L 11 183 L 192 183 L 194 181 L 194 103 L 186 104 L 179 109 L 177 109 L 175 112 L 172 113 L 159 125 L 155 127 Q 152 126 153 129 L 143 132 L 139 132 L 133 135 L 107 134 L 94 127 L 79 112 L 75 104 L 73 94 L 73 86 L 75 77 L 77 75 L 79 68 L 83 64 L 89 67 Q 99 68 105 66 L 107 63 L 115 67 L 127 67 L 136 62 L 145 67 L 152 67 L 153 71 L 156 73 L 166 73 L 169 69 Q 170 61 167 59 L 167 41 L 165 36 Q 162 37 163 35 L 155 30 L 145 30 L 143 29 L 143 21 L 140 16 L 131 16 L 122 10 L 102 3 L 72 3 Z M 176 38 L 175 39 L 172 40 L 172 52 L 175 54 L 185 54 Q 190 52 188 42 Q 186 36 176 38 Z M 110 70 L 109 73 L 107 74 L 107 84 L 110 86 L 122 86 Q 124 82 123 74 Q 120 68 110 70 Z M 179 75 L 174 77 L 172 79 L 172 90 L 178 93 L 184 93 L 184 91 L 187 91 L 188 90 L 188 80 L 182 75 L 179 75 Z " /><path fill="rgb(177,214,224)" stroke="rgb(177,214,224)" stroke-width="1" opacity="0.2196078431372549" d="M 71.5 3 L 101.5 3 L 108 5.5 L 105.5 6 L 99.5 4 L 73.5 4 L 66 6 Q 64.7 2.3 70.5 4 L 71.5 3 Z " /><path fill="rgb(177,214,224)" stroke="rgb(177,214,224)" stroke-width="1" opacity="0.2196078431372549" d="M 62.5 6 L 65 6.5 Q 51.6 11.1 42 19.5 Q 42.8 21.8 40.5 21 L 37 23.5 L 35.5 26 L 32 28.5 Q 21.5 40 15 55.5 L 11 67.5 L 9.5 81 L 9 70.5 Q 11.2 69.3 10 64.5 L 19 42 L 22 40.5 L 22 38.5 L 32.5 25 L 36 22.5 Q 35.3 20.3 37.5 21 Q 41 16 47 15 Q 45.9 12.3 48.5 13 L 62.5 6 Z " /><path fill="rgb(177,214,224)" stroke="rgb(177,214,224)" stroke-width="1" opacity="0.2196078431372549" d="M 109.5 6 Q 122.3 8.7 130.5 16 L 140 16 L 143 20.5 L 143 28.5 L 144.5 30 L 154.5 30 L 163 34.5 Q 162.3 36.8 164.5 36 L 167 40.5 L 167 58.5 Q 170.4 61.1 169 68.5 L 165.5 73 L 155.5 73 L 153 70.5 L 151.5 67 L 144.5 67 L 135.5 62 L 126.5 67 L 114.5 67 L 106.5 63 L 105 66 Q 99 68 88.5 67 L 82.5 64 L 79 67.5 L 77 74.5 L 75 76.5 L 73 85.5 L 73 93.5 L 75 103.5 L 79 111.5 L 93.5 127 L 106.5 134 L 132.5 135 L 138.5 132 L 142.5 132 L 153 129 Q 151.9 126.3 154.5 127 L 158.5 125 L 171.5 113 L 175 112 L 176.5 109 L 178.5 109 L 185.5 104 L 190.5 103 L 190.5 104 L 178.5 110 L 168.5 119 L 165 120 L 162.5 124 L 150.5 131 L 140.5 133 L 134.5 136 L 111.5 136 Q 110.3 133.8 105.5 135 L 103.5 133 L 96.5 131 L 81 117.5 L 73 101.5 L 72 83.5 Q 74.3 70.3 81.5 62 L 90.5 66 L 98.5 66 L 104 64 Q 102.9 61.3 105.5 62 L 108.5 61 L 116.5 66 L 124.5 66 L 136.5 60 L 143.5 65 L 152.5 66 L 154 67.5 L 157.5 72 Q 165.5 73.5 167 68.5 L 168 62.5 L 165 56.5 L 166 55.5 L 166 41.5 L 159.5 34 Q 155.4 30.1 146.5 31 L 143.5 32 L 142 30.5 L 142 21.5 L 137.5 17 Q 132 15.5 130.5 18 Q 121.9 10.6 109.5 7 L 109.5 6 Z " /><path fill="rgb(177,214,224)" stroke="rgb(177,214,224)" stroke-width="1" opacity="0.2196078431372549" d="M 175.5 38 Q 185.8 35.8 188 41.5 Q 190.3 51.8 184.5 54 L 174.5 54 L 172 51.5 L 172 39.5 L 174.5 39 L 175.5 38 Z M 178 39 L 173 42 Q 172 48 174 52 Q 176 55 183 53 L 187 49 L 187 44 L 183 39 L 178 39 Z " /><path fill="rgb(177,214,224)" stroke="rgb(177,214,224)" stroke-width="1" opacity="0.2196078431372549" d="M 110 70 Q 119.7 68 123 73.5 Q 124.2 82.4 122 86 L 109.5 86 L 107 83.5 L 107 73.5 L 108.5 73 L 110 70 Z M 113 71 L 108 76 Q 107 82 109 84 Q 112 86 120 85 Q 123 83 122 76 L 118 71 L 113 71 Z " /><path fill="rgb(177,214,224)" stroke="rgb(177,214,224)" stroke-width="1" opacity="0.2196078431372549" d="M 178.5 75 L 181.5 75 L 188 79.5 L 188 89.5 L 186.5 91 L 184 91 L 183.5 93 L 177.5 93 L 172 89.5 L 172 78.5 L 173.5 77 L 178.5 75 Z M 178 77 L 176 78 Q 171 80 173 88 L 179 92 Q 183 93 185 90 Q 189 88 187 81 Q 185 76 178 77 Z " /><path fill="rgb(177,214,224)" stroke="rgb(177,214,224)" stroke-width="1" opacity="0.2196078431372549" d="M 9.5 177 L 12.5 182 L 14 182.5 L 10.5 183 Q 7.6 181.6 9.5 177 Z " /><path fill="rgb(177,214,224)" stroke="rgb(177,214,224)" stroke-width="1" opacity="0.2196078431372549" d="M 193.5 177 L 194 180.5 Q 193.5 183.5 189.5 183 L 190.5 181 Q 192.8 181.8 192 179.5 L 193.5 177 Z " /><path fill="rgb(0,166,237)" stroke="rgb(0,166,237)" stroke-width="1" opacity="1" d="M 74.5 6 L 98.5 6 L 105 7 Q 103.7 10.7 109.5 9 L 124.5 16 L 128 19.5 L 127 27.5 Q 129.1 32.3 135.5 33 L 139.5 31 L 141 32.5 L 137.5 36 L 134.5 37 Q 130 29 115.5 31 L 106.5 35 Q 101.8 29.2 89.5 31 Q 82.3 32.8 79 38.5 Q 79.8 40.8 77.5 40 Q 66.8 46.3 59 55.5 L 50 72.5 L 48 83.5 L 48 96.5 Q 52.8 120.7 69.5 133 L 87.5 144 L 101.5 148 L 113.5 148 L 132.5 144 L 150.5 133 L 156 132 Q 154.9 129.3 157.5 130 Q 158.6 127.3 162 128 L 163.5 125 L 167 122.5 Q 166.2 119.9 169.5 121 L 172 117 L 179 113.5 Q 178.3 111.3 180.5 112 L 185 110 Q 183.8 107 187.5 108 L 191 107 L 191 177.5 L 188.5 180 L 13.5 180 L 12 178.5 L 12 73.5 L 18 53 Q 21 54.3 20 50.5 L 22 45 L 25 43.5 L 25 41.5 L 31 33 Q 33.7 34.1 33 31.5 L 35.5 28 L 39 25.5 L 40.5 23 L 44 21.5 Q 43.3 19.3 45.5 20 L 61.5 10 L 69 9 Q 67.7 5.3 73.5 7 L 74.5 6 Z " /><path fill="rgb(40,198,250)" stroke="rgb(40,198,250)" stroke-width="1" opacity="0.9490196078431372" d="M 95.5 4 L 98 4.5 L 95.5 5 L 95.5 4 Z " /><path fill="rgb(40,198,250)" stroke="rgb(40,198,250)" stroke-width="1" opacity="0.9490196078431372" d="M 129.5 18 L 129 19.5 L 127.5 23 L 127 21.5 L 129.5 18 Z " /><path fill="rgb(40,198,250)" stroke="rgb(40,198,250)" stroke-width="1" opacity="0.9490196078431372" d="M 40.5 21 L 31.5 31 L 33 28.5 Q 32.3 26.3 34.5 27 L 40.5 21 Z " /><path fill="rgb(40,198,250)" stroke="rgb(40,198,250)" stroke-width="1" opacity="0.9490196078431372" d="M 127.5 26 L 129 28.5 L 127 27.5 L 127.5 26 Z " /><path fill="rgb(40,198,250)" stroke="rgb(40,198,250)" stroke-width="1" opacity="0.9490196078431372" d="M 136.5 31 L 138 31.5 L 134.5 33 L 134.5 32 L 136.5 31 Z " /><path fill="rgb(40,198,250)" stroke="rgb(40,198,250)" stroke-width="1" opacity="0.9490196078431372" d="M 86.5 32 L 85.5 34 L 80 38.5 Q 75.1 42.6 77 53.5 L 81 61.5 L 73 76.5 L 72 81.5 L 72 97.5 L 73 102.5 L 75 104.5 Q 72.5 106 76 107.5 Q 79.7 119.3 88.5 126 L 95.5 131 L 107.5 136 L 123.5 137 L 124.5 136 L 140.5 135 L 142.5 133 L 151.5 131 L 160.5 125 L 158.5 128 L 132.5 144 L 113.5 148 L 101.5 148 L 87.5 144 L 77.5 139 L 59 122.5 L 50 105.5 L 48 96.5 L 48 83.5 L 50 72.5 L 56 59.5 L 67.5 47 L 79 40 L 84.5 33 L 86.5 32 Z " /><path fill="rgb(40,198,250)" stroke="rgb(40,198,250)" stroke-width="1" opacity="0.9490196078431372" d="M 101.5 32 L 108.5 35 L 113.5 32 L 113.5 33 L 106.5 36 L 101.5 33 L 101.5 32 Z " /><path fill="rgb(40,198,250)" stroke="rgb(40,198,250)" stroke-width="1" opacity="0.9490196078431372" d="M 127.5 32 L 135.5 37 L 137 36.5 L 134.5 38 L 127.5 33 L 127.5 32 Z " /><path fill="rgb(40,198,250)" stroke="rgb(40,198,250)" stroke-width="1" opacity="0.9490196078431372" d="M 141.5 32 L 143 32.5 L 139.5 35 L 141.5 32 Z " /><path fill="rgb(40,198,250)" stroke="rgb(40,198,250)" stroke-width="1" opacity="0.9490196078431372" d="M 22.5 42 L 22 43.5 L 21.5 45 L 21 43.5 L 22.5 42 Z " /><path fill="rgb(40,198,250)" stroke="rgb(40,198,250)" stroke-width="1" opacity="0.9490196078431372" d="M 18.5 49 L 19 50.5 L 17.5 53 L 17 51.5 L 18.5 49 Z " /><path fill="rgb(40,198,250)" stroke="rgb(40,198,250)" stroke-width="1" opacity="0.9490196078431372" d="M 16.5 54 L 15.5 56 L 16.5 54 Z " /><path fill="rgb(40,198,250)" stroke="rgb(40,198,250)" stroke-width="1" opacity="0.9490196078431372" d="M 13.5 61 L 14 63.5 L 13 63.5 L 13.5 61 Z " /><path fill="rgb(40,198,250)" stroke="rgb(40,198,250)" stroke-width="1" opacity="0.9490196078431372" d="M 10.5 75 L 11 78.5 L 10 78.5 L 10.5 75 Z " /><path fill="rgb(40,198,250)" stroke="rgb(40,198,250)" stroke-width="1" opacity="0.9490196078431372" d="M 192.5 105 L 193 178.5 L 192 178.5 L 192.5 105 Z " /><path fill="rgb(40,198,250)" stroke="rgb(40,198,250)" stroke-width="1" opacity="0.9490196078431372" d="M 183.5 107 L 184 109 L 182 108.5 L 183.5 107 Z " /><path fill="rgb(40,198,250)" stroke="rgb(40,198,250)" stroke-width="1" opacity="0.9490196078431372" d="M 177.5 111 L 179 111.5 L 176.5 113 L 177.5 111 Z " /><path fill="rgb(40,198,250)" stroke="rgb(40,198,250)" stroke-width="1" opacity="0.9490196078431372" d="M 167.5 119 L 168 121 L 165.5 122 L 167.5 119 Z " /><path fill="rgb(40,198,250)" stroke="rgb(40,198,250)" stroke-width="1" opacity="0.9490196078431372" d="M 10.5 178 L 11.5 180 L 10.5 178 Z " /></svg>