<svg width="200" height="200" version="1.1" xmlns="http://www.w3.org/2000/svg" desc="Created with imagetracer.js version 1.2.6" ><path fill="rgb(0,0,0)" stroke="rgb(0,0,0)" stroke-width="1" opacity="0" d="M 0 0 L 200 0 L 200 200 L 0 200 L 0 0 Z M 88 8 L 86 10 L 79 10 L 64 14 L 61 17 L 51 21 Q 48 20 49 23 L 38 30 L 22 47 Q 23 50 21 49 L 11 66 Q 11 72 8 75 L 8 79 L 6 81 L 5 95 L 4 96 L 5 122 L 12 144 Q 11 146 14 145 L 17 154 L 27 168 L 33 172 L 34 175 L 59 191 L 66 193 L 68 195 L 88 199 L 113 199 L 114 198 L 122 198 L 134 195 L 137 192 L 140 192 L 148 188 Q 150 189 149 187 Q 158 183 165 176 Q 167 177 166 174 L 168 174 L 168 173 L 174 168 L 174 166 L 186 150 L 189 139 L 192 135 L 195 122 L 195 110 L 196 109 L 195 89 L 194 88 L 193 77 L 185 58 Q 186 55 183 56 L 181 51 L 172 40 Q 173 37 171 38 L 167 34 L 151 21 L 134 13 L 122 10 L 114 10 L 112 8 L 88 8 Z " /><path fill="rgb(30,205,130)" stroke="rgb(30,205,130)" stroke-width="1" opacity="0.8627450980392157" d="M 121.5 12 L 124 12.5 L 121.5 13 L 121.5 12 Z " /><path fill="rgb(30,205,130)" stroke="rgb(30,205,130)" stroke-width="1" opacity="0.8627450980392157" d="M 125.5 13 L 128 13.5 L 125.5 14 L 125.5 13 Z " /><path fill="rgb(30,205,130)" stroke="rgb(30,205,130)" stroke-width="1" opacity="0.8627450980392157" d="M 129.5 14 L 138 17.5 L 136.5 17 L 129.5 15 L 129.5 14 Z " /><path fill="rgb(30,205,130)" stroke="rgb(30,205,130)" stroke-width="1" opacity="0.8627450980392157" d="M 141.5 19 L 146 21.5 L 144.5 21 Q 140.8 20.7 141.5 19 Z " /><path fill="rgb(30,205,130)" stroke="rgb(30,205,130)" stroke-width="1" opacity="0.8627450980392157" d="M 147.5 22 L 151 24.5 L 149.5 24 L 147.5 22 Z " /><path fill="rgb(30,205,130)" stroke="rgb(30,205,130)" stroke-width="1" opacity="0.8627450980392157" d="M 152.5 25 Q 165.3 32.7 174 44.5 L 179 51.5 L 176 49.5 Q 169.9 38.1 159.5 31 Q 154 28.9 152.5 25 Z " /><path fill="rgb(30,205,130)" stroke="rgb(30,205,130)" stroke-width="1" opacity="0.8627450980392157" d="M 179.5 53 L 185 61.5 L 183 60.5 L 179.5 53 Z " /><path fill="rgb(30,205,130)" stroke="rgb(30,205,130)" stroke-width="1" opacity="0.8627450980392157" d="M 187.5 68 L 191 77.5 L 190 77.5 L 187.5 68 Z " /><path fill="rgb(30,205,130)" stroke="rgb(30,205,130)" stroke-width="1" opacity="0.8627450980392157" d="M 169.5 167 L 166.5 171 L 169.5 167 Z " /><path fill="rgb(30,205,130)" stroke="rgb(30,205,130)" stroke-width="1" opacity="0.8627450980392157" d="M 92.5 197 L 96 197.5 L 92.5 198 L 92.5 197 Z " /><path fill="rgb(30,205,130)" stroke="rgb(30,205,130)" stroke-width="1" opacity="0.8627450980392157" d="M 104.5 197 L 109 197.5 L 104.5 198 L 104.5 197 Z " /><path fill="rgb(5,206,111)" stroke="rgb(5,206,111)" stroke-width="1" opacity="0.9450980392156862" d="M 144.5 21 L 148 23.5 L 146.5 23 L 144.5 21 Z " /><path fill="rgb(5,206,111)" stroke="rgb(5,206,111)" stroke-width="1" opacity="0.9450980392156862" d="M 155.5 28 L 156.5 30 L 155.5 28 Z " /><path fill="rgb(5,206,111)" stroke="rgb(5,206,111)" stroke-width="1" opacity="0.9450980392156862" d="M 176.5 50 L 178.5 53 L 176.5 50 Z " /><path fill="rgb(5,206,111)" stroke="rgb(5,206,111)" stroke-width="1" opacity="0.9450980392156862" d="M 180.5 56 L 181.5 58 L 180.5 56 Z " /><path fill="rgb(5,206,111)" stroke="rgb(5,206,111)" stroke-width="1" opacity="0.9450980392156862" d="M 183.5 61 L 185 63.5 L 184 63.5 L 183.5 61 Z " /><path fill="rgb(0,209,106)" stroke="rgb(0,209,106)" stroke-width="1" opacity="0.996078431372549" d="M 85.5 13 L 99.5 13 L 106.5 19 L 116 19.5 L 106.5 20 L 99.5 14 L 86.5 14 L 82.5 16 L 83.5 14 L 85.5 13 Z " /><path fill="rgb(0,209,106)" stroke="rgb(0,209,106)" stroke-width="1" opacity="0.996078431372549" d="M 120.5 13 L 127 14.5 L 124.5 15 L 121.5 14 L 117 17.5 L 120.5 13 Z " /><path fill="rgb(0,209,106)" stroke="rgb(0,209,106)" stroke-width="1" opacity="0.996078431372549" d="M 137.5 18 L 145 22.5 L 143.5 22 Q 137.9 21.2 137.5 18 Z " /><path fill="rgb(0,209,106)" stroke="rgb(0,209,106)" stroke-width="1" opacity="0.996078431372549" d="M 75.5 19 L 75 20.5 L 74.5 22 L 74 20.5 L 75.5 19 Z " /><path fill="rgb(0,209,106)" stroke="rgb(0,209,106)" stroke-width="1" opacity="0.996078431372549" d="M 82.5 20 Q 88.6 18.8 88 21.5 L 86.5 21 Q 80.8 20.3 80 24.5 L 78.5 31 L 78 27.5 L 82.5 20 Z " /><path fill="rgb(0,209,106)" stroke="rgb(0,209,106)" stroke-width="1" opacity="0.996078431372549" d="M 150.5 25 L 156 29.5 L 152.5 27 L 150.5 25 Z " /><path fill="rgb(0,209,106)" stroke="rgb(0,209,106)" stroke-width="1" opacity="0.996078431372549" d="M 74.5 28 L 75 30.5 L 74 30.5 L 74.5 28 Z " /><path fill="rgb(0,209,106)" stroke="rgb(0,209,106)" stroke-width="1" opacity="0.996078431372549" d="M 157.5 30 L 172 43.5 L 175 47.5 L 169 42.5 L 162.5 35 L 157.5 30 Z " /><path fill="rgb(0,209,106)" stroke="rgb(0,209,106)" stroke-width="1" opacity="0.996078431372549" d="M 87.5 36 L 87 37.5 Q 88.3 41.7 83.5 40 L 82.5 41 L 67.5 41 L 64 38.5 L 65.5 39 Q 71.8 41.7 82.5 40 L 87.5 36 Z " /><path fill="rgb(0,209,106)" stroke="rgb(0,209,106)" stroke-width="1" opacity="0.996078431372549" d="M 56.5 37 L 58 37.5 L 56 38 L 55.5 40 L 55 38.5 L 56.5 37 Z " /><path fill="rgb(0,209,106)" stroke="rgb(0,209,106)" stroke-width="1" opacity="0.996078431372549" d="M 54.5 45 L 55 47 L 49 48 L 48.5 50 L 48 48.5 L 54.5 45 Z " /><path fill="rgb(0,209,106)" stroke="rgb(0,209,106)" stroke-width="1" opacity="0.996078431372549" d="M 92 48 L 99.5 48 L 102 50.5 L 101.5 53 L 99.5 49 Q 91.5 47.5 90 52.5 L 88.5 55 L 89 53.5 L 92 48 Z " /><path fill="rgb(0,209,106)" stroke="rgb(0,209,106)" stroke-width="1" opacity="0.996078431372549" d="M 58 52 L 60 52.5 Q 57.7 53.8 59 58.5 L 57 62 Q 49.9 63.7 48 59.5 L 50.5 61 Q 55.8 62.3 57 59.5 L 58 52 Z " /><path fill="rgb(0,209,106)" stroke="rgb(0,209,106)" stroke-width="1" opacity="0.996078431372549" d="M 72.5 52 L 81 57.5 L 79.5 57 L 72.5 53 L 72.5 52 Z " /><path fill="rgb(0,209,106)" stroke="rgb(0,209,106)" stroke-width="1" opacity="0.996078431372549" d="M 177.5 52 Q 180.5 52.5 180 56.5 L 179 56.5 L 177.5 52 Z " /><path fill="rgb(0,209,106)" stroke="rgb(0,209,106)" stroke-width="1" opacity="0.996078431372549" d="M 86.5 56 L 88 56.5 L 83.5 59 L 83.5 58 L 86.5 56 Z " /><path fill="rgb(0,209,106)" stroke="rgb(0,209,106)" stroke-width="1" opacity="0.996078431372549" d="M 104.5 58 Q 110.7 57.3 113 60.5 L 115 64.5 L 114 64.5 L 110.5 60 L 104.5 59 L 104.5 58 Z " /><path fill="rgb(0,209,106)" stroke="rgb(0,209,106)" stroke-width="1" opacity="0.996078431372549" d="M 184.5 64 L 187 70.5 L 186 70.5 L 184.5 64 Z " /><path fill="rgb(0,209,106)" stroke="rgb(0,209,106)" stroke-width="1" opacity="0.996078431372549" d="M 67.5 67 L 77.5 67 L 79 68.5 Q 78.3 73.3 81.5 74 L 87.5 74 L 96.5 67 L 101.5 67 L 107 69.5 L 105.5 70 Q 102.8 67.2 96.5 68 L 92 71.5 Q 92.8 73.8 90.5 73 Q 88.2 76.2 81.5 75 Q 77 73.6 78 68 L 68.5 68 L 64.5 71 L 67.5 67 Z " /><path fill="rgb(0,209,106)" stroke="rgb(0,209,106)" stroke-width="1" opacity="0.996078431372549" d="M 114.5 69 L 113.5 71 L 114.5 69 Z " /><path fill="rgb(0,209,106)" stroke="rgb(0,209,106)" stroke-width="1" opacity="0.996078431372549" d="M 61.5 72 L 63 72.5 L 58.5 75 L 47.5 75 L 44.5 77 L 46.5 74 Q 56.8 75.8 61.5 72 Z " /><path fill="rgb(0,209,106)" stroke="rgb(0,209,106)" stroke-width="1" opacity="0.996078431372549" d="M 141 72 L 143 72.5 Q 139.2 73.3 140 78.5 L 144 83.5 L 143 83.5 L 139 78.5 L 139 74 Q 142 75 141 72 Z " /><path fill="rgb(0,209,106)" stroke="rgb(0,209,106)" stroke-width="1" opacity="0.996078431372549" d="M 156.5 72 Q 161.3 71.3 162 74.5 L 160.5 74 L 156.5 73 L 156.5 72 Z " /><path fill="rgb(0,209,106)" stroke="rgb(0,209,106)" stroke-width="1" opacity="0.996078431372549" d="M 163.5 76 Q 167.4 78.6 168 84.5 L 167 84.5 L 163 77.5 L 163.5 76 Z " /><path fill="rgb(0,209,106)" stroke="rgb(0,209,106)" stroke-width="1" opacity="0.996078431372549" d="M 42.5 78 L 37.5 84 L 38 82.5 L 39.5 80 L 42.5 78 Z " /><path fill="rgb(0,209,106)" stroke="rgb(0,209,106)" stroke-width="1" opacity="0.996078431372549" d="M 188.5 78 L 187 80.5 L 181.5 89 L 182 87.5 L 188.5 78 Z " /><path fill="rgb(0,209,106)" stroke="rgb(0,209,106)" stroke-width="1" opacity="0.996078431372549" d="M 118.5 79 L 122 79.5 L 115.5 83 L 115 81.5 L 118.5 79 Z " /><path fill="rgb(0,209,106)" stroke="rgb(0,209,106)" stroke-width="1" opacity="0.996078431372549" d="M 125.5 79 Q 128.8 77.9 128 80.5 L 129 82.5 L 128 82.5 L 126.5 80 L 125.5 79 Z " /><path fill="rgb(0,209,106)" stroke="rgb(0,209,106)" stroke-width="1" opacity="0.996078431372549" d="M 113 84 L 115 84.5 L 114 85.5 L 114 95.5 L 114.5 97 L 113 96.5 L 113 84 Z " /><path fill="rgb(0,209,106)" stroke="rgb(0,209,106)" stroke-width="1" opacity="0.996078431372549" d="M 35.5 85 L 36 86.5 L 34.5 89 L 34 87.5 L 35.5 85 Z " /><path fill="rgb(0,209,106)" stroke="rgb(0,209,106)" stroke-width="1" opacity="0.996078431372549" d="M 143.5 85 L 144 86.5 L 139.5 90 L 139 88 L 143 86.5 L 143.5 85 Z " /><path fill="rgb(0,209,106)" stroke="rgb(0,209,106)" stroke-width="1" opacity="0.996078431372549" d="M 179 90 L 181 90.5 L 176.5 96 L 177 94.5 L 179 90 Z " /><path fill="rgb(0,209,106)" stroke="rgb(0,209,106)" stroke-width="1" opacity="0.996078431372549" d="M 130.5 91 L 134 92.5 L 131.5 93 L 130.5 91 Z " /><path fill="rgb(0,209,106)" stroke="rgb(0,209,106)" stroke-width="1" opacity="0.996078431372549" d="M 169.5 97 L 170.5 99 L 169.5 97 Z " /><path fill="rgb(0,209,106)" stroke="rgb(0,209,106)" stroke-width="1" opacity="0.996078431372549" d="M 175.5 97 L 174.5 99 L 172 98.5 L 175.5 97 Z " /><path fill="rgb(0,209,106)" stroke="rgb(0,209,106)" stroke-width="1" opacity="0.996078431372549" d="M 116.5 99 L 121 102.5 L 119.5 103 L 116 101 L 116.5 99 Z " /><path fill="rgb(0,209,106)" stroke="rgb(0,209,106)" stroke-width="1" opacity="0.996078431372549" d="M 36.5 104 Q 38.8 103.3 38 105.5 L 42 110.5 L 38 107.5 L 36.5 104 Z " /><path fill="rgb(0,209,106)" stroke="rgb(0,209,106)" stroke-width="1" opacity="0.996078431372549" d="M 124.5 104 L 134 107 Q 135.5 115.2 130.5 118 L 131 116.5 Q 133.8 113.5 133 108 L 125.5 106 L 124.5 104 Z " /><path fill="rgb(0,209,106)" stroke="rgb(0,209,106)" stroke-width="1" opacity="0.996078431372549" d="M 43.5 111 L 45.5 112 L 67.5 112 Q 73.3 113.3 76 117.5 L 72.5 115 L 67.5 113 L 45.5 113 L 43.5 111 Z " /><path fill="rgb(0,209,106)" stroke="rgb(0,209,106)" stroke-width="1" opacity="0.996078431372549" d="M 76.5 119 L 78 119.5 L 78 135.5 L 80.5 139 L 87 140 L 88 142.5 L 85.5 141 Q 80 141.5 78 138.5 L 77 135.5 L 77 120.5 L 76.5 119 Z " /><path fill="rgb(0,209,106)" stroke="rgb(0,209,106)" stroke-width="1" opacity="0.996078431372549" d="M 129.5 119 L 128.5 121 L 129.5 119 Z " /><path fill="rgb(0,209,106)" stroke="rgb(0,209,106)" stroke-width="1" opacity="0.996078431372549" d="M 126.5 123 L 127 124.5 L 122.5 130 L 122 128.5 L 126.5 123 Z " /><path fill="rgb(0,209,106)" stroke="rgb(0,209,106)" stroke-width="1" opacity="0.996078431372549" d="M 121.5 131 L 119.5 134 Q 114.8 133.3 114 136.5 L 114 152.5 L 101.5 166 L 103 163.5 L 106.5 159 L 110 156.5 L 113 150.5 L 113 135.5 L 115.5 133 Q 120.1 133.6 121.5 131 Z " /><path fill="rgb(0,209,106)" stroke="rgb(0,209,106)" stroke-width="1" opacity="0.996078431372549" d="M 136.5 139 L 140 139.5 L 140 149.5 L 138 150.5 L 139 149.5 L 139 140 L 135.5 141 L 136.5 139 Z " /><path fill="rgb(0,209,106)" stroke="rgb(0,209,106)" stroke-width="1" opacity="0.996078431372549" d="M 89.5 164 L 96.5 167 L 99.5 166 L 99.5 167 L 94.5 168 Q 89.9 166.8 89.5 164 Z " /><path fill="rgb(0,192,119)" stroke="rgb(0,192,119)" stroke-width="1" opacity="0.996078431372549" d="M 86.5 12 L 99.5 12 L 108 18.5 L 106.5 19 L 99.5 13 L 86.5 13 L 86.5 12 Z " /><path fill="rgb(0,192,119)" stroke="rgb(0,192,119)" stroke-width="1" opacity="0.996078431372549" d="M 120.5 12 L 118 15.5 L 115.5 19 L 114 18.5 L 120.5 12 Z " /><path fill="rgb(0,192,119)" stroke="rgb(0,192,119)" stroke-width="1" opacity="0.996078431372549" d="M 81.5 14 L 83 14.5 L 74 20.5 L 74 30.5 L 75.5 31 L 77.5 31 Q 80.1 31.8 79 28.5 L 80 28.5 Q 80.5 32.5 77.5 33 L 73 32 L 73 19.5 L 74.5 18 L 81.5 14 Z " /><path fill="rgb(0,192,119)" stroke="rgb(0,192,119)" stroke-width="1" opacity="0.996078431372549" d="M 83.5 21 Q 87.3 20.3 88 22.5 L 89 31.5 L 88 35.5 L 84.5 39 L 87 35.5 L 87 22.5 L 83.5 22 L 80.5 26 L 80 24.5 L 83.5 21 Z " /><path fill="rgb(0,192,119)" stroke="rgb(0,192,119)" stroke-width="1" opacity="0.996078431372549" d="M 56.5 36 Q 64.1 34.9 67 38.5 L 65.5 39 Q 62.8 36.2 56.5 37 L 55 38.5 Q 56.5 44.5 53.5 46 L 53 43.5 L 54 38.5 L 56.5 36 Z " /><path fill="rgb(0,192,119)" stroke="rgb(0,192,119)" stroke-width="1" opacity="0.996078431372549" d="M 68.5 39 L 83 39.5 L 68.5 40 L 68.5 39 Z " /><path fill="rgb(0,192,119)" stroke="rgb(0,192,119)" stroke-width="1" opacity="0.996078431372549" d="M 49.5 46 L 52 46.5 L 48 48.5 L 48 59.5 L 50.5 62 Q 57.5 63.5 57 60.5 L 59 59.5 L 56.5 63 Q 49.3 64.3 47 60.5 L 47 48.5 L 49.5 46 Z " /><path fill="rgb(0,192,119)" stroke="rgb(0,192,119)" stroke-width="1" opacity="0.996078431372549" d="M 93.5 49 L 95 49.5 L 92 51.5 L 86.5 59 L 82.5 60 L 71.5 53 L 61.5 53 L 59.5 57 L 59 53.5 L 60.5 52 L 71.5 52 Q 76.3 57.2 84.5 59 L 88 56.5 L 93.5 49 Z " /><path fill="rgb(0,192,119)" stroke="rgb(0,192,119)" stroke-width="1" opacity="0.996078431372549" d="M 99.5 49 Q 102.9 52 102 58 L 109 59.5 L 103.5 60 L 101 59 L 99.5 49 Z " /><path fill="rgb(0,192,119)" stroke="rgb(0,192,119)" stroke-width="1" opacity="0.996078431372549" d="M 110.5 60 Q 114.9 62.1 115 68.5 Q 114.3 71.8 109.5 71 L 102 67.5 L 104.5 67 L 111.5 70 L 114 66.5 L 110.5 60 Z " /><path fill="rgb(0,192,119)" stroke="rgb(0,192,119)" stroke-width="1" opacity="0.996078431372549" d="M 69.5 66 Q 78 64 80 68.5 Q 79.3 72.3 81.5 73 L 87.5 73 L 95.5 67 L 94.5 69 L 87.5 74 L 81.5 74 L 77.5 67 L 69.5 67 L 69.5 66 Z " /><path fill="rgb(0,192,119)" stroke="rgb(0,192,119)" stroke-width="1" opacity="0.996078431372549" d="M 97.5 66 L 101 66.5 L 97.5 67 L 97.5 66 Z " /><path fill="rgb(0,192,119)" stroke="rgb(0,192,119)" stroke-width="1" opacity="0.996078431372549" d="M 66.5 67 L 62.5 72 L 59.5 73 L 59.5 72 L 66.5 67 Z " /><path fill="rgb(0,192,119)" stroke="rgb(0,192,119)" stroke-width="1" opacity="0.996078431372549" d="M 143.5 72 Q 157.8 69.8 163 76.5 L 165 79.5 L 162 77.5 Q 162.8 75.3 160.5 76 Q 156.1 70.9 144.5 73 L 141 75.5 L 141 78.5 L 145 82.5 L 145 87.5 Q 140.5 93 131.5 94 L 128 91.5 L 126 80.5 L 128 81.5 L 129 90.5 L 131.5 93 Q 139.8 91.8 144 86.5 L 144 82.5 L 140 78.5 L 140 75.5 L 143.5 72 Z " /><path fill="rgb(0,192,119)" stroke="rgb(0,192,119)" stroke-width="1" opacity="0.996078431372549" d="M 46.5 73 L 58 73.5 L 46.5 74 L 38 81.5 Q 31.6 86.1 34 99.5 Q 36.1 106.9 41.5 111 L 45.5 113 L 68 113.5 L 45.5 114 Q 39.4 112.6 37 107.5 Q 31.7 102.3 32 91.5 Q 34.8 79.3 44.5 74 L 46.5 73 Z " /><path fill="rgb(0,192,119)" stroke="rgb(0,192,119)" stroke-width="1" opacity="0.996078431372549" d="M 189.5 77 L 190 78.5 L 180.5 92 L 181 90.5 L 189.5 77 Z " /><path fill="rgb(0,192,119)" stroke="rgb(0,192,119)" stroke-width="1" opacity="0.996078431372549" d="M 122.5 79 L 125 79.5 L 122.5 80 L 122.5 79 Z " /><path fill="rgb(0,192,119)" stroke="rgb(0,192,119)" stroke-width="1" opacity="0.996078431372549" d="M 117.5 81 L 116 83.5 Q 113.3 87.3 115 95.5 L 118 99.5 L 115 97.5 Q 112.3 93.7 114 85.5 L 117.5 81 Z " /><path fill="rgb(0,192,119)" stroke="rgb(0,192,119)" stroke-width="1" opacity="0.996078431372549" d="M 165.5 81 L 169 88.5 L 169 97.5 L 170.5 99 Q 175 100 176 97.5 L 179.5 93 L 178 95.5 L 177 99 Q 174.9 100.6 169.5 100 L 168 98.5 L 168 89.5 L 165.5 81 Z " /><path fill="rgb(0,192,119)" stroke="rgb(0,192,119)" stroke-width="1" opacity="0.996078431372549" d="M 119.5 100 L 127 104.5 L 125.5 105 Q 120.5 103.5 119.5 100 Z " /><path fill="rgb(0,192,119)" stroke="rgb(0,192,119)" stroke-width="1" opacity="0.996078431372549" d="M 132.5 106 L 135 107.5 L 134.5 113 L 134 107 L 132.5 106 Z " /><path fill="rgb(0,192,119)" stroke="rgb(0,192,119)" stroke-width="1" opacity="0.996078431372549" d="M 69.5 114 L 76 118.5 L 77 123.5 L 76 123.5 L 76 120.5 L 72.5 116 Q 68.8 115.7 69.5 114 Z " /><path fill="rgb(0,192,119)" stroke="rgb(0,192,119)" stroke-width="1" opacity="0.996078431372549" d="M 133.5 114 L 134 115.5 L 122 134 L 120 133.5 L 133.5 114 Z " /><path fill="rgb(0,192,119)" stroke="rgb(0,192,119)" stroke-width="1" opacity="0.996078431372549" d="M 116.5 134 L 115 136.5 L 114.5 140 L 114 136.5 L 116.5 134 Z " /><path fill="rgb(0,192,119)" stroke="rgb(0,192,119)" stroke-width="1" opacity="0.996078431372549" d="M 77.5 136 L 79.5 140 L 82 140.5 L 79.5 141 Q 75.8 139.8 77.5 136 Z " /><path fill="rgb(0,192,119)" stroke="rgb(0,192,119)" stroke-width="1" opacity="0.996078431372549" d="M 135.5 138 L 139 138.5 L 135 140.5 L 135 149.5 L 136.5 151 L 140 149.5 L 140.5 140 L 141 149.5 Q 140.3 152.8 135.5 152 L 134 150.5 L 134 139.5 L 135.5 138 Z " /><path fill="rgb(0,192,119)" stroke="rgb(0,192,119)" stroke-width="1" opacity="0.996078431372549" d="M 85.5 141 L 88 143.5 L 88 162.5 L 90.5 166 L 94 167.5 L 91.5 168 L 87 163.5 L 87 144.5 L 85.5 141 Z " /><path fill="rgb(0,192,119)" stroke="rgb(0,192,119)" stroke-width="1" opacity="0.996078431372549" d="M 113.5 153 L 114 154.5 L 109.5 160 L 104 164.5 Q 104.8 166.8 102.5 166 L 97.5 168 L 97.5 167 L 101.5 166 L 113 154.5 L 113.5 153 Z " /><path fill="rgb(0,210,106)" stroke="rgb(0,210,106)" stroke-width="1" opacity="1" d="M 86.5 14 L 99.5 14 L 106.5 20 L 116 20 Q 114.9 17.3 117.5 18 L 121.5 14 L 123.5 14 L 134.5 17 L 148.5 24 L 169 41.5 Q 176.5 47.5 179 57 Q 181.7 55.9 181 58.5 Q 185.5 63.4 186 71 Q 189.3 69.7 188 74.5 L 189 77.5 Q 183 82.1 181 90 Q 178.3 88.9 179 91.5 L 174.5 98 L 171.5 99 L 169 96.5 Q 170.3 86.3 167 80.5 L 163.5 76 Q 161.3 76.8 162 74.5 L 159.5 72 L 141 72 Q 142 75 139 74 L 139 78.5 L 144 84.5 L 141.5 88 L 139 88 Q 140.1 90.7 137.5 90 Q 136.1 92.6 131.5 92 L 129 91 Q 130.3 82.7 128 79 L 118.5 79 L 115 81.5 L 115 84 L 113 84.5 L 113 97 L 116 98.5 Q 114.9 101.8 117.5 101 L 127.5 107 L 133 108 L 133 112.5 L 128 120.5 L 128 123 L 125 124.5 L 120.5 132 L 115.5 133 L 113 135.5 L 113 150.5 L 107.5 159 L 103 162.5 L 100.5 166 L 94.5 167 L 89 164 L 88 160.5 L 88 142.5 L 87 140 Q 81.3 141 79 137.5 L 78 135.5 L 78 119 Q 75.3 120.1 76 117.5 Q 73.3 113.3 67.5 112 L 45.5 112 L 39 107.5 L 38 104 Q 35 105.3 36 101.5 Q 32.2 98.3 34 89.5 L 36 84 L 43 78.5 Q 42.3 76.3 44.5 77 L 47.5 75 L 58.5 75 L 63 72.5 Q 62.3 70.3 64.5 71 L 68.5 68 L 78 68 Q 77 73.6 81.5 75 Q 89.1 75.9 92 73 L 93.5 70 Q 95.5 67 101.5 68 L 108.5 71 L 113.5 71 Q 116.5 69.5 115 63.5 L 111.5 59 L 102 58 L 102 50.5 L 99.5 48 L 92.5 48 L 92 49.5 L 88 56 L 84.5 58 L 81.5 58 L 73.5 52 L 58 52 Q 59.3 58.5 55.5 61 Q 49.3 62.3 48 58.5 Q 47 51 49 48 L 55 47 Q 54.1 40.8 56 38 L 59.5 37 L 67.5 41 L 82.5 41 L 87 40 L 89 33.5 L 89 23.5 L 88 20 Q 81.7 18.5 80 22.5 L 78 31 Q 73.9 32.7 75 28.5 Q 72.8 27.3 74 22.5 L 76 18 L 86.5 14 Z " /><path fill="rgb(0,210,106)" stroke="rgb(0,210,106)" stroke-width="1" opacity="1" d="M 136.5 140 L 139 140.5 L 139 149.5 L 136.5 151 L 135 149.5 L 135 141.5 L 136.5 140 Z " /><path fill="rgb(155,194,211)" stroke="rgb(155,194,211)" stroke-width="1" opacity="0.37254901960784315" d="M 87.5 8 L 111.5 8 L 113 9.5 Q 111.8 12.3 110.5 10 L 88.5 10 L 67.5 15 Q 46.2 23.2 32 38.5 Q 20.3 50.3 13 66.5 L 7 85.5 Q 8.5 91 6 92.5 L 6 115.5 Q 13.3 156.2 40.5 177 Q 54.7 188.8 74.5 195 L 83.5 197 L 91.5 197 L 92.5 198 L 108.5 198 L 129.5 194 L 145.5 187 L 157.5 179 L 172 165.5 L 187 141.5 L 191 130.5 L 194.5 112 L 195 121.5 L 193 131.5 L 189 138.5 L 187 147.5 L 174 165.5 L 174 168 L 168 172.5 L 168 174 L 166 174 Q 167.1 176.7 164.5 176 Q 158.5 183 149 186.5 Q 149.8 188.8 147.5 188 L 139.5 192 L 136.5 192 L 133.5 195 L 121.5 198 L 113.5 198 L 112.5 199 L 87.5 199 L 67.5 195 L 65.5 193 L 58.5 191 L 34 174.5 L 32.5 172 L 27 167.5 L 17 153.5 L 14 145 Q 11.3 146.1 12 143.5 L 5 121.5 L 4 95.5 L 5 94.5 L 6 80.5 L 8 78.5 L 8 74.5 Q 11 71.5 11 65.5 L 20.5 49 Q 23.1 49.8 22 46.5 L 37.5 30 L 49 22.5 Q 48.3 20.3 50.5 21 L 60.5 17 L 63.5 14 L 78.5 10 L 85.5 10 L 87.5 8 Z " /><path fill="rgb(155,194,211)" stroke="rgb(155,194,211)" stroke-width="1" opacity="0.37254901960784315" d="M 114.5 10 L 121.5 10 L 136.5 14 L 150.5 21 L 167 33.5 L 170.5 38 Q 172.8 37.3 172 39.5 L 181 50.5 L 183 56 Q 185.7 54.9 185 57.5 L 193 76.5 L 194 87.5 L 195 88.5 L 195 97.5 L 194 97.5 L 191 75.5 L 183 57.5 Q 173.2 40.8 158.5 29 L 136.5 16 L 123.5 12 L 114.5 11 L 114.5 10 Z " /><path fill="rgb(155,194,211)" stroke="rgb(155,194,211)" stroke-width="1" opacity="0.37254901960784315" d="M 194 99 L 196 99.5 L 196 109 L 194 108.5 L 194 99 Z " /><path fill="rgb(0,117,185)" stroke="rgb(0,117,185)" stroke-width="1" opacity="0.996078431372549" d="M 89.5 10 L 110.5 10 L 111 11.5 L 109.5 11 L 101 11.5 L 108.5 18 L 113.5 18 L 117 13.5 L 112 13 Q 110.5 9.2 113.5 10 L 120 12.5 L 113.5 19 L 108.5 19 L 99.5 12 L 86.5 12 L 73 19.5 L 73 31.5 L 74.5 32 L 77.5 33 L 80 30.5 L 80 26.5 L 83.5 22 L 87 22.5 L 87 35.5 L 83.5 39 L 67.5 39 L 63 36.5 L 64.5 36 L 68.5 38 L 82.5 38 L 86 33.5 L 86 23 L 82 25.5 L 81 31.5 L 78.5 34 Q 73 35 72 31.5 L 72 18.5 L 73.5 18 L 78 14.5 L 75.5 14 L 72.5 16 L 63 18 Q 64.1 20.7 61.5 20 L 52 24 Q 53.3 27 49.5 26 L 42 31.5 Q 42.8 33.8 40.5 33 L 34 38.5 L 31.5 42 L 28 44.5 Q 29.1 47.8 26.5 47 L 25 51 L 22 52.5 L 20 59 L 18 59.5 L 19 60.5 L 16 63.5 L 12 73.5 L 12.5 75 L 11 75.5 L 11 77.5 Q 12.3 82.3 9 81 Q 15.9 52.1 35.5 35 L 56.5 20 L 70.5 14 L 89.5 10 Z " /><path fill="rgb(0,117,185)" stroke="rgb(0,117,185)" stroke-width="1" opacity="0.996078431372549" d="M 58.5 34 L 62 35.5 Q 55.7 34.7 54 38.5 L 53 46 Q 48.3 45 47 48.5 L 47 60.5 L 48.5 62 L 56.5 63 L 59 60.5 Q 58.5 55 61.5 53 L 71.5 53 L 79.5 59 L 84.5 60 L 90 55.5 L 93.5 50 L 98.5 49 L 100 50.5 Q 99.3 56.6 101 59 Q 103.4 60.8 109.5 60 L 113 63.5 L 114 67.5 L 110.5 70 Q 105.8 66.2 97.5 66 L 87.5 73 L 81.5 73 L 77.5 66 L 66.5 67 L 58.5 73 L 46.5 73 L 35 83.5 L 33 86.5 L 32 96.5 Q 34.6 107.4 42.5 113 L 45.5 114 L 68.5 114 L 74 117.5 Q 79.1 124.4 77 138.5 L 79.5 141 Q 84.8 139.8 86 142.5 L 87 144.5 L 87 163.5 L 91.5 168 Q 100.4 169.1 104 166 L 108.5 160 L 111 158.5 L 114 154.5 L 114 140.5 L 115 136.5 L 117.5 134 Q 122.9 135.9 122 132.5 L 134 115.5 L 135 107.5 L 133.5 106 L 127.5 105 L 117 98.5 Q 113 95 115 85.5 L 118.5 81 L 125.5 80 Q 128.8 81.8 127 88.5 L 129.5 93 L 133.5 94 L 145 87.5 L 145 82.5 L 141 78.5 L 141 75.5 L 144.5 73 L 155.5 73 L 162 76 L 167 85.5 L 168 92.5 L 167 92.5 Q 165.9 80.6 158.5 75 L 143.5 75 L 142 76.5 Q 146.2 79.3 147 85.5 L 146 89 L 135.5 95 L 130.5 95 L 126 89.5 Q 127.7 82.8 124.5 81 L 119.5 82 L 116 85.5 L 116 95.5 L 119.5 99 Q 125.1 104.6 135 105 Q 136.7 107.4 136 113.5 L 121.5 136 Q 117 135 116 137.5 Q 113.6 144.6 115 155.5 L 101.5 169 L 90.5 169 L 87 165.5 L 85 160.5 L 85 143.5 L 83.5 142 Q 77.3 143.3 76 139.5 Q 78.4 123.6 71.5 117 L 67.5 115 L 44.5 115 L 36 108.5 L 31 98.5 L 31 89.5 L 39.5 77 L 42 75.5 L 43.5 73 L 45.5 72 L 56.5 72 L 63 68.5 Q 62.3 66.3 64.5 67 L 67.5 65 L 78.5 65 L 82.5 72 L 86.5 72 L 95.5 65 L 102.5 65 L 112 69 Q 113.3 62.6 108.5 61 Q 100.5 62.5 99 57.5 Q 100.5 51.5 97.5 50 L 93 52.5 L 86.5 61 L 81.5 61 L 70.5 54 L 62.5 54 L 61 55.5 L 60 61.5 L 57.5 64 Q 50 65 47 63 Q 43.7 59.1 45 49.5 L 48.5 45 L 52 43.5 Q 51.5 38 54.5 36 L 58.5 34 Z " /><path fill="rgb(0,117,185)" stroke="rgb(0,117,185)" stroke-width="1" opacity="0.996078431372549" d="M 190.5 78 L 193 85.5 L 193 90.5 L 191 89.5 Q 192.8 82.8 189.5 81 L 180 96.5 L 175.5 101 L 168.5 101 L 168 99.5 L 169.5 100 Q 174.9 100.6 177 99 L 178 95.5 L 190.5 78 Z " /><path fill="rgb(0,117,185)" stroke="rgb(0,117,185)" stroke-width="1" opacity="0.996078431372549" d="M 8.5 82 L 9 86.5 L 7 95.5 L 7 110.5 L 7 112.5 L 9 120.5 L 9 122.5 L 8.5 125 L 6 115.5 L 6 95.5 L 6 93.5 L 8.5 82 Z " /><path fill="rgb(0,117,185)" stroke="rgb(0,117,185)" stroke-width="1" opacity="0.996078431372549" d="M 193.5 93 L 195 98.5 L 193 101.5 L 194 107 L 192 106.5 L 193 102.5 L 193 100.5 L 193.5 93 Z " /><path fill="rgb(0,117,185)" stroke="rgb(0,117,185)" stroke-width="1" opacity="0.996078431372549" d="M 193 109 Q 196 107.8 195 111.5 L 189 136 L 187 136.5 L 188 139 L 186 138.5 L 186 136.5 L 190 129.5 L 193 109 Z " /><path fill="rgb(0,117,185)" stroke="rgb(0,117,185)" stroke-width="1" opacity="0.996078431372549" d="M 9 127 Q 12 125.8 11 129.5 L 13 133.5 L 15 143 Q 17.7 141.9 17 144.5 L 17.5 147 L 19 147.5 Q 16.5 149 20 150.5 L 26.5 161 Q 29.1 160.2 28 163.5 L 34 168.5 L 35.5 171 L 42 175 Q 40.9 177.7 43.5 177 L 55.5 186 L 57 185.5 L 57.5 187 L 59 186.5 L 59.5 188 Q 61.3 185.3 63 189.5 L 61.5 190 Q 39.8 180.2 26 162.5 Q 17.5 152 12 138.5 L 9 127 Z " /><path fill="rgb(0,117,185)" stroke="rgb(0,117,185)" stroke-width="1" opacity="0.996078431372549" d="M 134 137 L 140.5 137 L 142 138.5 L 142 150.5 L 139.5 153 Q 134 154 133 150.5 Q 130.7 147.3 132 140.5 L 134 137 Z M 136 138 L 134 140 L 134 151 Q 135 153 139 152 L 141 150 L 141 141 Q 140 137 136 138 Z " /><path fill="rgb(0,117,185)" stroke="rgb(0,117,185)" stroke-width="1" opacity="0.996078431372549" d="M 185 140 L 187 140.5 L 182.5 149 L 183 147.5 L 185 140 Z " /><path fill="rgb(0,117,185)" stroke="rgb(0,117,185)" stroke-width="1" opacity="0.996078431372549" d="M 180 150 L 182 150.5 L 171 167 L 166 170.5 L 164.5 173 L 145.5 187 L 135.5 191 L 134 190.5 Q 134.8 192.8 132.5 192 Q 124.3 196.8 111.5 197 L 109.5 197 L 96.5 198 L 88.5 196 L 85.5 197 L 74.5 195 L 64 191 L 64.5 189 L 66.5 191 L 76.5 194 L 78.5 194 L 87.5 196 L 89.5 196 L 109.5 196 L 110.5 195 L 113.5 196 L 123.5 193 L 125.5 193 L 131.5 192 L 133 190.5 Q 132.2 187.9 135.5 189 L 137 189.5 Q 136.3 187.3 138.5 188 L 148 183.5 L 148.5 182 Q 150 184.5 151.5 181 L 154.5 179 L 157 178 L 159.5 174 Q 164.5 174.5 165 170.5 L 166.5 168 L 171 164.5 Q 170.5 160.5 173.5 160 Q 175.8 160.8 175 158.5 Q 179.2 156.2 177.5 154 Q 179.8 154.8 179 152.5 L 180 150 Z " /><path fill="rgb(0,116,186)" stroke="rgb(0,116,186)" stroke-width="1" opacity="1" d="M 101.5 11 L 109.5 11 L 110.5 12 L 112 11.5 Q 111.1 14.9 116.5 13 L 116 14.5 L 113.5 18 L 108.5 18 L 101.5 11 Z " /><path fill="rgb(0,116,186)" stroke="rgb(0,116,186)" stroke-width="1" opacity="1" d="M 78.5 13 L 80 13.5 L 72 18 L 72 31.5 L 74.5 34 Q 80 35 81 31.5 Q 80.6 25.1 84.5 23 L 86 23.5 L 86 33.5 L 82.5 38 L 68.5 38 L 58.5 34 L 53 37.5 L 52 43.5 L 50.5 45 Q 46.5 44.5 46 47.5 Q 43.5 51 45 58.5 L 47 63 Q 50 65 57.5 64 L 60 61.5 L 61 55.5 L 62.5 54 L 70.5 54 L 81.5 61 L 86.5 61 L 94.5 51 L 97.5 50 Q 100.5 51.5 99 57.5 L 102.5 61 Q 110.5 59.5 112 64.5 Q 113.9 69.9 110.5 69 Q 106.2 63.8 95.5 65 L 86.5 72 L 82.5 72 L 78.5 65 Q 67.5 63.4 63 67 L 61.5 70 Q 56.1 73.6 45.5 72 L 42 74.5 L 40.5 77 L 36 80.5 L 31 89.5 L 31 98.5 L 38.5 111 L 44.5 115 L 67.5 115 L 74 119.5 Q 77.8 126.7 76 139.5 L 78.5 142 Q 83.8 140.8 85 143.5 L 85 160.5 Q 86.3 166.3 90.5 169 L 101.5 169 L 115 155.5 Q 112.8 142.3 117.5 136 Q 122 137 123 134.5 L 123 132.5 L 135 116.5 L 136 107.5 L 135 105 Q 122.2 104.1 116 95.5 L 116 85.5 L 119.5 82 L 124.5 81 Q 127.8 82.8 126 89.5 L 130.5 95 L 135.5 95 L 146 89 L 147 84.5 L 142 76.5 L 143.5 75 L 158.5 75 Q 168.2 83.5 168 101 Q 177.7 103 180 96.5 L 189.5 81 Q 192.8 82.8 191 89.5 L 193 91.5 L 193 100.5 L 194 101.5 L 192 106.5 L 194 107 L 192 113.5 L 190 129.5 L 186 136.5 L 188 136.5 Q 184.9 138.3 186.5 140 Q 184.3 139.3 185 141.5 L 182 150 Q 179.3 148.9 180 151.5 L 179 154 L 177 154.5 L 178 155.5 L 175 158.5 Q 175.8 160.8 173.5 160 L 167.5 168 L 165 169.5 L 161.5 174 Q 157.5 173.5 157 176.5 Q 157.8 178.8 155.5 178 L 153 179 Q 154.1 181.7 151.5 181 Q 149.8 184.1 148 182.5 L 146.5 185 L 137 188 L 136.5 190 L 133 189 L 131.5 192 L 124.5 194 L 122.5 194 L 114.5 195 L 110.5 197 L 109.5 196 L 89.5 196 L 87.5 196 L 77.5 193 L 75.5 193 L 66.5 191 L 64.5 189 L 63.5 190 Q 61.2 185.8 59 187.5 L 58.5 186 L 57 186.5 L 56.5 185 Q 55 187.5 53.5 184 L 42 177 Q 43.1 174.3 40.5 175 L 34 169.5 L 30.5 165 L 28 163.5 Q 29.1 160.2 26.5 161 L 18 148.5 L 18.5 147 L 17 146.5 L 17 144.5 L 15 141.5 L 13 133.5 L 11 131.5 L 11 129.5 L 11 127 L 9 126.5 L 9 122.5 L 8 119.5 L 7 112.5 L 7 110.5 L 7 95.5 L 6 94.5 L 8 94.5 L 9 81 Q 12.3 82.3 11 77.5 L 11.5 75 L 13 74.5 L 13 72.5 L 14 67.5 L 19 60.5 L 18.5 59 Q 21.1 59.8 20 56.5 L 23.5 51 Q 26.1 51.8 25 48.5 L 28 47 Q 27.3 43.2 30.5 42 L 34 39.5 L 37.5 35 L 42 33 L 43.5 30 L 49.5 26 L 52 26 Q 50.9 23.3 53.5 24 L 55.5 22 L 63 20 Q 61.9 17.3 64.5 18 L 78.5 13 Z M 134 137 L 132 141 Q 131 147 133 151 Q 134 154 140 153 L 142 151 L 142 139 L 141 137 L 134 137 Z " /></svg>