<svg width="200" height="200" version="1.1" xmlns="http://www.w3.org/2000/svg" desc="Created with imagetracer.js version 1.2.6" ><path fill="rgb(143,143,142)" stroke="rgb(143,143,142)" stroke-width="1" opacity="0.09411764705882353" d="M 81.5 12 L 85 12.5 L 81.5 13 L 81.5 12 Z " /><path fill="rgb(143,143,142)" stroke="rgb(143,143,142)" stroke-width="1" opacity="0.09411764705882353" d="M 90.5 12 L 96 12.5 L 90.5 13 L 90.5 12 Z " /><path fill="rgb(143,143,142)" stroke="rgb(143,143,142)" stroke-width="1" opacity="0.09411764705882353" d="M 110.5 12 L 115 12.5 L 110.5 13 L 110.5 12 Z " /><path fill="rgb(143,143,142)" stroke="rgb(143,143,142)" stroke-width="1" opacity="0.09411764705882353" d="M 119.5 12 L 125 12.5 L 119.5 13 L 119.5 12 Z " /><path fill="rgb(143,143,142)" stroke="rgb(143,143,142)" stroke-width="1" opacity="0.09411764705882353" d="M 67.5 15 L 70 15.5 L 57.5 21 L 58.5 19 L 67.5 15 Z " /><path fill="rgb(143,143,142)" stroke="rgb(143,143,142)" stroke-width="1" opacity="0.09411764705882353" d="M 138.5 16 Q 152.4 20.1 161 29.5 L 162.5 32 Q 164.8 31.3 164 33.5 L 171 44.5 L 170 44.5 Q 165 34 156.5 27 Q 149.4 20.1 138.5 17 L 138.5 16 Z " /><path fill="rgb(143,143,142)" stroke="rgb(143,143,142)" stroke-width="1" opacity="0.09411764705882353" d="M 56.5 23 L 57 24.5 L 49.5 30 L 50.5 28 L 56.5 23 Z " /><path fill="rgb(143,143,142)" stroke="rgb(143,143,142)" stroke-width="1" opacity="0.09411764705882353" d="M 45.5 29 L 47 29.5 L 45 30 L 44 33.5 L 45 35.5 L 39.5 43 L 38 41.5 L 42 37.5 L 43 30 L 45.5 29 Z " /><path fill="rgb(143,143,142)" stroke="rgb(143,143,142)" stroke-width="1" opacity="0.09411764705882353" d="M 35.5 42 L 36 43.5 L 31.5 51 L 31 49.5 L 35.5 42 Z " /><path fill="rgb(143,143,142)" stroke="rgb(143,143,142)" stroke-width="1" opacity="0.09411764705882353" d="M 171.5 46 L 174 50.5 L 173 50.5 L 171.5 46 Z " /><path fill="rgb(143,143,142)" stroke="rgb(143,143,142)" stroke-width="1" opacity="0.09411764705882353" d="M 102.5 60 Q 108.2 71.3 117.5 79 L 132 88.5 L 130.5 89 L 115 78.5 L 112.5 75 Q 110.3 75.8 111 73.5 L 102.5 62 L 100 63.5 L 102.5 60 Z " /><path fill="rgb(143,143,142)" stroke="rgb(143,143,142)" stroke-width="1" opacity="0.09411764705882353" d="M 27.5 63 L 28 66.5 L 27 66.5 L 27.5 63 Z " /><path fill="rgb(143,143,142)" stroke="rgb(143,143,142)" stroke-width="1" opacity="0.09411764705882353" d="M 99.5 65 L 100 66.5 L 86.5 82 L 73.5 89 L 73.5 88 Q 87.1 81.6 96 70.5 L 99.5 65 Z " /><path fill="rgb(143,143,142)" stroke="rgb(143,143,142)" stroke-width="1" opacity="0.09411764705882353" d="M 177.5 66 L 178 68.5 L 177 68.5 L 177.5 66 Z " /><path fill="rgb(143,143,142)" stroke="rgb(143,143,142)" stroke-width="1" opacity="0.09411764705882353" d="M 177.5 78 L 178 80.5 L 177 80.5 L 177.5 78 Z " /><path fill="rgb(143,143,142)" stroke="rgb(143,143,142)" stroke-width="1" opacity="0.09411764705882353" d="M 29.5 89 L 30 91 L 34 92.5 L 32.5 93 L 29 90.5 L 29.5 89 Z " /><path fill="rgb(143,143,142)" stroke="rgb(143,143,142)" stroke-width="1" opacity="0.09411764705882353" d="M 70 89 L 72 89.5 L 70 90.5 L 70 89 Z " /><path fill="rgb(143,143,142)" stroke="rgb(143,143,142)" stroke-width="1" opacity="0.09411764705882353" d="M 173.5 91 L 172.5 93 L 173.5 91 Z " /><path fill="rgb(143,143,142)" stroke="rgb(143,143,142)" stroke-width="1" opacity="0.09411764705882353" d="M 34.5 99 L 36 103.5 L 34.5 106 L 34 104.5 L 34 102.5 L 34.5 99 Z " /><path fill="rgb(143,143,142)" stroke="rgb(143,143,142)" stroke-width="1" opacity="0.09411764705882353" d="M 171.5 108 L 172 110.5 L 171 110.5 L 171.5 108 Z " /><path fill="rgb(143,143,142)" stroke="rgb(143,143,142)" stroke-width="1" opacity="0.09411764705882353" d="M 67.5 124 L 69 126.5 L 68 126.5 L 67.5 124 Z " /><path fill="rgb(143,143,142)" stroke="rgb(143,143,142)" stroke-width="1" opacity="0.09411764705882353" d="M 137.5 124 L 137 125.5 L 136.5 127 L 136 125.5 L 137.5 124 Z " /><path fill="rgb(143,143,142)" stroke="rgb(143,143,142)" stroke-width="1" opacity="0.09411764705882353" d="M 171.5 130 L 172 132.5 L 171 132.5 L 171.5 130 Z " /><path fill="rgb(143,143,142)" stroke="rgb(143,143,142)" stroke-width="1" opacity="0.09411764705882353" d="M 171.5 137 L 172 139.5 L 171 139.5 L 171.5 137 Z " /><path fill="rgb(143,143,142)" stroke="rgb(143,143,142)" stroke-width="1" opacity="0.09411764705882353" d="M 31.5 146 L 33 146.5 L 28 150.5 L 31.5 146 Z " /><path fill="rgb(143,143,142)" stroke="rgb(143,143,142)" stroke-width="1" opacity="0.09411764705882353" d="M 70.5 146 L 73.5 148 L 76 153.5 L 75 153.5 L 75 151.5 L 70.5 146 Z " /><path fill="rgb(143,143,142)" stroke="rgb(143,143,142)" stroke-width="1" opacity="0.09411764705882353" d="M 172.5 146 L 174 146 L 174 148 Q 176.7 146.9 176 149.5 L 178 153.5 L 177 153.5 L 172.5 146 Z " /><path fill="rgb(143,143,142)" stroke="rgb(143,143,142)" stroke-width="1" opacity="0.09411764705882353" d="M 131.5 148 L 132 149.5 L 129.5 153 L 129 151.5 L 131.5 148 Z " /><path fill="rgb(143,143,142)" stroke="rgb(143,143,142)" stroke-width="1" opacity="0.09411764705882353" d="M 177.5 157 L 178 159.5 L 176 164 Q 173.3 162.9 174 165.5 L 171.5 169 L 171 165 L 176 161.5 L 177.5 157 Z " /><path fill="rgb(143,143,142)" stroke="rgb(143,143,142)" stroke-width="1" opacity="0.09411764705882353" d="M 27.5 158 L 34 167.5 L 29 163.5 L 27.5 158 Z " /><path fill="rgb(143,143,142)" stroke="rgb(143,143,142)" stroke-width="1" opacity="0.09411764705882353" d="M 129.5 158 L 135 166.5 L 133 165.5 L 131.5 163 Q 129.3 163.8 130 161.5 L 129.5 158 Z " /><path fill="rgb(143,143,142)" stroke="rgb(143,143,142)" stroke-width="1" opacity="0.09411764705882353" d="M 75.5 159 L 76 160.5 L 73.5 164 L 73 162.5 L 75.5 159 Z " /><path fill="rgb(143,143,142)" stroke="rgb(143,143,142)" stroke-width="1" opacity="0.09411764705882353" d="M 171.5 172 L 172 175.5 L 171 175.5 L 171.5 172 Z " /><path fill="rgb(143,143,142)" stroke="rgb(143,143,142)" stroke-width="1" opacity="0.09411764705882353" d="M 35.5 180 L 42.5 190 L 50.5 195 L 53.5 195 L 64 186.5 L 67.5 180 L 68 181.5 L 64.5 188 Q 62.3 187.3 63 189.5 L 53.5 196 L 49.5 196 L 37 185.5 L 35.5 180 Z " /><path fill="rgb(143,143,142)" stroke="rgb(143,143,142)" stroke-width="1" opacity="0.09411764705882353" d="M 137.5 180 L 146 191.5 L 138 184.5 L 137.5 180 Z " /><path fill="rgb(143,143,142)" stroke="rgb(143,143,142)" stroke-width="1" opacity="0.09411764705882353" d="M 169.5 180 L 170 181.5 L 161.5 192 L 155.5 196 L 151.5 196 L 147 194 L 147.5 192 Q 148.9 195.6 154.5 195 Q 163.3 191.3 168 183.5 L 169.5 180 Z " /><path fill="rgb(220,140,63)" stroke="rgb(220,140,63)" stroke-width="1" opacity="0.996078431372549" d="M 83.5 20 L 93 20.5 L 83.5 21 L 83.5 20 Z " /><path fill="rgb(220,140,63)" stroke="rgb(220,140,63)" stroke-width="1" opacity="0.996078431372549" d="M 112.5 20 L 122 20.5 L 112.5 21 L 112.5 20 Z " /><path fill="rgb(220,140,63)" stroke="rgb(220,140,63)" stroke-width="1" opacity="0.996078431372549" d="M 76.5 21 L 82 21.5 L 70.5 24 L 70.5 23 L 76.5 21 Z " /><path fill="rgb(220,140,63)" stroke="rgb(220,140,63)" stroke-width="1" opacity="0.996078431372549" d="M 94.5 21 L 105 22.5 L 100.5 23 Q 99.2 20.8 94.5 22 L 94.5 21 Z " /><path fill="rgb(220,140,63)" stroke="rgb(220,140,63)" stroke-width="1" opacity="0.996078431372549" d="M 106.5 21 L 111 21.5 L 106.5 22 L 106.5 21 Z " /><path fill="rgb(220,140,63)" stroke="rgb(220,140,63)" stroke-width="1" opacity="0.996078431372549" d="M 123.5 21 L 128.5 21 L 135 23.5 L 133.5 24 Q 130.2 21.3 123.5 22 L 123.5 21 Z " /><path fill="rgb(220,140,63)" stroke="rgb(220,140,63)" stroke-width="1" opacity="0.996078431372549" d="M 67.5 24 L 69 24.5 L 62.5 28 L 59.5 28 L 57 27 L 57.5 25 Q 58.3 27.8 62.5 27 L 67.5 24 Z " /><path fill="rgb(220,140,63)" stroke="rgb(220,140,63)" stroke-width="1" opacity="0.996078431372549" d="M 136.5 24 Q 151.8 29.2 160 41.5 L 163 46.5 L 161 45.5 Q 157.3 36.7 149.5 32 L 136.5 25 L 136.5 24 Z " /><path fill="rgb(220,140,63)" stroke="rgb(220,140,63)" stroke-width="1" opacity="0.996078431372549" d="M 50.5 30 Q 53 31 52 35.5 L 47.5 38 L 45 36.5 L 46.5 36 L 48.5 37 L 51 36 L 50.5 30 Z " /><path fill="rgb(220,140,63)" stroke="rgb(220,140,63)" stroke-width="1" opacity="0.996078431372549" d="M 40.5 42 L 42 44.5 L 41 44.5 L 40.5 42 Z " /><path fill="rgb(220,140,63)" stroke="rgb(220,140,63)" stroke-width="1" opacity="0.996078431372549" d="M 100.5 44 L 102 44.5 L 99 46.5 L 96.5 54 L 96 52.5 L 98 46.5 L 100.5 44 Z " /><path fill="rgb(220,140,63)" stroke="rgb(220,140,63)" stroke-width="1" opacity="0.996078431372549" d="M 103.5 44 L 107 46.5 L 109 53.5 L 108 53.5 L 104.5 45 L 103.5 44 Z " /><path fill="rgb(220,140,63)" stroke="rgb(220,140,63)" stroke-width="1" opacity="0.996078431372549" d="M 41.5 47 L 42 48.5 L 38.5 56 L 38 54.5 L 41.5 47 Z " /><path fill="rgb(220,140,63)" stroke="rgb(220,140,63)" stroke-width="1" opacity="0.996078431372549" d="M 164.5 50 L 167 55.5 L 166 55.5 L 164.5 50 Z " /><path fill="rgb(220,140,63)" stroke="rgb(220,140,63)" stroke-width="1" opacity="0.996078431372549" d="M 95.5 55 L 96 56.5 L 83.5 73 L 68.5 82 L 68.5 81 Q 82.4 75.9 90 64.5 L 95.5 55 Z " /><path fill="rgb(220,140,63)" stroke="rgb(220,140,63)" stroke-width="1" opacity="0.996078431372549" d="M 109.5 55 L 111 57.5 L 109 56.5 L 109.5 55 Z " /><path fill="rgb(220,140,63)" stroke="rgb(220,140,63)" stroke-width="1" opacity="0.996078431372549" d="M 111.5 59 L 120 71 L 129 77.5 L 127.5 77 L 119 70.5 L 112 61.5 L 111.5 59 Z " /><path fill="rgb(220,140,63)" stroke="rgb(220,140,63)" stroke-width="1" opacity="0.996078431372549" d="M 36.5 60 L 37 63.5 L 36 63.5 L 36.5 60 Z " /><path fill="rgb(220,140,63)" stroke="rgb(220,140,63)" stroke-width="1" opacity="0.996078431372549" d="M 168.5 60 L 169 63.5 L 168 63.5 L 168.5 60 Z " /><path fill="rgb(220,140,63)" stroke="rgb(220,140,63)" stroke-width="1" opacity="0.996078431372549" d="M 35.5 65 L 36 80.5 L 35 80.5 L 35.5 65 Z " /><path fill="rgb(220,140,63)" stroke="rgb(220,140,63)" stroke-width="1" opacity="0.996078431372549" d="M 169.5 65 L 170 80.5 L 169 80.5 L 169.5 65 Z " /><path fill="rgb(220,140,63)" stroke="rgb(220,140,63)" stroke-width="1" opacity="0.996078431372549" d="M 130.5 78 L 137 81.5 L 135.5 82 Q 130.9 80.8 130.5 78 Z " /><path fill="rgb(220,140,63)" stroke="rgb(220,140,63)" stroke-width="1" opacity="0.996078431372549" d="M 36.5 82 L 38 84.5 L 36 85 L 36.5 82 Z " /><path fill="rgb(220,140,63)" stroke="rgb(220,140,63)" stroke-width="1" opacity="0.996078431372549" d="M 65.5 82 L 67 82.5 L 62.5 84 L 62.5 83 L 65.5 82 Z " /><path fill="rgb(220,140,63)" stroke="rgb(220,140,63)" stroke-width="1" opacity="0.996078431372549" d="M 138.5 82 L 143 83.5 L 140.5 84 L 138.5 82 Z " /><path fill="rgb(220,140,63)" stroke="rgb(220,140,63)" stroke-width="1" opacity="0.996078431372549" d="M 168.5 82 L 169 85 L 165.5 86 L 149.5 86 L 149.5 85 L 165.5 85 L 168 84 L 168.5 82 Z " /><path fill="rgb(220,140,63)" stroke="rgb(220,140,63)" stroke-width="1" opacity="0.996078431372549" d="M 58.5 84 L 61 84.5 L 58.5 85 L 58.5 84 Z " /><path fill="rgb(220,140,63)" stroke="rgb(220,140,63)" stroke-width="1" opacity="0.996078431372549" d="M 144.5 84 L 148 84.5 L 144.5 85 L 144.5 84 Z " /><path fill="rgb(220,140,63)" stroke="rgb(220,140,63)" stroke-width="1" opacity="0.996078431372549" d="M 39.5 85 L 57 85.5 L 39.5 86 L 39.5 85 Z " /><path fill="rgb(220,140,63)" stroke="rgb(220,140,63)" stroke-width="1" opacity="0.996078431372549" d="M 58.5 92 Q 64.2 90.2 62 96.5 L 57 106 L 50.5 109 L 44.5 102 L 50.5 108 L 52.5 108 Q 60.6 103.8 61 93 L 57.5 94 L 42 94 L 41.5 97 L 41 93 L 57.5 93 L 58.5 92 Z " /><path fill="rgb(220,140,63)" stroke="rgb(220,140,63)" stroke-width="1" opacity="0.996078431372549" d="M 143 92 L 147 92.5 L 144 93 Q 144.4 103.8 152.5 108 L 154.5 108 L 160.5 102 L 154.5 109 L 152.5 109 L 145 101.5 L 143 92 Z " /><path fill="rgb(220,140,63)" stroke="rgb(220,140,63)" stroke-width="1" opacity="0.996078431372549" d="M 148.5 93 L 163.5 93 L 164 96.5 L 161.5 101 L 162 99.5 L 163 94 L 148.5 94 L 148.5 93 Z " /><path fill="rgb(220,140,63)" stroke="rgb(220,140,63)" stroke-width="1" opacity="0.996078431372549" d="M 42.5 98 L 44 100.5 L 42 99.5 L 42.5 98 Z " /><path fill="rgb(220,140,63)" stroke="rgb(220,140,63)" stroke-width="1" opacity="0.996078431372549" d="M 41.5 111 Q 45.3 115.7 52.5 117 L 61.5 111 L 62 117.5 L 61 117.5 L 60.5 113 L 50.5 118 L 42 113 L 41.5 118 L 41.5 111 Z " /><path fill="rgb(220,140,63)" stroke="rgb(220,140,63)" stroke-width="1" opacity="0.996078431372549" d="M 143 111 L 152 116.5 L 150.5 117 L 144 113 L 143.5 118 L 143 111 Z " /><path fill="rgb(220,140,63)" stroke="rgb(220,140,63)" stroke-width="1" opacity="0.996078431372549" d="M 162.5 111 Q 165.5 110.5 164 117.5 L 163 117.5 L 162.5 112 L 155.5 117 L 155.5 116 L 162.5 111 Z " /><path fill="rgb(220,140,63)" stroke="rgb(220,140,63)" stroke-width="1" opacity="0.996078431372549" d="M 42.5 119 L 48.5 128 L 51 129.5 L 49.5 129 L 45 125.5 L 42 120.5 L 42.5 119 Z " /><path fill="rgb(220,140,63)" stroke="rgb(220,140,63)" stroke-width="1" opacity="0.996078431372549" d="M 60.5 119 L 61 120.5 L 53.5 130 L 52 129.5 L 58 124.5 L 60.5 119 Z " /><path fill="rgb(220,140,63)" stroke="rgb(220,140,63)" stroke-width="1" opacity="0.996078431372549" d="M 144.5 119 L 147 123.5 L 145 122.5 L 144.5 119 Z " /><path fill="rgb(220,140,63)" stroke="rgb(220,140,63)" stroke-width="1" opacity="0.996078431372549" d="M 162.5 119 L 163 120.5 L 157.5 128 L 158 126.5 L 162.5 119 Z " /><path fill="rgb(220,140,63)" stroke="rgb(220,140,63)" stroke-width="1" opacity="0.996078431372549" d="M 147.5 125 Q 149.3 128.7 154.5 129 L 156 128.5 L 152.5 130 L 147.5 125 Z " /><path fill="rgb(220,140,63)" stroke="rgb(220,140,63)" stroke-width="1" opacity="0.996078431372549" d="M 41.5 132 L 47 136.5 L 44.5 135 L 42.5 134 L 41.5 139 L 41.5 132 Z " /><path fill="rgb(220,140,63)" stroke="rgb(220,140,63)" stroke-width="1" opacity="0.996078431372549" d="M 61.5 132 L 62 139.5 L 58.5 145 L 60 142.5 L 61 134.5 L 58.5 136 Q 56.6 139.6 50.5 139 L 50.5 138 Q 58.4 137.4 61.5 132 Z " /><path fill="rgb(220,140,63)" stroke="rgb(220,140,63)" stroke-width="1" opacity="0.996078431372549" d="M 143.5 132 L 145.5 135 L 144 134.5 L 145 141.5 L 144 141.5 Q 141.6 138.2 143.5 132 Z " /><path fill="rgb(220,140,63)" stroke="rgb(220,140,63)" stroke-width="1" opacity="0.996078431372549" d="M 163.5 132 L 164 138.5 L 163 138.5 L 162.5 134 L 156.5 138 L 157.5 136 L 163.5 132 Z " /><path fill="rgb(220,140,63)" stroke="rgb(220,140,63)" stroke-width="1" opacity="0.996078431372549" d="M 147.5 135 L 148.5 137 L 147.5 135 Z " /><path fill="rgb(220,140,63)" stroke="rgb(220,140,63)" stroke-width="1" opacity="0.996078431372549" d="M 152.5 138 L 155 138.5 L 152.5 139 L 152.5 138 Z " /><path fill="rgb(220,140,63)" stroke="rgb(220,140,63)" stroke-width="1" opacity="0.996078431372549" d="M 162.5 140 L 163 141.5 L 160.5 145 L 161 143.5 L 162.5 140 Z " /><path fill="rgb(220,140,63)" stroke="rgb(220,140,63)" stroke-width="1" opacity="0.996078431372549" d="M 43.5 143 L 44.5 145 L 43.5 143 Z " /><path fill="rgb(220,140,63)" stroke="rgb(220,140,63)" stroke-width="1" opacity="0.996078431372549" d="M 145.5 143 L 146.5 145 L 145.5 143 Z " /><path fill="rgb(220,140,63)" stroke="rgb(220,140,63)" stroke-width="1" opacity="0.996078431372549" d="M 141.5 152 L 166.5 152 L 169 153 L 170 156.5 L 169 159 L 138.5 159 L 138 157.5 L 137 154.5 L 141.5 152 Z " /><path fill="rgb(220,140,63)" stroke="rgb(220,140,63)" stroke-width="1" opacity="0.996078431372549" d="M 36 153 L 66.5 153 L 68 154.5 Q 68.8 158.3 66.5 159 L 64.5 160 L 38.5 160 L 36 159 L 35 155.5 L 36 153 Z " /><path fill="rgb(220,140,63)" stroke="rgb(220,140,63)" stroke-width="1" opacity="0.996078431372549" d="M 41 167 L 46 167.5 L 42 168 L 43 176.5 L 42 176.5 L 41 167 Z " /><path fill="rgb(220,140,63)" stroke="rgb(220,140,63)" stroke-width="1" opacity="0.996078431372549" d="M 61.5 167 L 62 174.5 L 61 174.5 L 61.5 167 Z " /><path fill="rgb(220,140,63)" stroke="rgb(220,140,63)" stroke-width="1" opacity="0.996078431372549" d="M 143.5 167 L 144 174.5 L 143 174.5 L 143.5 167 Z " /><path fill="rgb(220,140,63)" stroke="rgb(220,140,63)" stroke-width="1" opacity="0.996078431372549" d="M 163.5 167 L 164 173.5 L 163 173.5 L 163.5 167 Z " /><path fill="rgb(220,140,63)" stroke="rgb(220,140,63)" stroke-width="1" opacity="0.996078431372549" d="M 162.5 175 L 163 176.5 L 154.5 187 L 152.5 187 L 145 179.5 L 144 176.5 L 145 176.5 Q 146.6 183.4 152.5 186 L 154.5 186 L 160 180.5 L 162.5 175 Z " /><path fill="rgb(220,140,63)" stroke="rgb(220,140,63)" stroke-width="1" opacity="0.996078431372549" d="M 60.5 176 L 61 177.5 L 55.5 185 L 50.5 187 L 44.5 180 L 50.5 186 L 52.5 186 Q 58.3 182.8 60.5 176 Z " /><path fill="rgb(254,192,68)" stroke="rgb(254,192,68)" stroke-width="1" opacity="0.996078431372549" d="M 82.5 21 L 94 21.5 L 82.5 22 L 82.5 21 Z " /><path fill="rgb(254,192,68)" stroke="rgb(254,192,68)" stroke-width="1" opacity="0.996078431372549" d="M 111.5 21 L 123 21.5 L 111.5 22 L 111.5 21 Z " /><path fill="rgb(254,192,68)" stroke="rgb(254,192,68)" stroke-width="1" opacity="0.996078431372549" d="M 76.5 22 L 80 22.5 Q 69.3 23.8 62.5 29 L 58.5 29 L 56.5 28 L 53 31.5 Q 54.3 36.8 51.5 38 L 46.5 39 Q 45.3 36.8 44 39.5 L 42 42.5 Q 44.8 43.3 44 47.5 L 39 56.5 L 36.5 73 L 36 64.5 Q 37.5 55 42 48.5 L 42 43.5 Q 37.5 41 43 38.5 L 44.5 36 L 48.5 38 L 52 35.5 L 51 29 L 56.5 25 L 57 27 L 62.5 28 L 76.5 22 Z " /><path fill="rgb(254,192,68)" stroke="rgb(254,192,68)" stroke-width="1" opacity="0.996078431372549" d="M 96.5 22 L 104.5 23 L 109.5 22 L 109.5 23 L 100.5 24 L 96.5 23 L 96.5 22 Z " /><path fill="rgb(254,192,68)" stroke="rgb(254,192,68)" stroke-width="1" opacity="0.996078431372549" d="M 125.5 22 Q 148.1 25.9 159 41.5 L 161 44.5 L 156 40.5 L 154.5 38 Q 152.3 38.8 153 36.5 L 145.5 30 Q 137.8 24.3 125.5 23 L 125.5 22 Z " /><path fill="rgb(254,192,68)" stroke="rgb(254,192,68)" stroke-width="1" opacity="0.996078431372549" d="M 100.5 43 Q 107 42 108 46.5 L 110 54.5 L 116 65 L 119 66.5 L 124.5 73 Q 132.8 80.7 146 83.5 L 143.5 84 L 129.5 78 L 120 71 L 111 58.5 L 107 46.5 L 104.5 44 Q 99 43 98 46.5 L 94 58.5 L 78.5 76 Q 69.2 83.2 54.5 85 L 54.5 84 L 71.5 79 L 86 67.5 L 94 56.5 L 98 44 L 100.5 43 Z " /><path fill="rgb(254,192,68)" stroke="rgb(254,192,68)" stroke-width="1" opacity="0.996078431372549" d="M 161.5 46 L 165 52.5 L 163 51.5 L 161.5 46 Z " /><path fill="rgb(254,192,68)" stroke="rgb(254,192,68)" stroke-width="1" opacity="0.996078431372549" d="M 165.5 54 Q 171.1 63.9 169 81.5 L 167.5 84 L 167 81.5 L 168 80.5 L 168 65.5 L 165.5 54 Z " /><path fill="rgb(254,192,68)" stroke="rgb(254,192,68)" stroke-width="1" opacity="0.996078431372549" d="M 36.5 74 L 38 84 L 42 84.5 L 38.5 85 Q 34.1 82 36.5 74 Z " /><path fill="rgb(254,192,68)" stroke="rgb(254,192,68)" stroke-width="1" opacity="0.996078431372549" d="M 148.5 84 L 151 84.5 L 148.5 85 L 148.5 84 Z " /><path fill="rgb(254,192,68)" stroke="rgb(254,192,68)" stroke-width="1" opacity="0.996078431372549" d="M 163.5 84 L 166 84.5 L 163.5 85 L 163.5 84 Z " /><path fill="rgb(254,192,68)" stroke="rgb(254,192,68)" stroke-width="1" opacity="0.996078431372549" d="M 58.5 93 Q 62.7 91.7 61 96.5 Q 58.9 104.4 52.5 108 L 50.5 108 L 44 101.5 L 42 94 L 57 94.5 L 43 95 L 46.5 103 Q 48.8 102.3 48 104.5 L 51.5 107 L 58 101.5 L 60 94 L 58.5 93 Z " /><path fill="rgb(254,192,68)" stroke="rgb(254,192,68)" stroke-width="1" opacity="0.996078431372549" d="M 144 93 L 148 93.5 L 145 94 Q 145.6 103.1 152.5 107 L 156 106 L 162 95.5 L 149 94.5 L 163 94 Q 162.2 103.9 154.5 108 L 152.5 108 L 146 101.5 L 144 93 Z " /><path fill="rgb(254,192,68)" stroke="rgb(254,192,68)" stroke-width="1" opacity="0.996078431372549" d="M 162.5 112 L 163 118.5 L 156.5 128 L 152.5 129 L 147 124.5 L 144 118.5 L 144 115.5 L 145 115.5 Q 146 124.5 152.5 128 L 157 125.5 L 158.5 123 Q 160.8 123.8 160 121.5 L 162 115.5 L 160.5 116 Q 157.9 119.4 150.5 118 L 146 116 L 145 113.5 L 148.5 116 L 156.5 117 L 162.5 112 Z " /><path fill="rgb(254,192,68)" stroke="rgb(254,192,68)" stroke-width="1" opacity="0.996078431372549" d="M 42 113 L 50 117.5 L 48.5 118 L 43.5 114 L 43 117.5 Q 44.8 124.7 50.5 128 L 52.5 128 L 58 122.5 L 60 115.5 L 57.5 117 L 53.5 118 L 53.5 117 L 60.5 113 L 61 115.5 Q 60.1 124.1 54.5 128 L 51.5 130 L 46 125.5 L 42 118.5 L 42 113 Z " /><path fill="rgb(254,192,68)" stroke="rgb(254,192,68)" stroke-width="1" opacity="0.996078431372549" d="M 42.5 134 L 50 138.5 L 48.5 139 L 43.5 136 L 43 138.5 L 45 144 L 57.5 144 L 58 142.5 L 60.5 137 L 61 139.5 L 57.5 145 L 45.5 145 L 43 142.5 L 42.5 134 Z " /><path fill="rgb(254,192,68)" stroke="rgb(254,192,68)" stroke-width="1" opacity="0.996078431372549" d="M 60.5 134 L 57.5 138 L 56 137.5 L 60.5 134 Z " /><path fill="rgb(254,192,68)" stroke="rgb(254,192,68)" stroke-width="1" opacity="0.996078431372549" d="M 144.5 134 L 152 138.5 L 150.5 139 Q 145.5 137.5 144.5 134 Z " /><path fill="rgb(254,192,68)" stroke="rgb(254,192,68)" stroke-width="1" opacity="0.996078431372549" d="M 162.5 134 L 163 139.5 L 159.5 145 L 147.5 145 L 145 142.5 L 144 137.5 L 145 137.5 L 147 144 L 159.5 144 L 160 141.5 L 162 136.5 L 159.5 138 L 155.5 139 L 155.5 138 L 162.5 134 Z " /><path fill="rgb(254,192,68)" stroke="rgb(254,192,68)" stroke-width="1" opacity="0.996078431372549" d="M 46.5 167 L 61 167.5 L 46.5 168 L 46.5 167 Z " /><path fill="rgb(254,192,68)" stroke="rgb(254,192,68)" stroke-width="1" opacity="0.996078431372549" d="M 144 167 L 163 167 L 163 174.5 Q 160.4 181.9 154.5 186 L 152.5 186 L 146 179.5 L 144 172.5 L 145 172.5 Q 145.8 180.8 151.5 184 L 153.5 185 Q 162.3 180.5 162 168 L 145.5 168 L 144.5 169 L 144 167 Z " /><path fill="rgb(254,192,68)" stroke="rgb(254,192,68)" stroke-width="1" opacity="0.996078431372549" d="M 42.5 168 L 45 180 L 48 181.5 L 49.5 184 L 51.5 185 L 58 179.5 L 60.5 172 L 61 175.5 L 52.5 186 L 50.5 186 L 44 179.5 Q 40.8 175.3 42.5 168 Z " /><path fill="rgb(2,2,2)" stroke="rgb(2,2,2)" stroke-width="1" opacity="0.9019607843137255" d="M 85.5 13 L 91 13.5 L 85.5 14 L 85.5 13 Z " /><path fill="rgb(2,2,2)" stroke="rgb(2,2,2)" stroke-width="1" opacity="0.9019607843137255" d="M 115.5 13 L 120 13.5 L 115.5 14 L 115.5 13 Z " /><path fill="rgb(2,2,2)" stroke="rgb(2,2,2)" stroke-width="1" opacity="0.9019607843137255" d="M 78.5 14 L 83 14.5 L 78.5 15 L 78.5 14 Z " /><path fill="rgb(2,2,2)" stroke="rgb(2,2,2)" stroke-width="1" opacity="0.9019607843137255" d="M 94.5 14 L 98 14.5 L 94.5 15 L 94.5 14 Z " /><path fill="rgb(2,2,2)" stroke="rgb(2,2,2)" stroke-width="1" opacity="0.9019607843137255" d="M 107.5 14 L 112 14.5 L 107.5 15 L 107.5 14 Z " /><path fill="rgb(2,2,2)" stroke="rgb(2,2,2)" stroke-width="1" opacity="0.9019607843137255" d="M 123.5 14 L 127 14.5 L 123.5 15 L 123.5 14 Z " /><path fill="rgb(2,2,2)" stroke="rgb(2,2,2)" stroke-width="1" opacity="0.9019607843137255" d="M 74.5 15 L 77 15.5 L 74.5 16 L 74.5 15 Z " /><path fill="rgb(2,2,2)" stroke="rgb(2,2,2)" stroke-width="1" opacity="0.9019607843137255" d="M 103.5 15 L 106 15.5 L 103.5 16 L 103.5 15 Z " /><path fill="rgb(2,2,2)" stroke="rgb(2,2,2)" stroke-width="1" opacity="0.9019607843137255" d="M 70.5 16 L 73 16.5 L 67.5 18 L 67.5 17 L 70.5 16 Z " /><path fill="rgb(2,2,2)" stroke="rgb(2,2,2)" stroke-width="1" opacity="0.9019607843137255" d="M 132.5 16 L 135 16.5 L 132.5 17 L 132.5 16 Z " /><path fill="rgb(2,2,2)" stroke="rgb(2,2,2)" stroke-width="1" opacity="0.9019607843137255" d="M 64.5 18 L 66 18.5 L 61.5 21 L 62.5 19 L 64.5 18 Z " /><path fill="rgb(2,2,2)" stroke="rgb(2,2,2)" stroke-width="1" opacity="0.9019607843137255" d="M 139.5 18 L 144 20.5 L 142.5 20 Q 138.7 19.7 139.5 18 Z " /><path fill="rgb(2,2,2)" stroke="rgb(2,2,2)" stroke-width="1" opacity="0.9019607843137255" d="M 59.5 21 L 59 22.5 L 58.5 25 L 58 22.5 L 59.5 21 Z " /><path fill="rgb(2,2,2)" stroke="rgb(2,2,2)" stroke-width="1" opacity="0.9019607843137255" d="M 149.5 23 L 150.5 25 L 149.5 23 Z " /><path fill="rgb(2,2,2)" stroke="rgb(2,2,2)" stroke-width="1" opacity="0.9019607843137255" d="M 152.5 25 L 155.5 29 L 152.5 25 Z " /><path fill="rgb(2,2,2)" stroke="rgb(2,2,2)" stroke-width="1" opacity="0.9019607843137255" d="M 162.5 35 L 164.5 38 L 162.5 35 Z " /><path fill="rgb(2,2,2)" stroke="rgb(2,2,2)" stroke-width="1" opacity="0.9019607843137255" d="M 165.5 39 L 166.5 41 L 165.5 39 Z " /><path fill="rgb(2,2,2)" stroke="rgb(2,2,2)" stroke-width="1" opacity="0.9019607843137255" d="M 167.5 42 L 171 47.5 L 169 46.5 L 167.5 42 Z " /><path fill="rgb(2,2,2)" stroke="rgb(2,2,2)" stroke-width="1" opacity="0.9019607843137255" d="M 37.5 43 L 39 43.5 L 36 45.5 L 34.5 48 L 35 46.5 L 37.5 43 Z " /><path fill="rgb(2,2,2)" stroke="rgb(2,2,2)" stroke-width="1" opacity="0.9019607843137255" d="M 33.5 49 L 34 50.5 L 32.5 53 L 32 51.5 L 33.5 49 Z " /><path fill="rgb(2,2,2)" stroke="rgb(2,2,2)" stroke-width="1" opacity="0.9019607843137255" d="M 171.5 49 L 173 52.5 L 172 52.5 L 171.5 49 Z " /><path fill="rgb(2,2,2)" stroke="rgb(2,2,2)" stroke-width="1" opacity="0.9019607843137255" d="M 30.5 58 L 31 60.5 L 30 60.5 L 30.5 58 Z " /><path fill="rgb(2,2,2)" stroke="rgb(2,2,2)" stroke-width="1" opacity="0.9019607843137255" d="M 99.5 62 L 99 63.5 L 96.5 67 L 98 64.5 L 99.5 62 Z " /><path fill="rgb(2,2,2)" stroke="rgb(2,2,2)" stroke-width="1" opacity="0.9019607843137255" d="M 105.5 62 L 106.5 64 L 105.5 62 Z " /><path fill="rgb(2,2,2)" stroke="rgb(2,2,2)" stroke-width="1" opacity="0.9019607843137255" d="M 175.5 63 L 176 66.5 L 175 66.5 L 175.5 63 Z " /><path fill="rgb(2,2,2)" stroke="rgb(2,2,2)" stroke-width="1" opacity="0.9019607843137255" d="M 107.5 65 L 108.5 67 L 107.5 65 Z " /><path fill="rgb(2,2,2)" stroke="rgb(2,2,2)" stroke-width="1" opacity="0.9019607843137255" d="M 95.5 68 L 93.5 71 L 95.5 68 Z " /><path fill="rgb(2,2,2)" stroke="rgb(2,2,2)" stroke-width="1" opacity="0.9019607843137255" d="M 109.5 68 L 110.5 70 L 109.5 68 Z " /><path fill="rgb(2,2,2)" stroke="rgb(2,2,2)" stroke-width="1" opacity="0.9019607843137255" d="M 28.5 69 L 29 76.5 L 28 76.5 L 28.5 69 Z " /><path fill="rgb(2,2,2)" stroke="rgb(2,2,2)" stroke-width="1" opacity="0.9019607843137255" d="M 176.5 70 L 177 76.5 L 176 76.5 L 176.5 70 Z " /><path fill="rgb(2,2,2)" stroke="rgb(2,2,2)" stroke-width="1" opacity="0.9019607843137255" d="M 91.5 73 L 88.5 77 L 91.5 73 Z " /><path fill="rgb(2,2,2)" stroke="rgb(2,2,2)" stroke-width="1" opacity="0.9019607843137255" d="M 114.5 74 L 116.5 77 L 114.5 74 Z " /><path fill="rgb(2,2,2)" stroke="rgb(2,2,2)" stroke-width="1" opacity="0.9019607843137255" d="M 29.5 79 L 30 83.5 L 29 83.5 L 29.5 79 Z " /><path fill="rgb(2,2,2)" stroke="rgb(2,2,2)" stroke-width="1" opacity="0.9019607843137255" d="M 83.5 80 L 82.5 82 L 77.5 85 L 78.5 83 L 83.5 80 Z " /><path fill="rgb(2,2,2)" stroke="rgb(2,2,2)" stroke-width="1" opacity="0.9019607843137255" d="M 121.5 80 L 122.5 82 L 121.5 80 Z " /><path fill="rgb(2,2,2)" stroke="rgb(2,2,2)" stroke-width="1" opacity="0.9019607843137255" d="M 175.5 80 L 176 83.5 L 175 83.5 L 175.5 80 Z " /><path fill="rgb(2,2,2)" stroke="rgb(2,2,2)" stroke-width="1" opacity="0.9019607843137255" d="M 124.5 82 L 128 84.5 L 126.5 84 L 124.5 82 Z " /><path fill="rgb(2,2,2)" stroke="rgb(2,2,2)" stroke-width="1" opacity="0.9019607843137255" d="M 30.5 85 L 31 87.5 L 30 87.5 L 30.5 85 Z " /><path fill="rgb(2,2,2)" stroke="rgb(2,2,2)" stroke-width="1" opacity="0.9019607843137255" d="M 174.5 85 L 175 87.5 L 174 87.5 L 174.5 85 Z " /><path fill="rgb(2,2,2)" stroke="rgb(2,2,2)" stroke-width="1" opacity="0.9019607843137255" d="M 70.5 87 L 72 87.5 L 69 89.5 L 68.5 96 L 68 89.5 L 70.5 87 Z " /><path fill="rgb(2,2,2)" stroke="rgb(2,2,2)" stroke-width="1" opacity="0.9019607843137255" d="M 133.5 87 L 137 89.5 L 136.5 96 L 136 89.5 L 134.5 88 L 133.5 87 Z " /><path fill="rgb(2,2,2)" stroke="rgb(2,2,2)" stroke-width="1" opacity="0.9019607843137255" d="M 31.5 89 L 32.5 91 L 31.5 89 Z " /><path fill="rgb(2,2,2)" stroke="rgb(2,2,2)" stroke-width="1" opacity="0.9019607843137255" d="M 173.5 89 L 172.5 91 L 170.5 92 L 171.5 90 L 173.5 89 Z " /><path fill="rgb(2,2,2)" stroke="rgb(2,2,2)" stroke-width="1" opacity="0.9019607843137255" d="M 35.5 96 L 36 98.5 L 35 98.5 L 35.5 96 Z " /><path fill="rgb(2,2,2)" stroke="rgb(2,2,2)" stroke-width="1" opacity="0.9019607843137255" d="M 67.5 97 L 68 99.5 L 66.5 102 L 66 100.5 L 67.5 97 Z " /><path fill="rgb(2,2,2)" stroke="rgb(2,2,2)" stroke-width="1" opacity="0.9019607843137255" d="M 67.5 106 Q 70.1 109.5 69 116.5 L 68 116.5 L 67.5 106 Z " /><path fill="rgb(2,2,2)" stroke="rgb(2,2,2)" stroke-width="1" opacity="0.9019607843137255" d="M 137.5 106 L 138 108.5 L 137 108.5 L 137.5 106 Z " /><path fill="rgb(2,2,2)" stroke="rgb(2,2,2)" stroke-width="1" opacity="0.9019607843137255" d="M 35.5 107 L 36 119.5 L 35 119.5 L 35.5 107 Z " /><path fill="rgb(2,2,2)" stroke="rgb(2,2,2)" stroke-width="1" opacity="0.9019607843137255" d="M 136.5 110 L 137 116.5 L 136 116.5 L 136.5 110 Z " /><path fill="rgb(2,2,2)" stroke="rgb(2,2,2)" stroke-width="1" opacity="0.9019607843137255" d="M 169.5 117 L 170 119.5 L 169 119.5 L 169.5 117 Z " /><path fill="rgb(2,2,2)" stroke="rgb(2,2,2)" stroke-width="1" opacity="0.9019607843137255" d="M 137.5 118 L 138 120.5 L 137 120.5 L 137.5 118 Z " /><path fill="rgb(2,2,2)" stroke="rgb(2,2,2)" stroke-width="1" opacity="0.9019607843137255" d="M 36.5 121 L 37 123.5 L 36 123.5 L 36.5 121 Z " /><path fill="rgb(2,2,2)" stroke="rgb(2,2,2)" stroke-width="1" opacity="0.9019607843137255" d="M 66.5 122 L 67 125.5 L 66 125.5 L 66.5 122 Z " /><path fill="rgb(2,2,2)" stroke="rgb(2,2,2)" stroke-width="1" opacity="0.9019607843137255" d="M 138.5 122 L 139 125.5 L 138 125.5 L 138.5 122 Z " /><path fill="rgb(2,2,2)" stroke="rgb(2,2,2)" stroke-width="1" opacity="0.9019607843137255" d="M 67.5 127 L 68 129.5 L 67 129.5 L 67.5 127 Z " /><path fill="rgb(2,2,2)" stroke="rgb(2,2,2)" stroke-width="1" opacity="0.9019607843137255" d="M 137.5 127 L 138 129.5 L 137 129.5 L 137.5 127 Z " /><path fill="rgb(2,2,2)" stroke="rgb(2,2,2)" stroke-width="1" opacity="0.9019607843137255" d="M 35.5 128 L 36 140.5 L 35 140.5 L 35.5 128 Z " /><path fill="rgb(2,2,2)" stroke="rgb(2,2,2)" stroke-width="1" opacity="0.9019607843137255" d="M 169.5 128 L 170 130.5 L 169 130.5 L 169.5 128 Z " /><path fill="rgb(2,2,2)" stroke="rgb(2,2,2)" stroke-width="1" opacity="0.9019607843137255" d="M 68.5 131 L 69 138.5 L 68 138.5 L 68.5 131 Z " /><path fill="rgb(2,2,2)" stroke="rgb(2,2,2)" stroke-width="1" opacity="0.9019607843137255" d="M 136.5 131 L 137 138.5 L 136 138.5 L 136.5 131 Z " /><path fill="rgb(2,2,2)" stroke="rgb(2,2,2)" stroke-width="1" opacity="0.9019607843137255" d="M 169.5 138 L 170 140.5 L 169 140.5 L 169.5 138 Z " /><path fill="rgb(2,2,2)" stroke="rgb(2,2,2)" stroke-width="1" opacity="0.9019607843137255" d="M 66.5 143 L 67 146.5 L 66 146.5 L 66.5 143 Z " /><path fill="rgb(2,2,2)" stroke="rgb(2,2,2)" stroke-width="1" opacity="0.9019607843137255" d="M 138.5 143 L 139 146.5 L 138 146.5 L 138.5 143 Z " /><path fill="rgb(2,2,2)" stroke="rgb(2,2,2)" stroke-width="1" opacity="0.9019607843137255" d="M 68.5 147 L 74 151.5 L 73.5 153 L 69.5 148 L 68.5 147 Z " /><path fill="rgb(2,2,2)" stroke="rgb(2,2,2)" stroke-width="1" opacity="0.9019607843137255" d="M 135.5 147 L 137 147.5 L 132 151.5 L 131.5 153 L 131 151.5 L 135.5 147 Z " /><path fill="rgb(2,2,2)" stroke="rgb(2,2,2)" stroke-width="1" opacity="0.9019607843137255" d="M 170.5 147 L 175 150.5 L 176 153.5 L 175 153.5 L 171.5 148 L 170.5 147 Z " /><path fill="rgb(2,2,2)" stroke="rgb(2,2,2)" stroke-width="1" opacity="0.9019607843137255" d="M 32.5 148 L 31.5 150 L 32.5 148 Z " /><path fill="rgb(2,2,2)" stroke="rgb(2,2,2)" stroke-width="1" opacity="0.9019607843137255" d="M 30.5 151 L 30 152.5 L 29.5 154 L 29 152.5 L 30.5 151 Z " /><path fill="rgb(2,2,2)" stroke="rgb(2,2,2)" stroke-width="1" opacity="0.9019607843137255" d="M 74.5 154 L 75 158.5 L 69 165.5 L 68.5 174 L 68 165.5 Q 74.1 162.6 74.5 154 Z " /><path fill="rgb(2,2,2)" stroke="rgb(2,2,2)" stroke-width="1" opacity="0.9019607843137255" d="M 130.5 154 L 131 157.5 L 130 157.5 L 130.5 154 Z " /><path fill="rgb(2,2,2)" stroke="rgb(2,2,2)" stroke-width="1" opacity="0.9019607843137255" d="M 175.5 158 L 176 159.5 L 174 160.5 L 175.5 158 Z " /><path fill="rgb(2,2,2)" stroke="rgb(2,2,2)" stroke-width="1" opacity="0.9019607843137255" d="M 131.5 159 L 137 165.5 L 137 173.5 L 136 173.5 L 136 165.5 L 131 160.5 L 131.5 159 Z " /><path fill="rgb(2,2,2)" stroke="rgb(2,2,2)" stroke-width="1" opacity="0.9019607843137255" d="M 30.5 161 L 33.5 165 L 30.5 161 Z " /><path fill="rgb(2,2,2)" stroke="rgb(2,2,2)" stroke-width="1" opacity="0.9019607843137255" d="M 173.5 162 L 172.5 164 L 173.5 162 Z " /><path fill="rgb(2,2,2)" stroke="rgb(2,2,2)" stroke-width="1" opacity="0.9019607843137255" d="M 35.5 173 L 36 175.5 L 35 175.5 L 35.5 173 Z " /><path fill="rgb(2,2,2)" stroke="rgb(2,2,2)" stroke-width="1" opacity="0.9019607843137255" d="M 137.5 175 L 138 177.5 L 137 177.5 L 137.5 175 Z " /><path fill="rgb(2,2,2)" stroke="rgb(2,2,2)" stroke-width="1" opacity="0.9019607843137255" d="M 67.5 176 L 68 178.5 L 66 179.5 L 67.5 176 Z " /><path fill="rgb(2,2,2)" stroke="rgb(2,2,2)" stroke-width="1" opacity="0.9019607843137255" d="M 167.5 180 L 168 181.5 L 159.5 191 L 166 183.5 L 167.5 180 Z " /><path fill="rgb(2,2,2)" stroke="rgb(2,2,2)" stroke-width="1" opacity="0.9019607843137255" d="M 37.5 181 L 40 184.5 L 38 183.5 L 37.5 181 Z " /><path fill="rgb(2,2,2)" stroke="rgb(2,2,2)" stroke-width="1" opacity="0.9019607843137255" d="M 62.5 186 L 59.5 190 L 62.5 186 Z " /><path fill="rgb(2,2,2)" stroke="rgb(2,2,2)" stroke-width="1" opacity="0.9019607843137255" d="M 42.5 188 L 43.5 190 L 42.5 188 Z " /><path fill="rgb(2,2,2)" stroke="rgb(2,2,2)" stroke-width="1" opacity="0.9019607843137255" d="M 144.5 188 L 145.5 190 L 144.5 188 Z " /><path fill="rgb(2,2,2)" stroke="rgb(2,2,2)" stroke-width="1" opacity="0.9019607843137255" d="M 57.5 190 L 56.5 192 L 57.5 190 Z " /><path fill="rgb(2,2,2)" stroke="rgb(2,2,2)" stroke-width="1" opacity="0.9019607843137255" d="M 147.5 190 L 148.5 192 L 147.5 190 Z " /><path fill="rgb(2,2,2)" stroke="rgb(2,2,2)" stroke-width="1" opacity="0.9019607843137255" d="M 54.5 192 L 53.5 194 L 51.5 195 L 50.5 193 L 52.5 193 L 54.5 192 Z " /><path fill="rgb(2,2,2)" stroke="rgb(2,2,2)" stroke-width="1" opacity="0.9019607843137255" d="M 150.5 192 L 153.5 194 L 155 193.5 Q 153.8 196.2 152.5 194 L 150.5 192 Z " /><path fill="rgb(255,193,68)" stroke="rgb(255,193,68)" stroke-width="1" opacity="1" d="M 80.5 22 L 95.5 22 Q 98.8 24.7 105.5 24 Q 112 20 124.5 22 Q 136.7 24.3 145.5 30 L 153 36.5 Q 152.3 38.8 154.5 38 L 161 45.5 L 167 59.5 L 168 80.5 L 167 84 Q 161.4 85.9 151.5 85 Q 130.3 81.2 119 67.5 L 117.5 65 Q 115.3 65.8 116 63.5 L 110 54.5 L 108 46.5 L 104.5 43 L 98 44 L 94 56.5 L 81.5 72 L 67.5 81 L 63.5 81 L 53.5 85 L 42.5 85 L 38 84 L 36 73.5 L 39 56.5 L 44 47.5 L 44 44.5 Q 40 42.5 44 40.5 L 45.5 38 L 49.5 39 L 53 36.5 Q 51.8 29.3 56.5 28 L 62.5 29 L 72.5 24 L 80.5 22 Z " /><path fill="rgb(255,193,68)" stroke="rgb(255,193,68)" stroke-width="1" opacity="1" d="M 57.5 94 Q 61.3 92.8 60 96.5 Q 58.5 103 53.5 106 L 51.5 107 L 48 104.5 Q 48.8 102.3 46.5 103 L 43 95 L 56.5 95 L 57.5 94 Z " /><path fill="rgb(255,193,68)" stroke="rgb(255,193,68)" stroke-width="1" opacity="1" d="M 145 94 Q 151.5 96 162 95.5 L 156 106 L 152.5 107 Q 145.6 103.1 145 94 Z " /><path fill="rgb(255,193,68)" stroke="rgb(255,193,68)" stroke-width="1" opacity="1" d="M 144.5 113 L 146 116 Q 149.3 119 157.5 118 L 161.5 115 L 162 116.5 L 160 123 L 157 124.5 L 155.5 127 L 152.5 128 Q 144.8 123.3 144.5 113 Z " /><path fill="rgb(255,193,68)" stroke="rgb(255,193,68)" stroke-width="1" opacity="1" d="M 43.5 114 Q 45.9 119.6 55.5 118 L 60.5 114 L 60 115.5 Q 59 124.5 52.5 128 L 50.5 128 L 45 122.5 Q 42 119.1 43.5 114 Z " /><path fill="rgb(255,193,68)" stroke="rgb(255,193,68)" stroke-width="1" opacity="1" d="M 60.5 135 L 61 136.5 L 58 144 L 45.5 144 L 45 142.5 L 43 136.5 L 44.5 137 Q 47.5 140 54.5 139 L 60.5 135 Z " /><path fill="rgb(255,193,68)" stroke="rgb(255,193,68)" stroke-width="1" opacity="1" d="M 144.5 135 Q 147.3 140.2 156.5 139 L 161.5 136 L 162 138.5 L 160 144 L 147.5 144 L 147 142.5 L 144.5 135 Z " /><path fill="rgb(255,193,68)" stroke="rgb(255,193,68)" stroke-width="1" opacity="1" d="M 43 168 L 60.5 168 L 61 171.5 L 58 179.5 L 53.5 184 L 51.5 185 L 48 182.5 L 46.5 180 Q 43.9 180.8 45 177.5 Q 42 174.3 43 168 Z " /><path fill="rgb(255,193,68)" stroke="rgb(255,193,68)" stroke-width="1" opacity="1" d="M 145.5 168 L 161.5 168 Q 162.6 168.1 162 173.5 Q 159.9 181.4 153.5 185 L 147 179.5 L 144 169.5 L 145.5 168 Z " /><path fill="rgb(0,0,0)" stroke="rgb(0,0,0)" stroke-width="1" opacity="0.9921568627450981" d="M 83.5 14 L 94 14.5 L 77.5 16 L 77.5 15 Q 82.3 16.3 83.5 14 Z " /><path fill="rgb(0,0,0)" stroke="rgb(0,0,0)" stroke-width="1" opacity="0.9921568627450981" d="M 112.5 14 L 122.5 14 L 129 15.5 L 123.5 16 L 122.5 15 L 112.5 15 Q 111.2 17.3 106.5 16 L 106.5 15 Q 111.2 16.3 112.5 14 Z " /><path fill="rgb(0,0,0)" stroke="rgb(0,0,0)" stroke-width="1" opacity="0.9921568627450981" d="M 95.5 15 L 100 15.5 L 95.5 16 L 95.5 15 Z " /><path fill="rgb(0,0,0)" stroke="rgb(0,0,0)" stroke-width="1" opacity="0.9921568627450981" d="M 66.5 18 L 68 18.5 L 62.5 21 L 62.5 20 L 66.5 18 Z " /><path fill="rgb(0,0,0)" stroke="rgb(0,0,0)" stroke-width="1" opacity="0.9921568627450981" d="M 146.5 22 L 150 24.5 L 148.5 24 L 146.5 22 Z " /><path fill="rgb(0,0,0)" stroke="rgb(0,0,0)" stroke-width="1" opacity="0.9921568627450981" d="M 151.5 25 L 154.5 29 L 151.5 25 Z " /><path fill="rgb(0,0,0)" stroke="rgb(0,0,0)" stroke-width="1" opacity="0.9921568627450981" d="M 156.5 29 L 165 38.5 L 161 35.5 L 156.5 29 Z " /><path fill="rgb(0,0,0)" stroke="rgb(0,0,0)" stroke-width="1" opacity="0.9921568627450981" d="M 165.5 40 L 166.5 42 L 165.5 40 Z " /><path fill="rgb(0,0,0)" stroke="rgb(0,0,0)" stroke-width="1" opacity="0.9921568627450981" d="M 37.5 44 L 40 44.5 L 36.5 46 L 37.5 44 Z " /><path fill="rgb(0,0,0)" stroke="rgb(0,0,0)" stroke-width="1" opacity="0.9921568627450981" d="M 35.5 47 L 35 48.5 L 34.5 50 L 34 48.5 L 35.5 47 Z " /><path fill="rgb(0,0,0)" stroke="rgb(0,0,0)" stroke-width="1" opacity="0.9921568627450981" d="M 169.5 47 L 171 49.5 L 170 49.5 L 169.5 47 Z " /><path fill="rgb(0,0,0)" stroke="rgb(0,0,0)" stroke-width="1" opacity="0.9921568627450981" d="M 33.5 51 L 34 53.5 L 32 54.5 L 33.5 51 Z " /><path fill="rgb(0,0,0)" stroke="rgb(0,0,0)" stroke-width="1" opacity="0.9921568627450981" d="M 171.5 51 L 173 54.5 L 172 54.5 L 171.5 51 Z " /><path fill="rgb(0,0,0)" stroke="rgb(0,0,0)" stroke-width="1" opacity="0.9921568627450981" d="M 100 58 L 102 58.5 L 100 59.5 L 100 58 Z " /><path fill="rgb(0,0,0)" stroke="rgb(0,0,0)" stroke-width="1" opacity="0.9921568627450981" d="M 103.5 58 L 107 62.5 L 105 61.5 L 103.5 58 Z " /><path fill="rgb(0,0,0)" stroke="rgb(0,0,0)" stroke-width="1" opacity="0.9921568627450981" d="M 99.5 61 L 98 63.5 L 93.5 70 L 95 67.5 L 99.5 61 Z " /><path fill="rgb(0,0,0)" stroke="rgb(0,0,0)" stroke-width="1" opacity="0.9921568627450981" d="M 174.5 61 L 176 67.5 L 176 79.5 L 174.5 85 L 174 80.5 L 175 79.5 L 175 67.5 Q 172.4 65.9 174.5 61 Z " /><path fill="rgb(0,0,0)" stroke="rgb(0,0,0)" stroke-width="1" opacity="0.9921568627450981" d="M 107.5 64 L 110 67.5 L 109 67.5 L 107.5 64 Z " /><path fill="rgb(0,0,0)" stroke="rgb(0,0,0)" stroke-width="1" opacity="0.9921568627450981" d="M 29.5 68 L 30 78.5 L 29 78.5 L 29.5 68 Z " /><path fill="rgb(0,0,0)" stroke="rgb(0,0,0)" stroke-width="1" opacity="0.9921568627450981" d="M 111.5 69 L 120.5 79 L 124 81.5 L 121.5 80 L 111 70.5 L 111.5 69 Z " /><path fill="rgb(0,0,0)" stroke="rgb(0,0,0)" stroke-width="1" opacity="0.9921568627450981" d="M 92.5 71 L 84.5 80 L 82.5 81 L 83.5 79 L 92.5 71 Z " /><path fill="rgb(0,0,0)" stroke="rgb(0,0,0)" stroke-width="1" opacity="0.9921568627450981" d="M 80.5 81 L 79.5 83 L 76.5 85 L 78.5 82 L 80.5 81 Z " /><path fill="rgb(0,0,0)" stroke="rgb(0,0,0)" stroke-width="1" opacity="0.9921568627450981" d="M 127.5 83 L 128.5 85 L 127.5 83 Z " /><path fill="rgb(0,0,0)" stroke="rgb(0,0,0)" stroke-width="1" opacity="0.9921568627450981" d="M 70.5 86 L 73 86.5 L 68 89.5 L 67.5 97 L 67 89.5 L 68 87 L 70.5 86 Z " /><path fill="rgb(0,0,0)" stroke="rgb(0,0,0)" stroke-width="1" opacity="0.9921568627450981" d="M 135.5 87 L 138 88 L 137.5 97 L 137 89.5 L 135.5 87 Z " /><path fill="rgb(0,0,0)" stroke="rgb(0,0,0)" stroke-width="1" opacity="0.9921568627450981" d="M 31.5 88 L 35 90.5 L 33.5 91 L 31.5 88 Z " /><path fill="rgb(0,0,0)" stroke="rgb(0,0,0)" stroke-width="1" opacity="0.9921568627450981" d="M 173.5 88 L 172.5 90 L 173.5 88 Z " /><path fill="rgb(0,0,0)" stroke="rgb(0,0,0)" stroke-width="1" opacity="0.9921568627450981" d="M 169.5 92 L 170 95.5 L 169 95.5 L 169.5 92 Z " /><path fill="rgb(0,0,0)" stroke="rgb(0,0,0)" stroke-width="1" opacity="0.9921568627450981" d="M 65.5 101 L 67 105.5 L 65 104.5 L 65.5 101 Z " /><path fill="rgb(0,0,0)" stroke="rgb(0,0,0)" stroke-width="1" opacity="0.9921568627450981" d="M 139.5 101 L 140 104.5 L 138 105.5 L 139.5 101 Z " /><path fill="rgb(0,0,0)" stroke="rgb(0,0,0)" stroke-width="1" opacity="0.9921568627450981" d="M 167.5 101 L 168 103.5 L 167 103.5 L 167.5 101 Z " /><path fill="rgb(0,0,0)" stroke="rgb(0,0,0)" stroke-width="1" opacity="0.9921568627450981" d="M 37.5 102 L 38 104.5 L 37 104.5 L 37.5 102 Z " /><path fill="rgb(0,0,0)" stroke="rgb(0,0,0)" stroke-width="1" opacity="0.9921568627450981" d="M 67.5 109 L 68 118.5 L 67 118.5 L 67.5 109 Z " /><path fill="rgb(0,0,0)" stroke="rgb(0,0,0)" stroke-width="1" opacity="0.9921568627450981" d="M 137.5 109 L 138 117.5 L 137 117.5 L 137.5 109 Z " /><path fill="rgb(0,0,0)" stroke="rgb(0,0,0)" stroke-width="1" opacity="0.9921568627450981" d="M 169.5 109 L 170 116.5 L 169 116.5 L 169.5 109 Z " /><path fill="rgb(0,0,0)" stroke="rgb(0,0,0)" stroke-width="1" opacity="0.9921568627450981" d="M 66.5 120 L 67 121.5 L 66 125.5 L 67 127.5 L 66 127.5 L 65 122.5 L 66.5 120 Z " /><path fill="rgb(0,0,0)" stroke="rgb(0,0,0)" stroke-width="1" opacity="0.9921568627450981" d="M 138.5 120 L 140 125.5 L 138.5 128 L 138 126.5 L 139 122.5 L 138.5 120 Z " /><path fill="rgb(0,0,0)" stroke="rgb(0,0,0)" stroke-width="1" opacity="0.9921568627450981" d="M 37.5 122 L 38 125.5 L 37 125.5 L 37.5 122 Z " /><path fill="rgb(0,0,0)" stroke="rgb(0,0,0)" stroke-width="1" opacity="0.9921568627450981" d="M 167.5 123 L 168 125.5 L 167 125.5 L 167.5 123 Z " /><path fill="rgb(0,0,0)" stroke="rgb(0,0,0)" stroke-width="1" opacity="0.9921568627450981" d="M 67.5 130 L 68 139.5 L 67 139.5 L 67.5 130 Z " /><path fill="rgb(0,0,0)" stroke="rgb(0,0,0)" stroke-width="1" opacity="0.9921568627450981" d="M 137.5 130 L 138 139.5 L 137 139.5 L 137.5 130 Z " /><path fill="rgb(0,0,0)" stroke="rgb(0,0,0)" stroke-width="1" opacity="0.9921568627450981" d="M 169.5 131 L 170 137.5 L 169 137.5 L 169.5 131 Z " /><path fill="rgb(0,0,0)" stroke="rgb(0,0,0)" stroke-width="1" opacity="0.9921568627450981" d="M 66.5 142 L 66 143.5 L 65.5 146 L 65 143.5 L 66.5 142 Z " /><path fill="rgb(0,0,0)" stroke="rgb(0,0,0)" stroke-width="1" opacity="0.9921568627450981" d="M 138.5 142 Q 140.8 142.8 140 146.5 L 139 146.5 L 138.5 142 Z " /><path fill="rgb(0,0,0)" stroke="rgb(0,0,0)" stroke-width="1" opacity="0.9921568627450981" d="M 167.5 143 L 168 145.5 L 167 145.5 L 167.5 143 Z " /><path fill="rgb(0,0,0)" stroke="rgb(0,0,0)" stroke-width="1" opacity="0.9921568627450981" d="M 37.5 144 L 38 146.5 L 35.5 148 L 35.5 147 Q 38.4 147.7 37.5 144 Z " /><path fill="rgb(0,0,0)" stroke="rgb(0,0,0)" stroke-width="1" opacity="0.9921568627450981" d="M 33.5 148 L 31.5 151 L 33.5 148 Z " /><path fill="rgb(0,0,0)" stroke="rgb(0,0,0)" stroke-width="1" opacity="0.9921568627450981" d="M 69.5 148 Q 75.1 149.9 74 158.5 L 68.5 165 L 72 160.5 L 73 153.5 L 69.5 148 Z " /><path fill="rgb(0,0,0)" stroke="rgb(0,0,0)" stroke-width="1" opacity="0.9921568627450981" d="M 135.5 148 L 133 151.5 L 132 158.5 L 138 165.5 L 138 174.5 L 137 174.5 L 137 165.5 Q 130.6 162.9 131 153.5 L 135.5 148 Z " /><path fill="rgb(0,0,0)" stroke="rgb(0,0,0)" stroke-width="1" opacity="0.9921568627450981" d="M 171.5 148 L 176 154.5 L 176 157.5 L 174.5 160 L 174 158.5 L 175 154.5 L 171.5 148 Z " /><path fill="rgb(0,0,0)" stroke="rgb(0,0,0)" stroke-width="1" opacity="0.9921568627450981" d="M 30.5 152 L 31 153.5 L 30 157.5 L 31 160.5 L 30 160.5 L 29 154.5 L 30.5 152 Z " /><path fill="rgb(0,0,0)" stroke="rgb(0,0,0)" stroke-width="1" opacity="0.9921568627450981" d="M 173.5 161 L 170 165.5 L 169.5 174 L 169 164 L 173.5 161 Z " /><path fill="rgb(0,0,0)" stroke="rgb(0,0,0)" stroke-width="1" opacity="0.9921568627450981" d="M 32.5 162 Q 37.8 163.8 36 172.5 L 35 172.5 L 35 165.5 L 32.5 162 Z " /><path fill="rgb(0,0,0)" stroke="rgb(0,0,0)" stroke-width="1" opacity="0.9921568627450981" d="M 67.5 166 L 68 175.5 L 67 175.5 L 67.5 166 Z " /><path fill="rgb(0,0,0)" stroke="rgb(0,0,0)" stroke-width="1" opacity="0.9921568627450981" d="M 66.5 177 L 67 178.5 Q 64.4 185.9 58.5 190 L 59 188.5 Q 58.3 186.3 60.5 187 L 66.5 177 Z " /><path fill="rgb(0,0,0)" stroke="rgb(0,0,0)" stroke-width="1" opacity="0.9921568627450981" d="M 138.5 177 Q 140.8 185.2 147 189.5 L 141 184.5 L 138.5 177 Z " /><path fill="rgb(0,0,0)" stroke="rgb(0,0,0)" stroke-width="1" opacity="0.9921568627450981" d="M 37.5 180 L 45.5 190 L 50 192.5 L 48.5 192 Q 42.4 190.6 40 185.5 L 37.5 180 Z " /><path fill="rgb(0,0,0)" stroke="rgb(0,0,0)" stroke-width="1" opacity="0.9921568627450981" d="M 166.5 181 L 166 182.5 L 164.5 185 L 165 183.5 L 166.5 181 Z " /><path fill="rgb(0,0,0)" stroke="rgb(0,0,0)" stroke-width="1" opacity="0.9921568627450981" d="M 161.5 187 L 160.5 189 L 161.5 187 Z " /><path fill="rgb(0,0,0)" stroke="rgb(0,0,0)" stroke-width="1" opacity="0.9921568627450981" d="M 56.5 190 L 55.5 192 L 56.5 190 Z " /><path fill="rgb(0,0,0)" stroke="rgb(0,0,0)" stroke-width="1" opacity="0.9921568627450981" d="M 148.5 190 L 149.5 192 L 148.5 190 Z " /><path fill="rgb(0,0,0)" stroke="rgb(0,0,0)" stroke-width="1" opacity="0.9921568627450981" d="M 158.5 190 L 157.5 192 L 153.5 194 L 155.5 191 L 158.5 190 Z " /><path fill="rgb(0,0,0)" stroke="rgb(0,0,0)" stroke-width="1" opacity="0.9921568627450981" d="M 52.5 192 L 54 192.5 L 51.5 194 L 52.5 192 Z " /><path fill="rgb(84,68,59)" stroke="rgb(84,68,59)" stroke-width="1" opacity="0.5254901960784314" d="M 85.5 12 L 90 12.5 L 85.5 13 L 85.5 12 Z " /><path fill="rgb(84,68,59)" stroke="rgb(84,68,59)" stroke-width="1" opacity="0.5254901960784314" d="M 115.5 12 L 119 12.5 L 115.5 13 L 115.5 12 Z " /><path fill="rgb(84,68,59)" stroke="rgb(84,68,59)" stroke-width="1" opacity="0.5254901960784314" d="M 76.5 13 L 83 13.5 L 70.5 16 L 70.5 15 L 76.5 13 Z " /><path fill="rgb(84,68,59)" stroke="rgb(84,68,59)" stroke-width="1" opacity="0.5254901960784314" d="M 92.5 13 L 105.5 14 Q 107 11.5 112.5 13 L 112.5 14 L 99.5 15 Q 98 12.5 92.5 14 L 92.5 13 Z " /><path fill="rgb(84,68,59)" stroke="rgb(84,68,59)" stroke-width="1" opacity="0.5254901960784314" d="M 122.5 13 Q 127.3 11.8 128.5 14 L 130.5 14 L 135 15.5 L 132.5 16 Q 129.2 13.3 122.5 14 L 122.5 13 Z " /><path fill="rgb(84,68,59)" stroke="rgb(84,68,59)" stroke-width="1" opacity="0.5254901960784314" d="M 62.5 18 L 64 18.5 L 57.5 22 L 58.5 20 L 62.5 18 Z " /><path fill="rgb(84,68,59)" stroke="rgb(84,68,59)" stroke-width="1" opacity="0.5254901960784314" d="M 141.5 18 L 148 21.5 L 146.5 21 L 141.5 19 L 141.5 18 Z " /><path fill="rgb(84,68,59)" stroke="rgb(84,68,59)" stroke-width="1" opacity="0.5254901960784314" d="M 149.5 22 L 150.5 24 L 149.5 22 Z " /><path fill="rgb(84,68,59)" stroke="rgb(84,68,59)" stroke-width="1" opacity="0.5254901960784314" d="M 152.5 24 L 162 32.5 L 156.5 28 L 152.5 24 Z " /><path fill="rgb(84,68,59)" stroke="rgb(84,68,59)" stroke-width="1" opacity="0.5254901960784314" d="M 47.5 29 L 50 30.5 L 48.5 30 L 47.5 29 Z " /><path fill="rgb(84,68,59)" stroke="rgb(84,68,59)" stroke-width="1" opacity="0.5254901960784314" d="M 163.5 35 L 165.5 38 L 163.5 35 Z " /><path fill="rgb(84,68,59)" stroke="rgb(84,68,59)" stroke-width="1" opacity="0.5254901960784314" d="M 166.5 39 L 167.5 41 L 166.5 39 Z " /><path fill="rgb(84,68,59)" stroke="rgb(84,68,59)" stroke-width="1" opacity="0.5254901960784314" d="M 36.5 42 L 39 42.5 L 36.5 43 L 36.5 42 Z " /><path fill="rgb(84,68,59)" stroke="rgb(84,68,59)" stroke-width="1" opacity="0.5254901960784314" d="M 168.5 42 L 169.5 44 L 168.5 42 Z " /><path fill="rgb(84,68,59)" stroke="rgb(84,68,59)" stroke-width="1" opacity="0.5254901960784314" d="M 170.5 45 L 175 52.5 L 173 53 L 170.5 45 Z " /><path fill="rgb(84,68,59)" stroke="rgb(84,68,59)" stroke-width="1" opacity="0.5254901960784314" d="M 33.5 47 L 34 48.5 L 31.5 53 L 31 51.5 L 33.5 47 Z " /><path fill="rgb(84,68,59)" stroke="rgb(84,68,59)" stroke-width="1" opacity="0.5254901960784314" d="M 30.5 54 L 31 56.5 L 29.5 60 L 29 57.5 L 30.5 54 Z " /><path fill="rgb(84,68,59)" stroke="rgb(84,68,59)" stroke-width="1" opacity="0.5254901960784314" d="M 174.5 54 L 175 56.5 L 174 56.5 L 174.5 54 Z " /><path fill="rgb(84,68,59)" stroke="rgb(84,68,59)" stroke-width="1" opacity="0.5254901960784314" d="M 102.5 59 L 103.5 61 L 101 60.5 L 102.5 59 Z " /><path fill="rgb(84,68,59)" stroke="rgb(84,68,59)" stroke-width="1" opacity="0.5254901960784314" d="M 175.5 61 L 177 63.5 L 176 63.5 L 175.5 61 Z " /><path fill="rgb(84,68,59)" stroke="rgb(84,68,59)" stroke-width="1" opacity="0.5254901960784314" d="M 28.5 62 L 29 65.5 L 28 65.5 L 28.5 62 Z " /><path fill="rgb(84,68,59)" stroke="rgb(84,68,59)" stroke-width="1" opacity="0.5254901960784314" d="M 100.5 62 L 100 63.5 Q 95.3 73.8 86.5 80 L 95 70.5 L 100.5 62 Z " /><path fill="rgb(84,68,59)" stroke="rgb(84,68,59)" stroke-width="1" opacity="0.5254901960784314" d="M 104.5 62 L 105.5 64 L 104.5 62 Z " /><path fill="rgb(84,68,59)" stroke="rgb(84,68,59)" stroke-width="1" opacity="0.5254901960784314" d="M 106.5 65 L 107.5 67 L 106.5 65 Z " /><path fill="rgb(84,68,59)" stroke="rgb(84,68,59)" stroke-width="1" opacity="0.5254901960784314" d="M 27.5 67 L 28 77.5 L 27 77.5 L 27.5 67 Z " /><path fill="rgb(84,68,59)" stroke="rgb(84,68,59)" stroke-width="1" opacity="0.5254901960784314" d="M 108.5 68 L 109.5 70 L 108.5 68 Z " /><path fill="rgb(84,68,59)" stroke="rgb(84,68,59)" stroke-width="1" opacity="0.5254901960784314" d="M 177.5 69 L 178 77.5 L 177 77.5 L 177.5 69 Z " /><path fill="rgb(84,68,59)" stroke="rgb(84,68,59)" stroke-width="1" opacity="0.5254901960784314" d="M 110.5 71 L 117.5 79 L 110.5 71 Z " /><path fill="rgb(84,68,59)" stroke="rgb(84,68,59)" stroke-width="1" opacity="0.5254901960784314" d="M 83.5 81 L 82.5 83 L 83.5 81 Z " /><path fill="rgb(84,68,59)" stroke="rgb(84,68,59)" stroke-width="1" opacity="0.5254901960784314" d="M 121.5 81 L 122.5 83 L 121.5 81 Z " /><path fill="rgb(84,68,59)" stroke="rgb(84,68,59)" stroke-width="1" opacity="0.5254901960784314" d="M 28.5 82 L 29 84.5 L 28 84.5 L 28.5 82 Z " /><path fill="rgb(84,68,59)" stroke="rgb(84,68,59)" stroke-width="1" opacity="0.5254901960784314" d="M 176.5 82 L 177 84.5 L 175 85.5 L 176.5 82 Z " /><path fill="rgb(84,68,59)" stroke="rgb(84,68,59)" stroke-width="1" opacity="0.5254901960784314" d="M 80.5 83 L 79.5 85 L 80.5 83 Z " /><path fill="rgb(84,68,59)" stroke="rgb(84,68,59)" stroke-width="1" opacity="0.5254901960784314" d="M 124.5 83 L 125.5 85 L 124.5 83 Z " /><path fill="rgb(84,68,59)" stroke="rgb(84,68,59)" stroke-width="1" opacity="0.5254901960784314" d="M 77.5 85 L 76.5 87 L 70 89 Q 71.3 97.5 67.5 102 L 67 100.5 Q 70.2 97.2 69 89.5 L 70.5 88 L 77.5 85 Z " /><path fill="rgb(84,68,59)" stroke="rgb(84,68,59)" stroke-width="1" opacity="0.5254901960784314" d="M 29.5 87 L 32.5 91 L 34 91.5 L 32.5 92 L 30 91 L 29.5 87 Z " /><path fill="rgb(84,68,59)" stroke="rgb(84,68,59)" stroke-width="1" opacity="0.5254901960784314" d="M 131.5 87 L 136 89.5 Q 135 97.5 138 101.5 L 137 101.5 Q 134.1 96.9 134.5 89 L 133.5 90 L 131.5 87 Z " /><path fill="rgb(84,68,59)" stroke="rgb(84,68,59)" stroke-width="1" opacity="0.5254901960784314" d="M 175.5 87 L 176 88.5 L 175 91 L 172 92.5 L 170.5 99 L 170 95.5 L 171 91 L 175 88.5 L 175.5 87 Z " /><path fill="rgb(84,68,59)" stroke="rgb(84,68,59)" stroke-width="1" opacity="0.5254901960784314" d="M 34.5 96 L 35 98.5 L 34 98.5 L 34.5 96 Z " /><path fill="rgb(84,68,59)" stroke="rgb(84,68,59)" stroke-width="1" opacity="0.5254901960784314" d="M 169.5 104 L 171 109.5 L 170 109.5 L 169.5 104 Z " /><path fill="rgb(84,68,59)" stroke="rgb(84,68,59)" stroke-width="1" opacity="0.5254901960784314" d="M 68.5 106 Q 71.2 109.8 70 117.5 L 68.5 121 L 68 118.5 L 69 117.5 L 69 109.5 L 68.5 106 Z " /><path fill="rgb(84,68,59)" stroke="rgb(84,68,59)" stroke-width="1" opacity="0.5254901960784314" d="M 136.5 106 L 137 108.5 L 136 109.5 L 136 117.5 L 136.5 119 L 135 117.5 L 135 109.5 L 136.5 106 Z " /><path fill="rgb(84,68,59)" stroke="rgb(84,68,59)" stroke-width="1" opacity="0.5254901960784314" d="M 171.5 111 L 172 115.5 L 171 115.5 L 171.5 111 Z " /><path fill="rgb(84,68,59)" stroke="rgb(84,68,59)" stroke-width="1" opacity="0.5254901960784314" d="M 170.5 119 L 171 120.5 L 169.5 123 L 169 121.5 L 170.5 119 Z " /><path fill="rgb(84,68,59)" stroke="rgb(84,68,59)" stroke-width="1" opacity="0.5254901960784314" d="M 68.5 122 L 67.5 124 L 68.5 122 Z " /><path fill="rgb(84,68,59)" stroke="rgb(84,68,59)" stroke-width="1" opacity="0.5254901960784314" d="M 67.5 125 L 69 127.5 L 67 126.5 L 67.5 125 Z " /><path fill="rgb(84,68,59)" stroke="rgb(84,68,59)" stroke-width="1" opacity="0.5254901960784314" d="M 137.5 125 L 138 126.5 L 136 127.5 L 137.5 125 Z " /><path fill="rgb(84,68,59)" stroke="rgb(84,68,59)" stroke-width="1" opacity="0.5254901960784314" d="M 170.5 128 L 171 131.5 L 170 131.5 L 170.5 128 Z " /><path fill="rgb(84,68,59)" stroke="rgb(84,68,59)" stroke-width="1" opacity="0.5254901960784314" d="M 68.5 129 Q 71.5 130.5 70 136.5 L 69 136.5 Q 69.5 130.5 68.5 129 Z " /><path fill="rgb(84,68,59)" stroke="rgb(84,68,59)" stroke-width="1" opacity="0.5254901960784314" d="M 136.5 129 L 136 130.5 L 135.5 139 L 135 130.5 L 136.5 129 Z " /><path fill="rgb(84,68,59)" stroke="rgb(84,68,59)" stroke-width="1" opacity="0.5254901960784314" d="M 171.5 133 L 172 136.5 L 171 136.5 L 171.5 133 Z " /><path fill="rgb(84,68,59)" stroke="rgb(84,68,59)" stroke-width="1" opacity="0.5254901960784314" d="M 69.5 138 L 70 139.5 L 68 146 L 75 151.5 L 74.5 153 L 69.5 147 L 67 145.5 L 69.5 138 Z " /><path fill="rgb(84,68,59)" stroke="rgb(84,68,59)" stroke-width="1" opacity="0.5254901960784314" d="M 170.5 138 L 171 141.5 L 170 146 L 176 150.5 L 178 156.5 L 177 156.5 Q 176.1 149.9 171.5 147 L 169 145.5 L 170.5 138 Z " /><path fill="rgb(84,68,59)" stroke="rgb(84,68,59)" stroke-width="1" opacity="0.5254901960784314" d="M 34.5 140 L 36 144.5 L 35 144.5 L 34.5 140 Z " /><path fill="rgb(84,68,59)" stroke="rgb(84,68,59)" stroke-width="1" opacity="0.5254901960784314" d="M 137.5 143 L 138 145.5 L 131.5 151 L 132 149.5 Q 130.8 145.8 134.5 147 L 137 146 L 137.5 143 Z " /><path fill="rgb(84,68,59)" stroke="rgb(84,68,59)" stroke-width="1" opacity="0.5254901960784314" d="M 33.5 146 L 35 146.5 L 30 150.5 L 28 157.5 L 29 159.5 L 28 159.5 L 27 154.5 Q 28.4 148.4 33.5 146 Z " /><path fill="rgb(84,68,59)" stroke="rgb(84,68,59)" stroke-width="1" opacity="0.5254901960784314" d="M 130.5 152 L 130 153.5 L 129.5 158 L 129 153.5 L 130.5 152 Z " /><path fill="rgb(84,68,59)" stroke="rgb(84,68,59)" stroke-width="1" opacity="0.5254901960784314" d="M 75.5 154 L 76 158.5 L 71.5 166 L 70 165.5 L 69.5 168 L 69 165.5 Q 75.1 162.6 75.5 154 Z " /><path fill="rgb(84,68,59)" stroke="rgb(84,68,59)" stroke-width="1" opacity="0.5254901960784314" d="M 176.5 158 L 177 159.5 L 172.5 165 L 175 161.5 L 176.5 158 Z " /><path fill="rgb(84,68,59)" stroke="rgb(84,68,59)" stroke-width="1" opacity="0.5254901960784314" d="M 29.5 161 L 34.5 167 L 29.5 161 Z " /><path fill="rgb(84,68,59)" stroke="rgb(84,68,59)" stroke-width="1" opacity="0.5254901960784314" d="M 131.5 161 L 136 165.5 L 136 167.5 L 135 167.5 L 135 165.5 L 131.5 161 Z " /><path fill="rgb(84,68,59)" stroke="rgb(84,68,59)" stroke-width="1" opacity="0.5254901960784314" d="M 33.5 168 L 34 171.5 L 33 171.5 L 33.5 168 Z " /><path fill="rgb(84,68,59)" stroke="rgb(84,68,59)" stroke-width="1" opacity="0.5254901960784314" d="M 171.5 169 L 172 171.5 L 171 171.5 L 171.5 169 Z " /><path fill="rgb(84,68,59)" stroke="rgb(84,68,59)" stroke-width="1" opacity="0.5254901960784314" d="M 69.5 173 L 70 174.5 L 68.5 178 L 68 175.5 L 69.5 173 Z " /><path fill="rgb(84,68,59)" stroke="rgb(84,68,59)" stroke-width="1" opacity="0.5254901960784314" d="M 135.5 173 L 137 175.5 L 135 174.5 L 135.5 173 Z " /><path fill="rgb(84,68,59)" stroke="rgb(84,68,59)" stroke-width="1" opacity="0.5254901960784314" d="M 170.5 173 L 171 176.5 L 165.5 186 L 167 183.5 L 170.5 173 Z " /><path fill="rgb(84,68,59)" stroke="rgb(84,68,59)" stroke-width="1" opacity="0.5254901960784314" d="M 136.5 177 L 138 179.5 L 137 179.5 L 136.5 177 Z " /><path fill="rgb(84,68,59)" stroke="rgb(84,68,59)" stroke-width="1" opacity="0.5254901960784314" d="M 35.5 178 L 40 185.5 L 37 183.5 L 35.5 178 Z " /><path fill="rgb(84,68,59)" stroke="rgb(84,68,59)" stroke-width="1" opacity="0.5254901960784314" d="M 66.5 181 L 67.5 183 L 66.5 181 Z " /><path fill="rgb(84,68,59)" stroke="rgb(84,68,59)" stroke-width="1" opacity="0.5254901960784314" d="M 139.5 183 L 140.5 185 L 139.5 183 Z " /><path fill="rgb(84,68,59)" stroke="rgb(84,68,59)" stroke-width="1" opacity="0.5254901960784314" d="M 63.5 186 L 58.5 192 L 63.5 186 Z " /><path fill="rgb(84,68,59)" stroke="rgb(84,68,59)" stroke-width="1" opacity="0.5254901960784314" d="M 40.5 187 L 42.5 190 L 40.5 187 Z " /><path fill="rgb(84,68,59)" stroke="rgb(84,68,59)" stroke-width="1" opacity="0.5254901960784314" d="M 142.5 187 L 153 194.5 L 151.5 195 Q 145 192.1 142.5 187 Z " /><path fill="rgb(84,68,59)" stroke="rgb(84,68,59)" stroke-width="1" opacity="0.5254901960784314" d="M 160.5 190 L 158.5 193 L 160.5 190 Z " /><path fill="rgb(84,68,59)" stroke="rgb(84,68,59)" stroke-width="1" opacity="0.5254901960784314" d="M 45.5 191 L 46.5 193 L 45.5 191 Z " /><path fill="rgb(84,68,59)" stroke="rgb(84,68,59)" stroke-width="1" opacity="0.5254901960784314" d="M 56.5 192 L 55.5 194 L 53.5 195 L 54.5 193 L 56.5 192 Z " /><path fill="rgb(0,0,0)" stroke="rgb(0,0,0)" stroke-width="1" opacity="1" d="M 83.5 15 L 111.5 16 L 112.5 15 L 122.5 15 Q 124.3 17.8 130.5 16 L 145.5 22 L 161 34.5 Q 169.8 44.2 174 58.5 L 175 79.5 Q 172.2 81.3 174 87.5 L 171.5 90 Q 169.3 89.3 170 91.5 L 167 103.5 Q 170.8 108.2 169 118.5 L 167 125.5 L 169 128.5 L 169 140.5 L 167 145.5 L 173 150.5 L 175 157.5 L 170.5 164 L 169 164.5 L 169 176.5 L 162.5 187 L 160 188.5 Q 160.8 190.8 158.5 190 L 152.5 193 L 142 184.5 L 138 176.5 L 138 165.5 Q 131.6 162.9 132 153.5 L 136.5 148 L 140 147 Q 141 142.8 138 141.5 L 138 128.5 Q 140.6 127.1 140 122.5 L 138 119.5 L 138 106.5 Q 140.8 105.8 140 101.5 L 138 98.5 L 138 88 Q 121.6 83.2 112 70.5 Q 112.7 67.9 110 69 L 110 66.5 L 103.5 58 Q 98.7 56.3 100 60.5 Q 93.8 71.3 84.5 79 L 73.5 86 L 68 87 Q 65.9 90.3 67 98.5 Q 64.4 99.9 65 104.5 L 67 106.5 L 67 119.5 Q 64.4 120.9 65 125.5 L 67 128.5 L 67 141.5 L 65 145.5 L 72 151.5 L 73 158.5 L 67 166.5 L 67 176.5 L 60.5 187 Q 58.3 186.3 59 188.5 Q 56.3 192.3 50.5 193 L 41 185.5 L 36 176.5 L 36 165.5 L 32.5 162 Q 29.5 162.9 31 158.5 L 30 154.5 L 34.5 148 L 38 146.5 Q 34.6 140.4 36 129.5 L 38 122.5 L 36 119.5 L 36 107.5 L 38 102.5 Q 34.6 97.7 35 90 L 31 87.5 L 30 68.5 L 29 66.5 Q 32 62.5 32 55.5 L 37.5 45 L 40.5 44 L 41 47.5 Q 32.7 58.7 34 79.5 L 36.5 86 L 53.5 87 Q 75.8 83.3 88 69.5 L 94 61.5 L 101.5 45 L 105 46.5 Q 110.1 65.9 124.5 76 L 141.5 85 L 151.5 87 L 162.5 87 Q 163.7 84.7 168.5 86 L 170 84.5 L 171 67.5 Q 166.7 42.3 149.5 30 L 139.5 24 L 127.5 20 L 107.5 20 L 106.5 21 L 98.5 21 L 97.5 20 L 77.5 20 L 62.5 26 L 59 26 L 59 22 L 60.5 22 L 74.5 16 L 82.5 16 L 83.5 15 Z M 61 91 L 51 93 Q 46 94 45 92 Q 41 91 40 94 Q 42 105 51 110 L 56 108 Q 62 103 63 93 L 61 91 Z M 144 91 L 142 93 L 145 103 L 153 110 L 155 110 Q 162 105 165 96 L 164 92 L 160 93 L 144 91 Z M 42 110 L 40 112 Q 40 122 45 127 L 51 131 L 55 130 Q 61 126 63 118 Q 64 111 62 110 L 54 116 L 50 116 L 42 110 Z M 144 110 L 142 112 Q 142 121 146 126 L 153 131 L 158 129 Q 163 125 165 117 Q 166 111 164 110 L 156 116 L 152 116 L 144 110 Z M 42 131 L 40 133 L 40 138 L 42 144 L 45 146 L 60 146 L 63 139 Q 64 132 62 131 L 52 138 L 42 131 Z M 144 131 L 142 133 Q 141 140 144 144 L 147 146 L 161 146 L 165 138 Q 166 132 164 131 L 154 138 L 144 131 Z M 37 152 L 34 156 L 35 159 L 37 160 L 67 160 L 69 157 L 68 154 L 67 152 L 37 152 Z M 139 152 L 136 156 L 139 160 L 168 160 L 169 159 Q 171 160 170 154 L 169 152 L 139 152 Z M 42 166 L 40 168 L 40 173 L 43 181 L 52 188 L 56 186 L 62 178 L 63 168 L 62 166 L 42 166 Z M 144 166 L 142 168 Q 141 176 145 181 L 154 188 L 156 187 Q 165 182 165 168 L 164 166 L 144 166 Z " /><path fill="rgb(0,0,0)" stroke="rgb(0,0,0)" stroke-width="1" opacity="1" d="M 47.5 31 L 51 33.5 L 47 36 L 45 32 L 47.5 31 Z " /><path fill="rgb(0,0,0)" stroke="rgb(0,0,0)" stroke-width="1" opacity="0" d="M 0 0 L 200 0 L 200 200 L 0 200 L 0 0 Z M 82 12 L 65 16 L 57 21 L 58 24 L 57 23 L 52 28 L 43 30 L 42 38 L 38 42 L 36 42 L 29 56 L 30 61 L 29 60 L 27 64 L 27 80 L 29 80 L 28 83 Q 27 86 30 85 L 29 91 L 32 92 Q 35 95 34 103 L 34 105 L 35 109 L 35 119 L 34 120 L 35 123 L 34 127 L 35 131 L 35 140 L 34 141 L 35 145 L 32 146 L 27 153 L 27 160 L 33 168 Q 31 174 35 174 L 34 176 L 37 186 L 50 196 L 54 196 L 63 190 Q 62 187 65 188 L 70 177 L 69 173 L 69 169 L 76 161 Q 78 151 74 148 Q 71 149 72 146 L 68 145 Q 71 143 70 139 L 70 137 L 70 130 L 69 129 L 69 128 L 67 123 L 69 123 L 70 120 Q 72 109 68 104 L 70 99 L 70 92 L 87 82 L 96 73 L 103 62 L 111 74 Q 110 76 113 75 L 115 79 Q 123 86 135 90 Q 133 98 137 102 L 135 108 L 135 119 L 137 119 L 136 121 L 137 124 L 136 126 L 137 129 L 135 129 L 135 141 L 137 145 L 134 146 L 129 152 L 129 161 L 130 162 Q 129 164 132 163 L 136 169 L 135 174 Q 134 177 137 176 L 136 178 Q 137 188 146 192 Q 148 191 147 194 L 152 196 L 156 196 L 162 192 L 170 182 Q 173 177 172 168 L 174 166 Q 173 163 176 164 L 178 160 Q 179 152 176 150 Q 177 147 174 148 L 174 146 L 170 145 L 172 140 Q 173 130 170 126 L 171 122 L 170 119 L 172 118 Q 174 109 170 105 L 172 94 L 176 91 L 175 87 L 177 86 L 176 82 L 178 81 L 178 67 L 176 65 L 177 61 L 176 61 L 176 60 L 174 50 L 164 34 Q 165 31 163 32 L 161 30 Q 152 21 141 16 L 125 12 Q 111 10 104 14 L 96 12 L 82 12 Z " /><path fill="rgb(49,37,18)" stroke="rgb(49,37,18)" stroke-width="1" opacity="0.9372549019607843" d="M 77.5 20 L 83 20.5 L 77.5 21 L 77.5 20 Z " /><path fill="rgb(49,37,18)" stroke="rgb(49,37,18)" stroke-width="1" opacity="0.9372549019607843" d="M 93.5 20 L 98 20.5 L 93.5 21 L 93.5 20 Z " /><path fill="rgb(49,37,18)" stroke="rgb(49,37,18)" stroke-width="1" opacity="0.9372549019607843" d="M 107.5 20 L 112 20.5 L 107.5 21 L 107.5 20 Z " /><path fill="rgb(49,37,18)" stroke="rgb(49,37,18)" stroke-width="1" opacity="0.9372549019607843" d="M 122.5 20 L 128 20.5 L 122.5 21 L 122.5 20 Z " /><path fill="rgb(49,37,18)" stroke="rgb(49,37,18)" stroke-width="1" opacity="0.9372549019607843" d="M 73.5 21 L 76 21.5 L 73.5 22 L 73.5 21 Z " /><path fill="rgb(49,37,18)" stroke="rgb(49,37,18)" stroke-width="1" opacity="0.9372549019607843" d="M 100.5 21 L 106 21.5 L 100.5 22 L 100.5 21 Z " /><path fill="rgb(49,37,18)" stroke="rgb(49,37,18)" stroke-width="1" opacity="0.9372549019607843" d="M 70.5 22 L 72 22.5 L 68.5 24 L 68.5 23 L 70.5 22 Z " /><path fill="rgb(49,37,18)" stroke="rgb(49,37,18)" stroke-width="1" opacity="0.9372549019607843" d="M 133.5 22 L 137 23.5 L 135.5 24 L 133.5 22 Z " /><path fill="rgb(49,37,18)" stroke="rgb(49,37,18)" stroke-width="1" opacity="0.9372549019607843" d="M 65.5 24 L 67 24.5 Q 65 27.5 59.5 27 L 58.5 25 L 62.5 26 L 65.5 24 Z " /><path fill="rgb(49,37,18)" stroke="rgb(49,37,18)" stroke-width="1" opacity="0.9372549019607843" d="M 138.5 24 L 145 27.5 L 143.5 27 L 138.5 25 L 138.5 24 Z " /><path fill="rgb(49,37,18)" stroke="rgb(49,37,18)" stroke-width="1" opacity="0.9372549019607843" d="M 146.5 28 L 160 40.5 L 149.5 31 L 146.5 28 Z " /><path fill="rgb(49,37,18)" stroke="rgb(49,37,18)" stroke-width="1" opacity="0.9372549019607843" d="M 156.5 28 L 162.5 35 L 156.5 28 Z " /><path fill="rgb(49,37,18)" stroke="rgb(49,37,18)" stroke-width="1" opacity="0.9372549019607843" d="M 46.5 30 L 49 30.5 L 45.5 32 L 46.5 30 Z " /><path fill="rgb(49,37,18)" stroke="rgb(49,37,18)" stroke-width="1" opacity="0.9372549019607843" d="M 50.5 34 L 51 36 L 47.5 37 L 47.5 36 L 50.5 34 Z " /><path fill="rgb(49,37,18)" stroke="rgb(49,37,18)" stroke-width="1" opacity="0.9372549019607843" d="M 160.5 42 L 161.5 44 L 160.5 42 Z " /><path fill="rgb(49,37,18)" stroke="rgb(49,37,18)" stroke-width="1" opacity="0.9372549019607843" d="M 36.5 43 L 35.5 45 L 36.5 43 Z " /><path fill="rgb(49,37,18)" stroke="rgb(49,37,18)" stroke-width="1" opacity="0.9372549019607843" d="M 100.5 45 L 100 46.5 L 99.5 48 L 99 46.5 L 100.5 45 Z " /><path fill="rgb(49,37,18)" stroke="rgb(49,37,18)" stroke-width="1" opacity="0.9372549019607843" d="M 104.5 45 L 106 47.5 L 105 47.5 L 104.5 45 Z " /><path fill="rgb(49,37,18)" stroke="rgb(49,37,18)" stroke-width="1" opacity="0.9372549019607843" d="M 162.5 45 L 167 53.5 L 166 53.5 L 162.5 45 Z " /><path fill="rgb(49,37,18)" stroke="rgb(49,37,18)" stroke-width="1" opacity="0.9372549019607843" d="M 39.5 50 L 40 51.5 L 38.5 54 L 38 52.5 L 39.5 50 Z " /><path fill="rgb(49,37,18)" stroke="rgb(49,37,18)" stroke-width="1" opacity="0.9372549019607843" d="M 97.5 52 L 98 53.5 L 96.5 56 L 96 54.5 L 97.5 52 Z " /><path fill="rgb(49,37,18)" stroke="rgb(49,37,18)" stroke-width="1" opacity="0.9372549019607843" d="M 107.5 52 L 109 55.5 L 108 55.5 L 107.5 52 Z " /><path fill="rgb(49,37,18)" stroke="rgb(49,37,18)" stroke-width="1" opacity="0.9372549019607843" d="M 37.5 55 L 38 56.5 L 36.5 60 L 36 57.5 L 37.5 55 Z " /><path fill="rgb(49,37,18)" stroke="rgb(49,37,18)" stroke-width="1" opacity="0.9372549019607843" d="M 109.5 57 L 112 60.5 L 110 59.5 L 109.5 57 Z " /><path fill="rgb(49,37,18)" stroke="rgb(49,37,18)" stroke-width="1" opacity="0.9372549019607843" d="M 102.5 58 L 103.5 60 L 101 59.5 L 102.5 58 Z " /><path fill="rgb(49,37,18)" stroke="rgb(49,37,18)" stroke-width="1" opacity="0.9372549019607843" d="M 94.5 59 L 94 60.5 L 83.5 74 L 79.5 77 L 82.5 73 L 87 69.5 L 94.5 59 Z " /><path fill="rgb(49,37,18)" stroke="rgb(49,37,18)" stroke-width="1" opacity="0.9372549019607843" d="M 35.5 61 L 36 64.5 L 35 64.5 L 35.5 61 Z " /><path fill="rgb(49,37,18)" stroke="rgb(49,37,18)" stroke-width="1" opacity="0.9372549019607843" d="M 112.5 62 L 113.5 64 L 112.5 62 Z " /><path fill="rgb(49,37,18)" stroke="rgb(49,37,18)" stroke-width="1" opacity="0.9372549019607843" d="M 169.5 62 L 170 64.5 L 169 64.5 L 169.5 62 Z " /><path fill="rgb(49,37,18)" stroke="rgb(49,37,18)" stroke-width="1" opacity="0.9372549019607843" d="M 114.5 65 L 118.5 70 L 114.5 65 Z " /><path fill="rgb(49,37,18)" stroke="rgb(49,37,18)" stroke-width="1" opacity="0.9372549019607843" d="M 28.5 66 L 29 68.5 L 28 68.5 L 28.5 66 Z " /><path fill="rgb(49,37,18)" stroke="rgb(49,37,18)" stroke-width="1" opacity="0.9372549019607843" d="M 34.5 66 L 35 79.5 L 34 79.5 L 34.5 66 Z " /><path fill="rgb(49,37,18)" stroke="rgb(49,37,18)" stroke-width="1" opacity="0.9372549019607843" d="M 170.5 67 L 171 79.5 L 170 79.5 L 170.5 67 Z " /><path fill="rgb(49,37,18)" stroke="rgb(49,37,18)" stroke-width="1" opacity="0.9372549019607843" d="M 176.5 67 L 177 69.5 L 176 69.5 L 176.5 67 Z " /><path fill="rgb(49,37,18)" stroke="rgb(49,37,18)" stroke-width="1" opacity="0.9372549019607843" d="M 94.5 70 L 92.5 73 L 94.5 70 Z " /><path fill="rgb(49,37,18)" stroke="rgb(49,37,18)" stroke-width="1" opacity="0.9372549019607843" d="M 110.5 70 L 113.5 74 L 110.5 70 Z " /><path fill="rgb(49,37,18)" stroke="rgb(49,37,18)" stroke-width="1" opacity="0.9372549019607843" d="M 121.5 72 L 124.5 76 L 121.5 72 Z " /><path fill="rgb(49,37,18)" stroke="rgb(49,37,18)" stroke-width="1" opacity="0.9372549019607843" d="M 77.5 77 L 76.5 79 L 74.5 80 L 75.5 78 L 77.5 77 Z " /><path fill="rgb(49,37,18)" stroke="rgb(49,37,18)" stroke-width="1" opacity="0.9372549019607843" d="M 87.5 77 L 84.5 81 L 87.5 77 Z " /><path fill="rgb(49,37,18)" stroke="rgb(49,37,18)" stroke-width="1" opacity="0.9372549019607843" d="M 117.5 77 L 120.5 81 L 117.5 77 Z " /><path fill="rgb(49,37,18)" stroke="rgb(49,37,18)" stroke-width="1" opacity="0.9372549019607843" d="M 127.5 77 L 131 79.5 L 129.5 79 L 127.5 77 Z " /><path fill="rgb(49,37,18)" stroke="rgb(49,37,18)" stroke-width="1" opacity="0.9372549019607843" d="M 35.5 81 L 36 85 L 39 85.5 L 36.5 86 Q 33.8 84.8 35.5 81 Z " /><path fill="rgb(49,37,18)" stroke="rgb(49,37,18)" stroke-width="1" opacity="0.9372549019607843" d="M 169.5 81 L 170 84.5 L 166.5 86 L 166.5 85 L 169 85 L 169.5 81 Z " /><path fill="rgb(49,37,18)" stroke="rgb(49,37,18)" stroke-width="1" opacity="0.9372549019607843" d="M 67.5 82 L 69 82.5 L 65.5 84 L 65.5 83 L 67.5 82 Z " /><path fill="rgb(49,37,18)" stroke="rgb(49,37,18)" stroke-width="1" opacity="0.9372549019607843" d="M 136.5 82 L 140 83.5 L 138.5 84 L 136.5 82 Z " /><path fill="rgb(49,37,18)" stroke="rgb(49,37,18)" stroke-width="1" opacity="0.9372549019607843" d="M 61.5 84 L 64 84.5 L 61.5 85 L 61.5 84 Z " /><path fill="rgb(49,37,18)" stroke="rgb(49,37,18)" stroke-width="1" opacity="0.9372549019607843" d="M 141.5 84 L 144 84.5 L 141.5 85 L 141.5 84 Z " /><path fill="rgb(49,37,18)" stroke="rgb(49,37,18)" stroke-width="1" opacity="0.9372549019607843" d="M 57.5 85 L 60 85.5 L 57.5 86 L 57.5 85 Z " /><path fill="rgb(49,37,18)" stroke="rgb(49,37,18)" stroke-width="1" opacity="0.9372549019607843" d="M 145.5 85 L 149 85.5 L 145.5 86 L 145.5 85 Z " /><path fill="rgb(49,37,18)" stroke="rgb(49,37,18)" stroke-width="1" opacity="0.9372549019607843" d="M 42.5 86 L 54 86.5 L 42.5 87 L 42.5 86 Z " /><path fill="rgb(49,37,18)" stroke="rgb(49,37,18)" stroke-width="1" opacity="0.9372549019607843" d="M 151.5 86 L 163 86.5 L 151.5 87 L 151.5 86 Z " /><path fill="rgb(49,37,18)" stroke="rgb(49,37,18)" stroke-width="1" opacity="0.9372549019607843" d="M 60.5 91 L 63 92.5 L 62.5 96 L 62 92 L 60.5 91 Z " /><path fill="rgb(49,37,18)" stroke="rgb(49,37,18)" stroke-width="1" opacity="0.9372549019607843" d="M 143.5 91 L 145 91.5 L 143 92 L 142.5 96 L 142 92.5 L 143.5 91 Z " /><path fill="rgb(49,37,18)" stroke="rgb(49,37,18)" stroke-width="1" opacity="0.9372549019607843" d="M 34.5 92 L 35 95.5 L 34 95.5 L 34.5 92 Z " /><path fill="rgb(49,37,18)" stroke="rgb(49,37,18)" stroke-width="1" opacity="0.9372549019607843" d="M 41.5 92 L 45 92.5 L 41 93 L 40.5 96 L 40 93.5 L 41.5 92 Z " /><path fill="rgb(49,37,18)" stroke="rgb(49,37,18)" stroke-width="1" opacity="0.9372549019607843" d="M 51.5 92 L 58 92.5 L 51.5 93 L 51.5 92 Z " /><path fill="rgb(49,37,18)" stroke="rgb(49,37,18)" stroke-width="1" opacity="0.9372549019607843" d="M 147.5 92 L 154 92.5 L 147.5 93 L 147.5 92 Z " /><path fill="rgb(49,37,18)" stroke="rgb(49,37,18)" stroke-width="1" opacity="0.9372549019607843" d="M 160.5 92 Q 164.3 91.3 165 93.5 L 164.5 96 L 164 93 Q 159.6 94 160.5 92 Z " /><path fill="rgb(49,37,18)" stroke="rgb(49,37,18)" stroke-width="1" opacity="0.9372549019607843" d="M 170.5 92 L 171 94.5 L 170 94.5 L 170.5 92 Z " /><path fill="rgb(49,37,18)" stroke="rgb(49,37,18)" stroke-width="1" opacity="0.9372549019607843" d="M 42.5 100 L 50.5 109 L 57 106 L 59.5 102 L 58 104.5 L 55.5 108 L 50.5 110 L 43 102.5 L 42.5 100 Z " /><path fill="rgb(49,37,18)" stroke="rgb(49,37,18)" stroke-width="1" opacity="0.9372549019607843" d="M 162.5 100 L 162 101.5 L 154.5 110 L 152.5 110 L 145 102.5 L 152.5 109 L 154.5 109 L 161 102.5 L 162.5 100 Z " /><path fill="rgb(49,37,18)" stroke="rgb(49,37,18)" stroke-width="1" opacity="0.9372549019607843" d="M 41.5 110 L 42.5 112 L 41 111.5 L 40.5 117 L 40 111.5 L 41.5 110 Z " /><path fill="rgb(49,37,18)" stroke="rgb(49,37,18)" stroke-width="1" opacity="0.9372549019607843" d="M 61.5 110 Q 64.5 111.5 63 117.5 L 59.5 124 L 60 122.5 Q 62.9 118.9 62 111.5 L 59.5 113 L 54.5 116 L 55.5 114 L 61.5 110 Z " /><path fill="rgb(49,37,18)" stroke="rgb(49,37,18)" stroke-width="1" opacity="0.9372549019607843" d="M 143.5 110 L 143 111.5 L 142.5 117 L 142 111.5 L 143.5 110 Z " /><path fill="rgb(49,37,18)" stroke="rgb(49,37,18)" stroke-width="1" opacity="0.9372549019607843" d="M 162.5 110 L 165 111.5 L 164.5 117 L 164 111 L 156.5 116 L 157.5 114 L 162.5 110 Z " /><path fill="rgb(49,37,18)" stroke="rgb(49,37,18)" stroke-width="1" opacity="0.9372549019607843" d="M 170.5 110 L 171 116.5 L 170 116.5 L 170.5 110 Z " /><path fill="rgb(49,37,18)" stroke="rgb(49,37,18)" stroke-width="1" opacity="0.9372549019607843" d="M 44.5 112 L 49 115.5 L 47.5 115 L 44.5 112 Z " /><path fill="rgb(49,37,18)" stroke="rgb(49,37,18)" stroke-width="1" opacity="0.9372549019607843" d="M 146.5 112 L 151 115.5 L 149.5 115 L 146.5 112 Z " /><path fill="rgb(49,37,18)" stroke="rgb(49,37,18)" stroke-width="1" opacity="0.9372549019607843" d="M 50.5 116 L 53 116.5 L 50.5 117 L 50.5 116 Z " /><path fill="rgb(49,37,18)" stroke="rgb(49,37,18)" stroke-width="1" opacity="0.9372549019607843" d="M 152.5 116 L 155 116.5 L 152.5 117 L 152.5 116 Z " /><path fill="rgb(49,37,18)" stroke="rgb(49,37,18)" stroke-width="1" opacity="0.9372549019607843" d="M 143.5 118 Q 145 125 150 128.5 L 146 125.5 Q 141.8 122.9 143.5 118 Z " /><path fill="rgb(49,37,18)" stroke="rgb(49,37,18)" stroke-width="1" opacity="0.9372549019607843" d="M 43.5 123 L 44.5 125 L 43.5 123 Z " /><path fill="rgb(49,37,18)" stroke="rgb(49,37,18)" stroke-width="1" opacity="0.9372549019607843" d="M 161.5 123 L 161 124.5 L 157.5 129 L 152.5 131 L 151.5 129 L 154.5 130 L 160 125.5 L 161.5 123 Z " /><path fill="rgb(49,37,18)" stroke="rgb(49,37,18)" stroke-width="1" opacity="0.9372549019607843" d="M 58.5 125 L 54.5 130 L 58.5 125 Z " /><path fill="rgb(49,37,18)" stroke="rgb(49,37,18)" stroke-width="1" opacity="0.9372549019607843" d="M 45.5 126 L 46.5 128 L 45.5 126 Z " /><path fill="rgb(49,37,18)" stroke="rgb(49,37,18)" stroke-width="1" opacity="0.9372549019607843" d="M 49.5 129 L 53 130.5 L 50.5 131 L 49.5 129 Z " /><path fill="rgb(49,37,18)" stroke="rgb(49,37,18)" stroke-width="1" opacity="0.9372549019607843" d="M 41.5 131 L 43.5 134 L 41 132.5 L 40.5 138 L 40 132.5 L 41.5 131 Z " /><path fill="rgb(49,37,18)" stroke="rgb(49,37,18)" stroke-width="1" opacity="0.9372549019607843" d="M 61.5 131 Q 64.5 132.5 63 138.5 L 62 138.5 L 61.5 132 L 52.5 138 L 52.5 137 L 61.5 131 Z " /><path fill="rgb(49,37,18)" stroke="rgb(49,37,18)" stroke-width="1" opacity="0.9372549019607843" d="M 143.5 131 L 153 137.5 L 151.5 138 L 143.5 132 L 142.5 139 L 142 132.5 L 143.5 131 Z " /><path fill="rgb(49,37,18)" stroke="rgb(49,37,18)" stroke-width="1" opacity="0.9372549019607843" d="M 163.5 131 Q 166.3 132.3 165 137.5 L 164 137.5 L 163.5 132 L 158.5 136 L 160.5 133 L 163.5 131 Z " /><path fill="rgb(49,37,18)" stroke="rgb(49,37,18)" stroke-width="1" opacity="0.9372549019607843" d="M 170.5 132 L 171 137.5 L 170 137.5 L 170.5 132 Z " /><path fill="rgb(49,37,18)" stroke="rgb(49,37,18)" stroke-width="1" opacity="0.9372549019607843" d="M 45.5 134 L 51 137.5 L 49.5 138 L 45.5 134 Z " /><path fill="rgb(49,37,18)" stroke="rgb(49,37,18)" stroke-width="1" opacity="0.9372549019607843" d="M 156.5 136 L 155.5 138 L 154 137.5 L 156.5 136 Z " /><path fill="rgb(49,37,18)" stroke="rgb(49,37,18)" stroke-width="1" opacity="0.9372549019607843" d="M 143.5 140 L 146.5 145 L 160.5 145 L 161.5 144 L 160.5 146 L 146.5 146 L 144 143.5 L 143.5 140 Z " /><path fill="rgb(49,37,18)" stroke="rgb(49,37,18)" stroke-width="1" opacity="0.9372549019607843" d="M 42.5 142 L 44.5 145 L 58.5 145 L 60.5 143 L 60 144.5 L 59.5 146 L 44.5 146 Q 40.9 144.9 42.5 142 Z " /><path fill="rgb(49,37,18)" stroke="rgb(49,37,18)" stroke-width="1" opacity="0.9372549019607843" d="M 36.5 144 L 37 145.5 L 35 146.5 L 36.5 144 Z " /><path fill="rgb(49,37,18)" stroke="rgb(49,37,18)" stroke-width="1" opacity="0.9372549019607843" d="M 168.5 144 L 170 146.5 L 168 145.5 L 168.5 144 Z " /><path fill="rgb(49,37,18)" stroke="rgb(49,37,18)" stroke-width="1" opacity="0.9372549019607843" d="M 36.5 152 L 66.5 152 L 68 153.5 L 66.5 153 L 36.5 153 L 36 154.5 L 35 156.5 L 36 159 L 38 159.5 L 36.5 160 L 34 155.5 L 36.5 152 Z " /><path fill="rgb(49,37,18)" stroke="rgb(49,37,18)" stroke-width="1" opacity="0.9372549019607843" d="M 138.5 152 L 141 152.5 L 137.5 154 L 138.5 152 Z " /><path fill="rgb(49,37,18)" stroke="rgb(49,37,18)" stroke-width="1" opacity="0.9372549019607843" d="M 167.5 152 L 170 153.5 L 169.5 155 L 169 153 L 167.5 152 Z " /><path fill="rgb(49,37,18)" stroke="rgb(49,37,18)" stroke-width="1" opacity="0.9372549019607843" d="M 136.5 155 L 138 159 L 168 159.5 L 138.5 160 Q 134.8 158.2 136.5 155 Z " /><path fill="rgb(49,37,18)" stroke="rgb(49,37,18)" stroke-width="1" opacity="0.9372549019607843" d="M 67.5 158 L 66.5 160 L 65 159.5 L 67.5 158 Z " /><path fill="rgb(49,37,18)" stroke="rgb(49,37,18)" stroke-width="1" opacity="0.9372549019607843" d="M 171.5 164 L 170.5 166 L 171.5 164 Z " /><path fill="rgb(49,37,18)" stroke="rgb(49,37,18)" stroke-width="1" opacity="0.9372549019607843" d="M 41.5 166 L 61.5 166 L 63 167.5 Q 64.3 178.3 58.5 182 L 60 179.5 Q 63.1 174.9 62 167 L 41.5 167 Q 40.4 167.1 41 172.5 L 40 172.5 Q 38.8 167.3 41.5 166 Z " /><path fill="rgb(49,37,18)" stroke="rgb(49,37,18)" stroke-width="1" opacity="0.9372549019607843" d="M 143.5 166 L 163.5 166 L 165 167.5 L 164.5 173 L 164 167 L 143.5 167 Q 142.3 167.3 143 173.5 L 142 173.5 Q 140.5 167.5 143.5 166 Z " /><path fill="rgb(49,37,18)" stroke="rgb(49,37,18)" stroke-width="1" opacity="0.9372549019607843" d="M 34.5 167 L 35 172.5 L 34 172.5 L 34.5 167 Z " /><path fill="rgb(49,37,18)" stroke="rgb(49,37,18)" stroke-width="1" opacity="0.9372549019607843" d="M 170.5 167 L 171 172.5 L 170 172.5 L 170.5 167 Z " /><path fill="rgb(49,37,18)" stroke="rgb(49,37,18)" stroke-width="1" opacity="0.9372549019607843" d="M 163.5 174 L 164 176.5 L 155.5 187 L 161 180.5 L 163.5 174 Z " /><path fill="rgb(49,37,18)" stroke="rgb(49,37,18)" stroke-width="1" opacity="0.9372549019607843" d="M 41.5 175 Q 43.9 182.6 50 186.5 L 43 180.5 L 41.5 175 Z " /><path fill="rgb(49,37,18)" stroke="rgb(49,37,18)" stroke-width="1" opacity="0.9372549019607843" d="M 145.5 180 L 151.5 187 L 145.5 180 Z " /><path fill="rgb(49,37,18)" stroke="rgb(49,37,18)" stroke-width="1" opacity="0.9372549019607843" d="M 57.5 183 L 55.5 186 L 51.5 188 L 51.5 187 L 57.5 183 Z " /><path fill="rgb(49,37,18)" stroke="rgb(49,37,18)" stroke-width="1" opacity="0.9372549019607843" d="M 64.5 184 L 63.5 186 L 64.5 184 Z " /><path fill="rgb(49,37,18)" stroke="rgb(49,37,18)" stroke-width="1" opacity="0.9372549019607843" d="M 141.5 185 L 143.5 188 L 141.5 185 Z " /><path fill="rgb(49,37,18)" stroke="rgb(49,37,18)" stroke-width="1" opacity="0.9372549019607843" d="M 40.5 186 L 41.5 188 L 40.5 186 Z " /><path fill="rgb(49,37,18)" stroke="rgb(49,37,18)" stroke-width="1" opacity="0.9372549019607843" d="M 164.5 186 L 161.5 190 L 164.5 186 Z " /><path fill="rgb(49,37,18)" stroke="rgb(49,37,18)" stroke-width="1" opacity="0.9372549019607843" d="M 58.5 190 L 57.5 192 L 58.5 190 Z " /><path fill="rgb(49,37,18)" stroke="rgb(49,37,18)" stroke-width="1" opacity="0.9372549019607843" d="M 158.5 191 L 157.5 193 L 158.5 191 Z " /></svg>