<svg width="200" height="200" version="1.1" xmlns="http://www.w3.org/2000/svg" desc="Created with imagetracer.js version 1.2.6" ><path fill="rgb(211,211,211)" stroke="rgb(211,211,211)" stroke-width="1" opacity="0.9647058823529412" d="M 38.5 10 L 55.5 10 L 57 11.5 Q 56.3 13.8 58.5 13 L 64 20.5 L 64 35.5 L 61 37 L 61 43.5 L 73 56.5 L 69 58 Q 70.1 60.7 67.5 60 L 54.5 74 L 52 74 Q 53.1 71.3 50.5 72 L 40.5 62 L 38 62 Q 39.1 64.7 36.5 64 L 32.5 67 L 17.5 67 L 8 59.5 L 6 54.5 L 6 43.5 L 15.5 33 Q 18.2 30.2 24.5 31 L 27 28.5 L 31 15 Q 34 16 33 13 L 35.5 13 L 38.5 10 Z " /><path fill="rgb(0,0,0)" stroke="rgb(0,0,0)" stroke-width="1" opacity="0" d="M 0 0 L 200 0 L 200 200 L 0 200 L 0 0 Z M 36 9 L 36 11 L 32 12 L 27 20 L 27 26 L 25 28 L 23 28 L 23 30 L 16 30 L 16 32 L 13 32 Q 14 35 12 34 L 6 40 L 6 50 L 5 51 L 7 62 L 16 68 L 35 68 L 35 66 L 39 66 Q 38 63 41 64 L 47 71 Q 49 70 48 73 Q 49 76 53 75 L 53 88 L 61 97 Q 63 96 62 99 L 69 104 L 70 107 Q 69 110 72 109 L 72 113 L 74 114 L 74 146 L 76 146 Q 74 155 79 160 Q 78 163 81 162 Q 82 170 89 174 Q 91 173 90 176 L 92 176 L 96 181 Q 98 180 97 183 L 110 188 L 112 188 Q 115 191 123 190 L 125 192 L 139 192 L 140 190 L 150 190 Q 149 187 155 188 L 155 186 L 160 185 Q 163 186 162 183 Q 165 184 167 181 L 169 181 L 171 177 L 176 174 Q 175 171 178 172 L 178 170 L 180 170 L 180 168 L 185 161 L 185 158 L 187 158 L 187 152 L 189 152 L 191 143 L 190 119 L 189 114 L 187 112 Q 189 106 185 107 Q 186 104 183 103 Q 184 99 181 100 L 181 98 L 178 93 L 177 93 L 168 84 L 165 83 Q 161 84 162 81 L 158 81 L 158 79 L 149 76 Q 143 78 144 74 L 125 74 L 123 76 L 113 76 L 112 74 L 107 73 Q 104 74 105 72 L 98 66 L 95 61 Q 92 62 93 59 Q 88 60 87 55 L 76 55 L 62 42 L 63 40 Q 62 37 65 38 L 65 19 L 63 15 L 58 9 L 36 9 Z " /><path fill="rgb(211,139,68)" stroke="rgb(211,139,68)" stroke-width="1" opacity="0.8117647058823529" d="M 73 56 L 84.5 56 L 85 58 L 86.5 58 L 92 61 L 92 63 L 94 63 L 94 65 Q 96.7 63.9 96 66.5 L 99 68 L 99 70 L 101 70 Q 99.9 72.7 102.5 72 Q 104 76.3 110 75 L 110.5 77 L 124.5 77 L 126.5 75 L 140.5 75 L 145.5 76 L 147.5 78 L 152 78 Q 150.7 81.3 155.5 80 L 163 83 L 163 85 L 166 85 Q 164.9 87.7 167.5 87 L 172 90 L 172 92 Q 174.7 90.9 174 93.5 L 181 100.5 L 184 109 L 186 109 L 186 114.5 Q 189.3 113.5 188 119.5 L 190 122.5 L 190 142.5 Q 186.5 144.2 188 150 Q 184.3 148.7 186 154.5 Q 182.5 156.7 183 162 L 179 164 L 179 166.5 L 174 173 L 172 173 Q 173.1 175.7 170.5 175 L 165.5 180 L 163 180 L 163 182 Q 158.9 180.7 160 184 L 156 184 Q 157.3 187 153.5 186 Q 148.7 190.2 138.5 189 L 136.5 191 L 126.5 191 Q 124.8 188.3 118.5 190 L 116.5 188 L 111.5 188 L 98 181 L 98 179 L 96 179 Q 97.1 176.3 94.5 177 L 89 170 L 87 170 L 87 168 Q 84.3 169.1 85 166.5 L 80 159.5 L 80 156 Q 76.7 157.3 78 152.5 L 76 150.5 Q 77 143.5 74 140.5 L 74 129.5 L 75 128.5 L 75 111.5 Q 72.3 110.4 73 107 Q 70 108.3 71 104.5 L 68 100 L 66 100 Q 67.1 97.3 64.5 98 L 55 87.5 Q 52 84.5 53 77.5 L 55.5 73 Q 58.3 74.3 56 75.5 L 55 83.5 L 57 88.5 L 66.5 98 Q 68.8 97.3 68 99.5 L 75 108.5 L 77 115.5 L 77 122.5 L 76 123.5 L 76 140.5 Q 79.2 143.8 78 151.5 L 86 166.5 L 89.5 170 Q 91.8 169.3 91 171.5 L 96 175 L 96 177 L 98 177 Q 96.9 179.7 99.5 179 L 106.5 184 L 110 184 Q 108.9 187.5 116.5 186 L 119.5 188 L 136.5 189 L 139.5 187 L 146.5 187 L 156 184 L 156 182 L 160 182 Q 158.8 179 162.5 180 L 170 175 L 170 173 L 172 173 L 172 171 Q 174.7 172.1 174 169.5 L 177 168 L 179 162 Q 182 163.3 181 159.5 L 186 149.5 L 186 145.5 L 188 143.5 L 188 121.5 L 186 119.5 L 184 109.5 L 179 101.5 L 179 99 L 177 99 Q 178.1 96.3 175.5 97 L 172 92 L 170 92 Q 171.1 89.3 168.5 90 Q 167.2 86.3 163 87 Q 164.3 84 160.5 85 L 151.5 80 L 147.5 80 L 141.5 77 L 126.5 77 L 119.5 79 L 111.5 79 Q 110.5 76 105.5 77 L 99 72 L 99 70 Q 96.3 71.1 97 68.5 L 94 67 L 94 65 L 92 65 Q 93.1 62.3 90.5 63 L 85 60 L 85 58 L 73.5 58 L 73 56 Z " /><path fill="rgb(210,135,62)" stroke="rgb(210,135,62)" stroke-width="1" opacity="0.996078431372549" d="M 78.5 58 Q 83.8 56.8 85 59.5 L 83.5 59 Q 77.5 60.3 78.5 58 Z " /><path fill="rgb(210,135,62)" stroke="rgb(210,135,62)" stroke-width="1" opacity="0.996078431372549" d="M 86.5 60 L 89 61.5 L 86 62 L 86.5 60 Z " /><path fill="rgb(210,135,62)" stroke="rgb(210,135,62)" stroke-width="1" opacity="0.996078431372549" d="M 90.5 63 L 92 63 L 92 65 Q 94.7 63.9 94 66.5 L 90.5 63 Z " /><path fill="rgb(210,135,62)" stroke="rgb(210,135,62)" stroke-width="1" opacity="0.996078431372549" d="M 95.5 67 L 96.5 69 Q 93.7 69.7 95.5 67 Z " /><path fill="rgb(210,135,62)" stroke="rgb(210,135,62)" stroke-width="1" opacity="0.996078431372549" d="M 97.5 70 L 99 70 L 99 72 Q 101.7 70.9 101 73.5 L 97.5 70 Z " /><path fill="rgb(210,135,62)" stroke="rgb(210,135,62)" stroke-width="1" opacity="0.996078431372549" d="M 57.5 73 L 58 77 Q 54.5 75.9 56 83.5 L 55 83.5 Q 53.9 75.9 57.5 73 Z " /><path fill="rgb(210,135,62)" stroke="rgb(210,135,62)" stroke-width="1" opacity="0.996078431372549" d="M 102.5 74 L 105.5 77 L 109.5 77 Q 111.2 80.3 117 79.5 L 110.5 80 Q 109 76.8 104 78 Q 105 75 102 76 L 102.5 74 Z " /><path fill="rgb(210,135,62)" stroke="rgb(210,135,62)" stroke-width="1" opacity="0.996078431372549" d="M 126 77 L 141.5 77 L 143 78.5 L 141.5 79 L 140.5 78 L 127.5 78 L 126 78.5 L 126 77 Z " /><path fill="rgb(210,135,62)" stroke="rgb(210,135,62)" stroke-width="1" opacity="0.996078431372549" d="M 146.5 79 L 150 80.5 L 146 81 L 146.5 79 Z " /><path fill="rgb(210,135,62)" stroke="rgb(210,135,62)" stroke-width="1" opacity="0.996078431372549" d="M 151.5 80 L 152 82 L 156 82 L 156 83.5 L 154.5 83 L 151 81.5 L 151.5 80 Z " /><path fill="rgb(210,135,62)" stroke="rgb(210,135,62)" stroke-width="1" opacity="0.996078431372549" d="M 158.5 84 L 163 85 Q 161.8 88 165.5 87 L 168 90.5 L 167 90.5 L 165.5 88 L 158.5 85 L 158.5 84 Z " /><path fill="rgb(210,135,62)" stroke="rgb(210,135,62)" stroke-width="1" opacity="0.996078431372549" d="M 56.5 85 Q 59.1 84.2 58 87.5 L 57 87.5 L 56.5 85 Z " /><path fill="rgb(210,135,62)" stroke="rgb(210,135,62)" stroke-width="1" opacity="0.996078431372549" d="M 143 86 Q 151.7 84.5 155 88 L 157 91.5 L 157 99.5 L 153.5 104 L 143.5 105 L 139 102 L 139 90.5 Q 141.8 91.1 141 88 L 143 88 L 143 86 Z M 146 88 L 140 93 L 140 99 L 143 103 L 152 103 L 154 99 L 156 99 L 156 94 L 154 90 Q 152 87 146 88 Z " /><path fill="rgb(210,135,62)" stroke="rgb(210,135,62)" stroke-width="1" opacity="0.996078431372549" d="M 58.5 89 L 61.5 91 L 63 94 Q 65.7 92.9 65 95.5 L 58.5 89 Z " /><path fill="rgb(210,135,62)" stroke="rgb(210,135,62)" stroke-width="1" opacity="0.996078431372549" d="M 169.5 91 L 172.5 95 L 169 93 L 169.5 91 Z " /><path fill="rgb(210,135,62)" stroke="rgb(210,135,62)" stroke-width="1" opacity="0.996078431372549" d="M 174.5 96 L 177.5 100 L 174 98 L 174.5 96 Z " /><path fill="rgb(210,135,62)" stroke="rgb(210,135,62)" stroke-width="1" opacity="0.996078431372549" d="M 68.5 98 L 69.5 100 Q 66.7 100.7 68.5 98 Z " /><path fill="rgb(210,135,62)" stroke="rgb(210,135,62)" stroke-width="1" opacity="0.996078431372549" d="M 70.5 101 L 72 101 L 72 103 Q 74.7 101.9 74 104.5 L 70.5 101 Z " /><path fill="rgb(210,135,62)" stroke="rgb(210,135,62)" stroke-width="1" opacity="0.996078431372549" d="M 178.5 101 L 179.5 103 Q 176.7 103.7 178.5 101 Z " /><path fill="rgb(210,135,62)" stroke="rgb(210,135,62)" stroke-width="1" opacity="0.996078431372549" d="M 180.5 104 L 182 106.5 L 180 107 L 180.5 104 Z " /><path fill="rgb(210,135,62)" stroke="rgb(210,135,62)" stroke-width="1" opacity="0.996078431372549" d="M 73.5 106 L 76 107.5 L 77 111.5 L 75 110.5 L 73.5 106 Z " /><path fill="rgb(210,135,62)" stroke="rgb(210,135,62)" stroke-width="1" opacity="0.996078431372549" d="M 183.5 110 Q 183.3 114.3 186 115.5 L 184.5 116 Q 181.6 114.6 183.5 110 Z " /><path fill="rgb(210,135,62)" stroke="rgb(210,135,62)" stroke-width="1" opacity="0.996078431372549" d="M 138.5 111 L 143.5 111 Q 144.6 113.8 148 113 L 148 123 Q 144.9 122.3 145.5 125 L 136 125 Q 136.8 121.9 134 122.5 L 134 114 L 138.5 111 Z M 138 113 Q 139 116 136 115 L 135 118 L 136 121 Q 135 123 138 122 L 138 124 L 144 124 Q 148 123 147 117 Q 145 112 138 113 Z " /><path fill="rgb(210,135,62)" stroke="rgb(210,135,62)" stroke-width="1" opacity="0.996078431372549" d="M 159 114 L 173.5 114 L 174 116 L 176 116 Q 174.9 118.7 177.5 118 L 180 120.5 L 180 124.5 L 182 128.5 Q 179.2 130.5 180 135 L 178 135 L 178 138 Q 175 137 176 140 L 173.5 140 L 171.5 142 L 161.5 142 L 154 136.5 L 152 130.5 L 152 125.5 L 153 120.5 L 155.5 118 Q 158.1 118.7 157 116 L 159 116 L 159 114 Z M 163 115 L 156 121 Q 157 123 154 122 L 154 133 L 156 135 Q 155 137 158 136 L 158 138 L 166 141 L 172 140 L 174 138 Q 176 139 175 136 L 177 136 L 179 133 L 179 123 L 177 122 L 177 121 L 171 115 L 163 115 Z " /><path fill="rgb(210,135,62)" stroke="rgb(210,135,62)" stroke-width="1" opacity="0.996078431372549" d="M 185.5 117 L 187 120.5 L 185 121 L 185.5 117 Z " /><path fill="rgb(210,135,62)" stroke="rgb(210,135,62)" stroke-width="1" opacity="0.996078431372549" d="M 76.5 123 L 77 140.5 L 76 140.5 L 76.5 123 Z " /><path fill="rgb(210,135,62)" stroke="rgb(210,135,62)" stroke-width="1" opacity="0.996078431372549" d="M 187.5 125 L 188 141.5 L 187 141.5 L 187.5 125 Z " /><path fill="rgb(210,135,62)" stroke="rgb(210,135,62)" stroke-width="1" opacity="0.996078431372549" d="M 77.5 143 L 79 143.5 L 79 150.5 L 78 150.5 Q 78.5 144.5 77.5 143 Z " /><path fill="rgb(210,135,62)" stroke="rgb(210,135,62)" stroke-width="1" opacity="0.996078431372549" d="M 185 144 L 187 144.5 L 182.5 156 L 182 154.5 L 185 148.5 L 185 144 Z " /><path fill="rgb(210,135,62)" stroke="rgb(210,135,62)" stroke-width="1" opacity="0.996078431372549" d="M 79.5 152 Q 82.1 151.2 81 154.5 L 84 159.5 L 82 160 L 79.5 152 Z " /><path fill="rgb(210,135,62)" stroke="rgb(210,135,62)" stroke-width="1" opacity="0.996078431372549" d="M 180 158 L 182 158.5 L 180 159.5 L 180 158 Z " /><path fill="rgb(210,135,62)" stroke="rgb(210,135,62)" stroke-width="1" opacity="0.996078431372549" d="M 178 161 L 180 161.5 L 176.5 167 L 176 164.5 L 178 161 Z " /><path fill="rgb(210,135,62)" stroke="rgb(210,135,62)" stroke-width="1" opacity="0.996078431372549" d="M 84.5 162 Q 87.1 161.2 86 164.5 L 85 164.5 L 84.5 162 Z " /><path fill="rgb(210,135,62)" stroke="rgb(210,135,62)" stroke-width="1" opacity="0.996078431372549" d="M 87.5 166 L 88 168 L 91 169.5 L 89.5 170 Q 85.9 168.9 87.5 166 Z " /><path fill="rgb(210,135,62)" stroke="rgb(210,135,62)" stroke-width="1" opacity="0.996078431372549" d="M 173.5 169 L 174 171 L 172 171 L 172 173 L 170 173 Q 171.1 175.7 168.5 175 L 169 173.5 L 169 172 L 171 172 Q 169.9 169.3 172.5 170 L 173.5 169 Z " /><path fill="rgb(210,135,62)" stroke="rgb(210,135,62)" stroke-width="1" opacity="0.996078431372549" d="M 91.5 171 Q 93.8 170.3 93 172.5 L 94.5 175 L 91.5 171 Z " /><path fill="rgb(210,135,62)" stroke="rgb(210,135,62)" stroke-width="1" opacity="0.996078431372549" d="M 96.5 175 L 99.5 179 Q 97.3 179.8 98 177.5 L 96.5 175 Z " /><path fill="rgb(210,135,62)" stroke="rgb(210,135,62)" stroke-width="1" opacity="0.996078431372549" d="M 162 177 L 166 177.5 L 163 178 L 163 180 Q 159.2 178.5 160 181.5 L 159 181.5 L 159 179 Q 163.1 180.3 162 177 Z " /><path fill="rgb(210,135,62)" stroke="rgb(210,135,62)" stroke-width="1" opacity="0.996078431372549" d="M 102.5 180 L 111.5 185 L 118 185 L 117.5 187 L 116.5 186 L 110 186 Q 111.3 182.7 106.5 184 L 102.5 180 Z " /><path fill="rgb(210,135,62)" stroke="rgb(210,135,62)" stroke-width="1" opacity="0.996078431372549" d="M 155 181 L 158 181.5 L 152.5 185 L 152 183 Q 156.1 184.3 155 181 Z " /><path fill="rgb(210,135,62)" stroke="rgb(210,135,62)" stroke-width="1" opacity="0.996078431372549" d="M 146.5 185 L 148 185.5 Q 147 188 142.5 187 L 142.5 186 L 146.5 185 Z " /><path fill="rgb(210,135,62)" stroke="rgb(210,135,62)" stroke-width="1" opacity="0.996078431372549" d="M 119.5 187 L 123 187.5 L 119.5 188 L 119.5 187 Z " /><path fill="rgb(210,135,62)" stroke="rgb(210,135,62)" stroke-width="1" opacity="0.996078431372549" d="M 126.5 187 L 127.5 188 L 135.5 188 L 138.5 187 L 138.5 188 L 136.5 189 L 126 189 L 126.5 187 Z " /><path fill="rgb(211,136,62)" stroke="rgb(211,136,62)" stroke-width="1" opacity="1" d="M 69 58 L 72.5 59 L 75.5 58 L 83.5 59 L 85 58.5 L 84.5 60 Q 87.1 59.3 86 62 L 90 62 L 90 63.5 L 95 67 L 95 69 Q 97.7 67.9 97 70.5 Q 99.5 75.3 102 73.5 L 102 76 Q 105 75 104 78 L 108.5 78 Q 110 81.5 116.5 80 L 123.5 78 L 127.5 78 L 140.5 78 L 142.5 79 L 146 78 Q 144.3 82.5 149.5 81 L 151 80.5 L 151.5 82 L 153 81.5 L 152.5 83 L 155.5 84 L 158 83 Q 156.9 85.7 159.5 85 L 167 89.5 L 167.5 91 L 169.5 90 L 169 91.5 Q 168.3 93.8 170.5 93 L 172 92.5 Q 169.8 93.8 172.5 95 L 174 95 Q 172.5 98.8 175.5 98 L 177 97.5 Q 174.8 98.7 177.5 100 L 179 99.5 L 178 103 L 180 103 L 180 107 L 182 107 Q 180.9 109.7 183.5 109 L 183 110.5 Q 182 115 184.5 116 L 186 116.5 L 185 121 Q 189.5 119.3 188 124.5 L 187 125.5 L 187 141.5 L 188 144 Q 183.1 142.2 185 148.5 L 183 150.5 L 182 155.5 Q 184.3 156.8 181.5 158 Q 179.3 157.3 180 159.5 L 181 161.5 L 179.5 161 Q 177.3 160.3 178 162.5 L 178.5 164 Q 177.3 161.8 176 164.5 L 177 167.5 L 171 170 L 171 172 Q 168.3 170.9 169 173.5 L 166.5 177 L 162 177 Q 163.1 180.3 159 179 L 159 181.5 L 157.5 181 Q 154.2 179.9 155 182.5 L 155.5 184 L 152 183 Q 153.1 185.7 150.5 185 L 148.5 186 L 146.5 185 L 135.5 188 L 127.5 188 L 122.5 187 Q 116.5 188.3 117.5 185 L 111.5 185 L 102.5 180 Q 101.2 182.2 100 179.5 L 97.5 176 L 96 176.5 L 96.5 175 L 93 172.5 L 91 169.5 L 88 168 L 87.5 166 L 86 166.5 Q 87.9 161.1 84.5 162 L 83 158.5 L 81 152 L 78 151.5 L 79 150.5 L 79 143 L 77 142.5 L 77 113.5 L 76 110.5 Q 76.8 106.8 74.5 106 L 73 105.5 L 74 103 Q 71 104 72 101 L 69.5 101 L 68.5 98 Q 66.3 98.8 67 96.5 L 65 96.5 L 65 94 Q 62.3 95.1 63 92.5 L 60 91 Q 61.3 88 57.5 89 L 58 87.5 L 58 85 L 56 84.5 L 56 77 Q 59.3 78.3 58 73.5 L 56 73.5 L 57 70.5 L 67.5 60 Q 70.1 60.7 69 58 Z M 143 86 L 143 88 L 141 88 Q 142 91 139 91 L 139 102 L 144 105 L 154 104 L 157 100 L 157 92 L 155 88 Q 152 85 143 86 Z M 139 111 L 134 114 L 134 123 Q 137 122 136 125 L 146 125 Q 145 122 148 123 L 148 113 Q 145 114 144 111 L 139 111 Z M 159 114 L 159 116 L 157 116 Q 158 119 156 118 L 153 121 L 152 126 L 152 131 L 154 137 L 162 142 L 172 142 L 174 140 L 176 140 Q 175 137 178 138 L 178 135 L 180 135 Q 179 131 182 129 L 180 125 L 180 121 L 178 118 Q 175 119 176 116 L 174 116 L 174 114 L 159 114 Z " /><path fill="rgb(167,106,81)" stroke="rgb(167,106,81)" stroke-width="1" opacity="1" d="M 145.5 88 Q 151.7 87.4 154 90 L 156 93.5 L 156 99 L 154 99 L 152 103 L 143 103 L 140 98.5 L 140 92.5 L 145.5 88 Z " /><path fill="rgb(167,106,81)" stroke="rgb(167,106,81)" stroke-width="1" opacity="1" d="M 138 113 Q 145.2 111.5 147 116.5 Q 147.7 122.7 143.5 124 L 138 124 L 138 122 Q 135.3 123.1 136 120.5 L 135 117.5 L 136 115 Q 139 116 138 113 Z " /><path fill="rgb(167,106,81)" stroke="rgb(167,106,81)" stroke-width="1" opacity="1" d="M 162.5 115 L 170.5 115 L 177 120.5 L 177 122 L 179 122.5 L 179 132.5 L 177 136 L 175 136 Q 176.1 138.7 173.5 138 L 171.5 140 L 165.5 141 L 158 138 L 158 136 Q 155.3 137.1 156 134.5 L 154 132.5 L 154 122 Q 156.7 123.1 156 120.5 L 162.5 115 Z " /><path fill="rgb(214,192,164)" stroke="rgb(214,192,164)" stroke-width="1" opacity="0.20784313725490197" d="M 36 9 L 57.5 9 L 63 14.5 L 65 18.5 L 65 38 Q 62.3 36.9 63 39.5 L 62 41.5 L 75.5 55 L 86.5 55 Q 87.9 59.8 93 59 Q 91.9 61.7 94.5 61 L 98 66 L 105 71.5 Q 104.3 73.8 106.5 73 L 112 74 L 112.5 76 L 122.5 76 L 124.5 74 L 144 74 Q 145.3 77 141.5 76 L 140.5 75 L 126.5 75 L 124.5 77 L 110 77 Q 111.3 73.3 105.5 75 L 101 72 L 101 70 L 99 70 Q 100.1 67.3 97.5 68 L 96 65 L 94 65 L 94 63 L 92 63 Q 93.1 60.3 90.5 61 L 85 58 L 84.5 56 L 73.5 56 L 61 43.5 L 61 37 L 64 35.5 L 64 20.5 L 58.5 13 Q 56.3 13.8 57 11.5 L 55.5 10 L 38.5 10 Q 37.3 13.7 33 13 Q 34 16 31 15 L 31 17.5 Q 27.2 19.7 28 26.5 L 24.5 31 Q 18.2 30.2 15.5 33 L 7 41.5 L 6.5 43 L 6 39.5 L 13 34 Q 11.9 30.7 16 32 L 16 30 L 22.5 30 L 23 28 L 24.5 28 L 27 25.5 L 27 19.5 L 31.5 12 L 36 11 L 36 9 Z " /><path fill="rgb(214,192,164)" stroke="rgb(214,192,164)" stroke-width="1" opacity="0.20784313725490197" d="M 5.5 50 Q 6.1 60.9 13.5 65 L 17.5 67 L 32.5 67 L 38 64 Q 36.8 61 40.5 62 L 50.5 72 L 52 72 Q 50.8 75 54.5 74 L 54 75.5 L 53.5 77 L 53 75 Q 49.2 75.8 48 72.5 Q 48.8 70.3 46.5 71 L 41 64 Q 38 63 39 66 L 35 66 L 34.5 68 L 15.5 68 L 7 61.5 L 5 54.5 L 5.5 50 Z " /><path fill="rgb(214,192,164)" stroke="rgb(214,192,164)" stroke-width="1" opacity="0.20784313725490197" d="M 146.5 76 L 153.5 77 Q 154.6 79.8 158 79 Q 159.1 81.7 156.5 81 L 152 80 Q 153.3 76.3 147.5 78 L 146.5 76 Z " /><path fill="rgb(214,192,164)" stroke="rgb(214,192,164)" stroke-width="1" opacity="0.20784313725490197" d="M 159.5 81 Q 163.3 80 162 83 L 159.5 81 Z " /><path fill="rgb(214,192,164)" stroke="rgb(214,192,164)" stroke-width="1" opacity="0.20784313725490197" d="M 163 83 L 167.5 84 L 176.5 93 L 178 93 L 181 97.5 L 181 100 Q 184 98.8 183 102.5 Q 185.8 103.6 185 107 Q 188.7 105.7 187 111.5 L 189 113.5 L 190 121.5 L 189 121.5 L 188 115 L 186 115 L 186 109.5 L 184 109 L 184 106.5 L 174 92 L 172 92 Q 173.1 89.3 170.5 90 L 166 87 L 166 85 Q 161.9 86.3 163 83 Z " /><path fill="rgb(214,192,164)" stroke="rgb(214,192,164)" stroke-width="1" opacity="0.20784313725490197" d="M 53.5 84 Q 57.1 92.9 64.5 98 L 66 98 L 66 100 Q 68.7 98.9 68 101.5 Q 71.7 102.8 71 107 Q 74 105.8 73 109.5 L 75 111.5 L 75 128.5 L 74 128.5 L 74 113.5 L 72 113 L 72 109 Q 69 110.3 70 106.5 L 69 104 L 62 98.5 Q 62.8 96.3 60.5 97 Q 53.3 93.1 53.5 84 Z " /><path fill="rgb(214,192,164)" stroke="rgb(214,192,164)" stroke-width="1" opacity="0.20784313725490197" d="M 190.5 130 L 191 142.5 L 189 152 L 187 152 L 187 157.5 L 185 158 L 185 160.5 L 180 167.5 L 180 170 L 178 170 L 178 172 Q 175.3 170.9 176 173.5 L 171 177 L 169 181 L 166.5 181 Q 165.4 183.8 162 183 Q 163.3 186 159.5 185 L 156 186 L 156 184 L 160 184 L 160 182 L 163 182 Q 161.8 179 165.5 180 L 172 175 L 172 173 Q 174.7 174.1 174 171.5 L 179 166.5 L 179 164 L 183 162 L 183 159.5 L 186 154.5 L 186 150 Q 190 151.4 188 144.5 L 190 142.5 L 190.5 130 Z " /><path fill="rgb(214,192,164)" stroke="rgb(214,192,164)" stroke-width="1" opacity="0.20784313725490197" d="M 74.5 141 L 76 146 Q 71.9 147.2 74.5 141 Z " /><path fill="rgb(214,192,164)" stroke="rgb(214,192,164)" stroke-width="1" opacity="0.20784313725490197" d="M 76.5 151 Q 79 152.2 78 156 Q 81.3 154.7 80 159.5 L 85 168 L 87 168 L 87 170 Q 89.7 168.9 89 171.5 L 96 177 L 96 179 L 98 179 Q 96.9 181.7 99.5 181 L 111 187.5 L 110.5 189 L 99.5 183 L 97 183 Q 98.1 180.3 95.5 181 L 92 176 L 90 176 Q 91.1 173.3 88.5 174 Q 82 170.2 81 162 Q 78 163.3 79 159.5 Q 74.8 156.7 76.5 151 Z " /><path fill="rgb(214,192,164)" stroke="rgb(214,192,164)" stroke-width="1" opacity="0.20784313725490197" d="M 153.5 186 Q 156.1 185.3 155 188 L 151 187.5 L 153.5 186 Z " /><path fill="rgb(214,192,164)" stroke="rgb(214,192,164)" stroke-width="1" opacity="0.20784313725490197" d="M 113.5 188 Q 117.3 187.3 118 189.5 L 115.5 190 L 113.5 188 Z " /><path fill="rgb(214,192,164)" stroke="rgb(214,192,164)" stroke-width="1" opacity="0.20784313725490197" d="M 147.5 188 Q 151.3 187 150 190 L 139.5 190 L 138.5 192 L 124.5 192 L 123.5 190 Q 128.2 192.3 136.5 191 L 138.5 189 L 146.5 189 L 147.5 188 Z " /></svg>