<svg width="200" height="200" version="1.1" xmlns="http://www.w3.org/2000/svg" desc="Created with imagetracer.js version 1.2.6" ><path fill="rgb(0,0,0)" stroke="rgb(0,0,0)" stroke-width="1" opacity="0" d="M 0 0 L 200 0 L 200 200 L 0 200 L 0 0 Z M 176 78 L 175 79 L 119 79 L 117 81 Q 113 80 114 83 L 110 83 L 107 88 Q 104 87 105 90 L 102 90 L 102 92 L 94 92 L 93 89 Q 90 90 91 87 L 89 87 L 89 85 Q 85 86 84 82 L 80 82 L 78 80 L 34 80 L 33 81 L 8 81 Q 9 84 6 86 L 6 94 L 13 101 L 13 130 L 15 130 Q 14 137 18 140 Q 17 143 20 142 L 22 146 L 22 147 L 25 147 Q 24 150 27 149 L 27 151 Q 32 151 35 154 L 42 154 L 44 156 L 63 156 L 63 154 L 71 154 L 73 152 Q 76 153 75 150 L 79 150 L 81 147 Q 83 148 82 145 L 84 145 L 84 143 L 86 143 L 89 139 Q 87 133 91 134 Q 90 131 93 130 L 93 110 L 94 109 L 94 106 L 98 104 L 98 102 L 102 104 L 103 107 L 103 125 L 105 125 L 105 132 Q 108 131 107 136 L 109 136 Q 109 143 115 146 Q 117 145 116 148 L 119 150 L 123 150 L 127 153 L 135 153 L 135 155 L 154 155 L 155 153 L 163 153 Q 162 150 168 151 L 168 149 Q 172 150 174 146 Q 176 147 175 144 L 177 144 L 180 139 L 180 136 Q 183 136 182 131 L 184 131 L 184 122 L 186 122 L 186 99 L 187 98 Q 186 95 189 96 L 189 94 L 191 94 L 191 82 L 188 78 L 176 78 Z " /><path fill="rgb(142,132,151)" stroke="rgb(142,132,151)" stroke-width="1" opacity="0.22745098039215686" d="M 175.5 78 L 187 78.5 L 185 79 L 184.5 81 L 183.5 80 L 124.5 80 L 122 81.5 Q 122.8 79.3 120.5 80 L 120.5 79 L 174.5 79 L 175.5 78 Z " /><path fill="rgb(142,132,151)" stroke="rgb(142,132,151)" stroke-width="1" opacity="0.22745098039215686" d="M 118.5 79 L 118 80.5 L 116.5 84 L 116 81.5 L 118.5 79 Z " /><path fill="rgb(142,132,151)" stroke="rgb(142,132,151)" stroke-width="1" opacity="0.22745098039215686" d="M 33.5 80 L 76 80.5 L 73.5 82 L 72.5 81 L 49.5 81 L 48.5 82 L 14.5 82 L 13.5 83 L 12.5 81 L 32.5 81 L 33.5 80 Z " /><path fill="rgb(142,132,151)" stroke="rgb(142,132,151)" stroke-width="1" opacity="0.22745098039215686" d="M 78.5 81 L 79.5 83 L 76 82.5 L 78.5 81 Z " /><path fill="rgb(142,132,151)" stroke="rgb(142,132,151)" stroke-width="1" opacity="0.22745098039215686" d="M 190.5 81 L 191 90.5 L 189.5 90 L 188 89.5 Q 190.7 88.8 190 84.5 L 188.5 82 L 190 82.5 L 190.5 81 Z " /><path fill="rgb(142,132,151)" stroke="rgb(142,132,151)" stroke-width="1" opacity="0.22745098039215686" d="M 84.5 83 L 85.5 85 L 84.5 83 Z " /><path fill="rgb(142,132,151)" stroke="rgb(142,132,151)" stroke-width="1" opacity="0.22745098039215686" d="M 113.5 83 L 114.5 85 L 113.5 83 Z " /><path fill="rgb(142,132,151)" stroke="rgb(142,132,151)" stroke-width="1" opacity="0.22745098039215686" d="M 7.5 84 Q 10.9 83.1 9 88.5 L 8 88.5 L 7.5 84 Z " /><path fill="rgb(142,132,151)" stroke="rgb(142,132,151)" stroke-width="1" opacity="0.22745098039215686" d="M 6.5 86 L 7 90.5 L 6 90.5 L 6.5 86 Z " /><path fill="rgb(142,132,151)" stroke="rgb(142,132,151)" stroke-width="1" opacity="0.22745098039215686" d="M 111.5 86 L 113 86.5 L 111 87 Q 112.1 89.7 109.5 89 L 107 90.5 L 111.5 86 Z " /><path fill="rgb(142,132,151)" stroke="rgb(142,132,151)" stroke-width="1" opacity="0.22745098039215686" d="M 90.5 91 L 91.5 93 L 90.5 91 Z " /><path fill="rgb(142,132,151)" stroke="rgb(142,132,151)" stroke-width="1" opacity="0.22745098039215686" d="M 94.5 92 L 97 92.5 L 94.5 93 L 94.5 92 Z " /><path fill="rgb(142,132,151)" stroke="rgb(142,132,151)" stroke-width="1" opacity="0.22745098039215686" d="M 99.5 92 L 103 93.5 L 101.5 93 Q 98.5 93.5 99.5 92 Z " /><path fill="rgb(142,132,151)" stroke="rgb(142,132,151)" stroke-width="1" opacity="0.22745098039215686" d="M 9.5 93 L 11.5 96 Q 9.3 96.8 10 94.5 L 9.5 93 Z " /><path fill="rgb(142,132,151)" stroke="rgb(142,132,151)" stroke-width="1" opacity="0.22745098039215686" d="M 184.5 95 L 186 98.5 L 186 119.5 L 185 119.5 L 185 98.5 L 184.5 95 Z " /><path fill="rgb(142,132,151)" stroke="rgb(142,132,151)" stroke-width="1" opacity="0.22745098039215686" d="M 13.5 99 L 14 118.5 L 15 119.5 L 13.5 124 L 13.5 99 Z " /><path fill="rgb(142,132,151)" stroke="rgb(142,132,151)" stroke-width="1" opacity="0.22745098039215686" d="M 100.5 100 L 104 102.5 L 102.5 102 L 97 101.5 L 100.5 100 Z " /><path fill="rgb(142,132,151)" stroke="rgb(142,132,151)" stroke-width="1" opacity="0.22745098039215686" d="M 102.5 105 L 106 106.5 L 105.5 117 L 104.5 107 L 103.5 122 L 103 106.5 L 102.5 105 Z " /><path fill="rgb(142,132,151)" stroke="rgb(142,132,151)" stroke-width="1" opacity="0.22745098039215686" d="M 92.5 109 L 93 129.5 L 90 131.5 Q 89.3 128.9 92 130 L 92 126.5 L 90 123.5 L 92 119.5 L 92.5 109 Z " /><path fill="rgb(142,132,151)" stroke="rgb(142,132,151)" stroke-width="1" opacity="0.22745098039215686" d="M 183.5 122 L 184 128.5 L 183 128.5 L 182.5 127 L 181 127.5 L 183.5 122 Z " /><path fill="rgb(142,132,151)" stroke="rgb(142,132,151)" stroke-width="1" opacity="0.22745098039215686" d="M 105.5 125 L 108 129.5 L 107 129.5 L 106.5 128 L 105.5 130 L 105.5 125 Z " /><path fill="rgb(142,132,151)" stroke="rgb(142,132,151)" stroke-width="1" opacity="0.22745098039215686" d="M 15.5 127 L 17 130.5 L 15 131 L 15.5 127 Z " /><path fill="rgb(142,132,151)" stroke="rgb(142,132,151)" stroke-width="1" opacity="0.22745098039215686" d="M 88.5 130 L 89 135 L 87 134.5 L 88.5 130 Z " /><path fill="rgb(142,132,151)" stroke="rgb(142,132,151)" stroke-width="1" opacity="0.22745098039215686" d="M 108.5 131 L 109 133 L 107 132.5 L 108.5 131 Z " /><path fill="rgb(142,132,151)" stroke="rgb(142,132,151)" stroke-width="1" opacity="0.22745098039215686" d="M 180.5 131 Q 182.8 130.3 182 132.5 L 180.5 131 Z " /><path fill="rgb(142,132,151)" stroke="rgb(142,132,151)" stroke-width="1" opacity="0.22745098039215686" d="M 179.5 133 L 180 136 L 178 135.5 L 179.5 133 Z " /><path fill="rgb(142,132,151)" stroke="rgb(142,132,151)" stroke-width="1" opacity="0.22745098039215686" d="M 17.5 134 L 18.5 136 L 16.5 137 L 16 135.5 L 17.5 134 Z " /><path fill="rgb(142,132,151)" stroke="rgb(142,132,151)" stroke-width="1" opacity="0.22745098039215686" d="M 109.5 134 L 111 136.5 L 109.5 136 L 108 135.5 L 109.5 134 Z " /><path fill="rgb(142,132,151)" stroke="rgb(142,132,151)" stroke-width="1" opacity="0.22745098039215686" d="M 20.5 138 L 22 140.5 L 20 139.5 L 20.5 138 Z " /><path fill="rgb(142,132,151)" stroke="rgb(142,132,151)" stroke-width="1" opacity="0.22745098039215686" d="M 111.5 138 L 113 138.5 L 111 139 L 112 142.5 L 110 141.5 L 111.5 138 Z " /><path fill="rgb(142,132,151)" stroke="rgb(142,132,151)" stroke-width="1" opacity="0.22745098039215686" d="M 84.5 139 L 83.5 141 L 84.5 139 Z " /><path fill="rgb(142,132,151)" stroke="rgb(142,132,151)" stroke-width="1" opacity="0.22745098039215686" d="M 22.5 142 L 21.5 144 L 22.5 142 Z " /><path fill="rgb(142,132,151)" stroke="rgb(142,132,151)" stroke-width="1" opacity="0.22745098039215686" d="M 81 142 L 84 143.5 L 83.5 145 L 82.5 143 L 81 143.5 L 81 142 Z " /><path fill="rgb(142,132,151)" stroke="rgb(142,132,151)" stroke-width="1" opacity="0.22745098039215686" d="M 79.5 144 L 81 146.5 L 79 145.5 L 79.5 144 Z " /><path fill="rgb(142,132,151)" stroke="rgb(142,132,151)" stroke-width="1" opacity="0.22745098039215686" d="M 77.5 146 L 79 148.5 L 77.5 148 Q 74.9 147.3 76 150 L 73.5 150 L 74.5 148 L 77.5 146 Z " /><path fill="rgb(142,132,151)" stroke="rgb(142,132,151)" stroke-width="1" opacity="0.22745098039215686" d="M 121.5 147 L 123 150 Q 118.4 151.3 117 148.5 L 118.5 149 L 122 148.5 L 121.5 147 Z " /><path fill="rgb(142,132,151)" stroke="rgb(142,132,151)" stroke-width="1" opacity="0.22745098039215686" d="M 29 148 Q 32.3 146.7 31 151.5 L 29.5 151 L 28 150.5 L 29 148 Z " /><path fill="rgb(142,132,151)" stroke="rgb(142,132,151)" stroke-width="1" opacity="0.22745098039215686" d="M 125.5 149 Q 128.5 150.5 125.5 152 L 125.5 149 Z " /><path fill="rgb(142,132,151)" stroke="rgb(142,132,151)" stroke-width="1" opacity="0.22745098039215686" d="M 163.5 149 L 164 150.5 Q 162.8 153.3 161.5 151 L 160 151.5 L 160.5 153 L 153 152.5 Q 159.9 152.4 163.5 149 Z " /><path fill="rgb(142,132,151)" stroke="rgb(142,132,151)" stroke-width="1" opacity="0.22745098039215686" d="M 33.5 150 L 36 151.5 L 33 152 L 33.5 150 Z " /><path fill="rgb(142,132,151)" stroke="rgb(142,132,151)" stroke-width="1" opacity="0.22745098039215686" d="M 71 151 L 73 151.5 L 71 152.5 L 71 151 Z " /><path fill="rgb(142,132,151)" stroke="rgb(142,132,151)" stroke-width="1" opacity="0.22745098039215686" d="M 130.5 151 L 134 152.5 L 129.5 153 L 130.5 151 Z " /><path fill="rgb(142,132,151)" stroke="rgb(142,132,151)" stroke-width="1" opacity="0.22745098039215686" d="M 38.5 152 L 45 153.5 L 42.5 155 L 37 153.5 L 38.5 152 Z " /><path fill="rgb(142,132,151)" stroke="rgb(142,132,151)" stroke-width="1" opacity="0.22745098039215686" d="M 66.5 152 L 70 153.5 L 62.5 154 L 62.5 153 L 66.5 152 Z " /><path fill="rgb(142,132,151)" stroke="rgb(142,132,151)" stroke-width="1" opacity="0.22745098039215686" d="M 135.5 152 L 139 152.5 L 135.5 153 L 135.5 152 Z " /><path fill="rgb(142,132,151)" stroke="rgb(142,132,151)" stroke-width="1" opacity="0.22745098039215686" d="M 138.5 154 L 154 154.5 L 138.5 155 L 138.5 154 Z " /><path fill="rgb(142,132,151)" stroke="rgb(142,132,151)" stroke-width="1" opacity="0.22745098039215686" d="M 45.5 155 L 61 155.5 L 45.5 156 L 45.5 155 Z " /><path fill="rgb(215,209,218)" stroke="rgb(215,209,218)" stroke-width="1" opacity="0.37254901960784315" d="M 187.5 78 Q 190.5 78.5 190 82.5 L 187.5 81 L 185 79.5 L 187.5 78 Z " /><path fill="rgb(215,209,218)" stroke="rgb(215,209,218)" stroke-width="1" opacity="0.37254901960784315" d="M 119.5 79 L 122 80.5 L 118 82 L 119.5 79 Z " /><path fill="rgb(215,209,218)" stroke="rgb(215,209,218)" stroke-width="1" opacity="0.37254901960784315" d="M 76.5 80 Q 79.1 79.3 78 82 L 75 81.5 L 76.5 80 Z " /><path fill="rgb(215,209,218)" stroke="rgb(215,209,218)" stroke-width="1" opacity="0.37254901960784315" d="M 8 81 Q 13.2 79.3 12 83 L 8 84 L 8 81 Z " /><path fill="rgb(215,209,218)" stroke="rgb(215,209,218)" stroke-width="1" opacity="0.37254901960784315" d="M 115.5 81 L 116 84 Q 109.4 86 105.5 92 L 102 93 L 103.5 90 L 105 90.5 L 105.5 88 L 107 88.5 L 109.5 85 L 111 84.5 L 110.5 83 L 113.5 84 L 115.5 81 Z " /><path fill="rgb(215,209,218)" stroke="rgb(215,209,218)" stroke-width="1" opacity="0.37254901960784315" d="M 80.5 82 Q 84.9 80.5 84 83.5 Q 85.2 86 89 85 L 89 87 L 91 87 Q 89.9 89.7 92.5 89 L 94 93 L 83 86 Q 84.1 83.3 81.5 84 L 80.5 82 Z " /><path fill="rgb(215,209,218)" stroke="rgb(215,209,218)" stroke-width="1" opacity="0.37254901960784315" d="M 6.5 85 Q 9.5 84.1 8 88.5 L 7 88.5 L 6.5 85 Z " /><path fill="rgb(215,209,218)" stroke="rgb(215,209,218)" stroke-width="1" opacity="0.37254901960784315" d="M 7.5 90 L 10 96 L 14 98.5 L 12 99.5 Q 12.8 97.3 10.5 98 L 8 94 Q 5 95.3 6 91.5 L 7.5 90 Z " /><path fill="rgb(215,209,218)" stroke="rgb(215,209,218)" stroke-width="1" opacity="0.37254901960784315" d="M 189.5 90 L 191 94 L 189 94 L 189 96 L 187 96 Q 187.8 99.1 185 98.5 L 185 119.5 L 186 122 L 183 121.5 L 183 99.5 L 189.5 90 Z " /><path fill="rgb(215,209,218)" stroke="rgb(215,209,218)" stroke-width="1" opacity="0.37254901960784315" d="M 97 92 L 100 93.5 L 97 94 L 97 92 Z " /><path fill="rgb(215,209,218)" stroke="rgb(215,209,218)" stroke-width="1" opacity="0.37254901960784315" d="M 96.5 101 L 98 102.5 L 94 106.5 Q 95 110.3 92 109 L 92 105.5 L 94 102 L 96.5 101 Z " /><path fill="rgb(215,209,218)" stroke="rgb(215,209,218)" stroke-width="1" opacity="0.37254901960784315" d="M 100 102 L 104 103.5 Q 104.8 105.8 102.5 105 L 100 104 L 100 102 Z " /><path fill="rgb(215,209,218)" stroke="rgb(215,209,218)" stroke-width="1" opacity="0.37254901960784315" d="M 104.5 119 L 106 125 L 103 124.5 L 104 121.5 L 104.5 119 Z " /><path fill="rgb(215,209,218)" stroke="rgb(215,209,218)" stroke-width="1" opacity="0.37254901960784315" d="M 13 124 L 15 124 L 15 130 L 13 130 L 13 124 Z " /><path fill="rgb(215,209,218)" stroke="rgb(215,209,218)" stroke-width="1" opacity="0.37254901960784315" d="M 91.5 126 L 92 130 Q 89 131.3 90 127.5 L 91.5 126 Z " /><path fill="rgb(215,209,218)" stroke="rgb(215,209,218)" stroke-width="1" opacity="0.37254901960784315" d="M 182.5 127 L 184 129.5 L 181 131 L 182.5 127 Z " /><path fill="rgb(215,209,218)" stroke="rgb(215,209,218)" stroke-width="1" opacity="0.37254901960784315" d="M 106.5 128 L 108 132 Q 104.3 133.5 105 130.5 L 106.5 128 Z " /><path fill="rgb(215,209,218)" stroke="rgb(215,209,218)" stroke-width="1" opacity="0.37254901960784315" d="M 15 131 Q 18.7 129.8 17 135 Q 13.3 136.2 15 131 Z " /><path fill="rgb(215,209,218)" stroke="rgb(215,209,218)" stroke-width="1" opacity="0.37254901960784315" d="M 89.5 131 Q 92.5 132.5 89.5 134 L 89.5 131 Z " /><path fill="rgb(215,209,218)" stroke="rgb(215,209,218)" stroke-width="1" opacity="0.37254901960784315" d="M 180.5 132 Q 183.5 133.5 180.5 135 L 180.5 132 Z " /><path fill="rgb(215,209,218)" stroke="rgb(215,209,218)" stroke-width="1" opacity="0.37254901960784315" d="M 107 133 Q 109.7 131.9 109 134.5 L 107 135.5 L 107 133 Z " /><path fill="rgb(215,209,218)" stroke="rgb(215,209,218)" stroke-width="1" opacity="0.37254901960784315" d="M 87 135 Q 90.3 133.7 89 138.5 L 85 141.5 L 85.5 143 Q 82.2 141.9 83 144.5 L 81.5 147 L 80 146.5 Q 80.8 148.8 78.5 148 L 78.5 150 Q 74.8 151 76 148 L 78 148 L 78 146 L 80 146 Q 78.9 143.3 81.5 144 L 87 135 Z " /><path fill="rgb(215,209,218)" stroke="rgb(215,209,218)" stroke-width="1" opacity="0.37254901960784315" d="M 17.5 136 Q 19.8 135.3 19 137.5 L 22 143 L 24 143 L 24 145 L 26 145 Q 24.9 147.7 27.5 147 L 29 149.5 L 27 150.5 L 24.5 147 Q 21.2 148.1 22 145.5 L 20 142 Q 17 143.3 18 139.5 Q 14.3 137.8 17.5 136 Z " /><path fill="rgb(215,209,218)" stroke="rgb(215,209,218)" stroke-width="1" opacity="0.37254901960784315" d="M 109.5 136 L 113 142 L 115 142 Q 113.9 144.7 116.5 144 L 122 148.5 L 118.5 149 L 116 148 Q 117.1 145.3 114.5 146 Q 110.9 143.9 111 139 Q 107.5 140.1 109.5 136 Z " /><path fill="rgb(215,209,218)" stroke="rgb(215,209,218)" stroke-width="1" opacity="0.37254901960784315" d="M 178 136 Q 181.3 134.9 180 139 L 178 139.5 Q 180.5 141 177 142.5 L 175 145.5 L 173 145.5 Q 173.7 148.1 171 147 L 171 149 L 168 149 L 168 151 L 164 151 L 164 149 L 167 149 Q 165.9 146.3 168.5 147 L 172 145 L 172 143 L 176 141 L 176 138 Q 179 139 178 136 Z " /><path fill="rgb(215,209,218)" stroke="rgb(215,209,218)" stroke-width="1" opacity="0.37254901960784315" d="M 123 149 Q 126 147.8 125 151.5 L 123 150.5 L 123 149 Z " /><path fill="rgb(215,209,218)" stroke="rgb(215,209,218)" stroke-width="1" opacity="0.37254901960784315" d="M 31 150 Q 34 149 33 152 L 37 152 L 37 154 L 31 152 L 31 150 Z " /><path fill="rgb(215,209,218)" stroke="rgb(215,209,218)" stroke-width="1" opacity="0.37254901960784315" d="M 72.5 150 Q 76.3 149 75 152 L 72.5 150 Z " /><path fill="rgb(215,209,218)" stroke="rgb(215,209,218)" stroke-width="1" opacity="0.37254901960784315" d="M 69.5 151 Q 72.1 150.2 71 153.5 L 69.5 153 L 68 152.5 L 69.5 151 Z " /><path fill="rgb(215,209,218)" stroke="rgb(215,209,218)" stroke-width="1" opacity="0.37254901960784315" d="M 126 151 Q 130.1 149.7 129 153 Q 124.9 154.3 126 151 Z " /><path fill="rgb(215,209,218)" stroke="rgb(215,209,218)" stroke-width="1" opacity="0.37254901960784315" d="M 160.5 151 L 163 152.5 L 161.5 153 L 160.5 151 Z " /><path fill="rgb(215,209,218)" stroke="rgb(215,209,218)" stroke-width="1" opacity="0.37254901960784315" d="M 151.5 152 L 154 153.5 L 138.5 154 L 136.5 155 L 135.5 153 L 150.5 153 L 151.5 152 Z " /><path fill="rgb(215,209,218)" stroke="rgb(215,209,218)" stroke-width="1" opacity="0.37254901960784315" d="M 60.5 153 L 63 154.5 Q 63.8 156.8 61.5 156 L 60.5 155 L 45.5 155 L 43 156 L 43.5 154 L 59.5 154 L 60.5 153 Z " /><path fill="rgb(90,65,113)" stroke="rgb(90,65,113)" stroke-width="1" opacity="0.9647058823529412" d="M 124.5 80 L 183.5 80 L 188 81 L 190 84.5 L 190 87.5 L 186.5 93 Q 184.3 92.3 185 94.5 L 183 97.5 L 183 124.5 L 176 140 Q 173.3 138.9 174 141.5 L 171 143 L 171 145 L 169 145 Q 170.1 147.7 167.5 147 L 157.5 152 L 135.5 152 L 134.5 153 L 127.5 151 L 116 144 L 116 142 Q 113.3 143.1 114 140.5 L 113 138 Q 110 139.3 111 135.5 L 106 126.5 L 106 106.5 L 102.5 101 L 97.5 100 L 92 103 L 92 119.5 Q 88.8 123 90 130 Q 86.7 128.7 88 133.5 L 87 137 Q 84.3 135.9 85 138.5 L 83 142 L 81 142 L 81 144 L 79 144 Q 80.1 146.7 77.5 146 L 65.5 153 L 39.5 153 L 31 150 L 31 148 L 28 148 Q 29.1 145.3 26.5 146 L 24 145 L 21 138 Q 18 139.3 19 135.5 L 17 133.5 L 15 126.5 L 14 97 Q 11.3 98.1 12 95.5 L 8 89.5 L 9 85.5 L 11.5 83 L 14.5 82 L 72.5 81 L 85 86 Q 83.9 88.7 86.5 88 L 88 91 L 98.5 95 L 106 93 Q 104.9 90.3 107.5 91 L 111 89 L 111 87 L 113 87 Q 111.9 84.3 114.5 85 L 124.5 80 Z M 122 87 L 120 89 L 117 91 L 111 101 L 111 120 Q 114 122 113 128 L 116 133 Q 115 136 118 135 L 122 140 Q 124 139 123 142 L 137 147 L 152 147 L 155 145 L 160 145 Q 159 142 164 143 L 174 132 L 176 127 L 176 119 L 177 118 Q 179 99 173 90 L 168 87 L 122 87 Z M 32 88 L 30 90 L 27 90 Q 28 93 26 92 L 21 100 L 21 126 Q 23 135 29 140 Q 28 142 31 141 L 31 143 L 46 148 L 56 148 L 63 146 L 68 146 L 75 141 Q 77 142 76 139 L 78 139 L 85 126 L 85 98 L 83 96 L 83 93 Q 80 94 81 91 L 76 88 L 32 88 Z " /><path fill="rgb(125,176,225)" stroke="rgb(125,176,225)" stroke-width="1" opacity="0.984313725490196" d="M 121.5 87 L 129 87.5 L 120.5 89 L 118.5 91 L 118 89 L 121.5 87 Z " /><path fill="rgb(125,176,225)" stroke="rgb(125,176,225)" stroke-width="1" opacity="0.984313725490196" d="M 164.5 87 L 167.5 87 L 173 90 L 176 96.5 L 174 95.5 L 170.5 90 L 164.5 88 L 164.5 87 Z " /><path fill="rgb(125,176,225)" stroke="rgb(125,176,225)" stroke-width="1" opacity="0.984313725490196" d="M 31.5 88 L 56 88.5 L 33.5 89 L 27.5 92 L 27 90 Q 30.4 90.8 31.5 88 Z " /><path fill="rgb(125,176,225)" stroke="rgb(125,176,225)" stroke-width="1" opacity="0.984313725490196" d="M 72.5 88 L 75.5 88 L 81 91 L 83 95 Q 80.3 96.1 81 93.5 L 78 92 Q 79.3 88.3 73.5 90 L 72.5 88 Z " /><path fill="rgb(125,176,225)" stroke="rgb(125,176,225)" stroke-width="1" opacity="0.984313725490196" d="M 116.5 91 L 117 93 L 115 93 Q 116.5 96.8 113.5 96 L 114 94.5 L 116.5 91 Z " /><path fill="rgb(125,176,225)" stroke="rgb(125,176,225)" stroke-width="1" opacity="0.984313725490196" d="M 25.5 92 L 26 93.5 L 23 97.5 Q 23.8 102.3 21.5 104 L 21 99.5 L 25.5 92 Z " /><path fill="rgb(125,176,225)" stroke="rgb(125,176,225)" stroke-width="1" opacity="0.984313725490196" d="M 94.5 93 L 99 94.5 L 97.5 95 L 94.5 94 L 94.5 93 Z " /><path fill="rgb(125,176,225)" stroke="rgb(125,176,225)" stroke-width="1" opacity="0.984313725490196" d="M 83.5 96 L 85 97.5 L 85 125.5 L 83 126.5 L 84 122.5 L 84 99.5 L 83.5 96 Z " /><path fill="rgb(125,176,225)" stroke="rgb(125,176,225)" stroke-width="1" opacity="0.984313725490196" d="M 112.5 98 L 113 122.5 L 112 122.5 L 111 119.5 L 111 100.5 L 112.5 98 Z " /><path fill="rgb(125,176,225)" stroke="rgb(125,176,225)" stroke-width="1" opacity="0.984313725490196" d="M 97.5 100 L 100 100.5 L 97.5 101 L 97.5 100 Z " /><path fill="rgb(125,176,225)" stroke="rgb(125,176,225)" stroke-width="1" opacity="0.984313725490196" d="M 176.5 101 L 177 117.5 L 176 117.5 L 176.5 101 Z " /><path fill="rgb(125,176,225)" stroke="rgb(125,176,225)" stroke-width="1" opacity="0.984313725490196" d="M 92 103 L 94 103.5 L 92 104.5 L 92 103 Z " /><path fill="rgb(125,176,225)" stroke="rgb(125,176,225)" stroke-width="1" opacity="0.984313725490196" d="M 104.5 107 L 106 121.5 L 105 121.5 Q 102.4 115.9 104.5 107 Z " /><path fill="rgb(125,176,225)" stroke="rgb(125,176,225)" stroke-width="1" opacity="0.984313725490196" d="M 14.5 120 L 15 123.5 L 14 123.5 L 14.5 120 Z " /><path fill="rgb(125,176,225)" stroke="rgb(125,176,225)" stroke-width="1" opacity="0.984313725490196" d="M 21.5 120 L 24 130.5 L 22 129.5 L 21.5 120 Z " /><path fill="rgb(125,176,225)" stroke="rgb(125,176,225)" stroke-width="1" opacity="0.984313725490196" d="M 174 125 Q 176.7 123.9 176 126.5 Q 171.8 136.8 163.5 143 Q 160.9 143.7 162 141 L 165 141 Q 163.9 138.3 166.5 139 L 174 128.5 L 174 125 Z " /><path fill="rgb(125,176,225)" stroke="rgb(125,176,225)" stroke-width="1" opacity="0.984313725490196" d="M 113 126 Q 116.3 124.7 115 129.5 L 114 129.5 L 113 126 Z " /><path fill="rgb(125,176,225)" stroke="rgb(125,176,225)" stroke-width="1" opacity="0.984313725490196" d="M 82.5 128 L 83 130.5 L 81 131.5 L 82.5 128 Z " /><path fill="rgb(125,176,225)" stroke="rgb(125,176,225)" stroke-width="1" opacity="0.984313725490196" d="M 115.5 131 Q 117.8 130.3 117 132.5 L 120 138 Q 122.7 136.9 122 139.5 L 118 136.5 Q 118.7 133.9 116 135 L 116 132.5 L 115.5 131 Z " /><path fill="rgb(125,176,225)" stroke="rgb(125,176,225)" stroke-width="1" opacity="0.984313725490196" d="M 24.5 132 L 26 134.5 L 24 133.5 L 24.5 132 Z " /><path fill="rgb(125,176,225)" stroke="rgb(125,176,225)" stroke-width="1" opacity="0.984313725490196" d="M 79 133 L 81 133.5 L 78 139 L 76 139 Q 77.1 141.7 74.5 141 L 66.5 146 L 67.5 144 L 76 139 L 76 137 Q 78.7 138.1 78 135.5 L 79 133 Z " /><path fill="rgb(125,176,225)" stroke="rgb(125,176,225)" stroke-width="1" opacity="0.984313725490196" d="M 26.5 136 Q 28.8 135.3 28 137.5 L 31 139 L 31 141 L 33 141 Q 31.9 143.7 34.5 143 L 39 145.5 L 37.5 145 L 34.5 145 L 31 143 L 31 141 Q 28.3 142.1 29 139.5 L 26.5 136 Z " /><path fill="rgb(125,176,225)" stroke="rgb(125,176,225)" stroke-width="1" opacity="0.984313725490196" d="M 123.5 140 L 131 144.5 L 129.5 145 L 123 142 L 123.5 140 Z " /><path fill="rgb(125,176,225)" stroke="rgb(125,176,225)" stroke-width="1" opacity="0.984313725490196" d="M 158 143 Q 161 142 160 145 Q 157 146 158 143 Z " /><path fill="rgb(125,176,225)" stroke="rgb(125,176,225)" stroke-width="1" opacity="0.984313725490196" d="M 132.5 145 L 154 145.5 L 151.5 147 L 136.5 147 L 132.5 146 L 132.5 145 Z " /><path fill="rgb(125,176,225)" stroke="rgb(125,176,225)" stroke-width="1" opacity="0.984313725490196" d="M 41.5 146 L 62 146.5 L 55.5 148 L 45.5 148 L 41.5 147 L 41.5 146 Z " /><path fill="rgb(125,176,225)" stroke="rgb(125,176,225)" stroke-width="1" opacity="0.984313725490196" d="M 119.5 146 L 120.5 148 L 119.5 146 Z " /><path fill="rgb(125,176,225)" stroke="rgb(125,176,225)" stroke-width="1" opacity="0.984313725490196" d="M 139.5 152 L 151 152.5 L 139.5 153 L 139.5 152 Z " /><path fill="rgb(125,176,225)" stroke="rgb(125,176,225)" stroke-width="1" opacity="0.984313725490196" d="M 45.5 153 L 60 153.5 L 45.5 154 L 45.5 153 Z " /><path fill="rgb(131,203,254)" stroke="rgb(131,203,254)" stroke-width="1" opacity="1" d="M 129.5 87 L 163.5 87 L 166 88.5 L 163.5 89 L 162.5 88 L 129.5 88 L 129.5 87 Z " /><path fill="rgb(131,203,254)" stroke="rgb(131,203,254)" stroke-width="1" opacity="1" d="M 56.5 88 L 71.5 88 L 73 89.5 L 71.5 89 L 56.5 89 L 56.5 88 Z " /><path fill="rgb(131,203,254)" stroke="rgb(131,203,254)" stroke-width="1" opacity="1" d="M 125.5 88 L 126 90 L 121 90 Q 122.1 92.7 119.5 92 L 117 93 Q 118 96 115 95 L 115 93 L 117 93 Q 115.9 90.3 118.5 91 L 120.5 89 L 125.5 88 Z " /><path fill="rgb(131,203,254)" stroke="rgb(131,203,254)" stroke-width="1" opacity="1" d="M 33.5 89 Q 36.1 88.3 35 91 L 30 91 L 30 93 L 27 93 Q 28 96 25 95 L 25 98 L 23.5 98 L 24 96.5 L 26 92 L 33.5 89 Z " /><path fill="rgb(131,203,254)" stroke="rgb(131,203,254)" stroke-width="1" opacity="1" d="M 168.5 89 L 172 91.5 L 176 97.5 L 176 125 Q 172.7 123.7 174 128.5 L 172 129.5 L 173 124 L 175 123.5 L 175 98.5 Q 172.3 97.4 173 94 Q 170.3 95.1 171 92.5 L 168 91 L 168.5 89 Z " /><path fill="rgb(131,203,254)" stroke="rgb(131,203,254)" stroke-width="1" opacity="1" d="M 79.5 92 L 81 95 Q 84.3 93.7 83 98.5 L 84 100.5 L 82 99.5 L 82 96.5 Q 77.8 95.3 79.5 92 Z " /><path fill="rgb(131,203,254)" stroke="rgb(131,203,254)" stroke-width="1" opacity="1" d="M 113 96 L 115 96.5 L 114 97.5 L 114 124.5 L 114.5 126 L 113 125.5 L 113 96 Z " /><path fill="rgb(131,203,254)" stroke="rgb(131,203,254)" stroke-width="1" opacity="1" d="M 22.5 102 L 23 104.5 L 22 105.5 L 22 118.5 L 23 122.5 L 22 122.5 L 21 119.5 L 21 104.5 L 22.5 102 Z " /><path fill="rgb(131,203,254)" stroke="rgb(131,203,254)" stroke-width="1" opacity="1" d="M 82 122 L 84 122.5 L 81 133 Q 78.3 134.1 79 131.5 Q 82.9 128.5 82 122 Z " /><path fill="rgb(131,203,254)" stroke="rgb(131,203,254)" stroke-width="1" opacity="1" d="M 23.5 128 L 25 128 L 25 132 Q 28 130.8 27 134.5 L 27.5 136 Q 24.9 136.8 26 133.5 L 23.5 128 Z " /><path fill="rgb(131,203,254)" stroke="rgb(131,203,254)" stroke-width="1" opacity="1" d="M 115 129 Q 118 128 117 131 Q 114 132 115 129 Z " /><path fill="rgb(131,203,254)" stroke="rgb(131,203,254)" stroke-width="1" opacity="1" d="M 117.5 132 Q 121.5 132.5 121 137.5 L 120 137.5 L 117.5 132 Z " /><path fill="rgb(131,203,254)" stroke="rgb(131,203,254)" stroke-width="1" opacity="1" d="M 170.5 132 L 171 133.5 L 166.5 139 L 166 137 Q 169 138.3 168 134.5 L 170.5 132 Z " /><path fill="rgb(131,203,254)" stroke="rgb(131,203,254)" stroke-width="1" opacity="1" d="M 77 134 L 79 134.5 L 78 137 L 76 137 Q 77.1 139.7 74.5 139 L 72 140.5 L 75 136 Q 78 137 77 134 Z " /><path fill="rgb(131,203,254)" stroke="rgb(131,203,254)" stroke-width="1" opacity="1" d="M 28.5 137 Q 30.8 136.3 30 138.5 L 28.5 137 Z " /><path fill="rgb(131,203,254)" stroke="rgb(131,203,254)" stroke-width="1" opacity="1" d="M 122 138 L 128 141 L 127.5 143 L 122 140 L 122 138 Z " /><path fill="rgb(131,203,254)" stroke="rgb(131,203,254)" stroke-width="1" opacity="1" d="M 31.5 139 Q 32.8 142.8 37 142 Q 38.1 144.7 35.5 144 L 33 143 Q 34 140 31 141 L 31.5 139 Z " /><path fill="rgb(131,203,254)" stroke="rgb(131,203,254)" stroke-width="1" opacity="1" d="M 163 139 Q 166 138 165 141 Q 162 142 163 139 Z " /><path fill="rgb(131,203,254)" stroke="rgb(131,203,254)" stroke-width="1" opacity="1" d="M 161.5 141 L 162 143 L 158 142.5 L 161.5 141 Z " /><path fill="rgb(131,203,254)" stroke="rgb(131,203,254)" stroke-width="1" opacity="1" d="M 68.5 142 L 71 142.5 L 65.5 146 L 39.5 146 L 38.5 144 L 41.5 145 L 65 145 Q 63.8 142 67.5 143 L 68.5 142 Z " /><path fill="rgb(131,203,254)" stroke="rgb(131,203,254)" stroke-width="1" opacity="1" d="M 130.5 143 L 131.5 144 L 158 144.5 L 131.5 145 L 130.5 143 Z " /><path fill="rgb(131,203,255)" stroke="rgb(131,203,255)" stroke-width="1" opacity="1" d="M 126 88 L 162.5 88 L 168 89 Q 166.9 91.7 169.5 91 L 171 94 Q 174 92.8 173 96.5 L 175 98.5 L 175 124 Q 171.7 122.7 173 127.5 L 172 132 L 168 134.5 L 168 137 L 166 137 L 166 139 L 163 139 Q 164.1 141.7 161.5 141 L 158 142 L 157.5 144 L 131.5 144 L 128 143 Q 129.1 140.3 126.5 141 Q 125.3 137.3 121 138 L 121 135.5 Q 116.3 134.1 117 129 Q 113.7 130.3 115 125.5 L 114 124.5 L 114 97.5 L 115 95 L 117 95 Q 115.9 92.3 118.5 93 L 121 92 L 121 90 L 126 90 L 126 88 Z M 152 94 L 149 96 L 144 103 L 144 109 L 146 113 L 156 120 L 160 120 L 167 117 L 171 108 L 167 97 L 162 94 L 152 94 Z " /><path fill="rgb(131,203,255)" stroke="rgb(131,203,255)" stroke-width="1" opacity="1" d="M 35 89 L 71.5 89 L 77 90 L 77 92 Q 79.7 90.9 79 93.5 L 84 101.5 L 84 122 Q 80.3 120.7 82 126.5 L 79 134 L 77 134 L 77 136 Q 74.3 134.9 75 137.5 L 72 142 L 65 143 L 64.5 145 L 41.5 145 L 37 144 Q 38.3 141 34.5 142 L 30 139 L 30 137 Q 27.3 138.1 28 135.5 L 27 132 L 25 132 Q 26.3 126.7 23 127.5 L 23 119.5 L 22 118.5 L 22 105.5 L 23 104.5 L 23 98 L 25 98 L 25 95 Q 28 96 27 93 Q 31.3 94 30.5 91 L 35 91 L 35 89 Z M 61 95 L 58 97 L 53 105 L 55 115 L 65 121 L 69 121 L 76 118 L 79 109 L 78 107 L 78 103 L 76 102 L 76 100 L 73 97 L 71 97 L 71 95 L 61 95 Z " /><path fill="rgb(247,251,255)" stroke="rgb(247,251,255)" stroke-width="1" opacity="1" d="M 151.5 94 L 161.5 94 L 167 97 L 171 107.5 L 167 117 L 159.5 120 L 155.5 120 L 146 112.5 L 144 108.5 L 144 102.5 L 148.5 96 L 151.5 94 Z " /><path fill="rgb(247,251,255)" stroke="rgb(247,251,255)" stroke-width="1" opacity="1" d="M 60.5 95 L 70.5 95 L 71 97 L 72.5 97 L 76 99.5 L 76 102 L 78 102.5 L 78 106.5 L 79 108.5 L 76 118 L 68.5 121 L 64.5 121 L 55 114.5 L 53 104.5 L 57.5 97 L 60.5 95 Z " /></svg>