<svg width="200" height="200" version="1.1" xmlns="http://www.w3.org/2000/svg" desc="Created with imagetracer.js version 1.2.6" ><path fill="rgb(0,0,0)" stroke="rgb(0,0,0)" stroke-width="1" opacity="0" d="M 0 0 L 200 0 L 200 200 L 0 200 L 0 0 Z M 94 4 Q 95 7 92 6 L 92 10 L 90 10 L 89 14 L 89 17 Q 86 16 87 20 L 85 20 L 85 24 L 83 24 L 82 29 L 81 27 Q 75 27 72 22 Q 68 23 69 20 L 65 20 L 65 19 L 64 17 L 55 17 L 55 30 L 57 32 L 57 41 L 59 41 L 59 48 L 60 49 L 60 60 L 62 61 L 62 71 L 64 71 L 64 77 Q 59 79 60 75 L 58 75 L 51 70 L 48 70 L 46 66 Q 43 67 42 64 L 34 64 L 32 66 L 32 76 L 34 76 L 32 80 L 19 80 L 17 78 L 6 78 L 6 87 Q 10 89 9 94 L 13 97 Q 12 100 15 99 L 18 107 L 6 108 L 4 110 L 4 118 L 12 122 Q 14 121 13 124 L 16 124 L 25 131 Q 28 130 27 133 L 33 136 Q 35 135 34 138 L 37 138 L 45 145 Q 46 148 43 147 L 43 151 L 39 153 Q 40 157 36 159 L 36 168 L 44 168 L 44 166 L 49 165 L 53 165 Q 52 162 58 163 L 59 161 L 64 161 L 64 159 L 72 158 L 79 154 Q 84 156 83 152 L 89 152 L 89 153 L 89 193 Q 92 192 94 195 Q 101 197 104 193 L 106 193 Q 105 188 108 189 L 108 152 L 115 152 Q 114 156 119 154 L 119 156 L 124 156 L 130 159 Q 134 158 133 161 L 138 161 L 148 166 Q 153 165 153 168 L 161 168 L 161 161 Q 158 161 159 158 L 157 158 L 157 154 L 154 153 Q 155 150 152 151 Q 153 147 149 146 L 150 143 L 153 142 L 155 142 L 157 138 L 161 138 L 161 136 L 167 133 Q 169 134 168 131 L 171 131 L 171 129 Q 176 130 178 126 L 180 126 L 182 122 L 186 121 Q 188 122 187 119 Q 192 120 193 116 Q 194 110 192 108 L 177 107 L 178 105 Q 177 102 180 103 L 180 99 L 182 99 L 187 91 Q 186 88 189 89 L 189 80 L 188 78 L 178 78 L 177 80 L 164 80 L 161 78 L 161 76 L 163 76 L 163 65 L 160 62 Q 153 63 150 68 Q 146 67 147 70 L 145 71 L 142 71 L 140 75 L 136 75 Q 137 78 134 77 L 132 78 L 134 68 L 134 56 L 136 55 L 136 44 L 138 43 L 138 32 L 140 30 L 140 19 L 139 17 Q 129 16 126 21 L 126 22 L 122 22 L 122 24 L 113 28 L 108 20 Q 109 16 106 17 L 106 13 L 104 13 L 103 8 Q 101 2 94 4 Z " /><path fill="rgb(243,45,49)" stroke="rgb(243,45,49)" stroke-width="1" opacity="0.9803921568627451" d="M 93.5 66 L 101.5 66 L 105 68 L 107 72.5 L 107 123.5 L 108 124.5 L 106 125.5 L 106 74.5 L 103.5 69 Q 100.4 65.4 93 67 L 93 69 Q 90.3 67.9 91 70.5 L 89 71.5 L 93.5 66 Z " /><path fill="rgb(243,45,49)" stroke="rgb(243,45,49)" stroke-width="1" opacity="0.9803921568627451" d="M 88.5 74 L 89 126.5 L 88 126.5 L 87 124.5 L 88 123.5 L 88.5 74 Z " /><path fill="rgb(243,45,49)" stroke="rgb(243,45,49)" stroke-width="1" opacity="0.9803921568627451" d="M 47 107 L 55.5 107 L 67.5 114 L 70 114 Q 68.8 117 72.5 116 L 73.5 118 L 57.5 109 L 49.5 108 L 45 111.5 L 44 117.5 L 45 120 L 43 119.5 L 43 111 L 45 111 L 47 107 Z " /><path fill="rgb(243,45,49)" stroke="rgb(243,45,49)" stroke-width="1" opacity="0.9803921568627451" d="M 138.5 107 L 147.5 107 L 150 110.5 Q 153.8 112.3 152 119.5 L 150 124 L 142 127 L 142 125 L 146 125 Q 144.9 122.3 147.5 123 Q 152.5 121.5 151 113.5 L 147.5 109 L 141.5 108 L 125 116 L 125 114 L 128 114 Q 126.8 111 130.5 112 L 138.5 107 Z " /><path fill="rgb(243,45,49)" stroke="rgb(243,45,49)" stroke-width="1" opacity="0.9803921568627451" d="M 122.5 116 L 124 116.5 L 109 125 L 109 123 Q 113.1 124.3 112 121 L 116 121 Q 114.8 118 118.5 119 L 122.5 116 Z " /><path fill="rgb(243,45,49)" stroke="rgb(243,45,49)" stroke-width="1" opacity="0.9803921568627451" d="M 75.5 118 L 79 119 Q 77.8 122 81.5 121 L 82.5 123 L 75 120 L 75.5 118 Z " /><path fill="rgb(243,45,49)" stroke="rgb(243,45,49)" stroke-width="1" opacity="0.9803921568627451" d="M 45.5 121 L 49 123 Q 50.1 125.7 47.5 125 Q 43.9 123.9 45.5 121 Z " /><path fill="rgb(243,45,49)" stroke="rgb(243,45,49)" stroke-width="1" opacity="0.9803921568627451" d="M 84 123 Q 87 122 86 125 Q 83 126 84 123 Z " /><path fill="rgb(243,45,49)" stroke="rgb(243,45,49)" stroke-width="1" opacity="0.9803921568627451" d="M 50.5 125 Q 54.3 124 53 127 L 50.5 125 Z " /><path fill="rgb(243,45,49)" stroke="rgb(243,45,49)" stroke-width="1" opacity="0.9803921568627451" d="M 54 127 L 63 130 Q 61.8 133 65.5 132 L 66.5 134 L 57.5 129 L 54 129 L 54 127 Z " /><path fill="rgb(243,45,49)" stroke="rgb(243,45,49)" stroke-width="1" opacity="0.9803921568627451" d="M 139.5 127 Q 142.1 126.3 141 129 L 137 129 Q 138.3 132 134.5 131 L 128.5 134 L 129.5 132 L 139.5 127 Z " /><path fill="rgb(243,45,49)" stroke="rgb(243,45,49)" stroke-width="1" opacity="0.9803921568627451" d="M 68 134 L 71 135.5 L 68 136 L 68 134 Z " /><path fill="rgb(243,45,49)" stroke="rgb(243,45,49)" stroke-width="1" opacity="0.9803921568627451" d="M 125.5 134 Q 128.1 133.3 127 136 L 124 135.5 L 125.5 134 Z " /><path fill="rgb(243,45,49)" stroke="rgb(243,45,49)" stroke-width="1" opacity="0.9803921568627451" d="M 72 136 L 81 140.5 L 79.5 141 L 72 138 L 72 136 Z " /><path fill="rgb(243,45,49)" stroke="rgb(243,45,49)" stroke-width="1" opacity="0.9803921568627451" d="M 121.5 136 Q 124.1 135.3 123 138 L 114.5 141 L 115.5 139 L 121.5 136 Z " /><path fill="rgb(243,45,49)" stroke="rgb(243,45,49)" stroke-width="1" opacity="0.9803921568627451" d="M 82 141 L 85 142.5 L 82 143 L 82 141 Z " /><path fill="rgb(243,45,49)" stroke="rgb(243,45,49)" stroke-width="1" opacity="0.9803921568627451" d="M 111.5 141 Q 114.1 140.3 113 143 L 110 142.5 L 111.5 141 Z " /><path fill="rgb(243,45,49)" stroke="rgb(243,45,49)" stroke-width="1" opacity="0.9803921568627451" d="M 86 143 L 89 144.5 L 90 148.5 L 88.5 148 L 87 147.5 L 88 145 Q 85 146 86 143 Z " /><path fill="rgb(243,45,49)" stroke="rgb(243,45,49)" stroke-width="1" opacity="0.9803921568627451" d="M 107 143 Q 110 142 109 145 Q 106 143.8 107 147.5 L 106 147.5 L 107 143 Z " /><path fill="rgb(247,49,47)" stroke="rgb(247,49,47)" stroke-width="1" opacity="0.996078431372549" d="M 96.5 7 L 100 8.5 L 105 21 Q 108.3 19.7 107 24.5 L 111.5 32 L 114.5 32 L 118 30 Q 116.7 26.7 121.5 28 L 125.5 25 L 126 27 Q 123 26 124 29 L 120 29 L 120 31 L 117.5 31 L 115 32 Q 116.2 35.7 111 34 L 108 29.5 L 108 27 Q 105 28.3 106 24.5 L 104 22.5 L 101 13 L 99 13 L 99 9 L 97.5 9 L 96 13 L 94 13 L 94 17 Q 90.7 15.9 92 20 L 90 20 L 93 11 Q 96 12.3 95 8.5 L 96.5 7 Z " /><path fill="rgb(247,49,47)" stroke="rgb(247,49,47)" stroke-width="1" opacity="0.996078431372549" d="M 58 19 L 61 19 Q 59.8 22 63.5 21 Q 64.6 23.8 68 23 Q 69.1 25.7 66.5 25 L 59.5 20 L 59 26.5 Q 61.5 28 60 33.5 L 58 32.5 Q 59.5 25 57 21.5 L 58 19 Z " /><path fill="rgb(247,49,47)" stroke="rgb(247,49,47)" stroke-width="1" opacity="0.996078431372549" d="M 134.5 19 L 137 20.5 L 137 29.5 L 135 33.5 L 135 44.5 L 133.5 47 L 133 39.5 L 134 38.5 L 134 27 L 136 26.5 L 136 20 L 134 20 L 134 22 L 131 22 Q 132.1 24.7 129.5 24 L 127 25 L 127 23 L 130 23 Q 128.9 20.3 131.5 21 L 134.5 19 Z " /><path fill="rgb(247,49,47)" stroke="rgb(247,49,47)" stroke-width="1" opacity="0.996078431372549" d="M 88 21 Q 91 19.8 90 23.5 L 89 27 L 87 27 L 87 31 L 85.5 31 L 84 31.5 L 86 25 Q 89.7 26.2 88 21 Z " /><path fill="rgb(247,49,47)" stroke="rgb(247,49,47)" stroke-width="1" opacity="0.996078431372549" d="M 69.5 25 Q 71.6 28.9 77 28 Q 75.9 30.7 78.5 30 L 79.5 32 L 71 29 Q 72 26 69 27 L 69.5 25 Z " /><path fill="rgb(247,49,47)" stroke="rgb(247,49,47)" stroke-width="1" opacity="0.996078431372549" d="M 60 38 L 62 38 L 62 44.5 L 64 45.5 L 64 56.5 L 66 57.5 L 66 67.5 Q 68.2 68.8 67 73.5 L 66 73.5 L 60 38 Z " /><path fill="rgb(247,49,47)" stroke="rgb(247,49,47)" stroke-width="1" opacity="0.996078431372549" d="M 131 52 Q 135 50.6 133 57.5 L 129 78.5 L 130 83 Q 133 84 132 81 L 134.5 81 L 149.5 71 L 150 72.5 Q 148.8 75.8 145 75 Q 146.1 77.7 143.5 77 L 140 78 Q 141.2 81.7 136 80 L 134 84 L 130.5 84 Q 125.5 82.2 127 75 L 129 75 L 129 64.5 L 131 63.5 L 131 52 Z " /><path fill="rgb(247,49,47)" stroke="rgb(247,49,47)" stroke-width="1" opacity="0.996078431372549" d="M 158.5 65 Q 160.8 64.3 160 66.5 L 161 71.5 L 158 77.5 L 158 80.5 L 160.5 83 L 169.5 83 L 171.5 81 L 185.5 81 L 185.5 82 Q 178.5 80.5 179.5 84 L 160.5 84 Q 155 81.8 157 73 L 159 73 L 159 68 L 156 68 Q 157.1 70.7 154.5 70 L 151.5 71 L 152.5 69 L 155 69 Q 153.9 66.3 156.5 67 L 158.5 65 Z " /><path fill="rgb(247,49,47)" stroke="rgb(247,49,47)" stroke-width="1" opacity="0.996078431372549" d="M 35.5 66 Q 47.5 70 56 77.5 L 53 78 Q 54.1 75.3 51.5 76 L 48 75 L 48 73 L 44 73 L 44 71.5 Q 41.3 67.4 36 68 L 37 77.5 L 36 77.5 L 34 67.5 L 35.5 66 Z " /><path fill="rgb(247,49,47)" stroke="rgb(247,49,47)" stroke-width="1" opacity="0.996078431372549" d="M 91 66 L 93 66.5 L 89 69.5 Q 88.3 66.9 91 68 L 91 66 Z " /><path fill="rgb(247,49,47)" stroke="rgb(247,49,47)" stroke-width="1" opacity="0.996078431372549" d="M 102.5 66 Q 104.8 65.3 104 67.5 L 102.5 66 Z " /><path fill="rgb(247,49,47)" stroke="rgb(247,49,47)" stroke-width="1" opacity="0.996078431372549" d="M 88.5 71 L 89 73.5 L 88 74.5 L 88 123.5 L 86.5 125 L 86 123 L 82 121.5 L 83.5 122 L 86.5 123 L 87 73.5 L 88.5 71 Z " /><path fill="rgb(247,49,47)" stroke="rgb(247,49,47)" stroke-width="1" opacity="0.996078431372549" d="M 106.5 71 L 108 72.5 L 108 122.5 L 109 124.5 L 107 123.5 L 107 72.5 L 106.5 71 Z " /><path fill="rgb(247,49,47)" stroke="rgb(247,49,47)" stroke-width="1" opacity="0.996078431372549" d="M 67 77 L 69 77 L 69 82 Q 66 81 67 84 L 63.5 84 Q 62.1 79.3 57 80 L 57.5 78 L 61 79 Q 59.8 82 63.5 81 Q 65.2 84.8 67 81.5 L 67 77 Z " /><path fill="rgb(247,49,47)" stroke="rgb(247,49,47)" stroke-width="1" opacity="0.996078431372549" d="M 9.5 81 L 23.5 81 L 24.5 83 L 34.5 83 L 37 81.5 L 36 84 L 15.5 84 Q 14.1 80.7 9 82 Q 8 85 11 84 L 11 87 L 13 87 L 13 90.5 Q 16.8 91.8 16 96 L 20 98 L 20 100.5 Q 23.2 102.3 23 107.5 Q 21.1 111.8 14 110 L 13.5 112 L 7 112 L 7 115 L 14 117 L 14 119 Q 16.7 117.9 16 120.5 L 13.5 119 L 5 113.5 L 6 111 L 21 108 L 19 100.5 L 14 94.5 L 8 82.5 L 9.5 81 Z " /><path fill="rgb(247,49,47)" stroke="rgb(247,49,47)" stroke-width="1" opacity="0.996078431372549" d="M 184 85 L 186 85.5 L 181 95 Q 178 93.8 179 97.5 Q 173.2 100.4 174 108 L 190 111 L 189.5 114 L 189 112 L 181.5 112 Q 179.6 108.3 173 110 Q 174 107 171 108 L 171 105 L 173 105 L 173 101 L 177 99 L 177 96.5 Q 180.7 95.2 180 91 L 182 91 L 182 87 Q 185 88 184 85 Z " /><path fill="rgb(247,49,47)" stroke="rgb(247,49,47)" stroke-width="1" opacity="0.996078431372549" d="M 48.5 106 L 53 106.5 L 48.5 107 L 48.5 106 Z " /><path fill="rgb(247,49,47)" stroke="rgb(247,49,47)" stroke-width="1" opacity="0.996078431372549" d="M 140.5 106 L 145 106.5 L 140.5 107 L 140.5 106 Z " /><path fill="rgb(247,49,47)" stroke="rgb(247,49,47)" stroke-width="1" opacity="0.996078431372549" d="M 46.5 107 L 47 109 L 45 109 Q 46.1 111.7 43.5 111 L 44 109.5 Q 43.3 107.3 45.5 108 L 46.5 107 Z " /><path fill="rgb(247,49,47)" stroke="rgb(247,49,47)" stroke-width="1" opacity="0.996078431372549" d="M 56.5 107 L 64 110 L 63.5 112 L 56.5 108 L 56.5 107 Z " /><path fill="rgb(247,49,47)" stroke="rgb(247,49,47)" stroke-width="1" opacity="0.996078431372549" d="M 136.5 107 L 138 107.5 L 131.5 111 L 131.5 110 L 136.5 107 Z " /><path fill="rgb(247,49,47)" stroke="rgb(247,49,47)" stroke-width="1" opacity="0.996078431372549" d="M 150.5 110 Q 152.8 109.3 152 111.5 L 150.5 110 Z " /><path fill="rgb(247,49,47)" stroke="rgb(247,49,47)" stroke-width="1" opacity="0.996078431372549" d="M 70.5 114 L 71.5 116 Q 68.7 116.7 70.5 114 Z " /><path fill="rgb(247,49,47)" stroke="rgb(247,49,47)" stroke-width="1" opacity="0.996078431372549" d="M 124.5 114 L 125 116 L 117.5 119 L 117.5 118 L 124.5 114 Z " /><path fill="rgb(247,49,47)" stroke="rgb(247,49,47)" stroke-width="1" opacity="0.996078431372549" d="M 152.5 114 L 153 117.5 L 152 117.5 L 152.5 114 Z " /><path fill="rgb(247,49,47)" stroke="rgb(247,49,47)" stroke-width="1" opacity="0.996078431372549" d="M 187.5 114 L 188 116 Q 185 115 186 118 L 183.5 118 L 178 121 Q 179.3 124 175.5 123 L 172 125 Q 173.1 127.7 170.5 127 L 168 128 Q 166.8 125 170.5 126 L 173 122 L 176.5 122 Q 177.8 118.3 182 119 L 184 115 L 186.5 115 L 187.5 114 Z " /><path fill="rgb(247,49,47)" stroke="rgb(247,49,47)" stroke-width="1" opacity="0.996078431372549" d="M 73.5 116 L 78 118.5 L 76.5 119 L 73.5 116 Z " /><path fill="rgb(247,49,47)" stroke="rgb(247,49,47)" stroke-width="1" opacity="0.996078431372549" d="M 43 120 Q 46 118.8 45 122.5 L 47.5 125 L 54 127.5 L 51.5 128 L 43 121.5 L 43 120 Z " /><path fill="rgb(247,49,47)" stroke="rgb(247,49,47)" stroke-width="1" opacity="0.996078431372549" d="M 17 121 L 25 124 L 25 126 Q 27.7 124.9 27 127.5 L 25.5 127 L 19.5 123 L 17 123 L 17 121 Z " /><path fill="rgb(247,49,47)" stroke="rgb(247,49,47)" stroke-width="1" opacity="0.996078431372549" d="M 144.5 126 L 143.5 128 L 141 127.5 L 144.5 126 Z " /><path fill="rgb(247,49,47)" stroke="rgb(247,49,47)" stroke-width="1" opacity="0.996078431372549" d="M 28 128 L 37 133.5 L 35.5 134 L 31 132 L 31 130 Q 26.9 131.3 28 128 Z " /><path fill="rgb(247,49,47)" stroke="rgb(247,49,47)" stroke-width="1" opacity="0.996078431372549" d="M 164.5 128 Q 168.3 127 167 130 L 164 130 Q 165.3 133 161.5 132 L 155.5 137 L 153 137 Q 154.1 139.7 151.5 139 L 146 143.5 L 146 146.5 L 149 152 L 151 152 L 151 155 Q 153.7 153.9 153 156.5 L 156 161 Q 153 162.3 154 158.5 L 150 156 Q 151 153 148 154 L 148 150.5 L 145 149 L 145 142.5 L 147 142 L 147 140.5 Q 148.2 137.3 152 138 Q 150.9 135.3 153.5 136 L 157 135 L 159 131 L 163 131 L 163 129.5 L 164.5 128 Z " /><path fill="rgb(247,49,47)" stroke="rgb(247,49,47)" stroke-width="1" opacity="0.996078431372549" d="M 57.5 129 L 58.5 131 Q 55.7 131.7 57.5 129 Z " /><path fill="rgb(247,49,47)" stroke="rgb(247,49,47)" stroke-width="1" opacity="0.996078431372549" d="M 137 129 L 140 129.5 L 137.5 131 L 137 129 Z " /><path fill="rgb(247,49,47)" stroke="rgb(247,49,47)" stroke-width="1" opacity="0.996078431372549" d="M 60.5 131 L 63 132.5 L 61.5 133 L 60.5 131 Z " /><path fill="rgb(247,49,47)" stroke="rgb(247,49,47)" stroke-width="1" opacity="0.996078431372549" d="M 64.5 133 L 68 134.5 L 65.5 135 L 64.5 133 Z " /><path fill="rgb(247,49,47)" stroke="rgb(247,49,47)" stroke-width="1" opacity="0.996078431372549" d="M 130.5 133 L 131 135 L 127 134.5 L 130.5 133 Z " /><path fill="rgb(247,49,47)" stroke="rgb(247,49,47)" stroke-width="1" opacity="0.996078431372549" d="M 38.5 135 L 41 135 Q 39.9 137.7 42.5 137 L 46 138 L 46 140 L 50 142 L 50 149 L 48 149 Q 49 152 46 151 L 46 154 L 44 154 L 49 146.5 L 49 143.5 L 39.5 137 L 38.5 135 Z " /><path fill="rgb(247,49,47)" stroke="rgb(247,49,47)" stroke-width="1" opacity="0.996078431372549" d="M 70.5 136 Q 72.8 135.3 72 137.5 L 70.5 136 Z " /><path fill="rgb(247,49,47)" stroke="rgb(247,49,47)" stroke-width="1" opacity="0.996078431372549" d="M 123 136 L 127 136.5 L 123.5 138 L 123 136 Z " /><path fill="rgb(247,49,47)" stroke="rgb(247,49,47)" stroke-width="1" opacity="0.996078431372549" d="M 74.5 138 L 77 139.5 L 75.5 140 L 74.5 138 Z " /><path fill="rgb(247,49,47)" stroke="rgb(247,49,47)" stroke-width="1" opacity="0.996078431372549" d="M 120.5 138 Q 123.1 137.3 122 140 L 119 139.5 L 120.5 138 Z " /><path fill="rgb(247,49,47)" stroke="rgb(247,49,47)" stroke-width="1" opacity="0.996078431372549" d="M 78.5 140 L 82 141.5 L 79.5 142 L 78.5 140 Z " /><path fill="rgb(247,49,47)" stroke="rgb(247,49,47)" stroke-width="1" opacity="0.996078431372549" d="M 116.5 140 L 118 140.5 L 109 145 L 109 143 L 113 143 Q 111.8 140 115.5 141 L 116.5 140 Z " /><path fill="rgb(247,49,47)" stroke="rgb(247,49,47)" stroke-width="1" opacity="0.996078431372549" d="M 83.5 143 Q 86.8 141.9 86 144.5 L 84.5 144 L 83.5 143 Z " /><path fill="rgb(247,49,47)" stroke="rgb(247,49,47)" stroke-width="1" opacity="0.996078431372549" d="M 87.5 145 L 88 146.5 L 80 151 L 80 149 Q 84.1 150.3 83 147 L 87 147 L 87.5 145 Z " /><path fill="rgb(247,49,47)" stroke="rgb(247,49,47)" stroke-width="1" opacity="0.996078431372549" d="M 107.5 145 L 108 147 Q 114.3 145.5 113.5 149 L 117.5 149 Q 120.5 152.9 127 152 Q 125.7 155.7 131.5 154 Q 132.6 156.8 136 156 Q 137.1 158.7 134.5 158 L 129.5 155 L 125.5 155 L 118.5 151 L 107 148 L 107.5 145 Z " /><path fill="rgb(247,49,47)" stroke="rgb(247,49,47)" stroke-width="1" opacity="0.996078431372549" d="M 74.5 151 L 78 151.5 L 60 158 L 60 156 Q 65.2 157.7 64 154 Q 70.3 155.5 69.5 152 L 73.5 152 L 74.5 151 Z " /><path fill="rgb(247,49,47)" stroke="rgb(247,49,47)" stroke-width="1" opacity="0.996078431372549" d="M 42 155 L 44 155.5 L 43 160 L 39 161 L 40 165.5 L 38.5 165 Q 36.3 165.8 37 163.5 Q 40.6 161.6 40 157 Q 43 158 42 155 Z " /><path fill="rgb(247,49,47)" stroke="rgb(247,49,47)" stroke-width="1" opacity="0.996078431372549" d="M 55.5 158 L 59 158.5 L 41 165 L 41 163 Q 45.1 164.3 44 161 L 49.5 161 Q 48.5 157.8 54.5 159 L 55.5 158 Z " /><path fill="rgb(247,49,47)" stroke="rgb(247,49,47)" stroke-width="1" opacity="0.996078431372549" d="M 137.5 158 L 145.5 159 Q 146.6 161.8 150 161 Q 148.6 165 155.5 163 L 158 162 L 157.5 165 L 156.5 163 L 156 165 L 144 162 Q 145.3 158.3 139.5 160 L 137.5 158 Z " /><path fill="rgb(248,49,47)" stroke="rgb(248,49,47)" stroke-width="1" opacity="1" d="M 97.5 9 L 99 9 L 99 13 Q 102 11.8 101 15.5 L 103 17.5 L 106 27 Q 109 25.8 108 29.5 L 111 34 L 115 34 Q 113.9 31.3 116.5 32 L 120 31 L 120 29 L 124 29 L 126 25 L 128.5 25 L 131 24 L 131 22 L 134 22 Q 133 19 136 20 L 136 26.5 L 134 27.5 L 134 38.5 L 133 39.5 L 133 52 L 131 52.5 L 131 63.5 L 129 64.5 L 129 74.5 Q 125.5 73.5 127 80.5 Q 128.4 85 134 84 L 136 80 L 140 80 Q 138.8 77 142.5 78 L 145 77 Q 143.8 74 147.5 75 L 150 71 L 156 70 Q 154.9 66.7 159 68 Q 160.5 74.3 157 73.5 L 157 80.5 L 160.5 84 L 180 84 L 180 82 L 186 82 L 186 85 L 182 87 L 182 91 Q 179 89.8 180 93.5 Q 176.3 94.7 177 99 L 173 101 L 173 105 Q 169.7 103.9 171 108 Q 174.1 107.3 173.5 110 L 179.5 110 L 181.5 112 L 189 112 Q 190.1 114.7 187.5 114 L 184 115 L 182 119 L 179.5 119 Q 178.1 123 173 122 L 170.5 126 Q 166.8 125 168 128 L 164.5 128 L 163 131 L 159 131 L 157 135 L 154.5 135 L 152 136 Q 153.3 139 149.5 138 L 147 142 L 145 142.5 L 145 149 L 148 150.5 L 148 154 L 150 154 Q 148.9 156.7 151.5 156 Q 154.8 157.2 154 161 Q 156.7 159.9 156 162.5 L 157 164.5 L 156 164.5 L 156 163 L 150.5 163 L 150 161 L 147.5 161 L 145.5 159 L 136 158 Q 137.3 155 133.5 156 Q 132.1 152.8 127 154 Q 128.3 150.3 122.5 152 L 117.5 149 L 113 149 L 113 147 L 108 147 L 108 145 L 110.5 145 L 118.5 140 L 122 140 Q 120.9 137.3 123.5 138 L 127 137 L 127 135 L 131 135 L 131 133 Q 135.1 134.3 134 131 L 137.5 131 L 145.5 126 L 148 126 L 148 124 L 152 122 L 152 118.5 L 153 114.5 L 152 110 L 150 110 Q 151.1 107.3 148.5 108 Q 146.2 105.3 140.5 106 L 131 110 L 131 112 L 127 112 Q 128.3 115 124.5 114 L 115 119 Q 116.3 122 112.5 121 L 108 123 L 108 72.5 Q 105.3 71.4 106 68 Q 102.9 68.8 103.5 66 L 91 66 Q 92 69 89 68 L 89 70.5 L 87 73.5 L 86.5 123 L 80.5 121 L 70.5 114 L 67 114 L 67 112 L 64 112 Q 65.1 109.3 62.5 110 L 57.5 107 L 48.5 106 L 44 108 Q 41.6 111.9 43 121.5 L 47.5 126 L 57 129 Q 55.8 132 59.5 131 L 87 145 L 87 147 L 83 147 L 83 149 Q 78.9 147.7 80 151 L 74.5 151 L 69 152 L 69 154 L 64.5 154 Q 65.3 157.3 60 156 L 60 158 L 55.5 158 L 50 159 L 50 161 L 44 161 L 44 163 L 41 163 Q 42 166 39 165 L 39 161 L 40.5 161 L 43 160 L 44 154 L 46 154 L 46 151 L 50 149 L 50 142 L 48 142 L 46 138 L 43.5 138 L 41 137 L 41 135 L 37 135 L 37 133.5 L 29.5 128 L 27 128 L 25 124 L 22.5 124 Q 21.1 120 16 121 L 14 117 L 11.5 117 Q 10.4 114.2 7 115 L 7 112 L 13.5 112 L 14.5 110 L 20.5 110 Q 23.5 109.5 23 105.5 L 20 98 L 16 96 L 16 93.5 Q 12 92.1 13 87 L 11 87 L 11 84 Q 8 85 9 82 Q 14.1 80.7 15.5 84 L 36 84 Q 38 81 37 73.5 L 36 68 Q 41.3 67.4 44 71.5 L 44 73 L 48 73 Q 46.8 76 50.5 75 L 53 76 L 53 78 L 57 78 Q 55.8 81 59.5 80 Q 61 85 67 84 Q 66 81 69 82 L 69 77 L 67 76.5 L 67 68.5 L 66 67.5 L 66 57 L 64 56.5 L 64 45.5 Q 60.8 46.4 62 38.5 L 60 37.5 L 60 27.5 Q 57.5 26 59 20.5 L 63.5 24 L 69 25 L 71 29 L 73.5 29 Q 76.4 33.1 84.5 32 L 87 31 L 87 27 Q 90 28.3 89 24.5 L 90 20 L 92 20 Q 90.7 15.9 94 17 L 94 13 Q 97 14.3 96 10.5 L 97.5 9 Z " /><path fill="rgb(248,167,168)" stroke="rgb(248,167,168)" stroke-width="1" opacity="0.43529411764705883" d="M 95 5 L 100 5 L 102 9 L 100 9 Q 101.1 6.3 98.5 7 L 96.5 7 Q 93.9 6.3 95 9 L 93 9 L 95 5 Z " /><path fill="rgb(248,167,168)" stroke="rgb(248,167,168)" stroke-width="1" opacity="0.43529411764705883" d="M 91 10 Q 93.7 8.9 93 11.5 L 91 12.5 L 91 10 Z " /><path fill="rgb(248,167,168)" stroke="rgb(248,167,168)" stroke-width="1" opacity="0.43529411764705883" d="M 89 14 Q 91.7 12.9 91 15.5 Q 87.5 17.7 88 23 Q 85.3 24.1 86 21.5 Q 89.5 19.3 89 14 Z " /><path fill="rgb(248,167,168)" stroke="rgb(248,167,168)" stroke-width="1" opacity="0.43529411764705883" d="M 57.5 17 Q 64 16 65 20.5 L 63 21 Q 64.4 17 57.5 19 L 56 19.5 L 57.5 17 Z " /><path fill="rgb(248,167,168)" stroke="rgb(248,167,168)" stroke-width="1" opacity="0.43529411764705883" d="M 105 17 Q 108 16 107 19 Q 104 20 105 17 Z " /><path fill="rgb(248,167,168)" stroke="rgb(248,167,168)" stroke-width="1" opacity="0.43529411764705883" d="M 132 17 Q 137.4 15.5 139 18.5 L 138.5 21 Q 137.5 18 132.5 19 Q 131.4 21.8 128 21 Q 129.1 23.7 126.5 23 L 121.5 26 L 123.5 23 L 126 23 Q 124.9 20.3 127.5 21 Q 128.6 18.3 132 19 L 132 17 Z " /><path fill="rgb(248,167,168)" stroke="rgb(248,167,168)" stroke-width="1" opacity="0.43529411764705883" d="M 66.5 21 L 74 25.5 L 72.5 26 Q 67.2 24.3 66.5 21 Z " /><path fill="rgb(248,167,168)" stroke="rgb(248,167,168)" stroke-width="1" opacity="0.43529411764705883" d="M 107 21 Q 110 20 109 23 Q 106 24 107 21 Z " /><path fill="rgb(248,167,168)" stroke="rgb(248,167,168)" stroke-width="1" opacity="0.43529411764705883" d="M 85.5 24 L 86 27 Q 83.3 28.1 84 25.5 L 85.5 24 Z " /><path fill="rgb(248,167,168)" stroke="rgb(248,167,168)" stroke-width="1" opacity="0.43529411764705883" d="M 109.5 24 L 111 26.5 L 109 25.5 L 109.5 24 Z " /><path fill="rgb(248,167,168)" stroke="rgb(248,167,168)" stroke-width="1" opacity="0.43529411764705883" d="M 138.5 24 L 139 30 Q 135.7 31.3 137 26.5 L 138.5 24 Z " /><path fill="rgb(248,167,168)" stroke="rgb(248,167,168)" stroke-width="1" opacity="0.43529411764705883" d="M 56.5 26 L 58 30 Q 54.2 31.2 56.5 26 Z " /><path fill="rgb(248,167,168)" stroke="rgb(248,167,168)" stroke-width="1" opacity="0.43529411764705883" d="M 75 26 Q 78 25 77 28 Q 74 29 75 26 Z " /><path fill="rgb(248,167,168)" stroke="rgb(248,167,168)" stroke-width="1" opacity="0.43529411764705883" d="M 118 26 Q 121 25 120 28 Q 117 29 118 26 Z " /><path fill="rgb(248,167,168)" stroke="rgb(248,167,168)" stroke-width="1" opacity="0.43529411764705883" d="M 78.5 28 Q 81.8 26.9 81 29.5 L 82 29.5 Q 81.3 26.9 84 28 Q 85.1 30.7 82.5 30 L 80.5 30 L 78.5 28 Z " /><path fill="rgb(248,167,168)" stroke="rgb(248,167,168)" stroke-width="1" opacity="0.43529411764705883" d="M 111.5 28 L 114 29.5 Q 113.2 26.9 116.5 28 L 115.5 30 L 112.5 31 L 111.5 28 Z " /><path fill="rgb(248,167,168)" stroke="rgb(248,167,168)" stroke-width="1" opacity="0.43529411764705883" d="M 57.5 34 L 59 39.5 L 58 39.5 L 57.5 34 Z " /><path fill="rgb(248,167,168)" stroke="rgb(248,167,168)" stroke-width="1" opacity="0.43529411764705883" d="M 136.5 37 L 137 42 Q 134.3 43.1 135 40.5 L 136.5 37 Z " /><path fill="rgb(248,167,168)" stroke="rgb(248,167,168)" stroke-width="1" opacity="0.43529411764705883" d="M 59.5 45 L 60.5 47 Q 57.7 47.7 59.5 45 Z " /><path fill="rgb(248,167,168)" stroke="rgb(248,167,168)" stroke-width="1" opacity="0.43529411764705883" d="M 134.5 51 L 135 53.5 L 134 53.5 L 134.5 51 Z " /><path fill="rgb(248,167,168)" stroke="rgb(248,167,168)" stroke-width="1" opacity="0.43529411764705883" d="M 61.5 56 L 63 60 Q 59.2 61.2 61.5 56 Z " /><path fill="rgb(248,167,168)" stroke="rgb(248,167,168)" stroke-width="1" opacity="0.43529411764705883" d="M 133.5 61 L 134 65.5 L 132 66.5 L 133.5 61 Z " /><path fill="rgb(248,167,168)" stroke="rgb(248,167,168)" stroke-width="1" opacity="0.43529411764705883" d="M 157.5 63 Q 161.3 62.3 162 64.5 L 156.5 65 L 153 67 Q 154.1 69.7 151.5 69 L 146 72 Q 144.9 69.3 147.5 70 L 153 67 Q 151.8 64 155.5 65 L 157.5 63 Z " /><path fill="rgb(248,167,168)" stroke="rgb(248,167,168)" stroke-width="1" opacity="0.43529411764705883" d="M 39.5 65 L 42 65 Q 40.8 68 44.5 67 L 47.5 70 L 54 72 Q 52.9 74.7 55.5 74 L 65 79 L 65.5 76 L 66 81 L 63 81 Q 64.3 78 60.5 79 Q 58.6 75.4 54 76 L 54 74 L 51 74 Q 52.3 71 48.5 72 L 40.5 67 L 39.5 65 Z " /><path fill="rgb(248,167,168)" stroke="rgb(248,167,168)" stroke-width="1" opacity="0.43529411764705883" d="M 63.5 67 L 65 70.5 L 63 69.5 L 63.5 67 Z " /><path fill="rgb(248,167,168)" stroke="rgb(248,167,168)" stroke-width="1" opacity="0.43529411764705883" d="M 143.5 72 L 145 72.5 L 142 74 Q 143.3 77 139.5 76 L 137 77 L 137 79 Q 132.9 77.7 134 81 L 130 81 L 130 79 L 134 79 Q 132.8 76 136.5 77 L 143.5 72 Z " /><path fill="rgb(248,167,168)" stroke="rgb(248,167,168)" stroke-width="1" opacity="0.43529411764705883" d="M 33.5 73 L 35 76 Q 31.5 77.1 33.5 73 Z " /><path fill="rgb(248,167,168)" stroke="rgb(248,167,168)" stroke-width="1" opacity="0.43529411764705883" d="M 131.5 74 L 132 77 L 130 76.5 L 131.5 74 Z " /><path fill="rgb(248,167,168)" stroke="rgb(248,167,168)" stroke-width="1" opacity="0.43529411764705883" d="M 160 74 Q 163 73 162 76 Q 159 77 160 74 Z " /><path fill="rgb(248,167,168)" stroke="rgb(248,167,168)" stroke-width="1" opacity="0.43529411764705883" d="M 34.5 78 L 36 82 L 30 81.5 L 33 81 L 34.5 78 Z " /><path fill="rgb(248,167,168)" stroke="rgb(248,167,168)" stroke-width="1" opacity="0.43529411764705883" d="M 7.5 79 L 16.5 79 L 17 81 L 9.5 80 L 7 83.5 L 8 85.5 L 6 84.5 Q 5 80 7.5 79 Z " /><path fill="rgb(248,167,168)" stroke="rgb(248,167,168)" stroke-width="1" opacity="0.43529411764705883" d="M 160 79 L 162 79 Q 160.9 81.7 163.5 81 L 163.5 82 Q 158.3 83.5 160 79 Z " /><path fill="rgb(248,167,168)" stroke="rgb(248,167,168)" stroke-width="1" opacity="0.43529411764705883" d="M 178 79 L 187.5 79 L 188 81 L 181.5 80 L 178 81 L 178 79 Z " /><path fill="rgb(248,167,168)" stroke="rgb(248,167,168)" stroke-width="1" opacity="0.43529411764705883" d="M 187.5 85 L 188 88 Q 185.3 86.9 186 89.5 L 185 93 Q 182.3 94.1 183 91.5 L 187.5 85 Z " /><path fill="rgb(248,167,168)" stroke="rgb(248,167,168)" stroke-width="1" opacity="0.43529411764705883" d="M 8.5 88 Q 10.8 87.3 10 89.5 L 17 99.5 L 15 100 L 12 93 Q 9 94.3 10 90.5 L 8.5 88 Z " /><path fill="rgb(248,167,168)" stroke="rgb(248,167,168)" stroke-width="1" opacity="0.43529411764705883" d="M 181 94 Q 184.3 92.9 183 97 Q 180.3 95.9 181 98.5 L 178 104 Q 175.3 105.1 176 102.5 L 179 97 Q 182.3 98.1 181 94 Z " /><path fill="rgb(248,167,168)" stroke="rgb(248,167,168)" stroke-width="1" opacity="0.43529411764705883" d="M 17 102 Q 19.7 100.9 19 103.5 L 21 106.5 L 19 107 L 19 104 Q 16 105 17 102 Z " /><path fill="rgb(248,167,168)" stroke="rgb(248,167,168)" stroke-width="1" opacity="0.43529411764705883" d="M 175.5 105 L 176 107 L 174 106.5 L 175.5 105 Z " /><path fill="rgb(248,167,168)" stroke="rgb(248,167,168)" stroke-width="1" opacity="0.43529411764705883" d="M 12 107 L 17 107.5 L 12 109 L 12 107 Z " /><path fill="rgb(248,167,168)" stroke="rgb(248,167,168)" stroke-width="1" opacity="0.43529411764705883" d="M 179.5 107 L 183 108.5 L 180.5 109 L 179.5 107 Z " /><path fill="rgb(248,167,168)" stroke="rgb(248,167,168)" stroke-width="1" opacity="0.43529411764705883" d="M 5 109 Q 8 108 7 111 Q 4 112 5 109 Z " /><path fill="rgb(248,167,168)" stroke="rgb(248,167,168)" stroke-width="1" opacity="0.43529411764705883" d="M 188.5 109 L 192 110.5 L 192 116 Q 189 115 190 118 L 187.5 118 L 188.5 116 Q 191.9 116.9 190 111.5 L 188.5 109 Z " /><path fill="rgb(248,167,168)" stroke="rgb(248,167,168)" stroke-width="1" opacity="0.43529411764705883" d="M 5 116 L 11 119.5 L 9.5 120 Q 8.4 117.2 5 118 L 5 116 Z " /><path fill="rgb(248,167,168)" stroke="rgb(248,167,168)" stroke-width="1" opacity="0.43529411764705883" d="M 185.5 118 L 186 119.5 L 178.5 125 L 176 125 Q 177.1 127.7 174.5 127 L 169.5 130 L 171.5 127 L 174 127 Q 172.9 124.3 175.5 125 L 185.5 118 Z " /><path fill="rgb(248,167,168)" stroke="rgb(248,167,168)" stroke-width="1" opacity="0.43529411764705883" d="M 12.5 120 L 40 137 Q 38.9 139.7 41.5 139 L 42.5 141 L 40 141 Q 41.1 138.3 38.5 139 L 33 136 Q 34.3 133 30.5 134 L 26.5 130 L 19 127 Q 20.1 124.3 17.5 125 L 12.5 120 Z " /><path fill="rgb(248,167,168)" stroke="rgb(248,167,168)" stroke-width="1" opacity="0.43529411764705883" d="M 166.5 130 L 168 130.5 L 165 132 Q 166 135 163 134 Q 161.9 131.3 164.5 132 L 166.5 130 Z " /><path fill="rgb(248,167,168)" stroke="rgb(248,167,168)" stroke-width="1" opacity="0.43529411764705883" d="M 160 134 L 162 134.5 L 155 139.5 Q 155.8 142.1 152.5 141 L 153.5 139 Q 156.1 139.7 155 137 L 157.5 137 L 160 136 L 160 134 Z " /><path fill="rgb(248,167,168)" stroke="rgb(248,167,168)" stroke-width="1" opacity="0.43529411764705883" d="M 44 141 L 48 143.5 L 47 147.5 L 40.5 156 L 40 153 L 43 151.5 L 47 145.5 L 44 141 Z " /><path fill="rgb(248,167,168)" stroke="rgb(248,167,168)" stroke-width="1" opacity="0.43529411764705883" d="M 149 141 Q 152 140 151 143 L 148 144.5 L 149 148 Q 152 147 151 150 Q 148.3 151.1 149 148.5 L 148 146 L 146 145.5 L 147 143 Q 150 144 149 141 Z " /><path fill="rgb(248,167,168)" stroke="rgb(248,167,168)" stroke-width="1" opacity="0.43529411764705883" d="M 106 149 Q 109.8 147.5 109 150.5 L 107 152.5 L 107 189 L 105 189 Q 106.3 193.1 103 192 L 106 185.5 L 106 149 Z " /><path fill="rgb(248,167,168)" stroke="rgb(248,167,168)" stroke-width="1" opacity="0.43529411764705883" d="M 84.5 150 L 86 150.5 L 79.5 153 L 79.5 152 L 84.5 150 Z " /><path fill="rgb(248,167,168)" stroke="rgb(248,167,168)" stroke-width="1" opacity="0.43529411764705883" d="M 111.5 150 L 114 151.5 L 112.5 152 L 111.5 150 Z " /><path fill="rgb(248,167,168)" stroke="rgb(248,167,168)" stroke-width="1" opacity="0.43529411764705883" d="M 151.5 151 L 158.5 160 Q 161.5 159.1 160 163.5 L 159 163.5 L 153 153 Q 149.8 154 151.5 151 Z " /><path fill="rgb(248,167,168)" stroke="rgb(248,167,168)" stroke-width="1" opacity="0.43529411764705883" d="M 75.5 153 L 78 153.5 L 74.5 155 L 75.5 153 Z " /><path fill="rgb(248,167,168)" stroke="rgb(248,167,168)" stroke-width="1" opacity="0.43529411764705883" d="M 119 153 L 123 154.5 L 119 155 L 119 153 Z " /><path fill="rgb(248,167,168)" stroke="rgb(248,167,168)" stroke-width="1" opacity="0.43529411764705883" d="M 70.5 155 Q 73.1 154.3 72 157 L 69 156.5 L 70.5 155 Z " /><path fill="rgb(248,167,168)" stroke="rgb(248,167,168)" stroke-width="1" opacity="0.43529411764705883" d="M 125 155 L 128 156.5 L 125 157 L 125 155 Z " /><path fill="rgb(248,167,168)" stroke="rgb(248,167,168)" stroke-width="1" opacity="0.43529411764705883" d="M 38 157 Q 41 156 40 159 Q 37.3 157.9 38 160.5 L 36 161.5 L 38 157 Z " /><path fill="rgb(248,167,168)" stroke="rgb(248,167,168)" stroke-width="1" opacity="0.43529411764705883" d="M 65.5 157 L 66 159 L 64 158.5 L 65.5 157 Z " /><path fill="rgb(248,167,168)" stroke="rgb(248,167,168)" stroke-width="1" opacity="0.43529411764705883" d="M 130 157 L 142 161.5 L 139.5 162 Q 136.1 158.3 130 159 L 130 157 Z " /><path fill="rgb(248,167,168)" stroke="rgb(248,167,168)" stroke-width="1" opacity="0.43529411764705883" d="M 60.5 159 L 63 159.5 L 59.5 161 L 60.5 159 Z " /><path fill="rgb(248,167,168)" stroke="rgb(248,167,168)" stroke-width="1" opacity="0.43529411764705883" d="M 56.5 160 Q 59.1 159.3 58 162 L 55 161.5 L 56.5 160 Z " /><path fill="rgb(248,167,168)" stroke="rgb(248,167,168)" stroke-width="1" opacity="0.43529411764705883" d="M 50 162 L 53 162.5 L 50 164 L 50 162 Z " /><path fill="rgb(248,167,168)" stroke="rgb(248,167,168)" stroke-width="1" opacity="0.43529411764705883" d="M 144 162 L 147 163.5 L 144 164 L 144 162 Z " /><path fill="rgb(248,167,168)" stroke="rgb(248,167,168)" stroke-width="1" opacity="0.43529411764705883" d="M 45 164 Q 48 163 47 166 Q 44 167 45 164 Z " /><path fill="rgb(248,167,168)" stroke="rgb(248,167,168)" stroke-width="1" opacity="0.43529411764705883" d="M 148 164 L 152 165.5 L 148 166 L 148 164 Z " /><path fill="rgb(248,167,168)" stroke="rgb(248,167,168)" stroke-width="1" opacity="0.43529411764705883" d="M 158 165 Q 161 164 160 167 Q 157 168 158 165 Z " /><path fill="rgb(248,167,168)" stroke="rgb(248,167,168)" stroke-width="1" opacity="0.43529411764705883" d="M 36.5 166 L 39.5 167 L 42.5 166 L 41.5 168 Q 36 169 36.5 166 Z " /><path fill="rgb(248,167,168)" stroke="rgb(248,167,168)" stroke-width="1" opacity="0.43529411764705883" d="M 153.5 166 L 157 167.5 L 155.5 168 L 153.5 166 Z " /><path fill="rgb(248,167,168)" stroke="rgb(248,167,168)" stroke-width="1" opacity="0.43529411764705883" d="M 89.5 188 L 97 193.5 L 93 194 Q 94.3 191 90.5 192 Q 88 191 89.5 188 Z " /><path fill="rgb(248,167,168)" stroke="rgb(248,167,168)" stroke-width="1" opacity="0.43529411764705883" d="M 100.5 192 Q 103.1 191.3 102 194 L 98 193.5 L 100.5 192 Z " /><path fill="rgb(203,12,73)" stroke="rgb(203,12,73)" stroke-width="1" opacity="0.9882352941176471" d="M 93 67 Q 102 65.3 105 70.5 L 106 74.5 L 106.5 126 L 110.5 125 L 137.5 109 L 145.5 108 L 150 111.5 L 151 119.5 L 146 123 L 146 125 L 142 125 Q 143.3 128 139.5 127 L 109.5 143 L 107 143 L 105 148.5 L 105 187.5 L 100.5 192 L 93 192 Q 94 189 91 190 L 91 187 L 89 186.5 L 89 152.5 L 90 148.5 L 87.5 143 L 65.5 132 L 63 132 Q 64.3 129 60.5 130 L 53 127 L 53 125 L 49 125 Q 50.1 122.3 47.5 123 Q 43.3 120.7 44 113.5 L 47.5 109 L 53.5 108 L 57.5 109 L 72.5 118 L 75 118 Q 73.9 120.7 76.5 120 L 84 123 L 84 125 L 88 125 L 88 126.5 L 89 126.5 L 89 72.5 L 91 69 Q 94 70 93 67 Z " /><path fill="rgb(246,78,78)" stroke="rgb(246,78,78)" stroke-width="1" opacity="0.7529411764705882" d="M 93 9 Q 96 8 95 11 Q 92 12 93 9 Z " /><path fill="rgb(246,78,78)" stroke="rgb(246,78,78)" stroke-width="1" opacity="0.7529411764705882" d="M 100 9 L 102 9 Q 100.7 13.1 104 12 L 104 15.5 L 105 17.5 L 103 16.5 L 100 9 Z " /><path fill="rgb(246,78,78)" stroke="rgb(246,78,78)" stroke-width="1" opacity="0.7529411764705882" d="M 92.5 12 L 93 13.5 L 90 21 L 88 20.5 L 92.5 12 Z " /><path fill="rgb(246,78,78)" stroke="rgb(246,78,78)" stroke-width="1" opacity="0.7529411764705882" d="M 57.5 19 L 58 20.5 L 57 22.5 L 58 27.5 L 57 27.5 L 56 20.5 L 57.5 19 Z " /><path fill="rgb(246,78,78)" stroke="rgb(246,78,78)" stroke-width="1" opacity="0.7529411764705882" d="M 61 19 Q 64 18 63 21 Q 60 22 61 19 Z " /><path fill="rgb(246,78,78)" stroke="rgb(246,78,78)" stroke-width="1" opacity="0.7529411764705882" d="M 105 19 Q 108 18 107 21 Q 104 22 105 19 Z " /><path fill="rgb(246,78,78)" stroke="rgb(246,78,78)" stroke-width="1" opacity="0.7529411764705882" d="M 132.5 19 L 134 19.5 L 131.5 21 L 132.5 19 Z " /><path fill="rgb(246,78,78)" stroke="rgb(246,78,78)" stroke-width="1" opacity="0.7529411764705882" d="M 136.5 19 Q 139.5 19.5 139 23.5 L 137.5 26 L 136.5 19 Z " /><path fill="rgb(246,78,78)" stroke="rgb(246,78,78)" stroke-width="1" opacity="0.7529411764705882" d="M 64.5 21 L 67 22.5 L 65.5 23 L 64.5 21 Z " /><path fill="rgb(246,78,78)" stroke="rgb(246,78,78)" stroke-width="1" opacity="0.7529411764705882" d="M 128 21 Q 131 20 130 23 Q 127 24 128 21 Z " /><path fill="rgb(246,78,78)" stroke="rgb(246,78,78)" stroke-width="1" opacity="0.7529411764705882" d="M 68.5 23 Q 70.4 26.6 75 26 Q 76.1 28.7 73.5 28 L 68 25 L 68.5 23 Z " /><path fill="rgb(246,78,78)" stroke="rgb(246,78,78)" stroke-width="1" opacity="0.7529411764705882" d="M 86 23 Q 89 22 88 25 Q 85 26 86 23 Z " /><path fill="rgb(246,78,78)" stroke="rgb(246,78,78)" stroke-width="1" opacity="0.7529411764705882" d="M 107 23 Q 110 21.8 109 25.5 L 112.5 31 L 117.5 28 L 118 30 L 114.5 32 L 111.5 32 L 107 23 Z " /><path fill="rgb(246,78,78)" stroke="rgb(246,78,78)" stroke-width="1" opacity="0.7529411764705882" d="M 126.5 23 L 127 25 L 120 28 Q 118.8 25 122.5 26 L 126.5 23 Z " /><path fill="rgb(246,78,78)" stroke="rgb(246,78,78)" stroke-width="1" opacity="0.7529411764705882" d="M 84 27 L 86 27.5 L 84 32 L 80.5 32 L 77 30 L 77.5 28 L 81.5 31 L 84 30 L 84 27 Z " /><path fill="rgb(246,78,78)" stroke="rgb(246,78,78)" stroke-width="1" opacity="0.7529411764705882" d="M 57.5 30 L 60 34.5 L 60 41.5 L 62 46.5 L 63 56.5 L 61 55.5 L 61 46.5 L 59 44.5 L 59 37.5 Q 56 34.8 57.5 30 Z " /><path fill="rgb(246,78,78)" stroke="rgb(246,78,78)" stroke-width="1" opacity="0.7529411764705882" d="M 136.5 30 L 137 36.5 L 135.5 40 L 135 33.5 L 136.5 30 Z " /><path fill="rgb(246,78,78)" stroke="rgb(246,78,78)" stroke-width="1" opacity="0.7529411764705882" d="M 135.5 42 L 136 47.5 L 134 51.5 Q 135.7 59.7 132.5 63 L 132 58.5 L 133 57.5 L 133 47.5 L 135.5 42 Z " /><path fill="rgb(246,78,78)" stroke="rgb(246,78,78)" stroke-width="1" opacity="0.7529411764705882" d="M 63.5 60 Q 65.8 62.8 65 68.5 L 64 68.5 Q 61.7 65.6 63.5 60 Z " /><path fill="rgb(246,78,78)" stroke="rgb(246,78,78)" stroke-width="1" opacity="0.7529411764705882" d="M 131.5 64 L 132 73.5 L 130.5 76 L 130 72.5 L 131.5 64 Z " /><path fill="rgb(246,78,78)" stroke="rgb(246,78,78)" stroke-width="1" opacity="0.7529411764705882" d="M 33 65 L 38.5 65 L 48 71.5 L 46.5 71 L 35.5 66 Q 33.3 66.8 34 70.5 L 35 73.5 L 33 72.5 L 33 65 Z " /><path fill="rgb(246,78,78)" stroke="rgb(246,78,78)" stroke-width="1" opacity="0.7529411764705882" d="M 156.5 65 L 158 65.5 L 155 67 Q 156 70 153 69 Q 151.9 66.3 154.5 67 L 156.5 65 Z " /><path fill="rgb(246,78,78)" stroke="rgb(246,78,78)" stroke-width="1" opacity="0.7529411764705882" d="M 160 65 L 162 65.5 L 162 74 Q 159.3 75.1 160 72.5 L 161 67.5 L 160 65 Z " /><path fill="rgb(246,78,78)" stroke="rgb(246,78,78)" stroke-width="1" opacity="0.7529411764705882" d="M 151.5 69 L 150.5 71 L 142.5 76 L 142 74 L 151.5 69 Z " /><path fill="rgb(246,78,78)" stroke="rgb(246,78,78)" stroke-width="1" opacity="0.7529411764705882" d="M 64.5 71 Q 68.5 73.5 67 81.5 Q 65.5 84.5 64 81.5 L 66 81 L 64.5 71 Z " /><path fill="rgb(246,78,78)" stroke="rgb(246,78,78)" stroke-width="1" opacity="0.7529411764705882" d="M 49.5 72 Q 51.8 71.3 51 73.5 L 49.5 72 Z " /><path fill="rgb(246,78,78)" stroke="rgb(246,78,78)" stroke-width="1" opacity="0.7529411764705882" d="M 52.5 74 Q 54.8 73.3 54 75.5 L 52.5 74 Z " /><path fill="rgb(246,78,78)" stroke="rgb(246,78,78)" stroke-width="1" opacity="0.7529411764705882" d="M 34.5 76 Q 36.8 75.3 36 77.5 L 37 80.5 L 36 80.5 L 34.5 76 Z " /><path fill="rgb(246,78,78)" stroke="rgb(246,78,78)" stroke-width="1" opacity="0.7529411764705882" d="M 55.5 76 L 60 78.5 L 58.5 79 L 55.5 76 Z " /><path fill="rgb(246,78,78)" stroke="rgb(246,78,78)" stroke-width="1" opacity="0.7529411764705882" d="M 139.5 76 L 141 76.5 L 137.5 78 L 137.5 77 L 139.5 76 Z " /><path fill="rgb(246,78,78)" stroke="rgb(246,78,78)" stroke-width="1" opacity="0.7529411764705882" d="M 159.5 76 L 160 82 L 170.5 81 L 169.5 83 L 160.5 83 L 158 80.5 Q 157.3 76.8 159.5 76 Z " /><path fill="rgb(246,78,78)" stroke="rgb(246,78,78)" stroke-width="1" opacity="0.7529411764705882" d="M 61 79 Q 64 78 63 81 Q 60 82 61 79 Z " /><path fill="rgb(246,78,78)" stroke="rgb(246,78,78)" stroke-width="1" opacity="0.7529411764705882" d="M 134 79 L 136 79.5 L 134 80.5 L 134 79 Z " /><path fill="rgb(246,78,78)" stroke="rgb(246,78,78)" stroke-width="1" opacity="0.7529411764705882" d="M 9.5 80 L 14 80.5 L 8.5 82 L 9.5 80 Z " /><path fill="rgb(246,78,78)" stroke="rgb(246,78,78)" stroke-width="1" opacity="0.7529411764705882" d="M 181.5 80 L 188 81 L 189 83.5 L 183.5 91 L 183 89.5 L 187 83.5 L 186 81 L 181.5 81 L 181.5 80 Z " /><path fill="rgb(246,78,78)" stroke="rgb(246,78,78)" stroke-width="1" opacity="0.7529411764705882" d="M 24 81 L 35 82.5 L 24 83 L 24 81 Z " /><path fill="rgb(246,78,78)" stroke="rgb(246,78,78)" stroke-width="1" opacity="0.7529411764705882" d="M 130 81 Q 133 80 132 83 Q 129 84 130 81 Z " /><path fill="rgb(246,78,78)" stroke="rgb(246,78,78)" stroke-width="1" opacity="0.7529411764705882" d="M 7.5 83 L 19 102 Q 16 103.3 17 99.5 L 10 88 Q 6.7 89.3 8 84.5 L 7.5 83 Z " /><path fill="rgb(246,78,78)" stroke="rgb(246,78,78)" stroke-width="1" opacity="0.7529411764705882" d="M 182.5 92 L 183 94 L 181 93.5 L 182.5 92 Z " /><path fill="rgb(246,78,78)" stroke="rgb(246,78,78)" stroke-width="1" opacity="0.7529411764705882" d="M 179 95 Q 182 94 181 97 Q 178 98 179 95 Z " /><path fill="rgb(246,78,78)" stroke="rgb(246,78,78)" stroke-width="1" opacity="0.7529411764705882" d="M 178.5 98 L 178 99.5 L 174.5 106 L 174 104.5 L 178.5 98 Z " /><path fill="rgb(246,78,78)" stroke="rgb(246,78,78)" stroke-width="1" opacity="0.7529411764705882" d="M 19.5 103 L 21 105.5 L 20 105.5 L 19.5 103 Z " /><path fill="rgb(246,78,78)" stroke="rgb(246,78,78)" stroke-width="1" opacity="0.7529411764705882" d="M 17.5 107 L 21 107.5 L 15.5 109 L 15.5 108 L 17.5 107 Z " /><path fill="rgb(246,78,78)" stroke="rgb(246,78,78)" stroke-width="1" opacity="0.7529411764705882" d="M 174.5 107 Q 179 106 180 108.5 L 177.5 109 L 174.5 108 L 174.5 107 Z " /><path fill="rgb(246,78,78)" stroke="rgb(246,78,78)" stroke-width="1" opacity="0.7529411764705882" d="M 7 109 L 14 109.5 L 7 111 L 7 109 Z " /><path fill="rgb(246,78,78)" stroke="rgb(246,78,78)" stroke-width="1" opacity="0.7529411764705882" d="M 181.5 109 Q 187.5 107.5 189 110.5 L 186.5 111 L 181.5 110 L 181.5 109 Z " /><path fill="rgb(246,78,78)" stroke="rgb(246,78,78)" stroke-width="1" opacity="0.7529411764705882" d="M 4 111 Q 6.7 109.9 6 112.5 Q 3.2 114.3 7.5 116 L 17 121 L 16.5 123 L 13.5 120 L 5 116 L 4 111 Z " /><path fill="rgb(246,78,78)" stroke="rgb(246,78,78)" stroke-width="1" opacity="0.7529411764705882" d="M 188 114 Q 191 113 190 116 L 186.5 118 L 186 116 Q 189 117 188 114 Z " /><path fill="rgb(246,78,78)" stroke="rgb(246,78,78)" stroke-width="1" opacity="0.7529411764705882" d="M 183.5 118 L 185 118.5 L 178.5 123 L 178 121 L 183.5 118 Z " /><path fill="rgb(246,78,78)" stroke="rgb(246,78,78)" stroke-width="1" opacity="0.7529411764705882" d="M 18.5 123 L 28 128 L 27.5 130 L 19.5 125 L 18.5 123 Z " /><path fill="rgb(246,78,78)" stroke="rgb(246,78,78)" stroke-width="1" opacity="0.7529411764705882" d="M 175.5 123 L 177 123.5 L 174 125 Q 175 128 172 127 Q 170.9 124.3 173.5 125 L 175.5 123 Z " /><path fill="rgb(246,78,78)" stroke="rgb(246,78,78)" stroke-width="1" opacity="0.7529411764705882" d="M 170.5 127 L 168.5 130 Q 165.9 130.7 167 128 L 170.5 127 Z " /><path fill="rgb(246,78,78)" stroke="rgb(246,78,78)" stroke-width="1" opacity="0.7529411764705882" d="M 29.5 130 Q 31.8 129.3 31 131.5 L 29.5 130 Z " /><path fill="rgb(246,78,78)" stroke="rgb(246,78,78)" stroke-width="1" opacity="0.7529411764705882" d="M 164 130 L 166 130.5 L 164 131.5 L 164 130 Z " /><path fill="rgb(246,78,78)" stroke="rgb(246,78,78)" stroke-width="1" opacity="0.7529411764705882" d="M 32.5 132 L 39 136.5 L 37.5 136 Q 32.9 134.8 32.5 132 Z " /><path fill="rgb(246,78,78)" stroke="rgb(246,78,78)" stroke-width="1" opacity="0.7529411764705882" d="M 161.5 132 Q 164.1 131.3 163 134 L 160 134 Q 161.1 136.7 158.5 136 L 156.5 137 L 158.5 134 L 161.5 132 Z " /><path fill="rgb(246,78,78)" stroke="rgb(246,78,78)" stroke-width="1" opacity="0.7529411764705882" d="M 40.5 137 L 45 140.5 L 43.5 141 L 40 139 L 40.5 137 Z " /><path fill="rgb(246,78,78)" stroke="rgb(246,78,78)" stroke-width="1" opacity="0.7529411764705882" d="M 153 137 Q 156 136 155 139 L 150.5 141 L 151.5 139 Q 154.1 139.7 153 137 Z " /><path fill="rgb(246,78,78)" stroke="rgb(246,78,78)" stroke-width="1" opacity="0.7529411764705882" d="M 46.5 141 Q 49.8 141.8 49 146.5 L 44 152.5 L 44 155 L 42 155 Q 43.1 157.7 40.5 157 L 42 154.5 L 47 147.5 L 48 143.5 L 46.5 141 Z " /><path fill="rgb(246,78,78)" stroke="rgb(246,78,78)" stroke-width="1" opacity="0.7529411764705882" d="M 148.5 141 L 149 143 Q 146.3 141.9 147 144.5 L 146 144.5 L 148.5 141 Z " /><path fill="rgb(246,78,78)" stroke="rgb(246,78,78)" stroke-width="1" opacity="0.7529411764705882" d="M 146.5 146 Q 148.8 145.3 148 147.5 L 149 150 Q 152 149 151 152 Q 148.3 153.1 149 150.5 L 146.5 146 Z " /><path fill="rgb(246,78,78)" stroke="rgb(246,78,78)" stroke-width="1" opacity="0.7529411764705882" d="M 86.5 148 L 90 149.5 L 89.5 152 L 89 150 L 84.5 150 L 77.5 153 L 78.5 151 Q 84.6 151.6 86.5 148 Z " /><path fill="rgb(246,78,78)" stroke="rgb(246,78,78)" stroke-width="1" opacity="0.7529411764705882" d="M 106.5 148 L 109.5 148 L 120 152.5 L 118.5 153 L 112.5 150 L 106 149 L 105.5 186 L 105 149.5 L 106.5 148 Z " /><path fill="rgb(246,78,78)" stroke="rgb(246,78,78)" stroke-width="1" opacity="0.7529411764705882" d="M 72.5 153 L 75 153.5 L 71.5 155 L 72.5 153 Z " /><path fill="rgb(246,78,78)" stroke="rgb(246,78,78)" stroke-width="1" opacity="0.7529411764705882" d="M 121.5 153 L 125 154.5 L 123.5 155 L 121.5 153 Z " /><path fill="rgb(246,78,78)" stroke="rgb(246,78,78)" stroke-width="1" opacity="0.7529411764705882" d="M 151 153 Q 153.7 151.9 153 154.5 L 160 164.5 L 158 165 L 157.5 168 L 151 164.5 L 152.5 164 L 158 165 L 158 162 Q 155 163.3 156 159.5 L 153 155 Q 150 156 151 153 Z " /><path fill="rgb(246,78,78)" stroke="rgb(246,78,78)" stroke-width="1" opacity="0.7529411764705882" d="M 68.5 155 L 70 155.5 L 58.5 161 L 57.5 159 L 68.5 155 Z " /><path fill="rgb(246,78,78)" stroke="rgb(246,78,78)" stroke-width="1" opacity="0.7529411764705882" d="M 127.5 155 L 139 159.5 L 137.5 160 L 131.5 157 L 128.5 157 L 127.5 155 Z " /><path fill="rgb(246,78,78)" stroke="rgb(246,78,78)" stroke-width="1" opacity="0.7529411764705882" d="M 38 159 L 40 159.5 L 37 165 L 39.5 166 L 50 162 L 50 164 Q 43.7 162.5 44.5 166 L 40.5 166 L 37.5 167 Q 35.3 166.3 36 162.5 L 38 159 Z " /><path fill="rgb(246,78,78)" stroke="rgb(246,78,78)" stroke-width="1" opacity="0.7529411764705882" d="M 54.5 160 L 56 160.5 L 52.5 162 L 52.5 161 L 54.5 160 Z " /><path fill="rgb(246,78,78)" stroke="rgb(246,78,78)" stroke-width="1" opacity="0.7529411764705882" d="M 141.5 160 Q 145.3 159 144 162 L 141.5 160 Z " /><path fill="rgb(246,78,78)" stroke="rgb(246,78,78)" stroke-width="1" opacity="0.7529411764705882" d="M 146.5 162 L 150 163.5 L 147.5 164 L 146.5 162 Z " /><path fill="rgb(246,78,78)" stroke="rgb(246,78,78)" stroke-width="1" opacity="0.7529411764705882" d="M 89.5 187 Q 91.8 186.3 91 188.5 L 89.5 187 Z " /><path fill="rgb(246,78,78)" stroke="rgb(246,78,78)" stroke-width="1" opacity="0.7529411764705882" d="M 104.5 188 L 103 190.5 Q 103.8 192.8 101.5 192 L 104.5 188 Z " /><path fill="rgb(246,78,78)" stroke="rgb(246,78,78)" stroke-width="1" opacity="0.7529411764705882" d="M 95.5 192 L 100 192.5 L 97.5 194 L 95.5 192 Z " /><path fill="rgb(204,171,171)" stroke="rgb(204,171,171)" stroke-width="1" opacity="0.06274509803921569" d="M 94 4 Q 101.2 2.5 103 7.5 L 104 11.5 L 103 11.5 L 102 7 Q 99 8 100 5 L 95 5 Q 96 8 93 7 L 93 9.5 L 92 9.5 L 92 6 Q 95 7 94 4 Z " /><path fill="rgb(204,171,171)" stroke="rgb(204,171,171)" stroke-width="1" opacity="0.06274509803921569" d="M 90.5 10 L 91 14 L 89 13.5 L 90.5 10 Z " /><path fill="rgb(204,171,171)" stroke="rgb(204,171,171)" stroke-width="1" opacity="0.06274509803921569" d="M 104.5 13 Q 107.5 12.1 106 16.5 L 105 16.5 L 104.5 13 Z " /><path fill="rgb(204,171,171)" stroke="rgb(204,171,171)" stroke-width="1" opacity="0.06274509803921569" d="M 55 17 L 57 17.5 L 56 18.5 L 56 29.5 L 56.5 31 L 55 29.5 L 55 17 Z " /><path fill="rgb(204,171,171)" stroke="rgb(204,171,171)" stroke-width="1" opacity="0.06274509803921569" d="M 62.5 17 L 65 18.5 L 65 20 L 69 20 Q 67.8 23 71.5 22 L 76 25.5 L 74.5 26 L 71.5 23 L 65.5 21 L 62.5 17 Z " /><path fill="rgb(204,171,171)" stroke="rgb(204,171,171)" stroke-width="1" opacity="0.06274509803921569" d="M 87.5 17 L 88 19.5 L 84 25.5 L 84 28 L 82 27.5 L 83 24 L 85 24 L 85 20 Q 88.1 21.1 87.5 17 Z " /><path fill="rgb(204,171,171)" stroke="rgb(204,171,171)" stroke-width="1" opacity="0.06274509803921569" d="M 107.5 17 L 111 24.5 L 109 23.5 Q 110 19.8 107 21 L 107.5 17 Z " /><path fill="rgb(204,171,171)" stroke="rgb(204,171,171)" stroke-width="1" opacity="0.06274509803921569" d="M 131.5 17 L 132 19 L 126.5 21 L 128.5 18 L 131.5 17 Z " /><path fill="rgb(204,171,171)" stroke="rgb(204,171,171)" stroke-width="1" opacity="0.06274509803921569" d="M 138.5 17 L 140 18.5 L 140 29.5 L 138 31.5 L 138 43 L 136 42.5 L 137 41.5 L 137 30 L 139 29.5 L 139 18.5 L 138.5 17 Z " /><path fill="rgb(204,171,171)" stroke="rgb(204,171,171)" stroke-width="1" opacity="0.06274509803921569" d="M 122 22 L 126 22.5 L 120.5 26 L 118 26 L 118 28 L 114 28 L 114 29.5 L 111 27.5 L 112.5 28 L 122 24 L 122 22 Z " /><path fill="rgb(204,171,171)" stroke="rgb(204,171,171)" stroke-width="1" opacity="0.06274509803921569" d="M 77.5 26 L 81 27.5 L 77 28 L 77.5 26 Z " /><path fill="rgb(204,171,171)" stroke="rgb(204,171,171)" stroke-width="1" opacity="0.06274509803921569" d="M 57.5 38 L 59 40.5 L 57 41 L 57.5 38 Z " /><path fill="rgb(204,171,171)" stroke="rgb(204,171,171)" stroke-width="1" opacity="0.06274509803921569" d="M 59.5 47 L 61 47.5 L 61 59.5 L 60 59.5 L 60 48.5 L 59.5 47 Z " /><path fill="rgb(204,171,171)" stroke="rgb(204,171,171)" stroke-width="1" opacity="0.06274509803921569" d="M 135.5 48 L 136 55 L 134 54.5 L 135.5 48 Z " /><path fill="rgb(204,171,171)" stroke="rgb(204,171,171)" stroke-width="1" opacity="0.06274509803921569" d="M 62.5 60 L 63 69.5 L 64 70.5 L 62 71 L 62.5 60 Z " /><path fill="rgb(204,171,171)" stroke="rgb(204,171,171)" stroke-width="1" opacity="0.06274509803921569" d="M 156.5 63 L 155.5 65 L 153 65 Q 154.1 67.7 151.5 67 L 150 67.5 L 156.5 63 Z " /><path fill="rgb(204,171,171)" stroke="rgb(204,171,171)" stroke-width="1" opacity="0.06274509803921569" d="M 161.5 63 L 163 64.5 L 163 75.5 L 162 75.5 L 162 64.5 L 161.5 63 Z " /><path fill="rgb(204,171,171)" stroke="rgb(204,171,171)" stroke-width="1" opacity="0.06274509803921569" d="M 33.5 64 L 41.5 64 Q 42.6 66.8 46 66 L 46 68 Q 48.7 66.9 48 69.5 L 44.5 67 L 42 67 L 41.5 65 L 33 65 L 32.5 76 L 32 65.5 L 33.5 64 Z " /><path fill="rgb(204,171,171)" stroke="rgb(204,171,171)" stroke-width="1" opacity="0.06274509803921569" d="M 133.5 66 L 134 67.5 L 133 68.5 L 133 76.5 L 134 79 Q 128.8 80.7 130 77 L 132 76.5 L 132 67.5 L 133.5 66 Z " /><path fill="rgb(204,171,171)" stroke="rgb(204,171,171)" stroke-width="1" opacity="0.06274509803921569" d="M 147 68 L 149 68.5 L 147 69.5 L 147 68 Z " /><path fill="rgb(204,171,171)" stroke="rgb(204,171,171)" stroke-width="1" opacity="0.06274509803921569" d="M 50.5 70 L 57.5 75 L 60 75 L 59.5 77 L 54 74 Q 55.3 71 51.5 72 L 50.5 70 Z " /><path fill="rgb(204,171,171)" stroke="rgb(204,171,171)" stroke-width="1" opacity="0.06274509803921569" d="M 145.5 70 L 146 72 Q 141.7 71.2 140.5 75 L 140 73 Q 143 74 142 71 L 144.5 71 L 145.5 70 Z " /><path fill="rgb(204,171,171)" stroke="rgb(204,171,171)" stroke-width="1" opacity="0.06274509803921569" d="M 64.5 74 L 65 79 L 62 77.5 L 64 77 L 64.5 74 Z " /><path fill="rgb(204,171,171)" stroke="rgb(204,171,171)" stroke-width="1" opacity="0.06274509803921569" d="M 136 75 L 139 75.5 L 136.5 77 L 136 75 Z " /><path fill="rgb(204,171,171)" stroke="rgb(204,171,171)" stroke-width="1" opacity="0.06274509803921569" d="M 160.5 76 L 163.5 80 L 176.5 80 L 177.5 78 L 187.5 78 Q 189.8 78.8 189 82.5 L 188 82.5 L 188 79 L 178 79 L 177.5 81 L 162 81 Q 163 78 160 79 L 160.5 76 Z " /><path fill="rgb(204,171,171)" stroke="rgb(204,171,171)" stroke-width="1" opacity="0.06274509803921569" d="M 34.5 77 L 33 79.5 L 32.5 81 L 17 81 L 16.5 79 L 7.5 79 L 6 79.5 L 6.5 78 L 16.5 78 L 18.5 80 L 31.5 80 L 34.5 77 Z " /><path fill="rgb(204,171,171)" stroke="rgb(204,171,171)" stroke-width="1" opacity="0.06274509803921569" d="M 188.5 84 L 189 89 Q 186.3 87.9 187 90.5 L 185 91.5 L 186 88 L 188 88 L 188.5 84 Z " /><path fill="rgb(204,171,171)" stroke="rgb(204,171,171)" stroke-width="1" opacity="0.06274509803921569" d="M 6.5 85 L 10 90.5 L 10 93 Q 12.7 91.9 12 94.5 L 12.5 96 L 9 94 L 9 90.5 Q 4.7 88.6 6.5 85 Z " /><path fill="rgb(204,171,171)" stroke="rgb(204,171,171)" stroke-width="1" opacity="0.06274509803921569" d="M 183 93 L 185 93.5 L 181.5 99 L 181 97 Q 184.7 98.2 183 93 Z " /><path fill="rgb(204,171,171)" stroke="rgb(204,171,171)" stroke-width="1" opacity="0.06274509803921569" d="M 13.5 97 L 14.5 99 Q 11.7 99.7 13.5 97 Z " /><path fill="rgb(204,171,171)" stroke="rgb(204,171,171)" stroke-width="1" opacity="0.06274509803921569" d="M 15.5 100 L 17 100 L 17 104 Q 20 102.8 19 106.5 L 18 106.5 L 15.5 100 Z " /><path fill="rgb(204,171,171)" stroke="rgb(204,171,171)" stroke-width="1" opacity="0.06274509803921569" d="M 179.5 100 L 180 103 L 178 102.5 L 179.5 100 Z " /><path fill="rgb(204,171,171)" stroke="rgb(204,171,171)" stroke-width="1" opacity="0.06274509803921569" d="M 176 104 L 178 104.5 L 176.5 107 L 176 104 Z " /><path fill="rgb(204,171,171)" stroke="rgb(204,171,171)" stroke-width="1" opacity="0.06274509803921569" d="M 11.5 107 L 12 109 L 5.5 109 L 5 110.5 L 4 110.5 L 5.5 108 Q 10.3 109.3 11.5 107 Z " /><path fill="rgb(204,171,171)" stroke="rgb(204,171,171)" stroke-width="1" opacity="0.06274509803921569" d="M 182.5 107 L 192 108 Q 193.6 110.1 193 115.5 Q 191.7 119.7 187 119 Q 188.1 121.7 185.5 121 L 183.5 122 L 183.5 121 L 186 119.5 L 186 118 L 190 118 Q 189 115 192 116 L 192 110.5 Q 190.3 107.3 183.5 109 L 182.5 107 Z " /><path fill="rgb(204,171,171)" stroke="rgb(204,171,171)" stroke-width="1" opacity="0.06274509803921569" d="M 4.5 114 L 5 118 L 11.5 120 L 19 125 Q 17.8 128 21.5 127 L 30.5 134 L 33 134 L 32.5 136 L 27 133 Q 28.3 130 24.5 131 L 15.5 124 L 13 124 Q 14.1 121.3 11.5 122 L 4 117.5 L 4.5 114 Z " /><path fill="rgb(204,171,171)" stroke="rgb(204,171,171)" stroke-width="1" opacity="0.06274509803921569" d="M 181.5 122 L 182 124 Q 179 123 180 126 L 177.5 126 L 173.5 129 L 174.5 127 Q 177.1 127.7 176 125 L 178.5 125 L 181.5 122 Z " /><path fill="rgb(204,171,171)" stroke="rgb(204,171,171)" stroke-width="1" opacity="0.06274509803921569" d="M 168.5 130 L 171 130.5 L 168 131 Q 169.1 133.7 166.5 133 L 161 136 Q 162.3 139 158.5 138 L 158.5 137 L 162.5 134 L 165 134 Q 163.9 131.3 166.5 132 L 168.5 130 Z " /><path fill="rgb(204,171,171)" stroke="rgb(204,171,171)" stroke-width="1" opacity="0.06274509803921569" d="M 34.5 136 L 40 139 L 40 141 L 44 141 L 44 142.5 Q 50 145.5 44 148.5 L 43.5 150 L 43 147 Q 46 148.3 45 144.5 L 36.5 138 L 34 138 L 34.5 136 Z " /><path fill="rgb(204,171,171)" stroke="rgb(204,171,171)" stroke-width="1" opacity="0.06274509803921569" d="M 156.5 138 L 157 140 L 155 139.5 L 156.5 138 Z " /><path fill="rgb(204,171,171)" stroke="rgb(204,171,171)" stroke-width="1" opacity="0.06274509803921569" d="M 151 141 L 155 141.5 L 151.5 143 L 151 141 Z " /><path fill="rgb(204,171,171)" stroke="rgb(204,171,171)" stroke-width="1" opacity="0.06274509803921569" d="M 149.5 143 L 150 144.5 L 149 145.5 L 152 148.5 L 152 151 Q 154.7 149.9 154 152.5 L 157 154 L 156.5 157 L 151 150.5 L 151 148 Q 148.3 149.1 149 146.5 L 148 144.5 L 149.5 143 Z " /><path fill="rgb(204,171,171)" stroke="rgb(204,171,171)" stroke-width="1" opacity="0.06274509803921569" d="M 86.5 150 L 89 151.5 L 85.5 152 L 86.5 150 Z " /><path fill="rgb(204,171,171)" stroke="rgb(204,171,171)" stroke-width="1" opacity="0.06274509803921569" d="M 109.5 150 L 112 151.5 L 108 152 L 107.5 189 L 107 152.5 L 109.5 150 Z " /><path fill="rgb(204,171,171)" stroke="rgb(204,171,171)" stroke-width="1" opacity="0.06274509803921569" d="M 41 151 L 43 151.5 L 41 152.5 L 41 151 Z " /><path fill="rgb(204,171,171)" stroke="rgb(204,171,171)" stroke-width="1" opacity="0.06274509803921569" d="M 82.5 152 L 83 154 L 78.5 154 L 76.5 156 L 66.5 159 L 66 157 L 71.5 157 Q 70.5 153.8 76.5 155 L 82.5 152 Z " /><path fill="rgb(204,171,171)" stroke="rgb(204,171,171)" stroke-width="1" opacity="0.06274509803921569" d="M 115.5 152 L 119 153.5 L 115 154 L 115.5 152 Z " /><path fill="rgb(204,171,171)" stroke="rgb(204,171,171)" stroke-width="1" opacity="0.06274509803921569" d="M 39.5 153 L 40 157 Q 37.3 155.9 38 158.5 L 36 159.5 L 39.5 153 Z " /><path fill="rgb(204,171,171)" stroke="rgb(204,171,171)" stroke-width="1" opacity="0.06274509803921569" d="M 119.5 155 L 125 155 L 125 157 L 130 157 L 130 158.5 L 128.5 158 Q 124.3 158.8 123.5 156 L 119.5 156 L 119.5 155 Z " /><path fill="rgb(204,171,171)" stroke="rgb(204,171,171)" stroke-width="1" opacity="0.06274509803921569" d="M 157.5 158 Q 159.8 157.3 159 159.5 L 157.5 158 Z " /><path fill="rgb(204,171,171)" stroke="rgb(204,171,171)" stroke-width="1" opacity="0.06274509803921569" d="M 63.5 159 L 64 161 L 60 160.5 L 63.5 159 Z " /><path fill="rgb(204,171,171)" stroke="rgb(204,171,171)" stroke-width="1" opacity="0.06274509803921569" d="M 133.5 159 L 137 160.5 L 133 161 L 133.5 159 Z " /><path fill="rgb(204,171,171)" stroke="rgb(204,171,171)" stroke-width="1" opacity="0.06274509803921569" d="M 160.5 160 L 161 168 L 158 167.5 L 160 167 L 160.5 160 Z " /><path fill="rgb(204,171,171)" stroke="rgb(204,171,171)" stroke-width="1" opacity="0.06274509803921569" d="M 138.5 161 L 144 162 L 144 164 L 148 164 L 148 165.5 L 146.5 165 L 139.5 163 L 138.5 161 Z " /><path fill="rgb(204,171,171)" stroke="rgb(204,171,171)" stroke-width="1" opacity="0.06274509803921569" d="M 53.5 162 L 58 162.5 L 53 163 Q 54.4 166.7 48.5 165 L 47 165.5 Q 46.1 162.1 51.5 164 L 53.5 162 Z " /><path fill="rgb(204,171,171)" stroke="rgb(204,171,171)" stroke-width="1" opacity="0.06274509803921569" d="M 43.5 166 L 44 168 L 42 167.5 L 43.5 166 Z " /><path fill="rgb(204,171,171)" stroke="rgb(204,171,171)" stroke-width="1" opacity="0.06274509803921569" d="M 152.5 166 L 155 167.5 L 152 168 L 152.5 166 Z " /><path fill="rgb(204,171,171)" stroke="rgb(204,171,171)" stroke-width="1" opacity="0.06274509803921569" d="M 105.5 189 L 106 193 Q 102.6 192.3 101.5 195 L 93.5 195 Q 92.4 192.3 89 193 L 89.5 191 L 93 192 L 93.5 194 L 102 194 Q 100.9 190.7 105 192 L 105.5 189 Z " /></svg>