<svg width="200" height="200" version="1.1" xmlns="http://www.w3.org/2000/svg" desc="Created with imagetracer.js version 1.2.6" ><path fill="rgb(0,0,0)" stroke="rgb(0,0,0)" stroke-width="1" opacity="0" d="M 0 0 L 200 0 L 200 200 L 0 200 L 0 0 Z M 71 24 Q 69 26 70 33 L 68 35 Q 63 34 62 36 L 55 36 L 54 38 L 51 39 L 48 39 Q 49 42 47 41 L 45 44 L 42 46 Q 43 48 40 47 L 39 52 L 32 62 Q 33 65 30 64 L 29 68 Q 30 70 27 69 L 26 73 L 26 82 L 31 89 Q 33 88 32 91 L 40 95 L 64 95 Q 66 96 65 100 L 64 100 L 64 98 L 37 98 L 34 102 L 34 110 L 36 112 L 37 122 L 45 128 L 63 128 L 65 131 L 65 153 L 67 155 Q 66 159 68 161 L 61 161 L 60 164 L 57 164 Q 58 167 55 166 L 55 177 L 57 178 L 165 178 L 165 176 L 172 175 Q 175 176 174 173 L 177 173 L 182 168 L 183 164 Q 182 160 185 161 L 185 70 L 183 69 L 182 66 L 182 63 Q 179 64 180 62 L 173 57 L 180 54 L 183 50 Q 182 47 185 48 L 185 37 Q 182 36 183 32 L 178 26 Q 173 27 173 24 L 150 24 L 146 27 Q 141 26 142 29 L 139 31 Q 140 33 138 32 Q 133 36 132 43 L 132 45 L 132 58 L 131 59 L 136 70 L 142 75 L 146 76 L 149 79 L 157 83 L 158 86 L 158 111 L 157 104 L 154 100 L 154 97 L 151 91 L 148 88 Q 149 84 146 85 L 145 82 Q 142 83 143 81 L 133 73 L 125 70 Q 118 68 108 69 L 104 66 Q 101 67 102 65 L 99 63 L 98 60 Q 99 56 96 57 L 95 54 Q 96 50 93 51 Q 91 46 92 36 L 88 31 L 88 28 Q 85 29 86 26 Q 82 27 80 24 L 71 24 Z " /><path fill="rgb(235,166,96)" stroke="rgb(235,166,96)" stroke-width="1" opacity="0.9764705882352941" d="M 117.5 79 Q 122.8 77.8 124 80.5 L 122.5 81 L 118.5 80 L 116 81 L 115 86.5 L 117.5 90 Q 126.2 92.8 131 99.5 L 135 107.5 L 134 107.5 Q 131.6 98.9 124.5 95 Q 117.8 92.8 114 87.5 Q 112.8 80.3 117.5 79 Z " /><path fill="rgb(235,166,96)" stroke="rgb(235,166,96)" stroke-width="1" opacity="0.9764705882352941" d="M 125.5 81 L 132.5 84 L 143 94.5 L 149 108.5 L 149 151.5 L 144.5 155 L 145.5 153 Q 147.8 153.8 147 151.5 L 148 150.5 L 148 111.5 Q 144.8 95.8 134.5 87 L 126.5 83 L 125.5 81 Z " /><path fill="rgb(235,166,96)" stroke="rgb(235,166,96)" stroke-width="1" opacity="0.9764705882352941" d="M 37.5 109 L 40 109.5 L 37.5 110 L 37.5 109 Z " /><path fill="rgb(235,166,96)" stroke="rgb(235,166,96)" stroke-width="1" opacity="0.9764705882352941" d="M 135.5 109 L 137 111.5 L 137 150.5 L 138 151.5 L 136 152 L 136 112.5 L 135.5 109 Z " /><path fill="rgb(235,166,96)" stroke="rgb(235,166,96)" stroke-width="1" opacity="0.9764705882352941" d="M 51.5 110 Q 53.8 109.3 53 111.5 L 50.5 117 L 50 113.5 Q 53.1 111.8 51.5 110 Z " /><path fill="rgb(235,166,96)" stroke="rgb(235,166,96)" stroke-width="1" opacity="0.9764705882352941" d="M 50.5 118 Q 51.3 123.3 55 125.5 L 50 121.5 L 50.5 118 Z " /><path fill="rgb(235,166,96)" stroke="rgb(235,166,96)" stroke-width="1" opacity="0.9764705882352941" d="M 155 152 Q 158.5 150.9 157 158.5 L 155 166.5 L 148.5 174 L 145.5 175 L 146.5 173 L 150 172 L 155 162.5 L 155 152 Z " /><path fill="rgb(235,166,96)" stroke="rgb(235,166,96)" stroke-width="1" opacity="0.9764705882352941" d="M 138.5 153 L 142 154.5 L 139.5 155 L 138.5 153 Z " /><path fill="rgb(235,166,96)" stroke="rgb(235,166,96)" stroke-width="1" opacity="0.9764705882352941" d="M 134.5 175 L 144 175.5 L 134.5 176 L 134.5 175 Z " /><path fill="rgb(162,105,83)" stroke="rgb(162,105,83)" stroke-width="1" opacity="0.8980392156862745" d="M 157.5 25 L 168.5 25 L 169 27 L 156 26.5 L 157.5 25 Z " /><path fill="rgb(162,105,83)" stroke="rgb(162,105,83)" stroke-width="1" opacity="0.8980392156862745" d="M 149.5 27 L 150 28.5 L 146 30 L 146.5 28 Q 148 30.5 149.5 27 Z " /><path fill="rgb(162,105,83)" stroke="rgb(162,105,83)" stroke-width="1" opacity="0.8980392156862745" d="M 172.5 27 Q 176.5 26.5 177 29.5 L 175.5 29 Q 171.8 28.7 172.5 27 Z " /><path fill="rgb(162,105,83)" stroke="rgb(162,105,83)" stroke-width="1" opacity="0.8980392156862745" d="M 178.5 30 L 180 32.5 L 178 31.5 L 178.5 30 Z " /><path fill="rgb(162,105,83)" stroke="rgb(162,105,83)" stroke-width="1" opacity="0.8980392156862745" d="M 143.5 31 L 141.5 34 Q 139.3 33.3 140 35.5 L 137.5 37 L 137.5 36 Q 139.8 36.8 139 34.5 L 143.5 31 Z " /><path fill="rgb(162,105,83)" stroke="rgb(162,105,83)" stroke-width="1" opacity="0.8980392156862745" d="M 181.5 34 L 182 36.5 L 181 36.5 L 181.5 34 Z " /><path fill="rgb(162,105,83)" stroke="rgb(162,105,83)" stroke-width="1" opacity="0.8980392156862745" d="M 136.5 38 L 137 39.5 L 134.5 43 L 134 41.5 L 136.5 38 Z " /><path fill="rgb(162,105,83)" stroke="rgb(162,105,83)" stroke-width="1" opacity="0.8980392156862745" d="M 182.5 39 L 184 41.5 L 182 42.5 L 182.5 39 Z " /><path fill="rgb(162,105,83)" stroke="rgb(162,105,83)" stroke-width="1" opacity="0.8980392156862745" d="M 132 45 L 134 45.5 L 134 57.5 L 132 56.5 L 132 45 Z " /><path fill="rgb(162,105,83)" stroke="rgb(162,105,83)" stroke-width="1" opacity="0.8980392156862745" d="M 181.5 46 L 179.5 49 L 179 47 L 181.5 46 Z " /><path fill="rgb(162,105,83)" stroke="rgb(162,105,83)" stroke-width="1" opacity="0.8980392156862745" d="M 178.5 50 L 177.5 52 L 175 53.5 Q 175.8 56.1 172.5 55 L 171.5 53 L 174.5 53 L 178.5 50 Z " /><path fill="rgb(162,105,83)" stroke="rgb(162,105,83)" stroke-width="1" opacity="0.8980392156862745" d="M 134.5 59 L 140 68.5 L 138 67.5 L 134 61.5 L 134.5 59 Z " /><path fill="rgb(162,105,83)" stroke="rgb(162,105,83)" stroke-width="1" opacity="0.8980392156862745" d="M 171.5 59 L 175 61.5 L 173.5 62 L 171.5 59 Z " /><path fill="rgb(162,105,83)" stroke="rgb(162,105,83)" stroke-width="1" opacity="0.8980392156862745" d="M 179.5 66 L 181 68.5 L 179 67.5 L 179.5 66 Z " /><path fill="rgb(162,105,83)" stroke="rgb(162,105,83)" stroke-width="1" opacity="0.8980392156862745" d="M 30.5 69 L 32 69.5 L 29.5 71 L 30.5 69 Z " /><path fill="rgb(162,105,83)" stroke="rgb(162,105,83)" stroke-width="1" opacity="0.8980392156862745" d="M 144.5 72 L 153 77.5 L 151.5 77 L 145.5 74 L 144.5 72 Z " /><path fill="rgb(162,105,83)" stroke="rgb(162,105,83)" stroke-width="1" opacity="0.8980392156862745" d="M 182.5 73 L 184 75.5 L 184 154.5 L 182 155.5 L 182.5 73 Z " /><path fill="rgb(162,105,83)" stroke="rgb(162,105,83)" stroke-width="1" opacity="0.8980392156862745" d="M 154.5 78 L 160 82.5 L 161 84.5 L 161 150.5 L 157.5 153 L 157.5 152 L 160 150.5 L 160 87.5 L 157.5 81 L 154.5 79 L 154.5 78 Z " /><path fill="rgb(162,105,83)" stroke="rgb(162,105,83)" stroke-width="1" opacity="0.8980392156862745" d="M 38.5 111 L 40 119.5 L 38 118.5 L 38.5 111 Z " /><path fill="rgb(162,105,83)" stroke="rgb(162,105,83)" stroke-width="1" opacity="0.8980392156862745" d="M 40.5 121 L 45 124.5 L 43.5 124 L 40.5 121 Z " /><path fill="rgb(162,105,83)" stroke="rgb(162,105,83)" stroke-width="1" opacity="0.8980392156862745" d="M 51.5 125 Q 53.8 124.3 53 126.5 L 51.5 125 Z " /><path fill="rgb(162,105,83)" stroke="rgb(162,105,83)" stroke-width="1" opacity="0.8980392156862745" d="M 181.5 159 L 182 160.5 L 181 165 Q 178 166.3 179 162.5 L 181.5 159 Z " /><path fill="rgb(162,105,83)" stroke="rgb(162,105,83)" stroke-width="1" opacity="0.8980392156862745" d="M 177.5 167 L 176.5 169 L 177.5 167 Z " /><path fill="rgb(162,105,83)" stroke="rgb(162,105,83)" stroke-width="1" opacity="0.8980392156862745" d="M 172.5 171 L 172 172.5 L 171.5 174 L 169.5 173 Q 168.1 175.6 163.5 175 L 163.5 174 L 166.5 174 L 172.5 171 Z " /><path fill="rgb(243,221,193)" stroke="rgb(243,221,193)" stroke-width="1" opacity="0.39215686274509803" d="M 71.5 24 Q 74.3 25.3 72 26.5 L 71 36 L 63.5 37 L 62.5 35 Q 68.8 36.3 70 32.5 Q 68.8 26.8 72 25.5 L 71.5 24 Z " /><path fill="rgb(243,221,193)" stroke="rgb(243,221,193)" stroke-width="1" opacity="0.39215686274509803" d="M 79.5 24 L 81 26.5 L 79.5 26 L 78 25.5 L 79.5 24 Z " /><path fill="rgb(243,221,193)" stroke="rgb(243,221,193)" stroke-width="1" opacity="0.39215686274509803" d="M 149.5 24 Q 152.5 25.5 149.5 27 Q 147.3 27.8 148 25.5 L 149.5 24 Z " /><path fill="rgb(243,221,193)" stroke="rgb(243,221,193)" stroke-width="1" opacity="0.39215686274509803" d="M 171.5 24 Q 173.8 23.3 173 25.5 L 171.5 24 Z " /><path fill="rgb(243,221,193)" stroke="rgb(243,221,193)" stroke-width="1" opacity="0.39215686274509803" d="M 83 26 L 86 26 Q 84.9 28.7 87.5 28 L 86.5 30 Q 83.9 30.7 85 28 L 83 28 L 83 26 Z " /><path fill="rgb(243,221,193)" stroke="rgb(243,221,193)" stroke-width="1" opacity="0.39215686274509803" d="M 177.5 26 L 179 28.5 L 177 27.5 L 177.5 26 Z " /><path fill="rgb(243,221,193)" stroke="rgb(243,221,193)" stroke-width="1" opacity="0.39215686274509803" d="M 142.5 27 L 144 30 L 140.5 32 Q 137.5 30.5 140.5 29 Q 143 29.7 142.5 27 Z " /><path fill="rgb(243,221,193)" stroke="rgb(243,221,193)" stroke-width="1" opacity="0.39215686274509803" d="M 180.5 30 L 183 31.5 L 181 32.5 L 180.5 30 Z " /><path fill="rgb(243,221,193)" stroke="rgb(243,221,193)" stroke-width="1" opacity="0.39215686274509803" d="M 87.5 31 L 90 32 L 92 36.5 L 90 37.5 L 90 34 Q 87.3 35.1 88 32.5 L 87.5 31 Z " /><path fill="rgb(243,221,193)" stroke="rgb(243,221,193)" stroke-width="1" opacity="0.39215686274509803" d="M 137.5 32 L 137 35.5 Q 137.8 38.1 134.5 37 L 135.5 35 L 137 34.5 Q 134.8 33.3 137.5 32 Z " /><path fill="rgb(243,221,193)" stroke="rgb(243,221,193)" stroke-width="1" opacity="0.39215686274509803" d="M 54 37 L 57 37.5 L 54.5 39 L 54 37 Z " /><path fill="rgb(243,221,193)" stroke="rgb(243,221,193)" stroke-width="1" opacity="0.39215686274509803" d="M 51 38 Q 54 37 53 40 Q 50 41 51 38 Z " /><path fill="rgb(243,221,193)" stroke="rgb(243,221,193)" stroke-width="1" opacity="0.39215686274509803" d="M 48.5 40 Q 51.1 39.3 50 42 L 46 44.5 Q 46.8 46.8 44.5 46 L 41 52 L 39 52.5 Q 41.5 54 38 55.5 L 31.5 67 L 30 64.5 L 32 64.5 Q 31.5 60 35 59.5 Q 32.8 58.3 35.5 57 L 37 56.5 L 37 54.5 L 39 50 Q 41.7 51.1 41 48.5 L 40.5 47 L 43.5 45 L 45 42 L 48.5 40 Z " /><path fill="rgb(243,221,193)" stroke="rgb(243,221,193)" stroke-width="1" opacity="0.39215686274509803" d="M 132.5 41 L 133 42.5 L 131 43.5 L 132.5 41 Z " /><path fill="rgb(243,221,193)" stroke="rgb(243,221,193)" stroke-width="1" opacity="0.39215686274509803" d="M 183.5 46 L 184.5 48 Q 181.7 48.7 183.5 46 Z " /><path fill="rgb(243,221,193)" stroke="rgb(243,221,193)" stroke-width="1" opacity="0.39215686274509803" d="M 181.5 48 L 182.5 50 L 181.5 48 Z " /><path fill="rgb(243,221,193)" stroke="rgb(243,221,193)" stroke-width="1" opacity="0.39215686274509803" d="M 180.5 50 L 181 53 L 178.5 54 L 178 52 Q 180.8 53 180.5 50 Z " /><path fill="rgb(243,221,193)" stroke="rgb(243,221,193)" stroke-width="1" opacity="0.39215686274509803" d="M 93 51 L 95 51.5 L 94 54 Q 97 52.8 96 56.5 L 97 60 L 99 60 L 99 63 Q 101.7 61.9 101 64.5 L 104 66.5 L 102.5 68 L 98 63.5 L 93 51 Z " /><path fill="rgb(243,221,193)" stroke="rgb(243,221,193)" stroke-width="1" opacity="0.39215686274509803" d="M 171.5 55 L 175 59.5 L 173.5 59 Q 170.9 59.8 172 56.5 L 170.5 57 L 169 56.5 L 171.5 55 Z " /><path fill="rgb(243,221,193)" stroke="rgb(243,221,193)" stroke-width="1" opacity="0.39215686274509803" d="M 176.5 60 L 180 61.5 Q 179.3 63.8 181.5 63 L 180.5 65 L 176.5 60 Z " /><path fill="rgb(243,221,193)" stroke="rgb(243,221,193)" stroke-width="1" opacity="0.39215686274509803" d="M 181 66 Q 184 65 183 68 Q 180 69 181 66 Z " /><path fill="rgb(243,221,193)" stroke="rgb(243,221,193)" stroke-width="1" opacity="0.39215686274509803" d="M 29.5 68 L 31 68.5 L 29 69 L 28.5 71 L 28 69.5 L 29.5 68 Z " /><path fill="rgb(243,221,193)" stroke="rgb(243,221,193)" stroke-width="1" opacity="0.39215686274509803" d="M 136.5 68 L 143 73.5 Q 141.5 76.5 140 73.5 Q 140.8 71.3 138.5 72 L 136.5 68 Z " /><path fill="rgb(243,221,193)" stroke="rgb(243,221,193)" stroke-width="1" opacity="0.39215686274509803" d="M 115.5 69 Q 122.4 67 121 71 L 115.5 70 L 115.5 69 Z " /><path fill="rgb(243,221,193)" stroke="rgb(243,221,193)" stroke-width="1" opacity="0.39215686274509803" d="M 182.5 69 L 185 69.5 Q 182.9 72.8 182.5 69 Z " /><path fill="rgb(243,221,193)" stroke="rgb(243,221,193)" stroke-width="1" opacity="0.39215686274509803" d="M 126.5 71 L 130 72 L 130.5 74 L 132.5 74 L 136 75 L 138.5 79 L 143 80 Q 141.9 82.7 144.5 82 L 148 86.5 L 145.5 87 L 140.5 81 L 132.5 75 L 128.5 74 L 126.5 71 Z " /><path fill="rgb(243,221,193)" stroke="rgb(243,221,193)" stroke-width="1" opacity="0.39215686274509803" d="M 26.5 72 Q 29.5 73.5 26.5 75 L 26.5 72 Z " /><path fill="rgb(243,221,193)" stroke="rgb(243,221,193)" stroke-width="1" opacity="0.39215686274509803" d="M 147.5 76 L 150 77 Q 151.1 79.7 148.5 79 L 147.5 76 Z " /><path fill="rgb(243,221,193)" stroke="rgb(243,221,193)" stroke-width="1" opacity="0.39215686274509803" d="M 26.5 77 L 28 80.5 L 26 81 L 26.5 77 Z " /><path fill="rgb(243,221,193)" stroke="rgb(243,221,193)" stroke-width="1" opacity="0.39215686274509803" d="M 151.5 78 L 153 80.5 L 151 79.5 L 151.5 78 Z " /><path fill="rgb(243,221,193)" stroke="rgb(243,221,193)" stroke-width="1" opacity="0.39215686274509803" d="M 28.5 83 Q 30.8 82.3 30 84.5 L 31 87 L 34 88.5 Q 33.3 90.8 35.5 90 L 43.5 94 L 66 94 L 65.5 97 L 63.5 95 L 40.5 95 L 30 89 L 28.5 83 Z " /><path fill="rgb(243,221,193)" stroke="rgb(243,221,193)" stroke-width="1" opacity="0.39215686274509803" d="M 147 88 L 150 89.5 L 153 97.5 L 152 97.5 L 147 88 Z " /><path fill="rgb(243,221,193)" stroke="rgb(243,221,193)" stroke-width="1" opacity="0.39215686274509803" d="M 36.5 98 L 39 99.5 L 37 100 Q 38.3 103 34.5 102 L 35 100.5 L 36.5 98 Z " /><path fill="rgb(243,221,193)" stroke="rgb(243,221,193)" stroke-width="1" opacity="0.39215686274509803" d="M 61 98 Q 64.8 96.5 64 99.5 L 66 102.5 L 62.5 100 Q 59.9 100.7 61 98 Z " /><path fill="rgb(243,221,193)" stroke="rgb(243,221,193)" stroke-width="1" opacity="0.39215686274509803" d="M 153 100 Q 155.7 98.9 155 101.5 L 157 104.5 L 155 105.5 L 154 103.5 L 154.5 102 Q 151.9 102.7 153 100 Z " /><path fill="rgb(243,221,193)" stroke="rgb(243,221,193)" stroke-width="1" opacity="0.39215686274509803" d="M 35.5 108 L 37 111 L 34 109.5 L 35.5 108 Z " /><path fill="rgb(243,221,193)" stroke="rgb(243,221,193)" stroke-width="1" opacity="0.39215686274509803" d="M 157.5 111 L 158 149.5 L 159 150.5 L 157 151 L 157 114.5 L 156 112.5 L 157.5 111 Z " /><path fill="rgb(243,221,193)" stroke="rgb(243,221,193)" stroke-width="1" opacity="0.39215686274509803" d="M 37.5 121 Q 40.8 119.9 40 122.5 L 43 124 Q 44.1 126.7 41.5 126 L 37.5 121 Z " /><path fill="rgb(243,221,193)" stroke="rgb(243,221,193)" stroke-width="1" opacity="0.39215686274509803" d="M 44.5 125 Q 47.5 126.5 44.5 128 L 44.5 125 Z " /><path fill="rgb(243,221,193)" stroke="rgb(243,221,193)" stroke-width="1" opacity="0.39215686274509803" d="M 63.5 127 L 66 128.5 Q 66.7 131.1 64 130 L 63.5 127 Z " /><path fill="rgb(243,221,193)" stroke="rgb(243,221,193)" stroke-width="1" opacity="0.39215686274509803" d="M 66.5 149 L 71 161.5 L 69 162 L 67 158.5 L 66.5 149 Z " /><path fill="rgb(243,221,193)" stroke="rgb(243,221,193)" stroke-width="1" opacity="0.39215686274509803" d="M 61.5 162 L 65 162.5 L 60 165 L 61.5 162 Z " /><path fill="rgb(243,221,193)" stroke="rgb(243,221,193)" stroke-width="1" opacity="0.39215686274509803" d="M 57.5 164 Q 60.8 165.8 57 167.5 L 56.5 169 L 55 166 Q 57.8 167 57.5 164 Z " /><path fill="rgb(243,221,193)" stroke="rgb(243,221,193)" stroke-width="1" opacity="0.39215686274509803" d="M 180.5 166 L 181 167.5 L 180 170 L 177 171.5 Q 177.7 174.1 175 173 L 180.5 166 Z " /><path fill="rgb(243,221,193)" stroke="rgb(243,221,193)" stroke-width="1" opacity="0.39215686274509803" d="M 163.5 176 Q 165.8 175.3 165 177.5 L 163.5 176 Z " /><path fill="rgb(236,185,132)" stroke="rgb(236,185,132)" stroke-width="1" opacity="0.615686274509804" d="M 73.5 25 Q 78.3 24.3 80 26.5 L 77.5 27 L 74.5 26 L 72.5 27 L 73.5 25 Z " /><path fill="rgb(236,185,132)" stroke="rgb(236,185,132)" stroke-width="1" opacity="0.615686274509804" d="M 151.5 25 L 154 25.5 L 150.5 27 L 151.5 25 Z " /><path fill="rgb(236,185,132)" stroke="rgb(236,185,132)" stroke-width="1" opacity="0.615686274509804" d="M 171.5 25 L 172.5 27 L 171.5 25 Z " /><path fill="rgb(236,185,132)" stroke="rgb(236,185,132)" stroke-width="1" opacity="0.615686274509804" d="M 81.5 26 L 85 28 L 85 30 Q 87.7 28.9 87 31.5 L 88 34 Q 91 32.8 90 36.5 L 89 36.5 L 81.5 26 Z " /><path fill="rgb(236,185,132)" stroke="rgb(236,185,132)" stroke-width="1" opacity="0.615686274509804" d="M 182.5 36 L 183.5 38 L 182.5 36 Z " /><path fill="rgb(236,185,132)" stroke="rgb(236,185,132)" stroke-width="1" opacity="0.615686274509804" d="M 57.5 37 L 63 37.5 Q 56.2 37.4 53 40 L 53.5 38 L 55.5 38 L 57.5 37 Z " /><path fill="rgb(236,185,132)" stroke="rgb(236,185,132)" stroke-width="1" opacity="0.615686274509804" d="M 90.5 38 L 91 42.5 L 90 42.5 L 90.5 38 Z " /><path fill="rgb(236,185,132)" stroke="rgb(236,185,132)" stroke-width="1" opacity="0.615686274509804" d="M 50 40 L 52 40.5 L 47 44.5 L 46.5 46 L 46 44.5 L 50 42 L 50 40 Z " /><path fill="rgb(236,185,132)" stroke="rgb(236,185,132)" stroke-width="1" opacity="0.615686274509804" d="M 183.5 44 L 184 45.5 L 182 46.5 L 183.5 44 Z " /><path fill="rgb(236,185,132)" stroke="rgb(236,185,132)" stroke-width="1" opacity="0.615686274509804" d="M 44.5 46 L 44 47.5 L 40.5 53 L 41 51.5 L 44.5 46 Z " /><path fill="rgb(236,185,132)" stroke="rgb(236,185,132)" stroke-width="1" opacity="0.615686274509804" d="M 91.5 50 Q 94.5 49.1 93 53.5 L 93.5 55 L 91.5 50 Z " /><path fill="rgb(236,185,132)" stroke="rgb(236,185,132)" stroke-width="1" opacity="0.615686274509804" d="M 39.5 54 L 38.5 56 L 39.5 54 Z " /><path fill="rgb(236,185,132)" stroke="rgb(236,185,132)" stroke-width="1" opacity="0.615686274509804" d="M 94.5 56 L 97 60.5 L 95 59.5 L 94.5 56 Z " /><path fill="rgb(236,185,132)" stroke="rgb(236,185,132)" stroke-width="1" opacity="0.615686274509804" d="M 169.5 57 L 172 58.5 L 170.5 58 L 169.5 57 Z " /><path fill="rgb(236,185,132)" stroke="rgb(236,185,132)" stroke-width="1" opacity="0.615686274509804" d="M 36.5 59 L 37 60.5 L 34 62.5 L 36.5 59 Z " /><path fill="rgb(236,185,132)" stroke="rgb(236,185,132)" stroke-width="1" opacity="0.615686274509804" d="M 173.5 59 L 174.5 61 L 173.5 59 Z " /><path fill="rgb(236,185,132)" stroke="rgb(236,185,132)" stroke-width="1" opacity="0.615686274509804" d="M 97.5 62 L 102 67.5 L 97 63.5 L 97.5 62 Z " /><path fill="rgb(236,185,132)" stroke="rgb(236,185,132)" stroke-width="1" opacity="0.615686274509804" d="M 178.5 63 L 180.5 66 L 178.5 63 Z " /><path fill="rgb(236,185,132)" stroke="rgb(236,185,132)" stroke-width="1" opacity="0.615686274509804" d="M 33.5 64 L 33 65.5 L 31.5 68 L 32 66.5 L 33.5 64 Z " /><path fill="rgb(236,185,132)" stroke="rgb(236,185,132)" stroke-width="1" opacity="0.615686274509804" d="M 103.5 68 L 104.5 69 L 114.5 69 L 116 70.5 L 112.5 71 Q 110.8 68.2 104.5 70 L 103.5 68 Z " /><path fill="rgb(236,185,132)" stroke="rgb(236,185,132)" stroke-width="1" opacity="0.615686274509804" d="M 182.5 70 L 183.5 72 L 182.5 70 Z " /><path fill="rgb(236,185,132)" stroke="rgb(236,185,132)" stroke-width="1" opacity="0.615686274509804" d="M 121.5 71 L 128 73.5 L 126.5 74 L 121.5 72 L 121.5 71 Z " /><path fill="rgb(236,185,132)" stroke="rgb(236,185,132)" stroke-width="1" opacity="0.615686274509804" d="M 141.5 71 L 143.5 74 L 141.5 71 Z " /><path fill="rgb(236,185,132)" stroke="rgb(236,185,132)" stroke-width="1" opacity="0.615686274509804" d="M 131.5 75 L 139 80.5 L 137.5 80 Q 132.2 78.3 131.5 75 Z " /><path fill="rgb(236,185,132)" stroke="rgb(236,185,132)" stroke-width="1" opacity="0.615686274509804" d="M 147.5 75 L 148.5 77 L 147.5 75 Z " /><path fill="rgb(236,185,132)" stroke="rgb(236,185,132)" stroke-width="1" opacity="0.615686274509804" d="M 140.5 81 L 143.5 85 L 140.5 81 Z " /><path fill="rgb(236,185,132)" stroke="rgb(236,185,132)" stroke-width="1" opacity="0.615686274509804" d="M 144.5 86 L 147 87 L 146.5 89 L 144.5 86 Z " /><path fill="rgb(236,185,132)" stroke="rgb(236,185,132)" stroke-width="1" opacity="0.615686274509804" d="M 147.5 90 L 149.5 93 Q 147.3 93.8 148 91.5 L 147.5 90 Z " /><path fill="rgb(236,185,132)" stroke="rgb(236,185,132)" stroke-width="1" opacity="0.615686274509804" d="M 150.5 94 L 153 99.5 L 152 99.5 L 150.5 94 Z " /><path fill="rgb(236,185,132)" stroke="rgb(236,185,132)" stroke-width="1" opacity="0.615686274509804" d="M 66.5 96 L 67 100.5 L 66 100.5 L 66.5 96 Z " /><path fill="rgb(236,185,132)" stroke="rgb(236,185,132)" stroke-width="1" opacity="0.615686274509804" d="M 39.5 99 L 60.5 99 L 65 102.5 L 64.5 104 L 62.5 101 L 60.5 100 L 39.5 100 L 37.5 101 L 37.5 100 L 39.5 99 Z " /><path fill="rgb(236,185,132)" stroke="rgb(236,185,132)" stroke-width="1" opacity="0.615686274509804" d="M 35 102 L 37 102.5 L 36 107.5 L 36.5 109 Q 33.5 107.4 35 102 Z " /><path fill="rgb(236,185,132)" stroke="rgb(236,185,132)" stroke-width="1" opacity="0.615686274509804" d="M 154.5 104 Q 157.1 106.4 156 112.5 L 155 112.5 L 154.5 104 Z " /><path fill="rgb(236,185,132)" stroke="rgb(236,185,132)" stroke-width="1" opacity="0.615686274509804" d="M 45.5 125 L 46.5 127 L 45.5 125 Z " /><path fill="rgb(236,185,132)" stroke="rgb(236,185,132)" stroke-width="1" opacity="0.615686274509804" d="M 53.5 126 L 65 126.5 L 53.5 127 L 53.5 126 Z " /><path fill="rgb(236,185,132)" stroke="rgb(236,185,132)" stroke-width="1" opacity="0.615686274509804" d="M 66.5 130 L 67 148.5 L 66 148.5 L 66.5 130 Z " /><path fill="rgb(236,185,132)" stroke="rgb(236,185,132)" stroke-width="1" opacity="0.615686274509804" d="M 183.5 158 L 182.5 160 L 183.5 158 Z " /><path fill="rgb(236,185,132)" stroke="rgb(236,185,132)" stroke-width="1" opacity="0.615686274509804" d="M 65.5 162 L 70 162.5 L 62.5 165 L 63.5 163 L 65.5 162 Z " /><path fill="rgb(236,185,132)" stroke="rgb(236,185,132)" stroke-width="1" opacity="0.615686274509804" d="M 59.5 165 L 61 165.5 L 59 166 Q 60.1 168.7 57.5 168 L 59.5 165 Z " /><path fill="rgb(236,185,132)" stroke="rgb(236,185,132)" stroke-width="1" opacity="0.615686274509804" d="M 180.5 165 L 179.5 167 L 180.5 165 Z " /><path fill="rgb(236,185,132)" stroke="rgb(236,185,132)" stroke-width="1" opacity="0.615686274509804" d="M 56.5 175 L 132.5 175 L 133.5 176 L 144 176.5 L 57.5 177 L 56.5 175 Z " /><path fill="rgb(236,185,132)" stroke="rgb(236,185,132)" stroke-width="1" opacity="0.615686274509804" d="M 163.5 175 L 162.5 177 L 160 176.5 L 163.5 175 Z " /><path fill="rgb(180,129,105)" stroke="rgb(180,129,105)" stroke-width="1" opacity="0.792156862745098" d="M 154.5 25 L 157 25.5 Q 156 28 151.5 27 L 151.5 26 L 154.5 25 Z " /><path fill="rgb(180,129,105)" stroke="rgb(180,129,105)" stroke-width="1" opacity="0.792156862745098" d="M 169 25 L 172 26.5 L 169 27 L 169 25 Z " /><path fill="rgb(180,129,105)" stroke="rgb(180,129,105)" stroke-width="1" opacity="0.792156862745098" d="M 148.5 27 L 147.5 29 L 148.5 27 Z " /><path fill="rgb(180,129,105)" stroke="rgb(180,129,105)" stroke-width="1" opacity="0.792156862745098" d="M 175.5 27 L 178 28 L 177.5 30 L 175.5 27 Z " /><path fill="rgb(180,129,105)" stroke="rgb(180,129,105)" stroke-width="1" opacity="0.792156862745098" d="M 145.5 28 L 146 30 L 141.5 33 L 141 31 L 145.5 28 Z " /><path fill="rgb(180,129,105)" stroke="rgb(180,129,105)" stroke-width="1" opacity="0.792156862745098" d="M 179.5 30 L 182 33.5 L 180 32.5 L 179.5 30 Z " /><path fill="rgb(180,129,105)" stroke="rgb(180,129,105)" stroke-width="1" opacity="0.792156862745098" d="M 135 37 L 137 37.5 L 134.5 41 L 135 39.5 L 135 37 Z " /><path fill="rgb(180,129,105)" stroke="rgb(180,129,105)" stroke-width="1" opacity="0.792156862745098" d="M 182.5 37 L 184 39.5 L 182 38.5 L 182.5 37 Z " /><path fill="rgb(180,129,105)" stroke="rgb(180,129,105)" stroke-width="1" opacity="0.792156862745098" d="M 183.5 42 L 184 43.5 L 182.5 46 L 182 43.5 L 183.5 42 Z " /><path fill="rgb(180,129,105)" stroke="rgb(180,129,105)" stroke-width="1" opacity="0.792156862745098" d="M 133.5 43 L 134 45 L 132 44.5 L 133.5 43 Z " /><path fill="rgb(180,129,105)" stroke="rgb(180,129,105)" stroke-width="1" opacity="0.792156862745098" d="M 181.5 47 L 181 48.5 Q 181.8 50.8 179.5 50 L 181.5 47 Z " /><path fill="rgb(180,129,105)" stroke="rgb(180,129,105)" stroke-width="1" opacity="0.792156862745098" d="M 178.5 51 L 177.5 53 L 176 52.5 L 178.5 51 Z " /><path fill="rgb(180,129,105)" stroke="rgb(180,129,105)" stroke-width="1" opacity="0.792156862745098" d="M 170.5 54 L 172 54.5 L 169 56.5 L 168.5 58 L 167 55 L 170.5 54 Z " /><path fill="rgb(180,129,105)" stroke="rgb(180,129,105)" stroke-width="1" opacity="0.792156862745098" d="M 132.5 57 L 133.5 59 Q 130.7 59.7 132.5 57 Z " /><path fill="rgb(180,129,105)" stroke="rgb(180,129,105)" stroke-width="1" opacity="0.792156862745098" d="M 172.5 59 L 173.5 61 L 172.5 59 Z " /><path fill="rgb(180,129,105)" stroke="rgb(180,129,105)" stroke-width="1" opacity="0.792156862745098" d="M 175.5 61 L 178 62 L 181 67.5 L 180 67.5 L 175.5 61 Z " /><path fill="rgb(180,129,105)" stroke="rgb(180,129,105)" stroke-width="1" opacity="0.792156862745098" d="M 134.5 62 L 136 64.5 L 135 64.5 L 134.5 62 Z " /><path fill="rgb(180,129,105)" stroke="rgb(180,129,105)" stroke-width="1" opacity="0.792156862745098" d="M 142.5 71 L 144.5 74 L 142.5 71 Z " /><path fill="rgb(180,129,105)" stroke="rgb(180,129,105)" stroke-width="1" opacity="0.792156862745098" d="M 182.5 71 L 184 74.5 L 183 74.5 L 182.5 71 Z " /><path fill="rgb(180,129,105)" stroke="rgb(180,129,105)" stroke-width="1" opacity="0.792156862745098" d="M 27.5 74 L 28 78.5 L 27 78.5 L 27.5 74 Z " /><path fill="rgb(180,129,105)" stroke="rgb(180,129,105)" stroke-width="1" opacity="0.792156862745098" d="M 148.5 75 L 149.5 77 L 148.5 75 Z " /><path fill="rgb(180,129,105)" stroke="rgb(180,129,105)" stroke-width="1" opacity="0.792156862745098" d="M 153.5 78 L 156 79.5 L 153 80 L 153.5 78 Z " /><path fill="rgb(180,129,105)" stroke="rgb(180,129,105)" stroke-width="1" opacity="0.792156862745098" d="M 157.5 81 L 158.5 83 L 157.5 81 Z " /><path fill="rgb(180,129,105)" stroke="rgb(180,129,105)" stroke-width="1" opacity="0.792156862745098" d="M 159.5 87 L 160 150.5 L 159 150.5 L 159.5 87 Z " /><path fill="rgb(180,129,105)" stroke="rgb(180,129,105)" stroke-width="1" opacity="0.792156862745098" d="M 37.5 110 L 38 115.5 L 37 115.5 L 37.5 110 Z " /><path fill="rgb(180,129,105)" stroke="rgb(180,129,105)" stroke-width="1" opacity="0.792156862745098" d="M 38.5 119 L 39.5 121 L 38.5 119 Z " /><path fill="rgb(180,129,105)" stroke="rgb(180,129,105)" stroke-width="1" opacity="0.792156862745098" d="M 183.5 155 L 184 157.5 L 182 158.5 L 183.5 155 Z " /><path fill="rgb(180,129,105)" stroke="rgb(180,129,105)" stroke-width="1" opacity="0.792156862745098" d="M 179.5 165 L 179 166.5 L 177.5 169 L 178 167.5 L 179.5 165 Z " /><path fill="rgb(180,129,105)" stroke="rgb(180,129,105)" stroke-width="1" opacity="0.792156862745098" d="M 173.5 171 L 172.5 173 L 173.5 171 Z " /><path fill="rgb(180,129,105)" stroke="rgb(180,129,105)" stroke-width="1" opacity="0.792156862745098" d="M 169.5 173 L 171 173.5 L 167.5 175 L 167.5 174 L 169.5 173 Z " /><path fill="rgb(180,129,105)" stroke="rgb(180,129,105)" stroke-width="1" opacity="0.792156862745098" d="M 144 175 L 163 175.5 L 159.5 177 L 144 177 L 144 175 Z " /><path fill="rgb(165,105,83)" stroke="rgb(165,105,83)" stroke-width="1" opacity="1" d="M 150 27 L 171.5 27 L 178 30 L 179.5 33 Q 182.5 32.1 181 36.5 L 182 37.5 L 182 45.5 L 179 47 L 177.5 51 L 167 55 L 169.5 59 L 173.5 62 L 176 62 Q 174.9 64.7 177.5 64 L 182 71.5 L 182 158.5 L 179 162.5 L 179 165.5 L 173.5 171 L 162.5 175 L 147.5 175 L 147.5 174 L 153 169.5 L 156 164.5 L 157 153 L 161 150.5 L 161 84.5 L 155.5 78 L 143.5 72 L 139 67.5 L 134 58.5 L 134 43.5 Q 137.6 41.6 137 37 L 140 35.5 Q 139.3 33.3 141.5 34 L 144 30 Q 148.6 31.3 150 28.5 L 150 27 Z " /><path fill="rgb(165,105,83)" stroke="rgb(165,105,83)" stroke-width="1" opacity="1" d="M 53.5 63 L 58 64.5 L 56.5 65 L 53.5 64 L 52 64.5 L 53.5 63 Z " /><path fill="rgb(165,105,83)" stroke="rgb(165,105,83)" stroke-width="1" opacity="1" d="M 49.5 68 L 50 70.5 L 49 70.5 L 49.5 68 Z " /><path fill="rgb(165,105,83)" stroke="rgb(165,105,83)" stroke-width="1" opacity="1" d="M 32.5 69 Q 34.8 68.3 34 70.5 L 32.5 69 Z " /><path fill="rgb(165,105,83)" stroke="rgb(165,105,83)" stroke-width="1" opacity="1" d="M 35.5 71 L 37 73.5 L 36 73.5 L 35.5 71 Z " /><path fill="rgb(165,105,83)" stroke="rgb(165,105,83)" stroke-width="1" opacity="1" d="M 59.5 72 L 58.5 74 L 59.5 72 Z " /><path fill="rgb(165,105,83)" stroke="rgb(165,105,83)" stroke-width="1" opacity="1" d="M 36.5 78 L 37 79.5 L 35 80.5 L 36.5 78 Z " /><path fill="rgb(165,105,83)" stroke="rgb(165,105,83)" stroke-width="1" opacity="1" d="M 118.5 80 Q 131.5 82 138 90.5 Q 145.8 98.2 148 111.5 L 148 150.5 L 147 153 L 142.5 155 L 138 153 L 137 150.5 L 137 111.5 L 134 103.5 L 125.5 94 L 116 88.5 L 115 84.5 L 116 81 L 118.5 80 Z " /><path fill="rgb(165,105,83)" stroke="rgb(165,105,83)" stroke-width="1" opacity="1" d="M 33.5 81 L 34 83 L 31 82.5 L 33.5 81 Z " /><path fill="rgb(165,105,83)" stroke="rgb(165,105,83)" stroke-width="1" opacity="1" d="M 38.5 110 L 50.5 110 L 52 111.5 L 50 113.5 L 49.5 121 Q 47 120 48 115.5 L 51 111.5 L 38.5 111 L 38.5 110 Z " /><path fill="rgb(165,105,83)" stroke="rgb(165,105,83)" stroke-width="1" opacity="1" d="M 50.5 122 L 52.5 125 L 50 123.5 L 50.5 122 Z " /><path fill="rgb(68,50,42)" stroke="rgb(68,50,42)" stroke-width="1" opacity="0.9803921568627451" d="M 53.5 64 L 59 65 L 60 71.5 Q 58.3 74.8 53.5 75 L 50 72.5 Q 48.5 66.5 51.5 65 L 53.5 64 Z " /><path fill="rgb(68,50,42)" stroke="rgb(68,50,42)" stroke-width="1" opacity="0.9803921568627451" d="M 30.5 70 L 36 72.5 L 37 77.5 L 34.5 81 L 28 82 L 28 71.5 L 29.5 71 L 30.5 70 Z " /><path fill="rgb(68,50,42)" stroke="rgb(68,50,42)" stroke-width="1" opacity="0.9803921568627451" d="M 39 111 L 51 111.5 Q 47.1 113.1 48 119.5 L 52 126.5 L 48 127 Q 49.3 124 45.5 125 L 40 120.5 L 39 111 Z " /><path fill="rgb(242,173,97)" stroke="rgb(242,173,97)" stroke-width="1" opacity="0.996078431372549" d="M 74.5 26 L 81.5 27 L 87 32.5 L 90 37.5 L 92 53.5 L 97 63.5 L 101.5 68 L 104.5 70 L 120.5 71 L 128.5 74 L 144 85.5 L 148 91.5 L 146.5 92 L 145 88 Q 142.3 89.1 143 86.5 L 140 85 L 138.5 82 L 136.5 82 L 129.5 76 L 123 75 Q 124.3 71.3 118.5 73 L 117.5 72 L 104.5 72 L 99 69 L 97.5 66 Q 94.9 66.8 96 63.5 L 95 60 Q 92 61.3 93 57.5 L 92 54 Q 89 55.3 90 51.5 L 89 50.5 L 89 38 Q 86 39.3 87 35.5 L 86 33 Q 83 34.3 84 30.5 L 82.5 29 L 74.5 28 L 73 29.5 L 73 37 L 65.5 39 L 57 39 Q 58.3 42 54.5 41 L 51 42 Q 52.1 44.7 49.5 44 L 48 47 L 45 48.5 L 40.5 57 Q 37.9 56.2 39 59.5 L 38 63 L 35 64.5 Q 36.1 67.8 33.5 67 L 34.5 70 L 31 68.5 L 45.5 46 Q 47.8 46.8 47 44.5 L 57.5 38 L 70.5 37 L 72 35.5 L 72 27.5 L 73.5 27 L 74.5 26 Z " /><path fill="rgb(242,173,97)" stroke="rgb(242,173,97)" stroke-width="1" opacity="0.996078431372549" d="M 52.5 63 L 51.5 65 L 52.5 63 Z " /><path fill="rgb(242,173,97)" stroke="rgb(242,173,97)" stroke-width="1" opacity="0.996078431372549" d="M 48.5 68 L 49 70.5 L 48 70.5 L 48.5 68 Z " /><path fill="rgb(242,173,97)" stroke="rgb(242,173,97)" stroke-width="1" opacity="0.996078431372549" d="M 37.5 74 L 38 77.5 L 37 77.5 L 37.5 74 Z " /><path fill="rgb(242,173,97)" stroke="rgb(242,173,97)" stroke-width="1" opacity="0.996078431372549" d="M 53.5 75 L 57 75.5 L 53.5 76 L 53.5 75 Z " /><path fill="rgb(242,173,97)" stroke="rgb(242,173,97)" stroke-width="1" opacity="0.996078431372549" d="M 115.5 79 L 117 79.5 L 114 81.5 L 115.5 79 Z " /><path fill="rgb(242,173,97)" stroke="rgb(242,173,97)" stroke-width="1" opacity="0.996078431372549" d="M 123.5 79 L 128 81.5 L 126.5 81 Q 122.7 81.5 123.5 79 Z " /><path fill="rgb(242,173,97)" stroke="rgb(242,173,97)" stroke-width="1" opacity="0.996078431372549" d="M 130.5 82 L 133 83.5 L 131.5 84 L 130.5 82 Z " /><path fill="rgb(242,173,97)" stroke="rgb(242,173,97)" stroke-width="1" opacity="0.996078431372549" d="M 134.5 85 L 139 88.5 L 138.5 90 L 134.5 85 Z " /><path fill="rgb(242,173,97)" stroke="rgb(242,173,97)" stroke-width="1" opacity="0.996078431372549" d="M 114.5 88 L 117.5 92 L 114 90 L 114.5 88 Z " /><path fill="rgb(242,173,97)" stroke="rgb(242,173,97)" stroke-width="1" opacity="0.996078431372549" d="M 140.5 91 L 141.5 93 L 140.5 91 Z " /><path fill="rgb(242,173,97)" stroke="rgb(242,173,97)" stroke-width="1" opacity="0.996078431372549" d="M 120.5 93 L 123 94.5 L 121.5 94 L 120.5 93 Z " /><path fill="rgb(242,173,97)" stroke="rgb(242,173,97)" stroke-width="1" opacity="0.996078431372549" d="M 148 93 Q 151 91.8 150 95.5 L 153 100.5 L 156 113.5 L 156 151.5 L 155 151.5 L 155 114.5 L 153 113.5 L 153 105.5 Q 150 103.3 151 98 Q 148 99.3 149 95.5 L 148 93 Z " /><path fill="rgb(242,173,97)" stroke="rgb(242,173,97)" stroke-width="1" opacity="0.996078431372549" d="M 143.5 94 L 148 105.5 L 147 105.5 Q 146.7 99.3 143 96.5 L 143.5 94 Z " /><path fill="rgb(242,173,97)" stroke="rgb(242,173,97)" stroke-width="1" opacity="0.996078431372549" d="M 124.5 95 L 132 103.5 L 131 103.5 L 129.5 101 Q 127.3 101.8 128 99.5 L 124 97 L 124.5 95 Z " /><path fill="rgb(242,173,97)" stroke="rgb(242,173,97)" stroke-width="1" opacity="0.996078431372549" d="M 39.5 100 L 60.5 100 L 64 102.5 L 65 104.5 L 63.5 104 Q 61.3 104.8 62 102.5 L 60.5 101 L 39 101 L 38 108 L 41 109.5 L 39.5 109 L 36 107.5 L 37 101 L 39.5 100 Z " /><path fill="rgb(242,173,97)" stroke="rgb(242,173,97)" stroke-width="1" opacity="0.996078431372549" d="M 133.5 106 L 136 113.5 L 134 112.5 L 133.5 106 Z " /><path fill="rgb(242,173,97)" stroke="rgb(242,173,97)" stroke-width="1" opacity="0.996078431372549" d="M 53.5 110 L 54 113 L 52 112.5 L 53.5 110 Z " /><path fill="rgb(242,173,97)" stroke="rgb(242,173,97)" stroke-width="1" opacity="0.996078431372549" d="M 52.5 122 L 54 122 L 54.5 124 L 64.5 124 L 66 126.5 L 64.5 126 Q 53.2 128.3 52.5 122 Z " /><path fill="rgb(242,173,97)" stroke="rgb(242,173,97)" stroke-width="1" opacity="0.996078431372549" d="M 136 152 Q 139 151 138 154 Q 135 155 136 152 Z " /><path fill="rgb(242,173,97)" stroke="rgb(242,173,97)" stroke-width="1" opacity="0.996078431372549" d="M 148.5 152 L 149 154 L 147 153.5 L 148.5 152 Z " /><path fill="rgb(242,173,97)" stroke="rgb(242,173,97)" stroke-width="1" opacity="0.996078431372549" d="M 140.5 155 L 146 155.5 L 140.5 156 L 140.5 155 Z " /><path fill="rgb(242,173,97)" stroke="rgb(242,173,97)" stroke-width="1" opacity="0.996078431372549" d="M 66.5 163 L 71 163.5 L 66.5 164 L 66.5 163 Z " /><path fill="rgb(242,173,97)" stroke="rgb(242,173,97)" stroke-width="1" opacity="0.996078431372549" d="M 63.5 164 L 64 165.5 L 60 167 Q 61 170 58 169 L 58 174 L 143.5 174 L 149.5 170 L 150 172 L 144.5 175 L 134.5 175 L 133.5 176 L 132.5 175 L 56 175 L 57 168 L 59 168 Q 57.9 165.3 60.5 166 L 63.5 164 Z " /><path fill="rgb(242,173,97)" stroke="rgb(242,173,97)" stroke-width="1" opacity="0.996078431372549" d="M 153.5 164 L 154 165.5 L 151.5 169 L 151 167.5 L 153.5 164 Z " /><path fill="rgb(243,173,97)" stroke="rgb(243,173,97)" stroke-width="1" opacity="1" d="M 74.5 28 L 82.5 29 L 84 30.5 L 84 33 Q 86.7 31.9 86 34.5 L 87 38 L 89 38.5 L 89 50.5 L 90 54 Q 93 52.8 92 56.5 L 93 60 Q 96 58.8 95 62.5 L 96 66 L 99 67.5 Q 98.3 69.8 100.5 69 L 104.5 72 L 117.5 72 L 123 73 Q 121.7 76.3 126.5 75 L 140 83.5 Q 139.3 85.8 141.5 85 L 143 88 Q 146 86.8 145 90.5 L 148 92 L 149 98 Q 152.7 96.7 151 102.5 Q 154.8 105.8 153 114 L 155 114.5 L 155 162.5 L 151 167.5 L 151 170 L 143.5 174 L 58 174 L 58 169 Q 61 170 60 167 L 62.5 167 L 64 164 Q 71.4 162.4 74.5 166 L 94.5 166 L 96 164.5 L 96 117.5 Q 94.3 114.3 92.5 118 L 81.5 124 L 66.5 124 L 65.5 125 L 64.5 124 L 54 124 L 54 122 Q 51.3 123.1 52 120.5 Q 49.8 119.2 51 114.5 L 54 113 L 53.5 110 L 41.5 110 L 38 108 L 39 101 L 60.5 101 L 62 102.5 Q 61.3 104.8 63.5 104 L 67.5 111 Q 75.7 107.7 80 100.5 L 80 79.5 Q 78.8 73.8 74.5 71 L 69 69 Q 70.3 59.1 64.5 55 Q 61.6 51.4 53.5 53 L 47 59.5 L 47 62.5 L 44 68 L 34.5 69 L 33.5 67 Q 36.1 67.8 35 64.5 L 38 63 L 39 57 L 42 55.5 L 46.5 47 Q 48.8 47.8 48 45.5 L 51 44 Q 49.8 41 53.5 42 L 57 41 L 57.5 39 L 65.5 39 L 73 37 L 73 29.5 L 74.5 28 Z M 116 79 L 114 81 L 114 90 L 118 92 Q 121 91 120 94 L 123 95 Q 125 94 124 97 L 128 100 Q 127 102 130 101 L 133 106 L 134 113 L 136 115 L 136 154 Q 139 153 141 156 L 146 156 Q 145 153 149 154 L 149 108 L 147 101 L 144 97 L 144 94 Q 141 95 142 93 L 139 91 Q 140 86 136 85 Q 132 86 133 84 L 124 79 L 116 79 Z " /><path fill="rgb(156,139,129)" stroke="rgb(156,139,129)" stroke-width="1" opacity="0.13725490196078433" d="M 72.5 24 L 79 24.5 L 72.5 25 L 70.5 27 L 72.5 24 Z " /><path fill="rgb(156,139,129)" stroke="rgb(156,139,129)" stroke-width="1" opacity="0.13725490196078433" d="M 150.5 24 L 171 24.5 L 150.5 25 L 150.5 24 Z " /><path fill="rgb(156,139,129)" stroke="rgb(156,139,129)" stroke-width="1" opacity="0.13725490196078433" d="M 81.5 25 L 82.5 27 L 81.5 25 Z " /><path fill="rgb(156,139,129)" stroke="rgb(156,139,129)" stroke-width="1" opacity="0.13725490196078433" d="M 173.5 25 L 177 26.5 L 173 27 L 173.5 25 Z " /><path fill="rgb(156,139,129)" stroke="rgb(156,139,129)" stroke-width="1" opacity="0.13725490196078433" d="M 146.5 26 Q 149.1 25.3 148 28 L 143 27.5 L 146.5 26 Z " /><path fill="rgb(156,139,129)" stroke="rgb(156,139,129)" stroke-width="1" opacity="0.13725490196078433" d="M 179.5 28 L 181.5 31 L 179 30 L 179.5 28 Z " /><path fill="rgb(156,139,129)" stroke="rgb(156,139,129)" stroke-width="1" opacity="0.13725490196078433" d="M 87.5 29 L 89 31.5 L 87 30.5 L 87.5 29 Z " /><path fill="rgb(156,139,129)" stroke="rgb(156,139,129)" stroke-width="1" opacity="0.13725490196078433" d="M 140.5 30 L 140 31.5 Q 141.3 35.3 137.5 34 L 136 34.5 L 140.5 30 Z " /><path fill="rgb(156,139,129)" stroke="rgb(156,139,129)" stroke-width="1" opacity="0.13725490196078433" d="M 182.5 32 L 185 36.5 L 185 46.5 L 184 46.5 L 184 36.5 Q 180.6 37.3 182.5 32 Z " /><path fill="rgb(156,139,129)" stroke="rgb(156,139,129)" stroke-width="1" opacity="0.13725490196078433" d="M 54.5 36 L 63 36.5 L 54.5 37 L 54.5 36 Z " /><path fill="rgb(156,139,129)" stroke="rgb(156,139,129)" stroke-width="1" opacity="0.13725490196078433" d="M 91.5 37 L 92 47.5 L 93 48.5 L 91 47.5 L 91.5 37 Z " /><path fill="rgb(156,139,129)" stroke="rgb(156,139,129)" stroke-width="1" opacity="0.13725490196078433" d="M 134.5 37 L 135 38.5 L 133.5 42 L 133 38.5 L 134.5 37 Z " /><path fill="rgb(156,139,129)" stroke="rgb(156,139,129)" stroke-width="1" opacity="0.13725490196078433" d="M 48.5 39 L 51 39.5 L 48.5 40 L 48.5 39 Z " /><path fill="rgb(156,139,129)" stroke="rgb(156,139,129)" stroke-width="1" opacity="0.13725490196078433" d="M 182.5 47 L 183 48.5 L 181.5 52 L 181 49.5 L 182.5 47 Z " /><path fill="rgb(156,139,129)" stroke="rgb(156,139,129)" stroke-width="1" opacity="0.13725490196078433" d="M 176.5 53 L 178 53.5 L 172 56 L 171.5 58 L 171 56.5 L 176.5 53 Z " /><path fill="rgb(156,139,129)" stroke="rgb(156,139,129)" stroke-width="1" opacity="0.13725490196078433" d="M 97.5 57 L 98 59.5 L 97 59.5 L 97.5 57 Z " /><path fill="rgb(156,139,129)" stroke="rgb(156,139,129)" stroke-width="1" opacity="0.13725490196078433" d="M 174.5 58 L 176 60.5 L 175 60.5 L 174.5 58 Z " /><path fill="rgb(156,139,129)" stroke="rgb(156,139,129)" stroke-width="1" opacity="0.13725490196078433" d="M 34.5 59 L 32.5 62 L 34.5 59 Z " /><path fill="rgb(156,139,129)" stroke="rgb(156,139,129)" stroke-width="1" opacity="0.13725490196078433" d="M 132.5 59 Q 135.3 60.4 134 65 L 137 66.5 L 136.5 68 L 133 64.5 L 132.5 59 Z " /><path fill="rgb(156,139,129)" stroke="rgb(156,139,129)" stroke-width="1" opacity="0.13725490196078433" d="M 30.5 66 L 31 68 L 29 67.5 L 30.5 66 Z " /><path fill="rgb(156,139,129)" stroke="rgb(156,139,129)" stroke-width="1" opacity="0.13725490196078433" d="M 103.5 67 L 107 68.5 L 105.5 68 Q 102.5 68.5 103.5 67 Z " /><path fill="rgb(156,139,129)" stroke="rgb(156,139,129)" stroke-width="1" opacity="0.13725490196078433" d="M 27.5 69 L 28 72.5 L 27 72.5 L 27.5 69 Z " /><path fill="rgb(156,139,129)" stroke="rgb(156,139,129)" stroke-width="1" opacity="0.13725490196078433" d="M 121.5 70 Q 125.3 69.3 126 71.5 L 124.5 71 Q 120.5 71.8 121.5 70 Z " /><path fill="rgb(156,139,129)" stroke="rgb(156,139,129)" stroke-width="1" opacity="0.13725490196078433" d="M 184.5 70 L 185 160.5 L 184 160.5 L 184.5 70 Z " /><path fill="rgb(156,139,129)" stroke="rgb(156,139,129)" stroke-width="1" opacity="0.13725490196078433" d="M 145.5 75 Q 147.8 74.3 147 76.5 L 145.5 75 Z " /><path fill="rgb(156,139,129)" stroke="rgb(156,139,129)" stroke-width="1" opacity="0.13725490196078433" d="M 136.5 76 L 138.5 79 L 136.5 76 Z " /><path fill="rgb(156,139,129)" stroke="rgb(156,139,129)" stroke-width="1" opacity="0.13725490196078433" d="M 153.5 80 L 156 81 L 155.5 83 L 153.5 80 Z " /><path fill="rgb(156,139,129)" stroke="rgb(156,139,129)" stroke-width="1" opacity="0.13725490196078433" d="M 26.5 81 L 29 82.5 L 28.5 85 L 26.5 81 Z " /><path fill="rgb(156,139,129)" stroke="rgb(156,139,129)" stroke-width="1" opacity="0.13725490196078433" d="M 157.5 82 L 159 83.5 L 159 149.5 L 158 149.5 L 158 85.5 L 157.5 82 Z " /><path fill="rgb(156,139,129)" stroke="rgb(156,139,129)" stroke-width="1" opacity="0.13725490196078433" d="M 32.5 90 L 33.5 92 L 32.5 90 Z " /><path fill="rgb(156,139,129)" stroke="rgb(156,139,129)" stroke-width="1" opacity="0.13725490196078433" d="M 150.5 90 L 152 92.5 L 150 91.5 L 150.5 90 Z " /><path fill="rgb(156,139,129)" stroke="rgb(156,139,129)" stroke-width="1" opacity="0.13725490196078433" d="M 37.5 93 L 40 94.5 L 38.5 94 L 37.5 93 Z " /><path fill="rgb(156,139,129)" stroke="rgb(156,139,129)" stroke-width="1" opacity="0.13725490196078433" d="M 152.5 95 Q 154.8 95.8 154 99.5 L 153 99.5 L 152.5 95 Z " /><path fill="rgb(156,139,129)" stroke="rgb(156,139,129)" stroke-width="1" opacity="0.13725490196078433" d="M 65.5 97 L 66 100.5 L 65 100.5 L 65.5 97 Z " /><path fill="rgb(156,139,129)" stroke="rgb(156,139,129)" stroke-width="1" opacity="0.13725490196078433" d="M 38.5 98 L 61 98.5 L 38.5 99 L 38.5 98 Z " /><path fill="rgb(156,139,129)" stroke="rgb(156,139,129)" stroke-width="1" opacity="0.13725490196078433" d="M 34.5 102 L 35 108.5 L 34 108.5 L 34.5 102 Z " /><path fill="rgb(156,139,129)" stroke="rgb(156,139,129)" stroke-width="1" opacity="0.13725490196078433" d="M 156.5 105 L 157 111.5 L 156 111.5 L 156.5 105 Z " /><path fill="rgb(156,139,129)" stroke="rgb(156,139,129)" stroke-width="1" opacity="0.13725490196078433" d="M 36.5 111 Q 35.8 117.7 39 120.5 L 37 121 Q 35.1 117.4 36.5 111 Z " /><path fill="rgb(156,139,129)" stroke="rgb(156,139,129)" stroke-width="1" opacity="0.13725490196078433" d="M 45.5 127 L 62.5 127 L 64 128.5 L 62.5 128 L 45.5 128 L 45.5 127 Z " /><path fill="rgb(156,139,129)" stroke="rgb(156,139,129)" stroke-width="1" opacity="0.13725490196078433" d="M 65.5 130 L 66 152.5 L 65 152.5 L 65.5 130 Z " /><path fill="rgb(156,139,129)" stroke="rgb(156,139,129)" stroke-width="1" opacity="0.13725490196078433" d="M 67.5 159 L 69 162 L 61 161.5 L 68 160.5 L 67.5 159 Z " /><path fill="rgb(156,139,129)" stroke="rgb(156,139,129)" stroke-width="1" opacity="0.13725490196078433" d="M 182.5 160 L 183 163.5 L 180.5 169 L 181 167.5 Q 180.1 162.1 182.5 160 Z " /><path fill="rgb(156,139,129)" stroke="rgb(156,139,129)" stroke-width="1" opacity="0.13725490196078433" d="M 55.5 168 L 56 177 L 164 177.5 L 56.5 178 L 55 176.5 L 55.5 168 Z " /><path fill="rgb(156,139,129)" stroke="rgb(156,139,129)" stroke-width="1" opacity="0.13725490196078433" d="M 178.5 170 L 177.5 172 L 178.5 170 Z " /><path fill="rgb(156,139,129)" stroke="rgb(156,139,129)" stroke-width="1" opacity="0.13725490196078433" d="M 173.5 172 L 175 172.5 L 174 175 L 164.5 176 L 164.5 175 Q 172 176.5 173.5 172 Z " /><path fill="rgb(254,220,165)" stroke="rgb(254,220,165)" stroke-width="1" opacity="0.996078431372549" d="M 71.5 30 L 72 35.5 Q 71 38 66.5 37 L 66.5 36 L 71 36 L 71.5 30 Z " /><path fill="rgb(254,220,165)" stroke="rgb(254,220,165)" stroke-width="1" opacity="0.996078431372549" d="M 53.5 53 Q 63.3 51.3 66 56.5 Q 70.2 60.7 69 69 Q 74.9 69.9 78 74.5 L 80 79.5 L 80 100.5 Q 75.7 107.7 67.5 111 Q 64.2 109.3 65 103.5 Q 67.8 101.8 67 96.5 L 66 94 L 43.5 94 L 34 90 L 32.5 87 Q 30.3 87.8 31 85.5 L 30 83 Q 35.6 84 37 79.5 L 38 74.5 L 35 69 L 44 68 L 47 62.5 L 47 59.5 L 53.5 53 Z M 53 63 L 48 69 L 50 74 L 54 76 L 57 76 L 60 74 L 61 72 L 60 65 L 57 63 L 53 63 Z " /><path fill="rgb(254,220,165)" stroke="rgb(254,220,165)" stroke-width="1" opacity="0.996078431372549" d="M 156.5 115 L 157 151.5 L 156 151.5 L 156.5 115 Z " /><path fill="rgb(254,220,165)" stroke="rgb(254,220,165)" stroke-width="1" opacity="0.996078431372549" d="M 94.5 116 L 96 117.5 L 96 164.5 L 94.5 166 L 74.5 166 L 70 162.5 L 70 160.5 L 67 151.5 L 67 130.5 L 65 127.5 L 66 124 L 81.5 124 Q 89.6 121.6 94.5 116 Z " /></svg>