<svg width="200" height="200" version="1.1" xmlns="http://www.w3.org/2000/svg" desc="Created with imagetracer.js version 1.2.6" ><path fill="rgb(0,0,0)" stroke="rgb(0,0,0)" stroke-width="1" opacity="0" d="M 0 0 L 200 0 L 200 200 L 0 200 L 0 0 Z M 89 3 L 83 6 Q 79 5 80 8 L 77 10 Q 78 12 75 11 L 74 15 Q 75 18 72 17 L 71 21 Q 72 25 69 24 L 69 32 L 68 33 Q 70 40 66 39 L 65 54 L 63 56 L 62 68 L 59 77 L 58 90 L 55 96 Q 56 99 53 98 L 52 102 Q 49 101 50 104 Q 48 107 42 106 L 40 108 L 33 109 L 21 115 L 18 118 Q 14 117 15 120 L 12 121 L 11 125 Q 12 127 9 126 L 8 131 L 8 153 L 13 162 Q 15 161 14 164 L 17 165 L 19 168 Q 21 167 20 170 Q 24 175 34 175 L 36 175 Q 43 177 54 176 L 59 178 L 71 189 L 79 193 L 83 193 L 85 195 L 110 195 L 116 192 Q 120 193 119 190 L 126 186 Q 129 187 128 184 L 131 183 Q 130 180 133 181 L 134 178 L 141 176 L 157 176 L 158 175 L 160 176 L 162 174 L 170 173 L 177 167 L 181 162 Q 180 158 183 159 L 184 156 Q 183 151 186 152 L 186 132 L 183 126 L 173 115 L 161 109 L 153 108 L 143 104 Q 144 101 142 102 L 136 91 Q 138 84 134 85 L 134 78 L 133 77 Q 135 69 131 70 L 130 57 L 128 55 L 128 47 L 127 46 L 126 35 L 124 32 L 124 27 L 120 16 L 110 5 Q 105 6 105 3 L 89 3 Z " /><path fill="rgb(240,204,128)" stroke="rgb(240,204,128)" stroke-width="1" opacity="0.5254901960784314" d="M 88.5 3 L 104.5 3 Q 105.3 5.8 109.5 5 L 120 15.5 L 124 26.5 L 124 31.5 L 126 34.5 L 127 45.5 L 128 46.5 L 128 54.5 L 130 56.5 L 131 70 Q 134.5 68.9 133 76.5 L 134 77.5 L 134 85 Q 138 83.6 136 90.5 L 141.5 102 Q 143.8 101.3 143 103.5 L 152.5 108 L 160.5 109 L 172.5 115 L 183 125.5 L 186 131.5 L 186 152 Q 182.7 150.7 184 155.5 L 183 159 Q 180 157.8 181 161.5 L 177 167 L 169.5 173 L 161.5 174 L 159.5 176 L 157.5 175 L 156.5 176 L 140.5 176 L 134 178 L 132.5 181 Q 130.3 180.3 131 182.5 L 128 184 Q 129.3 187 125.5 186 L 119 190 Q 120.3 193.3 115.5 192 L 109.5 195 L 84.5 195 L 82.5 193 L 78.5 193 L 70.5 189 L 58.5 178 L 53.5 176 Q 42.6 177.4 35.5 175 L 33.5 175 Q 24.3 174.7 20 169.5 Q 20.8 167.3 18.5 168 L 17 165 L 14 163.5 Q 14.8 161.3 12.5 162 L 8 152.5 L 8 130.5 L 9 126 Q 11.7 127.1 11 124.5 L 12 121 L 15 119.5 Q 14.2 116.9 17.5 118 L 20.5 115 L 32.5 109 L 39.5 108 L 41.5 106 Q 47.7 106.7 50 103.5 Q 49.3 101.3 51.5 102 L 53 98 Q 56 99.3 55 95.5 L 58 89.5 L 59 76.5 L 62 67.5 L 63 55.5 L 65 53.5 L 66 39 Q 69.5 40.1 68 32.5 L 69 31.5 L 69 24 Q 72.3 25.3 71 20.5 L 72 17 Q 75 18.3 74 14.5 L 75 11 Q 77.7 12.1 77 9.5 L 80 8 Q 78.8 5 82.5 6 L 88.5 3 Z M 92 5 L 84 8 L 76 16 L 72 25 L 66 53 L 65 63 L 63 68 L 63 74 L 60 83 L 60 89 L 57 99 L 54 104 L 48 108 Q 34 110 26 116 Q 22 115 23 118 L 20 119 Q 12 124 9 135 Q 7 151 13 159 Q 19 168 31 173 L 35 174 L 54 174 L 61 177 L 76 189 L 88 193 Q 114 196 125 184 Q 127 185 126 182 L 134 176 Q 138 177 140 174 L 158 174 Q 159 172 164 173 L 173 166 Q 175 167 174 164 L 176 164 L 183 153 L 185 145 Q 185 132 179 126 L 177 123 L 164 113 L 141 106 L 136 98 L 133 88 L 132 77 L 130 73 L 129 62 L 126 53 L 126 47 L 123 37 L 123 32 L 120 22 L 116 15 L 107 6 L 92 5 Z " /><path fill="rgb(253,197,60)" stroke="rgb(253,197,60)" stroke-width="1" opacity="0.996078431372549" d="M 184.5 139 L 185 143.5 L 184 143.5 L 184.5 139 Z " /><path fill="rgb(253,197,60)" stroke="rgb(253,197,60)" stroke-width="1" opacity="0.996078431372549" d="M 39.5 161 Q 48.1 160.2 53 162 Q 51.8 165 55.5 164 Q 63.6 168.2 64 179 L 53.5 174 L 34.5 174 L 26 171 L 28.5 167 L 31.5 165 L 39.5 161 Z " /><path fill="rgb(253,197,60)" stroke="rgb(253,197,60)" stroke-width="1" opacity="0.996078431372549" d="M 145.5 161 L 152.5 161 L 163 165 Q 161.9 167.7 164.5 167 Q 168.8 168.8 166 170.5 Q 166.8 172.8 164.5 172 Q 155 176 139.5 174 L 129.5 179 L 130 177.5 Q 128.5 171.5 131.5 170 Q 134.1 170.8 133 167.5 L 140.5 162 L 145.5 161 Z " /><path fill="rgb(255,200,61)" stroke="rgb(255,200,61)" stroke-width="1" opacity="1" d="M 91.5 5 L 106.5 6 L 116 14.5 L 120 21.5 L 123 31.5 L 123 36.5 L 125 41.5 L 127 54.5 L 127 56.5 L 129 61.5 L 129 67.5 L 132 76.5 L 132 82.5 L 135 94.5 L 141 106 L 145 107 L 145.5 109 L 147.5 108 Q 157.7 109.8 165 114.5 L 165.5 116 L 167.5 116 L 177 122.5 L 179 125.5 L 182 128.5 L 185 138.5 L 184 143.5 L 184 145.5 L 183 152.5 L 176 164 L 174 164 Q 175.1 166.7 172.5 166 L 166.5 171 Q 168.2 169 164.5 167 L 161.5 165 Q 156.4 160.1 145.5 161 L 140.5 162 L 133 167.5 Q 134.1 170.8 131.5 170 L 130 171.5 Q 131.5 177 129 178.5 Q 131.7 180.3 127.5 182 L 124.5 184 Q 118.8 189.8 109.5 192 Q 108 189.5 106.5 193 L 87.5 193 L 82.5 192 Q 70.7 187.8 63 179.5 L 64 174.5 L 55.5 164 Q 51.8 165 53 162 L 49.5 162 L 48.5 161 L 39.5 161 L 30 165 Q 31.1 167.7 28.5 167 L 24.5 170 Q 14.6 163.9 10 152.5 Q 7.6 145.4 9 134.5 Q 11.8 124.3 19.5 119 L 23 118 Q 21.8 115 25.5 116 L 28 115.5 L 29.5 113 L 32.5 112 Q 34 114.5 35.5 111 L 47.5 108 L 54 103.5 L 57 98.5 L 60 88.5 L 60 82.5 L 63 73.5 L 63 67.5 L 65 62.5 L 66 52.5 L 72 24.5 L 76 15.5 L 83.5 8 L 91.5 5 Z " /></svg>