<svg width="200" height="200" version="1.1" xmlns="http://www.w3.org/2000/svg" desc="Created with imagetracer.js version 1.2.6" ><path fill="rgb(0,0,0)" stroke="rgb(0,0,0)" stroke-width="1" opacity="0" d="M 0 0 L 200 0 L 200 200 L 0 200 L 0 0 Z M 165 2 L 162 4 L 159 4 L 159 6 L 154 6 L 154 8 L 148 8 L 148 10 Q 141 9 139 13 Q 135 12 136 15 L 132 15 L 132 17 L 127 18 Q 123 17 124 20 L 120 20 Q 121 23 117 22 L 117 24 Q 110 23 108 28 L 108 29 L 104 29 L 102 33 L 99 34 Q 96 33 97 36 L 94 36 L 92 40 L 90 41 L 87 41 L 85 45 L 83 45 L 83 47 L 78 51 Q 79 53 76 52 L 76 54 L 74 55 L 71 55 L 69 59 L 67 59 L 67 61 L 65 61 L 64 64 Q 61 63 62 66 L 60 66 L 60 70 L 57 72 Q 58 74 55 73 L 55 77 L 54 77 Q 51 78 51 82 L 42 87 L 38 87 Q 38 91 32 89 L 32 91 Q 24 91 19 96 L 15 96 Q 15 99 11 98 L 11 112 L 13 113 Q 15 112 14 115 L 16 115 L 16 117 L 18 117 L 18 119 L 21 121 Q 20 123 23 122 L 23 124 L 25 124 L 25 126 L 28 128 Q 27 130 30 129 L 27 138 Q 24 137 25 140 Q 20 139 19 142 L 16 142 Q 17 145 15 144 L 9 154 Q 11 159 7 158 L 7 168 L 5 170 L 5 181 L 7 183 Q 6 187 9 188 L 22 188 Q 23 185 26 186 L 27 184 L 30 188 L 42 188 L 42 186 Q 45 187 47 184 Q 50 185 49 182 L 55 179 L 56 179 L 56 175 L 58 175 L 58 172 L 72 172 L 73 173 Q 75 172 74 175 L 76 175 L 76 177 L 78 177 L 78 179 L 81 181 Q 80 183 83 182 L 83 184 L 85 184 L 85 186 L 89 188 L 98 188 L 100 186 Q 99 183 102 184 L 102 179 L 104 179 L 104 173 L 106 173 L 107 170 Q 106 164 109 165 L 109 159 L 111 159 L 111 154 L 113 154 L 115 149 L 114 147 L 116 143 L 121 140 Q 124 141 123 138 L 127 138 L 127 136 L 130 135 L 130 133 L 134 133 Q 133 130 136 131 L 138 128 Q 140 129 139 126 Q 143 127 144 124 Q 143 121 146 122 Q 151 119 154 112 Q 156 113 155 110 L 157 110 L 157 108 L 159 108 L 160 105 Q 159 102 162 103 L 162 99 L 164 99 L 164 97 L 169 91 L 169 88 Q 172 88 171 83 L 173 83 L 176 76 Q 175 72 178 73 L 178 69 L 180 69 L 183 62 L 183 57 Q 187 58 185 53 L 187 53 L 187 48 L 189 48 L 190 43 Q 189 38 192 39 L 192 34 L 194 34 L 194 14 L 193 13 L 189 8 L 180 2 L 168 2 L 167 3 L 165 2 Z " /><path fill="rgb(166,202,237)" stroke="rgb(166,202,237)" stroke-width="1" opacity="0.9372549019607843" d="M 126.5 42 L 141.5 42 L 143 43.5 L 139.5 44 L 138.5 43 L 129.5 43 L 121 46 Q 122.1 48.7 119.5 48 L 116 53 Q 112.7 51.7 114 56.5 L 112 57.5 L 112 54.5 L 119.5 46 L 126.5 42 Z " /><path fill="rgb(166,202,237)" stroke="rgb(166,202,237)" stroke-width="1" opacity="0.9372549019607843" d="M 144 44 Q 150.3 45.8 154 51.5 L 156 56.5 L 154 55.5 L 154 53 Q 151.3 54.1 152 51.5 L 147 48 L 147 46 Q 142.9 47.3 144 44 Z " /><path fill="rgb(166,202,237)" stroke="rgb(166,202,237)" stroke-width="1" opacity="0.9372549019607843" d="M 131.5 47 L 136.5 47 L 147 52.5 L 149 58 L 151 58.5 L 151 72 Q 148.3 70.9 149 73.5 L 145.5 78 L 142.5 80 L 133.5 83 Q 132.3 79.7 126.5 81 L 120 75.5 L 119 72 L 117 71.5 L 117 58 Q 120 59.3 119 55.5 L 122.5 51 L 129.5 49 L 131.5 47 Z " /><path fill="rgb(166,202,237)" stroke="rgb(166,202,237)" stroke-width="1" opacity="0.9372549019607843" d="M 156.5 59 L 158 60.5 L 158 69.5 L 156 70.5 L 156.5 59 Z " /><path fill="rgb(166,202,237)" stroke="rgb(166,202,237)" stroke-width="1" opacity="0.9372549019607843" d="M 111.5 60 L 112 69.5 L 110 68.5 Q 108.3 61.8 111.5 60 Z " /><path fill="rgb(166,202,237)" stroke="rgb(166,202,237)" stroke-width="1" opacity="0.9372549019607843" d="M 112.5 72 L 116 79 Q 118.7 77.9 118 80.5 L 121 82 Q 119.8 85 123.5 84 L 124.5 86 Q 118.8 84.8 116 80.5 L 112 74.5 L 112.5 72 Z " /><path fill="rgb(166,202,237)" stroke="rgb(166,202,237)" stroke-width="1" opacity="0.9372549019607843" d="M 155.5 72 L 156 74.5 L 148.5 84 L 141.5 88 L 135.5 88 L 136.5 86 L 144 86 L 144 84 L 147 84 Q 145.9 81.3 148.5 82 L 150 79 Q 152.7 80.1 152 77.5 L 155.5 72 Z " /><path fill="rgb(166,202,237)" stroke="rgb(166,202,237)" stroke-width="1" opacity="0.9372549019607843" d="M 126.5 86 Q 131.3 85.3 133 87.5 L 127.5 88 L 126.5 86 Z " /><path fill="rgb(243,242,243)" stroke="rgb(243,242,243)" stroke-width="1" opacity="0.984313725490196" d="M 193.5 13 L 192.5 15 L 193.5 13 Z " /><path fill="rgb(243,242,243)" stroke="rgb(243,242,243)" stroke-width="1" opacity="0.984313725490196" d="M 144.5 19 L 148.5 19 L 178 48.5 Q 173.8 65.3 165 77.5 L 165 81 Q 162 79.8 163 83.5 Q 158.4 86.8 158 93 Q 155.3 91.9 156 94.5 L 151 102 L 149 102 L 149 104 Q 146.3 102.9 147 105.5 L 142 109 L 140 114 L 138 114 L 138 116 Q 135.3 114.9 136 117.5 L 133 119 L 133 121 L 131 121 L 129 125 L 126 125 Q 127.1 127.7 124.5 127 Q 122 131.4 117 132 Q 118.3 135 114.5 134 L 111.5 137 L 105 139 Q 106.3 142 102.5 141 L 100.5 143 L 91 146 Q 92.3 149.3 87.5 148 L 86 148.5 Q 85.3 146.3 87.5 147 Q 90.3 143.2 96 144 Q 94.8 141 98.5 142 L 120 130 L 122 126 L 124.5 126 L 129 123 L 129 121 Q 131.7 122.1 131 119.5 L 136 116 L 136 114 Q 138.7 115.1 138 112.5 L 145 107 L 150 100.5 L 150 98 L 154 96 L 154 93.5 Q 157.8 92.3 157 88 Q 159.7 89.1 159 86.5 L 166 74.5 L 166 72 Q 169.3 73.3 168 68.5 L 173 59.5 L 173 56 Q 176.3 57.3 175 52.5 L 176 48.5 L 175 46 L 168 40.5 Q 168.8 38.3 166.5 39 L 161 32 L 159 32 Q 160.1 29.3 157.5 30 L 154 25 L 152 25 Q 153.1 22.3 150.5 23 L 146.5 20 L 138.5 23 L 139.5 21 Q 143.8 21.8 144.5 19 Z " /><path fill="rgb(243,242,243)" stroke="rgb(243,242,243)" stroke-width="1" opacity="0.984313725490196" d="M 135.5 23 Q 138.1 22.3 137 25 L 123 30 Q 124.3 33 120.5 32 Q 119.4 34.8 116 34 Q 117.3 37 113.5 36 Q 112.1 40 107 39 L 105 43 L 102 43 Q 103.1 45.7 100.5 45 L 98 46 Q 96.9 43.3 99.5 44 L 108.5 37 L 135.5 23 Z " /><path fill="rgb(243,242,243)" stroke="rgb(243,242,243)" stroke-width="1" opacity="0.984313725490196" d="M 110.5 25 Q 112.8 24.3 112 26.5 Q 110.5 29.5 109 26.5 L 110.5 25 Z " /><path fill="rgb(243,242,243)" stroke="rgb(243,242,243)" stroke-width="1" opacity="0.984313725490196" d="M 104.5 29 L 105.5 31 L 104.5 29 Z " /><path fill="rgb(243,242,243)" stroke="rgb(243,242,243)" stroke-width="1" opacity="0.984313725490196" d="M 129.5 40 L 138.5 40 L 150 45 Q 148.9 47.7 151.5 47 L 157 53.5 L 158 59.5 L 156 58.5 L 156 54.5 L 148.5 46 L 141.5 42 L 126.5 42 L 119.5 46 L 114 51.5 L 110.5 61 L 110 57.5 L 113 50 Q 115.7 51.1 115 48.5 L 118 47 L 120 43 L 123.5 43 L 129.5 40 Z " /><path fill="rgb(243,242,243)" stroke="rgb(243,242,243)" stroke-width="1" opacity="0.984313725490196" d="M 87 42 Q 90 41 89 44 L 85 45 L 84.5 47 L 84 45.5 L 87 44 L 87 42 Z " /><path fill="rgb(243,242,243)" stroke="rgb(243,242,243)" stroke-width="1" opacity="0.984313725490196" d="M 96.5 46 L 97 48 L 95 48 Q 96.1 50.7 93.5 50 L 86 55 L 86 57 Q 83.3 55.9 84 58.5 L 79 62 L 79 64 Q 76.3 62.9 77 65.5 L 72 69 L 72 71 Q 69.3 69.9 70 72.5 L 67 78 L 65 78 L 65 80 Q 62.3 78.9 63 81.5 L 60 87 L 58 87 Q 59.3 91.1 56 90 L 56 93.5 L 51 101.5 L 48 112 L 46 111.5 L 50 100.5 L 52 98.5 L 52 95.5 L 59 83 Q 61.7 84.1 61 81.5 L 64 76 L 66 76 L 66 74 Q 68.7 75.1 68 72.5 L 70 69 Q 72.7 70.1 72 67.5 L 79 62 L 79 60 Q 81.7 61.1 81 58.5 L 89 53 L 89 51 L 91 51 Q 89.9 48.3 92.5 49 L 96.5 46 Z " /><path fill="rgb(243,242,243)" stroke="rgb(243,242,243)" stroke-width="1" opacity="0.984313725490196" d="M 82.5 47 L 83 48.5 L 79.5 50 L 80.5 48 L 82 48.5 L 82.5 47 Z " /><path fill="rgb(243,242,243)" stroke="rgb(243,242,243)" stroke-width="1" opacity="0.984313725490196" d="M 71 55 Q 74.3 53.9 73 58 L 69.5 59 L 69.5 58 Q 72.5 58.7 71 55 Z " /><path fill="rgb(243,242,243)" stroke="rgb(243,242,243)" stroke-width="1" opacity="0.984313725490196" d="M 65.5 61 Q 67.8 60.3 67 62.5 L 66 65 L 62.5 66 L 62.5 65 L 65.5 63 L 65.5 61 Z " /><path fill="rgb(243,242,243)" stroke="rgb(243,242,243)" stroke-width="1" opacity="0.984313725490196" d="M 158.5 62 L 159 68.5 L 158 68.5 L 158.5 62 Z " /><path fill="rgb(243,242,243)" stroke="rgb(243,242,243)" stroke-width="1" opacity="0.984313725490196" d="M 110.5 69 Q 113 70 112 74.5 L 119.5 84 L 127.5 88 L 141.5 88 L 152 80.5 L 157.5 70 L 158 72.5 L 155 80 L 153 80 Q 154.1 82.7 151.5 82 L 150 85 Q 147 84 148 87 L 144.5 87 L 142.5 89 L 126.5 89 Q 117.2 86.3 113 78.5 Q 108.8 75.1 110.5 69 Z " /><path fill="rgb(243,242,243)" stroke="rgb(243,242,243)" stroke-width="1" opacity="0.984313725490196" d="M 11.5 98 L 12.5 100 Q 9.7 100.7 11.5 98 Z " /><path fill="rgb(243,242,243)" stroke="rgb(243,242,243)" stroke-width="1" opacity="0.984313725490196" d="M 156.5 106 L 159 107.5 L 157.5 108 L 156.5 106 Z " /><path fill="rgb(243,242,243)" stroke="rgb(243,242,243)" stroke-width="1" opacity="0.984313725490196" d="M 11.5 110 L 13 112.5 L 11 111.5 L 11.5 110 Z " /><path fill="rgb(243,242,243)" stroke="rgb(243,242,243)" stroke-width="1" opacity="0.984313725490196" d="M 149.5 115 L 152 115.5 L 148.5 118 L 148 116.5 L 149.5 115 Z " /><path fill="rgb(243,242,243)" stroke="rgb(243,242,243)" stroke-width="1" opacity="0.984313725490196" d="M 146.5 118 L 147 120.5 L 144 122 Q 145.1 124.7 142.5 124 L 140.5 125 L 140.5 124 Q 143.1 124.7 142 122 L 144 122 L 144 120 L 146 120 L 146.5 118 Z " /><path fill="rgb(243,242,243)" stroke="rgb(243,242,243)" stroke-width="1" opacity="0.984313725490196" d="M 134.5 129 L 135.5 131 L 134.5 129 Z " /><path fill="rgb(243,242,243)" stroke="rgb(243,242,243)" stroke-width="1" opacity="0.984313725490196" d="M 27 137 Q 30 136 29 139 Q 26 140 27 137 Z " /><path fill="rgb(243,242,243)" stroke="rgb(243,242,243)" stroke-width="1" opacity="0.984313725490196" d="M 13.5 145 Q 16.5 146.5 13.5 148 Q 10.5 146.5 13.5 145 Z " /><path fill="rgb(243,242,243)" stroke="rgb(243,242,243)" stroke-width="1" opacity="0.984313725490196" d="M 6.5 168 L 5.5 170 L 6.5 168 Z " /><path fill="rgb(243,242,243)" stroke="rgb(243,242,243)" stroke-width="1" opacity="0.984313725490196" d="M 54 176 Q 57 175 56 178 Q 53.3 176.9 54 179.5 L 52 180.5 L 52 178 Q 55 179 54 176 Z " /><path fill="rgb(243,242,243)" stroke="rgb(243,242,243)" stroke-width="1" opacity="0.984313725490196" d="M 87.5 185 L 89 187.5 L 87 186.5 L 87.5 185 Z " /><path fill="rgb(243,242,243)" stroke="rgb(243,242,243)" stroke-width="1" opacity="0.984313725490196" d="M 98.5 186 L 97.5 188 L 98.5 186 Z " /><path fill="rgb(244,244,244)" stroke="rgb(244,244,244)" stroke-width="1" opacity="1" d="M 146.5 20 L 152 23 L 152 25 Q 154.7 23.9 154 26.5 L 159 30 L 159 32 Q 161.7 30.9 161 33.5 L 168 39 L 173.5 46 Q 175.8 45.3 175 47.5 L 176 51.5 L 175 56 Q 171.7 54.7 173 59.5 L 168 68.5 L 168 72 Q 165 70.8 166 74.5 L 159 88 Q 156 86.8 157 90.5 Q 153.3 91.8 154 96 L 150 98 L 150 100.5 L 145 107 L 138 112.5 Q 138.7 115.1 136 114 L 136 116 L 134.5 116 L 131 121 L 129 121 Q 130.1 123.7 127.5 123 Q 126.3 126.7 122 126 L 122 128 L 120 128 Q 121.1 130.7 118.5 130 Q 109.1 138.3 96 142 Q 97.3 145.3 92.5 144 L 86 147 L 87 141.5 L 89 139.5 L 89 135.5 L 91 133.5 L 91 130.5 L 93 128.5 L 93 125.5 L 96 119.5 L 96 116 Q 99.7 117.3 98 111.5 L 99 109.5 L 98 104 L 96 104 Q 97.1 101.3 94.5 102 Q 92 97.5 83.5 99 L 47.5 113 L 48 111.5 L 51 101.5 L 56 93.5 L 56 90 L 58 90 L 58 87 Q 60.7 88.1 60 85.5 L 63 80 L 65 80 L 65 78 Q 67.7 79.1 67 76.5 L 70 71 L 72 71 Q 70.9 68.3 73.5 69 L 77 64 L 79 64 Q 77.9 61.3 80.5 62 L 84 57 L 86 57 Q 84.9 54.3 87.5 55 L 95 50 L 97 46 L 99.5 46 L 102 45 L 102 43 L 105 43 L 107 39 L 110.5 39 Q 111.8 35.2 116 36 Q 114.8 33 118.5 34 Q 119.6 31.3 123 32 Q 121.8 29 125.5 30 L 129.5 27 L 137 25 Q 135.7 21.7 140.5 23 L 146.5 20 Z M 130 40 L 124 43 L 120 43 L 118 47 L 115 49 Q 116 51 113 50 L 110 58 L 110 73 L 113 79 Q 117 86 127 89 L 143 89 L 145 87 L 148 87 Q 147 84 150 85 L 152 82 Q 154 83 153 80 L 155 80 L 159 69 L 157 54 L 152 47 Q 149 48 150 45 L 139 40 L 130 40 Z " /><path fill="rgb(181,149,159)" stroke="rgb(181,149,159)" stroke-width="1" opacity="0.6196078431372549" d="M 167.5 2 L 170 2.5 L 167.5 3 L 167.5 2 Z " /><path fill="rgb(181,149,159)" stroke="rgb(181,149,159)" stroke-width="1" opacity="0.6196078431372549" d="M 177.5 2 L 183.5 4 L 194 14.5 L 193.5 17 L 190 12 L 188 12 Q 189.1 9.3 186.5 10 L 182 7 Q 183.3 4 179.5 5 L 177.5 2 Z " /><path fill="rgb(181,149,159)" stroke="rgb(181,149,159)" stroke-width="1" opacity="0.6196078431372549" d="M 163 3 L 166 3.5 L 163 5 L 163 3 Z " /><path fill="rgb(181,149,159)" stroke="rgb(181,149,159)" stroke-width="1" opacity="0.6196078431372549" d="M 160.5 4 L 162 4.5 L 160.5 7 Q 157.5 5.5 160.5 4 Z " /><path fill="rgb(181,149,159)" stroke="rgb(181,149,159)" stroke-width="1" opacity="0.6196078431372549" d="M 154 6 Q 157 5 156 8 Q 153 9 154 6 Z " /><path fill="rgb(181,149,159)" stroke="rgb(181,149,159)" stroke-width="1" opacity="0.6196078431372549" d="M 148 8 Q 152.1 6.7 151 10 Q 146.9 11.3 148 8 Z " /><path fill="rgb(181,149,159)" stroke="rgb(181,149,159)" stroke-width="1" opacity="0.6196078431372549" d="M 143 10 Q 147.1 8.7 146 12 Q 141.9 13.3 143 10 Z " /><path fill="rgb(181,149,159)" stroke="rgb(181,149,159)" stroke-width="1" opacity="0.6196078431372549" d="M 140 11 Q 143.3 9.9 142 14 Q 138.7 15.1 140 11 Z " /><path fill="rgb(181,149,159)" stroke="rgb(181,149,159)" stroke-width="1" opacity="0.6196078431372549" d="M 136 13 L 139 13.5 L 136 15 L 136 13 Z " /><path fill="rgb(181,149,159)" stroke="rgb(181,149,159)" stroke-width="1" opacity="0.6196078431372549" d="M 133.5 15 Q 136.1 14.3 135 17 L 132 16.5 L 133.5 15 Z " /><path fill="rgb(181,149,159)" stroke="rgb(181,149,159)" stroke-width="1" opacity="0.6196078431372549" d="M 127.5 17 L 129.5 17 Q 132.1 16.3 131 19 L 127.5 19 L 124 21 L 125.5 18 L 127.5 17 Z " /><path fill="rgb(181,149,159)" stroke="rgb(181,149,159)" stroke-width="1" opacity="0.6196078431372549" d="M 120 20 Q 123.7 18.5 123 21.5 L 120 23 L 120 20 Z " /><path fill="rgb(181,149,159)" stroke="rgb(181,149,159)" stroke-width="1" opacity="0.6196078431372549" d="M 117 22 Q 119.7 20.9 119 23.5 L 115.5 26 L 115 24 Q 118 25 117 22 Z " /><path fill="rgb(181,149,159)" stroke="rgb(181,149,159)" stroke-width="1" opacity="0.6196078431372549" d="M 113.5 24 L 114 26.5 L 111.5 28 L 112 26.5 L 113.5 24 Z " /><path fill="rgb(181,149,159)" stroke="rgb(181,149,159)" stroke-width="1" opacity="0.6196078431372549" d="M 108 27 Q 111.3 25.9 110 30 L 107 30 Q 108.1 32.7 105.5 32 L 102 33 Q 103.1 35.7 100.5 35 L 94.5 40 L 92 38.5 L 96 37.5 L 94 36.5 L 99.5 33 L 100.5 34 L 105.5 29 Q 109.3 30 108 27 Z " /><path fill="rgb(181,149,159)" stroke="rgb(181,149,159)" stroke-width="1" opacity="0.6196078431372549" d="M 193.5 30 L 194 34 L 191 32.5 L 193.5 30 Z " /><path fill="rgb(181,149,159)" stroke="rgb(181,149,159)" stroke-width="1" opacity="0.6196078431372549" d="M 190 35 Q 193.7 33.8 192 39 Q 188.3 40.2 190 35 Z " /><path fill="rgb(181,149,159)" stroke="rgb(181,149,159)" stroke-width="1" opacity="0.6196078431372549" d="M 90.5 40 Q 94.3 39 93 42 L 89.5 43 L 87 41.5 L 90.5 40 Z " /><path fill="rgb(181,149,159)" stroke="rgb(181,149,159)" stroke-width="1" opacity="0.6196078431372549" d="M 188 40 Q 191 38.8 190 42.5 L 188 45.5 Q 190.3 46.8 187.5 48 Q 185.3 48.8 186 46.5 Q 189.3 45 188 40 Z " /><path fill="rgb(181,149,159)" stroke="rgb(181,149,159)" stroke-width="1" opacity="0.6196078431372549" d="M 85.5 43 L 88 44.5 L 83 48.5 L 83.5 45 L 84.5 47 L 85 45 L 87 44.5 L 85.5 43 Z " /><path fill="rgb(181,149,159)" stroke="rgb(181,149,159)" stroke-width="1" opacity="0.6196078431372549" d="M 129.5 43 L 138.5 43 L 144 44 L 144 46 L 147 46 Q 145.9 48.7 148.5 48 L 152 53 Q 155 51.8 154 55.5 L 156 57.5 L 156 71.5 L 152 79 Q 149.3 77.9 150 80.5 L 147 82 L 147 84 Q 142.9 82.7 144 86 L 136.5 86 L 133.5 88 L 130.5 86 L 125.5 86 Q 124.4 83.2 121 84 Q 122.1 81.3 119.5 82 L 118 79 Q 115.3 80.1 116 77.5 L 112 71.5 L 112 58.5 Q 115 57.3 114 53 Q 116.7 54.1 116 51.5 L 121 48 Q 119.8 45 123.5 46 L 129.5 43 Z M 132 47 L 130 49 L 123 51 L 119 56 Q 120 59 117 58 L 117 72 L 119 72 L 120 76 L 127 81 Q 132 80 134 83 L 143 80 L 146 78 L 149 74 Q 148 71 151 72 L 151 59 L 149 58 L 147 53 L 137 47 L 132 47 Z " /><path fill="rgb(181,149,159)" stroke="rgb(181,149,159)" stroke-width="1" opacity="0.6196078431372549" d="M 186.5 49 L 187 53 Q 183.2 54.5 184 51.5 L 186.5 49 Z " /><path fill="rgb(181,149,159)" stroke="rgb(181,149,159)" stroke-width="1" opacity="0.6196078431372549" d="M 78.5 50 L 82 50.5 L 80 51 L 78.5 54 L 75.5 56 L 73 57.5 L 74.5 54 Q 77.1 54.7 76 52 L 78.5 52 L 78.5 50 Z " /><path fill="rgb(181,149,159)" stroke="rgb(181,149,159)" stroke-width="1" opacity="0.6196078431372549" d="M 183 55 Q 186 54 185 57 Q 182 58 183 55 Z " /><path fill="rgb(181,149,159)" stroke="rgb(181,149,159)" stroke-width="1" opacity="0.6196078431372549" d="M 69.5 57 L 72 58.5 L 72 60 L 70 60 L 70 62 L 68 62 Q 69.1 64.7 66.5 64 L 65.5 62 L 67 62.5 Q 65.3 57.3 70.5 59 L 70.5 58 L 69.5 57 Z " /><path fill="rgb(181,149,159)" stroke="rgb(181,149,159)" stroke-width="1" opacity="0.6196078431372549" d="M 182.5 58 L 183 61.5 L 180.5 66 Q 177.5 66.7 179 63 Q 182.3 64.3 181 59.5 L 182.5 58 Z " /><path fill="rgb(181,149,159)" stroke="rgb(181,149,159)" stroke-width="1" opacity="0.6196078431372549" d="M 62.5 64 L 65 65.5 L 63 68.5 L 61 72 Q 58.3 70.9 59 73.5 L 55.5 76 L 55.5 75 L 57 74.5 L 55 73.5 L 58 72.5 Q 55.8 71.3 58.5 70 L 61.5 68 L 61.5 67 L 60 66.5 L 64 65.5 L 62.5 64 Z " /><path fill="rgb(181,149,159)" stroke="rgb(181,149,159)" stroke-width="1" opacity="0.6196078431372549" d="M 177 67 Q 181.1 65.7 180 69 Q 175.9 70.3 177 67 Z " /><path fill="rgb(181,149,159)" stroke="rgb(181,149,159)" stroke-width="1" opacity="0.6196078431372549" d="M 176 70 Q 179.3 68.9 178 73 Q 174.7 74.1 176 70 Z " /><path fill="rgb(181,149,159)" stroke="rgb(181,149,159)" stroke-width="1" opacity="0.6196078431372549" d="M 174 74 Q 177 73 176 76 Q 173 77 174 74 Z " /><path fill="rgb(181,149,159)" stroke="rgb(181,149,159)" stroke-width="1" opacity="0.6196078431372549" d="M 53 77 Q 55.7 75.9 55 78.5 L 54 81 Q 50.3 82.5 51 79.5 L 53 79.5 L 53 77 Z " /><path fill="rgb(181,149,159)" stroke="rgb(181,149,159)" stroke-width="1" opacity="0.6196078431372549" d="M 174.5 77 L 174 78.5 Q 174.7 81.1 172 80 Q 170.9 77.3 173.5 78 L 174.5 77 Z " /><path fill="rgb(181,149,159)" stroke="rgb(181,149,159)" stroke-width="1" opacity="0.6196078431372549" d="M 170 81 Q 174.1 79.7 173 83 Q 168.9 84.3 170 81 Z " /><path fill="rgb(181,149,159)" stroke="rgb(181,149,159)" stroke-width="1" opacity="0.6196078431372549" d="M 50 82 Q 53 81 52 84 L 48.5 86 L 45 86 Q 46 89 43 88 Q 41.9 85.3 44.5 86 Q 45.8 83 50 84 L 50 82 Z " /><path fill="rgb(181,149,159)" stroke="rgb(181,149,159)" stroke-width="1" opacity="0.6196078431372549" d="M 169.5 84 L 171 87 Q 167.5 88.1 169.5 84 Z " /><path fill="rgb(181,149,159)" stroke="rgb(181,149,159)" stroke-width="1" opacity="0.6196078431372549" d="M 38.5 87 L 41 87.5 L 40 90 L 37 88.5 L 38.5 87 Z " /><path fill="rgb(181,149,159)" stroke="rgb(181,149,159)" stroke-width="1" opacity="0.6196078431372549" d="M 167 88 Q 169.7 86.9 169 89.5 L 165.5 92 L 165.5 91 Q 168.5 91.7 167 88 Z " /><path fill="rgb(181,149,159)" stroke="rgb(181,149,159)" stroke-width="1" opacity="0.6196078431372549" d="M 32 89 Q 37.2 87.3 36 91 L 32 92 L 32 89 Z " /><path fill="rgb(181,149,159)" stroke="rgb(181,149,159)" stroke-width="1" opacity="0.6196078431372549" d="M 28.5 91 Q 32.3 90 31 93 L 27 93 L 27 95 L 22 95 Q 23 98 20 97 Q 18.3 92.9 22.5 94 L 28.5 91 Z " /><path fill="rgb(181,149,159)" stroke="rgb(181,149,159)" stroke-width="1" opacity="0.6196078431372549" d="M 164.5 93 L 167 93.5 Q 165 98 163 94.5 L 164.5 93 Z " /><path fill="rgb(181,149,159)" stroke="rgb(181,149,159)" stroke-width="1" opacity="0.6196078431372549" d="M 15.5 96 Q 17.8 95.3 17 97.5 L 11.5 101 L 11.5 100 L 13 99.5 L 12.5 98 L 15.5 96 Z " /><path fill="rgb(181,149,159)" stroke="rgb(181,149,159)" stroke-width="1" opacity="0.6196078431372549" d="M 161 97 Q 165.1 95.7 164 99 L 162 99 Q 163.1 101.7 160.5 101 L 160.5 102 L 162 102.5 L 159 104.5 L 158.5 107 L 156 105.5 L 161 99.5 L 161 97 Z " /><path fill="rgb(181,149,159)" stroke="rgb(181,149,159)" stroke-width="1" opacity="0.6196078431372549" d="M 154 107 Q 158.5 105.5 157 110 L 152 113.5 Q 152.8 116.1 149.5 115 L 148 117.5 L 151 116.5 L 147 119.5 L 147 116.5 L 149 113 L 151 113 L 151 111 Q 153.7 112.1 153 109.5 L 154 107 Z " /><path fill="rgb(181,149,159)" stroke="rgb(181,149,159)" stroke-width="1" opacity="0.6196078431372549" d="M 11.5 109 L 16.5 113 L 18 116 L 20 116 L 20 118 L 22 118 L 22 120 L 24 120 Q 22.9 122.7 25.5 122 L 27 125 L 29 125 L 29 127 Q 31.7 125.9 31 128.5 L 31.5 130 L 23 124 L 17.5 117 Q 15.3 117.8 16 115.5 Q 11.5 113 11.5 109 Z " /><path fill="rgb(181,149,159)" stroke="rgb(181,149,159)" stroke-width="1" opacity="0.6196078431372549" d="M 145.5 118 L 146 120 L 144 120 L 144 122 Q 141.3 120.9 142 123.5 Q 144.3 124.8 141.5 126 L 139.5 126 L 134 131.5 L 134 133 L 130 133 Q 131.1 136.3 127 135 L 127 137.5 L 126 137.5 L 125.5 136 L 125 138 L 121 140 Q 119.5 136.3 122.5 137 L 128 134 L 128 132 L 131 132 L 131 130 L 133 130 Q 131.9 127.3 134.5 128 L 137 127 Q 135.9 124.3 138.5 125 L 145.5 118 Z " /><path fill="rgb(181,149,159)" stroke="rgb(181,149,159)" stroke-width="1" opacity="0.6196078431372549" d="M 29.5 131 L 31 133.5 L 28.5 137 L 28 132.5 L 29.5 131 Z " /><path fill="rgb(181,149,159)" stroke="rgb(181,149,159)" stroke-width="1" opacity="0.6196078431372549" d="M 26.5 138 L 27 141 L 22 141 Q 23 144 20 143 Q 18.2 138.1 24.5 140 L 26.5 138 Z " /><path fill="rgb(181,149,159)" stroke="rgb(181,149,159)" stroke-width="1" opacity="0.6196078431372549" d="M 118.5 139 Q 122 141 117.5 143 L 116 142.5 L 111.5 154 L 110.5 152 Q 113.9 152.9 112 147.5 L 115 141 L 118.5 139 Z " /><path fill="rgb(181,149,159)" stroke="rgb(181,149,159)" stroke-width="1" opacity="0.6196078431372549" d="M 16 142 Q 19.7 140.5 19 143.5 L 14 147.5 L 14 145.5 L 14.5 144 L 16 144.5 L 16 142 Z " /><path fill="rgb(181,149,159)" stroke="rgb(181,149,159)" stroke-width="1" opacity="0.6196078431372549" d="M 12.5 147 L 13 152 Q 10 153.3 11 149.5 L 12.5 147 Z " /><path fill="rgb(181,149,159)" stroke="rgb(181,149,159)" stroke-width="1" opacity="0.6196078431372549" d="M 9 153 L 12 154.5 L 10 155 L 9.5 157 L 9 153 Z " /><path fill="rgb(181,149,159)" stroke="rgb(181,149,159)" stroke-width="1" opacity="0.6196078431372549" d="M 110.5 156 L 111 159 Q 108.3 160.1 109 157.5 L 110.5 156 Z " /><path fill="rgb(181,149,159)" stroke="rgb(181,149,159)" stroke-width="1" opacity="0.6196078431372549" d="M 7 158 Q 10.7 156.5 10 159.5 L 8 161.5 L 8 171 L 6 171.5 L 6 180 L 8 180.5 L 8 187 L 20 187 L 20 185 L 24 185 L 24 183.5 L 26 184.5 Q 26.8 187.1 23.5 186 L 20.5 188 L 8.5 188 Q 6 187 7 182.5 L 5 180.5 L 5 170.5 L 7 168.5 L 7 158 Z " /><path fill="rgb(181,149,159)" stroke="rgb(181,149,159)" stroke-width="1" opacity="0.6196078431372549" d="M 107 161 Q 110 159.8 109 163.5 L 107 164.5 L 107 161 Z " /><path fill="rgb(181,149,159)" stroke="rgb(181,149,159)" stroke-width="1" opacity="0.6196078431372549" d="M 105 166 Q 108.7 164.8 107 170 Q 103.3 171.2 105 166 Z " /><path fill="rgb(181,149,159)" stroke="rgb(181,149,159)" stroke-width="1" opacity="0.6196078431372549" d="M 57 169 L 61 170.5 L 61 172 L 58 172 Q 59.5 175.8 56.5 175 L 55 175.5 L 57 169 Z " /><path fill="rgb(181,149,159)" stroke="rgb(181,149,159)" stroke-width="1" opacity="0.6196078431372549" d="M 69.5 169 L 73 169 L 73 171 L 75 171 Q 73.9 173.7 76.5 173 L 78 176 L 80 176 L 80 178 L 82 178 L 82 180 L 84 180 Q 82.9 182.7 85.5 182 L 87 185.5 L 84.5 184 Q 82.3 184.8 83 182.5 L 76 177 L 76 175 Q 73.3 176.1 74 173.5 Q 72.6 170.8 68 172 L 69.5 169 Z " /><path fill="rgb(181,149,159)" stroke="rgb(181,149,159)" stroke-width="1" opacity="0.6196078431372549" d="M 62.5 171 L 67 171.5 L 62.5 172 L 62.5 171 Z " /><path fill="rgb(181,149,159)" stroke="rgb(181,149,159)" stroke-width="1" opacity="0.6196078431372549" d="M 103 171 Q 107.1 169.7 106 173 Q 101.9 174.3 103 171 Z " /><path fill="rgb(181,149,159)" stroke="rgb(181,149,159)" stroke-width="1" opacity="0.6196078431372549" d="M 103.5 175 L 104 177.5 Q 102.5 180.5 101 177.5 L 103.5 175 Z " /><path fill="rgb(181,149,159)" stroke="rgb(181,149,159)" stroke-width="1" opacity="0.6196078431372549" d="M 53.5 176 L 54 178 L 56 178.5 L 54.5 179 L 53.5 176 Z " /><path fill="rgb(181,149,159)" stroke="rgb(181,149,159)" stroke-width="1" opacity="0.6196078431372549" d="M 49.5 180 Q 52.1 179.3 51 182 Q 48 181 49 184 L 46.5 184 L 39.5 188 L 30.5 188 L 30.5 187 L 38.5 187 L 39 185 L 43 185 Q 41.8 182 45.5 183 L 49.5 180 Z " /><path fill="rgb(181,149,159)" stroke="rgb(181,149,159)" stroke-width="1" opacity="0.6196078431372549" d="M 100 180 Q 103.7 178.8 102 184 L 100 184 Q 101.1 186.7 98.5 186 Q 97.4 188.8 94 188 L 95.5 185 L 98 185 Q 97 182 100 183 L 100 180 Z " /><path fill="rgb(181,149,159)" stroke="rgb(181,149,159)" stroke-width="1" opacity="0.6196078431372549" d="M 27 183 Q 30.3 181.7 29 186.5 L 27 185.5 L 27 183 Z " /><path fill="rgb(181,149,159)" stroke="rgb(181,149,159)" stroke-width="1" opacity="0.6196078431372549" d="M 88.5 185 L 92 187.5 L 89 188 L 88.5 185 Z " /><path fill="rgb(161,60,106)" stroke="rgb(161,60,106)" stroke-width="1" opacity="0.8549019607843137" d="M 170.5 2 Q 177.5 0.5 179 4.5 L 176 5 Q 177.4 1 170.5 3 L 170.5 2 Z " /><path fill="rgb(161,60,106)" stroke="rgb(161,60,106)" stroke-width="1" opacity="0.8549019607843137" d="M 166.5 3 Q 170.3 2 169 5 L 165 4.5 L 166.5 3 Z " /><path fill="rgb(161,60,106)" stroke="rgb(161,60,106)" stroke-width="1" opacity="0.8549019607843137" d="M 162.5 4 L 162 5.5 L 161.5 7 L 161 5.5 L 162.5 4 Z " /><path fill="rgb(161,60,106)" stroke="rgb(161,60,106)" stroke-width="1" opacity="0.8549019607843137" d="M 156 6 L 160 6.5 L 154.5 9 L 154.5 8 Q 157.1 8.7 156 6 Z " /><path fill="rgb(161,60,106)" stroke="rgb(161,60,106)" stroke-width="1" opacity="0.8549019607843137" d="M 139.5 13 L 139 14.5 Q 139.8 17.1 136.5 16 L 136.5 15 L 139.5 13 Z " /><path fill="rgb(161,60,106)" stroke="rgb(161,60,106)" stroke-width="1" opacity="0.8549019607843137" d="M 191.5 15 L 194 17.5 L 194 29.5 L 191 31.5 L 191 30 L 193 29.5 L 193 17 Q 189.8 18 191.5 15 Z " /><path fill="rgb(161,60,106)" stroke="rgb(161,60,106)" stroke-width="1" opacity="0.8549019607843137" d="M 127.5 19 L 128 21 L 126 20.5 L 127.5 19 Z " /><path fill="rgb(161,60,106)" stroke="rgb(161,60,106)" stroke-width="1" opacity="0.8549019607843137" d="M 123.5 20 L 124 21.5 L 122 22.5 L 123.5 20 Z " /><path fill="rgb(161,60,106)" stroke="rgb(161,60,106)" stroke-width="1" opacity="0.8549019607843137" d="M 119.5 22 L 120.5 24 L 118.5 25 L 119 23.5 L 119.5 22 Z " /><path fill="rgb(161,60,106)" stroke="rgb(161,60,106)" stroke-width="1" opacity="0.8549019607843137" d="M 114.5 26 L 113.5 28 L 114.5 26 Z " /><path fill="rgb(161,60,106)" stroke="rgb(161,60,106)" stroke-width="1" opacity="0.8549019607843137" d="M 102 33 L 105 33.5 L 102.5 35 L 102 33 Z " /><path fill="rgb(161,60,106)" stroke="rgb(161,60,106)" stroke-width="1" opacity="0.8549019607843137" d="M 189.5 36 L 190 38.5 L 189 38.5 L 189.5 36 Z " /><path fill="rgb(161,60,106)" stroke="rgb(161,60,106)" stroke-width="1" opacity="0.8549019607843137" d="M 97.5 37 L 98 39 L 95.5 40 L 97.5 37 Z " /><path fill="rgb(161,60,106)" stroke="rgb(161,60,106)" stroke-width="1" opacity="0.8549019607843137" d="M 89.5 43 L 91 43.5 L 89 44 Q 90.1 46.7 87.5 46 L 82 50.5 Q 81.3 48.3 83.5 49 L 89.5 43 Z " /><path fill="rgb(161,60,106)" stroke="rgb(161,60,106)" stroke-width="1" opacity="0.8549019607843137" d="M 186 44 L 189 45.5 L 186 45.5 L 186 44 Z " /><path fill="rgb(161,60,106)" stroke="rgb(161,60,106)" stroke-width="1" opacity="0.8549019607843137" d="M 186.5 48 L 184.5 51 L 184 49 L 186.5 48 Z " /><path fill="rgb(161,60,106)" stroke="rgb(161,60,106)" stroke-width="1" opacity="0.8549019607843137" d="M 184.5 53 L 185 55 L 182.5 56 L 184.5 53 Z " /><path fill="rgb(161,60,106)" stroke="rgb(161,60,106)" stroke-width="1" opacity="0.8549019607843137" d="M 180.5 61 L 181 63 L 179 62.5 L 180.5 61 Z " /><path fill="rgb(161,60,106)" stroke="rgb(161,60,106)" stroke-width="1" opacity="0.8549019607843137" d="M 66.5 64 L 68 64.5 L 66 65 L 65.5 67 L 65 65.5 L 66.5 64 Z " /><path fill="rgb(161,60,106)" stroke="rgb(161,60,106)" stroke-width="1" opacity="0.8549019607843137" d="M 177.5 66 L 180 66.5 L 177.5 67 L 177.5 66 Z " /><path fill="rgb(161,60,106)" stroke="rgb(161,60,106)" stroke-width="1" opacity="0.8549019607843137" d="M 63.5 67 L 64 68.5 L 61 70.5 L 63.5 67 Z " /><path fill="rgb(161,60,106)" stroke="rgb(161,60,106)" stroke-width="1" opacity="0.8549019607843137" d="M 57.5 75 L 56 77.5 L 55.5 79 L 55 76 L 57.5 75 Z " /><path fill="rgb(161,60,106)" stroke="rgb(161,60,106)" stroke-width="1" opacity="0.8549019607843137" d="M 174.5 76 L 173.5 78 L 172 77.5 L 174.5 76 Z " /><path fill="rgb(161,60,106)" stroke="rgb(161,60,106)" stroke-width="1" opacity="0.8549019607843137" d="M 51.5 81 L 54 81.5 Q 51.9 84.8 51.5 81 Z " /><path fill="rgb(161,60,106)" stroke="rgb(161,60,106)" stroke-width="1" opacity="0.8549019607843137" d="M 50.5 84 L 52 84.5 L 49.5 86 L 50.5 84 Z " /><path fill="rgb(161,60,106)" stroke="rgb(161,60,106)" stroke-width="1" opacity="0.8549019607843137" d="M 168.5 84 L 169 87.5 L 168 87.5 L 168.5 84 Z " /><path fill="rgb(161,60,106)" stroke="rgb(161,60,106)" stroke-width="1" opacity="0.8549019607843137" d="M 41.5 87 L 43 87.5 L 41 88 L 40.5 90 L 40 88.5 L 41.5 87 Z " /><path fill="rgb(161,60,106)" stroke="rgb(161,60,106)" stroke-width="1" opacity="0.8549019607843137" d="M 166.5 88 L 167 91 L 165 90.5 L 166.5 88 Z " /><path fill="rgb(161,60,106)" stroke="rgb(161,60,106)" stroke-width="1" opacity="0.8549019607843137" d="M 31.5 91 L 32 92.5 L 29.5 94 L 29.5 93 Q 32 93.7 31.5 91 Z " /><path fill="rgb(161,60,106)" stroke="rgb(161,60,106)" stroke-width="1" opacity="0.8549019607843137" d="M 163.5 95 L 164 97 L 162 96.5 L 163.5 95 Z " /><path fill="rgb(161,60,106)" stroke="rgb(161,60,106)" stroke-width="1" opacity="0.8549019607843137" d="M 17 96 L 20 96.5 L 18 97 Q 19.1 99.7 16.5 99 L 17 97.5 L 17 96 Z " /><path fill="rgb(161,60,106)" stroke="rgb(161,60,106)" stroke-width="1" opacity="0.8549019607843137" d="M 14.5 99 L 12.5 102 L 11 101.5 L 14.5 99 Z " /><path fill="rgb(161,60,106)" stroke="rgb(161,60,106)" stroke-width="1" opacity="0.8549019607843137" d="M 160.5 99 L 159.5 101 L 160.5 99 Z " /><path fill="rgb(161,60,106)" stroke="rgb(161,60,106)" stroke-width="1" opacity="0.8549019607843137" d="M 148.5 114 L 147 116.5 Q 147.8 118.8 145.5 118 L 138 124.5 Q 137.3 122.3 139.5 123 L 148.5 114 Z " /><path fill="rgb(161,60,106)" stroke="rgb(161,60,106)" stroke-width="1" opacity="0.8549019607843137" d="M 31.5 128 L 34.5 132 Q 37.1 131.3 36 134 L 38 134 L 38 135.5 L 43 139 L 43 141 L 45 141 L 45 143 Q 47.7 141.9 47 144.5 L 50 146 L 50 148 L 52 148 L 52 150 Q 54.7 148.9 54 151.5 L 57 153 L 57 155 L 59 155 L 59 157 Q 61.7 155.9 61 158.5 L 66 162 L 68 166 L 70.5 166 L 73 167 Q 74.3 170.3 69.5 169 L 67.5 172 L 62.5 171 L 61 171.5 L 59.5 169 L 57.5 169 L 32 144.5 L 29 139.5 L 29 137.5 L 31 132.5 L 30 130 L 32 129.5 L 31.5 128 Z " /><path fill="rgb(161,60,106)" stroke="rgb(161,60,106)" stroke-width="1" opacity="0.8549019607843137" d="M 125.5 134 L 124.5 136 L 125.5 134 Z " /><path fill="rgb(161,60,106)" stroke="rgb(161,60,106)" stroke-width="1" opacity="0.8549019607843137" d="M 120.5 137 L 121 140 L 119 139.5 L 120.5 137 Z " /><path fill="rgb(161,60,106)" stroke="rgb(161,60,106)" stroke-width="1" opacity="0.8549019607843137" d="M 114.5 141 L 115 142.5 L 113 143.5 L 114.5 141 Z " /><path fill="rgb(161,60,106)" stroke="rgb(161,60,106)" stroke-width="1" opacity="0.8549019607843137" d="M 110.5 153 L 111 155.5 L 108.5 159 L 108 156.5 L 110.5 153 Z " /><path fill="rgb(161,60,106)" stroke="rgb(161,60,106)" stroke-width="1" opacity="0.8549019607843137" d="M 103.5 170 L 106 170.5 L 103.5 171 L 103.5 170 Z " /><path fill="rgb(161,60,106)" stroke="rgb(161,60,106)" stroke-width="1" opacity="0.8549019607843137" d="M 103.5 173 L 104 174.5 L 101 176.5 L 103.5 173 Z " /><path fill="rgb(161,60,106)" stroke="rgb(161,60,106)" stroke-width="1" opacity="0.8549019607843137" d="M 94.5 185 L 94 186.5 Q 94.7 189.1 92 188 Q 90.9 185.3 93.5 186 L 94.5 185 Z " /><path fill="rgb(248,47,97)" stroke="rgb(248,47,97)" stroke-width="1" opacity="0.9921568627450981" d="M 145 17 L 149 17.5 L 145.5 19 L 145 17 Z " /><path fill="rgb(248,47,97)" stroke="rgb(248,47,97)" stroke-width="1" opacity="0.9921568627450981" d="M 141.5 19 L 142 21 L 140 20.5 L 141.5 19 Z " /><path fill="rgb(248,47,97)" stroke="rgb(248,47,97)" stroke-width="1" opacity="0.9921568627450981" d="M 136.5 21 L 138 21.5 L 133.5 23 L 133.5 22 L 136.5 21 Z " /><path fill="rgb(248,47,97)" stroke="rgb(248,47,97)" stroke-width="1" opacity="0.9921568627450981" d="M 152.5 21 L 155.5 25 L 152.5 21 Z " /><path fill="rgb(248,47,97)" stroke="rgb(248,47,97)" stroke-width="1" opacity="0.9921568627450981" d="M 129.5 24 L 131 24.5 L 128.5 26 L 129.5 24 Z " /><path fill="rgb(248,47,97)" stroke="rgb(248,47,97)" stroke-width="1" opacity="0.9921568627450981" d="M 122.5 28 L 121.5 30 L 119 29.5 L 122.5 28 Z " /><path fill="rgb(248,47,97)" stroke="rgb(248,47,97)" stroke-width="1" opacity="0.9921568627450981" d="M 159.5 28 L 163.5 33 L 159.5 28 Z " /><path fill="rgb(248,47,97)" stroke="rgb(248,47,97)" stroke-width="1" opacity="0.9921568627450981" d="M 116.5 31 L 115.5 33 L 116.5 31 Z " /><path fill="rgb(248,47,97)" stroke="rgb(248,47,97)" stroke-width="1" opacity="0.9921568627450981" d="M 112 33 L 114 33.5 L 112 34.5 L 112 33 Z " /><path fill="rgb(248,47,97)" stroke="rgb(248,47,97)" stroke-width="1" opacity="0.9921568627450981" d="M 167.5 36 L 170.5 40 L 167.5 36 Z " /><path fill="rgb(248,47,97)" stroke="rgb(248,47,97)" stroke-width="1" opacity="0.9921568627450981" d="M 106.5 37 L 104.5 40 L 101.5 42 L 101 40 L 106.5 37 Z " /><path fill="rgb(248,47,97)" stroke="rgb(248,47,97)" stroke-width="1" opacity="0.9921568627450981" d="M 99.5 42 L 98.5 44 L 99.5 42 Z " /><path fill="rgb(248,47,97)" stroke="rgb(248,47,97)" stroke-width="1" opacity="0.9921568627450981" d="M 96.5 44 L 95.5 46 L 94 45.5 L 96.5 44 Z " /><path fill="rgb(248,47,97)" stroke="rgb(248,47,97)" stroke-width="1" opacity="0.9921568627450981" d="M 175.5 44 L 178.5 48 L 175.5 44 Z " /><path fill="rgb(248,47,97)" stroke="rgb(248,47,97)" stroke-width="1" opacity="0.9921568627450981" d="M 89 49 L 91 49.5 L 83.5 56 L 87.5 51 Q 90.1 51.7 89 49 Z " /><path fill="rgb(248,47,97)" stroke="rgb(248,47,97)" stroke-width="1" opacity="0.9921568627450981" d="M 178.5 51 L 178 52.5 L 176.5 56 L 177 54.5 L 178.5 51 Z " /><path fill="rgb(248,47,97)" stroke="rgb(248,47,97)" stroke-width="1" opacity="0.9921568627450981" d="M 175.5 58 L 176 59.5 L 174 60.5 L 175.5 58 Z " /><path fill="rgb(248,47,97)" stroke="rgb(248,47,97)" stroke-width="1" opacity="0.9921568627450981" d="M 172 63 Q 175 62 174 65 Q 171 66 172 63 Z " /><path fill="rgb(248,47,97)" stroke="rgb(248,47,97)" stroke-width="1" opacity="0.9921568627450981" d="M 171.5 67 L 172 68.5 L 170.5 71 L 170 69.5 L 171.5 67 Z " /><path fill="rgb(248,47,97)" stroke="rgb(248,47,97)" stroke-width="1" opacity="0.9921568627450981" d="M 69 68 L 71 68.5 L 68 70.5 L 69 68 Z " /><path fill="rgb(248,47,97)" stroke="rgb(248,47,97)" stroke-width="1" opacity="0.9921568627450981" d="M 64 74 L 66 74.5 L 64 75.5 L 64 74 Z " /><path fill="rgb(248,47,97)" stroke="rgb(248,47,97)" stroke-width="1" opacity="0.9921568627450981" d="M 168.5 74 L 169 76 L 167 75.5 L 168.5 74 Z " /><path fill="rgb(248,47,97)" stroke="rgb(248,47,97)" stroke-width="1" opacity="0.9921568627450981" d="M 60.5 79 L 61 80.5 L 59 81.5 L 60.5 79 Z " /><path fill="rgb(248,47,97)" stroke="rgb(248,47,97)" stroke-width="1" opacity="0.9921568627450981" d="M 164.5 81 L 165 82.5 L 161.5 88 L 161 86.5 L 164.5 81 Z " /><path fill="rgb(248,47,97)" stroke="rgb(248,47,97)" stroke-width="1" opacity="0.9921568627450981" d="M 43.5 85 L 45 85.5 L 42.5 87 L 43.5 85 Z " /><path fill="rgb(248,47,97)" stroke="rgb(248,47,97)" stroke-width="1" opacity="0.9921568627450981" d="M 55 86 Q 58 85 57 88 Q 54 89 55 86 Z " /><path fill="rgb(248,47,97)" stroke="rgb(248,47,97)" stroke-width="1" opacity="0.9921568627450981" d="M 54.5 89 L 54 90.5 L 52.5 94 L 53 92.5 L 54.5 89 Z " /><path fill="rgb(248,47,97)" stroke="rgb(248,47,97)" stroke-width="1" opacity="0.9921568627450981" d="M 159.5 90 L 160 92 L 158 91.5 L 159.5 90 Z " /><path fill="rgb(248,47,97)" stroke="rgb(248,47,97)" stroke-width="1" opacity="0.9921568627450981" d="M 157.5 93 L 158 95 L 156 94.5 L 157.5 93 Z " /><path fill="rgb(248,47,97)" stroke="rgb(248,47,97)" stroke-width="1" opacity="0.9921568627450981" d="M 51.5 96 L 50.5 98 L 51.5 96 Z " /><path fill="rgb(248,47,97)" stroke="rgb(248,47,97)" stroke-width="1" opacity="0.9921568627450981" d="M 155.5 96 L 155 97.5 L 154.5 99 L 154 97.5 L 155.5 96 Z " /><path fill="rgb(248,47,97)" stroke="rgb(248,47,97)" stroke-width="1" opacity="0.9921568627450981" d="M 86.5 99 Q 93.1 99.4 96 103.5 L 96 106 L 98 106.5 L 98 112.5 L 94 120.5 L 94 123.5 L 92 125.5 L 92 128.5 L 84 149.5 L 84 151.5 L 80 159.5 L 80 162.5 L 76.5 166 L 71.5 167 L 68 166 L 68 164 L 66 164 Q 67.1 161.3 64.5 162 L 61 157 L 59 157 L 59 155 L 57 155 Q 58.1 152.3 55.5 153 L 54 150 L 52 150 L 52 148 L 50 148 Q 51.1 145.3 48.5 146 L 47 143 L 45 143 L 45 141 L 43 141 Q 44.1 138.3 41.5 139 L 38 134 L 36 134 Q 37.1 131.3 34.5 132 L 31 127.5 L 31 121.5 L 34 120 L 34 118 Q 39.3 119.3 38.5 116 L 41.5 116 L 44.5 114 L 52 113 Q 50.6 109.3 56.5 111 L 58.5 109 L 86.5 99 Z " /><path fill="rgb(248,47,97)" stroke="rgb(248,47,97)" stroke-width="1" opacity="0.9921568627450981" d="M 49.5 100 L 50 101.5 L 48 102.5 L 49.5 100 Z " /><path fill="rgb(248,47,97)" stroke="rgb(248,47,97)" stroke-width="1" opacity="0.9921568627450981" d="M 152.5 100 L 153 102 L 151 101.5 L 152.5 100 Z " /><path fill="rgb(248,47,97)" stroke="rgb(248,47,97)" stroke-width="1" opacity="0.9921568627450981" d="M 47.5 105 L 47 106.5 L 45.5 111 L 45 109.5 L 47.5 105 Z " /><path fill="rgb(248,47,97)" stroke="rgb(248,47,97)" stroke-width="1" opacity="0.9921568627450981" d="M 148.5 105 L 145.5 109 L 148.5 105 Z " /><path fill="rgb(248,47,97)" stroke="rgb(248,47,97)" stroke-width="1" opacity="0.9921568627450981" d="M 140.5 113 L 139 115.5 Q 139.8 117.8 137.5 117 L 140.5 113 Z " /><path fill="rgb(248,47,97)" stroke="rgb(248,47,97)" stroke-width="1" opacity="0.9921568627450981" d="M 131.5 122 L 132 124 L 130 123.5 L 131.5 122 Z " /><path fill="rgb(248,47,97)" stroke="rgb(248,47,97)" stroke-width="1" opacity="0.9921568627450981" d="M 125.5 127 L 126 129 L 121.5 131 L 121.5 130 L 125.5 127 Z " /><path fill="rgb(248,47,97)" stroke="rgb(248,47,97)" stroke-width="1" opacity="0.9921568627450981" d="M 115.5 134 L 116 136 L 114 135.5 L 115.5 134 Z " /><path fill="rgb(248,47,97)" stroke="rgb(248,47,97)" stroke-width="1" opacity="0.9921568627450981" d="M 112.5 136 L 111.5 138 L 110 137.5 L 112.5 136 Z " /><path fill="rgb(248,47,97)" stroke="rgb(248,47,97)" stroke-width="1" opacity="0.9921568627450981" d="M 107.5 139 L 109 139.5 L 106.5 141 L 107.5 139 Z " /><path fill="rgb(248,47,97)" stroke="rgb(248,47,97)" stroke-width="1" opacity="0.9921568627450981" d="M 103.5 141 L 102.5 143 L 103.5 141 Z " /><path fill="rgb(248,47,97)" stroke="rgb(248,47,97)" stroke-width="1" opacity="0.9921568627450981" d="M 96.5 145 L 95.5 147 L 92.5 148 L 93.5 146 L 96.5 145 Z " /><path fill="rgb(248,47,97)" stroke="rgb(248,47,97)" stroke-width="1" opacity="0.9921568627450981" d="M 88.5 148 L 89 150 L 87 149.5 L 88.5 148 Z " /><path fill="rgb(251,130,94)" stroke="rgb(251,130,94)" stroke-width="1" opacity="0.9450980392156862" d="M 146.5 18 L 148.5 18 L 163.5 33 L 165 33 L 165 35 Q 167.7 33.9 167 36.5 L 172 40 L 172 42 Q 174.7 40.9 174 43.5 L 179 48.5 L 179 50.5 L 177 51.5 L 178 48.5 L 148.5 19 L 146.5 19 L 146.5 18 Z " /><path fill="rgb(251,130,94)" stroke="rgb(251,130,94)" stroke-width="1" opacity="0.9450980392156862" d="M 142 19 L 144 19.5 L 142 20.5 L 142 19 Z " /><path fill="rgb(251,130,94)" stroke="rgb(251,130,94)" stroke-width="1" opacity="0.9450980392156862" d="M 138.5 21 L 137.5 23 L 136 22.5 L 138.5 21 Z " /><path fill="rgb(251,130,94)" stroke="rgb(251,130,94)" stroke-width="1" opacity="0.9450980392156862" d="M 133.5 23 L 135 23.5 L 130.5 26 L 131.5 24 L 133.5 23 Z " /><path fill="rgb(251,130,94)" stroke="rgb(251,130,94)" stroke-width="1" opacity="0.9450980392156862" d="M 126 26 L 128 26.5 L 126 27.5 L 126 26 Z " /><path fill="rgb(251,130,94)" stroke="rgb(251,130,94)" stroke-width="1" opacity="0.9450980392156862" d="M 123.5 28 L 122.5 30 L 123.5 28 Z " /><path fill="rgb(251,130,94)" stroke="rgb(251,130,94)" stroke-width="1" opacity="0.9450980392156862" d="M 119.5 30 L 121 30.5 L 116.5 33 L 117.5 31 L 119.5 30 Z " /><path fill="rgb(251,130,94)" stroke="rgb(251,130,94)" stroke-width="1" opacity="0.9450980392156862" d="M 114.5 33 L 113.5 35 L 114.5 33 Z " /><path fill="rgb(251,130,94)" stroke="rgb(251,130,94)" stroke-width="1" opacity="0.9450980392156862" d="M 110 35 L 112 35.5 L 110 36.5 L 110 35 Z " /><path fill="rgb(251,130,94)" stroke="rgb(251,130,94)" stroke-width="1" opacity="0.9450980392156862" d="M 107.5 37 L 106.5 39 L 107.5 37 Z " /><path fill="rgb(251,130,94)" stroke="rgb(251,130,94)" stroke-width="1" opacity="0.9450980392156862" d="M 103.5 40 L 102.5 42 L 103.5 40 Z " /><path fill="rgb(251,130,94)" stroke="rgb(251,130,94)" stroke-width="1" opacity="0.9450980392156862" d="M 100.5 42 L 99.5 44 L 100.5 42 Z " /><path fill="rgb(251,130,94)" stroke="rgb(251,130,94)" stroke-width="1" opacity="0.9450980392156862" d="M 97.5 44 L 98 46 L 92.5 49 L 94.5 46 L 97.5 44 Z " /><path fill="rgb(251,130,94)" stroke="rgb(251,130,94)" stroke-width="1" opacity="0.9450980392156862" d="M 87.5 52 L 89 52.5 L 82.5 57 L 82.5 56 L 87.5 52 Z " /><path fill="rgb(251,130,94)" stroke="rgb(251,130,94)" stroke-width="1" opacity="0.9450980392156862" d="M 175.5 56 L 176 57.5 L 174.5 60 L 174 58.5 L 175.5 56 Z " /><path fill="rgb(251,130,94)" stroke="rgb(251,130,94)" stroke-width="1" opacity="0.9450980392156862" d="M 78.5 60 L 79 62 L 77 61.5 L 78.5 60 Z " /><path fill="rgb(251,130,94)" stroke="rgb(251,130,94)" stroke-width="1" opacity="0.9450980392156862" d="M 171.5 66 L 171 67.5 L 170.5 69 L 170 67.5 L 171.5 66 Z " /><path fill="rgb(251,130,94)" stroke="rgb(251,130,94)" stroke-width="1" opacity="0.9450980392156862" d="M 69.5 70 L 68 72.5 Q 68.8 74.8 66.5 74 L 69.5 70 Z " /><path fill="rgb(251,130,94)" stroke="rgb(251,130,94)" stroke-width="1" opacity="0.9450980392156862" d="M 169.5 70 L 170 71.5 L 167.5 75 L 168 73.5 L 169.5 70 Z " /><path fill="rgb(251,130,94)" stroke="rgb(251,130,94)" stroke-width="1" opacity="0.9450980392156862" d="M 166.5 76 L 167 77.5 L 165 78.5 L 166.5 76 Z " /><path fill="rgb(251,130,94)" stroke="rgb(251,130,94)" stroke-width="1" opacity="0.9450980392156862" d="M 61.5 79 L 62 80.5 L 61 83 L 59 82.5 L 61.5 79 Z " /><path fill="rgb(251,130,94)" stroke="rgb(251,130,94)" stroke-width="1" opacity="0.9450980392156862" d="M 58.5 84 L 57.5 86 L 58.5 84 Z " /><path fill="rgb(251,130,94)" stroke="rgb(251,130,94)" stroke-width="1" opacity="0.9450980392156862" d="M 162.5 84 L 161.5 86 L 162.5 84 Z " /><path fill="rgb(251,130,94)" stroke="rgb(251,130,94)" stroke-width="1" opacity="0.9450980392156862" d="M 160.5 87 L 160 88.5 L 158.5 91 L 159 89.5 L 160.5 87 Z " /><path fill="rgb(251,130,94)" stroke="rgb(251,130,94)" stroke-width="1" opacity="0.9450980392156862" d="M 55.5 88 L 56 89.5 L 54 90.5 L 55.5 88 Z " /><path fill="rgb(251,130,94)" stroke="rgb(251,130,94)" stroke-width="1" opacity="0.9450980392156862" d="M 53.5 93 L 52.5 95 L 53.5 93 Z " /><path fill="rgb(251,130,94)" stroke="rgb(251,130,94)" stroke-width="1" opacity="0.9450980392156862" d="M 155.5 95 L 154.5 97 L 155.5 95 Z " /><path fill="rgb(251,130,94)" stroke="rgb(251,130,94)" stroke-width="1" opacity="0.9450980392156862" d="M 51.5 97 L 52 98.5 L 50 99.5 L 51.5 97 Z " /><path fill="rgb(251,130,94)" stroke="rgb(251,130,94)" stroke-width="1" opacity="0.9450980392156862" d="M 153.5 98 L 151.5 101 L 153.5 98 Z " /><path fill="rgb(251,130,94)" stroke="rgb(251,130,94)" stroke-width="1" opacity="0.9450980392156862" d="M 83.5 99 L 86 99.5 L 83.5 100 L 83.5 99 Z " /><path fill="rgb(251,130,94)" stroke="rgb(251,130,94)" stroke-width="1" opacity="0.9450980392156862" d="M 79.5 100 L 82 100.5 L 78.5 102 L 79.5 100 Z " /><path fill="rgb(251,130,94)" stroke="rgb(251,130,94)" stroke-width="1" opacity="0.9450980392156862" d="M 92.5 100 L 93.5 102 L 92.5 100 Z " /><path fill="rgb(251,130,94)" stroke="rgb(251,130,94)" stroke-width="1" opacity="0.9450980392156862" d="M 49.5 102 L 49 103.5 L 47.5 107 L 48 105.5 L 49.5 102 Z " /><path fill="rgb(251,130,94)" stroke="rgb(251,130,94)" stroke-width="1" opacity="0.9450980392156862" d="M 74.5 102 L 76 102.5 L 73.5 104 L 74.5 102 Z " /><path fill="rgb(251,130,94)" stroke="rgb(251,130,94)" stroke-width="1" opacity="0.9450980392156862" d="M 149 102 L 151 102.5 L 142 111.5 L 142 113 L 140 112.5 L 142 109 L 147 105.5 Q 146.3 102.9 149 104 L 149 102 Z " /><path fill="rgb(251,130,94)" stroke="rgb(251,130,94)" stroke-width="1" opacity="0.9450980392156862" d="M 69.5 104 L 71 104.5 L 68.5 106 L 69.5 104 Z " /><path fill="rgb(251,130,94)" stroke="rgb(251,130,94)" stroke-width="1" opacity="0.9450980392156862" d="M 96 104 Q 99 103 98 106 Q 95 107 96 104 Z " /><path fill="rgb(251,130,94)" stroke="rgb(251,130,94)" stroke-width="1" opacity="0.9450980392156862" d="M 64.5 106 L 66 106.5 L 60.5 109 L 61.5 107 L 64.5 106 Z " /><path fill="rgb(251,130,94)" stroke="rgb(251,130,94)" stroke-width="1" opacity="0.9450980392156862" d="M 46.5 109 L 47 110.5 L 46 111.5 L 47.5 114 Q 43.8 115.3 45 111.5 L 46.5 109 Z " /><path fill="rgb(251,130,94)" stroke="rgb(251,130,94)" stroke-width="1" opacity="0.9450980392156862" d="M 56.5 109 L 58 109.5 L 55.5 111 L 56.5 109 Z " /><path fill="rgb(251,130,94)" stroke="rgb(251,130,94)" stroke-width="1" opacity="0.9450980392156862" d="M 51.5 111 L 52 113 L 50 112.5 L 51.5 111 Z " /><path fill="rgb(251,130,94)" stroke="rgb(251,130,94)" stroke-width="1" opacity="0.9450980392156862" d="M 97.5 113 L 98 116 L 96 115.5 L 97.5 113 Z " /><path fill="rgb(251,130,94)" stroke="rgb(251,130,94)" stroke-width="1" opacity="0.9450980392156862" d="M 95.5 119 L 95 120.5 L 94.5 122 L 94 120.5 L 95.5 119 Z " /><path fill="rgb(251,130,94)" stroke="rgb(251,130,94)" stroke-width="1" opacity="0.9450980392156862" d="M 93.5 124 L 93 125.5 Q 93.8 129.3 91.5 130 L 92 128.5 Q 91.3 124.8 93.5 124 Z " /><path fill="rgb(251,130,94)" stroke="rgb(251,130,94)" stroke-width="1" opacity="0.9450980392156862" d="M 126 125 L 128 125.5 L 126 126.5 L 126 125 Z " /><path fill="rgb(251,130,94)" stroke="rgb(251,130,94)" stroke-width="1" opacity="0.9450980392156862" d="M 124.5 127 L 122.5 130 L 124.5 127 Z " /><path fill="rgb(251,130,94)" stroke="rgb(251,130,94)" stroke-width="1" opacity="0.9450980392156862" d="M 90.5 132 L 91 133.5 L 89 134.5 L 90.5 132 Z " /><path fill="rgb(251,130,94)" stroke="rgb(251,130,94)" stroke-width="1" opacity="0.9450980392156862" d="M 114.5 134 L 113.5 136 L 114.5 134 Z " /><path fill="rgb(251,130,94)" stroke="rgb(251,130,94)" stroke-width="1" opacity="0.9450980392156862" d="M 109.5 137 L 110 139 L 108 138.5 L 109.5 137 Z " /><path fill="rgb(251,130,94)" stroke="rgb(251,130,94)" stroke-width="1" opacity="0.9450980392156862" d="M 88.5 138 L 89 139.5 L 87 140.5 L 88.5 138 Z " /><path fill="rgb(251,130,94)" stroke="rgb(251,130,94)" stroke-width="1" opacity="0.9450980392156862" d="M 27 139 L 31 141.5 L 32 144.5 L 45.5 158 L 57 168.5 L 55 176 Q 52.3 174.9 53 177.5 L 51.5 181 L 49.5 180 Q 47.6 183.6 43 183 L 43 185 Q 37.7 183.8 38.5 187 L 30.5 187 L 29 187.5 Q 30.9 182.1 27.5 183 L 25.5 184 L 24 183.5 L 24 185 L 20 185 L 19.5 187 L 8 187 L 8 180.5 L 6 179.5 L 6 171 L 8 170.5 L 8 161.5 L 10 158.5 L 10 156.5 Q 9.3 154.3 11.5 155 L 11 153.5 Q 10.3 150.9 13 152 L 13 148 L 14.5 148 L 19.5 142 L 22 143 L 22 141 L 27 141 L 27 139 Z " /><path fill="rgb(251,130,94)" stroke="rgb(251,130,94)" stroke-width="1" opacity="0.9450980392156862" d="M 105 139 L 107 139.5 L 105 140.5 L 105 139 Z " /><path fill="rgb(251,130,94)" stroke="rgb(251,130,94)" stroke-width="1" opacity="0.9450980392156862" d="M 102.5 141 L 101.5 143 L 102.5 141 Z " /><path fill="rgb(251,130,94)" stroke="rgb(251,130,94)" stroke-width="1" opacity="0.9450980392156862" d="M 86.5 143 L 87 144.5 L 86 148.5 L 88 148.5 L 84 150 L 86.5 143 Z " /><path fill="rgb(251,130,94)" stroke="rgb(251,130,94)" stroke-width="1" opacity="0.9450980392156862" d="M 98.5 143 L 100 143.5 L 94.5 146 L 94.5 145 L 98.5 143 Z " /><path fill="rgb(251,130,94)" stroke="rgb(251,130,94)" stroke-width="1" opacity="0.9450980392156862" d="M 91 146 L 93 146.5 L 91 147.5 L 91 146 Z " /><path fill="rgb(202,12,74)" stroke="rgb(202,12,74)" stroke-width="1" opacity="0.9725490196078431" d="M 169 3 L 176 3 L 176 5 L 181 5 L 181 7 L 184 7 Q 182.9 9.7 185.5 9 L 191 14.5 L 191 17 L 193 17.5 L 193 30 L 191 30 L 191 34.5 Q 188 33.5 189 38.5 L 189.5 40 L 188 40 L 188 44 L 186 44 L 186 49 L 184 49 L 184 53.5 Q 180.5 55 183 56.5 Q 183.7 59.1 181 58 L 181 60.5 Q 178 61.8 179 66 L 177 66 L 177 70 Q 174.3 68.9 175 71.5 L 176 74 L 174 74 Q 175.3 78.1 172 77 L 172 81 L 170 81 L 170 84 L 168 84 L 168 88 Q 165.3 86.9 166 89.5 L 165 93 Q 162 91.8 163 95.5 L 158 104 Q 155.3 102.9 156 105.5 L 154 109 Q 151.3 107.9 152 110.5 L 141.5 121 L 140 121 L 140 123 L 138 123 L 138 125 Q 135.3 123.9 136 126.5 L 130 130 L 128 134 L 125.5 134 L 120 137 L 120 139 L 117 139 L 117 141 Q 113.3 139.5 114 142.5 L 114 144.5 Q 114.7 147.1 112 146 L 112 150.5 Q 109 149.5 110 154.5 L 108 158.5 L 108.5 160 Q 106.3 159.3 107 161.5 L 106 163.5 L 106.5 165 L 105 165 L 105 170 L 103 170 L 103 173.5 L 101 175.5 L 101 179.5 L 98 185 Q 93.5 184.2 91.5 187 L 91 185 L 88.5 185 L 80 178 L 74.5 171 L 73 171 L 73 167 Q 77.7 166.6 80 162.5 L 82 154.5 L 85.5 150 L 88.5 150 Q 87.5 147 92.5 148 L 100 145 Q 98.8 142 102.5 143 L 113.5 136 L 116 136 L 116 134 L 119 134 Q 117.9 131.3 120.5 132 L 126 129 L 126 127 L 128 127 Q 126.9 124.3 129.5 125 L 132 124 L 135 118 L 139 117 L 142 111 L 144 111 Q 142.9 108.3 145.5 109 L 149 104 L 153 102 L 153 99 Q 155.7 100.1 155 97.5 L 156 95 L 158 95 L 158 92 L 160 92 L 160 88 Q 162.7 89.1 162 86.5 Q 165.9 84.4 165 79 L 167 79 Q 165.7 74.9 169 76 L 169 72.5 Q 172.9 70.4 172 65 Q 175.3 66.3 174 61.5 L 178 54.5 L 179 47.5 L 174 44 L 174 42 Q 171.3 43.1 172 40.5 L 165 35 L 159.5 28 L 158 28 L 158 26 Q 155.3 27.1 156 24.5 L 151 21 L 149 17 L 145 17 Q 146.3 20.3 141.5 19 L 139.5 21 L 133 22 Q 134.3 25.3 129.5 24 L 121.5 29 L 119 29 Q 120.3 32 116.5 31 Q 115.4 33.8 112 33 Q 113.1 35.7 110.5 35 L 101 40 Q 102.1 42.7 99.5 42 L 94 45 L 92 49 L 89 49 Q 90.1 51.7 87.5 51 L 82 58 L 78 59 L 78 61 Q 75.3 59.9 76 62.5 L 71 66 L 71 68 Q 68.3 66.9 69 69.5 L 68 72 L 64 74 L 64 77 L 62 77 L 62 79 Q 59.3 77.9 60 80.5 L 59 84 L 55 86 L 55 88.5 L 48 101.5 L 48 104.5 L 46 106.5 L 45 113.5 L 43.5 115 L 38 116 L 38 118 L 34 118 Q 35.1 120.7 32.5 120 Q 29.6 121.6 30.5 127 L 13 109.5 L 13 108 L 11 108 L 11 102 L 15.5 99 L 18 99 Q 16.7 95.7 21.5 97 Q 22.9 93.8 28 95 L 28.5 93 L 30.5 94 Q 31.8 91 36 92 L 36 90 L 41 90 L 41 88 L 45 88 Q 43.9 85.3 46.5 86 L 48.5 86 L 52 85 L 54 79 Q 56.7 80.1 56 77.5 L 64 67 L 66 67 L 66 65 Q 68.7 66.1 68 63.5 L 73 60 L 73 58 L 75 58 Q 73.9 55.3 76.5 56 L 79 55 L 79 53 L 81 53 Q 79.9 50.3 82.5 51 L 89 46 L 89 44 L 91 44 Q 89.9 41.3 92.5 42 L 98 39 L 100 35 L 102.5 35 L 105 34 Q 103.9 31.3 106.5 32 L 124.5 21 L 128 21 Q 126.7 17.7 131.5 19 L 131.5 17 L 135 18 L 135.5 15 L 139 16 L 139 14 Q 143.1 15.3 142 12 L 147 12 Q 145.9 9.3 148.5 10 L 150.5 10 L 153.5 8 L 155.5 9 Q 157.5 6.2 162 7 L 162 5 L 168.5 5 L 169 3 Z " /></svg>