<svg width="200" height="200" version="1.1" xmlns="http://www.w3.org/2000/svg" desc="Created with imagetracer.js version 1.2.6" ><path fill="rgb(0,0,0)" stroke="rgb(0,0,0)" stroke-width="1" opacity="0" d="M 0 0 L 200 0 L 200 200 L 0 200 L 0 0 Z M 54 5 L 52 9 L 50 9 L 46 21 L 48 27 Q 47 30 50 29 Q 52 35 48 37 L 48 51 L 18 51 L 17 53 L 13 53 Q 14 56 12 55 L 8 61 L 8 112 L 11 115 Q 10 117 13 116 L 13 186 L 18 190 L 182 190 Q 181 187 186 188 L 186 154 L 188 152 L 188 137 L 186 134 L 186 117 L 187 114 L 193 112 L 193 63 Q 190 63 191 58 L 186 55 L 186 53 L 182 53 L 182 51 L 152 51 L 151 49 L 151 37 L 149 32 L 152 30 L 152 15 L 150 14 L 149 9 Q 148 3 140 5 L 135 11 Q 136 16 133 15 L 133 29 L 136 32 L 135 33 L 135 49 Q 132 48 133 51 L 111 51 L 108 49 L 108 35 L 106 33 L 106 30 L 110 28 L 110 15 L 108 14 L 108 12 L 104 5 L 97 5 Q 97 8 94 7 Q 95 11 91 13 L 91 29 L 94 32 L 92 32 L 92 49 L 91 50 L 91 51 L 66 51 L 66 37 L 64 35 L 64 31 L 68 26 L 68 19 L 64 12 Q 65 8 62 9 L 62 5 L 54 5 Z " /><path fill="rgb(153,214,190)" stroke="rgb(153,214,190)" stroke-width="1" opacity="0.7372549019607844" d="M 60.5 5 Q 62.8 4.3 62 6.5 L 60.5 5 Z " /><path fill="rgb(153,214,190)" stroke="rgb(153,214,190)" stroke-width="1" opacity="0.7372549019607844" d="M 138.5 6 L 139 8 L 137 7.5 L 138.5 6 Z " /><path fill="rgb(153,214,190)" stroke="rgb(153,214,190)" stroke-width="1" opacity="0.7372549019607844" d="M 147.5 7 L 149 9.5 L 148 9.5 L 147.5 7 Z " /><path fill="rgb(153,214,190)" stroke="rgb(153,214,190)" stroke-width="1" opacity="0.7372549019607844" d="M 136.5 10 L 135.5 12 L 136.5 10 Z " /><path fill="rgb(153,214,190)" stroke="rgb(153,214,190)" stroke-width="1" opacity="0.7372549019607844" d="M 49.5 12 L 48.5 14 L 49.5 12 Z " /><path fill="rgb(153,214,190)" stroke="rgb(153,214,190)" stroke-width="1" opacity="0.7372549019607844" d="M 64.5 12 L 65.5 14 L 64.5 12 Z " /><path fill="rgb(153,214,190)" stroke="rgb(153,214,190)" stroke-width="1" opacity="0.7372549019607844" d="M 108.5 14 Q 110.8 13.3 110 15.5 L 108.5 14 Z " /><path fill="rgb(153,214,190)" stroke="rgb(153,214,190)" stroke-width="1" opacity="0.7372549019607844" d="M 65 27 L 67 27.5 L 65 28.5 L 65 27 Z " /><path fill="rgb(153,214,190)" stroke="rgb(153,214,190)" stroke-width="1" opacity="0.7372549019607844" d="M 151.5 27 L 152 28.5 L 150 29.5 L 151.5 27 Z " /><path fill="rgb(153,214,190)" stroke="rgb(153,214,190)" stroke-width="1" opacity="0.7372549019607844" d="M 50.5 29 L 51.5 32 L 52.5 30 Q 54 32.5 59.5 31 L 60.5 30 L 63 31.5 L 63.5 30 Q 62.9 35 66 36.5 L 66 50.5 L 64.5 52 L 49 52 L 48 49.5 L 48 36.5 Q 51.3 34.8 50.5 29 Z " /><path fill="rgb(153,214,190)" stroke="rgb(153,214,190)" stroke-width="1" opacity="0.7372549019607844" d="M 96.5 30 L 101.5 31 L 103.5 30 L 106 31 L 108 34.5 L 108 48.5 L 110 50.5 L 108 50.5 L 107.5 52 L 105.5 52 L 93.5 52 L 93 50 L 91.5 50 L 92 48.5 L 92 34.5 L 94.5 31 L 96.5 30 Z " /><path fill="rgb(153,214,190)" stroke="rgb(153,214,190)" stroke-width="1" opacity="0.7372549019607844" d="M 137 31 L 148.5 31 L 149 32.5 L 150 33.5 L 150 48.5 L 152 50.5 L 150 50.5 L 149.5 52 L 135 52 L 134.5 50 L 133 50.5 L 133 49 L 135 48.5 L 135 32.5 L 136 32.5 L 136.5 34 L 137 31 Z " /><path fill="rgb(153,214,190)" stroke="rgb(153,214,190)" stroke-width="1" opacity="0.7372549019607844" d="M 17.5 51 L 21 51.5 L 17.5 52 L 17.5 51 Z " /><path fill="rgb(153,214,190)" stroke="rgb(153,214,190)" stroke-width="1" opacity="0.7372549019607844" d="M 178.5 51 Q 182.9 49.5 182 52.5 L 180.5 52 Q 177.5 52.5 178.5 51 Z " /><path fill="rgb(153,214,190)" stroke="rgb(153,214,190)" stroke-width="1" opacity="0.7372549019607844" d="M 184.5 53 L 185.5 55 L 184.5 53 Z " /><path fill="rgb(153,214,190)" stroke="rgb(153,214,190)" stroke-width="1" opacity="0.7372549019607844" d="M 11.5 55 L 12 57 L 10 56.5 L 11.5 55 Z " /><path fill="rgb(153,214,190)" stroke="rgb(153,214,190)" stroke-width="1" opacity="0.7372549019607844" d="M 189.5 58 L 191 61.5 L 190 61.5 L 189.5 58 Z " /><path fill="rgb(153,214,190)" stroke="rgb(153,214,190)" stroke-width="1" opacity="0.7372549019607844" d="M 9.5 59 L 8.5 61 L 9.5 59 Z " /><path fill="rgb(153,214,190)" stroke="rgb(153,214,190)" stroke-width="1" opacity="0.7372549019607844" d="M 192.5 63 L 193 107.5 L 192 107.5 L 192.5 63 Z " /><path fill="rgb(153,214,190)" stroke="rgb(153,214,190)" stroke-width="1" opacity="0.7372549019607844" d="M 93 64 L 100 64 L 100 66 Q 102.7 64.9 102 67.5 L 107 74.5 L 106 77 L 102.5 78 L 95 73 L 93 69.5 L 93 64 Z " /><path fill="rgb(153,214,190)" stroke="rgb(153,214,190)" stroke-width="1" opacity="0.7372549019607844" d="M 192.5 109 L 193 111.5 L 192 111.5 L 192.5 109 Z " /><path fill="rgb(153,214,190)" stroke="rgb(153,214,190)" stroke-width="1" opacity="0.7372549019607844" d="M 189.5 112 L 188.5 114 L 189.5 112 Z " /><path fill="rgb(153,214,190)" stroke="rgb(153,214,190)" stroke-width="1" opacity="0.7372549019607844" d="M 11.5 114 L 14 115.5 L 12.5 116 L 11.5 114 Z " /><path fill="rgb(153,214,190)" stroke="rgb(153,214,190)" stroke-width="1" opacity="0.7372549019607844" d="M 185.5 114 Q 187.8 113.3 187 115.5 L 185.5 114 Z " /><path fill="rgb(153,214,190)" stroke="rgb(153,214,190)" stroke-width="1" opacity="0.7372549019607844" d="M 186.5 134 L 187 137 Q 184.3 138.1 185 135.5 L 186.5 134 Z " /><path fill="rgb(153,214,190)" stroke="rgb(153,214,190)" stroke-width="1" opacity="0.7372549019607844" d="M 187.5 139 L 188 147.5 L 187 147.5 L 187.5 139 Z " /><path fill="rgb(153,214,190)" stroke="rgb(153,214,190)" stroke-width="1" opacity="0.7372549019607844" d="M 185.5 149 L 187 152.5 L 185 151.5 L 185.5 149 Z " /><path fill="rgb(153,214,190)" stroke="rgb(153,214,190)" stroke-width="1" opacity="0.7372549019607844" d="M 13.5 184 L 14 186 Q 18.1 184.7 17 188 L 13 185.5 L 13.5 184 Z " /><path fill="rgb(153,214,190)" stroke="rgb(153,214,190)" stroke-width="1" opacity="0.7372549019607844" d="M 181.5 188 L 182 190 L 180 189.5 L 181.5 188 Z " /><path fill="rgb(254,220,166)" stroke="rgb(254,220,166)" stroke-width="1" opacity="0.9803921568627451" d="M 60.5 6 L 61.5 8 Q 58.7 8.7 60.5 6 Z " /><path fill="rgb(254,220,166)" stroke="rgb(254,220,166)" stroke-width="1" opacity="0.9803921568627451" d="M 102 6 Q 106.1 4.7 105 8 L 101.5 9 L 102 7.5 L 102 6 Z " /><path fill="rgb(254,220,166)" stroke="rgb(254,220,166)" stroke-width="1" opacity="0.9803921568627451" d="M 139 6 L 141 6.5 L 139 9.5 L 140 12.5 L 139 12.5 Q 140.3 8.8 136.5 10 L 137 11.5 Q 137.8 13.8 135.5 13 L 135 10.5 L 137.5 8 Q 140.1 8.7 139 6 Z " /><path fill="rgb(254,220,166)" stroke="rgb(254,220,166)" stroke-width="1" opacity="0.9803921568627451" d="M 145.5 6 L 148 10 Q 145 11.3 146 7.5 L 145.5 6 Z " /><path fill="rgb(254,220,166)" stroke="rgb(254,220,166)" stroke-width="1" opacity="0.9803921568627451" d="M 95 7 Q 97.7 5.9 97 8.5 L 99 8.5 Q 99.8 10.8 97.5 10 L 95 9 L 95 7 Z " /><path fill="rgb(254,220,166)" stroke="rgb(254,220,166)" stroke-width="1" opacity="0.9803921568627451" d="M 53.5 8 L 53 9.5 Q 52.3 11.8 54.5 11 L 54.5 12 L 51 11 Q 49.9 8.3 52.5 9 L 53.5 8 Z " /><path fill="rgb(254,220,166)" stroke="rgb(254,220,166)" stroke-width="1" opacity="0.9803921568627451" d="M 56.5 8 L 57 10 L 55 9.5 L 56.5 8 Z " /><path fill="rgb(254,220,166)" stroke="rgb(254,220,166)" stroke-width="1" opacity="0.9803921568627451" d="M 59.5 9 L 60.5 11 L 61 9 Q 64 8 63 11 L 60.5 12 L 59.5 9 Z " /><path fill="rgb(254,220,166)" stroke="rgb(254,220,166)" stroke-width="1" opacity="0.9803921568627451" d="M 104 9 L 107 10.5 L 106.5 13 L 104 9 Z " /><path fill="rgb(254,220,166)" stroke="rgb(254,220,166)" stroke-width="1" opacity="0.9803921568627451" d="M 93.5 10 L 96 13.5 L 94.5 13 Q 92.3 12.3 93 14.5 L 94 17.5 L 93 17.5 L 93 15 Q 90 16 91 13 L 93 12.5 Q 90.8 11.3 93.5 10 Z " /><path fill="rgb(254,220,166)" stroke="rgb(254,220,166)" stroke-width="1" opacity="0.9803921568627451" d="M 102.5 11 L 104.5 14 L 102.5 11 Z " /><path fill="rgb(254,220,166)" stroke="rgb(254,220,166)" stroke-width="1" opacity="0.9803921568627451" d="M 148 11 Q 151 10 150 13 Q 147 11.8 148 15.5 L 147 15.5 L 148 11 Z " /><path fill="rgb(254,220,166)" stroke="rgb(254,220,166)" stroke-width="1" opacity="0.9803921568627451" d="M 49 13 L 51 13.5 L 49 14.5 L 49 13 Z " /><path fill="rgb(254,220,166)" stroke="rgb(254,220,166)" stroke-width="1" opacity="0.9803921568627451" d="M 63.5 13 Q 65.8 12.3 65 14.5 L 63.5 13 Z " /><path fill="rgb(254,220,166)" stroke="rgb(254,220,166)" stroke-width="1" opacity="0.9803921568627451" d="M 107.5 14 L 109 16.5 L 106.5 17 Q 104.3 17.8 105 15.5 L 107 15.5 L 107.5 14 Z " /><path fill="rgb(254,220,166)" stroke="rgb(254,220,166)" stroke-width="1" opacity="0.9803921568627451" d="M 137.5 14 L 138 15.5 L 136 16.5 L 137.5 14 Z " /><path fill="rgb(254,220,166)" stroke="rgb(254,220,166)" stroke-width="1" opacity="0.9803921568627451" d="M 47 16 L 49 16 Q 47.9 18.7 50.5 18 L 50 19.5 L 51 23.5 L 49 22.5 L 49 18 Q 46 19 47 16 Z " /><path fill="rgb(254,220,166)" stroke="rgb(254,220,166)" stroke-width="1" opacity="0.9803921568627451" d="M 65 16 Q 68 15 67 18 L 65 18.5 L 65 25 L 68 25.5 L 65 27 L 65 30 Q 62.3 28.9 63 31.5 L 61 30.5 L 60.5 29 L 59.5 31 L 59 28 L 63 29 L 62 26.5 L 63.5 27 Q 65.8 27.8 65 25.5 Q 62.5 24 64 18.5 L 65 16 Z " /><path fill="rgb(254,220,166)" stroke="rgb(254,220,166)" stroke-width="1" opacity="0.9803921568627451" d="M 93.5 24 L 94 26.5 L 93 29 L 96.5 28 L 96.5 29 L 95 29.5 L 95.5 31 L 93 31 L 91 27 Q 94.1 28.1 93.5 24 Z " /><path fill="rgb(254,220,166)" stroke="rgb(254,220,166)" stroke-width="1" opacity="0.9803921568627451" d="M 51.5 26 L 51 27.5 Q 50.3 29.8 52.5 29 Q 53.7 26.8 55 29.5 Q 55.8 31.8 53.5 31 L 52 30.5 L 51.5 32 L 51 29 L 48 28.5 L 51.5 26 Z " /><path fill="rgb(254,220,166)" stroke="rgb(254,220,166)" stroke-width="1" opacity="0.9803921568627451" d="M 108.5 26 L 109.5 28 L 108.5 26 Z " /><path fill="rgb(254,220,166)" stroke="rgb(254,220,166)" stroke-width="1" opacity="0.9803921568627451" d="M 103.5 27 L 104 29 Q 107 28 106 31 L 104 31 Q 105.1 28.3 102.5 29 L 103.5 27 Z " /><path fill="rgb(254,220,166)" stroke="rgb(254,220,166)" stroke-width="1" opacity="0.9803921568627451" d="M 134 27 L 136 27 Q 134.9 29.7 137.5 29 L 137.5 27 L 142 30.5 L 137 31 L 136.5 34 L 136 30 Q 132.7 31.1 134 27 Z " /><path fill="rgb(254,220,166)" stroke="rgb(254,220,166)" stroke-width="1" opacity="0.9803921568627451" d="M 147.5 27 L 147.5 29 L 150.5 27 L 152 29.5 L 150 29.5 Q 150.5 32.5 143.5 31 L 143.5 30 L 147.5 27 Z " /><path fill="rgb(254,220,166)" stroke="rgb(254,220,166)" stroke-width="1" opacity="0.9803921568627451" d="M 150.5 36 L 151 48.5 L 152 49.5 Q 149.8 50.8 152.5 52 L 180.5 52 L 184.5 54 L 186 53.5 L 185.5 55 L 187 55 L 187 57 Q 189.7 55.9 189 58.5 L 191 58.5 L 190 62 L 193 62.5 L 192 63.5 L 192 113 L 189.5 112 Q 188.4 114.8 185 114 L 184 111.5 L 190 109 L 190 65.5 Q 186.8 66.3 188 61 L 186 61 Q 187.1 58.3 184.5 59 L 183 56 Q 177.7 57.3 178.5 54 L 149.5 54 L 149 52.5 L 151 49.5 L 150 48.5 L 150.5 36 Z " /><path fill="rgb(254,220,166)" stroke="rgb(254,220,166)" stroke-width="1" opacity="0.9803921568627451" d="M 91 50 Q 93.7 48.9 93 51.5 L 94 54 L 63.5 54 L 63 52 L 65.5 51 L 66.5 52 L 91 52 L 91 50 Z " /><path fill="rgb(254,220,166)" stroke="rgb(254,220,166)" stroke-width="1" opacity="0.9803921568627451" d="M 108.5 50 L 110.5 52 L 132.5 52 L 135 50.5 L 136 54 L 107.5 54 L 107 52.5 L 106.5 51 L 108 51.5 L 108.5 50 Z " /><path fill="rgb(254,220,166)" stroke="rgb(254,220,166)" stroke-width="1" opacity="0.9803921568627451" d="M 48.5 51 L 51 52 L 50.5 54 L 20.5 54 Q 19.4 56.7 16 56 Q 17.1 58.7 14.5 58 L 11 63.5 L 11 108.5 L 12 111 Q 15.7 109.5 15 112.5 L 14 115 L 11.5 116 L 11.5 114 L 8 111.5 L 8 61.5 Q 11.5 60 9 58.5 L 9 57 L 12 57 Q 11 54 14 55 L 14 53 L 16.5 53 L 17.5 52 L 47.5 52 L 48.5 51 Z " /><path fill="rgb(254,220,166)" stroke="rgb(254,220,166)" stroke-width="1" opacity="0.9803921568627451" d="M 187.5 136 L 188 138.5 L 187 139.5 L 187 147.5 L 188 151.5 L 186 150.5 L 185.5 149 L 184 149.5 L 184 137.5 L 186.5 137 L 187.5 136 Z " /><path fill="rgb(254,220,166)" stroke="rgb(254,220,166)" stroke-width="1" opacity="0.9803921568627451" d="M 14 137 L 16 137.5 L 16 149 L 14 148.5 L 14 137 Z " /><path fill="rgb(254,220,166)" stroke="rgb(254,220,166)" stroke-width="1" opacity="0.9803921568627451" d="M 14.5 183 L 15 185.5 L 14 185.5 L 14.5 183 Z " /><path fill="rgb(254,220,166)" stroke="rgb(254,220,166)" stroke-width="1" opacity="0.9803921568627451" d="M 183.5 186 Q 185.8 185.3 185 187.5 L 183.5 186 Z " /><path fill="rgb(254,220,166)" stroke="rgb(254,220,166)" stroke-width="1" opacity="0.9803921568627451" d="M 16.5 188 L 19 188.5 L 16.5 189 L 16.5 188 Z " /><path fill="rgb(255,222,167)" stroke="rgb(255,222,167)" stroke-width="1" opacity="1" d="M 57.5 9 Q 59.8 8.3 59 10.5 L 57.5 9 Z " /><path fill="rgb(255,222,167)" stroke="rgb(255,222,167)" stroke-width="1" opacity="1" d="M 99.5 9 Q 101.8 8.3 101 10.5 L 99.5 9 Z " /><path fill="rgb(255,222,167)" stroke="rgb(255,222,167)" stroke-width="1" opacity="1" d="M 142.5 9 L 145 10.5 L 140.5 11 L 140.5 10 L 142.5 9 Z " /><path fill="rgb(255,222,167)" stroke="rgb(255,222,167)" stroke-width="1" opacity="1" d="M 55 28 Q 60.6 26.1 59 31 Q 53.4 32.9 55 28 Z " /><path fill="rgb(255,222,167)" stroke="rgb(255,222,167)" stroke-width="1" opacity="1" d="M 98 28 Q 102.5 26.5 101 31 L 98 29.5 L 98 28 Z " /><path fill="rgb(255,222,167)" stroke="rgb(255,222,167)" stroke-width="1" opacity="1" d="M 140 28 L 145 28 L 145 30 L 142.5 31 L 140 30 L 140 28 Z " /><path fill="rgb(255,222,167)" stroke="rgb(255,222,167)" stroke-width="1" opacity="1" d="M 51 52 L 62.5 52 L 63.5 54 L 94 54 L 94.5 52 L 107 52 L 107.5 54 L 136 54 L 136.5 52 L 149 52 L 149.5 54 L 178.5 54 L 179 56 L 183 56 L 183 57.5 L 186 59 Q 185 62 188 61 L 188 65 L 190 65.5 L 190 109 L 182 112 Q 183.1 109.3 180.5 110 L 178.5 108 L 173.5 107 L 169 108 L 169 110 L 166 110 Q 167.3 113 163.5 112 L 159.5 115 L 148.5 116 Q 147 113.5 141.5 115 L 137.5 112 L 135 112 L 135 110 L 132 110 Q 133.1 107.3 130.5 108 Q 128.5 105 122.5 106 Q 121.4 108.8 118 108 Q 119.1 110.7 116.5 110 L 108.5 115 L 98.5 116 Q 97 113.5 91.5 115 L 76.5 106 L 72.5 106 L 65 110 Q 66.3 113 62.5 112 L 57.5 115 L 47.5 116 Q 46 113.5 40.5 115 L 31 110 Q 32.4 106.3 26.5 108 L 24.5 108 L 21.5 108 L 15.5 112 L 12 111 L 11 108.5 L 11 63.5 L 14.5 58 Q 17.1 58.7 16 56 L 18.5 56 L 20.5 54 L 51 54 L 51 52 Z M 93 64 L 93 70 L 95 73 L 103 78 L 106 77 L 107 75 L 102 68 Q 103 65 100 66 L 100 64 L 93 64 Z M 160 64 Q 161 67 158 66 L 157 69 Q 154 68 155 71 L 153 71 Q 152 76 155 77 L 160 75 Q 159 72 162 73 L 162 71 L 164 71 L 165 69 L 164 66 L 164 64 L 160 64 Z M 70 84 L 69 85 Q 66 84 67 87 L 65 87 L 65 89 L 63 89 L 63 91 L 61 91 L 61 96 L 67 96 L 67 94 Q 70 95 69 93 L 72 91 L 74 87 Q 74 83 70 84 Z " /><path fill="rgb(255,222,167)" stroke="rgb(255,222,167)" stroke-width="1" opacity="1" d="M 16 136 L 181.5 136 L 184 137 L 184 148.5 L 183.5 149 L 16 149 L 16 136 Z " /><path fill="rgb(222,168,90)" stroke="rgb(222,168,90)" stroke-width="1" opacity="0.7686274509803922" d="M 54 5 L 60 5 Q 58.5 8.8 61.5 8 L 61 9.5 L 61 11 Q 64.8 9.5 64 12.5 Q 61.8 13.8 64.5 15 L 66 14.5 L 65 18 Q 69.1 16.3 68 20.5 L 67 22.5 L 68 25 L 65 25 L 65 27 L 63 27 Q 64.1 29.7 61.5 29 L 60 29.5 L 61 27 L 65 25 L 65 18 Q 62 19.3 63 15.5 L 58.5 8 L 55 9.5 Q 55.7 12.1 53 11 L 53 13.5 Q 50.3 14.6 51 18 Q 47.3 16.6 49 22.5 Q 51.8 23.6 51 27 Q 53.7 25.9 53 28.5 L 53.5 30 L 51 29 Q 52.3 26 48.5 27 L 47.5 25 L 49 24.5 L 47 24 L 46 20.5 L 47 18 Q 49.7 19.1 49 16.5 L 48 14.5 L 51 13.5 L 50 11 Q 53.8 12.5 53 9.5 L 52 7 Q 55 8 54 5 Z " /><path fill="rgb(222,168,90)" stroke="rgb(222,168,90)" stroke-width="1" opacity="0.7686274509803922" d="M 96 5 L 103 5.5 L 102 8 Q 105 6.8 104 10.5 L 108 13.5 L 107 15.5 L 110 16.5 L 109.5 27 L 108 26.5 L 106.5 30 L 104.5 29 L 102.5 30 L 102.5 29 Q 105.1 29.7 104 27 L 106 27 L 106 25.5 L 107 24.5 L 107 16.5 L 102 10.5 L 102 8 Q 98.2 7 97 9.5 L 97 13 L 95 13 Q 95.8 16.1 93 15.5 L 93 27 L 95 27 Q 93.9 29.7 96.5 29 L 96.5 30 L 93 29 Q 93.8 25.9 91 26.5 L 91 15 L 93 15 L 93 13 Q 95.7 14.1 95 11.5 L 94 9 Q 97.7 10.5 97 7.5 L 96 5 Z " /><path fill="rgb(222,168,90)" stroke="rgb(222,168,90)" stroke-width="1" opacity="0.7686274509803922" d="M 139.5 5 Q 145.5 3.5 147 6.5 L 146 10 L 149 10.5 L 148 13 L 152 14.5 L 150 15.5 L 152 16 L 152 26.5 L 150.5 27 L 146.5 30 L 149 26.5 L 150 18.5 L 148 13 Q 145 14.3 146 10.5 Q 144.8 7.3 141 8 Q 142 11 139 10 L 139 12.5 Q 133.9 15.9 136 26.5 L 138.5 30 L 136 29 L 136 27 L 133 26.5 L 133 14 L 137 13 L 137 10 Q 139.7 11.1 139 8.5 L 140.5 6 L 139.5 5 Z " /><path fill="rgb(222,168,90)" stroke="rgb(222,168,90)" stroke-width="1" opacity="0.7686274509803922" d="M 48.5 50 L 47.5 52 L 21 51.5 L 47.5 51 L 48.5 50 Z " /><path fill="rgb(222,168,90)" stroke="rgb(222,168,90)" stroke-width="1" opacity="0.7686274509803922" d="M 66.5 51 L 91 51.5 L 66.5 52 L 66.5 51 Z " /><path fill="rgb(222,168,90)" stroke="rgb(222,168,90)" stroke-width="1" opacity="0.7686274509803922" d="M 110.5 51 L 133 51.5 L 110.5 52 L 110.5 51 Z " /><path fill="rgb(222,168,90)" stroke="rgb(222,168,90)" stroke-width="1" opacity="0.7686274509803922" d="M 152.5 51 L 178 51.5 L 152.5 52 L 152.5 51 Z " /><path fill="rgb(222,168,90)" stroke="rgb(222,168,90)" stroke-width="1" opacity="0.7686274509803922" d="M 72.5 85 L 74 87.5 L 73 87.5 L 72.5 85 Z " /><path fill="rgb(222,168,90)" stroke="rgb(222,168,90)" stroke-width="1" opacity="0.7686274509803922" d="M 72.5 106 L 77 106.5 L 72.5 107 L 72.5 106 Z " /><path fill="rgb(222,168,90)" stroke="rgb(222,168,90)" stroke-width="1" opacity="0.7686274509803922" d="M 122.5 106 L 128 106.5 L 121.5 108 L 122.5 106 Z " /><path fill="rgb(222,168,90)" stroke="rgb(222,168,90)" stroke-width="1" opacity="0.7686274509803922" d="M 29.5 108 Q 31.8 107.3 31 109.5 L 29.5 108 Z " /><path fill="rgb(222,168,90)" stroke="rgb(222,168,90)" stroke-width="1" opacity="0.7686274509803922" d="M 68.5 108 L 67.5 110 L 68.5 108 Z " /><path fill="rgb(222,168,90)" stroke="rgb(222,168,90)" stroke-width="1" opacity="0.7686274509803922" d="M 178.5 108 L 179.5 110 L 178.5 108 Z " /><path fill="rgb(222,168,90)" stroke="rgb(222,168,90)" stroke-width="1" opacity="0.7686274509803922" d="M 18.5 110 L 17.5 112 L 18.5 110 Z " /><path fill="rgb(222,168,90)" stroke="rgb(222,168,90)" stroke-width="1" opacity="0.7686274509803922" d="M 83.5 110 L 84.5 112 L 83.5 110 Z " /><path fill="rgb(222,168,90)" stroke="rgb(222,168,90)" stroke-width="1" opacity="0.7686274509803922" d="M 15.5 112 L 16 113.5 L 16 115.5 L 16 136.5 L 14 137.5 L 14 149 L 183.5 149 L 185 150.5 L 186 152.5 L 186 186 L 183 186 L 183 188 Q 178.8 187 179.5 190 L 19 190 L 19 188 L 15 186 L 15 183.5 L 13 183.5 L 13 116.5 L 15.5 112 Z M 16 150 L 16 184 L 17 186 L 22 188 L 178 188 L 182 186 L 185 184 L 185 153 L 183 150 L 16 150 Z " /><path fill="rgb(222,168,90)" stroke="rgb(222,168,90)" stroke-width="1" opacity="0.7686274509803922" d="M 36.5 112 L 37.5 114 L 36.5 112 Z " /><path fill="rgb(222,168,90)" stroke="rgb(222,168,90)" stroke-width="1" opacity="0.7686274509803922" d="M 62.5 112 L 61.5 114 L 58.5 115 L 58.5 114 L 62.5 112 Z " /><path fill="rgb(222,168,90)" stroke="rgb(222,168,90)" stroke-width="1" opacity="0.7686274509803922" d="M 86.5 112 L 89 113.5 L 87.5 113 L 86.5 112 Z " /><path fill="rgb(222,168,90)" stroke="rgb(222,168,90)" stroke-width="1" opacity="0.7686274509803922" d="M 137.5 112 L 138.5 114 L 137.5 112 Z " /><path fill="rgb(222,168,90)" stroke="rgb(222,168,90)" stroke-width="1" opacity="0.7686274509803922" d="M 183.5 112 Q 186.1 111.2 185 114.5 L 186 115.5 L 186 134.5 L 185 137 L 183 136.5 L 185 134.5 L 185 115.5 L 183.5 112 Z " /><path fill="rgb(222,168,90)" stroke="rgb(222,168,90)" stroke-width="1" opacity="0.7686274509803922" d="M 44.5 115 L 50.5 116 L 54.5 115 L 54.5 116 L 47.5 117 L 44.5 116 L 44.5 115 Z " /><path fill="rgb(222,168,90)" stroke="rgb(222,168,90)" stroke-width="1" opacity="0.7686274509803922" d="M 95.5 115 L 101.5 116 L 105.5 115 L 105.5 116 L 98.5 117 L 95.5 116 L 95.5 115 Z " /><path fill="rgb(222,168,90)" stroke="rgb(222,168,90)" stroke-width="1" opacity="0.7686274509803922" d="M 145.5 115 L 152.5 116 L 154.5 115 L 154.5 116 L 148.5 117 L 145.5 116 L 145.5 115 Z " /><path fill="rgb(213,138,61)" stroke="rgb(213,138,61)" stroke-width="1" opacity="0.996078431372549" d="M 99.5 8 L 102 9.5 L 105 17 L 107 17.5 L 107 24.5 L 102 28.5 L 101.5 30 L 101 28 Q 97.3 26.5 98 29.5 L 97 29.5 Q 97.8 27.3 95.5 28 Q 92.1 25.4 93 18.5 L 97 12.5 L 97 10 L 100.5 11 L 101 9 L 99.5 8 Z " /><path fill="rgb(213,138,61)" stroke="rgb(213,138,61)" stroke-width="1" opacity="0.996078431372549" d="M 141 8 Q 144.7 6.5 144 9.5 L 141 9.5 L 141 8 Z " /><path fill="rgb(213,138,61)" stroke="rgb(213,138,61)" stroke-width="1" opacity="0.996078431372549" d="M 56.5 10 L 61 12.5 L 61 15 Q 64 13.8 63 17.5 Q 65.5 19 64 24.5 L 60.5 28 Q 55.7 26.8 54.5 29 Q 49.8 26.8 50 19.5 L 53 12 L 56.5 10 Z " /><path fill="rgb(213,138,61)" stroke="rgb(213,138,61)" stroke-width="1" opacity="0.996078431372549" d="M 145.5 10 L 147 16 Q 150.3 14.7 149 19.5 L 150 23.5 L 149 27 L 145.5 29 L 140.5 28 Q 139 30.5 137.5 27 L 136 26.5 L 136 17.5 Q 138.8 16.4 138 13 Q 141 14 140 11 L 144.5 11 L 145.5 10 Z " /><path fill="rgb(213,138,61)" stroke="rgb(213,138,61)" stroke-width="1" opacity="0.996078431372549" d="M 161.5 64 Q 164.8 62.9 164 65.5 L 165 68.5 L 164 71 L 162 71 L 162 73 L 160 73 Q 161.1 75.7 158.5 75 L 155.5 77 L 153 76 L 153 71 L 154.5 71 L 161.5 64 Z " /><path fill="rgb(213,138,61)" stroke="rgb(213,138,61)" stroke-width="1" opacity="0.996078431372549" d="M 69.5 84 Q 72.8 82.9 72 85.5 L 73 88.5 L 67 96 L 61 96 L 61 92.5 L 63 89 L 65 89 L 65 87 L 67 87 Q 65.9 84.3 68.5 85 L 69.5 84 Z " /><path fill="rgb(213,138,61)" stroke="rgb(213,138,61)" stroke-width="1" opacity="0.996078431372549" d="M 71.5 107 L 72 109 L 69.5 109 L 65.5 112 L 66.5 110 L 71.5 107 Z " /><path fill="rgb(213,138,61)" stroke="rgb(213,138,61)" stroke-width="1" opacity="0.996078431372549" d="M 77.5 107 L 81 108 L 80.5 110 L 77 109 L 77.5 107 Z " /><path fill="rgb(213,138,61)" stroke="rgb(213,138,61)" stroke-width="1" opacity="0.996078431372549" d="M 122.5 107 L 124 107.5 L 118 110 Q 119 113 116 112 Q 114.9 109.3 117.5 110 L 122.5 107 Z " /><path fill="rgb(213,138,61)" stroke="rgb(213,138,61)" stroke-width="1" opacity="0.996078431372549" d="M 127.5 107 L 134 110 L 133.5 112 L 128.5 109 L 127.5 107 Z " /><path fill="rgb(213,138,61)" stroke="rgb(213,138,61)" stroke-width="1" opacity="0.996078431372549" d="M 21 108 L 28.5 108 L 30 109.5 L 28.5 109 L 23.5 109 L 18 112 Q 19.1 114.7 16.5 114 L 15 114.5 L 16 112 L 21 110 L 21 108 Z " /><path fill="rgb(213,138,61)" stroke="rgb(213,138,61)" stroke-width="1" opacity="0.996078431372549" d="M 171.5 108 L 177.5 108 L 181 110 L 180.5 112 Q 178.6 107.9 171.5 109 L 167.5 112 L 167 110 L 171.5 108 Z " /><path fill="rgb(213,138,61)" stroke="rgb(213,138,61)" stroke-width="1" opacity="0.996078431372549" d="M 31 110 Q 34 109 33 112 Q 30 113 31 110 Z " /><path fill="rgb(213,138,61)" stroke="rgb(213,138,61)" stroke-width="1" opacity="0.996078431372549" d="M 82.5 110 L 83.5 112 Q 80.7 112.7 82.5 110 Z " /><path fill="rgb(213,138,61)" stroke="rgb(213,138,61)" stroke-width="1" opacity="0.996078431372549" d="M 34.5 112 L 37 113.5 L 35.5 114 L 34.5 112 Z " /><path fill="rgb(213,138,61)" stroke="rgb(213,138,61)" stroke-width="1" opacity="0.996078431372549" d="M 63.5 112 L 64 114 L 52.5 118 L 46.5 118 Q 43.5 115.2 38 116 L 38.5 114 L 47.5 117 L 51.5 117 Q 53.8 114.3 59.5 115 L 63.5 112 Z " /><path fill="rgb(213,138,61)" stroke="rgb(213,138,61)" stroke-width="1" opacity="0.996078431372549" d="M 113.5 112 Q 116.1 111.3 115 114 L 112 113.5 L 113.5 112 Z " /><path fill="rgb(213,138,61)" stroke="rgb(213,138,61)" stroke-width="1" opacity="0.996078431372549" d="M 135 112 L 138 113.5 L 135 114 L 135 112 Z " /><path fill="rgb(213,138,61)" stroke="rgb(213,138,61)" stroke-width="1" opacity="0.996078431372549" d="M 164.5 112 L 166 112.5 L 162 114 Q 163.1 117.5 155.5 116 Q 154 119.5 147.5 118 Q 144.5 115.2 139 116 Q 137.9 113.3 140.5 114 L 148.5 117 L 152.5 117 L 164.5 112 Z " /><path fill="rgb(213,138,61)" stroke="rgb(213,138,61)" stroke-width="1" opacity="0.996078431372549" d="M 182.5 112 L 183.5 114 L 182.5 112 Z " /><path fill="rgb(213,138,61)" stroke="rgb(213,138,61)" stroke-width="1" opacity="0.996078431372549" d="M 86.5 113 L 90.5 115 L 101.5 117 L 111 114 Q 112.3 117.7 106.5 116 Q 103.8 118.8 97.5 118 Q 95.5 115 89.5 116 L 86.5 113 Z " /><path fill="rgb(213,138,61)" stroke="rgb(213,138,61)" stroke-width="1" opacity="0.996078431372549" d="M 16.5 150 L 183 150.5 L 16.5 151 L 16.5 150 Z " /><path fill="rgb(213,138,61)" stroke="rgb(213,138,61)" stroke-width="1" opacity="0.996078431372549" d="M 21.5 187 L 178 187.5 L 21.5 188 L 21.5 187 Z " /><path fill="rgb(211,136,62)" stroke="rgb(211,136,62)" stroke-width="1" opacity="1" d="M 72 107 L 76.5 107 L 77 109 L 79.5 109 L 82 110 L 82 112 L 86 112 Q 84.9 114.7 87.5 114 L 89.5 116 L 102.5 118 Q 105.5 115.2 111 116 L 111 114 L 115 114 L 115 112 L 118 112 Q 116.9 109.3 119.5 110 L 126.5 107 L 135 112 L 135 114 Q 140.2 112.3 139 116 L 143.5 116 Q 146.5 119 153.5 118 Q 155.4 114.3 162 116 Q 160.8 113 164.5 114 L 171.5 109 L 176.5 109 L 185 115.5 L 185 134.5 L 183.5 136 L 16.5 136 L 16 135.5 L 16 114 L 18 114 Q 16.9 111.3 19.5 112 Q 21.4 107.9 28.5 109 L 31 110 Q 29.8 113 33.5 112 Q 34.6 114.8 38 114 Q 36.6 117.7 42.5 116 Q 45.5 119 52.5 118 L 64 114 Q 62.8 111 66.5 112 Q 67.7 108.3 72 109 L 72 107 Z " /><path fill="rgb(211,136,62)" stroke="rgb(211,136,62)" stroke-width="1" opacity="1" d="M 16 151 L 183.5 151 L 185 152.5 L 185 183.5 L 183.5 184 L 181 185 L 180.5 187 L 19.5 187 L 16 183.5 L 16 151 Z " /></svg>