<svg width="200" height="200" version="1.1" xmlns="http://www.w3.org/2000/svg" desc="Created with imagetracer.js version 1.2.6" ><path fill="rgb(254,175,46)" stroke="rgb(254,175,46)" stroke-width="1" opacity="0.996078431372549" d="M 48 10 L 53 10 L 53 14.5 L 55.5 17 L 66 17.5 L 64 22 L 54 25.5 L 63 72.5 L 67 80.5 L 67 91 L 78.5 91 L 81 88.5 L 81 82 L 95.5 82 L 96.5 81 L 139.5 80 L 147.5 83 L 167 102.5 L 181 119.5 L 184 127.5 L 185 142 L 181.5 141 L 180 141.5 L 180 131.5 L 178 124.5 Q 174.1 114.9 166.5 109 L 164 107.5 L 161.5 104 L 159.5 103 L 158 104.5 Q 159.8 120.8 156 130 L 146 134.5 L 146 148.5 L 144 150.5 L 144 159.5 Q 135.8 174.8 124.5 187 L 115.5 187 L 115 185.5 L 127 160.5 L 127 134.5 L 124.5 132 L 114.5 132 L 113.5 133 L 92.5 133 L 90.5 135 L 81 135 L 79 142.5 Q 80.3 152.8 78 159.5 L 65.5 188 L 55 189 L 57 180.5 L 68 153.5 L 68 135.5 L 58.5 131 L 52 124.5 L 49 119.5 L 47 111.5 L 34 46.5 L 30.5 42 L 23 43 L 23 32.5 L 24.5 31 L 27 29.5 L 32.5 20 L 35 18.5 L 35.5 16 L 38.5 17 L 41.5 15 Q 42.3 17.7 46.5 17 Q 49.5 15.4 48 10 Z M 38 26 L 35 27 L 34 30 Q 33 35 37 37 L 42 36 Q 44 34 43 29 Q 42 25 38 26 Z M 47 39 Q 43 39 44 44 Q 45 46 49 45 Q 51 44 50 41 L 47 39 Z M 50 48 L 48 50 L 48 76 L 50 77 L 59 76 L 60 75 L 55 50 Q 54 47 50 48 Z M 40 49 L 38 51 L 40 63 L 45 63 L 45 54 L 45 52 L 45 49 L 40 49 Z M 56 78 L 55 79 L 48 79 L 48 86 L 60 86 Q 62 85 61 80 Q 60 77 56 78 Z M 124 85 L 123 86 Q 120 85 121 89 L 137 103 Q 138 105 139 103 L 139 85 L 124 85 Z M 96 86 Q 94 89 88 87 Q 85 89 86 95 L 93 101 L 101 101 L 103 99 L 103 89 Q 102 85 96 86 Z M 108 86 L 105 89 L 105 105 L 106 107 L 124 107 L 125 106 L 126 106 L 126 99 L 115 87 L 108 86 Z M 54 88 L 51 89 L 55 113 L 59 118 L 85 118 L 86 117 L 87 117 L 87 101 L 80 94 L 63 94 L 62 89 Q 60 87 54 88 Z M 144 97 L 144 102 L 148 103 L 149 101 L 149 99 L 149 97 L 144 97 Z M 93 107 L 93 128 L 102 128 L 103 127 L 103 109 L 102 107 L 93 107 Z M 145 107 L 143 109 L 143 119 L 145 120 Q 150 122 152 119 Q 155 120 153 113 L 147 107 L 145 107 Z M 137 109 L 136 110 L 112 110 L 106 111 L 106 127 L 108 128 L 126 121 L 137 121 L 138 120 L 139 120 L 139 110 L 137 109 Z M 65 121 L 62 122 L 62 125 L 67 129 L 85 129 L 87 128 L 87 122 L 87 121 L 65 121 Z M 136 125 L 134 126 Q 130 127 131 133 Q 132 137 139 136 L 142 132 L 141 128 Q 140 124 136 125 Z " /><path fill="rgb(0,0,0)" stroke="rgb(0,0,0)" stroke-width="1" opacity="0" d="M 0 0 L 200 0 L 200 200 L 0 200 L 0 0 Z M 52 1 L 48 2 L 46 4 L 46 13 L 45 14 L 44 8 Q 41 6 42 2 Q 37 1 36 4 Q 37 6 34 5 L 34 15 L 32 18 L 30 19 L 23 29 L 23 30 L 18 30 L 16 34 L 16 43 Q 20 47 30 45 L 32 48 L 33 52 L 33 57 L 39 83 L 39 88 L 41 93 L 41 98 L 43 100 Q 44 115 49 126 L 57 133 L 64 135 L 66 138 Q 68 152 63 159 Q 64 162 61 161 L 61 165 L 55 182 L 52 186 L 52 190 L 54 191 L 68 191 L 70 188 L 74 174 L 80 162 L 82 145 L 85 150 Q 84 152 87 151 L 93 161 L 93 188 L 95 189 L 106 188 L 106 151 L 97 140 L 97 138 L 94 136 L 118 135 L 119 134 Q 124 133 125 137 L 125 159 L 113 184 L 113 189 L 128 189 L 144 167 L 147 160 L 148 153 L 157 159 L 159 162 L 159 187 L 171 187 L 173 186 L 173 148 L 171 142 L 159 129 L 161 108 L 166 112 L 170 119 L 173 120 L 177 130 Q 179 140 175 145 L 175 159 L 177 160 L 183 160 Q 184 157 187 158 L 188 156 Q 187 151 190 152 L 190 148 L 187 142 L 187 133 L 185 122 Q 179 109 169 101 L 150 81 L 141 77 L 137 78 L 116 78 L 115 79 L 94 79 L 93 80 L 72 80 L 69 78 L 67 77 L 65 65 L 63 62 L 57 26 Q 63 27 66 24 L 68 21 Q 69 15 67 14 L 66 15 L 58 15 L 56 14 L 56 3 Q 55 0 52 1 Z " /><path fill="rgb(250,194,112)" stroke="rgb(250,194,112)" stroke-width="1" opacity="0.5882352941176471" d="M 48 2 L 54 2.5 Q 49.4 1.9 48 4.5 L 47.5 14 L 47 4.5 L 48 2 Z " /><path fill="rgb(250,194,112)" stroke="rgb(250,194,112)" stroke-width="1" opacity="0.5882352941176471" d="M 42.5 9 L 43 15 L 47 15.5 L 42 16 L 42.5 9 Z " /><path fill="rgb(250,194,112)" stroke="rgb(250,194,112)" stroke-width="1" opacity="0.5882352941176471" d="M 54.5 9 L 56 15.5 L 54 14.5 L 54.5 9 Z " /><path fill="rgb(250,194,112)" stroke="rgb(250,194,112)" stroke-width="1" opacity="0.5882352941176471" d="M 65.5 15 Q 68.9 14.1 67 19.5 L 63.5 24 L 60.5 25 L 60.5 24 L 66 19.5 L 65.5 15 Z " /><path fill="rgb(250,194,112)" stroke="rgb(250,194,112)" stroke-width="1" opacity="0.5882352941176471" d="M 34.5 16 L 35 17.5 L 29 22.5 L 24.5 31 L 22 30.5 L 25 30 Q 26.2 22.9 31.5 19 Q 33.8 19.8 33 17.5 L 34.5 16 Z " /><path fill="rgb(250,194,112)" stroke="rgb(250,194,112)" stroke-width="1" opacity="0.5882352941176471" d="M 55.5 27 L 56 30.5 L 55 30.5 L 55.5 27 Z " /><path fill="rgb(250,194,112)" stroke="rgb(250,194,112)" stroke-width="1" opacity="0.5882352941176471" d="M 20.5 31 L 17.5 35 L 20.5 31 Z " /><path fill="rgb(250,194,112)" stroke="rgb(250,194,112)" stroke-width="1" opacity="0.5882352941176471" d="M 56.5 33 L 57 35.5 L 56 35.5 L 56.5 33 Z " /><path fill="rgb(250,194,112)" stroke="rgb(250,194,112)" stroke-width="1" opacity="0.5882352941176471" d="M 57.5 37 L 58 40.5 L 57 40.5 L 57.5 37 Z " /><path fill="rgb(250,194,112)" stroke="rgb(250,194,112)" stroke-width="1" opacity="0.5882352941176471" d="M 21.5 43 L 31.5 43 L 33 44.5 L 35 56.5 L 34 56.5 L 32 45.5 L 30.5 44 L 21.5 44 L 21.5 43 Z " /><path fill="rgb(250,194,112)" stroke="rgb(250,194,112)" stroke-width="1" opacity="0.5882352941176471" d="M 59.5 47 L 60 49.5 L 59 49.5 L 59.5 47 Z " /><path fill="rgb(250,194,112)" stroke="rgb(250,194,112)" stroke-width="1" opacity="0.5882352941176471" d="M 60.5 52 L 66 76.5 L 65 76.5 L 60.5 52 Z " /><path fill="rgb(250,194,112)" stroke="rgb(250,194,112)" stroke-width="1" opacity="0.5882352941176471" d="M 35.5 58 L 36 60.5 L 35 60.5 L 35.5 58 Z " /><path fill="rgb(250,194,112)" stroke="rgb(250,194,112)" stroke-width="1" opacity="0.5882352941176471" d="M 36.5 63 L 37 66.5 L 36 66.5 L 36.5 63 Z " /><path fill="rgb(250,194,112)" stroke="rgb(250,194,112)" stroke-width="1" opacity="0.5882352941176471" d="M 37.5 68 L 38 70.5 L 37 70.5 L 37.5 68 Z " /><path fill="rgb(250,194,112)" stroke="rgb(250,194,112)" stroke-width="1" opacity="0.5882352941176471" d="M 38.5 73 L 39 76.5 L 38 76.5 L 38.5 73 Z " /><path fill="rgb(250,194,112)" stroke="rgb(250,194,112)" stroke-width="1" opacity="0.5882352941176471" d="M 39.5 78 L 40 80.5 L 39 80.5 L 39.5 78 Z " /><path fill="rgb(250,194,112)" stroke="rgb(250,194,112)" stroke-width="1" opacity="0.5882352941176471" d="M 132.5 78 L 139.5 78 L 148.5 82 L 169 102.5 L 181 116.5 L 183 121.5 L 182 121.5 L 177 112.5 L 149.5 84 L 139.5 79 L 132.5 79 L 132.5 78 Z " /><path fill="rgb(250,194,112)" stroke="rgb(250,194,112)" stroke-width="1" opacity="0.5882352941176471" d="M 68.5 79 L 69.5 81 L 68.5 79 Z " /><path fill="rgb(250,194,112)" stroke="rgb(250,194,112)" stroke-width="1" opacity="0.5882352941176471" d="M 110.5 79 L 113 79.5 L 110.5 80 L 110.5 79 Z " /><path fill="rgb(250,194,112)" stroke="rgb(250,194,112)" stroke-width="1" opacity="0.5882352941176471" d="M 88.5 80 L 91 80.5 L 88.5 81 L 88.5 80 Z " /><path fill="rgb(250,194,112)" stroke="rgb(250,194,112)" stroke-width="1" opacity="0.5882352941176471" d="M 40.5 83 L 42 90.5 L 41 90.5 L 40.5 83 Z " /><path fill="rgb(250,194,112)" stroke="rgb(250,194,112)" stroke-width="1" opacity="0.5882352941176471" d="M 42.5 93 L 46 109.5 L 45 109.5 L 42 96.5 L 42.5 93 Z " /><path fill="rgb(250,194,112)" stroke="rgb(250,194,112)" stroke-width="1" opacity="0.5882352941176471" d="M 159 104 L 160.5 104 L 170 113.5 L 177 123.5 L 177 125.5 L 176 125.5 Q 170.8 113.3 160.5 106 L 159 106.5 L 159 113.5 Q 161.7 115.3 160 121.5 L 158.5 124 L 158 122.5 Q 160.8 120.8 159 114.5 Q 156.3 112.8 158 106.5 L 159 104 Z " /><path fill="rgb(250,194,112)" stroke="rgb(250,194,112)" stroke-width="1" opacity="0.5882352941176471" d="M 46.5 111 L 47 113.5 L 46 113.5 L 46.5 111 Z " /><path fill="rgb(250,194,112)" stroke="rgb(250,194,112)" stroke-width="1" opacity="0.5882352941176471" d="M 47.5 115 L 48 117.5 L 47 117.5 L 47.5 115 Z " /><path fill="rgb(250,194,112)" stroke="rgb(250,194,112)" stroke-width="1" opacity="0.5882352941176471" d="M 48.5 119 Q 51.4 126.6 57.5 131 L 67 135.5 L 66.5 137 L 66 135 Q 55.2 133.1 50 124.5 L 48.5 119 Z " /><path fill="rgb(250,194,112)" stroke="rgb(250,194,112)" stroke-width="1" opacity="0.5882352941176471" d="M 158.5 129 L 160 132.5 L 170 142.5 L 159 132.5 L 158.5 129 Z " /><path fill="rgb(250,194,112)" stroke="rgb(250,194,112)" stroke-width="1" opacity="0.5882352941176471" d="M 178.5 130 L 179 142.5 L 176.5 147 L 176 145.5 L 178 142.5 L 178.5 130 Z " /><path fill="rgb(250,194,112)" stroke="rgb(250,194,112)" stroke-width="1" opacity="0.5882352941176471" d="M 121.5 133 Q 125.3 132.3 126 134.5 L 124.5 134 Q 120.5 134.8 121.5 133 Z " /><path fill="rgb(250,194,112)" stroke="rgb(250,194,112)" stroke-width="1" opacity="0.5882352941176471" d="M 185.5 133 L 186 141.5 L 185 141.5 L 185.5 133 Z " /><path fill="rgb(250,194,112)" stroke="rgb(250,194,112)" stroke-width="1" opacity="0.5882352941176471" d="M 94.5 134 L 97 134.5 L 94.5 135 L 94.5 134 Z " /><path fill="rgb(250,194,112)" stroke="rgb(250,194,112)" stroke-width="1" opacity="0.5882352941176471" d="M 94.5 137 L 105 151.5 L 104 151.5 L 95 139.5 L 94.5 137 Z " /><path fill="rgb(250,194,112)" stroke="rgb(250,194,112)" stroke-width="1" opacity="0.5882352941176471" d="M 80 142 L 84 144.5 L 87 148.5 L 83 145.5 L 81.5 143 L 80.5 149 L 80 142 Z " /><path fill="rgb(250,194,112)" stroke="rgb(250,194,112)" stroke-width="1" opacity="0.5882352941176471" d="M 187.5 146 L 189 149.5 L 187.5 152 L 187 150.5 L 188 148.5 L 187.5 146 Z " /><path fill="rgb(250,194,112)" stroke="rgb(250,194,112)" stroke-width="1" opacity="0.5882352941176471" d="M 87.5 150 Q 89.8 149.3 89 151.5 L 90.5 154 L 87.5 150 Z " /><path fill="rgb(250,194,112)" stroke="rgb(250,194,112)" stroke-width="1" opacity="0.5882352941176471" d="M 146.5 150 L 150 152.5 L 147.5 151 L 146.5 150 Z " /><path fill="rgb(250,194,112)" stroke="rgb(250,194,112)" stroke-width="1" opacity="0.5882352941176471" d="M 66.5 153 L 67 155.5 L 60.5 171 L 60 168.5 L 66.5 153 Z " /><path fill="rgb(250,194,112)" stroke="rgb(250,194,112)" stroke-width="1" opacity="0.5882352941176471" d="M 79.5 153 L 80 156.5 L 79 156.5 L 79.5 153 Z " /><path fill="rgb(250,194,112)" stroke="rgb(250,194,112)" stroke-width="1" opacity="0.5882352941176471" d="M 151.5 153 L 153.5 156 L 151.5 153 Z " /><path fill="rgb(250,194,112)" stroke="rgb(250,194,112)" stroke-width="1" opacity="0.5882352941176471" d="M 91.5 155 L 92.5 157 L 91.5 155 Z " /><path fill="rgb(250,194,112)" stroke="rgb(250,194,112)" stroke-width="1" opacity="0.5882352941176471" d="M 145.5 155 L 146 159.5 L 126.5 188 L 123 187.5 L 129 183.5 L 143 163.5 L 145.5 155 Z " /><path fill="rgb(250,194,112)" stroke="rgb(250,194,112)" stroke-width="1" opacity="0.5882352941176471" d="M 155.5 156 L 159.5 161 L 155.5 156 Z " /><path fill="rgb(250,194,112)" stroke="rgb(250,194,112)" stroke-width="1" opacity="0.5882352941176471" d="M 176.5 157 L 179 158.5 L 177.5 159 L 176.5 157 Z " /><path fill="rgb(250,194,112)" stroke="rgb(250,194,112)" stroke-width="1" opacity="0.5882352941176471" d="M 182.5 157 L 181.5 159 L 180 158.5 L 182.5 157 Z " /><path fill="rgb(250,194,112)" stroke="rgb(250,194,112)" stroke-width="1" opacity="0.5882352941176471" d="M 78.5 158 L 79 160.5 L 77.5 163 L 77 161.5 L 78.5 158 Z " /><path fill="rgb(250,194,112)" stroke="rgb(250,194,112)" stroke-width="1" opacity="0.5882352941176471" d="M 125.5 160 L 126 161.5 L 119.5 174 L 119 172.5 L 125.5 160 Z " /><path fill="rgb(250,194,112)" stroke="rgb(250,194,112)" stroke-width="1" opacity="0.5882352941176471" d="M 76.5 164 L 77 165.5 L 71.5 178 L 71 176.5 L 76.5 164 Z " /><path fill="rgb(250,194,112)" stroke="rgb(250,194,112)" stroke-width="1" opacity="0.5882352941176471" d="M 118.5 175 L 119 176.5 L 114 186.5 L 117 188.5 L 115.5 189 L 113 185.5 L 118.5 175 Z " /><path fill="rgb(250,194,112)" stroke="rgb(250,194,112)" stroke-width="1" opacity="0.5882352941176471" d="M 57.5 177 L 58 178.5 L 54 189 L 66.5 189 L 67 187.5 L 68.5 185 L 69 186.5 L 66.5 190 L 54.5 190 L 53 188.5 L 57.5 177 Z " /><path fill="rgb(250,194,112)" stroke="rgb(250,194,112)" stroke-width="1" opacity="0.5882352941176471" d="M 70.5 179 L 71 180.5 L 69.5 183 L 69 181.5 L 70.5 179 Z " /><path fill="rgb(210,185,149)" stroke="rgb(210,185,149)" stroke-width="1" opacity="0.12156862745098039" d="M 51.5 1 Q 55.3 0.3 56 2.5 L 56 13.5 L 57.5 15 L 62 15.5 L 56.5 16 L 55 14.5 Q 56.3 5.6 54 2 Q 50.7 2.7 51.5 1 Z " /><path fill="rgb(210,185,149)" stroke="rgb(210,185,149)" stroke-width="1" opacity="0.12156862745098039" d="M 37.5 2 Q 43.4 -0.1 42 4.5 L 41 4.5 L 41 3 L 37 3 L 35 6.5 L 35 15.5 L 33 19 L 28 22.5 L 25 30 Q 22.3 31.1 23 28.5 L 29.5 19 L 32 17.5 L 34 14.5 L 34 5 Q 36.7 6.1 36 3.5 L 37.5 2 Z " /><path fill="rgb(210,185,149)" stroke="rgb(210,185,149)" stroke-width="1" opacity="0.12156862745098039" d="M 47.5 2 L 48 3.5 L 47 4.5 L 47 15 Q 40.6 17.3 43 9.5 L 42 6.5 L 44 7.5 L 44.5 14 L 46 12.5 L 46 3.5 L 47.5 2 Z " /><path fill="rgb(210,185,149)" stroke="rgb(210,185,149)" stroke-width="1" opacity="0.12156862745098039" d="M 66.5 14 Q 69.3 15.3 68 20.5 L 65.5 24 Q 63 27.2 57 26 L 62 54.5 L 61 54.5 L 55 26.5 Q 56.3 23.8 61.5 25 L 66 21.5 L 67 15.5 L 66.5 14 Z " /><path fill="rgb(210,185,149)" stroke="rgb(210,185,149)" stroke-width="1" opacity="0.12156862745098039" d="M 18 30 L 22 30.5 L 17 34.5 Q 15.5 41.5 19.5 43 Q 23 45.5 30.5 44 L 32 45.5 L 31.5 47 L 29.5 45 Q 19.9 46.6 16 42.5 L 16 33.5 L 18 30 Z " /><path fill="rgb(210,185,149)" stroke="rgb(210,185,149)" stroke-width="1" opacity="0.12156862745098039" d="M 33.5 54 L 36 61.5 L 36 66.5 L 38 71.5 L 38 76.5 L 43 98.5 L 41 97.5 L 41 92.5 L 39 87.5 L 39 82.5 L 37 77.5 L 37 72.5 L 33.5 54 Z " /><path fill="rgb(210,185,149)" stroke="rgb(210,185,149)" stroke-width="1" opacity="0.12156862745098039" d="M 63.5 62 Q 66.8 67.8 67 76.5 L 68.5 78 L 71.5 80 L 88 80.5 L 70.5 81 L 66 77.5 L 63.5 62 Z " /><path fill="rgb(210,185,149)" stroke="rgb(210,185,149)" stroke-width="1" opacity="0.12156862745098039" d="M 137.5 77 L 140.5 77 L 149.5 81 L 169 100.5 Q 178.9 109.1 185 121.5 L 187 132.5 L 187 141.5 L 190 147.5 L 190 152 Q 187.3 153.1 188 150.5 L 189 148.5 L 186 142.5 L 186 133.5 L 183 119.5 Q 167.5 99 148.5 82 L 137.5 78 L 137.5 77 Z " /><path fill="rgb(210,185,149)" stroke="rgb(210,185,149)" stroke-width="1" opacity="0.12156862745098039" d="M 115.5 78 L 132 78.5 L 115.5 79 L 115.5 78 Z " /><path fill="rgb(210,185,149)" stroke="rgb(210,185,149)" stroke-width="1" opacity="0.12156862745098039" d="M 93.5 79 L 110 79.5 L 93.5 80 L 93.5 79 Z " /><path fill="rgb(210,185,149)" stroke="rgb(210,185,149)" stroke-width="1" opacity="0.12156862745098039" d="M 159 106 L 160.5 106 L 171 116.5 L 178 128.5 L 178 142.5 L 176 145.5 L 176 157.5 Q 177 160 181.5 159 L 186 157 L 187.5 153 L 188 155.5 L 187 158 Q 183.6 157.3 182.5 160 L 176.5 160 L 175 158.5 L 175 144.5 Q 178.8 139.8 177 129.5 L 173 120 L 170 118.5 L 165.5 112 L 160.5 108 L 159.5 114 L 159 106 Z " /><path fill="rgb(210,185,149)" stroke="rgb(210,185,149)" stroke-width="1" opacity="0.12156862745098039" d="M 45.5 110 Q 47 125.5 57.5 132 L 63 134.5 L 60.5 135 Q 53 132 49 125.5 L 45 113.5 L 45.5 110 Z " /><path fill="rgb(210,185,149)" stroke="rgb(210,185,149)" stroke-width="1" opacity="0.12156862745098039" d="M 159.5 122 L 160 124.5 L 159 128.5 L 172 143.5 L 173 157.5 L 172 157.5 Q 173.2 149.2 171 144.5 L 160 132.5 Q 157.3 130.2 158 124.5 L 159.5 122 Z " /><path fill="rgb(210,185,149)" stroke="rgb(210,185,149)" stroke-width="1" opacity="0.12156862745098039" d="M 97.5 134 L 118 134.5 L 97.5 135 L 97.5 134 Z " /><path fill="rgb(210,185,149)" stroke="rgb(210,185,149)" stroke-width="1" opacity="0.12156862745098039" d="M 123.5 134 L 126 135.5 L 126 159.5 L 113.5 185 L 113 183.5 L 125 158.5 L 125 136.5 L 123.5 134 Z " /><path fill="rgb(210,185,149)" stroke="rgb(210,185,149)" stroke-width="1" opacity="0.12156862745098039" d="M 64.5 135 Q 66.8 134.3 66 136.5 L 67 137.5 L 67 152.5 L 63.5 160 L 63 158.5 Q 68.1 151.6 66 137.5 L 64.5 135 Z " /><path fill="rgb(210,185,149)" stroke="rgb(210,185,149)" stroke-width="1" opacity="0.12156862745098039" d="M 93.5 135 L 97 137.5 L 97 139.5 Q 102.9 144.1 106 151.5 L 105 151.5 L 94.5 137 Q 91.7 137.7 93.5 135 Z " /><path fill="rgb(210,185,149)" stroke="rgb(210,185,149)" stroke-width="1" opacity="0.12156862745098039" d="M 81.5 143 L 94 159.5 L 94 188 L 102 188.5 L 94.5 189 L 93 187.5 L 93 160.5 L 86.5 151 Q 84.3 151.8 85 149.5 L 81 144.5 L 81.5 143 Z " /><path fill="rgb(210,185,149)" stroke="rgb(210,185,149)" stroke-width="1" opacity="0.12156862745098039" d="M 80.5 149 L 81 157.5 L 78 167.5 L 74.5 173 L 74 171.5 L 79 160.5 L 80.5 149 Z " /><path fill="rgb(210,185,149)" stroke="rgb(210,185,149)" stroke-width="1" opacity="0.12156862745098039" d="M 146 151 Q 153.8 153.6 159 160.5 L 156.5 159 L 147.5 153 L 147 159.5 L 144 166.5 L 127.5 189 L 117 188.5 L 126.5 188 L 129 185.5 L 146 159.5 L 146 151 Z " /><path fill="rgb(210,185,149)" stroke="rgb(210,185,149)" stroke-width="1" opacity="0.12156862745098039" d="M 61 161 Q 63.7 159.9 63 162.5 L 55.5 181 L 55 179.5 L 61 164.5 L 61 161 Z " /><path fill="rgb(210,185,149)" stroke="rgb(210,185,149)" stroke-width="1" opacity="0.12156862745098039" d="M 159.5 173 L 160 186 L 171 186.5 L 159 187 L 159.5 173 Z " /><path fill="rgb(210,185,149)" stroke="rgb(210,185,149)" stroke-width="1" opacity="0.12156862745098039" d="M 73.5 174 L 74 175.5 L 70 187.5 L 67.5 191 L 53.5 191 L 52 189.5 Q 51.2 183.7 54.5 182 L 55 183.5 L 53 188.5 L 54.5 190 L 66.5 190 L 73.5 174 Z " /><path fill="rgb(210,185,149)" stroke="rgb(210,185,149)" stroke-width="1" opacity="0.12156862745098039" d="M 113.5 187 L 114.5 189 Q 111.7 189.7 113.5 187 Z " /><path fill="rgb(254,178,57)" stroke="rgb(254,178,57)" stroke-width="1" opacity="0.8588235294117647" d="M 41.5 10 L 42 14.5 L 41 14.5 L 41.5 10 Z " /><path fill="rgb(254,178,57)" stroke="rgb(254,178,57)" stroke-width="1" opacity="0.8588235294117647" d="M 53.5 10 Q 52.9 14.6 55.5 16 L 63.5 16 L 64.5 15 L 65.5 17 L 55.5 17 L 53 14.5 L 53.5 10 Z " /><path fill="rgb(254,178,57)" stroke="rgb(254,178,57)" stroke-width="1" opacity="0.8588235294117647" d="M 35.5 11 L 36 15.5 L 35 15.5 L 35.5 11 Z " /><path fill="rgb(254,178,57)" stroke="rgb(254,178,57)" stroke-width="1" opacity="0.8588235294117647" d="M 47.5 14 L 48 15.5 Q 47.3 17.8 43.5 17 L 43.5 16 Q 48 17.3 47.5 14 Z " /><path fill="rgb(254,178,57)" stroke="rgb(254,178,57)" stroke-width="1" opacity="0.8588235294117647" d="M 34.5 18 L 33.5 20 L 34.5 18 Z " /><path fill="rgb(254,178,57)" stroke="rgb(254,178,57)" stroke-width="1" opacity="0.8588235294117647" d="M 65.5 18 L 66 19.5 L 64 20.5 L 65.5 18 Z " /><path fill="rgb(254,178,57)" stroke="rgb(254,178,57)" stroke-width="1" opacity="0.8588235294117647" d="M 31.5 20 L 30 22.5 L 25.5 31 L 26 29.5 L 31.5 20 Z " /><path fill="rgb(254,178,57)" stroke="rgb(254,178,57)" stroke-width="1" opacity="0.8588235294117647" d="M 62.5 22 L 61.5 24 L 55 25 L 54.5 30 L 54 25.5 L 62.5 22 Z " /><path fill="rgb(254,178,57)" stroke="rgb(254,178,57)" stroke-width="1" opacity="0.8588235294117647" d="M 21.5 31 L 24 31.5 L 21.5 32 L 21.5 31 Z " /><path fill="rgb(254,178,57)" stroke="rgb(254,178,57)" stroke-width="1" opacity="0.8588235294117647" d="M 55.5 31 L 56 33.5 L 55 33.5 L 55.5 31 Z " /><path fill="rgb(254,178,57)" stroke="rgb(254,178,57)" stroke-width="1" opacity="0.8588235294117647" d="M 56.5 36 L 57 38.5 L 56 38.5 L 56.5 36 Z " /><path fill="rgb(254,178,57)" stroke="rgb(254,178,57)" stroke-width="1" opacity="0.8588235294117647" d="M 57.5 41 L 58 43.5 L 57 43.5 L 57.5 41 Z " /><path fill="rgb(254,178,57)" stroke="rgb(254,178,57)" stroke-width="1" opacity="0.8588235294117647" d="M 28.5 42 L 31 42.5 L 28.5 43 L 28.5 42 Z " /><path fill="rgb(254,178,57)" stroke="rgb(254,178,57)" stroke-width="1" opacity="0.8588235294117647" d="M 58.5 45 L 59 47.5 L 58 47.5 L 58.5 45 Z " /><path fill="rgb(254,178,57)" stroke="rgb(254,178,57)" stroke-width="1" opacity="0.8588235294117647" d="M 33.5 46 L 34 48.5 L 33 48.5 L 33.5 46 Z " /><path fill="rgb(254,178,57)" stroke="rgb(254,178,57)" stroke-width="1" opacity="0.8588235294117647" d="M 34.5 50 L 35 53.5 L 34 53.5 L 34.5 50 Z " /><path fill="rgb(254,178,57)" stroke="rgb(254,178,57)" stroke-width="1" opacity="0.8588235294117647" d="M 59.5 50 L 60 53.5 L 59 53.5 L 59.5 50 Z " /><path fill="rgb(254,178,57)" stroke="rgb(254,178,57)" stroke-width="1" opacity="0.8588235294117647" d="M 35.5 55 L 36 57.5 L 35 57.5 L 35.5 55 Z " /><path fill="rgb(254,178,57)" stroke="rgb(254,178,57)" stroke-width="1" opacity="0.8588235294117647" d="M 60.5 55 L 61 57.5 L 60 57.5 L 60.5 55 Z " /><path fill="rgb(254,178,57)" stroke="rgb(254,178,57)" stroke-width="1" opacity="0.8588235294117647" d="M 36.5 60 L 37 62.5 L 36 62.5 L 36.5 60 Z " /><path fill="rgb(254,178,57)" stroke="rgb(254,178,57)" stroke-width="1" opacity="0.8588235294117647" d="M 61.5 60 L 62 63.5 L 61 63.5 L 61.5 60 Z " /><path fill="rgb(254,178,57)" stroke="rgb(254,178,57)" stroke-width="1" opacity="0.8588235294117647" d="M 37.5 65 L 38 67.5 L 37 67.5 L 37.5 65 Z " /><path fill="rgb(254,178,57)" stroke="rgb(254,178,57)" stroke-width="1" opacity="0.8588235294117647" d="M 62.5 65 L 63 67.5 L 62 67.5 L 62.5 65 Z " /><path fill="rgb(254,178,57)" stroke="rgb(254,178,57)" stroke-width="1" opacity="0.8588235294117647" d="M 63.5 69 L 64 72.5 L 63 72.5 L 63.5 69 Z " /><path fill="rgb(254,178,57)" stroke="rgb(254,178,57)" stroke-width="1" opacity="0.8588235294117647" d="M 38.5 70 L 39 72.5 L 38 72.5 L 38.5 70 Z " /><path fill="rgb(254,178,57)" stroke="rgb(254,178,57)" stroke-width="1" opacity="0.8588235294117647" d="M 39.5 75 L 40 77.5 L 39 77.5 L 39.5 75 Z " /><path fill="rgb(254,178,57)" stroke="rgb(254,178,57)" stroke-width="1" opacity="0.8588235294117647" d="M 65.5 77 L 66 79 L 68 79.5 L 66.5 80 L 65.5 77 Z " /><path fill="rgb(254,178,57)" stroke="rgb(254,178,57)" stroke-width="1" opacity="0.8588235294117647" d="M 40.5 79 L 42 86.5 L 41 86.5 L 40.5 79 Z " /><path fill="rgb(254,178,57)" stroke="rgb(254,178,57)" stroke-width="1" opacity="0.8588235294117647" d="M 113.5 79 L 139.5 79 L 143 80.5 L 140.5 81 L 139.5 80 L 118.5 80 L 117.5 81 L 81.5 82 L 81.5 81 L 112.5 80 L 113.5 79 Z " /><path fill="rgb(254,178,57)" stroke="rgb(254,178,57)" stroke-width="1" opacity="0.8588235294117647" d="M 149.5 84 L 164.5 100 L 149.5 84 Z " /><path fill="rgb(254,178,57)" stroke="rgb(254,178,57)" stroke-width="1" opacity="0.8588235294117647" d="M 42.5 88 L 44 96.5 L 43 96.5 L 42.5 88 Z " /><path fill="rgb(254,178,57)" stroke="rgb(254,178,57)" stroke-width="1" opacity="0.8588235294117647" d="M 44.5 98 L 45 100.5 L 44 100.5 L 44.5 98 Z " /><path fill="rgb(254,178,57)" stroke="rgb(254,178,57)" stroke-width="1" opacity="0.8588235294117647" d="M 45.5 102 L 46 105.5 L 45 105.5 L 45.5 102 Z " /><path fill="rgb(254,178,57)" stroke="rgb(254,178,57)" stroke-width="1" opacity="0.8588235294117647" d="M 159.5 103 L 159 104.5 L 158.5 106 L 158 104.5 L 159.5 103 Z " /><path fill="rgb(254,178,57)" stroke="rgb(254,178,57)" stroke-width="1" opacity="0.8588235294117647" d="M 167.5 103 L 181 118.5 L 179 117.5 L 167.5 103 Z " /><path fill="rgb(254,178,57)" stroke="rgb(254,178,57)" stroke-width="1" opacity="0.8588235294117647" d="M 161.5 104 L 163.5 107 L 161.5 104 Z " /><path fill="rgb(254,178,57)" stroke="rgb(254,178,57)" stroke-width="1" opacity="0.8588235294117647" d="M 46.5 107 L 47 110.5 L 46 110.5 L 46.5 107 Z " /><path fill="rgb(254,178,57)" stroke="rgb(254,178,57)" stroke-width="1" opacity="0.8588235294117647" d="M 166.5 109 L 177 122.5 L 175 121.5 L 166.5 109 Z " /><path fill="rgb(254,178,57)" stroke="rgb(254,178,57)" stroke-width="1" opacity="0.8588235294117647" d="M 47.5 112 L 48 114.5 L 47 114.5 L 47.5 112 Z " /><path fill="rgb(254,178,57)" stroke="rgb(254,178,57)" stroke-width="1" opacity="0.8588235294117647" d="M 158.5 114 L 159 121.5 L 158 121.5 L 158.5 114 Z " /><path fill="rgb(254,178,57)" stroke="rgb(254,178,57)" stroke-width="1" opacity="0.8588235294117647" d="M 48.5 116 L 49 118.5 L 48 118.5 L 48.5 116 Z " /><path fill="rgb(254,178,57)" stroke="rgb(254,178,57)" stroke-width="1" opacity="0.8588235294117647" d="M 181.5 120 L 184 126.5 L 183 126.5 L 181.5 120 Z " /><path fill="rgb(254,178,57)" stroke="rgb(254,178,57)" stroke-width="1" opacity="0.8588235294117647" d="M 50.5 122 L 51.5 124 L 50.5 122 Z " /><path fill="rgb(254,178,57)" stroke="rgb(254,178,57)" stroke-width="1" opacity="0.8588235294117647" d="M 157.5 123 L 158 125.5 L 157 125.5 L 157.5 123 Z " /><path fill="rgb(254,178,57)" stroke="rgb(254,178,57)" stroke-width="1" opacity="0.8588235294117647" d="M 177.5 124 L 179 129.5 L 178 129.5 L 177.5 124 Z " /><path fill="rgb(254,178,57)" stroke="rgb(254,178,57)" stroke-width="1" opacity="0.8588235294117647" d="M 52.5 125 L 57.5 131 L 52.5 125 Z " /><path fill="rgb(254,178,57)" stroke="rgb(254,178,57)" stroke-width="1" opacity="0.8588235294117647" d="M 184.5 128 L 185 133.5 L 184 133.5 L 184.5 128 Z " /><path fill="rgb(254,178,57)" stroke="rgb(254,178,57)" stroke-width="1" opacity="0.8588235294117647" d="M 179.5 131 L 180 141.5 L 179 141.5 L 179.5 131 Z " /><path fill="rgb(254,178,57)" stroke="rgb(254,178,57)" stroke-width="1" opacity="0.8588235294117647" d="M 114.5 132 L 124.5 132 L 127 134.5 L 126.5 161 L 126 134.5 L 124.5 133 L 120.5 134 L 94.5 134 L 91.5 135 L 92.5 133 L 113.5 133 L 114.5 132 Z " /><path fill="rgb(254,178,57)" stroke="rgb(254,178,57)" stroke-width="1" opacity="0.8588235294117647" d="M 66.5 134 L 68 135.5 L 68 153.5 L 67 153.5 L 67 135.5 L 66.5 134 Z " /><path fill="rgb(254,178,57)" stroke="rgb(254,178,57)" stroke-width="1" opacity="0.8588235294117647" d="M 160.5 134 L 161.5 136 L 160.5 134 Z " /><path fill="rgb(254,178,57)" stroke="rgb(254,178,57)" stroke-width="1" opacity="0.8588235294117647" d="M 80.5 141 L 80 142.5 L 79.5 153 L 79 142.5 L 80.5 141 Z " /><path fill="rgb(254,178,57)" stroke="rgb(254,178,57)" stroke-width="1" opacity="0.8588235294117647" d="M 168.5 142 L 169.5 144 L 168.5 142 Z " /><path fill="rgb(254,178,57)" stroke="rgb(254,178,57)" stroke-width="1" opacity="0.8588235294117647" d="M 145.5 149 L 147 149.5 L 144.5 159 L 144 150.5 L 145.5 149 Z " /><path fill="rgb(254,178,57)" stroke="rgb(254,178,57)" stroke-width="1" opacity="0.8588235294117647" d="M 66.5 156 L 67 157.5 L 65.5 160 L 65 158.5 L 66.5 156 Z " /><path fill="rgb(254,178,57)" stroke="rgb(254,178,57)" stroke-width="1" opacity="0.8588235294117647" d="M 143.5 160 L 144 161.5 L 141.5 165 L 142 163.5 L 143.5 160 Z " /><path fill="rgb(254,178,57)" stroke="rgb(254,178,57)" stroke-width="1" opacity="0.8588235294117647" d="M 76.5 162 L 77 163.5 L 75.5 166 L 75 164.5 L 76.5 162 Z " /><path fill="rgb(254,178,57)" stroke="rgb(254,178,57)" stroke-width="1" opacity="0.8588235294117647" d="M 62.5 166 L 63 167.5 L 61.5 170 L 61 168.5 L 62.5 166 Z " /><path fill="rgb(254,178,57)" stroke="rgb(254,178,57)" stroke-width="1" opacity="0.8588235294117647" d="M 140.5 166 L 139 168.5 L 136.5 172 L 138 169.5 L 140.5 166 Z " /><path fill="rgb(254,178,57)" stroke="rgb(254,178,57)" stroke-width="1" opacity="0.8588235294117647" d="M 73.5 169 L 74 170.5 L 72.5 174 L 72 171.5 L 73.5 169 Z " /><path fill="rgb(254,178,57)" stroke="rgb(254,178,57)" stroke-width="1" opacity="0.8588235294117647" d="M 60.5 171 L 61 172.5 L 59.5 175 L 59 173.5 L 60.5 171 Z " /><path fill="rgb(254,178,57)" stroke="rgb(254,178,57)" stroke-width="1" opacity="0.8588235294117647" d="M 120.5 173 L 120 174.5 L 118.5 178 L 119 176.5 L 120.5 173 Z " /><path fill="rgb(254,178,57)" stroke="rgb(254,178,57)" stroke-width="1" opacity="0.8588235294117647" d="M 135.5 173 L 134.5 175 L 135.5 173 Z " /><path fill="rgb(254,178,57)" stroke="rgb(254,178,57)" stroke-width="1" opacity="0.8588235294117647" d="M 133.5 176 L 132 178.5 L 125.5 187 L 128 183.5 L 133.5 176 Z " /><path fill="rgb(254,178,57)" stroke="rgb(254,178,57)" stroke-width="1" opacity="0.8588235294117647" d="M 116.5 181 L 117 182.5 L 115.5 185 L 115 183.5 L 116.5 181 Z " /><path fill="rgb(254,178,57)" stroke="rgb(254,178,57)" stroke-width="1" opacity="0.8588235294117647" d="M 68.5 182 L 69 184.5 L 67 189 L 61 188.5 Q 65.6 189.1 67 186.5 L 68.5 182 Z " /><path fill="rgb(254,178,57)" stroke="rgb(254,178,57)" stroke-width="1" opacity="0.8588235294117647" d="M 55.5 184 L 56 185.5 L 54.5 189 L 54 186.5 L 55.5 184 Z " /><path fill="rgb(254,178,57)" stroke="rgb(254,178,57)" stroke-width="1" opacity="0.8588235294117647" d="M 114.5 186 L 123 187.5 L 115.5 188 L 114.5 186 Z " /><path fill="rgb(238,161,50)" stroke="rgb(238,161,50)" stroke-width="1" opacity="0.996078431372549" d="M 42.5 28 L 43 33.5 L 42 33.5 L 42.5 28 Z " /><path fill="rgb(238,161,50)" stroke="rgb(238,161,50)" stroke-width="1" opacity="0.996078431372549" d="M 34.5 29 L 35 33.5 L 34 33.5 L 34.5 29 Z " /><path fill="rgb(238,161,50)" stroke="rgb(238,161,50)" stroke-width="1" opacity="0.996078431372549" d="M 22.5 32 L 23 42.5 L 22 42.5 L 22.5 32 Z " /><path fill="rgb(238,161,50)" stroke="rgb(238,161,50)" stroke-width="1" opacity="0.996078431372549" d="M 35.5 35 L 36.5 37 L 35.5 35 Z " /><path fill="rgb(238,161,50)" stroke="rgb(238,161,50)" stroke-width="1" opacity="0.996078431372549" d="M 46.5 39 L 50 40.5 Q 50.8 44.3 48.5 45 Q 44.8 45.8 44 43.5 Q 43.5 39.5 46.5 39 Z M 47 40 L 45 42 Q 44 46 49 44 Q 51 39 47 40 Z " /><path fill="rgb(238,161,50)" stroke="rgb(238,161,50)" stroke-width="1" opacity="0.996078431372549" d="M 49.5 48 Q 54 47 55 49.5 L 54.5 52 L 52.5 49 L 48.5 50 L 49.5 48 Z " /><path fill="rgb(238,161,50)" stroke="rgb(238,161,50)" stroke-width="1" opacity="0.996078431372549" d="M 39.5 49 Q 45.6 47.8 45 50.5 L 43.5 50 Q 37.2 47.8 39 53.5 L 38 53.5 Q 37.3 49.8 39.5 49 Z " /><path fill="rgb(238,161,50)" stroke="rgb(238,161,50)" stroke-width="1" opacity="0.996078431372549" d="M 55.5 53 L 56 55.5 L 55 55.5 L 55.5 53 Z " /><path fill="rgb(238,161,50)" stroke="rgb(238,161,50)" stroke-width="1" opacity="0.996078431372549" d="M 39.5 56 L 40 58.5 L 39 58.5 L 39.5 56 Z " /><path fill="rgb(238,161,50)" stroke="rgb(238,161,50)" stroke-width="1" opacity="0.996078431372549" d="M 56.5 58 L 57 60.5 L 56 60.5 L 56.5 58 Z " /><path fill="rgb(238,161,50)" stroke="rgb(238,161,50)" stroke-width="1" opacity="0.996078431372549" d="M 40.5 60 L 41 62.5 L 40 62.5 L 40.5 60 Z " /><path fill="rgb(238,161,50)" stroke="rgb(238,161,50)" stroke-width="1" opacity="0.996078431372549" d="M 57.5 63 L 58 65.5 L 57 65.5 L 57.5 63 Z " /><path fill="rgb(238,161,50)" stroke="rgb(238,161,50)" stroke-width="1" opacity="0.996078431372549" d="M 58.5 68 L 59 70.5 L 58 70.5 L 58.5 68 Z " /><path fill="rgb(238,161,50)" stroke="rgb(238,161,50)" stroke-width="1" opacity="0.996078431372549" d="M 59.5 72 L 60 74.5 L 58.5 76 L 49.5 77 L 48.5 75 L 58.5 75 L 59.5 72 Z " /><path fill="rgb(238,161,50)" stroke="rgb(238,161,50)" stroke-width="1" opacity="0.996078431372549" d="M 55.5 78 Q 60 77 61 79.5 Q 62.3 84.8 59.5 86 L 48 85.5 L 60 85 L 60 80 L 48.5 80 L 48.5 79 Q 54 80.5 55.5 78 Z " /><path fill="rgb(238,161,50)" stroke="rgb(238,161,50)" stroke-width="1" opacity="0.996078431372549" d="M 67.5 80 L 68 90 L 78.5 90 L 80 88.5 L 80.5 81 L 81 88.5 L 78.5 91 L 67 91 L 67.5 80 Z " /><path fill="rgb(238,161,50)" stroke="rgb(238,161,50)" stroke-width="1" opacity="0.996078431372549" d="M 123.5 85 L 139 85 L 139 102.5 L 137 103.5 L 138 102.5 L 138 86 L 123.5 86 L 122 87.5 L 136 102.5 L 121 88.5 Q 119.9 85.2 122.5 86 L 123.5 85 Z " /><path fill="rgb(238,161,50)" stroke="rgb(238,161,50)" stroke-width="1" opacity="0.996078431372549" d="M 95.5 86 L 101 86.5 L 95.5 87 L 95.5 86 Z " /><path fill="rgb(238,161,50)" stroke="rgb(238,161,50)" stroke-width="1" opacity="0.996078431372549" d="M 107.5 86 L 114.5 87 L 126 98.5 L 125.5 100 L 123.5 97 L 121 95.5 L 116.5 90 Q 114 85.7 107 87 L 107 105.5 L 108 106.5 L 106 107 L 105 104.5 L 105 88.5 L 107.5 86 Z " /><path fill="rgb(238,161,50)" stroke="rgb(238,161,50)" stroke-width="1" opacity="0.996078431372549" d="M 87.5 87 L 94 87.5 L 87 88 L 87 94.5 L 92.5 100 L 101 100.5 L 92.5 101 L 86 94.5 L 86 88.5 L 87.5 87 Z " /><path fill="rgb(238,161,50)" stroke="rgb(238,161,50)" stroke-width="1" opacity="0.996078431372549" d="M 53.5 88 Q 59.6 87.3 62 89 L 63 94 L 80 94.5 L 64.5 96 L 59.5 89 Q 53.5 87.5 52 90.5 L 51.5 93 L 51 89 L 53.5 88 Z " /><path fill="rgb(238,161,50)" stroke="rgb(238,161,50)" stroke-width="1" opacity="0.996078431372549" d="M 102.5 88 L 103 98.5 L 102 98.5 L 102.5 88 Z " /><path fill="rgb(238,161,50)" stroke="rgb(238,161,50)" stroke-width="1" opacity="0.996078431372549" d="M 52.5 94 L 56 112.5 L 58.5 117 L 60 117.5 L 58.5 118 L 55 112.5 L 52.5 94 Z " /><path fill="rgb(238,161,50)" stroke="rgb(238,161,50)" stroke-width="1" opacity="0.996078431372549" d="M 81.5 95 L 87 100.5 L 87 116.5 L 86 116.5 L 86 100.5 L 81.5 95 Z " /><path fill="rgb(238,161,50)" stroke="rgb(238,161,50)" stroke-width="1" opacity="0.996078431372549" d="M 144 97 L 146 97.5 L 144 98.5 L 144 97 Z " /><path fill="rgb(238,161,50)" stroke="rgb(238,161,50)" stroke-width="1" opacity="0.996078431372549" d="M 144.5 100 L 147.5 102 L 149 101.5 L 145.5 103 L 144.5 100 Z " /><path fill="rgb(238,161,50)" stroke="rgb(238,161,50)" stroke-width="1" opacity="0.996078431372549" d="M 110.5 106 L 124 106.5 L 110.5 107 L 110.5 106 Z " /><path fill="rgb(238,161,50)" stroke="rgb(238,161,50)" stroke-width="1" opacity="0.996078431372549" d="M 93 107 L 97 107.5 L 93.5 109 L 93 107 Z " /><path fill="rgb(238,161,50)" stroke="rgb(238,161,50)" stroke-width="1" opacity="0.996078431372549" d="M 101.5 107 L 103 108.5 L 103 126.5 L 101.5 128 L 93 128 L 93.5 126 L 94.5 127 L 102 127 L 102 108.5 L 101.5 107 Z " /><path fill="rgb(238,161,50)" stroke="rgb(238,161,50)" stroke-width="1" opacity="0.996078431372549" d="M 144.5 107 Q 149.5 106.5 150 110.5 L 146.5 108 L 144 108.5 L 144 119 Q 150.1 120.8 152 117.5 L 151 111.5 L 153 112.5 Q 154.5 119.5 151.5 119 Q 150 121.5 144.5 120 L 143 118.5 L 143 108.5 L 144.5 107 Z " /><path fill="rgb(238,161,50)" stroke="rgb(238,161,50)" stroke-width="1" opacity="0.996078431372549" d="M 111.5 110 L 135 110.5 L 111.5 111 L 107 112 L 107 126.5 L 108.5 127 L 108.5 128 L 106 126.5 L 106 111.5 Q 106 110.5 110.5 111 L 111.5 110 Z " /><path fill="rgb(238,161,50)" stroke="rgb(238,161,50)" stroke-width="1" opacity="0.996078431372549" d="M 138.5 110 L 139 119.5 L 138 119.5 L 138.5 110 Z " /><path fill="rgb(238,161,50)" stroke="rgb(238,161,50)" stroke-width="1" opacity="0.996078431372549" d="M 71.5 117 L 85 117.5 L 71.5 118 L 71.5 117 Z " /><path fill="rgb(238,161,50)" stroke="rgb(238,161,50)" stroke-width="1" opacity="0.996078431372549" d="M 124.5 120 L 137 120.5 L 125.5 121 L 120.5 123 L 120.5 122 L 124.5 120 Z " /><path fill="rgb(238,161,50)" stroke="rgb(238,161,50)" stroke-width="1" opacity="0.996078431372549" d="M 64.5 121 L 86.5 121 Q 87.8 121.3 87 127.5 L 86 127.5 Q 86.6 122.1 85.5 122 L 66.5 122 L 63 123 Q 61.9 125.7 64.5 125 L 67.5 128 L 85 128.5 L 66.5 129 L 62 124.5 L 62 122 L 64.5 121 Z " /><path fill="rgb(238,161,50)" stroke="rgb(238,161,50)" stroke-width="1" opacity="0.996078431372549" d="M 117.5 123 L 119 123.5 L 110.5 127 L 110.5 126 L 117.5 123 Z " /><path fill="rgb(238,161,50)" stroke="rgb(238,161,50)" stroke-width="1" opacity="0.996078431372549" d="M 135.5 125 Q 140.3 124.3 141 127.5 L 138.5 126 Q 134.5 126.8 135.5 125 Z " /><path fill="rgb(238,161,50)" stroke="rgb(238,161,50)" stroke-width="1" opacity="0.996078431372549" d="M 133.5 126 L 132 128.5 Q 131 134 134.5 135 Q 139 136 140 133.5 L 141.5 129 L 142 131.5 L 138.5 136 Q 132 137 131 132.5 Q 130 127 133.5 126 Z " /><path fill="rgb(207,135,61)" stroke="rgb(207,135,61)" stroke-width="1" opacity="0.9921568627450981" d="M 38.5 3 L 41 4.5 L 42 10 L 36.5 11 Q 34 9.8 35 6 Q 37.7 7.1 37 4.5 L 38.5 3 Z " /><path fill="rgb(207,135,61)" stroke="rgb(207,135,61)" stroke-width="1" opacity="0.9921568627450981" d="M 49 3 L 54 3 L 54 4.5 L 55 9 L 48 10 L 49 3 Z " /><path fill="rgb(207,135,61)" stroke="rgb(207,135,61)" stroke-width="1" opacity="0.9921568627450981" d="M 37.5 26 L 42 27 L 42 34.5 L 40.5 36 L 37.5 37 Q 33.5 35.5 35 28.5 L 37.5 26 Z " /><path fill="rgb(207,135,61)" stroke="rgb(207,135,61)" stroke-width="1" opacity="0.9921568627450981" d="M 20.5 32 L 22 32.5 L 22 43 L 18 42 L 17 35.5 L 20.5 32 Z " /><path fill="rgb(207,135,61)" stroke="rgb(207,135,61)" stroke-width="1" opacity="0.9921568627450981" d="M 46.5 40 Q 51.1 38.8 49 44 Q 43.8 46.1 45 41.5 L 46.5 40 Z " /><path fill="rgb(207,135,61)" stroke="rgb(207,135,61)" stroke-width="1" opacity="0.9921568627450981" d="M 49.5 49 Q 53.3 48.3 54 50.5 L 59 75 L 48 75 L 48 50.5 L 49.5 49 Z " /><path fill="rgb(207,135,61)" stroke="rgb(207,135,61)" stroke-width="1" opacity="0.9921568627450981" d="M 39 50 Q 43.6 48.8 45 51.5 Q 46.1 59.7 44 63 Q 39.9 64.7 41 60.5 Q 38.1 56.6 39 50 Z " /><path fill="rgb(207,135,61)" stroke="rgb(207,135,61)" stroke-width="1" opacity="0.9921568627450981" d="M 48 80 L 60 80 L 60 85 L 48 85 L 48 80 Z " /><path fill="rgb(207,135,61)" stroke="rgb(207,135,61)" stroke-width="1" opacity="0.9921568627450981" d="M 68.5 80 L 71.5 82 L 72.5 81 L 80 81 L 80 88.5 L 78.5 90 L 68 90 L 68.5 80 Z " /><path fill="rgb(207,135,61)" stroke="rgb(207,135,61)" stroke-width="1" opacity="0.9921568627450981" d="M 123.5 86 L 138 86 L 138 103 L 136.5 103 L 122 88.5 L 123.5 86 Z " /><path fill="rgb(207,135,61)" stroke="rgb(207,135,61)" stroke-width="1" opacity="0.9921568627450981" d="M 94.5 87 L 102 87 L 102 100 Q 89.8 102.5 87 94.5 Q 83.8 84.8 93.5 88 L 94.5 87 Z " /><path fill="rgb(207,135,61)" stroke="rgb(207,135,61)" stroke-width="1" opacity="0.9921568627450981" d="M 107 87 L 112.5 87 L 121 94.5 L 122.5 97 L 125 98.5 L 126 104.5 L 124.5 106 L 110.5 106 L 108.5 107 L 107 105.5 L 107 87 Z " /><path fill="rgb(207,135,61)" stroke="rgb(207,135,61)" stroke-width="1" opacity="0.9921568627450981" d="M 53.5 89 Q 60.5 87.5 62 91.5 Q 61.5 95.5 64.5 96 Q 70.4 93.4 80.5 95 L 86 100.5 L 86 117 L 60.5 118 L 57 115.5 L 52 90.5 L 53.5 89 Z " /><path fill="rgb(207,135,61)" stroke="rgb(207,135,61)" stroke-width="1" opacity="0.9921568627450981" d="M 146.5 97 L 149 98 L 147.5 102 L 144 99.5 L 146.5 97 Z " /><path fill="rgb(207,135,61)" stroke="rgb(207,135,61)" stroke-width="1" opacity="0.9921568627450981" d="M 97.5 107 Q 101.3 106.3 102 108.5 L 102 127 L 94.5 127 L 93 125.5 L 93 109.5 L 97.5 107 Z " /><path fill="rgb(207,135,61)" stroke="rgb(207,135,61)" stroke-width="1" opacity="0.9921568627450981" d="M 144 108 L 146.5 108 L 151 111 L 152 117.5 L 150.5 119 L 144 119 L 144 108 Z " /><path fill="rgb(207,135,61)" stroke="rgb(207,135,61)" stroke-width="1" opacity="0.9921568627450981" d="M 135.5 110 L 138 110.5 L 138 120 L 124.5 120 L 107 127 L 107 112.5 L 110.5 112 L 111.5 111 L 134.5 111 L 135.5 110 Z " /><path fill="rgb(207,135,61)" stroke="rgb(207,135,61)" stroke-width="1" opacity="0.9921568627450981" d="M 66.5 122 L 85.5 122 L 86 122.5 L 86 128 L 67.5 128 L 63 125 Q 61.8 122 65.5 123 L 66.5 122 Z " /><path fill="rgb(207,135,61)" stroke="rgb(207,135,61)" stroke-width="1" opacity="0.9921568627450981" d="M 134.5 126 Q 140 125 141 128.5 Q 141.6 133.6 138.5 135 Q 133 136 132 132.5 Q 131 127 134.5 126 Z " /><path fill="rgb(207,135,61)" stroke="rgb(207,135,61)" stroke-width="1" opacity="0.9921568627450981" d="M 180.5 142 Q 186 141 187 144.5 L 188 149.5 L 187 151.5 Q 189.5 153 186 154.5 L 184 157.5 L 181.5 158 L 179.5 159 L 176 156.5 Q 174 145 180.5 142 Z " /><path fill="rgb(254,130,45)" stroke="rgb(254,130,45)" stroke-width="1" opacity="0.9333333333333333" d="M 40.5 10 L 41 16 L 36 17 L 36 11 L 39.5 11 L 40.5 10 Z " /><path fill="rgb(254,130,45)" stroke="rgb(254,130,45)" stroke-width="1" opacity="0.9333333333333333" d="M 157.5 126 Q 157.5 133 161.5 136 L 168 141.5 L 172 148.5 L 173 184.5 L 171.5 186 L 160 186 L 159 161.5 L 160 160.5 L 155.5 156 L 146 148.5 L 146 134.5 L 147.5 133 L 156 130 L 157.5 126 Z " /><path fill="rgb(254,130,45)" stroke="rgb(254,130,45)" stroke-width="1" opacity="0.9333333333333333" d="M 81 135 L 91.5 135 L 94 137.5 L 104 152 L 106 152.5 L 106 186.5 L 104.5 188 L 94 188 L 94 158.5 L 80 140.5 L 80 137.5 L 81 135 Z " /></svg>