<svg width="200" height="200" version="1.1" xmlns="http://www.w3.org/2000/svg" desc="Created with imagetracer.js version 1.2.6" ><path fill="rgb(0,0,0)" stroke="rgb(0,0,0)" stroke-width="1" opacity="0" d="M 0 0 L 200 0 L 200 200 L 0 200 L 0 0 Z M 98 26 L 92 29 L 89 29 Q 90 32 88 31 L 86 34 L 83 35 Q 84 40 79 42 L 79 44 L 76 46 Q 77 48 74 47 Q 75 52 70 54 L 70 56 L 67 58 Q 68 60 66 59 L 57 71 Q 58 73 55 72 Q 56 77 51 79 L 51 81 L 48 83 Q 49 85 46 84 L 46 87 L 43 88 Q 42 94 37 97 L 37 99 L 33 101 L 32 106 L 29 108 L 29 110 Q 26 109 27 112 L 24 113 L 24 170 L 26 171 L 178 171 L 179 170 L 179 115 L 176 112 L 176 109 Q 173 110 174 108 L 171 106 Q 172 101 167 100 Q 168 96 166 97 L 158 88 L 158 86 L 155 84 L 154 81 L 148 74 Q 149 71 147 72 L 138 59 L 126 46 Q 127 43 125 44 Q 120 44 121 39 L 118 37 L 117 34 L 111 28 Q 105 29 104 26 L 98 26 Z " /><path fill="rgb(162,166,157)" stroke="rgb(162,166,157)" stroke-width="1" opacity="0.22745098039215686" d="M 97.5 26 L 103.5 26 Q 104.8 29.3 110.5 28 L 117 33.5 L 118 35.5 L 116 36 Q 116.8 31.3 112.5 30 L 104 29 L 103.5 27 L 97 27 Q 98.3 30.3 93.5 29 L 90 30 L 89.5 32 L 89 30.5 L 97.5 26 Z " /><path fill="rgb(162,166,157)" stroke="rgb(162,166,157)" stroke-width="1" opacity="0.22745098039215686" d="M 86 32 L 88 32.5 L 86 33.5 L 86 32 Z " /><path fill="rgb(162,166,157)" stroke="rgb(162,166,157)" stroke-width="1" opacity="0.22745098039215686" d="M 83 35 L 85 35.5 L 84 39 L 82 38.5 L 83 35 Z " /><path fill="rgb(162,166,157)" stroke="rgb(162,166,157)" stroke-width="1" opacity="0.22745098039215686" d="M 119.5 37 L 120.5 39 L 119.5 37 Z " /><path fill="rgb(162,166,157)" stroke="rgb(162,166,157)" stroke-width="1" opacity="0.22745098039215686" d="M 80.5 40 L 81 42 L 79 41.5 L 80.5 40 Z " /><path fill="rgb(162,166,157)" stroke="rgb(162,166,157)" stroke-width="1" opacity="0.22745098039215686" d="M 121.5 41 L 122.5 43 L 121.5 41 Z " /><path fill="rgb(162,166,157)" stroke="rgb(162,166,157)" stroke-width="1" opacity="0.22745098039215686" d="M 77 44 L 79 44.5 L 77 45.5 L 77 44 Z " /><path fill="rgb(162,166,157)" stroke="rgb(162,166,157)" stroke-width="1" opacity="0.22745098039215686" d="M 124.5 44 L 125.5 46 L 124.5 44 Z " /><path fill="rgb(162,166,157)" stroke="rgb(162,166,157)" stroke-width="1" opacity="0.22745098039215686" d="M 74 47 L 76 47.5 L 75 51 L 70.5 54 L 74 49.5 L 74 47 Z " /><path fill="rgb(162,166,157)" stroke="rgb(162,166,157)" stroke-width="1" opacity="0.22745098039215686" d="M 127.5 48 L 129.5 51 L 127.5 48 Z " /><path fill="rgb(162,166,157)" stroke="rgb(162,166,157)" stroke-width="1" opacity="0.22745098039215686" d="M 131.5 52 L 133.5 55 L 131.5 52 Z " /><path fill="rgb(162,166,157)" stroke="rgb(162,166,157)" stroke-width="1" opacity="0.22745098039215686" d="M 68.5 56 L 69 57.5 L 67 58.5 L 68.5 56 Z " /><path fill="rgb(162,166,157)" stroke="rgb(162,166,157)" stroke-width="1" opacity="0.22745098039215686" d="M 135.5 56 L 136.5 58 L 135.5 56 Z " /><path fill="rgb(162,166,157)" stroke="rgb(162,166,157)" stroke-width="1" opacity="0.22745098039215686" d="M 137.5 59 L 139 61.5 L 137 60.5 L 137.5 59 Z " /><path fill="rgb(162,166,157)" stroke="rgb(162,166,157)" stroke-width="1" opacity="0.22745098039215686" d="M 64 60 L 66 60.5 L 65 62.5 Q 67.8 64.3 63.5 66 L 62 65.5 L 63 67.5 L 62 70 L 59 70.5 Q 61.7 72.3 57.5 74 L 56 73.5 L 57 75.5 L 51.5 83 L 49.5 83 L 48 82.5 L 53 79.5 L 51 78.5 Q 55.8 77.1 55 72 L 58 72 Q 56.5 68.3 59.5 69 L 62 67.5 L 60 66.5 Q 64.8 65.1 64 60 Z " /><path fill="rgb(162,166,157)" stroke="rgb(162,166,157)" stroke-width="1" opacity="0.22745098039215686" d="M 140.5 64 L 142.5 67 L 141 67.5 L 142.5 70 L 139 65.5 L 140.5 64 Z " /><path fill="rgb(162,166,157)" stroke="rgb(162,166,157)" stroke-width="1" opacity="0.22745098039215686" d="M 144.5 68 L 145 72 Q 148.8 70.5 148 73.5 L 146.5 76 Q 142.7 73.7 144.5 68 Z " /><path fill="rgb(162,166,157)" stroke="rgb(162,166,157)" stroke-width="1" opacity="0.22745098039215686" d="M 149.5 76 Q 154.8 78.7 155.5 86 L 157 85.5 Q 155 89 153 84.5 L 153 82.5 Q 153.5 78.5 150.5 78 L 150 79.5 L 151.5 82 L 148 77.5 L 149.5 76 Z " /><path fill="rgb(162,166,157)" stroke="rgb(162,166,157)" stroke-width="1" opacity="0.22745098039215686" d="M 46.5 84 L 47 88.5 L 40 99 Q 37.3 97.9 38 100.5 L 25 117.5 L 25 170 L 178 170 L 178 117.5 L 174 112.5 L 175.5 110 L 179 114.5 L 179 169.5 L 177.5 171 L 25.5 171 L 24 169.5 L 24 114.5 L 27 113 L 29.5 109 L 31 108.5 L 29 107.5 L 31 106.5 L 31.5 108 L 33 105.5 L 33 103.5 L 37.5 97 L 39 97.5 Q 38.3 93.8 40.5 93 L 42 93.5 L 42 90.5 Q 46.1 89.1 46.5 84 Z " /><path fill="rgb(162,166,157)" stroke="rgb(162,166,157)" stroke-width="1" opacity="0.22745098039215686" d="M 48 84 L 50 84.5 L 48 85.5 L 48 84 Z " /><path fill="rgb(162,166,157)" stroke="rgb(162,166,157)" stroke-width="1" opacity="0.22745098039215686" d="M 157.5 87 L 161.5 92 L 159 90.5 L 161.5 94 Q 162.8 91.8 164 94.5 L 164.5 98 L 167 97 Q 166.3 102.1 171 103.5 L 168 102.5 L 169 104.5 L 167 103.5 L 165 100.5 L 166 98.5 L 164.5 99 Q 162.3 99.8 163 97.5 L 162.5 95 Q 159.2 96.1 160 93.5 Q 155.8 91.6 157.5 87 Z " /><path fill="rgb(162,166,157)" stroke="rgb(162,166,157)" stroke-width="1" opacity="0.22745098039215686" d="M 170.5 105 L 171.5 108 L 172.5 106 L 173 107.5 L 172.5 109 Q 175.1 108.3 174 111 Q 171.3 112.1 172 109.5 Q 168.9 108.4 170.5 105 Z " /><path fill="rgb(243,240,244)" stroke="rgb(243,240,244)" stroke-width="1" opacity="0.9098039215686274" d="M 97 27 L 103.5 27 Q 102.5 30.5 109.5 29 L 116 33.5 Q 114.9 36.8 117.5 36 L 122.5 43 Q 124.8 42.3 124 44.5 L 126 44.5 L 125.5 46 Q 128.1 45.2 127 48.5 L 131 51 L 133.5 55 Q 135.8 54.3 135 56.5 L 138 58.5 L 137 60.5 L 139 60.5 L 138.5 62 L 141 63.5 L 140.5 66 L 129.5 61 L 116.5 61 L 101.5 70 L 93.5 73 L 87.5 73 L 83.5 71 L 76.5 70 L 65 62.5 L 66 60.5 L 65.5 59 L 69 57.5 Q 68.3 55.3 70.5 56 Q 68.7 53.5 73.5 51 Q 76.1 51.8 75 48.5 L 76.5 45 Q 77.8 47.3 79 44.5 L 79 42 Q 82.3 43.1 81 39 L 84 39 L 84 36.5 L 85 34 L 88 32.5 L 87.5 31 L 89.5 32 L 90 30.5 L 89.5 29 L 92.5 30 L 97 29 L 97 27 Z " /><path fill="rgb(243,240,244)" stroke="rgb(243,240,244)" stroke-width="1" opacity="0.9098039215686274" d="M 63.5 64 L 63 65.5 L 61.5 68 L 59.5 69 L 59 67 Q 62.7 68.5 62 65.5 L 63.5 64 Z " /><path fill="rgb(243,240,244)" stroke="rgb(243,240,244)" stroke-width="1" opacity="0.9098039215686274" d="M 141.5 67 Q 145.7 65.7 144 70.5 L 143 70.5 L 141.5 67 Z " /><path fill="rgb(243,240,244)" stroke="rgb(243,240,244)" stroke-width="1" opacity="0.9098039215686274" d="M 146.5 73 L 149 74 L 149 76.5 Q 153.1 77.9 153.5 83 L 155 82.5 Q 153.5 85.5 152 82.5 L 148.5 77 Q 145.9 77.8 147 74.5 L 146.5 73 Z " /><path fill="rgb(243,240,244)" stroke="rgb(243,240,244)" stroke-width="1" opacity="0.9098039215686274" d="M 50.5 82 L 49.5 84 Q 46.9 83.2 48 86.5 L 47 86.5 L 48.5 83 L 50.5 82 Z " /><path fill="rgb(243,240,244)" stroke="rgb(243,240,244)" stroke-width="1" opacity="0.9098039215686274" d="M 155 84 L 158 85.5 L 156.5 89 L 155 84 Z " /><path fill="rgb(243,240,244)" stroke="rgb(243,240,244)" stroke-width="1" opacity="0.9098039215686274" d="M 43.5 88 Q 46.3 89.3 44 90.5 L 43.5 92 L 43 90.5 L 43.5 88 Z " /><path fill="rgb(243,240,244)" stroke="rgb(243,240,244)" stroke-width="1" opacity="0.9098039215686274" d="M 158.5 89 L 163 92.5 Q 161 96 159 91.5 L 158.5 89 Z " /><path fill="rgb(243,240,244)" stroke="rgb(243,240,244)" stroke-width="1" opacity="0.9098039215686274" d="M 38.5 95 L 39 97.5 L 37 96.5 L 38.5 95 Z " /><path fill="rgb(243,240,244)" stroke="rgb(243,240,244)" stroke-width="1" opacity="0.9098039215686274" d="M 164.5 96 L 166 99.5 L 165 99.5 L 164.5 96 Z " /><path fill="rgb(243,240,244)" stroke="rgb(243,240,244)" stroke-width="1" opacity="0.9098039215686274" d="M 33.5 101 L 36 101.5 L 34.5 104 L 33.5 101 Z " /><path fill="rgb(243,240,244)" stroke="rgb(243,240,244)" stroke-width="1" opacity="0.9098039215686274" d="M 167.5 101 L 171 104.5 L 169.5 106 L 167.5 101 Z " /><path fill="rgb(243,240,244)" stroke="rgb(243,240,244)" stroke-width="1" opacity="0.9098039215686274" d="M 32.5 105 L 32 106.5 L 30.5 109 L 29 108.5 L 31 108 L 32.5 105 Z " /><path fill="rgb(243,240,244)" stroke="rgb(243,240,244)" stroke-width="1" opacity="0.9098039215686274" d="M 171.5 106 L 172.5 108 L 174 107.5 Q 173.3 109.8 175.5 109 L 175 110.5 L 174.5 112 L 174 109 L 171 107.5 L 171.5 106 Z " /><path fill="rgb(243,240,244)" stroke="rgb(243,240,244)" stroke-width="1" opacity="0.9098039215686274" d="M 27.5 110 L 28.5 112 L 27.5 110 Z " /><path fill="rgb(243,240,244)" stroke="rgb(243,240,244)" stroke-width="1" opacity="0.9098039215686274" d="M 24.5 113 L 26 115.5 L 25 115.5 L 24.5 113 Z " /><path fill="rgb(126,84,62)" stroke="rgb(126,84,62)" stroke-width="1" opacity="0.9686274509803922" d="M 65 65 L 71 68.5 L 67.5 74 Q 65.3 73.3 66 75.5 L 59 86 Q 56.3 84.9 57 87.5 L 52 95 Q 49.3 93.9 50 96.5 L 49 99 Q 46.3 97.9 47 100.5 L 41 107.5 L 40 111 Q 37.3 109.9 38 112.5 Q 35.2 115.2 36 121.5 L 37 125 L 52.5 125 L 56 126.5 L 51.5 127 L 50.5 126 L 39.5 126 L 38.5 127 L 30.5 127 L 25 129 L 25 121.5 L 26 120.5 L 26 118.5 L 52 83.5 L 53 80 L 56 78.5 L 56 76 Q 58.7 77.1 58 74.5 L 65 65 Z " /><path fill="rgb(126,84,62)" stroke="rgb(126,84,62)" stroke-width="1" opacity="0.9686274509803922" d="M 59.5 127 L 67.5 128 L 69 129.5 L 67.5 130 L 59.5 128 L 59.5 127 Z " /><path fill="rgb(126,84,62)" stroke="rgb(126,84,62)" stroke-width="1" opacity="0.9686274509803922" d="M 177.5 127 L 175.5 130 L 174 129.5 L 177.5 127 Z " /><path fill="rgb(126,84,62)" stroke="rgb(126,84,62)" stroke-width="1" opacity="0.9686274509803922" d="M 71.5 130 L 78 132.5 L 76.5 133 L 71.5 131 L 71.5 130 Z " /><path fill="rgb(126,84,62)" stroke="rgb(126,84,62)" stroke-width="1" opacity="0.9686274509803922" d="M 172.5 130 L 171.5 132 L 168.5 133 L 169.5 131 L 172.5 130 Z " /><path fill="rgb(126,84,62)" stroke="rgb(126,84,62)" stroke-width="1" opacity="0.9686274509803922" d="M 80.5 133 L 87 135.5 L 85.5 136 L 80.5 134 L 80.5 133 Z " /><path fill="rgb(126,84,62)" stroke="rgb(126,84,62)" stroke-width="1" opacity="0.9686274509803922" d="M 161.5 134 L 164 134.5 L 160.5 136 L 161.5 134 Z " /><path fill="rgb(126,84,62)" stroke="rgb(126,84,62)" stroke-width="1" opacity="0.9686274509803922" d="M 88.5 136 L 91 136.5 L 88.5 137 L 88.5 136 Z " /><path fill="rgb(126,84,62)" stroke="rgb(126,84,62)" stroke-width="1" opacity="0.9686274509803922" d="M 92.5 137 L 98 138.5 L 94.5 139 L 92.5 137 Z " /><path fill="rgb(126,84,62)" stroke="rgb(126,84,62)" stroke-width="1" opacity="0.9686274509803922" d="M 152.5 137 L 156 137.5 L 147.5 140 L 147.5 139 L 152.5 137 Z " /><path fill="rgb(126,84,62)" stroke="rgb(126,84,62)" stroke-width="1" opacity="0.9686274509803922" d="M 99.5 139 L 102 139.5 L 99.5 140 L 99.5 139 Z " /><path fill="rgb(126,84,62)" stroke="rgb(126,84,62)" stroke-width="1" opacity="0.9686274509803922" d="M 103.5 140 L 128.5 142 L 129.5 141 L 143.5 140 L 143.5 141 L 132.5 142 L 131.5 143 L 115.5 143 L 114.5 142 L 103.5 141 L 103.5 140 Z " /><path fill="rgb(140,85,67)" stroke="rgb(140,85,67)" stroke-width="1" opacity="0.996078431372549" d="M 65.5 64 L 67 64.5 L 65 65 L 62.5 69 L 63 67.5 L 65.5 64 Z " /><path fill="rgb(140,85,67)" stroke="rgb(140,85,67)" stroke-width="1" opacity="0.996078431372549" d="M 139.5 66 L 156 87.5 L 160 95 Q 162.7 93.9 162 96.5 L 163 99 Q 165.7 97.9 165 100.5 L 172 111 Q 174.7 109.9 174 112.5 L 178 117.5 L 178 126.5 L 176 127.5 L 176 116.5 L 174.5 116 L 173 112 Q 170.3 113.1 171 110.5 L 168 109 L 167 104 L 164 102.5 L 164 100 Q 161.3 101.1 162 98.5 L 159 97 L 159 94.5 Q 154.3 93.1 155 88 L 152 86.5 L 151 82 L 148 80.5 Q 148.7 77.9 146 79 L 146 76.5 L 143 75 L 139 68.5 L 139.5 66 Z " /><path fill="rgb(140,85,67)" stroke="rgb(140,85,67)" stroke-width="1" opacity="0.996078431372549" d="M 60.5 70 L 61 71.5 L 57.5 76 L 57 74.5 L 60.5 70 Z " /><path fill="rgb(140,85,67)" stroke="rgb(140,85,67)" stroke-width="1" opacity="0.996078431372549" d="M 55.5 77 L 56 78.5 L 54 79.5 L 55.5 77 Z " /><path fill="rgb(140,85,67)" stroke="rgb(140,85,67)" stroke-width="1" opacity="0.996078431372549" d="M 50 83 L 52 83.5 L 43.5 94 L 45 91.5 L 50 83 Z " /><path fill="rgb(140,85,67)" stroke="rgb(140,85,67)" stroke-width="1" opacity="0.996078431372549" d="M 42.5 95 L 40.5 98 L 42.5 95 Z " /><path fill="rgb(140,85,67)" stroke="rgb(140,85,67)" stroke-width="1" opacity="0.996078431372549" d="M 38 99 L 40 99.5 L 34.5 106 L 36 103.5 L 38 99 Z " /><path fill="rgb(140,85,67)" stroke="rgb(140,85,67)" stroke-width="1" opacity="0.996078431372549" d="M 33.5 107 L 31.5 110 L 33.5 107 Z " /><path fill="rgb(140,85,67)" stroke="rgb(140,85,67)" stroke-width="1" opacity="0.996078431372549" d="M 29.5 112 L 28 114.5 L 25.5 119 L 25 117.5 L 29.5 112 Z " /><path fill="rgb(140,85,67)" stroke="rgb(140,85,67)" stroke-width="1" opacity="1" d="M 116.5 61 L 129.5 61 L 139 65 L 139 68.5 L 143 75 L 146 76.5 L 146 79 Q 148.7 77.9 148 80.5 L 151 82 L 153.5 88 Q 156.1 87.2 155 90.5 Q 159.8 91.9 159 97 L 162 98.5 Q 161.3 101.1 164 100 L 164 102.5 L 167 104 L 168 109 L 171 110.5 Q 170.3 113.1 173 112 L 173 114.5 L 176 116 L 176 127.5 L 173.5 130 L 146.5 140 L 119.5 142 L 118.5 141 L 109.5 141 L 98.5 139 L 95.5 137 L 91.5 137 L 85.5 134 L 78.5 133 L 76.5 131 L 69.5 130 L 67.5 128 L 56.5 127 L 52.5 125 L 37 125 L 36 116.5 L 38 111 Q 40.7 112.1 40 109.5 L 47 99 Q 49.7 100.1 49 97.5 L 50 95 Q 52.7 96.1 52 93.5 L 57 86 Q 59.7 87.1 59 84.5 L 65 77.5 L 66 74 L 69 72.5 L 71 68.5 L 67 66 Q 65.9 63.3 68.5 64 L 76.5 70 L 83.5 71 L 87.5 73 L 93.5 73 L 101.5 70 L 116.5 61 Z " /><path fill="rgb(0,209,105)" stroke="rgb(0,209,105)" stroke-width="1" opacity="0.7411764705882353" d="M 177.5 128 L 178 170 L 25.5 170 L 25 169.5 L 25 129.5 L 26 129.5 L 26 167.5 L 26.5 168 L 177 168 L 177.5 128 Z " /><path fill="rgb(1,208,105)" stroke="rgb(1,208,105)" stroke-width="1" opacity="0.996078431372549" d="M 39.5 126 L 50.5 126 L 63 128.5 L 57.5 129 L 56.5 128 L 33.5 128 L 27 129 L 26.5 131 L 26 129.5 L 30.5 127 L 38.5 127 L 39.5 126 Z " /><path fill="rgb(1,208,105)" stroke="rgb(1,208,105)" stroke-width="1" opacity="0.996078431372549" d="M 64.5 129 L 70.5 130 L 94.5 139 L 98.5 139 L 107.5 142 L 131.5 143 L 153.5 139 L 176.5 129 L 177 131 L 165 135 Q 166.3 138.3 161.5 137 L 155.5 140 L 146.5 141 L 143.5 143 Q 138 141.5 136.5 144 L 111.5 144 Q 109.7 141.3 103.5 143 L 101.5 141 L 92.5 140 L 90.5 138 L 82 137 Q 83.3 133.3 77.5 135 L 72.5 132 L 65.5 131 L 64.5 129 Z " /><path fill="rgb(0,210,106)" stroke="rgb(0,210,106)" stroke-width="1" opacity="1" d="M 33.5 128 L 56.5 128 Q 58 130.5 63.5 129 L 65.5 131 L 72.5 132 L 77.5 135 L 82 135 Q 80.7 138.3 85.5 137 L 90.5 138 L 92.5 140 L 101.5 141 L 103.5 143 Q 109.7 141.3 111.5 144 L 136.5 144 L 165 137 Q 163.8 134 167.5 135 L 177 131 L 177 167.5 L 176.5 168 L 26 168 L 26 131.5 L 27 129 L 33.5 128 Z " /></svg>