<svg width="200" height="200" version="1.1" xmlns="http://www.w3.org/2000/svg" desc="Created with imagetracer.js version 1.2.6" ><path fill="rgb(0,0,0)" stroke="rgb(0,0,0)" stroke-width="1" opacity="0" d="M 0 0 L 200 0 L 200 200 L 0 200 L 0 0 Z M 172 6 L 171 10 L 162 10 L 161 12 Q 157 11 156 15 L 152 15 L 150 17 L 150 25 L 154 27 L 152 31 Q 154 36 150 35 L 149 38 Q 146 37 147 40 L 145 40 L 145 42 L 143 42 L 142 45 Q 139 44 140 47 L 138 47 L 138 49 L 136 49 L 135 52 Q 132 51 133 54 L 131 54 L 131 56 L 129 56 L 128 59 Q 125 58 126 61 L 124 61 L 124 63 L 122 63 L 122 65 L 120 65 L 119 68 Q 116 67 117 70 L 115 70 L 115 72 L 113 72 L 112 75 Q 109 74 110 77 L 108 77 L 108 79 L 106 79 L 105 82 Q 102 81 103 84 L 101 84 L 101 86 L 99 86 L 97 91 L 96 91 L 96 80 L 97 79 L 97 75 L 99 75 Q 98 72 101 73 L 104 68 L 104 57 L 100 52 L 88 52 L 87 54 Q 83 53 82 57 L 82 59 L 78 61 L 78 65 L 76 65 L 75 71 L 75 75 L 73 75 L 73 81 L 72 81 L 66 88 L 62 91 Q 54 90 55 93 L 47 93 Q 47 97 41 95 L 41 97 L 37 98 Q 33 97 34 100 L 32 100 L 29 104 L 22 110 Q 23 112 20 111 L 20 114 L 18 114 L 18 118 L 16 118 L 15 123 L 15 125 L 13 129 L 13 154 L 15 156 L 16 161 Q 15 164 18 163 Q 17 166 20 168 Q 19 171 22 170 Q 22 175 26 177 Q 28 176 27 179 L 30 179 L 40 186 Q 46 184 45 188 L 55 188 L 57 190 L 69 190 L 70 188 L 78 188 Q 77 185 83 186 L 83 184 L 86 183 L 88 183 L 90 179 L 94 179 L 96 176 Q 98 177 97 174 L 99 174 L 99 170 L 101 170 L 106 161 Q 105 155 108 156 L 108 148 L 110 147 L 110 141 L 112 139 L 113 139 L 113 135 Q 116 136 115 133 L 118 132 L 120 132 L 122 128 L 127 128 L 127 126 L 132 126 L 141 121 Q 143 108 138 104 L 125 104 L 124 105 L 120 105 Q 121 108 116 107 L 113 103 L 118 100 Q 117 97 120 98 L 120 96 L 122 96 L 122 94 L 125 93 Q 124 90 127 91 L 127 89 L 129 89 L 129 87 L 134 84 Q 133 81 136 82 L 136 80 L 141 77 Q 140 74 143 75 L 143 73 L 148 70 Q 147 67 150 68 L 150 66 L 152 66 L 152 64 L 155 63 Q 154 60 157 61 L 157 59 L 159 59 L 159 57 L 164 54 Q 163 51 166 52 L 166 50 Q 173 52 175 48 Q 174 44 177 45 L 178 42 Q 177 39 180 40 L 180 38 L 182 38 L 182 36 L 192 36 Q 193 33 196 34 L 196 18 L 192 17 L 192 15 L 185 15 L 184 14 L 182 14 L 182 7 Q 179 5 172 6 Z " /><path fill="rgb(202,25,83)" stroke="rgb(202,25,83)" stroke-width="1" opacity="0.6941176470588235" d="M 183 16 L 189.5 16 L 190 18 L 185.5 17 L 183 18 L 183 16 Z " /><path fill="rgb(202,25,83)" stroke="rgb(202,25,83)" stroke-width="1" opacity="0.6941176470588235" d="M 192.5 17 L 194.5 20 L 196 20.5 L 196 32 L 193 32 L 193 34 Q 188.8 33 189.5 36 L 182.5 36 L 180.5 35 L 178 39 Q 175.3 37.9 176 40.5 Q 178.3 41.8 175.5 43 Q 173.3 43.8 174 41.5 L 176 37 L 178 37 Q 176.9 34.3 179.5 35 L 180.5 34 L 189.5 34 L 193 32 Q 195 29 194 21.5 Q 188.7 19.2 192.5 17 Z " /><path fill="rgb(202,25,83)" stroke="rgb(202,25,83)" stroke-width="1" opacity="0.6941176470588235" d="M 156.5 29 L 154 32.5 L 153.5 37 Q 151.1 34.7 152 30 L 156.5 29 Z " /><path fill="rgb(202,25,83)" stroke="rgb(202,25,83)" stroke-width="1" opacity="0.6941176470588235" d="M 172 44 L 175 45.5 L 172 46 L 171 50 Q 165.6 51.5 164 48.5 Q 170.3 49.3 172 45.5 L 172 44 Z " /><path fill="rgb(202,25,83)" stroke="rgb(202,25,83)" stroke-width="1" opacity="0.6941176470588235" d="M 89.5 52 Q 91 54.5 96.5 53 L 98 52.5 Q 99.1 55.8 96.5 55 L 92.5 54 L 89 55 L 89.5 52 Z " /><path fill="rgb(202,25,83)" stroke="rgb(202,25,83)" stroke-width="1" opacity="0.6941176470588235" d="M 86 54 Q 89.3 52.9 88 57 L 84 59.5 L 79.5 66 L 79 64 Q 81.7 65.1 81 62.5 L 82 59 L 86 57 L 86 54 Z " /><path fill="rgb(202,25,83)" stroke="rgb(202,25,83)" stroke-width="1" opacity="0.6941176470588235" d="M 99.5 55 L 102 55 Q 100.3 60.2 104 59 L 104 65 L 102 65 L 102 69 L 100 69 L 100 71 Q 97.3 69.9 98 72.5 L 96.5 77 L 95 76.5 L 94.5 94 L 93 91.5 L 93 78.5 L 98 69 Q 100.7 70.1 100 67.5 Q 103 65.5 102 59.5 L 99.5 55 Z " /><path fill="rgb(202,25,83)" stroke="rgb(202,25,83)" stroke-width="1" opacity="0.6941176470588235" d="M 78.5 67 L 79 68.5 L 77.5 72 L 76 69.5 L 78.5 67 Z " /><path fill="rgb(202,25,83)" stroke="rgb(202,25,83)" stroke-width="1" opacity="0.6941176470588235" d="M 75 73 Q 78 71.8 77 75.5 L 72 87 L 70 87 Q 71.1 89.7 68.5 89 Q 65.4 93.9 57.5 94 L 59.5 91 L 63.5 92 L 64 90 Q 68.7 90.8 70 86.5 L 72 83.5 L 75 77.5 L 75 73 Z " /><path fill="rgb(202,25,83)" stroke="rgb(202,25,83)" stroke-width="1" opacity="0.6941176470588235" d="M 49 93 L 55.5 93 L 56 95 L 50.5 95 L 36.5 101 L 37 99.5 L 37.5 98 L 40 99 L 40 97 Q 45.3 98.3 44.5 95 L 49 95 L 49 93 Z " /><path fill="rgb(202,25,83)" stroke="rgb(202,25,83)" stroke-width="1" opacity="0.6941176470588235" d="M 33 101 Q 36 100 35 103 L 29 106 L 29 108 Q 26.3 106.9 27 109.5 L 19.5 119 L 18.5 117 Q 21.1 117.8 20 114.5 L 24 111.5 L 27 106 L 33 103 L 33 101 Z " /><path fill="rgb(202,25,83)" stroke="rgb(202,25,83)" stroke-width="1" opacity="0.6941176470588235" d="M 126 104 L 135 104 L 135 106 Q 138 105 137 108 L 140 108 L 140 109.5 L 139.5 111 L 141 111.5 L 141 118 L 139 118 L 139 120 Q 136.3 118.9 137 121.5 Q 135 124.8 130 124 L 130 126 Q 123.7 124.5 124.5 128 L 120.5 128 L 118 129 Q 116.8 126 120.5 127 L 133.5 122 L 139 117.5 L 139 111.5 L 134.5 106 Q 125.3 105 121 108 L 121 106 L 126 106 L 126 104 Z " /><path fill="rgb(202,25,83)" stroke="rgb(202,25,83)" stroke-width="1" opacity="0.6941176470588235" d="M 109.5 106 Q 113.3 105 112 108 L 109.5 106 Z " /><path fill="rgb(202,25,83)" stroke="rgb(202,25,83)" stroke-width="1" opacity="0.6941176470588235" d="M 114 107 L 120 107 L 120 109 L 114 109 L 114 107 Z " /><path fill="rgb(202,25,83)" stroke="rgb(202,25,83)" stroke-width="1" opacity="0.6941176470588235" d="M 17 120 Q 19.7 118.9 19 121.5 L 17 122.5 L 17 120 Z " /><path fill="rgb(202,25,83)" stroke="rgb(202,25,83)" stroke-width="1" opacity="0.6941176470588235" d="M 15 124 Q 18.7 122.7 17 128.5 L 15 131.5 L 15 150.5 L 17 157 L 15 157 Q 16.5 150.7 13 151.5 L 13 130 L 15 130 L 15 124 Z " /><path fill="rgb(202,25,83)" stroke="rgb(202,25,83)" stroke-width="1" opacity="0.6941176470588235" d="M 115.5 129 Q 118.1 128.3 117 131 L 114 131 Q 115.1 133.7 112.5 133 L 115.5 129 Z " /><path fill="rgb(202,25,83)" stroke="rgb(202,25,83)" stroke-width="1" opacity="0.6941176470588235" d="M 111.5 134 Q 114.1 133.3 113 136 L 110 137.5 L 109 145 Q 106.3 146.1 107 143.5 L 108 138.5 L 111.5 134 Z " /><path fill="rgb(202,25,83)" stroke="rgb(202,25,83)" stroke-width="1" opacity="0.6941176470588235" d="M 106.5 146 Q 109.8 147.9 108 154 L 106 154 L 106 159 L 104 159 L 104 163 L 102 163 L 102 166 Q 99.3 164.9 100 167.5 L 99 171 L 95 173.5 Q 95.7 176.1 93 175 L 93 177 L 91 177 L 91 179 L 88.5 179 L 86 180 L 86 182 L 83 182 L 83 184 Q 78.9 182.7 80 186 L 75.5 186 L 73.5 188 L 67.5 188 L 59.5 190 L 57.5 188 L 47 188 L 47 186 L 42 186 L 42 184 L 38 184 L 38 182 L 35 182 Q 36.1 179.3 33.5 180 L 30 179 L 27.5 175 Q 25.3 175.8 26 173.5 L 21.5 168 Q 18.9 168.8 20 165.5 L 16 159.5 Q 17.5 156.5 19 159.5 L 22 168 Q 24.7 166.9 24 169.5 L 26 173 Q 28.7 171.9 28 174.5 L 42.5 184 L 61.5 188 L 79.5 184 L 91 177 L 91 175 L 93 175 L 93 173 Q 95.7 174.1 95 171.5 Q 98.8 170.3 98 166 Q 100.7 167.1 100 164.5 Q 105.6 157.6 106.5 146 Z " /><path fill="rgb(201,14,76)" stroke="rgb(201,14,76)" stroke-width="1" opacity="0.996078431372549" d="M 178 18 L 183 18.5 L 178 20 L 178 18 Z " /><path fill="rgb(201,14,76)" stroke="rgb(201,14,76)" stroke-width="1" opacity="0.996078431372549" d="M 174.5 20 Q 177.1 19.3 176 22 Q 171.9 20.7 173 24 L 169.5 24 L 163.5 27 L 164.5 25 Q 168.3 26 167 23 L 170.5 23 L 174.5 20 Z " /><path fill="rgb(201,14,76)" stroke="rgb(201,14,76)" stroke-width="1" opacity="0.996078431372549" d="M 160.5 27 Q 163.1 26.3 162 29 L 158 28.5 L 160.5 27 Z " /><path fill="rgb(201,14,76)" stroke="rgb(201,14,76)" stroke-width="1" opacity="0.996078431372549" d="M 179 33 L 185 33.5 L 179.5 35 L 179 33 Z " /><path fill="rgb(201,14,76)" stroke="rgb(201,14,76)" stroke-width="1" opacity="0.996078431372549" d="M 153 37 L 155 37 Q 153.9 39.7 156.5 39 L 160 44 L 162 44 Q 160.9 46.7 163.5 46 L 164.5 48 L 162 48 L 162 46 L 160 46 Q 161.1 43.3 158.5 44 L 155 39 Q 152 40 153 37 Z " /><path fill="rgb(201,14,76)" stroke="rgb(201,14,76)" stroke-width="1" opacity="0.996078431372549" d="M 85.5 58 L 84.5 60 L 85.5 58 Z " /><path fill="rgb(201,14,76)" stroke="rgb(201,14,76)" stroke-width="1" opacity="0.996078431372549" d="M 92.5 83 L 93 86.5 L 92 86.5 L 92.5 83 Z " /><path fill="rgb(201,14,76)" stroke="rgb(201,14,76)" stroke-width="1" opacity="0.996078431372549" d="M 68.5 89 L 67.5 91 L 68.5 89 Z " /><path fill="rgb(201,14,76)" stroke="rgb(201,14,76)" stroke-width="1" opacity="0.996078431372549" d="M 77 91 Q 86.4 89.3 90 93 Q 88.9 95.7 91.5 95 Q 93.3 91.3 95 94.5 L 93 95 Q 94.1 97.7 91.5 97 L 90 97.5 L 89 94 L 85.5 92 L 79.5 92 L 77 93 L 77 95 Q 74.3 93.9 75 96.5 L 69.5 101 L 59 102 L 59.5 100 L 68.5 100 L 71 99 L 71 97 L 73 97 L 73 95 L 75 95 L 77 91 Z " /><path fill="rgb(201,14,76)" stroke="rgb(201,14,76)" stroke-width="1" opacity="0.996078431372549" d="M 54 102 L 58 102.5 L 54 104 L 54 102 Z " /><path fill="rgb(201,14,76)" stroke="rgb(201,14,76)" stroke-width="1" opacity="0.996078431372549" d="M 50.5 104 L 53 104.5 L 47 108 Q 48.1 110.7 45.5 110 L 50.5 104 Z " /><path fill="rgb(201,14,76)" stroke="rgb(201,14,76)" stroke-width="1" opacity="0.996078431372549" d="M 107 106 L 109 106.5 L 105.5 111 L 107.5 112 L 121.5 112 L 124.5 111 Q 125.6 113.8 129 113 L 129 119 L 127 119 Q 128.1 121.7 125.5 121 L 117.5 124 L 118.5 122 L 121.5 122 L 128 117.5 Q 128.5 113.5 125.5 113 L 104.5 113 L 103 111.5 L 105.5 108 Q 108.1 108.7 107 106 Z " /><path fill="rgb(201,14,76)" stroke="rgb(201,14,76)" stroke-width="1" opacity="0.996078431372549" d="M 43 111 Q 46 110 45 113 Q 42.3 111.9 43 114.5 L 42 115.5 L 42 128.5 L 43 131 Q 45.7 129.9 45 132.5 L 47 136 L 49 136 L 49 138 Q 51.7 136.9 51 139.5 L 45 134.5 L 43 131.5 L 41 129.5 L 41 113 Q 44 114 43 111 Z " /><path fill="rgb(201,14,76)" stroke="rgb(201,14,76)" stroke-width="1" opacity="0.996078431372549" d="M 114.5 124 L 115 126 L 113 126 Q 114.1 128.7 111.5 128 L 108 133 L 106 133 Q 107.1 135.7 104.5 135 L 107 131.5 Q 105.9 128.2 108.5 129 L 114.5 124 Z " /><path fill="rgb(201,14,76)" stroke="rgb(201,14,76)" stroke-width="1" opacity="0.996078431372549" d="M 103.5 136 L 104 137.5 L 102.5 140 L 102 137.5 L 103.5 136 Z " /><path fill="rgb(201,14,76)" stroke="rgb(201,14,76)" stroke-width="1" opacity="0.996078431372549" d="M 41 139 L 47.5 139 L 48 140.5 L 49 143 L 55 146 L 56 150 L 61.5 154 L 62 152.5 L 59 148.5 L 61 148 Q 60 151 63 150 L 63 153.5 L 65 156.5 Q 61.4 161.9 63 172.5 L 66.5 177 L 74.5 178 L 77 177 L 76.5 179 L 67.5 179 L 64 177 Q 64.8 173.9 62 174.5 L 62 161.5 L 60 161 L 60 163 L 58 163 L 56 167 L 51.5 167 L 48 165 L 42.5 158 Q 40.3 158.8 41 156.5 L 34 149.5 L 34 146 L 36 146 Q 34.9 143.3 37.5 144 L 39 141 Q 42 142 41 139 Z M 42 140 L 42 142 Q 39 141 40 144 L 37 145 L 36 148 L 36 150 L 40 152 L 40 154 L 42 154 L 44 157 Q 46 156 45 159 L 47 159 L 47 161 L 49 161 L 53 166 Q 55 167 54 164 L 61 159 Q 62 155 60 154 Q 57 155 58 152 L 56 152 L 56 150 L 54 150 L 53 147 Q 50 148 51 145 L 49 145 L 49 143 L 47 143 L 47 141 L 42 140 Z " /><path fill="rgb(201,14,76)" stroke="rgb(201,14,76)" stroke-width="1" opacity="0.996078431372549" d="M 52.5 141 L 54 141 L 54 143 L 56 143 L 56 145 Q 58.7 143.9 58 146.5 L 52.5 141 Z " /><path fill="rgb(201,14,76)" stroke="rgb(201,14,76)" stroke-width="1" opacity="0.996078431372549" d="M 101.5 141 L 102 143.5 L 97 161 Q 94.3 159.9 95 162.5 L 92 168 L 90 168 L 90 170 L 88 170 Q 89.1 172.7 86.5 172 L 80.5 177 L 78.5 177 L 79.5 175 L 82 175 Q 80.9 172.3 83.5 173 L 86 172 L 86 170 L 88 170 L 88 168 Q 90.7 169.1 90 166.5 L 98 154.5 Q 97.2 149.2 100 147.5 L 100 142.5 L 101.5 141 Z " /><path fill="rgb(201,14,76)" stroke="rgb(201,14,76)" stroke-width="1" opacity="0.996078431372549" d="M 28.5 174 L 32 176.5 L 30.5 177 L 28.5 174 Z " /><path fill="rgb(123,102,146)" stroke="rgb(123,102,146)" stroke-width="1" opacity="0.8509803921568627" d="M 174.5 6 L 179 6.5 L 174.5 7 L 174.5 6 Z " /><path fill="rgb(123,102,146)" stroke="rgb(123,102,146)" stroke-width="1" opacity="0.8509803921568627" d="M 183.5 14 L 187 15.5 L 184.5 16 L 183.5 14 Z " /><path fill="rgb(123,102,146)" stroke="rgb(123,102,146)" stroke-width="1" opacity="0.8509803921568627" d="M 163.5 25 L 162.5 27 L 163.5 25 Z " /><path fill="rgb(123,102,146)" stroke="rgb(123,102,146)" stroke-width="1" opacity="0.8509803921568627" d="M 158.5 27 L 160 27.5 L 157.5 29 L 158.5 27 Z " /><path fill="rgb(123,102,146)" stroke="rgb(123,102,146)" stroke-width="1" opacity="0.8509803921568627" d="M 150.5 36 L 153 37 L 153 39 Q 155.7 37.9 155 40.5 L 160 44 L 160 46 L 162 46 L 162 48 Q 164.7 46.9 164 49.5 L 109 104.5 L 109 106 L 107 106 Q 108.1 108.7 105.5 108 L 103 111.5 L 103.5 113 L 101.5 113 L 97.5 113 L 93 110 L 93 108 L 91 108 L 91 106 Q 88.3 107.1 89 104.5 L 88 101.5 L 91.5 97 L 93 97 L 93 95 Q 95.7 96.1 95 93.5 L 96 91.5 L 95 90.5 L 95 78.5 L 96 78.5 L 96.5 91 L 99.5 90 L 118.5 71 L 120 71 L 120 69.5 L 146.5 43 L 148 43 L 148 41 Q 150.7 42.1 150 39.5 L 151 37.5 L 150.5 36 Z " /><path fill="rgb(123,102,146)" stroke="rgb(123,102,146)" stroke-width="1" opacity="0.8509803921568627" d="M 90.5 52 L 97 52.5 L 90.5 53 L 90.5 52 Z " /><path fill="rgb(123,102,146)" stroke="rgb(123,102,146)" stroke-width="1" opacity="0.8509803921568627" d="M 161.5 55 L 160.5 57 L 161.5 55 Z " /><path fill="rgb(123,102,146)" stroke="rgb(123,102,146)" stroke-width="1" opacity="0.8509803921568627" d="M 154.5 62 L 153.5 64 L 154.5 62 Z " /><path fill="rgb(123,102,146)" stroke="rgb(123,102,146)" stroke-width="1" opacity="0.8509803921568627" d="M 131.5 85 L 130.5 87 L 131.5 85 Z " /><path fill="rgb(123,102,146)" stroke="rgb(123,102,146)" stroke-width="1" opacity="0.8509803921568627" d="M 124.5 92 L 123.5 94 L 124.5 92 Z " /><path fill="rgb(123,102,146)" stroke="rgb(123,102,146)" stroke-width="1" opacity="0.8509803921568627" d="M 71.5 99 L 70.5 101 L 71.5 99 Z " /><path fill="rgb(123,102,146)" stroke="rgb(123,102,146)" stroke-width="1" opacity="0.8509803921568627" d="M 53.5 104 L 52.5 106 L 53.5 104 Z " /><path fill="rgb(123,102,146)" stroke="rgb(123,102,146)" stroke-width="1" opacity="0.8509803921568627" d="M 126.5 114 L 128 117.5 L 126 118.5 L 127 115.5 L 126.5 114 Z " /><path fill="rgb(123,102,146)" stroke="rgb(123,102,146)" stroke-width="1" opacity="0.8509803921568627" d="M 117.5 122 L 116.5 124 L 117.5 122 Z " /><path fill="rgb(123,102,146)" stroke="rgb(123,102,146)" stroke-width="1" opacity="0.8509803921568627" d="M 113.5 124 L 112.5 126 L 113.5 124 Z " /><path fill="rgb(123,102,146)" stroke="rgb(123,102,146)" stroke-width="1" opacity="0.8509803921568627" d="M 14.5 126 L 15 129 L 13 128.5 L 14.5 126 Z " /><path fill="rgb(123,102,146)" stroke="rgb(123,102,146)" stroke-width="1" opacity="0.8509803921568627" d="M 106.5 131 L 105.5 133 L 106.5 131 Z " /><path fill="rgb(123,102,146)" stroke="rgb(123,102,146)" stroke-width="1" opacity="0.8509803921568627" d="M 103.5 135 L 102.5 137 L 103.5 135 Z " /><path fill="rgb(123,102,146)" stroke="rgb(123,102,146)" stroke-width="1" opacity="0.8509803921568627" d="M 51.5 139 L 52.5 141 L 51.5 139 Z " /><path fill="rgb(123,102,146)" stroke="rgb(123,102,146)" stroke-width="1" opacity="0.8509803921568627" d="M 42 140 L 47 141 L 47 143 L 49 143 L 49 145 L 51 145 Q 49.9 147.7 52.5 147 L 54 150 L 56 150 L 56 152 L 58 152 Q 56.9 154.7 59.5 154 Q 61.8 154.8 61 158.5 L 54 164 Q 55.1 166.7 52.5 166 L 49 161 L 47 161 L 47 159 L 45 159 Q 46.1 156.3 43.5 157 L 42 154 L 40 154 L 40 152 L 36 150 L 36 147.5 L 37 145 L 40 143.5 Q 39.3 140.9 42 142 L 42 140 Z " /><path fill="rgb(123,102,146)" stroke="rgb(123,102,146)" stroke-width="1" opacity="0.8509803921568627" d="M 101.5 140 L 100.5 142 L 101.5 140 Z " /><path fill="rgb(123,102,146)" stroke="rgb(123,102,146)" stroke-width="1" opacity="0.8509803921568627" d="M 109.5 140 L 110 145.5 L 109 145.5 L 109.5 140 Z " /><path fill="rgb(123,102,146)" stroke="rgb(123,102,146)" stroke-width="1" opacity="0.8509803921568627" d="M 58.5 146 L 59.5 148 L 58.5 146 Z " /><path fill="rgb(123,102,146)" stroke="rgb(123,102,146)" stroke-width="1" opacity="0.8509803921568627" d="M 63.5 153 L 65 155.5 L 64 155.5 L 63.5 153 Z " /><path fill="rgb(123,102,146)" stroke="rgb(123,102,146)" stroke-width="1" opacity="0.8509803921568627" d="M 64.5 174 L 66.5 177 L 64.5 174 Z " /><path fill="rgb(123,102,146)" stroke="rgb(123,102,146)" stroke-width="1" opacity="0.8509803921568627" d="M 78.5 175 L 77.5 177 L 78.5 175 Z " /><path fill="rgb(202,11,74)" stroke="rgb(202,11,74)" stroke-width="1" opacity="1" d="M 185.5 17 Q 191.1 16.9 193 20.5 L 194 29.5 L 193 32 L 185.5 34 L 179 33 L 179 35 Q 176.3 33.9 177 36.5 L 174 44 Q 171.3 42.9 172 45.5 Q 171 49 165.5 48 L 162 46 L 162 44 Q 159.3 45.1 160 42.5 L 155 39 L 154 32.5 L 157 31 L 157 29 L 161.5 29 Q 160.5 26 165.5 27 Q 167.6 23.1 173 24 L 173 22 Q 177.1 23.3 176 20 L 179.5 20 L 185.5 17 Z " /><path fill="rgb(202,11,74)" stroke="rgb(202,11,74)" stroke-width="1" opacity="1" d="M 92.5 54 Q 98.9 53.6 101 57.5 L 102 62.5 L 101 67 L 99 67.5 L 99.5 69 Q 97.3 68.3 98 70.5 Q 92 75.5 92 86.5 L 94 92.5 L 90 95 Q 91.1 92.3 88.5 93 L 86.5 91 L 77 91 L 77 93 L 75 93 L 75 95 L 73 95 L 73 97 L 71 97 Q 72.1 99.7 69.5 99 L 68.5 100 L 59 100 L 59 102 L 54.5 102 Q 55.5 105 50.5 104 L 45 111 L 43 111 Q 43.8 114.1 41 113.5 L 41 129.5 L 43 133 Q 45.7 131.9 45 134.5 L 52 140 L 57.5 147 Q 59.8 146.3 59 148.5 L 62 153.5 L 57.5 150 Q 55.3 150.8 56 148.5 L 55 146 L 49 143 L 48 139 L 41 139 L 41 141 Q 38.3 139.9 39 142.5 L 36 144 Q 37 147 34 146 L 34 149.5 L 41 158 L 48 163.5 Q 47.3 165.8 49.5 165 Q 51 168.3 56 167 L 56 165 L 58 165 L 58 163 L 62 161 L 62 174.5 L 65.5 177 L 67.5 179 L 77 179 Q 75.7 175.7 80.5 177 L 88 172 L 88 170 L 90 170 L 90 168 Q 92.7 169.1 92 166.5 L 95 161 Q 98 162.3 97 158.5 L 99 156.5 L 99 151.5 L 101 149.5 L 101 144.5 L 104 135 L 106 135 L 106 133 Q 108.7 134.1 108 131.5 L 113 128 L 115 124 L 119.5 124 L 127 121 Q 126.3 117.9 129 118.5 L 129 113 L 122.5 111 L 121.5 112 L 107.5 112 L 105 110.5 L 109.5 107 Q 112.8 109.7 119.5 109 L 127.5 106 L 133.5 106 L 137 108.5 L 139 115.5 L 136.5 120 L 126.5 125 L 118.5 127 L 112 132.5 L 110 135.5 L 108 137.5 L 108 142.5 L 106 146.5 L 105 154.5 L 100 166 L 98 166 L 98 169 Q 95.3 167.9 96 170.5 L 93 175 L 76.5 185 L 67.5 187 L 56.5 187 L 45.5 185 L 32 177.5 Q 32.8 175.3 30.5 176 Q 21 169 17 156.5 Q 13.1 147.4 15 132.5 L 21 115 Q 23.7 116.1 23 113.5 L 27 108 L 33 105 L 35 101 L 38.5 101 L 47.5 96 L 63.5 93 L 72 86.5 Q 71.3 83.9 74 85 L 74 81.5 Q 78.8 75.5 79 66 Q 81.7 67.1 81 64.5 L 86 57 Q 89 58 88 55 L 91.5 55 L 92.5 54 Z " /><path fill="rgb(210,206,212)" stroke="rgb(210,206,212)" stroke-width="1" opacity="0.6352941176470588" d="M 172 7 L 179.5 7 L 180.5 8 L 182 7.5 L 181 11.5 L 182 13.5 L 182 15.5 L 179.5 18 Q 177.3 18.8 178 16.5 Q 176.7 12.3 172 13 Q 173.3 10 169.5 11 L 169.5 13 L 168 13.5 L 168 20 L 170 20.5 L 169 23 L 167 22.5 L 167 20.5 Q 167.8 18.3 165.5 19 L 162 15.5 L 163.5 13 Q 160.2 14.1 161 11.5 L 162.5 10 L 172 10 L 172 7 Z " /><path fill="rgb(210,206,212)" stroke="rgb(210,206,212)" stroke-width="1" opacity="0.6352941176470588" d="M 152.5 16 Q 159.8 13.4 158 19.5 L 158 21.5 Q 157.3 25.8 160 26.5 L 156.5 28 L 154 27.5 L 154.5 25 L 156 24.5 L 153 23 L 152.5 21 L 151.5 23 L 151 17.5 L 152.5 16 Z " /><path fill="rgb(210,206,212)" stroke="rgb(210,206,212)" stroke-width="1" opacity="0.6352941176470588" d="M 194.5 32 L 195.5 34 Q 192.7 34.7 194.5 32 Z " /><path fill="rgb(210,206,212)" stroke="rgb(210,206,212)" stroke-width="1" opacity="0.6352941176470588" d="M 181.5 36 L 182 38 L 180 37.5 L 181.5 36 Z " /><path fill="rgb(210,206,212)" stroke="rgb(210,206,212)" stroke-width="1" opacity="0.6352941176470588" d="M 149 37 Q 152 36 151 39 L 149 39 Q 150.1 41.7 147.5 41 L 146 44 L 144 44 L 144 46 L 142 46 Q 143.1 48.7 140.5 48 L 139 51 L 137 51 L 137 53 L 135 53 Q 136.1 55.7 133.5 55 L 132 58 L 130 58 L 130 60 L 128 60 Q 129.1 62.7 126.5 62 L 123 67 L 121 67 L 121 69 Q 118.3 67.9 119 70.5 L 117 69.5 L 119 69 L 119 67 L 121 67 L 121 65 Q 123.7 66.1 123 63.5 L 126 62 L 126 60 Q 128.7 61.1 128 58.5 L 131.5 54 L 133 54.5 L 133 53 L 135 53 L 135 51 L 137 51 Q 135.9 48.3 138.5 49 L 140 46 L 142 46 L 142 44 L 144 44 Q 142.9 41.3 145.5 42 L 145.5 40 L 149 39 L 149 37 Z " /><path fill="rgb(210,206,212)" stroke="rgb(210,206,212)" stroke-width="1" opacity="0.6352941176470588" d="M 163.5 50 L 166 50.5 Q 166.9 53.5 162.5 52 L 163.5 50 Z " /><path fill="rgb(210,206,212)" stroke="rgb(210,206,212)" stroke-width="1" opacity="0.6352941176470588" d="M 160 53 L 164 53.5 L 161 54 L 160.5 56 L 160 53 Z " /><path fill="rgb(210,206,212)" stroke="rgb(210,206,212)" stroke-width="1" opacity="0.6352941176470588" d="M 84.5 55 L 84 56.5 Q 84.7 59.1 82 58 Q 80.9 55.3 83.5 56 L 84.5 55 Z " /><path fill="rgb(210,206,212)" stroke="rgb(210,206,212)" stroke-width="1" opacity="0.6352941176470588" d="M 158.5 55 L 159 59 L 155 58.5 L 158 57.5 L 158.5 55 Z " /><path fill="rgb(210,206,212)" stroke="rgb(210,206,212)" stroke-width="1" opacity="0.6352941176470588" d="M 153 60 L 157 60.5 L 152 63.5 L 151.5 66 L 151 62 Q 154 63 153 60 Z " /><path fill="rgb(210,206,212)" stroke="rgb(210,206,212)" stroke-width="1" opacity="0.6352941176470588" d="M 149.5 64 L 150 68 L 146 67.5 L 149 66.5 Q 146.8 65.3 149.5 64 Z " /><path fill="rgb(210,206,212)" stroke="rgb(210,206,212)" stroke-width="1" opacity="0.6352941176470588" d="M 101.5 69 L 102 71 L 100 70.5 L 101.5 69 Z " /><path fill="rgb(210,206,212)" stroke="rgb(210,206,212)" stroke-width="1" opacity="0.6352941176470588" d="M 144 69 L 147 69.5 L 145 70 L 144.5 72 L 144 69 Z " /><path fill="rgb(210,206,212)" stroke="rgb(210,206,212)" stroke-width="1" opacity="0.6352941176470588" d="M 116.5 71 L 116 72.5 L 116 74 L 114 74 L 114 76 L 112 76 Q 113.1 78.7 110.5 78 L 109 81 L 107 81 L 107 83 L 105 83 Q 106.1 85.7 103.5 85 L 100 90 Q 97.3 91.1 98 88.5 L 103 85 L 103 83 L 105 83 L 105 81 L 107 81 Q 105.9 78.3 108.5 79 L 110 76 L 112 76 L 112 74 L 114 74 Q 112.9 71.3 115.5 72 L 116.5 71 Z " /><path fill="rgb(210,206,212)" stroke="rgb(210,206,212)" stroke-width="1" opacity="0.6352941176470588" d="M 142.5 71 L 143 75 L 139 74.5 L 142 74 L 142.5 71 Z " /><path fill="rgb(210,206,212)" stroke="rgb(210,206,212)" stroke-width="1" opacity="0.6352941176470588" d="M 137 76 L 141 76.5 L 138 77 L 137.5 79 L 137 76 Z " /><path fill="rgb(210,206,212)" stroke="rgb(210,206,212)" stroke-width="1" opacity="0.6352941176470588" d="M 135.5 78 L 136 82 L 132 81.5 L 135 80.5 L 135.5 78 Z " /><path fill="rgb(210,206,212)" stroke="rgb(210,206,212)" stroke-width="1" opacity="0.6352941176470588" d="M 70.5 83 L 71 84.5 Q 69.5 87.5 68 84.5 L 70.5 83 Z " /><path fill="rgb(210,206,212)" stroke="rgb(210,206,212)" stroke-width="1" opacity="0.6352941176470588" d="M 130.5 83 L 134 83.5 L 130.5 84 L 130.5 83 Z " /><path fill="rgb(210,206,212)" stroke="rgb(210,206,212)" stroke-width="1" opacity="0.6352941176470588" d="M 128.5 85 L 129 89 L 125 88.5 L 128 87.5 L 128.5 85 Z " /><path fill="rgb(210,206,212)" stroke="rgb(210,206,212)" stroke-width="1" opacity="0.6352941176470588" d="M 64.5 88 Q 66.8 87.3 66 89.5 L 64.5 88 Z " /><path fill="rgb(210,206,212)" stroke="rgb(210,206,212)" stroke-width="1" opacity="0.6352941176470588" d="M 123.5 90 L 127 90.5 L 123.5 91 L 123.5 90 Z " /><path fill="rgb(210,206,212)" stroke="rgb(210,206,212)" stroke-width="1" opacity="0.6352941176470588" d="M 121.5 92 L 122 95.5 L 121 95.5 L 121.5 92 Z " /><path fill="rgb(210,206,212)" stroke="rgb(210,206,212)" stroke-width="1" opacity="0.6352941176470588" d="M 119.5 94 L 120 98 L 116 97.5 L 119 96.5 Q 116.8 95.3 119.5 94 Z " /><path fill="rgb(210,206,212)" stroke="rgb(210,206,212)" stroke-width="1" opacity="0.6352941176470588" d="M 114 99 L 117 99.5 L 115 100 L 114.5 102 L 114 99 Z " /><path fill="rgb(210,206,212)" stroke="rgb(210,206,212)" stroke-width="1" opacity="0.6352941176470588" d="M 31.5 100 L 32.5 102 Q 29.7 102.7 31.5 100 Z " /><path fill="rgb(210,206,212)" stroke="rgb(210,206,212)" stroke-width="1" opacity="0.6352941176470588" d="M 112.5 101 L 113 105 L 109 106 Q 107.8 103 111.5 104 L 112.5 101 Z " /><path fill="rgb(210,206,212)" stroke="rgb(210,206,212)" stroke-width="1" opacity="0.6352941176470588" d="M 29.5 102 L 30.5 104 Q 27.7 104.7 29.5 102 Z " /><path fill="rgb(210,206,212)" stroke="rgb(210,206,212)" stroke-width="1" opacity="0.6352941176470588" d="M 22.5 109 L 23 110.5 L 22 113 Q 19 114 20 111 Q 22.8 112 22.5 109 Z " /><path fill="rgb(210,206,212)" stroke="rgb(210,206,212)" stroke-width="1" opacity="0.6352941176470588" d="M 94.5 110 L 96.5 113 L 94.5 110 Z " /><path fill="rgb(210,206,212)" stroke="rgb(210,206,212)" stroke-width="1" opacity="0.6352941176470588" d="M 76.5 112 L 78.5 112 L 89 122.5 Q 88.3 124.8 90.5 124 L 90.5 125 Q 87.9 124.3 89 127 L 86.5 127 L 74 114.5 L 74 113 L 76.5 112 Z " /><path fill="rgb(210,206,212)" stroke="rgb(210,206,212)" stroke-width="1" opacity="0.6352941176470588" d="M 63.5 124 L 68 127 L 68 129 L 70 129 L 70 131 Q 72.7 129.9 72 132.5 L 75 134 L 76 138.5 L 74.5 141 L 70 138 L 70 136 L 68 136 Q 69.1 133.3 66.5 134 L 65 131 Q 62.3 132.1 63 129.5 L 62 126.5 L 63.5 124 Z " /><path fill="rgb(210,206,212)" stroke="rgb(210,206,212)" stroke-width="1" opacity="0.6352941176470588" d="M 118.5 129 L 119.5 131 Q 116.7 131.7 118.5 129 Z " /><path fill="rgb(210,206,212)" stroke="rgb(210,206,212)" stroke-width="1" opacity="0.6352941176470588" d="M 24.5 173 L 29 178.5 L 27 179 L 24.5 173 Z " /><path fill="rgb(218,138,174)" stroke="rgb(218,138,174)" stroke-width="1" opacity="0.5294117647058824" d="M 181.5 9 L 182 11.5 L 181 11.5 L 181.5 9 Z " /><path fill="rgb(218,138,174)" stroke="rgb(218,138,174)" stroke-width="1" opacity="0.5294117647058824" d="M 152.5 15 L 156 15.5 L 152.5 16 L 152.5 15 Z " /><path fill="rgb(218,138,174)" stroke="rgb(218,138,174)" stroke-width="1" opacity="0.5294117647058824" d="M 183.5 15 L 182.5 17 L 180.5 18 L 181.5 16 L 183.5 15 Z " /><path fill="rgb(218,138,174)" stroke="rgb(218,138,174)" stroke-width="1" opacity="0.5294117647058824" d="M 190 15 Q 193.3 13.9 192 18 Q 188.7 19.1 190 15 Z " /><path fill="rgb(218,138,174)" stroke="rgb(218,138,174)" stroke-width="1" opacity="0.5294117647058824" d="M 193 17 L 196 18.5 Q 196.8 20.8 194.5 20 L 193 17 Z " /><path fill="rgb(218,138,174)" stroke="rgb(218,138,174)" stroke-width="1" opacity="0.5294117647058824" d="M 150.5 19 L 151 23.5 L 150 23.5 L 150.5 19 Z " /><path fill="rgb(218,138,174)" stroke="rgb(218,138,174)" stroke-width="1" opacity="0.5294117647058824" d="M 169 21 L 172 21.5 L 169.5 23 L 169 21 Z " /><path fill="rgb(218,138,174)" stroke="rgb(218,138,174)" stroke-width="1" opacity="0.5294117647058824" d="M 162.5 25 L 161.5 27 L 160 26.5 L 162.5 25 Z " /><path fill="rgb(218,138,174)" stroke="rgb(218,138,174)" stroke-width="1" opacity="0.5294117647058824" d="M 154 28 L 157 28.5 L 154 30 L 154 28 Z " /><path fill="rgb(218,138,174)" stroke="rgb(218,138,174)" stroke-width="1" opacity="0.5294117647058824" d="M 190 34 Q 193 33 192 36 Q 189 37 190 34 Z " /><path fill="rgb(218,138,174)" stroke="rgb(218,138,174)" stroke-width="1" opacity="0.5294117647058824" d="M 150.5 35 Q 154.3 34 153 37 L 150.5 35 Z " /><path fill="rgb(218,138,174)" stroke="rgb(218,138,174)" stroke-width="1" opacity="0.5294117647058824" d="M 180.5 35 L 182 35.5 L 180 36 L 177.5 42 L 176 39 L 179 38.5 Q 176.3 36.8 180.5 35 Z " /><path fill="rgb(218,138,174)" stroke="rgb(218,138,174)" stroke-width="1" opacity="0.5294117647058824" d="M 148.5 38 L 150 40.5 L 149 40.5 L 148.5 38 Z " /><path fill="rgb(218,138,174)" stroke="rgb(218,138,174)" stroke-width="1" opacity="0.5294117647058824" d="M 145.5 41 L 148 41.5 Q 148.8 43.8 146.5 43 L 145.5 41 Z " /><path fill="rgb(218,138,174)" stroke="rgb(218,138,174)" stroke-width="1" opacity="0.5294117647058824" d="M 143.5 43 L 144.5 45 L 143.5 43 Z " /><path fill="rgb(218,138,174)" stroke="rgb(218,138,174)" stroke-width="1" opacity="0.5294117647058824" d="M 174 43 Q 177 42 176 45 Q 173 46 174 43 Z " /><path fill="rgb(218,138,174)" stroke="rgb(218,138,174)" stroke-width="1" opacity="0.5294117647058824" d="M 172 46 Q 175.8 44.5 175 47.5 L 173 47.5 Q 174 51.3 171 50 L 172 46 Z " /><path fill="rgb(218,138,174)" stroke="rgb(218,138,174)" stroke-width="1" opacity="0.5294117647058824" d="M 138 47 L 141 48.5 Q 139.5 51.5 138 48.5 L 138 47 Z " /><path fill="rgb(218,138,174)" stroke="rgb(218,138,174)" stroke-width="1" opacity="0.5294117647058824" d="M 136.5 50 L 137.5 52 L 136.5 50 Z " /><path fill="rgb(218,138,174)" stroke="rgb(218,138,174)" stroke-width="1" opacity="0.5294117647058824" d="M 87.5 52 L 89 54.5 L 87 53.5 L 87.5 52 Z " /><path fill="rgb(218,138,174)" stroke="rgb(218,138,174)" stroke-width="1" opacity="0.5294117647058824" d="M 98 53 L 102 54.5 L 98 55 L 98 53 Z " /><path fill="rgb(218,138,174)" stroke="rgb(218,138,174)" stroke-width="1" opacity="0.5294117647058824" d="M 84.5 54 Q 87.5 53.2 86 57 L 84 56.5 L 84.5 54 Z " /><path fill="rgb(218,138,174)" stroke="rgb(218,138,174)" stroke-width="1" opacity="0.5294117647058824" d="M 132.5 54 Q 135.5 55.5 132.5 57 L 132.5 54 Z " /><path fill="rgb(218,138,174)" stroke="rgb(218,138,174)" stroke-width="1" opacity="0.5294117647058824" d="M 102 56 Q 105.3 54.9 104 59 Q 100.7 60.1 102 56 Z " /><path fill="rgb(218,138,174)" stroke="rgb(218,138,174)" stroke-width="1" opacity="0.5294117647058824" d="M 80.5 59 L 82 61.5 L 81 64 Q 78 62.8 79 66.5 L 76 68 L 78 64.5 L 78 61 Q 80.8 62 80.5 59 Z " /><path fill="rgb(218,138,174)" stroke="rgb(218,138,174)" stroke-width="1" opacity="0.5294117647058824" d="M 125.5 61 L 127 62.5 L 123.5 66 L 122.5 64 Q 124.3 66.8 126 62.5 L 125.5 61 Z " /><path fill="rgb(218,138,174)" stroke="rgb(218,138,174)" stroke-width="1" opacity="0.5294117647058824" d="M 152.5 61 L 153.5 63 L 152.5 61 Z " /><path fill="rgb(218,138,174)" stroke="rgb(218,138,174)" stroke-width="1" opacity="0.5294117647058824" d="M 102 65 Q 105.3 63.9 104 68 Q 100.7 69.1 102 65 Z " /><path fill="rgb(218,138,174)" stroke="rgb(218,138,174)" stroke-width="1" opacity="0.5294117647058824" d="M 118.5 68 L 120 70.5 L 119 70.5 L 118.5 68 Z " /><path fill="rgb(218,138,174)" stroke="rgb(218,138,174)" stroke-width="1" opacity="0.5294117647058824" d="M 75.5 70 L 77 73 Q 73.5 74.1 75.5 70 Z " /><path fill="rgb(218,138,174)" stroke="rgb(218,138,174)" stroke-width="1" opacity="0.5294117647058824" d="M 115 70 Q 118.7 68.5 118 71.5 Q 116.5 74.5 115 71.5 L 115 70 Z " /><path fill="rgb(218,138,174)" stroke="rgb(218,138,174)" stroke-width="1" opacity="0.5294117647058824" d="M 98 71 L 101 71.5 L 99 75 Q 96.3 76.1 97 73.5 L 98 71 Z " /><path fill="rgb(218,138,174)" stroke="rgb(218,138,174)" stroke-width="1" opacity="0.5294117647058824" d="M 141.5 72 L 140.5 74 L 141.5 72 Z " /><path fill="rgb(218,138,174)" stroke="rgb(218,138,174)" stroke-width="1" opacity="0.5294117647058824" d="M 113.5 73 L 114.5 75 L 113.5 73 Z " /><path fill="rgb(218,138,174)" stroke="rgb(218,138,174)" stroke-width="1" opacity="0.5294117647058824" d="M 74.5 75 L 75 77.5 L 73 78.5 L 74.5 75 Z " /><path fill="rgb(218,138,174)" stroke="rgb(218,138,174)" stroke-width="1" opacity="0.5294117647058824" d="M 95.5 76 L 97 78.5 L 95 77.5 L 95.5 76 Z " /><path fill="rgb(218,138,174)" stroke="rgb(218,138,174)" stroke-width="1" opacity="0.5294117647058824" d="M 108 77 L 111 78.5 Q 109.5 81.5 108 78.5 L 108 77 Z " /><path fill="rgb(218,138,174)" stroke="rgb(218,138,174)" stroke-width="1" opacity="0.5294117647058824" d="M 106.5 80 L 107.5 82 L 106.5 80 Z " /><path fill="rgb(218,138,174)" stroke="rgb(218,138,174)" stroke-width="1" opacity="0.5294117647058824" d="M 71 81 Q 73.7 79.9 73 82.5 L 71.5 85 L 71 81 Z " /><path fill="rgb(218,138,174)" stroke="rgb(218,138,174)" stroke-width="1" opacity="0.5294117647058824" d="M 101.5 84 L 104 85.5 L 100 88.5 L 102.5 85 L 101.5 84 Z " /><path fill="rgb(218,138,174)" stroke="rgb(218,138,174)" stroke-width="1" opacity="0.5294117647058824" d="M 68 86 L 70 86.5 L 66 89.5 Q 65.3 86.9 68 88 L 68 86 Z " /><path fill="rgb(218,138,174)" stroke="rgb(218,138,174)" stroke-width="1" opacity="0.5294117647058824" d="M 63.5 89 L 65 89.5 L 63.5 92 Q 60.5 90.5 63.5 89 Z " /><path fill="rgb(218,138,174)" stroke="rgb(218,138,174)" stroke-width="1" opacity="0.5294117647058824" d="M 56.5 91 L 59 91.5 Q 57 96 55 92.5 L 56.5 91 Z " /><path fill="rgb(218,138,174)" stroke="rgb(218,138,174)" stroke-width="1" opacity="0.5294117647058824" d="M 122.5 91 L 123.5 93 L 122.5 91 Z " /><path fill="rgb(218,138,174)" stroke="rgb(218,138,174)" stroke-width="1" opacity="0.5294117647058824" d="M 46 93 Q 50.1 91.7 49 95 Q 44.9 96.3 46 93 Z " /><path fill="rgb(218,138,174)" stroke="rgb(218,138,174)" stroke-width="1" opacity="0.5294117647058824" d="M 41 95 Q 45.1 93.7 44 97 Q 39.9 98.3 41 95 Z " /><path fill="rgb(218,138,174)" stroke="rgb(218,138,174)" stroke-width="1" opacity="0.5294117647058824" d="M 76.5 95 L 74.5 98 L 76.5 95 Z " /><path fill="rgb(218,138,174)" stroke="rgb(218,138,174)" stroke-width="1" opacity="0.5294117647058824" d="M 37.5 97 Q 41.3 96 40 99 L 37.5 98 L 35.5 101 L 32 100.5 L 37.5 97 Z " /><path fill="rgb(218,138,174)" stroke="rgb(218,138,174)" stroke-width="1" opacity="0.5294117647058824" d="M 30.5 102 L 33 102.5 L 30.5 103 L 30.5 102 Z " /><path fill="rgb(218,138,174)" stroke="rgb(218,138,174)" stroke-width="1" opacity="0.5294117647058824" d="M 60.5 102 L 63 102.5 L 60.5 103 L 60.5 102 Z " /><path fill="rgb(218,138,174)" stroke="rgb(218,138,174)" stroke-width="1" opacity="0.5294117647058824" d="M 27 104 L 30 104.5 L 27 106 L 22.5 113 L 22 111.5 L 25.5 106 Q 28.1 106.7 27 104 Z " /><path fill="rgb(218,138,174)" stroke="rgb(218,138,174)" stroke-width="1" opacity="0.5294117647058824" d="M 124.5 104 Q 127.1 103.3 126 106 L 122 105.5 L 124.5 104 Z " /><path fill="rgb(218,138,174)" stroke="rgb(218,138,174)" stroke-width="1" opacity="0.5294117647058824" d="M 135 104 Q 138.8 103.3 140 106.5 L 137 108 L 135 104 Z " /><path fill="rgb(218,138,174)" stroke="rgb(218,138,174)" stroke-width="1" opacity="0.5294117647058824" d="M 111.5 105 L 115 106.5 L 112 108 L 111.5 105 Z " /><path fill="rgb(218,138,174)" stroke="rgb(218,138,174)" stroke-width="1" opacity="0.5294117647058824" d="M 120.5 105 L 121 107.5 L 119 106.5 L 120.5 105 Z " /><path fill="rgb(218,138,174)" stroke="rgb(218,138,174)" stroke-width="1" opacity="0.5294117647058824" d="M 140.5 109 L 141 111 L 139 110.5 L 140.5 109 Z " /><path fill="rgb(218,138,174)" stroke="rgb(218,138,174)" stroke-width="1" opacity="0.5294117647058824" d="M 46.5 110 L 45.5 112 L 46.5 110 Z " /><path fill="rgb(218,138,174)" stroke="rgb(218,138,174)" stroke-width="1" opacity="0.5294117647058824" d="M 20.5 113 L 20 114.5 Q 21 118.3 18 117 Q 16.5 113.3 19.5 114 L 20.5 113 Z " /><path fill="rgb(218,138,174)" stroke="rgb(218,138,174)" stroke-width="1" opacity="0.5294117647058824" d="M 111.5 113 L 115.5 114 L 118.5 113 L 118.5 114 L 114.5 115 L 111.5 114 L 111.5 113 Z " /><path fill="rgb(218,138,174)" stroke="rgb(218,138,174)" stroke-width="1" opacity="0.5294117647058824" d="M 17.5 118 Q 20.1 117.3 19 120 L 16 119.5 L 17.5 118 Z " /><path fill="rgb(218,138,174)" stroke="rgb(218,138,174)" stroke-width="1" opacity="0.5294117647058824" d="M 137 120 L 141 120.5 L 139 121 Q 140 124 137 123 L 137 120 Z " /><path fill="rgb(218,138,174)" stroke="rgb(218,138,174)" stroke-width="1" opacity="0.5294117647058824" d="M 15 121 Q 18.3 119.9 17 124 L 14 123.5 L 15 121 Z " /><path fill="rgb(218,138,174)" stroke="rgb(218,138,174)" stroke-width="1" opacity="0.5294117647058824" d="M 116.5 122 L 115.5 124 L 116.5 122 Z " /><path fill="rgb(218,138,174)" stroke="rgb(218,138,174)" stroke-width="1" opacity="0.5294117647058824" d="M 130 124 Q 133 123 132 126 Q 129 127 130 124 Z " /><path fill="rgb(218,138,174)" stroke="rgb(218,138,174)" stroke-width="1" opacity="0.5294117647058824" d="M 125 126 Q 128 125 127 128 Q 124 129 125 126 Z " /><path fill="rgb(218,138,174)" stroke="rgb(218,138,174)" stroke-width="1" opacity="0.5294117647058824" d="M 120.5 128 Q 123.1 127.3 122 130 L 119 129.5 L 120.5 128 Z " /><path fill="rgb(218,138,174)" stroke="rgb(218,138,174)" stroke-width="1" opacity="0.5294117647058824" d="M 114 131 L 117 132.5 L 115 133 Q 116.1 135.7 113.5 135 L 112.5 133 Q 115.1 133.7 114 131 Z " /><path fill="rgb(218,138,174)" stroke="rgb(218,138,174)" stroke-width="1" opacity="0.5294117647058824" d="M 45.5 132 L 46.5 134 L 45.5 132 Z " /><path fill="rgb(218,138,174)" stroke="rgb(218,138,174)" stroke-width="1" opacity="0.5294117647058824" d="M 104.5 133 L 103.5 135 L 104.5 133 Z " /><path fill="rgb(218,138,174)" stroke="rgb(218,138,174)" stroke-width="1" opacity="0.5294117647058824" d="M 111.5 136 L 113 136.5 L 111 137 L 110.5 140 L 110 137.5 L 111.5 136 Z " /><path fill="rgb(218,138,174)" stroke="rgb(218,138,174)" stroke-width="1" opacity="0.5294117647058824" d="M 101.5 139 L 100.5 141 L 101.5 139 Z " /><path fill="rgb(218,138,174)" stroke="rgb(218,138,174)" stroke-width="1" opacity="0.5294117647058824" d="M 99.5 145 L 100 147.5 L 98 148.5 L 99.5 145 Z " /><path fill="rgb(218,138,174)" stroke="rgb(218,138,174)" stroke-width="1" opacity="0.5294117647058824" d="M 107 145 L 110 146.5 L 107 147 L 107 145 Z " /><path fill="rgb(218,138,174)" stroke="rgb(218,138,174)" stroke-width="1" opacity="0.5294117647058824" d="M 13 152 Q 16 151 15 154 Q 12 155 13 152 Z " /><path fill="rgb(218,138,174)" stroke="rgb(218,138,174)" stroke-width="1" opacity="0.5294117647058824" d="M 63.5 152 L 64.5 154 L 63.5 152 Z " /><path fill="rgb(218,138,174)" stroke="rgb(218,138,174)" stroke-width="1" opacity="0.5294117647058824" d="M 106.5 154 L 107.5 156 Q 104.7 156.7 106.5 154 Z " /><path fill="rgb(218,138,174)" stroke="rgb(218,138,174)" stroke-width="1" opacity="0.5294117647058824" d="M 96.5 155 L 97 156.5 L 95.5 159 L 95 157.5 L 96.5 155 Z " /><path fill="rgb(218,138,174)" stroke="rgb(218,138,174)" stroke-width="1" opacity="0.5294117647058824" d="M 15 157 Q 17.7 155.9 17 158.5 Q 14.5 160 18 161.5 Q 18.7 164.1 16 163 L 15 157 Z " /><path fill="rgb(218,138,174)" stroke="rgb(218,138,174)" stroke-width="1" opacity="0.5294117647058824" d="M 64.5 159 L 65 161.5 L 63.5 164 L 63 162.5 L 64.5 159 Z " /><path fill="rgb(218,138,174)" stroke="rgb(218,138,174)" stroke-width="1" opacity="0.5294117647058824" d="M 104 159 Q 106.7 157.9 106 160.5 L 104 161.5 L 104 159 Z " /><path fill="rgb(218,138,174)" stroke="rgb(218,138,174)" stroke-width="1" opacity="0.5294117647058824" d="M 102 163 Q 105 162 104 165 Q 101 166 102 163 Z " /><path fill="rgb(218,138,174)" stroke="rgb(218,138,174)" stroke-width="1" opacity="0.5294117647058824" d="M 18.5 164 L 20 166.5 L 18 165.5 L 18.5 164 Z " /><path fill="rgb(218,138,174)" stroke="rgb(218,138,174)" stroke-width="1" opacity="0.5294117647058824" d="M 100 166 L 103 166.5 L 99 169.5 L 100 166 Z " /><path fill="rgb(218,138,174)" stroke="rgb(218,138,174)" stroke-width="1" opacity="0.5294117647058824" d="M 20 168 L 24 170.5 L 26 173.5 L 23.5 172 Q 20.9 172.7 22 170 L 20 170 L 20 168 Z " /><path fill="rgb(218,138,174)" stroke="rgb(218,138,174)" stroke-width="1" opacity="0.5294117647058824" d="M 97.5 171 L 99 171.5 L 97 172.5 L 99 173.5 L 93.5 178 L 93 175 Q 95.7 176.1 95 173.5 L 97.5 171 Z " /><path fill="rgb(218,138,174)" stroke="rgb(218,138,174)" stroke-width="1" opacity="0.5294117647058824" d="M 27.5 175 L 30 179 L 35 180 L 34.5 183 L 29 178.5 Q 29.7 175.9 27 177 L 27.5 175 Z " /><path fill="rgb(218,138,174)" stroke="rgb(218,138,174)" stroke-width="1" opacity="0.5294117647058824" d="M 77.5 175 L 76.5 177 L 77.5 175 Z " /><path fill="rgb(218,138,174)" stroke="rgb(218,138,174)" stroke-width="1" opacity="0.5294117647058824" d="M 88.5 179 Q 91.1 178.3 90 181 L 86.5 183 L 86 180 L 88.5 179 Z " /><path fill="rgb(218,138,174)" stroke="rgb(218,138,174)" stroke-width="1" opacity="0.5294117647058824" d="M 36 182 Q 39 181 38 184 L 42 184 L 42 186 L 36 184 L 36 182 Z " /><path fill="rgb(218,138,174)" stroke="rgb(218,138,174)" stroke-width="1" opacity="0.5294117647058824" d="M 83 182 Q 86 181 85 184 Q 82.3 182.9 83 185.5 L 82 185.5 L 83 182 Z " /><path fill="rgb(218,138,174)" stroke="rgb(218,138,174)" stroke-width="1" opacity="0.5294117647058824" d="M 45 186 Q 48 185 47 188 Q 44 189 45 186 Z " /><path fill="rgb(218,138,174)" stroke="rgb(218,138,174)" stroke-width="1" opacity="0.5294117647058824" d="M 75.5 186 L 78 186.5 L 74.5 188 L 75.5 186 Z " /><path fill="rgb(218,138,174)" stroke="rgb(218,138,174)" stroke-width="1" opacity="0.5294117647058824" d="M 55.5 188 L 59 189.5 L 56.5 190 L 55.5 188 Z " /><path fill="rgb(218,138,174)" stroke="rgb(218,138,174)" stroke-width="1" opacity="0.5294117647058824" d="M 67 188 Q 70 187 69 190 Q 66 191 67 188 Z " /><path fill="rgb(218,138,174)" stroke="rgb(218,138,174)" stroke-width="1" opacity="0.5294117647058824" d="M 63.5 189 L 66 189.5 L 63.5 190 L 63.5 189 Z " /><path fill="rgb(242,241,241)" stroke="rgb(242,241,241)" stroke-width="1" opacity="0.9647058823529412" d="M 179.5 6 L 180.5 8 L 179.5 6 Z " /><path fill="rgb(242,241,241)" stroke="rgb(242,241,241)" stroke-width="1" opacity="0.9647058823529412" d="M 169.5 11 L 172 11 Q 170.8 14 174.5 13 Q 178.8 14.3 178 19 L 170.5 21 L 168 20 L 168 13.5 L 169.5 13 L 169.5 11 Z " /><path fill="rgb(242,241,241)" stroke="rgb(242,241,241)" stroke-width="1" opacity="0.9647058823529412" d="M 158.5 12 L 164 13.5 L 162 15.5 L 165.5 19 Q 167.8 18.3 167 20.5 L 167 22.5 L 165.5 25 L 159.5 26 Q 157.3 25.3 158 21.5 L 158 19.5 L 158 16 Q 155.3 17.1 156 14.5 L 158.5 12 Z " /><path fill="rgb(242,241,241)" stroke="rgb(242,241,241)" stroke-width="1" opacity="0.9647058823529412" d="M 179.5 13 L 183 14 L 182.5 16 L 179.5 13 Z " /><path fill="rgb(242,241,241)" stroke="rgb(242,241,241)" stroke-width="1" opacity="0.9647058823529412" d="M 152.5 21 L 153 23 L 156 24.5 L 154 25.5 L 155.5 28 L 153 27 L 153 25 Q 150.3 26.1 151 23.5 L 152.5 21 Z " /><path fill="rgb(242,241,241)" stroke="rgb(242,241,241)" stroke-width="1" opacity="0.9647058823529412" d="M 102.5 69 L 103 70.5 L 101 71.5 L 102.5 69 Z " /><path fill="rgb(242,241,241)" stroke="rgb(242,241,241)" stroke-width="1" opacity="0.9647058823529412" d="M 138 77 L 140 77.5 L 138 78.5 L 138 77 Z " /><path fill="rgb(242,241,241)" stroke="rgb(242,241,241)" stroke-width="1" opacity="0.9647058823529412" d="M 130.5 84 L 133 84.5 L 130 85 L 129.5 87 L 129 85.5 L 130.5 84 Z " /><path fill="rgb(242,241,241)" stroke="rgb(242,241,241)" stroke-width="1" opacity="0.9647058823529412" d="M 123.5 91 L 125 91.5 L 123 92 L 122.5 94 L 122 92.5 L 123.5 91 Z " /><path fill="rgb(242,241,241)" stroke="rgb(242,241,241)" stroke-width="1" opacity="0.9647058823529412" d="M 81.5 92 L 84.5 92 L 89 95.5 L 88 104.5 L 96.5 113 Q 109 111 115.5 115 Q 119 111.8 126 113 L 127 117.5 Q 125.7 121 121 120 Q 122.3 123.7 116.5 122 L 109 127 L 109 129 L 107 129 L 107 131 Q 104.3 129.9 105 132.5 L 100 140.5 Q 100.8 145.8 98 147.5 L 98 153.5 L 93 161.5 L 93 164 L 91 164 L 91 166 Q 88.3 164.9 89 167.5 L 84 171 L 84 173 Q 79.9 171.7 81 175 L 77.5 175 Q 75.7 178.2 70.5 178 L 65 174.5 L 65 173 L 63 172.5 L 63 164.5 Q 66.6 161.6 65 153.5 L 61 147 L 59 147 Q 60.1 144.3 57.5 145 L 54 140 L 52 140 Q 53.1 137.3 50.5 138 L 43 128.5 L 42 117.5 L 47 109 L 54.5 104 L 72 101 Q 70.9 98.3 73.5 99 L 77 94 L 81.5 92 Z M 77 112 L 74 113 L 74 115 L 87 127 L 89 127 Q 88 124 91 125 L 91 124 Q 88 125 89 123 L 79 112 L 77 112 Z M 64 124 L 62 127 L 63 130 Q 62 132 65 131 L 67 134 Q 69 133 68 136 L 70 136 L 70 138 L 75 141 L 76 139 L 75 134 L 72 133 Q 73 130 70 131 L 70 129 L 68 129 L 68 127 L 64 124 Z " /><path fill="rgb(242,241,241)" stroke="rgb(242,241,241)" stroke-width="1" opacity="0.9647058823529412" d="M 102.5 167 L 101.5 169 L 102.5 167 Z " /></svg>