<svg width="200" height="200" version="1.1" xmlns="http://www.w3.org/2000/svg" desc="Created with imagetracer.js version 1.2.6" ><path fill="rgb(187,146,84)" stroke="rgb(187,146,84)" stroke-width="1" opacity="1" d="M 46.5 24 L 154.5 24 L 158 25.5 L 155.5 26 L 154.5 25 L 46.5 25 L 39.5 28 L 40.5 26 L 46.5 24 Z " /><path fill="rgb(187,146,84)" stroke="rgb(187,146,84)" stroke-width="1" opacity="1" d="M 159.5 26 L 166 30.5 L 167 32.5 L 160.5 27 L 159.5 26 Z " /><path fill="rgb(187,146,84)" stroke="rgb(187,146,84)" stroke-width="1" opacity="1" d="M 37.5 28 L 36 30.5 L 32.5 37 L 32 35.5 L 37.5 28 Z " /><path fill="rgb(187,146,84)" stroke="rgb(187,146,84)" stroke-width="1" opacity="1" d="M 168.5 36 L 169 41.5 L 168 41.5 L 168.5 36 Z " /><path fill="rgb(187,146,84)" stroke="rgb(187,146,84)" stroke-width="1" opacity="1" d="M 31.5 39 L 32 88.5 L 33 89.5 L 31 90 L 31.5 39 Z " /><path fill="rgb(187,146,84)" stroke="rgb(187,146,84)" stroke-width="1" opacity="1" d="M 54.5 57 L 87.5 57 Q 95.7 58.8 100.5 64 Q 104.3 58.3 112.5 57 L 145.5 57 L 145.5 58 L 112.5 58 Q 104.3 59.8 99.5 65 Q 95.7 59.3 87.5 58 L 54.5 58 L 54.5 57 Z " /><path fill="rgb(187,146,84)" stroke="rgb(187,146,84)" stroke-width="1" opacity="1" d="M 49.5 58 L 53 58.5 Q 44.7 59.7 41 65.5 L 38 71.5 L 38 88 L 34.5 89 L 34.5 88 L 37 86.5 L 37 71.5 Q 39.3 64.8 44.5 61 L 49.5 58 Z " /><path fill="rgb(187,146,84)" stroke="rgb(187,146,84)" stroke-width="1" opacity="1" d="M 147.5 58 L 152.5 59 L 160 65.5 L 163 71.5 L 163 86.5 L 164.5 88 L 166 88.5 L 164.5 89 L 162 86.5 L 162 71.5 L 155.5 62 Q 153.6 58.4 147.5 59 L 147.5 58 Z " /><path fill="rgb(187,146,84)" stroke="rgb(187,146,84)" stroke-width="1" opacity="1" d="M 52.5 65 L 89 65.5 L 52.5 66 L 52.5 65 Z " /><path fill="rgb(187,146,84)" stroke="rgb(187,146,84)" stroke-width="1" opacity="1" d="M 111.5 65 L 148 65.5 L 111.5 66 L 111.5 65 Z " /><path fill="rgb(187,146,84)" stroke="rgb(187,146,84)" stroke-width="1" opacity="1" d="M 50.5 66 L 49.5 68 L 50.5 66 Z " /><path fill="rgb(187,146,84)" stroke="rgb(187,146,84)" stroke-width="1" opacity="1" d="M 92.5 67 L 93.5 69 L 92.5 67 Z " /><path fill="rgb(187,146,84)" stroke="rgb(187,146,84)" stroke-width="1" opacity="1" d="M 107.5 67 L 106.5 69 L 107.5 67 Z " /><path fill="rgb(187,146,84)" stroke="rgb(187,146,84)" stroke-width="1" opacity="1" d="M 105.5 70 L 105 71.5 L 104 73.5 L 104 85 L 154.5 85 L 155 84.5 L 155 75.5 L 156 75.5 L 156 84.5 L 154.5 86 L 104.5 86 L 103 84.5 L 103 73.5 L 105.5 70 Z " /><path fill="rgb(187,146,84)" stroke="rgb(187,146,84)" stroke-width="1" opacity="1" d="M 96.5 74 L 97 84.5 L 95.5 86 L 45.5 86 L 44 84.5 L 44 75.5 L 45 75.5 L 45 84.5 L 45.5 85 L 96 85 L 96.5 74 Z " /><path fill="rgb(187,146,84)" stroke="rgb(187,146,84)" stroke-width="1" opacity="1" d="M 168.5 88 L 169 90 L 167 89.5 L 168.5 88 Z " /><path fill="rgb(187,146,84)" stroke="rgb(187,146,84)" stroke-width="1" opacity="1" d="M 20 160 L 34 160 L 34 166.5 L 33 166.5 L 33 161 L 21 161 L 20.5 166 L 20 160 Z " /><path fill="rgb(187,146,84)" stroke="rgb(187,146,84)" stroke-width="1" opacity="1" d="M 166 160 L 180 160 L 180 165.5 L 179 165.5 L 179 161 L 167 161 L 166.5 167 L 166 160 Z " /><path fill="rgb(187,146,84)" stroke="rgb(187,146,84)" stroke-width="1" opacity="1" d="M 21.5 167 L 26 170.5 L 24.5 171 L 21 168.5 L 21.5 167 Z " /><path fill="rgb(187,146,84)" stroke="rgb(187,146,84)" stroke-width="1" opacity="1" d="M 178.5 167 L 179 168.5 L 174.5 171 L 174.5 170 L 178.5 167 Z " /><path fill="rgb(187,146,84)" stroke="rgb(187,146,84)" stroke-width="1" opacity="1" d="M 32.5 168 L 31.5 170 L 28.5 171 L 28.5 170 L 32.5 168 Z " /><path fill="rgb(187,146,84)" stroke="rgb(187,146,84)" stroke-width="1" opacity="1" d="M 167.5 168 L 172 170.5 L 170.5 171 L 167.5 168 Z " /><path fill="rgb(254,185,84)" stroke="rgb(254,185,84)" stroke-width="1" opacity="1" d="M 46.5 25 L 154.5 25 Q 163.4 26.6 167 33.5 L 169 42.5 L 169 87.5 L 166.5 89 L 163 86.5 L 163 71.5 Q 160.8 64.8 155.5 61 L 150.5 58 L 145.5 57 L 112.5 57 Q 104.3 58.8 99.5 64 Q 95.7 58.3 87.5 57 L 54.5 57 Q 44.5 58.5 40 65.5 L 37 71.5 L 37 86.5 L 35.5 88 L 32 89 L 32 37.5 L 38.5 28 L 46.5 25 Z M 46 27 L 45 28 Q 41 27 42 30 L 40 30 L 36 34 L 34 41 L 35 86 L 36 85 L 36 70 L 41 62 Q 43 63 42 61 L 50 56 L 91 56 L 97 58 L 100 62 Q 102 57 109 56 L 150 56 Q 151 59 156 58 L 164 70 L 164 85 L 167 87 L 167 39 L 165 35 Q 162 29 156 27 L 46 27 Z " /><path fill="rgb(254,185,84)" stroke="rgb(254,185,84)" stroke-width="1" opacity="1" d="M 21 161 L 33 161 L 33 167.5 L 26.5 171 L 21 166.5 L 21 161 Z M 23 163 L 24 167 Q 25 170 29 169 L 31 166 L 31 163 L 23 163 Z " /><path fill="rgb(254,185,84)" stroke="rgb(254,185,84)" stroke-width="1" opacity="1" d="M 167 161 L 179 161 L 179 166.5 L 172.5 171 L 167 167.5 L 167 161 Z M 169 163 Q 168 168 172 169 L 176 167 L 178 164 L 169 163 Z " /><path fill="rgb(255,185,84)" stroke="rgb(255,185,84)" stroke-width="1" opacity="1" d="M 45.5 27 L 155.5 27 Q 162.4 28.6 165 34.5 L 167 38.5 L 167 86.5 L 164 84.5 L 164 69.5 L 155.5 58 Q 150.9 58.6 149.5 56 L 108.5 56 Q 102.4 57.4 99.5 62 L 96.5 58 L 90.5 56 L 49.5 56 L 42 60.5 Q 42.8 62.8 40.5 62 L 36 69.5 L 36 84.5 L 34.5 86 L 34 40.5 L 36 33.5 L 39.5 30 L 42 30 Q 40.8 27 44.5 28 L 45.5 27 Z " /><path fill="rgb(255,185,84)" stroke="rgb(255,185,84)" stroke-width="1" opacity="1" d="M 22.5 163 L 30.5 163 L 31 165.5 L 29 169 Q 25.2 169.8 24 166.5 L 22.5 163 Z " /><path fill="rgb(255,185,84)" stroke="rgb(255,185,84)" stroke-width="1" opacity="1" d="M 169 163 L 178 163.5 L 176 167 L 171.5 169 Q 168 167.7 169 163 Z " /><path fill="rgb(1,1,1)" stroke="rgb(1,1,1)" stroke-width="1" opacity="0.9764705882352941" d="M 42.5 19 L 158.5 19 L 169 25.5 Q 173.7 29.3 175 36.5 L 175 96.5 L 181 104.5 L 186 118.5 L 186 166.5 L 180.5 175 Q 177.2 178.2 169.5 177 L 162 171.5 Q 158.8 168.2 160 160.5 L 158.5 159 L 40.5 159 L 40 159.5 L 40 168.5 L 34.5 175 Q 31.2 178.2 23.5 177 L 17 172.5 L 14 166.5 L 14 117.5 Q 17.3 103.8 26 95.5 L 26 34.5 L 34.5 23 L 42.5 19 Z M 50 23 Q 48 26 43 24 L 39 26 L 33 32 L 30 39 L 30 90 L 32 91 L 38 89 L 39 88 L 39 71 L 43 65 Q 47 60 54 59 L 89 59 Q 96 60 100 66 L 108 60 L 112 59 L 147 59 L 155 62 L 161 71 L 161 88 L 170 92 L 170 37 L 166 30 L 159 24 Q 153 26 152 23 L 50 23 Z M 53 64 L 51 65 Q 45 68 43 76 L 43 85 L 46 87 L 49 86 L 97 86 L 98 85 Q 100 73 95 69 L 89 64 L 53 64 Z M 112 64 L 108 66 Q 100 71 102 85 L 104 86 L 152 86 L 153 87 Q 157 87 157 85 Q 158 76 155 71 L 148 64 L 112 64 Z M 49 91 Q 47 93 43 92 L 33 97 Q 23 103 20 116 L 20 133 L 22 134 L 56 134 L 56 138 L 55 139 L 20 139 L 20 154 L 21 154 L 180 154 L 180 140 L 180 139 L 88 139 L 85 136 L 87 134 L 179 134 L 180 133 L 180 116 L 175 105 L 165 95 L 152 91 L 49 91 Z M 20 159 L 21 170 Q 23 173 31 172 Q 36 170 35 161 L 34 159 L 20 159 Z M 167 159 L 165 161 L 166 169 L 171 172 L 178 171 L 180 168 L 180 159 L 167 159 Z " /><path fill="rgb(1,1,1)" stroke="rgb(1,1,1)" stroke-width="1" opacity="0.9764705882352941" d="M 69.5 134 Q 73.3 133.3 74 135.5 L 71.5 139 L 68 136.5 L 69.5 134 Z " /><path fill="rgb(211,217,217)" stroke="rgb(211,217,217)" stroke-width="1" opacity="0.9882352941176471" d="M 51.5 66 L 54 66.5 Q 48.1 67.1 46.5 72 L 47 70.5 L 48.5 68 L 51.5 66 Z " /><path fill="rgb(211,217,217)" stroke="rgb(211,217,217)" stroke-width="1" opacity="0.9882352941176471" d="M 87.5 66 L 90 66.5 L 87.5 67 L 87.5 66 Z " /><path fill="rgb(211,217,217)" stroke="rgb(211,217,217)" stroke-width="1" opacity="0.9882352941176471" d="M 110.5 66 L 113 66.5 L 107 69.5 L 105.5 72 L 106 70.5 L 108.5 67 L 110.5 66 Z " /><path fill="rgb(211,217,217)" stroke="rgb(211,217,217)" stroke-width="1" opacity="0.9882352941176471" d="M 146.5 66 Q 151.3 66.3 153 69.5 L 154 71.5 L 152 70.5 L 150.5 68 L 146.5 67 L 146.5 66 Z " /><path fill="rgb(211,217,217)" stroke="rgb(211,217,217)" stroke-width="1" opacity="0.9882352941176471" d="M 91.5 67 L 95 71.5 L 94 71.5 L 91.5 67 Z " /><path fill="rgb(211,217,217)" stroke="rgb(211,217,217)" stroke-width="1" opacity="0.9882352941176471" d="M 45.5 73 L 46 84 L 94.5 84 L 95 83.5 L 95 73.5 L 96 73.5 L 96 84.5 L 95.5 85 L 45 85 L 45.5 73 Z " /><path fill="rgb(211,217,217)" stroke="rgb(211,217,217)" stroke-width="1" opacity="0.9882352941176471" d="M 104.5 73 L 105 84 L 153.5 84 L 154 83.5 L 154 73.5 L 155 73.5 L 155 84.5 L 154.5 85 L 104 85 L 104.5 73 Z " /><path fill="rgb(233,239,239)" stroke="rgb(233,239,239)" stroke-width="1" opacity="0.9921568627450981" d="M 33.5 20 L 31.5 23 L 33.5 20 Z " /><path fill="rgb(233,239,239)" stroke="rgb(233,239,239)" stroke-width="1" opacity="0.9921568627450981" d="M 54.5 66 L 86.5 66 L 90.5 67 L 94 70.5 L 95 72.5 L 95 84 L 46.5 84 L 46 83.5 L 46 72.5 Q 48.4 67.4 54.5 66 Z " /><path fill="rgb(233,239,239)" stroke="rgb(233,239,239)" stroke-width="1" opacity="0.9921568627450981" d="M 113.5 66 L 145.5 66 L 152 69.5 L 154 72.5 L 154 84 L 105.5 84 L 105 83.5 L 105 72.5 L 108.5 68 L 113.5 66 Z " /><path fill="rgb(39,52,40)" stroke="rgb(39,52,40)" stroke-width="1" opacity="0.9803921568627451" d="M 36.5 21 L 35.5 23 L 36.5 21 Z " /><path fill="rgb(39,52,40)" stroke="rgb(39,52,40)" stroke-width="1" opacity="0.9803921568627451" d="M 49.5 23 L 152 23.5 L 49.5 24 L 49.5 23 Z " /><path fill="rgb(39,52,40)" stroke="rgb(39,52,40)" stroke-width="1" opacity="0.9803921568627451" d="M 42.5 24 L 46 24.5 Q 37.7 25.7 34 31.5 L 33.5 33 L 33 31.5 L 42.5 24 Z " /><path fill="rgb(39,52,40)" stroke="rgb(39,52,40)" stroke-width="1" opacity="0.9803921568627451" d="M 155.5 24 L 160.5 25 L 166 29.5 L 164.5 29 Q 161.7 25.3 155.5 25 L 155.5 24 Z " /><path fill="rgb(39,52,40)" stroke="rgb(39,52,40)" stroke-width="1" opacity="0.9803921568627451" d="M 169.5 26 L 171.5 29 L 169.5 26 Z " /><path fill="rgb(39,52,40)" stroke="rgb(39,52,40)" stroke-width="1" opacity="0.9803921568627451" d="M 166.5 31 L 170 36.5 L 170 92 L 161 87.5 L 161.5 71 L 162 86.5 L 164.5 89 L 169 90 L 169 36.5 L 166.5 31 Z " /><path fill="rgb(39,52,40)" stroke="rgb(39,52,40)" stroke-width="1" opacity="0.9803921568627451" d="M 32.5 34 L 32 35.5 L 31 39.5 L 31 90 L 38 88 L 38.5 71 L 39 87.5 L 31.5 91 L 30 89.5 L 30 38.5 L 32.5 34 Z " /><path fill="rgb(39,52,40)" stroke="rgb(39,52,40)" stroke-width="1" opacity="0.9803921568627451" d="M 25.5 38 L 26 95.5 L 25 95.5 L 25.5 38 Z " /><path fill="rgb(39,52,40)" stroke="rgb(39,52,40)" stroke-width="1" opacity="0.9803921568627451" d="M 53.5 58 L 88 58.5 L 53.5 59 Q 46.8 60.3 43 64.5 L 40.5 68 L 41 66.5 L 44.5 62 L 53.5 58 Z " /><path fill="rgb(39,52,40)" stroke="rgb(39,52,40)" stroke-width="1" opacity="0.9803921568627451" d="M 112.5 58 L 146.5 58 L 154 61.5 L 152.5 61 L 146.5 59 L 112.5 59 L 112.5 58 Z " /><path fill="rgb(39,52,40)" stroke="rgb(39,52,40)" stroke-width="1" opacity="0.9803921568627451" d="M 89.5 59 L 92 59.5 L 89.5 60 L 89.5 59 Z " /><path fill="rgb(39,52,40)" stroke="rgb(39,52,40)" stroke-width="1" opacity="0.9803921568627451" d="M 108.5 59 L 111 59.5 L 108.5 60 L 108.5 59 Z " /><path fill="rgb(39,52,40)" stroke="rgb(39,52,40)" stroke-width="1" opacity="0.9803921568627451" d="M 93.5 60 L 100.5 65 L 106.5 60 L 105.5 62 L 99.5 66 L 93.5 60 Z " /><path fill="rgb(39,52,40)" stroke="rgb(39,52,40)" stroke-width="1" opacity="0.9803921568627451" d="M 155.5 62 L 160 67.5 L 158 66.5 L 155.5 62 Z " /><path fill="rgb(39,52,40)" stroke="rgb(39,52,40)" stroke-width="1" opacity="0.9803921568627451" d="M 52.5 64 L 88.5 64 L 95 68.5 Q 99.7 73.3 98 84.5 L 96 85.5 L 97 84.5 L 97 74.5 L 92.5 67 L 88.5 65 L 52.5 65 L 48.5 68 L 50.5 65 L 52.5 64 Z " /><path fill="rgb(39,52,40)" stroke="rgb(39,52,40)" stroke-width="1" opacity="0.9803921568627451" d="M 111.5 64 L 147.5 64 L 152 67.5 L 149.5 66 L 147.5 65 L 111.5 65 L 106 68.5 L 103.5 73 L 103 71.5 L 107.5 66 L 111.5 64 Z " /><path fill="rgb(39,52,40)" stroke="rgb(39,52,40)" stroke-width="1" opacity="0.9803921568627451" d="M 46.5 69 L 46 70.5 Q 42.7 75.2 44 84.5 L 48 86.5 L 45.5 87 L 43 84.5 L 43 75.5 L 46.5 69 Z " /><path fill="rgb(39,52,40)" stroke="rgb(39,52,40)" stroke-width="1" opacity="0.9803921568627451" d="M 153.5 69 L 156 74.5 L 155 74.5 L 153.5 69 Z " /><path fill="rgb(39,52,40)" stroke="rgb(39,52,40)" stroke-width="1" opacity="0.9803921568627451" d="M 102.5 74 L 103 84.5 L 104 85.5 L 102 84.5 L 102.5 74 Z " /><path fill="rgb(39,52,40)" stroke="rgb(39,52,40)" stroke-width="1" opacity="0.9803921568627451" d="M 156.5 76 L 157 84.5 Q 156.5 87.5 152.5 87 L 152.5 86 L 156 84.5 L 156.5 76 Z " /><path fill="rgb(39,52,40)" stroke="rgb(39,52,40)" stroke-width="1" opacity="0.9803921568627451" d="M 48.5 91 L 151.5 91 L 160 93.5 L 158.5 94 L 151.5 92 L 48.5 92 L 40.5 94 L 40.5 93 L 48.5 91 Z " /><path fill="rgb(39,52,40)" stroke="rgb(39,52,40)" stroke-width="1" opacity="0.9803921568627451" d="M 35.5 95 L 37 95.5 L 26 104.5 L 22.5 111 L 22 109.5 L 32.5 97 L 35.5 95 Z " /><path fill="rgb(39,52,40)" stroke="rgb(39,52,40)" stroke-width="1" opacity="0.9803921568627451" d="M 163.5 95 Q 171 98 175 104.5 L 177 108.5 L 176 108.5 L 167.5 98 Q 162.8 97.2 163.5 95 Z " /><path fill="rgb(39,52,40)" stroke="rgb(39,52,40)" stroke-width="1" opacity="0.9803921568627451" d="M 20.5 115 L 21 118.5 L 20 118.5 L 20.5 115 Z " /><path fill="rgb(39,52,40)" stroke="rgb(39,52,40)" stroke-width="1" opacity="0.9803921568627451" d="M 179.5 115 L 180 118.5 L 179 118.5 L 179.5 115 Z " /><path fill="rgb(39,52,40)" stroke="rgb(39,52,40)" stroke-width="1" opacity="0.9803921568627451" d="M 20.5 132 L 21.5 133 L 55.5 133 L 57 134.5 L 58 136.5 L 55.5 140 L 20 139.5 L 54.5 139 L 56 137.5 L 55.5 134 L 21.5 134 L 20.5 132 Z " /><path fill="rgb(39,52,40)" stroke="rgb(39,52,40)" stroke-width="1" opacity="0.9803921568627451" d="M 179.5 132 L 178.5 134 L 86.5 134 L 85.5 135 L 86.5 133 L 178.5 133 L 179.5 132 Z " /><path fill="rgb(39,52,40)" stroke="rgb(39,52,40)" stroke-width="1" opacity="0.9803921568627451" d="M 69.5 133 Q 73.3 132.3 74 134.5 L 72.5 134 L 68.5 135 L 69.5 133 Z " /><path fill="rgb(39,52,40)" stroke="rgb(39,52,40)" stroke-width="1" opacity="0.9803921568627451" d="M 67.5 136 L 71.5 139 L 74 137.5 L 72.5 140 L 68 139 L 67.5 136 Z " /><path fill="rgb(39,52,40)" stroke="rgb(39,52,40)" stroke-width="1" opacity="0.9803921568627451" d="M 84.5 136 L 87.5 139 L 180 139.5 L 86.5 140 L 84.5 136 Z " /><path fill="rgb(39,52,40)" stroke="rgb(39,52,40)" stroke-width="1" opacity="0.9803921568627451" d="M 20.5 152 L 21.5 153 L 178.5 153 L 180 152.5 L 179.5 154 L 20 154 L 20.5 152 Z " /><path fill="rgb(39,52,40)" stroke="rgb(39,52,40)" stroke-width="1" opacity="0.9803921568627451" d="M 20.5 159 L 33.5 159 L 35 160.5 Q 36.4 169.8 30.5 172 Q 23.3 173.3 21 169.5 L 22.5 170 L 29.5 171 L 33 168.5 L 34 160 L 20.5 160 L 20.5 159 Z " /><path fill="rgb(39,52,40)" stroke="rgb(39,52,40)" stroke-width="1" opacity="0.9803921568627451" d="M 166.5 159 L 180 159.5 L 166 160 Q 164.5 167.2 168.5 170 L 175.5 171 L 178.5 169 L 177.5 171 L 170.5 172 L 166 168.5 L 165 160.5 L 166.5 159 Z " /><path fill="rgb(98,219,201)" stroke="rgb(98,219,201)" stroke-width="1" opacity="1" d="M 58 136 L 66.5 136 L 67 137.5 Q 67.8 140.8 72.5 140 L 75.5 136 Q 84.8 134.3 86.5 140 L 179 140 L 179 152.5 L 178.5 153 L 21 153 L 21 140 L 55.5 140 L 58 136 Z " /><path fill="rgb(0,203,172)" stroke="rgb(0,203,172)" stroke-width="1" opacity="1" d="M 48.5 92 L 151.5 92 L 164.5 96 L 174 104.5 Q 181.6 113.4 180 131.5 L 178.5 133 L 86.5 133 L 85 134.5 L 84 136.5 L 84.5 138 L 83 134.5 L 87.5 131 L 178 131 L 177 112.5 L 167.5 100 L 154.5 94 L 45.5 94 Q 35.8 96.3 30 102.5 L 23 112.5 L 22 131 L 54.5 131 L 59 134.5 Q 59.7 137.1 57 136 L 55.5 133 L 21.5 133 L 20 131.5 L 20 119.5 L 22 111.5 Q 25.3 103.8 31.5 99 L 39.5 94 L 48.5 92 Z " /><path fill="rgb(0,203,172)" stroke="rgb(0,203,172)" stroke-width="1" opacity="1" d="M 69.5 131 L 75 132 L 76 135.5 L 74 136.5 L 72.5 133 Q 68.8 132.3 68 134.5 Q 68.7 137.1 66 136 L 69.5 131 Z " /><path fill="rgb(0,203,172)" stroke="rgb(0,203,172)" stroke-width="1" opacity="1" d="M 20.5 140 L 21 151.5 L 20 151.5 L 20.5 140 Z " /><path fill="rgb(0,203,172)" stroke="rgb(0,203,172)" stroke-width="1" opacity="1" d="M 179.5 140 L 180 151.5 L 179 151.5 L 179.5 140 Z " /><path fill="rgb(0,208,176)" stroke="rgb(0,208,176)" stroke-width="1" opacity="1" d="M 45.5 94 L 154.5 94 Q 165.8 96.8 172 104.5 L 177 112.5 L 178 131 L 87.5 131 L 83 134.5 L 82.5 136 L 76 136 L 75 132 L 69.5 131 L 66 136 L 59.5 136 L 59 134.5 L 54.5 131 L 22 131 L 23 112.5 L 31.5 101 L 45.5 94 Z " /><path fill="rgb(48,48,48)" stroke="rgb(48,48,48)" stroke-width="1" opacity="0.4549019607843137" d="M 41.5 18 L 44 18.5 L 41.5 19 L 41.5 18 Z " /><path fill="rgb(48,48,48)" stroke="rgb(48,48,48)" stroke-width="1" opacity="0.4549019607843137" d="M 156.5 18 L 159 18.5 L 156.5 19 L 156.5 18 Z " /><path fill="rgb(48,48,48)" stroke="rgb(48,48,48)" stroke-width="1" opacity="0.4549019607843137" d="M 160.5 19 L 166 22.5 L 163.5 21 Q 159.8 20.7 160.5 19 Z " /><path fill="rgb(48,48,48)" stroke="rgb(48,48,48)" stroke-width="1" opacity="0.4549019607843137" d="M 35.5 21 L 29 28.5 L 26.5 34 L 26 32.5 Q 29 25 35.5 21 Z " /><path fill="rgb(48,48,48)" stroke="rgb(48,48,48)" stroke-width="1" opacity="0.4549019607843137" d="M 167.5 23 L 171.5 28 L 167.5 23 Z " /><path fill="rgb(48,48,48)" stroke="rgb(48,48,48)" stroke-width="1" opacity="0.4549019607843137" d="M 174.5 33 L 176 35.5 L 176 96.5 L 175 96.5 L 175 35.5 L 174.5 33 Z " /><path fill="rgb(48,48,48)" stroke="rgb(48,48,48)" stroke-width="1" opacity="0.4549019607843137" d="M 24.5 39 L 25 94.5 L 24 94.5 L 24.5 39 Z " /><path fill="rgb(48,48,48)" stroke="rgb(48,48,48)" stroke-width="1" opacity="0.4549019607843137" d="M 24.5 97 L 21.5 101 L 24.5 97 Z " /><path fill="rgb(48,48,48)" stroke="rgb(48,48,48)" stroke-width="1" opacity="0.4549019607843137" d="M 176.5 98 L 178.5 101 L 176.5 98 Z " /><path fill="rgb(48,48,48)" stroke="rgb(48,48,48)" stroke-width="1" opacity="0.4549019607843137" d="M 20.5 102 L 19.5 104 L 20.5 102 Z " /><path fill="rgb(48,48,48)" stroke="rgb(48,48,48)" stroke-width="1" opacity="0.4549019607843137" d="M 179.5 102 Q 184.1 105.4 185 112.5 L 184 112.5 L 179.5 102 Z " /><path fill="rgb(48,48,48)" stroke="rgb(48,48,48)" stroke-width="1" opacity="0.4549019607843137" d="M 18.5 105 L 18 106.5 L 15.5 113 L 15 110.5 L 18.5 105 Z " /><path fill="rgb(48,48,48)" stroke="rgb(48,48,48)" stroke-width="1" opacity="0.4549019607843137" d="M 14.5 114 L 15 116.5 L 14 116.5 L 14.5 114 Z " /><path fill="rgb(48,48,48)" stroke="rgb(48,48,48)" stroke-width="1" opacity="0.4549019607843137" d="M 185.5 114 L 186 117.5 L 185 117.5 L 185.5 114 Z " /><path fill="rgb(48,48,48)" stroke="rgb(48,48,48)" stroke-width="1" opacity="0.4549019607843137" d="M 41.5 159 L 158.5 159 L 160 160.5 L 158.5 160 L 41.5 160 L 40.5 161 L 41.5 159 Z " /><path fill="rgb(48,48,48)" stroke="rgb(48,48,48)" stroke-width="1" opacity="0.4549019607843137" d="M 15.5 170 L 19 174.5 L 16 172.5 L 15.5 170 Z " /><path fill="rgb(48,48,48)" stroke="rgb(48,48,48)" stroke-width="1" opacity="0.4549019607843137" d="M 184.5 170 L 185 171.5 L 181 174.5 L 184.5 170 Z " /><path fill="rgb(48,48,48)" stroke="rgb(48,48,48)" stroke-width="1" opacity="0.4549019607843137" d="M 38.5 171 L 35.5 175 L 38.5 171 Z " /><path fill="rgb(48,48,48)" stroke="rgb(48,48,48)" stroke-width="1" opacity="0.4549019607843137" d="M 162.5 172 L 164.5 175 L 162.5 172 Z " /><path fill="rgb(48,48,48)" stroke="rgb(48,48,48)" stroke-width="1" opacity="0.4549019607843137" d="M 33.5 175 L 31.5 178 L 23.5 178 L 22 176.5 L 23.5 177 Q 30.9 178.4 33.5 175 Z " /><path fill="rgb(48,48,48)" stroke="rgb(48,48,48)" stroke-width="1" opacity="0.4549019607843137" d="M 166.5 175 Q 169.1 178.4 176.5 177 L 178 176.5 L 177.5 178 L 168.5 178 L 166.5 175 Z " /><path fill="rgb(124,124,124)" stroke="rgb(124,124,124)" stroke-width="1" opacity="0.12156862745098039" d="M 38.5 18 L 40 18.5 L 28 28.5 Q 28.8 30.8 26.5 30 L 27 28.5 L 34.5 20 L 38.5 18 Z " /><path fill="rgb(124,124,124)" stroke="rgb(124,124,124)" stroke-width="1" opacity="0.12156862745098039" d="M 165.5 20 L 166.5 22 Q 163.7 22.7 165.5 20 Z " /><path fill="rgb(124,124,124)" stroke="rgb(124,124,124)" stroke-width="1" opacity="0.12156862745098039" d="M 168.5 22 L 174 28.5 L 172 29 L 168 23.5 L 168.5 22 Z " /><path fill="rgb(124,124,124)" stroke="rgb(124,124,124)" stroke-width="1" opacity="0.12156862745098039" d="M 25 31 L 27 31.5 L 25 32.5 L 25 31 Z " /><path fill="rgb(124,124,124)" stroke="rgb(124,124,124)" stroke-width="1" opacity="0.12156862745098039" d="M 23.5 95 L 24 96.5 L 21.5 100 Q 18.5 99.2 20 103 L 18 103 L 20 98 L 23 96.5 L 23.5 95 Z " /><path fill="rgb(124,124,124)" stroke="rgb(124,124,124)" stroke-width="1" opacity="0.12156862745098039" d="M 177.5 97 L 179.5 100 L 177 98.5 L 177.5 97 Z " /><path fill="rgb(124,124,124)" stroke="rgb(124,124,124)" stroke-width="1" opacity="0.12156862745098039" d="M 180.5 101 L 181.5 103 Q 178.7 103.7 180.5 101 Z " /><path fill="rgb(124,124,124)" stroke="rgb(124,124,124)" stroke-width="1" opacity="0.12156862745098039" d="M 15.5 108 L 16 109.5 L 14 110.5 L 15.5 108 Z " /><path fill="rgb(124,124,124)" stroke="rgb(124,124,124)" stroke-width="1" opacity="0.12156862745098039" d="M 184.5 108 L 186 110.5 L 184 109.5 L 184.5 108 Z " /><path fill="rgb(124,124,124)" stroke="rgb(124,124,124)" stroke-width="1" opacity="0.12156862745098039" d="M 185.5 112 L 187 115.5 L 186 115.5 L 185.5 112 Z " /><path fill="rgb(124,124,124)" stroke="rgb(124,124,124)" stroke-width="1" opacity="0.12156862745098039" d="M 185 169 Q 187.7 167.9 187 170.5 L 184 172.5 L 185 169 Z " /><path fill="rgb(124,124,124)" stroke="rgb(124,124,124)" stroke-width="1" opacity="0.12156862745098039" d="M 39 170 Q 41.7 168.9 41 171.5 L 37 174.5 L 37.5 176 L 34.5 177 L 39 171.5 L 39 170 Z " /><path fill="rgb(124,124,124)" stroke="rgb(124,124,124)" stroke-width="1" opacity="0.12156862745098039" d="M 159 170 Q 161.7 168.9 161 171.5 L 165.5 177 L 162 175.5 Q 164.8 173.7 160.5 172 Q 157.9 172.7 159 170 Z " /><path fill="rgb(124,124,124)" stroke="rgb(124,124,124)" stroke-width="1" opacity="0.12156862745098039" d="M 18.5 175 Q 20.8 174.3 20 176.5 L 18.5 175 Z " /><path fill="rgb(124,124,124)" stroke="rgb(124,124,124)" stroke-width="1" opacity="0.12156862745098039" d="M 180 175 Q 183 174 182 177 L 178.5 178 L 178.5 177 Q 181.1 177.7 180 175 Z " /><path fill="rgb(81,81,81)" stroke="rgb(81,81,81)" stroke-width="1" opacity="0.043137254901960784" d="M 25.5 33 L 26 35.5 L 24.5 39 L 24 36.5 L 25.5 33 Z " /><path fill="rgb(81,81,81)" stroke="rgb(81,81,81)" stroke-width="1" opacity="0.043137254901960784" d="M 24.5 95 L 25 96.5 L 23 97.5 L 24.5 95 Z " /><path fill="rgb(81,81,81)" stroke="rgb(81,81,81)" stroke-width="1" opacity="0.043137254901960784" d="M 18.5 103 L 19 104.5 L 17 105.5 L 18.5 103 Z " /><path fill="rgb(81,81,81)" stroke="rgb(81,81,81)" stroke-width="1" opacity="0.043137254901960784" d="M 14.5 111 L 15 113.5 L 13 112.5 L 14.5 111 Z " /><path fill="rgb(81,81,81)" stroke="rgb(81,81,81)" stroke-width="1" opacity="0.043137254901960784" d="M 13.5 115 L 14 168.5 L 16 171.5 L 13 169.5 L 13.5 115 Z " /><path fill="rgb(81,81,81)" stroke="rgb(81,81,81)" stroke-width="1" opacity="0.043137254901960784" d="M 186.5 116 L 187 168.5 L 186 168.5 L 186.5 116 Z " /><path fill="rgb(81,81,81)" stroke="rgb(81,81,81)" stroke-width="1" opacity="0.043137254901960784" d="M 41.5 160 L 158.5 160 L 160 161.5 L 159.5 170 L 159 161 L 41.5 161 L 41 161.5 L 41 169.5 L 40 169.5 L 40 161.5 L 41.5 160 Z " /><path fill="rgb(81,81,81)" stroke="rgb(81,81,81)" stroke-width="1" opacity="0.043137254901960784" d="M 16.5 173 L 17.5 175 L 16.5 173 Z " /><path fill="rgb(81,81,81)" stroke="rgb(81,81,81)" stroke-width="1" opacity="0.043137254901960784" d="M 183.5 173 L 183 174.5 L 182.5 176 L 182 174.5 L 183.5 173 Z " /><path fill="rgb(81,81,81)" stroke="rgb(81,81,81)" stroke-width="1" opacity="0.043137254901960784" d="M 34.5 175 L 34 176.5 Q 34.8 178.8 32.5 178 L 34.5 175 Z " /><path fill="rgb(81,81,81)" stroke="rgb(81,81,81)" stroke-width="1" opacity="0.043137254901960784" d="M 165.5 175 L 167.5 178 Q 165.8 174.9 164 176.5 L 165.5 175 Z " /><path fill="rgb(81,81,81)" stroke="rgb(81,81,81)" stroke-width="1" opacity="0.043137254901960784" d="M 20.5 176 L 23 177.5 L 21.5 177 L 20.5 176 Z " /><path fill="rgb(0,0,0)" stroke="rgb(0,0,0)" stroke-width="1" opacity="0" d="M 0 0 L 200 0 L 200 200 L 0 200 L 0 0 Z M 39 18 L 34 20 L 26 29 L 24 37 L 24 95 L 23 97 L 20 98 L 13 113 L 13 170 L 18 177 L 22 178 Q 33 180 38 176 L 41 172 L 41 161 L 159 161 L 159 162 L 159 172 L 161 172 L 162 176 L 168 178 L 180 178 L 182 177 L 187 171 L 187 113 L 180 101 Q 181 97 179 98 L 176 96 L 176 33 L 173 27 L 162 18 Q 157 17 156 19 L 45 19 Q 43 17 39 18 Z " /></svg>