<svg width="200" height="200" version="1.1" xmlns="http://www.w3.org/2000/svg" desc="Created with imagetracer.js version 1.2.6" ><path fill="rgb(240,162,30)" stroke="rgb(240,162,30)" stroke-width="1" opacity="0.8823529411764706" d="M 71.5 6 L 111.5 6 L 112.5 7 L 124.5 7 L 132 9.5 L 129.5 10 L 124.5 8 L 112.5 8 L 111.5 7 L 71.5 7 L 66.5 8 L 62 11.5 Q 58.4 13.4 59 19.5 L 56.5 22 L 52.5 22 L 40.5 27 L 26 40.5 L 19.5 56 L 19 52.5 Q 24.7 36.7 37.5 28 L 46.5 23 L 56.5 21 L 58 19.5 Q 58.8 11.3 64.5 8 L 71.5 6 Z " /><path fill="rgb(240,162,30)" stroke="rgb(240,162,30)" stroke-width="1" opacity="0.8823529411764706" d="M 133.5 10 L 143 14.5 L 141.5 15 L 134.5 12 L 133.5 10 Z " /><path fill="rgb(240,162,30)" stroke="rgb(240,162,30)" stroke-width="1" opacity="0.8823529411764706" d="M 146.5 16 L 164 31.5 L 167 35.5 L 163 32.5 L 153.5 22 Q 148 19.9 146.5 16 Z " /><path fill="rgb(240,162,30)" stroke="rgb(240,162,30)" stroke-width="1" opacity="0.8823529411764706" d="M 167.5 37 L 174 48.5 L 178 62.5 L 178 95.5 L 177 95.5 L 176 59.5 L 173 48.5 Q 167.7 43.5 167.5 37 Z " /><path fill="rgb(240,162,30)" stroke="rgb(240,162,30)" stroke-width="1" opacity="0.8823529411764706" d="M 18.5 57 L 19 65.5 L 18 66.5 L 17.5 96 L 17 66.5 L 18 65.5 L 18.5 57 Z " /><path fill="rgb(240,162,30)" stroke="rgb(240,162,30)" stroke-width="1" opacity="0.8823529411764706" d="M 16.5 99 L 17 100.5 L 15 101.5 L 16.5 99 Z " /><path fill="rgb(240,162,30)" stroke="rgb(240,162,30)" stroke-width="1" opacity="0.8823529411764706" d="M 181.5 104 L 182 106.5 L 181 106.5 L 181.5 104 Z " /><path fill="rgb(240,162,30)" stroke="rgb(240,162,30)" stroke-width="1" opacity="0.8823529411764706" d="M 12.5 108 L 13 115.5 L 12 115.5 L 12.5 108 Z " /><path fill="rgb(240,162,30)" stroke="rgb(240,162,30)" stroke-width="1" opacity="0.8823529411764706" d="M 182.5 108 L 183 114.5 L 182 114.5 L 182.5 108 Z " /><path fill="rgb(240,162,30)" stroke="rgb(240,162,30)" stroke-width="1" opacity="0.8823529411764706" d="M 15.5 122 L 16.5 124 L 15.5 122 Z " /><path fill="rgb(240,162,30)" stroke="rgb(240,162,30)" stroke-width="1" opacity="0.8823529411764706" d="M 17.5 125 L 20.5 129 L 17.5 125 Z " /><path fill="rgb(240,162,30)" stroke="rgb(240,162,30)" stroke-width="1" opacity="0.8823529411764706" d="M 177.5 125 L 176.5 127 L 177.5 125 Z " /><path fill="rgb(240,162,30)" stroke="rgb(240,162,30)" stroke-width="1" opacity="0.8823529411764706" d="M 22.5 129 L 23.5 131 L 22.5 129 Z " /><path fill="rgb(240,162,30)" stroke="rgb(240,162,30)" stroke-width="1" opacity="0.8823529411764706" d="M 170.5 130 L 172 130.5 L 168.5 132 L 168.5 131 L 170.5 130 Z " /><path fill="rgb(240,162,30)" stroke="rgb(240,162,30)" stroke-width="1" opacity="0.8823529411764706" d="M 162.5 145 L 191 164.5 L 192 170.5 L 168.5 192 L 161.5 194 L 156 192 L 153 184.5 L 154 184.5 Q 154.5 190.1 158.5 192 L 164.5 193 L 168.5 191 L 190 170.5 Q 191.5 164.5 188.5 163 Q 172.8 155.3 162.5 145 Z " /><path fill="rgb(240,162,30)" stroke="rgb(240,162,30)" stroke-width="1" opacity="0.8823529411764706" d="M 31.5 146 L 29.5 149 L 6 164.5 L 5 170.5 L 13.5 179 L 17 180 L 20.5 185 L 29.5 192 L 33.5 193 L 37.5 192 L 40 189.5 Q 41.8 179.3 46.5 172 L 47 173.5 L 41 189.5 L 37.5 193 L 31.5 194 L 22.5 188 L 4 170.5 Q 2.8 163.3 7.5 162 L 31.5 146 Z " /><path fill="rgb(240,162,30)" stroke="rgb(240,162,30)" stroke-width="1" opacity="0.8823529411764706" d="M 148.5 172 Q 152.1 173.9 152 179.5 L 151 179.5 L 148.5 172 Z " /><path fill="rgb(241,161,29)" stroke="rgb(241,161,29)" stroke-width="1" opacity="0.996078431372549" d="M 111.5 7 L 112.5 8 L 124.5 8 L 132.5 10 L 136 12.5 L 134.5 13 L 123.5 9 L 112.5 9 L 111.5 7 Z " /><path fill="rgb(241,161,29)" stroke="rgb(241,161,29)" stroke-width="1" opacity="0.996078431372549" d="M 66.5 8 L 71 8.5 Q 64.9 8.4 62.5 12 L 64.5 9 L 66.5 8 Z " /><path fill="rgb(241,161,29)" stroke="rgb(241,161,29)" stroke-width="1" opacity="0.996078431372549" d="M 61.5 13 L 62 14.5 L 60 19.5 L 56.5 23 L 44.5 26 L 44.5 25 L 52.5 22 L 56.5 22 L 59 19.5 Q 58.4 14.4 61.5 13 Z " /><path fill="rgb(241,161,29)" stroke="rgb(241,161,29)" stroke-width="1" opacity="0.996078431372549" d="M 140.5 14 L 148 18.5 L 146.5 19 L 141.5 16 L 140.5 14 Z " /><path fill="rgb(241,161,29)" stroke="rgb(241,161,29)" stroke-width="1" opacity="0.996078431372549" d="M 149.5 19 L 163 31.5 L 161.5 31 Q 159.3 31.8 160 29.5 L 149.5 19 Z " /><path fill="rgb(241,161,29)" stroke="rgb(241,161,29)" stroke-width="1" opacity="0.996078431372549" d="M 40.5 27 L 41 28.5 L 34 33.5 L 32.5 36 L 27 40.5 L 24.5 46 L 24 44.5 L 26 40.5 L 37.5 29 L 40.5 27 Z " /><path fill="rgb(241,161,29)" stroke="rgb(241,161,29)" stroke-width="1" opacity="0.996078431372549" d="M 163.5 33 Q 167.5 34.9 168 40.5 L 167 40.5 L 163.5 33 Z " /><path fill="rgb(241,161,29)" stroke="rgb(241,161,29)" stroke-width="1" opacity="0.996078431372549" d="M 170.5 45 L 173 48.5 L 176 59.5 L 174 60 L 174 55.5 L 170.5 45 Z " /><path fill="rgb(241,161,29)" stroke="rgb(241,161,29)" stroke-width="1" opacity="0.996078431372549" d="M 22.5 49 L 22 50.5 L 19 66.5 L 19 92.5 L 21 93.5 Q 20.3 90.9 23 92 L 23 90 L 25.5 90 L 28 89 L 29 92.5 L 30 132 Q 20.9 131.6 17 124.5 Q 11 119.5 13 106.5 L 18 97.5 L 18 66.5 L 19 65.5 L 20 52.5 L 22.5 49 Z " /><path fill="rgb(241,161,29)" stroke="rgb(241,161,29)" stroke-width="1" opacity="0.996078431372549" d="M 169.5 90 L 170.5 93 Q 176.6 94.4 179 99.5 Q 183.2 105.3 182 116.5 Q 180.3 124.8 174.5 129 L 165 132 L 165 118.5 L 166 117.5 L 166 92.5 L 167.5 91 L 169.5 90 Z " /><path fill="rgb(241,161,29)" stroke="rgb(241,161,29)" stroke-width="1" opacity="0.996078431372549" d="M 89.5 127 L 105.5 127 L 108 128 L 109 133.5 L 104.5 139 L 96.5 141 L 87 135.5 L 86 130.5 L 87 128 L 89.5 127 Z " /><path fill="rgb(241,161,29)" stroke="rgb(241,161,29)" stroke-width="1" opacity="0.996078431372549" d="M 32.5 146 L 32 147.5 Q 32.8 149.8 30.5 149 L 24.5 153 L 26.5 150 L 32.5 146 Z " /><path fill="rgb(241,161,29)" stroke="rgb(241,161,29)" stroke-width="1" opacity="0.996078431372549" d="M 162.5 146 L 170 151.5 L 168.5 151 L 165 150 Q 166.1 147.3 163.5 148 L 162.5 146 Z " /><path fill="rgb(241,161,29)" stroke="rgb(241,161,29)" stroke-width="1" opacity="0.996078431372549" d="M 171.5 152 L 182 159.5 L 180.5 159 Q 173.4 156.7 171.5 152 Z " /><path fill="rgb(241,161,29)" stroke="rgb(241,161,29)" stroke-width="1" opacity="0.996078431372549" d="M 20.5 154 L 21 155.5 L 13 160.5 Q 13.8 163.1 10.5 162 L 7 164 L 6 170.5 L 12 175.5 L 13.5 178 L 16 179.5 L 14.5 179 L 5 170.5 Q 4.2 164.7 7.5 163 L 20.5 154 Z " /><path fill="rgb(241,161,29)" stroke="rgb(241,161,29)" stroke-width="1" opacity="0.996078431372549" d="M 183.5 160 L 190 164.5 L 188.5 164 L 183 162 L 183.5 160 Z " /><path fill="rgb(241,161,29)" stroke="rgb(241,161,29)" stroke-width="1" opacity="0.996078431372549" d="M 45 171 L 47 171.5 L 43.5 179 L 43 177.5 L 45 171 Z " /><path fill="rgb(241,161,29)" stroke="rgb(241,161,29)" stroke-width="1" opacity="0.996078431372549" d="M 148.5 171 L 152 173 L 155 186.5 L 159 191.5 L 155 188.5 L 151 174.5 L 148.5 171 Z " /><path fill="rgb(241,161,29)" stroke="rgb(241,161,29)" stroke-width="1" opacity="0.996078431372549" d="M 187.5 172 L 182.5 178 L 187.5 172 Z " /><path fill="rgb(241,161,29)" stroke="rgb(241,161,29)" stroke-width="1" opacity="0.996078431372549" d="M 180.5 179 L 178.5 182 L 166.5 192 L 166 190 L 168.5 190 L 173 185.5 Q 172.3 183.3 174.5 184 L 180.5 179 Z " /><path fill="rgb(241,161,29)" stroke="rgb(241,161,29)" stroke-width="1" opacity="0.996078431372549" d="M 17.5 180 L 21 184.5 L 17 181.5 L 17.5 180 Z " /><path fill="rgb(241,161,29)" stroke="rgb(241,161,29)" stroke-width="1" opacity="0.996078431372549" d="M 40 183 L 42 183.5 L 40 189.5 L 37.5 192 L 33.5 193 L 33 191 Q 37.7 192 39 188.5 L 40 183 Z " /><path fill="rgb(241,161,29)" stroke="rgb(241,161,29)" stroke-width="1" opacity="0.996078431372549" d="M 24.5 187 L 32 192.5 L 30.5 192 Q 25.5 190.5 24.5 187 Z " /><path fill="rgb(241,161,30)" stroke="rgb(241,161,30)" stroke-width="1" opacity="1" d="M 71 7 L 110.5 7 L 112.5 9 L 128.5 10 L 134.5 13 L 137.5 13 L 148.5 19 L 160 29.5 Q 159.3 31.8 161.5 31 L 167 41 Q 170 39.8 169 43.5 L 172 48.5 L 174 60 L 176 60.5 L 176 70.5 L 177 71.5 L 177 95 Q 170.5 94.2 166.5 90 L 156.5 90 Q 149.7 82.8 138.5 80 L 108.5 80 L 94.5 76 Q 78.7 69.3 69 56.5 L 63 45 Q 60 43.8 61 47.5 Q 53.2 69.2 36.5 82 L 34 83.5 L 30.5 90 Q 28.3 89.3 29 91.5 L 28 91.5 Q 29.1 88.2 26.5 89 L 23 90 L 23 92 Q 20.3 90.9 21 93.5 L 19 94.5 L 19 92.5 L 19 66.5 L 20 65.5 L 21 52.5 L 27 40.5 L 31.5 36 L 34 34.5 L 37.5 30 L 41 28.5 Q 40.3 26.3 42.5 27 Q 47.9 23.4 56.5 23 L 60 19.5 L 62 12.5 L 64.5 10 L 71 9 L 71 7 Z " /><path fill="rgb(241,161,30)" stroke="rgb(241,161,30)" stroke-width="1" opacity="1" d="M 65.5 85 L 73.5 86 L 75 87.5 L 76 90.5 L 73.5 93 L 63.5 93 L 53.5 95 Q 51 94 52 89.5 L 55.5 87 L 65.5 85 Z " /><path fill="rgb(241,161,30)" stroke="rgb(241,161,30)" stroke-width="1" opacity="1" d="M 126.5 85 L 139.5 87 L 144 90.5 Q 144.5 94.5 141.5 95 L 125.5 93 L 123.5 94 L 120 91.5 Q 118.1 86.1 121.5 87 L 126.5 85 Z " /><path fill="rgb(241,161,30)" stroke="rgb(241,161,30)" stroke-width="1" opacity="1" d="M 119.5 107 L 116.5 111 L 119.5 107 Z " /><path fill="rgb(241,161,30)" stroke="rgb(241,161,30)" stroke-width="1" opacity="1" d="M 134.5 107 L 135.5 109 L 134.5 107 Z " /><path fill="rgb(241,161,30)" stroke="rgb(241,161,30)" stroke-width="1" opacity="1" d="M 137.5 110 L 138.5 112 L 137.5 110 Z " /><path fill="rgb(241,161,30)" stroke="rgb(241,161,30)" stroke-width="1" opacity="1" d="M 81.5 117 L 82 119.5 L 81 119.5 L 81.5 117 Z " /><path fill="rgb(241,161,30)" stroke="rgb(241,161,30)" stroke-width="1" opacity="1" d="M 90.5 138 L 93 139.5 L 91.5 140 L 90.5 138 Z " /><path fill="rgb(241,161,30)" stroke="rgb(241,161,30)" stroke-width="1" opacity="1" d="M 75.5 144 L 78 144.5 L 74.5 146 L 75.5 144 Z " /><path fill="rgb(241,161,30)" stroke="rgb(241,161,30)" stroke-width="1" opacity="1" d="M 118.5 144 L 122 146.5 L 121.5 148 L 119.5 145 L 118.5 144 Z " /><path fill="rgb(241,161,30)" stroke="rgb(241,161,30)" stroke-width="1" opacity="1" d="M 115.5 145 L 117 145.5 Q 113.3 148.8 106.5 149 L 106.5 148 L 115.5 145 Z " /><path fill="rgb(241,161,30)" stroke="rgb(241,161,30)" stroke-width="1" opacity="1" d="M 81.5 146 L 89 148.5 L 86.5 149 L 81.5 147 L 81.5 146 Z " /><path fill="rgb(241,161,30)" stroke="rgb(241,161,30)" stroke-width="1" opacity="1" d="M 32 147 Q 35 145.8 34 149.5 Q 38.1 161.9 46 170.5 L 42 183 Q 38.7 181.7 40 186.5 L 36.5 191 Q 32.1 189.5 33 192.5 L 30.5 191 L 21 184.5 L 17.5 180 L 12 176.5 L 10.5 174 L 6 170.5 L 7 164 L 13 162 L 14.5 159 L 21 155.5 Q 20.3 153.3 22.5 154 L 32 149 L 32 147 Z " /><path fill="rgb(241,161,30)" stroke="rgb(241,161,30)" stroke-width="1" opacity="1" d="M 162.5 147 L 165 148 Q 163.9 150.7 166.5 150 L 183 160 Q 181.9 162.7 184.5 162 L 190 165.5 L 189 172 L 182 177.5 Q 182.8 179.8 180.5 179 L 173 184 L 168.5 190 L 166 190 Q 167.1 192.7 164.5 192 L 162.5 193 L 156 188.5 L 152 173 L 149 171.5 Q 157.5 161 162.5 147 Z " /><path fill="rgb(241,161,30)" stroke="rgb(241,161,30)" stroke-width="1" opacity="1" d="M 74.5 148 L 80 154.5 L 76 151.5 L 74.5 148 Z " /><path fill="rgb(241,161,30)" stroke="rgb(241,161,30)" stroke-width="1" opacity="1" d="M 92.5 149 L 103 149.5 L 92.5 150 L 92.5 149 Z " /><path fill="rgb(241,161,30)" stroke="rgb(241,161,30)" stroke-width="1" opacity="1" d="M 120.5 149 L 118 152.5 Q 118.8 154.8 116.5 154 L 114 155.5 L 120.5 149 Z " /><path fill="rgb(241,161,30)" stroke="rgb(241,161,30)" stroke-width="1" opacity="1" d="M 81.5 155 Q 85.8 159.7 94 160.5 L 90.5 161 Q 83.1 159.6 81.5 155 Z " /><path fill="rgb(241,161,30)" stroke="rgb(241,161,30)" stroke-width="1" opacity="1" d="M 112.5 156 L 111.5 158 L 106.5 160 L 106.5 159 L 112.5 156 Z " /><path fill="rgb(241,161,30)" stroke="rgb(241,161,30)" stroke-width="1" opacity="1" d="M 101.5 160 L 105 160.5 L 101.5 161 L 101.5 160 Z " /><path fill="rgb(250,237,207)" stroke="rgb(250,237,207)" stroke-width="1" opacity="0.996078431372549" d="M 61.5 101 Q 76.4 100.1 82 108.5 Q 85.7 112.3 86 119.5 Q 84.8 122.8 81 122 L 82 117.5 Q 80.6 109.4 74.5 106 L 65.5 105 Q 58.6 106.6 56 112.5 L 55 122 L 47.5 122 L 45 119.5 L 46 112.5 L 53.5 104 L 61.5 101 Z " /><path fill="rgb(250,237,207)" stroke="rgb(250,237,207)" stroke-width="1" opacity="0.996078431372549" d="M 125.5 101 Q 142.7 99.8 148 110.5 L 151 118.5 L 150 121 Q 146.9 123 140 122 Q 142.1 110.3 134.5 107 Q 131.2 103.8 123.5 105 L 116 110.5 Q 112.7 114.4 114 122 Q 110.2 122.8 109 119.5 Q 110.6 108.6 118.5 104 L 125.5 101 Z " /><path fill="rgb(250,237,207)" stroke="rgb(250,237,207)" stroke-width="1" opacity="0.996078431372549" d="M 62 111 L 66 112.5 Q 67.2 117.1 62 115 L 62 111 Z " /><path fill="rgb(250,237,207)" stroke="rgb(250,237,207)" stroke-width="1" opacity="0.996078431372549" d="M 121 111 L 125 112.5 L 123.5 115 Q 118.9 116.2 121 111 Z " /><path fill="rgb(254,199,60)" stroke="rgb(254,199,60)" stroke-width="1" opacity="0.996078431372549" d="M 61 45 Q 63.7 43.9 63 46.5 Q 69.3 59.7 80.5 68 L 94.5 76 L 108 79.5 L 102.5 80 L 90.5 76 L 73 64 L 62.5 48 L 60 55.5 L 56 60.5 L 53 68 Q 50.3 66.9 51 69.5 L 45.5 76 L 35 85.5 L 33 91 L 30 91.5 L 30 103.5 L 31 104.5 L 31 116.5 L 32 117.5 L 32 132.5 L 34 138.5 L 35 148.5 L 43 164.5 L 50.5 173 L 55 176.5 L 57.5 180 L 59.5 180 L 67 185.5 L 66.5 187 Q 64.6 183.4 59.5 183 L 50 174.5 Q 50.8 172.3 48.5 173 L 40 162.5 L 32 144.5 L 33 140.5 L 29.5 133 L 27 132.5 L 30 132 L 29 90 L 32 88.5 L 35.5 82 L 48 70.5 Q 57.9 60.6 61 45 Z " /><path fill="rgb(254,199,60)" stroke="rgb(254,199,60)" stroke-width="1" opacity="0.996078431372549" d="M 109.5 80 L 138.5 80 Q 149.7 82.8 156.5 90 L 167 90 L 166 92.5 L 166 117.5 L 165 118.5 L 165 132 L 168 132.5 L 164 134.5 L 162 138.5 L 163 141.5 Q 157.3 167.8 138.5 181 L 124.5 189 L 110.5 193 L 108.5 193 L 105.5 194 L 90.5 194 L 79.5 192 L 77.5 190 L 75.5 191 L 68 186.5 L 69.5 186 Q 76.4 191.1 88.5 191 L 90.5 193 L 105 193 Q 103.6 189 110.5 191 L 127 186 Q 125.8 183 129.5 184 L 139 178.5 L 140.5 176 L 146 171.5 Q 145.3 169.3 147.5 170 L 156 158.5 L 160 147.5 L 161 137.5 L 163 135.5 Q 161.5 130 164 128.5 L 164 97.5 L 165 92 L 155.5 91 Q 149.6 84.4 139.5 82 L 110.5 82 L 109.5 80 Z " /><path fill="rgb(254,199,60)" stroke="rgb(254,199,60)" stroke-width="1" opacity="0.996078431372549" d="M 62.5 84 Q 71.8 83 76 86 L 75.5 89 L 73.5 86 L 65.5 85 L 60.5 86 L 60.5 85 L 62.5 84 Z " /><path fill="rgb(254,199,60)" stroke="rgb(254,199,60)" stroke-width="1" opacity="0.996078431372549" d="M 123.5 84 Q 131.2 82.8 135 85.5 L 130.5 86 L 126.5 85 L 120 87 Q 118.8 91.6 121.5 93 L 124.5 94 Q 125.7 91.7 130.5 93 L 141.5 95 Q 144.5 94.5 144 90.5 Q 141.7 86.8 136 86.5 L 140.5 86 L 145 89.5 Q 145.6 94.6 142.5 96 L 123.5 95 L 119 93 L 119 86 L 121.5 86 L 123.5 84 Z " /><path fill="rgb(254,199,60)" stroke="rgb(254,199,60)" stroke-width="1" opacity="0.996078431372549" d="M 55.5 86 L 59 86.5 L 52 89.5 Q 51 94 53.5 95 L 63.5 93 L 73.5 93 L 75.5 91 L 76 92.5 L 73.5 95 L 53.5 96 Q 49.8 94.8 51 88.5 L 55.5 86 Z " /><path fill="rgb(254,199,60)" stroke="rgb(254,199,60)" stroke-width="1" opacity="0.996078431372549" d="M 174.5 94 L 179 97.5 L 180 99.5 L 177 97.5 Q 177.8 95.3 175.5 96 L 174.5 94 Z " /><path fill="rgb(254,199,60)" stroke="rgb(254,199,60)" stroke-width="1" opacity="0.996078431372549" d="M 17.5 96 L 18 97.5 L 16 98.5 L 17.5 96 Z " /><path fill="rgb(254,199,60)" stroke="rgb(254,199,60)" stroke-width="1" opacity="0.996078431372549" d="M 15.5 100 L 15 101.5 L 13.5 104 L 14 102.5 L 15.5 100 Z " /><path fill="rgb(254,199,60)" stroke="rgb(254,199,60)" stroke-width="1" opacity="0.996078431372549" d="M 55.5 122 L 82 122.5 L 55.5 123 L 55.5 122 Z " /><path fill="rgb(254,199,60)" stroke="rgb(254,199,60)" stroke-width="1" opacity="0.996078431372549" d="M 114.5 122 L 141 122.5 L 114.5 123 L 114.5 122 Z " /><path fill="rgb(254,199,60)" stroke="rgb(254,199,60)" stroke-width="1" opacity="0.996078431372549" d="M 15.5 123 L 16.5 125 L 15.5 123 Z " /><path fill="rgb(254,199,60)" stroke="rgb(254,199,60)" stroke-width="1" opacity="0.996078431372549" d="M 178.5 124 L 179 125.5 L 174 129.5 L 178.5 124 Z " /><path fill="rgb(254,199,60)" stroke="rgb(254,199,60)" stroke-width="1" opacity="0.996078431372549" d="M 87.5 126 L 107.5 126 L 110 128.5 L 109.5 131 L 106.5 127 L 88.5 127 L 86 129.5 L 86 134.5 L 91.5 140 L 100.5 141 L 103 140 L 102.5 142 L 93.5 142 L 85 135.5 L 84 130.5 L 87.5 126 Z " /><path fill="rgb(254,199,60)" stroke="rgb(254,199,60)" stroke-width="1" opacity="0.996078431372549" d="M 109.5 133 L 110 135.5 L 107.5 139 L 104.5 140 L 109 134.5 L 109.5 133 Z " /><path fill="rgb(254,199,60)" stroke="rgb(254,199,60)" stroke-width="1" opacity="0.996078431372549" d="M 73 143 Q 79.5 141.8 82 145.5 L 80.5 146 L 75.5 144 Q 73.3 144.8 74 148.5 L 79.5 155 L 87 159.5 L 85.5 160 L 73 149.5 L 73 143 Z " /><path fill="rgb(254,199,60)" stroke="rgb(254,199,60)" stroke-width="1" opacity="0.996078431372549" d="M 116.5 143 Q 121 142 122 144.5 L 121.5 146 L 118.5 144 L 113 146 Q 111.8 143 115.5 144 L 116.5 143 Z " /><path fill="rgb(254,199,60)" stroke="rgb(254,199,60)" stroke-width="1" opacity="0.996078431372549" d="M 86.5 147 L 89.5 148 L 105.5 148 L 108.5 147 L 108.5 148 L 105.5 149 L 89.5 149 L 86.5 148 L 86.5 147 Z " /><path fill="rgb(254,199,60)" stroke="rgb(254,199,60)" stroke-width="1" opacity="0.996078431372549" d="M 121.5 148 L 122 150.5 Q 117.6 157.6 108.5 160 L 108.5 159 L 118 154 L 121.5 148 Z " /><path fill="rgb(254,199,60)" stroke="rgb(254,199,60)" stroke-width="1" opacity="0.996078431372549" d="M 89.5 160 L 90.5 161 L 104.5 161 L 107 160 Q 108.1 163.5 100.5 162 L 96.5 163 Q 95.3 160.8 90.5 162 L 89.5 160 Z " /><path fill="rgb(230,178,71)" stroke="rgb(230,178,71)" stroke-width="1" opacity="0.4392156862745098" d="M 70.5 4 L 110.5 4 L 114.5 6 L 124.5 6 L 130 7 L 129.5 9 L 124.5 7 L 112.5 7 L 111.5 6 L 71.5 6 L 63.5 8 L 63.5 7 L 71 5.5 L 70.5 4 Z " /><path fill="rgb(230,178,71)" stroke="rgb(230,178,71)" stroke-width="1" opacity="0.4392156862745098" d="M 131.5 8 Q 133.8 7.3 133 9.5 L 131.5 8 Z " /><path fill="rgb(230,178,71)" stroke="rgb(230,178,71)" stroke-width="1" opacity="0.4392156862745098" d="M 62.5 9 L 60 12.5 L 56.5 21 L 52.5 21 L 45.5 24 L 45 22.5 Q 49.2 18.9 57 20 Q 55.8 13.5 59.5 11 L 62.5 9 Z " /><path fill="rgb(230,178,71)" stroke="rgb(230,178,71)" stroke-width="1" opacity="0.4392156862745098" d="M 134.5 9 L 144 14.5 L 142.5 14 L 135.5 11 L 134.5 9 Z " /><path fill="rgb(230,178,71)" stroke="rgb(230,178,71)" stroke-width="1" opacity="0.4392156862745098" d="M 147.5 16 L 148.5 18 L 147.5 16 Z " /><path fill="rgb(230,178,71)" stroke="rgb(230,178,71)" stroke-width="1" opacity="0.4392156862745098" d="M 150.5 18 Q 152.3 21.1 154 19.5 Q 154.8 21.8 152.5 21 L 150.5 18 Z " /><path fill="rgb(230,178,71)" stroke="rgb(230,178,71)" stroke-width="1" opacity="0.4392156862745098" d="M 155.5 22 L 166 33.5 L 164 32.5 L 155.5 22 Z " /><path fill="rgb(230,178,71)" stroke="rgb(230,178,71)" stroke-width="1" opacity="0.4392156862745098" d="M 42.5 23 L 43.5 25 Q 32.4 29.4 26.5 39 L 27 37.5 L 27 35.5 L 32.5 30 L 36 28.5 L 37.5 26 L 42 25 L 42.5 23 Z " /><path fill="rgb(230,178,71)" stroke="rgb(230,178,71)" stroke-width="1" opacity="0.4392156862745098" d="M 24.5 40 L 25 41.5 L 19.5 50 L 19 48.5 Q 22.1 46.8 20.5 45 L 23 43.5 L 22.5 42 Q 25 42.7 24.5 40 Z " /><path fill="rgb(230,178,71)" stroke="rgb(230,178,71)" stroke-width="1" opacity="0.4392156862745098" d="M 173.5 47 Q 177 51 177 58.5 L 176 58.5 L 173.5 47 Z " /><path fill="rgb(230,178,71)" stroke="rgb(230,178,71)" stroke-width="1" opacity="0.4392156862745098" d="M 18 51 L 20 51.5 L 17 66.5 L 16.5 97 L 16 64.5 L 17 63.5 Q 16.1 55.1 18 51 Z " /><path fill="rgb(230,178,71)" stroke="rgb(230,178,71)" stroke-width="1" opacity="0.4392156862745098" d="M 177 60 L 179 60.5 L 179 69.5 L 180 70.5 L 180 95.5 L 178 96.5 L 178 62.5 L 177 60 Z " /><path fill="rgb(230,178,71)" stroke="rgb(230,178,71)" stroke-width="1" opacity="0.4392156862745098" d="M 182.5 104 L 183 106.5 L 182 106.5 L 182.5 104 Z " /><path fill="rgb(230,178,71)" stroke="rgb(230,178,71)" stroke-width="1" opacity="0.4392156862745098" d="M 11.5 106 L 12 116.5 L 11 116.5 L 11.5 106 Z " /><path fill="rgb(230,178,71)" stroke="rgb(230,178,71)" stroke-width="1" opacity="0.4392156862745098" d="M 183.5 108 L 184 115.5 L 183 115.5 L 183.5 108 Z " /><path fill="rgb(230,178,71)" stroke="rgb(230,178,71)" stroke-width="1" opacity="0.4392156862745098" d="M 182.5 117 L 183 119.5 L 182 119.5 L 182.5 117 Z " /><path fill="rgb(230,178,71)" stroke="rgb(230,178,71)" stroke-width="1" opacity="0.4392156862745098" d="M 17.5 126 L 19.5 129 L 17.5 126 Z " /><path fill="rgb(230,178,71)" stroke="rgb(230,178,71)" stroke-width="1" opacity="0.4392156862745098" d="M 163.5 138 L 164 140.5 L 163 140.5 L 163.5 138 Z " /><path fill="rgb(230,178,71)" stroke="rgb(230,178,71)" stroke-width="1" opacity="0.4392156862745098" d="M 162.5 144 L 165 145.5 L 163.5 146 L 162.5 144 Z " /><path fill="rgb(230,178,71)" stroke="rgb(230,178,71)" stroke-width="1" opacity="0.4392156862745098" d="M 31.5 145 L 29.5 148 L 27.5 149 L 27 147 Q 30.4 147.8 31.5 145 Z " /><path fill="rgb(230,178,71)" stroke="rgb(230,178,71)" stroke-width="1" opacity="0.4392156862745098" d="M 170.5 148 L 173.5 152 L 179 154 L 178.5 156 L 171 150.5 L 170.5 149 L 169 149.5 L 170.5 148 Z " /><path fill="rgb(230,178,71)" stroke="rgb(230,178,71)" stroke-width="1" opacity="0.4392156862745098" d="M 22.5 151 L 21.5 153 L 20 152.5 L 22.5 151 Z " /><path fill="rgb(230,178,71)" stroke="rgb(230,178,71)" stroke-width="1" opacity="0.4392156862745098" d="M 13.5 157 L 11.5 160 L 8.5 162 L 10.5 159 L 13.5 157 Z " /><path fill="rgb(230,178,71)" stroke="rgb(230,178,71)" stroke-width="1" opacity="0.4392156862745098" d="M 183.5 158 L 186 159.5 L 184.5 160 L 183.5 158 Z " /><path fill="rgb(230,178,71)" stroke="rgb(230,178,71)" stroke-width="1" opacity="0.4392156862745098" d="M 6.5 161 L 7 162.5 Q 2.7 163.8 4 170.5 L 9.5 177 L 3 170.5 L 3 164.5 L 6 163 L 6.5 161 Z " /><path fill="rgb(230,178,71)" stroke="rgb(230,178,71)" stroke-width="1" opacity="0.4392156862745098" d="M 190.5 163 Q 194.5 164.5 193 171.5 L 187.5 176 L 192 170.5 Q 192.5 164.7 190.5 163 Z " /><path fill="rgb(230,178,71)" stroke="rgb(230,178,71)" stroke-width="1" opacity="0.4392156862745098" d="M 148.5 173 L 153 184.5 L 151 183.5 L 150 177.5 L 148 175.5 L 148.5 173 Z " /><path fill="rgb(230,178,71)" stroke="rgb(230,178,71)" stroke-width="1" opacity="0.4392156862745098" d="M 46.5 176 L 47 178 L 45 177.5 L 46.5 176 Z " /><path fill="rgb(230,178,71)" stroke="rgb(230,178,71)" stroke-width="1" opacity="0.4392156862745098" d="M 184.5 177 L 180 182.5 Q 181.3 186.7 176.5 185 L 170 190.5 L 184.5 177 Z " /><path fill="rgb(230,178,71)" stroke="rgb(230,178,71)" stroke-width="1" opacity="0.4392156862745098" d="M 13.5 180 L 18 183.5 L 15 183.5 L 15.5 182 L 13.5 180 Z " /><path fill="rgb(230,178,71)" stroke="rgb(230,178,71)" stroke-width="1" opacity="0.4392156862745098" d="M 44.5 180 L 45 181.5 L 45 183.5 L 39.5 194 L 37.5 194 Q 33.8 193 35 196 L 31 196 Q 32.1 193.3 29.5 194 L 28.5 192 L 33.5 194 L 37.5 193 L 41 189.5 L 44.5 180 Z " /><path fill="rgb(230,178,71)" stroke="rgb(230,178,71)" stroke-width="1" opacity="0.4392156862745098" d="M 152.5 186 L 153.5 188 Q 150.7 188.7 152.5 186 Z " /><path fill="rgb(230,178,71)" stroke="rgb(230,178,71)" stroke-width="1" opacity="0.4392156862745098" d="M 127.5 187 L 128.5 189 L 127.5 187 Z " /><path fill="rgb(230,178,71)" stroke="rgb(230,178,71)" stroke-width="1" opacity="0.4392156862745098" d="M 23.5 188 L 27 191.5 L 25.5 193 L 23.5 188 Z " /><path fill="rgb(230,178,71)" stroke="rgb(230,178,71)" stroke-width="1" opacity="0.4392156862745098" d="M 153.5 189 L 156 190.5 L 155.5 193 L 155 190 L 153.5 189 Z " /><path fill="rgb(230,178,71)" stroke="rgb(230,178,71)" stroke-width="1" opacity="0.4392156862745098" d="M 157.5 192 L 164.5 194 L 168.5 192 L 168.5 193 L 167 193.5 L 167.5 195 L 165.5 194 L 165 196 L 161.5 195 L 160 195.5 L 160.5 194 Q 156.7 194.5 157.5 192 Z " /><path fill="rgb(230,178,71)" stroke="rgb(230,178,71)" stroke-width="1" opacity="0.4392156862745098" d="M 85.5 193 L 88 193.5 L 85.5 194 L 85.5 193 Z " /><path fill="rgb(230,178,71)" stroke="rgb(230,178,71)" stroke-width="1" opacity="0.4392156862745098" d="M 107.5 193 L 110 193.5 L 107.5 194 L 107.5 193 Z " /><path fill="rgb(230,178,71)" stroke="rgb(230,178,71)" stroke-width="1" opacity="0.4392156862745098" d="M 95.5 195 L 101 195.5 L 95.5 196 L 95.5 195 Z " /><path fill="rgb(255,200,61)" stroke="rgb(255,200,61)" stroke-width="1" opacity="1" d="M 62.5 48 L 73 64 L 83.5 72 L 98.5 79 L 108.5 80 L 110.5 82 L 139.5 82 Q 149.6 84.4 155.5 91 L 165 92 L 164 97.5 L 164 128.5 Q 161.5 130 163 135.5 L 161 137.5 L 160 147.5 L 156 158.5 L 147.5 170 Q 145.3 169.3 146 171.5 L 139 177.5 L 137.5 180 L 127 184 Q 128.1 186.7 125.5 186 L 116.5 190 L 105 191 L 104.5 193 L 90.5 193 L 89 193.5 Q 91.3 192.3 88.5 191 L 78.5 190 L 77 190.5 L 77.5 189 L 70.5 187 L 69 187.5 L 69.5 186 L 67.5 187 L 64.5 183 L 56.5 179 L 55 179.5 L 55 177.5 L 51.5 173 L 49.5 174 Q 51.2 171.7 47 169.5 L 36 151.5 L 32.5 133 L 31 133.5 L 32 132.5 L 32 117.5 L 31 116.5 L 30 91 Q 33.8 92.5 33 89.5 Q 36.7 80.7 44.5 76 L 48 73.5 L 51 68 Q 53.7 69.1 53 66.5 L 59 57.5 L 62.5 48 Z M 63 84 L 51 89 Q 50 95 54 96 L 74 95 Q 78 93 76 86 Q 72 83 63 84 Z M 124 84 L 122 86 L 119 86 L 119 93 L 124 95 L 143 96 Q 146 95 145 90 L 141 86 Q 134 87 132 84 L 124 84 Z M 62 101 L 54 104 L 46 113 L 45 120 L 48 122 Q 54 120 56 123 L 82 123 L 86 120 Q 86 112 82 109 Q 76 100 62 101 Z M 126 101 L 119 104 Q 111 109 109 120 L 115 123 L 141 123 L 150 121 L 151 119 L 148 111 Q 143 100 126 101 Z M 88 126 L 84 131 L 85 136 L 94 142 L 103 142 L 103 140 L 108 139 Q 111 136 110 129 L 108 126 L 88 126 Z M 73 143 L 73 150 L 84 159 L 97 163 L 101 162 Q 108 164 107 160 L 113 159 L 122 151 Q 123 144 121 143 L 116 144 Q 112 143 113 146 L 106 148 L 90 148 L 83 146 L 79 143 L 73 143 Z " /><path fill="rgb(255,200,61)" stroke="rgb(255,200,61)" stroke-width="1" opacity="1" d="M 32.5 140 L 33 142.5 L 32 142.5 L 32.5 140 Z " /><path fill="rgb(135,53,59)" stroke="rgb(135,53,59)" stroke-width="1" opacity="0.9137254901960784" d="M 66.5 105 Q 76.6 104.9 80 111.5 L 81 122 L 56.5 122 L 56 120.5 L 55 117.5 Q 56.1 110.1 61.5 107 L 66.5 105 Z M 63 111 L 61 114 Q 62 116 66 115 Q 68 109 63 111 Z M 68 112 L 67 116 Q 66 118 62 117 L 63 121 L 75 121 L 74 115 L 68 112 Z " /><path fill="rgb(135,53,59)" stroke="rgb(135,53,59)" stroke-width="1" opacity="0.9137254901960784" d="M 125.5 105 Q 133.2 105.5 137 109 L 140 114.5 L 140 122 L 114.5 122 Q 113.3 121.8 114 115.5 Q 115.4 109.4 120.5 107 L 125.5 105 Z M 122 111 L 120 114 Q 121 116 125 115 Q 127 109 122 111 Z M 127 112 L 125 116 L 125 117 L 121 117 L 121 121 L 133 121 Q 135 120 134 117 L 130 112 L 127 112 Z " /><path fill="rgb(135,53,59)" stroke="rgb(135,53,59)" stroke-width="1" opacity="0.9137254901960784" d="M 75.5 145 L 78.5 145 L 86.5 149 L 102.5 150 L 112.5 148 L 119.5 145 L 121 148.5 Q 115.5 156.5 105.5 160 L 94.5 161 Q 83.2 158.8 77 151.5 L 74 146.5 L 75.5 145 Z " /><path fill="rgb(0,0,0)" stroke="rgb(0,0,0)" stroke-width="1" opacity="0.011764705882352941" d="M 0 0 L 200 0 L 200 200 L 0 200 L 0 0 Z M 71 4 L 69 6 L 63 7 Q 57 11 56 19 L 55 20 L 44 22 L 33 28 L 22 43 Q 23 46 20 45 L 18 50 L 17 63 L 16 64 L 16 96 L 15 97 Q 16 100 14 99 L 11 105 L 11 120 L 15 127 L 23 133 L 29 134 L 31 141 L 30 145 L 14 156 L 12 156 L 10 159 L 4 161 Q 2 164 3 173 L 12 181 L 14 181 L 15 184 L 21 188 L 22 191 L 32 196 L 40 194 L 43 190 L 43 187 L 49 175 L 49 177 L 58 184 L 73 192 L 81 194 L 88 194 L 90 196 L 107 196 L 109 194 L 120 193 L 129 189 Q 131 190 130 187 Q 141 184 148 175 L 149 177 L 153 191 L 161 196 L 166 196 L 174 191 L 176 188 L 182 184 L 184 181 L 187 179 L 192 173 L 193 173 L 193 164 L 167 145 L 164 145 L 164 140 Q 167 140 166 135 L 177 131 Q 183 127 184 119 Q 186 104 180 97 L 180 70 L 179 69 L 179 60 L 177 58 L 175 47 L 166 31 L 153 18 Q 150 19 151 16 L 140 10 L 127 6 Q 115 8 111 4 L 71 4 Z " /><path fill="rgb(0,0,0)" stroke="rgb(0,0,0)" stroke-width="1" opacity="0.011764705882352941" d="M 68 112 L 74 114.5 L 75 121 L 62.5 121 L 62 117 Q 65.8 118 67 115.5 L 68 112 Z " /><path fill="rgb(0,0,0)" stroke="rgb(0,0,0)" stroke-width="1" opacity="0.011764705882352941" d="M 127 112 L 129.5 112 L 134 116.5 Q 134.8 120.3 132.5 121 L 121 121 L 121 117 L 125 117 L 125 115.5 L 127 112 Z " /><path fill="rgb(244,212,140)" stroke="rgb(244,212,140)" stroke-width="1" opacity="0.3686274509803922" d="M 62.5 7 L 63.5 9 L 59.5 11 L 62.5 7 Z " /><path fill="rgb(244,212,140)" stroke="rgb(244,212,140)" stroke-width="1" opacity="0.3686274509803922" d="M 133 8 L 135 8.5 L 133 9.5 L 133 8 Z " /><path fill="rgb(244,212,140)" stroke="rgb(244,212,140)" stroke-width="1" opacity="0.3686274509803922" d="M 138.5 10 L 151 16 L 151 18 Q 153.7 16.9 153 19.5 L 150.5 18 L 146 16 L 145.5 14 Q 144 16.5 142.5 13 Q 138.5 12.5 138.5 10 Z " /><path fill="rgb(244,212,140)" stroke="rgb(244,212,140)" stroke-width="1" opacity="0.3686274509803922" d="M 56.5 17 L 57 20 L 55 19.5 L 56.5 17 Z " /><path fill="rgb(244,212,140)" stroke="rgb(244,212,140)" stroke-width="1" opacity="0.3686274509803922" d="M 154 20 L 155.5 20 L 166 30.5 L 170 38 L 168 37.5 L 168.5 36 L 166 34.5 L 165 31.5 L 155.5 22 Q 152.9 22.7 154 20 Z " /><path fill="rgb(244,212,140)" stroke="rgb(244,212,140)" stroke-width="1" opacity="0.3686274509803922" d="M 43 22 Q 46 21 45 24 Q 42 25 43 22 Z " /><path fill="rgb(244,212,140)" stroke="rgb(244,212,140)" stroke-width="1" opacity="0.3686274509803922" d="M 41.5 23 L 42 25 L 38.5 26 L 38.5 25 L 41.5 23 Z " /><path fill="rgb(244,212,140)" stroke="rgb(244,212,140)" stroke-width="1" opacity="0.3686274509803922" d="M 35.5 27 L 36 28.5 L 33 30 Q 31.9 27.3 34.5 28 L 35.5 27 Z " /><path fill="rgb(244,212,140)" stroke="rgb(244,212,140)" stroke-width="1" opacity="0.3686274509803922" d="M 26.5 36 L 27 37.5 L 26 40 Q 23.3 38.9 24 41.5 L 23 41.5 L 26.5 36 Z " /><path fill="rgb(244,212,140)" stroke="rgb(244,212,140)" stroke-width="1" opacity="0.3686274509803922" d="M 170.5 39 L 173 42.5 L 171 43 L 170.5 39 Z " /><path fill="rgb(244,212,140)" stroke="rgb(244,212,140)" stroke-width="1" opacity="0.3686274509803922" d="M 20.5 46 L 19.5 48 L 20.5 46 Z " /><path fill="rgb(244,212,140)" stroke="rgb(244,212,140)" stroke-width="1" opacity="0.3686274509803922" d="M 173.5 46 Q 175.8 45.3 175 47.5 L 173.5 46 Z " /><path fill="rgb(244,212,140)" stroke="rgb(244,212,140)" stroke-width="1" opacity="0.3686274509803922" d="M 18.5 49 L 19.5 51 Q 16.7 51.7 18.5 49 Z " /><path fill="rgb(244,212,140)" stroke="rgb(244,212,140)" stroke-width="1" opacity="0.3686274509803922" d="M 177.5 58 L 178.5 60 Q 175.7 60.7 177.5 58 Z " /><path fill="rgb(244,212,140)" stroke="rgb(244,212,140)" stroke-width="1" opacity="0.3686274509803922" d="M 15.5 96 Q 18.8 97.8 15 99.5 L 14 103 Q 11 104.3 12 100.5 L 15 99 L 15.5 96 Z " /><path fill="rgb(244,212,140)" stroke="rgb(244,212,140)" stroke-width="1" opacity="0.3686274509803922" d="M 179.5 96 L 183 103.5 L 181 102.5 Q 178 100 179.5 96 Z " /><path fill="rgb(244,212,140)" stroke="rgb(244,212,140)" stroke-width="1" opacity="0.3686274509803922" d="M 11 104 Q 14 103 13 106 Q 10 107 11 104 Z " /><path fill="rgb(244,212,140)" stroke="rgb(244,212,140)" stroke-width="1" opacity="0.3686274509803922" d="M 183.5 105 L 184 107.5 L 183 107.5 L 183.5 105 Z " /><path fill="rgb(244,212,140)" stroke="rgb(244,212,140)" stroke-width="1" opacity="0.3686274509803922" d="M 183.5 116 L 184 118.5 L 183 118.5 L 183.5 116 Z " /><path fill="rgb(244,212,140)" stroke="rgb(244,212,140)" stroke-width="1" opacity="0.3686274509803922" d="M 11 117 Q 14.3 115.9 13 120 Q 9.7 121.1 11 117 Z " /><path fill="rgb(244,212,140)" stroke="rgb(244,212,140)" stroke-width="1" opacity="0.3686274509803922" d="M 182.5 120 L 183 122.5 L 176.5 131 L 166 135 L 166 139 L 164.5 139 Q 161.8 137.7 164 136.5 L 165.5 133 L 171.5 131 L 173 131.5 Q 172.3 129.3 174.5 130 L 182.5 120 Z " /><path fill="rgb(244,212,140)" stroke="rgb(244,212,140)" stroke-width="1" opacity="0.3686274509803922" d="M 12 121 Q 14.7 119.9 14 122.5 L 19.5 129 L 31 134.5 L 32 140 Q 28.3 141.3 30 135.5 L 28.5 134 L 22.5 133 L 15 126.5 L 12 121 Z " /><path fill="rgb(244,212,140)" stroke="rgb(244,212,140)" stroke-width="1" opacity="0.3686274509803922" d="M 163.5 141 L 164 144.5 L 162 143.5 L 163.5 141 Z " /><path fill="rgb(244,212,140)" stroke="rgb(244,212,140)" stroke-width="1" opacity="0.3686274509803922" d="M 31.5 142 L 33 143.5 L 29.5 147 L 28 146.5 L 31.5 142 Z " /><path fill="rgb(244,212,140)" stroke="rgb(244,212,140)" stroke-width="1" opacity="0.3686274509803922" d="M 165 145 L 170 147 L 171 149.5 L 169.5 149 Q 166.9 149.7 168 147 L 165 147 L 165 145 Z " /><path fill="rgb(244,212,140)" stroke="rgb(244,212,140)" stroke-width="1" opacity="0.3686274509803922" d="M 25.5 147 Q 27.8 146.3 27 148.5 L 24 149.5 Q 24.8 151.8 22.5 151 L 20 152 L 20 154 L 17 154 Q 18.1 156.7 15.5 156 L 7.5 162 L 6 161.5 Q 6.8 163.8 4.5 163 L 3 163.5 L 4 161 L 10 159 L 11.5 156 L 13.5 156 L 25.5 147 Z " /><path fill="rgb(244,212,140)" stroke="rgb(244,212,140)" stroke-width="1" opacity="0.3686274509803922" d="M 172.5 149 L 178 153.5 L 176.5 154 L 172 150.5 L 172.5 149 Z " /><path fill="rgb(244,212,140)" stroke="rgb(244,212,140)" stroke-width="1" opacity="0.3686274509803922" d="M 179 154 L 193 163.5 L 192.5 165 L 189 163 L 189 161 L 186 161 Q 187.1 158.3 184.5 159 L 179 155.5 L 179 154 Z " /><path fill="rgb(244,212,140)" stroke="rgb(244,212,140)" stroke-width="1" opacity="0.3686274509803922" d="M 3.5 171 L 13 179.5 Q 13.8 181.8 11.5 181 L 3 172.5 L 3.5 171 Z " /><path fill="rgb(244,212,140)" stroke="rgb(244,212,140)" stroke-width="1" opacity="0.3686274509803922" d="M 47.5 172 L 59.5 183 L 67.5 188 L 78.5 191 L 80.5 193 L 82.5 192 L 85 193.5 L 80.5 194 Q 61 189 49 176.5 L 48.5 175 L 47.5 177 L 46.5 175 L 48 174.5 L 47.5 172 Z " /><path fill="rgb(244,212,140)" stroke="rgb(244,212,140)" stroke-width="1" opacity="0.3686274509803922" d="M 147.5 172 L 149 174.5 L 136.5 185 L 130 187 L 129.5 189 L 128 188.5 Q 128.8 191.1 125.5 190 Q 122.7 193.7 115.5 193 L 115.5 192 Q 136.5 187 147.5 172 Z " /><path fill="rgb(244,212,140)" stroke="rgb(244,212,140)" stroke-width="1" opacity="0.3686274509803922" d="M 189.5 175 L 186.5 179 L 184 180.5 L 181.5 184 Q 179.3 184.8 180 182.5 Q 182.6 176.6 189.5 175 Z " /><path fill="rgb(244,212,140)" stroke="rgb(244,212,140)" stroke-width="1" opacity="0.3686274509803922" d="M 45 178 Q 47.7 176.9 47 179.5 L 44.5 183 L 45 181.5 L 45 178 Z " /><path fill="rgb(244,212,140)" stroke="rgb(244,212,140)" stroke-width="1" opacity="0.3686274509803922" d="M 15.5 182 L 24 189.5 L 25 191.5 L 23.5 191 Q 21.3 191.8 22 189.5 L 16 184.5 L 15.5 182 Z " /><path fill="rgb(244,212,140)" stroke="rgb(244,212,140)" stroke-width="1" opacity="0.3686274509803922" d="M 151.5 184 L 152.5 186 Q 149.7 186.7 151.5 184 Z " /><path fill="rgb(244,212,140)" stroke="rgb(244,212,140)" stroke-width="1" opacity="0.3686274509803922" d="M 176.5 185 L 178 185.5 L 173.5 191 L 167.5 194 L 167.5 193 L 170.5 191 L 176.5 185 Z " /><path fill="rgb(244,212,140)" stroke="rgb(244,212,140)" stroke-width="1" opacity="0.3686274509803922" d="M 153.5 190 Q 155.8 189.3 155 191.5 L 153.5 190 Z " /><path fill="rgb(244,212,140)" stroke="rgb(244,212,140)" stroke-width="1" opacity="0.3686274509803922" d="M 26.5 192 L 31 194.5 L 29.5 195 L 26.5 192 Z " /><path fill="rgb(244,212,140)" stroke="rgb(244,212,140)" stroke-width="1" opacity="0.3686274509803922" d="M 112.5 192 L 113.5 194 L 110 193.5 L 112.5 192 Z " /><path fill="rgb(244,212,140)" stroke="rgb(244,212,140)" stroke-width="1" opacity="0.3686274509803922" d="M 156.5 192 L 157.5 194 Q 154.7 194.7 156.5 192 Z " /><path fill="rgb(244,212,140)" stroke="rgb(244,212,140)" stroke-width="1" opacity="0.3686274509803922" d="M 88.5 193 L 89.5 194 L 105.5 194 Q 106.8 191.8 108 194.5 Q 106.8 197.3 101.5 196 Q 100.3 193.7 95.5 195 Q 94.3 197.3 89.5 196 L 88.5 193 Z " /><path fill="rgb(244,212,140)" stroke="rgb(244,212,140)" stroke-width="1" opacity="0.3686274509803922" d="M 159.5 194 L 162 195.5 L 160.5 195 L 159.5 194 Z " /></svg>