<svg width="200" height="200" version="1.1" xmlns="http://www.w3.org/2000/svg" desc="Created with imagetracer.js version 1.2.6" ><path fill="rgb(0,0,0)" stroke="rgb(0,0,0)" stroke-width="1" opacity="0" d="M 0 0 L 200 0 L 200 200 L 0 200 L 0 0 Z M 93 15 L 88 20 Q 89 22 86 21 L 86 24 L 84 24 L 84 28 L 82 28 L 81 32 L 81 35 Q 78 34 79 38 L 77 38 L 77 42 L 75 42 L 74 46 Q 75 48 72 47 L 72 51 L 70 51 L 70 68 L 73 68 L 73 70 L 68 70 L 68 72 L 65 72 Q 66 75 64 74 L 58 82 L 58 84 L 56 85 L 56 99 L 59 102 Q 55 101 56 104 L 52 105 L 49 105 L 47 109 L 45 109 L 44 112 L 42 112 L 42 116 L 40 116 Q 41 119 38 121 L 38 125 L 36 127 L 36 143 L 38 145 L 38 149 L 42 151 L 42 153 L 50 156 L 70 156 L 70 175 L 72 176 L 122 176 L 125 172 Q 127 163 123 159 L 126 156 L 144 156 L 145 155 L 149 155 L 151 151 L 153 151 L 156 147 Q 154 141 158 142 L 158 131 L 156 130 Q 158 118 151 114 L 151 111 L 147 109 L 147 107 Q 143 108 142 104 Q 136 106 137 103 L 137 101 L 137 84 L 135 82 Q 136 78 133 79 Q 134 75 131 74 L 128 74 L 126 70 L 122 70 L 125 65 L 124 53 L 116 40 Q 117 36 114 37 L 109 24 L 107 22 L 107 19 Q 104 20 105 17 L 102 15 L 93 15 Z " /><path fill="rgb(111,169,81)" stroke="rgb(111,169,81)" stroke-width="1" opacity="0.7568627450980392" d="M 96.5 16 L 99 17.5 L 94.5 18 L 94.5 17 L 96.5 16 Z " /><path fill="rgb(111,169,81)" stroke="rgb(111,169,81)" stroke-width="1" opacity="0.7568627450980392" d="M 101.5 18 L 102 20 Q 104.7 18.9 104 21.5 L 106 24.5 L 104 23.5 L 101 19.5 L 101.5 18 Z " /><path fill="rgb(111,169,81)" stroke="rgb(111,169,81)" stroke-width="1" opacity="0.7568627450980392" d="M 90 20 L 92 20.5 L 85.5 30 L 85 28.5 L 90 20 Z " /><path fill="rgb(111,169,81)" stroke="rgb(111,169,81)" stroke-width="1" opacity="0.7568627450980392" d="M 106.5 26 L 108 28.5 L 106 27.5 L 106.5 26 Z " /><path fill="rgb(111,169,81)" stroke="rgb(111,169,81)" stroke-width="1" opacity="0.7568627450980392" d="M 84.5 31 L 85 32.5 L 83 33.5 L 84.5 31 Z " /><path fill="rgb(111,169,81)" stroke="rgb(111,169,81)" stroke-width="1" opacity="0.7568627450980392" d="M 109.5 32 L 110.5 34 Q 107.7 34.7 109.5 32 Z " /><path fill="rgb(111,169,81)" stroke="rgb(111,169,81)" stroke-width="1" opacity="0.7568627450980392" d="M 111.5 36 L 112.5 38 L 111.5 36 Z " /><path fill="rgb(111,169,81)" stroke="rgb(111,169,81)" stroke-width="1" opacity="0.7568627450980392" d="M 81.5 37 L 82 38.5 L 80 39.5 L 81.5 37 Z " /><path fill="rgb(111,169,81)" stroke="rgb(111,169,81)" stroke-width="1" opacity="0.7568627450980392" d="M 113.5 39 L 115 41.5 L 113 40.5 L 113.5 39 Z " /><path fill="rgb(111,169,81)" stroke="rgb(111,169,81)" stroke-width="1" opacity="0.7568627450980392" d="M 79.5 41 L 80 43 L 78 42.5 L 79.5 41 Z " /><path fill="rgb(111,169,81)" stroke="rgb(111,169,81)" stroke-width="1" opacity="0.7568627450980392" d="M 115.5 43 L 117 45.5 L 115 44.5 L 115.5 43 Z " /><path fill="rgb(111,169,81)" stroke="rgb(111,169,81)" stroke-width="1" opacity="0.7568627450980392" d="M 77.5 45 L 76.5 47 L 77.5 45 Z " /><path fill="rgb(111,169,81)" stroke="rgb(111,169,81)" stroke-width="1" opacity="0.7568627450980392" d="M 117.5 47 L 120 50.5 L 118 49.5 L 117.5 47 Z " /><path fill="rgb(111,169,81)" stroke="rgb(111,169,81)" stroke-width="1" opacity="0.7568627450980392" d="M 75.5 48 L 76 49.5 L 71.5 57 L 71 55.5 L 75.5 48 Z " /><path fill="rgb(111,169,81)" stroke="rgb(111,169,81)" stroke-width="1" opacity="0.7568627450980392" d="M 120.5 52 L 122 55 Q 118.5 56.1 120.5 52 Z " /><path fill="rgb(111,169,81)" stroke="rgb(111,169,81)" stroke-width="1" opacity="0.7568627450980392" d="M 122.5 57 L 123 61.5 L 122 61.5 L 122.5 57 Z " /><path fill="rgb(111,169,81)" stroke="rgb(111,169,81)" stroke-width="1" opacity="0.7568627450980392" d="M 71.5 62 L 73 64.5 L 71 63.5 L 71.5 62 Z " /><path fill="rgb(111,169,81)" stroke="rgb(111,169,81)" stroke-width="1" opacity="0.7568627450980392" d="M 121.5 64 L 122 65.5 L 118 68.5 L 120 65.5 L 121.5 64 Z " /><path fill="rgb(111,169,81)" stroke="rgb(111,169,81)" stroke-width="1" opacity="0.7568627450980392" d="M 73.5 66 L 76 67 L 76 69 Q 81.2 67.3 80 71 L 76 71 L 76 69.5 L 73 68 L 73.5 66 Z " /><path fill="rgb(111,169,81)" stroke="rgb(111,169,81)" stroke-width="1" opacity="0.7568627450980392" d="M 113.5 69 Q 118.3 67.7 117 71 Q 113.2 71.8 113.5 69 Z " /><path fill="rgb(111,169,81)" stroke="rgb(111,169,81)" stroke-width="1" opacity="0.7568627450980392" d="M 72.5 71 L 75 71.5 L 71.5 73 L 72.5 71 Z " /><path fill="rgb(111,169,81)" stroke="rgb(111,169,81)" stroke-width="1" opacity="0.7568627450980392" d="M 119.5 71 Q 125.1 71.5 127 75.5 L 123.5 73 Q 118.9 73.8 119.5 71 Z " /><path fill="rgb(111,169,81)" stroke="rgb(111,169,81)" stroke-width="1" opacity="0.7568627450980392" d="M 69.5 73 L 68.5 75 L 64 78.5 L 62 81.5 L 60 82.5 L 67.5 74 L 69.5 73 Z " /><path fill="rgb(111,169,81)" stroke="rgb(111,169,81)" stroke-width="1" opacity="0.7568627450980392" d="M 129.5 77 L 131.5 80 L 129.5 77 Z " /><path fill="rgb(111,169,81)" stroke="rgb(111,169,81)" stroke-width="1" opacity="0.7568627450980392" d="M 132.5 81 L 134 83.5 L 132 82.5 L 132.5 81 Z " /><path fill="rgb(111,169,81)" stroke="rgb(111,169,81)" stroke-width="1" opacity="0.7568627450980392" d="M 134.5 85 L 136 89.5 L 135 89.5 L 134.5 85 Z " /><path fill="rgb(111,169,81)" stroke="rgb(111,169,81)" stroke-width="1" opacity="0.7568627450980392" d="M 58.5 86 L 60 98.5 L 59 98.5 L 57 90.5 L 58.5 86 Z " /><path fill="rgb(111,169,81)" stroke="rgb(111,169,81)" stroke-width="1" opacity="0.7568627450980392" d="M 135.5 95 L 136 96.5 L 134.5 99 L 134 96.5 L 135.5 95 Z " /><path fill="rgb(111,169,81)" stroke="rgb(111,169,81)" stroke-width="1" opacity="0.7568627450980392" d="M 131 99 L 133 99.5 L 131 100.5 L 131 99 Z " /><path fill="rgb(111,169,81)" stroke="rgb(111,169,81)" stroke-width="1" opacity="0.7568627450980392" d="M 64.5 101 L 67 101.5 L 56.5 106 L 56.5 105 L 64.5 101 Z " /><path fill="rgb(111,169,81)" stroke="rgb(111,169,81)" stroke-width="1" opacity="0.7568627450980392" d="M 127 101 L 138 105.5 L 136.5 106 L 127 103 L 127 101 Z " /><path fill="rgb(111,169,81)" stroke="rgb(111,169,81)" stroke-width="1" opacity="0.7568627450980392" d="M 53.5 106 L 55 106.5 L 48.5 111 L 48.5 110 L 51.5 108 L 53.5 106 Z " /><path fill="rgb(111,169,81)" stroke="rgb(111,169,81)" stroke-width="1" opacity="0.7568627450980392" d="M 139.5 106 Q 141.8 105.3 141 107.5 L 139.5 106 Z " /><path fill="rgb(111,169,81)" stroke="rgb(111,169,81)" stroke-width="1" opacity="0.7568627450980392" d="M 143.5 109 L 147 111.5 L 146.5 113 L 145 110 L 143.5 109 Z " /><path fill="rgb(111,169,81)" stroke="rgb(111,169,81)" stroke-width="1" opacity="0.7568627450980392" d="M 148.5 113 L 150 115.5 L 148 114.5 L 148.5 113 Z " /><path fill="rgb(111,169,81)" stroke="rgb(111,169,81)" stroke-width="1" opacity="0.7568627450980392" d="M 45.5 114 L 43.5 117 L 45.5 114 Z " /><path fill="rgb(111,169,81)" stroke="rgb(111,169,81)" stroke-width="1" opacity="0.7568627450980392" d="M 150.5 117 L 151.5 119 L 150.5 117 Z " /><path fill="rgb(111,169,81)" stroke="rgb(111,169,81)" stroke-width="1" opacity="0.7568627450980392" d="M 42.5 118 L 43 119.5 L 41 120.5 L 42.5 118 Z " /><path fill="rgb(111,169,81)" stroke="rgb(111,169,81)" stroke-width="1" opacity="0.7568627450980392" d="M 152.5 120 L 156 129 Q 152.7 130.3 154 125.5 L 152.5 120 Z " /><path fill="rgb(111,169,81)" stroke="rgb(111,169,81)" stroke-width="1" opacity="0.7568627450980392" d="M 40.5 122 L 41 125 L 39 124.5 L 40.5 122 Z " /><path fill="rgb(111,169,81)" stroke="rgb(111,169,81)" stroke-width="1" opacity="0.7568627450980392" d="M 38.5 130 L 39 140.5 L 38 140.5 L 38 137 Q 34.7 138.1 36 134 L 38 134 L 38.5 130 Z " /><path fill="rgb(111,169,81)" stroke="rgb(111,169,81)" stroke-width="1" opacity="0.7568627450980392" d="M 155.5 132 L 156 139.5 L 155 139.5 L 155.5 132 Z " /><path fill="rgb(111,169,81)" stroke="rgb(111,169,81)" stroke-width="1" opacity="0.7568627450980392" d="M 154.5 141 L 155 142.5 L 152.5 146 L 153 144.5 L 154.5 141 Z " /><path fill="rgb(111,169,81)" stroke="rgb(111,169,81)" stroke-width="1" opacity="0.7568627450980392" d="M 39 143 Q 42 141.8 41 145.5 L 46.5 152 L 39 143 Z " /><path fill="rgb(111,169,81)" stroke="rgb(111,169,81)" stroke-width="1" opacity="0.7568627450980392" d="M 49.5 152 L 53 153.5 L 50.5 154 L 49.5 152 Z " /><path fill="rgb(111,169,81)" stroke="rgb(111,169,81)" stroke-width="1" opacity="0.7568627450980392" d="M 143.5 152 Q 146.1 151.2 145 154.5 L 143.5 154 L 136.5 156 L 124.5 156 L 122 155 L 121.5 157 L 120.5 155 L 122.5 154 L 139.5 154 L 143.5 152 Z " /><path fill="rgb(111,169,81)" stroke="rgb(111,169,81)" stroke-width="1" opacity="0.7568627450980392" d="M 54.5 154 L 71.5 154 L 73 155.5 L 71.5 155 L 69.5 156 L 57.5 156 L 54.5 155 L 54.5 154 Z " /><path fill="rgb(111,169,81)" stroke="rgb(111,169,81)" stroke-width="1" opacity="0.7568627450980392" d="M 71.5 160 L 72.5 162 L 71.5 160 Z " /><path fill="rgb(111,169,81)" stroke="rgb(111,169,81)" stroke-width="1" opacity="0.7568627450980392" d="M 122.5 164 L 123 169.5 L 122 169.5 L 122.5 164 Z " /><path fill="rgb(111,169,81)" stroke="rgb(111,169,81)" stroke-width="1" opacity="0.7568627450980392" d="M 71.5 170 L 72.5 172 L 71.5 170 Z " /><path fill="rgb(111,169,81)" stroke="rgb(111,169,81)" stroke-width="1" opacity="0.7568627450980392" d="M 121.5 171 L 120.5 173 L 121.5 171 Z " /><path fill="rgb(111,169,81)" stroke="rgb(111,169,81)" stroke-width="1" opacity="0.7568627450980392" d="M 76.5 173 L 118 173.5 L 76.5 174 L 76.5 173 Z " /><path fill="rgb(72,144,32)" stroke="rgb(72,144,32)" stroke-width="1" opacity="0.9607843137254902" d="M 92 18 Q 95 17 94 20 Q 91 21 92 18 Z " /><path fill="rgb(72,144,32)" stroke="rgb(72,144,32)" stroke-width="1" opacity="0.9607843137254902" d="M 91.5 21 L 91 22.5 Q 91.8 24.8 89.5 24 L 91.5 21 Z " /><path fill="rgb(72,144,32)" stroke="rgb(72,144,32)" stroke-width="1" opacity="0.9607843137254902" d="M 104.5 24 L 105.5 26 L 104.5 24 Z " /><path fill="rgb(72,144,32)" stroke="rgb(72,144,32)" stroke-width="1" opacity="0.9607843137254902" d="M 106.5 28 L 109 31.5 L 107 32 L 106.5 28 Z " /><path fill="rgb(72,144,32)" stroke="rgb(72,144,32)" stroke-width="1" opacity="0.9607843137254902" d="M 86.5 29 L 87 31 L 85 30.5 L 86.5 29 Z " /><path fill="rgb(72,144,32)" stroke="rgb(72,144,32)" stroke-width="1" opacity="0.9607843137254902" d="M 84.5 33 L 84 34.5 L 82.5 38 L 82 36.5 L 84.5 33 Z " /><path fill="rgb(72,144,32)" stroke="rgb(72,144,32)" stroke-width="1" opacity="0.9607843137254902" d="M 109 34 Q 112 33 111 36 Q 108 37 109 34 Z " /><path fill="rgb(72,144,32)" stroke="rgb(72,144,32)" stroke-width="1" opacity="0.9607843137254902" d="M 111.5 37 L 113 39.5 L 111 38.5 L 111.5 37 Z " /><path fill="rgb(72,144,32)" stroke="rgb(72,144,32)" stroke-width="1" opacity="0.9607843137254902" d="M 81.5 39 L 82 41 L 80 40.5 L 81.5 39 Z " /><path fill="rgb(72,144,32)" stroke="rgb(72,144,32)" stroke-width="1" opacity="0.9607843137254902" d="M 113.5 41 L 117 47.5 L 116 47.5 L 113 42.5 L 113.5 41 Z " /><path fill="rgb(72,144,32)" stroke="rgb(72,144,32)" stroke-width="1" opacity="0.9607843137254902" d="M 78 43 Q 81 42 80 45 Q 77 46 78 43 Z " /><path fill="rgb(72,144,32)" stroke="rgb(72,144,32)" stroke-width="1" opacity="0.9607843137254902" d="M 77.5 46 L 78 47.5 L 76 48.5 L 77.5 46 Z " /><path fill="rgb(72,144,32)" stroke="rgb(72,144,32)" stroke-width="1" opacity="0.9607843137254902" d="M 118.5 50 L 119.5 52 Q 116.7 52.7 118.5 50 Z " /><path fill="rgb(72,144,32)" stroke="rgb(72,144,32)" stroke-width="1" opacity="0.9607843137254902" d="M 74.5 51 L 75 52.5 L 73 53.5 L 74.5 51 Z " /><path fill="rgb(72,144,32)" stroke="rgb(72,144,32)" stroke-width="1" opacity="0.9607843137254902" d="M 121.5 55 L 122 63.5 L 120 64.5 L 121.5 55 Z " /><path fill="rgb(72,144,32)" stroke="rgb(72,144,32)" stroke-width="1" opacity="0.9607843137254902" d="M 72.5 56 L 73 63.5 L 72 63.5 L 71 57.5 L 72.5 56 Z " /><path fill="rgb(72,144,32)" stroke="rgb(72,144,32)" stroke-width="1" opacity="0.9607843137254902" d="M 73.5 65 Q 75.8 64.3 75 66.5 L 73.5 65 Z " /><path fill="rgb(72,144,32)" stroke="rgb(72,144,32)" stroke-width="1" opacity="0.9607843137254902" d="M 76.5 67 L 77.5 69 Q 74.7 69.7 76.5 67 Z " /><path fill="rgb(72,144,32)" stroke="rgb(72,144,32)" stroke-width="1" opacity="0.9607843137254902" d="M 75.5 71 L 76 73 L 74 72.5 L 75.5 71 Z " /><path fill="rgb(72,144,32)" stroke="rgb(72,144,32)" stroke-width="1" opacity="0.9607843137254902" d="M 118.5 71 L 119.5 73 Q 116.7 73.7 118.5 71 Z " /><path fill="rgb(72,144,32)" stroke="rgb(72,144,32)" stroke-width="1" opacity="0.9607843137254902" d="M 70.5 73 L 71 75 L 69 74.5 L 70.5 73 Z " /><path fill="rgb(72,144,32)" stroke="rgb(72,144,32)" stroke-width="1" opacity="0.9607843137254902" d="M 123.5 73 Q 124.7 76.7 129 76 L 132 81.5 L 130 80.5 L 127.5 77 L 123 75 L 123.5 73 Z " /><path fill="rgb(72,144,32)" stroke="rgb(72,144,32)" stroke-width="1" opacity="0.9607843137254902" d="M 67.5 75 L 68 77 L 65.5 78 L 67.5 75 Z " /><path fill="rgb(72,144,32)" stroke="rgb(72,144,32)" stroke-width="1" opacity="0.9607843137254902" d="M 61.5 82 L 62 83.5 L 61 87 Q 58.3 88.1 59 85.5 L 61.5 82 Z " /><path fill="rgb(72,144,32)" stroke="rgb(72,144,32)" stroke-width="1" opacity="0.9607843137254902" d="M 132.5 83 L 133.5 85 Q 130.7 85.7 132.5 83 Z " /><path fill="rgb(72,144,32)" stroke="rgb(72,144,32)" stroke-width="1" opacity="0.9607843137254902" d="M 134.5 88 Q 136.8 89.8 136 94.5 L 134 95.5 L 134.5 88 Z " /><path fill="rgb(72,144,32)" stroke="rgb(72,144,32)" stroke-width="1" opacity="0.9607843137254902" d="M 133.5 97 L 134 99 L 132 98.5 L 133.5 97 Z " /><path fill="rgb(72,144,32)" stroke="rgb(72,144,32)" stroke-width="1" opacity="0.9607843137254902" d="M 130.5 99 L 131 101 L 128 100.5 L 130.5 99 Z " /><path fill="rgb(72,144,32)" stroke="rgb(72,144,32)" stroke-width="1" opacity="0.9607843137254902" d="M 62.5 100 L 65 100.5 L 62.5 101 L 62.5 100 Z " /><path fill="rgb(72,144,32)" stroke="rgb(72,144,32)" stroke-width="1" opacity="0.9607843137254902" d="M 58.5 105 L 57.5 107 L 53.5 108 L 53.5 107 L 58.5 105 Z " /><path fill="rgb(72,144,32)" stroke="rgb(72,144,32)" stroke-width="1" opacity="0.9607843137254902" d="M 134.5 105 L 140 107.5 L 138.5 107 Q 133.7 107 134.5 105 Z " /><path fill="rgb(72,144,32)" stroke="rgb(72,144,32)" stroke-width="1" opacity="0.9607843137254902" d="M 141 108 Q 144 107 143 110 Q 140 111 141 108 Z " /><path fill="rgb(72,144,32)" stroke="rgb(72,144,32)" stroke-width="1" opacity="0.9607843137254902" d="M 46 113 L 48 113.5 L 46 114.5 L 46 113 Z " /><path fill="rgb(72,144,32)" stroke="rgb(72,144,32)" stroke-width="1" opacity="0.9607843137254902" d="M 147.5 113 L 150 116.5 L 148 117 L 147.5 113 Z " /><path fill="rgb(72,144,32)" stroke="rgb(72,144,32)" stroke-width="1" opacity="0.9607843137254902" d="M 44.5 116 L 45 117.5 L 43 118.5 L 44.5 116 Z " /><path fill="rgb(72,144,32)" stroke="rgb(72,144,32)" stroke-width="1" opacity="0.9607843137254902" d="M 150.5 118 L 153 123.5 L 152 123.5 L 150.5 118 Z " /><path fill="rgb(72,144,32)" stroke="rgb(72,144,32)" stroke-width="1" opacity="0.9607843137254902" d="M 42.5 120 L 43 122 L 41 121.5 L 42.5 120 Z " /><path fill="rgb(72,144,32)" stroke="rgb(72,144,32)" stroke-width="1" opacity="0.9607843137254902" d="M 39 125 Q 42 123.8 41 127.5 L 39.5 131 L 39 125 Z " /><path fill="rgb(72,144,32)" stroke="rgb(72,144,32)" stroke-width="1" opacity="0.9607843137254902" d="M 153.5 125 L 155 132.5 L 153 131.5 L 153.5 125 Z " /><path fill="rgb(72,144,32)" stroke="rgb(72,144,32)" stroke-width="1" opacity="0.9607843137254902" d="M 154.5 139 L 155 140.5 L 153.5 143 L 153 140.5 L 154.5 139 Z " /><path fill="rgb(72,144,32)" stroke="rgb(72,144,32)" stroke-width="1" opacity="0.9607843137254902" d="M 39.5 140 L 41 143 Q 37.5 144.1 39.5 140 Z " /><path fill="rgb(72,144,32)" stroke="rgb(72,144,32)" stroke-width="1" opacity="0.9607843137254902" d="M 152.5 144 L 152 145.5 Q 152.8 147.8 150.5 147 L 152.5 144 Z " /><path fill="rgb(72,144,32)" stroke="rgb(72,144,32)" stroke-width="1" opacity="0.9607843137254902" d="M 148 148 L 150 148.5 L 148 149.5 L 148 148 Z " /><path fill="rgb(72,144,32)" stroke="rgb(72,144,32)" stroke-width="1" opacity="0.9607843137254902" d="M 46.5 150 L 49 151.5 L 47.5 152 L 46.5 150 Z " /><path fill="rgb(72,144,32)" stroke="rgb(72,144,32)" stroke-width="1" opacity="0.9607843137254902" d="M 146.5 150 L 147 152 L 145 151.5 L 146.5 150 Z " /><path fill="rgb(72,144,32)" stroke="rgb(72,144,32)" stroke-width="1" opacity="0.9607843137254902" d="M 53.5 153 L 120 154.5 L 72.5 155 L 71.5 154 L 53.5 154 L 53.5 153 Z " /><path fill="rgb(72,144,32)" stroke="rgb(72,144,32)" stroke-width="1" opacity="0.9607843137254902" d="M 121 153 L 140 153.5 L 122.5 154 L 121.5 155 L 121 153 Z " /><path fill="rgb(68,145,27)" stroke="rgb(68,145,27)" stroke-width="1" opacity="1" d="M 94 18 L 100 18 L 100 20 L 104 22 L 104 24.5 Q 107.5 26.7 107 32 L 109 32 L 109 36 Q 112 34.8 111 38.5 L 116 48 L 118 48 L 118 52 Q 121 50.8 120 54.5 Q 122.8 56.3 121 62.5 L 120 67 L 113 69.5 Q 114.2 72 118 71 L 118 73 L 123 73 Q 121.9 75.7 124.5 75 L 130 79.5 L 132 85 L 134 85.5 L 134 96.5 L 127 101.5 Q 126.3 103.8 128.5 103 L 130.5 105 L 141 108 Q 139.8 111 143.5 110 Q 147.6 112.3 148 117 Q 150.7 115.9 150 118.5 L 153 124.5 L 153 131.5 Q 156.3 132.8 155 138.5 L 150 148 L 148 148 Q 149.1 150.7 146.5 150 L 140.5 153 L 121 153 L 120.5 155 L 119.5 154 L 52.5 153 L 45 150 L 45 148 L 41 146 L 41 141.5 Q 37 139.5 39 131.5 Q 42 128.3 41 122 Q 44 123.3 43 119.5 Q 45.8 118.4 45 115 L 48 113.5 Q 47.3 110.9 50 112 L 50 110 L 52 110 L 52 108 L 54.5 108 L 59.5 105 L 64.5 104 L 67 101.5 L 61 98.5 L 61 97 L 59 96.5 L 59 87 Q 62 88.3 61 84.5 L 64 78 L 68 77 L 68 75 Q 72.1 76.3 71 73 L 76 73 L 76 71 Q 81.2 72.7 80 69 L 75 67 Q 75.8 63.9 73 64.5 L 73 54.5 L 78 47.5 L 78 45 L 80 45 L 80 41 Q 83 42.3 82 38.5 Q 85.5 36.3 85 31 L 87 31 L 87 27 L 89 27 L 89 24 Q 91.7 25.1 91 22.5 L 92 20 Q 95 21 94 18 Z " /><path fill="rgb(207,219,198)" stroke="rgb(207,219,198)" stroke-width="1" opacity="0.30196078431372547" d="M 100.5 15 L 105 17 Q 104 20 107 19 L 107 21.5 L 110 26.5 L 114 37 L 116 37.5 L 113 39 L 110 30 Q 107 31.3 108 27.5 L 101.5 18 Q 98.2 19.1 99 16.5 L 100.5 15 Z " /><path fill="rgb(207,219,198)" stroke="rgb(207,219,198)" stroke-width="1" opacity="0.30196078431372547" d="M 91.5 16 L 95 16.5 L 88 22.5 L 83 35 Q 80 33.8 81 37.5 L 79 41 Q 75.7 42.1 77 38 L 79 38 L 79 35 L 81 35 L 81 31 L 82.5 31 L 82 29.5 Q 81.3 26.9 84 28 L 84 24 L 86 24 L 86 21 Q 88.7 22.1 88 19.5 L 91.5 16 Z " /><path fill="rgb(207,219,198)" stroke="rgb(207,219,198)" stroke-width="1" opacity="0.30196078431372547" d="M 115 40 Q 118 38.8 117 42.5 L 119 46 Q 122 44.8 121 48.5 Q 124.1 50.3 122.5 52 Q 125.1 51.2 124 54.5 L 125 57.5 L 123.5 57 Q 120.5 57.9 122 53.5 L 117 45.5 L 117 43 Q 113.7 44.1 115 40 Z " /><path fill="rgb(207,219,198)" stroke="rgb(207,219,198)" stroke-width="1" opacity="0.30196078431372547" d="M 76.5 42 Q 78.8 41.3 78 43.5 Q 75.3 44.6 76 48 Q 73 46.8 74 50.5 L 72 55 Q 68.3 56.2 70 51 L 72 51 L 72 47 L 73.5 47 L 76.5 42 Z " /><path fill="rgb(207,219,198)" stroke="rgb(207,219,198)" stroke-width="1" opacity="0.30196078431372547" d="M 124.5 61 L 125 64.5 L 122 66 L 123 68.5 L 122.5 70 L 126 70 L 128 74 L 130.5 74 Q 133.8 75.2 133 79 Q 136 77.8 135 81.5 L 137 85 L 134 83.5 L 134.5 82 Q 132.3 82.8 133 80.5 L 127 76 Q 128.1 73.3 125.5 74 L 122 72 L 121.5 70 L 117 71 Q 115.9 68.3 118.5 69 Q 123 67.6 122 62 L 124.5 61 Z " /><path fill="rgb(207,219,198)" stroke="rgb(207,219,198)" stroke-width="1" opacity="0.30196078431372547" d="M 70.5 64 L 74.5 69 Q 77.1 68.3 76 71 L 73 69.5 Q 73.7 66.5 70 68 L 70.5 64 Z " /><path fill="rgb(207,219,198)" stroke="rgb(207,219,198)" stroke-width="1" opacity="0.30196078431372547" d="M 68 70 Q 73.2 68.3 72 72 L 69 72 Q 70.1 74.7 67.5 74 L 64 76 L 64 78 Q 61.3 76.9 62 79.5 L 58 85.5 Q 58.8 90.3 56.5 92 L 56 84 L 58 84 Q 56.5 80.2 59.5 81 L 59 79.5 L 61.5 76 Q 64.1 76.7 63 74 L 65 74 L 65 72 L 68 72 L 68 70 Z " /><path fill="rgb(207,219,198)" stroke="rgb(207,219,198)" stroke-width="1" opacity="0.30196078431372547" d="M 56 94 Q 59.3 92.7 58 97.5 L 64 101.5 Q 61.3 104.7 56 104 Q 57.3 107 53.5 106 L 46 111 L 42 119 L 40 119.5 L 41 121.5 Q 39.5 124.5 38 121.5 L 40 116 Q 43.3 117.3 42 112.5 L 44 112.5 L 45 109 L 47 109 L 47 107 Q 49.7 108.1 49 105.5 L 50.5 106 L 56 104 Q 54.8 101 58.5 102 L 56 98.5 L 56 94 Z " /><path fill="rgb(207,219,198)" stroke="rgb(207,219,198)" stroke-width="1" opacity="0.30196078431372547" d="M 135.5 97 L 137 100.5 L 136 102.5 L 136.5 104 L 130 101.5 L 133 101 L 133 99 Q 135.8 100 135.5 97 Z " /><path fill="rgb(207,219,198)" stroke="rgb(207,219,198)" stroke-width="1" opacity="0.30196078431372547" d="M 138 104 L 142 104 Q 140.9 106.7 143.5 106 L 147 107 L 147 109 L 151 111 L 151 113.5 Q 156.2 117.1 156 125 L 154 125 L 154 120 L 152 120 L 152 117 Q 149.3 118.1 150 115.5 L 149 113 Q 146.3 114.1 147 111.5 L 140.5 106 L 138 106 L 138 104 Z " /><path fill="rgb(207,219,198)" stroke="rgb(207,219,198)" stroke-width="1" opacity="0.30196078431372547" d="M 37.5 125 Q 40.9 124.1 39 129.5 L 36 131.5 L 37 127.5 Q 34.8 126.2 37.5 125 Z " /><path fill="rgb(207,219,198)" stroke="rgb(207,219,198)" stroke-width="1" opacity="0.30196078431372547" d="M 156 130 L 158 130.5 L 158 142 L 156 141.5 L 156 130 Z " /><path fill="rgb(207,219,198)" stroke="rgb(207,219,198)" stroke-width="1" opacity="0.30196078431372547" d="M 36.5 139 Q 39.8 140.2 39 144 L 36 142.5 L 37 140.5 L 36.5 139 Z " /><path fill="rgb(207,219,198)" stroke="rgb(207,219,198)" stroke-width="1" opacity="0.30196078431372547" d="M 154 143 Q 157.3 141.7 156 146.5 L 153 151 L 151 151 L 151 153 L 149 153 Q 150.1 155.7 147.5 155 L 145 154 Q 143.8 151 147.5 152 L 152 149 L 154 143 Z " /><path fill="rgb(207,219,198)" stroke="rgb(207,219,198)" stroke-width="1" opacity="0.30196078431372547" d="M 38 145 L 48 152 L 47.5 155 L 44.5 152 L 43.5 153 Q 40.9 153.7 42 151 L 40 151 L 40 149 L 38 149 L 38 145 Z " /><path fill="rgb(207,219,198)" stroke="rgb(207,219,198)" stroke-width="1" opacity="0.30196078431372547" d="M 49 154 Q 53.6 152.8 55 155.5 L 49 156 L 49 154 Z " /><path fill="rgb(207,219,198)" stroke="rgb(207,219,198)" stroke-width="1" opacity="0.30196078431372547" d="M 140.5 154 Q 145.3 152.7 144 156 L 139 155.5 L 140.5 154 Z " /><path fill="rgb(207,219,198)" stroke="rgb(207,219,198)" stroke-width="1" opacity="0.30196078431372547" d="M 71.5 155 L 72 159.5 L 70 160.5 Q 69 156 71.5 155 Z " /><path fill="rgb(207,219,198)" stroke="rgb(207,219,198)" stroke-width="1" opacity="0.30196078431372547" d="M 122 156 L 125 156.5 L 122 158 L 122 156 Z " /><path fill="rgb(207,219,198)" stroke="rgb(207,219,198)" stroke-width="1" opacity="0.30196078431372547" d="M 123.5 160 L 125 164.5 L 123.5 164 Q 120.9 164.8 122 161.5 L 123.5 160 Z " /><path fill="rgb(207,219,198)" stroke="rgb(207,219,198)" stroke-width="1" opacity="0.30196078431372547" d="M 124.5 169 L 125 171.5 L 122.5 175 L 120.5 176 L 120 173 L 122 173 Q 120.5 169.2 123.5 170 L 124.5 169 Z " /><path fill="rgb(207,219,198)" stroke="rgb(207,219,198)" stroke-width="1" opacity="0.30196078431372547" d="M 70 172 L 74 174.5 Q 72.8 177.3 71.5 175 Q 68.5 175.7 70 172 Z " /><path fill="rgb(108,70,51)" stroke="rgb(108,70,51)" stroke-width="1" opacity="0.9921568627450981" d="M 73 155 L 119.5 155 L 120 159 L 122 159.5 L 122 170.5 L 119.5 173 L 73 173 L 71 169.5 L 71 164.5 Q 74.4 161.7 73 155 Z " /><path fill="rgb(141,136,110)" stroke="rgb(141,136,110)" stroke-width="1" opacity="0.5137254901960784" d="M 92.5 15 L 100 15.5 L 97.5 17 L 94.5 16 Q 91.5 16.5 92.5 15 Z " /><path fill="rgb(141,136,110)" stroke="rgb(141,136,110)" stroke-width="1" opacity="0.5137254901960784" d="M 89.5 21 L 88.5 23 L 89.5 21 Z " /><path fill="rgb(141,136,110)" stroke="rgb(141,136,110)" stroke-width="1" opacity="0.5137254901960784" d="M 111.5 35 L 112.5 37 L 111.5 35 Z " /><path fill="rgb(141,136,110)" stroke="rgb(141,136,110)" stroke-width="1" opacity="0.5137254901960784" d="M 80.5 38 L 80 39.5 L 78.5 42 L 77 41.5 L 79 41 L 80.5 38 Z " /><path fill="rgb(141,136,110)" stroke="rgb(141,136,110)" stroke-width="1" opacity="0.5137254901960784" d="M 115.5 38 L 116 39.5 L 114 40.5 L 115.5 38 Z " /><path fill="rgb(141,136,110)" stroke="rgb(141,136,110)" stroke-width="1" opacity="0.5137254901960784" d="M 75.5 44 L 78 44.5 L 76.5 46 L 74 45.5 L 75.5 44 Z " /><path fill="rgb(141,136,110)" stroke="rgb(141,136,110)" stroke-width="1" opacity="0.5137254901960784" d="M 70.5 55 L 71 63.5 L 73 65.5 L 70 63.5 L 70.5 55 Z " /><path fill="rgb(141,136,110)" stroke="rgb(141,136,110)" stroke-width="1" opacity="0.5137254901960784" d="M 123.5 57 L 125 60.5 L 123 61.5 L 123.5 57 Z " /><path fill="rgb(141,136,110)" stroke="rgb(141,136,110)" stroke-width="1" opacity="0.5137254901960784" d="M 134.5 84 L 137 85 L 136.5 98 L 136 87.5 L 134.5 84 Z " /><path fill="rgb(141,136,110)" stroke="rgb(141,136,110)" stroke-width="1" opacity="0.5137254901960784" d="M 132.5 100 L 135 101.5 L 133.5 102 L 132.5 100 Z " /><path fill="rgb(141,136,110)" stroke="rgb(141,136,110)" stroke-width="1" opacity="0.5137254901960784" d="M 52.5 104 L 51.5 106 L 50 105.5 L 52.5 104 Z " /><path fill="rgb(141,136,110)" stroke="rgb(141,136,110)" stroke-width="1" opacity="0.5137254901960784" d="M 45.5 113 L 44.5 115 L 45.5 113 Z " /><path fill="rgb(141,136,110)" stroke="rgb(141,136,110)" stroke-width="1" opacity="0.5137254901960784" d="M 38.5 122 Q 41.5 123.5 38.5 125 L 38.5 122 Z " /><path fill="rgb(141,136,110)" stroke="rgb(141,136,110)" stroke-width="1" opacity="0.5137254901960784" d="M 37.5 131 L 38 134 Q 35.3 135.1 36 132.5 L 37.5 131 Z " /><path fill="rgb(141,136,110)" stroke="rgb(141,136,110)" stroke-width="1" opacity="0.5137254901960784" d="M 36 137 Q 39 135.8 38 139.5 L 36 140.5 L 36 138.5 L 36 137 Z " /><path fill="rgb(141,136,110)" stroke="rgb(141,136,110)" stroke-width="1" opacity="0.5137254901960784" d="M 155.5 140 L 156 142.5 L 155 142.5 L 155.5 140 Z " /><path fill="rgb(141,136,110)" stroke="rgb(141,136,110)" stroke-width="1" opacity="0.5137254901960784" d="M 153.5 145 L 152.5 147 L 153.5 145 Z " /><path fill="rgb(141,136,110)" stroke="rgb(141,136,110)" stroke-width="1" opacity="0.5137254901960784" d="M 44.5 152 L 45.5 154 L 44.5 152 Z " /><path fill="rgb(141,136,110)" stroke="rgb(141,136,110)" stroke-width="1" opacity="0.5137254901960784" d="M 48.5 152 Q 51.5 153.5 48.5 155 L 48.5 152 Z " /><path fill="rgb(141,136,110)" stroke="rgb(141,136,110)" stroke-width="1" opacity="0.5137254901960784" d="M 72.5 156 L 73 160.5 Q 70 163.5 71 170.5 L 72.5 173 L 70 172 L 70 161.5 Q 73.3 162.3 72.5 156 Z " /><path fill="rgb(141,136,110)" stroke="rgb(141,136,110)" stroke-width="1" opacity="0.5137254901960784" d="M 120.5 156 Q 123.5 156.5 123 160.5 L 122 160.5 L 120.5 156 Z " /><path fill="rgb(141,136,110)" stroke="rgb(141,136,110)" stroke-width="1" opacity="0.5137254901960784" d="M 123.5 164 Q 125.8 164.8 125 168.5 L 123 169.5 L 123.5 164 Z " /><path fill="rgb(141,136,110)" stroke="rgb(141,136,110)" stroke-width="1" opacity="0.5137254901960784" d="M 74 173 L 76.5 174 L 117.5 174 L 120 173 L 119.5 176 L 73.5 176 L 74 174.5 L 74 173 Z " /></svg>