<svg width="200" height="200" version="1.1" xmlns="http://www.w3.org/2000/svg" desc="Created with imagetracer.js version 1.2.6" ><path fill="rgb(188,188,188)" stroke="rgb(188,188,188)" stroke-width="1" opacity="0.18823529411764706" d="M 83.5 18 Q 88 17 89 19.5 L 89 21 L 91 21 Q 89.9 23.7 92.5 23 Q 97 24.4 96 30 L 98 30 Q 96.9 32.7 99.5 32 Q 102 33.2 101 37 L 103 37 L 103 42 Q 106 41 105 44 L 108 44 L 108 48.5 Q 111 47.5 110 52.5 L 112 56 Q 116.5 54.3 115 59.5 Q 118 60.8 117 65 Q 119.7 63.9 119 66.5 L 122 68 L 122 70 L 124 70 Q 122.9 72.7 125.5 72 L 127 75 L 129 75 L 129 77 L 131 77 Q 129.9 79.7 132.5 79 L 134 82 Q 139.6 80.1 138 85 L 130 82 L 130 80 L 128 80 Q 129.1 77.3 126.5 78 L 124 77 L 124 75 Q 121.3 76.1 122 73.5 L 121 71 L 119 71 L 119 68 Q 116.3 69.1 117 66.5 L 116 64 L 114 64 Q 115.3 59.9 112 61 L 112 57 Q 109 58.3 110 54.5 Q 106.3 53.3 107 49 L 105 49 L 105 45 Q 102.3 46.1 103 43.5 L 102 40 L 100 40 L 100 37 Q 97 38.3 98 34.5 L 95 33 L 95 30 L 93 30 L 93 26 Q 90.3 27.1 91 24.5 L 88 23 Q 89.3 20 85.5 21 L 83.5 18 Z " /><path fill="rgb(188,188,188)" stroke="rgb(188,188,188)" stroke-width="1" opacity="0.18823529411764706" d="M 64 26 L 67 27.5 L 67 31 Q 70 29.8 69 33.5 Q 73 34.9 72 40 L 76 42 L 76 45 Q 78.7 43.9 78 46.5 L 79 49 L 81 49 L 81 52 Q 83.7 50.9 83 53.5 L 84 56 L 86 56 L 86 59 Q 89.3 57.9 88 62 L 85 60.5 L 81 55.5 L 80 52 L 76 50 L 76 45 L 74.5 45 L 71 43 L 71 38 L 69 38 Q 70.1 35.3 67.5 36 Q 65 34.8 66 31 L 64 31 L 64 26 Z " /><path fill="rgb(188,188,188)" stroke="rgb(188,188,188)" stroke-width="1" opacity="0.18823529411764706" d="M 87.5 63 Q 91.3 61.8 90 65.5 L 91 68 Q 94.3 66.9 93 71 Q 88.5 72.8 90 67.5 L 87.5 63 Z " /><path fill="rgb(188,188,188)" stroke="rgb(188,188,188)" stroke-width="1" opacity="0.18823529411764706" d="M 19.5 67 L 25 67.5 Q 23.3 71.5 17 70 Q 15.9 67.3 18.5 68 L 19.5 67 Z " /><path fill="rgb(188,188,188)" stroke="rgb(188,188,188)" stroke-width="1" opacity="0.18823529411764706" d="M 29 68 L 32 68 L 32 70 L 35 70 Q 34 73 37 72 L 37 77.5 L 34 75.5 Q 35.9 70.1 32.5 71 L 29 70 L 29 68 Z " /><path fill="rgb(188,188,188)" stroke="rgb(188,188,188)" stroke-width="1" opacity="0.18823529411764706" d="M 12 70 Q 16.5 68.5 15 73 Q 10.5 74.5 12 70 Z " /><path fill="rgb(188,188,188)" stroke="rgb(188,188,188)" stroke-width="1" opacity="0.18823529411764706" d="M 92 73 L 95 73 L 95 78 L 92 78 L 92 73 Z " /><path fill="rgb(188,188,188)" stroke="rgb(188,188,188)" stroke-width="1" opacity="0.18823529411764706" d="M 12.5 75 L 15 76 L 15 81 L 13.5 81 Q 10.6 79.6 12.5 75 Z " /><path fill="rgb(188,188,188)" stroke="rgb(188,188,188)" stroke-width="1" opacity="0.18823529411764706" d="M 37 79 Q 39.7 77.9 39 80.5 L 40 84 L 42 84 L 42 89 Q 45 88 44 91 L 55.5 91 L 55.5 92 L 51.5 94 L 47.5 94 Q 46.1 90.8 41 92 Q 42 87.8 39 88.5 L 39 83 L 37 83 L 37 79 Z " /><path fill="rgb(188,188,188)" stroke="rgb(188,188,188)" stroke-width="1" opacity="0.18823529411764706" d="M 94.5 81 L 95 85 Q 92 84 93 87 L 90 87 L 90 84 L 92 84 Q 90.9 81.3 93.5 82 L 94.5 81 Z " /><path fill="rgb(188,188,188)" stroke="rgb(188,188,188)" stroke-width="1" opacity="0.18823529411764706" d="M 15.5 83 Q 18 84.2 17 88 Q 12.9 89.2 15.5 83 Z " /><path fill="rgb(188,188,188)" stroke="rgb(188,188,188)" stroke-width="1" opacity="0.18823529411764706" d="M 140 84 L 145 84 L 145 87 L 140 87 L 140 84 Z " /><path fill="rgb(188,188,188)" stroke="rgb(188,188,188)" stroke-width="1" opacity="0.18823529411764706" d="M 83 86 L 88 86 L 88 89 L 83 89 L 83 86 Z " /><path fill="rgb(188,188,188)" stroke="rgb(188,188,188)" stroke-width="1" opacity="0.18823529411764706" d="M 154.5 86 L 165.5 86 L 167 87.5 L 166.5 89 L 156.5 89 L 154.5 86 Z " /><path fill="rgb(188,188,188)" stroke="rgb(188,188,188)" stroke-width="1" opacity="0.18823529411764706" d="M 71 89 L 77 89.5 L 72.5 92 L 71 89 Z " /><path fill="rgb(188,188,188)" stroke="rgb(188,188,188)" stroke-width="1" opacity="0.18823529411764706" d="M 183.5 89 Q 189.8 87.1 188 92 Q 183.5 92.7 183.5 89 Z " /><path fill="rgb(188,188,188)" stroke="rgb(188,188,188)" stroke-width="1" opacity="0.18823529411764706" d="M 17.5 90 L 18 92 Q 21 91 20 94 L 11 97.5 Q 11.7 100.5 8 99 L 8 96 L 12 96 L 12 94.5 L 15 93 Q 13.9 90.3 16.5 91 L 17.5 90 Z " /><path fill="rgb(188,188,188)" stroke="rgb(188,188,188)" stroke-width="1" opacity="0.18823529411764706" d="M 189 91 Q 193.1 89.7 192 93 L 195.5 93 Q 198.3 94.4 197 99 L 194 97.5 Q 194.7 94.9 192 96 L 192 94 L 189 94 L 189 91 Z " /><path fill="rgb(188,188,188)" stroke="rgb(188,188,188)" stroke-width="1" opacity="0.18823529411764706" d="M 8 101 L 11 102.5 Q 11.7 105.5 8 104 L 8 101 Z " /><path fill="rgb(188,188,188)" stroke="rgb(188,188,188)" stroke-width="1" opacity="0.18823529411764706" d="M 195.5 101 Q 198.9 100.1 197 105.5 Q 195.8 108 192 107 Q 193.1 110.3 189 109 L 189 106 L 192 106 L 192 104 Q 194.7 105.1 194 102.5 L 195.5 101 Z " /><path fill="rgb(188,188,188)" stroke="rgb(188,188,188)" stroke-width="1" opacity="0.18823529411764706" d="M 12 104 L 15 104 Q 13.9 107.3 18 106 L 18 109 L 15 109 Q 16.1 106.3 13.5 107 L 12 104 Z " /><path fill="rgb(188,188,188)" stroke="rgb(188,188,188)" stroke-width="1" opacity="0.18823529411764706" d="M 41 108 Q 45.5 106.5 44 111 L 42 111 L 42 116 L 40 116 L 40 121.5 L 37 123 L 37 128 Q 33.3 126.8 35 132 L 32.5 132 L 30 133 Q 28.5 129.3 31.5 130 L 34 129 L 34 124.5 L 37 118 L 39 118 L 39 113.5 Q 42.5 114.3 41 108 Z " /><path fill="rgb(188,188,188)" stroke="rgb(188,188,188)" stroke-width="1" opacity="0.18823529411764706" d="M 67.5 108 L 72 110.5 L 67.5 111 Q 64.5 109.5 67.5 108 Z " /><path fill="rgb(188,188,188)" stroke="rgb(188,188,188)" stroke-width="1" opacity="0.18823529411764706" d="M 185.5 108 L 188 109.5 Q 188.9 112.9 183.5 111 L 185.5 108 Z " /><path fill="rgb(188,188,188)" stroke="rgb(188,188,188)" stroke-width="1" opacity="0.18823529411764706" d="M 83 111 L 88 112 Q 89.3 115.3 84.5 114 L 83 111 Z " /><path fill="rgb(188,188,188)" stroke="rgb(188,188,188)" stroke-width="1" opacity="0.18823529411764706" d="M 147 111 L 170.5 111 L 171 114 L 146 113.5 L 147 111 Z " /><path fill="rgb(188,188,188)" stroke="rgb(188,188,188)" stroke-width="1" opacity="0.18823529411764706" d="M 15 112 Q 18.7 110.7 17 116.5 L 15 117.5 L 15 112 Z " /><path fill="rgb(188,188,188)" stroke="rgb(188,188,188)" stroke-width="1" opacity="0.18823529411764706" d="M 90 113 Q 97.5 110.3 95 118.5 L 93.5 118 Q 90.9 118.7 92 116 L 90 116 L 90 113 Z " /><path fill="rgb(188,188,188)" stroke="rgb(188,188,188)" stroke-width="1" opacity="0.18823529411764706" d="M 135 113 Q 139.5 111.5 138 116 L 134 116 Q 135.1 119.3 131 118 L 131 121 L 129 121 L 127 125 L 124 125 L 124 130 L 122 130 L 122 132 Q 119.3 130.9 120 133.5 L 117 135 L 115 144 L 112 144 L 112 147 L 110 147 L 110 151 Q 107.3 149.9 108 152.5 L 105 154 Q 106.3 159.3 103 158.5 L 103 163 Q 100 162 101 165 L 98 165 L 98 170 L 94 172 L 94 175.5 L 91 177 Q 92 180 89 179 L 89 182 L 86 182 L 86 179 Q 88.7 180.1 88 177.5 L 91 176 Q 90 173 93 174 L 93 169 Q 95.7 170.1 95 167.5 L 96 165 L 98 165 L 98 162 L 100 162 L 100 158 Q 102.7 159.1 102 156.5 L 105 151 Q 108.3 152.3 107 147.5 L 110 146 L 112 139 L 114 139 L 114 136 Q 116.7 137.1 116 134.5 L 117 132 L 119 132 L 119 129 Q 121.7 130.1 121 127.5 L 122 125 L 124 125 L 124 122 L 126 122 L 126 120 L 128 120 Q 126.9 117.3 129.5 118 L 131 115 Q 136.2 116.7 135 113 Z " /><path fill="rgb(188,188,188)" stroke="rgb(188,188,188)" stroke-width="1" opacity="0.18823529411764706" d="M 13.5 119 L 15 119.5 L 15 125 Q 12 124 13 127 L 15 127 Q 13.9 129.7 16.5 129 L 20.5 130 L 23 132.5 L 18.5 133 L 15 132 Q 16.1 129.3 13.5 130 L 12 128.5 L 12 120.5 L 13.5 119 Z " /><path fill="rgb(188,188,188)" stroke="rgb(188,188,188)" stroke-width="1" opacity="0.18823529411764706" d="M 92 122 L 95 122 L 95 127 L 93 127 L 93 131.5 L 91 132 L 91 134.5 Q 87.4 136.4 88 141 Q 85 139.8 86 143.5 L 83 148 L 81 148 Q 82.3 152.1 79 151 L 79 155 L 76 155 Q 77.3 159.1 74 158 L 74 162 Q 70.7 160.9 72 165 L 69 165 Q 68 160.8 71 161.5 L 71 157 Q 74 158 73 155 L 76 155 L 76 152 L 78 152 L 78 148 Q 80.7 149.1 80 146.5 L 83 145 L 83 141 L 85 141 L 85 138 Q 87.7 139.1 87 136.5 L 88 133 L 90 133 Q 88.3 127.8 92 129 L 92 122 Z " /><path fill="rgb(188,188,188)" stroke="rgb(188,188,188)" stroke-width="1" opacity="0.18823529411764706" d="M 67.5 166 Q 70.5 165.2 69 169 L 67 169 L 67 174 L 64 174 L 64 169 Q 66.7 170.1 66 167.5 L 67.5 166 Z " /><path fill="rgb(188,188,188)" stroke="rgb(188,188,188)" stroke-width="1" opacity="0.18823529411764706" d="M 64.5 179 L 65 181 L 67 181.5 L 65.5 182 L 64.5 179 Z " /><path fill="rgb(82,82,82)" stroke="rgb(82,82,82)" stroke-width="1" opacity="0.7529411764705882" d="M 64 18 Q 68.5 16.5 67 21 Q 62.5 22.5 64 18 Z " /><path fill="rgb(82,82,82)" stroke="rgb(82,82,82)" stroke-width="1" opacity="0.7529411764705882" d="M 79.5 18 Q 84.3 17.3 85 20.5 L 81 21 Q 82.1 18.3 79.5 19 L 79.5 18 Z " /><path fill="rgb(82,82,82)" stroke="rgb(82,82,82)" stroke-width="1" opacity="0.7529411764705882" d="M 86 21 L 88 21 Q 86.9 23.7 89.5 23 L 91 26 Q 94 25 93 28 L 91 28 Q 92.1 25.3 89.5 26 L 88 23 Q 85 24 86 21 Z " /><path fill="rgb(82,82,82)" stroke="rgb(82,82,82)" stroke-width="1" opacity="0.7529411764705882" d="M 64.5 23 L 67 24 L 66.5 27 L 64 26 L 64.5 23 Z " /><path fill="rgb(82,82,82)" stroke="rgb(82,82,82)" stroke-width="1" opacity="0.7529411764705882" d="M 67.5 28 L 70 33 Q 73 31.8 72 35.5 L 69 33.5 Q 70 29.8 67 31 L 67.5 28 Z " /><path fill="rgb(82,82,82)" stroke="rgb(82,82,82)" stroke-width="1" opacity="0.7529411764705882" d="M 95 33 L 98 34.5 L 98 37 L 100 37 L 100 40 Q 103 38.8 102 42.5 L 103 45 L 105 45 L 105 49 Q 108 47.8 107 51.5 Q 110.7 52.7 110 57 L 112 57 L 112 61 Q 115 60 114 63 Q 111.3 64.1 112 61.5 L 109 57.5 L 109 55 L 107 55 L 107 52 Q 104 53.3 105 49.5 L 104 47 L 102 47 L 102 43 L 100 43 L 100 40 Q 97.3 41.1 98 38.5 L 97 35 Q 94 36 95 33 Z " /><path fill="rgb(82,82,82)" stroke="rgb(82,82,82)" stroke-width="1" opacity="0.7529411764705882" d="M 72 37 L 74 37 L 74 40 Q 76.7 38.9 76 41.5 L 77 44 L 79 44 L 79 47 Q 81.7 45.9 81 48.5 L 84 54 Q 87 53 86 56 Q 83.3 57.1 84 54.5 L 83 52 L 81 52 L 81 49 Q 78.3 50.1 79 47.5 L 78 45 L 76 45 L 76 42 L 72 40 L 72 37 Z " /><path fill="rgb(82,82,82)" stroke="rgb(82,82,82)" stroke-width="1" opacity="0.7529411764705882" d="M 86 57 Q 88.7 55.9 88 58.5 L 89 61 Q 92.3 59.7 91 64.5 L 93 68 Q 90.3 69.1 91 66.5 L 90 63 L 88 63 L 88 59 Q 85 60 86 57 Z " /><path fill="rgb(82,82,82)" stroke="rgb(82,82,82)" stroke-width="1" opacity="0.7529411764705882" d="M 114 64 Q 116.7 62.9 116 65.5 L 117 68 L 119 68 L 119 71 Q 121.7 69.9 121 72.5 L 122 75 L 124 75 Q 122.9 77.7 125.5 77 L 128 78 L 130 82 L 132.5 82 L 136 84.5 L 133 85 Q 134.3 82 130.5 83 L 128 82 L 128 80 Q 125 81 126 78 L 123 78 L 123 76.5 L 121 73 Q 118.3 74.1 119 71.5 Q 115.3 70.3 116 66 Q 113 67 114 64 Z " /><path fill="rgb(82,82,82)" stroke="rgb(82,82,82)" stroke-width="1" opacity="0.7529411764705882" d="M 24.5 68 L 28.5 68 L 29 70 L 31.5 70 L 34 71 Q 35.7 76.2 32 75 L 31.5 71 L 18.5 71 L 15 73 L 16 79.5 L 18 82.5 L 18 87 L 20 87 L 20 92 Q 17.3 93.1 18 90.5 Q 15.7 89.2 17 84.5 L 15 82.5 L 15 76 L 12 74.5 Q 11.3 71.5 15 73 L 15 70 L 22.5 70 L 24.5 68 Z " /><path fill="rgb(82,82,82)" stroke="rgb(82,82,82)" stroke-width="1" opacity="0.7529411764705882" d="M 93.5 70 Q 96.1 69.2 95 72.5 L 98 83.5 L 95 85 Q 96 88 93 87 Q 92.3 83.9 95 84.5 L 95 73 Q 91.3 74.5 92 71.5 L 93.5 70 Z " /><path fill="rgb(82,82,82)" stroke="rgb(82,82,82)" stroke-width="1" opacity="0.7529411764705882" d="M 34.5 76 Q 38.3 77.5 37 83 Q 40.7 81.8 39 87 Q 36.3 88.1 37 85.5 L 36 80 Q 32.2 81.2 34.5 76 Z " /><path fill="rgb(82,82,82)" stroke="rgb(82,82,82)" stroke-width="1" opacity="0.7529411764705882" d="M 138 84 Q 141.3 82.9 140 87 Q 136.7 88.1 138 84 Z " /><path fill="rgb(82,82,82)" stroke="rgb(82,82,82)" stroke-width="1" opacity="0.7529411764705882" d="M 88 86 L 91 87.5 Q 91.8 89.8 89.5 89 Q 88.3 91.3 83.5 90 L 83.5 89 Q 89.8 90.9 88 86 Z " /><path fill="rgb(82,82,82)" stroke="rgb(82,82,82)" stroke-width="1" opacity="0.7529411764705882" d="M 145 86 L 153.5 86 L 156.5 89 L 166 89.5 L 152.5 90 Q 151.3 87.8 146.5 89 L 145 87.5 L 145 86 Z " /><path fill="rgb(82,82,82)" stroke="rgb(82,82,82)" stroke-width="1" opacity="0.7529411764705882" d="M 39 89 Q 42.3 87.9 41 92 Q 37.7 93.1 39 89 Z " /><path fill="rgb(82,82,82)" stroke="rgb(82,82,82)" stroke-width="1" opacity="0.7529411764705882" d="M 77.5 89 Q 82.8 87.5 81 92 L 74 91.5 L 77.5 89 Z " /><path fill="rgb(82,82,82)" stroke="rgb(82,82,82)" stroke-width="1" opacity="0.7529411764705882" d="M 180 89 Q 183.8 88.3 185 91.5 L 180 92 L 180 89 Z " /><path fill="rgb(82,82,82)" stroke="rgb(82,82,82)" stroke-width="1" opacity="0.7529411764705882" d="M 56.5 91 L 64 91.5 L 63 94 L 52 93.5 L 56.5 91 Z " /><path fill="rgb(82,82,82)" stroke="rgb(82,82,82)" stroke-width="1" opacity="0.7529411764705882" d="M 188.5 91 L 189 94 Q 186.3 95.1 187 92.5 L 188.5 91 Z " /><path fill="rgb(82,82,82)" stroke="rgb(82,82,82)" stroke-width="1" opacity="0.7529411764705882" d="M 42 92 Q 45.8 91 47 93.5 L 42 94 L 42 92 Z " /><path fill="rgb(82,82,82)" stroke="rgb(82,82,82)" stroke-width="1" opacity="0.7529411764705882" d="M 17.5 94 L 18 97 L 13 97 Q 14 100 11 99 L 12.5 96 Q 16.8 96.8 17.5 94 Z " /><path fill="rgb(82,82,82)" stroke="rgb(82,82,82)" stroke-width="1" opacity="0.7529411764705882" d="M 190.5 94 L 193.5 96 L 193.5 97 L 190.5 94 Z " /><path fill="rgb(82,82,82)" stroke="rgb(82,82,82)" stroke-width="1" opacity="0.7529411764705882" d="M 194.5 98 L 197 99 Q 198.1 101.7 195.5 101 L 194 101.5 L 194.5 98 Z " /><path fill="rgb(82,82,82)" stroke="rgb(82,82,82)" stroke-width="1" opacity="0.7529411764705882" d="M 8 99 Q 11 98 10 101 L 13 101 L 13 103 L 15.5 103 L 20 106 L 20 112.5 L 18 113.5 L 18 119.5 L 15 127 Q 18.1 126.3 17.5 129 L 27.5 129 L 29.5 129 Q 32.8 130.1 32 127.5 L 33.5 125 L 34 129 L 30 130 L 29.5 132 L 22.5 132 L 20.5 130 L 15 129 L 13 125 Q 16.5 126.1 15 118.5 L 17 116.5 Q 16.3 109.5 18 106 L 15 106 L 15 104 L 11 104 L 11 102.5 L 8 101 L 8 99 Z " /><path fill="rgb(82,82,82)" stroke="rgb(82,82,82)" stroke-width="1" opacity="0.7529411764705882" d="M 192.5 103 L 194 103.5 L 192 104 Q 193.1 106.7 190.5 106 L 192.5 103 Z " /><path fill="rgb(82,82,82)" stroke="rgb(82,82,82)" stroke-width="1" opacity="0.7529411764705882" d="M 43 106 L 52.5 106 L 53 108 L 54.5 108 L 54.5 109 L 44.5 109 L 43 107.5 L 43 106 Z " /><path fill="rgb(82,82,82)" stroke="rgb(82,82,82)" stroke-width="1" opacity="0.7529411764705882" d="M 187 106 Q 190.3 104.9 189 109 Q 185.7 110.1 187 106 Z " /><path fill="rgb(82,82,82)" stroke="rgb(82,82,82)" stroke-width="1" opacity="0.7529411764705882" d="M 39 108 L 41 108 L 41 113 L 39 113 L 39 118 Q 36.3 116.9 37 119.5 L 34.5 124 L 34 120 L 36 120 L 36 115 Q 38.7 116.1 38 113.5 L 39 108 Z " /><path fill="rgb(82,82,82)" stroke="rgb(82,82,82)" stroke-width="1" opacity="0.7529411764705882" d="M 69.5 108 Q 76.3 106.2 78 109.5 Q 78.6 112.3 72.5 111 L 69.5 108 Z " /><path fill="rgb(82,82,82)" stroke="rgb(82,82,82)" stroke-width="1" opacity="0.7529411764705882" d="M 182.5 108 L 185 108.5 Q 183.8 111.8 180 111 Q 178.9 108.3 181.5 109 L 182.5 108 Z " /><path fill="rgb(82,82,82)" stroke="rgb(82,82,82)" stroke-width="1" opacity="0.7529411764705882" d="M 83.5 110 L 91 111 L 89.5 114 L 86.5 112 L 83.5 111 L 83.5 110 Z " /><path fill="rgb(82,82,82)" stroke="rgb(82,82,82)" stroke-width="1" opacity="0.7529411764705882" d="M 145.5 110 L 171 110.5 L 147 111 L 145.5 114 L 139 113.5 L 140 111 L 145.5 110 Z " /><path fill="rgb(82,82,82)" stroke="rgb(82,82,82)" stroke-width="1" opacity="0.7529411764705882" d="M 95.5 113 Q 98.6 114.4 98 119.5 L 96 122.5 L 95 130 Q 91.7 131.1 93 127 L 95 126.5 L 95.5 113 Z " /><path fill="rgb(82,82,82)" stroke="rgb(82,82,82)" stroke-width="1" opacity="0.7529411764705882" d="M 133 113 Q 136 112 135 115 Q 132 116 133 113 Z " /><path fill="rgb(82,82,82)" stroke="rgb(82,82,82)" stroke-width="1" opacity="0.7529411764705882" d="M 129.5 115 Q 131.8 114.3 131 116.5 L 128 118 L 128 120 L 124 122 L 124 125 Q 121.3 123.9 122 126.5 L 121 129 L 119 129 L 119 132 Q 116.3 130.9 117 133.5 L 116 136 Q 113 137 114 134 Q 117 135.3 116 131.5 L 119 127 L 121 127 L 121 124 Q 123.7 125.1 123 122.5 L 124 120 L 126 120 L 126 118 Q 128.7 119.1 128 116.5 L 129.5 115 Z " /><path fill="rgb(82,82,82)" stroke="rgb(82,82,82)" stroke-width="1" opacity="0.7529411764705882" d="M 91 132 Q 94 130.8 93 134.5 Q 90.3 135.6 91 139 Q 88.3 137.9 89 140.5 L 88 144 L 84 146 L 84 148.5 L 83 151 L 79 153 L 79 151 L 81 151 L 81 148 Q 83.7 149.1 83 146.5 Q 86.8 145.3 86 141 Q 89 142.3 88 138.5 Q 91.6 136.6 91 132 Z " /><path fill="rgb(82,82,82)" stroke="rgb(82,82,82)" stroke-width="1" opacity="0.7529411764705882" d="M 112 137 Q 115 136 114 139 Q 111 137.8 112 141.5 Q 109.3 142.6 110 146 L 107.5 147 L 107 145.5 Q 109.8 144.4 109 141 Q 111.7 142.1 111 139.5 L 112 137 Z " /><path fill="rgb(82,82,82)" stroke="rgb(82,82,82)" stroke-width="1" opacity="0.7529411764705882" d="M 105 148 Q 108.3 146.9 107 151 Q 104.3 149.9 105 152.5 L 102 158 Q 99 159 100 156 L 102 156 L 102 153 Q 105 154.3 104 150.5 L 105 148 Z " /><path fill="rgb(82,82,82)" stroke="rgb(82,82,82)" stroke-width="1" opacity="0.7529411764705882" d="M 76 155 Q 80.1 153.7 79 157 Q 75.7 155.9 77 160 L 74 160 Q 73 157 76 158 L 76 155 Z " /><path fill="rgb(82,82,82)" stroke="rgb(82,82,82)" stroke-width="1" opacity="0.7529411764705882" d="M 98 160 Q 101 159 100 162 L 98 162 L 98 165 Q 95.3 163.9 96 166.5 L 95 169 Q 92 170 93 167 L 95 167 L 95 164 Q 97.7 165.1 97 162.5 L 98 160 Z " /><path fill="rgb(82,82,82)" stroke="rgb(82,82,82)" stroke-width="1" opacity="0.7529411764705882" d="M 72 162 Q 75 161 74 164 Q 71 165 72 162 Z " /><path fill="rgb(82,82,82)" stroke="rgb(82,82,82)" stroke-width="1" opacity="0.7529411764705882" d="M 69 165 Q 73.1 163.7 72 167 Q 69 165.8 70 169.5 L 69 172 Q 65.7 173.1 67 169 Q 70.7 170.2 69 165 Z " /><path fill="rgb(82,82,82)" stroke="rgb(82,82,82)" stroke-width="1" opacity="0.7529411764705882" d="M 92.5 170 L 93 174 L 91 174 Q 92.1 176.7 89.5 176 L 88 176.5 L 88 174 Q 90.7 175.1 90 172.5 L 92.5 170 Z " /><path fill="rgb(82,82,82)" stroke="rgb(82,82,82)" stroke-width="1" opacity="0.7529411764705882" d="M 64 174 Q 67.8 172.5 67 175.5 L 64 177 L 64 174 Z " /><path fill="rgb(82,82,82)" stroke="rgb(82,82,82)" stroke-width="1" opacity="0.7529411764705882" d="M 64.5 178 L 67 179.5 Q 67.7 182.1 65 181 L 64.5 178 Z " /><path fill="rgb(82,82,82)" stroke="rgb(82,82,82)" stroke-width="1" opacity="0.7529411764705882" d="M 86.5 178 L 88 178.5 L 86 179 Q 87.5 183.5 83 182 Q 81.3 177.9 85.5 179 L 86.5 178 Z " /><path fill="rgb(0,0,0)" stroke="rgb(0,0,0)" stroke-width="1" opacity="0" d="M 0 0 L 200 0 L 200 200 L 0 200 L 0 0 Z M 64 18 L 65 22 L 64 24 L 64 31 L 66 31 Q 65 35 68 36 Q 70 35 69 38 L 71 38 L 71 43 L 75 45 L 76 45 L 76 50 L 80 52 L 81 56 L 85 61 L 88 62 L 87 64 L 90 68 Q 89 73 92 72 L 92 78 L 95 78 L 94 82 Q 91 81 92 84 L 90 84 L 90 86 L 83 86 L 83 90 L 81 89 L 72 89 L 71 92 L 65 92 L 64 91 L 45 91 Q 45 88 42 89 L 42 84 L 40 84 L 39 81 L 39 79 L 37 79 L 37 72 Q 34 73 35 70 L 32 70 L 32 68 L 26 68 L 25 67 Q 20 66 19 68 Q 16 67 17 70 L 12 70 L 12 80 L 14 81 L 15 82 L 15 88 L 17 88 L 17 91 Q 14 90 15 93 L 12 95 L 12 96 L 8 96 L 8 104 L 12 104 L 14 107 Q 16 106 15 109 L 17 109 Q 18 113 15 113 L 15 119 L 12 121 L 12 129 L 14 130 Q 16 129 15 132 L 19 133 L 24 132 Q 29 131 31 133 L 33 132 L 35 132 Q 33 127 37 128 L 37 123 L 40 122 L 40 116 L 42 116 L 42 111 Q 45 112 44 109 L 66 108 L 68 111 L 78 111 L 83 110 L 85 114 L 90 114 L 92 118 L 95 120 Q 96 124 92 122 L 92 129 Q 88 128 90 133 L 88 133 L 87 137 Q 88 139 85 138 L 85 141 L 83 141 L 83 145 L 80 147 Q 81 149 78 148 L 78 152 L 76 152 L 76 155 L 73 155 Q 74 158 71 157 L 71 162 Q 68 161 69 166 L 66 168 L 66 169 L 64 170 L 64 177 L 64 179 L 66 182 L 68 181 L 83 181 L 84 182 L 89 182 L 89 179 Q 92 180 91 177 L 94 176 L 94 172 L 98 170 L 98 165 L 101 165 Q 100 162 103 163 L 103 159 Q 106 159 105 154 L 108 153 Q 107 150 110 151 L 110 147 L 112 147 L 112 144 L 115 144 L 117 135 L 120 134 Q 119 131 122 132 L 122 130 L 124 130 L 124 125 L 127 125 L 129 121 L 131 121 L 131 118 L 134 118 L 134 116 L 138 116 L 138 114 L 140 114 L 171 114 L 171 110 L 180 110 L 181 111 L 188 111 Q 187 107 192 109 L 192 107 Q 196 108 197 106 L 197 95 L 196 93 L 193 93 Q 193 90 188 91 L 188 89 L 181 89 L 180 90 L 167 90 L 167 89 L 166 86 L 146 86 L 145 84 L 139 84 Q 139 81 134 82 L 133 79 Q 130 80 131 77 L 129 77 L 129 75 L 127 75 L 126 72 Q 123 73 124 70 L 122 70 L 122 68 L 119 67 Q 120 64 117 65 Q 118 61 115 60 Q 117 54 112 56 L 110 53 Q 111 48 108 49 L 108 44 L 105 44 Q 106 41 103 42 L 103 37 L 101 37 Q 102 33 100 32 Q 97 33 98 30 L 96 30 Q 97 24 93 23 Q 90 24 91 21 L 89 21 L 88 18 L 80 18 L 79 19 Q 69 20 64 18 Z " /><path fill="rgb(0,0,0)" stroke="rgb(0,0,0)" stroke-width="1" opacity="0.9921568627450981" d="M 67 19 L 80.5 19 Q 79.7 22.5 86 21 L 86 23 Q 88.7 21.9 88 24.5 L 91 26 Q 90 29 93 28 L 93 31 L 95 31 L 95 35 L 96.5 35 L 96.5 36 L 94 36 Q 95 33 92 34 L 92 29 L 90 29 Q 91.1 26.3 88.5 27 L 87 24 Q 83.9 24.8 84.5 22 L 68 22 L 68 26.5 Q 71 25.5 70 30.5 L 69 30.5 Q 66.2 28.5 67 24 Q 63.7 25.1 65 21 Q 68 22 67 19 Z " /><path fill="rgb(0,0,0)" stroke="rgb(0,0,0)" stroke-width="1" opacity="0.9921568627450981" d="M 70.5 32 Q 73.8 30.9 73 33.5 Q 76 34.8 75 39 L 77 39 Q 75.9 41.7 78.5 41 Q 81 42.2 80 46 Q 82.7 44.9 82 47.5 L 84 51.5 L 82 50.5 L 81 47 L 79 47 L 79 44 Q 76.3 45.1 77 42.5 L 76 40 L 74 40 L 74 37 L 72 37 L 72 33 L 70.5 33 L 70.5 32 Z " /><path fill="rgb(0,0,0)" stroke="rgb(0,0,0)" stroke-width="1" opacity="0.9921568627450981" d="M 97.5 38 L 98 40 L 100 40 L 100 43 L 102 43 L 102 47 L 103.5 47 L 103.5 48 L 99 44.5 L 99 41.5 Q 95.8 42.3 97.5 38 Z " /><path fill="rgb(0,0,0)" stroke="rgb(0,0,0)" stroke-width="1" opacity="0.9921568627450981" d="M 104.5 49 L 105 52 L 107 52 L 107 55 Q 110 53.8 109 57.5 L 110.5 60 L 108 58.5 Q 108.7 55.9 106 57 L 106 53.5 Q 102.9 52.4 104.5 49 Z " /><path fill="rgb(0,0,0)" stroke="rgb(0,0,0)" stroke-width="1" opacity="0.9921568627450981" d="M 84.5 53 L 87 54.5 L 87 56 L 89 56 Q 87.9 58.7 90.5 58 Q 93 59.2 92 63 Q 95.3 61.7 94 66.5 Q 97 67.5 96 72.5 L 95 72.5 Q 96 68.8 93 70 L 93 66.5 Q 90 65.3 91 61 Q 88.3 62.1 89 59.5 L 88 57 L 86 57 Q 87.5 53.2 84.5 54 L 84.5 53 Z " /><path fill="rgb(0,0,0)" stroke="rgb(0,0,0)" stroke-width="1" opacity="0.9921568627450981" d="M 111.5 61 L 112 63 L 114 63 L 114 66 Q 117 64.8 116 68.5 L 119 73 Q 121.7 71.9 121 74.5 L 121.5 76 L 120 76 L 120 74 Q 117.3 75.1 118 72.5 L 116 69 L 113 69 L 113 64.5 Q 109.8 65.3 111.5 61 Z " /><path fill="rgb(0,0,0)" stroke="rgb(0,0,0)" stroke-width="1" opacity="0.9921568627450981" d="M 18.5 71 L 32 71 L 32 75 L 34 75 L 34 79.5 Q 37 78.8 36 83 L 33 83 L 33 76 L 31 76 Q 32.1 73.3 29.5 74 Q 27.6 70.3 21 72 L 21 74 L 16 74 L 16 75.5 L 15 75.5 Q 13.9 72.2 16.5 73 L 18.5 71 Z " /><path fill="rgb(0,0,0)" stroke="rgb(0,0,0)" stroke-width="1" opacity="0.9921568627450981" d="M 96 74 L 99 75.5 L 99 84.5 L 97.5 86 Q 94.9 85.3 96 88 L 94 88 L 94 90 L 89.5 90 L 89.5 89 Q 92.1 89.7 91 87 L 95 87 Q 93.9 84.3 96.5 85 Q 98.8 84.3 98 80.5 Q 95.2 78.5 96 74 Z " /><path fill="rgb(0,0,0)" stroke="rgb(0,0,0)" stroke-width="1" opacity="0.9921568627450981" d="M 16 77 L 19 77 L 19 83.5 L 21 84.5 L 21 95 Q 18.3 93.9 19 96.5 L 18 96.5 L 18 94 L 20 93.5 L 20 87 Q 16.3 88.3 18 82.5 L 16 77 Z " /><path fill="rgb(0,0,0)" stroke="rgb(0,0,0)" stroke-width="1" opacity="0.9921568627450981" d="M 124.5 78 L 129.5 82 L 133 83 L 133 85 L 138 85 L 138 87 L 144.5 87 Q 146.2 90.3 152 89.5 L 141 90 L 141 88 L 134.5 88 Q 135.3 84.8 130 86 L 130 83 L 127 83 L 127 81 Q 124.3 82.1 125 79.5 L 124.5 78 Z " /><path fill="rgb(0,0,0)" stroke="rgb(0,0,0)" stroke-width="1" opacity="0.9921568627450981" d="M 36.5 85 L 37 87 L 39 87 L 39 92 Q 43.3 91 42.5 94 L 63 94 L 63.5 92 L 80.5 92 L 81 90 L 87 90 L 87 93 L 75.5 93 L 74.5 95 L 40 95 L 38 91.5 L 38 88 Q 34.5 89.1 36.5 85 Z " /><path fill="rgb(0,0,0)" stroke="rgb(0,0,0)" stroke-width="1" opacity="0.9921568627450981" d="M 163 90 L 179.5 90 L 180 92 L 186.5 92 L 187 94 L 189.5 94 L 191.5 97 L 188 97 L 188 95 Q 182.7 96.3 183.5 93 L 163.5 93 L 163 90 Z " /><path fill="rgb(0,0,0)" stroke="rgb(0,0,0)" stroke-width="1" opacity="0.9921568627450981" d="M 13 97 L 16 97 L 16 103 L 19 103 Q 18 106 21 105 L 21 116 L 19 116.5 L 19 123 L 16.5 123 L 17 121.5 L 18 113 L 20 112.5 L 20 106 L 15.5 103 L 13 103 L 13 101 Q 8.9 102.3 10 99 Q 14.1 100.3 13 97 Z " /><path fill="rgb(0,0,0)" stroke="rgb(0,0,0)" stroke-width="1" opacity="0.9921568627450981" d="M 193.5 97 L 194 102.5 L 193 102.5 L 193.5 97 Z " /><path fill="rgb(0,0,0)" stroke="rgb(0,0,0)" stroke-width="1" opacity="0.9921568627450981" d="M 189.5 103 L 192 103.5 Q 190.8 106.8 187 106 Q 188.3 109.7 182.5 108 L 179.5 110 L 167 110 L 167.5 107 L 183.5 107 Q 182.5 104 187.5 105 L 189.5 103 Z " /><path fill="rgb(0,0,0)" stroke="rgb(0,0,0)" stroke-width="1" opacity="0.9921568627450981" d="M 40 105 L 69.5 105 L 70.5 107 L 85.5 107 L 87 110 L 78.5 110 L 76.5 108 L 53 108 L 52.5 106 L 43 106 Q 44.2 109.7 39 108 L 39 112.5 L 38 115 Q 34.7 116.1 36 112 L 38 112 L 38 107 Q 41 108 40 105 Z " /><path fill="rgb(0,0,0)" stroke="rgb(0,0,0)" stroke-width="1" opacity="0.9921568627450981" d="M 88.5 110 L 93.5 110 L 94 112 L 95.5 112 L 95.5 113 L 91.5 113 L 91 111 L 88.5 111 L 88.5 110 Z " /><path fill="rgb(0,0,0)" stroke="rgb(0,0,0)" stroke-width="1" opacity="0.9921568627450981" d="M 134 110 L 145 110.5 L 140 111 L 140 113 L 133.5 113 Q 134.5 116 129.5 115 L 128 118 L 126 118 L 126 120 Q 123.3 118.9 124 121.5 L 123 124 L 121 124 L 121 127 Q 118.3 125.9 119 128.5 Q 115.3 129.8 116 134 L 114 134 L 114 137 Q 111.3 135.9 112 138.5 L 111 138.5 L 111 136 L 113 135.5 L 113 131 L 116 131 L 116 128 L 120 126 L 120 121 L 123 121 L 123 119 L 127 117 L 127 114 Q 131.1 115.3 130 112 L 134 112 L 134 110 Z " /><path fill="rgb(0,0,0)" stroke="rgb(0,0,0)" stroke-width="1" opacity="0.9921568627450981" d="M 96.5 114 L 99 115.5 L 99 124.5 L 97.5 126 Q 94.5 126.9 96 122.5 Q 98.6 121.1 98 116.5 L 96.5 114 Z " /><path fill="rgb(0,0,0)" stroke="rgb(0,0,0)" stroke-width="1" opacity="0.9921568627450981" d="M 33 119 L 36 119.5 L 34 120 Q 34.7 126 32 129 L 28.5 130 L 27.5 129 L 17 129 L 17 127 Q 14.3 128.1 15 125.5 L 16.5 126 L 19.5 128 L 31 128 Q 29.8 122.7 33 123.5 L 33 119 Z " /><path fill="rgb(0,0,0)" stroke="rgb(0,0,0)" stroke-width="1" opacity="0.9921568627450981" d="M 95.5 127 L 96 133 L 94 133 Q 95.3 138.3 92 137.5 L 92 140.5 L 89 142 L 88.5 144 L 88 141.5 L 89 139 Q 92 140.3 91 136.5 Q 94.2 135.1 93 130 Q 96.1 131.1 95.5 127 Z " /><path fill="rgb(0,0,0)" stroke="rgb(0,0,0)" stroke-width="1" opacity="0.9921568627450981" d="M 109.5 140 L 111 140.5 L 109 141 L 107 148 Q 104.3 146.9 105 149.5 L 104 153 L 102 153 L 102 156 L 100 156 L 100 160 Q 97.3 158.9 98 161.5 L 97 164 L 95 164 L 95 167 Q 92 165.8 93 169.5 L 90 171.5 L 90 168 L 94 166 L 94 161 L 97 161 Q 96 158 99 159 L 99 154.5 Q 102.3 155.3 101 150 L 104 150 L 104 147 L 106 147 L 106 143 Q 108.7 144.1 108 141.5 L 109.5 140 Z " /><path fill="rgb(0,0,0)" stroke="rgb(0,0,0)" stroke-width="1" opacity="0.9921568627450981" d="M 86.5 144 L 87 149 L 84 149 L 84 152 L 82 152 L 82 156 Q 78.7 154.9 80 159 L 77 159 Q 76 156 79 157 L 79 153 L 81 153 L 81 151 Q 83.7 152.1 83 149.5 L 84 146 Q 86.8 147 86.5 144 Z " /><path fill="rgb(0,0,0)" stroke="rgb(0,0,0)" stroke-width="1" opacity="0.9921568627450981" d="M 74 160 L 77 160.5 L 75 161 L 75 166 L 73 166 L 73 170 L 70 170 Q 71.3 174.1 68 173 L 68 178 L 84.5 178 Q 83.9 175.3 87 176 L 87 173 L 89.5 173 L 89.5 174 L 88 174 L 88 178 L 86.5 178 L 83 179 L 82.5 181 L 67 181 L 65 177.5 Q 68 176.3 67 172 Q 69.7 173.1 69 170.5 L 70 167 L 72 167 Q 70.7 162.9 74 164 L 74 160 Z " /><path fill="rgb(0,0,0)" stroke="rgb(0,0,0)" stroke-width="1" opacity="1" d="M 68 22 L 84.5 22 L 87 25.5 L 90 27 Q 89 30 92 29 L 92 34 Q 95 33 94 36 L 97 36 L 97 40.5 Q 100 39.5 99 44.5 L 104 48 L 106 57 Q 108.7 55.9 108 58.5 L 111 60 Q 109.8 65.3 113 64.5 L 113 69 Q 116.7 67.5 116 70.5 L 118 74 Q 121 73 120 76 L 123 76 L 123 77.5 L 125 81 Q 128 80 127 83 L 130 83 L 130 86 Q 135.3 84.8 134.5 88 L 141 88 L 141.5 90 L 162.5 90 L 163.5 93 L 184 93 L 184 95 Q 189.2 93.3 188 97 L 193 97 L 193 103 L 184 105 L 183.5 107 L 167.5 107 L 166.5 110 L 134 110 L 134 112 L 130 112 Q 131.1 115.3 127 114 L 127 117 L 125 117 L 123 121 L 120 121 L 120 126 L 116 128 L 116 131 L 113 131 L 113 136 L 111 136 L 111 140 L 109.5 140 L 108 143 L 106 143 L 106 147 Q 102.7 145.9 104 150 L 101 150 Q 102.3 155.3 99 154.5 L 99 159 Q 96 158 97 161 L 94 161 L 94 166 L 90 168 L 90 173 L 87 173 L 87 176 Q 84 175 85 178 L 68 178 L 68 173 Q 71.3 174.1 70 170 L 73 170 Q 71.8 164.7 75 165.5 L 75 161 Q 78 162 77 159 L 80 159 L 80 156 L 82 156 L 82 152 Q 85.3 153.1 84 149 L 87 149 L 87 144 L 89 144 Q 87.9 141.3 90.5 142 Q 93 140.8 92 137 L 94 137 Q 92.3 131.8 96 133 L 96 126.5 L 97.5 126 L 99 124.5 L 99 115.5 L 96 114 L 94 110 L 87.5 110 L 87 108.5 L 85.5 107 L 70 107 L 69.5 105 L 40 105 Q 41 108 38 107 L 38 112 L 36 112.5 L 36 119 L 33 119 L 33 124 L 31 124 L 31 128 L 19.5 128 L 16 126 Q 14.5 121.5 19 123 L 19 116 L 21 115.5 L 21 105 Q 18 106 19 103 L 16 103 L 16 97 L 19 97 Q 18 94 21 95 L 21 84 L 19 84 L 19 77 Q 14.5 78.5 16 74 Q 22.3 75.5 21.5 72 L 27.5 72 L 31 74 Q 30.3 77.1 33 76.5 L 33 83 L 36 83 L 36 87.5 Q 39 86.5 38 91.5 L 40 95 L 74.5 95 L 75.5 93 L 87 93 L 87 90 L 94 90 L 94 88 L 96 88 Q 94.9 85.3 97.5 86 L 99 84.5 L 99 75.5 L 96 74 L 96 68.5 Q 93 67.3 94 63 Q 90.7 64.3 92 59.5 L 89 58 L 89 56 Q 86.3 57.1 87 54.5 L 84 53 L 84 49.5 L 82 46 Q 78.7 47.3 80 42.5 L 77 41 Q 78 38 75 39 L 75 35.5 L 73 32 L 70 32 L 70 27.5 Q 66.5 28.3 68 22 Z " /></svg>