<svg width="200" height="200" version="1.1" xmlns="http://www.w3.org/2000/svg" desc="Created with imagetracer.js version 1.2.6" ><path fill="rgb(190,126,61)" stroke="rgb(190,126,61)" stroke-width="1" opacity="0.9921568627450981" d="M 58.5 29 L 71.5 29 L 72 33 L 70 33 L 70 38 Q 67.3 36.9 68 39.5 Q 65.7 43.5 61 44 Q 62.4 48 55.5 46 L 49 45 L 49 38.5 L 52 33 Q 55 34 54 31 L 56.5 31 L 58.5 29 Z " /><path fill="rgb(190,126,61)" stroke="rgb(190,126,61)" stroke-width="1" opacity="0.9921568627450981" d="M 31.5 48 L 38 49 L 40 55.5 Q 38.3 61.3 31 60 L 31 58 Q 28.3 59.1 29 56.5 L 27 53.5 L 31.5 48 Z " /><path fill="rgb(190,126,61)" stroke="rgb(190,126,61)" stroke-width="1" opacity="0.9921568627450981" d="M 6.5 54 L 12 56 L 14 60.5 L 12 65 Q 8.6 64.3 7.5 67 L 5 66 Q 3.1 63.3 4 56.5 L 6.5 54 Z " /><path fill="rgb(0,0,0)" stroke="rgb(0,0,0)" stroke-width="1" opacity="0" d="M 0 0 L 200 0 L 200 200 L 0 200 L 0 0 Z M 53 21 L 49 22 L 46 25 L 43 25 L 43 29 L 41 29 L 41 32 Q 38 31 39 34 L 28 34 L 27 36 L 22 37 L 20 38 L 20 45 L 16 48 Q 8 46 7 50 L 4 50 Q 5 53 2 53 L 2 68 L 8 73 Q 16 72 20 74 L 20 99 L 22 102 L 23 109 L 25 111 L 25 113 Q 28 112 27 115 L 35 118 L 43 119 L 39 124 L 39 137 L 41 139 L 41 141 Q 44 140 43 143 Q 46 142 48 145 L 65 145 L 66 143 L 66 134 L 65 133 L 65 131 L 57 131 L 58 129 Q 57 126 60 127 L 60 125 L 62 125 Q 64 125 64 121 Q 66 117 73 119 L 74 121 L 74 125 L 76 130 L 78 132 L 78 134 L 80 134 L 80 136 Q 83 135 82 138 L 86 141 Q 91 140 92 143 L 97 143 L 101 149 L 99 150 Q 95 149 96 152 L 94 152 L 90 156 Q 84 156 82 160 Q 83 162 80 161 L 80 163 L 78 163 L 78 165 L 76 165 Q 77 170 74 172 L 74 194 L 78 198 L 88 198 Q 87 195 90 196 Q 89 193 92 192 Q 91 188 94 189 Q 93 185 96 184 Q 98 185 97 182 L 99 182 L 99 180 L 102 180 L 109 175 Q 112 176 111 173 L 115 173 L 115 171 L 118 170 Q 121 171 120 168 L 124 168 L 125 166 L 125 164 L 129 164 Q 128 161 131 160 L 131 145 L 129 142 L 127 142 L 127 138 L 125 138 L 124 135 Q 125 132 130 133 L 134 129 Q 137 130 136 127 L 139 126 L 140 127 L 140 150 L 142 150 L 143 157 L 151 163 L 155 164 L 177 164 L 181 163 L 185 159 Q 184 156 187 157 L 187 154 L 189 154 L 189 150 L 191 150 L 191 89 L 190 87 L 181 87 L 180 89 L 178 89 L 173 94 L 171 103 L 171 129 L 170 131 L 168 132 L 164 129 L 164 81 L 161 75 L 161 71 L 159 69 Q 160 65 157 66 L 157 62 Q 154 63 155 61 L 152 59 L 152 57 L 148 52 L 145 52 L 143 48 L 141 48 L 141 46 L 136 45 L 130 41 Q 124 43 125 39 L 94 39 L 92 41 Q 86 39 87 43 L 84 43 L 75 49 Q 76 51 73 50 L 73 52 L 66 58 Q 67 60 65 59 L 59 67 Q 60 70 57 69 L 57 73 L 53 75 L 53 48 Q 56 49 56 46 L 65 46 Q 64 43 69 44 L 73 38 L 73 24 Q 66 19 53 21 Z " /><path fill="rgb(226,202,171)" stroke="rgb(226,202,171)" stroke-width="1" opacity="0.24705882352941178" d="M 52.5 21 L 67 21.5 L 54.5 22 L 49 24 Q 50.3 27 46.5 26 Q 42.3 28.9 42 35 Q 32.3 33.8 27 36 L 27.5 34 L 39 34 Q 38 31 41 32 L 41 29 L 43 29 L 43 25 L 45.5 25 L 48.5 22 L 52.5 21 Z " /><path fill="rgb(226,202,171)" stroke="rgb(226,202,171)" stroke-width="1" opacity="0.24705882352941178" d="M 68.5 22 Q 72.3 21.3 73 23.5 L 73 37.5 L 68.5 44 L 65.5 44 Q 66.5 47 61.5 46 L 61.5 45 L 68 42 L 72 34.5 L 72 25.5 L 68.5 22 Z " /><path fill="rgb(226,202,171)" stroke="rgb(226,202,171)" stroke-width="1" opacity="0.24705882352941178" d="M 22.5 36 L 26 36.5 L 21 41.5 L 21 45.5 L 19 49 L 10.5 49 L 3 55.5 Q 0.5 67.5 7.5 70 L 10.5 72 L 21 72 L 21 95.5 L 22 100.5 L 21 100.5 L 20 98.5 L 20 74 Q 16.4 71.8 7.5 73 L 2 67.5 L 2 52.5 Q 4.8 53.1 4 50 L 6.5 50 Q 8.3 46.3 15.5 48 L 20 45 L 20 37.5 L 21.5 37 L 22.5 36 Z " /><path fill="rgb(226,202,171)" stroke="rgb(226,202,171)" stroke-width="1" opacity="0.24705882352941178" d="M 93.5 39 L 124.5 39 Q 123.5 42.3 129.5 41 L 135.5 45 L 141 46 L 141 48 L 143 48 L 145 52 L 147.5 52 L 152 56.5 L 152 59 L 155 60.5 Q 154.3 63.1 157 62 L 157 66 Q 160 64.8 159 68.5 L 163 76.5 L 164 87.5 L 163 87.5 L 160 73.5 L 153 61 Q 150.3 62.1 151 59.5 L 149 56 L 147 56 Q 148.1 53.3 145.5 54 L 137.5 47 L 127.5 42 L 123.5 42 L 121.5 40 L 95 40 Q 96.3 43.7 90.5 42 L 77 49 Q 78.1 51.7 75.5 51 L 74 54 L 72 54 L 72 56 L 70 56 Q 71.1 58.7 68.5 58 L 67 61 L 65 61 L 65 63 Q 62.3 61.9 63 64.5 L 58 72.5 L 58 75 Q 55 74 56 77 L 52 77 L 52 46.5 L 53.5 46 L 55 45.5 L 55 48 L 53 48.5 L 53 75 L 57 73 L 57 69 Q 60 70.3 59 66.5 L 64.5 59 Q 66.8 59.8 66 57.5 L 73 52 L 73 50 Q 75.7 51.1 75 48.5 L 83.5 43 L 87 43 Q 85.7 39.3 91.5 41 L 93.5 39 Z " /><path fill="rgb(226,202,171)" stroke="rgb(226,202,171)" stroke-width="1" opacity="0.24705882352941178" d="M 180 87 L 189.5 87 L 191 88.5 L 191 149.5 L 189 150 L 189 154 L 187 154 L 187 157 Q 184.3 155.9 185 158.5 Q 182.4 164.4 173.5 164 L 174.5 162 L 177.5 162 L 181 160 L 181 158 Q 183.7 159.1 183 156.5 Q 188 152.5 190 145.5 L 190 90 Q 187 91 188 88 L 184.5 88 L 180 89 L 180 91 L 178 91 L 178 93 L 174 95 L 174 99.5 L 173 100.5 L 173 130.5 L 169.5 134 Q 164.8 134.8 164 131.5 L 164.5 129 L 167.5 132 L 168.5 131 Q 170.8 131.8 170 129.5 L 171 128.5 L 171 102.5 L 173 93.5 L 177.5 89 Q 181.3 90 180 87 Z " /><path fill="rgb(226,202,171)" stroke="rgb(226,202,171)" stroke-width="1" opacity="0.24705882352941178" d="M 22.5 102 Q 25 103.2 24 107 Q 26.7 105.9 26 108.5 L 28.5 112 L 33 114 Q 31.7 117.3 36.5 116 L 37.5 118 L 27 115 Q 28 112 25 113 L 25 110.5 Q 20.7 107.8 22.5 102 Z " /><path fill="rgb(226,202,171)" stroke="rgb(226,202,171)" stroke-width="1" opacity="0.24705882352941178" d="M 39.5 118 L 45 118 L 45 120.5 L 44 123 Q 41.3 121.9 42 124.5 Q 38.3 126.2 40 133.5 L 46.5 142 L 49.5 144 L 61.5 144 Q 66.2 142.7 65 135.5 L 63 132 L 55.5 132 L 54 130.5 Q 52.9 127.2 55.5 128 L 59 123 L 63 121 L 63.5 118 L 75 118 L 75 122.5 Q 78 123.8 77 128 Q 80 126.8 79 130.5 L 82.5 135 L 87.5 139 Q 91.7 143.2 100 142 Q 99 145 102 144 L 102 146.5 L 103 149.5 L 84 160 L 84 162 Q 81.3 160.9 82 163.5 L 79 165 L 75 173.5 L 75 193 L 77 193 L 79 197 L 86 197 L 86 195 Q 88.7 196.1 88 193.5 L 93 183.5 L 97.5 179 L 105 176 Q 103.8 173 107.5 174 L 114.5 169 L 117 169 Q 115.8 166 119.5 167 L 128 160.5 L 128 158 L 130 157.5 L 130 147.5 L 128 144 Q 125 145.3 126 141.5 L 125 139 Q 122 140.3 123 136.5 L 121.5 134 Q 124.1 134.7 123 132 L 126.5 132 L 130 130 Q 128.8 127 132.5 128 L 137 126 Q 135.9 123.3 138.5 124 Q 139.8 121.8 141 124.5 L 141 126.5 L 141 146.5 L 148.5 158 L 151.5 160 L 158 163.5 L 154.5 164 L 150.5 163 L 143 157 L 142 150 L 140 149.5 L 140 126.5 L 138.5 126 L 136 127 Q 137.3 130 133.5 129 L 129.5 133 Q 125 132 124 134.5 L 125 138 L 127 138 L 127 142 L 128.5 142 L 131 144.5 L 131 159.5 Q 128.3 160.6 129 164 L 125 164 L 125 165.5 L 124 168 L 120 168 Q 121.3 171 117.5 170 L 115 171 L 115 173 L 111 173 Q 112.3 176 108.5 175 L 101.5 180 L 99 180 L 99 182 L 97 182 Q 98.1 184.7 95.5 184 Q 93 185.2 94 189 Q 91 187.8 92 191.5 Q 89.3 192.6 90 196 Q 86.9 195.3 87.5 198 L 77.5 198 L 74 193.5 L 74 171.5 Q 77.3 170.1 76 165 L 78 165 L 78 163 L 80 163 L 80 161 Q 82.7 162.1 82 159.5 Q 83.9 155.9 89.5 156 L 93.5 152 L 96 152 Q 94.8 149 98.5 150 L 101 149 L 96.5 143 L 91.5 143 Q 90.5 140 85.5 141 L 82 137.5 Q 82.7 134.9 80 136 L 80 134 L 78 134 L 78 131.5 L 76 129.5 L 74 124.5 L 74 120.5 L 72.5 119 Q 65.8 117.3 64 120.5 Q 64.5 124.5 61.5 125 L 60 125 L 60 127 Q 57.3 125.9 58 128.5 L 57 131 L 64.5 131 L 65 132.5 L 66 133.5 L 66 142.5 L 65 145 L 47.5 145 Q 46.4 142.2 43 143 Q 44 140 41 141 L 41 138.5 L 39 136.5 L 39 123.5 L 42.5 119 Q 38.5 119.8 39.5 118 Z " /><path fill="rgb(242,173,97)" stroke="rgb(242,173,97)" stroke-width="1" opacity="0.996078431372549" d="M 51 24 L 69.5 24 L 70 29 L 58.5 29 Q 57.4 31.8 54 31 L 54 33 Q 51.3 31.9 52 34.5 Q 47.5 37.3 49 45 L 52 45.5 Q 50.8 48.3 49.5 46 L 46 44.5 Q 45 39.5 48 40.5 L 48 36 L 50 36 L 50 32 Q 53 33 52 30 L 55 30 L 55 28 L 60.5 28 L 61.5 27 L 69 27 L 68.5 25 L 52.5 25 L 50 29 L 46 29 Q 47.5 32.8 44.5 32 L 45 30.5 L 48.5 26 Q 52.3 27 51 24 Z " /><path fill="rgb(242,173,97)" stroke="rgb(242,173,97)" stroke-width="1" opacity="0.996078431372549" d="M 43.5 34 L 44 35.5 L 41.5 37 L 43.5 34 Z " /><path fill="rgb(242,173,97)" stroke="rgb(242,173,97)" stroke-width="1" opacity="0.996078431372549" d="M 29.5 37 L 30 39 L 26 38.5 L 29.5 37 Z " /><path fill="rgb(242,173,97)" stroke="rgb(242,173,97)" stroke-width="1" opacity="0.996078431372549" d="M 24.5 39 L 25 41 L 23 40.5 L 24.5 39 Z " /><path fill="rgb(242,173,97)" stroke="rgb(242,173,97)" stroke-width="1" opacity="0.996078431372549" d="M 22.5 42 L 23 47.5 L 20 52 L 11.5 52 L 10 53.5 L 13 55 L 14 59.5 L 13 59.5 L 12 56 L 7 53.5 L 10.5 51 L 21 49 L 22.5 42 Z " /><path fill="rgb(242,173,97)" stroke="rgb(242,173,97)" stroke-width="1" opacity="0.996078431372549" d="M 94.5 42 L 122.5 42 L 126 43.5 L 122.5 44 L 121.5 43 L 96.5 43 L 92.5 44 L 92.5 43 L 94.5 42 Z " /><path fill="rgb(242,173,97)" stroke="rgb(242,173,97)" stroke-width="1" opacity="0.996078431372549" d="M 89.5 44 L 90 46 Q 85.9 44.7 87 48 L 83 48 L 83 50 L 80 50 Q 81.1 52.7 78.5 52 L 76 53 L 76 55 Q 73.3 53.9 74 56.5 L 73 59 L 69 60 Q 70.1 62.7 67.5 62 L 77.5 51 Q 80.1 51.7 79 49 L 81.5 49 L 89.5 44 Z " /><path fill="rgb(242,173,97)" stroke="rgb(242,173,97)" stroke-width="1" opacity="0.996078431372549" d="M 127 44 L 139 49 L 138.5 51 L 131 48 L 131 46 Q 125.8 47.7 127 44 Z " /><path fill="rgb(242,173,97)" stroke="rgb(242,173,97)" stroke-width="1" opacity="0.996078431372549" d="M 29.5 48 L 31 48.5 L 27.5 53 L 27 50.5 L 29.5 48 Z " /><path fill="rgb(242,173,97)" stroke="rgb(242,173,97)" stroke-width="1" opacity="0.996078431372549" d="M 35.5 48 Q 40.3 46.3 39 50.5 Q 42.3 52 41 57 Q 37.7 55.9 39 60 L 36.5 60 L 40 55.5 L 38 49 Q 34.7 49.7 35.5 48 Z " /><path fill="rgb(242,173,97)" stroke="rgb(242,173,97)" stroke-width="1" opacity="0.996078431372549" d="M 140.5 51 L 149 58.5 L 151 63 Q 153.7 61.9 153 64.5 L 156 68.5 L 154 69 L 154 66.5 L 146.5 57 Q 143.9 57.7 145 55 L 142.5 55 Q 138.9 53.9 140.5 51 Z " /><path fill="rgb(242,173,97)" stroke="rgb(242,173,97)" stroke-width="1" opacity="0.996078431372549" d="M 27.5 55 L 29 58 Q 32 57 31 60 Q 27.3 61.5 28 58.5 L 27.5 55 Z " /><path fill="rgb(242,173,97)" stroke="rgb(242,173,97)" stroke-width="1" opacity="0.996078431372549" d="M 13.5 61 L 14 63.5 L 13 66 L 8 67.5 L 9.5 69 L 20.5 69 L 23 71.5 L 22.5 94 L 22 72.5 L 19.5 70 L 8.5 70 L 6 66.5 Q 7.8 68.1 9.5 65 Q 12.8 66.1 12 63.5 L 13.5 61 Z " /><path fill="rgb(242,173,97)" stroke="rgb(242,173,97)" stroke-width="1" opacity="0.996078431372549" d="M 65 63 L 67 63.5 L 66 66 L 64 66 Q 65.3 70.1 62 69 L 62 73 L 60 73 L 63 65 Q 66 66 65 63 Z " /><path fill="rgb(242,173,97)" stroke="rgb(242,173,97)" stroke-width="1" opacity="0.996078431372549" d="M 156.5 70 L 161 82.5 L 159 83 Q 160.5 76.7 157 77.5 L 157 73.5 L 156.5 70 Z " /><path fill="rgb(242,173,97)" stroke="rgb(242,173,97)" stroke-width="1" opacity="0.996078431372549" d="M 59.5 74 L 60 75.5 L 59 78 Q 56 77 57 80 L 52.5 80 Q 49.5 79.5 50 75.5 L 51 75.5 L 53.5 79 L 56 79 L 56 77 Q 58.7 78.1 58 75.5 L 59.5 74 Z " /><path fill="rgb(242,173,97)" stroke="rgb(242,173,97)" stroke-width="1" opacity="0.996078431372549" d="M 161.5 84 L 162 130.5 L 164.5 134 L 169.5 135 L 174 131.5 L 174 100.5 Q 176.8 99.8 176 95.5 L 180.5 91 L 184 90 L 184 92 L 180 92 L 180 93.5 Q 175.8 95 177 101 L 175 101.5 L 175 132.5 L 173.5 133 Q 171.5 137.8 164 136 L 161 131.5 L 161.5 84 Z " /><path fill="rgb(242,173,97)" stroke="rgb(242,173,97)" stroke-width="1" opacity="0.996078431372549" d="M 187.5 90 L 188 147.5 L 186 148.5 L 187 146.5 L 187.5 90 Z " /><path fill="rgb(242,173,97)" stroke="rgb(242,173,97)" stroke-width="1" opacity="0.996078431372549" d="M 23.5 96 L 25 96 L 25 102.5 L 27 103 L 27 105.5 L 30.5 111 L 37 113 L 37.5 115 L 46 115 Q 45 118 48 117 L 48 122 L 46 122 L 46 124 Q 43.3 122.9 44 125.5 Q 41.3 127.2 43 133.5 L 44 136.5 L 42 135.5 L 42 125.5 L 45 121 Q 48 122.3 47 118.5 Q 45.3 114.3 37.5 116 Q 30.8 113.8 27 108.5 L 24 102.5 L 23.5 96 Z " /><path fill="rgb(242,173,97)" stroke="rgb(242,173,97)" stroke-width="1" opacity="0.996078431372549" d="M 62 115 L 76 115 Q 75 118 78 117 L 78 123.5 L 80 124 L 80 126.5 L 83 133 L 89.5 138 L 94 138 Q 95.1 140.7 92.5 140 L 88 139 L 88 137 L 86 137 Q 87.1 134.3 84.5 135 L 79 128.5 L 77 124.5 L 77 118.5 L 74.5 116 L 63.5 116 L 63 117.5 L 61 121 Q 58.3 119.9 59 122.5 L 52 130.5 Q 54.5 134 61 133.5 L 53.5 134 Q 50.3 133.3 51 128.5 L 55 126 L 55 124 Q 57.7 125.1 57 122.5 Q 60.7 121.2 60 117 Q 63 118 62 115 Z " /><path fill="rgb(242,173,97)" stroke="rgb(242,173,97)" stroke-width="1" opacity="0.996078431372549" d="M 138 120 Q 141.8 119.3 143 122.5 L 142.5 146 L 142 123.5 L 139.5 121 L 139 123 L 133.5 126 L 133 124 L 136 124 L 138 120 Z " /><path fill="rgb(242,173,97)" stroke="rgb(242,173,97)" stroke-width="1" opacity="0.996078431372549" d="M 129.5 126 L 132 126.5 L 128 128 Q 129.3 131.3 124.5 130 L 121 132 Q 120.2 137.5 123 140.5 L 120 138.5 L 120 136 Q 117.3 137.1 118 134.5 L 120 131 Q 123 132 122 129 L 127 129 Q 125.9 126.3 128.5 127 L 129.5 126 Z " /><path fill="rgb(242,173,97)" stroke="rgb(242,173,97)" stroke-width="1" opacity="0.996078431372549" d="M 62.5 134 L 63 142 Q 60 144 52.5 143 L 47 140.5 L 49.5 140 L 50.5 141 L 62 141 L 62.5 134 Z " /><path fill="rgb(242,173,97)" stroke="rgb(242,173,97)" stroke-width="1" opacity="0.996078431372549" d="M 44.5 138 Q 46.8 137.3 46 139.5 L 44.5 138 Z " /><path fill="rgb(242,173,97)" stroke="rgb(242,173,97)" stroke-width="1" opacity="0.996078431372549" d="M 95.5 140 Q 101.6 138.8 101 141.5 L 99.5 141 Q 94.5 142 95.5 140 Z " /><path fill="rgb(242,173,97)" stroke="rgb(242,173,97)" stroke-width="1" opacity="0.996078431372549" d="M 102.5 142 L 104 145.5 L 102 144.5 L 102.5 142 Z " /><path fill="rgb(242,173,97)" stroke="rgb(242,173,97)" stroke-width="1" opacity="0.996078431372549" d="M 124.5 142 L 126 144.5 L 124 145 L 124.5 142 Z " /><path fill="rgb(242,173,97)" stroke="rgb(242,173,97)" stroke-width="1" opacity="0.996078431372549" d="M 126.5 146 L 128 146.5 L 128 158.5 L 126 159.5 L 127 147.5 L 126.5 146 Z " /><path fill="rgb(242,173,97)" stroke="rgb(242,173,97)" stroke-width="1" opacity="0.996078431372549" d="M 104.5 147 Q 107.5 146.3 106 150 L 104 149.5 L 104.5 147 Z " /><path fill="rgb(242,173,97)" stroke="rgb(242,173,97)" stroke-width="1" opacity="0.996078431372549" d="M 143.5 147 Q 146.1 146.2 145 149.5 Q 147.8 150.6 147 154 Q 149.7 152.9 149 155.5 Q 150.6 160.2 157 159 L 157.5 161 L 173 161 Q 171.7 157.3 177.5 159 L 181 156.5 Q 181.7 159.1 179 158 L 179 160 L 175.5 160 L 173.5 162 L 157.5 162 Q 156 158.8 151 160 L 144 150.5 L 143.5 147 Z " /><path fill="rgb(242,173,97)" stroke="rgb(242,173,97)" stroke-width="1" opacity="0.996078431372549" d="M 184 150 Q 186.7 148.9 186 151.5 L 184 152.5 L 184 150 Z " /><path fill="rgb(242,173,97)" stroke="rgb(242,173,97)" stroke-width="1" opacity="0.996078431372549" d="M 102.5 151 L 104 151.5 L 103 154 L 99 154 Q 100.3 157 96.5 156 L 94 157 L 94 159 L 90 159 L 90 161 L 87 161 Q 88.1 163.7 85.5 163 L 84 163.5 Q 83.3 160.9 86 162 L 86 160 L 88.5 160 L 102.5 151 Z " /><path fill="rgb(242,173,97)" stroke="rgb(242,173,97)" stroke-width="1" opacity="0.996078431372549" d="M 122 161 L 125 161.5 L 111.5 170 L 111 168 Q 114 169 113 166 L 117 166 L 117 164 L 119.5 164 L 122 163 L 122 161 Z " /><path fill="rgb(242,173,97)" stroke="rgb(242,173,97)" stroke-width="1" opacity="0.996078431372549" d="M 82.5 164 L 83 165.5 Q 78.8 167 80 173 L 78 173.5 L 78 193 L 84.5 194 L 87 193 L 90 182 L 92 182 L 92 180 L 94 180 Q 92.9 177.3 95.5 178 L 97.5 177 L 96.5 179 Q 93.9 178.3 95 181 L 93 181 L 93 182.5 L 85.5 195 L 81.5 196 L 77 192.5 L 77 172.5 Q 80 171.3 79 167 Q 81.7 168.1 81 165.5 L 82.5 164 Z " /><path fill="rgb(242,173,97)" stroke="rgb(242,173,97)" stroke-width="1" opacity="0.996078431372549" d="M 108.5 170 L 110 170.5 L 99.5 177 L 99 175 Q 102 176 101 173 L 104 173 L 104 171 L 107.5 171 L 108.5 170 Z " /><path fill="rgb(243,173,97)" stroke="rgb(243,173,97)" stroke-width="1" opacity="1" d="M 52.5 25 L 68.5 25 L 69 27 L 55 28 L 55 30 L 52 30 Q 53 33 50 32 L 50 36 L 48 36 L 48 40.5 Q 45 39.5 46 44.5 L 50 46 L 50 77.5 L 52.5 80 L 57 80 L 57 78 Q 59.7 79.1 59 76.5 L 60 73 L 62 73 L 62 69 L 64 69 L 64 66 Q 66.7 67.1 66 64.5 L 67 62 L 69 62 Q 67.9 59.3 70.5 60 L 73 59 L 74 55 L 76 55 Q 74.9 52.3 77.5 53 L 80 52 L 80 50 Q 84.1 51.3 83 48 L 87 48 L 87 46 Q 91.1 47.3 90 44 L 95.5 44 L 96.5 43 L 121.5 43 L 127 44 L 127 46 L 131 46 Q 129.8 49 133.5 48 L 140 51 L 142.5 55 L 145 55 Q 143.9 57.7 146.5 57 L 154 66.5 L 154 69 Q 157.3 67.7 156 72.5 L 157 78 L 159 78 Q 157.5 84.3 161 83.5 L 161 131.5 L 164 136 L 170.5 136 L 175 133 L 175 101.5 Q 178.3 102.5 177 96.5 L 180 92 L 184 92 Q 182.9 88.7 187 90 L 187 146.5 L 186 150 L 184 150 L 184 154 L 182 154 Q 183.1 156.7 180.5 156 Q 179 160.3 173 159 L 172.5 161 L 157 161 Q 158.3 157.3 152.5 159 L 149 154 Q 146 155.3 147 151.5 Q 144.3 150.4 145 147 L 143 146.5 L 143 122.5 Q 141.8 119.3 138 120 L 136 124 Q 131.9 122.7 133 126 L 129.5 126 L 127 127 L 127 129 L 122 129 L 122 131 Q 119.3 129.9 120 132.5 L 118 136 Q 121 134.8 120 138.5 L 124 141 L 124 145 Q 126.7 143.9 126 146.5 L 127 147.5 L 127 156.5 L 126 161 L 122 161 Q 123.1 163.7 120.5 163 L 117 164 L 117 166 L 113 166 L 111 170 L 108.5 170 L 104 171 L 104 173 L 101 173 L 99 177 L 96.5 177 L 94 178 L 94 180 L 90 182 L 90 185.5 Q 86.1 187.6 87 193 L 80.5 194 L 78 193 L 78 173.5 Q 81.3 174.5 80 168.5 L 83 164 L 87 163 L 87 161 L 90 161 L 90 159 L 94 159 Q 92.9 156.3 95.5 157 L 99 156 L 99 154 L 103 154 L 103 152.5 L 104 150 Q 107.3 151.1 106 147 Q 102.7 148.3 104 143.5 L 101 142 L 101 140 L 94.5 140 Q 95.5 136.8 89.5 138 L 83 133 L 80 124 L 78 124 L 78 117.5 Q 75.3 118.1 76 115 L 62 115 Q 63 118 60 117 L 60 119.5 L 57 124 L 55 124 Q 56.1 126.7 53.5 126 Q 50.3 126.8 51 131.5 L 53.5 134 L 62 134 L 62 141 L 50.5 141 L 46 140 Q 47 137 44 138 L 44 134.5 Q 41.3 132.8 43 126.5 L 44 124 L 48 122 L 48 117 Q 44.9 117.8 45.5 115 L 37.5 115 L 37 113 L 34.5 113 L 29 109.5 L 27 103 L 25 103 L 25 96.5 L 23 95.5 L 23 71.5 L 20.5 69 L 9.5 69 L 8 67.5 L 13 66 Q 14.8 63.6 14 57.5 L 13 55 L 10 53.5 L 11.5 52 L 20 52 L 23 47.5 L 23 41 Q 26 42 25 39 L 30 39 L 30.5 37 L 42.5 37 Q 45 35.8 44 32 Q 47.3 33.1 46 29 L 50 29 L 50 27.5 L 52.5 25 Z M 30 48 L 27 51 Q 26 57 28 60 L 39 60 L 39 57 L 41 57 Q 42 52 39 51 L 39 48 L 30 48 Z " /><path fill="rgb(241,178,110)" stroke="rgb(241,178,110)" stroke-width="1" opacity="0.7725490196078432" d="M 54.5 22 L 67.5 22 L 72 25.5 Q 73.3 30.3 70 29 L 69.5 24 L 51 24 Q 52 27 49 26 Q 47.9 23.3 50.5 24 L 54.5 22 Z " /><path fill="rgb(241,178,110)" stroke="rgb(241,178,110)" stroke-width="1" opacity="0.7725490196078432" d="M 46.5 26 L 48 26.5 L 40.5 37 Q 28.1 35.1 23 40.5 L 21 49 Q 18.3 50.1 19 47.5 Q 22 46.5 21 41.5 L 26.5 36 L 42 35 Q 42.3 28.9 46.5 26 Z " /><path fill="rgb(241,178,110)" stroke="rgb(241,178,110)" stroke-width="1" opacity="0.7725490196078432" d="M 70 33 Q 72.7 31.9 72 34.5 L 70 35.5 L 70 33 Z " /><path fill="rgb(241,178,110)" stroke="rgb(241,178,110)" stroke-width="1" opacity="0.7725490196078432" d="M 68 38 L 70 38.5 L 68 42 L 61.5 45 L 61.5 44 L 68 39.5 L 68 38 Z " /><path fill="rgb(241,178,110)" stroke="rgb(241,178,110)" stroke-width="1" opacity="0.7725490196078432" d="M 95 40 L 121.5 40 L 123.5 42 L 127.5 42 L 137.5 47 Q 141 52.3 147 54 L 147 56 Q 149.7 54.9 149 57.5 L 151 61 Q 153.7 59.9 153 62.5 L 160 73.5 L 164 88.5 L 164 131.5 L 166.5 134 Q 172.3 134.8 173 130.5 L 173 100.5 L 174 95 L 176 95 L 176 93 L 178 93 L 180 89 L 183.5 89 L 188 88 Q 187.3 91.1 190 90.5 L 190 145.5 L 183 158 L 181 158 Q 182.1 160.7 179.5 160 L 172.5 164 L 158.5 164 L 152 160.5 L 155.5 160 L 157.5 162 L 173.5 162 Q 174.8 159 179 160 L 179 158 L 181 158 L 181 156 Q 183.7 157.1 183 154.5 L 188 147.5 L 188 90 Q 178.6 88.6 176 95.5 Q 176.8 99.8 174 100.5 L 174 131.5 L 171.5 134 L 166.5 135 L 163 132.5 L 162 130.5 L 162 84.5 L 160 81.5 L 160 77.5 L 158 72.5 L 153 63 Q 150.3 64.1 151 61.5 L 144.5 54 L 139 51 Q 140.1 48.3 137.5 49 L 122.5 42 L 95 42 L 95 40 Z " /><path fill="rgb(241,178,110)" stroke="rgb(241,178,110)" stroke-width="1" opacity="0.7725490196078432" d="M 90.5 42 L 94 42.5 L 79 49 Q 80.1 51.7 77.5 51 L 67 61.5 L 67 63 L 63 65 L 63 67.5 L 58 77 Q 55 76 56 79 L 53.5 79 L 50 74.5 L 50 47.5 L 53.5 45 L 53.5 46 L 52 46.5 L 52 77 L 56 77 Q 55 74 58 75 L 58 72.5 L 63 63 L 65 63 L 65 61 Q 67.7 62.1 67 59.5 L 70 58 L 70 56 L 72 56 L 72 54 Q 74.7 55.1 74 52.5 L 77 51 Q 75.9 48.3 78.5 49 L 90.5 42 Z " /><path fill="rgb(241,178,110)" stroke="rgb(241,178,110)" stroke-width="1" opacity="0.7725490196078432" d="M 10.5 49 L 18 49.5 Q 9.5 50.3 5 54 Q 3.1 56.7 4 63.5 L 6 68 Q 8.7 66.9 8 69.5 L 3 65.5 Q 0.5 53.5 7.5 51 L 10.5 49 Z " /><path fill="rgb(241,178,110)" stroke="rgb(241,178,110)" stroke-width="1" opacity="0.7725490196078432" d="M 9.5 70 L 19.5 70 L 22 72.5 L 22 93.5 Q 24.8 96.2 24 102.5 Q 26.3 109.3 31.5 113 L 37.5 116 L 44.5 116 L 47 118.5 L 47 121 Q 44.3 119.9 45 122.5 L 42 125.5 L 41.5 135 Q 38.3 133.3 40 126.5 L 42 123 Q 44.7 124.1 44 121.5 L 45 118 L 38.5 118 Q 37.3 115 33 116 Q 34.1 113.3 31.5 114 L 27 110.5 L 26 107 Q 22.7 108.3 24 103.5 L 22 101.5 Q 23.2 96.8 21 95.5 L 21 72 L 10.5 72 L 9.5 70 Z " /><path fill="rgb(241,178,110)" stroke="rgb(241,178,110)" stroke-width="1" opacity="0.7725490196078432" d="M 63 116 L 74.5 116 L 77 118.5 L 76.5 124 Q 73.8 122.6 75 118 L 63 118 L 63 121 L 61 121 L 61 123 Q 58.3 121.9 59 124.5 L 54.5 128 L 59 122.5 L 61 119.5 L 63 116 Z " /><path fill="rgb(241,178,110)" stroke="rgb(241,178,110)" stroke-width="1" opacity="0.7725490196078432" d="M 139.5 121 L 142 123.5 L 142 145.5 Q 144.8 154.2 151 159.5 L 150 159.5 Q 150.8 157.3 148.5 158 L 141 146.5 L 141 126.5 L 140 125.5 Q 142.3 124.3 139.5 123 L 137 124 Q 138.1 126.7 135.5 126 L 130 128 Q 131.1 130.7 128.5 130 Q 127.3 133 123 132 Q 124 135 121 134 Q 119.9 131.3 122.5 132 Q 123.8 129 128 130 Q 126.9 127.3 129.5 128 L 139 123 L 139.5 121 Z " /><path fill="rgb(241,178,110)" stroke="rgb(241,178,110)" stroke-width="1" opacity="0.7725490196078432" d="M 77.5 125 L 79 128 Q 75.5 129.1 77.5 125 Z " /><path fill="rgb(241,178,110)" stroke="rgb(241,178,110)" stroke-width="1" opacity="0.7725490196078432" d="M 53.5 129 L 55.5 132 L 62.5 132 L 63 133.5 Q 66.3 134.8 65 140.5 L 61.5 144 L 49.5 144 L 42 137.5 L 42.5 136 L 45.5 140 Q 50.3 144.2 60.5 143 L 63 142 L 63 134.5 L 61.5 134 Q 60.3 131.7 55.5 133 L 52 130.5 L 53.5 129 Z " /><path fill="rgb(241,178,110)" stroke="rgb(241,178,110)" stroke-width="1" opacity="0.7725490196078432" d="M 79.5 129 L 84.5 135 Q 87.1 134.3 86 137 L 88 137 L 88 139 L 91.5 139 L 102 142 Q 103 145 100 144 Q 101.1 140.5 93.5 142 L 86 139 L 86 137 L 84 137 Q 85.1 134.3 82.5 135 L 79 130.5 L 79.5 129 Z " /><path fill="rgb(241,178,110)" stroke="rgb(241,178,110)" stroke-width="1" opacity="0.7725490196078432" d="M 121.5 135 L 123 139 Q 125.7 137.9 125 140.5 L 126 144 Q 128.7 142.9 128 145.5 L 130 147.5 L 130 158 L 128 157.5 L 128 146.5 L 126 146 L 126 144.5 L 121 136.5 L 121.5 135 Z " /><path fill="rgb(241,178,110)" stroke="rgb(241,178,110)" stroke-width="1" opacity="0.7725490196078432" d="M 102.5 145 L 105 148.5 L 104 151 L 99.5 153 L 100.5 151 L 103 149.5 L 102.5 145 Z " /><path fill="rgb(241,178,110)" stroke="rgb(241,178,110)" stroke-width="1" opacity="0.7725490196078432" d="M 96.5 153 L 98 153.5 L 88.5 160 L 86 160 L 86 162 L 84 162 Q 85.1 164.7 82.5 164 L 81 167 Q 77.7 165.7 79 170.5 L 77 172.5 L 77 192.5 Q 78.8 195.8 83.5 196 L 88 192.5 L 93 181 L 95 181 Q 93.9 178.3 96.5 179 L 105 174 Q 106.3 177 102.5 176 L 93 183.5 L 88 195 Q 84.9 194.3 85.5 197 L 79 197 L 79 195 L 77 195 Q 77.8 191.9 75 192.5 L 75 173.5 L 79 165 L 82 163.5 L 82 162 L 84 162 Q 82.9 159.3 85.5 160 L 96.5 153 Z " /><path fill="rgb(241,178,110)" stroke="rgb(241,178,110)" stroke-width="1" opacity="0.7725490196078432" d="M 127.5 159 L 128 160.5 L 118.5 167 L 119.5 165 L 127.5 159 Z " /><path fill="rgb(241,178,110)" stroke="rgb(241,178,110)" stroke-width="1" opacity="0.7725490196078432" d="M 115.5 167 Q 118.1 166.3 117 169 L 114.5 169 L 106.5 174 L 107.5 172 L 115.5 167 Z " /></svg>