<svg width="200" height="200" version="1.1" xmlns="http://www.w3.org/2000/svg" desc="Created with imagetracer.js version 1.2.6" ><path fill="rgb(0,0,0)" stroke="rgb(0,0,0)" stroke-width="1" opacity="0" d="M 0 0 L 200 0 L 200 200 L 0 200 L 0 0 Z M 94 15 L 92 16 L 86 23 L 86 36 L 87 37 Q 88 41 86 43 Q 85 49 88 51 L 86 51 L 86 79 L 87 81 L 85 80 Q 80 80 80 80 L 80 61 L 75 57 L 61 57 L 56 61 L 57 71 L 54 73 Q 53 79 56 78 L 57 81 L 56 80 L 24 80 L 23 82 L 21 81 L 16 87 L 16 111 L 17 114 Q 18 117 23 116 L 26 120 L 27 127 L 29 129 Q 29 136 33 140 Q 31 144 35 143 L 39 151 Q 42 156 50 158 L 51 161 L 62 164 L 67 167 L 81 167 Q 80 173 83 175 L 82 177 Q 82 181 86 183 L 113 183 L 113 182 L 116 180 L 116 170 L 115 168 L 115 166 L 118 168 L 127 168 L 128 167 Q 130 168 129 165 L 131 163 Q 136 165 138 162 L 140 163 L 154 156 L 158 151 Q 157 148 160 149 L 168 135 L 170 124 L 173 119 L 179 115 L 180 115 L 180 110 L 182 110 L 182 88 L 181 85 L 174 80 L 142 80 L 142 62 L 137 57 Q 126 56 120 58 L 117 64 L 117 75 L 118 81 L 115 80 L 111 80 L 111 42 Q 113 38 120 40 L 122 44 Q 121 49 124 50 L 126 49 L 147 49 L 148 50 L 150 49 L 149 47 L 149 35 L 150 34 L 150 26 L 149 25 L 150 20 L 144 15 L 94 15 Z " /><path fill="rgb(150,150,150)" stroke="rgb(150,150,150)" stroke-width="1" opacity="0.12941176470588237" d="M 93.5 15 L 144 15.5 L 93.5 16 L 89 19.5 L 88.5 21 L 88 19.5 L 93.5 15 Z " /><path fill="rgb(150,150,150)" stroke="rgb(150,150,150)" stroke-width="1" opacity="0.12941176470588237" d="M 145.5 16 L 148 17 L 150 20.5 L 148.5 21 L 145.5 16 Z " /><path fill="rgb(150,150,150)" stroke="rgb(150,150,150)" stroke-width="1" opacity="0.12941176470588237" d="M 120.5 40 Q 122.8 39.3 122 41.5 L 120.5 40 Z " /><path fill="rgb(150,150,150)" stroke="rgb(150,150,150)" stroke-width="1" opacity="0.12941176470588237" d="M 122.5 47 L 124 49.5 L 122 48.5 L 122.5 47 Z " /><path fill="rgb(150,150,150)" stroke="rgb(150,150,150)" stroke-width="1" opacity="0.12941176470588237" d="M 76 58 L 79 59.5 L 78.5 62 L 78 60 Q 75 61 76 58 Z " /><path fill="rgb(150,150,150)" stroke="rgb(150,150,150)" stroke-width="1" opacity="0.12941176470588237" d="M 120.5 58 L 121 59.5 L 118.5 61 L 120.5 58 Z " /><path fill="rgb(150,150,150)" stroke="rgb(150,150,150)" stroke-width="1" opacity="0.12941176470588237" d="M 138.5 58 L 139.5 60 Q 136.7 60.7 138.5 58 Z " /><path fill="rgb(150,150,150)" stroke="rgb(150,150,150)" stroke-width="1" opacity="0.12941176470588237" d="M 19.5 82 L 21 82.5 L 16 86.5 L 19.5 82 Z " /><path fill="rgb(150,150,150)" stroke="rgb(150,150,150)" stroke-width="1" opacity="0.12941176470588237" d="M 176.5 82 L 180 84.5 L 179.5 86 L 179 84 L 176.5 82 Z " /><path fill="rgb(150,150,150)" stroke="rgb(150,150,150)" stroke-width="1" opacity="0.12941176470588237" d="M 17.5 112 L 21 114.5 L 20.5 116 L 17.5 112 Z " /><path fill="rgb(150,150,150)" stroke="rgb(150,150,150)" stroke-width="1" opacity="0.12941176470588237" d="M 178.5 113 L 180 113.5 L 176.5 116 L 178.5 113 Z " /><path fill="rgb(150,150,150)" stroke="rgb(150,150,150)" stroke-width="1" opacity="0.12941176470588237" d="M 23.5 116 L 26 117.5 L 24.5 118 L 23.5 116 Z " /><path fill="rgb(150,150,150)" stroke="rgb(150,150,150)" stroke-width="1" opacity="0.12941176470588237" d="M 172 116 Q 175 115 174 118 Q 171 119 172 116 Z " /><path fill="rgb(150,150,150)" stroke="rgb(150,150,150)" stroke-width="1" opacity="0.12941176470588237" d="M 171 119 L 173 119.5 L 171 120.5 L 171 119 Z " /><path fill="rgb(150,150,150)" stroke="rgb(150,150,150)" stroke-width="1" opacity="0.12941176470588237" d="M 33.5 141 L 36 142.5 L 35.5 144 L 33.5 141 Z " /><path fill="rgb(150,150,150)" stroke="rgb(150,150,150)" stroke-width="1" opacity="0.12941176470588237" d="M 163.5 141 L 164 142.5 L 162 143.5 L 163.5 141 Z " /><path fill="rgb(150,150,150)" stroke="rgb(150,150,150)" stroke-width="1" opacity="0.12941176470588237" d="M 36.5 145 L 39 149 L 42 150.5 Q 41.3 152.8 43.5 152 L 46 156 L 42 153.5 L 40.5 151 Q 38.3 151.8 39 149.5 L 36.5 145 Z " /><path fill="rgb(150,150,150)" stroke="rgb(150,150,150)" stroke-width="1" opacity="0.12941176470588237" d="M 160.5 145 L 162 145.5 L 159 147.5 L 160.5 145 Z " /><path fill="rgb(150,150,150)" stroke="rgb(150,150,150)" stroke-width="1" opacity="0.12941176470588237" d="M 157.5 149 L 158 150.5 L 154.5 155 L 152.5 156 L 152 154.5 L 157.5 149 Z " /><path fill="rgb(150,150,150)" stroke="rgb(150,150,150)" stroke-width="1" opacity="0.12941176470588237" d="M 47.5 156 L 48.5 158 L 47.5 156 Z " /><path fill="rgb(150,150,150)" stroke="rgb(150,150,150)" stroke-width="1" opacity="0.12941176470588237" d="M 150.5 156 L 149.5 158 L 148 157.5 L 150.5 156 Z " /><path fill="rgb(150,150,150)" stroke="rgb(150,150,150)" stroke-width="1" opacity="0.12941176470588237" d="M 51.5 159 Q 53.8 158.3 53 160.5 L 51.5 159 Z " /><path fill="rgb(150,150,150)" stroke="rgb(150,150,150)" stroke-width="1" opacity="0.12941176470588237" d="M 134.5 161 L 135 163 L 133 162.5 L 134.5 161 Z " /><path fill="rgb(150,150,150)" stroke="rgb(150,150,150)" stroke-width="1" opacity="0.12941176470588237" d="M 65.5 165 Q 67.8 164.3 67 166.5 L 65.5 165 Z " /><path fill="rgb(150,150,150)" stroke="rgb(150,150,150)" stroke-width="1" opacity="0.12941176470588237" d="M 85.5 181 L 86.5 183 Q 83.7 183.7 85.5 181 Z " /><path fill="rgb(103,103,103)" stroke="rgb(103,103,103)" stroke-width="1" opacity="0.09019607843137255" d="M 91.5 17 L 89.5 20 L 91.5 17 Z " /><path fill="rgb(103,103,103)" stroke="rgb(103,103,103)" stroke-width="1" opacity="0.09019607843137255" d="M 86 23 L 88 23.5 L 86 24.5 L 86 23 Z " /><path fill="rgb(103,103,103)" stroke="rgb(103,103,103)" stroke-width="1" opacity="0.09019607843137255" d="M 86.5 35 Q 89 36 88 40.5 L 87 40.5 L 86.5 35 Z " /><path fill="rgb(103,103,103)" stroke="rgb(103,103,103)" stroke-width="1" opacity="0.09019607843137255" d="M 86.5 47 L 88 49.5 L 87 49.5 L 86.5 47 Z " /><path fill="rgb(103,103,103)" stroke="rgb(103,103,103)" stroke-width="1" opacity="0.09019607843137255" d="M 149.5 48 L 148.5 50 L 149.5 48 Z " /><path fill="rgb(103,103,103)" stroke="rgb(103,103,103)" stroke-width="1" opacity="0.09019607843137255" d="M 60.5 57 L 63 57.5 L 60 58.5 Q 60.8 60.8 58.5 60 L 56.5 61 L 56.5 60 L 59.5 58 L 60.5 57 Z " /><path fill="rgb(103,103,103)" stroke="rgb(103,103,103)" stroke-width="1" opacity="0.09019607843137255" d="M 74.5 57 L 75.5 59 L 74.5 57 Z " /><path fill="rgb(103,103,103)" stroke="rgb(103,103,103)" stroke-width="1" opacity="0.09019607843137255" d="M 119.5 58 L 118.5 60 L 119.5 58 Z " /><path fill="rgb(103,103,103)" stroke="rgb(103,103,103)" stroke-width="1" opacity="0.09019607843137255" d="M 79.5 60 L 80 62.5 L 79 62.5 L 79.5 60 Z " /><path fill="rgb(103,103,103)" stroke="rgb(103,103,103)" stroke-width="1" opacity="0.09019607843137255" d="M 117.5 65 L 118 74.5 L 117 74.5 L 117.5 65 Z " /><path fill="rgb(103,103,103)" stroke="rgb(103,103,103)" stroke-width="1" opacity="0.09019607843137255" d="M 55.5 71 L 55 72.5 L 54.5 77 L 54 72.5 L 55.5 71 Z " /><path fill="rgb(103,103,103)" stroke="rgb(103,103,103)" stroke-width="1" opacity="0.09019607843137255" d="M 23 80 L 26 80.5 L 23 82 L 23 80 Z " /><path fill="rgb(103,103,103)" stroke="rgb(103,103,103)" stroke-width="1" opacity="0.09019607843137255" d="M 83.5 80 L 86.5 81 L 88 80.5 L 85.5 82 L 83.5 80 Z " /><path fill="rgb(103,103,103)" stroke="rgb(103,103,103)" stroke-width="1" opacity="0.09019607843137255" d="M 111.5 80 L 115 80.5 L 111.5 81 L 111.5 80 Z " /><path fill="rgb(103,103,103)" stroke="rgb(103,103,103)" stroke-width="1" opacity="0.09019607843137255" d="M 171.5 80 L 175 81.5 L 173.5 82 L 171.5 80 Z " /><path fill="rgb(103,103,103)" stroke="rgb(103,103,103)" stroke-width="1" opacity="0.09019607843137255" d="M 180.5 87 Q 182.8 86.3 182 88.5 L 180.5 87 Z " /><path fill="rgb(103,103,103)" stroke="rgb(103,103,103)" stroke-width="1" opacity="0.09019607843137255" d="M 179.5 110 L 180 112.5 L 179 112.5 L 179.5 110 Z " /><path fill="rgb(103,103,103)" stroke="rgb(103,103,103)" stroke-width="1" opacity="0.09019607843137255" d="M 26.5 120 L 28 122.5 L 26 121.5 L 26.5 120 Z " /><path fill="rgb(103,103,103)" stroke="rgb(103,103,103)" stroke-width="1" opacity="0.09019607843137255" d="M 27.5 124 L 29 127.5 L 27 126.5 L 27.5 124 Z " /><path fill="rgb(103,103,103)" stroke="rgb(103,103,103)" stroke-width="1" opacity="0.09019607843137255" d="M 168.5 129 L 167.5 131 L 168.5 129 Z " /><path fill="rgb(103,103,103)" stroke="rgb(103,103,103)" stroke-width="1" opacity="0.09019607843137255" d="M 167.5 132 L 168 134.5 L 164.5 139 L 165 137.5 L 167.5 132 Z " /><path fill="rgb(103,103,103)" stroke="rgb(103,103,103)" stroke-width="1" opacity="0.09019607843137255" d="M 30.5 134 L 34 140.5 L 33 140.5 L 30.5 134 Z " /><path fill="rgb(103,103,103)" stroke="rgb(103,103,103)" stroke-width="1" opacity="0.09019607843137255" d="M 163.5 140 L 162.5 142 L 163.5 140 Z " /><path fill="rgb(103,103,103)" stroke="rgb(103,103,103)" stroke-width="1" opacity="0.09019607843137255" d="M 36.5 144 L 38.5 147 L 36.5 144 Z " /><path fill="rgb(103,103,103)" stroke="rgb(103,103,103)" stroke-width="1" opacity="0.09019607843137255" d="M 40.5 151 L 43 151.5 Q 40.9 154.8 40.5 151 Z " /><path fill="rgb(103,103,103)" stroke="rgb(103,103,103)" stroke-width="1" opacity="0.09019607843137255" d="M 150.5 155 L 152 155.5 L 149.5 157 L 150.5 155 Z " /><path fill="rgb(103,103,103)" stroke="rgb(103,103,103)" stroke-width="1" opacity="0.09019607843137255" d="M 146 158 L 148 158.5 L 146 159.5 L 146 158 Z " /><path fill="rgb(103,103,103)" stroke="rgb(103,103,103)" stroke-width="1" opacity="0.09019607843137255" d="M 53.5 160 L 58 162.5 L 56.5 162 Q 52.7 162.5 53.5 160 Z " /><path fill="rgb(103,103,103)" stroke="rgb(103,103,103)" stroke-width="1" opacity="0.09019607843137255" d="M 143.5 160 L 145 160.5 Q 144.3 162.8 140.5 162 L 140.5 161 L 143.5 160 Z " /><path fill="rgb(103,103,103)" stroke="rgb(103,103,103)" stroke-width="1" opacity="0.09019607843137255" d="M 128.5 165 L 129 167 L 126 166.5 L 128.5 165 Z " /><path fill="rgb(103,103,103)" stroke="rgb(103,103,103)" stroke-width="1" opacity="0.09019607843137255" d="M 67.5 166 L 70 166.5 L 67.5 167 L 67.5 166 Z " /><path fill="rgb(103,103,103)" stroke="rgb(103,103,103)" stroke-width="1" opacity="0.09019607843137255" d="M 81.5 167 L 83 173.5 L 81 172.5 L 81.5 167 Z " /><path fill="rgb(103,103,103)" stroke="rgb(103,103,103)" stroke-width="1" opacity="0.09019607843137255" d="M 117.5 167 L 125 167.5 L 117.5 168 L 117.5 167 Z " /><path fill="rgb(103,103,103)" stroke="rgb(103,103,103)" stroke-width="1" opacity="0.09019607843137255" d="M 115.5 177 L 115 178.5 L 112.5 182 L 111 181.5 L 114 180 L 115.5 177 Z " /><path fill="rgb(103,103,103)" stroke="rgb(103,103,103)" stroke-width="1" opacity="0.09019607843137255" d="M 86.5 181 L 87.5 182 L 110 182.5 L 87.5 183 L 86.5 181 Z " /><path fill="rgb(79,85,87)" stroke="rgb(79,85,87)" stroke-width="1" opacity="0.6941176470588235" d="M 94.5 16 L 109 16.5 L 94.5 17 L 89.5 21 L 92.5 17 L 94.5 16 Z " /><path fill="rgb(79,85,87)" stroke="rgb(79,85,87)" stroke-width="1" opacity="0.6941176470588235" d="M 117.5 16 L 143.5 16 L 146 17.5 L 144.5 18 L 143.5 17 L 117 17 L 116.5 19 L 116 17.5 L 117.5 16 Z " /><path fill="rgb(79,85,87)" stroke="rgb(79,85,87)" stroke-width="1" opacity="0.6941176470588235" d="M 94.5 21 L 92.5 24 L 94.5 21 Z " /><path fill="rgb(79,85,87)" stroke="rgb(79,85,87)" stroke-width="1" opacity="0.6941176470588235" d="M 91.5 26 L 92 80.5 L 91 80.5 L 91.5 26 Z " /><path fill="rgb(79,85,87)" stroke="rgb(79,85,87)" stroke-width="1" opacity="0.6941176470588235" d="M 110.5 39 L 111 80.5 L 110 80.5 L 110.5 39 Z " /><path fill="rgb(79,85,87)" stroke="rgb(79,85,87)" stroke-width="1" opacity="0.6941176470588235" d="M 121.5 39 L 122.5 41 L 121.5 39 Z " /><path fill="rgb(79,85,87)" stroke="rgb(79,85,87)" stroke-width="1" opacity="0.6941176470588235" d="M 127.5 45 L 145 45.5 L 127.5 46 L 127.5 45 Z " /><path fill="rgb(79,85,87)" stroke="rgb(79,85,87)" stroke-width="1" opacity="0.6941176470588235" d="M 123.5 47 L 124.5 49 L 123.5 47 Z " /><path fill="rgb(79,85,87)" stroke="rgb(79,85,87)" stroke-width="1" opacity="0.6941176470588235" d="M 71.5 58 L 74 58.5 L 71.5 59 L 71.5 58 Z " /><path fill="rgb(79,85,87)" stroke="rgb(79,85,87)" stroke-width="1" opacity="0.6941176470588235" d="M 121.5 59 L 120 61.5 L 119.5 63 L 119 61.5 L 121.5 59 Z " /><path fill="rgb(79,85,87)" stroke="rgb(79,85,87)" stroke-width="1" opacity="0.6941176470588235" d="M 66.5 62 L 71 62.5 L 66.5 63 L 66.5 62 Z " /><path fill="rgb(79,85,87)" stroke="rgb(79,85,87)" stroke-width="1" opacity="0.6941176470588235" d="M 125.5 62 L 134.5 62 L 137 64.5 L 134.5 63 L 125.5 63 L 123.5 65 L 125.5 62 Z " /><path fill="rgb(79,85,87)" stroke="rgb(79,85,87)" stroke-width="1" opacity="0.6941176470588235" d="M 118.5 64 L 119 73.5 L 118 73.5 L 118.5 64 Z " /><path fill="rgb(79,85,87)" stroke="rgb(79,85,87)" stroke-width="1" opacity="0.6941176470588235" d="M 122.5 66 L 123 80.5 L 122 80.5 L 122.5 66 Z " /><path fill="rgb(79,85,87)" stroke="rgb(79,85,87)" stroke-width="1" opacity="0.6941176470588235" d="M 56.5 74 L 57 77.5 L 56 77.5 L 56.5 74 Z " /><path fill="rgb(79,85,87)" stroke="rgb(79,85,87)" stroke-width="1" opacity="0.6941176470588235" d="M 20.5 83 L 19.5 85 L 20.5 83 Z " /><path fill="rgb(79,85,87)" stroke="rgb(79,85,87)" stroke-width="1" opacity="0.6941176470588235" d="M 176.5 83 L 178.5 86 L 176.5 83 Z " /><path fill="rgb(79,85,87)" stroke="rgb(79,85,87)" stroke-width="1" opacity="0.6941176470588235" d="M 17.5 87 L 17 88.5 L 17 108.5 L 18 109.5 L 16 108.5 L 16 88.5 L 17.5 87 Z " /><path fill="rgb(79,85,87)" stroke="rgb(79,85,87)" stroke-width="1" opacity="0.6941176470588235" d="M 22.5 87 L 21.5 89 L 22.5 87 Z " /><path fill="rgb(79,85,87)" stroke="rgb(79,85,87)" stroke-width="1" opacity="0.6941176470588235" d="M 177.5 92 L 178 105.5 L 177 105.5 L 177.5 92 Z " /><path fill="rgb(79,85,87)" stroke="rgb(79,85,87)" stroke-width="1" opacity="0.6941176470588235" d="M 175.5 109 L 174.5 111 L 175.5 109 Z " /><path fill="rgb(79,85,87)" stroke="rgb(79,85,87)" stroke-width="1" opacity="0.6941176470588235" d="M 18.5 111 L 21.5 115 L 18.5 111 Z " /><path fill="rgb(79,85,87)" stroke="rgb(79,85,87)" stroke-width="1" opacity="0.6941176470588235" d="M 178.5 112 L 176.5 115 L 175 114.5 L 178.5 112 Z " /><path fill="rgb(79,85,87)" stroke="rgb(79,85,87)" stroke-width="1" opacity="0.6941176470588235" d="M 24.5 115 L 26.5 118 L 24.5 115 Z " /><path fill="rgb(79,85,87)" stroke="rgb(79,85,87)" stroke-width="1" opacity="0.6941176470588235" d="M 28.5 124 L 30 126.5 L 28 125.5 L 28.5 124 Z " /><path fill="rgb(79,85,87)" stroke="rgb(79,85,87)" stroke-width="1" opacity="0.6941176470588235" d="M 34.5 140 L 38 144.5 L 36 143.5 L 34.5 140 Z " /><path fill="rgb(79,85,87)" stroke="rgb(79,85,87)" stroke-width="1" opacity="0.6941176470588235" d="M 157.5 141 L 156.5 143 L 157.5 141 Z " /><path fill="rgb(79,85,87)" stroke="rgb(79,85,87)" stroke-width="1" opacity="0.6941176470588235" d="M 42.5 144 L 46.5 149 L 42.5 144 Z " /><path fill="rgb(79,85,87)" stroke="rgb(79,85,87)" stroke-width="1" opacity="0.6941176470588235" d="M 160.5 144 L 158.5 147 L 160.5 144 Z " /><path fill="rgb(79,85,87)" stroke="rgb(79,85,87)" stroke-width="1" opacity="0.6941176470588235" d="M 153.5 146 L 149.5 151 L 153.5 146 Z " /><path fill="rgb(79,85,87)" stroke="rgb(79,85,87)" stroke-width="1" opacity="0.6941176470588235" d="M 39.5 147 L 47.5 156 L 39.5 147 Z " /><path fill="rgb(79,85,87)" stroke="rgb(79,85,87)" stroke-width="1" opacity="0.6941176470588235" d="M 157.5 148 L 151.5 155 L 157.5 148 Z " /><path fill="rgb(79,85,87)" stroke="rgb(79,85,87)" stroke-width="1" opacity="0.6941176470588235" d="M 48.5 150 L 50.5 153 L 48.5 150 Z " /><path fill="rgb(79,85,87)" stroke="rgb(79,85,87)" stroke-width="1" opacity="0.6941176470588235" d="M 52.5 153 L 53.5 155 L 52.5 153 Z " /><path fill="rgb(79,85,87)" stroke="rgb(79,85,87)" stroke-width="1" opacity="0.6941176470588235" d="M 55.5 155 L 56.5 157 L 55.5 155 Z " /><path fill="rgb(79,85,87)" stroke="rgb(79,85,87)" stroke-width="1" opacity="0.6941176470588235" d="M 149.5 155 L 148.5 157 L 149.5 155 Z " /><path fill="rgb(79,85,87)" stroke="rgb(79,85,87)" stroke-width="1" opacity="0.6941176470588235" d="M 49.5 156 L 50.5 158 L 49.5 156 Z " /><path fill="rgb(79,85,87)" stroke="rgb(79,85,87)" stroke-width="1" opacity="0.6941176470588235" d="M 140.5 156 L 139.5 158 L 140.5 156 Z " /><path fill="rgb(79,85,87)" stroke="rgb(79,85,87)" stroke-width="1" opacity="0.6941176470588235" d="M 145.5 158 L 144.5 160 L 145.5 158 Z " /><path fill="rgb(79,85,87)" stroke="rgb(79,85,87)" stroke-width="1" opacity="0.6941176470588235" d="M 70.5 161 L 73 161.5 L 70.5 162 L 70.5 161 Z " /><path fill="rgb(79,85,87)" stroke="rgb(79,85,87)" stroke-width="1" opacity="0.6941176470588235" d="M 62.5 163 L 65 164.5 L 63.5 164 L 62.5 163 Z " /><path fill="rgb(79,85,87)" stroke="rgb(79,85,87)" stroke-width="1" opacity="0.6941176470588235" d="M 88.5 166 L 109 166.5 L 88.5 167 L 88.5 166 Z " /><path fill="rgb(79,85,87)" stroke="rgb(79,85,87)" stroke-width="1" opacity="0.6941176470588235" d="M 118.5 166 L 125 166.5 L 118.5 167 L 118.5 166 Z " /><path fill="rgb(79,85,87)" stroke="rgb(79,85,87)" stroke-width="1" opacity="0.6941176470588235" d="M 87.5 176 L 88.5 177 L 109 177.5 L 88.5 178 L 87.5 176 Z " /><path fill="rgb(79,85,87)" stroke="rgb(79,85,87)" stroke-width="1" opacity="0.6941176470588235" d="M 83.5 179 L 86 180.5 L 84.5 180 L 83.5 179 Z " /><path fill="rgb(79,85,87)" stroke="rgb(79,85,87)" stroke-width="1" opacity="0.6941176470588235" d="M 87.5 181 L 111 181.5 L 87.5 182 L 87.5 181 Z " /><path fill="rgb(13,12,13)" stroke="rgb(13,12,13)" stroke-width="1" opacity="0.9568627450980393" d="M 94.5 17 L 108.5 17 L 109 20 L 97.5 20 L 92 23.5 L 91 26.5 L 91 81 L 105.5 81 L 106 80.5 L 106 36.5 L 107.5 35 L 145 35 L 145 23.5 L 142.5 21 L 140.5 20 L 117 20 L 117.5 17 L 143.5 17 L 148 20.5 Q 151.1 24.9 150 33.5 L 149 34.5 L 149 46.5 L 146.5 49 L 125.5 49 L 122 45.5 L 123 40.5 L 121.5 39 L 110 39 L 110 80.5 Q 110 81.5 114.5 81 L 119 82 L 119 63.5 L 122.5 59 L 133.5 58 L 140 61.5 L 141 63.5 L 141 81 L 170.5 81 L 174.5 82 L 180 86 L 181 89.5 L 181 108.5 L 176.5 114 L 172 115 L 169 121.5 L 166 134.5 L 163 138.5 L 163.5 140 Q 161.3 139.3 162 141.5 L 150.5 155 Q 145.5 160.5 136.5 162 Q 133.5 160.5 136.5 159 Q 146.9 154.4 154 146.5 Q 164.1 134.4 167 116 L 48.5 116 L 47 114.5 L 48.5 112 L 172.5 112 L 176 109.5 L 178 105.5 L 178 92.5 L 173.5 86 L 24.5 86 L 21 88.5 L 20 91.5 L 20 106.5 L 23.5 111 L 25.5 112 L 39 112 L 39 116 L 31 116 L 31 119.5 L 38 138.5 L 50.5 153 Q 58.4 159.6 70.5 162 L 128 162 L 126.5 166 L 114.5 166 L 114 168.5 Q 116.8 170.3 115 176.5 L 111.5 181 L 86.5 181 L 83 179 L 82 166 L 69.5 166 L 63.5 163 L 60.5 163 Q 46.6 156.9 38 145.5 L 29 127.5 L 29 125.5 L 27 117.5 L 24.5 115 L 22.5 115 L 18 110.5 L 17 108.5 L 17 88.5 L 22.5 82 L 27.5 81 L 57 81 L 56 78.5 L 57 74.5 L 57 70.5 Q 58.3 65.8 56 64.5 L 60.5 59 L 70.5 58 L 78 61.5 L 79 63.5 L 79 81 L 88 82 L 87 78.5 L 87 51.5 L 88 47.5 L 87 42.5 Q 89.5 41 88 35.5 L 87 34.5 L 87 25.5 L 92.5 18 L 94.5 17 Z M 127 39 L 127 46 L 145 46 L 145 39 L 127 39 Z M 67 62 L 63 63 L 61 65 L 61 81 L 75 81 L 75 66 Q 73 61 67 62 Z M 126 62 L 122 67 L 122 81 L 137 81 L 137 65 L 135 62 L 126 62 Z M 89 166 L 87 168 L 87 177 L 89 178 L 109 178 L 110 177 L 111 177 L 111 167 L 109 166 L 89 166 Z " /><path fill="rgb(74,74,74)" stroke="rgb(74,74,74)" stroke-width="1" opacity="0.09019607843137255" d="M 86.5 25 L 87 34.5 L 88 35.5 L 86 34.5 L 86.5 25 Z " /><path fill="rgb(74,74,74)" stroke="rgb(74,74,74)" stroke-width="1" opacity="0.09019607843137255" d="M 113.5 39 L 119 39.5 L 113.5 40 L 113.5 39 Z " /><path fill="rgb(74,74,74)" stroke="rgb(74,74,74)" stroke-width="1" opacity="0.09019607843137255" d="M 87.5 41 L 87 42.5 L 88 47.5 L 86 46.5 Q 85 42 87.5 41 Z " /><path fill="rgb(74,74,74)" stroke="rgb(74,74,74)" stroke-width="1" opacity="0.09019607843137255" d="M 148.5 47 L 150 47.5 L 147 49.5 L 148.5 47 Z " /><path fill="rgb(74,74,74)" stroke="rgb(74,74,74)" stroke-width="1" opacity="0.09019607843137255" d="M 86.5 50 L 87 78.5 L 88 79.5 L 86 78.5 L 86.5 50 Z " /><path fill="rgb(74,74,74)" stroke="rgb(74,74,74)" stroke-width="1" opacity="0.09019607843137255" d="M 63.5 57 L 72 57.5 L 63.5 58 L 63.5 57 Z " /><path fill="rgb(74,74,74)" stroke="rgb(74,74,74)" stroke-width="1" opacity="0.09019607843137255" d="M 125.5 57 L 134 57.5 L 125.5 58 L 125.5 57 Z " /><path fill="rgb(74,74,74)" stroke="rgb(74,74,74)" stroke-width="1" opacity="0.09019607843137255" d="M 57.5 61 L 57 62.5 L 56.5 64 L 56 62.5 L 57.5 61 Z " /><path fill="rgb(74,74,74)" stroke="rgb(74,74,74)" stroke-width="1" opacity="0.09019607843137255" d="M 79.5 63 L 80 80 L 83 80.5 L 79 81 L 79.5 63 Z " /><path fill="rgb(74,74,74)" stroke="rgb(74,74,74)" stroke-width="1" opacity="0.09019607843137255" d="M 141.5 63 L 142 79.5 L 141 79.5 L 141.5 63 Z " /><path fill="rgb(74,74,74)" stroke="rgb(74,74,74)" stroke-width="1" opacity="0.09019607843137255" d="M 118.5 74 L 119 81.5 L 118 81.5 L 118.5 74 Z " /><path fill="rgb(74,74,74)" stroke="rgb(74,74,74)" stroke-width="1" opacity="0.09019607843137255" d="M 26.5 80 L 54 80.5 L 26.5 81 L 26.5 80 Z " /><path fill="rgb(74,74,74)" stroke="rgb(74,74,74)" stroke-width="1" opacity="0.09019607843137255" d="M 143.5 80 L 171 80.5 L 143.5 81 L 143.5 80 Z " /><path fill="rgb(74,74,74)" stroke="rgb(74,74,74)" stroke-width="1" opacity="0.09019607843137255" d="M 181.5 89 L 182 108.5 L 180 109.5 L 181 108.5 L 181.5 89 Z " /><path fill="rgb(74,74,74)" stroke="rgb(74,74,74)" stroke-width="1" opacity="0.09019607843137255" d="M 169.5 122 L 170 125.5 L 169 125.5 L 169.5 122 Z " /><path fill="rgb(74,74,74)" stroke="rgb(74,74,74)" stroke-width="1" opacity="0.09019607843137255" d="M 165.5 135 L 166.5 137 L 165.5 135 Z " /><path fill="rgb(74,74,74)" stroke="rgb(74,74,74)" stroke-width="1" opacity="0.09019607843137255" d="M 70.5 166 L 82 166.5 L 70.5 167 L 70.5 166 Z " /><path fill="rgb(74,74,74)" stroke="rgb(74,74,74)" stroke-width="1" opacity="0.09019607843137255" d="M 115.5 166 L 118 166.5 L 115 167 Q 116.9 169.7 116 176.5 L 115 176.5 L 114 167.5 L 115.5 166 Z " /><path fill="rgb(188,231,245)" stroke="rgb(188,231,245)" stroke-width="1" opacity="0.996078431372549" d="M 110.5 17 L 111 19 L 115.5 18 L 117.5 21 L 140.5 21 L 144 23.5 L 144 33.5 L 143.5 34 L 107.5 34 L 105 35 L 105 79.5 L 103.5 81 L 93.5 81 L 92 79.5 L 92 25.5 L 95.5 22 L 97.5 21 L 108.5 21 L 110 19.5 L 110.5 17 Z " /><path fill="rgb(188,231,245)" stroke="rgb(188,231,245)" stroke-width="1" opacity="0.996078431372549" d="M 131.5 44 L 144 44.5 L 131.5 45 L 131.5 44 Z " /><path fill="rgb(188,231,245)" stroke="rgb(188,231,245)" stroke-width="1" opacity="0.996078431372549" d="M 47.5 111 L 46.5 113 L 47.5 111 Z " /><path fill="rgb(188,231,245)" stroke="rgb(188,231,245)" stroke-width="1" opacity="0.996078431372549" d="M 41.5 141 L 42.5 143 L 41.5 141 Z " /><path fill="rgb(188,231,245)" stroke="rgb(188,231,245)" stroke-width="1" opacity="0.996078431372549" d="M 45.5 146 L 48.5 150 L 45.5 146 Z " /><path fill="rgb(188,231,245)" stroke="rgb(188,231,245)" stroke-width="1" opacity="0.996078431372549" d="M 52.5 152 L 53.5 154 L 52.5 152 Z " /><path fill="rgb(188,231,245)" stroke="rgb(188,231,245)" stroke-width="1" opacity="0.996078431372549" d="M 89.5 167 L 109 167.5 L 89.5 168 L 89.5 167 Z " /><path fill="rgb(217,229,234)" stroke="rgb(217,229,234)" stroke-width="1" opacity="0.996078431372549" d="M 110.5 16 Q 116.3 14.3 115 18 Q 110.3 19 110.5 16 Z " /><path fill="rgb(217,229,234)" stroke="rgb(217,229,234)" stroke-width="1" opacity="0.996078431372549" d="M 129.5 40 L 144 40.5 L 130.5 41 L 129 42.5 L 131 43.5 L 128 44 L 129.5 40 Z " /><path fill="rgb(217,229,234)" stroke="rgb(217,229,234)" stroke-width="1" opacity="0.996078431372549" d="M 27.5 86 L 171 86.5 L 27.5 87 L 22.5 91 L 23 89.5 Q 22.3 87.3 24.5 88 L 27.5 86 Z " /><path fill="rgb(217,229,234)" stroke="rgb(217,229,234)" stroke-width="1" opacity="0.996078431372549" d="M 21.5 93 L 22 104.5 L 21 104.5 L 21.5 93 Z " /><path fill="rgb(217,229,234)" stroke="rgb(217,229,234)" stroke-width="1" opacity="0.996078431372549" d="M 22.5 106 L 25 109.5 L 22 107.5 L 22.5 106 Z " /><path fill="rgb(217,229,234)" stroke="rgb(217,229,234)" stroke-width="1" opacity="0.996078431372549" d="M 175.5 107 L 173.5 110 L 175.5 107 Z " /><path fill="rgb(217,229,234)" stroke="rgb(217,229,234)" stroke-width="1" opacity="0.996078431372549" d="M 26.5 110 L 38.5 110 L 41 111 L 42 115.5 Q 40.3 119.5 34 118 L 36 127.5 L 35 127.5 L 32 117 L 39.5 117 L 40 115.5 L 41 113.5 L 38.5 111 L 26.5 111 L 26.5 110 Z " /><path fill="rgb(217,229,234)" stroke="rgb(217,229,234)" stroke-width="1" opacity="0.996078431372549" d="M 48.5 110 L 172 110.5 L 48.5 111 L 48.5 110 Z " /><path fill="rgb(217,229,234)" stroke="rgb(217,229,234)" stroke-width="1" opacity="0.996078431372549" d="M 45 111 L 47 111.5 L 46 115.5 L 47.5 117 L 165 117 L 164.5 120 L 162.5 118 L 47.5 118 L 45 117 L 44 113.5 L 45 111 Z " /><path fill="rgb(217,229,234)" stroke="rgb(217,229,234)" stroke-width="1" opacity="0.996078431372549" d="M 36.5 129 L 44 144 Q 46.7 142.9 46 145.5 Q 51.8 152.7 61 156.5 L 59.5 157 Q 49.5 152 43 143.5 Q 36.5 137.6 36.5 129 Z " /><path fill="rgb(217,229,234)" stroke="rgb(217,229,234)" stroke-width="1" opacity="0.996078431372549" d="M 159.5 134 L 160 135.5 L 158 136.5 L 159.5 134 Z " /><path fill="rgb(217,229,234)" stroke="rgb(217,229,234)" stroke-width="1" opacity="0.996078431372549" d="M 156.5 140 L 155.5 142 L 156.5 140 Z " /><path fill="rgb(217,229,234)" stroke="rgb(217,229,234)" stroke-width="1" opacity="0.996078431372549" d="M 154.5 143 L 146.5 152 L 143.5 154 L 145.5 151 L 154.5 143 Z " /><path fill="rgb(217,229,234)" stroke="rgb(217,229,234)" stroke-width="1" opacity="0.996078431372549" d="M 62.5 157 L 72.5 160 L 90 160.5 L 72.5 161 Q 71.2 158.8 66.5 160 L 62.5 158 L 62.5 157 Z " /><path fill="rgb(217,229,234)" stroke="rgb(217,229,234)" stroke-width="1" opacity="0.996078431372549" d="M 135.5 157 L 134.5 159 L 135.5 157 Z " /><path fill="rgb(217,229,234)" stroke="rgb(217,229,234)" stroke-width="1" opacity="0.996078431372549" d="M 123.5 160 L 127.5 160 Q 128.8 162.8 133 162.5 L 129.5 163 Q 128.5 160 123.5 161 L 123.5 160 Z " /><path fill="rgb(217,229,234)" stroke="rgb(217,229,234)" stroke-width="1" opacity="0.996078431372549" d="M 88 168 L 95 168.5 L 89 169 L 88.5 176 L 88 168 Z " /><path fill="rgb(217,229,234)" stroke="rgb(217,229,234)" stroke-width="1" opacity="0.996078431372549" d="M 109.5 168 L 110 174.5 L 109 174.5 L 109.5 168 Z " /><path fill="rgb(217,231,236)" stroke="rgb(217,231,236)" stroke-width="1" opacity="1" d="M 130.5 41 L 133 41.5 L 132.5 44 L 129 42.5 L 130.5 41 Z " /><path fill="rgb(217,231,236)" stroke="rgb(217,231,236)" stroke-width="1" opacity="1" d="M 27.5 87 L 46 87.5 Q 42.6 93.6 44 104.5 L 46 110.5 L 44 113.5 L 45 117 L 47.5 118 L 162.5 118 L 164 119.5 L 162.5 126 L 162 124 L 66.5 124 L 62 126.5 L 62 131.5 L 68 143.5 L 79.5 155 L 87 159.5 L 72.5 160 Q 55.1 156.9 46 145.5 L 44 142.5 Q 35.3 133.2 34 118 Q 40.3 119.5 42 115.5 L 41 111 L 38.5 110 L 25.5 110 L 23 107.5 L 22 105.5 L 22 91.5 L 27.5 87 Z " /><path fill="rgb(217,231,236)" stroke="rgb(217,231,236)" stroke-width="1" opacity="1" d="M 173.5 88 L 174.5 90 L 173.5 88 Z " /><path fill="rgb(217,231,236)" stroke="rgb(217,231,236)" stroke-width="1" opacity="1" d="M 154.5 142 L 153.5 144 L 154.5 142 Z " /><path fill="rgb(217,231,236)" stroke="rgb(217,231,236)" stroke-width="1" opacity="1" d="M 95.5 168 L 109 168.5 L 95 169 L 95 176 L 89 176 L 89 169 L 94.5 169 L 95.5 168 Z " /><path fill="rgb(157,142,157)" stroke="rgb(157,142,157)" stroke-width="1" opacity="0.996078431372549" d="M 109.5 16 L 110 19.5 L 108.5 21 L 98.5 21 L 98.5 20 L 109 20 L 109.5 16 Z " /><path fill="rgb(157,142,157)" stroke="rgb(157,142,157)" stroke-width="1" opacity="0.996078431372549" d="M 116.5 16 L 115.5 18 L 116.5 16 Z " /><path fill="rgb(157,142,157)" stroke="rgb(157,142,157)" stroke-width="1" opacity="0.996078431372549" d="M 116.5 19 L 117.5 20 L 140 20.5 L 117.5 21 L 116.5 19 Z " /><path fill="rgb(157,142,157)" stroke="rgb(157,142,157)" stroke-width="1" opacity="0.996078431372549" d="M 95.5 21 L 97 21.5 L 92.5 25 L 95.5 21 Z " /><path fill="rgb(157,142,157)" stroke="rgb(157,142,157)" stroke-width="1" opacity="0.996078431372549" d="M 141.5 21 L 144 22.5 L 142.5 22 L 141.5 21 Z " /><path fill="rgb(157,142,157)" stroke="rgb(157,142,157)" stroke-width="1" opacity="0.996078431372549" d="M 144.5 24 L 145 33.5 L 143.5 35 L 107.5 35 L 107.5 34 L 143.5 34 L 144 33.5 L 144.5 24 Z " /><path fill="rgb(157,142,157)" stroke="rgb(157,142,157)" stroke-width="1" opacity="0.996078431372549" d="M 105.5 35 L 106 81 L 104 80.5 L 105 79.5 L 105.5 35 Z " /><path fill="rgb(157,142,157)" stroke="rgb(157,142,157)" stroke-width="1" opacity="0.996078431372549" d="M 128.5 39 L 143.5 39 L 145 40.5 L 144.5 45 L 144 40 L 128.5 40 L 128 44 L 131 44.5 L 127 45 Q 125.8 40.4 128.5 39 Z " /><path fill="rgb(157,142,157)" stroke="rgb(157,142,157)" stroke-width="1" opacity="0.996078431372549" d="M 62.5 63 L 72.5 63 L 75 65.5 L 75 81 L 61 81 L 61 64.5 L 62.5 63 Z " /><path fill="rgb(157,142,157)" stroke="rgb(157,142,157)" stroke-width="1" opacity="0.996078431372549" d="M 125.5 63 L 134.5 63 L 137 65.5 L 137 81 L 123 81 L 123 65.5 L 125.5 63 Z " /><path fill="rgb(157,142,157)" stroke="rgb(157,142,157)" stroke-width="1" opacity="0.996078431372549" d="M 55.5 73 L 56 76.5 L 55 76.5 L 55.5 73 Z " /><path fill="rgb(157,142,157)" stroke="rgb(157,142,157)" stroke-width="1" opacity="0.996078431372549" d="M 23.5 87 L 22 89.5 L 21.5 91 L 21 89.5 L 23.5 87 Z " /><path fill="rgb(157,142,157)" stroke="rgb(157,142,157)" stroke-width="1" opacity="0.996078431372549" d="M 174.5 87 L 177 90.5 L 177 106.5 L 176 106.5 L 176 90.5 L 174.5 87 Z " /><path fill="rgb(157,142,157)" stroke="rgb(157,142,157)" stroke-width="1" opacity="0.996078431372549" d="M 20.5 92 L 21 105.5 L 20 105.5 L 20.5 92 Z " /><path fill="rgb(157,142,157)" stroke="rgb(157,142,157)" stroke-width="1" opacity="0.996078431372549" d="M 21.5 107 L 24.5 111 L 22 110 L 21.5 107 Z " /><path fill="rgb(157,142,157)" stroke="rgb(157,142,157)" stroke-width="1" opacity="0.996078431372549" d="M 175.5 108 L 173.5 111 L 171.5 112 L 48.5 112 L 48.5 111 L 171.5 111 L 175.5 108 Z " /><path fill="rgb(157,142,157)" stroke="rgb(157,142,157)" stroke-width="1" opacity="0.996078431372549" d="M 26.5 111 L 38.5 111 L 40 112.5 L 38.5 112 L 26.5 112 L 26.5 111 Z " /><path fill="rgb(157,142,157)" stroke="rgb(157,142,157)" stroke-width="1" opacity="0.996078431372549" d="M 39.5 115 L 40 117 L 32.5 117 L 32 118.5 L 31 118.5 L 32.5 116 Q 38 117.5 39.5 115 Z " /><path fill="rgb(157,142,157)" stroke="rgb(157,142,157)" stroke-width="1" opacity="0.996078431372549" d="M 47.5 116 L 165.5 116 L 167 117.5 L 165.5 117 L 47.5 117 L 47.5 116 Z " /><path fill="rgb(157,142,157)" stroke="rgb(157,142,157)" stroke-width="1" opacity="0.996078431372549" d="M 165.5 119 L 166 120.5 L 162.5 130 L 162 128.5 L 165.5 119 Z " /><path fill="rgb(157,142,157)" stroke="rgb(157,142,157)" stroke-width="1" opacity="0.996078431372549" d="M 34.5 126 L 36 130.5 L 35 130.5 L 34.5 126 Z " /><path fill="rgb(157,142,157)" stroke="rgb(157,142,157)" stroke-width="1" opacity="0.996078431372549" d="M 36.5 132 L 38 135.5 L 37 135.5 L 36.5 132 Z " /><path fill="rgb(157,142,157)" stroke="rgb(157,142,157)" stroke-width="1" opacity="0.996078431372549" d="M 38.5 137 L 41 140.5 L 39 139.5 L 38.5 137 Z " /><path fill="rgb(157,142,157)" stroke="rgb(157,142,157)" stroke-width="1" opacity="0.996078431372549" d="M 157.5 140 L 156 142.5 L 146.5 153 L 155 143.5 L 157.5 140 Z " /><path fill="rgb(157,142,157)" stroke="rgb(157,142,157)" stroke-width="1" opacity="0.996078431372549" d="M 41.5 142 L 44.5 146 L 41.5 142 Z " /><path fill="rgb(157,142,157)" stroke="rgb(157,142,157)" stroke-width="1" opacity="0.996078431372549" d="M 49.5 150 L 51.5 153 L 49.5 150 Z " /><path fill="rgb(157,142,157)" stroke="rgb(157,142,157)" stroke-width="1" opacity="0.996078431372549" d="M 144.5 153 L 143.5 155 L 144.5 153 Z " /><path fill="rgb(157,142,157)" stroke="rgb(157,142,157)" stroke-width="1" opacity="0.996078431372549" d="M 56.5 155 L 63 158.5 L 61.5 159 Q 56.9 157.8 56.5 155 Z " /><path fill="rgb(157,142,157)" stroke="rgb(157,142,157)" stroke-width="1" opacity="0.996078431372549" d="M 139.5 156 L 138.5 158 L 135.5 159 L 135.5 158 L 139.5 156 Z " /><path fill="rgb(157,142,157)" stroke="rgb(157,142,157)" stroke-width="1" opacity="0.996078431372549" d="M 67.5 160 L 70 160.5 L 67.5 161 L 67.5 160 Z " /><path fill="rgb(157,142,157)" stroke="rgb(157,142,157)" stroke-width="1" opacity="0.996078431372549" d="M 73.5 161 L 125 161.5 L 73.5 162 L 73.5 161 Z " /><path fill="rgb(157,142,157)" stroke="rgb(157,142,157)" stroke-width="1" opacity="0.996078431372549" d="M 127.5 161 L 128.5 163 L 127.5 161 Z " /><path fill="rgb(157,142,157)" stroke="rgb(157,142,157)" stroke-width="1" opacity="0.996078431372549" d="M 87 167 L 89 167.5 L 88 168.5 L 88 176 L 110 176 L 110 168.5 L 109.5 167 Q 112.8 168.8 111 175.5 L 109.5 177 L 88.5 177 L 87 175.5 L 87 167 Z " /><path fill="rgb(231,236,241)" stroke="rgb(231,236,241)" stroke-width="1" opacity="0.996078431372549" d="M 133.5 41 L 142.5 41 L 144 42.5 L 142.5 44 L 133.5 44 Q 130.5 42.5 133.5 41 Z " /><path fill="rgb(231,236,241)" stroke="rgb(231,236,241)" stroke-width="1" opacity="0.996078431372549" d="M 179.5 83 L 180.5 85 L 179.5 83 Z " /><path fill="rgb(231,236,241)" stroke="rgb(231,236,241)" stroke-width="1" opacity="0.996078431372549" d="M 46.5 87 L 170.5 87 L 176 91.5 L 176 105.5 L 172.5 110 L 48.5 110 L 46 111 Q 42.8 105 44 93.5 L 46.5 87 Z " /><path fill="rgb(231,236,241)" stroke="rgb(231,236,241)" stroke-width="1" opacity="0.996078431372549" d="M 17.5 113 L 19.5 116 L 17.5 113 Z " /><path fill="rgb(231,236,241)" stroke="rgb(231,236,241)" stroke-width="1" opacity="0.996078431372549" d="M 66.5 124 L 161.5 124 Q 162.5 124 162 128.5 L 157 139.5 L 146.5 151 L 133 159.5 L 134 161.5 L 129.5 162 Q 128.3 158.8 122.5 160 L 121.5 161 L 92.5 161 Q 76.4 156.1 68 143.5 L 62 131.5 L 62 126.5 L 66.5 124 Z " /><path fill="rgb(231,236,241)" stroke="rgb(231,236,241)" stroke-width="1" opacity="0.996078431372549" d="M 36.5 146 L 37.5 148 L 36.5 146 Z " /><path fill="rgb(231,236,241)" stroke="rgb(231,236,241)" stroke-width="1" opacity="0.996078431372549" d="M 161.5 146 L 159.5 149 L 161.5 146 Z " /><path fill="rgb(231,236,241)" stroke="rgb(231,236,241)" stroke-width="1" opacity="0.996078431372549" d="M 95 169 L 109 169 L 109 176 L 95 176 L 95 169 Z " /></svg>