<svg width="200" height="200" version="1.1" xmlns="http://www.w3.org/2000/svg" desc="Created with imagetracer.js version 1.2.6" ><path fill="rgb(242,73,71)" stroke="rgb(242,73,71)" stroke-width="1" opacity="0.9058823529411765" d="M 32.5 28 L 34 28.5 L 33 31 Q 29.6 30.3 28.5 33 L 29 31.5 Q 28.3 29.3 30.5 30 L 32.5 28 Z " /><path fill="rgb(242,73,71)" stroke="rgb(242,73,71)" stroke-width="1" opacity="0.9058823529411765" d="M 37.5 28 L 42 30 L 41.5 32 L 38 31 L 37.5 28 Z " /><path fill="rgb(242,73,71)" stroke="rgb(242,73,71)" stroke-width="1" opacity="0.9058823529411765" d="M 26 34 Q 29.3 32.7 28 37.5 L 28 39.5 L 30 44.5 L 42 56.5 L 40 57 L 40 55 L 38 55 L 38 53 Q 35.3 54.1 36 51.5 L 33 50 L 33 48 L 31 48 L 31 46 L 27 44 L 27 41.5 L 26 40.5 L 26 34 Z " /><path fill="rgb(242,73,71)" stroke="rgb(242,73,71)" stroke-width="1" opacity="0.9058823529411765" d="M 47.5 37 L 49 37 L 49 39 Q 51.7 37.9 51 40.5 L 47.5 37 Z " /><path fill="rgb(242,73,71)" stroke="rgb(242,73,71)" stroke-width="1" opacity="0.9058823529411765" d="M 52.5 41 L 53.5 43 Q 50.7 43.7 52.5 41 Z " /><path fill="rgb(242,73,71)" stroke="rgb(242,73,71)" stroke-width="1" opacity="0.9058823529411765" d="M 54.5 44 L 56 44 L 56 46 Q 58.7 44.9 58 47.5 L 54.5 44 Z " /><path fill="rgb(242,73,71)" stroke="rgb(242,73,71)" stroke-width="1" opacity="0.9058823529411765" d="M 63.5 53 Q 65.8 52.3 65 54.5 L 63.5 53 Z " /><path fill="rgb(242,73,71)" stroke="rgb(242,73,71)" stroke-width="1" opacity="0.9058823529411765" d="M 68.5 57 L 69.5 59 Q 66.7 59.7 68.5 57 Z " /><path fill="rgb(242,73,71)" stroke="rgb(242,73,71)" stroke-width="1" opacity="0.9058823529411765" d="M 42.5 58 Q 44.8 57.3 44 59.5 L 42.5 58 Z " /><path fill="rgb(242,73,71)" stroke="rgb(242,73,71)" stroke-width="1" opacity="0.9058823529411765" d="M 75.5 64 L 76.5 66 Q 73.7 66.7 75.5 64 Z " /><path fill="rgb(242,73,71)" stroke="rgb(242,73,71)" stroke-width="1" opacity="0.9058823529411765" d="M 49.5 65 Q 51.8 64.3 51 66.5 L 49.5 65 Z " /><path fill="rgb(242,73,71)" stroke="rgb(242,73,71)" stroke-width="1" opacity="0.9058823529411765" d="M 77.5 67 Q 79.8 66.3 79 68.5 L 77.5 67 Z " /><path fill="rgb(242,73,71)" stroke="rgb(242,73,71)" stroke-width="1" opacity="0.9058823529411765" d="M 82.5 71 L 83.5 73 Q 80.7 73.7 82.5 71 Z " /><path fill="rgb(242,73,71)" stroke="rgb(242,73,71)" stroke-width="1" opacity="0.9058823529411765" d="M 58.5 74 Q 60.8 73.3 60 75.5 L 58.5 74 Z " /><path fill="rgb(242,73,71)" stroke="rgb(242,73,71)" stroke-width="1" opacity="0.9058823529411765" d="M 86.5 76 Q 88.8 75.3 88 77.5 L 86.5 76 Z " /><path fill="rgb(242,73,71)" stroke="rgb(242,73,71)" stroke-width="1" opacity="0.9058823529411765" d="M 89.5 78 L 90.5 80 Q 87.7 80.7 89.5 78 Z " /><path fill="rgb(242,73,71)" stroke="rgb(242,73,71)" stroke-width="1" opacity="0.9058823529411765" d="M 65.5 81 Q 67.8 80.3 67 82.5 L 65.5 81 Z " /><path fill="rgb(242,73,71)" stroke="rgb(242,73,71)" stroke-width="1" opacity="0.9058823529411765" d="M 93.5 83 Q 95.8 82.3 95 84.5 L 93.5 83 Z " /><path fill="rgb(242,73,71)" stroke="rgb(242,73,71)" stroke-width="1" opacity="0.9058823529411765" d="M 96.5 85 L 99.5 89 Q 96.9 89.7 98 87 L 96 87 L 96.5 85 Z " /><path fill="rgb(242,73,71)" stroke="rgb(242,73,71)" stroke-width="1" opacity="0.9058823529411765" d="M 72.5 88 Q 74.8 87.3 74 89.5 L 72.5 88 Z " /><path fill="rgb(242,73,71)" stroke="rgb(242,73,71)" stroke-width="1" opacity="0.9058823529411765" d="M 100.5 90 Q 102.8 89.3 102 91.5 L 100.5 90 Z " /><path fill="rgb(242,73,71)" stroke="rgb(242,73,71)" stroke-width="1" opacity="0.9058823529411765" d="M 77.5 92 L 78.5 94 Q 75.7 94.7 77.5 92 Z " /><path fill="rgb(242,73,71)" stroke="rgb(242,73,71)" stroke-width="1" opacity="0.9058823529411765" d="M 103.5 92 L 106.5 96 Q 103.9 96.7 105 94 L 103 94 L 103.5 92 Z " /><path fill="rgb(242,73,71)" stroke="rgb(242,73,71)" stroke-width="1" opacity="0.9058823529411765" d="M 84.5 99 L 85.5 101 Q 82.7 101.7 84.5 99 Z " /><path fill="rgb(242,73,71)" stroke="rgb(242,73,71)" stroke-width="1" opacity="0.9058823529411765" d="M 112.5 101 L 113.5 103 Q 110.7 103.7 112.5 101 Z " /><path fill="rgb(242,73,71)" stroke="rgb(242,73,71)" stroke-width="1" opacity="0.9058823529411765" d="M 91.5 106 L 92.5 108 Q 89.7 108.7 91.5 106 Z " /><path fill="rgb(242,73,71)" stroke="rgb(242,73,71)" stroke-width="1" opacity="0.9058823529411765" d="M 119.5 108 L 173.5 163 L 172 163 L 172 161 Q 169.3 162.1 170 159.5 L 167 158 L 167 156 L 165 156 L 165 154 L 163 154 Q 164.1 151.3 161.5 152 L 160 149 L 158 149 L 158 147 L 156 147 Q 157.1 144.3 154.5 145 L 153 142 L 151 142 L 151 140 L 149 140 L 149 138 Q 146.3 139.1 147 136.5 L 144 135 L 144 133 L 142 133 L 142 131 Q 139.3 132.1 140 129.5 L 137 128 L 137 126 L 135 126 L 135 124 Q 132.3 125.1 133 122.5 L 130 121 L 130 119 L 128 119 L 128 117 L 126 117 L 126 115 Q 123.3 116.1 124 113.5 L 121 112 Q 122 109 119 110 L 119.5 108 Z " /><path fill="rgb(242,73,71)" stroke="rgb(242,73,71)" stroke-width="1" opacity="0.9058823529411765" d="M 98.5 113 L 101.5 117 Q 98.9 117.7 100 115 L 98 115 L 98.5 113 Z " /><path fill="rgb(242,73,71)" stroke="rgb(242,73,71)" stroke-width="1" opacity="0.9058823529411765" d="M 105.5 120 L 108.5 124 Q 105.9 124.7 107 122 L 105 122 L 105.5 120 Z " /><path fill="rgb(242,73,71)" stroke="rgb(242,73,71)" stroke-width="1" opacity="0.9058823529411765" d="M 112.5 127 L 149.5 164 L 151 164 L 151 166 L 153 166 L 153 168 L 155 168 Q 153.9 170.7 156.5 170 L 158 173 L 160 173 Q 158.9 175.7 161.5 175 Q 163.3 177.8 169.5 176 L 171 175.5 L 171 177 L 167 177 Q 168 180 165 179 L 165 177 L 160 177 L 160 175 Q 157.3 176.1 158 173.5 L 153 170 L 153 168 Q 150.3 169.1 151 166.5 L 146 163 L 146 161 L 144 161 L 144 159 Q 141.3 160.1 142 157.5 L 137 154 L 137 152 Q 134.3 153.1 135 150.5 L 130 147 L 130 145 Q 127.3 146.1 128 143.5 L 123 140 L 123 138 Q 120.3 139.1 121 136.5 L 116 133 L 116 131 L 112 129 L 112.5 127 Z " /><path fill="rgb(242,73,71)" stroke="rgb(242,73,71)" stroke-width="1" opacity="0.9058823529411765" d="M 174 165 L 176 165 L 176 171 L 174 171 L 174 165 Z " /><path fill="rgb(242,73,71)" stroke="rgb(242,73,71)" stroke-width="1" opacity="0.9058823529411765" d="M 172 173 L 174 173.5 L 172 174.5 L 172 173 Z " /><path fill="rgb(0,0,0)" stroke="rgb(0,0,0)" stroke-width="1" opacity="0" d="M 0 0 L 200 0 L 200 200 L 0 200 L 0 0 Z M 29 28 L 29 30 L 25 31 L 25 43 Q 28 42 27 47 L 29 47 L 31 50 Q 33 49 32 52 L 34 52 L 34 54 L 36 54 L 37 57 L 36 59 L 36 60 L 34 61 L 34 67 L 32 67 L 32 142 Q 35 141 34 147 L 43 153 L 75 153 L 75 155 L 83 156 L 85 158 Q 88 157 87 160 L 95 163 L 99 163 Q 98 167 103 165 L 103 167 L 116 172 Q 120 171 119 174 L 132 179 Q 144 181 148 176 L 148 172 Q 151 173 150 170 L 154 172 L 154 174 L 156 174 L 156 176 L 162 179 Q 171 181 175 177 Q 174 173 177 174 L 177 164 L 175 160 L 171 157 L 166 150 Q 163 151 164 149 L 155 141 L 150 135 L 150 129 Q 153 129 152 126 L 160 125 Q 161 120 166 121 L 166 119 L 170 113 L 170 95 L 168 93 L 168 90 L 166 90 L 166 88 Q 163 89 164 87 L 155 81 L 152 81 Q 153 78 150 79 L 150 36 L 148 35 L 148 34 L 141 29 L 127 29 L 120 33 Q 116 32 117 35 L 113 35 L 113 37 Q 108 37 106 40 Q 102 39 103 42 L 99 42 L 99 44 L 92 45 L 90 47 Q 86 46 87 49 L 83 49 L 83 51 Q 78 51 76 54 L 68 54 L 42 28 L 29 28 Z " /><path fill="rgb(206,206,206)" stroke="rgb(206,206,206)" stroke-width="1" opacity="0.8588235294117647" d="M 128.5 30 L 138.5 30 L 144 32 L 144 34 L 146 34 Q 144.9 36.7 147.5 36 L 149 37.5 L 149 79.5 L 151.5 82 L 153 82.5 L 149 83 L 148 80.5 L 148 39.5 L 146 36 Q 143 37 144 34 L 141.5 34 L 139.5 32 L 127.5 32 L 97.5 48 L 93 48 Q 94.3 51.3 89.5 50 L 81.5 55 L 79 55 L 78.5 57 L 69.5 57 L 68.5 55 L 78.5 55 L 90.5 48 L 93 48 Q 91.7 44.3 97.5 46 L 105.5 41 L 109 41 Q 107.8 38 111.5 39 L 119.5 34 L 123 34 Q 121.8 31 125.5 32 L 128.5 30 Z " /><path fill="rgb(206,206,206)" stroke="rgb(206,206,206)" stroke-width="1" opacity="0.8588235294117647" d="M 40.5 57 L 37 61.5 L 35.5 64 L 35 62.5 L 40.5 57 Z " /><path fill="rgb(206,206,206)" stroke="rgb(206,206,206)" stroke-width="1" opacity="0.8588235294117647" d="M 33 69 L 35 69.5 L 35 140 L 33 139.5 L 33 69 Z " /><path fill="rgb(206,206,206)" stroke="rgb(206,206,206)" stroke-width="1" opacity="0.8588235294117647" d="M 165 92 Q 168 91 167 94 Q 164 95 165 92 Z " /><path fill="rgb(206,206,206)" stroke="rgb(206,206,206)" stroke-width="1" opacity="0.8588235294117647" d="M 167.5 95 L 169 98.5 L 167 97.5 L 167.5 95 Z " /><path fill="rgb(206,206,206)" stroke="rgb(206,206,206)" stroke-width="1" opacity="0.8588235294117647" d="M 164.5 117 L 162.5 120 L 164.5 117 Z " /><path fill="rgb(206,206,206)" stroke="rgb(206,206,206)" stroke-width="1" opacity="0.8588235294117647" d="M 149.5 125 L 151 125.5 L 149 127.5 L 148.5 136 Q 145.8 134.8 148 133.5 Q 146.2 126.7 149.5 125 Z " /><path fill="rgb(206,206,206)" stroke="rgb(206,206,206)" stroke-width="1" opacity="0.8588235294117647" d="M 43.5 150 L 47 151.5 L 44.5 152 L 43.5 150 Z " /><path fill="rgb(206,206,206)" stroke="rgb(206,206,206)" stroke-width="1" opacity="0.8588235294117647" d="M 73.5 150 L 77 150 Q 75.8 153 79.5 152 L 81.5 154 L 85.5 154 Q 87.6 157.9 93 157 Q 91.8 160 95.5 159 L 113.5 168 L 117.5 168 L 125.5 173 L 128 173 Q 126.7 176.7 132.5 175 Q 133.8 178.3 139.5 177 Q 140.6 174.3 144 175 Q 143 172 146 173 L 146 170.5 L 148 166 Q 150.7 164.9 150 167.5 L 146 175 L 140.5 178 L 134.5 178 Q 124.3 175.7 117.5 170 L 109 168 Q 110.3 164.7 105.5 166 Q 101.2 161 93 161 Q 94.3 158 90.5 159 L 76.5 152 L 72 151.5 L 73.5 150 Z " /><path fill="rgb(186,150,150)" stroke="rgb(186,150,150)" stroke-width="1" opacity="0.8941176470588236" d="M 67.5 55 L 69.5 58 L 67 57 L 67.5 55 Z " /><path fill="rgb(186,150,150)" stroke="rgb(186,150,150)" stroke-width="1" opacity="0.8941176470588236" d="M 41.5 57 L 42 59 L 37.5 62 L 41.5 57 Z " /><path fill="rgb(186,150,150)" stroke="rgb(186,150,150)" stroke-width="1" opacity="0.8941176470588236" d="M 70.5 59 L 73 60.5 L 72.5 62 L 72 60 L 70.5 59 Z " /><path fill="rgb(186,150,150)" stroke="rgb(186,150,150)" stroke-width="1" opacity="0.8941176470588236" d="M 36.5 63 L 35.5 65 L 36.5 63 Z " /><path fill="rgb(186,150,150)" stroke="rgb(186,150,150)" stroke-width="1" opacity="0.8941176470588236" d="M 152.5 83 L 156 84.5 L 154.5 84 Q 151.5 84.5 152.5 83 Z " /><path fill="rgb(186,150,150)" stroke="rgb(186,150,150)" stroke-width="1" opacity="0.8941176470588236" d="M 158 85 Q 160.7 83.9 160 86.5 L 164.5 92 Q 162.3 92.8 163 90.5 L 158 87 L 158 85 Z " /><path fill="rgb(186,150,150)" stroke="rgb(186,150,150)" stroke-width="1" opacity="0.8941176470588236" d="M 80.5 96 L 81.5 98 L 80.5 96 Z " /><path fill="rgb(186,150,150)" stroke="rgb(186,150,150)" stroke-width="1" opacity="0.8941176470588236" d="M 167.5 98 L 168.5 100 Q 165.7 100.7 167.5 98 Z " /><path fill="rgb(186,150,150)" stroke="rgb(186,150,150)" stroke-width="1" opacity="0.8941176470588236" d="M 87.5 103 L 88.5 105 L 87.5 103 Z " /><path fill="rgb(186,150,150)" stroke="rgb(186,150,150)" stroke-width="1" opacity="0.8941176470588236" d="M 167 108 Q 170 107 169 110 Q 166 111 167 108 Z " /><path fill="rgb(186,150,150)" stroke="rgb(186,150,150)" stroke-width="1" opacity="0.8941176470588236" d="M 94.5 110 L 96.5 113 L 94.5 110 Z " /><path fill="rgb(186,150,150)" stroke="rgb(186,150,150)" stroke-width="1" opacity="0.8941176470588236" d="M 124.5 112 L 125.5 114 L 124.5 112 Z " /><path fill="rgb(186,150,150)" stroke="rgb(186,150,150)" stroke-width="1" opacity="0.8941176470588236" d="M 166.5 113 L 167 115 L 165 114.5 L 166.5 113 Z " /><path fill="rgb(186,150,150)" stroke="rgb(186,150,150)" stroke-width="1" opacity="0.8941176470588236" d="M 164.5 116 L 161.5 120 L 164.5 116 Z " /><path fill="rgb(186,150,150)" stroke="rgb(186,150,150)" stroke-width="1" opacity="0.8941176470588236" d="M 102.5 118 L 104.5 121 L 102.5 118 Z " /><path fill="rgb(186,150,150)" stroke="rgb(186,150,150)" stroke-width="1" opacity="0.8941176470588236" d="M 131.5 119 L 132.5 121 L 131.5 119 Z " /><path fill="rgb(186,150,150)" stroke="rgb(186,150,150)" stroke-width="1" opacity="0.8941176470588236" d="M 156.5 122 L 157 124 L 154 123.5 L 156.5 122 Z " /><path fill="rgb(186,150,150)" stroke="rgb(186,150,150)" stroke-width="1" opacity="0.8941176470588236" d="M 152.5 124 L 151.5 126 L 152.5 124 Z " /><path fill="rgb(186,150,150)" stroke="rgb(186,150,150)" stroke-width="1" opacity="0.8941176470588236" d="M 110.5 126 L 111.5 128 L 110.5 126 Z " /><path fill="rgb(186,150,150)" stroke="rgb(186,150,150)" stroke-width="1" opacity="0.8941176470588236" d="M 138.5 126 L 141.5 130 L 138.5 126 Z " /><path fill="rgb(186,150,150)" stroke="rgb(186,150,150)" stroke-width="1" opacity="0.8941176470588236" d="M 117.5 133 L 119.5 136 L 117.5 133 Z " /><path fill="rgb(186,150,150)" stroke="rgb(186,150,150)" stroke-width="1" opacity="0.8941176470588236" d="M 145.5 133 L 150.5 139 L 145.5 133 Z " /><path fill="rgb(186,150,150)" stroke="rgb(186,150,150)" stroke-width="1" opacity="0.8941176470588236" d="M 124.5 140 L 126.5 143 L 124.5 140 Z " /><path fill="rgb(186,150,150)" stroke="rgb(186,150,150)" stroke-width="1" opacity="0.8941176470588236" d="M 154.5 142 L 155.5 144 L 154.5 142 Z " /><path fill="rgb(186,150,150)" stroke="rgb(186,150,150)" stroke-width="1" opacity="0.8941176470588236" d="M 36.5 143 L 39 147.5 L 37 146.5 L 36.5 143 Z " /><path fill="rgb(186,150,150)" stroke="rgb(186,150,150)" stroke-width="1" opacity="0.8941176470588236" d="M 40.5 148 L 41.5 150 Q 38.7 150.7 40.5 148 Z " /><path fill="rgb(186,150,150)" stroke="rgb(186,150,150)" stroke-width="1" opacity="0.8941176470588236" d="M 132.5 148 L 134.5 151 L 132.5 148 Z " /><path fill="rgb(186,150,150)" stroke="rgb(186,150,150)" stroke-width="1" opacity="0.8941176470588236" d="M 161.5 149 L 162.5 151 L 161.5 149 Z " /><path fill="rgb(186,150,150)" stroke="rgb(186,150,150)" stroke-width="1" opacity="0.8941176470588236" d="M 46.5 150 L 73 150.5 L 71.5 152 L 47.5 152 L 46.5 150 Z " /><path fill="rgb(186,150,150)" stroke="rgb(186,150,150)" stroke-width="1" opacity="0.8941176470588236" d="M 139.5 155 L 141.5 158 L 139.5 155 Z " /><path fill="rgb(186,150,150)" stroke="rgb(186,150,150)" stroke-width="1" opacity="0.8941176470588236" d="M 168.5 156 L 171.5 160 L 168.5 156 Z " /><path fill="rgb(186,150,150)" stroke="rgb(186,150,150)" stroke-width="1" opacity="0.8941176470588236" d="M 147.5 163 L 149.5 166 L 147.5 163 Z " /><path fill="rgb(186,150,150)" stroke="rgb(186,150,150)" stroke-width="1" opacity="0.8941176470588236" d="M 155.5 171 L 156.5 173 L 155.5 171 Z " /><path fill="rgb(247,49,47)" stroke="rgb(247,49,47)" stroke-width="1" opacity="0.996078431372549" d="M 34.5 28 L 38 29.5 L 38 31 L 33 31 L 34.5 28 Z " /><path fill="rgb(247,49,47)" stroke="rgb(247,49,47)" stroke-width="1" opacity="0.996078431372549" d="M 30.5 31 Q 33.1 30.3 32 33 Q 29.3 31.9 30 34.5 L 29 39.5 L 30 42.5 L 28 41.5 L 27 38.5 L 28 33.5 L 30.5 31 Z " /><path fill="rgb(247,49,47)" stroke="rgb(247,49,47)" stroke-width="1" opacity="0.996078431372549" d="M 39 31 L 43 32 L 43 34 L 45 34 L 45 36 Q 47.7 34.9 47 37.5 L 52 41 L 52 43 Q 54.7 41.9 54 44.5 L 59 48 L 59 50 L 61 50 L 61 52 Q 63.7 50.9 63 53.5 L 66 55 L 68 59 L 62 56 L 62 54 L 60 54 L 60 52 Q 57.3 53.1 58 50.5 L 55 49 L 55 47 L 53 47 L 53 45 Q 50.3 46.1 51 43.5 L 48 42 L 48 40 L 46 40 L 46 38 Q 43.3 39.1 44 36.5 L 41 35 L 39 31 Z " /><path fill="rgb(247,49,47)" stroke="rgb(247,49,47)" stroke-width="1" opacity="0.996078431372549" d="M 30.5 44 L 36 47 L 37 51 L 43 54 L 44 58 L 46 58 Q 44.9 60.7 47.5 60 L 51 65 L 53 65 Q 51.9 67.7 54.5 67 L 58 72 L 60 72 Q 58.9 74.7 61.5 74 L 67 81 L 74 86.5 L 78 91.5 L 81 93 L 81 95 L 83 95 L 83 97 Q 85.7 95.9 85 98.5 L 88 100 L 88 102 L 90 102 L 90 104 Q 92.7 102.9 92 105.5 L 97 109 L 97 111 L 99 111 L 99 113 Q 101.7 111.9 101 114.5 L 104 116 L 104 118 L 106 118 L 106 120 Q 108.7 118.9 108 121.5 L 111 123 L 111 125 L 113 125 L 113 127 L 115 127 Q 113.9 129.7 116.5 129 L 118 132 L 120 132 L 120 134 L 122 134 Q 120.9 136.7 123.5 136 L 125 139 L 127 139 L 127 141 L 129 141 L 129 143 Q 131.7 141.9 131 144.5 L 134 146 L 134 148 L 136 148 Q 134.9 150.7 137.5 150 L 141 155 L 143 155 Q 141.9 157.7 144.5 157 L 148 162 Q 150.7 160.9 150 163.5 L 112.5 127 L 111 127 L 111 125 Q 108.3 126.1 109 123.5 L 104 120 L 104 118 Q 101.3 119.1 102 116.5 L 97 113 L 97 111 L 95 111 L 95 109 Q 92.3 110.1 93 107.5 L 90 106 L 90 104 L 88 104 L 88 102 Q 85.3 103.1 86 100.5 L 83 99 L 83 97 L 81 97 L 81 95 Q 78.3 96.1 79 93.5 L 76 92 L 76 90 L 74 90 L 74 88 L 72 88 Q 73.1 85.3 70.5 86 L 69 83 L 67 83 L 67 81 L 65 81 Q 66.1 78.3 63.5 79 L 62 76 L 60 76 L 60 74 L 58 74 Q 59.1 71.3 56.5 72 L 53 67 L 51 67 Q 52.1 64.3 49.5 65 L 46 60 L 44 60 L 44 58 Q 41.3 59.1 42 56.5 L 30.5 44 Z " /><path fill="rgb(247,49,47)" stroke="rgb(247,49,47)" stroke-width="1" opacity="0.996078431372549" d="M 71.5 61 L 72.5 63 Q 69.7 63.7 71.5 61 Z " /><path fill="rgb(247,49,47)" stroke="rgb(247,49,47)" stroke-width="1" opacity="0.996078431372549" d="M 73.5 64 Q 75.8 63.3 75 65.5 L 73.5 64 Z " /><path fill="rgb(247,49,47)" stroke="rgb(247,49,47)" stroke-width="1" opacity="0.996078431372549" d="M 80.5 71 Q 82.8 70.3 82 72.5 L 80.5 71 Z " /><path fill="rgb(247,49,47)" stroke="rgb(247,49,47)" stroke-width="1" opacity="0.996078431372549" d="M 87.5 78 L 89 78 L 89 80 Q 91.7 78.9 91 81.5 L 87.5 78 Z " /><path fill="rgb(247,49,47)" stroke="rgb(247,49,47)" stroke-width="1" opacity="0.996078431372549" d="M 96.5 87 Q 98.8 86.3 98 88.5 L 96.5 87 Z " /><path fill="rgb(247,49,47)" stroke="rgb(247,49,47)" stroke-width="1" opacity="0.996078431372549" d="M 103.5 94 Q 105.8 93.3 105 95.5 L 103.5 94 Z " /><path fill="rgb(247,49,47)" stroke="rgb(247,49,47)" stroke-width="1" opacity="0.996078431372549" d="M 108.5 98 L 109.5 100 Q 106.7 100.7 108.5 98 Z " /><path fill="rgb(247,49,47)" stroke="rgb(247,49,47)" stroke-width="1" opacity="0.996078431372549" d="M 115.5 105 L 116.5 107 Q 113.7 107.7 115.5 105 Z " /><path fill="rgb(247,49,47)" stroke="rgb(247,49,47)" stroke-width="1" opacity="0.996078431372549" d="M 122.5 112 L 123.5 114 Q 120.7 114.7 122.5 112 Z " /><path fill="rgb(247,49,47)" stroke="rgb(247,49,47)" stroke-width="1" opacity="0.996078431372549" d="M 131.5 121 L 132.5 123 Q 129.7 123.7 131.5 121 Z " /><path fill="rgb(247,49,47)" stroke="rgb(247,49,47)" stroke-width="1" opacity="0.996078431372549" d="M 138.5 128 L 139.5 130 Q 136.7 130.7 138.5 128 Z " /><path fill="rgb(247,49,47)" stroke="rgb(247,49,47)" stroke-width="1" opacity="0.996078431372549" d="M 145.5 135 L 146.5 137 Q 143.7 137.7 145.5 135 Z " /><path fill="rgb(247,49,47)" stroke="rgb(247,49,47)" stroke-width="1" opacity="0.996078431372549" d="M 147.5 138 L 149 138 L 149 140 Q 151.7 138.9 151 141.5 L 147.5 138 Z " /><path fill="rgb(247,49,47)" stroke="rgb(247,49,47)" stroke-width="1" opacity="0.996078431372549" d="M 156.5 147 Q 158.8 146.3 158 148.5 L 156.5 147 Z " /><path fill="rgb(247,49,47)" stroke="rgb(247,49,47)" stroke-width="1" opacity="0.996078431372549" d="M 163.5 154 Q 165.8 153.3 165 155.5 L 163.5 154 Z " /><path fill="rgb(247,49,47)" stroke="rgb(247,49,47)" stroke-width="1" opacity="0.996078431372549" d="M 168.5 158 L 169.5 160 Q 166.7 160.7 168.5 158 Z " /><path fill="rgb(247,49,47)" stroke="rgb(247,49,47)" stroke-width="1" opacity="0.996078431372549" d="M 170.5 161 L 174 163.5 L 174 173 L 172 173 Q 173.1 175.7 170.5 175 L 168 176 L 168 174 L 171 174 Q 169.7 169.9 173 171 L 173 165 Q 170 166.3 171 162.5 L 170.5 161 Z " /><path fill="rgb(247,49,47)" stroke="rgb(247,49,47)" stroke-width="1" opacity="0.996078431372549" d="M 151.5 164 L 156 167 L 157 169.5 L 155 170 L 155 168 L 151 166 L 151.5 164 Z " /><path fill="rgb(247,49,47)" stroke="rgb(247,49,47)" stroke-width="1" opacity="0.996078431372549" d="M 158.5 171 Q 159.8 174.8 164 174 Q 165.1 176.7 162.5 176 L 160 175 Q 161 172 158 173 L 158.5 171 Z " /><path fill="rgb(211,210,210)" stroke="rgb(211,210,210)" stroke-width="1" opacity="1" d="M 129.5 32 Q 140.7 29.8 144 35.5 L 142.5 35 L 140 35 L 139.5 33 L 129.5 33 L 129.5 32 Z " /><path fill="rgb(211,210,210)" stroke="rgb(211,210,210)" stroke-width="1" opacity="1" d="M 126.5 33 L 127 35 Q 122.9 33.7 124 37 L 120.5 37 L 119 37.5 Q 118.1 34.5 122.5 36 L 126.5 33 Z " /><path fill="rgb(211,210,210)" stroke="rgb(211,210,210)" stroke-width="1" opacity="1" d="M 116.5 38 L 117 40 L 115 39.5 L 116.5 38 Z " /><path fill="rgb(211,210,210)" stroke="rgb(211,210,210)" stroke-width="1" opacity="1" d="M 147.5 40 L 148 79.5 L 147 79.5 L 147.5 40 Z " /><path fill="rgb(211,210,210)" stroke="rgb(211,210,210)" stroke-width="1" opacity="1" d="M 109.5 42 L 110 44 L 104.5 45 L 105.5 43 L 109.5 42 Z " /><path fill="rgb(211,210,210)" stroke="rgb(211,210,210)" stroke-width="1" opacity="1" d="M 102.5 45 L 103 47 L 101 46.5 L 102.5 45 Z " /><path fill="rgb(211,210,210)" stroke="rgb(211,210,210)" stroke-width="1" opacity="1" d="M 93.5 48 L 94 51 L 88.5 52 L 89.5 50 Q 94 51.3 93.5 48 Z " /><path fill="rgb(211,210,210)" stroke="rgb(211,210,210)" stroke-width="1" opacity="1" d="M 79.5 55 L 80 58 L 74.5 58 L 74 59.5 L 73 59.5 L 73 57 L 79 57 L 79.5 55 Z " /><path fill="rgb(211,210,210)" stroke="rgb(211,210,210)" stroke-width="1" opacity="1" d="M 74.5 61 L 81.5 67 L 83 70 L 85 70 L 85 72 L 87 72 Q 85.9 74.7 88.5 74 L 90 77 L 92 77 L 92 79 L 94 79 Q 92.9 81.7 95.5 81 L 97 84 L 99 84 L 99 86 L 101 86 Q 99.9 88.7 102.5 88 L 104 91 L 106 91 L 106 93 L 108 93 L 108 95 L 110 95 Q 108.9 97.7 111.5 97 L 113 100 L 115 100 L 115 102 L 117 102 Q 115.9 104.7 118.5 104 L 120 107 L 122 107 L 122 109 L 124 109 Q 122.9 111.7 125.5 111 L 127 114 L 129 114 L 129 116 L 131 116 Q 129.9 118.7 132.5 118 L 134 121 L 136 121 L 136 123 L 138 123 L 138 125 L 140 125 Q 138.9 127.7 141.5 127 L 143 130 L 147 132 L 147.5 127 L 148 134 L 146.5 134 L 115.5 103 L 114 103 L 114 101 Q 111.3 102.1 112 99.5 L 107 96 L 107 94 L 105 94 L 105 92 Q 102.3 93.1 103 90.5 L 100 89 L 100 87 L 98 87 L 98 85 Q 95.3 86.1 96 83.5 L 93 82 L 93 80 L 91 80 L 91 78 Q 88.3 79.1 89 76.5 L 84 73 L 84 71 L 82 71 L 82 69 Q 79.3 70.1 80 67.5 L 77 66 L 77 64 Q 74.3 65.1 75 62.5 L 74.5 61 Z " /><path fill="rgb(211,210,210)" stroke="rgb(211,210,210)" stroke-width="1" opacity="1" d="M 147.5 81 Q 149.8 80.3 149 82.5 L 149 84.5 L 149 125.5 L 147.5 126 L 148 124.5 L 148 82.5 L 147.5 81 Z " /><path fill="rgb(211,210,210)" stroke="rgb(211,210,210)" stroke-width="1" opacity="1" d="M 74.5 91 L 98.5 115 L 100 115 L 105.5 122 Q 107.8 121.3 107 123.5 L 121.5 138 L 123 138 L 128.5 145 Q 130.8 144.3 130 146.5 L 137 152 L 142.5 159 L 144 159 L 144 161 Q 146.7 159.9 146 162.5 L 148.5 166 L 145 165 Q 146.1 162.3 143.5 163 L 142 160 L 140 160 L 140 158 L 138 158 Q 139.1 155.3 136.5 156 L 133 151 L 131 151 Q 132.1 148.3 129.5 149 L 126 144 L 124 144 Q 125.1 141.3 122.5 142 L 117 135 L 110 129.5 L 110 128 L 108 128 Q 109.1 125.3 106.5 126 L 103 121 L 101 121 Q 102.1 118.3 99.5 119 L 96 114 L 94 114 Q 95.1 111.3 92.5 112 L 87 105 L 80 99.5 L 80 98 L 78 98 Q 79.1 95.3 76.5 96 L 74 94.5 L 74 148.5 L 76.5 149 L 76.5 150 L 73 149.5 L 73 92.5 L 74.5 91 Z " /><path fill="rgb(211,210,210)" stroke="rgb(211,210,210)" stroke-width="1" opacity="1" d="M 79.5 151 L 83 153.5 L 80.5 152 L 79.5 151 Z " /><path fill="rgb(211,210,210)" stroke="rgb(211,210,210)" stroke-width="1" opacity="1" d="M 85.5 153 Q 87.8 152.3 87 154.5 L 85.5 153 Z " /><path fill="rgb(211,210,210)" stroke="rgb(211,210,210)" stroke-width="1" opacity="1" d="M 88.5 155 L 94 157.5 L 93.5 159 L 93 157 Q 88.3 158 88.5 155 Z " /><path fill="rgb(211,210,210)" stroke="rgb(211,210,210)" stroke-width="1" opacity="1" d="M 105.5 163 L 113 165 L 112.5 167 L 105.5 164 L 105.5 163 Z " /><path fill="rgb(211,210,210)" stroke="rgb(211,210,210)" stroke-width="1" opacity="1" d="M 117.5 167 L 121 169.5 L 119.5 170 L 117.5 167 Z " /><path fill="rgb(211,210,210)" stroke="rgb(211,210,210)" stroke-width="1" opacity="1" d="M 146.5 169 L 146 170.5 L 144.5 173 L 143 172.5 L 145 172 L 146.5 169 Z " /><path fill="rgb(211,210,210)" stroke="rgb(211,210,210)" stroke-width="1" opacity="1" d="M 124.5 171 L 129 173.5 L 127.5 173 Q 123.7 173.5 124.5 171 Z " /><path fill="rgb(156,155,155)" stroke="rgb(156,155,155)" stroke-width="1" opacity="0.996078431372549" d="M 70 57 Q 74.1 55.3 73 59.5 L 74 61.5 L 73 61.5 L 71.5 59 Q 68.9 59.7 70 57 Z " /><path fill="rgb(156,155,155)" stroke="rgb(156,155,155)" stroke-width="1" opacity="0.996078431372549" d="M 40.5 59 L 42.5 59 L 68.5 85 L 70 85 L 74 91.5 L 73 92.5 L 73 150 L 42.5 150 L 38 146.5 L 37 143 L 35 142.5 L 35 65.5 L 40.5 59 Z " /><path fill="rgb(156,155,155)" stroke="rgb(156,155,155)" stroke-width="1" opacity="0.996078431372549" d="M 78.5 66 L 79.5 68 L 78.5 66 Z " /><path fill="rgb(156,155,155)" stroke="rgb(156,155,155)" stroke-width="1" opacity="0.996078431372549" d="M 86.5 74 L 88.5 77 L 86.5 74 Z " /><path fill="rgb(156,155,155)" stroke="rgb(156,155,155)" stroke-width="1" opacity="0.996078431372549" d="M 94.5 82 L 95.5 84 L 94.5 82 Z " /><path fill="rgb(156,155,155)" stroke="rgb(156,155,155)" stroke-width="1" opacity="0.996078431372549" d="M 150.5 83 L 158 85 Q 156.9 87.7 159.5 87 L 163 92 Q 165.7 90.9 165 93.5 Q 168.3 95 167 100 L 169 100.5 L 169 108 Q 165.3 106.7 167 112.5 L 160 122 L 156.5 122 L 150 125 L 149 122.5 L 149 84.5 L 150.5 83 Z " /><path fill="rgb(156,155,155)" stroke="rgb(156,155,155)" stroke-width="1" opacity="0.996078431372549" d="M 101.5 89 L 102.5 91 L 101.5 89 Z " /><path fill="rgb(156,155,155)" stroke="rgb(156,155,155)" stroke-width="1" opacity="0.996078431372549" d="M 109.5 97 L 110.5 99 L 109.5 97 Z " /><path fill="rgb(156,155,155)" stroke="rgb(156,155,155)" stroke-width="1" opacity="0.996078431372549" d="M 116.5 104 L 117.5 106 L 116.5 104 Z " /><path fill="rgb(211,211,211)" stroke="rgb(211,211,211)" stroke-width="1" opacity="1" d="M 127 32 L 129.5 33 L 140 33 Q 138.8 36 142.5 35 L 144 34.5 L 143.5 36 L 146 36.5 L 145.5 38 L 148 39.5 L 147 40.5 L 147 79.5 L 148 82.5 L 148 124.5 L 147 125.5 L 147 127.5 Q 148.7 133.3 145 132 L 145 130 Q 142.3 131.1 143 128.5 L 140 127 L 140 125 L 138 125 L 138 123 L 136 123 L 136 121 Q 133.3 122.1 134 119.5 L 131 118 L 131 116 L 129 116 L 129 114 Q 126.3 115.1 127 112.5 L 124 111 L 124 109 L 122 109 L 122 107 Q 119.3 108.1 120 105.5 L 117 104 L 117 102 L 115 102 L 115 100 Q 112.3 101.1 113 98.5 L 110 97 L 110 95 L 108 95 L 108 93 L 106 93 L 106 91 Q 103.3 92.1 104 89.5 L 101 88 L 101 86 L 99 86 L 99 84 Q 96.3 85.1 97 82.5 L 94 81 L 94 79 L 92 79 L 92 77 Q 89.3 78.1 90 75.5 L 87 74 L 87 72 L 85 72 L 85 70 Q 82.3 71.1 83 68.5 L 80 67 L 80 65 L 78 65 L 78 63 L 74 61 L 74 58 L 80 58 L 80 55.5 L 81.5 56 L 83 55.5 Q 80.8 54.3 83.5 53 L 87 53.5 Q 86.3 51.3 88.5 52 L 94 51 Q 92.3 46.9 96.5 48 L 98.5 49 L 99.5 46 L 103 47 Q 101.8 44 105.5 45 L 110 44 L 109.5 42 L 108 42.5 L 110.5 41 L 112.5 42 L 113.5 39 L 117 40 L 118.5 37 L 120.5 37 Q 124.9 38.5 124 35.5 L 122 35.5 Q 123.3 32.8 124.5 35 Q 128.7 36.1 127 32 Z " /><path fill="rgb(211,211,211)" stroke="rgb(211,211,211)" stroke-width="1" opacity="1" d="M 74.5 94 L 78 96 L 78 98 Q 80.7 96.9 80 99.5 L 87 105 L 92.5 112 L 94 112 L 94 114 Q 96.7 112.9 96 115.5 L 101 119 L 101 121 Q 103.7 119.9 103 122.5 L 108 126 L 108 128 Q 110.7 126.9 110 129.5 L 117 135 L 122.5 142 Q 125.1 141.3 124 144 L 126 144 L 126 145.5 L 131 149 L 131 151 Q 133.7 149.9 133 152.5 L 138 156 L 138 158 L 140 158 L 140 160 Q 142.7 158.9 142 161.5 L 145 163 Q 143.9 165.7 146.5 165 Q 149.3 166.3 147 167.5 L 145 171.5 L 145.5 173 L 143.5 172 L 144 173.5 Q 144.8 176.1 141.5 175 L 140 174.5 L 140 177 L 134.5 177 Q 133 174 128 174.5 Q 130.3 173.3 127.5 172 L 121 171 Q 122.1 168.3 119.5 169 L 115.5 167 L 113.5 168 L 113 165 L 109.5 166 L 109.5 164 L 103 163 L 102.5 160 L 100.5 160 L 97.5 161 L 96.5 158 L 94.5 159 L 92.5 156 L 87 155 Q 88.1 152.3 85.5 153 L 83.5 154 L 80 152.5 L 80.5 151 L 77 152 L 77 149 L 74 148.5 L 74.5 94 Z " /><path fill="rgb(248,49,47)" stroke="rgb(248,49,47)" stroke-width="1" opacity="1" d="M 32 31 L 39 31 L 39 33 L 41 33 Q 39.9 35.7 42.5 35 L 44 38 L 46 38 L 46 40 L 48 40 Q 46.9 42.7 49.5 42 L 51 45 L 53 45 L 53 47 L 55 47 Q 53.9 49.7 56.5 49 L 58 52 L 60 52 L 60 54 L 62 54 Q 60.9 56.7 63.5 56 Q 64.8 59.8 69 59 L 69 61 L 71 61 L 71 63 Q 73.7 61.9 73 64.5 L 76 66 L 76 68 L 78 68 L 78 70 Q 80.7 68.9 80 71.5 L 83 73 L 83 75 L 85 75 L 85 77 Q 87.7 75.9 87 78.5 L 92 82 L 92 84 L 94 84 L 94 86 Q 96.7 84.9 96 87.5 L 99 89 L 99 91 L 101 91 L 101 93 Q 103.7 91.9 103 94.5 L 106 96 L 106 98 L 108 98 L 108 100 L 110 100 Q 108.9 102.7 111.5 102 L 113 105 L 115 105 L 115 107 L 117 107 Q 115.9 109.7 118.5 109 L 120 112 L 122 112 L 122 114 L 124 114 Q 122.9 116.7 125.5 116 L 127 119 L 129 119 L 129 121 L 131 121 L 131 123 L 133 123 Q 131.9 125.7 134.5 125 L 136 128 L 138 128 L 138 130 L 140 130 Q 138.9 132.7 141.5 132 L 143 135 L 145 135 L 145 137 Q 147.7 135.9 147 138.5 L 152 142 L 152 144 L 154 144 L 154 146 Q 156.7 144.9 156 147.5 L 159 149 L 159 151 L 161 151 L 161 153 Q 163.7 151.9 163 154.5 L 166 156 L 166 158 L 168 158 L 168 160 Q 170.7 158.9 170 161.5 L 171 165 L 173 165 L 173 171 L 171 171 L 171 174 Q 166.9 172.7 168 176 L 164 176 Q 165.3 173 161.5 174 L 157 171 L 156 167 L 150 164 L 150 162 Q 147.3 163.1 148 160.5 L 143 157 L 143 155 Q 140.3 156.1 141 153.5 L 136 150 L 136 148 L 134 148 Q 135.1 145.3 132.5 146 L 131 143 L 129 143 L 129 141 L 127 141 L 127 139 Q 124.3 140.1 125 137.5 L 122 136 L 122 134 L 120 134 L 120 132 Q 117.3 133.1 118 130.5 L 115 129 L 115 127 L 113 127 L 113 125 L 111 125 Q 112.1 122.3 109.5 123 L 108 120 L 106 120 L 106 118 L 104 118 Q 105.1 115.3 102.5 116 L 101 113 L 99 113 L 99 111 L 97 111 Q 98.1 108.3 95.5 109 L 92 104 L 90 104 L 90 102 L 88 102 Q 89.1 99.3 86.5 100 L 85 97 L 83 97 L 83 95 L 81 95 Q 82.1 92.3 79.5 93 L 78 90 L 76 90 L 76 88 Q 73.3 89.1 74 86.5 L 67 81 L 61.5 74 L 60 74 L 60 72 Q 57.3 73.1 58 70.5 L 53 67 L 53 65 Q 50.3 66.1 51 63.5 L 46 60 L 46 58 Q 43.3 59.1 44 56.5 L 43 54 L 37 51 L 36 47 L 30 44 L 29 35.5 L 30 33 Q 33 34 32 31 Z " /><path fill="rgb(211,196,196)" stroke="rgb(211,196,196)" stroke-width="1" opacity="0.21568627450980393" d="M 29 28 L 32 28.5 L 29 30 L 26 34.5 L 26 40.5 L 27 43 L 25 42.5 L 25 31 L 29 30 L 29 28 Z " /><path fill="rgb(211,196,196)" stroke="rgb(211,196,196)" stroke-width="1" opacity="0.21568627450980393" d="M 39.5 28 L 41.5 28 L 67.5 54 L 75.5 54 Q 77.7 50.5 83 51 L 83 49 L 87 49 Q 85.8 46 89.5 47 L 91.5 45 L 99 44 L 99 42 L 103 42 Q 101.8 39 105.5 40 Q 107.7 36.5 113 37 L 113 35 L 117 35 Q 115.8 32 119.5 33 L 126.5 29 L 140.5 29 L 148 33.5 L 148 35 L 150 35.5 L 150 78.5 Q 152.8 77.9 152 81 L 154.5 81 L 164 86.5 Q 163.3 89.1 166 88 L 166 90 L 168 90 L 168 92.5 L 170 94.5 L 170 112.5 L 166 118.5 L 166 121 Q 160.9 120.3 159.5 125 L 152 126 Q 152.8 129.1 150 128.5 L 150 134.5 L 155 141 L 164 148.5 Q 163.3 150.8 165.5 150 L 171 157 L 175 159.5 L 177 163.5 L 177 174 Q 174 172.8 175 176.5 Q 173 179.5 167.5 179 L 167.5 178 L 172 177 Q 171 174 174 175 L 174 172.5 Q 177.3 171.3 176 165.5 Q 173.3 164.4 174 161 Q 171.3 162.1 172 159.5 L 167 156 L 167 154 L 165 154 L 165 152 Q 162.3 153.1 163 150.5 L 160 149 L 160 147 L 158 147 L 158 145 Q 155.3 146.1 156 143.5 L 153 142 L 153 140 Q 150.3 141.1 151 138.5 L 149 136.5 L 149 127.5 L 160 122 Q 158.8 119 162.5 120 Q 165.8 118.8 165 115 Q 168 116.3 167 112.5 L 169 109.5 L 169 96.5 Q 166.3 95.4 167 92 L 165 92 Q 166.1 89.3 163.5 90 L 162 87 Q 159 88 160 85 L 156.5 85 L 149 79.5 L 149 37.5 L 147.5 36 Q 144.9 36.7 146 34 L 144 34 L 144 32 L 141.5 32 Q 138 28 128.5 30 L 123 32 Q 124.3 35.3 119.5 34 L 111.5 39 L 109 39 Q 110.3 42.3 105.5 41 L 97.5 46 L 93 46 Q 94.3 49 90.5 48 L 78.5 55 L 65 55 L 65 53 L 63 53 Q 64.1 50.3 61.5 51 L 60 48 L 58 48 L 58 46 L 56 46 L 56 44 Q 53.3 45.1 54 42.5 L 51 41 L 51 39 L 49 39 L 49 37 L 47 37 Q 48.1 34.3 45.5 35 L 44 32 L 42 32 Q 43.1 29.3 40.5 30 L 39.5 28 Z " /><path fill="rgb(211,196,196)" stroke="rgb(211,196,196)" stroke-width="1" opacity="0.21568627450980393" d="M 27.5 44 L 31 46 L 31 48 L 33 48 L 33 50 Q 35.7 48.9 35 51.5 L 38 53 Q 37 56 40 55 L 40 57.5 Q 33.3 59.6 35 69 L 33 69.5 L 33 140 L 35 140 L 35 145 Q 37.7 143.9 37 146.5 L 40 148 Q 38.8 151 42.5 150 L 44.5 152 L 76.5 152 L 78.5 154 L 93 159 Q 91.8 162 95.5 161 L 105.5 166 L 109 166 Q 107.8 169 111.5 168 L 130.5 177 L 140.5 178 L 146 175 L 150.5 166 L 151 168 L 153 168 L 153 170 Q 155.7 168.9 155 171.5 L 158 173 L 160 177 L 163.5 177 L 164.5 179 L 161.5 179 L 156 176 L 156 174 L 154 174 L 154 172 L 150 170 Q 151 173 148 172 L 148 175.5 Q 143.6 181.1 131.5 179 L 119 174 Q 120.3 170.7 115.5 172 L 103 167 L 103 165 Q 97.8 166.7 99 163 L 94.5 163 L 87 160 Q 88.3 157 84.5 158 L 82.5 156 L 75 155 L 74.5 153 L 42.5 153 L 34 146.5 Q 35.3 140.5 32 141.5 L 32 67 L 34 67 L 34 60.5 L 36 60 L 36 58.5 L 37 56.5 L 36 54 L 34 54 L 34 52 L 32 52 Q 33.1 49.3 30.5 50 L 29 47 Q 25.5 48.1 27.5 44 Z " /></svg>