<svg width="200" height="200" version="1.1" xmlns="http://www.w3.org/2000/svg" desc="Created with imagetracer.js version 1.2.6" ><path fill="rgb(9,6,6)" stroke="rgb(9,6,6)" stroke-width="1" opacity="0.00784313725490196" d="M 0 0 L 200 0 L 200 200 L 0 200 L 0 0 Z M 31 19 L 30 20 Q 25 19 26 22 L 23 24 Q 24 26 22 25 L 19 28 L 17 36 L 17 52 L 18 53 L 17 57 L 17 97 L 18 98 L 17 101 L 17 140 L 18 141 L 17 145 L 17 162 L 18 165 L 18 167 L 22 173 Q 24 172 23 175 L 33 178 L 162 178 L 164 178 L 173 172 L 174 170 Q 173 166 176 167 L 176 30 L 174 29 L 174 27 L 171 25 L 170 22 Q 166 23 167 20 L 164 19 L 31 19 Z " /><path fill="rgb(244,128,75)" stroke="rgb(244,128,75)" stroke-width="1" opacity="0.9882352941176471" d="M 30.5 19 L 163.5 19 L 167 20 Q 165.8 23 169.5 22 L 171 25 L 174 26.5 L 174 29 L 176 29.5 L 176 167 Q 173 165.8 174 169.5 L 173 172 L 163.5 178 L 161.5 178 L 32.5 178 L 23 175 Q 24.1 172.3 21.5 173 L 18 166.5 L 18 164.5 L 17 161.5 L 17 144.5 L 18 140.5 L 17 139.5 L 17 100.5 L 18 97.5 L 17 96.5 L 17 56.5 L 18 52.5 L 17 51.5 L 17 35.5 L 19 27.5 L 21.5 25 Q 23.8 25.8 23 23.5 L 26 22 Q 24.7 18.7 29.5 20 L 30.5 19 Z M 30 21 L 30 23 L 27 24 Q 24 23 25 26 L 22 27 Q 23 32 19 34 L 19 50 L 43 50 L 47 48 L 48 46 L 48 21 L 30 21 Z M 58 21 L 58 46 L 59 48 L 63 50 L 131 50 L 133 49 L 136 45 L 136 22 L 136 21 L 58 21 Z M 146 21 L 146 47 L 151 50 L 175 50 L 175 35 L 173 34 L 172 29 L 163 21 L 146 21 Z M 21 59 L 19 61 L 19 94 L 86 94 L 92 90 L 92 64 L 91 61 L 87 59 L 21 59 Z M 109 59 L 102 63 L 102 90 L 103 92 L 108 94 L 175 94 L 175 60 L 173 59 L 109 59 Z M 21 103 L 19 105 L 19 137 L 45 137 L 47 136 L 48 134 L 48 108 L 47 105 L 43 103 L 21 103 Z M 64 103 L 58 107 L 58 134 L 59 136 L 61 137 L 133 137 L 136 133 L 136 109 L 135 105 L 131 103 L 64 103 Z M 151 103 L 146 107 L 146 135 L 147 136 L 148 137 L 175 137 L 175 103 L 151 103 Z M 21 147 L 19 149 L 19 164 L 22 168 Q 21 170 24 169 L 26 172 Q 28 171 27 174 L 31 175 L 92 175 L 92 152 L 91 150 L 87 147 L 21 147 Z M 107 147 L 105 148 L 102 151 L 102 175 L 164 175 L 170 171 Q 169 168 172 169 Q 172 164 175 162 L 175 148 L 175 147 L 107 147 Z " /><path fill="rgb(255,103,35)" stroke="rgb(255,103,35)" stroke-width="1" opacity="1" d="M 30 21 L 48 21 L 48 45.5 L 47 48 L 42.5 50 L 19 50 L 19 33.5 Q 22.6 31.6 22 27 L 25 25.5 Q 24.3 23.3 26.5 24 L 30 23 L 30 21 Z " /><path fill="rgb(255,103,35)" stroke="rgb(255,103,35)" stroke-width="1" opacity="1" d="M 58 21 L 135.5 21 L 136 21.5 L 136 44.5 L 132.5 49 L 130.5 50 L 62.5 50 L 59 47.5 L 58 45.5 L 58 21 Z " /><path fill="rgb(255,103,35)" stroke="rgb(255,103,35)" stroke-width="1" opacity="1" d="M 146 21 L 162.5 21 L 172 28.5 L 173 34 L 175 34.5 L 175 50 L 150.5 50 L 146 46.5 L 146 21 Z " /><path fill="rgb(255,103,35)" stroke="rgb(255,103,35)" stroke-width="1" opacity="1" d="M 20.5 59 L 86.5 59 L 91 61 L 92 63.5 L 92 89.5 L 85.5 94 L 19 94 L 19 60.5 L 20.5 59 Z " /><path fill="rgb(255,103,35)" stroke="rgb(255,103,35)" stroke-width="1" opacity="1" d="M 108.5 59 L 172.5 59 L 175 60 L 175 94 L 107.5 94 L 103 91.5 L 102 89.5 L 102 62.5 L 108.5 59 Z " /><path fill="rgb(255,103,35)" stroke="rgb(255,103,35)" stroke-width="1" opacity="1" d="M 20.5 103 L 42.5 103 L 47 105 L 48 107.5 L 48 133.5 L 47 136 L 44.5 137 L 19 137 L 19 104.5 L 20.5 103 Z " /><path fill="rgb(255,103,35)" stroke="rgb(255,103,35)" stroke-width="1" opacity="1" d="M 63.5 103 L 130.5 103 L 135 105 L 136 108.5 L 136 132.5 L 132.5 137 L 60.5 137 L 59 135.5 L 58 133.5 L 58 106.5 L 63.5 103 Z " /><path fill="rgb(255,103,35)" stroke="rgb(255,103,35)" stroke-width="1" opacity="1" d="M 150.5 103 L 175 103 L 175 137 L 147.5 137 L 147 135.5 L 146 134.5 L 146 106.5 L 150.5 103 Z " /><path fill="rgb(255,103,35)" stroke="rgb(255,103,35)" stroke-width="1" opacity="1" d="M 20.5 147 L 86.5 147 L 91 149.5 L 92 151.5 L 92 175 L 30.5 175 L 27 174 Q 28.1 171.3 25.5 172 L 24 169 Q 21.3 170.1 22 167.5 L 19 163.5 L 19 148.5 L 20.5 147 Z " /><path fill="rgb(255,103,35)" stroke="rgb(255,103,35)" stroke-width="1" opacity="1" d="M 106.5 147 L 174.5 147 L 175 147.5 L 175 161.5 Q 171.5 163.7 172 169 Q 169.3 167.9 170 170.5 L 163.5 175 L 102 175 L 102 150.5 L 104.5 148 L 106.5 147 Z " /></svg>