<svg width="200" height="200" version="1.1" xmlns="http://www.w3.org/2000/svg" desc="Created with imagetracer.js version 1.2.6" ><path fill="rgb(255,0,0)" stroke="rgb(255,0,0)" stroke-width="1" opacity="0.00392156862745098" d="M 36.5 109 L 39 109.5 L 36.5 110 L 36.5 109 Z " /><path fill="rgb(255,0,0)" stroke="rgb(255,0,0)" stroke-width="1" opacity="0.00392156862745098" d="M 27.5 146 L 101 146.5 L 27.5 147 L 27.5 146 Z " /><path fill="rgb(255,0,0)" stroke="rgb(255,0,0)" stroke-width="1" opacity="0.00392156862745098" d="M 147.5 146 L 183 146.5 L 147.5 147 L 147.5 146 Z " /><path fill="rgb(202,177,145)" stroke="rgb(202,177,145)" stroke-width="1" opacity="0.3411764705882353" d="M 133 24 L 142.5 24 L 143 26 L 144.5 26 L 146 29 L 149 30.5 Q 148.3 33.1 151 32 L 151 34.5 L 154 37.5 L 161 51.5 L 161 54.5 Q 164.6 56.4 164 61 Q 161.3 62.1 162 59.5 L 160 57.5 L 159 51.5 L 154 41.5 L 147 31 L 144 29.5 Q 144.8 27.3 142.5 28 Q 141.8 24.3 136.5 25 Q 133.3 25.8 134 30.5 L 137 32 L 138.5 35 Q 140.8 34.3 140 36.5 L 143 41 L 123.5 31 L 115.5 30 L 112.5 28 L 93.5 27 Q 90.5 27.5 91 31.5 L 92 34 L 94.5 35 L 108.5 35 L 113 37.5 L 82.5 38 Q 79.7 41.4 73 40 Q 74.5 34.6 71.5 33 L 66 34 L 64.5 37 L 59 41.5 L 57.5 44 Q 55.3 43.3 56 45.5 L 51 51.5 L 44 68.5 L 43 73.5 L 43 94.5 L 46 100.5 L 47 106.5 L 39 110 Q 37.8 107 41.5 108 L 45 107 L 45 102.5 Q 42 103.5 43 98.5 L 42 97.5 L 42 70.5 L 43 64 Q 46.3 65.3 45 60.5 L 46 55 Q 49 56.3 48 52.5 L 52 47.5 L 52 45 Q 54.7 46.1 54 43.5 L 57 42 L 60.5 36 L 64 35 L 65.5 32 L 74 32 L 74 37.5 L 75.5 38 Q 77 40.5 78.5 37 L 108 36.5 L 91.5 36 L 90 34.5 L 90 26 L 104.5 26 L 105.5 27 L 115.5 27 L 117.5 29 L 127 30 Q 125.8 33 129.5 32 L 133 33 L 133 24 Z " /><path fill="rgb(202,177,145)" stroke="rgb(202,177,145)" stroke-width="1" opacity="0.3411764705882353" d="M 176.5 54 L 179 54.5 L 173 57 Q 171.8 54 175.5 55 L 176.5 54 Z " /><path fill="rgb(202,177,145)" stroke="rgb(202,177,145)" stroke-width="1" opacity="0.3411764705882353" d="M 168.5 57 L 172 57.5 L 165.5 60 L 166.5 58 L 168.5 57 Z " /><path fill="rgb(202,177,145)" stroke="rgb(202,177,145)" stroke-width="1" opacity="0.3411764705882353" d="M 179.5 84 Q 183.3 83 182 86 L 178 85.5 L 179.5 84 Z " /><path fill="rgb(202,177,145)" stroke="rgb(202,177,145)" stroke-width="1" opacity="0.3411764705882353" d="M 176.5 85 L 177 88 Q 169.5 87.8 166 92.5 L 166 99.5 L 164 101.5 Q 165.3 106.8 162.5 108 Q 159.9 107.2 161 110.5 L 160 115 Q 155.9 116.7 157 112.5 L 163 102.5 Q 162 97.5 165 96.5 L 165 90.5 L 166.5 89 L 174.5 87 L 176.5 85 Z " /><path fill="rgb(202,177,145)" stroke="rgb(202,177,145)" stroke-width="1" opacity="0.3411764705882353" d="M 35.5 110 L 38 110.5 L 32 113 Q 30.8 110 34.5 111 L 35.5 110 Z " /><path fill="rgb(202,177,145)" stroke="rgb(202,177,145)" stroke-width="1" opacity="0.3411764705882353" d="M 28.5 112 L 31 112.5 Q 30.5 115.5 26.5 115 L 28.5 112 Z " /><path fill="rgb(202,177,145)" stroke="rgb(202,177,145)" stroke-width="1" opacity="0.3411764705882353" d="M 26.5 144 L 27.5 146 Q 24.7 146.7 26.5 144 Z " /><path fill="rgb(202,177,145)" stroke="rgb(202,177,145)" stroke-width="1" opacity="0.3411764705882353" d="M 182.5 144 L 183 146 L 181 145.5 L 182.5 144 Z " /><path fill="rgb(202,177,145)" stroke="rgb(202,177,145)" stroke-width="1" opacity="0.3411764705882353" d="M 102.5 146 L 106 147.5 L 103.5 148 L 102.5 146 Z " /><path fill="rgb(202,177,145)" stroke="rgb(202,177,145)" stroke-width="1" opacity="0.3411764705882353" d="M 144.5 146 L 151.5 148 L 155 151.5 L 154.5 155 L 150.5 150 L 144.5 147 L 144.5 146 Z " /><path fill="rgb(202,177,145)" stroke="rgb(202,177,145)" stroke-width="1" opacity="0.3411764705882353" d="M 107.5 147 Q 108.6 149.8 112 149 Q 113.1 151.7 110.5 151 L 107 149 L 107.5 147 Z " /><path fill="rgb(202,177,145)" stroke="rgb(202,177,145)" stroke-width="1" opacity="0.3411764705882353" d="M 113.5 151 L 116 152.5 L 112.5 153 L 103 158.5 L 101 161.5 L 97 169.5 L 97 174.5 L 98 177 L 100.5 178 L 118.5 178 L 124.5 175 L 131 168.5 L 133 163 L 145.5 168 L 149 166 L 147.5 169 L 141.5 169 L 137.5 166 L 134.5 166 L 132 173 L 129 174.5 Q 129.8 177.1 126.5 176 L 123 177 L 122.5 179 L 97.5 179 L 96 177.5 L 96 164 Q 99 165.3 98 161.5 L 99 158 L 102 156.5 Q 101.2 153.9 104.5 155 L 108 154 Q 106.7 150.3 112.5 152 L 113.5 151 Z " /><path fill="rgb(202,177,145)" stroke="rgb(202,177,145)" stroke-width="1" opacity="0.3411764705882353" d="M 154.5 161 L 155 163.5 L 154 167 L 150 166.5 L 154.5 161 Z " /><path fill="rgb(226,166,97)" stroke="rgb(226,166,97)" stroke-width="1" opacity="0.9725490196078431" d="M 85.5 44 L 122.5 44 L 130 46.5 L 128.5 47 L 127.5 46 L 81.5 46 L 69 53 L 63.5 64 L 63 61.5 L 71.5 50 L 74.5 48 L 85.5 44 Z " /><path fill="rgb(226,166,97)" stroke="rgb(226,166,97)" stroke-width="1" opacity="0.9725490196078431" d="M 131.5 47 Q 138.4 48.6 141 54.5 Q 140.3 57.1 143 56 L 143 58.5 L 146 63.5 L 146 77.5 L 143.5 82 L 143 80.5 Q 146.8 75.8 145 65.5 L 143 65.5 L 144 61.5 L 136.5 51 Q 131.9 49.8 131.5 47 Z " /><path fill="rgb(226,166,97)" stroke="rgb(226,166,97)" stroke-width="1" opacity="0.9725490196078431" d="M 77.5 56 L 81 56.5 L 77.5 57 L 77.5 56 Z " /><path fill="rgb(226,166,97)" stroke="rgb(226,166,97)" stroke-width="1" opacity="0.9725490196078431" d="M 128.5 56 L 131 56.5 L 128.5 57 L 128.5 56 Z " /><path fill="rgb(226,166,97)" stroke="rgb(226,166,97)" stroke-width="1" opacity="0.9725490196078431" d="M 73.5 57 L 75 57.5 L 72.5 59 L 73.5 57 Z " /><path fill="rgb(226,166,97)" stroke="rgb(226,166,97)" stroke-width="1" opacity="0.9725490196078431" d="M 83.5 57 L 84.5 59 L 83.5 57 Z " /><path fill="rgb(226,166,97)" stroke="rgb(226,166,97)" stroke-width="1" opacity="0.9725490196078431" d="M 124.5 57 L 123.5 59 L 124.5 57 Z " /><path fill="rgb(226,166,97)" stroke="rgb(226,166,97)" stroke-width="1" opacity="0.9725490196078431" d="M 140.5 61 L 142.5 64 L 140.5 61 Z " /><path fill="rgb(226,166,97)" stroke="rgb(226,166,97)" stroke-width="1" opacity="0.9725490196078431" d="M 162.5 61 L 163 64.5 L 162 64.5 L 161 62.5 L 162.5 61 Z " /><path fill="rgb(226,166,97)" stroke="rgb(226,166,97)" stroke-width="1" opacity="0.9725490196078431" d="M 62.5 67 L 63 73.5 L 62 73.5 L 62.5 67 Z " /><path fill="rgb(226,166,97)" stroke="rgb(226,166,97)" stroke-width="1" opacity="0.9725490196078431" d="M 163.5 67 L 165 70.5 L 166 83.5 L 164 82.5 L 164 71.5 L 163.5 67 Z " /><path fill="rgb(226,166,97)" stroke="rgb(226,166,97)" stroke-width="1" opacity="0.9725490196078431" d="M 63.5 77 L 66 83.5 L 69 86.5 L 67 87 L 63 79.5 L 63.5 77 Z " /><path fill="rgb(226,166,97)" stroke="rgb(226,166,97)" stroke-width="1" opacity="0.9725490196078431" d="M 130.5 79 Q 136 78 137 81.5 L 137 84.5 L 130.5 91 Q 128.3 90.3 129 92.5 L 128.5 94 L 130.5 93 L 131 95 L 125 96 L 126 92 L 135 85.5 L 136 82.5 L 135 80 L 129.5 81 L 118.5 90 L 119.5 88 L 130.5 79 Z " /><path fill="rgb(226,166,97)" stroke="rgb(226,166,97)" stroke-width="1" opacity="0.9725490196078431" d="M 142.5 83 L 142 84.5 L 137.5 90 L 137 88.5 L 140 87 L 142.5 83 Z " /><path fill="rgb(226,166,97)" stroke="rgb(226,166,97)" stroke-width="1" opacity="0.9725490196078431" d="M 165.5 86 L 166 90 Q 163 91.3 164 87.5 L 165.5 86 Z " /><path fill="rgb(226,166,97)" stroke="rgb(226,166,97)" stroke-width="1" opacity="0.9725490196078431" d="M 69.5 88 L 76.5 93 L 88 95.5 L 81.5 96 Q 72.9 93.6 69.5 88 Z " /><path fill="rgb(226,166,97)" stroke="rgb(226,166,97)" stroke-width="1" opacity="0.9725490196078431" d="M 115.5 90 L 117 90.5 L 110.5 93 L 110.5 92 L 115.5 90 Z " /><path fill="rgb(226,166,97)" stroke="rgb(226,166,97)" stroke-width="1" opacity="0.9725490196078431" d="M 135.5 90 L 136 92 L 132.5 93 L 132.5 92 L 135.5 90 Z " /><path fill="rgb(226,166,97)" stroke="rgb(226,166,97)" stroke-width="1" opacity="0.9725490196078431" d="M 106.5 93 L 109 93.5 L 107.5 95 L 96.5 96 L 96.5 95 L 106.5 93 Z " /><path fill="rgb(226,166,97)" stroke="rgb(226,166,97)" stroke-width="1" opacity="0.9725490196078431" d="M 48.5 107 L 50 109.5 L 48 108.5 L 48.5 107 Z " /><path fill="rgb(226,166,97)" stroke="rgb(226,166,97)" stroke-width="1" opacity="0.9725490196078431" d="M 50.5 111 L 56 117.5 L 50 112.5 L 50.5 111 Z " /><path fill="rgb(226,166,97)" stroke="rgb(226,166,97)" stroke-width="1" opacity="0.9725490196078431" d="M 155.5 114 L 157 114.5 L 154 116 L 149.5 122 L 145.5 125 L 149.5 120 L 153 117.5 L 155.5 114 Z " /><path fill="rgb(226,166,97)" stroke="rgb(226,166,97)" stroke-width="1" opacity="0.9725490196078431" d="M 56.5 119 L 59 120.5 L 57.5 121 L 56.5 119 Z " /><path fill="rgb(226,166,97)" stroke="rgb(226,166,97)" stroke-width="1" opacity="0.9725490196078431" d="M 60.5 122 L 63 123 L 62.5 125 L 60.5 122 Z " /><path fill="rgb(226,166,97)" stroke="rgb(226,166,97)" stroke-width="1" opacity="0.9725490196078431" d="M 64.5 125 L 68 126 L 67.5 128 L 64.5 125 Z " /><path fill="rgb(226,166,97)" stroke="rgb(226,166,97)" stroke-width="1" opacity="0.9725490196078431" d="M 143.5 125 L 142.5 127 L 140.5 128 L 141.5 126 L 143.5 125 Z " /><path fill="rgb(226,166,97)" stroke="rgb(226,166,97)" stroke-width="1" opacity="0.9725490196078431" d="M 69.5 128 L 76 130.5 L 72.5 131 L 69.5 128 Z " /><path fill="rgb(226,166,97)" stroke="rgb(226,166,97)" stroke-width="1" opacity="0.9725490196078431" d="M 135.5 129 L 137 129.5 Q 136.3 131.8 132.5 131 L 132.5 130 L 135.5 129 Z " /><path fill="rgb(226,166,97)" stroke="rgb(226,166,97)" stroke-width="1" opacity="0.9725490196078431" d="M 81.5 132 Q 87 130.5 88.5 133 L 118.5 133 L 119.5 132 L 127.5 132 L 127.5 133 L 122.5 134 L 85.5 134 L 81.5 133 L 81.5 132 Z " /><path fill="rgb(0,0,0)" stroke="rgb(0,0,0)" stroke-width="1" opacity="0" d="M 0 0 L 200 0 L 200 200 L 0 200 L 0 0 Z M 133 24 L 133 33 L 130 32 Q 126 33 127 30 L 118 29 L 116 27 L 106 27 L 105 26 L 90 26 L 90 35 L 92 36 L 108 37 L 79 37 Q 77 40 76 38 L 74 38 L 74 32 L 66 32 L 64 35 L 61 36 L 57 42 L 54 44 Q 55 46 52 45 L 52 48 L 48 53 Q 49 56 46 55 L 45 61 Q 46 65 43 64 L 42 71 L 42 98 L 43 99 Q 42 104 45 103 L 45 107 Q 37 108 32 112 L 29 112 L 26 115 L 26 146 L 28 147 L 101 147 L 102 146 L 112 151 L 112 152 Q 107 151 108 154 L 105 155 Q 101 154 102 157 L 99 158 L 98 162 Q 99 165 96 164 L 96 178 L 98 179 L 123 179 L 123 177 L 127 176 Q 130 177 129 175 L 132 173 L 135 166 L 138 166 L 142 169 L 148 169 Q 149 166 154 167 Q 156 162 155 152 Q 154 147 148 148 L 183 147 L 183 114 L 160 114 L 161 111 Q 160 107 163 108 Q 165 107 164 102 L 166 100 L 166 93 L 174 88 Q 179 89 178 86 L 182 86 L 183 85 L 183 54 L 177 54 L 176 55 Q 172 54 173 57 Q 167 56 165 60 L 154 38 L 151 35 L 151 32 Q 148 33 149 31 L 146 29 L 145 26 L 143 26 L 143 24 L 133 24 Z " /><path fill="rgb(21,171,229)" stroke="rgb(21,171,229)" stroke-width="1" opacity="1" d="M 99.5 49 L 108.5 49 L 116 54.5 L 118 57.5 L 119 60 L 122.5 59 L 121.5 61 L 115 66.5 L 109 77.5 L 108 91.5 L 108.5 93 L 98.5 95 L 98.5 94 Q 101.1 94.8 100 91.5 Q 102.5 90 101 84.5 Q 98.3 69.7 88.5 62 L 85 59.5 L 86.5 60 L 90 57.5 L 91 54 L 99.5 49 Z " /><path fill="rgb(21,171,229)" stroke="rgb(21,171,229)" stroke-width="1" opacity="1" d="M 75.5 57 Q 82.3 55.3 84 58.5 L 82.5 58 L 73.5 59 L 73.5 58 L 75.5 57 Z " /><path fill="rgb(21,171,229)" stroke="rgb(21,171,229)" stroke-width="1" opacity="1" d="M 125.5 57 Q 133 55.5 136 58.5 L 134.5 59 L 133.5 58 L 125.5 58 L 124 58.5 L 125.5 57 Z " /><path fill="rgb(21,171,229)" stroke="rgb(21,171,229)" stroke-width="1" opacity="1" d="M 71.5 59 L 70.5 61 L 68 62.5 L 65.5 67 L 65 65.5 L 69.5 60 L 71.5 59 Z " /><path fill="rgb(21,171,229)" stroke="rgb(21,171,229)" stroke-width="1" opacity="1" d="M 137.5 59 L 140 60 L 139.5 62 L 137.5 59 Z " /><path fill="rgb(21,171,229)" stroke="rgb(21,171,229)" stroke-width="1" opacity="1" d="M 141.5 63 L 144 67.5 L 143 67.5 L 141.5 63 Z " /><path fill="rgb(21,171,229)" stroke="rgb(21,171,229)" stroke-width="1" opacity="1" d="M 64.5 69 L 65 71.5 L 63.5 74 L 63 71.5 L 64.5 69 Z " /><path fill="rgb(21,171,229)" stroke="rgb(21,171,229)" stroke-width="1" opacity="1" d="M 144.5 70 L 145 76.5 L 144 76.5 L 144.5 70 Z " /><path fill="rgb(21,171,229)" stroke="rgb(21,171,229)" stroke-width="1" opacity="1" d="M 129.5 91 L 130 93.5 L 129 93.5 L 129.5 91 Z " /><path fill="rgb(21,171,229)" stroke="rgb(21,171,229)" stroke-width="1" opacity="1" d="M 88.5 95 L 96 95.5 L 88.5 96 L 88.5 95 Z " /><path fill="rgb(38,200,251)" stroke="rgb(38,200,251)" stroke-width="1" opacity="1" d="M 75.5 58 L 84.5 59 L 94 67.5 Q 101.2 75.3 101 90.5 L 100 94 L 97.5 95 L 84.5 95 L 76.5 93 L 68 85.5 Q 68.7 82.9 66 84 L 66 81.5 L 63 74.5 Q 65.8 72.8 65 67.5 L 69.5 61 L 75.5 58 Z " /><path fill="rgb(38,200,251)" stroke="rgb(38,200,251)" stroke-width="1" opacity="1" d="M 125.5 58 L 133.5 58 L 141 62 L 144 68.5 L 144 79.5 L 140 87 L 137 88.5 Q 137.8 90.8 135.5 90 L 130 93 L 137 84.5 L 137 81.5 Q 136 78 130.5 79 Q 122.8 88.8 109.5 93 L 108 91.5 L 108 81.5 Q 110.9 67.9 120.5 61 L 125.5 58 Z " /><path fill="rgb(242,173,97)" stroke="rgb(242,173,97)" stroke-width="1" opacity="0.996078431372549" d="M 136.5 25 L 139.5 25 L 144 28 L 145.5 31 Q 147.8 30.3 147 32.5 L 154 41.5 L 159 51.5 L 162 61.5 L 160.5 61 Q 157.9 61.8 159 58.5 L 152 44.5 L 151 39 L 148 37.5 L 148 35 Q 145.3 36.1 146 33.5 L 140 29 Q 141.2 25.3 136 27 L 136 30 Q 138.7 28.9 138 31.5 L 141 33 L 145 38.5 L 145 41.5 L 141.5 44 L 130.5 36 L 124 35 Q 125.3 31.7 120.5 33 L 114 32 L 113.5 30 L 102.5 30 L 101.5 29 L 94 29 L 94.5 33 L 109.5 33 L 116 36 L 116 39 Q 112.9 38.3 113.5 41 L 80.5 41 Q 79 43.5 73.5 42 Q 69.8 40.5 71 35 L 67 36 L 65.5 39 L 63 39 Q 64 42 61 41 L 61 43.5 L 58 45 L 56.5 48 Q 53.9 47.2 55 50.5 L 52 52 L 51 58 Q 47.3 56.6 49 62.5 Q 46.4 65.4 47 71.5 L 45 73.5 L 45 95 Q 48.3 93.7 47 98.5 L 49 107 Q 46 108.3 47 104.5 L 43 94.5 L 43 73.5 L 47 59.5 L 56 44 L 59 42.5 L 63.5 37 L 66 35.5 Q 65.3 33.3 67.5 34 L 71.5 33 Q 74.5 34.6 73 40 Q 79.7 41.4 82.5 38 L 113 37.5 L 108.5 35 L 94.5 35 L 92 34 L 91 29.5 L 93.5 27 L 102.5 27 L 103.5 28 L 112.5 28 L 115.5 30 L 123.5 31 L 143 41 L 140 35 L 137 33.5 Q 137.8 31.3 135.5 32 Q 133.3 31.3 134 27.5 L 136.5 25 Z " /><path fill="rgb(242,173,97)" stroke="rgb(242,173,97)" stroke-width="1" opacity="0.996078431372549" d="M 84.5 43 L 123.5 43 L 124 44.5 L 122.5 44 L 85.5 44 L 83.5 45 L 84.5 43 Z " /><path fill="rgb(242,173,97)" stroke="rgb(242,173,97)" stroke-width="1" opacity="0.996078431372549" d="M 77.5 45 L 80 45.5 L 74.5 48 L 74 46 L 77.5 45 Z " /><path fill="rgb(242,173,97)" stroke="rgb(242,173,97)" stroke-width="1" opacity="0.996078431372549" d="M 128.5 45 L 133.5 46 L 140 51 L 147 63.5 L 147 77.5 L 145 78.5 L 146 77.5 L 146 63.5 L 143 56 Q 140.3 57.1 141 54.5 L 134.5 48 L 128.5 46 L 128.5 45 Z " /><path fill="rgb(242,173,97)" stroke="rgb(242,173,97)" stroke-width="1" opacity="0.996078431372549" d="M 71.5 48 Q 74.1 47.3 73 50 L 67 54.5 L 63 61.5 L 62 73.5 Q 64.3 74.7 63 79.5 L 62 79.5 L 61 65.5 L 65 54 Q 67.7 55.1 67 52.5 L 70 51 L 71.5 48 Z " /><path fill="rgb(242,173,97)" stroke="rgb(242,173,97)" stroke-width="1" opacity="0.996078431372549" d="M 161.5 63 Q 163.9 65.1 163 70.5 L 162 70.5 L 161.5 63 Z " /><path fill="rgb(242,173,97)" stroke="rgb(242,173,97)" stroke-width="1" opacity="0.996078431372549" d="M 131.5 80 L 132 82 L 129 83.5 Q 129.8 85.8 127.5 85 L 125.5 86 L 129.5 81 L 131.5 80 Z " /><path fill="rgb(242,173,97)" stroke="rgb(242,173,97)" stroke-width="1" opacity="0.996078431372549" d="M 133 80 Q 135.7 78.9 135 81.5 L 136 83.5 L 131.5 89 L 127.5 92 L 127 90 L 130 88.5 Q 129.3 86.3 131.5 87 Q 134.5 86.5 134 82.5 L 133 80 Z " /><path fill="rgb(242,173,97)" stroke="rgb(242,173,97)" stroke-width="1" opacity="0.996078431372549" d="M 144.5 81 L 145 82.5 L 142 84.5 L 144.5 81 Z " /><path fill="rgb(242,173,97)" stroke="rgb(242,173,97)" stroke-width="1" opacity="0.996078431372549" d="M 64.5 82 L 67 85.5 L 65.5 86 Q 63 85 64.5 82 Z " /><path fill="rgb(242,173,97)" stroke="rgb(242,173,97)" stroke-width="1" opacity="0.996078431372549" d="M 164.5 83 L 166 85.5 L 164 86.5 L 164 84.5 L 164.5 83 Z " /><path fill="rgb(242,173,97)" stroke="rgb(242,173,97)" stroke-width="1" opacity="0.996078431372549" d="M 141.5 86 L 142 87.5 L 139 89 L 137.5 92 Q 134.9 92.7 136 90 L 141.5 86 Z " /><path fill="rgb(242,173,97)" stroke="rgb(242,173,97)" stroke-width="1" opacity="0.996078431372549" d="M 67.5 87 Q 69.8 86.3 69 88.5 L 67.5 87 Z " /><path fill="rgb(242,173,97)" stroke="rgb(242,173,97)" stroke-width="1" opacity="0.996078431372549" d="M 122.5 87 L 124 87.5 L 121.5 89 L 122.5 87 Z " /><path fill="rgb(242,173,97)" stroke="rgb(242,173,97)" stroke-width="1" opacity="0.996078431372549" d="M 119.5 89 L 120 90.5 L 116.5 92 L 117.5 90 L 119.5 89 Z " /><path fill="rgb(242,173,97)" stroke="rgb(242,173,97)" stroke-width="1" opacity="0.996078431372549" d="M 162 89 L 165 90.5 L 165 96.5 Q 162 97.5 163 102.5 L 157 114 L 153 116.5 L 150.5 120 L 142.5 126 L 142 124 L 146 122.5 Q 145.3 120.3 147.5 121 L 149 118 L 152 116.5 Q 151.3 114.3 153.5 115 L 156 108 Q 159 109.3 158 105.5 L 161 104 L 162 89 Z " /><path fill="rgb(242,173,97)" stroke="rgb(242,173,97)" stroke-width="1" opacity="0.996078431372549" d="M 70.5 90 L 78 94.5 L 76.5 95 L 73 94 Q 74.1 91.3 71.5 92 L 70.5 90 Z " /><path fill="rgb(242,173,97)" stroke="rgb(242,173,97)" stroke-width="1" opacity="0.996078431372549" d="M 113.5 92 L 114 94 L 108.5 95 L 109.5 93 L 113.5 92 Z " /><path fill="rgb(242,173,97)" stroke="rgb(242,173,97)" stroke-width="1" opacity="0.996078431372549" d="M 124.5 92 Q 126.8 91.3 126 93.5 L 125 96 L 128.5 95 L 129 97 Q 124.4 98.3 123 95.5 L 124.5 92 Z " /><path fill="rgb(242,173,97)" stroke="rgb(242,173,97)" stroke-width="1" opacity="0.996078431372549" d="M 134.5 92 L 135 94 L 131.5 95 L 131 93 L 134.5 92 Z " /><path fill="rgb(242,173,97)" stroke="rgb(242,173,97)" stroke-width="1" opacity="0.996078431372549" d="M 80.5 95 L 81.5 96 L 102.5 96 L 104 95.5 L 103.5 97 L 81.5 97 L 80.5 95 Z " /><path fill="rgb(242,173,97)" stroke="rgb(242,173,97)" stroke-width="1" opacity="0.996078431372549" d="M 49.5 108 Q 52.1 107.2 51 110.5 L 55 115.5 L 53 114.5 L 49.5 108 Z " /><path fill="rgb(242,173,97)" stroke="rgb(242,173,97)" stroke-width="1" opacity="0.996078431372549" d="M 56.5 117 L 57.5 119 Q 54.7 119.7 56.5 117 Z " /><path fill="rgb(242,173,97)" stroke="rgb(242,173,97)" stroke-width="1" opacity="0.996078431372549" d="M 59.5 120 L 66 125.5 L 64.5 125 L 61.5 123 L 59 122 L 59.5 120 Z " /><path fill="rgb(242,173,97)" stroke="rgb(242,173,97)" stroke-width="1" opacity="0.996078431372549" d="M 68.5 126 L 72 128.5 L 70.5 128 Q 66.5 129 68.5 126 Z " /><path fill="rgb(242,173,97)" stroke="rgb(242,173,97)" stroke-width="1" opacity="0.996078431372549" d="M 139.5 126 L 141 126.5 L 137.5 129 L 137 127 L 139.5 126 Z " /><path fill="rgb(242,173,97)" stroke="rgb(242,173,97)" stroke-width="1" opacity="0.996078431372549" d="M 74.5 129 L 87 131.5 L 79.5 132 L 74.5 130 L 74.5 129 Z " /><path fill="rgb(242,173,97)" stroke="rgb(242,173,97)" stroke-width="1" opacity="0.996078431372549" d="M 129.5 130 L 132 130.5 L 128.5 132 L 119.5 132 L 118.5 133 L 118 131 L 128.5 131 L 129.5 130 Z " /><path fill="rgb(242,173,97)" stroke="rgb(242,173,97)" stroke-width="1" opacity="0.996078431372549" d="M 88.5 132 L 91 132.5 L 88.5 133 L 88.5 132 Z " /><path fill="rgb(164,104,57)" stroke="rgb(164,104,57)" stroke-width="1" opacity="0.8745098039215686" d="M 81.5 46 L 127.5 46 L 140 54.5 Q 144.8 59.2 145 68.5 L 144 68.5 Q 143.8 61.3 138.5 59 L 128.5 56 L 119 60 L 119 57.5 L 114.5 52 L 107.5 48 L 100.5 48 Q 94 49.5 91 54.5 L 87.5 60 Q 84.5 56 77.5 56 L 68 60 L 63.5 69 L 63 64.5 L 69 53 L 81.5 46 Z " /><path fill="rgb(164,104,57)" stroke="rgb(164,104,57)" stroke-width="1" opacity="0.8745098039215686" d="M 179.5 54 L 180 56 L 178 55.5 L 179.5 54 Z " /><path fill="rgb(164,104,57)" stroke="rgb(164,104,57)" stroke-width="1" opacity="0.8745098039215686" d="M 175.5 56 L 174.5 58 L 173 57.5 L 175.5 56 Z " /><path fill="rgb(164,104,57)" stroke="rgb(164,104,57)" stroke-width="1" opacity="0.8745098039215686" d="M 168.5 59 L 167.5 61 L 166 60.5 L 168.5 59 Z " /><path fill="rgb(164,104,57)" stroke="rgb(164,104,57)" stroke-width="1" opacity="0.8745098039215686" d="M 164.5 60 L 165 62 L 163 61.5 L 164.5 60 Z " /><path fill="rgb(164,104,57)" stroke="rgb(164,104,57)" stroke-width="1" opacity="0.8745098039215686" d="M 163.5 64 L 165 69.5 L 164 69.5 L 163.5 64 Z " /><path fill="rgb(164,104,57)" stroke="rgb(164,104,57)" stroke-width="1" opacity="0.8745098039215686" d="M 165.5 73 L 166 77.5 L 165 77.5 L 165.5 73 Z " /><path fill="rgb(164,104,57)" stroke="rgb(164,104,57)" stroke-width="1" opacity="0.8745098039215686" d="M 174.5 85 L 176 85.5 L 173.5 87 L 174.5 85 Z " /><path fill="rgb(164,104,57)" stroke="rgb(164,104,57)" stroke-width="1" opacity="0.8745098039215686" d="M 46.5 107 Q 48.8 106.3 48 108.5 L 50 111.5 L 49 111.5 L 46.5 108 L 44.5 109 L 44.5 108 L 46.5 107 Z " /><path fill="rgb(164,104,57)" stroke="rgb(164,104,57)" stroke-width="1" opacity="0.8745098039215686" d="M 41.5 109 L 43 109.5 L 40.5 111 L 41.5 109 Z " /><path fill="rgb(164,104,57)" stroke="rgb(164,104,57)" stroke-width="1" opacity="0.8745098039215686" d="M 38.5 110 L 39 112 L 37 111.5 L 38.5 110 Z " /><path fill="rgb(164,104,57)" stroke="rgb(164,104,57)" stroke-width="1" opacity="0.8745098039215686" d="M 34.5 112 L 33.5 114 L 32 113.5 L 34.5 112 Z " /><path fill="rgb(164,104,57)" stroke="rgb(164,104,57)" stroke-width="1" opacity="0.8745098039215686" d="M 30.5 113 L 31 115 L 29 114.5 L 30.5 113 Z " /><path fill="rgb(164,104,57)" stroke="rgb(164,104,57)" stroke-width="1" opacity="0.8745098039215686" d="M 50.5 113 L 55.5 119 L 50.5 113 Z " /><path fill="rgb(164,104,57)" stroke="rgb(164,104,57)" stroke-width="1" opacity="0.8745098039215686" d="M 154 116 L 156 116.5 L 150 121.5 L 154 116 Z " /><path fill="rgb(164,104,57)" stroke="rgb(164,104,57)" stroke-width="1" opacity="0.8745098039215686" d="M 56.5 120 L 62 124.5 L 58.5 122 L 56.5 120 Z " /><path fill="rgb(164,104,57)" stroke="rgb(164,104,57)" stroke-width="1" opacity="0.8745098039215686" d="M 148.5 122 L 149 124 L 141.5 128 L 141.5 127 L 148.5 122 Z " /><path fill="rgb(164,104,57)" stroke="rgb(164,104,57)" stroke-width="1" opacity="0.8745098039215686" d="M 63.5 125 L 64.5 127 Q 61.7 127.7 63.5 125 Z " /><path fill="rgb(164,104,57)" stroke="rgb(164,104,57)" stroke-width="1" opacity="0.8745098039215686" d="M 68.5 128 L 72 130.5 L 70.5 130 L 68.5 128 Z " /><path fill="rgb(164,104,57)" stroke="rgb(164,104,57)" stroke-width="1" opacity="0.8745098039215686" d="M 139.5 128 L 140 130 L 136.5 131 L 137.5 129 L 139.5 128 Z " /><path fill="rgb(164,104,57)" stroke="rgb(164,104,57)" stroke-width="1" opacity="0.8745098039215686" d="M 75.5 131 L 85 133.5 L 81.5 134 L 75.5 132 L 75.5 131 Z " /><path fill="rgb(164,104,57)" stroke="rgb(164,104,57)" stroke-width="1" opacity="0.8745098039215686" d="M 131.5 131 L 133 131.5 Q 130.1 134.6 123.5 134 L 123.5 133 Q 129.2 133.7 131.5 131 Z " /><path fill="rgb(164,104,57)" stroke="rgb(164,104,57)" stroke-width="1" opacity="0.8745098039215686" d="M 27.5 144 L 98.5 144 L 100 145.5 L 28.5 146 L 27.5 144 Z " /><path fill="rgb(164,104,57)" stroke="rgb(164,104,57)" stroke-width="1" opacity="0.8745098039215686" d="M 143 144 L 182 144.5 L 180.5 146 L 144 146.5 L 147 147 L 146.5 149 L 143 146.5 L 143 144 Z " /><path fill="rgb(164,104,57)" stroke="rgb(164,104,57)" stroke-width="1" opacity="0.8745098039215686" d="M 103.5 145 Q 106.8 143.9 106 146.5 L 106.5 148 L 103.5 145 Z " /><path fill="rgb(164,104,57)" stroke="rgb(164,104,57)" stroke-width="1" opacity="0.8745098039215686" d="M 112.5 150 L 117 151 L 116.5 153 L 112.5 151 L 112.5 150 Z " /><path fill="rgb(164,104,57)" stroke="rgb(164,104,57)" stroke-width="1" opacity="0.8745098039215686" d="M 150.5 150 L 152.5 153 L 150 152 L 150.5 150 Z " /><path fill="rgb(164,104,57)" stroke="rgb(164,104,57)" stroke-width="1" opacity="0.8745098039215686" d="M 153.5 154 L 154.5 156 L 153.5 154 Z " /><path fill="rgb(164,104,57)" stroke="rgb(164,104,57)" stroke-width="1" opacity="0.8745098039215686" d="M 153 160 L 155 160.5 L 153 161.5 L 153 160 Z " /><path fill="rgb(164,104,57)" stroke="rgb(164,104,57)" stroke-width="1" opacity="0.8745098039215686" d="M 134.5 162 L 139 164.5 L 137.5 165 L 134.5 162 Z " /><path fill="rgb(164,104,57)" stroke="rgb(164,104,57)" stroke-width="1" opacity="0.8745098039215686" d="M 151 163 L 153 163.5 L 149 166.5 L 151 163 Z " /><path fill="rgb(164,104,57)" stroke="rgb(164,104,57)" stroke-width="1" opacity="0.8745098039215686" d="M 141.5 166 L 147 166.5 L 143.5 168 L 141.5 166 Z " /><path fill="rgb(243,173,97)" stroke="rgb(243,173,97)" stroke-width="1" opacity="1" d="M 136 27 L 140 27 Q 138.9 29.7 141.5 29 L 146 35 Q 149 33.8 148 37.5 L 151 39 L 152 44.5 L 158 54.5 L 159 61 Q 162.3 59.7 161 64.5 L 162 71 L 164 71.5 L 164 84.5 L 164 86.5 L 164 89 L 162 89.5 L 162 97.5 L 161 104 L 158 105.5 L 158 108 Q 155 106.8 156 110.5 L 153.5 115 Q 151.3 114.3 152 116.5 L 149 118 L 147.5 121 Q 145.3 120.3 146 122.5 L 142 124 Q 143.3 127 139.5 126 L 137 127 Q 138.3 130.3 133.5 129 Q 127.9 132.6 118 131 L 117.5 133 L 91.5 133 L 86.5 131 L 80.5 131 L 72.5 129 L 58 120 L 56.5 117 Q 53.9 117.8 55 114.5 Q 50.3 113.1 51 108 Q 47.7 109.3 49 104.5 L 47 95 L 45 94.5 L 45 73.5 L 47 71.5 L 49 58 Q 52 59.3 51 55.5 L 52 52 L 55 50.5 Q 53.9 47.2 56.5 48 L 58 45 L 61 43.5 L 61 41 Q 64 42 63 39 L 65.5 39 L 67 36 L 71 35 Q 69.8 40.5 73.5 42 Q 79 43.5 80.5 41 L 114 41 Q 113 38 116 39 L 116 36 L 109.5 33 L 94 33 L 94 29 L 101.5 29 L 102.5 30 L 114 30 Q 112.6 34 119.5 32 L 124 33 Q 122.8 36 126.5 35 L 130.5 36 L 142.5 44 Q 145.8 43.3 145 38.5 L 141 33 L 138 31.5 Q 138.7 28.9 136 30 L 136 27 Z M 85 43 L 83 45 Q 78 44 77 46 Q 73 45 74 48 L 72 48 L 70 51 L 67 53 Q 68 55 65 54 L 61 66 L 61 74 L 62 75 Q 60 81 64 80 Q 63 85 66 86 Q 68 85 67 88 L 70 89 L 72 92 Q 74 91 73 94 L 80 95 L 82 97 L 104 97 L 104 95 L 111 94 Q 115 95 114 92 Q 119 93 120 91 Q 119 88 123 89 L 124 86 L 128 85 Q 130 86 129 84 L 132 82 L 133 80 L 134 85 L 130 87 L 129 90 Q 126 89 127 92 L 123 94 L 125 97 Q 130 99 129 95 L 133 94 Q 136 95 135 92 L 139 91 Q 138 88 141 89 L 147 78 L 147 64 L 140 51 L 134 46 L 130 45 Q 123 47 124 43 L 85 43 Z " /><path fill="rgb(124,69,51)" stroke="rgb(124,69,51)" stroke-width="1" opacity="0.984313725490196" d="M 100.5 48 L 108 48.5 L 100.5 49 L 100.5 48 Z " /><path fill="rgb(124,69,51)" stroke="rgb(124,69,51)" stroke-width="1" opacity="0.984313725490196" d="M 95.5 50 L 93.5 53 L 95.5 50 Z " /><path fill="rgb(124,69,51)" stroke="rgb(124,69,51)" stroke-width="1" opacity="0.984313725490196" d="M 114.5 52 L 116.5 55 L 114.5 52 Z " /><path fill="rgb(124,69,51)" stroke="rgb(124,69,51)" stroke-width="1" opacity="0.984313725490196" d="M 180 54 L 183 55.5 L 183 82.5 L 181.5 84 Q 177.1 82.5 178 85.5 L 176.5 85 L 166 88 L 166 73.5 Q 163.5 72 165 66.5 L 163 62 Q 165.7 63.1 165 60.5 L 166.5 61 L 172 59 L 172.5 57 L 174.5 58 Q 175.8 55 180 56 L 180 54 Z " /><path fill="rgb(124,69,51)" stroke="rgb(124,69,51)" stroke-width="1" opacity="0.984313725490196" d="M 89.5 57 L 88.5 59 L 89.5 57 Z " /><path fill="rgb(124,69,51)" stroke="rgb(124,69,51)" stroke-width="1" opacity="0.984313725490196" d="M 64.5 67 L 65 68.5 L 63.5 71 L 63 69.5 L 64.5 67 Z " /><path fill="rgb(124,69,51)" stroke="rgb(124,69,51)" stroke-width="1" opacity="0.984313725490196" d="M 46.5 108 L 57.5 122 L 63 125 Q 61.8 128 65.5 127 L 71.5 131 L 81.5 134 L 127.5 134 Q 132.5 130.2 140 130 Q 138.8 127 142.5 128 L 149 124 Q 147.9 121.3 150.5 122 L 156 115 L 160.5 114 L 180.5 114 L 183 115 L 183 144 L 143.5 144 L 143 146.5 L 146.5 149 L 148 148.5 L 148 150 L 150 150 Q 148.9 152.7 151.5 152 L 155 156.5 L 155 160 L 153 160 L 153 163 Q 150.3 161.9 151 164.5 L 149.5 166 L 140.5 166 L 137.5 163 L 132.5 162 L 117 153 Q 118.1 150.3 115.5 151 L 112 150 Q 113.1 147.3 110.5 148 L 109 148.5 Q 109.7 145.5 106 147 L 106 145 L 103.5 145 L 100.5 146 L 98.5 144 L 26 144 L 26 116.5 L 27.5 116 L 31 115 L 31.5 113 L 33.5 114 Q 34.8 111 39 112 L 39.5 110 L 41.5 111 L 46.5 108 Z " /><path fill="rgb(9,208,110)" stroke="rgb(9,208,110)" stroke-width="1" opacity="0.9725490196078431" d="M 111.5 50 L 112.5 52 L 111.5 50 Z " /><path fill="rgb(9,208,110)" stroke="rgb(9,208,110)" stroke-width="1" opacity="0.9725490196078431" d="M 112.5 153 L 118.5 153 L 121.5 156 L 134 162.5 Q 131.1 170.6 124.5 175 L 116.5 178 L 100.5 178 L 98 177 Q 96.4 174.9 97 169.5 L 101 160 L 104 158.5 Q 103.3 156.3 105.5 157 L 112.5 153 Z " /></svg>