<svg width="200" height="200" version="1.1" xmlns="http://www.w3.org/2000/svg" desc="Created with imagetracer.js version 1.2.6" ><path fill="rgb(76,76,76)" stroke="rgb(76,76,76)" stroke-width="1" opacity="0.09411764705882353" d="M 152.5 36 L 154 36.5 L 149.5 39 L 150.5 37 L 152.5 36 Z " /><path fill="rgb(76,76,76)" stroke="rgb(76,76,76)" stroke-width="1" opacity="0.09411764705882353" d="M 161.5 37 Q 163.8 36.3 163 38.5 L 161.5 37 Z " /><path fill="rgb(76,76,76)" stroke="rgb(76,76,76)" stroke-width="1" opacity="0.09411764705882353" d="M 146 40 Q 148.7 38.9 148 41.5 L 147 44.5 L 149 48.5 L 148.5 50 Q 144.5 47.2 146 40 Z " /><path fill="rgb(76,76,76)" stroke="rgb(76,76,76)" stroke-width="1" opacity="0.09411764705882353" d="M 167.5 43 L 170 46.5 L 167 44.5 L 167.5 43 Z " /><path fill="rgb(76,76,76)" stroke="rgb(76,76,76)" stroke-width="1" opacity="0.09411764705882353" d="M 130.5 44 Q 137 43 139 46.5 L 137.5 47 Q 135.8 44.2 130.5 45 L 130.5 44 Z " /><path fill="rgb(76,76,76)" stroke="rgb(76,76,76)" stroke-width="1" opacity="0.09411764705882353" d="M 126.5 45 L 129 45.5 Q 123.8 46.8 125 54.5 L 127.5 58 L 119.5 54 L 111.5 53 L 108 50.5 L 109.5 51 L 124 55 L 125 48.5 Q 122.2 46.8 126.5 45 Z " /><path fill="rgb(76,76,76)" stroke="rgb(76,76,76)" stroke-width="1" opacity="0.09411764705882353" d="M 12.5 47 L 11.5 49 L 12.5 47 Z " /><path fill="rgb(76,76,76)" stroke="rgb(76,76,76)" stroke-width="1" opacity="0.09411764705882353" d="M 14.5 47 L 29 47.5 L 14.5 48 L 14.5 47 Z " /><path fill="rgb(76,76,76)" stroke="rgb(76,76,76)" stroke-width="1" opacity="0.09411764705882353" d="M 31.5 48 L 32.5 50 L 31.5 48 Z " /><path fill="rgb(76,76,76)" stroke="rgb(76,76,76)" stroke-width="1" opacity="0.09411764705882353" d="M 91.5 48 L 107 49 L 106.5 51 L 99.5 49 L 93.5 49 L 80.5 55 L 81.5 53 L 91.5 48 Z " /><path fill="rgb(76,76,76)" stroke="rgb(76,76,76)" stroke-width="1" opacity="0.09411764705882353" d="M 141.5 48 Q 144.4 52.3 150 53 L 149.5 55 Q 148 51.5 146.5 54 L 142.5 50 Q 139.7 50.7 141.5 48 Z " /><path fill="rgb(76,76,76)" stroke="rgb(76,76,76)" stroke-width="1" opacity="0.09411764705882353" d="M 11.5 50 L 13 57.5 L 12 57.5 L 11.5 50 Z " /><path fill="rgb(76,76,76)" stroke="rgb(76,76,76)" stroke-width="1" opacity="0.09411764705882353" d="M 38.5 53 L 46 53.5 L 37.5 55 L 38.5 53 Z " /><path fill="rgb(76,76,76)" stroke="rgb(76,76,76)" stroke-width="1" opacity="0.09411764705882353" d="M 178.5 55 L 179.5 57 L 177 56.5 L 178.5 55 Z " /><path fill="rgb(76,76,76)" stroke="rgb(76,76,76)" stroke-width="1" opacity="0.09411764705882353" d="M 49.5 56 L 61 60.5 L 57.5 61 L 49.5 57 L 49.5 56 Z " /><path fill="rgb(76,76,76)" stroke="rgb(76,76,76)" stroke-width="1" opacity="0.09411764705882353" d="M 14.5 57 L 17 60.5 L 15 59.5 L 14.5 57 Z " /><path fill="rgb(76,76,76)" stroke="rgb(76,76,76)" stroke-width="1" opacity="0.09411764705882353" d="M 73.5 59 L 74 62.5 L 70.5 64 L 67 62.5 L 73 62 L 73.5 59 Z " /><path fill="rgb(76,76,76)" stroke="rgb(76,76,76)" stroke-width="1" opacity="0.09411764705882353" d="M 62.5 61 L 66 61.5 L 62.5 62 L 62.5 61 Z " /><path fill="rgb(76,76,76)" stroke="rgb(76,76,76)" stroke-width="1" opacity="0.09411764705882353" d="M 181.5 62 L 184 67.5 L 182 68 L 181.5 62 Z " /><path fill="rgb(76,76,76)" stroke="rgb(76,76,76)" stroke-width="1" opacity="0.09411764705882353" d="M 19.5 63 L 25 69.5 L 23.5 69 L 20.5 67 L 19 65.5 L 19.5 63 Z " /><path fill="rgb(76,76,76)" stroke="rgb(76,76,76)" stroke-width="1" opacity="0.09411764705882353" d="M 26.5 71 L 28 73.5 L 27 73.5 L 26.5 71 Z " /><path fill="rgb(76,76,76)" stroke="rgb(76,76,76)" stroke-width="1" opacity="0.09411764705882353" d="M 184.5 71 L 186 72.5 L 187 80.5 L 186 80.5 L 184.5 71 Z " /><path fill="rgb(76,76,76)" stroke="rgb(76,76,76)" stroke-width="1" opacity="0.09411764705882353" d="M 29.5 73 L 36 74 L 35.5 76 L 29 75 L 29.5 73 Z " /><path fill="rgb(76,76,76)" stroke="rgb(76,76,76)" stroke-width="1" opacity="0.09411764705882353" d="M 39.5 77 L 44 80.5 L 39 78.5 L 39.5 77 Z " /><path fill="rgb(76,76,76)" stroke="rgb(76,76,76)" stroke-width="1" opacity="0.09411764705882353" d="M 45.5 82 L 50 85.5 L 48.5 85 L 45.5 82 Z " /><path fill="rgb(76,76,76)" stroke="rgb(76,76,76)" stroke-width="1" opacity="0.09411764705882353" d="M 184.5 82 L 185 84 L 180.5 85 L 180.5 84 L 184.5 82 Z " /><path fill="rgb(76,76,76)" stroke="rgb(76,76,76)" stroke-width="1" opacity="0.09411764705882353" d="M 175.5 85 L 178 85.5 L 175.5 86 L 175.5 85 Z " /><path fill="rgb(76,76,76)" stroke="rgb(76,76,76)" stroke-width="1" opacity="0.09411764705882353" d="M 34.5 87 L 45 87.5 Q 33.9 86.9 27.5 91 L 26.5 89 L 34.5 87 Z " /><path fill="rgb(76,76,76)" stroke="rgb(76,76,76)" stroke-width="1" opacity="0.09411764705882353" d="M 173.5 87 L 176 87.5 L 173.5 88 L 173.5 87 Z " /><path fill="rgb(76,76,76)" stroke="rgb(76,76,76)" stroke-width="1" opacity="0.09411764705882353" d="M 46.5 88 L 50 88.5 L 46.5 89 L 46.5 88 Z " /><path fill="rgb(76,76,76)" stroke="rgb(76,76,76)" stroke-width="1" opacity="0.09411764705882353" d="M 52.5 88 L 62 91.5 L 55.5 93 L 51 91 L 52.5 88 Z " /><path fill="rgb(76,76,76)" stroke="rgb(76,76,76)" stroke-width="1" opacity="0.09411764705882353" d="M 178.5 88 L 180 90.5 L 178 89.5 L 178.5 88 Z " /><path fill="rgb(76,76,76)" stroke="rgb(76,76,76)" stroke-width="1" opacity="0.09411764705882353" d="M 24.5 91 L 26 91.5 L 21.5 94 L 22.5 92 L 24.5 91 Z " /><path fill="rgb(76,76,76)" stroke="rgb(76,76,76)" stroke-width="1" opacity="0.09411764705882353" d="M 64.5 91 L 72 91.5 L 64.5 92 L 64.5 91 Z " /><path fill="rgb(76,76,76)" stroke="rgb(76,76,76)" stroke-width="1" opacity="0.09411764705882353" d="M 181.5 91 L 182.5 93 L 181.5 91 Z " /><path fill="rgb(76,76,76)" stroke="rgb(76,76,76)" stroke-width="1" opacity="0.09411764705882353" d="M 19.5 93 L 20 95.5 L 15 99.5 L 19.5 93 Z " /><path fill="rgb(76,76,76)" stroke="rgb(76,76,76)" stroke-width="1" opacity="0.09411764705882353" d="M 58.5 93 L 59.5 95 Q 56.7 95.7 58.5 93 Z " /><path fill="rgb(76,76,76)" stroke="rgb(76,76,76)" stroke-width="1" opacity="0.09411764705882353" d="M 73.5 94 L 74 96 L 65.5 100 L 65 98 L 70 97 Q 68.8 94 72.5 95 L 73.5 94 Z " /><path fill="rgb(76,76,76)" stroke="rgb(76,76,76)" stroke-width="1" opacity="0.09411764705882353" d="M 182.5 97 Q 184.8 96.3 184 98.5 L 182.5 97 Z " /><path fill="rgb(76,76,76)" stroke="rgb(76,76,76)" stroke-width="1" opacity="0.09411764705882353" d="M 13.5 99 L 14 102.5 L 13 102.5 L 13.5 99 Z " /><path fill="rgb(76,76,76)" stroke="rgb(76,76,76)" stroke-width="1" opacity="0.09411764705882353" d="M 11.5 104 L 12 106.5 L 9.5 112 L 9 108.5 L 11.5 104 Z " /><path fill="rgb(76,76,76)" stroke="rgb(76,76,76)" stroke-width="1" opacity="0.09411764705882353" d="M 36.5 104 L 42 104.5 L 36.5 105 L 36.5 104 Z " /><path fill="rgb(76,76,76)" stroke="rgb(76,76,76)" stroke-width="1" opacity="0.09411764705882353" d="M 43.5 104 L 47 109 L 36.5 113 L 36.5 112 L 45 108 Q 46 105 43 106 L 43.5 104 Z " /><path fill="rgb(76,76,76)" stroke="rgb(76,76,76)" stroke-width="1" opacity="0.09411764705882353" d="M 34.5 105 L 33.5 107 L 32 106.5 L 34.5 105 Z " /><path fill="rgb(76,76,76)" stroke="rgb(76,76,76)" stroke-width="1" opacity="0.09411764705882353" d="M 30.5 107 L 31.5 109 Q 29.7 106.3 28 110.5 L 28 112.5 L 26 120.5 Q 27.1 127.9 32.5 131 L 39.5 133 L 42.5 132 L 46.5 130 L 47 131.5 L 45.5 133 L 38.5 134 Q 30.7 132.8 27 127.5 L 25 121.5 L 25 116.5 Q 27.6 115.1 27 110.5 L 30.5 107 Z " /><path fill="rgb(76,76,76)" stroke="rgb(76,76,76)" stroke-width="1" opacity="0.09411764705882353" d="M 165.5 107 L 168 111.5 L 169 121.5 L 168 121.5 L 167 111 Q 163.2 112.2 165.5 107 Z " /><path fill="rgb(76,76,76)" stroke="rgb(76,76,76)" stroke-width="1" opacity="0.09411764705882353" d="M 169.5 107 Q 173.5 107.5 173 112.5 L 172 112.5 L 169.5 107 Z " /><path fill="rgb(76,76,76)" stroke="rgb(76,76,76)" stroke-width="1" opacity="0.09411764705882353" d="M 189.5 107 L 190 109.5 L 189 109.5 L 189.5 107 Z " /><path fill="rgb(76,76,76)" stroke="rgb(76,76,76)" stroke-width="1" opacity="0.09411764705882353" d="M 149.5 109 Q 153.7 113.3 154 121.5 L 158 125.5 L 156.5 126 L 153 122.5 L 149.5 111 Q 145.8 114.3 147 122.5 L 153 129.5 Q 151.5 132.5 150 129.5 Q 152.3 128.3 149.5 127 L 148 127.5 Q 144.5 123.5 146 114.5 L 149.5 109 Z " /><path fill="rgb(76,76,76)" stroke="rgb(76,76,76)" stroke-width="1" opacity="0.09411764705882353" d="M 32.5 116 L 33 120.5 L 32 120.5 L 32.5 116 Z " /><path fill="rgb(76,76,76)" stroke="rgb(76,76,76)" stroke-width="1" opacity="0.09411764705882353" d="M 33.5 122 Q 37 126 46.5 124 L 51.5 123 L 53 125.5 L 51.5 128 L 51 125.5 L 51.5 124 L 36.5 125 L 33.5 122 Z " /><path fill="rgb(76,76,76)" stroke="rgb(76,76,76)" stroke-width="1" opacity="0.09411764705882353" d="M 174.5 122 Q 177.1 121.3 176 124 Q 173.3 122.9 174 125.5 L 169.5 131 Q 165.5 134 158.5 134 L 153 131.5 L 154.5 131 L 159.5 133 L 162.5 132 L 165.5 132 L 170 128.5 L 174.5 122 Z " /><path fill="rgb(76,76,76)" stroke="rgb(76,76,76)" stroke-width="1" opacity="0.09411764705882353" d="M 70.5 123 L 73 126.5 L 70 124.5 L 70.5 123 Z " /><path fill="rgb(76,76,76)" stroke="rgb(76,76,76)" stroke-width="1" opacity="0.09411764705882353" d="M 166.5 123 L 167.5 125 L 166.5 124 L 164 125.5 L 166.5 123 Z " /><path fill="rgb(76,76,76)" stroke="rgb(76,76,76)" stroke-width="1" opacity="0.09411764705882353" d="M 69.5 126 L 70 129.5 L 68.5 132 L 68 128.5 L 69.5 126 Z " /><path fill="rgb(76,76,76)" stroke="rgb(76,76,76)" stroke-width="1" opacity="0.09411764705882353" d="M 73.5 128 Q 75.8 127.3 75 129.5 L 73.5 128 Z " /><path fill="rgb(76,76,76)" stroke="rgb(76,76,76)" stroke-width="1" opacity="0.09411764705882353" d="M 189.5 128 L 190 131.5 L 187.5 135 L 187 133.5 L 189.5 128 Z " /><path fill="rgb(76,76,76)" stroke="rgb(76,76,76)" stroke-width="1" opacity="0.09411764705882353" d="M 9.5 129 Q 11.8 128.3 11 130.5 L 13 135.5 L 12 135.5 L 9.5 129 Z " /><path fill="rgb(76,76,76)" stroke="rgb(76,76,76)" stroke-width="1" opacity="0.09411764705882353" d="M 49.5 129 L 48.5 131 L 49.5 129 Z " /><path fill="rgb(76,76,76)" stroke="rgb(76,76,76)" stroke-width="1" opacity="0.09411764705882353" d="M 76.5 131 L 78 133.5 L 76 132.5 L 76.5 131 Z " /><path fill="rgb(76,76,76)" stroke="rgb(76,76,76)" stroke-width="1" opacity="0.09411764705882353" d="M 67.5 133 L 68 134.5 L 66.5 138 L 66 135.5 L 67.5 133 Z " /><path fill="rgb(76,76,76)" stroke="rgb(76,76,76)" stroke-width="1" opacity="0.09411764705882353" d="M 79.5 135 L 80 137 L 78 136.5 L 79.5 135 Z " /><path fill="rgb(76,76,76)" stroke="rgb(76,76,76)" stroke-width="1" opacity="0.09411764705882353" d="M 14.5 136 L 16 138.5 L 14 137.5 L 14.5 136 Z " /><path fill="rgb(76,76,76)" stroke="rgb(76,76,76)" stroke-width="1" opacity="0.09411764705882353" d="M 185.5 136 L 188 136.5 L 183.5 140 L 185 137.5 L 185.5 136 Z " /><path fill="rgb(76,76,76)" stroke="rgb(76,76,76)" stroke-width="1" opacity="0.09411764705882353" d="M 64.5 137 L 64 138.5 L 59.5 145 L 59 142.5 L 64.5 137 Z " /><path fill="rgb(76,76,76)" stroke="rgb(76,76,76)" stroke-width="1" opacity="0.09411764705882353" d="M 134.5 137 L 135 139 L 133 139.5 L 133.5 141 L 114.5 141 L 112 139.5 L 113.5 139 L 114.5 140 L 131.5 140 L 134.5 137 Z " /><path fill="rgb(76,76,76)" stroke="rgb(76,76,76)" stroke-width="1" opacity="0.09411764705882353" d="M 81.5 138 L 83.5 140 L 103.5 140 L 105 139.5 L 104.5 141 L 83.5 141 Q 81.8 137.9 80 139.5 L 81.5 138 Z " /><path fill="rgb(76,76,76)" stroke="rgb(76,76,76)" stroke-width="1" opacity="0.09411764705882353" d="M 136.5 138 L 140.5 143 L 137.5 141 L 136.5 138 Z " /><path fill="rgb(76,76,76)" stroke="rgb(76,76,76)" stroke-width="1" opacity="0.09411764705882353" d="M 183.5 141 L 182.5 143 L 183.5 141 Z " /><path fill="rgb(76,76,76)" stroke="rgb(76,76,76)" stroke-width="1" opacity="0.09411764705882353" d="M 20.5 143 L 27.5 148 L 29.5 148 Q 35.7 150.8 46.5 149 L 51.5 148 L 51.5 149 L 48.5 150 L 30.5 150 L 21.5 145 L 20.5 143 Z " /><path fill="rgb(76,76,76)" stroke="rgb(76,76,76)" stroke-width="1" opacity="0.09411764705882353" d="M 178.5 143 Q 181.1 142.3 180 145 L 175 146 Q 176 149 173 148 Q 171.9 145.3 174.5 146 L 178.5 143 Z " /><path fill="rgb(76,76,76)" stroke="rgb(76,76,76)" stroke-width="1" opacity="0.09411764705882353" d="M 56.5 144 L 58 144.5 L 55.5 146 L 56.5 144 Z " /><path fill="rgb(76,76,76)" stroke="rgb(76,76,76)" stroke-width="1" opacity="0.09411764705882353" d="M 142.5 144 L 145 145.5 L 143.5 146 L 142.5 144 Z " /><path fill="rgb(76,76,76)" stroke="rgb(76,76,76)" stroke-width="1" opacity="0.09411764705882353" d="M 53.5 146 L 54.5 148 Q 51.7 148.7 53.5 146 Z " /><path fill="rgb(76,76,76)" stroke="rgb(76,76,76)" stroke-width="1" opacity="0.09411764705882353" d="M 148.5 147 Q 155 151 167.5 149 L 171.5 147 L 172 149 L 168.5 150 L 151.5 150 L 147 148.5 L 148.5 147 Z " /><path fill="rgb(0,0,0)" stroke="rgb(0,0,0)" stroke-width="1" opacity="0" d="M 0 0 L 200 0 L 200 200 L 0 200 L 0 0 Z M 153 36 L 147 38 L 146 41 Q 145 48 149 51 L 149 53 L 144 50 L 142 48 L 136 44 L 128 44 L 124 48 L 124 55 L 121 53 L 110 51 L 108 49 Q 102 51 101 48 L 92 48 L 79 54 L 75 59 Q 72 58 73 62 L 59 60 L 52 57 L 50 54 L 48 53 L 39 53 L 38 54 L 30 47 L 13 47 L 11 49 L 12 58 L 15 59 L 16 63 L 22 67 L 23 71 L 29 75 L 35 75 L 42 80 L 44 83 L 46 83 Q 45 86 48 85 L 50 88 L 46 87 L 30 88 L 20 93 L 17 97 L 13 99 L 8 112 L 8 128 L 12 135 Q 11 138 14 137 L 17 143 L 31 150 L 49 150 L 55 148 Q 57 149 56 147 L 60 145 L 64 140 L 67 138 L 70 130 L 69 126 L 71 125 L 79 139 L 83 141 L 106 141 L 109 138 L 115 141 L 134 141 L 136 139 L 139 144 L 152 150 L 170 150 L 175 148 Q 177 149 176 146 L 182 144 Q 188 140 190 132 L 189 128 L 191 127 L 190 122 Q 189 116 191 115 Q 192 110 190 111 L 190 110 L 190 106 Q 186 104 187 99 L 182 97 L 183 92 L 178 87 L 176 87 L 176 86 Q 179 87 178 84 L 181 85 Q 186 86 187 82 L 187 77 L 184 71 L 182 61 L 168 43 L 162 36 L 153 36 Z " /><path fill="rgb(0,0,0)" stroke="rgb(0,0,0)" stroke-width="1" opacity="0" d="M 58.5 92 L 70.5 92 L 73 94.5 L 70 95 Q 71.3 98 67.5 97 L 64.5 98 L 58.5 92 Z " /><path fill="rgb(0,0,0)" stroke="rgb(0,0,0)" stroke-width="1" opacity="0" d="M 42.5 104 L 43 106 Q 46 105 45 108 L 32 114.5 Q 30.3 123.3 35.5 125 L 48.5 125 L 51 124 L 44.5 132 L 39.5 133 L 31 129.5 Q 26.6 125.9 26 118.5 Q 27.6 109.6 34.5 106 L 42.5 104 Z " /><path fill="rgb(0,0,0)" stroke="rgb(0,0,0)" stroke-width="1" opacity="0" d="M 166.5 107 L 174.5 117 L 177 118.5 L 175.5 122 L 172 124.5 L 169 130 L 159.5 133 L 155.5 132 L 148 124.5 L 147 116.5 L 149.5 111 L 153 122.5 L 156.5 126 L 162.5 125 L 166.5 126 L 169 123.5 L 169 114.5 L 166.5 107 Z " /><path fill="rgb(1,1,1)" stroke="rgb(1,1,1)" stroke-width="1" opacity="0.9568627450980393" d="M 161.5 39 L 162.5 41 L 161.5 39 Z " /><path fill="rgb(1,1,1)" stroke="rgb(1,1,1)" stroke-width="1" opacity="0.9568627450980393" d="M 148.5 43 L 150 46.5 L 149 46.5 L 148.5 43 Z " /><path fill="rgb(1,1,1)" stroke="rgb(1,1,1)" stroke-width="1" opacity="0.9568627450980393" d="M 165.5 44 L 168.5 48 L 165.5 44 Z " /><path fill="rgb(1,1,1)" stroke="rgb(1,1,1)" stroke-width="1" opacity="0.9568627450980393" d="M 129.5 46 L 126.5 50 L 127 48.5 Q 126.3 46.3 128.5 47 L 129.5 46 Z " /><path fill="rgb(1,1,1)" stroke="rgb(1,1,1)" stroke-width="1" opacity="0.9568627450980393" d="M 16.5 48 Q 24 46.5 27 49.5 L 15.5 50 L 16.5 48 Z " /><path fill="rgb(1,1,1)" stroke="rgb(1,1,1)" stroke-width="1" opacity="0.9568627450980393" d="M 150.5 48 L 151 50.5 L 150 50.5 L 150.5 48 Z " /><path fill="rgb(1,1,1)" stroke="rgb(1,1,1)" stroke-width="1" opacity="0.9568627450980393" d="M 139.5 49 L 141.5 52 L 139.5 49 Z " /><path fill="rgb(1,1,1)" stroke="rgb(1,1,1)" stroke-width="1" opacity="0.9568627450980393" d="M 169.5 49 L 172.5 53 L 169.5 49 Z " /><path fill="rgb(1,1,1)" stroke="rgb(1,1,1)" stroke-width="1" opacity="0.9568627450980393" d="M 13.5 51 Q 14.3 56.3 18 58.5 L 14 55.5 L 13.5 51 Z " /><path fill="rgb(1,1,1)" stroke="rgb(1,1,1)" stroke-width="1" opacity="0.9568627450980393" d="M 30.5 51 L 37 56.5 L 35.5 57 L 30.5 51 Z " /><path fill="rgb(1,1,1)" stroke="rgb(1,1,1)" stroke-width="1" opacity="0.9568627450980393" d="M 90.5 51 L 93 51.5 L 90.5 52 L 90.5 51 Z " /><path fill="rgb(1,1,1)" stroke="rgb(1,1,1)" stroke-width="1" opacity="0.9568627450980393" d="M 100.5 51 L 103 51.5 L 100.5 52 L 100.5 51 Z " /><path fill="rgb(1,1,1)" stroke="rgb(1,1,1)" stroke-width="1" opacity="0.9568627450980393" d="M 143.5 52 L 146.5 56 L 143.5 52 Z " /><path fill="rgb(1,1,1)" stroke="rgb(1,1,1)" stroke-width="1" opacity="0.9568627450980393" d="M 110.5 53 L 113 53.5 L 110.5 54 L 110.5 53 Z " /><path fill="rgb(1,1,1)" stroke="rgb(1,1,1)" stroke-width="1" opacity="0.9568627450980393" d="M 126.5 54 L 129.5 58 L 126.5 54 Z " /><path fill="rgb(1,1,1)" stroke="rgb(1,1,1)" stroke-width="1" opacity="0.9568627450980393" d="M 39.5 55 L 42 55.5 L 38.5 57 L 39.5 55 Z " /><path fill="rgb(1,1,1)" stroke="rgb(1,1,1)" stroke-width="1" opacity="0.9568627450980393" d="M 44.5 55 L 50 58.5 L 47.5 57 Q 43.8 56.7 44.5 55 Z " /><path fill="rgb(1,1,1)" stroke="rgb(1,1,1)" stroke-width="1" opacity="0.9568627450980393" d="M 82.5 55 L 81.5 57 L 82.5 55 Z " /><path fill="rgb(1,1,1)" stroke="rgb(1,1,1)" stroke-width="1" opacity="0.9568627450980393" d="M 117.5 55 L 125 58.5 L 123.5 59 L 117.5 56 L 117.5 55 Z " /><path fill="rgb(1,1,1)" stroke="rgb(1,1,1)" stroke-width="1" opacity="0.9568627450980393" d="M 175.5 56 L 176.5 58 L 175.5 56 Z " /><path fill="rgb(1,1,1)" stroke="rgb(1,1,1)" stroke-width="1" opacity="0.9568627450980393" d="M 177.5 59 L 181 65.5 L 179 64.5 L 177.5 59 Z " /><path fill="rgb(1,1,1)" stroke="rgb(1,1,1)" stroke-width="1" opacity="0.9568627450980393" d="M 54.5 60 L 64 63.5 L 61.5 64 L 57.5 63 L 54.5 60 Z " /><path fill="rgb(1,1,1)" stroke="rgb(1,1,1)" stroke-width="1" opacity="0.9568627450980393" d="M 19.5 61 L 26 68.5 L 24 67.5 L 19.5 61 Z " /><path fill="rgb(1,1,1)" stroke="rgb(1,1,1)" stroke-width="1" opacity="0.9568627450980393" d="M 75.5 62 L 75 63.5 Q 75.8 65.8 73.5 65 L 70.5 66 L 70.5 65 Q 75 65.5 75.5 62 Z " /><path fill="rgb(1,1,1)" stroke="rgb(1,1,1)" stroke-width="1" opacity="0.9568627450980393" d="M 27.5 70 L 30 71.5 L 28.5 72 L 27.5 70 Z " /><path fill="rgb(1,1,1)" stroke="rgb(1,1,1)" stroke-width="1" opacity="0.9568627450980393" d="M 31.5 72 L 36.5 72 L 51 84.5 L 46.5 81 L 35.5 73 L 33.5 74 L 31.5 72 Z " /><path fill="rgb(1,1,1)" stroke="rgb(1,1,1)" stroke-width="1" opacity="0.9568627450980393" d="M 183.5 75 L 184 77.5 L 183 77.5 L 183.5 75 Z " /><path fill="rgb(1,1,1)" stroke="rgb(1,1,1)" stroke-width="1" opacity="0.9568627450980393" d="M 183.5 80 L 184 81.5 L 182 82.5 L 183.5 80 Z " /><path fill="rgb(1,1,1)" stroke="rgb(1,1,1)" stroke-width="1" opacity="0.9568627450980393" d="M 176.5 83 L 180 83.5 L 176.5 84 L 176.5 83 Z " /><path fill="rgb(1,1,1)" stroke="rgb(1,1,1)" stroke-width="1" opacity="0.9568627450980393" d="M 54.5 87 L 55.5 89 L 54.5 87 Z " /><path fill="rgb(1,1,1)" stroke="rgb(1,1,1)" stroke-width="1" opacity="0.9568627450980393" d="M 171.5 87 L 179 91.5 L 177.5 92 L 173.5 90 L 171.5 87 Z " /><path fill="rgb(1,1,1)" stroke="rgb(1,1,1)" stroke-width="1" opacity="0.9568627450980393" d="M 33.5 89 Q 36.1 88.3 35 91 L 32 90.5 L 33.5 89 Z " /><path fill="rgb(1,1,1)" stroke="rgb(1,1,1)" stroke-width="1" opacity="0.9568627450980393" d="M 36.5 89 L 44 89.5 L 36.5 90 L 36.5 89 Z " /><path fill="rgb(1,1,1)" stroke="rgb(1,1,1)" stroke-width="1" opacity="0.9568627450980393" d="M 24.5 93 L 22.5 96 L 17.5 100 L 21.5 95 L 24.5 93 Z " /><path fill="rgb(1,1,1)" stroke="rgb(1,1,1)" stroke-width="1" opacity="0.9568627450980393" d="M 181.5 93 L 183 99.5 L 181 98.5 L 181.5 93 Z " /><path fill="rgb(1,1,1)" stroke="rgb(1,1,1)" stroke-width="1" opacity="0.9568627450980393" d="M 56.5 94 L 58.5 97 L 56.5 94 Z " /><path fill="rgb(1,1,1)" stroke="rgb(1,1,1)" stroke-width="1" opacity="0.9568627450980393" d="M 74.5 96 L 76 96.5 L 71.5 99 L 72.5 97 L 74.5 96 Z " /><path fill="rgb(1,1,1)" stroke="rgb(1,1,1)" stroke-width="1" opacity="0.9568627450980393" d="M 184.5 102 L 185.5 104 L 184.5 102 Z " /><path fill="rgb(1,1,1)" stroke="rgb(1,1,1)" stroke-width="1" opacity="0.9568627450980393" d="M 14.5 104 L 13 106.5 L 12.5 109 L 12 106.5 L 14.5 104 Z " /><path fill="rgb(1,1,1)" stroke="rgb(1,1,1)" stroke-width="1" opacity="0.9568627450980393" d="M 31.5 104 L 34 104.5 L 31.5 105 L 26 110.5 L 24.5 114 L 24 112.5 L 31.5 104 Z " /><path fill="rgb(1,1,1)" stroke="rgb(1,1,1)" stroke-width="1" opacity="0.9568627450980393" d="M 166.5 104 L 168.5 104 L 174 109.5 L 168.5 105 Q 165.5 105.5 166.5 104 Z " /><path fill="rgb(1,1,1)" stroke="rgb(1,1,1)" stroke-width="1" opacity="0.9568627450980393" d="M 186.5 105 L 187.5 107 L 186.5 105 Z " /><path fill="rgb(1,1,1)" stroke="rgb(1,1,1)" stroke-width="1" opacity="0.9568627450980393" d="M 148 107 L 152 109.5 L 150.5 109 L 147 110.5 L 145 114.5 L 145 116.5 Q 144.5 128.5 152 132.5 L 146 127.5 Q 142.5 123.5 144 114.5 L 148 107 Z " /><path fill="rgb(1,1,1)" stroke="rgb(1,1,1)" stroke-width="1" opacity="0.9568627450980393" d="M 163.5 108 L 167 117.5 L 166 117.5 L 163 110.5 L 163.5 108 Z " /><path fill="rgb(1,1,1)" stroke="rgb(1,1,1)" stroke-width="1" opacity="0.9568627450980393" d="M 47.5 109 L 46.5 111 L 44.5 112 L 45.5 110 L 47.5 109 Z " /><path fill="rgb(1,1,1)" stroke="rgb(1,1,1)" stroke-width="1" opacity="0.9568627450980393" d="M 188.5 110 L 189 112.5 L 188 112.5 L 188.5 110 Z " /><path fill="rgb(1,1,1)" stroke="rgb(1,1,1)" stroke-width="1" opacity="0.9568627450980393" d="M 152.5 111 L 156 120.5 L 155 120.5 L 152.5 111 Z " /><path fill="rgb(1,1,1)" stroke="rgb(1,1,1)" stroke-width="1" opacity="0.9568627450980393" d="M 175.5 113 L 176.5 115 L 175.5 113 Z " /><path fill="rgb(1,1,1)" stroke="rgb(1,1,1)" stroke-width="1" opacity="0.9568627450980393" d="M 10.5 114 L 11 122.5 L 10 122.5 L 10.5 114 Z " /><path fill="rgb(1,1,1)" stroke="rgb(1,1,1)" stroke-width="1" opacity="0.9568627450980393" d="M 189.5 115 L 190 122.5 L 189 122.5 L 189.5 115 Z " /><path fill="rgb(1,1,1)" stroke="rgb(1,1,1)" stroke-width="1" opacity="0.9568627450980393" d="M 23.5 116 Q 25.8 116.8 25 120.5 L 23 121.5 L 23.5 116 Z " /><path fill="rgb(1,1,1)" stroke="rgb(1,1,1)" stroke-width="1" opacity="0.9568627450980393" d="M 35.5 116 L 35 117.5 L 34.5 120 L 34 117.5 L 35.5 116 Z " /><path fill="rgb(1,1,1)" stroke="rgb(1,1,1)" stroke-width="1" opacity="0.9568627450980393" d="M 166.5 120 L 167 121.5 L 164 123.5 L 166.5 120 Z " /><path fill="rgb(1,1,1)" stroke="rgb(1,1,1)" stroke-width="1" opacity="0.9568627450980393" d="M 46.5 122 L 51 122.5 L 46.5 123 L 46.5 122 Z " /><path fill="rgb(1,1,1)" stroke="rgb(1,1,1)" stroke-width="1" opacity="0.9568627450980393" d="M 156.5 122 L 157.5 124 L 156.5 122 Z " /><path fill="rgb(1,1,1)" stroke="rgb(1,1,1)" stroke-width="1" opacity="0.9568627450980393" d="M 24.5 123 L 25 125.5 L 31 132.5 L 25 127.5 L 24.5 123 Z " /><path fill="rgb(1,1,1)" stroke="rgb(1,1,1)" stroke-width="1" opacity="0.9568627450980393" d="M 68.5 123 L 69 125.5 L 68 125.5 L 68.5 123 Z " /><path fill="rgb(1,1,1)" stroke="rgb(1,1,1)" stroke-width="1" opacity="0.9568627450980393" d="M 54.5 124 L 55 126.5 L 46.5 134 L 46.5 133 L 53 127.5 L 54.5 124 Z " /><path fill="rgb(1,1,1)" stroke="rgb(1,1,1)" stroke-width="1" opacity="0.9568627450980393" d="M 73.5 124 L 77 128.5 L 74 126.5 L 73.5 124 Z " /><path fill="rgb(1,1,1)" stroke="rgb(1,1,1)" stroke-width="1" opacity="0.9568627450980393" d="M 159.5 124 L 163 124.5 L 159.5 125 L 159.5 124 Z " /><path fill="rgb(1,1,1)" stroke="rgb(1,1,1)" stroke-width="1" opacity="0.9568627450980393" d="M 175.5 125 L 175 126.5 L 169.5 133 L 173 128.5 L 175.5 125 Z " /><path fill="rgb(1,1,1)" stroke="rgb(1,1,1)" stroke-width="1" opacity="0.9568627450980393" d="M 188.5 125 L 189 127.5 L 188 127.5 L 188.5 125 Z " /><path fill="rgb(1,1,1)" stroke="rgb(1,1,1)" stroke-width="1" opacity="0.9568627450980393" d="M 12.5 130 L 15 133.5 L 13 132.5 L 12.5 130 Z " /><path fill="rgb(1,1,1)" stroke="rgb(1,1,1)" stroke-width="1" opacity="0.9568627450980393" d="M 77.5 130 L 78.5 132 L 77.5 130 Z " /><path fill="rgb(1,1,1)" stroke="rgb(1,1,1)" stroke-width="1" opacity="0.9568627450980393" d="M 187.5 130 L 187 131.5 L 183.5 137 L 185 134.5 L 187.5 130 Z " /><path fill="rgb(1,1,1)" stroke="rgb(1,1,1)" stroke-width="1" opacity="0.9568627450980393" d="M 79.5 133 L 83 137.5 L 81 136.5 L 79.5 133 Z " /><path fill="rgb(1,1,1)" stroke="rgb(1,1,1)" stroke-width="1" opacity="0.9568627450980393" d="M 37.5 134 L 43 134.5 L 37.5 135 L 37.5 134 Z " /><path fill="rgb(1,1,1)" stroke="rgb(1,1,1)" stroke-width="1" opacity="0.9568627450980393" d="M 157.5 134 L 163 134.5 L 157.5 135 L 157.5 134 Z " /><path fill="rgb(1,1,1)" stroke="rgb(1,1,1)" stroke-width="1" opacity="0.9568627450980393" d="M 15.5 135 L 16.5 137 L 15.5 135 Z " /><path fill="rgb(1,1,1)" stroke="rgb(1,1,1)" stroke-width="1" opacity="0.9568627450980393" d="M 133.5 136 L 132.5 138 L 133.5 136 Z " /><path fill="rgb(1,1,1)" stroke="rgb(1,1,1)" stroke-width="1" opacity="0.9568627450980393" d="M 62.5 137 L 58.5 142 L 62.5 137 Z " /><path fill="rgb(1,1,1)" stroke="rgb(1,1,1)" stroke-width="1" opacity="0.9568627450980393" d="M 114.5 137 L 115.5 138 L 131 138.5 L 129.5 140 L 116.5 140 L 114.5 137 Z " /><path fill="rgb(1,1,1)" stroke="rgb(1,1,1)" stroke-width="1" opacity="0.9568627450980393" d="M 137.5 137 L 142.5 143 L 137.5 137 Z " /><path fill="rgb(1,1,1)" stroke="rgb(1,1,1)" stroke-width="1" opacity="0.9568627450980393" d="M 84.5 138 L 103 138.5 L 101.5 140 L 85.5 140 L 84.5 138 Z " /><path fill="rgb(1,1,1)" stroke="rgb(1,1,1)" stroke-width="1" opacity="0.9568627450980393" d="M 19.5 140 L 20.5 142 L 19.5 140 Z " /><path fill="rgb(1,1,1)" stroke="rgb(1,1,1)" stroke-width="1" opacity="0.9568627450980393" d="M 178.5 141 L 180 141.5 L 177.5 143 L 178.5 141 Z " /><path fill="rgb(1,1,1)" stroke="rgb(1,1,1)" stroke-width="1" opacity="0.9568627450980393" d="M 25.5 144 L 28 145.5 L 26.5 146 L 25.5 144 Z " /><path fill="rgb(1,1,1)" stroke="rgb(1,1,1)" stroke-width="1" opacity="0.9568627450980393" d="M 29.5 146 Q 35.7 148.8 46.5 147 L 49.5 146 L 49.5 147 Q 44.9 149.9 36.5 149 L 29.5 147 L 29.5 146 Z " /><path fill="rgb(1,1,1)" stroke="rgb(1,1,1)" stroke-width="1" opacity="0.9568627450980393" d="M 150.5 146 Q 156.7 148.8 167.5 147 L 169.5 146 L 169.5 147 Q 164.9 149.9 156.5 149 L 150.5 147 L 150.5 146 Z " /><path fill="rgb(159,164,171)" stroke="rgb(159,164,171)" stroke-width="1" opacity="0.49411764705882355" d="M 147 38 Q 150 37 149 40 Q 146 41 147 38 Z " /><path fill="rgb(159,164,171)" stroke="rgb(159,164,171)" stroke-width="1" opacity="0.49411764705882355" d="M 163.5 38 L 167.5 43 L 163 39.5 L 163.5 38 Z " /><path fill="rgb(159,164,171)" stroke="rgb(159,164,171)" stroke-width="1" opacity="0.49411764705882355" d="M 159.5 43 L 160.5 45 L 158 44.5 L 159.5 43 Z " /><path fill="rgb(159,164,171)" stroke="rgb(159,164,171)" stroke-width="1" opacity="0.49411764705882355" d="M 127.5 44 L 130 44.5 L 127.5 45 L 127.5 44 Z " /><path fill="rgb(159,164,171)" stroke="rgb(159,164,171)" stroke-width="1" opacity="0.49411764705882355" d="M 139 46 L 142 47.5 Q 140.5 50.5 139 47.5 L 139 46 Z " /><path fill="rgb(159,164,171)" stroke="rgb(159,164,171)" stroke-width="1" opacity="0.49411764705882355" d="M 170.5 46 Q 177.4 51.1 181 59.5 L 179 60 L 177 54 L 174 52.5 L 170 47.5 L 170.5 46 Z " /><path fill="rgb(159,164,171)" stroke="rgb(159,164,171)" stroke-width="1" opacity="0.49411764705882355" d="M 13.5 47 L 14 48.5 L 11.5 50 L 13.5 47 Z " /><path fill="rgb(159,164,171)" stroke="rgb(159,164,171)" stroke-width="1" opacity="0.49411764705882355" d="M 29.5 47 L 37 53.5 Q 37.8 55.8 35.5 55 L 33 51 L 28 48.5 L 29.5 47 Z " /><path fill="rgb(159,164,171)" stroke="rgb(159,164,171)" stroke-width="1" opacity="0.49411764705882355" d="M 46 53 L 50 55.5 L 48 56 L 47.5 54 L 46 54.5 L 46 53 Z " /><path fill="rgb(159,164,171)" stroke="rgb(159,164,171)" stroke-width="1" opacity="0.49411764705882355" d="M 120.5 53 L 119.5 55 L 120.5 53 Z " /><path fill="rgb(159,164,171)" stroke="rgb(159,164,171)" stroke-width="1" opacity="0.49411764705882355" d="M 147.5 53 L 149 55.5 L 147 54.5 L 147.5 53 Z " /><path fill="rgb(159,164,171)" stroke="rgb(159,164,171)" stroke-width="1" opacity="0.49411764705882355" d="M 79.5 54 L 80 55.5 L 74 60.5 L 77 55 L 79.5 54 Z " /><path fill="rgb(159,164,171)" stroke="rgb(159,164,171)" stroke-width="1" opacity="0.49411764705882355" d="M 13.5 56 L 15 58.5 L 13 59 L 13.5 56 Z " /><path fill="rgb(159,164,171)" stroke="rgb(159,164,171)" stroke-width="1" opacity="0.49411764705882355" d="M 61 60 L 63 60.5 L 61 61.5 L 61 60 Z " /><path fill="rgb(159,164,171)" stroke="rgb(159,164,171)" stroke-width="1" opacity="0.49411764705882355" d="M 16 61 L 19 62.5 L 21 65.5 L 19.5 65 L 16 62.5 L 16 61 Z " /><path fill="rgb(159,164,171)" stroke="rgb(159,164,171)" stroke-width="1" opacity="0.49411764705882355" d="M 131.5 67 L 135 68.5 L 133.5 68 Q 130.5 68.5 131.5 67 Z " /><path fill="rgb(159,164,171)" stroke="rgb(159,164,171)" stroke-width="1" opacity="0.49411764705882355" d="M 23.5 69 L 26 70 L 27 72.5 L 25.5 73 Q 21.9 71.9 23.5 69 Z " /><path fill="rgb(159,164,171)" stroke="rgb(159,164,171)" stroke-width="1" opacity="0.49411764705882355" d="M 36 75 L 39 76.5 Q 39.8 78.8 37.5 78 L 36 75 Z " /><path fill="rgb(159,164,171)" stroke="rgb(159,164,171)" stroke-width="1" opacity="0.49411764705882355" d="M 112.5 76 L 111.5 78 L 112.5 76 Z " /><path fill="rgb(159,164,171)" stroke="rgb(159,164,171)" stroke-width="1" opacity="0.49411764705882355" d="M 113.5 78 L 112.5 80 L 113.5 78 Z " /><path fill="rgb(159,164,171)" stroke="rgb(159,164,171)" stroke-width="1" opacity="0.49411764705882355" d="M 41.5 79 L 45 81 Q 46.1 83.7 43.5 83 L 41.5 79 Z " /><path fill="rgb(159,164,171)" stroke="rgb(159,164,171)" stroke-width="1" opacity="0.49411764705882355" d="M 79.5 80 L 81.5 80 L 86 84.5 L 82.5 82 Q 77.3 80.8 76 83.5 L 84.5 96 L 88.5 93 L 88 94.5 L 85.5 98 L 83 96.5 L 74 83.5 L 74 81 L 79.5 80 Z " /><path fill="rgb(159,164,171)" stroke="rgb(159,164,171)" stroke-width="1" opacity="0.49411764705882355" d="M 103.5 81 L 99.5 86 L 103.5 81 Z " /><path fill="rgb(159,164,171)" stroke="rgb(159,164,171)" stroke-width="1" opacity="0.49411764705882355" d="M 185 81 L 187 81.5 L 185 82.5 L 185 81 Z " /><path fill="rgb(159,164,171)" stroke="rgb(159,164,171)" stroke-width="1" opacity="0.49411764705882355" d="M 48.5 85 L 52 87.5 L 50.5 90 L 49 89.5 L 50 87.5 L 48.5 85 Z " /><path fill="rgb(159,164,171)" stroke="rgb(159,164,171)" stroke-width="1" opacity="0.49411764705882355" d="M 176 87 Q 179 86 178 89 Q 175 90 176 87 Z " /><path fill="rgb(159,164,171)" stroke="rgb(159,164,171)" stroke-width="1" opacity="0.49411764705882355" d="M 180.5 89 L 182.5 92 L 180 91 L 180.5 89 Z " /><path fill="rgb(159,164,171)" stroke="rgb(159,164,171)" stroke-width="1" opacity="0.49411764705882355" d="M 72.5 91 L 75 94.5 L 73.5 94 L 71 92.5 L 72.5 91 Z " /><path fill="rgb(159,164,171)" stroke="rgb(159,164,171)" stroke-width="1" opacity="0.49411764705882355" d="M 60.5 94 L 65 99.5 L 60 95.5 L 60.5 94 Z " /><path fill="rgb(159,164,171)" stroke="rgb(159,164,171)" stroke-width="1" opacity="0.49411764705882355" d="M 17.5 95 L 18 96.5 L 14.5 101 L 14 99.5 L 17.5 95 Z " /><path fill="rgb(159,164,171)" stroke="rgb(159,164,171)" stroke-width="1" opacity="0.49411764705882355" d="M 184.5 98 L 187 99 Q 188.1 101.7 185.5 101 L 184.5 98 Z " /><path fill="rgb(159,164,171)" stroke="rgb(159,164,171)" stroke-width="1" opacity="0.49411764705882355" d="M 76.5 100 L 79 100.5 L 76.5 101 L 76.5 100 Z " /><path fill="rgb(159,164,171)" stroke="rgb(159,164,171)" stroke-width="1" opacity="0.49411764705882355" d="M 12.5 101 L 13 104 Q 10.3 105.1 11 102.5 L 12.5 101 Z " /><path fill="rgb(159,164,171)" stroke="rgb(159,164,171)" stroke-width="1" opacity="0.49411764705882355" d="M 79.5 102 L 80.5 104 L 79.5 102 Z " /><path fill="rgb(159,164,171)" stroke="rgb(159,164,171)" stroke-width="1" opacity="0.49411764705882355" d="M 186.5 102 L 189 103.5 L 187.5 104 L 186.5 102 Z " /><path fill="rgb(159,164,171)" stroke="rgb(159,164,171)" stroke-width="1" opacity="0.49411764705882355" d="M 46.5 106 L 47.5 108 L 46.5 106 Z " /><path fill="rgb(159,164,171)" stroke="rgb(159,164,171)" stroke-width="1" opacity="0.49411764705882355" d="M 31.5 107 L 33 107.5 L 31 108 L 29.5 111 L 28 110.5 L 31.5 107 Z " /><path fill="rgb(159,164,171)" stroke="rgb(159,164,171)" stroke-width="1" opacity="0.49411764705882355" d="M 168.5 107 L 172 111.5 L 168 108.5 L 168.5 107 Z " /><path fill="rgb(159,164,171)" stroke="rgb(159,164,171)" stroke-width="1" opacity="0.49411764705882355" d="M 57.5 109 L 56.5 111 L 53.5 112 L 53.5 111 L 57.5 109 Z " /><path fill="rgb(159,164,171)" stroke="rgb(159,164,171)" stroke-width="1" opacity="0.49411764705882355" d="M 8.5 111 L 9 125.5 L 10 126.5 L 9.5 129 L 8 127.5 L 8.5 111 Z " /><path fill="rgb(159,164,171)" stroke="rgb(159,164,171)" stroke-width="1" opacity="0.49411764705882355" d="M 35.5 112 L 36 113.5 L 32 116 L 33.5 113 L 35.5 112 Z " /><path fill="rgb(159,164,171)" stroke="rgb(159,164,171)" stroke-width="1" opacity="0.49411764705882355" d="M 73.5 114 L 80 114.5 L 73.5 115 L 73.5 114 Z " /><path fill="rgb(159,164,171)" stroke="rgb(159,164,171)" stroke-width="1" opacity="0.49411764705882355" d="M 70.5 115 L 69.5 117 L 70.5 115 Z " /><path fill="rgb(159,164,171)" stroke="rgb(159,164,171)" stroke-width="1" opacity="0.49411764705882355" d="M 42.5 116 L 44 116.5 L 42 117 L 41.5 119 L 41 117.5 L 42.5 116 Z " /><path fill="rgb(159,164,171)" stroke="rgb(159,164,171)" stroke-width="1" opacity="0.49411764705882355" d="M 176 116 L 178 116.5 L 178 123 Q 175.3 124.1 176 121.5 L 177 118.5 L 176 116 Z " /><path fill="rgb(159,164,171)" stroke="rgb(159,164,171)" stroke-width="1" opacity="0.49411764705882355" d="M 60.5 117 L 65 117.5 L 60.5 118 L 60.5 117 Z " /><path fill="rgb(159,164,171)" stroke="rgb(159,164,171)" stroke-width="1" opacity="0.49411764705882355" d="M 167 122 Q 170 121 169 124 L 167 124 Q 168.1 126.7 165.5 126 L 167 123.5 L 167 122 Z " /><path fill="rgb(159,164,171)" stroke="rgb(159,164,171)" stroke-width="1" opacity="0.49411764705882355" d="M 50.5 126 L 51 129 L 47.5 131 L 47 129.5 L 50.5 126 Z " /><path fill="rgb(159,164,171)" stroke="rgb(159,164,171)" stroke-width="1" opacity="0.49411764705882355" d="M 29.5 127 L 30.5 129 L 29.5 127 Z " /><path fill="rgb(159,164,171)" stroke="rgb(159,164,171)" stroke-width="1" opacity="0.49411764705882355" d="M 149.5 127 L 154 130.5 L 152.5 131 L 149 129 L 149.5 127 Z " /><path fill="rgb(159,164,171)" stroke="rgb(159,164,171)" stroke-width="1" opacity="0.49411764705882355" d="M 66.5 134 L 67.5 136 L 66.5 134 Z " /><path fill="rgb(159,164,171)" stroke="rgb(159,164,171)" stroke-width="1" opacity="0.49411764705882355" d="M 77 134 Q 80 133 79 136 Q 76 137 77 134 Z " /><path fill="rgb(159,164,171)" stroke="rgb(159,164,171)" stroke-width="1" opacity="0.49411764705882355" d="M 188.5 134 L 186.5 137 L 186 135 L 188.5 134 Z " /><path fill="rgb(159,164,171)" stroke="rgb(159,164,171)" stroke-width="1" opacity="0.49411764705882355" d="M 13.5 135 L 14 137 L 12 136.5 L 13.5 135 Z " /><path fill="rgb(159,164,171)" stroke="rgb(159,164,171)" stroke-width="1" opacity="0.49411764705882355" d="M 65.5 136 L 66 137.5 L 64 138.5 L 65.5 136 Z " /><path fill="rgb(159,164,171)" stroke="rgb(159,164,171)" stroke-width="1" opacity="0.49411764705882355" d="M 79 137 Q 81.7 135.9 81 138.5 L 82.5 141 L 79 139 L 79 137 Z " /><path fill="rgb(159,164,171)" stroke="rgb(159,164,171)" stroke-width="1" opacity="0.49411764705882355" d="M 106.5 137 Q 114.1 135.5 113 139 L 108.5 138 L 105 140.5 L 106.5 137 Z " /><path fill="rgb(159,164,171)" stroke="rgb(159,164,171)" stroke-width="1" opacity="0.49411764705882355" d="M 135.5 137 L 136 138.5 L 133.5 140 L 133.5 139 Q 136 139.7 135.5 137 Z " /><path fill="rgb(159,164,171)" stroke="rgb(159,164,171)" stroke-width="1" opacity="0.49411764705882355" d="M 15.5 139 L 20 142.5 Q 20.8 144.8 18.5 144 L 15.5 139 Z " /><path fill="rgb(159,164,171)" stroke="rgb(159,164,171)" stroke-width="1" opacity="0.49411764705882355" d="M 184.5 139 L 185 141 L 182 142.5 Q 182.7 145.1 180 144 L 182.5 140 L 184.5 139 Z " /><path fill="rgb(159,164,171)" stroke="rgb(159,164,171)" stroke-width="1" opacity="0.49411764705882355" d="M 63.5 140 L 61.5 143 L 63.5 140 Z " /><path fill="rgb(159,164,171)" stroke="rgb(159,164,171)" stroke-width="1" opacity="0.49411764705882355" d="M 58 143 L 60 143.5 L 58 144.5 L 58 143 Z " /><path fill="rgb(159,164,171)" stroke="rgb(159,164,171)" stroke-width="1" opacity="0.49411764705882355" d="M 139.5 143 Q 142.8 141.9 142 144.5 L 140.5 144 L 139.5 143 Z " /><path fill="rgb(159,164,171)" stroke="rgb(159,164,171)" stroke-width="1" opacity="0.49411764705882355" d="M 54.5 146 Q 56.8 145.3 56 147.5 L 54.5 146 Z " /><path fill="rgb(159,164,171)" stroke="rgb(159,164,171)" stroke-width="1" opacity="0.49411764705882355" d="M 144.5 146 L 148 147.5 L 145.5 148 L 144.5 146 Z " /><path fill="rgb(159,164,171)" stroke="rgb(159,164,171)" stroke-width="1" opacity="0.49411764705882355" d="M 52.5 147 L 53.5 149 Q 50.7 149.7 52.5 147 Z " /><path fill="rgb(159,164,171)" stroke="rgb(159,164,171)" stroke-width="1" opacity="0.49411764705882355" d="M 172.5 147 L 173.5 149 Q 170.7 149.7 172.5 147 Z " /><path fill="rgb(1,1,1)" stroke="rgb(1,1,1)" stroke-width="1" opacity="1" d="M 156.5 37 L 158.5 37 L 165 43.5 L 172.5 53 L 175 54.5 L 181 66.5 L 184 79.5 L 182 83 Q 174.9 82.3 171 85 Q 170.3 88.8 173.5 90 L 181 93.5 L 181 98.5 L 188 107.5 L 189 124.5 L 188 129.5 L 179.5 141 L 167.5 147 L 153.5 147 L 146.5 145 L 134.5 135 L 131.5 138 L 115 138 L 115.5 136 L 129.5 136 L 130 134.5 L 133 119.5 L 131.5 118 L 123.5 118 L 111 114 L 106.5 122 Q 103.6 124.6 97.5 124 L 89.5 119 L 76.5 119 L 75 121.5 L 85.5 136 L 103.5 136 L 104 138 L 83.5 138 L 82 136.5 L 71.5 122 L 68 123.5 Q 66.1 137.1 56.5 143 Q 48.5 149 32.5 147 Q 22.4 144.6 17 137.5 L 11 127.5 L 11 111.5 Q 14.1 101.6 21.5 96 L 27.5 92 L 35.5 90 L 44.5 90 Q 57 92.5 63.5 101 L 67.5 101 L 76 97 L 77 94.5 L 76 92 L 72.5 90 Q 62.4 91.6 56.5 89 L 36.5 72 Q 28.9 72.9 26 70 L 25 66.5 L 15 55.5 L 14 50 L 27.5 50 L 35.5 57 L 39.5 57 L 43.5 55 L 57.5 63 L 72.5 66 L 75 65 Q 75.7 59.6 80.5 57 Q 86.7 50.7 99.5 51 L 116.5 55 L 133 62 L 126 53.5 L 126 50.5 L 130.5 46 L 133.5 46 L 149.5 58 L 151 56.5 L 151 48.5 L 149 42.5 L 150 40 L 156.5 37 Z M 157 39 L 155 41 L 155 43 L 163 55 L 170 59 L 172 58 L 172 56 L 162 45 Q 163 42 161 43 L 159 41 L 157 39 Z M 154 47 L 154 52 L 154 57 L 152 63 L 146 69 L 127 78 Q 123 77 125 81 L 128 81 L 141 88 L 145 93 L 149 92 L 158 86 L 170 82 L 169 80 L 170 76 L 173 73 L 179 71 L 177 64 L 173 61 L 165 60 Q 159 55 156 48 L 154 47 Z M 132 49 L 129 53 L 139 59 L 142 66 Q 146 66 146 64 L 144 56 L 134 49 L 132 49 Z M 17 52 Q 22 63 32 70 Q 39 71 42 68 Q 44 69 43 67 L 27 52 L 17 52 Z M 94 53 L 85 57 L 76 67 L 86 79 L 94 85 L 97 81 L 103 76 L 125 66 L 126 62 L 113 56 L 108 56 L 100 53 L 94 53 Z M 42 58 L 42 61 L 65 78 L 76 76 L 77 74 L 71 68 L 67 68 L 54 64 L 42 58 Z M 130 66 L 104 79 Q 96 84 94 94 Q 95 96 101 95 L 105 88 L 113 81 L 135 71 L 137 69 Q 136 65 130 66 Z M 45 71 L 42 74 L 58 86 L 60 87 L 69 87 L 68 82 L 61 81 L 49 71 L 45 71 Z M 179 75 L 173 77 L 175 80 L 181 80 L 181 77 L 179 75 Z M 77 79 L 72 82 L 83 100 L 88 99 L 92 91 L 85 82 Q 84 78 77 79 Z M 117 83 L 113 85 Q 105 90 104 101 L 107 102 L 109 106 Q 117 115 134 115 L 137 107 L 143 97 L 141 93 L 129 85 L 117 83 Z M 161 89 L 159 91 L 161 100 L 167 100 L 176 96 Q 178 97 177 95 Q 172 89 161 89 Z M 39 92 L 25 97 L 16 107 L 13 118 Q 13 129 19 136 L 29 143 L 40 146 L 50 144 L 55 141 Q 62 136 65 128 Q 66 123 64 122 L 58 123 L 55 131 Q 51 136 43 138 Q 34 139 30 135 Q 22 131 20 122 L 20 117 L 24 108 Q 28 102 36 100 Q 48 99 53 105 L 58 104 L 59 101 Q 52 93 39 92 Z M 153 93 L 151 95 L 152 102 L 160 121 Q 163 122 164 120 L 156 95 L 153 93 Z M 77 98 L 39 117 L 37 120 L 70 119 Q 71 114 81 116 L 82 115 L 82 107 L 83 106 L 79 100 Q 80 97 77 98 Z M 96 98 L 92 100 Q 84 103 86 115 Q 87 117 92 116 L 97 120 L 103 120 L 107 115 L 106 108 L 103 105 Q 99 104 100 100 Q 99 97 96 98 Z M 147 99 L 141 107 L 136 122 Q 135 131 139 135 L 146 141 L 154 145 Q 159 144 161 146 Q 162 144 168 145 L 176 141 L 184 132 L 187 122 Q 187 106 179 100 Q 173 99 171 103 L 178 112 L 178 115 L 169 104 Q 164 103 163 106 L 163 111 L 167 119 L 166 122 Q 165 125 159 124 L 156 122 Q 156 114 152 110 L 148 107 L 144 115 Q 143 124 146 128 Q 149 134 158 135 L 163 135 L 170 133 L 175 127 L 177 126 L 176 130 Q 172 136 164 138 Q 154 139 150 135 L 142 126 L 141 121 Q 141 109 148 105 Q 149 100 147 99 Z M 36 103 L 32 104 Q 25 108 23 117 L 23 122 L 25 128 L 31 133 L 38 135 L 48 134 L 55 127 Q 56 123 53 122 Q 47 121 46 123 Q 37 125 35 121 L 36 116 L 47 111 L 50 108 L 49 105 Q 45 102 36 103 Z " /><path fill="rgb(242,195,94)" stroke="rgb(242,195,94)" stroke-width="1" opacity="1" d="M 157.5 42 Q 159.8 41.3 159 43.5 Q 166.2 49.1 170 57 L 165 54.5 L 157.5 42 Z " /><path fill="rgb(242,195,94)" stroke="rgb(242,195,94)" stroke-width="1" opacity="1" d="M 155.5 52 L 161.5 60 Q 166.3 64 175 63 L 177 70 Q 171.1 70.9 168 75.5 Q 169.3 80.8 166.5 82 L 160.5 83 L 145.5 91 Q 138.9 83.1 128 79.5 L 145.5 71 L 152 65.5 Q 156.1 61.1 155.5 52 Z " /><path fill="rgb(242,195,94)" stroke="rgb(242,195,94)" stroke-width="1" opacity="1" d="M 92.5 55 Q 112.3 55.2 124 63.5 L 99.5 76 L 94 81.5 Q 94.8 83.8 92.5 83 L 78 66.5 L 82.5 61 L 92.5 55 Z " /><path fill="rgb(242,195,94)" stroke="rgb(242,195,94)" stroke-width="1" opacity="1" d="M 130.5 68 L 134 68.5 L 113.5 78 L 103 87.5 L 101 93 Q 95.8 95.1 97 90.5 L 105.5 80 L 130.5 68 Z " /><path fill="rgb(242,195,94)" stroke="rgb(242,195,94)" stroke-width="1" opacity="1" d="M 77.5 82 L 82.5 82 L 89 88.5 L 90 90.5 L 87.5 94 L 84.5 96 L 76 83.5 L 77.5 82 Z " /><path fill="rgb(242,195,94)" stroke="rgb(242,195,94)" stroke-width="1" opacity="1" d="M 161 91 Q 170 90.4 175 94.5 L 163.5 98 L 161 91 Z " /><path fill="rgb(242,195,94)" stroke="rgb(242,195,94)" stroke-width="1" opacity="1" d="M 75.5 101 Q 79.9 99.5 79 102.5 L 81 106.5 L 80 107.5 L 80 114 Q 72 112.7 68.5 117 L 42.5 118 L 42.5 117 L 75.5 101 Z " /><path fill="rgb(22,19,19)" stroke="rgb(22,19,19)" stroke-width="1" opacity="0.9254901960784314" d="M 155.5 36 Q 160.3 35.3 161 38.5 L 158.5 37 L 155.5 37 L 149 41.5 L 147.5 44 L 148 42.5 L 152.5 37 L 155.5 36 Z " /><path fill="rgb(22,19,19)" stroke="rgb(22,19,19)" stroke-width="1" opacity="0.9254901960784314" d="M 156.5 39 L 159 40.5 L 157.5 40 Q 154.9 39.2 156 42.5 L 156.5 44 L 155 40.5 L 156.5 39 Z " /><path fill="rgb(22,19,19)" stroke="rgb(22,19,19)" stroke-width="1" opacity="0.9254901960784314" d="M 163.5 41 L 167.5 46 L 163.5 41 Z " /><path fill="rgb(22,19,19)" stroke="rgb(22,19,19)" stroke-width="1" opacity="0.9254901960784314" d="M 148.5 45 L 151 51.5 L 151 56.5 L 148.5 58 L 147.5 56 L 150 57 L 148.5 45 Z " /><path fill="rgb(22,19,19)" stroke="rgb(22,19,19)" stroke-width="1" opacity="0.9254901960784314" d="M 157.5 45 L 161 49.5 L 159 48.5 L 157.5 45 Z " /><path fill="rgb(22,19,19)" stroke="rgb(22,19,19)" stroke-width="1" opacity="0.9254901960784314" d="M 162.5 45 L 166.5 50 L 162.5 45 Z " /><path fill="rgb(22,19,19)" stroke="rgb(22,19,19)" stroke-width="1" opacity="0.9254901960784314" d="M 137.5 47 L 138.5 49 L 137.5 47 Z " /><path fill="rgb(22,19,19)" stroke="rgb(22,19,19)" stroke-width="1" opacity="0.9254901960784314" d="M 153.5 47 L 156 48.5 L 154 49 L 153.5 51 L 153.5 47 Z " /><path fill="rgb(22,19,19)" stroke="rgb(22,19,19)" stroke-width="1" opacity="0.9254901960784314" d="M 15.5 48 L 13.5 51 L 15.5 48 Z " /><path fill="rgb(22,19,19)" stroke="rgb(22,19,19)" stroke-width="1" opacity="0.9254901960784314" d="M 25.5 48 L 30 50.5 L 28.5 50 Q 24.8 49.7 25.5 48 Z " /><path fill="rgb(22,19,19)" stroke="rgb(22,19,19)" stroke-width="1" opacity="0.9254901960784314" d="M 169.5 48 L 172.5 52 L 169.5 48 Z " /><path fill="rgb(22,19,19)" stroke="rgb(22,19,19)" stroke-width="1" opacity="0.9254901960784314" d="M 131.5 49 L 133.5 49 L 142 55.5 L 139.5 54 L 131 50 Q 130.3 54.7 134.5 56 L 140 59.5 L 139.5 61 L 139 59 L 129 52.5 L 131.5 49 Z " /><path fill="rgb(22,19,19)" stroke="rgb(22,19,19)" stroke-width="1" opacity="0.9254901960784314" d="M 140.5 49 L 147 54.5 L 143.5 52 L 140.5 49 Z " /><path fill="rgb(22,19,19)" stroke="rgb(22,19,19)" stroke-width="1" opacity="0.9254901960784314" d="M 89.5 50 L 103.5 50 L 107 51.5 L 103.5 52 L 102.5 51 L 90.5 51 L 86.5 53 L 87.5 51 L 89.5 50 Z " /><path fill="rgb(22,19,19)" stroke="rgb(22,19,19)" stroke-width="1" opacity="0.9254901960784314" d="M 156.5 50 L 157.5 52 L 156.5 50 Z " /><path fill="rgb(22,19,19)" stroke="rgb(22,19,19)" stroke-width="1" opacity="0.9254901960784314" d="M 31.5 51 L 35.5 56 L 31.5 51 Z " /><path fill="rgb(22,19,19)" stroke="rgb(22,19,19)" stroke-width="1" opacity="0.9254901960784314" d="M 108.5 51 L 111 52.5 L 108 53 L 108.5 51 Z " /><path fill="rgb(22,19,19)" stroke="rgb(22,19,19)" stroke-width="1" opacity="0.9254901960784314" d="M 161.5 51 L 162.5 53 L 161.5 51 Z " /><path fill="rgb(22,19,19)" stroke="rgb(22,19,19)" stroke-width="1" opacity="0.9254901960784314" d="M 17 52 L 20 52.5 L 18 53.5 L 18.5 55 L 17 52 Z " /><path fill="rgb(22,19,19)" stroke="rgb(22,19,19)" stroke-width="1" opacity="0.9254901960784314" d="M 22.5 52 Q 29 51 30 55.5 L 26.5 53 Q 21.5 54 22.5 52 Z " /><path fill="rgb(22,19,19)" stroke="rgb(22,19,19)" stroke-width="1" opacity="0.9254901960784314" d="M 84.5 53 L 83.5 55 L 72.5 65 L 68.5 65 L 64 63.5 L 68.5 63 L 72.5 64 L 84.5 53 Z " /><path fill="rgb(22,19,19)" stroke="rgb(22,19,19)" stroke-width="1" opacity="0.9254901960784314" d="M 93.5 53 Q 100.3 52.3 104 54.5 L 100.5 55 Q 99 52.5 93.5 54 L 90.5 55 L 90.5 54 L 93.5 53 Z " /><path fill="rgb(22,19,19)" stroke="rgb(22,19,19)" stroke-width="1" opacity="0.9254901960784314" d="M 158.5 53 L 159.5 55 L 158.5 53 Z " /><path fill="rgb(22,19,19)" stroke="rgb(22,19,19)" stroke-width="1" opacity="0.9254901960784314" d="M 13.5 54 L 19 60.5 L 13 55.5 L 13.5 54 Z " /><path fill="rgb(22,19,19)" stroke="rgb(22,19,19)" stroke-width="1" opacity="0.9254901960784314" d="M 163.5 54 L 168 57.5 L 166.5 58 L 163.5 54 Z " /><path fill="rgb(22,19,19)" stroke="rgb(22,19,19)" stroke-width="1" opacity="0.9254901960784314" d="M 170.5 54 L 171.5 56 L 170.5 54 Z " /><path fill="rgb(22,19,19)" stroke="rgb(22,19,19)" stroke-width="1" opacity="0.9254901960784314" d="M 38.5 55 L 37.5 57 L 38.5 55 Z " /><path fill="rgb(22,19,19)" stroke="rgb(22,19,19)" stroke-width="1" opacity="0.9254901960784314" d="M 119.5 55 L 128.5 59 L 126.5 55 L 133 60.5 Q 133.8 62.8 131.5 62 L 119.5 56 L 119.5 55 Z " /><path fill="rgb(22,19,19)" stroke="rgb(22,19,19)" stroke-width="1" opacity="0.9254901960784314" d="M 175.5 55 L 176.5 57 L 175.5 55 Z " /><path fill="rgb(22,19,19)" stroke="rgb(22,19,19)" stroke-width="1" opacity="0.9254901960784314" d="M 19.5 56 L 22.5 60 L 19.5 56 Z " /><path fill="rgb(22,19,19)" stroke="rgb(22,19,19)" stroke-width="1" opacity="0.9254901960784314" d="M 31.5 56 L 37.5 63 L 31.5 56 Z " /><path fill="rgb(22,19,19)" stroke="rgb(22,19,19)" stroke-width="1" opacity="0.9254901960784314" d="M 48.5 56 L 52 58.5 L 50.5 59 L 48.5 56 Z " /><path fill="rgb(22,19,19)" stroke="rgb(22,19,19)" stroke-width="1" opacity="0.9254901960784314" d="M 86.5 56 L 85.5 58 L 78 64.5 L 77 66.5 L 77.5 68 Q 74.8 66.8 77 65.5 L 84.5 57 L 86.5 56 Z " /><path fill="rgb(22,19,19)" stroke="rgb(22,19,19)" stroke-width="1" opacity="0.9254901960784314" d="M 110.5 56 L 113 56.5 L 110.5 57 L 110.5 56 Z " /><path fill="rgb(22,19,19)" stroke="rgb(22,19,19)" stroke-width="1" opacity="0.9254901960784314" d="M 160.5 56 L 166 60.5 L 164.5 61 L 160.5 56 Z " /><path fill="rgb(22,19,19)" stroke="rgb(22,19,19)" stroke-width="1" opacity="0.9254901960784314" d="M 153.5 57 L 154 59.5 L 153 59.5 L 153.5 57 Z " /><path fill="rgb(22,19,19)" stroke="rgb(22,19,19)" stroke-width="1" opacity="0.9254901960784314" d="M 171.5 57 L 170.5 59 L 169 58.5 L 171.5 57 Z " /><path fill="rgb(22,19,19)" stroke="rgb(22,19,19)" stroke-width="1" opacity="0.9254901960784314" d="M 42 58 L 53.5 64 L 66 67.5 L 62.5 68 Q 51.8 65.7 44.5 60 L 48.5 65 L 60.5 75 L 66.5 77 L 76 74.5 L 72.5 70 L 67 68.5 L 70.5 68 L 77 73.5 L 75.5 76 L 64.5 78 L 42 60.5 L 42 58 Z " /><path fill="rgb(22,19,19)" stroke="rgb(22,19,19)" stroke-width="1" opacity="0.9254901960784314" d="M 177.5 58 L 180 61.5 L 179 61.5 L 177.5 58 Z " /><path fill="rgb(22,19,19)" stroke="rgb(22,19,19)" stroke-width="1" opacity="0.9254901960784314" d="M 144.5 59 L 146 63.5 Q 145.5 66.5 141.5 66 L 140 62.5 L 141 62.5 Q 139.9 65.8 142.5 65 Q 145.1 63.6 144.5 59 Z " /><path fill="rgb(22,19,19)" stroke="rgb(22,19,19)" stroke-width="1" opacity="0.9254901960784314" d="M 121.5 60 L 124 61.5 L 122.5 61 L 121.5 60 Z " /><path fill="rgb(22,19,19)" stroke="rgb(22,19,19)" stroke-width="1" opacity="0.9254901960784314" d="M 23.5 61 L 27.5 66 L 23.5 61 Z " /><path fill="rgb(22,19,19)" stroke="rgb(22,19,19)" stroke-width="1" opacity="0.9254901960784314" d="M 152.5 61 L 153 62.5 L 145.5 70 L 142.5 71 L 142.5 70 Q 149.4 68.4 152 62.5 L 152.5 61 Z " /><path fill="rgb(22,19,19)" stroke="rgb(22,19,19)" stroke-width="1" opacity="0.9254901960784314" d="M 167.5 61 L 173 61.5 L 167.5 62 L 167.5 61 Z " /><path fill="rgb(22,19,19)" stroke="rgb(22,19,19)" stroke-width="1" opacity="0.9254901960784314" d="M 19.5 62 L 28.5 72 L 33 73.5 L 31.5 74 Q 25.4 72.6 23 67.5 L 19.5 62 Z " /><path fill="rgb(22,19,19)" stroke="rgb(22,19,19)" stroke-width="1" opacity="0.9254901960784314" d="M 125.5 62 L 126 64.5 L 123.5 66 L 123.5 65 Q 126.4 65.8 125.5 62 Z " /><path fill="rgb(22,19,19)" stroke="rgb(22,19,19)" stroke-width="1" opacity="0.9254901960784314" d="M 175.5 62 L 176.5 64 L 175.5 62 Z " /><path fill="rgb(22,19,19)" stroke="rgb(22,19,19)" stroke-width="1" opacity="0.9254901960784314" d="M 40.5 64 L 43 67.5 L 42 67.5 L 40.5 64 Z " /><path fill="rgb(22,19,19)" stroke="rgb(22,19,19)" stroke-width="1" opacity="0.9254901960784314" d="M 129.5 66 L 131 66.5 L 128.5 68 L 129.5 66 Z " /><path fill="rgb(22,19,19)" stroke="rgb(22,19,19)" stroke-width="1" opacity="0.9254901960784314" d="M 134.5 66 Q 139.5 68.5 134.5 71 L 131.5 72 L 131.5 71 L 136 68.5 L 134.5 66 Z " /><path fill="rgb(22,19,19)" stroke="rgb(22,19,19)" stroke-width="1" opacity="0.9254901960784314" d="M 30.5 68 L 38 69.5 L 31.5 70 L 30.5 68 Z " /><path fill="rgb(22,19,19)" stroke="rgb(22,19,19)" stroke-width="1" opacity="0.9254901960784314" d="M 178.5 68 L 179 70.5 L 176.5 72 L 176.5 71 Q 179.4 71.7 178.5 68 Z " /><path fill="rgb(22,19,19)" stroke="rgb(22,19,19)" stroke-width="1" opacity="0.9254901960784314" d="M 78.5 69 L 85.5 77 L 78.5 69 Z " /><path fill="rgb(22,19,19)" stroke="rgb(22,19,19)" stroke-width="1" opacity="0.9254901960784314" d="M 182.5 69 Q 186.1 72.9 185 81.5 L 183 82.5 Q 185.5 81 184 75.5 L 182.5 69 Z " /><path fill="rgb(22,19,19)" stroke="rgb(22,19,19)" stroke-width="1" opacity="0.9254901960784314" d="M 44.5 71 L 48.5 71 Q 53.7 78.8 64 81.5 L 60.5 82 L 49.5 73 L 45.5 72 L 44 73.5 L 47.5 77 L 59.5 86 L 68 86 L 66 82.5 L 68 82 L 69 87 L 59.5 87 L 57.5 86 L 42 73.5 L 44.5 71 Z " /><path fill="rgb(22,19,19)" stroke="rgb(22,19,19)" stroke-width="1" opacity="0.9254901960784314" d="M 119.5 71 L 118.5 73 L 117 72.5 L 119.5 71 Z " /><path fill="rgb(22,19,19)" stroke="rgb(22,19,19)" stroke-width="1" opacity="0.9254901960784314" d="M 140.5 71 L 139.5 73 L 129.5 77 L 129.5 76 L 140.5 71 Z " /><path fill="rgb(22,19,19)" stroke="rgb(22,19,19)" stroke-width="1" opacity="0.9254901960784314" d="M 35.5 73 L 39 75.5 L 36.5 74 L 35.5 73 Z " /><path fill="rgb(22,19,19)" stroke="rgb(22,19,19)" stroke-width="1" opacity="0.9254901960784314" d="M 171.5 73 L 170 75.5 L 168.5 79 L 168 77.5 L 171.5 73 Z " /><path fill="rgb(22,19,19)" stroke="rgb(22,19,19)" stroke-width="1" opacity="0.9254901960784314" d="M 113.5 74 L 112.5 76 L 109.5 77 L 109.5 76 L 113.5 74 Z " /><path fill="rgb(22,19,19)" stroke="rgb(22,19,19)" stroke-width="1" opacity="0.9254901960784314" d="M 122.5 75 L 124 75.5 L 119.5 78 L 120.5 76 L 122.5 75 Z " /><path fill="rgb(22,19,19)" stroke="rgb(22,19,19)" stroke-width="1" opacity="0.9254901960784314" d="M 178.5 75 L 181 76.5 Q 182.5 80.9 179.5 80 L 180 78.5 Q 181.1 75.2 178.5 76 L 178.5 75 Z " /><path fill="rgb(22,19,19)" stroke="rgb(22,19,19)" stroke-width="1" opacity="0.9254901960784314" d="M 101.5 76 L 99.5 79 L 97 80.5 L 93.5 85 L 86 78.5 L 92.5 84 L 96 81.5 L 98.5 78 L 101.5 76 Z " /><path fill="rgb(22,19,19)" stroke="rgb(22,19,19)" stroke-width="1" opacity="0.9254901960784314" d="M 175.5 76 L 177 76.5 L 175 77 Q 173.8 80 177.5 79 L 177.5 80 Q 173.8 80.8 173 78.5 Q 172.3 76.3 174.5 77 L 175.5 76 Z " /><path fill="rgb(22,19,19)" stroke="rgb(22,19,19)" stroke-width="1" opacity="0.9254901960784314" d="M 41.5 77 L 44.5 81 L 41.5 77 Z " /><path fill="rgb(22,19,19)" stroke="rgb(22,19,19)" stroke-width="1" opacity="0.9254901960784314" d="M 105.5 78 L 104.5 80 L 98.5 85 L 103.5 79 L 105.5 78 Z " /><path fill="rgb(22,19,19)" stroke="rgb(22,19,19)" stroke-width="1" opacity="0.9254901960784314" d="M 125.5 78 L 127 80.5 L 125 81 L 125.5 78 Z " /><path fill="rgb(22,19,19)" stroke="rgb(22,19,19)" stroke-width="1" opacity="0.9254901960784314" d="M 76.5 79 L 79 79.5 L 76.5 80 L 76.5 79 Z " /><path fill="rgb(22,19,19)" stroke="rgb(22,19,19)" stroke-width="1" opacity="0.9254901960784314" d="M 82.5 79 L 84.5 82 L 82.5 79 Z " /><path fill="rgb(22,19,19)" stroke="rgb(22,19,19)" stroke-width="1" opacity="0.9254901960784314" d="M 73.5 80 L 75 80.5 L 73 81 L 72.5 83 L 72 81.5 L 73.5 80 Z " /><path fill="rgb(22,19,19)" stroke="rgb(22,19,19)" stroke-width="1" opacity="0.9254901960784314" d="M 169.5 80 L 170 81.5 L 167.5 83 L 167.5 82 Q 170 82.7 169.5 80 Z " /><path fill="rgb(22,19,19)" stroke="rgb(22,19,19)" stroke-width="1" opacity="0.9254901960784314" d="M 46.5 81 L 49.5 85 L 46.5 81 Z " /><path fill="rgb(22,19,19)" stroke="rgb(22,19,19)" stroke-width="1" opacity="0.9254901960784314" d="M 111.5 81 L 110.5 83 L 111.5 81 Z " /><path fill="rgb(22,19,19)" stroke="rgb(22,19,19)" stroke-width="1" opacity="0.9254901960784314" d="M 130.5 82 L 137 85.5 L 135.5 85 L 130.5 83 L 130.5 82 Z " /><path fill="rgb(22,19,19)" stroke="rgb(22,19,19)" stroke-width="1" opacity="0.9254901960784314" d="M 108.5 83 L 105.5 87 L 108.5 83 Z " /><path fill="rgb(22,19,19)" stroke="rgb(22,19,19)" stroke-width="1" opacity="0.9254901960784314" d="M 116.5 83 L 120 83.5 L 116.5 84 L 116.5 83 Z " /><path fill="rgb(22,19,19)" stroke="rgb(22,19,19)" stroke-width="1" opacity="0.9254901960784314" d="M 163.5 83 L 166 83.5 L 161.5 85 L 161.5 84 L 163.5 83 Z " /><path fill="rgb(22,19,19)" stroke="rgb(22,19,19)" stroke-width="1" opacity="0.9254901960784314" d="M 73.5 84 L 74.5 86 L 73.5 84 Z " /><path fill="rgb(22,19,19)" stroke="rgb(22,19,19)" stroke-width="1" opacity="0.9254901960784314" d="M 114.5 84 L 113.5 86 L 108 90.5 L 106.5 94 L 106 92.5 L 112.5 85 L 114.5 84 Z " /><path fill="rgb(22,19,19)" stroke="rgb(22,19,19)" stroke-width="1" opacity="0.9254901960784314" d="M 123.5 84 Q 130.4 84.6 134 88.5 L 132.5 88 L 123.5 85 L 123.5 84 Z " /><path fill="rgb(22,19,19)" stroke="rgb(22,19,19)" stroke-width="1" opacity="0.9254901960784314" d="M 173.5 84 L 178 84.5 L 174.5 86 Q 173.3 83.8 172 86.5 L 172.5 88 Q 169 86 173.5 84 Z " /><path fill="rgb(22,19,19)" stroke="rgb(22,19,19)" stroke-width="1" opacity="0.9254901960784314" d="M 51.5 85 L 54.5 89 L 51.5 85 Z " /><path fill="rgb(22,19,19)" stroke="rgb(22,19,19)" stroke-width="1" opacity="0.9254901960784314" d="M 88.5 86 L 90.5 89 L 88.5 86 Z " /><path fill="rgb(22,19,19)" stroke="rgb(22,19,19)" stroke-width="1" opacity="0.9254901960784314" d="M 138.5 86 L 139.5 88 L 138.5 86 Z " /><path fill="rgb(22,19,19)" stroke="rgb(22,19,19)" stroke-width="1" opacity="0.9254901960784314" d="M 75.5 87 L 76.5 89 L 75.5 87 Z " /><path fill="rgb(22,19,19)" stroke="rgb(22,19,19)" stroke-width="1" opacity="0.9254901960784314" d="M 104.5 88 L 103.5 90 L 104.5 88 Z " /><path fill="rgb(22,19,19)" stroke="rgb(22,19,19)" stroke-width="1" opacity="0.9254901960784314" d="M 32.5 89 L 31.5 91 L 25.5 93 L 25.5 92 L 32.5 89 Z " /><path fill="rgb(22,19,19)" stroke="rgb(22,19,19)" stroke-width="1" opacity="0.9254901960784314" d="M 44.5 89 Q 50 88.5 52 91.5 L 50.5 92 L 44.5 90 L 44.5 89 Z " /><path fill="rgb(22,19,19)" stroke="rgb(22,19,19)" stroke-width="1" opacity="0.9254901960784314" d="M 135.5 89 L 137.5 92 L 135.5 89 Z " /><path fill="rgb(22,19,19)" stroke="rgb(22,19,19)" stroke-width="1" opacity="0.9254901960784314" d="M 150.5 89 L 148.5 92 L 144.5 93 L 142.5 90 L 146.5 92 L 150.5 89 Z " /><path fill="rgb(22,19,19)" stroke="rgb(22,19,19)" stroke-width="1" opacity="0.9254901960784314" d="M 160.5 89 L 166 89.5 L 160 90 L 159.5 93 L 159 90.5 L 160.5 89 Z " /><path fill="rgb(22,19,19)" stroke="rgb(22,19,19)" stroke-width="1" opacity="0.9254901960784314" d="M 176.5 89 L 181 92.5 L 178.5 91 L 176.5 89 Z " /><path fill="rgb(22,19,19)" stroke="rgb(22,19,19)" stroke-width="1" opacity="0.9254901960784314" d="M 59.5 90 L 69 90.5 L 62.5 92 L 59.5 91 L 59.5 90 Z " /><path fill="rgb(22,19,19)" stroke="rgb(22,19,19)" stroke-width="1" opacity="0.9254901960784314" d="M 77.5 90 L 78.5 92 L 77.5 90 Z " /><path fill="rgb(22,19,19)" stroke="rgb(22,19,19)" stroke-width="1" opacity="0.9254901960784314" d="M 172.5 91 L 177 94.5 L 176.5 96 L 174.5 93 L 172.5 91 Z " /><path fill="rgb(22,19,19)" stroke="rgb(22,19,19)" stroke-width="1" opacity="0.9254901960784314" d="M 38.5 92 Q 48 92 53 96.5 L 51.5 96 L 38.5 93 L 26.5 97 L 20 102.5 L 15 111.5 L 14.5 116 L 14 111.5 Q 17.2 102.2 24.5 97 L 38.5 92 Z " /><path fill="rgb(22,19,19)" stroke="rgb(22,19,19)" stroke-width="1" opacity="0.9254901960784314" d="M 74.5 92 L 76 95.5 L 75 95.5 L 74.5 92 Z " /><path fill="rgb(22,19,19)" stroke="rgb(22,19,19)" stroke-width="1" opacity="0.9254901960784314" d="M 94.5 92 L 95 94 L 101.5 93 L 100.5 95 Q 95.3 96.3 94 93.5 L 94.5 92 Z " /><path fill="rgb(22,19,19)" stroke="rgb(22,19,19)" stroke-width="1" opacity="0.9254901960784314" d="M 23.5 93 L 22.5 95 L 23.5 93 Z " /><path fill="rgb(22,19,19)" stroke="rgb(22,19,19)" stroke-width="1" opacity="0.9254901960784314" d="M 79.5 93 L 80.5 95 L 79.5 93 Z " /><path fill="rgb(22,19,19)" stroke="rgb(22,19,19)" stroke-width="1" opacity="0.9254901960784314" d="M 152.5 93 L 156 94.5 L 159 104.5 L 158 104.5 L 155 94 Q 150.5 92.3 152 97.5 L 159 120 Q 163.9 121.8 162 115.5 L 160 109.5 L 161 109.5 L 164 119.5 Q 163.3 121.8 159.5 121 L 152 101.5 L 151 94.5 L 152.5 93 Z " /><path fill="rgb(22,19,19)" stroke="rgb(22,19,19)" stroke-width="1" opacity="0.9254901960784314" d="M 57.5 94 L 63.5 100 L 66 100.5 L 63.5 101 L 57.5 94 Z " /><path fill="rgb(22,19,19)" stroke="rgb(22,19,19)" stroke-width="1" opacity="0.9254901960784314" d="M 160.5 94 L 161 96.5 L 160 96.5 L 160.5 94 Z " /><path fill="rgb(22,19,19)" stroke="rgb(22,19,19)" stroke-width="1" opacity="0.9254901960784314" d="M 20.5 95 L 17.5 99 L 20.5 95 Z " /><path fill="rgb(22,19,19)" stroke="rgb(22,19,19)" stroke-width="1" opacity="0.9254901960784314" d="M 105.5 95 L 106 96.5 L 105 100.5 L 105.5 102 Q 103.3 101.3 104 97.5 L 105.5 95 Z " /><path fill="rgb(22,19,19)" stroke="rgb(22,19,19)" stroke-width="1" opacity="0.9254901960784314" d="M 141.5 95 Q 144.3 96.3 142 97.5 L 140.5 100 L 141 98.5 L 142 96.5 L 141.5 95 Z " /><path fill="rgb(22,19,19)" stroke="rgb(22,19,19)" stroke-width="1" opacity="0.9254901960784314" d="M 72.5 96 L 74 96.5 L 67.5 100 L 67.5 99 L 72.5 96 Z " /><path fill="rgb(22,19,19)" stroke="rgb(22,19,19)" stroke-width="1" opacity="0.9254901960784314" d="M 54.5 97 L 59 100.5 L 57.5 104 L 52.5 105 L 44 100.5 L 46.5 100 L 52.5 104 L 55.5 104 L 58 103 Q 59.5 99.3 56.5 100 L 54.5 97 Z " /><path fill="rgb(22,19,19)" stroke="rgb(22,19,19)" stroke-width="1" opacity="0.9254901960784314" d="M 76.5 98 L 79 98.5 L 75.5 100 L 76.5 98 Z " /><path fill="rgb(22,19,19)" stroke="rgb(22,19,19)" stroke-width="1" opacity="0.9254901960784314" d="M 95.5 98 Q 99.3 97.3 100 99.5 L 99.5 101 L 99 99 Q 91.4 99.2 88 104.5 L 86.5 109 L 86 106.5 L 91.5 100 L 95.5 98 Z " /><path fill="rgb(22,19,19)" stroke="rgb(22,19,19)" stroke-width="1" opacity="0.9254901960784314" d="M 167.5 98 L 169 98.5 L 164.5 100 L 164.5 99 L 167.5 98 Z " /><path fill="rgb(22,19,19)" stroke="rgb(22,19,19)" stroke-width="1" opacity="0.9254901960784314" d="M 37.5 99 L 43 99.5 L 37.5 100 L 37.5 99 Z " /><path fill="rgb(22,19,19)" stroke="rgb(22,19,19)" stroke-width="1" opacity="0.9254901960784314" d="M 146.5 99 Q 149 100 148 104.5 Q 140.8 108.8 141 120.5 L 142 125.5 L 145 129.5 L 142 127.5 L 139.5 115 L 137 122.5 L 137 129.5 L 144.5 139 L 153.5 144 L 167.5 144 L 171.5 142 L 171.5 143 L 167.5 145 Q 162 143.5 160.5 146 Q 159 143.5 153.5 145 L 145.5 141 L 139 134.5 Q 134.5 131 136 121.5 L 141 106.5 L 146.5 99 Z M 147 100 L 142 108 L 143 109 L 147 104 L 147 100 Z M 141 112 L 140 115 L 141 115 L 141 112 Z " /><path fill="rgb(22,19,19)" stroke="rgb(22,19,19)" stroke-width="1" opacity="0.9254901960784314" d="M 16.5 100 L 15 102.5 L 12.5 106 L 14 103.5 L 16.5 100 Z " /><path fill="rgb(22,19,19)" stroke="rgb(22,19,19)" stroke-width="1" opacity="0.9254901960784314" d="M 174.5 100 L 178.5 100 L 183 104.5 L 185 109.5 L 184 109.5 L 178.5 101 Q 173.8 100.3 172 102.5 L 178 109.5 L 179 114.5 L 178 114.5 L 177 109.5 L 171 102.5 L 174.5 100 Z " /><path fill="rgb(22,19,19)" stroke="rgb(22,19,19)" stroke-width="1" opacity="0.9254901960784314" d="M 183.5 100 L 185.5 103 L 183.5 100 Z " /><path fill="rgb(22,19,19)" stroke="rgb(22,19,19)" stroke-width="1" opacity="0.9254901960784314" d="M 139.5 101 L 139 102.5 L 137.5 106 L 137 104.5 L 139.5 101 Z " /><path fill="rgb(22,19,19)" stroke="rgb(22,19,19)" stroke-width="1" opacity="0.9254901960784314" d="M 29.5 102 L 28.5 104 L 24 107.5 L 20.5 116 L 20 113.5 Q 21.8 106.3 27.5 103 L 29.5 102 Z " /><path fill="rgb(22,19,19)" stroke="rgb(22,19,19)" stroke-width="1" opacity="0.9254901960784314" d="M 68.5 102 L 70 102.5 L 67.5 104 L 68.5 102 Z " /><path fill="rgb(22,19,19)" stroke="rgb(22,19,19)" stroke-width="1" opacity="0.9254901960784314" d="M 37.5 103 L 40 103.5 L 37.5 104 L 37.5 103 Z " /><path fill="rgb(22,19,19)" stroke="rgb(22,19,19)" stroke-width="1" opacity="0.9254901960784314" d="M 81.5 103 L 83 105.5 L 82 105.5 L 81.5 103 Z " /><path fill="rgb(22,19,19)" stroke="rgb(22,19,19)" stroke-width="1" opacity="0.9254901960784314" d="M 100.5 103 L 106 107.5 L 103.5 106 L 100.5 103 Z " /><path fill="rgb(22,19,19)" stroke="rgb(22,19,19)" stroke-width="1" opacity="0.9254901960784314" d="M 34.5 104 L 33.5 106 L 31.5 106 L 26.5 111 L 31.5 105 L 34.5 104 Z " /><path fill="rgb(22,19,19)" stroke="rgb(22,19,19)" stroke-width="1" opacity="0.9254901960784314" d="M 44.5 104 L 49 106.5 Q 50.1 109.8 47.5 109 L 40.5 113 L 41.5 111 L 48 107.5 Q 48.8 104.9 45.5 106 L 44.5 104 Z " /><path fill="rgb(22,19,19)" stroke="rgb(22,19,19)" stroke-width="1" opacity="0.9254901960784314" d="M 64.5 104 L 66 104.5 L 62.5 106 L 62.5 105 L 64.5 104 Z " /><path fill="rgb(22,19,19)" stroke="rgb(22,19,19)" stroke-width="1" opacity="0.9254901960784314" d="M 164.5 104 Q 171.7 104.8 174 110.5 L 168.5 106 L 164 105 L 166 112.5 L 165 112.5 L 163 105.5 L 164.5 104 Z " /><path fill="rgb(22,19,19)" stroke="rgb(22,19,19)" stroke-width="1" opacity="0.9254901960784314" d="M 186.5 104 L 187.5 106 L 186.5 104 Z " /><path fill="rgb(22,19,19)" stroke="rgb(22,19,19)" stroke-width="1" opacity="0.9254901960784314" d="M 109.5 105 L 116 110.5 L 114.5 110 L 109.5 105 Z " /><path fill="rgb(22,19,19)" stroke="rgb(22,19,19)" stroke-width="1" opacity="0.9254901960784314" d="M 81.5 107 L 82 114.5 L 79.5 116 L 79.5 115 L 81 114.5 L 81.5 107 Z " /><path fill="rgb(22,19,19)" stroke="rgb(22,19,19)" stroke-width="1" opacity="0.9254901960784314" d="M 136.5 107 L 137 108.5 L 134.5 113 L 135 111.5 L 136.5 107 Z " /><path fill="rgb(22,19,19)" stroke="rgb(22,19,19)" stroke-width="1" opacity="0.9254901960784314" d="M 49.5 111 L 51 111.5 L 48.5 113 L 49.5 111 Z " /><path fill="rgb(22,19,19)" stroke="rgb(22,19,19)" stroke-width="1" opacity="0.9254901960784314" d="M 117.5 111 L 121 112.5 L 119.5 113 L 117.5 111 Z " /><path fill="rgb(22,19,19)" stroke="rgb(22,19,19)" stroke-width="1" opacity="0.9254901960784314" d="M 185.5 111 L 186 113.5 L 185 113.5 L 185.5 111 Z " /><path fill="rgb(22,19,19)" stroke="rgb(22,19,19)" stroke-width="1" opacity="0.9254901960784314" d="M 189.5 111 L 191 115 Q 187.2 116.2 189.5 111 Z " /><path fill="rgb(22,19,19)" stroke="rgb(22,19,19)" stroke-width="1" opacity="0.9254901960784314" d="M 25.5 112 L 26 114.5 L 24.5 117 L 24 114.5 L 25.5 112 Z " /><path fill="rgb(22,19,19)" stroke="rgb(22,19,19)" stroke-width="1" opacity="0.9254901960784314" d="M 146.5 112 L 147 113.5 L 145 114.5 L 146.5 112 Z " /><path fill="rgb(22,19,19)" stroke="rgb(22,19,19)" stroke-width="1" opacity="0.9254901960784314" d="M 174.5 112 L 176 114.5 L 174 113.5 L 174.5 112 Z " /><path fill="rgb(22,19,19)" stroke="rgb(22,19,19)" stroke-width="1" opacity="0.9254901960784314" d="M 45.5 113 L 47 113.5 L 41.5 116 L 41.5 115 L 45.5 113 Z " /><path fill="rgb(22,19,19)" stroke="rgb(22,19,19)" stroke-width="1" opacity="0.9254901960784314" d="M 86.5 113 L 87 115 Q 94.7 113.5 96.5 119 L 102.5 119 L 106 116.5 Q 104.5 121.5 96.5 120 L 91.5 116 Q 87 117 86 114.5 L 86.5 113 Z " /><path fill="rgb(22,19,19)" stroke="rgb(22,19,19)" stroke-width="1" opacity="0.9254901960784314" d="M 36.5 114 L 34 117.5 L 35 122 L 37 122.5 L 35.5 123 L 33 117.5 L 34 115 L 36.5 114 Z " /><path fill="rgb(22,19,19)" stroke="rgb(22,19,19)" stroke-width="1" opacity="0.9254901960784314" d="M 111.5 114 L 114 114.5 L 111.5 115 L 111.5 114 Z " /><path fill="rgb(22,19,19)" stroke="rgb(22,19,19)" stroke-width="1" opacity="0.9254901960784314" d="M 126.5 114 L 134 114.5 L 126.5 115 L 126.5 114 Z " /><path fill="rgb(22,19,19)" stroke="rgb(22,19,19)" stroke-width="1" opacity="0.9254901960784314" d="M 115.5 115 L 119 116.5 L 117.5 117 L 115.5 115 Z " /><path fill="rgb(22,19,19)" stroke="rgb(22,19,19)" stroke-width="1" opacity="0.9254901960784314" d="M 9.5 116 L 10 121.5 L 9 121.5 L 9.5 116 Z " /><path fill="rgb(22,19,19)" stroke="rgb(22,19,19)" stroke-width="1" opacity="0.9254901960784314" d="M 71.5 116 L 69.5 119 L 67 118.5 L 71.5 116 Z " /><path fill="rgb(22,19,19)" stroke="rgb(22,19,19)" stroke-width="1" opacity="0.9254901960784314" d="M 110.5 116 L 111 117.5 L 108 119.5 L 110.5 116 Z " /><path fill="rgb(22,19,19)" stroke="rgb(22,19,19)" stroke-width="1" opacity="0.9254901960784314" d="M 145.5 116 L 146 121.5 L 145 121.5 L 145.5 116 Z " /><path fill="rgb(22,19,19)" stroke="rgb(22,19,19)" stroke-width="1" opacity="0.9254901960784314" d="M 153.5 116 L 157.5 124 Q 159.8 123.3 159 125.5 L 154 121.5 L 153.5 116 Z " /><path fill="rgb(22,19,19)" stroke="rgb(22,19,19)" stroke-width="1" opacity="0.9254901960784314" d="M 186.5 116 L 187 121.5 L 186 121.5 L 186.5 116 Z " /><path fill="rgb(22,19,19)" stroke="rgb(22,19,19)" stroke-width="1" opacity="0.9254901960784314" d="M 13.5 117 L 14 120.5 L 13 120.5 L 13.5 117 Z " /><path fill="rgb(22,19,19)" stroke="rgb(22,19,19)" stroke-width="1" opacity="0.9254901960784314" d="M 38.5 117 L 38.5 120 Q 36.3 120.8 37 118.5 L 38.5 117 Z " /><path fill="rgb(22,19,19)" stroke="rgb(22,19,19)" stroke-width="1" opacity="0.9254901960784314" d="M 167.5 117 L 168 120.5 L 167 120.5 L 167.5 117 Z " /><path fill="rgb(22,19,19)" stroke="rgb(22,19,19)" stroke-width="1" opacity="0.9254901960784314" d="M 124.5 118 Q 131.3 116.3 133 119.5 L 132.5 123 L 132 119 L 124.5 119 L 124.5 118 Z " /><path fill="rgb(22,19,19)" stroke="rgb(22,19,19)" stroke-width="1" opacity="0.9254901960784314" d="M 46.5 119 L 56 119.5 L 46.5 120 L 46.5 119 Z " /><path fill="rgb(22,19,19)" stroke="rgb(22,19,19)" stroke-width="1" opacity="0.9254901960784314" d="M 76.5 119 L 89.5 119 Q 91.8 122.8 97 123.5 L 94.5 124 L 89.5 120 L 76 120 L 75.5 122 L 75 120.5 L 76.5 119 Z " /><path fill="rgb(22,19,19)" stroke="rgb(22,19,19)" stroke-width="1" opacity="0.9254901960784314" d="M 24.5 121 L 27 126.5 L 25 125.5 L 24.5 121 Z " /><path fill="rgb(22,19,19)" stroke="rgb(22,19,19)" stroke-width="1" opacity="0.9254901960784314" d="M 14.5 122 L 15 125.5 L 14 125.5 L 14.5 122 Z " /><path fill="rgb(22,19,19)" stroke="rgb(22,19,19)" stroke-width="1" opacity="0.9254901960784314" d="M 51.5 122 L 54 123.5 L 53.5 125 L 53 123 L 51.5 122 Z " /><path fill="rgb(22,19,19)" stroke="rgb(22,19,19)" stroke-width="1" opacity="0.9254901960784314" d="M 62.5 122 L 65 123.5 L 63.5 123 L 62.5 122 Z " /><path fill="rgb(22,19,19)" stroke="rgb(22,19,19)" stroke-width="1" opacity="0.9254901960784314" d="M 69 122 L 73 123.5 L 71.5 123 Q 69.3 122.3 70 124.5 L 69 124.5 L 69 122 Z " /><path fill="rgb(22,19,19)" stroke="rgb(22,19,19)" stroke-width="1" opacity="0.9254901960784314" d="M 166.5 122 L 165.5 124 L 166.5 122 Z " /><path fill="rgb(22,19,19)" stroke="rgb(22,19,19)" stroke-width="1" opacity="0.9254901960784314" d="M 190.5 122 L 191 124.5 L 189.5 127 L 189 123.5 L 190.5 122 Z " /><path fill="rgb(22,19,19)" stroke="rgb(22,19,19)" stroke-width="1" opacity="0.9254901960784314" d="M 10.5 123 L 11 125.5 L 10 125.5 L 10.5 123 Z " /><path fill="rgb(22,19,19)" stroke="rgb(22,19,19)" stroke-width="1" opacity="0.9254901960784314" d="M 58 123 L 60 123.5 L 55.5 130 L 56 128.5 L 58 123 Z " /><path fill="rgb(22,19,19)" stroke="rgb(22,19,19)" stroke-width="1" opacity="0.9254901960784314" d="M 76.5 123 L 78.5 126 L 76.5 123 Z " /><path fill="rgb(22,19,19)" stroke="rgb(22,19,19)" stroke-width="1" opacity="0.9254901960784314" d="M 175.5 124 Q 180.1 122.7 178 128.5 L 173.5 134 L 167.5 137 L 167.5 136 Q 173.6 134.6 176 129.5 L 177 125 L 173.5 127 L 175.5 124 Z " /><path fill="rgb(22,19,19)" stroke="rgb(22,19,19)" stroke-width="1" opacity="0.9254901960784314" d="M 185.5 124 L 186 126.5 L 185 126.5 L 185.5 124 Z " /><path fill="rgb(22,19,19)" stroke="rgb(22,19,19)" stroke-width="1" opacity="0.9254901960784314" d="M 21.5 125 Q 23.7 131.8 29.5 135 L 33 136.5 L 31.5 137 L 23 130.5 L 21.5 125 Z " /><path fill="rgb(22,19,19)" stroke="rgb(22,19,19)" stroke-width="1" opacity="0.9254901960784314" d="M 64.5 125 L 65 127.5 Q 61.8 136.3 54.5 141 L 52.5 142 L 53.5 140 L 61 133.5 L 64.5 125 Z " /><path fill="rgb(22,19,19)" stroke="rgb(22,19,19)" stroke-width="1" opacity="0.9254901960784314" d="M 15.5 127 L 20 136 L 28.5 142 L 34.5 144 L 46.5 144 L 50.5 142 L 49.5 144 L 39.5 146 L 28.5 143 L 19 135.5 L 15 128.5 L 15.5 127 Z " /><path fill="rgb(22,19,19)" stroke="rgb(22,19,19)" stroke-width="1" opacity="0.9254901960784314" d="M 52.5 127 L 47.5 133 L 44.5 134 L 44.5 133 Q 50.3 131.7 52.5 127 Z " /><path fill="rgb(22,19,19)" stroke="rgb(22,19,19)" stroke-width="1" opacity="0.9254901960784314" d="M 74.5 127 L 76.5 130 L 74.5 127 Z " /><path fill="rgb(22,19,19)" stroke="rgb(22,19,19)" stroke-width="1" opacity="0.9254901960784314" d="M 79.5 127 L 80.5 129 L 79.5 127 Z " /><path fill="rgb(22,19,19)" stroke="rgb(22,19,19)" stroke-width="1" opacity="0.9254901960784314" d="M 147.5 127 L 156 133.5 L 154.5 134 L 147.5 127 Z " /><path fill="rgb(22,19,19)" stroke="rgb(22,19,19)" stroke-width="1" opacity="0.9254901960784314" d="M 172.5 128 L 168.5 133 L 167 132.5 L 172.5 128 Z " /><path fill="rgb(22,19,19)" stroke="rgb(22,19,19)" stroke-width="1" opacity="0.9254901960784314" d="M 28.5 129 L 33 132.5 L 31.5 133 L 28.5 129 Z " /><path fill="rgb(22,19,19)" stroke="rgb(22,19,19)" stroke-width="1" opacity="0.9254901960784314" d="M 81.5 130 L 82.5 132 L 81.5 130 Z " /><path fill="rgb(22,19,19)" stroke="rgb(22,19,19)" stroke-width="1" opacity="0.9254901960784314" d="M 130.5 130 L 131 133.5 L 130 133.5 L 130.5 130 Z " /><path fill="rgb(22,19,19)" stroke="rgb(22,19,19)" stroke-width="1" opacity="0.9254901960784314" d="M 183.5 130 L 184 131.5 L 175.5 141 L 173.5 142 L 174.5 140 L 181 134.5 L 183.5 130 Z " /><path fill="rgb(22,19,19)" stroke="rgb(22,19,19)" stroke-width="1" opacity="0.9254901960784314" d="M 54.5 131 L 51.5 135 L 49.5 136 L 50.5 134 L 54.5 131 Z " /><path fill="rgb(22,19,19)" stroke="rgb(22,19,19)" stroke-width="1" opacity="0.9254901960784314" d="M 66.5 131 L 67 132.5 L 58.5 143 L 52.5 147 L 47.5 148 L 47.5 147 L 52.5 146 L 63 137.5 L 66.5 131 Z " /><path fill="rgb(22,19,19)" stroke="rgb(22,19,19)" stroke-width="1" opacity="0.9254901960784314" d="M 77.5 131 L 78.5 133 L 77.5 131 Z " /><path fill="rgb(22,19,19)" stroke="rgb(22,19,19)" stroke-width="1" opacity="0.9254901960784314" d="M 145.5 131 L 148.5 135 L 145.5 131 Z " /><path fill="rgb(22,19,19)" stroke="rgb(22,19,19)" stroke-width="1" opacity="0.9254901960784314" d="M 13.5 133 L 19 139.5 L 14 135.5 L 13.5 133 Z " /><path fill="rgb(22,19,19)" stroke="rgb(22,19,19)" stroke-width="1" opacity="0.9254901960784314" d="M 83.5 133 L 85.5 135 L 103.5 135 L 105 136.5 L 103.5 140 L 102 139.5 L 104 136 L 85.5 136 L 83.5 133 Z " /><path fill="rgb(22,19,19)" stroke="rgb(22,19,19)" stroke-width="1" opacity="0.9254901960784314" d="M 79.5 134 L 80.5 136 L 79.5 134 Z " /><path fill="rgb(22,19,19)" stroke="rgb(22,19,19)" stroke-width="1" opacity="0.9254901960784314" d="M 115.5 135 L 130 135.5 L 115.5 136 L 114 137.5 L 115.5 140 Q 113.3 140.8 114 138.5 L 113 136 L 115.5 135 Z " /><path fill="rgb(22,19,19)" stroke="rgb(22,19,19)" stroke-width="1" opacity="0.9254901960784314" d="M 185.5 135 L 185 136.5 Q 185.8 138.8 183.5 138 L 180 140.5 L 185.5 135 Z " /><path fill="rgb(22,19,19)" stroke="rgb(22,19,19)" stroke-width="1" opacity="0.9254901960784314" d="M 136.5 136 L 142 142.5 L 136 137.5 L 136.5 136 Z " /><path fill="rgb(22,19,19)" stroke="rgb(22,19,19)" stroke-width="1" opacity="0.9254901960784314" d="M 43.5 137 L 46 137.5 Q 43.3 139.8 37.5 139 L 37.5 138 Q 42.2 139.3 43.5 137 Z " /><path fill="rgb(22,19,19)" stroke="rgb(22,19,19)" stroke-width="1" opacity="0.9254901960784314" d="M 81.5 137 L 85 139.5 L 83.5 140 L 81.5 137 Z " /><path fill="rgb(22,19,19)" stroke="rgb(22,19,19)" stroke-width="1" opacity="0.9254901960784314" d="M 133.5 137 L 131.5 140 L 130 139.5 L 133.5 137 Z " /><path fill="rgb(22,19,19)" stroke="rgb(22,19,19)" stroke-width="1" opacity="0.9254901960784314" d="M 157.5 138 L 163 138.5 L 157.5 139 L 157.5 138 Z " /><path fill="rgb(22,19,19)" stroke="rgb(22,19,19)" stroke-width="1" opacity="0.9254901960784314" d="M 21.5 142 Q 24.9 146.6 32 147.5 L 29.5 148 Q 22.6 146 21.5 142 Z " /><path fill="rgb(22,19,19)" stroke="rgb(22,19,19)" stroke-width="1" opacity="0.9254901960784314" d="M 178.5 142 L 177.5 144 L 168.5 148 L 168.5 147 L 178.5 142 Z " /><path fill="rgb(22,19,19)" stroke="rgb(22,19,19)" stroke-width="1" opacity="0.9254901960784314" d="M 143.5 143 Q 146.8 146.8 153 147.5 L 150.5 148 Q 144.3 146.6 143.5 143 Z " /><path fill="rgb(149,85,57)" stroke="rgb(149,85,57)" stroke-width="1" opacity="0.996078431372549" d="M 161.5 45 L 164.5 49 L 161.5 45 Z " /><path fill="rgb(149,85,57)" stroke="rgb(149,85,57)" stroke-width="1" opacity="0.996078431372549" d="M 154.5 49 L 164.5 61 L 167 61.5 L 164.5 62 L 160 58.5 L 155.5 52 Q 156 64.5 148.5 69 L 128 79.5 L 128.5 81 L 126 79.5 Q 125.3 77.3 127.5 78 L 145.5 70 L 153 62.5 L 154.5 49 Z " /><path fill="rgb(149,85,57)" stroke="rgb(149,85,57)" stroke-width="1" opacity="0.996078431372549" d="M 20.5 52 L 22 52.5 L 20 53 L 20 55.5 L 31.5 68 L 33 68.5 L 31.5 69 L 28 66.5 L 18 53.5 L 20.5 52 Z " /><path fill="rgb(149,85,57)" stroke="rgb(149,85,57)" stroke-width="1" opacity="0.996078431372549" d="M 167.5 52 L 170.5 56 L 167.5 52 Z " /><path fill="rgb(149,85,57)" stroke="rgb(149,85,57)" stroke-width="1" opacity="0.996078431372549" d="M 24.5 53 L 30.5 56 L 42 66.5 Q 42.8 68.8 40.5 68 L 39.5 65 L 26.5 54 L 24.5 54 L 24.5 53 Z " /><path fill="rgb(149,85,57)" stroke="rgb(149,85,57)" stroke-width="1" opacity="0.996078431372549" d="M 93.5 54 L 100 54.5 L 93.5 55 L 93.5 54 Z " /><path fill="rgb(149,85,57)" stroke="rgb(149,85,57)" stroke-width="1" opacity="0.996078431372549" d="M 89.5 55 L 92 55.5 L 80 63.5 L 78 66.5 L 92.5 83 Q 94.8 83.8 94 81.5 L 101.5 75 L 99.5 78 L 96 80.5 L 93.5 84 L 86 77.5 L 77 66.5 L 84.5 58 L 89.5 55 Z " /><path fill="rgb(149,85,57)" stroke="rgb(149,85,57)" stroke-width="1" opacity="0.996078431372549" d="M 102.5 55 L 105 55.5 L 102.5 56 L 102.5 55 Z " /><path fill="rgb(149,85,57)" stroke="rgb(149,85,57)" stroke-width="1" opacity="0.996078431372549" d="M 106.5 56 L 109 56.5 L 106.5 57 L 106.5 56 Z " /><path fill="rgb(149,85,57)" stroke="rgb(149,85,57)" stroke-width="1" opacity="0.996078431372549" d="M 110.5 57 Q 116 56.5 118 59.5 L 116.5 60 L 110.5 58 L 110.5 57 Z " /><path fill="rgb(149,85,57)" stroke="rgb(149,85,57)" stroke-width="1" opacity="0.996078431372549" d="M 119.5 60 L 125 62 Q 126.5 65.8 123.5 65 L 117.5 68 L 118.5 66 L 124 63.5 L 119.5 61 L 119.5 60 Z " /><path fill="rgb(149,85,57)" stroke="rgb(149,85,57)" stroke-width="1" opacity="0.996078431372549" d="M 168.5 62 Q 174.5 60.5 176 63.5 L 178 71 Q 171.9 71.3 169 75.5 L 168.5 77 L 168 75.5 Q 171.1 70.9 177 70 L 175 63 L 168.5 63 L 168.5 62 Z " /><path fill="rgb(149,85,57)" stroke="rgb(149,85,57)" stroke-width="1" opacity="0.996078431372549" d="M 36.5 68 L 39 68.5 L 36.5 69 L 36.5 68 Z " /><path fill="rgb(149,85,57)" stroke="rgb(149,85,57)" stroke-width="1" opacity="0.996078431372549" d="M 112.5 69 L 114 69.5 L 103.5 75 L 103.5 74 L 112.5 69 Z " /><path fill="rgb(149,85,57)" stroke="rgb(149,85,57)" stroke-width="1" opacity="0.996078431372549" d="M 121.5 71 L 123 71.5 L 120.5 73 L 121.5 71 Z " /><path fill="rgb(149,85,57)" stroke="rgb(149,85,57)" stroke-width="1" opacity="0.996078431372549" d="M 128.5 71 L 127.5 73 L 128.5 71 Z " /><path fill="rgb(149,85,57)" stroke="rgb(149,85,57)" stroke-width="1" opacity="0.996078431372549" d="M 114.5 78 L 113.5 80 L 114.5 78 Z " /><path fill="rgb(149,85,57)" stroke="rgb(149,85,57)" stroke-width="1" opacity="0.996078431372549" d="M 168.5 79 L 169 82 L 167 81.5 L 168.5 79 Z " /><path fill="rgb(149,85,57)" stroke="rgb(149,85,57)" stroke-width="1" opacity="0.996078431372549" d="M 109.5 81 L 108.5 83 L 109.5 81 Z " /><path fill="rgb(149,85,57)" stroke="rgb(149,85,57)" stroke-width="1" opacity="0.996078431372549" d="M 130.5 81 L 137.5 84 L 146.5 91 Q 153.7 84.2 165.5 82 L 165.5 83 Q 153.5 85.5 145.5 92 Q 139.6 85.4 130.5 82 L 130.5 81 Z " /><path fill="rgb(149,85,57)" stroke="rgb(149,85,57)" stroke-width="1" opacity="0.996078431372549" d="M 101.5 82 L 100.5 84 L 101.5 82 Z " /><path fill="rgb(149,85,57)" stroke="rgb(149,85,57)" stroke-width="1" opacity="0.996078431372549" d="M 115.5 84 L 122.5 84 L 131 87.5 L 129.5 88 Q 125.4 84.1 116.5 85 L 111 88 L 106 99.5 L 112.5 107 L 124.5 113 L 134 113.5 L 124.5 114 Q 111.7 110.3 105 100.5 Q 105.8 90.3 112.5 86 L 115.5 84 Z " /><path fill="rgb(149,85,57)" stroke="rgb(149,85,57)" stroke-width="1" opacity="0.996078431372549" d="M 75.5 85 L 76.5 87 L 75.5 85 Z " /><path fill="rgb(149,85,57)" stroke="rgb(149,85,57)" stroke-width="1" opacity="0.996078431372549" d="M 86.5 85 L 88.5 88 L 86.5 85 Z " /><path fill="rgb(149,85,57)" stroke="rgb(149,85,57)" stroke-width="1" opacity="0.996078431372549" d="M 105.5 85 L 103.5 88 L 105.5 85 Z " /><path fill="rgb(149,85,57)" stroke="rgb(149,85,57)" stroke-width="1" opacity="0.996078431372549" d="M 77.5 88 L 78.5 90 L 77.5 88 Z " /><path fill="rgb(149,85,57)" stroke="rgb(149,85,57)" stroke-width="1" opacity="0.996078431372549" d="M 132.5 88 L 141 94.5 L 142 96.5 L 135.5 109 L 135 107.5 L 141 96.5 L 139 93 Q 133.7 91.9 132.5 88 Z " /><path fill="rgb(149,85,57)" stroke="rgb(149,85,57)" stroke-width="1" opacity="0.996078431372549" d="M 160 90 Q 171 88.6 176 94.5 L 173.5 96 L 173.5 95 L 175 94.5 Q 170 90.4 161 91 L 163.5 98 L 171.5 96 L 171.5 97 L 163.5 100 L 161 97.5 L 160 90 Z " /><path fill="rgb(149,85,57)" stroke="rgb(149,85,57)" stroke-width="1" opacity="0.996078431372549" d="M 96.5 93 L 101 93.5 L 96.5 94 L 96.5 93 Z " /><path fill="rgb(149,85,57)" stroke="rgb(149,85,57)" stroke-width="1" opacity="0.996078431372549" d="M 81.5 94 L 82.5 96 L 81.5 94 Z " /><path fill="rgb(149,85,57)" stroke="rgb(149,85,57)" stroke-width="1" opacity="0.996078431372549" d="M 86.5 97 L 85.5 99 L 84 98.5 L 86.5 97 Z " /><path fill="rgb(149,85,57)" stroke="rgb(149,85,57)" stroke-width="1" opacity="0.996078431372549" d="M 80.5 108 L 81 114.5 L 80 114.5 L 80.5 108 Z " /><path fill="rgb(149,85,57)" stroke="rgb(149,85,57)" stroke-width="1" opacity="0.996078431372549" d="M 111.5 115 L 112 117.5 L 108.5 122 L 108 120.5 L 111.5 115 Z " /><path fill="rgb(149,85,57)" stroke="rgb(149,85,57)" stroke-width="1" opacity="0.996078431372549" d="M 113.5 115 L 117 116.5 L 115.5 117 L 113.5 115 Z " /><path fill="rgb(149,85,57)" stroke="rgb(149,85,57)" stroke-width="1" opacity="0.996078431372549" d="M 41.5 116 L 41 117.5 Q 41.8 119.8 39.5 119 L 41.5 116 Z " /><path fill="rgb(149,85,57)" stroke="rgb(149,85,57)" stroke-width="1" opacity="0.996078431372549" d="M 65.5 117 L 69 117.5 L 65.5 118 L 65.5 117 Z " /><path fill="rgb(149,85,57)" stroke="rgb(149,85,57)" stroke-width="1" opacity="0.996078431372549" d="M 118.5 117 L 124 118.5 L 121.5 119 L 118.5 118 L 118.5 117 Z " /><path fill="rgb(149,85,57)" stroke="rgb(149,85,57)" stroke-width="1" opacity="0.996078431372549" d="M 42.5 118 L 56 118.5 L 42.5 119 L 42.5 118 Z " /><path fill="rgb(149,85,57)" stroke="rgb(149,85,57)" stroke-width="1" opacity="0.996078431372549" d="M 125.5 119 L 132 119 L 132 124.5 L 130 135 L 128 134.5 L 130 129.5 L 131 120 L 125.5 120 L 125.5 119 Z " /><path fill="rgb(149,85,57)" stroke="rgb(149,85,57)" stroke-width="1" opacity="0.996078431372549" d="M 76 120 L 89.5 120 Q 92.5 126 103.5 124 L 106.5 122 L 105.5 124 Q 102 126.5 94.5 125 L 89.5 121 L 77.5 121 L 78 122.5 L 85 134 L 92 134.5 L 85.5 135 L 76 122.5 L 76 120 Z " /><path fill="rgb(149,85,57)" stroke="rgb(149,85,57)" stroke-width="1" opacity="0.996078431372549" d="M 104.5 135 L 105.5 137 L 104.5 135 Z " /><path fill="rgb(238,87,89)" stroke="rgb(238,87,89)" stroke-width="1" opacity="0.996078431372549" d="M 20 53 L 26.5 54 L 41 66.5 L 39.5 68 L 33.5 69 L 25 61.5 L 20 55.5 L 20 53 Z " /><path fill="rgb(238,87,89)" stroke="rgb(238,87,89)" stroke-width="1" opacity="0.996078431372549" d="M 116.5 85 L 122.5 85 L 131.5 88 L 139 93 L 141 96.5 Q 135.1 102.9 134 113 L 124.5 113 L 111 105.5 L 106 99.5 L 106 97.5 L 111 88 L 116.5 85 Z " /><path fill="rgb(238,87,89)" stroke="rgb(238,87,89)" stroke-width="1" opacity="0.996078431372549" d="M 112.5 115 Q 119.7 120.1 131 120 L 130 129.5 L 127.5 135 L 113.5 135 Q 114.4 138.2 106.5 137 L 104.5 135 L 92.5 135 L 91.5 134 L 85 134 L 77 121.5 L 89.5 121 Q 92.5 127 103.5 125 L 111 119.5 L 112.5 115 Z " /><path fill="rgb(67,74,82)" stroke="rgb(67,74,82)" stroke-width="1" opacity="0.8745098039215686" d="M 159.5 36 L 166.5 44 L 159.5 36 Z " /><path fill="rgb(67,74,82)" stroke="rgb(67,74,82)" stroke-width="1" opacity="0.8745098039215686" d="M 149.5 39 L 148.5 41 L 149.5 39 Z " /><path fill="rgb(67,74,82)" stroke="rgb(67,74,82)" stroke-width="1" opacity="0.8745098039215686" d="M 156.5 40 L 162 44.5 L 157.5 41 L 156.5 40 Z " /><path fill="rgb(67,74,82)" stroke="rgb(67,74,82)" stroke-width="1" opacity="0.8745098039215686" d="M 157.5 44 L 158.5 46 L 157.5 44 Z " /><path fill="rgb(67,74,82)" stroke="rgb(67,74,82)" stroke-width="1" opacity="0.8745098039215686" d="M 168.5 46 L 177 55.5 L 173 52.5 L 168.5 46 Z " /><path fill="rgb(67,74,82)" stroke="rgb(67,74,82)" stroke-width="1" opacity="0.8745098039215686" d="M 138.5 47 L 139.5 49 L 138.5 47 Z " /><path fill="rgb(67,74,82)" stroke="rgb(67,74,82)" stroke-width="1" opacity="0.8745098039215686" d="M 14.5 48 L 13 50.5 L 12.5 54 L 12 50.5 L 14.5 48 Z " /><path fill="rgb(67,74,82)" stroke="rgb(67,74,82)" stroke-width="1" opacity="0.8745098039215686" d="M 29.5 49 L 30.5 51 L 29.5 49 Z " /><path fill="rgb(67,74,82)" stroke="rgb(67,74,82)" stroke-width="1" opacity="0.8745098039215686" d="M 93.5 49 L 100 49.5 L 93.5 50 L 93.5 49 Z " /><path fill="rgb(67,74,82)" stroke="rgb(67,74,82)" stroke-width="1" opacity="0.8745098039215686" d="M 165.5 49 L 169.5 54 L 165.5 49 Z " /><path fill="rgb(67,74,82)" stroke="rgb(67,74,82)" stroke-width="1" opacity="0.8745098039215686" d="M 131 50 L 143 56 Q 144.6 58.1 144 63.5 L 141 65 L 138.5 58 L 131 52.5 L 131 50 Z " /><path fill="rgb(67,74,82)" stroke="rgb(67,74,82)" stroke-width="1" opacity="0.8745098039215686" d="M 161.5 50 L 162.5 52 L 161.5 50 Z " /><path fill="rgb(67,74,82)" stroke="rgb(67,74,82)" stroke-width="1" opacity="0.8745098039215686" d="M 125.5 52 L 126 54.5 L 125 54.5 L 125.5 52 Z " /><path fill="rgb(67,74,82)" stroke="rgb(67,74,82)" stroke-width="1" opacity="0.8745098039215686" d="M 163.5 53 L 164.5 55 L 163.5 53 Z " /><path fill="rgb(67,74,82)" stroke="rgb(67,74,82)" stroke-width="1" opacity="0.8745098039215686" d="M 40.5 54 L 46 54.5 L 40.5 55 L 40.5 54 Z " /><path fill="rgb(67,74,82)" stroke="rgb(67,74,82)" stroke-width="1" opacity="0.8745098039215686" d="M 80.5 55 L 74.5 62 L 80.5 55 Z " /><path fill="rgb(67,74,82)" stroke="rgb(67,74,82)" stroke-width="1" opacity="0.8745098039215686" d="M 147.5 55 L 150 55.5 Q 150.8 57.8 148.5 57 L 147.5 55 Z " /><path fill="rgb(67,74,82)" stroke="rgb(67,74,82)" stroke-width="1" opacity="0.8745098039215686" d="M 171.5 56 L 170.5 58 L 168 57.5 L 171.5 56 Z " /><path fill="rgb(67,74,82)" stroke="rgb(67,74,82)" stroke-width="1" opacity="0.8745098039215686" d="M 177.5 57 L 178.5 59 L 177.5 57 Z " /><path fill="rgb(67,74,82)" stroke="rgb(67,74,82)" stroke-width="1" opacity="0.8745098039215686" d="M 127.5 58 L 130 59.5 L 128.5 59 L 127.5 58 Z " /><path fill="rgb(67,74,82)" stroke="rgb(67,74,82)" stroke-width="1" opacity="0.8745098039215686" d="M 16.5 59 L 18.5 62 L 16.5 59 Z " /><path fill="rgb(67,74,82)" stroke="rgb(67,74,82)" stroke-width="1" opacity="0.8745098039215686" d="M 44.5 60 Q 54.2 67.8 70.5 69 L 75 72.5 L 76 74.5 L 64.5 77 L 48.5 65 L 44.5 60 Z " /><path fill="rgb(67,74,82)" stroke="rgb(67,74,82)" stroke-width="1" opacity="0.8745098039215686" d="M 63.5 62 L 66 62.5 L 63.5 63 L 63.5 62 Z " /><path fill="rgb(67,74,82)" stroke="rgb(67,74,82)" stroke-width="1" opacity="0.8745098039215686" d="M 131.5 66 Q 135.5 65.5 136 68.5 L 134 69.5 Q 136.3 68.3 133.5 67 Q 130.5 67.5 131.5 66 Z " /><path fill="rgb(67,74,82)" stroke="rgb(67,74,82)" stroke-width="1" opacity="0.8745098039215686" d="M 124.5 69 L 126 69.5 L 122.5 71 L 122.5 70 L 124.5 69 Z " /><path fill="rgb(67,74,82)" stroke="rgb(67,74,82)" stroke-width="1" opacity="0.8745098039215686" d="M 120.5 71 L 119.5 73 L 120.5 71 Z " /><path fill="rgb(67,74,82)" stroke="rgb(67,74,82)" stroke-width="1" opacity="0.8745098039215686" d="M 129.5 71 L 131 71.5 L 128.5 73 L 129.5 71 Z " /><path fill="rgb(67,74,82)" stroke="rgb(67,74,82)" stroke-width="1" opacity="0.8745098039215686" d="M 45.5 72 L 49.5 73 L 58.5 81 L 65.5 82 L 68 84.5 L 67.5 86 L 59.5 86 L 44 73.5 L 45.5 72 Z " /><path fill="rgb(67,74,82)" stroke="rgb(67,74,82)" stroke-width="1" opacity="0.8745098039215686" d="M 116.5 73 L 118 73.5 L 113.5 76 L 114.5 74 L 116.5 73 Z " /><path fill="rgb(67,74,82)" stroke="rgb(67,74,82)" stroke-width="1" opacity="0.8745098039215686" d="M 39.5 76 L 40.5 78 L 39.5 76 Z " /><path fill="rgb(67,74,82)" stroke="rgb(67,74,82)" stroke-width="1" opacity="0.8745098039215686" d="M 119.5 76 L 118.5 78 L 114.5 80 L 115.5 78 L 119.5 76 Z " /><path fill="rgb(67,74,82)" stroke="rgb(67,74,82)" stroke-width="1" opacity="0.8745098039215686" d="M 177.5 76 Q 181.3 74.8 180 78.5 Q 178.8 81.3 177.5 79 Q 173.8 80 175 77 L 177.5 76 Z " /><path fill="rgb(67,74,82)" stroke="rgb(67,74,82)" stroke-width="1" opacity="0.8745098039215686" d="M 108.5 77 L 110 77.5 L 105.5 80 L 106.5 78 L 108.5 77 Z " /><path fill="rgb(67,74,82)" stroke="rgb(67,74,82)" stroke-width="1" opacity="0.8745098039215686" d="M 185.5 78 L 186 80.5 L 185 80.5 L 185.5 78 Z " /><path fill="rgb(67,74,82)" stroke="rgb(67,74,82)" stroke-width="1" opacity="0.8745098039215686" d="M 79.5 79 L 81.5 79 L 88 85.5 L 81.5 80 Q 78.5 80.5 79.5 79 Z " /><path fill="rgb(67,74,82)" stroke="rgb(67,74,82)" stroke-width="1" opacity="0.8745098039215686" d="M 75.5 80 L 78 80.5 L 75.5 81 L 75.5 80 Z " /><path fill="rgb(67,74,82)" stroke="rgb(67,74,82)" stroke-width="1" opacity="0.8745098039215686" d="M 103.5 80 L 102.5 82 L 103.5 80 Z " /><path fill="rgb(67,74,82)" stroke="rgb(67,74,82)" stroke-width="1" opacity="0.8745098039215686" d="M 110.5 81 L 109.5 83 L 110.5 81 Z " /><path fill="rgb(67,74,82)" stroke="rgb(67,74,82)" stroke-width="1" opacity="0.8745098039215686" d="M 73.5 83 L 74.5 85 L 73.5 83 Z " /><path fill="rgb(67,74,82)" stroke="rgb(67,74,82)" stroke-width="1" opacity="0.8745098039215686" d="M 107.5 83 L 106.5 85 L 107.5 83 Z " /><path fill="rgb(67,74,82)" stroke="rgb(67,74,82)" stroke-width="1" opacity="0.8745098039215686" d="M 99.5 84 L 99 85.5 L 97.5 88 L 98 86.5 L 99.5 84 Z " /><path fill="rgb(67,74,82)" stroke="rgb(67,74,82)" stroke-width="1" opacity="0.8745098039215686" d="M 50.5 85 L 53.5 89 L 50.5 85 Z " /><path fill="rgb(67,74,82)" stroke="rgb(67,74,82)" stroke-width="1" opacity="0.8745098039215686" d="M 173.5 85 L 172.5 87 L 173.5 85 Z " /><path fill="rgb(67,74,82)" stroke="rgb(67,74,82)" stroke-width="1" opacity="0.8745098039215686" d="M 75.5 86 L 76.5 88 L 75.5 86 Z " /><path fill="rgb(67,74,82)" stroke="rgb(67,74,82)" stroke-width="1" opacity="0.8745098039215686" d="M 104.5 87 L 103.5 89 L 104.5 87 Z " /><path fill="rgb(67,74,82)" stroke="rgb(67,74,82)" stroke-width="1" opacity="0.8745098039215686" d="M 35.5 88 L 45 88.5 L 35.5 89 L 35.5 88 Z " /><path fill="rgb(67,74,82)" stroke="rgb(67,74,82)" stroke-width="1" opacity="0.8745098039215686" d="M 89.5 88 L 90.5 90 L 89.5 88 Z " /><path fill="rgb(67,74,82)" stroke="rgb(67,74,82)" stroke-width="1" opacity="0.8745098039215686" d="M 77.5 89 L 78.5 91 L 77.5 89 Z " /><path fill="rgb(67,74,82)" stroke="rgb(67,74,82)" stroke-width="1" opacity="0.8745098039215686" d="M 142.5 89 L 144.5 92 L 142.5 89 Z " /><path fill="rgb(67,74,82)" stroke="rgb(67,74,82)" stroke-width="1" opacity="0.8745098039215686" d="M 69.5 90 L 72 90.5 L 69.5 91 L 69.5 90 Z " /><path fill="rgb(67,74,82)" stroke="rgb(67,74,82)" stroke-width="1" opacity="0.8745098039215686" d="M 95.5 91 L 96 93.5 L 95 93.5 L 95.5 91 Z " /><path fill="rgb(67,74,82)" stroke="rgb(67,74,82)" stroke-width="1" opacity="0.8745098039215686" d="M 180.5 91 L 181.5 93 L 180.5 91 Z " /><path fill="rgb(67,74,82)" stroke="rgb(67,74,82)" stroke-width="1" opacity="0.8745098039215686" d="M 79.5 92 L 80.5 94 L 79.5 92 Z " /><path fill="rgb(67,74,82)" stroke="rgb(67,74,82)" stroke-width="1" opacity="0.8745098039215686" d="M 38.5 93 L 49.5 95 L 58 100 Q 59.5 103.7 56.5 103 L 52.5 104 Q 48 98.5 37.5 99 Q 27.1 101.1 22 108.5 Q 18.6 113.6 20 123.5 Q 21.5 130.4 26.5 134 L 37.5 139 L 42.5 139 Q 50.7 137.2 55 131.5 L 60.5 123 Q 64.3 122.3 65 124.5 Q 62.3 134.8 54.5 140 Q 48.5 146 34.5 144 L 28.5 142 L 20 136 L 15 126.5 L 14 116.5 Q 16 106 22.5 100 L 30.5 95 L 38.5 93 Z " /><path fill="rgb(67,74,82)" stroke="rgb(67,74,82)" stroke-width="1" opacity="0.8745098039215686" d="M 89.5 93 L 89 94.5 L 85.5 100 L 83 98.5 L 81 95.5 L 84 97.5 Q 83.3 99.8 85.5 99 L 89.5 93 Z " /><path fill="rgb(67,74,82)" stroke="rgb(67,74,82)" stroke-width="1" opacity="0.8745098039215686" d="M 152 94 Q 155.8 92.5 155 95.5 L 160 108.5 L 162 120 Q 157.9 121.7 159 117.5 L 153 101.5 L 152 94 Z " /><path fill="rgb(67,74,82)" stroke="rgb(67,74,82)" stroke-width="1" opacity="0.8745098039215686" d="M 59.5 95 L 63.5 100 L 59.5 95 Z " /><path fill="rgb(67,74,82)" stroke="rgb(67,74,82)" stroke-width="1" opacity="0.8745098039215686" d="M 16.5 99 L 14.5 102 L 16.5 99 Z " /><path fill="rgb(67,74,82)" stroke="rgb(67,74,82)" stroke-width="1" opacity="0.8745098039215686" d="M 76.5 99 L 80 100.5 L 78.5 100 Q 75.5 100.5 76.5 99 Z " /><path fill="rgb(67,74,82)" stroke="rgb(67,74,82)" stroke-width="1" opacity="0.8745098039215686" d="M 96.5 99 Q 99.8 97.9 99 100.5 L 102.5 106 L 106 108.5 L 107 112.5 L 102.5 119 L 96.5 119 Q 94.7 113.5 87 115 L 86 109.5 Q 87.3 103.8 91.5 101 L 96.5 99 Z " /><path fill="rgb(67,74,82)" stroke="rgb(67,74,82)" stroke-width="1" opacity="0.8745098039215686" d="M 183.5 99 L 185.5 102 L 183.5 99 Z " /><path fill="rgb(67,74,82)" stroke="rgb(67,74,82)" stroke-width="1" opacity="0.8745098039215686" d="M 146.5 100 L 147 103.5 L 141.5 111 L 141 109.5 L 146.5 100 Z " /><path fill="rgb(67,74,82)" stroke="rgb(67,74,82)" stroke-width="1" opacity="0.8745098039215686" d="M 174.5 101 Q 180 100 181 103.5 Q 187.2 109.8 186 123.5 Q 183.3 134.3 175.5 140 L 167.5 144 L 153.5 144 Q 145.1 140.9 140 134.5 Q 135.7 131.3 137 122.5 L 140.5 112 L 141 114.5 Q 138.5 116 140 121.5 Q 141.9 130.6 148.5 135 L 157.5 139 L 162.5 139 Q 170.3 137.3 175 132.5 Q 179.1 130.2 178 124 L 176 123.5 L 178 123 L 178 116 L 175.5 116 L 174.5 114 L 179 115 Q 178.7 106.3 172 102.5 L 174.5 101 Z " /><path fill="rgb(67,74,82)" stroke="rgb(67,74,82)" stroke-width="1" opacity="0.8745098039215686" d="M 13.5 103 L 12.5 105 L 13.5 103 Z " /><path fill="rgb(67,74,82)" stroke="rgb(67,74,82)" stroke-width="1" opacity="0.8745098039215686" d="M 186.5 103 L 187.5 105 L 186.5 103 Z " /><path fill="rgb(67,74,82)" stroke="rgb(67,74,82)" stroke-width="1" opacity="0.8745098039215686" d="M 81.5 104 L 82 106.5 L 81 106.5 L 81.5 104 Z " /><path fill="rgb(67,74,82)" stroke="rgb(67,74,82)" stroke-width="1" opacity="0.8745098039215686" d="M 164 105 L 166 105.5 L 164 106.5 L 164 105 Z " /><path fill="rgb(67,74,82)" stroke="rgb(67,74,82)" stroke-width="1" opacity="0.8745098039215686" d="M 61.5 106 L 63 106.5 L 59.5 108 L 59.5 107 L 61.5 106 Z " /><path fill="rgb(67,74,82)" stroke="rgb(67,74,82)" stroke-width="1" opacity="0.8745098039215686" d="M 10.5 109 L 11 111.5 L 9.5 116 L 9 112.5 L 10.5 109 Z " /><path fill="rgb(67,74,82)" stroke="rgb(67,74,82)" stroke-width="1" opacity="0.8745098039215686" d="M 36.5 113 L 38 113.5 L 35.5 115 L 36.5 113 Z " /><path fill="rgb(67,74,82)" stroke="rgb(67,74,82)" stroke-width="1" opacity="0.8745098039215686" d="M 72.5 115 L 79 115.5 L 72.5 116 L 72.5 115 Z " /><path fill="rgb(67,74,82)" stroke="rgb(67,74,82)" stroke-width="1" opacity="0.8745098039215686" d="M 40.5 116 L 39.5 119 L 46 119.5 L 39.5 120 Q 36 118 40.5 116 Z " /><path fill="rgb(67,74,82)" stroke="rgb(67,74,82)" stroke-width="1" opacity="0.8745098039215686" d="M 70.5 116 L 69.5 118 L 70.5 116 Z " /><path fill="rgb(67,74,82)" stroke="rgb(67,74,82)" stroke-width="1" opacity="0.8745098039215686" d="M 56.5 118 L 67 118.5 L 56.5 119 L 56.5 118 Z " /><path fill="rgb(67,74,82)" stroke="rgb(67,74,82)" stroke-width="1" opacity="0.8745098039215686" d="M 9.5 122 L 11 128.5 L 10 128.5 L 9.5 122 Z " /><path fill="rgb(67,74,82)" stroke="rgb(67,74,82)" stroke-width="1" opacity="0.8745098039215686" d="M 36.5 123 L 47 123.5 L 36.5 124 L 36.5 123 Z " /><path fill="rgb(67,74,82)" stroke="rgb(67,74,82)" stroke-width="1" opacity="0.8745098039215686" d="M 71.5 123 L 72.5 125 L 71.5 123 Z " /><path fill="rgb(67,74,82)" stroke="rgb(67,74,82)" stroke-width="1" opacity="0.8745098039215686" d="M 75.5 129 L 76.5 131 L 75.5 129 Z " /><path fill="rgb(67,74,82)" stroke="rgb(67,74,82)" stroke-width="1" opacity="0.8745098039215686" d="M 162.5 133 L 165 133.5 L 162.5 134 L 162.5 133 Z " /><path fill="rgb(67,74,82)" stroke="rgb(67,74,82)" stroke-width="1" opacity="0.8745098039215686" d="M 65.5 135 L 64.5 137 L 65.5 135 Z " /><path fill="rgb(67,74,82)" stroke="rgb(67,74,82)" stroke-width="1" opacity="0.8745098039215686" d="M 15.5 137 L 20.5 143 L 15.5 137 Z " /><path fill="rgb(67,74,82)" stroke="rgb(67,74,82)" stroke-width="1" opacity="0.8745098039215686" d="M 183.5 138 L 179.5 143 L 183.5 138 Z " /></svg>