<svg width="200" height="200" version="1.1" xmlns="http://www.w3.org/2000/svg" desc="Created with imagetracer.js version 1.2.6" ><path fill="rgb(0,0,0)" stroke="rgb(0,0,0)" stroke-width="1" opacity="0" d="M 0 0 L 200 0 L 200 200 L 0 200 L 0 0 Z M 98 2 Q 99 5 96 4 L 96 14 L 98 14 L 98 16 L 96 16 L 96 18 L 94 18 Q 95 21 93 20 L 89 27 L 85 27 L 85 16 L 75 16 L 75 26 Q 78 27 74 29 L 67 27 Q 62 25 64 18 L 55 18 L 53 20 L 53 29 L 59 35 Q 57 41 60 43 L 59 47 L 59 58 L 64 60 L 64 67 L 66 68 L 66 74 L 62 76 L 59 84 Q 58 92 61 96 Q 60 98 64 97 L 67 101 L 69 108 L 69 114 L 72 116 L 73 116 L 73 120 L 48 120 Q 46 123 43 122 L 43 137 L 46 140 L 45 142 Q 46 144 43 143 L 43 147 L 42 147 L 38 153 Q 39 155 36 154 L 36 157 L 34 157 L 34 163 L 32 163 L 29 174 L 29 180 Q 26 179 27 182 L 23 182 Q 21 187 25 189 L 178 189 L 179 188 L 179 177 L 177 175 Q 179 167 175 168 Q 176 165 173 164 L 173 160 L 166 150 Q 167 146 164 147 L 161 143 Q 160 138 163 139 L 163 122 L 160 120 L 134 120 Q 133 117 136 116 Q 135 112 138 113 L 138 102 L 141 99 L 143 99 L 145 95 L 147 95 L 147 81 Q 144 81 145 78 L 143 78 L 142 76 L 142 64 L 143 63 L 143 60 Q 146 61 145 58 L 149 57 Q 151 49 147 48 L 147 40 L 150 32 Q 149 29 152 30 L 152 28 L 154 28 L 154 21 Q 151 21 152 18 L 145 18 L 142 21 L 142 25 Q 139 24 140 27 L 137 27 L 135 30 L 131 29 Q 130 25 133 26 L 133 18 L 132 16 L 121 16 L 120 19 L 121 26 L 118 27 L 113 21 Q 114 17 111 18 L 110 16 L 110 4 Q 107 5 108 2 L 98 2 Z " /><path fill="rgb(0,0,0)" stroke="rgb(0,0,0)" stroke-width="1" opacity="0" d="M 88.5 82 Q 91.8 83.2 91 87 L 85 86.5 L 86 84 Q 88.8 85 88.5 82 Z " /><path fill="rgb(0,0,0)" stroke="rgb(0,0,0)" stroke-width="1" opacity="0" d="M 118 82 L 121 83.5 Q 122.8 89.2 116.5 87 L 118 84.5 L 118 82 Z " /><path fill="rgb(242,163,19)" stroke="rgb(242,163,19)" stroke-width="1" opacity="0.9411764705882353" d="M 66 70 L 69 70 L 69 76.5 L 68 78.5 L 68.5 80 L 65 79.5 L 67 79 L 66 70 Z " /><path fill="rgb(242,163,19)" stroke="rgb(242,163,19)" stroke-width="1" opacity="0.9411764705882353" d="M 138.5 70 L 139 75 L 141 75.5 L 140 79 Q 142.7 77.9 142 80.5 L 143.5 83 Q 140.9 83.7 142 81 L 138 81 L 138.5 70 Z " /><path fill="rgb(242,163,19)" stroke="rgb(242,163,19)" stroke-width="1" opacity="0.9411764705882353" d="M 63.5 82 L 64 84.5 L 62 85.5 L 63.5 82 Z " /><path fill="rgb(242,163,19)" stroke="rgb(242,163,19)" stroke-width="1" opacity="0.9411764705882353" d="M 89.5 82 Q 91.8 81.3 91 83.5 L 89.5 82 Z " /><path fill="rgb(242,163,19)" stroke="rgb(242,163,19)" stroke-width="1" opacity="0.9411764705882353" d="M 102 82 Q 105.7 80.5 105 83.5 L 109 91.5 L 109 100 L 98.5 100 L 98 98.5 L 97 94.5 L 100 84 Q 103 85 102 82 Z " /><path fill="rgb(242,163,19)" stroke="rgb(242,163,19)" stroke-width="1" opacity="0.9411764705882353" d="M 114 84 Q 117.3 82.9 116 87 Q 112.7 88.1 114 84 Z " /><path fill="rgb(242,163,19)" stroke="rgb(242,163,19)" stroke-width="1" opacity="0.9411764705882353" d="M 121 84 Q 124.3 82.9 123 87 Q 119.7 88.1 121 84 Z " /><path fill="rgb(242,163,19)" stroke="rgb(242,163,19)" stroke-width="1" opacity="0.9411764705882353" d="M 144 86 Q 147.3 84.9 146 89 Q 142.7 90.1 144 86 Z " /><path fill="rgb(242,163,19)" stroke="rgb(242,163,19)" stroke-width="1" opacity="0.9411764705882353" d="M 62 89 Q 65.3 87.7 64 92.5 L 62 91.5 L 62 89 Z " /><path fill="rgb(242,163,19)" stroke="rgb(242,163,19)" stroke-width="1" opacity="0.9411764705882353" d="M 65 94 Q 68 93 67 96 Q 64 97 65 94 Z " /><path fill="rgb(242,163,19)" stroke="rgb(242,163,19)" stroke-width="1" opacity="0.9411764705882353" d="M 140 94 L 142 94.5 L 140 95.5 L 140 94 Z " /><path fill="rgb(252,170,46)" stroke="rgb(252,170,46)" stroke-width="1" opacity="0.9921568627450981" d="M 100 5 L 107 5 Q 106 8 109 7 L 109 11 L 107 11 L 107 13 Q 104.3 11.9 105 14.5 L 110.5 22 Q 112.8 21.3 112 23.5 L 117 31 L 121 32.5 Q 120.3 35.1 123 34 L 123 36 L 126.5 36 Q 128.5 32.5 134.5 33 L 141.5 28 L 144 28 L 145 21 L 151 21 L 151 27 Q 145.4 24.8 147 30.5 L 146 31.5 L 146 40 L 144 40.5 L 144 47.5 L 142 50.5 L 142 56.5 Q 139.4 57.9 140 62.5 L 141 66 Q 137.7 64.7 139 69.5 L 138 70.5 L 138 81 L 142 81 L 142 83 Q 144.7 81.9 144 84.5 L 144 86.5 Q 145.3 92.6 142.5 92 L 142.5 94 Q 139.2 92.9 140 95.5 L 139 98 L 137 97.5 L 137 88.5 L 138 83.5 Q 135 82.5 136 77.5 Q 138.3 76.3 137 71.5 L 135 68 L 72.5 68 Q 72.8 70.8 70 70.5 L 70 81.5 L 68 85.5 L 69 86.5 L 69 97 Q 65.7 98.1 67 94 L 63.5 94 L 64 92.5 L 64 89 Q 61 90.3 62 86.5 L 64 82.5 L 61 83.5 Q 62.6 79.1 69 79.5 L 68 77.5 L 69 76.5 L 69 70 L 66 69.5 L 67 66.5 Q 68.5 59.5 65 60.5 L 65 53.5 Q 61.3 51.8 63 44.5 L 61 42.5 L 62 37.5 L 61 35 Q 58.3 36.1 59 33.5 L 60 27 L 56 27 Q 57 24 54 25 L 54 22 L 60.5 21 L 63 22 L 63 27.5 L 64.5 28 Q 66.4 31.6 71 31 Q 69.7 34.3 74.5 33 L 79.5 36 L 82.5 36 L 86 31 L 90 29.5 L 92 26.5 L 93 24 Q 95.7 25.1 95 22.5 L 97 19 Q 99.7 20.1 99 17.5 L 101 14.5 Q 97.8 13.2 99 7.5 L 100 5 Z M 100 43 Q 101 46 98 45 L 94 50 L 95 57 L 101 61 Q 106 63 108 60 Q 110 61 109 58 L 111 58 Q 110 55 113 54 L 113 51 L 109 45 L 107 45 L 107 43 L 100 43 Z " /><path fill="rgb(252,170,46)" stroke="rgb(252,170,46)" stroke-width="1" opacity="0.9921568627450981" d="M 91.5 80 L 92.5 82 L 91.5 80 Z " /><path fill="rgb(252,170,46)" stroke="rgb(252,170,46)" stroke-width="1" opacity="0.9921568627450981" d="M 84.5 82 Q 86.8 81.3 86 83.5 L 84.5 86 L 84 84.5 L 84.5 82 Z " /><path fill="rgb(252,170,46)" stroke="rgb(252,170,46)" stroke-width="1" opacity="0.9921568627450981" d="M 100 82 Q 103 81 102 84 Q 99 85 100 82 Z " /><path fill="rgb(252,170,46)" stroke="rgb(252,170,46)" stroke-width="1" opacity="0.9921568627450981" d="M 105.5 82 L 109 90.5 L 107 89.5 L 105.5 82 Z " /><path fill="rgb(252,170,46)" stroke="rgb(252,170,46)" stroke-width="1" opacity="0.9921568627450981" d="M 91.5 83 L 92 85.5 L 91 85.5 L 91.5 83 Z " /><path fill="rgb(252,170,46)" stroke="rgb(252,170,46)" stroke-width="1" opacity="0.9921568627450981" d="M 93.5 84 L 95 86.5 L 93.5 88 L 82.5 88 L 82.5 87 L 93.5 87 L 94 85.5 L 93.5 84 Z " /><path fill="rgb(252,170,46)" stroke="rgb(252,170,46)" stroke-width="1" opacity="0.9921568627450981" d="M 99.5 86 L 100 87.5 L 98.5 90 L 98 87.5 L 99.5 86 Z " /><path fill="rgb(252,170,46)" stroke="rgb(252,170,46)" stroke-width="1" opacity="0.9921568627450981" d="M 113.5 87 L 125 87.5 L 113.5 88 L 113.5 87 Z " /><path fill="rgb(252,170,46)" stroke="rgb(252,170,46)" stroke-width="1" opacity="0.9921568627450981" d="M 97.5 91 L 98 93.5 L 97 97.5 L 98 99.5 L 96 98.5 Q 95.1 93.1 97.5 91 Z " /><path fill="rgb(252,170,46)" stroke="rgb(252,170,46)" stroke-width="1" opacity="0.9921568627450981" d="M 109.5 94 L 111 98 Q 107.2 99.2 109.5 94 Z " /><path fill="rgb(252,170,46)" stroke="rgb(252,170,46)" stroke-width="1" opacity="0.9921568627450981" d="M 100.5 100 L 107 100.5 L 100.5 101 L 100.5 100 Z " /><path fill="rgb(252,170,46)" stroke="rgb(252,170,46)" stroke-width="1" opacity="0.9921568627450981" d="M 91 105 Q 96.3 104 98.5 107 L 104.5 107 Q 109.1 104.3 116 105 Q 115.4 110.4 110.5 113 Q 106.7 115.7 98.5 114 L 93 110.5 Q 93.7 107.9 91 109 L 91 105 Z M 94 107 L 94 108 Q 96 107 95 110 L 97 110 L 97 112 L 109 112 L 109 110 L 112 110 Q 111 107 114 108 L 114 107 Q 108 105 109 109 L 98 109 L 94 107 Z " /><path fill="rgb(252,170,46)" stroke="rgb(252,170,46)" stroke-width="1" opacity="0.9921568627450981" d="M 91 128 L 115.5 128 L 116 129.5 L 111.5 135 Q 108.5 138 102.5 138 L 93 135 L 91 128 Z " /><path fill="rgb(247,235,149)" stroke="rgb(247,235,149)" stroke-width="1" opacity="0.7490196078431373" d="M 98 2 L 107.5 2 L 108 4 L 109.5 4 L 108.5 6 L 101.5 4 L 98 6 L 98 12.5 Q 101 11.8 100 16 Q 97 14.8 98 18.5 L 93 23.5 L 93 26 Q 90.3 24.9 91 27.5 L 88 29 Q 89.1 31.7 86.5 31 L 82 24.5 L 83 22 L 85 22 L 85 27 L 86.5 27 Q 87.8 29.3 89 26.5 L 91.5 21 L 93 21.5 L 94 18 L 98 15.5 L 98 14 L 96 13.5 L 96 4 Q 99 5 98 2 Z " /><path fill="rgb(247,235,149)" stroke="rgb(247,235,149)" stroke-width="1" opacity="0.7490196078431373" d="M 108.5 12 L 109 15.5 L 116.5 25 L 119.5 27 Q 121.8 26.3 121 22.5 L 120 18.5 Q 122 14 124 17.5 Q 121.8 18.8 123 23.5 L 123 25.5 Q 123.5 30.5 119.5 31 Q 116.9 31.7 118 29 L 116 29 L 116 26 Q 113.3 27.1 114 24.5 L 109 17 Q 105.7 18.3 107 13.5 L 108.5 12 Z " /><path fill="rgb(247,235,149)" stroke="rgb(247,235,149)" stroke-width="1" opacity="0.7490196078431373" d="M 75.5 16 L 76.5 18 Q 73.7 18.7 75.5 16 Z " /><path fill="rgb(247,235,149)" stroke="rgb(247,235,149)" stroke-width="1" opacity="0.7490196078431373" d="M 82 16 Q 86.5 14.3 85 19.5 L 83 20.5 L 82 16 Z " /><path fill="rgb(247,235,149)" stroke="rgb(247,235,149)" stroke-width="1" opacity="0.7490196078431373" d="M 130 17 L 133 17.5 Q 130.5 19 132 24.5 L 132.5 26 L 130 27.5 L 133 29 L 134 33 L 130 31.5 L 128 24 Q 130.7 25.1 130 22.5 L 130 20.5 L 130 17 Z " /><path fill="rgb(247,235,149)" stroke="rgb(247,235,149)" stroke-width="1" opacity="0.7490196078431373" d="M 54.5 18 L 63 18 L 63 21 L 56 20 Q 57 23 54 22 L 53 19.5 L 54.5 18 Z " /><path fill="rgb(247,235,149)" stroke="rgb(247,235,149)" stroke-width="1" opacity="0.7490196078431373" d="M 144.5 18 L 151.5 18 L 152 20 L 153.5 20 L 153 21.5 Q 154.5 30.5 148.5 32 L 148 28.5 L 151 27 L 152 22.5 L 151 20 L 144 20 Q 145.7 25.2 142 24 Q 141 19.3 144.5 18 Z " /><path fill="rgb(247,235,149)" stroke="rgb(247,235,149)" stroke-width="1" opacity="0.7490196078431373" d="M 75 24 Q 78 23 77 26 Q 74 27 75 24 Z " /><path fill="rgb(247,235,149)" stroke="rgb(247,235,149)" stroke-width="1" opacity="0.7490196078431373" d="M 63 25 Q 66 24 65 27 Q 62 28 63 25 Z " /><path fill="rgb(247,235,149)" stroke="rgb(247,235,149)" stroke-width="1" opacity="0.7490196078431373" d="M 141.5 25 Q 143.8 24.3 143 26.5 L 137 29 Q 138 32 135 31 L 136.5 27 Q 140.8 27.8 141.5 25 Z " /><path fill="rgb(247,235,149)" stroke="rgb(247,235,149)" stroke-width="1" opacity="0.7490196078431373" d="M 54.5 26 L 57.5 28 Q 60 29 59 33.5 L 57 32.5 L 55.5 30 L 53 28.5 L 54.5 26 Z " /><path fill="rgb(247,235,149)" stroke="rgb(247,235,149)" stroke-width="1" opacity="0.7490196078431373" d="M 66 27 Q 69.8 25.5 69 28.5 L 71.5 29 L 77 27 L 75 33 L 68.5 29 L 66 29 L 66 27 Z " /><path fill="rgb(247,235,149)" stroke="rgb(247,235,149)" stroke-width="1" opacity="0.7490196078431373" d="M 146 34 L 149 35.5 L 147.5 38 L 146 38 L 146 34 Z " /><path fill="rgb(247,235,149)" stroke="rgb(247,235,149)" stroke-width="1" opacity="0.7490196078431373" d="M 59.5 37 Q 62 38.2 61 42 Q 56.9 43.2 59.5 37 Z " /><path fill="rgb(247,235,149)" stroke="rgb(247,235,149)" stroke-width="1" opacity="0.7490196078431373" d="M 145.5 42 Q 144.6 47.4 147.5 49 Q 149.8 48.3 149 50.5 L 145.5 48 L 144 48.5 Q 142.8 43.3 145.5 42 Z " /><path fill="rgb(247,235,149)" stroke="rgb(247,235,149)" stroke-width="1" opacity="0.7490196078431373" d="M 61.5 45 L 63 47.5 Q 61.8 50.3 60.5 48 L 59 47.5 L 61.5 45 Z " /><path fill="rgb(247,235,149)" stroke="rgb(247,235,149)" stroke-width="1" opacity="0.7490196078431373" d="M 146.5 56 L 149 56.5 Q 146.9 59.8 146.5 56 Z " /><path fill="rgb(247,235,149)" stroke="rgb(247,235,149)" stroke-width="1" opacity="0.7490196078431373" d="M 64.5 57 L 65 59 L 62.5 60 L 64.5 57 Z " /><path fill="rgb(247,235,149)" stroke="rgb(247,235,149)" stroke-width="1" opacity="0.7490196078431373" d="M 142.5 57 Q 145.3 58.3 143 59.5 Q 144.3 64.3 141 63 L 142.5 57 Z " /><path fill="rgb(247,235,149)" stroke="rgb(247,235,149)" stroke-width="1" opacity="0.7490196078431373" d="M 65.5 63 L 67 65.5 Q 65.5 68.5 64 65.5 L 65.5 63 Z " /><path fill="rgb(247,235,149)" stroke="rgb(247,235,149)" stroke-width="1" opacity="0.7490196078431373" d="M 139 68 Q 142 66.8 141 70.5 L 139 69.5 L 139 68 Z " /><path fill="rgb(247,235,149)" stroke="rgb(247,235,149)" stroke-width="1" opacity="0.7490196078431373" d="M 64 75 Q 66.7 73.9 66 76.5 L 63 82 Q 59.3 83.5 60 80.5 L 61 78 L 63 77.5 L 62.5 76 L 64 76.5 L 64 75 Z " /><path fill="rgb(247,235,149)" stroke="rgb(247,235,149)" stroke-width="1" opacity="0.7490196078431373" d="M 141.5 76 L 147 80.5 L 145.5 84 L 144 80 L 141 78.5 L 141.5 76 Z " /><path fill="rgb(247,235,149)" stroke="rgb(247,235,149)" stroke-width="1" opacity="0.7490196078431373" d="M 84.5 77 L 89 77.5 L 86 78 Q 87.1 80.7 84.5 80 L 79.5 88 L 77 87 L 77 82 L 79 82 Q 77.9 79.3 80.5 80 L 84.5 77 Z " /><path fill="rgb(247,235,149)" stroke="rgb(247,235,149)" stroke-width="1" opacity="0.7490196078431373" d="M 118.5 77 Q 126.6 76.9 129 82.5 L 130 87 L 125 88 L 125 82 L 123 82 Q 124.1 79.3 121.5 80 L 118.5 77 Z " /><path fill="rgb(247,235,149)" stroke="rgb(247,235,149)" stroke-width="1" opacity="0.7490196078431373" d="M 90.5 79 L 93 79.5 L 90.5 80 L 90.5 79 Z " /><path fill="rgb(247,235,149)" stroke="rgb(247,235,149)" stroke-width="1" opacity="0.7490196078431373" d="M 114.5 79 L 116 79.5 L 114 80 Q 115 83 112 82 L 112 86.5 L 111 86.5 Q 110 80 114.5 79 Z " /><path fill="rgb(247,235,149)" stroke="rgb(247,235,149)" stroke-width="1" opacity="0.7490196078431373" d="M 93.5 81 Q 95.8 80.3 95 82.5 L 93.5 81 Z " /><path fill="rgb(247,235,149)" stroke="rgb(247,235,149)" stroke-width="1" opacity="0.7490196078431373" d="M 60.5 83 L 61 92 L 59 91.5 L 59 84.5 L 60.5 83 Z " /><path fill="rgb(247,235,149)" stroke="rgb(247,235,149)" stroke-width="1" opacity="0.7490196078431373" d="M 95.5 84 L 96 86.5 L 95 86.5 L 95.5 84 Z " /><path fill="rgb(247,235,149)" stroke="rgb(247,235,149)" stroke-width="1" opacity="0.7490196078431373" d="M 145.5 91 L 146 94.5 L 145 97 L 139 99.5 L 138.5 101 L 137 98 L 139.5 98 L 144 93.5 L 145.5 91 Z " /><path fill="rgb(247,235,149)" stroke="rgb(247,235,149)" stroke-width="1" opacity="0.7490196078431373" d="M 60 93 L 63 93 Q 61.9 95.7 64.5 95 L 69 98 Q 70.9 100.8 70 107 Q 66.7 108.3 68 103.5 L 67 101.5 L 67.5 100 L 64.5 98 L 61 97 L 60 93 Z " /><path fill="rgb(247,235,149)" stroke="rgb(247,235,149)" stroke-width="1" opacity="0.7490196078431373" d="M 136.5 107 Q 138.8 107.8 138 111.5 L 134 117.5 L 134 120 L 158.5 120 L 163 122.5 L 162 123.5 L 162 138.5 L 159.5 146 L 158 136 L 160 135.5 L 160 125 Q 156.9 125.8 157.5 123 L 128.5 123 L 128 121.5 Q 134.1 116.1 136.5 107 Z " /><path fill="rgb(247,235,149)" stroke="rgb(247,235,149)" stroke-width="1" opacity="0.7490196078431373" d="M 70.5 109 Q 73 110.2 72 114 Q 75 113 74 116 L 69 113.5 L 70.5 109 Z " /><path fill="rgb(247,235,149)" stroke="rgb(247,235,149)" stroke-width="1" opacity="0.7490196078431373" d="M 73 117 Q 76.7 115.5 76 118.5 L 77 121 Q 80 120 79 123 L 49 123 L 49 125 L 46 125.5 L 46 135 Q 48.7 133.9 48 136.5 Q 50.3 137.7 47.5 139 L 45 139 Q 45.8 135.9 43 136.5 L 43 123.5 L 48.5 120 L 73 120 L 73 117 Z " /><path fill="rgb(247,235,149)" stroke="rgb(247,235,149)" stroke-width="1" opacity="0.7490196078431373" d="M 80.5 136 Q 84.5 135.5 85 138.5 L 87 141.5 L 81.5 137 L 80.5 136 Z " /><path fill="rgb(247,235,149)" stroke="rgb(247,235,149)" stroke-width="1" opacity="0.7490196078431373" d="M 123 136 L 127 136.5 L 123 138 L 123 140 L 119 142 L 119 140 L 121 140 L 123 136 Z " /><path fill="rgb(247,235,149)" stroke="rgb(247,235,149)" stroke-width="1" opacity="0.7490196078431373" d="M 45.5 141 L 47 143.5 L 45 142.5 L 45.5 141 Z " /><path fill="rgb(247,235,149)" stroke="rgb(247,235,149)" stroke-width="1" opacity="0.7490196078431373" d="M 88 142 L 92.5 145 L 97 145 Q 98.1 147.7 95.5 147 L 88 144 L 88 142 Z " /><path fill="rgb(247,235,149)" stroke="rgb(247,235,149)" stroke-width="1" opacity="0.7490196078431373" d="M 117.5 142 L 118 144 L 110.5 147 L 110 145 Q 115.4 145.9 117.5 142 Z " /><path fill="rgb(247,235,149)" stroke="rgb(247,235,149)" stroke-width="1" opacity="0.7490196078431373" d="M 163.5 146 L 166 147 Q 167 150 164 149 L 163.5 146 Z " /><path fill="rgb(247,235,149)" stroke="rgb(247,235,149)" stroke-width="1" opacity="0.7490196078431373" d="M 40.5 148 L 41 150.5 L 40 150.5 L 40.5 148 Z " /><path fill="rgb(247,235,149)" stroke="rgb(247,235,149)" stroke-width="1" opacity="0.7490196078431373" d="M 36 154 Q 39 153 38 156 Q 35 157 36 154 Z " /><path fill="rgb(247,235,149)" stroke="rgb(247,235,149)" stroke-width="1" opacity="0.7490196078431373" d="M 112.5 155 L 116 156 Q 117 159.8 114.5 161 L 111 159.5 L 112.5 159 Q 113.7 161.3 115 158.5 Q 115.9 155.5 111.5 157 L 112.5 155 Z " /><path fill="rgb(247,235,149)" stroke="rgb(247,235,149)" stroke-width="1" opacity="0.7490196078431373" d="M 169.5 156 Q 171.8 155.3 171 157.5 L 171.5 159 L 169.5 156 Z " /><path fill="rgb(247,235,149)" stroke="rgb(247,235,149)" stroke-width="1" opacity="0.7490196078431373" d="M 34.5 157 L 36 159.5 L 35 159.5 L 34.5 157 Z " /><path fill="rgb(247,235,149)" stroke="rgb(247,235,149)" stroke-width="1" opacity="0.7490196078431373" d="M 31.5 167 L 31 168.5 L 30.5 171 L 30 168.5 L 31.5 167 Z " /><path fill="rgb(247,235,149)" stroke="rgb(247,235,149)" stroke-width="1" opacity="0.7490196078431373" d="M 176.5 168 L 175.5 170 L 176.5 168 Z " /><path fill="rgb(247,235,149)" stroke="rgb(247,235,149)" stroke-width="1" opacity="0.7490196078431373" d="M 113.5 175 L 116 176 Q 117 179.8 114.5 181 Q 109.7 182.3 111 179 L 113.5 180 L 115 177.5 L 113.5 175 Z " /><path fill="rgb(247,235,149)" stroke="rgb(247,235,149)" stroke-width="1" opacity="0.7490196078431373" d="M 23.5 182 Q 27.3 181.3 28 183.5 Q 30 190.3 24 188 L 23.5 182 Z " /><path fill="rgb(153,123,101)" stroke="rgb(153,123,101)" stroke-width="1" opacity="0.6274509803921569" d="M 109.5 5 L 110 15.5 L 111 16.5 L 109 15.5 L 109.5 5 Z " /><path fill="rgb(153,123,101)" stroke="rgb(153,123,101)" stroke-width="1" opacity="0.6274509803921569" d="M 76.5 16 L 82 16.5 L 76.5 17 L 76.5 16 Z " /><path fill="rgb(153,123,101)" stroke="rgb(153,123,101)" stroke-width="1" opacity="0.6274509803921569" d="M 123.5 16 L 130 16.5 L 123.5 17 L 123.5 16 Z " /><path fill="rgb(153,123,101)" stroke="rgb(153,123,101)" stroke-width="1" opacity="0.6274509803921569" d="M 132.5 18 L 133 24.5 L 132 24.5 L 132.5 18 Z " /><path fill="rgb(153,123,101)" stroke="rgb(153,123,101)" stroke-width="1" opacity="0.6274509803921569" d="M 53.5 20 L 54 26.5 L 53 26.5 L 53.5 20 Z " /><path fill="rgb(153,123,101)" stroke="rgb(153,123,101)" stroke-width="1" opacity="0.6274509803921569" d="M 63.5 20 L 64 24.5 L 63 24.5 L 63.5 20 Z " /><path fill="rgb(153,123,101)" stroke="rgb(153,123,101)" stroke-width="1" opacity="0.6274509803921569" d="M 153.5 22 L 154 25.5 L 153 25.5 L 153.5 22 Z " /><path fill="rgb(153,123,101)" stroke="rgb(153,123,101)" stroke-width="1" opacity="0.6274509803921569" d="M 55.5 30 L 56.5 32 L 55.5 30 Z " /><path fill="rgb(153,123,101)" stroke="rgb(153,123,101)" stroke-width="1" opacity="0.6274509803921569" d="M 149.5 31 L 149 32.5 L 148.5 34 L 148 32.5 L 149.5 31 Z " /><path fill="rgb(153,123,101)" stroke="rgb(153,123,101)" stroke-width="1" opacity="0.6274509803921569" d="M 146.5 38 L 147 47.5 L 146 47.5 L 146.5 38 Z " /><path fill="rgb(153,123,101)" stroke="rgb(153,123,101)" stroke-width="1" opacity="0.6274509803921569" d="M 60.5 42 L 61 45.5 L 60 45.5 L 60.5 42 Z " /><path fill="rgb(153,123,101)" stroke="rgb(153,123,101)" stroke-width="1" opacity="0.6274509803921569" d="M 64.5 60 L 65 63.5 L 64 63.5 L 64.5 60 Z " /><path fill="rgb(153,123,101)" stroke="rgb(153,123,101)" stroke-width="1" opacity="0.6274509803921569" d="M 141.5 63 L 142 75.5 L 143 76.5 L 141 75.5 L 141.5 63 Z " /><path fill="rgb(153,123,101)" stroke="rgb(153,123,101)" stroke-width="1" opacity="0.6274509803921569" d="M 85.5 80 Q 91.8 78.8 93 82.5 L 94 87 Q 90.7 88.3 92 83.5 L 88 82 Q 89 85 86 84 Q 87.1 81.3 84.5 82 L 84 84.5 Q 85 88.3 82 87 Q 81.9 82.1 85.5 80 Z " /><path fill="rgb(153,123,101)" stroke="rgb(153,123,101)" stroke-width="1" opacity="0.6274509803921569" d="M 115.5 80 Q 122.5 78.5 124 82.5 L 125 87 Q 122 88.3 123 84.5 L 122 82 L 118 82 L 118 83.5 L 117 83.5 L 116.5 82 L 116 84 L 114 84 Q 115.3 88.1 112 87 Q 111.9 82.1 115.5 80 Z " /><path fill="rgb(153,123,101)" stroke="rgb(153,123,101)" stroke-width="1" opacity="0.6274509803921569" d="M 146.5 81 L 147 94.5 L 146 94.5 L 146.5 81 Z " /><path fill="rgb(153,123,101)" stroke="rgb(153,123,101)" stroke-width="1" opacity="0.6274509803921569" d="M 140.5 98 L 139.5 100 L 140.5 98 Z " /><path fill="rgb(153,123,101)" stroke="rgb(153,123,101)" stroke-width="1" opacity="0.6274509803921569" d="M 137.5 101 L 138 107.5 L 137 107.5 L 137.5 101 Z " /><path fill="rgb(153,123,101)" stroke="rgb(153,123,101)" stroke-width="1" opacity="0.6274509803921569" d="M 69.5 107 L 70 112.5 L 69 112.5 L 69.5 107 Z " /><path fill="rgb(153,123,101)" stroke="rgb(153,123,101)" stroke-width="1" opacity="0.6274509803921569" d="M 93.5 107 L 97.5 109 L 109 109 Q 107.7 105.3 113.5 107 L 113.5 108 Q 110.9 107.3 112 110 L 109 110 L 108.5 112 L 97 112 L 97 110 L 95 110 Q 96.1 107.3 93.5 108 L 93.5 107 Z " /><path fill="rgb(153,123,101)" stroke="rgb(153,123,101)" stroke-width="1" opacity="0.6274509803921569" d="M 70.5 114 L 71.5 116 L 70.5 114 Z " /><path fill="rgb(153,123,101)" stroke="rgb(153,123,101)" stroke-width="1" opacity="0.6274509803921569" d="M 162.5 123 L 163 138.5 L 162 138.5 L 162.5 123 Z " /><path fill="rgb(153,123,101)" stroke="rgb(153,123,101)" stroke-width="1" opacity="0.6274509803921569" d="M 46.5 139 L 47 141.5 L 46 141.5 L 46.5 139 Z " /><path fill="rgb(153,123,101)" stroke="rgb(153,123,101)" stroke-width="1" opacity="0.6274509803921569" d="M 23.5 183 L 24 187.5 L 23 187.5 L 23.5 183 Z " /><path fill="rgb(153,123,101)" stroke="rgb(153,123,101)" stroke-width="1" opacity="0.6274509803921569" d="M 100.5 188 L 107 188.5 L 100.5 189 L 100.5 188 Z " /><path fill="rgb(237,202,82)" stroke="rgb(237,202,82)" stroke-width="1" opacity="0.8941176470588236" d="M 101.5 4 L 105 4.5 L 101.5 5 L 101.5 4 Z " /><path fill="rgb(237,202,82)" stroke="rgb(237,202,82)" stroke-width="1" opacity="0.8941176470588236" d="M 98.5 6 L 99 8.5 L 98 8.5 L 98.5 6 Z " /><path fill="rgb(237,202,82)" stroke="rgb(237,202,82)" stroke-width="1" opacity="0.8941176470588236" d="M 98.5 10 L 99 12.5 L 98 12.5 L 98.5 10 Z " /><path fill="rgb(237,202,82)" stroke="rgb(237,202,82)" stroke-width="1" opacity="0.8941176470588236" d="M 107 11 L 109 11.5 L 107 15 L 105 14.5 L 107 11 Z " /><path fill="rgb(237,202,82)" stroke="rgb(237,202,82)" stroke-width="1" opacity="0.8941176470588236" d="M 98 16 L 100 16.5 L 98 17.5 L 98 16 Z " /><path fill="rgb(237,202,82)" stroke="rgb(237,202,82)" stroke-width="1" opacity="0.8941176470588236" d="M 77.5 17 Q 82.9 15.1 82 18.5 L 84 21.5 L 81.5 25 L 82 23.5 L 82 19 L 77 19 Q 75.5 25.3 79 24.5 L 79 28.5 L 75.5 33 L 75 31.5 Q 78 29.3 77 24 L 75 24 L 75 18 L 77.5 17 Z " /><path fill="rgb(237,202,82)" stroke="rgb(237,202,82)" stroke-width="1" opacity="0.8941176470588236" d="M 107.5 17 Q 109.8 16.3 109 18.5 L 111 21.5 L 109 20.5 L 107.5 17 Z " /><path fill="rgb(237,202,82)" stroke="rgb(237,202,82)" stroke-width="1" opacity="0.8941176470588236" d="M 124.5 17 Q 131.4 15 130 19 L 123 18.5 L 124.5 17 Z " /><path fill="rgb(237,202,82)" stroke="rgb(237,202,82)" stroke-width="1" opacity="0.8941176470588236" d="M 56.5 20 Q 61.3 19.3 63 21.5 L 61.5 22 L 56.5 21 L 56.5 20 Z " /><path fill="rgb(237,202,82)" stroke="rgb(237,202,82)" stroke-width="1" opacity="0.8941176470588236" d="M 96.5 20 L 95 22.5 Q 95.8 24.8 93.5 24 L 96.5 20 Z " /><path fill="rgb(237,202,82)" stroke="rgb(237,202,82)" stroke-width="1" opacity="0.8941176470588236" d="M 144 20 L 151 20.5 L 144.5 22 L 144 20 Z " /><path fill="rgb(237,202,82)" stroke="rgb(237,202,82)" stroke-width="1" opacity="0.8941176470588236" d="M 123 22 Q 126.7 20.6 125 26.5 L 120 30.5 L 124 24.5 L 123 22 Z " /><path fill="rgb(237,202,82)" stroke="rgb(237,202,82)" stroke-width="1" opacity="0.8941176470588236" d="M 151.5 22 L 152 24.5 L 151 24.5 L 151.5 22 Z " /><path fill="rgb(237,202,82)" stroke="rgb(237,202,82)" stroke-width="1" opacity="0.8941176470588236" d="M 142.5 24 Q 145.1 23.2 144 26.5 L 142 27.5 L 143 25.5 L 142.5 24 Z " /><path fill="rgb(237,202,82)" stroke="rgb(237,202,82)" stroke-width="1" opacity="0.8941176470588236" d="M 82.5 26 L 86 30.5 L 84 31 L 82.5 26 Z " /><path fill="rgb(237,202,82)" stroke="rgb(237,202,82)" stroke-width="1" opacity="0.8941176470588236" d="M 63.5 27 Q 66.8 25.9 66 28.5 L 64.5 28 L 63.5 27 Z " /><path fill="rgb(237,202,82)" stroke="rgb(237,202,82)" stroke-width="1" opacity="0.8941176470588236" d="M 148.5 27 L 148 28.5 Q 150 35.4 146 34 L 148.5 27 Z " /><path fill="rgb(237,202,82)" stroke="rgb(237,202,82)" stroke-width="1" opacity="0.8941176470588236" d="M 128.5 28 L 130 31 Q 126.5 32.1 128.5 28 Z " /><path fill="rgb(237,202,82)" stroke="rgb(237,202,82)" stroke-width="1" opacity="0.8941176470588236" d="M 59.5 29 L 60 32.5 L 59 32.5 L 59.5 29 Z " /><path fill="rgb(237,202,82)" stroke="rgb(237,202,82)" stroke-width="1" opacity="0.8941176470588236" d="M 67.5 29 L 70 30.5 L 68.5 31 L 67.5 29 Z " /><path fill="rgb(237,202,82)" stroke="rgb(237,202,82)" stroke-width="1" opacity="0.8941176470588236" d="M 137 29 L 139 29.5 L 137 30.5 L 137 29 Z " /><path fill="rgb(237,202,82)" stroke="rgb(237,202,82)" stroke-width="1" opacity="0.8941176470588236" d="M 71.5 31 L 72.5 33 L 71.5 31 Z " /><path fill="rgb(237,202,82)" stroke="rgb(237,202,82)" stroke-width="1" opacity="0.8941176470588236" d="M 59 35 Q 62 33.8 61 37.5 L 62 41.5 L 61 41.5 L 61 38.5 L 59 35 Z " /><path fill="rgb(237,202,82)" stroke="rgb(237,202,82)" stroke-width="1" opacity="0.8941176470588236" d="M 144 40 Q 146.7 38.9 146 41.5 L 144 42.5 L 144 40 Z " /><path fill="rgb(237,202,82)" stroke="rgb(237,202,82)" stroke-width="1" opacity="0.8941176470588236" d="M 101.5 43 Q 106 42 107 44.5 L 104.5 45 L 102.5 44 L 100.5 45 L 101.5 43 Z " /><path fill="rgb(237,202,82)" stroke="rgb(237,202,82)" stroke-width="1" opacity="0.8941176470588236" d="M 61.5 44 Q 63.8 43.3 63 45.5 L 61.5 44 Z " /><path fill="rgb(237,202,82)" stroke="rgb(237,202,82)" stroke-width="1" opacity="0.8941176470588236" d="M 97.5 45 L 98 46.5 L 95 48.5 L 97.5 45 Z " /><path fill="rgb(237,202,82)" stroke="rgb(237,202,82)" stroke-width="1" opacity="0.8941176470588236" d="M 143.5 48 L 144 51.5 L 140.5 63 L 140 59.5 L 142 56.5 Q 140.9 50.4 143.5 48 Z " /><path fill="rgb(237,202,82)" stroke="rgb(237,202,82)" stroke-width="1" opacity="0.8941176470588236" d="M 111.5 50 L 112 53.5 L 111 53.5 L 111.5 50 Z " /><path fill="rgb(237,202,82)" stroke="rgb(237,202,82)" stroke-width="1" opacity="0.8941176470588236" d="M 63.5 52 L 65 56.5 L 63 55.5 L 63.5 52 Z " /><path fill="rgb(237,202,82)" stroke="rgb(237,202,82)" stroke-width="1" opacity="0.8941176470588236" d="M 110.5 56 L 111 58 L 109 57.5 L 110.5 56 Z " /><path fill="rgb(237,202,82)" stroke="rgb(237,202,82)" stroke-width="1" opacity="0.8941176470588236" d="M 96.5 57 L 102 60.5 L 100.5 61 L 96.5 57 Z " /><path fill="rgb(237,202,82)" stroke="rgb(237,202,82)" stroke-width="1" opacity="0.8941176470588236" d="M 105 59 L 108 59.5 L 105 61 L 105 59 Z " /><path fill="rgb(237,202,82)" stroke="rgb(237,202,82)" stroke-width="1" opacity="0.8941176470588236" d="M 65 61 Q 68.3 59.7 67 64.5 L 66 64.5 L 65 61 Z " /><path fill="rgb(237,202,82)" stroke="rgb(237,202,82)" stroke-width="1" opacity="0.8941176470588236" d="M 139 66 Q 142 65 141 68 Q 138 69 139 66 Z " /><path fill="rgb(237,202,82)" stroke="rgb(237,202,82)" stroke-width="1" opacity="0.8941176470588236" d="M 139.5 70 Q 142 71.2 141 75 Q 136.9 76.2 139.5 70 Z " /><path fill="rgb(237,202,82)" stroke="rgb(237,202,82)" stroke-width="1" opacity="0.8941176470588236" d="M 66.5 75 L 67 77.5 L 64 79.5 L 66.5 75 Z " /><path fill="rgb(237,202,82)" stroke="rgb(237,202,82)" stroke-width="1" opacity="0.8941176470588236" d="M 86 78 L 90 78 L 90 79.5 L 88.5 79 L 86.5 80 L 86 78 Z " /><path fill="rgb(237,202,82)" stroke="rgb(237,202,82)" stroke-width="1" opacity="0.8941176470588236" d="M 116 78 Q 119.8 77 121 79.5 L 119.5 80 L 117.5 80 Q 114.9 80.7 116 78 Z " /><path fill="rgb(237,202,82)" stroke="rgb(237,202,82)" stroke-width="1" opacity="0.8941176470588236" d="M 93.5 82 L 95 84.5 L 93 83.5 L 93.5 82 Z " /><path fill="rgb(237,202,82)" stroke="rgb(237,202,82)" stroke-width="1" opacity="0.8941176470588236" d="M 144.5 83 L 145.5 85 L 144.5 83 Z " /><path fill="rgb(237,202,82)" stroke="rgb(237,202,82)" stroke-width="1" opacity="0.8941176470588236" d="M 81.5 85 L 82 87.5 L 81 87.5 L 81.5 85 Z " /><path fill="rgb(237,202,82)" stroke="rgb(237,202,82)" stroke-width="1" opacity="0.8941176470588236" d="M 145.5 90 L 144.5 92 L 145.5 90 Z " /><path fill="rgb(237,202,82)" stroke="rgb(237,202,82)" stroke-width="1" opacity="0.8941176470588236" d="M 139 96 L 141 96.5 L 139 97.5 L 139 96 Z " /><path fill="rgb(237,202,82)" stroke="rgb(237,202,82)" stroke-width="1" opacity="0.8941176470588236" d="M 135 105 Q 137.7 103.9 137 106.5 L 135.5 109 L 135 105 Z " /><path fill="rgb(237,202,82)" stroke="rgb(237,202,82)" stroke-width="1" opacity="0.8941176470588236" d="M 70.5 108 Q 72.8 107.3 72 109.5 L 70.5 108 Z " /><path fill="rgb(237,202,82)" stroke="rgb(237,202,82)" stroke-width="1" opacity="0.8941176470588236" d="M 134.5 110 L 135 111.5 L 132.5 116 L 132 114.5 L 134.5 110 Z " /><path fill="rgb(237,202,82)" stroke="rgb(237,202,82)" stroke-width="1" opacity="0.8941176470588236" d="M 72 112 Q 75 111 74 114 Q 71 115 72 112 Z " /><path fill="rgb(237,202,82)" stroke="rgb(237,202,82)" stroke-width="1" opacity="0.8941176470588236" d="M 74.5 115 L 77 118.5 L 76 118.5 Q 76.8 115.9 73.5 117 L 74.5 115 Z " /><path fill="rgb(237,202,82)" stroke="rgb(237,202,82)" stroke-width="1" opacity="0.8941176470588236" d="M 128 119 L 130 119.5 L 128 120.5 L 128 119 Z " /><path fill="rgb(237,202,82)" stroke="rgb(237,202,82)" stroke-width="1" opacity="0.8941176470588236" d="M 79 137 Q 81.7 135.9 81 138.5 L 80 139.5 L 79.5 153 L 79 137 Z " /><path fill="rgb(237,202,82)" stroke="rgb(237,202,82)" stroke-width="1" opacity="0.8941176470588236" d="M 125.5 137 Q 127.8 136.3 127 138.5 L 125.5 137 Z " /><path fill="rgb(237,202,82)" stroke="rgb(237,202,82)" stroke-width="1" opacity="0.8941176470588236" d="M 47.5 142 Q 47 149.6 49 153 L 47 152.5 L 47.5 142 Z " /><path fill="rgb(237,202,82)" stroke="rgb(237,202,82)" stroke-width="1" opacity="0.8941176470588236" d="M 158.5 142 L 159 152.5 L 158 152.5 L 158.5 142 Z " /><path fill="rgb(237,202,82)" stroke="rgb(237,202,82)" stroke-width="1" opacity="0.8941176470588236" d="M 99.5 147 L 101 148.5 L 101 186 L 105 185.5 L 105 147.5 L 107 147 L 107 185.5 L 104.5 188 Q 100 188.5 100 187.5 L 100 148.5 L 99.5 147 Z " /><path fill="rgb(237,202,82)" stroke="rgb(237,202,82)" stroke-width="1" opacity="0.8941176470588236" d="M 52.5 152 L 58 154.5 L 56.5 155 L 52.5 153 L 52.5 152 Z " /><path fill="rgb(237,202,82)" stroke="rgb(237,202,82)" stroke-width="1" opacity="0.8941176470588236" d="M 59 152 L 64 154.5 L 62.5 154 L 60.5 153 L 59 153.5 L 59 152 Z " /><path fill="rgb(237,202,82)" stroke="rgb(237,202,82)" stroke-width="1" opacity="0.8941176470588236" d="M 66.5 152 L 69 153.5 L 67.5 153 L 65.5 154 L 66.5 152 Z " /><path fill="rgb(237,202,82)" stroke="rgb(237,202,82)" stroke-width="1" opacity="0.8941176470588236" d="M 72.5 152 Q 76.5 151.5 77 154.5 L 74.5 153 L 71.5 154 L 72.5 152 Z " /><path fill="rgb(237,202,82)" stroke="rgb(237,202,82)" stroke-width="1" opacity="0.8941176470588236" d="M 127.5 152 L 128.5 154 Q 125.7 154.7 127.5 152 Z " /><path fill="rgb(237,202,82)" stroke="rgb(237,202,82)" stroke-width="1" opacity="0.8941176470588236" d="M 132.5 152 L 134 152.5 L 130.5 154 L 130.5 153 L 132.5 152 Z " /><path fill="rgb(237,202,82)" stroke="rgb(237,202,82)" stroke-width="1" opacity="0.8941176470588236" d="M 139.5 152 L 141 152.5 L 135.5 155 L 135.5 154 L 139.5 152 Z " /><path fill="rgb(237,202,82)" stroke="rgb(237,202,82)" stroke-width="1" opacity="0.8941176470588236" d="M 144 152 L 148 152.5 L 143.5 155 L 144 153.5 L 144 152 Z " /><path fill="rgb(237,202,82)" stroke="rgb(237,202,82)" stroke-width="1" opacity="0.8941176470588236" d="M 151.5 152 L 158 154.5 L 155.5 155 L 151.5 153 L 151.5 152 Z " /><path fill="rgb(253,204,64)" stroke="rgb(253,204,64)" stroke-width="1" opacity="0.996078431372549" d="M 77 19 L 82 19 L 82 23.5 L 82 25.5 L 84 31 Q 86.7 29.9 86 32.5 Q 85.2 36.8 79.5 36 L 75 33.5 L 79 28.5 L 79 24 L 77 24 L 77 19 Z " /><path fill="rgb(253,204,64)" stroke="rgb(253,204,64)" stroke-width="1" opacity="0.996078431372549" d="M 123 19 L 130 19 L 130 24 Q 127.3 22.9 128 25.5 L 128 27.5 L 128 31 Q 130.7 29.9 130 32.5 L 130.5 34 L 123 36 L 123 34 Q 120.3 35.1 121 32.5 L 120 31.5 L 125 26.5 L 125 22.5 Q 122 23.3 123 19 Z " /><path fill="rgb(253,204,64)" stroke="rgb(253,204,64)" stroke-width="1" opacity="0.996078431372549" d="M 58 27 Q 61 26 60 29 Q 57 30 58 27 Z " /><path fill="rgb(253,204,64)" stroke="rgb(253,204,64)" stroke-width="1" opacity="0.996078431372549" d="M 111.5 49 Q 113.8 49.8 113 53.5 L 111 54.5 L 112 50.5 L 111.5 49 Z " /><path fill="rgb(253,204,64)" stroke="rgb(253,204,64)" stroke-width="1" opacity="0.996078431372549" d="M 72 68 L 134.5 68 L 135 69.5 Q 138.2 70.7 137 76.5 L 136 81.5 Q 139 82.5 138 87.5 L 137 88.5 L 137 105 Q 133.3 103.7 135 109.5 L 132 117 L 128 119 L 128 123 L 158 123 Q 157.3 126.1 160 125.5 L 160 136 L 158 136.5 L 158 153.5 L 155.5 154 L 151 152 Q 152.1 155.3 148 154 Q 149.2 150.3 144 152 Q 145.1 155.3 141 154 Q 142.1 151.3 139.5 152 L 134 154 Q 135.1 151.3 132.5 152 L 129.5 154 L 127 151.5 L 127 136 L 123 136 L 123 138 L 121 138 L 121 140 L 119 140 Q 120.1 142.7 117.5 142 Q 115.4 145.9 110 145 L 110 147 L 105 147.5 L 105 185.5 L 101 186 L 101 148.5 L 99.5 147 L 97 147 L 96.5 145 L 92.5 145 L 85 139.5 L 82.5 136 L 79 137.5 L 79 153.5 L 76.5 154 L 72.5 152 L 69.5 154 L 66.5 152 L 63.5 154 L 59 152 Q 60.3 155 56.5 154 L 52 152 Q 53.1 155.3 49 154 L 47 139 Q 49.7 140.1 49 137.5 L 48 135 L 46 134.5 L 46 125 Q 50.3 126 49.5 123 L 78.5 123 L 79 121 Q 75.7 122.3 77 117.5 Q 73.3 116.3 74 112 L 72 112 L 72 108 L 70.5 108 L 71 106.5 L 70 98 L 67 97.5 L 69 97 L 68 83.5 L 70 81.5 L 70 70 Q 73 71 72 68 Z M 85 77 L 81 80 Q 78 79 79 82 L 77 82 L 77 87 L 79 87 L 82 88 L 95 88 L 96 87 L 95 84 L 95 81 Q 92 82 93 79 Q 90 80 89 77 L 85 77 Z M 119 77 L 111 83 Q 110 87 113 88 L 128 88 L 130 87 L 129 83 Q 127 77 119 77 Z M 100 82 L 100 86 L 96 94 L 96 99 L 101 101 Q 106 103 108 100 Q 110 101 109 98 L 111 98 L 106 84 L 106 82 L 100 82 Z M 91 105 L 91 109 Q 94 108 93 111 L 99 114 Q 107 116 111 113 Q 115 110 116 105 Q 109 104 105 107 L 99 107 Q 96 104 91 105 Z M 91 128 L 93 135 L 103 138 Q 109 138 112 135 L 116 130 L 116 128 L 91 128 Z " /><path fill="rgb(253,204,64)" stroke="rgb(253,204,64)" stroke-width="1" opacity="0.996078431372549" d="M 61.5 84 L 62 90.5 L 61 90.5 L 61.5 84 Z " /><path fill="rgb(253,204,64)" stroke="rgb(253,204,64)" stroke-width="1" opacity="0.996078431372549" d="M 144.5 84 L 145.5 86 L 144.5 84 Z " /><path fill="rgb(253,204,64)" stroke="rgb(253,204,64)" stroke-width="1" opacity="0.996078431372549" d="M 144 89 L 146 89.5 L 144 90.5 L 144 89 Z " /><path fill="rgb(253,204,64)" stroke="rgb(253,204,64)" stroke-width="1" opacity="0.996078431372549" d="M 111 157 L 115 157 L 115 158.5 Q 113.7 161.3 112.5 159 Q 109.9 159.7 111 157 Z " /><path fill="rgb(253,204,64)" stroke="rgb(253,204,64)" stroke-width="1" opacity="0.996078431372549" d="M 111 176 L 115 177.5 L 113.5 180 L 111 179 L 111 176 Z " /><path fill="rgb(85,184,225)" stroke="rgb(85,184,225)" stroke-width="1" opacity="0.5568627450980392" d="M 87.5 27 L 86.5 29 L 87.5 27 Z " /><path fill="rgb(85,184,225)" stroke="rgb(85,184,225)" stroke-width="1" opacity="0.5568627450980392" d="M 59 48 Q 62 46.8 61 50.5 L 60 53.5 L 61 56 L 64 57.5 L 63.5 60 Q 62.4 57.3 59 58 L 59 48 Z " /><path fill="rgb(85,184,225)" stroke="rgb(85,184,225)" stroke-width="1" opacity="0.5568627450980392" d="M 145.5 48 L 148 48.5 L 148 50.5 L 149 53.5 L 148 56 L 146 56.5 L 146.5 58 L 143.5 60 L 143 57.5 L 144.5 56 Q 146.8 56.8 146 54.5 L 147 52.5 L 146 50 L 144 49.5 L 145.5 48 Z " /><path fill="rgb(85,184,225)" stroke="rgb(85,184,225)" stroke-width="1" opacity="0.5568627450980392" d="M 43.5 143 L 47 144.5 L 44 150 L 42 150 L 42 153 Q 39.3 151.9 40 154.5 L 33 167.5 L 30 183 Q 26.2 184.5 27 181.5 Q 30.8 179.6 29 173 Q 32.7 174.3 31 168.5 L 32 165.5 Q 34.8 163.3 34.5 158 L 35.5 160 L 36 156 Q 39.3 157.3 38 152.5 L 41 151 L 41 147 L 43 147 Q 41.9 144.3 44.5 145 L 44.5 144 L 43.5 143 Z " /><path fill="rgb(85,184,225)" stroke="rgb(85,184,225)" stroke-width="1" opacity="0.5568627450980392" d="M 160 143 L 162 143 Q 160.9 145.7 163.5 145 L 164 147.5 Q 163.3 149.8 165.5 149 Q 168.8 150.2 168 154 Q 170.7 152.9 170 155.5 Q 167.3 157.2 171.5 159 L 173 159 L 173 164.5 L 175 165 L 175 167.5 L 177 169.5 L 179 185.5 L 178 189 L 107.5 189 L 107 187.5 L 108.5 188 L 155.5 188 L 156.5 187 L 175.5 187 L 177 185.5 L 176 174.5 L 172 166.5 L 172 163.5 L 161.5 147 L 160 147 L 160 143 Z " /><path fill="rgb(85,184,225)" stroke="rgb(85,184,225)" stroke-width="1" opacity="0.5568627450980392" d="M 30.5 187 L 97.5 188 L 100 187 L 99.5 189 L 24.5 189 L 24.5 188 Q 29.3 189.3 30.5 187 Z " /><path fill="rgb(23,153,216)" stroke="rgb(23,153,216)" stroke-width="1" opacity="0.996078431372549" d="M 104.5 45 L 107 45.5 L 104.5 46 L 104.5 45 Z " /><path fill="rgb(23,153,216)" stroke="rgb(23,153,216)" stroke-width="1" opacity="0.996078431372549" d="M 116 84 L 118 84.5 L 116 85.5 L 116 84 Z " /><path fill="rgb(23,153,216)" stroke="rgb(23,153,216)" stroke-width="1" opacity="0.996078431372549" d="M 82.5 139 L 83.5 141 Q 80.7 141.7 82.5 139 Z " /><path fill="rgb(23,153,216)" stroke="rgb(23,153,216)" stroke-width="1" opacity="0.996078431372549" d="M 123 139 L 126 139.5 L 126 152.5 L 125 152.5 L 123.5 141 L 120 143.5 Q 119.3 141.3 121.5 142 L 123 139 Z " /><path fill="rgb(23,153,216)" stroke="rgb(23,153,216)" stroke-width="1" opacity="0.996078431372549" d="M 85.5 142 L 86.5 144 L 85.5 142 Z " /><path fill="rgb(23,153,216)" stroke="rgb(23,153,216)" stroke-width="1" opacity="0.996078431372549" d="M 88.5 144 L 89.5 146 L 88.5 144 Z " /><path fill="rgb(23,153,216)" stroke="rgb(23,153,216)" stroke-width="1" opacity="0.996078431372549" d="M 117.5 144 L 118 146 L 116 145.5 L 117.5 144 Z " /><path fill="rgb(23,153,216)" stroke="rgb(23,153,216)" stroke-width="1" opacity="0.996078431372549" d="M 92.5 146 L 95 147.5 L 93.5 148 L 92.5 146 Z " /><path fill="rgb(23,153,216)" stroke="rgb(23,153,216)" stroke-width="1" opacity="0.996078431372549" d="M 114.5 146 L 113.5 148 L 112 147.5 L 114.5 146 Z " /><path fill="rgb(23,153,216)" stroke="rgb(23,153,216)" stroke-width="1" opacity="0.996078431372549" d="M 97.5 148 L 100 149.5 L 100 185.5 L 98.5 186 L 97.5 187 L 53.5 187 L 52 185.5 L 52 155.5 L 54 154.5 L 53 155.5 L 53 186 L 98 186 L 98 149.5 L 97.5 148 Z " /><path fill="rgb(23,153,216)" stroke="rgb(23,153,216)" stroke-width="1" opacity="0.996078431372549" d="M 108.5 148 L 108 149.5 L 108 186 L 152.5 186 L 152.5 187 L 108.5 187 L 107 185.5 L 107 149.5 L 108.5 148 Z " /><path fill="rgb(23,153,216)" stroke="rgb(23,153,216)" stroke-width="1" opacity="0.996078431372549" d="M 80.5 153 L 81 155 L 76.5 157 L 75.5 155 Q 79.8 155.8 80.5 153 Z " /><path fill="rgb(23,153,216)" stroke="rgb(23,153,216)" stroke-width="1" opacity="0.996078431372549" d="M 132.5 153 Q 133.8 155.8 138 155.5 Q 136.7 158.3 135.5 156 L 132 155 L 132.5 153 Z " /><path fill="rgb(23,153,216)" stroke="rgb(23,153,216)" stroke-width="1" opacity="0.996078431372549" d="M 152.5 153 L 153 155 L 151 154.5 L 152.5 153 Z " /><path fill="rgb(23,153,216)" stroke="rgb(23,153,216)" stroke-width="1" opacity="0.996078431372549" d="M 139.5 154 L 145 155.5 Q 143.8 158.3 142.5 156 Q 138.7 155.8 139.5 154 Z " /><path fill="rgb(23,153,216)" stroke="rgb(23,153,216)" stroke-width="1" opacity="0.996078431372549" d="M 56 155 L 59 155.5 L 56 157 L 56 155 Z " /><path fill="rgb(23,153,216)" stroke="rgb(23,153,216)" stroke-width="1" opacity="0.996078431372549" d="M 63 155 Q 66 154 65 157 Q 62 158 63 155 Z " /><path fill="rgb(23,153,216)" stroke="rgb(23,153,216)" stroke-width="1" opacity="0.996078431372549" d="M 154.5 155 L 155 185.5 L 154 185.5 L 154.5 155 Z " /><path fill="rgb(23,153,216)" stroke="rgb(23,153,216)" stroke-width="1" opacity="0.996078431372549" d="M 116 156 Q 119.7 154.8 118 160 Q 114.3 161.2 116 156 Z " /><path fill="rgb(23,153,216)" stroke="rgb(23,153,216)" stroke-width="1" opacity="0.996078431372549" d="M 109.5 160 L 110.5 162 L 109.5 160 Z " /><path fill="rgb(23,153,216)" stroke="rgb(23,153,216)" stroke-width="1" opacity="0.996078431372549" d="M 110.5 174 L 109.5 176 L 110.5 174 Z " /><path fill="rgb(23,153,216)" stroke="rgb(23,153,216)" stroke-width="1" opacity="0.996078431372549" d="M 115.5 174 Q 118.5 174.5 118 178.5 L 116 179.5 L 116 177.5 L 115.5 174 Z " /><path fill="rgb(23,153,216)" stroke="rgb(23,153,216)" stroke-width="1" opacity="0.996078431372549" d="M 112.5 181 L 115 181.5 L 112.5 182 L 112.5 181 Z " /><path fill="rgb(0,149,231)" stroke="rgb(0,149,231)" stroke-width="1" opacity="0.996078431372549" d="M 100.5 46 Q 108.5 44.5 110 49.5 L 110 54.5 L 107 59 L 100.5 59 L 100 57 L 98.5 57 Q 95.3 55.3 97 48.5 L 100.5 46 Z " /><path fill="rgb(0,149,231)" stroke="rgb(0,149,231)" stroke-width="1" opacity="0.996078431372549" d="M 81.5 139 L 82 141 L 89.5 146 L 98 149.5 L 98 186 L 53 186 L 53 155.5 L 56 155 Q 54.9 157.7 57.5 157 Q 58.8 154 63 155 Q 62 158 65 157 L 65.5 155 L 74.5 155 Q 76 158.5 77.5 156 L 81 155 L 81.5 139 Z " /><path fill="rgb(0,149,231)" stroke="rgb(0,149,231)" stroke-width="1" opacity="0.996078431372549" d="M 123.5 141 Q 122.7 150.6 126 155 Q 133.4 153.4 136.5 157 L 140.5 155 L 143.5 157 L 145.5 155 L 154 155 L 154 186 L 108 186 L 108 149.5 L 109.5 148 L 113.5 148 Q 114.6 145.3 118 146 Q 116.8 143 120.5 144 L 123.5 141 Z M 110 154 L 109 157 Q 108 161 111 162 L 116 162 Q 115 159 118 160 L 118 156 Q 115 157 116 154 L 110 154 Z M 114 173 L 111 174 Q 108 176 109 181 L 115 182 Q 119 182 118 177 L 114 173 Z " /><path fill="rgb(65,195,233)" stroke="rgb(65,195,233)" stroke-width="1" opacity="0.996078431372549" d="M 102 44 Q 105 43 104 46 Q 101 47 102 44 Z " /><path fill="rgb(65,195,233)" stroke="rgb(65,195,233)" stroke-width="1" opacity="0.996078431372549" d="M 98 45 Q 101 44 100 47 Q 97 48 98 45 Z " /><path fill="rgb(65,195,233)" stroke="rgb(65,195,233)" stroke-width="1" opacity="0.996078431372549" d="M 107.5 45 Q 112.8 46.8 111 55.5 L 109 59 Q 106.3 60.1 107 57.5 Q 111.3 56.3 110 49.5 L 109 47 Q 105.8 48 107.5 45 Z " /><path fill="rgb(65,195,233)" stroke="rgb(65,195,233)" stroke-width="1" opacity="0.996078431372549" d="M 96.5 48 L 97 57 L 100.5 59 L 105 59 Q 106.3 62 102.5 61 L 95 55.5 Q 93.5 49.5 96.5 48 Z " /><path fill="rgb(65,195,233)" stroke="rgb(65,195,233)" stroke-width="1" opacity="0.996078431372549" d="M 61 49 L 63 49.5 L 63 56 Q 60.3 57.1 61 54.5 L 60 51.5 L 61 49 Z " /><path fill="rgb(65,195,233)" stroke="rgb(65,195,233)" stroke-width="1" opacity="0.996078431372549" d="M 144 50 Q 146.7 48.9 146 51.5 L 147 53.5 L 146 56 L 143.5 57 L 143 52.5 L 144 50 Z " /><path fill="rgb(65,195,233)" stroke="rgb(65,195,233)" stroke-width="1" opacity="0.996078431372549" d="M 81.5 137 L 88 142 L 87.5 144 L 84 142 L 82.5 139 L 81 139.5 L 81 152.5 L 77.5 155 L 77.5 154 L 80 152.5 L 80 139.5 L 81.5 137 Z " /><path fill="rgb(65,195,233)" stroke="rgb(65,195,233)" stroke-width="1" opacity="0.996078431372549" d="M 123.5 138 L 127 139.5 L 127 153.5 Q 127 154.5 131.5 154 L 131.5 155 Q 127 156 126 153.5 L 126 139.5 L 123.5 139 L 123.5 138 Z " /><path fill="rgb(65,195,233)" stroke="rgb(65,195,233)" stroke-width="1" opacity="0.996078431372549" d="M 121 140 L 123 140.5 L 121 141.5 L 121 140 Z " /><path fill="rgb(65,195,233)" stroke="rgb(65,195,233)" stroke-width="1" opacity="0.996078431372549" d="M 119.5 142 L 120 144 L 118 143.5 L 119.5 142 Z " /><path fill="rgb(65,195,233)" stroke="rgb(65,195,233)" stroke-width="1" opacity="0.996078431372549" d="M 89.5 144 L 92 145.5 L 90.5 146 L 89.5 144 Z " /><path fill="rgb(65,195,233)" stroke="rgb(65,195,233)" stroke-width="1" opacity="0.996078431372549" d="M 116.5 144 L 115.5 146 L 107.5 149 L 107 147 Q 113.1 147.7 116.5 144 Z " /><path fill="rgb(65,195,233)" stroke="rgb(65,195,233)" stroke-width="1" opacity="0.996078431372549" d="M 46.5 145 L 47 153 L 51.5 154 L 53.5 153 L 56 154.5 L 54.5 155 Q 53.2 152.8 52 155.5 L 52 185.5 L 53.5 187 L 97.5 187 L 99.5 186 L 99.5 187 L 97.5 188 L 51.5 188 L 50.5 187 L 30.5 187 L 28 188 Q 26.5 181.7 30 182.5 L 30 178.5 L 32 175.5 L 33 167.5 L 40 153 L 42 153 L 42 150 Q 44.7 151.1 44 148.5 L 46.5 145 Z " /><path fill="rgb(65,195,233)" stroke="rgb(65,195,233)" stroke-width="1" opacity="0.996078431372549" d="M 93.5 146 L 100 148.5 L 98.5 148 Q 93.6 148.6 93.5 146 Z " /><path fill="rgb(65,195,233)" stroke="rgb(65,195,233)" stroke-width="1" opacity="0.996078431372549" d="M 159.5 146 L 164 149.5 L 172 163.5 L 172 166.5 L 176 174.5 L 177 185.5 L 175.5 187 L 156.5 187 L 155.5 188 L 108.5 188 L 107.5 186 L 108.5 187 L 152.5 187 L 155 186 L 155 155.5 L 153.5 155 L 153.5 154 L 158 155 L 159.5 146 Z " /><path fill="rgb(65,195,233)" stroke="rgb(65,195,233)" stroke-width="1" opacity="0.996078431372549" d="M 66.5 153 L 67 155 L 64 154.5 L 66.5 153 Z " /><path fill="rgb(65,195,233)" stroke="rgb(65,195,233)" stroke-width="1" opacity="0.996078431372549" d="M 72.5 153 L 76 154.5 L 74.5 155 L 72.5 154 L 68.5 155 L 68.5 154 L 72.5 153 Z " /><path fill="rgb(65,195,233)" stroke="rgb(65,195,233)" stroke-width="1" opacity="0.996078431372549" d="M 133.5 153 L 134.5 155 L 133.5 153 Z " /><path fill="rgb(65,195,233)" stroke="rgb(65,195,233)" stroke-width="1" opacity="0.996078431372549" d="M 139.5 153 L 143 154.5 L 141.5 155 L 139.5 154 L 137.5 155 L 137.5 154 L 139.5 153 Z " /><path fill="rgb(65,195,233)" stroke="rgb(65,195,233)" stroke-width="1" opacity="0.996078431372549" d="M 145.5 153 L 150.5 154 L 152 153.5 Q 151.3 155.8 147.5 155 L 145.5 155 L 144 154.5 L 145.5 153 Z " /><path fill="rgb(65,195,233)" stroke="rgb(65,195,233)" stroke-width="1" opacity="0.996078431372549" d="M 111 154 L 116 155.5 L 114.5 156 L 112.5 155 Q 110.3 155.8 111 159.5 L 114.5 161 L 116 160.5 Q 116.9 163.9 111.5 162 Q 108 160.7 109 156 Q 112 157 111 154 Z " /><path fill="rgb(65,195,233)" stroke="rgb(65,195,233)" stroke-width="1" opacity="0.996078431372549" d="M 111.5 174 Q 115.3 173.3 116 175.5 L 114.5 176 L 112.5 176 Q 109.1 175.1 111 180.5 L 110 180.5 L 109 176.5 L 111.5 174 Z " /></svg>