<svg width="200" height="200" version="1.1" xmlns="http://www.w3.org/2000/svg" desc="Created with imagetracer.js version 1.2.6" ><path fill="rgb(0,0,0)" stroke="rgb(0,0,0)" stroke-width="1" opacity="0" d="M 0 0 L 200 0 L 200 200 L 0 200 L 0 0 Z M 86 7 L 86 9 L 81 9 L 81 11 L 76 11 L 68 16 L 65 16 L 63 20 L 58 24 Q 59 26 56 25 L 56 27 L 54 27 L 54 29 L 51 31 Q 52 33 49 32 L 49 36 L 48 36 L 45 39 L 45 43 L 42 49 L 42 69 L 45 73 Q 44 75 47 74 L 47 76 L 51 76 L 51 78 Q 56 77 59 80 L 64 80 Q 65 77 71 78 L 73 76 L 75 76 L 77 72 L 79 72 L 80 67 L 80 58 Q 83 59 82 55 L 84 55 L 84 51 L 86 51 L 88 48 Q 90 49 89 46 Q 92 47 94 44 L 104 44 L 104 46 Q 110 45 112 50 Q 111 52 114 51 L 119 61 L 119 69 L 118 70 L 118 76 L 114 78 L 114 80 L 111 82 Q 112 84 109 83 L 109 85 L 105 85 L 105 87 Q 96 87 91 92 L 88 92 L 86 96 L 84 96 L 80 108 L 80 136 L 81 141 L 91 148 L 110 148 L 110 146 L 115 145 L 117 143 Q 116 137 119 136 L 119 123 Q 122 123 121 120 L 124 120 L 124 118 Q 130 119 133 115 L 135 115 L 137 111 L 140 111 L 140 109 L 147 104 Q 146 100 149 101 L 149 97 L 153 95 L 153 91 L 156 85 L 156 75 L 158 74 L 158 58 L 156 57 Q 158 43 151 37 Q 152 33 149 34 L 149 30 L 146 29 Q 147 26 144 27 L 144 25 L 137 20 Q 138 17 135 18 L 135 16 L 131 16 L 131 14 Q 126 14 124 11 Q 116 13 117 9 L 110 9 L 108 7 L 86 7 Z M 94 155 L 91 157 L 88 157 L 86 161 L 84 161 L 84 163 L 82 163 L 80 172 Q 79 187 89 192 Q 92 191 91 194 L 107 194 L 107 192 L 110 192 L 114 189 L 117 184 L 118 179 L 117 167 L 114 163 Q 115 160 112 161 L 112 159 L 110 159 L 110 157 Q 105 158 103 155 L 94 155 Z " /><path fill="rgb(247,60,58)" stroke="rgb(247,60,58)" stroke-width="1" opacity="0.7647058823529411" d="M 90.5 8 L 105.5 8 L 106.5 10 L 114.5 10 L 125 13 L 125 15 L 129 15 L 129 17 L 132 17 Q 130.9 19.7 133.5 19 L 138 22 Q 136.9 24.7 139.5 24 L 141 27 L 143 27 L 143 29 L 145 29 L 145 31 Q 147.7 29.9 147 32.5 L 154 44.5 L 154 49 L 156 49.5 L 156 59.5 L 157 60.5 L 157 70.5 L 156 71.5 L 156 82 L 154 82 L 154 88 L 152 88 L 152 93 Q 149.3 91.9 150 94.5 L 145 103 L 143 103 L 143 105 L 141 105 L 141 107 Q 138.3 105.9 139 108.5 L 131.5 114 L 129 114 Q 130.3 117 126.5 116 L 118 120.5 L 119 121.5 L 119 130.5 L 115 142 L 113 142 L 113 144 L 110 144 Q 111.1 146.7 108.5 146 L 106.5 148 L 92 148 L 92 146 L 89 146 Q 90.1 143.3 87.5 144 L 85 140 Q 82.3 141.1 83 138.5 L 89.5 144 L 92.5 146 L 106.5 146 L 113 142 Q 112.3 138.9 115 139.5 L 115 134.5 Q 118.7 130.2 117 120.5 L 120.5 117 Q 131.8 113.8 139 106.5 Q 138.3 103.9 141 105 L 141 103 L 142.5 103 Q 147.1 99.5 148 93 Q 151.3 94.3 150 89.5 L 154 81.5 L 155 59.5 L 152 43.5 L 145 31 L 143 31 L 143 29 Q 140.3 30.1 141 27.5 L 138 26 L 138 24 L 136 24 Q 137.1 21.3 134.5 22 L 126.5 16 L 112.5 11 L 89 9.5 L 90.5 8 Z " /><path fill="rgb(247,60,58)" stroke="rgb(247,60,58)" stroke-width="1" opacity="0.7647058823529411" d="M 83.5 10 L 88 10.5 L 82.5 13 L 78.5 13 L 76.5 15 L 73.5 15 L 64 22.5 L 64 24 L 62 24 Q 63.1 26.7 60.5 26 L 57 31 L 55 31 Q 56.1 33.7 53.5 33 L 50 40 Q 46.7 38.7 48 43.5 L 46 45.5 Q 46.8 50.8 44 52.5 L 44 64.5 L 46 70 L 48 70 Q 46.9 72.7 49.5 72 L 58.5 77 L 63.5 77 L 74 71.5 Q 73.3 68.9 76 70 L 76 66.5 Q 79.4 63.9 78 56.5 L 80.5 53 L 81 55.5 L 78 70 L 76 70 Q 77.1 72.7 74.5 72 Q 73.3 75.8 69 75 Q 70.3 78.7 64.5 77 Q 63.8 79.8 59.5 79 Q 58 75.8 53 77 Q 54.3 74 50.5 75 L 46 72 Q 47 69 44 70 L 44 66.5 Q 40 64.5 42 56.5 Q 44.7 53.2 44 46.5 L 46 44.5 L 46 40 Q 48.7 41.1 48 38.5 L 51 33 L 53 33 L 53 31 Q 55.7 32.1 55 29.5 L 60 26 L 60 24 L 62 24 L 62 22 Q 64.7 23.1 64 20.5 L 67 19 Q 65.8 16 69.5 17 L 73 15 L 73 13 Q 79.3 14.5 78.5 11 L 82.5 11 L 83.5 10 Z " /><path fill="rgb(247,60,58)" stroke="rgb(247,60,58)" stroke-width="1" opacity="0.7647058823529411" d="M 97.5 41 L 105.5 42 L 113 45 L 113 47 L 115 47 L 115 49 Q 117.7 47.9 117 50.5 L 122 59.5 L 122 69.5 Q 119 71.5 120 77.5 L 117 82 L 115 82 L 115 84 L 113 84 Q 114.1 86.7 111.5 86 L 109.5 88 L 93.5 93 L 87 98.5 L 83 106.5 L 82.5 137 L 81 135.5 L 81 107.5 L 85 98 Q 87.7 99.1 87 96.5 L 90 95 Q 88.8 92 92.5 93 Q 93.6 90.3 97 91 Q 95.6 87 102.5 89 L 104.5 87 L 111 86 L 111 84 L 113 84 Q 111.9 81.3 114.5 82 L 118 78.5 Q 116.8 72.8 120 71.5 L 120 58.5 L 115 49 L 113 49 L 111 45 L 106 45 Q 107.1 42.3 104.5 43 L 101.5 44 L 97.5 43 L 87 45 L 87 47 L 83 49 L 83 52 L 81 52 L 83 47 L 85 47 Q 83.9 44.3 86.5 45 L 88.5 43 L 97.5 41 Z " /><path fill="rgb(247,60,58)" stroke="rgb(247,60,58)" stroke-width="1" opacity="0.7647058823529411" d="M 96.5 156 Q 103.4 154 102 158 L 95 157.5 L 96.5 156 Z " /><path fill="rgb(247,60,58)" stroke="rgb(247,60,58)" stroke-width="1" opacity="0.7647058823529411" d="M 90 158 L 94 158.5 L 90 160 Q 91.1 162.7 88.5 162 L 87 165 Q 84.3 163.9 85 166.5 L 83 169.5 L 83 180.5 Q 85.8 181.6 85 185 L 88 186.5 Q 87.3 188.8 89.5 188 L 93.5 191 L 104.5 191 L 110 188 L 111.5 185 Q 114.1 185.8 113 182.5 L 115 180.5 L 115 169.5 L 113 165 Q 110.3 166.1 111 163.5 L 108 162 Q 109.3 159 105.5 160 L 103 158.5 L 106.5 158 L 113 163.5 Q 112.3 166.1 115 165 L 115 169 L 117 169.5 L 117 181 Q 114 179.8 115 183.5 L 112 188 L 110 188 Q 111.1 190.7 108.5 190 Q 104.7 194.2 95.5 193 L 88 190 L 88 188 Q 85.3 189.1 86 186.5 L 83 185 Q 84.3 179.7 81 180.5 L 81 169.5 Q 83.7 168.4 83 165 Q 85.7 166.1 85 163.5 L 90 160 L 90 158 Z " /><path fill="rgb(247,48,46)" stroke="rgb(247,48,46)" stroke-width="1" opacity="0.996078431372549" d="M 89.5 10 L 105.5 10 L 108.5 12 L 112.5 11 Q 114.8 13.8 120 13.5 L 114.5 14 Q 113 11.5 107.5 13 L 104.5 11 L 89 11 Q 90.3 14.7 84.5 13 L 79 14 L 79 16 L 73.5 16 L 73 17.5 L 72 20 L 67.5 21 L 67 19 L 73.5 15 L 76.5 15 L 89.5 10 Z " /><path fill="rgb(247,48,46)" stroke="rgb(247,48,46)" stroke-width="1" opacity="0.996078431372549" d="M 121 14 L 128.5 17 L 138 24 Q 136.9 26.7 139.5 26 L 143.5 31 Q 145.8 30.3 145 32.5 L 145.5 34 L 142 32 L 142 30 Q 139.3 31.1 140 28.5 L 133 23 L 131.5 20 L 125 18 L 125 16 Q 119.8 17.7 121 14 Z " /><path fill="rgb(247,48,46)" stroke="rgb(247,48,46)" stroke-width="1" opacity="0.996078431372549" d="M 65.5 21 L 66 22.5 L 65 25 L 63 25 Q 64.1 27.7 61.5 27 L 59 28 L 56 34 L 52.5 35 L 53.5 33 Q 56.1 33.7 55 31 L 57 31 L 57 29.5 L 62 26 L 62 24 Q 64.7 25.1 64 22.5 L 65.5 21 Z " /><path fill="rgb(247,48,46)" stroke="rgb(247,48,46)" stroke-width="1" opacity="0.996078431372549" d="M 146.5 35 L 150 39.5 L 153 49.5 L 151 48.5 L 151 44.5 L 149 44 L 149 41.5 Q 145.7 39.5 146.5 35 Z " /><path fill="rgb(247,48,46)" stroke="rgb(247,48,46)" stroke-width="1" opacity="0.996078431372549" d="M 51.5 37 L 52 38.5 Q 47.7 40.1 49 46 L 47 46 L 47 51 L 45.5 51 L 46 49.5 L 46 45.5 Q 49 44.3 48 40 Q 50.7 41.1 50 38.5 L 51.5 37 Z " /><path fill="rgb(247,48,46)" stroke="rgb(247,48,46)" stroke-width="1" opacity="0.996078431372549" d="M 89.5 41 L 93 41.5 Q 86.4 42.9 83 47.5 Q 83.7 50.1 81 49 L 81 53 L 79 53 L 80 48 L 82 48 L 82 46 L 84 46 L 86 42 L 88.5 42 L 89.5 41 Z " /><path fill="rgb(247,48,46)" stroke="rgb(247,48,46)" stroke-width="1" opacity="0.996078431372549" d="M 103.5 41 L 110.5 42 L 116 46 L 116 48 Q 118.7 46.9 118 49.5 L 119 51.5 L 117 50.5 L 114.5 47 L 111.5 45 L 103.5 42 L 103.5 41 Z " /><path fill="rgb(247,48,46)" stroke="rgb(247,48,46)" stroke-width="1" opacity="0.996078431372549" d="M 153.5 51 L 155 59.5 L 153 60 L 153.5 51 Z " /><path fill="rgb(247,48,46)" stroke="rgb(247,48,46)" stroke-width="1" opacity="0.996078431372549" d="M 44.5 52 L 45 64.5 Q 47.7 65.6 47 69 L 49 69 Q 47.9 71.7 50.5 71 Q 52.8 75.1 59 74 Q 57.8 77.7 63 76 L 63 74 L 67.5 74 Q 66.5 71 71.5 72 L 73 69 L 75 69 L 75 64 L 77 64 L 77 55.5 L 78.5 55 L 78 56.5 L 78 63.5 Q 75.2 65.5 76 70 Q 73.3 68.9 74 71.5 Q 68.8 76.3 59.5 77 L 48 72 L 44 64.5 L 44.5 52 Z " /><path fill="rgb(247,48,46)" stroke="rgb(247,48,46)" stroke-width="1" opacity="0.996078431372549" d="M 119 53 L 121 53 Q 119.8 58.3 123 57.5 L 123 73 L 121 73 L 121 79.5 L 119.5 80 L 118 83 L 116 83 L 116 85 L 114 85 Q 115.1 87.7 112.5 87 L 111 87.5 L 111 86 L 113 86 Q 111.9 83.3 114.5 84 L 117 80 Q 119.7 81.1 119 78.5 Q 121.3 77.3 120 72.5 L 122 69.5 L 122 59.5 L 119 53 Z " /><path fill="rgb(247,48,46)" stroke="rgb(247,48,46)" stroke-width="1" opacity="0.996078431372549" d="M 153 71 L 155 71.5 L 153.5 80 L 153 71 Z " /><path fill="rgb(247,48,46)" stroke="rgb(247,48,46)" stroke-width="1" opacity="0.996078431372549" d="M 151 81 Q 153.7 79.9 153 82.5 L 150 93 Q 147.3 91.9 148 94.5 L 146 95.5 Q 150.1 93.2 149 87 L 151 87 L 151 81 Z " /><path fill="rgb(247,48,46)" stroke="rgb(247,48,46)" stroke-width="1" opacity="0.996078431372549" d="M 107.5 88 Q 110.1 87.3 109 90 L 104 89.5 L 107.5 88 Z " /><path fill="rgb(247,48,46)" stroke="rgb(247,48,46)" stroke-width="1" opacity="0.996078431372549" d="M 98.5 91 L 103 91.5 L 98 92 L 98 94 Q 93.9 92.7 95 96 L 91.5 96 L 90 96.5 Q 89.3 94.3 91.5 95 L 98.5 91 Z " /><path fill="rgb(247,48,46)" stroke="rgb(247,48,46)" stroke-width="1" opacity="0.996078431372549" d="M 144 97 Q 146.7 95.9 146 98.5 L 144.5 101 L 144 97 Z " /><path fill="rgb(247,48,46)" stroke="rgb(247,48,46)" stroke-width="1" opacity="0.996078431372549" d="M 87 98 L 89 98.5 L 86 106 L 84 106.5 L 84 137.5 L 83 137.5 L 83 106.5 L 87 98 Z " /><path fill="rgb(247,48,46)" stroke="rgb(247,48,46)" stroke-width="1" opacity="0.996078431372549" d="M 142.5 101 L 143 103 L 141 103 Q 142.1 105.7 139.5 105 L 142.5 101 Z " /><path fill="rgb(247,48,46)" stroke="rgb(247,48,46)" stroke-width="1" opacity="0.996078431372549" d="M 137 106 L 139 106.5 L 137 107.5 L 137 106 Z " /><path fill="rgb(247,48,46)" stroke="rgb(247,48,46)" stroke-width="1" opacity="0.996078431372549" d="M 133 108 L 136 108.5 L 133 110 L 133 108 Z " /><path fill="rgb(247,48,46)" stroke="rgb(247,48,46)" stroke-width="1" opacity="0.996078431372549" d="M 128 111 L 132 111.5 L 129 112 Q 130.3 115.3 125.5 114 L 125.5 113 Q 129.3 114 128 111 Z " /><path fill="rgb(247,48,46)" stroke="rgb(247,48,46)" stroke-width="1" opacity="0.996078431372549" d="M 121 115 L 124 115.5 L 121.5 117 L 121 115 Z " /><path fill="rgb(247,48,46)" stroke="rgb(247,48,46)" stroke-width="1" opacity="0.996078431372549" d="M 118.5 117 L 119 119 Q 116.3 117.9 117 120.5 L 116 120.5 Q 114.9 117.2 117.5 118 L 118.5 117 Z " /><path fill="rgb(247,48,46)" stroke="rgb(247,48,46)" stroke-width="1" opacity="0.996078431372549" d="M 114 132 Q 116.7 130.9 116 133.5 L 115 140 L 113 140 Q 114.1 142.7 111.5 142 L 107.5 145 L 107 143 L 109 143 L 109 141 L 112 141 Q 111 138 114 139 L 114 132 Z " /><path fill="rgb(247,48,46)" stroke="rgb(247,48,46)" stroke-width="1" opacity="0.996078431372549" d="M 87.5 140 L 88.5 142 Q 85.7 142.7 87.5 140 Z " /><path fill="rgb(247,48,46)" stroke="rgb(247,48,46)" stroke-width="1" opacity="0.996078431372549" d="M 89.5 143 Q 94.3 141.7 93 145 Q 88.8 145.1 89.5 143 Z " /><path fill="rgb(247,48,46)" stroke="rgb(247,48,46)" stroke-width="1" opacity="0.996078431372549" d="M 94.5 145 L 106 145.5 L 94.5 146 L 94.5 145 Z " /><path fill="rgb(247,48,46)" stroke="rgb(247,48,46)" stroke-width="1" opacity="0.996078431372549" d="M 94.5 158 L 101.5 158 L 108 160 L 107.5 162 L 102 161 L 101.5 159 L 95 159 L 95 161 L 91 161 Q 92.1 163.7 89.5 163 L 88 166 L 86 166 Q 87.3 171.3 84 170.5 L 84 180 Q 87.7 178.7 86 184.5 L 85 184.5 L 83 180.5 L 83 169.5 L 85 165 L 88 163.5 L 88 162 L 90 162 Q 88.9 159.3 91.5 160 L 94.5 158 Z " /><path fill="rgb(247,48,46)" stroke="rgb(247,48,46)" stroke-width="1" opacity="0.996078431372549" d="M 109.5 162 L 111.5 165 Q 113.8 164.3 113 166.5 L 115 169.5 L 115 180.5 Q 112.3 181.6 113 185 L 110 186.5 Q 110.8 188.8 108.5 188 L 103 191 L 103 189 L 107 189 L 107 187 Q 109.7 188.1 109 185.5 L 112 184 Q 110.8 178.7 114 179.5 L 114 170.5 L 109 163.5 L 109.5 162 Z " /><path fill="rgb(247,48,46)" stroke="rgb(247,48,46)" stroke-width="1" opacity="0.996078431372549" d="M 87.5 184 L 88.5 186 Q 85.7 186.7 87.5 184 Z " /><path fill="rgb(247,48,46)" stroke="rgb(247,48,46)" stroke-width="1" opacity="0.996078431372549" d="M 88.5 187 Q 92.3 186 91 189 L 95 189 L 95 191 L 88.5 188 L 88.5 187 Z " /><path fill="rgb(248,49,47)" stroke="rgb(248,49,47)" stroke-width="1" opacity="1" d="M 88.5 10 L 89.5 11 L 104.5 11 L 106.5 12 L 108.5 11 L 108.5 12 L 107 12.5 L 121 14 L 121 16 L 125 16 Q 123.8 19 127.5 18 L 133 21.5 Q 132.3 23.8 134.5 23 L 136 22.5 L 135 23.5 L 140 28.5 Q 139.3 30.8 141.5 30 L 143 29.5 L 142 32 L 147 34.5 L 146 36.5 L 149 44 L 151.5 43 L 151 44.5 L 151.5 49 L 153 48.5 L 152.5 50 L 154 50.5 L 153 51.5 L 153 60 L 155 60.5 L 155 71 L 153 71.5 L 153 79.5 L 154 81.5 L 152.5 81 Q 149.8 80.4 151 86.5 L 151.5 88 L 149 87 Q 150.1 93.2 146 95.5 L 146.5 97 Q 141.9 95.7 144 101.5 Q 141.5 99.7 139 104.5 Q 139.7 107.1 137 106 L 137 108 L 133 108 L 133 111 L 128.5 111 L 128 113 L 125.5 113 L 124.5 116 L 121 115 L 119.5 118 L 117.5 118 Q 114.9 117.2 116 120.5 L 117 121.5 L 117 130.5 L 114 132 L 114 139 Q 111 138 112 141 L 109 141 L 109 142.5 L 109.5 144 L 107 143 L 106.5 146 L 105.5 145 L 94.5 145 L 92.5 146 L 93 144.5 Q 93.9 141.1 88.5 143 L 87.5 140 L 86 140.5 L 85.5 138 L 84 138.5 L 84 106.5 L 86 106 L 86 103.5 L 89 98.5 Q 86.8 97.2 89.5 96 L 91.5 96 L 95 96 L 95 94 Q 98.8 95.5 98 92.5 L 97.5 91 L 102.5 92 L 102.5 90 Q 109.5 91.5 109 88.5 L 112.5 87 L 114 87 L 114 85 Q 116.7 86.1 116 83.5 L 115.5 82 L 118 83 L 119 80.5 L 118.5 79 L 121 80 L 121 73.5 L 123 72.5 L 123 57 L 121 57 L 121 53 Q 118 54.3 119 50.5 L 118 48 L 115.5 49 L 116 47.5 Q 116.8 45.3 114.5 46 L 110.5 42 L 103.5 41 L 101.5 42 L 97.5 41 L 93.5 42 L 89.5 41 L 86 42 L 86 44 Q 83.3 42.9 84 45.5 L 84.5 47 L 82 46 Q 83 49 80 48 L 80 50.5 L 79 52.5 Q 81.3 53.7 78.5 55 L 77 55.5 L 77 64 L 75 64 L 75 69 Q 72.3 67.9 73 70.5 Q 71.8 73 68 72 L 68 74 L 63 74 L 63 75.5 L 63.5 77 L 59.5 76 L 58 76.5 L 59 74 L 52.5 73 L 51 73.5 Q 53.3 72.3 50.5 71 L 47.5 69 L 46 69.5 L 47 66.5 L 45 66.5 L 45 64.5 L 45 51.5 L 47 51 Q 45.5 44.7 49 45.5 L 49 41.5 L 52 37.5 Q 49.8 36.3 52.5 35 L 56 34 L 59 28 L 63 27 L 63 25 Q 65.7 26.1 65 23.5 L 66.5 20 L 68.5 20 Q 72.9 21.5 72 18.5 L 73 16 L 78.5 16 L 79 14.5 L 78.5 13 L 83.5 14 L 89 13 L 88.5 10 Z " /><path fill="rgb(248,49,47)" stroke="rgb(248,49,47)" stroke-width="1" opacity="1" d="M 102.5 158 L 102 159.5 Q 101.1 162.9 106.5 161 L 109 162 L 109.5 164 L 111 163.5 Q 108.5 165 112 166.5 L 114 170.5 L 114 180 L 112 180 L 112 184 L 110.5 184 L 109 187 Q 106 186 107 189 L 103 189 L 102.5 191 L 95 191 L 95 189 L 91 189 Q 92.3 186 88.5 187 L 87.5 184 L 86 184.5 Q 87.3 178.5 84 179.5 L 84 170 L 86 170 L 86 166 Q 88.7 167.1 88 164.5 L 87.5 163 L 89.5 163 Q 92.1 163.7 91 161 L 95 161 L 95 159 L 101.5 159 L 102.5 158 Z " /><path fill="rgb(251,10,10)" stroke="rgb(251,10,10)" stroke-width="1" opacity="0.054901960784313725" d="M 154.5 43 L 155 45.5 L 154 45.5 L 154.5 43 Z " /><path fill="rgb(251,10,10)" stroke="rgb(251,10,10)" stroke-width="1" opacity="0.054901960784313725" d="M 154.5 85 L 155 87.5 L 154 87.5 L 154.5 85 Z " /><path fill="rgb(251,10,10)" stroke="rgb(251,10,10)" stroke-width="1" opacity="0.054901960784313725" d="M 80.5 107 L 81 135.5 L 80 135.5 L 80.5 107 Z " /><path fill="rgb(251,10,10)" stroke="rgb(251,10,10)" stroke-width="1" opacity="0.054901960784313725" d="M 80.5 171 L 81 178.5 L 80 178.5 L 80.5 171 Z " /><path fill="rgb(251,10,10)" stroke="rgb(251,10,10)" stroke-width="1" opacity="0.054901960784313725" d="M 117.5 171 L 118 178.5 L 117 178.5 L 117.5 171 Z " /><path fill="rgb(227,148,147)" stroke="rgb(227,148,147)" stroke-width="1" opacity="0.20392156862745098" d="M 86 7 L 107.5 7 L 109.5 9 L 117 9 Q 118.1 11.7 115.5 11 L 114.5 10 L 106 10 L 105.5 8 L 90.5 8 L 88.5 10 Q 83.1 9.4 81 11 L 81 9 L 86 9 L 86 7 Z " /><path fill="rgb(227,148,147)" stroke="rgb(227,148,147)" stroke-width="1" opacity="0.20392156862745098" d="M 75 11 Q 79.1 9.7 78 13 Q 73.9 14.3 75 11 Z " /><path fill="rgb(227,148,147)" stroke="rgb(227,148,147)" stroke-width="1" opacity="0.20392156862745098" d="M 120.5 11 L 131 14 L 131 16 L 135 16 L 135 18 Q 137.7 16.9 137 19.5 L 144 25 L 144 27 Q 146.7 25.9 146 28.5 L 149 30 L 149 34 Q 152 32.8 151 36.5 Q 154.2 38.3 154 43.5 L 152 42.5 L 147 31 L 145 31 L 145 29 L 143 29 L 143 27 Q 140.3 28.1 141 25.5 L 138 24 Q 139.1 21.3 136.5 22 L 132 19 L 132 17 Q 127.9 18.3 129 15 L 125 15 Q 126.3 12 122.5 13 L 120.5 11 Z " /><path fill="rgb(227,148,147)" stroke="rgb(227,148,147)" stroke-width="1" opacity="0.20392156862745098" d="M 70.5 13 Q 74.3 12 73 15 L 67 17 Q 68.1 19.7 65.5 19 L 64 22 L 62 22 L 62 24 L 60 24 Q 61.1 26.7 58.5 26 L 55 31 L 53 31 L 53 33 Q 50.3 31.9 51 34.5 L 48 40 Q 44.3 38.6 46 44.5 L 43 46 L 45 42.5 L 45 38.5 L 47.5 36 L 49 36 L 49 32 Q 51.7 33.1 51 30.5 L 54 29 L 54 27 L 56 27 L 56 25 Q 58.7 26.1 58 23.5 L 63 20 L 65 16 L 67.5 16 L 70.5 13 Z " /><path fill="rgb(227,148,147)" stroke="rgb(227,148,147)" stroke-width="1" opacity="0.20392156862745098" d="M 97.5 43 L 101 43.5 L 97.5 44 L 97.5 43 Z " /><path fill="rgb(227,148,147)" stroke="rgb(227,148,147)" stroke-width="1" opacity="0.20392156862745098" d="M 104 43 Q 107 42 106 45 L 111 45 L 111 47 L 113 47 L 113 49 Q 115.7 47.9 115 50.5 L 120 58.5 L 120 71.5 L 118 72.5 L 119 60.5 L 113.5 51 Q 111.3 51.8 112 49.5 Q 110.4 44.8 104 46 L 104 43 Z " /><path fill="rgb(227,148,147)" stroke="rgb(227,148,147)" stroke-width="1" opacity="0.20392156862745098" d="M 90.5 44 L 93 44.5 L 89 46 Q 90.1 48.7 87.5 48 L 86 51 L 84 51 L 84 55 L 82 55 Q 83.3 59.1 80 58 L 81 52 L 83 52 L 83 49 L 85 49 L 87 45 L 89.5 45 L 90.5 44 Z " /><path fill="rgb(227,148,147)" stroke="rgb(227,148,147)" stroke-width="1" opacity="0.20392156862745098" d="M 154 46 Q 157.3 44.9 156 49 Q 152.7 50.1 154 46 Z " /><path fill="rgb(227,148,147)" stroke="rgb(227,148,147)" stroke-width="1" opacity="0.20392156862745098" d="M 43.5 47 L 44 51.5 L 42.5 56 L 42 48.5 L 43.5 47 Z " /><path fill="rgb(227,148,147)" stroke="rgb(227,148,147)" stroke-width="1" opacity="0.20392156862745098" d="M 156 57 L 158 57.5 L 158 74 Q 155 75.3 156 71.5 L 157 70.5 L 157 60.5 L 156 57 Z " /><path fill="rgb(227,148,147)" stroke="rgb(227,148,147)" stroke-width="1" opacity="0.20392156862745098" d="M 79.5 64 L 80 66.5 L 79 72 L 77 72 L 75 76 L 72.5 76 L 70.5 78 L 63.5 79 L 64.5 77 L 68.5 77 L 69 75 L 71.5 75 L 76 72 Q 75 69 78 70 L 78 65.5 L 79.5 64 Z " /><path fill="rgb(227,148,147)" stroke="rgb(227,148,147)" stroke-width="1" opacity="0.20392156862745098" d="M 42.5 65 L 44 69 Q 40.2 70.2 42.5 65 Z " /><path fill="rgb(227,148,147)" stroke="rgb(227,148,147)" stroke-width="1" opacity="0.20392156862745098" d="M 44 70 L 46 70 Q 44.9 72.7 47.5 72 Q 48.8 75.8 53 75 Q 51.6 78.7 57.5 77 L 59 79.5 L 57.5 79 L 51 78 L 51 76 L 47 76 L 47 74 Q 44.3 75.1 45 72.5 L 44 70 Z " /><path fill="rgb(227,148,147)" stroke="rgb(227,148,147)" stroke-width="1" opacity="0.20392156862745098" d="M 116 76 Q 119 74.8 118 78.5 L 113 82 L 111 86 L 108.5 86 L 105 87 L 105 85 L 109 85 L 109 83 Q 111.7 84.1 111 81.5 L 114 80 L 116 76 Z " /><path fill="rgb(227,148,147)" stroke="rgb(227,148,147)" stroke-width="1" opacity="0.20392156862745098" d="M 154 82 Q 157.3 80.9 156 85 Q 152.7 86.1 154 82 Z " /><path fill="rgb(227,148,147)" stroke="rgb(227,148,147)" stroke-width="1" opacity="0.20392156862745098" d="M 100.5 87 L 104 87.5 Q 103.3 89.8 99.5 89 L 100.5 87 Z " /><path fill="rgb(227,148,147)" stroke="rgb(227,148,147)" stroke-width="1" opacity="0.20392156862745098" d="M 152 88 Q 154.7 86.9 154 89.5 L 153 95 L 149 97 L 149 101 Q 146 99.8 147 103.5 L 140 109 L 140 111 L 137 111 L 135 115 L 132.5 115 L 129 116 Q 127.8 113 131.5 114 L 139 108.5 L 145 101.5 L 150 93 L 152 93 L 152 88 Z " /><path fill="rgb(227,148,147)" stroke="rgb(227,148,147)" stroke-width="1" opacity="0.20392156862745098" d="M 95.5 89 Q 98.1 88.3 97 91 L 90 93 Q 91.1 95.7 88.5 95 L 87 98 Q 84 96.8 85 100.5 L 81.5 107 L 81 103.5 L 84 96 L 86 96 L 88 92 L 90.5 92 L 95.5 89 Z " /><path fill="rgb(227,148,147)" stroke="rgb(227,148,147)" stroke-width="1" opacity="0.20392156862745098" d="M 126.5 116 Q 129.1 115.3 128 118 L 125 117.5 L 126.5 116 Z " /><path fill="rgb(227,148,147)" stroke="rgb(227,148,147)" stroke-width="1" opacity="0.20392156862745098" d="M 122.5 118 Q 125.1 117.3 124 120 L 121 120 Q 122.1 122.7 119.5 122 Q 116.5 120.5 119.5 119 L 122.5 118 Z " /><path fill="rgb(227,148,147)" stroke="rgb(227,148,147)" stroke-width="1" opacity="0.20392156862745098" d="M 118.5 131 L 119 136 Q 116 137.3 117 133.5 L 118.5 131 Z " /><path fill="rgb(227,148,147)" stroke="rgb(227,148,147)" stroke-width="1" opacity="0.20392156862745098" d="M 81.5 136 L 83 140 Q 85.7 138.9 85 141.5 L 89 144 L 89 146 Q 93.1 144.7 92 148 Q 84.7 146.6 81 140.5 L 81.5 136 Z " /><path fill="rgb(227,148,147)" stroke="rgb(227,148,147)" stroke-width="1" opacity="0.20392156862745098" d="M 116.5 139 L 117 142.5 Q 114.9 146.1 110 146 Q 111.3 149 107.5 148 L 108.5 146 Q 111.1 146.7 110 144 L 113 144 L 113 142 Q 115.7 143.1 115 140.5 L 116.5 139 Z " /><path fill="rgb(227,148,147)" stroke="rgb(227,148,147)" stroke-width="1" opacity="0.20392156862745098" d="M 93.5 155 L 95.5 156 L 99.5 155 L 99.5 156 L 90 158 Q 91.1 160.7 88.5 160 L 85 165 Q 82 163.8 83 167.5 L 81 168.5 L 82 163 L 84 163 L 84 161 L 86 161 L 88 157 L 90.5 157 L 93.5 155 Z " /><path fill="rgb(227,148,147)" stroke="rgb(227,148,147)" stroke-width="1" opacity="0.20392156862745098" d="M 102.5 155 Q 104.8 158 110 157 L 110 159 L 112 159 L 112 161 Q 114.7 159.9 114 162.5 Q 117.6 164.4 117 169 L 115 169 L 115 165 Q 112.3 166.1 113 163.5 L 106.5 158 L 102 158 L 102.5 155 Z " /><path fill="rgb(227,148,147)" stroke="rgb(227,148,147)" stroke-width="1" opacity="0.20392156862745098" d="M 81 181 L 83 181 L 83 185 L 84.5 185 L 86 188 L 88 188 Q 86.9 190.7 89.5 190 Q 93.3 194.2 102.5 193 L 110 190 L 110 188 Q 112.7 189.1 112 186.5 Q 115.7 185.2 115 181 Q 118 179.8 117 183.5 L 114 189 L 109.5 192 L 107 192 L 106.5 194 L 91 194 Q 92.3 191 88.5 192 Q 81.6 188.9 81 181 Z " /></svg>