<svg width="200" height="200" version="1.1" xmlns="http://www.w3.org/2000/svg" desc="Created with imagetracer.js version 1.2.6" ><path fill="rgb(0,0,0)" stroke="rgb(0,0,0)" stroke-width="1" opacity="0" d="M 0 0 L 200 0 L 200 200 L 0 200 L 0 0 Z M 140 11 L 140 37 L 138 39 Q 140 44 136 43 Q 137 50 133 53 L 133 55 L 129 57 L 128 60 Q 125 59 126 62 L 124 62 L 124 64 L 122 64 L 122 66 L 117 69 Q 114 68 115 71 L 113 71 L 112 75 L 107 78 L 103 75 L 103 70 L 101 66 L 93 66 L 92 68 L 89 69 Q 86 68 87 71 L 85 71 L 85 73 L 83 73 Q 81 77 82 85 L 87 85 L 92 91 L 89 96 L 85 96 Q 86 93 83 94 Q 80 91 81 85 L 71 85 L 68 88 Q 69 90 66 89 L 66 91 L 65 91 L 60 97 Q 59 102 61 104 Q 69 104 72 110 L 71 112 L 69 113 Q 65 112 66 115 L 64 114 Q 65 111 62 112 L 62 110 L 60 110 L 60 103 L 51 103 L 50 105 L 45 109 Q 46 111 43 110 L 43 112 L 41 113 L 41 122 L 46 122 L 52 127 L 50 131 Q 47 130 48 133 L 38 141 Q 39 143 36 142 L 36 144 L 31 148 Q 32 150 29 149 L 29 151 L 26 151 L 24 154 L 22 155 L 21 154 L 11 154 L 9 159 Q 7 167 11 171 L 11 173 L 15 175 L 15 177 L 17 177 L 19 180 Q 21 179 20 182 L 22 182 L 23 184 L 37 184 L 38 172 L 44 168 Q 43 165 46 166 L 46 164 L 48 164 Q 47 167 50 169 Q 48 174 52 173 L 55 179 Q 54 181 57 180 L 57 182 L 59 182 L 59 184 L 61 184 L 61 186 Q 66 186 69 189 Q 72 188 71 191 L 101 191 Q 100 188 104 189 L 104 187 L 108 189 L 120 189 L 120 178 Q 123 178 122 175 L 124 175 L 128 170 L 134 172 L 139 170 L 141 170 L 141 158 Q 144 158 143 155 L 148 152 L 161 152 L 161 137 L 164 132 Q 163 128 166 129 L 166 102 L 164 101 Q 165 92 159 90 L 159 87 L 157 87 L 157 85 Q 154 86 155 84 L 146 78 L 143 78 L 145 74 Q 149 75 151 71 Q 156 72 156 69 L 164 69 L 164 67 L 180 67 L 182 69 L 192 69 L 194 67 Q 196 55 189 53 L 189 50 L 185 48 L 182 43 Q 179 44 180 41 L 178 41 L 175 36 Q 172 37 173 34 L 171 34 L 171 30 L 168 29 Q 169 26 166 27 L 166 25 L 164 25 L 164 23 L 161 22 Q 162 19 159 20 L 159 18 L 157 18 L 157 16 L 154 15 L 152 11 L 140 11 Z " /><path fill="rgb(0,0,0)" stroke="rgb(0,0,0)" stroke-width="1" opacity="0" d="M 124 97 L 134.5 97 L 135 98.5 L 140 102 L 140 104 Q 142.7 102.9 142 105.5 Q 146.3 107 145 113 Q 148.7 111.8 147 117 L 143 119 L 143 117 Q 140.3 118.1 141 115.5 L 136 112 L 136 110 Q 133.3 111.1 134 108.5 L 129 105 Q 130 102 127 103 L 127 99 Q 122.9 100.3 124 97 Z " /><path fill="rgb(0,0,0)" stroke="rgb(0,0,0)" stroke-width="1" opacity="0" d="M 107.5 109 L 112 111 Q 111.9 115.9 115.5 118 L 117 118 L 117 120 Q 119.7 118.9 119 121.5 L 124 125 L 124 127 Q 126.7 125.9 126 128.5 L 131 132 Q 129.9 134.7 132.5 134 L 132.5 135 L 125 140 L 121.5 135 Q 118.9 135.7 120 133 L 118 133 L 118 131.5 L 113 128 L 113 126 Q 110.3 127.1 111 124.5 Q 107.2 123.2 108 119 L 106 119 L 106 117 Q 103.3 118.1 104 115.5 L 103 113.5 L 104 111 L 107.5 109 Z " /><path fill="rgb(0,0,0)" stroke="rgb(0,0,0)" stroke-width="1" opacity="0" d="M 87 127 Q 89.7 125.9 89 128.5 L 96 134 L 99.5 141 L 101 141 L 101 143 L 103 143 L 103 145 Q 105.7 143.9 105 146.5 L 108 148 L 108 150 L 110 150 L 112 154 L 110 154 L 110 156 L 108 156 Q 109.1 158.7 106.5 158 L 104.5 159 L 98.5 151 Q 95.9 151.7 97 149 L 95 149 L 95 147.5 L 88 142 L 85 137.5 L 85 135 Q 81.3 136.2 83 131 L 85 131 L 87 127 Z " /><path fill="rgb(0,0,0)" stroke="rgb(0,0,0)" stroke-width="1" opacity="0" d="M 67 147 L 71 148 L 71 152 L 73 152 Q 71.9 154.7 74.5 154 L 76 157 L 78 157 L 78 159 L 80 159 L 80 161 L 82 161 Q 80.9 163.7 83.5 163 L 85 166 L 87 166 L 89 170 Q 86 169 87 172 L 83 172 Q 84.3 168.3 78.5 170 L 69 160.5 L 69 158 L 67 157.5 L 67 147 Z " /><path fill="rgb(253,178,57)" stroke="rgb(253,178,57)" stroke-width="1" opacity="0.8313725490196079" d="M 143.5 12 Q 148.9 11.4 151 13 L 151 15 L 153 15 L 153 17 Q 155.7 15.9 155 18.5 L 160 22 L 172 38 L 174 38 L 174 40 Q 176.7 38.9 176 41.5 L 181 45 L 181 47 Q 183.7 45.9 183 48.5 L 194 62.5 L 192 66 L 188.5 68 L 185.5 68 L 181.5 66 L 179.5 66 Q 170 64.5 164.5 67 L 162.5 66 L 159.5 68 L 153.5 68 Q 152.8 70.8 148.5 70 L 140 76.5 L 139.5 78 L 139 75.5 L 148.5 68 Q 153.5 69 154.5 66 Q 162.2 67.2 165.5 64 L 178.5 64 Q 182.8 67 190 66 L 192 61.5 Q 187 58 186 52 L 183 50.5 L 183 49 L 181 49 L 181 47 L 179 47 Q 180.1 44.3 177.5 45 L 176 42 L 174 42 L 174 40 L 172 40 L 172 38 Q 169.3 39.1 170 36.5 L 167 31 L 160 25.5 Q 160.7 22.9 158 24 L 158 22 L 156.5 22 L 153 17 L 151 17 Q 152.1 14.3 149.5 15 L 145.5 13 L 143 14 L 143 34.5 L 142 39.5 L 139 45.5 L 139 49.5 L 131.5 61 L 130 61 L 130 63 Q 127.3 61.9 128 64.5 L 123 68 Q 124 71 121 70 Q 119.9 67.3 122.5 68 L 128 61 L 130 61 Q 128.9 58.3 131.5 59 L 135 53.5 L 135 51 Q 138.7 52.4 137 46.5 Q 143.4 35.4 141 15.5 L 143.5 12 Z " /><path fill="rgb(253,178,57)" stroke="rgb(253,178,57)" stroke-width="1" opacity="0.8313725490196079" d="M 119.5 70 L 120 72 L 118 72 L 118 74 L 116 74 Q 117.1 76.7 114.5 76 L 113 79 L 111 79 Q 112.1 81.7 109.5 81 L 106.5 83 L 106 81 L 109 81 L 109 79 L 111 79 Q 109.9 76.3 112.5 77 L 114 74 L 116 74 Q 114.9 71.3 117.5 72 L 119.5 70 Z " /><path fill="rgb(253,178,57)" stroke="rgb(253,178,57)" stroke-width="1" opacity="0.8313725490196079" d="M 144.5 81 L 153 84 L 154 87.5 L 153 87.5 Q 153.7 84.9 151 86 L 151 84 L 148.5 84 L 144.5 82 L 144.5 81 Z " /><path fill="rgb(253,178,57)" stroke="rgb(253,178,57)" stroke-width="1" opacity="0.8313725490196079" d="M 155.5 88 L 158 93 Q 160.7 91.9 160 94.5 L 164 100.5 L 166 107.5 L 166 122.5 L 162 133 Q 159 134.3 160 130.5 L 163 126.5 L 164 107.5 L 160 95 Q 157.3 96.1 158 93.5 Q 153.7 91.6 155.5 88 Z " /><path fill="rgb(253,178,57)" stroke="rgb(253,178,57)" stroke-width="1" opacity="0.8313725490196079" d="M 95 90 Q 98.3 88.9 97 93 L 95 93 L 95 95 L 93 95 Q 94.1 97.7 91.5 97 L 90 100 L 86.5 101 L 86.5 100 Q 88.8 100.8 88 98.5 L 91 97 L 91 95 L 95 93 L 95 90 Z " /><path fill="rgb(253,178,57)" stroke="rgb(253,178,57)" stroke-width="1" opacity="0.8313725490196079" d="M 127.5 93 L 130 93.5 L 127.5 94 L 127.5 93 Z " /><path fill="rgb(253,178,57)" stroke="rgb(253,178,57)" stroke-width="1" opacity="0.8313725490196079" d="M 134.5 95 L 137 95.5 L 134.5 96 L 134.5 95 Z " /><path fill="rgb(253,178,57)" stroke="rgb(253,178,57)" stroke-width="1" opacity="0.8313725490196079" d="M 142.5 100 L 143.5 102 Q 140.7 102.7 142.5 100 Z " /><path fill="rgb(253,178,57)" stroke="rgb(253,178,57)" stroke-width="1" opacity="0.8313725490196079" d="M 144 103 Q 146.7 101.9 146 104.5 L 148 106.5 L 149 118.5 L 148 123 Q 145.3 124.1 146 121.5 L 148 117.5 L 147 113.5 L 148 111.5 Q 145.2 109.5 146 105 Q 143 106 144 103 Z " /><path fill="rgb(253,178,57)" stroke="rgb(253,178,57)" stroke-width="1" opacity="0.8313725490196079" d="M 107.5 104 Q 109.8 103.3 109 105.5 L 107 105.5 L 107 107 L 105 107 Q 106.1 109.7 103.5 109 L 102 112 L 98 114 L 98 112 L 100 112 Q 98.9 109.3 101.5 110 L 103 107 L 105 107 Q 103.9 104.3 106.5 105 L 107.5 104 Z " /><path fill="rgb(253,178,57)" stroke="rgb(253,178,57)" stroke-width="1" opacity="0.8313725490196079" d="M 126.5 106 L 130 108.5 L 128 109 Q 129.1 106.3 126.5 107 L 126.5 106 Z " /><path fill="rgb(253,178,57)" stroke="rgb(253,178,57)" stroke-width="1" opacity="0.8313725490196079" d="M 75 109 L 77 109.5 L 73.5 114 Q 70.9 113.3 72 116 L 70 116 Q 68.9 113.3 71.5 114 L 75 109 Z " /><path fill="rgb(253,178,57)" stroke="rgb(253,178,57)" stroke-width="1" opacity="0.8313725490196079" d="M 68.5 116 L 69 118 L 65.5 120 L 65 118 L 68.5 116 Z " /><path fill="rgb(253,178,57)" stroke="rgb(253,178,57)" stroke-width="1" opacity="0.8313725490196079" d="M 86.5 123 Q 89.1 122.3 88 125 L 84 126 L 84 128 L 82 128 L 82 130 Q 79.3 128.9 80 131.5 L 77.5 133 L 80 129.5 L 80 128 L 82 128 Q 80.9 125.3 83.5 126 L 86.5 123 Z " /><path fill="rgb(253,178,57)" stroke="rgb(253,178,57)" stroke-width="1" opacity="0.8313725490196079" d="M 55.5 128 L 56 129.5 L 53 134 L 49.5 135 L 49.5 134 L 52.5 132 L 55.5 128 Z " /><path fill="rgb(253,178,57)" stroke="rgb(253,178,57)" stroke-width="1" opacity="0.8313725490196079" d="M 95.5 130 L 97.5 133 L 95.5 130 Z " /><path fill="rgb(253,178,57)" stroke="rgb(253,178,57)" stroke-width="1" opacity="0.8313725490196079" d="M 134.5 132 Q 138.8 133.8 136 135.5 L 136 137 L 134 137 L 134 139 L 132 139 L 132 141 L 130 141 Q 131.1 143.7 128.5 143 L 125.5 144 L 126.5 142 L 130 141 L 130 139 L 132 139 L 132 137 Q 134.7 138.1 134 135.5 L 135 133.5 L 134.5 132 Z " /><path fill="rgb(253,178,57)" stroke="rgb(253,178,57)" stroke-width="1" opacity="0.8313725490196079" d="M 158 134 Q 161.3 132.9 160 137 Q 157.3 135.9 158 138.5 L 157 138.5 L 158 134 Z " /><path fill="rgb(253,178,57)" stroke="rgb(253,178,57)" stroke-width="1" opacity="0.8313725490196079" d="M 84.5 141 L 86.5 144 L 84.5 141 Z " /><path fill="rgb(253,178,57)" stroke="rgb(253,178,57)" stroke-width="1" opacity="0.8313725490196079" d="M 67.5 142 Q 70.1 141.3 69 144 Q 65 142.6 67 149.5 Q 64.8 150.7 66 155.5 L 67 160.5 L 70 166 L 73 167.5 Q 72.3 169.8 74.5 169 Q 78.9 174.1 90.5 172 L 93 171 Q 91.9 168.3 94.5 169 L 93 171.5 Q 93.9 174.5 89.5 173 Q 87.8 175.7 81.5 174 L 75.5 172 L 67 163.5 L 65 159.5 L 65 144.5 L 67.5 142 Z " /><path fill="rgb(253,178,57)" stroke="rgb(253,178,57)" stroke-width="1" opacity="0.8313725490196079" d="M 159.5 142 L 160 147 Q 156.7 148.3 158 143.5 L 159.5 142 Z " /><path fill="rgb(253,178,57)" stroke="rgb(253,178,57)" stroke-width="1" opacity="0.8313725490196079" d="M 34.5 148 L 32.5 151 L 34.5 148 Z " /><path fill="rgb(253,178,57)" stroke="rgb(253,178,57)" stroke-width="1" opacity="0.8313725490196079" d="M 146.5 148 L 149 148.5 L 146 149 L 146 151 L 144 151 Q 145.1 153.7 142.5 153 L 137.5 160 L 137 156 Q 139.7 157.1 139 154.5 L 142 153 L 142 151 L 144 151 Q 142.9 148.3 145.5 149 L 146.5 148 Z " /><path fill="rgb(253,178,57)" stroke="rgb(253,178,57)" stroke-width="1" opacity="0.8313725490196079" d="M 113.5 150 Q 116.8 151.2 116 155 Q 113.3 153.9 114 156.5 L 111 158 L 111 160 L 109 160 Q 110.1 162.7 107.5 162 L 104.5 164 L 104 162 L 107 162 L 107 160 L 109 160 Q 107.9 157.3 110.5 158 L 112 155 Q 115.3 156.3 114 151.5 L 113.5 150 Z " /><path fill="rgb(253,178,57)" stroke="rgb(253,178,57)" stroke-width="1" opacity="0.8313725490196079" d="M 151.5 150 L 156 150.5 L 151.5 151 L 151.5 150 Z " /><path fill="rgb(253,178,57)" stroke="rgb(253,178,57)" stroke-width="1" opacity="0.8313725490196079" d="M 48.5 160 L 49 162 Q 52.3 160.7 51 165.5 L 56 173.5 L 56 176 L 58 176 Q 56.9 178.7 59.5 178 L 61 181 Q 64 180 63 183 L 65.5 183 L 73.5 188 L 97.5 188 Q 101 184.5 107.5 184 L 108.5 186 L 105 185 Q 106.3 188.3 101.5 187 L 96.5 190 L 75.5 190 L 66.5 185 L 63 185 L 63 183 Q 60.3 184.1 61 181.5 L 56 178 L 51 169.5 L 48.5 160 Z " /><path fill="rgb(253,178,57)" stroke="rgb(253,178,57)" stroke-width="1" opacity="0.8313725490196079" d="M 127.5 166 L 124.5 170 L 117.5 176 L 119 173.5 L 119 172 L 121 172 Q 119.9 169.3 122.5 170 L 124 167 L 127.5 166 Z " /><path fill="rgb(253,178,57)" stroke="rgb(253,178,57)" stroke-width="1" opacity="0.8313725490196079" d="M 118.5 180 L 119 183.5 L 118 183.5 L 118.5 180 Z " /><path fill="rgb(253,178,57)" stroke="rgb(253,178,57)" stroke-width="1" opacity="0.8313725490196079" d="M 111.5 187 L 114 187.5 L 111.5 188 L 111.5 187 Z " /><path fill="rgb(254,175,46)" stroke="rgb(254,175,46)" stroke-width="1" opacity="0.996078431372549" d="M 148.5 14 L 151 15 L 156.5 22 L 158 22.5 L 155 23 L 148.5 14 Z " /><path fill="rgb(254,175,46)" stroke="rgb(254,175,46)" stroke-width="1" opacity="0.996078431372549" d="M 157.5 24 Q 160.8 22.9 160 25.5 L 161.5 28 L 157.5 24 Z " /><path fill="rgb(254,175,46)" stroke="rgb(254,175,46)" stroke-width="1" opacity="0.996078431372549" d="M 163.5 29 L 167 31 L 168 33.5 L 165.5 32 Q 163.3 32.8 164 30.5 L 163.5 29 Z " /><path fill="rgb(254,175,46)" stroke="rgb(254,175,46)" stroke-width="1" opacity="0.996078431372549" d="M 142.5 35 L 143 40.5 L 142 40.5 L 142.5 35 Z " /><path fill="rgb(254,175,46)" stroke="rgb(254,175,46)" stroke-width="1" opacity="0.996078431372549" d="M 168.5 35 L 169.5 37 Q 166.7 37.7 168.5 35 Z " /><path fill="rgb(254,175,46)" stroke="rgb(254,175,46)" stroke-width="1" opacity="0.996078431372549" d="M 170.5 38 Q 172.8 37.3 172 39.5 L 173.5 42 L 170.5 38 Z " /><path fill="rgb(254,175,46)" stroke="rgb(254,175,46)" stroke-width="1" opacity="0.996078431372549" d="M 140.5 43 L 141 46 L 139 45.5 L 140.5 43 Z " /><path fill="rgb(254,175,46)" stroke="rgb(254,175,46)" stroke-width="1" opacity="0.996078431372549" d="M 178.5 45 L 181.5 49 L 183 49.5 L 181.5 50 L 178 46.5 L 178.5 45 Z " /><path fill="rgb(254,175,46)" stroke="rgb(254,175,46)" stroke-width="1" opacity="0.996078431372549" d="M 139.5 47 L 140 51 Q 137.3 49.9 138 52.5 L 137 52.5 L 139.5 47 Z " /><path fill="rgb(254,175,46)" stroke="rgb(254,175,46)" stroke-width="1" opacity="0.996078431372549" d="M 135.5 56 L 136 59 L 133 60.5 L 133 62 L 131 62 L 131 64 L 129 64 Q 130.1 66.7 127.5 66 L 125.5 69 L 125 67.5 L 128 63 L 130 63 Q 128.9 60.3 131.5 61 L 135.5 56 Z " /><path fill="rgb(254,175,46)" stroke="rgb(254,175,46)" stroke-width="1" opacity="0.996078431372549" d="M 187.5 57 L 190 58.5 L 189.5 60 L 189 58 L 187.5 57 Z " /><path fill="rgb(254,175,46)" stroke="rgb(254,175,46)" stroke-width="1" opacity="0.996078431372549" d="M 161.5 64 L 165 64.5 Q 161.6 67.1 154.5 66 L 151.5 68 L 152 66.5 L 152.5 65 L 160.5 65 L 161.5 64 Z " /><path fill="rgb(254,175,46)" stroke="rgb(254,175,46)" stroke-width="1" opacity="0.996078431372549" d="M 179.5 64 L 188.5 65 L 190 64.5 Q 188.8 67.3 183.5 66 L 179.5 65 L 179.5 64 Z " /><path fill="rgb(254,175,46)" stroke="rgb(254,175,46)" stroke-width="1" opacity="0.996078431372549" d="M 147.5 67 L 148 68.5 L 145 70.5 L 147.5 67 Z " /><path fill="rgb(254,175,46)" stroke="rgb(254,175,46)" stroke-width="1" opacity="0.996078431372549" d="M 120.5 70 L 124 70.5 L 120.5 71 L 120.5 70 Z " /><path fill="rgb(254,175,46)" stroke="rgb(254,175,46)" stroke-width="1" opacity="0.996078431372549" d="M 141 71 L 144 71.5 L 139 75.5 L 139 79 Q 136.3 77.9 137 80.5 L 132 84 Q 133.1 86.7 130.5 86 L 119 96.5 L 117.5 99 L 114 100 L 114 102 Q 111.3 100.9 112 103.5 L 109.5 105 L 106.5 104 L 104.5 107 L 104 104 L 108 103 Q 106.8 100 110.5 101 L 117 96 L 117 94 Q 119.7 95.1 119 92.5 L 124 89 L 126 85 L 129 85 L 129 83 L 131 83 Q 129.9 80.3 132.5 81 L 136 76 L 138 76 Q 136.9 73.3 139.5 74 L 141 71 Z " /><path fill="rgb(254,175,46)" stroke="rgb(254,175,46)" stroke-width="1" opacity="0.996078431372549" d="M 119.5 72 L 118.5 74 L 119.5 72 Z " /><path fill="rgb(254,175,46)" stroke="rgb(254,175,46)" stroke-width="1" opacity="0.996078431372549" d="M 114.5 76 L 115 78 L 113 77.5 L 114.5 76 Z " /><path fill="rgb(254,175,46)" stroke="rgb(254,175,46)" stroke-width="1" opacity="0.996078431372549" d="M 110.5 81 L 109.5 83 L 104 85 L 100.5 90 Q 97.9 89.3 99 92 L 97 92 L 98 87 L 105.5 82 L 107.5 82 L 110.5 81 Z " /><path fill="rgb(254,175,46)" stroke="rgb(254,175,46)" stroke-width="1" opacity="0.996078431372549" d="M 154.5 89 L 158 94.5 L 156 93.5 L 155.5 92 L 152 94 Q 153.1 96.7 150.5 96 L 147 101 Q 144.3 99.9 145 102.5 L 144 102.5 L 143 100.5 L 144 98 Q 146.7 99.1 146 96.5 L 151 93 Q 149.9 90.3 152.5 91 L 154.5 89 Z " /><path fill="rgb(254,175,46)" stroke="rgb(254,175,46)" stroke-width="1" opacity="0.996078431372549" d="M 95.5 93 L 96 95.5 L 95 95.5 L 95.5 93 Z " /><path fill="rgb(254,175,46)" stroke="rgb(254,175,46)" stroke-width="1" opacity="0.996078431372549" d="M 91.5 97 L 92 99 L 90 98.5 L 91.5 97 Z " /><path fill="rgb(254,175,46)" stroke="rgb(254,175,46)" stroke-width="1" opacity="0.996078431372549" d="M 84 100 L 87.5 101 L 89.5 100 L 89 101.5 Q 89.9 104.5 85.5 103 L 81 106 L 78 112 Q 75.3 113.1 76 110.5 Q 77.4 104.4 82.5 102 Q 85.1 102.7 84 100 Z " /><path fill="rgb(254,175,46)" stroke="rgb(254,175,46)" stroke-width="1" opacity="0.996078431372549" d="M 161.5 101 L 163 103.5 L 161 104 L 161.5 101 Z " /><path fill="rgb(254,175,46)" stroke="rgb(254,175,46)" stroke-width="1" opacity="0.996078431372549" d="M 146.5 103 L 149 105.5 L 150 119.5 L 148.5 123 L 148 119.5 Q 150.8 117.7 149 111.5 L 146.5 103 Z " /><path fill="rgb(254,175,46)" stroke="rgb(254,175,46)" stroke-width="1" opacity="0.996078431372549" d="M 163.5 107 L 164 120.5 L 163 120.5 L 163.5 107 Z " /><path fill="rgb(254,175,46)" stroke="rgb(254,175,46)" stroke-width="1" opacity="0.996078431372549" d="M 102.5 108 L 101.5 110 L 102.5 108 Z " /><path fill="rgb(254,175,46)" stroke="rgb(254,175,46)" stroke-width="1" opacity="0.996078431372549" d="M 97 111 L 100 111.5 L 98 112 L 97 118 L 90.5 123 L 87 123 L 87 121 L 89 121 L 91 117 L 94 117 L 94 115 Q 96.7 116.1 96 113.5 L 97 111 Z " /><path fill="rgb(254,175,46)" stroke="rgb(254,175,46)" stroke-width="1" opacity="0.996078431372549" d="M 74.5 113 L 73 115.5 L 72.5 117 L 72 114 L 74.5 113 Z " /><path fill="rgb(254,175,46)" stroke="rgb(254,175,46)" stroke-width="1" opacity="0.996078431372549" d="M 69 116 Q 72 115 71 118 Q 68 117 69 120 L 66 120 L 66 122 L 64 122 L 64 124 L 62 124 Q 63.1 126.7 60.5 126 L 59 129 Q 56.3 127.9 57 130.5 L 55 134 Q 51.7 132.7 53 137.5 L 50 143.5 L 49 152.5 Q 51.3 153.8 50 158.5 L 50 160.5 L 49.5 162 L 49 160 L 47 159.5 L 47 143.5 L 49 141.5 L 49 137.5 L 51 134 Q 53.7 135.1 53 132.5 L 56 129.5 Q 55.3 125.8 57.5 125 L 64.5 119 Q 66 121.5 67.5 118 Q 70.1 118.7 69 116 Z " /><path fill="rgb(254,175,46)" stroke="rgb(254,175,46)" stroke-width="1" opacity="0.996078431372549" d="M 146.5 123 L 147 127 L 145 127 L 145 129 L 143 129 L 143 131 Q 140.3 129.9 141 132.5 L 138 134 Q 139.1 136.7 136.5 136 L 137 134.5 Q 135.5 130.1 138.5 131 L 140 128 L 142 128 Q 140.9 125.3 143.5 126 L 146 125 L 146.5 123 Z " /><path fill="rgb(254,175,46)" stroke="rgb(254,175,46)" stroke-width="1" opacity="0.996078431372549" d="M 161 125 Q 163.7 123.9 163 126.5 L 160.5 130 L 159 129.5 L 161 129 L 161 125 Z " /><path fill="rgb(254,175,46)" stroke="rgb(254,175,46)" stroke-width="1" opacity="0.996078431372549" d="M 78 129 L 80 129.5 L 69.5 142 Q 65.5 141.5 65 144.5 L 65 159.5 L 66 160.5 L 64 161 L 64 143.5 L 65.5 143 Q 68.8 141.8 68 138 L 71 136.5 Q 70.3 133.9 73 135 L 73 133 L 76 133 Q 75 130 78 131 L 78 129 Z " /><path fill="rgb(254,175,46)" stroke="rgb(254,175,46)" stroke-width="1" opacity="0.996078431372549" d="M 159.5 131 L 160 134 Q 157 132.8 158 136.5 L 155 144 L 153 144 Q 154.1 146.7 151.5 146 L 145.5 149 L 145 147 L 147 147 Q 145.9 144.3 148.5 145 L 152 143 L 154 138 Q 156.7 139.1 156 136.5 L 157 133 Q 159.8 134 159.5 131 Z " /><path fill="rgb(254,175,46)" stroke="rgb(254,175,46)" stroke-width="1" opacity="0.996078431372549" d="M 132.5 139 L 133 142 L 130.5 143 L 132 140.5 L 132.5 139 Z " /><path fill="rgb(254,175,46)" stroke="rgb(254,175,46)" stroke-width="1" opacity="0.996078431372549" d="M 128.5 143 L 129 145 Q 125.2 144.3 124 147.5 Q 124.8 149.8 122.5 149 L 120 150 L 120 152 L 116 154 L 117 149 L 119 149 Q 117.9 146.3 120.5 147 L 123 146 Q 121.7 142.3 127.5 144 L 128.5 143 Z " /><path fill="rgb(254,175,46)" stroke="rgb(254,175,46)" stroke-width="1" opacity="0.996078431372549" d="M 141.5 151 L 140.5 153 L 141.5 151 Z " /><path fill="rgb(254,175,46)" stroke="rgb(254,175,46)" stroke-width="1" opacity="0.996078431372549" d="M 114 155 L 117 155.5 L 114.5 157 L 114 155 Z " /><path fill="rgb(254,175,46)" stroke="rgb(254,175,46)" stroke-width="1" opacity="0.996078431372549" d="M 136.5 156 L 137 159.5 L 128.5 167 L 126 166.5 Q 124.9 163.2 127.5 164 L 130 163 L 130 161 L 133 161 Q 131.5 157.2 134.5 158 L 136.5 156 Z " /><path fill="rgb(254,175,46)" stroke="rgb(254,175,46)" stroke-width="1" opacity="0.996078431372549" d="M 111 158 L 113 158.5 L 109.5 161 L 109.5 160 Q 112.1 160.7 111 158 Z " /><path fill="rgb(254,175,46)" stroke="rgb(254,175,46)" stroke-width="1" opacity="0.996078431372549" d="M 51.5 161 L 53 167.5 L 52 167.5 L 51.5 161 Z " /><path fill="rgb(254,175,46)" stroke="rgb(254,175,46)" stroke-width="1" opacity="0.996078431372549" d="M 66.5 162 L 70 167.5 L 69 167.5 L 67 164.5 L 66.5 162 Z " /><path fill="rgb(254,175,46)" stroke="rgb(254,175,46)" stroke-width="1" opacity="0.996078431372549" d="M 107.5 162 L 108 165 L 104.5 165 Q 102 169.5 97 170 Q 98.3 173.3 93.5 172 L 96 168.5 L 96 167 L 100 167 L 100 165.5 L 103.5 163 L 105.5 163 L 107.5 162 Z " /><path fill="rgb(254,175,46)" stroke="rgb(254,175,46)" stroke-width="1" opacity="0.996078431372549" d="M 71.5 168 L 77 172.5 L 74.5 173 L 73 170 Q 69.8 171 71.5 168 Z " /><path fill="rgb(254,175,46)" stroke="rgb(254,175,46)" stroke-width="1" opacity="0.996078431372549" d="M 123.5 168 L 122.5 170 L 123.5 168 Z " /><path fill="rgb(254,175,46)" stroke="rgb(254,175,46)" stroke-width="1" opacity="0.996078431372549" d="M 53.5 170 L 57 172.5 L 55.5 173 L 53.5 170 Z " /><path fill="rgb(254,175,46)" stroke="rgb(254,175,46)" stroke-width="1" opacity="0.996078431372549" d="M 80.5 173 Q 82.3 175.7 88.5 174 L 90 173.5 L 89.5 175 L 80 175 L 80.5 173 Z " /><path fill="rgb(254,175,46)" stroke="rgb(254,175,46)" stroke-width="1" opacity="0.996078431372549" d="M 117 173 L 119 173.5 L 116 180 L 109 183 L 108.5 185 L 105.5 184 L 104 184.5 L 105.5 182 L 110 181 L 110 179 Q 113.8 180.5 113 177.5 L 117 175 L 117 173 Z " /><path fill="rgb(254,175,46)" stroke="rgb(254,175,46)" stroke-width="1" opacity="0.996078431372549" d="M 58.5 176 L 59.5 178 Q 56.7 178.7 58.5 176 Z " /><path fill="rgb(254,175,46)" stroke="rgb(254,175,46)" stroke-width="1" opacity="0.996078431372549" d="M 61.5 179 L 64.5 183 Q 61.9 183.7 63 181 L 61 181 L 61.5 179 Z " /><path fill="rgb(254,175,46)" stroke="rgb(254,175,46)" stroke-width="1" opacity="0.996078431372549" d="M 68.5 184 L 71 184.5 L 68.5 185 L 68.5 184 Z " /><path fill="rgb(254,175,46)" stroke="rgb(254,175,46)" stroke-width="1" opacity="0.996078431372549" d="M 101 184 L 103 184.5 L 101 185.5 L 101 184 Z " /><path fill="rgb(254,175,46)" stroke="rgb(254,175,46)" stroke-width="1" opacity="0.996078431372549" d="M 72.5 186 L 75.5 187 L 96.5 187 L 99.5 186 L 99.5 187 L 97.5 188 L 73.5 188 L 72.5 186 Z " /><path fill="rgb(255,176,46)" stroke="rgb(255,176,46)" stroke-width="1" opacity="1" d="M 143 14 Q 149.8 12.7 151.5 18 L 153 17.5 L 152 18.5 L 155 21.5 Q 154.2 24.1 157.5 23 L 157.5 25 L 163 28 L 164 32 L 169 34.5 L 168 37 Q 170.7 35.9 170 38.5 Q 172 42.2 174 40.5 L 173.5 42 L 176.5 44 L 179.5 48 L 181 47.5 Q 178.8 48.8 181.5 50 L 186 53.5 Q 184.9 56.8 187.5 56 L 187.5 58 Q 189.8 57.3 189 59.5 L 191 59.5 Q 192.9 64.9 189.5 64 L 189.5 66 L 183.5 64 L 161.5 64 L 160.5 65 L 152 65 L 150.5 68 L 147.5 67 L 144.5 71 Q 140.1 69.5 141 72.5 L 138 74 L 138 76 Q 135.3 74.9 136 77.5 L 131 81 L 129 85 L 126 85 L 126 87 L 124 87 Q 125.1 89.7 122.5 89 L 119 94 L 117 94 Q 118.1 96.7 115.5 96 L 110.5 101 L 108 101 Q 109.1 103.7 106.5 103 L 106.5 105 L 104 104 L 104 106.5 L 99.5 111 Q 96.2 109.9 97 112.5 L 96 115 Q 93 114 94 117 L 91 117 L 91 119 L 89 119 L 89 121 Q 86.3 119.9 87 122.5 Q 84.7 126.6 80 127 L 80 129 L 78 129 L 76 133 L 73 133 L 73 135 Q 70.3 133.9 71 136.5 L 68 138 Q 68.8 141.8 65.5 143 L 64 143.5 L 64 161 Q 67 159.8 66 163.5 L 67 166 Q 69.7 164.9 69 167.5 L 71 167.5 L 71 170 Q 73.7 168.9 73 171.5 Q 74.6 174.5 80 173 L 80.5 175 L 90 175 Q 88.8 172 92.5 173 L 97 172 Q 95.9 169.3 98.5 170 L 104.5 165 L 108 165 L 109.5 161 L 113 158.5 Q 112.3 156.3 114.5 157 L 117 155.5 L 116.5 154 L 121.5 150 L 124 149 L 126.5 145 L 129 145 Q 127.9 142.3 130.5 143 L 130.5 141 L 133 142 Q 132.3 137.3 136.5 136 L 139.5 134 L 141 131 L 143 131 L 143 129 L 147 127 L 147 123 Q 150 124.3 149 120.5 L 150 119.5 L 150 110.5 L 149 105.5 L 146.5 103 Q 143.9 103.7 145 101 Q 147.7 102.1 147 99.5 L 152 96 Q 150.9 93.3 153.5 94 L 156 92.5 L 157.5 95 L 160 95.5 L 159.5 99 L 162 100.5 L 161 104 L 163 104.5 L 163 125 L 161 125 L 161 129 L 159.5 129 L 159 131.5 Q 159.7 134.1 157 133 L 157 135.5 L 156 138 Q 153.3 136.9 154 139.5 L 152 143 L 147 145 L 147 147 Q 144.3 145.9 145 148.5 L 141 151.5 L 141.5 153 L 140 152.5 Q 140.8 154.8 138.5 154 L 138.5 156 L 133 158 L 133 161 L 130 161 Q 131.1 163.7 128.5 163 L 126 164 L 125.5 167 L 124 166.5 L 121.5 170 L 120 170.5 L 120.5 172 L 117 173 Q 118.1 175.7 115.5 175 L 113 179 L 110 179 Q 111.1 181.7 108.5 181 L 104 183.5 L 103.5 185 L 101 184 Q 102.3 187.3 97.5 186 L 96.5 187 L 75.5 187 L 70 185.5 L 70.5 184 L 67.5 185 L 66.5 182 L 65.5 183 L 61.5 179 Q 59.3 179.8 60 177.5 L 57 176 L 56 173.5 L 56.5 172 L 53 169.5 L 51.5 161 L 50 161.5 L 49 159.5 Q 51.3 158.3 50 153.5 L 49 150.5 L 53 134 Q 55.7 135.1 55 132.5 L 57 129 Q 59.7 130.1 59 127.5 L 62 126 L 62 124 L 64 124 L 66 120 L 69 120 L 69 118 Q 71.7 119.1 71 116.5 L 73 116.5 L 75 112 Q 78.8 113.5 78 110.5 L 81 106 L 85.5 103 L 89 103 L 90 99 L 92 99 Q 90.9 96.3 93.5 97 L 93.5 95 L 95.5 96 L 97.5 92 L 100.5 90 L 104 85 L 110 82.5 L 109.5 81 L 111 81.5 L 111.5 79 L 113 79.5 L 115 76.5 L 119 73.5 L 118.5 72 L 120 72.5 Q 119.1 69.5 123.5 71 L 124.5 68 L 126 68.5 L 127.5 66 L 129 66 L 129 64 L 131 64 L 131 62 Q 133.7 63.1 133 60.5 L 136 59 L 136 54.5 L 138 51 Q 141.3 52.3 140 47.5 L 139.5 46 Q 142.3 46.6 141 40.5 L 143 40.5 L 143 14 Z " /><path fill="rgb(242,222,194)" stroke="rgb(242,222,194)" stroke-width="1" opacity="0.4196078431372549" d="M 140 12 L 143 12.5 L 141 15.5 L 140.5 35 L 140 12 Z " /><path fill="rgb(242,222,194)" stroke="rgb(242,222,194)" stroke-width="1" opacity="0.4196078431372549" d="M 149.5 12 L 160 20 L 160 22 L 162 22 L 162 24 Q 164.7 22.9 164 25.5 L 167 27 L 167 29 L 171 31 L 171 34.5 L 174 36 L 174 38 L 176 38 L 176 40 Q 178.7 38.9 178 41.5 L 181 43 L 181 45 L 183 45 L 183 47 L 185 47 Q 183.9 49.7 186.5 49 L 190 56 L 194 58.5 L 193.5 61 L 183 47 L 181 47 Q 182.1 44.3 179.5 45 L 176 40 L 174 40 L 174 38 Q 171.3 39.1 172 36.5 L 160 22 L 155 18.5 L 155 17 L 153 17 L 153 15 L 151 15 Q 152.1 12.3 149.5 13 L 149.5 12 Z " /><path fill="rgb(242,222,194)" stroke="rgb(242,222,194)" stroke-width="1" opacity="0.4196078431372549" d="M 137 43 Q 139.7 41.9 139 44.5 L 137 45.5 L 137 43 Z " /><path fill="rgb(242,222,194)" stroke="rgb(242,222,194)" stroke-width="1" opacity="0.4196078431372549" d="M 135 49 Q 138 48 137 51 Q 134 52 135 49 Z " /><path fill="rgb(242,222,194)" stroke="rgb(242,222,194)" stroke-width="1" opacity="0.4196078431372549" d="M 134.5 52 L 135 53.5 L 133 54.5 L 134.5 52 Z " /><path fill="rgb(242,222,194)" stroke="rgb(242,222,194)" stroke-width="1" opacity="0.4196078431372549" d="M 132.5 56 L 133 57.5 L 130 59 L 130 61 Q 127.3 59.9 128 62.5 L 121 68 Q 122.1 70.7 119.5 70 L 116 72 L 116 74 Q 113.3 72.9 114 75.5 L 111 77 L 109 81 L 105 81 L 105 79 Q 102.3 80.1 103 77.5 L 102 75 L 100 75 L 100 70 L 98.5 70 L 95.5 69 L 88.5 74 L 86 74 L 84 82 L 90 84.5 L 95 90.5 L 95 93 L 93 93 L 93 95 L 91 95 Q 92.1 97.7 89.5 97 L 88 100 L 79 92.5 L 79 88 L 72 88 Q 73.1 90.7 70.5 90 L 67 95 L 63 97 L 63 102 Q 68.4 100.5 70 103.5 L 74 108.5 L 75 110.5 L 70 114 Q 71.1 116.7 68.5 116 L 65.5 118 L 58 112 L 58 106.5 L 56.5 106 L 54.5 106 L 49 108 L 49 111 Q 46.3 109.9 47 112.5 L 44 114 L 44 120 L 49 120 L 49 123 L 51 123 L 51 125 Q 53.7 123.9 53 126.5 L 54 129.5 L 53 132 L 47 135 Q 48.1 137.7 45.5 137 L 42 139 L 42 141 Q 39.3 139.9 40 142.5 L 37 144 L 37 146 L 35 146 L 35 148 L 33 148 Q 34.1 150.7 31.5 150 L 21.5 158 L 19 157 Q 18 154 21 155 L 21.5 157 L 22 155 L 24 155 L 26 151 L 29.5 151 L 33 146 L 35 146 L 35 144 Q 37.7 145.1 37 142.5 L 40 141 L 40 139 L 42 139 L 44 135 L 46.5 135 L 49 134 L 49 132 Q 51.7 133.1 51 130.5 L 52 127.5 L 51 125 L 49 125 L 47 121 L 42 121 L 42 112 L 45 110.5 L 45 109 L 47 109 L 47 107 L 49 107 Q 47.9 104.3 50.5 105 L 51.5 104 L 60 104 L 60 110.5 L 61.5 112 L 63 112 L 63 114 Q 65.7 112.9 65 115.5 L 67.5 114 L 70 114 Q 68.9 111.3 71.5 112 L 73 109.5 L 72 107 L 67.5 104 L 61 104 L 61 95 L 63 95 L 63 93 L 65 93 L 65 91 Q 67.7 92.1 67 89.5 L 70 88 L 70.5 86 L 81 86 L 81 92.5 L 86.5 98 L 89 96.5 Q 88.3 93.9 91 95 L 91 93 L 93 93 L 93 90.5 L 86.5 84 L 82 84 L 82 76.5 L 84.5 74 L 86 74 L 86 72 Q 88.7 73.1 88 70.5 L 90.5 68 L 97.5 66 L 102 68 Q 100.3 76.9 106.5 79 L 109 79 L 109 77 Q 111.7 78.1 111 75.5 L 116 72 L 118 68 L 120.5 68 L 126 61 L 128 61 Q 126.9 58.3 129.5 59 L 132 58 L 132.5 56 Z " /><path fill="rgb(242,222,194)" stroke="rgb(242,222,194)" stroke-width="1" opacity="0.4196078431372549" d="M 193.5 63 L 194 66 Q 191 65 192 68 L 189.5 68 L 190.5 66 Q 192.8 66.8 192 64.5 L 193.5 63 Z " /><path fill="rgb(242,222,194)" stroke="rgb(242,222,194)" stroke-width="1" opacity="0.4196078431372549" d="M 162.5 66 Q 165.1 65.3 164 68 L 160 67.5 L 162.5 66 Z " /><path fill="rgb(242,222,194)" stroke="rgb(242,222,194)" stroke-width="1" opacity="0.4196078431372549" d="M 181 66 L 185 67.5 L 181 68 L 181 66 Z " /><path fill="rgb(242,222,194)" stroke="rgb(242,222,194)" stroke-width="1" opacity="0.4196078431372549" d="M 153.5 68 Q 156.1 67.3 155 70 L 152 69.5 L 153.5 68 Z " /><path fill="rgb(242,222,194)" stroke="rgb(242,222,194)" stroke-width="1" opacity="0.4196078431372549" d="M 148.5 70 L 149 71.5 L 142 76.5 L 143 78.5 L 141.5 79 L 140 76.5 L 148.5 70 Z " /><path fill="rgb(242,222,194)" stroke="rgb(242,222,194)" stroke-width="1" opacity="0.4196078431372549" d="M 144.5 79 L 147 80.5 L 145.5 81 L 144.5 79 Z " /><path fill="rgb(242,222,194)" stroke="rgb(242,222,194)" stroke-width="1" opacity="0.4196078431372549" d="M 148.5 81 L 153 82 L 153 84 Q 155.7 82.9 155 85.5 L 158 87 L 158 91 L 162 93 L 162 95.5 L 164 99.5 L 162 98.5 L 160 93 Q 157.3 94.1 158 91.5 L 153 84 Q 148.7 83.8 148.5 81 Z " /><path fill="rgb(242,222,194)" stroke="rgb(242,222,194)" stroke-width="1" opacity="0.4196078431372549" d="M 124.5 95 Q 131.3 93.7 134 96.5 L 123 97 L 122.5 99 L 121 96 L 124.5 95 Z " /><path fill="rgb(242,222,194)" stroke="rgb(242,222,194)" stroke-width="1" opacity="0.4196078431372549" d="M 135 96 L 137 96 Q 135.9 98.7 138.5 98 L 142 100 L 142 102 L 144 102 L 144 105 Q 147 104 146 107 L 144 107 Q 145.1 104.3 142.5 105 L 141 102 L 139 102 L 139 100 L 137 100 L 135 96 Z " /><path fill="rgb(242,222,194)" stroke="rgb(242,222,194)" stroke-width="1" opacity="0.4196078431372549" d="M 124.5 100 L 127 101.5 L 125.5 102 L 124.5 100 Z " /><path fill="rgb(242,222,194)" stroke="rgb(242,222,194)" stroke-width="1" opacity="0.4196078431372549" d="M 126.5 103 L 130 105 L 130 107 L 132 107 L 132 109 Q 134.7 107.9 134 110.5 L 137 112 L 137 114 L 139 114 L 139 116 Q 141.7 114.9 141 117.5 L 144 119 Q 143 122 146 121 L 147.5 117 L 148 118.5 L 146 123 L 139 117.5 L 139 116 L 137 116 L 137 114 L 135 114 Q 136.1 111.3 133.5 112 L 132 109 L 130 109 L 130 107 Q 127.3 108.1 128 105.5 L 126.5 103 Z " /><path fill="rgb(242,222,194)" stroke="rgb(242,222,194)" stroke-width="1" opacity="0.4196078431372549" d="M 107.5 105 L 111 107 L 117 116 Q 119.7 114.9 119 117.5 L 123 123 L 125 123 Q 123.9 125.7 126.5 125 L 128 128 L 130 128 L 130 130 L 132 130 L 132 132 Q 134.7 130.9 134 133.5 L 134 135.5 L 134 137 L 132 137 L 132 139 L 130 139 Q 131.1 141.7 128.5 141 L 125.5 143 L 123 142 L 116 132 L 114 132 L 114 130 Q 111.3 131.1 112 128.5 L 107 125 L 102 116 Q 98.3 117.2 100 112 Q 102.7 113.1 102 110.5 L 105 109 L 105 107 Q 107.8 108 107.5 105 Z M 107 107 L 107 109 Q 104 108 105 111 L 102 112 Q 100 117 104 116 L 106 119 L 107 119 L 107 123 L 109 123 L 111 126 Q 113 125 112 128 L 114 128 L 114 130 L 116 130 L 116 132 L 118 132 L 120 135 Q 122 134 121 137 L 123 137 L 123 139 L 125 139 L 125 141 L 128 141 L 128 139 L 130 139 L 130 137 L 132 137 Q 131 134 134 135 L 132 132 Q 129 133 130 130 L 128 130 L 128 128 L 125 127 Q 126 124 123 125 L 123 123 L 121 123 L 121 121 L 119 121 L 118 118 Q 115 119 116 116 L 114 116 L 114 112 L 111 111 Q 112 108 109 109 L 109 107 L 107 107 Z " /><path fill="rgb(242,222,194)" stroke="rgb(242,222,194)" stroke-width="1" opacity="0.4196078431372549" d="M 146.5 109 L 148 112.5 L 146 111.5 L 146.5 109 Z " /><path fill="rgb(242,222,194)" stroke="rgb(242,222,194)" stroke-width="1" opacity="0.4196078431372549" d="M 86.5 125 Q 90.3 124.3 91 126.5 L 95 131.5 L 97.5 135 L 93 132 L 93 130 L 91 130 Q 92.1 127.3 89.5 128 L 86.5 127 L 84 128 L 81 133.5 L 84 135 L 83.5 138 L 79 132.5 L 80 130 L 82 130 L 82 128 L 84 128 Q 82.9 125.3 85.5 126 L 86.5 125 Z " /><path fill="rgb(242,222,194)" stroke="rgb(242,222,194)" stroke-width="1" opacity="0.4196078431372549" d="M 164.5 125 L 165 127.5 L 162.5 132 L 162 130.5 L 164.5 125 Z " /><path fill="rgb(242,222,194)" stroke="rgb(242,222,194)" stroke-width="1" opacity="0.4196078431372549" d="M 160 133 Q 163 132 162 135 Q 159 136 160 133 Z " /><path fill="rgb(242,222,194)" stroke="rgb(242,222,194)" stroke-width="1" opacity="0.4196078431372549" d="M 98.5 136 L 107 144.5 L 107 146 L 109 146 Q 107.9 148.7 110.5 148 L 112 151 Q 115.7 149.8 114 155 Q 111.3 153.9 112 156.5 L 109 158 L 107 162 L 104.5 162 L 100 155 L 98 155 L 98 153 Q 95.3 154.1 96 151.5 L 93 150 L 93 148 L 91 148 L 91 146 Q 88.3 147.1 89 144.5 L 84.5 139 Q 87.1 138.3 86 141 L 88 141 L 88 142.5 L 91 144 L 91 146 L 93 146 Q 91.9 148.7 94.5 148 L 98 153 L 102 155 L 102 157.5 Q 103.2 160.8 107 160 Q 105.9 157.3 108.5 158 Q 112.8 157.3 112 151.5 L 109 150 L 109 148 L 107 148 L 107 146 Q 104.3 147.1 105 144.5 L 100 141 Q 101 138 98 139 L 98.5 136 Z " /><path fill="rgb(242,222,194)" stroke="rgb(242,222,194)" stroke-width="1" opacity="0.4196078431372549" d="M 158 137 Q 161 135.8 160 139.5 L 158 138.5 L 158 137 Z " /><path fill="rgb(242,222,194)" stroke="rgb(242,222,194)" stroke-width="1" opacity="0.4196078431372549" d="M 67 144 L 70 144 L 70 146 Q 72.7 144.9 72 147.5 L 84 162 L 86 162 Q 84.9 164.7 87.5 164 L 89 167 L 91 167 L 93 171 L 88.5 172 L 88.5 171 Q 91.8 172.1 91 169.5 L 84 164 L 84 162 Q 81.3 163.1 82 160.5 L 77 157 L 77 155 Q 74.3 156.1 75 153.5 Q 71.2 152.3 72 148 Q 69 149 70 146 L 67 146 L 67 144 Z " /><path fill="rgb(242,222,194)" stroke="rgb(242,222,194)" stroke-width="1" opacity="0.4196078431372549" d="M 146 149 L 150 150.5 L 146 151 L 146 153 L 144 153 L 144 155 Q 141.3 153.9 142 156.5 L 140.5 162 L 139 156.5 L 144 153 L 146 149 Z " /><path fill="rgb(242,222,194)" stroke="rgb(242,222,194)" stroke-width="1" opacity="0.4196078431372549" d="M 158 149 Q 161 148 160 151 Q 157 152 158 149 Z " /><path fill="rgb(242,222,194)" stroke="rgb(242,222,194)" stroke-width="1" opacity="0.4196078431372549" d="M 66.5 150 L 67 155.5 L 66 155.5 L 66.5 150 Z " /><path fill="rgb(242,222,194)" stroke="rgb(242,222,194)" stroke-width="1" opacity="0.4196078431372549" d="M 12 155 L 17 155.5 L 14 156 L 12 159.5 L 12 166.5 Q 14.8 167.6 14 171 L 17 172.5 L 17 174 L 19 174 L 19 176 L 21 176 Q 19.9 178.7 22.5 178 L 24 181 L 35 181 L 35 171.5 L 38 169.5 L 37 171.5 L 37 183 L 23.5 183 L 19 180 L 19 178 Q 16.3 179.1 17 176.5 L 12 173 Q 13.3 167.7 10 168.5 L 10 157 Q 13 158 12 155 Z " /><path fill="rgb(242,222,194)" stroke="rgb(242,222,194)" stroke-width="1" opacity="0.4196078431372549" d="M 67.5 158 L 68 160.5 L 78 170.5 L 76.5 171 L 73 169 L 71.5 166 Q 69.3 166.8 70 164.5 Q 65.8 162.6 67.5 158 Z " /><path fill="rgb(242,222,194)" stroke="rgb(242,222,194)" stroke-width="1" opacity="0.4196078431372549" d="M 47.5 161 L 49 164 L 45 164 L 45 165.5 L 42 167 Q 43.1 170.3 39 169 L 40.5 166 L 43.5 164 L 47.5 161 Z " /><path fill="rgb(242,222,194)" stroke="rgb(242,222,194)" stroke-width="1" opacity="0.4196078431372549" d="M 49.5 165 L 51 167.5 L 49 166.5 L 49.5 165 Z " /><path fill="rgb(242,222,194)" stroke="rgb(242,222,194)" stroke-width="1" opacity="0.4196078431372549" d="M 139 165 Q 142.7 163.8 141 169 L 138 168.5 L 139 165 Z " /><path fill="rgb(242,222,194)" stroke="rgb(242,222,194)" stroke-width="1" opacity="0.4196078431372549" d="M 127.5 167 L 128 169 L 132 170.5 L 128 171 L 127.5 169 L 119.5 178 Q 116.8 176.8 119 175.5 L 119 174 L 121 174 L 121 172 L 123 172 Q 121.9 169.3 124.5 170 L 127.5 167 Z " /><path fill="rgb(242,222,194)" stroke="rgb(242,222,194)" stroke-width="1" opacity="0.4196078431372549" d="M 135.5 169 Q 138.1 168.3 137 171 L 133 170.5 L 135.5 169 Z " /><path fill="rgb(242,222,194)" stroke="rgb(242,222,194)" stroke-width="1" opacity="0.4196078431372549" d="M 51.5 170 L 54 173.5 L 52.5 174 Q 50 173 51.5 170 Z " /><path fill="rgb(242,222,194)" stroke="rgb(242,222,194)" stroke-width="1" opacity="0.4196078431372549" d="M 79.5 171 L 82 171.5 L 79.5 172 L 79.5 171 Z " /><path fill="rgb(242,222,194)" stroke="rgb(242,222,194)" stroke-width="1" opacity="0.4196078431372549" d="M 54.5 175 L 56 178 L 61 181.5 Q 60.3 184.1 63 183 L 63 185 L 61 185 L 61 183 Q 58.3 184.1 59 181.5 L 56 180 Q 57 177 54 178 L 54.5 175 Z " /><path fill="rgb(242,222,194)" stroke="rgb(242,222,194)" stroke-width="1" opacity="0.4196078431372549" d="M 65 185 L 70 187.5 L 68.5 188 L 65 187 L 65 185 Z " /><path fill="rgb(242,222,194)" stroke="rgb(242,222,194)" stroke-width="1" opacity="0.4196078431372549" d="M 105 185 L 107 185 Q 105.9 187.7 108.5 187 L 108.5 188 L 105 187 L 105 185 Z " /><path fill="rgb(242,222,194)" stroke="rgb(242,222,194)" stroke-width="1" opacity="0.4196078431372549" d="M 118.5 185 L 119 188 L 116 187.5 L 118 187 L 118.5 185 Z " /><path fill="rgb(242,222,194)" stroke="rgb(242,222,194)" stroke-width="1" opacity="0.4196078431372549" d="M 101.5 187 L 104 187.5 L 97.5 190 L 98.5 188 L 101.5 187 Z " /><path fill="rgb(242,222,194)" stroke="rgb(242,222,194)" stroke-width="1" opacity="0.4196078431372549" d="M 71.5 188 L 75 189.5 L 72.5 190 L 71.5 188 Z " /><path fill="rgb(223,166,103)" stroke="rgb(223,166,103)" stroke-width="1" opacity="0.9411764705882353" d="M 95.5 69 L 100 70 L 100 75 Q 102.7 73.9 102 76.5 L 103 79 Q 105.7 77.9 105 80.5 L 105.5 82 L 98 87 L 96.5 90 L 94.5 90 L 90 85.5 L 88.5 83 L 84 82 L 86 74 L 88.5 74 L 95.5 69 Z " /><path fill="rgb(223,166,103)" stroke="rgb(223,166,103)" stroke-width="1" opacity="0.9411764705882353" d="M 139.5 78 Q 141.8 77.3 141 79.5 L 142.5 79 L 145 80.5 L 144.5 82 L 147.5 81 L 148.5 84 L 151 84 L 151 86 Q 153.7 84.9 153 87.5 L 155 87.5 L 152.5 91 L 149.5 93 L 146 98 Q 143 97 144 100 L 140.5 100 L 138.5 97 L 137 97.5 Q 138.3 93.8 134.5 95 L 134.5 97 L 132.5 95 L 123.5 95 L 121 96 L 128 105.5 L 126 106.5 L 128 107 L 128 109 L 132 109 L 132 110.5 L 135 112 L 135 114 L 137 114 L 137 116 Q 139.7 114.9 139 117.5 L 146 123 Q 147.1 125.7 144.5 125 L 142 126 L 142 128 Q 139.3 126.9 140 129.5 L 137 131 L 136.5 134 L 134 133.5 L 134.5 132 L 132 131.5 L 132.5 130 L 130 130 L 130 128 Q 127.3 129.1 128 126.5 L 125 125 L 125 123 Q 122.3 124.1 123 121.5 L 119 116 Q 116.3 117.1 117 114.5 L 111 107 Q 108 108 109 105 L 112 103.5 L 112 102 L 114 102 Q 112.9 99.3 115.5 100 L 119 97.5 L 123.5 92 L 132 86 Q 130.9 83.3 133.5 84 L 137 79 L 139.5 78 Z M 128 93 L 128 94 L 130 94 L 128 93 Z " /><path fill="rgb(223,166,103)" stroke="rgb(223,166,103)" stroke-width="1" opacity="0.9411764705882353" d="M 72 88 L 79 88 L 79 92.5 L 85.5 100 L 82.5 102 L 77 109 L 74 109 L 74 107 L 72 107 L 72 105 Q 69.3 106.1 70 103.5 Q 68.4 100.5 63 102 L 63 97 L 65 97 L 65 95 Q 67.7 96.1 67 93.5 L 72 90 L 72 88 Z " /><path fill="rgb(223,166,103)" stroke="rgb(223,166,103)" stroke-width="1" opacity="0.9411764705882353" d="M 55.5 105 L 58 106 L 58 111.5 L 59.5 112 L 65 119 L 63 119 L 63 121 L 61 121 L 61 123 L 59 123 Q 60.1 125.7 57.5 125 L 54.5 129 L 53 125 L 49 123 L 49 120 L 44 120 L 44 114 L 47 112.5 Q 46.3 109.9 49 111 L 49 108 L 50.5 108 L 55.5 105 Z " /><path fill="rgb(223,166,103)" stroke="rgb(223,166,103)" stroke-width="1" opacity="0.9411764705882353" d="M 98 114 L 100 114 L 100 116 Q 102.7 114.9 102 117.5 Q 106.5 120 107.5 126 L 108.5 125 L 112 128.5 L 116 133.5 L 123 142 Q 126 141 125 144 L 123 144 Q 124.1 146.7 121.5 146 L 119 147 L 119 149 Q 116.3 147.9 117 150.5 L 115.5 152 Q 113.7 148.9 112 150.5 L 112 148 L 109 148 L 109 146 Q 106.3 147.1 107 144.5 L 95 131.5 L 95.5 130 L 93 130 L 93 128 Q 90.3 129.1 91 126.5 L 88 125 Q 86.8 122 90.5 123 L 97 118 L 98 114 Z " /><path fill="rgb(223,166,103)" stroke="rgb(223,166,103)" stroke-width="1" opacity="0.9411764705882353" d="M 77 133 L 84 138.5 L 83.5 140 L 89 144.5 L 89 146 L 91 146 L 91 148 L 93 148 Q 91.9 150.7 94.5 150 L 96 153 L 98 153 L 98 155 Q 100.7 153.9 100 156.5 L 104 163 L 100 165.5 L 100 167 L 96 167 L 96 169 L 91 169 L 90.5 165 L 89.5 167 L 87.5 164 Q 84.9 164.7 86 162 L 84 162 L 84 160.5 L 72 147.5 L 72.5 146 Q 69.2 147.1 70 144.5 L 69 142.5 L 77 133 Z " /><path fill="rgb(223,166,103)" stroke="rgb(223,166,103)" stroke-width="1" opacity="0.9411764705882353" d="M 47 135 L 51 135.5 L 47 143.5 L 47 159.5 Q 49.3 160.8 46.5 162 L 42 164 Q 43.1 166.7 40.5 166 L 39 169 L 35 171.5 L 35 181 L 24 181 L 22.5 178 L 21 178 L 21 176 L 19 176 L 19 174 Q 16.3 175.1 17 172.5 L 14 171 Q 14.8 167.6 12 166.5 L 12 159.5 L 14 156 L 19 155 Q 17.9 157.7 20.5 157 L 22.5 157 L 31.5 150 Q 32.8 152.3 34 149.5 L 33.5 148 L 35 148.5 L 35 146 L 37 146 Q 35.9 143.3 38.5 144 L 40 141 L 42 141 Q 40.9 138.3 43.5 139 L 47 137 L 47 135 Z " /><path fill="rgb(223,166,103)" stroke="rgb(223,166,103)" stroke-width="1" opacity="0.9411764705882353" d="M 157 139 L 160 140.5 Q 157.2 142.5 158 147 Q 161 146 160 149 L 158 149 Q 159.1 151.7 156.5 151 L 151.5 150 Q 150.3 152.3 149 149.5 L 151.5 146 L 153 146 L 153 144 Q 155.7 145.1 155 142.5 L 157 139 Z " /><path fill="rgb(223,166,103)" stroke="rgb(223,166,103)" stroke-width="1" opacity="0.9411764705882353" d="M 138.5 158 L 141 165 Q 138 163.8 139 167.5 L 132.5 171 Q 131.4 168.3 128 169 L 130.5 165 L 138 160 L 138.5 158 Z " /><path fill="rgb(223,166,103)" stroke="rgb(223,166,103)" stroke-width="1" opacity="0.9411764705882353" d="M 117.5 176 Q 121.8 177.9 120 185 L 118 185 Q 119.1 187.7 116.5 187 L 114.5 188 L 111.5 187 L 109.5 188 L 107 186.5 L 109 186 Q 107.5 182.3 110.5 183 L 116 180 L 117.5 176 Z M 119 180 L 118 184 L 119 184 L 119 180 Z " /><path fill="rgb(210,201,187)" stroke="rgb(210,201,187)" stroke-width="1" opacity="0.06274509803921569" d="M 140.5 11 L 151.5 11 L 154 14.5 L 157 16 L 157 18 Q 159.7 16.9 159 19.5 L 150.5 12 L 140.5 12 L 140.5 11 Z " /><path fill="rgb(210,201,187)" stroke="rgb(210,201,187)" stroke-width="1" opacity="0.06274509803921569" d="M 164.5 25 Q 166.8 24.3 166 26.5 L 164.5 25 Z " /><path fill="rgb(210,201,187)" stroke="rgb(210,201,187)" stroke-width="1" opacity="0.06274509803921569" d="M 171.5 34 Q 173.8 33.3 173 35.5 L 171.5 34 Z " /><path fill="rgb(210,201,187)" stroke="rgb(210,201,187)" stroke-width="1" opacity="0.06274509803921569" d="M 174.5 36 L 177.5 40 Q 174.9 40.7 176 38 L 174 38 L 174.5 36 Z " /><path fill="rgb(210,201,187)" stroke="rgb(210,201,187)" stroke-width="1" opacity="0.06274509803921569" d="M 139.5 37 L 139 38.5 L 138.5 43 L 138 38.5 L 139.5 37 Z " /><path fill="rgb(210,201,187)" stroke="rgb(210,201,187)" stroke-width="1" opacity="0.06274509803921569" d="M 178.5 41 Q 180.8 40.3 180 42.5 L 178.5 41 Z " /><path fill="rgb(210,201,187)" stroke="rgb(210,201,187)" stroke-width="1" opacity="0.06274509803921569" d="M 136.5 43 L 137 49 L 135 48.5 L 136.5 43 Z " /><path fill="rgb(210,201,187)" stroke="rgb(210,201,187)" stroke-width="1" opacity="0.06274509803921569" d="M 181.5 43 L 184.5 47 Q 181.9 47.7 183 45 L 181 45 L 181.5 43 Z " /><path fill="rgb(210,201,187)" stroke="rgb(210,201,187)" stroke-width="1" opacity="0.06274509803921569" d="M 134.5 50 L 135 51.5 L 133.5 54 L 133 52.5 L 134.5 50 Z " /><path fill="rgb(210,201,187)" stroke="rgb(210,201,187)" stroke-width="1" opacity="0.06274509803921569" d="M 188.5 50 Q 189.1 55.9 194 57.5 L 191.5 56 Q 189.3 56.8 190 54.5 Q 186.9 53.4 188.5 50 Z " /><path fill="rgb(210,201,187)" stroke="rgb(210,201,187)" stroke-width="1" opacity="0.06274509803921569" d="M 131 55 L 133 55.5 L 132 58 L 129.5 59 L 129 57 Q 132 58 131 55 Z " /><path fill="rgb(210,201,187)" stroke="rgb(210,201,187)" stroke-width="1" opacity="0.06274509803921569" d="M 124 62 L 126 62.5 L 120.5 68 L 118 68 L 118 70 L 116 70 Q 117.1 72.7 114.5 72 L 112 73.5 L 113 71 L 115 71 Q 113.9 68.3 116.5 69 L 122 66 L 124 62 Z " /><path fill="rgb(210,201,187)" stroke="rgb(210,201,187)" stroke-width="1" opacity="0.06274509803921569" d="M 92 66 L 95 66.5 L 92.5 68 L 92 66 Z " /><path fill="rgb(210,201,187)" stroke="rgb(210,201,187)" stroke-width="1" opacity="0.06274509803921569" d="M 98.5 66 Q 101.8 64.9 101 67.5 L 99.5 67 L 98.5 66 Z " /><path fill="rgb(210,201,187)" stroke="rgb(210,201,187)" stroke-width="1" opacity="0.06274509803921569" d="M 167.5 66 L 179.5 66 L 181.5 68 L 192 68 Q 190.9 65.3 193.5 66 L 191.5 69 L 181.5 69 L 179.5 67 L 167.5 67 L 167.5 66 Z " /><path fill="rgb(210,201,187)" stroke="rgb(210,201,187)" stroke-width="1" opacity="0.06274509803921569" d="M 89.5 68 L 88 70.5 L 88 72 L 86 72 Q 87.1 74.7 84.5 74 L 82 75.5 L 83 73 L 85 73 L 85 71 L 87 71 Q 85.9 68.3 88.5 69 L 89.5 68 Z " /><path fill="rgb(210,201,187)" stroke="rgb(210,201,187)" stroke-width="1" opacity="0.06274509803921569" d="M 155.5 68 L 164 68.5 L 155.5 69 L 155.5 68 Z " /><path fill="rgb(210,201,187)" stroke="rgb(210,201,187)" stroke-width="1" opacity="0.06274509803921569" d="M 102.5 69 Q 101.8 76.2 106.5 78 L 110.5 75 L 111 77 Q 108 76 109 79 L 106.5 79 Q 100.1 77.1 102.5 69 Z " /><path fill="rgb(210,201,187)" stroke="rgb(210,201,187)" stroke-width="1" opacity="0.06274509803921569" d="M 149 70 L 155 70.5 Q 149.1 70.1 147.5 74 L 149 71.5 L 149 70 Z " /><path fill="rgb(210,201,187)" stroke="rgb(210,201,187)" stroke-width="1" opacity="0.06274509803921569" d="M 144.5 74 L 145 76 Q 142 75 143 78 L 145.5 78 L 151 81.5 L 149.5 82 L 142 77.5 L 144.5 74 Z " /><path fill="rgb(210,201,187)" stroke="rgb(210,201,187)" stroke-width="1" opacity="0.06274509803921569" d="M 153.5 82 L 154.5 84 Q 151.7 84.7 153.5 82 Z " /><path fill="rgb(210,201,187)" stroke="rgb(210,201,187)" stroke-width="1" opacity="0.06274509803921569" d="M 82.5 84 L 86.5 84 L 93 90.5 L 93 93 L 91 93 Q 92.1 95.7 89.5 95 L 92 91.5 L 86.5 85 Q 81.5 86 82.5 84 Z " /><path fill="rgb(210,201,187)" stroke="rgb(210,201,187)" stroke-width="1" opacity="0.06274509803921569" d="M 70.5 85 L 81 85.5 L 70 86 Q 71.1 88.7 68.5 88 L 70.5 85 Z " /><path fill="rgb(210,201,187)" stroke="rgb(210,201,187)" stroke-width="1" opacity="0.06274509803921569" d="M 155.5 85 Q 157.8 84.3 157 86.5 L 155.5 85 Z " /><path fill="rgb(210,201,187)" stroke="rgb(210,201,187)" stroke-width="1" opacity="0.06274509803921569" d="M 158.5 87 L 164 96.5 L 162 95.5 L 162 93 L 158 91 L 158.5 87 Z " /><path fill="rgb(210,201,187)" stroke="rgb(210,201,187)" stroke-width="1" opacity="0.06274509803921569" d="M 81.5 90 L 83 94 Q 86 93 85 96 L 88.5 96 L 87.5 98 L 81 92.5 L 81.5 90 Z " /><path fill="rgb(210,201,187)" stroke="rgb(210,201,187)" stroke-width="1" opacity="0.06274509803921569" d="M 64.5 91 L 65 93 L 63 93 Q 64.1 95.7 61.5 95 L 64.5 91 Z " /><path fill="rgb(210,201,187)" stroke="rgb(210,201,187)" stroke-width="1" opacity="0.06274509803921569" d="M 60.5 96 L 61 101.5 L 60 101.5 L 60.5 96 Z " /><path fill="rgb(210,201,187)" stroke="rgb(210,201,187)" stroke-width="1" opacity="0.06274509803921569" d="M 123.5 97 L 124 99 Q 127.7 97.5 127 100.5 L 125.5 100 Q 121.1 101.1 123.5 97 Z " /><path fill="rgb(210,201,187)" stroke="rgb(210,201,187)" stroke-width="1" opacity="0.06274509803921569" d="M 135.5 98 L 137 98 L 137 100 Q 139.7 98.9 139 101.5 L 135.5 98 Z " /><path fill="rgb(210,201,187)" stroke="rgb(210,201,187)" stroke-width="1" opacity="0.06274509803921569" d="M 164.5 101 Q 167.3 100.4 166 106.5 L 165 106.5 L 164.5 101 Z " /><path fill="rgb(210,201,187)" stroke="rgb(210,201,187)" stroke-width="1" opacity="0.06274509803921569" d="M 126.5 102 L 129 103 L 128.5 105 L 126.5 102 Z " /><path fill="rgb(210,201,187)" stroke="rgb(210,201,187)" stroke-width="1" opacity="0.06274509803921569" d="M 50 103 L 60 103.5 L 51.5 104 L 50.5 105 L 50 103 Z " /><path fill="rgb(210,201,187)" stroke="rgb(210,201,187)" stroke-width="1" opacity="0.06274509803921569" d="M 66.5 104 L 72 107 L 73 110.5 L 71 111.5 L 72 109.5 L 66.5 104 Z " /><path fill="rgb(210,201,187)" stroke="rgb(210,201,187)" stroke-width="1" opacity="0.06274509803921569" d="M 48.5 105 L 49 107 L 47 107 Q 48.1 109.7 45.5 109 L 48.5 105 Z " /><path fill="rgb(210,201,187)" stroke="rgb(210,201,187)" stroke-width="1" opacity="0.06274509803921569" d="M 130.5 105 L 133.5 109 Q 130.9 109.7 132 107 L 130 107 L 130.5 105 Z " /><path fill="rgb(210,201,187)" stroke="rgb(210,201,187)" stroke-width="1" opacity="0.06274509803921569" d="M 142.5 105 Q 145.1 104.3 144 107 L 146 107 L 146 111.5 L 146.5 113 Q 143.1 113.9 145 108.5 L 142.5 105 Z " /><path fill="rgb(210,201,187)" stroke="rgb(210,201,187)" stroke-width="1" opacity="0.06274509803921569" d="M 107 107 L 109 107 L 109 109 Q 111.7 107.9 111 110.5 L 108.5 109 L 105.5 111 L 105 109 Q 108 110 107 107 Z " /><path fill="rgb(210,201,187)" stroke="rgb(210,201,187)" stroke-width="1" opacity="0.06274509803921569" d="M 43 110 L 45 110.5 L 43 111.5 L 43 110 Z " /><path fill="rgb(210,201,187)" stroke="rgb(210,201,187)" stroke-width="1" opacity="0.06274509803921569" d="M 60.5 110 Q 62.8 109.3 62 111.5 L 60.5 110 Z " /><path fill="rgb(210,201,187)" stroke="rgb(210,201,187)" stroke-width="1" opacity="0.06274509803921569" d="M 134.5 110 Q 136.8 109.3 136 111.5 L 134.5 110 Z " /><path fill="rgb(210,201,187)" stroke="rgb(210,201,187)" stroke-width="1" opacity="0.06274509803921569" d="M 41.5 112 L 42 121 L 47 121 L 47 123 L 49 123 L 49 125 Q 51.7 123.9 51 126.5 L 45.5 122 L 41 122 L 41.5 112 Z " /><path fill="rgb(210,201,187)" stroke="rgb(210,201,187)" stroke-width="1" opacity="0.06274509803921569" d="M 69.5 112 L 70 114 Q 66.6 113.3 65.5 116 L 66 114.5 Q 65.2 111.9 68.5 113 L 69.5 112 Z " /><path fill="rgb(210,201,187)" stroke="rgb(210,201,187)" stroke-width="1" opacity="0.06274509803921569" d="M 102 112 L 104 112.5 L 103 114.5 L 103.5 116 L 102 116 L 102 112 Z " /><path fill="rgb(210,201,187)" stroke="rgb(210,201,187)" stroke-width="1" opacity="0.06274509803921569" d="M 112.5 112 L 114 112 L 114 116 Q 116.7 114.9 116 117.5 L 113 115.5 L 112.5 112 Z " /><path fill="rgb(210,201,187)" stroke="rgb(210,201,187)" stroke-width="1" opacity="0.06274509803921569" d="M 137.5 112 L 140.5 116 Q 137.9 116.7 139 114 L 137 114 L 137.5 112 Z " /><path fill="rgb(210,201,187)" stroke="rgb(210,201,187)" stroke-width="1" opacity="0.06274509803921569" d="M 104.5 117 Q 106.8 116.3 106 118.5 L 104.5 117 Z " /><path fill="rgb(210,201,187)" stroke="rgb(210,201,187)" stroke-width="1" opacity="0.06274509803921569" d="M 141.5 117 Q 143.8 116.3 143 118.5 L 141.5 117 Z " /><path fill="rgb(210,201,187)" stroke="rgb(210,201,187)" stroke-width="1" opacity="0.06274509803921569" d="M 145 117 L 147 117.5 L 146 121 Q 143.3 122.1 144 119.5 L 145 117 Z " /><path fill="rgb(210,201,187)" stroke="rgb(210,201,187)" stroke-width="1" opacity="0.06274509803921569" d="M 117.5 118 L 118.5 120 Q 115.7 120.7 117.5 118 Z " /><path fill="rgb(210,201,187)" stroke="rgb(210,201,187)" stroke-width="1" opacity="0.06274509803921569" d="M 107.5 119 L 111 125.5 L 109 124.5 Q 109.7 121.9 107 123 L 107.5 119 Z " /><path fill="rgb(210,201,187)" stroke="rgb(210,201,187)" stroke-width="1" opacity="0.06274509803921569" d="M 119.5 121 L 121 121 L 121 123 Q 123.7 121.9 123 124.5 L 119.5 121 Z " /><path fill="rgb(210,201,187)" stroke="rgb(210,201,187)" stroke-width="1" opacity="0.06274509803921569" d="M 165.5 123 L 166 129 L 164 128.5 L 165.5 123 Z " /><path fill="rgb(210,201,187)" stroke="rgb(210,201,187)" stroke-width="1" opacity="0.06274509803921569" d="M 86.5 127 L 87 129 L 83 131 L 83 134.5 L 81 133.5 L 84 128 L 86.5 127 Z " /><path fill="rgb(210,201,187)" stroke="rgb(210,201,187)" stroke-width="1" opacity="0.06274509803921569" d="M 89.5 128 L 94.5 132 L 98 136.5 L 96 135.5 Q 96.8 133.3 94.5 134 L 89.5 128 Z " /><path fill="rgb(210,201,187)" stroke="rgb(210,201,187)" stroke-width="1" opacity="0.06274509803921569" d="M 114.5 128 L 117.5 132 Q 114.9 132.7 116 130 L 114 130 L 114.5 128 Z " /><path fill="rgb(210,201,187)" stroke="rgb(210,201,187)" stroke-width="1" opacity="0.06274509803921569" d="M 126.5 128 Q 129.1 127.3 128 130 L 130 130 L 130 131.5 L 126.5 128 Z " /><path fill="rgb(210,201,187)" stroke="rgb(210,201,187)" stroke-width="1" opacity="0.06274509803921569" d="M 51.5 129 L 51 130.5 L 51 132 L 49 132 Q 50.1 134.7 47.5 134 L 46 134.5 L 48 131 L 51.5 129 Z " /><path fill="rgb(210,201,187)" stroke="rgb(210,201,187)" stroke-width="1" opacity="0.06274509803921569" d="M 163.5 131 L 163 132.5 L 161 136.5 L 161 152 L 147.5 152 L 144.5 155 L 144 153 Q 147.1 153.8 146.5 151 L 160 151 L 160 135.5 L 162 135 L 162 132.5 L 163.5 131 Z " /><path fill="rgb(210,201,187)" stroke="rgb(210,201,187)" stroke-width="1" opacity="0.06274509803921569" d="M 131.5 132 L 133.5 135 L 131 134 L 131.5 132 Z " /><path fill="rgb(210,201,187)" stroke="rgb(210,201,187)" stroke-width="1" opacity="0.06274509803921569" d="M 118.5 133 Q 120.8 132.3 120 134.5 L 118.5 133 Z " /><path fill="rgb(210,201,187)" stroke="rgb(210,201,187)" stroke-width="1" opacity="0.06274509803921569" d="M 43.5 135 L 44 137 L 42 137 L 42 139 L 40 139 Q 41.1 141.7 38.5 141 L 43.5 135 Z " /><path fill="rgb(210,201,187)" stroke="rgb(210,201,187)" stroke-width="1" opacity="0.06274509803921569" d="M 84.5 135 L 88 140.5 L 86 141 Q 87 138 84 139 L 84.5 135 Z " /><path fill="rgb(210,201,187)" stroke="rgb(210,201,187)" stroke-width="1" opacity="0.06274509803921569" d="M 121.5 135 L 124.5 139 Q 121.9 139.7 123 137 L 121 137 L 121.5 135 Z " /><path fill="rgb(210,201,187)" stroke="rgb(210,201,187)" stroke-width="1" opacity="0.06274509803921569" d="M 131.5 135 L 132 137 L 130 137 L 128 141 L 125.5 141 L 125.5 140 L 131.5 135 Z " /><path fill="rgb(210,201,187)" stroke="rgb(210,201,187)" stroke-width="1" opacity="0.06274509803921569" d="M 98.5 139 Q 100.8 138.3 100 140.5 L 98.5 139 Z " /><path fill="rgb(210,201,187)" stroke="rgb(210,201,187)" stroke-width="1" opacity="0.06274509803921569" d="M 101.5 141 L 104.5 145 Q 101.9 145.7 103 143 L 101 143 L 101.5 141 Z " /><path fill="rgb(210,201,187)" stroke="rgb(210,201,187)" stroke-width="1" opacity="0.06274509803921569" d="M 88.5 142 L 95 147.5 L 93 148 L 93 146 L 91 146 Q 92.1 143.3 89.5 144 L 88.5 142 Z " /><path fill="rgb(210,201,187)" stroke="rgb(210,201,187)" stroke-width="1" opacity="0.06274509803921569" d="M 34.5 144 L 35 146 Q 32.3 144.9 33 147.5 L 29 150.5 L 31 147.5 L 34.5 144 Z " /><path fill="rgb(210,201,187)" stroke="rgb(210,201,187)" stroke-width="1" opacity="0.06274509803921569" d="M 67.5 146 Q 70.8 144.9 70 147.5 L 68.5 147 L 67.5 146 Z " /><path fill="rgb(210,201,187)" stroke="rgb(210,201,187)" stroke-width="1" opacity="0.06274509803921569" d="M 105.5 146 Q 107.8 145.3 107 147.5 L 105.5 146 Z " /><path fill="rgb(210,201,187)" stroke="rgb(210,201,187)" stroke-width="1" opacity="0.06274509803921569" d="M 71.5 148 L 75 153.5 L 73 154 Q 74 151 71 152 L 71.5 148 Z " /><path fill="rgb(210,201,187)" stroke="rgb(210,201,187)" stroke-width="1" opacity="0.06274509803921569" d="M 110.5 150 L 111.5 152 Q 108.7 152.7 110.5 150 Z " /><path fill="rgb(210,201,187)" stroke="rgb(210,201,187)" stroke-width="1" opacity="0.06274509803921569" d="M 25.5 151 L 26 153 L 24 152.5 L 25.5 151 Z " /><path fill="rgb(210,201,187)" stroke="rgb(210,201,187)" stroke-width="1" opacity="0.06274509803921569" d="M 98.5 151 L 104.5 159 L 106.5 158 L 107 160 Q 103.2 160.8 102 157.5 L 102 155 L 98 153 L 98.5 151 Z " /><path fill="rgb(210,201,187)" stroke="rgb(210,201,187)" stroke-width="1" opacity="0.06274509803921569" d="M 11 154 L 20.5 154 L 21.5 155 L 23.5 154 L 23.5 155 Q 21.3 154.3 22 156.5 L 21 156.5 L 20.5 155 L 12 155 Q 13.1 157.7 10.5 157 L 11 155.5 L 11 154 Z " /><path fill="rgb(210,201,187)" stroke="rgb(210,201,187)" stroke-width="1" opacity="0.06274509803921569" d="M 110 154 L 112 154.5 L 108 157.5 Q 107.3 154.9 110 156 L 110 154 Z " /><path fill="rgb(210,201,187)" stroke="rgb(210,201,187)" stroke-width="1" opacity="0.06274509803921569" d="M 78.5 157 L 81.5 161 Q 78.9 161.7 80 159 L 78 159 L 78.5 157 Z " /><path fill="rgb(210,201,187)" stroke="rgb(210,201,187)" stroke-width="1" opacity="0.06274509803921569" d="M 9.5 158 L 10 167.5 L 9 167.5 L 9.5 158 Z " /><path fill="rgb(210,201,187)" stroke="rgb(210,201,187)" stroke-width="1" opacity="0.06274509803921569" d="M 68.5 158 L 69 160.5 L 78.5 170 Q 83.9 168.1 83 171.5 L 81.5 171 L 78.5 171 L 68 160.5 L 68.5 158 Z " /><path fill="rgb(210,201,187)" stroke="rgb(210,201,187)" stroke-width="1" opacity="0.06274509803921569" d="M 48.5 164 L 51 168.5 L 51 172.5 L 50 172.5 L 50 168.5 Q 46.9 167.4 48.5 164 Z " /><path fill="rgb(210,201,187)" stroke="rgb(210,201,187)" stroke-width="1" opacity="0.06274509803921569" d="M 85.5 164 L 91 171 L 87.5 172 L 87 170 Q 90 171 89 168 L 85 166 L 85.5 164 Z " /><path fill="rgb(210,201,187)" stroke="rgb(210,201,187)" stroke-width="1" opacity="0.06274509803921569" d="M 42 167 L 44 167.5 L 38 171.5 L 37.5 179 L 37 171.5 L 38 169 Q 43.2 170.7 42 167 Z " /><path fill="rgb(210,201,187)" stroke="rgb(210,201,187)" stroke-width="1" opacity="0.06274509803921569" d="M 10.5 169 Q 13.5 168.1 12 172.5 L 11 172.5 L 10.5 169 Z " /><path fill="rgb(210,201,187)" stroke="rgb(210,201,187)" stroke-width="1" opacity="0.06274509803921569" d="M 127.5 169 L 124 173.5 L 124 175 L 122 175 Q 123.1 177.7 120.5 177 L 127.5 169 Z " /><path fill="rgb(210,201,187)" stroke="rgb(210,201,187)" stroke-width="1" opacity="0.06274509803921569" d="M 137 169 L 141 169.5 L 137.5 171 L 137 169 Z " /><path fill="rgb(210,201,187)" stroke="rgb(210,201,187)" stroke-width="1" opacity="0.06274509803921569" d="M 13.5 173 L 16.5 177 Q 13.9 177.7 15 175 L 13 175 L 13.5 173 Z " /><path fill="rgb(210,201,187)" stroke="rgb(210,201,187)" stroke-width="1" opacity="0.06274509803921569" d="M 52.5 174 Q 55.1 173.2 54 176.5 L 53 176.5 L 52.5 174 Z " /><path fill="rgb(210,201,187)" stroke="rgb(210,201,187)" stroke-width="1" opacity="0.06274509803921569" d="M 17.5 178 Q 19.8 177.3 19 179.5 L 17.5 178 Z " /><path fill="rgb(210,201,187)" stroke="rgb(210,201,187)" stroke-width="1" opacity="0.06274509803921569" d="M 20.5 180 L 23.5 183 L 37 183.5 L 22 184 Q 23 181 20 182 L 20.5 180 Z " /><path fill="rgb(210,201,187)" stroke="rgb(210,201,187)" stroke-width="1" opacity="0.06274509803921569" d="M 57.5 180 L 58.5 182 Q 55.7 182.7 57.5 180 Z " /><path fill="rgb(210,201,187)" stroke="rgb(210,201,187)" stroke-width="1" opacity="0.06274509803921569" d="M 61.5 185 Q 65.9 183.5 65 186.5 L 63.5 186 Q 60.5 186.5 61.5 185 Z " /><path fill="rgb(210,201,187)" stroke="rgb(210,201,187)" stroke-width="1" opacity="0.06274509803921569" d="M 119.5 185 L 120 189 L 107.5 189 L 106 187.5 L 107.5 188 L 118.5 188 L 119.5 185 Z " /><path fill="rgb(210,201,187)" stroke="rgb(210,201,187)" stroke-width="1" opacity="0.06274509803921569" d="M 67.5 187 L 72.5 190 L 99.5 190 L 103.5 188 L 103.5 189 L 101 189 L 100.5 191 L 71 191 Q 72.3 188 68.5 189 L 67.5 187 Z " /></svg>