<svg width="200" height="200" version="1.1" xmlns="http://www.w3.org/2000/svg" desc="Created with imagetracer.js version 1.2.6" ><path fill="rgb(0,0,0)" stroke="rgb(0,0,0)" stroke-width="1" opacity="0" d="M 0 0 L 200 0 L 200 200 L 0 200 L 0 0 Z M 93 3 L 90 4 L 87 10 L 82 35 Q 84 41 80 40 L 76 66 L 74 68 L 75 71 L 72 77 L 70 93 L 67 99 L 67 104 L 65 109 L 62 129 L 60 131 L 56 156 L 54 159 L 55 161 L 53 161 L 53 167 L 49 183 L 49 192 L 52 194 Q 59 195 62 193 L 64 186 Q 62 180 66 181 L 69 163 L 72 156 L 71 154 L 73 153 L 76 135 L 80 126 L 83 108 L 86 102 L 91 79 Q 89 73 93 74 L 97 53 L 99 50 L 98 48 L 100 47 L 104 25 L 107 19 L 107 9 L 102 3 L 93 3 Z M 156 20 L 153 21 L 144 39 L 140 44 L 130 66 L 126 70 L 122 80 Q 123 82 120 81 L 116 93 L 113 94 L 109 104 Q 110 107 107 106 L 102 118 Q 103 121 100 120 L 75 171 L 67 184 Q 65 192 71 194 L 80 193 L 104 151 Q 103 147 106 148 L 117 126 L 120 123 L 123 115 L 127 111 L 131 103 Q 130 99 133 100 L 134 96 L 142 84 L 151 65 L 164 44 Q 163 40 166 41 L 169 34 L 168 23 Q 164 19 156 20 Z " /><path fill="rgb(250,240,248)" stroke="rgb(250,240,248)" stroke-width="1" opacity="0.07058823529411765" d="M 90.5 4 L 91 5.5 L 89 6.5 L 90.5 4 Z " /><path fill="rgb(250,240,248)" stroke="rgb(250,240,248)" stroke-width="1" opacity="0.07058823529411765" d="M 103.5 5 L 104.5 7 L 103.5 5 Z " /><path fill="rgb(250,240,248)" stroke="rgb(250,240,248)" stroke-width="1" opacity="0.07058823529411765" d="M 153.5 21 L 152.5 23 L 153.5 21 Z " /><path fill="rgb(250,240,248)" stroke="rgb(250,240,248)" stroke-width="1" opacity="0.07058823529411765" d="M 165.5 21 L 168 22.5 L 166.5 23 L 165.5 21 Z " /><path fill="rgb(250,240,248)" stroke="rgb(250,240,248)" stroke-width="1" opacity="0.07058823529411765" d="M 98.5 48 L 99 49.5 L 97 50.5 L 98.5 48 Z " /><path fill="rgb(250,240,248)" stroke="rgb(250,240,248)" stroke-width="1" opacity="0.07058823529411765" d="M 158.5 50 L 159.5 52 L 158.5 50 Z " /><path fill="rgb(250,240,248)" stroke="rgb(250,240,248)" stroke-width="1" opacity="0.07058823529411765" d="M 157.5 53 L 156.5 55 L 157.5 53 Z " /><path fill="rgb(250,240,248)" stroke="rgb(250,240,248)" stroke-width="1" opacity="0.07058823529411765" d="M 135.5 54 L 134.5 56 L 135.5 54 Z " /><path fill="rgb(250,240,248)" stroke="rgb(250,240,248)" stroke-width="1" opacity="0.07058823529411765" d="M 75.5 66 L 75 67.5 L 74.5 70 L 74 67.5 L 75.5 66 Z " /><path fill="rgb(250,240,248)" stroke="rgb(250,240,248)" stroke-width="1" opacity="0.07058823529411765" d="M 129.5 66 L 129 67.5 L 128.5 69 L 128 67.5 L 129.5 66 Z " /><path fill="rgb(250,240,248)" stroke="rgb(250,240,248)" stroke-width="1" opacity="0.07058823529411765" d="M 126.5 69 L 127.5 71 L 126.5 69 Z " /><path fill="rgb(250,240,248)" stroke="rgb(250,240,248)" stroke-width="1" opacity="0.07058823529411765" d="M 138.5 87 L 137.5 89 L 138.5 87 Z " /><path fill="rgb(250,240,248)" stroke="rgb(250,240,248)" stroke-width="1" opacity="0.07058823529411765" d="M 115.5 93 L 115 94.5 L 114.5 96 L 113.5 94 L 115.5 93 Z " /><path fill="rgb(250,240,248)" stroke="rgb(250,240,248)" stroke-width="1" opacity="0.07058823529411765" d="M 112.5 96 L 113.5 98 L 112.5 96 Z " /><path fill="rgb(250,240,248)" stroke="rgb(250,240,248)" stroke-width="1" opacity="0.07058823529411765" d="M 84 101 L 86 101.5 L 84 102.5 L 84 101 Z " /><path fill="rgb(250,240,248)" stroke="rgb(250,240,248)" stroke-width="1" opacity="0.07058823529411765" d="M 125.5 109 L 126.5 111 L 125.5 109 Z " /><path fill="rgb(250,240,248)" stroke="rgb(250,240,248)" stroke-width="1" opacity="0.07058823529411765" d="M 78.5 124 Q 81.3 125.3 79 126.5 L 78.5 128 L 78 126.5 L 78.5 124 Z " /><path fill="rgb(250,240,248)" stroke="rgb(250,240,248)" stroke-width="1" opacity="0.07058823529411765" d="M 95.5 131 L 95 132.5 L 94.5 134 L 94 132.5 L 95.5 131 Z " /><path fill="rgb(250,240,248)" stroke="rgb(250,240,248)" stroke-width="1" opacity="0.07058823529411765" d="M 111.5 135 L 110.5 137 L 111.5 135 Z " /><path fill="rgb(250,240,248)" stroke="rgb(250,240,248)" stroke-width="1" opacity="0.07058823529411765" d="M 71.5 154 L 72 155.5 L 70 156.5 L 71.5 154 Z " /><path fill="rgb(250,240,248)" stroke="rgb(250,240,248)" stroke-width="1" opacity="0.07058823529411765" d="M 99.5 158 L 97.5 161 L 99.5 158 Z " /><path fill="rgb(54,31,68)" stroke="rgb(54,31,68)" stroke-width="1" opacity="0.9725490196078431" d="M 93.5 5 Q 103.3 3.3 105 9.5 L 106 13.5 L 102 25.5 L 99 42.5 L 96.5 46 L 83.5 44 L 82 42.5 L 85 32.5 L 88 13.5 Q 89.3 7.8 93.5 5 Z " /><path fill="rgb(54,31,68)" stroke="rgb(54,31,68)" stroke-width="1" opacity="0.9725490196078431" d="M 159.5 21 L 163.5 22 L 167 25.5 L 168 30.5 L 151 63 L 136 58 L 152 25.5 L 155.5 22 L 159.5 21 Z " /><path fill="rgb(202,16,77)" stroke="rgb(202,16,77)" stroke-width="1" opacity="0.9647058823529412" d="M 82.5 43 L 97 46 L 85 93.5 L 85 97.5 L 83 100.5 L 80 116.5 L 76 128.5 Q 78.5 130 75 131.5 L 75 135.5 Q 71.5 142.5 71 152.5 L 69 155.5 L 65 175.5 L 61 189.5 L 58.5 192 L 54.5 193 L 51 190.5 L 50 185.5 L 66 117.5 L 68 103.5 L 71 95.5 L 75 71.5 L 77 67.5 L 81 45.5 L 82.5 43 Z " /><path fill="rgb(202,16,77)" stroke="rgb(202,16,77)" stroke-width="1" opacity="0.9647058823529412" d="M 135.5 58 L 138.5 58 L 150 63.5 L 84 182.5 L 77.5 192 L 73.5 193 L 69 189.5 L 68 187.5 L 135.5 58 Z " /><path fill="rgb(197,121,150)" stroke="rgb(197,121,150)" stroke-width="1" opacity="0.42745098039215684" d="M 94.5 4 L 100 4.5 L 94.5 5 L 94.5 4 Z " /><path fill="rgb(197,121,150)" stroke="rgb(197,121,150)" stroke-width="1" opacity="0.42745098039215684" d="M 92.5 5 L 90 8.5 L 89.5 10 L 89 8.5 L 92.5 5 Z " /><path fill="rgb(197,121,150)" stroke="rgb(197,121,150)" stroke-width="1" opacity="0.42745098039215684" d="M 101.5 5 L 104.5 9 L 101.5 5 Z " /><path fill="rgb(197,121,150)" stroke="rgb(197,121,150)" stroke-width="1" opacity="0.42745098039215684" d="M 105.5 14 L 106 16.5 L 105 16.5 L 105.5 14 Z " /><path fill="rgb(197,121,150)" stroke="rgb(197,121,150)" stroke-width="1" opacity="0.42745098039215684" d="M 158.5 20 L 163 21.5 L 160.5 22 L 158.5 22 Q 153.2 21.2 152.5 25 L 155.5 21 L 158.5 20 Z " /><path fill="rgb(197,121,150)" stroke="rgb(197,121,150)" stroke-width="1" opacity="0.42745098039215684" d="M 103.5 22 L 104 25.5 L 101.5 33 L 101 30.5 L 103.5 22 Z " /><path fill="rgb(197,121,150)" stroke="rgb(197,121,150)" stroke-width="1" opacity="0.42745098039215684" d="M 164.5 22 L 166.5 25 L 164.5 22 Z " /><path fill="rgb(197,121,150)" stroke="rgb(197,121,150)" stroke-width="1" opacity="0.42745098039215684" d="M 85.5 25 L 86 27.5 L 82.5 39 L 82 37.5 L 85.5 25 Z " /><path fill="rgb(197,121,150)" stroke="rgb(197,121,150)" stroke-width="1" opacity="0.42745098039215684" d="M 151.5 26 L 151 27.5 L 142.5 44 L 142 42.5 L 151.5 26 Z " /><path fill="rgb(197,121,150)" stroke="rgb(197,121,150)" stroke-width="1" opacity="0.42745098039215684" d="M 167.5 26 L 169 31.5 L 167 32.5 L 168 28.5 L 167.5 26 Z " /><path fill="rgb(197,121,150)" stroke="rgb(197,121,150)" stroke-width="1" opacity="0.42745098039215684" d="M 164.5 38 L 164 39.5 L 159.5 48 L 159 46.5 L 164.5 38 Z " /><path fill="rgb(197,121,150)" stroke="rgb(197,121,150)" stroke-width="1" opacity="0.42745098039215684" d="M 81.5 42 L 82 44.5 L 81 44.5 L 81.5 42 Z " /><path fill="rgb(197,121,150)" stroke="rgb(197,121,150)" stroke-width="1" opacity="0.42745098039215684" d="M 98.5 43 L 99 44.5 L 96 53.5 L 96 57.5 L 94.5 59 L 94 57.5 L 98.5 43 Z " /><path fill="rgb(197,121,150)" stroke="rgb(197,121,150)" stroke-width="1" opacity="0.42745098039215684" d="M 158.5 49 L 158 50.5 L 153.5 58 L 154 56.5 L 158.5 49 Z " /><path fill="rgb(197,121,150)" stroke="rgb(197,121,150)" stroke-width="1" opacity="0.42745098039215684" d="M 138.5 51 L 138 52.5 L 134.5 59 L 135 57.5 L 138.5 51 Z " /><path fill="rgb(197,121,150)" stroke="rgb(197,121,150)" stroke-width="1" opacity="0.42745098039215684" d="M 79.5 52 L 80 54.5 L 78 55.5 L 79.5 52 Z " /><path fill="rgb(197,121,150)" stroke="rgb(197,121,150)" stroke-width="1" opacity="0.42745098039215684" d="M 78.5 57 L 79 58.5 L 76.5 68 L 76 64.5 Q 78.3 63.3 77 58.5 L 78.5 57 Z " /><path fill="rgb(197,121,150)" stroke="rgb(197,121,150)" stroke-width="1" opacity="0.42745098039215684" d="M 93 61 L 95 61.5 L 93 62.5 L 93 61 Z " /><path fill="rgb(197,121,150)" stroke="rgb(197,121,150)" stroke-width="1" opacity="0.42745098039215684" d="M 131 63 L 133 63.5 L 129.5 69 L 130 67.5 L 131 63 Z " /><path fill="rgb(197,121,150)" stroke="rgb(197,121,150)" stroke-width="1" opacity="0.42745098039215684" d="M 150.5 63 L 150 64.5 L 148.5 67 L 149 65.5 L 150.5 63 Z " /><path fill="rgb(197,121,150)" stroke="rgb(197,121,150)" stroke-width="1" opacity="0.42745098039215684" d="M 146.5 70 L 146 71.5 L 140.5 81 L 141 79.5 L 146.5 70 Z " /><path fill="rgb(197,121,150)" stroke="rgb(197,121,150)" stroke-width="1" opacity="0.42745098039215684" d="M 90.5 74 L 91 76.5 Q 88.4 79.4 89 85.5 L 87.5 87 L 87 85.5 L 90.5 74 Z " /><path fill="rgb(197,121,150)" stroke="rgb(197,121,150)" stroke-width="1" opacity="0.42745098039215684" d="M 125.5 76 L 125 77.5 L 121.5 84 L 122 82.5 L 125.5 76 Z " /><path fill="rgb(197,121,150)" stroke="rgb(197,121,150)" stroke-width="1" opacity="0.42745098039215684" d="M 72.5 84 L 73 85.5 L 69.5 100 L 69 95.5 L 71 85.5 L 72.5 84 Z " /><path fill="rgb(197,121,150)" stroke="rgb(197,121,150)" stroke-width="1" opacity="0.42745098039215684" d="M 137.5 86 L 137 87.5 L 134.5 92 L 135 90.5 L 137.5 86 Z " /><path fill="rgb(197,121,150)" stroke="rgb(197,121,150)" stroke-width="1" opacity="0.42745098039215684" d="M 119.5 87 L 120 88.5 L 116.5 94 L 116 92.5 L 119.5 87 Z " /><path fill="rgb(197,121,150)" stroke="rgb(197,121,150)" stroke-width="1" opacity="0.42745098039215684" d="M 131.5 97 L 131 98.5 L 126.5 106 L 127 104.5 L 131.5 97 Z " /><path fill="rgb(197,121,150)" stroke="rgb(197,121,150)" stroke-width="1" opacity="0.42745098039215684" d="M 84.5 98 L 85 99.5 L 82 112.5 L 80.5 114 L 80 112.5 L 84.5 98 Z " /><path fill="rgb(197,121,150)" stroke="rgb(197,121,150)" stroke-width="1" opacity="0.42745098039215684" d="M 111.5 103 L 111 104.5 L 108.5 109 L 109 107.5 L 111.5 103 Z " /><path fill="rgb(197,121,150)" stroke="rgb(197,121,150)" stroke-width="1" opacity="0.42745098039215684" d="M 123.5 111 L 123 112.5 L 122 117 L 120 116.5 L 123.5 111 Z " /><path fill="rgb(197,121,150)" stroke="rgb(197,121,150)" stroke-width="1" opacity="0.42745098039215684" d="M 65.5 114 L 66 117.5 L 62.5 131 L 62 127.5 L 65.5 114 Z " /><path fill="rgb(197,121,150)" stroke="rgb(197,121,150)" stroke-width="1" opacity="0.42745098039215684" d="M 105.5 114 L 105 115.5 L 102.5 121 L 102 119.5 L 105.5 114 Z " /><path fill="rgb(197,121,150)" stroke="rgb(197,121,150)" stroke-width="1" opacity="0.42745098039215684" d="M 117.5 122 L 117 123.5 L 114.5 128 L 115 126.5 L 117.5 122 Z " /><path fill="rgb(197,121,150)" stroke="rgb(197,121,150)" stroke-width="1" opacity="0.42745098039215684" d="M 77.5 124 L 78 126.5 L 77 126.5 L 77.5 124 Z " /><path fill="rgb(197,121,150)" stroke="rgb(197,121,150)" stroke-width="1" opacity="0.42745098039215684" d="M 98.5 128 L 98 129.5 L 95.5 134 L 96 132.5 L 98.5 128 Z " /><path fill="rgb(197,121,150)" stroke="rgb(197,121,150)" stroke-width="1" opacity="0.42745098039215684" d="M 76.5 130 L 77 131.5 L 75 140.5 L 73.5 142 L 73 140.5 Q 75.6 137.6 75 131.5 L 76.5 130 Z " /><path fill="rgb(197,121,150)" stroke="rgb(197,121,150)" stroke-width="1" opacity="0.42745098039215684" d="M 112.5 131 L 112 132.5 L 107.5 140 L 108 138.5 L 112.5 131 Z " /><path fill="rgb(197,121,150)" stroke="rgb(197,121,150)" stroke-width="1" opacity="0.42745098039215684" d="M 61.5 132 L 62 134.5 L 61 134.5 L 61.5 132 Z " /><path fill="rgb(197,121,150)" stroke="rgb(197,121,150)" stroke-width="1" opacity="0.42745098039215684" d="M 91.5 141 L 91 142.5 L 88.5 148 L 88 146.5 L 91.5 141 Z " /><path fill="rgb(197,121,150)" stroke="rgb(197,121,150)" stroke-width="1" opacity="0.42745098039215684" d="M 59.5 142 L 60 143.5 L 58 144.5 L 59.5 142 Z " /><path fill="rgb(197,121,150)" stroke="rgb(197,121,150)" stroke-width="1" opacity="0.42745098039215684" d="M 104.5 145 L 104 146.5 L 101.5 151 L 102 149.5 L 104.5 145 Z " /><path fill="rgb(197,121,150)" stroke="rgb(197,121,150)" stroke-width="1" opacity="0.42745098039215684" d="M 58.5 146 L 59 148.5 L 56.5 158 L 56 153.5 L 58.5 146 Z " /><path fill="rgb(197,121,150)" stroke="rgb(197,121,150)" stroke-width="1" opacity="0.42745098039215684" d="M 70.5 153 L 71 154.5 L 69 163.5 L 67.5 165 L 67 163.5 L 70.5 153 Z " /><path fill="rgb(197,121,150)" stroke="rgb(197,121,150)" stroke-width="1" opacity="0.42745098039215684" d="M 85.5 153 L 85 154.5 L 82.5 159 L 83 157.5 L 85.5 153 Z " /><path fill="rgb(197,121,150)" stroke="rgb(197,121,150)" stroke-width="1" opacity="0.42745098039215684" d="M 98.5 156 L 98 157.5 L 95.5 162 L 96 160.5 L 98.5 156 Z " /><path fill="rgb(197,121,150)" stroke="rgb(197,121,150)" stroke-width="1" opacity="0.42745098039215684" d="M 55.5 159 L 56 161.5 L 55 161.5 L 55.5 159 Z " /><path fill="rgb(197,121,150)" stroke="rgb(197,121,150)" stroke-width="1" opacity="0.42745098039215684" d="M 94.5 163 L 95 164.5 L 89 173.5 L 89 176 L 87 175.5 L 94.5 163 Z " /><path fill="rgb(197,121,150)" stroke="rgb(197,121,150)" stroke-width="1" opacity="0.42745098039215684" d="M 78.5 166 L 78 167.5 L 74.5 175 L 74 173.5 L 78.5 166 Z " /><path fill="rgb(197,121,150)" stroke="rgb(197,121,150)" stroke-width="1" opacity="0.42745098039215684" d="M 52.5 174 L 53 175.5 L 50 188.5 L 50.5 190 Q 48.3 189.3 49 185.5 L 51 175.5 L 52.5 174 Z " /><path fill="rgb(197,121,150)" stroke="rgb(197,121,150)" stroke-width="1" opacity="0.42745098039215684" d="M 72.5 178 L 72 179.5 L 69.5 184 L 70 182.5 L 72.5 178 Z " /><path fill="rgb(197,121,150)" stroke="rgb(197,121,150)" stroke-width="1" opacity="0.42745098039215684" d="M 63.5 179 L 64 182.5 L 62 189.5 L 57.5 194 Q 52 195 51 191.5 L 52.5 192 L 56.5 193 L 61 189.5 L 63.5 179 Z " /><path fill="rgb(197,121,150)" stroke="rgb(197,121,150)" stroke-width="1" opacity="0.42745098039215684" d="M 83.5 183 L 83 184.5 L 81.5 187 L 82 185.5 L 83.5 183 Z " /><path fill="rgb(197,121,150)" stroke="rgb(197,121,150)" stroke-width="1" opacity="0.42745098039215684" d="M 68.5 188 L 71.5 192 L 74.5 193 L 78.5 191 L 77.5 193 L 72.5 194 L 68 189.5 L 68.5 188 Z " /><path fill="rgb(169,154,161)" stroke="rgb(169,154,161)" stroke-width="1" opacity="0.0392156862745098" d="M 93.5 3 Q 100.3 1.7 103 4.5 L 101.5 5 Q 99.8 2.3 93.5 4 L 91.5 5 L 91.5 4 L 93.5 3 Z " /><path fill="rgb(169,154,161)" stroke="rgb(169,154,161)" stroke-width="1" opacity="0.0392156862745098" d="M 105.5 7 Q 108.5 10 107 17.5 L 105.5 22 L 105 18.5 L 106 17.5 L 106 9.5 L 105.5 7 Z " /><path fill="rgb(169,154,161)" stroke="rgb(169,154,161)" stroke-width="1" opacity="0.0392156862745098" d="M 87.5 9 L 88 14.5 L 86 24 L 84 23.5 L 87.5 9 Z " /><path fill="rgb(169,154,161)" stroke="rgb(169,154,161)" stroke-width="1" opacity="0.0392156862745098" d="M 152.5 21 L 151.5 23 L 152.5 21 Z " /><path fill="rgb(169,154,161)" stroke="rgb(169,154,161)" stroke-width="1" opacity="0.0392156862745098" d="M 147.5 31 L 147 32.5 L 144.5 39 L 144 36.5 L 147.5 31 Z " /><path fill="rgb(169,154,161)" stroke="rgb(169,154,161)" stroke-width="1" opacity="0.0392156862745098" d="M 168.5 32 L 168 33.5 L 167.5 35 L 167 33.5 L 168.5 32 Z " /><path fill="rgb(169,154,161)" stroke="rgb(169,154,161)" stroke-width="1" opacity="0.0392156862745098" d="M 101.5 33 L 102 35.5 L 101 35.5 L 101.5 33 Z " /><path fill="rgb(169,154,161)" stroke="rgb(169,154,161)" stroke-width="1" opacity="0.0392156862745098" d="M 166.5 36 L 167 38.5 L 165 39.5 L 166.5 36 Z " /><path fill="rgb(169,154,161)" stroke="rgb(169,154,161)" stroke-width="1" opacity="0.0392156862745098" d="M 100 37 L 102 37.5 L 99.5 47 L 99 42.5 L 100 37 Z " /><path fill="rgb(169,154,161)" stroke="rgb(169,154,161)" stroke-width="1" opacity="0.0392156862745098" d="M 80.5 41 L 81 44.5 L 78.5 54 L 78 51.5 L 80.5 41 Z " /><path fill="rgb(169,154,161)" stroke="rgb(169,154,161)" stroke-width="1" opacity="0.0392156862745098" d="M 140.5 43 L 141 44.5 L 139 50 L 137 49.5 L 140.5 43 Z " /><path fill="rgb(169,154,161)" stroke="rgb(169,154,161)" stroke-width="1" opacity="0.0392156862745098" d="M 163.5 43 L 162 45.5 L 159.5 51 L 159 49.5 L 161 44 L 163.5 43 Z " /><path fill="rgb(169,154,161)" stroke="rgb(169,154,161)" stroke-width="1" opacity="0.0392156862745098" d="M 134.5 56 L 134 57.5 Q 133.8 62.3 130.5 64 L 131 62.5 L 134.5 56 Z " /><path fill="rgb(169,154,161)" stroke="rgb(169,154,161)" stroke-width="1" opacity="0.0392156862745098" d="M 154 57 L 156 57.5 L 151.5 64 L 153 61.5 L 154 57 Z " /><path fill="rgb(169,154,161)" stroke="rgb(169,154,161)" stroke-width="1" opacity="0.0392156862745098" d="M 94.5 65 L 94 66.5 L 92.5 73 L 92 69.5 L 94.5 65 Z " /><path fill="rgb(169,154,161)" stroke="rgb(169,154,161)" stroke-width="1" opacity="0.0392156862745098" d="M 148.5 70 L 148 71.5 L 145.5 75 L 147 72.5 L 148.5 70 Z " /><path fill="rgb(169,154,161)" stroke="rgb(169,154,161)" stroke-width="1" opacity="0.0392156862745098" d="M 74.5 71 L 74 72.5 L 73 81.5 L 71.5 83 L 72 81.5 L 73 72.5 L 74.5 71 Z " /><path fill="rgb(169,154,161)" stroke="rgb(169,154,161)" stroke-width="1" opacity="0.0392156862745098" d="M 120.5 82 L 121 83.5 L 117.5 89 L 118 87.5 L 120.5 82 Z " /><path fill="rgb(169,154,161)" stroke="rgb(169,154,161)" stroke-width="1" opacity="0.0392156862745098" d="M 140.5 83 L 142 83.5 L 139.5 87 L 139 84.5 L 140.5 83 Z " /><path fill="rgb(169,154,161)" stroke="rgb(169,154,161)" stroke-width="1" opacity="0.0392156862745098" d="M 87.5 88 L 88 92.5 L 85.5 101 L 85 97.5 L 87.5 88 Z " /><path fill="rgb(169,154,161)" stroke="rgb(169,154,161)" stroke-width="1" opacity="0.0392156862745098" d="M 134.5 94 L 134 95.5 L 132.5 99 L 132 97.5 L 134.5 94 Z " /><path fill="rgb(169,154,161)" stroke="rgb(169,154,161)" stroke-width="1" opacity="0.0392156862745098" d="M 67.5 99 L 68 103.5 L 66 113.5 L 64.5 115 L 65 113.5 L 65 108.5 L 67.5 99 Z " /><path fill="rgb(169,154,161)" stroke="rgb(169,154,161)" stroke-width="1" opacity="0.0392156862745098" d="M 128.5 105 L 128 106.5 L 125.5 112 L 125 110.5 L 128.5 105 Z " /><path fill="rgb(169,154,161)" stroke="rgb(169,154,161)" stroke-width="1" opacity="0.0392156862745098" d="M 107.5 107 L 107 108.5 L 105.5 113 L 105 111.5 L 107.5 107 Z " /><path fill="rgb(169,154,161)" stroke="rgb(169,154,161)" stroke-width="1" opacity="0.0392156862745098" d="M 104.5 114 L 103.5 116 L 104.5 114 Z " /><path fill="rgb(169,154,161)" stroke="rgb(169,154,161)" stroke-width="1" opacity="0.0392156862745098" d="M 80.5 116 L 81 120.5 L 79.5 125 L 79 121.5 L 80.5 116 Z " /><path fill="rgb(169,154,161)" stroke="rgb(169,154,161)" stroke-width="1" opacity="0.0392156862745098" d="M 121.5 118 L 121 119.5 L 119.5 123 L 119 121.5 L 121.5 118 Z " /><path fill="rgb(169,154,161)" stroke="rgb(169,154,161)" stroke-width="1" opacity="0.0392156862745098" d="M 100.5 121 L 101 122.5 L 99 123.5 L 100.5 121 Z " /><path fill="rgb(169,154,161)" stroke="rgb(169,154,161)" stroke-width="1" opacity="0.0392156862745098" d="M 61.5 129 L 61 130.5 L 59.5 140 L 59 135.5 L 61.5 129 Z " /><path fill="rgb(169,154,161)" stroke="rgb(169,154,161)" stroke-width="1" opacity="0.0392156862745098" d="M 114.5 131 L 114 132.5 L 112.5 135 L 113 133.5 L 114.5 131 Z " /><path fill="rgb(169,154,161)" stroke="rgb(169,154,161)" stroke-width="1" opacity="0.0392156862745098" d="M 93.5 133 L 94 134.5 L 92.5 138 L 92 135.5 L 93.5 133 Z " /><path fill="rgb(169,154,161)" stroke="rgb(169,154,161)" stroke-width="1" opacity="0.0392156862745098" d="M 74.5 141 L 75 142.5 L 72.5 152 L 72 148.5 L 74.5 141 Z " /><path fill="rgb(169,154,161)" stroke="rgb(169,154,161)" stroke-width="1" opacity="0.0392156862745098" d="M 106.5 145 L 105.5 147 L 106.5 145 Z " /><path fill="rgb(169,154,161)" stroke="rgb(169,154,161)" stroke-width="1" opacity="0.0392156862745098" d="M 87.5 146 L 87 147.5 L 85.5 151 L 84 150.5 L 87.5 146 Z " /><path fill="rgb(169,154,161)" stroke="rgb(169,154,161)" stroke-width="1" opacity="0.0392156862745098" d="M 101.5 153 L 101 154.5 L 99.5 158 L 99 156.5 L 101.5 153 Z " /><path fill="rgb(169,154,161)" stroke="rgb(169,154,161)" stroke-width="1" opacity="0.0392156862745098" d="M 81.5 157 L 81 158.5 L 78.5 165 L 78 162.5 L 81.5 157 Z " /><path fill="rgb(169,154,161)" stroke="rgb(169,154,161)" stroke-width="1" opacity="0.0392156862745098" d="M 53.5 161 L 54 166.5 L 52.5 172 L 52 167.5 L 53.5 161 Z " /><path fill="rgb(169,154,161)" stroke="rgb(169,154,161)" stroke-width="1" opacity="0.0392156862745098" d="M 96.5 163 L 95 165.5 L 92.5 171 L 92 169.5 L 96.5 163 Z " /><path fill="rgb(169,154,161)" stroke="rgb(169,154,161)" stroke-width="1" opacity="0.0392156862745098" d="M 67.5 167 L 68 171.5 L 65.5 180 L 65 176.5 L 67.5 167 Z " /><path fill="rgb(169,154,161)" stroke="rgb(169,154,161)" stroke-width="1" opacity="0.0392156862745098" d="M 74.5 171 L 74 172.5 L 73 177 L 71 176.5 L 74.5 171 Z " /><path fill="rgb(169,154,161)" stroke="rgb(169,154,161)" stroke-width="1" opacity="0.0392156862745098" d="M 87 177 L 89 177.5 L 85.5 183 L 86 181.5 L 87 177 Z " /><path fill="rgb(169,154,161)" stroke="rgb(169,154,161)" stroke-width="1" opacity="0.0392156862745098" d="M 67.5 184 L 68 189.5 L 67 189.5 L 67.5 184 Z " /><path fill="rgb(169,154,161)" stroke="rgb(169,154,161)" stroke-width="1" opacity="0.0392156862745098" d="M 80.5 190 L 82 190.5 L 78.5 193 L 80.5 190 Z " /><path fill="rgb(169,154,161)" stroke="rgb(169,154,161)" stroke-width="1" opacity="0.0392156862745098" d="M 49.5 191 L 51.5 194 L 49.5 191 Z " /><path fill="rgb(169,154,161)" stroke="rgb(169,154,161)" stroke-width="1" opacity="0.0392156862745098" d="M 68.5 191 L 70.5 194 L 68.5 191 Z " /><path fill="rgb(228,193,206)" stroke="rgb(228,193,206)" stroke-width="1" opacity="0.2627450980392157" d="M 91.5 5 L 89.5 8 L 91.5 5 Z " /><path fill="rgb(228,193,206)" stroke="rgb(228,193,206)" stroke-width="1" opacity="0.2627450980392157" d="M 102.5 5 L 104.5 8 L 102.5 5 Z " /><path fill="rgb(228,193,206)" stroke="rgb(228,193,206)" stroke-width="1" opacity="0.2627450980392157" d="M 154.5 21 L 152.5 24 L 151 23.5 L 154.5 21 Z " /><path fill="rgb(228,193,206)" stroke="rgb(228,193,206)" stroke-width="1" opacity="0.2627450980392157" d="M 163.5 21 L 168 23.5 L 166.5 24 L 163.5 21 Z " /><path fill="rgb(228,193,206)" stroke="rgb(228,193,206)" stroke-width="1" opacity="0.2627450980392157" d="M 84 24 L 86 24.5 L 84 25.5 L 84 24 Z " /><path fill="rgb(228,193,206)" stroke="rgb(228,193,206)" stroke-width="1" opacity="0.2627450980392157" d="M 142.5 41 L 141.5 43 L 142.5 41 Z " /><path fill="rgb(228,193,206)" stroke="rgb(228,193,206)" stroke-width="1" opacity="0.2627450980392157" d="M 140.5 46 L 140 47.5 L 139.5 49 L 139 47.5 L 140.5 46 Z " /><path fill="rgb(228,193,206)" stroke="rgb(228,193,206)" stroke-width="1" opacity="0.2627450980392157" d="M 158.5 51 L 156.5 54 L 158.5 51 Z " /><path fill="rgb(228,193,206)" stroke="rgb(228,193,206)" stroke-width="1" opacity="0.2627450980392157" d="M 77 56 L 79 56.5 L 77 57.5 L 77 56 Z " /><path fill="rgb(228,193,206)" stroke="rgb(228,193,206)" stroke-width="1" opacity="0.2627450980392157" d="M 95.5 58 L 96 59.5 L 94 60.5 L 95.5 58 Z " /><path fill="rgb(228,193,206)" stroke="rgb(228,193,206)" stroke-width="1" opacity="0.2627450980392157" d="M 153.5 58 L 154 59.5 L 152 60.5 L 153.5 58 Z " /><path fill="rgb(228,193,206)" stroke="rgb(228,193,206)" stroke-width="1" opacity="0.2627450980392157" d="M 76.5 61 L 77 63.5 L 76 63.5 L 76.5 61 Z " /><path fill="rgb(228,193,206)" stroke="rgb(228,193,206)" stroke-width="1" opacity="0.2627450980392157" d="M 93.5 63 Q 96.5 64.5 93.5 66 L 93.5 63 Z " /><path fill="rgb(228,193,206)" stroke="rgb(228,193,206)" stroke-width="1" opacity="0.2627450980392157" d="M 150.5 64 L 151 65.5 L 148 67.5 L 150.5 64 Z " /><path fill="rgb(228,193,206)" stroke="rgb(228,193,206)" stroke-width="1" opacity="0.2627450980392157" d="M 147 69 L 149 69.5 L 145.5 74 L 146 72.5 L 147 69 Z " /><path fill="rgb(228,193,206)" stroke="rgb(228,193,206)" stroke-width="1" opacity="0.2627450980392157" d="M 125.5 72 Q 128.3 73.3 126 74.5 Q 126.7 77.1 124 76 Q 122.9 73.3 125.5 74 L 125.5 72 Z " /><path fill="rgb(228,193,206)" stroke="rgb(228,193,206)" stroke-width="1" opacity="0.2627450980392157" d="M 143.5 77 L 144 78.5 Q 141.3 79.6 142 83 L 139.5 84 L 140 82.5 L 143.5 77 Z " /><path fill="rgb(228,193,206)" stroke="rgb(228,193,206)" stroke-width="1" opacity="0.2627450980392157" d="M 122.5 80 L 122 81.5 L 121.5 83 L 121 81.5 L 122.5 80 Z " /><path fill="rgb(228,193,206)" stroke="rgb(228,193,206)" stroke-width="1" opacity="0.2627450980392157" d="M 138.5 85 L 139 86.5 L 137 87.5 L 138.5 85 Z " /><path fill="rgb(228,193,206)" stroke="rgb(228,193,206)" stroke-width="1" opacity="0.2627450980392157" d="M 88.5 86 L 89 88 L 87 87.5 L 88.5 86 Z " /><path fill="rgb(228,193,206)" stroke="rgb(228,193,206)" stroke-width="1" opacity="0.2627450980392157" d="M 135.5 91 L 137 91.5 L 133 94.5 L 135.5 91 Z " /><path fill="rgb(228,193,206)" stroke="rgb(228,193,206)" stroke-width="1" opacity="0.2627450980392157" d="M 112.5 97 Q 115.2 98.3 113 99.5 L 110.5 104 L 110 101.5 Q 114.2 99.3 112.5 97 Z " /><path fill="rgb(228,193,206)" stroke="rgb(228,193,206)" stroke-width="1" opacity="0.2627450980392157" d="M 128.5 104 L 127 106.5 L 125.5 109 L 126 107.5 L 128.5 104 Z " /><path fill="rgb(228,193,206)" stroke="rgb(228,193,206)" stroke-width="1" opacity="0.2627450980392157" d="M 108.5 107 L 108 108.5 L 107.5 110 L 107 108.5 L 108.5 107 Z " /><path fill="rgb(228,193,206)" stroke="rgb(228,193,206)" stroke-width="1" opacity="0.2627450980392157" d="M 80 114 Q 83 113 82 116 Q 79 117 80 114 Z " /><path fill="rgb(228,193,206)" stroke="rgb(228,193,206)" stroke-width="1" opacity="0.2627450980392157" d="M 120 117 L 122 117.5 L 119 119.5 L 120 117 Z " /><path fill="rgb(228,193,206)" stroke="rgb(228,193,206)" stroke-width="1" opacity="0.2627450980392157" d="M 100.5 123 L 100 124.5 L 97.5 129 L 96 128.5 Q 100.3 126.3 98.5 124 L 100.5 123 Z " /><path fill="rgb(228,193,206)" stroke="rgb(228,193,206)" stroke-width="1" opacity="0.2627450980392157" d="M 113 130 L 115 130.5 L 112 132.5 L 113 130 Z " /><path fill="rgb(228,193,206)" stroke="rgb(228,193,206)" stroke-width="1" opacity="0.2627450980392157" d="M 94.5 134 L 94 135.5 L 93.5 137 L 93 135.5 L 94.5 134 Z " /><path fill="rgb(228,193,206)" stroke="rgb(228,193,206)" stroke-width="1" opacity="0.2627450980392157" d="M 109.5 138 L 109 139.5 L 109 142 Q 106 140.8 107 144.5 L 104 146.5 L 109.5 138 Z " /><path fill="rgb(228,193,206)" stroke="rgb(228,193,206)" stroke-width="1" opacity="0.2627450980392157" d="M 58 140 Q 61 139 60 142 Q 57 143 58 140 Z " /><path fill="rgb(228,193,206)" stroke="rgb(228,193,206)" stroke-width="1" opacity="0.2627450980392157" d="M 90 140 L 92 140.5 L 90 141.5 L 90 140 Z " /><path fill="rgb(228,193,206)" stroke="rgb(228,193,206)" stroke-width="1" opacity="0.2627450980392157" d="M 86.5 150 L 86 151.5 L 83.5 156 L 83 154.5 L 86.5 150 Z " /><path fill="rgb(228,193,206)" stroke="rgb(228,193,206)" stroke-width="1" opacity="0.2627450980392157" d="M 102.5 150 L 102.5 153 L 100.5 154 L 101 152.5 L 102.5 150 Z " /><path fill="rgb(228,193,206)" stroke="rgb(228,193,206)" stroke-width="1" opacity="0.2627450980392157" d="M 98.5 157 L 99 158.5 L 97 159.5 L 98.5 157 Z " /><path fill="rgb(228,193,206)" stroke="rgb(228,193,206)" stroke-width="1" opacity="0.2627450980392157" d="M 54.5 161 L 55 163.5 L 54 163.5 L 54.5 161 Z " /><path fill="rgb(228,193,206)" stroke="rgb(228,193,206)" stroke-width="1" opacity="0.2627450980392157" d="M 80.5 161 L 80 162.5 L 79.5 164 L 79 162.5 L 80.5 161 Z " /><path fill="rgb(228,193,206)" stroke="rgb(228,193,206)" stroke-width="1" opacity="0.2627450980392157" d="M 96.5 161 L 96 162.5 L 95.5 164 L 95 162.5 L 96.5 161 Z " /><path fill="rgb(228,193,206)" stroke="rgb(228,193,206)" stroke-width="1" opacity="0.2627450980392157" d="M 67 165 Q 70 164 69 167 Q 66 168 67 165 Z " /><path fill="rgb(228,193,206)" stroke="rgb(228,193,206)" stroke-width="1" opacity="0.2627450980392157" d="M 91.5 171 L 90 173.5 L 89.5 175 L 89 173.5 L 91.5 171 Z " /><path fill="rgb(228,193,206)" stroke="rgb(228,193,206)" stroke-width="1" opacity="0.2627450980392157" d="M 51.5 172 Q 53.8 171.3 53 173.5 L 51.5 172 Z " /><path fill="rgb(228,193,206)" stroke="rgb(228,193,206)" stroke-width="1" opacity="0.2627450980392157" d="M 71 177 L 73 177.5 L 70 183 L 68 182.5 L 71 177 Z " /><path fill="rgb(228,193,206)" stroke="rgb(228,193,206)" stroke-width="1" opacity="0.2627450980392157" d="M 86.5 178 L 87 179.5 L 85 180.5 L 86.5 178 Z " /><path fill="rgb(228,193,206)" stroke="rgb(228,193,206)" stroke-width="1" opacity="0.2627450980392157" d="M 83.5 184 L 84 185.5 L 81 187.5 L 83.5 184 Z " /><path fill="rgb(228,193,206)" stroke="rgb(228,193,206)" stroke-width="1" opacity="0.2627450980392157" d="M 49.5 189 L 52 192.5 L 50 191.5 L 49.5 189 Z " /><path fill="rgb(228,193,206)" stroke="rgb(228,193,206)" stroke-width="1" opacity="0.2627450980392157" d="M 80.5 189 L 82 189.5 L 79.5 191 L 80.5 189 Z " /><path fill="rgb(228,193,206)" stroke="rgb(228,193,206)" stroke-width="1" opacity="0.2627450980392157" d="M 68.5 190 L 71.5 194 L 68.5 190 Z " /><path fill="rgb(228,193,206)" stroke="rgb(228,193,206)" stroke-width="1" opacity="0.2627450980392157" d="M 60.5 191 L 62 191.5 L 58.5 194 L 60.5 191 Z " /></svg>