<svg width="200" height="200" version="1.1" xmlns="http://www.w3.org/2000/svg" desc="Created with imagetracer.js version 1.2.6" ><path fill="rgb(28,28,28)" stroke="rgb(28,28,28)" stroke-width="1" opacity="1" d="M 78.5 87 L 83 90.5 Q 85.7 94.3 84 102.5 L 80.5 107 Q 74.8 107.8 74 103.5 L 74 90.5 L 76.5 88 L 78.5 87 Z " /><path fill="rgb(28,28,28)" stroke="rgb(28,28,28)" stroke-width="1" opacity="1" d="M 123.5 89 L 127 90 L 129 93.5 L 129 105.5 Q 128.3 109.8 122.5 109 Q 116.6 105.9 118 95.5 L 120 90 L 123.5 89 Z " /><path fill="rgb(28,28,28)" stroke="rgb(28,28,28)" stroke-width="1" opacity="1" d="M 91.5 129 L 110.5 130 L 113 132.5 Q 115.3 135.7 114 142.5 L 113 145.5 L 103.5 155 L 99.5 155 L 95 151.5 L 88 141.5 L 88 133.5 L 91.5 129 Z " /><path fill="rgb(28,28,28)" stroke="rgb(28,28,28)" stroke-width="1" opacity="1" d="M 100.5 156 Q 102.8 155.3 102 157.5 Q 104.6 160.4 104 166.5 Q 106.3 173.3 111.5 177 L 117 179.5 Q 117.8 183.3 115.5 184 Q 107.4 182.6 104 176.5 L 100.5 172 L 97.5 177 Q 94.4 181.9 86.5 182 Q 84.3 181.3 85 177.5 L 91.5 175 L 96 170.5 Q 98.7 167.2 98 160.5 L 100.5 156 Z " /><path fill="rgb(96,96,96)" stroke="rgb(96,96,96)" stroke-width="1" opacity="1" d="M 76.5 87 L 78 87.5 L 74 90.5 L 74 103.5 L 77 106.5 L 73 103.5 L 73 90.5 L 76.5 87 Z " /><path fill="rgb(96,96,96)" stroke="rgb(96,96,96)" stroke-width="1" opacity="1" d="M 79.5 87 L 83 88 Q 86.4 92.2 85 102.5 L 81.5 107 L 83 104.5 Q 85.7 100.7 84 92.5 L 80.5 88 L 79.5 87 Z " /><path fill="rgb(96,96,96)" stroke="rgb(96,96,96)" stroke-width="1" opacity="1" d="M 123.5 88 L 122.5 90 L 121 89.5 L 123.5 88 Z " /><path fill="rgb(96,96,96)" stroke="rgb(96,96,96)" stroke-width="1" opacity="1" d="M 125.5 89 L 128 90.5 L 129 92.5 L 127 91.5 Q 127.8 89.3 125.5 90 L 125.5 89 Z " /><path fill="rgb(96,96,96)" stroke="rgb(96,96,96)" stroke-width="1" opacity="1" d="M 119.5 90 L 120 91.5 L 118.5 95 L 118 92.5 L 119.5 90 Z " /><path fill="rgb(96,96,96)" stroke="rgb(96,96,96)" stroke-width="1" opacity="1" d="M 129.5 94 L 130 103.5 L 129 103.5 L 129.5 94 Z " /><path fill="rgb(96,96,96)" stroke="rgb(96,96,96)" stroke-width="1" opacity="1" d="M 118.5 103 L 122 108.5 L 120.5 109 Q 116.9 107.1 118.5 103 Z " /><path fill="rgb(96,96,96)" stroke="rgb(96,96,96)" stroke-width="1" opacity="1" d="M 128.5 106 L 126.5 109 L 128.5 106 Z " /><path fill="rgb(96,96,96)" stroke="rgb(96,96,96)" stroke-width="1" opacity="1" d="M 92.5 128 L 107.5 128 L 110 129.5 L 103.5 130 L 102.5 129 L 92.5 129 L 92.5 128 Z " /><path fill="rgb(96,96,96)" stroke="rgb(96,96,96)" stroke-width="1" opacity="1" d="M 90.5 129 L 89 131.5 L 87.5 141 L 87 133.5 L 90.5 129 Z " /><path fill="rgb(96,96,96)" stroke="rgb(96,96,96)" stroke-width="1" opacity="1" d="M 111.5 130 Q 116.8 132.8 115 142.5 L 113.5 145 L 113 143.5 L 114 142.5 L 114 134.5 L 111.5 130 Z " /><path fill="rgb(96,96,96)" stroke="rgb(96,96,96)" stroke-width="1" opacity="1" d="M 91.5 147 L 94.5 151 L 91.5 147 Z " /><path fill="rgb(96,96,96)" stroke="rgb(96,96,96)" stroke-width="1" opacity="1" d="M 111.5 147 L 104.5 155 L 111.5 147 Z " /><path fill="rgb(96,96,96)" stroke="rgb(96,96,96)" stroke-width="1" opacity="1" d="M 97.5 153 Q 98.8 156 103 155 L 104 161.5 L 103 161.5 L 102 156 L 99.5 157 L 97.5 153 Z " /><path fill="rgb(96,96,96)" stroke="rgb(96,96,96)" stroke-width="1" opacity="1" d="M 104.5 164 L 106 168.5 L 105 168.5 L 104.5 164 Z " /><path fill="rgb(96,96,96)" stroke="rgb(96,96,96)" stroke-width="1" opacity="1" d="M 96.5 167 L 97 168.5 L 91.5 175 L 85.5 177 L 86.5 175 Q 92.9 174.9 95 170.5 L 96.5 167 Z " /><path fill="rgb(96,96,96)" stroke="rgb(96,96,96)" stroke-width="1" opacity="1" d="M 100.5 172 L 109 181.5 L 103 176.5 L 100.5 172 Z " /><path fill="rgb(96,96,96)" stroke="rgb(96,96,96)" stroke-width="1" opacity="1" d="M 107.5 172 L 111.5 177 L 107.5 172 Z " /><path fill="rgb(96,96,96)" stroke="rgb(96,96,96)" stroke-width="1" opacity="1" d="M 96.5 177 L 97 179 L 93.5 181 L 96.5 177 Z " /><path fill="rgb(96,96,96)" stroke="rgb(96,96,96)" stroke-width="1" opacity="1" d="M 114.5 177 L 118 179.5 Q 118.8 183.3 116.5 184 L 117 182.5 Q 117.8 178.8 115.5 178 L 114.5 177 Z " /><path fill="rgb(96,96,96)" stroke="rgb(96,96,96)" stroke-width="1" opacity="1" d="M 110.5 182 L 114 183.5 L 112.5 184 L 110.5 182 Z " /><path fill="rgb(155,155,155)" stroke="rgb(155,155,155)" stroke-width="1" opacity="0.996078431372549" d="M 48.5 6 L 50.5 6 L 59 13 L 62.5 18 L 81.5 36 L 83 36 L 84.5 39 L 88 41.5 L 90.5 45 Q 95.3 49.7 106.5 48 L 109.5 47 L 154.5 7 L 157 8 L 158 10.5 L 158 69.5 L 182 121.5 L 179.5 125 Q 175.8 124.3 175 126.5 L 174 131.5 L 176 138 Q 172.7 139.3 174 134.5 L 173 133.5 L 173 125.5 Q 174.5 121.8 180 123 L 180 118.5 L 177 115.5 L 172 101.5 L 168 96.5 L 164 84 Q 161 85.3 162 81.5 L 157 71.5 L 157 11.5 L 156 9 L 146 15 L 143.5 19 Q 140.2 17.9 141 20.5 L 137 23 L 134.5 27 Q 131.2 25.9 132 28.5 L 129 33 L 124 35 Q 125.1 37.7 122.5 37 L 120 41 L 115 43 Q 116.1 45.7 113.5 45 L 111 49 Q 106.2 51.1 96.5 50 L 87 43.5 L 85.5 41 L 83 39.5 Q 83.8 37.3 81.5 38 L 79 37 L 76.5 33 Q 74.3 33.8 75 31.5 L 68 25.5 L 66.5 23 L 64 21.5 L 62.5 19 L 59 16.5 Q 59.8 14.3 57.5 15 L 51 10 L 49.5 7 L 47 8 L 48 12.5 L 48 67.5 L 42 77.5 L 33 100.5 L 27 109.5 L 26 115 L 32 117.5 L 33 126.5 L 32 130 Q 29 131.3 30 127.5 Q 32.8 125.8 31 119.5 L 25 115.5 L 25 111.5 L 27 106.5 L 46 67.5 L 46 8.5 L 48.5 6 Z " /><path fill="rgb(0,0,0)" stroke="rgb(0,0,0)" stroke-width="1" opacity="0" d="M 0 0 L 200 0 L 200 200 L 0 200 L 0 0 Z M 47 4 L 45 6 L 45 65 L 25 107 L 24 118 L 30 122 Q 27 128 28 138 L 33 139 L 35 143 L 33 150 Q 32 156 34 158 L 38 159 L 68 156 L 72 163 L 73 174 L 77 190 L 85 196 L 104 197 L 105 198 L 119 198 L 123 196 L 128 188 L 132 164 L 136 161 L 141 161 L 155 165 L 161 165 L 165 167 L 172 167 Q 173 157 170 151 Q 172 146 178 147 Q 180 137 176 132 L 177 128 Q 178 125 183 126 L 183 117 L 180 114 L 178 106 L 171 94 L 169 87 L 160 69 L 160 10 L 159 8 L 155 5 L 150 7 L 148 10 Q 147 13 143 12 L 141 16 Q 138 15 139 18 L 134 20 L 132 24 L 129 26 L 126 30 L 122 33 Q 123 35 120 34 L 117 38 L 108 45 Q 104 44 105 47 L 99 47 L 93 44 L 91 42 L 84 36 Q 85 33 83 34 L 80 30 L 79 30 L 64 16 L 61 13 L 59 11 L 57 9 L 52 4 L 47 4 Z " /><path fill="rgb(171,171,171)" stroke="rgb(171,171,171)" stroke-width="1" opacity="0.2627450980392157" d="M 46.5 4 Q 52.8 2.8 54 6.5 L 51.5 5 Q 46.8 3.7 45.5 6 L 46.5 4 Z " /><path fill="rgb(171,171,171)" stroke="rgb(171,171,171)" stroke-width="1" opacity="0.2627450980392157" d="M 47.5 6 L 46.5 8 L 47.5 6 Z " /><path fill="rgb(171,171,171)" stroke="rgb(171,171,171)" stroke-width="1" opacity="0.2627450980392157" d="M 149.5 7 L 148.5 9 L 149.5 7 Z " /><path fill="rgb(171,171,171)" stroke="rgb(171,171,171)" stroke-width="1" opacity="0.2627450980392157" d="M 158.5 8 L 160 9.5 L 160 68.5 L 158 69.5 L 159 68.5 L 159 9.5 L 157 9.5 L 158.5 8 Z " /><path fill="rgb(171,171,171)" stroke="rgb(171,171,171)" stroke-width="1" opacity="0.2627450980392157" d="M 45.5 9 L 46 65.5 L 45 65.5 L 45.5 9 Z " /><path fill="rgb(171,171,171)" stroke="rgb(171,171,171)" stroke-width="1" opacity="0.2627450980392157" d="M 54.5 9 L 56.5 12 L 54.5 9 Z " /><path fill="rgb(171,171,171)" stroke="rgb(171,171,171)" stroke-width="1" opacity="0.2627450980392157" d="M 150.5 9 L 147.5 13 L 145.5 13 L 143 14.5 Q 143.8 16.8 141.5 16 L 141.5 18 L 139 16.5 L 146.5 11 L 147.5 12 L 150.5 9 Z " /><path fill="rgb(171,171,171)" stroke="rgb(171,171,171)" stroke-width="1" opacity="0.2627450980392157" d="M 59.5 11 L 60.5 13 L 59.5 11 Z " /><path fill="rgb(171,171,171)" stroke="rgb(171,171,171)" stroke-width="1" opacity="0.2627450980392157" d="M 59.5 14 L 63.5 16 L 67 18.5 L 64.5 17 L 62.5 18 L 59.5 14 Z " /><path fill="rgb(171,171,171)" stroke="rgb(171,171,171)" stroke-width="1" opacity="0.2627450980392157" d="M 137.5 19 Q 140.5 20.5 137.5 22 L 135 20.5 L 137.5 19 Z " /><path fill="rgb(171,171,171)" stroke="rgb(171,171,171)" stroke-width="1" opacity="0.2627450980392157" d="M 70.5 22 L 71.5 24 L 70.5 22 Z " /><path fill="rgb(171,171,171)" stroke="rgb(171,171,171)" stroke-width="1" opacity="0.2627450980392157" d="M 132.5 23 L 131.5 25 L 130 24.5 L 132.5 23 Z " /><path fill="rgb(171,171,171)" stroke="rgb(171,171,171)" stroke-width="1" opacity="0.2627450980392157" d="M 128.5 26 L 130 28.5 L 126 31 L 128.5 26 Z " /><path fill="rgb(171,171,171)" stroke="rgb(171,171,171)" stroke-width="1" opacity="0.2627450980392157" d="M 75.5 27 L 78 30.5 L 77 30.5 L 75.5 27 Z " /><path fill="rgb(171,171,171)" stroke="rgb(171,171,171)" stroke-width="1" opacity="0.2627450980392157" d="M 123.5 31 L 122.5 33 L 123.5 31 Z " /><path fill="rgb(171,171,171)" stroke="rgb(171,171,171)" stroke-width="1" opacity="0.2627450980392157" d="M 81.5 33 L 84 34.5 L 82.5 35 L 81.5 33 Z " /><path fill="rgb(171,171,171)" stroke="rgb(171,171,171)" stroke-width="1" opacity="0.2627450980392157" d="M 119.5 34 L 118.5 36 L 119.5 34 Z " /><path fill="rgb(171,171,171)" stroke="rgb(171,171,171)" stroke-width="1" opacity="0.2627450980392157" d="M 83.5 37 L 84.5 39 L 83.5 37 Z " /><path fill="rgb(171,171,171)" stroke="rgb(171,171,171)" stroke-width="1" opacity="0.2627450980392157" d="M 117.5 37 L 120 37.5 Q 117.9 40.8 117.5 37 Z " /><path fill="rgb(171,171,171)" stroke="rgb(171,171,171)" stroke-width="1" opacity="0.2627450980392157" d="M 86.5 38 L 90 40.5 L 87.5 39 L 86.5 38 Z " /><path fill="rgb(171,171,171)" stroke="rgb(171,171,171)" stroke-width="1" opacity="0.2627450980392157" d="M 113.5 40 L 112.5 42 L 113.5 40 Z " /><path fill="rgb(171,171,171)" stroke="rgb(171,171,171)" stroke-width="1" opacity="0.2627450980392157" d="M 88.5 42 L 92 43.5 Q 92.8 45.8 90.5 45 L 88.5 42 Z " /><path fill="rgb(171,171,171)" stroke="rgb(171,171,171)" stroke-width="1" opacity="0.2627450980392157" d="M 110.5 42 L 110 43.5 L 111 45.5 L 108.5 47 L 105 45.5 L 110.5 42 Z " /><path fill="rgb(171,171,171)" stroke="rgb(171,171,171)" stroke-width="1" opacity="0.2627450980392157" d="M 93.5 44 L 98.5 47 L 107 47.5 L 96.5 48 L 96.5 46 Q 92.7 46.5 93.5 44 Z " /><path fill="rgb(171,171,171)" stroke="rgb(171,171,171)" stroke-width="1" opacity="0.2627450980392157" d="M 160.5 70 L 164 76.5 L 161.5 75 L 160 74.5 L 161 72.5 L 159 72.5 L 160.5 70 Z " /><path fill="rgb(171,171,171)" stroke="rgb(171,171,171)" stroke-width="1" opacity="0.2627450980392157" d="M 39.5 75 L 40 76.5 L 39 79.5 L 39.5 81 L 38 80.5 L 39 82.5 L 36 83.5 L 34 90.5 L 34.5 92 Q 30.8 90.8 32 94.5 L 31 94.5 L 39.5 75 Z " /><path fill="rgb(171,171,171)" stroke="rgb(171,171,171)" stroke-width="1" opacity="0.2627450980392157" d="M 166.5 84 Q 170.1 85.9 170 91.5 L 169 91.5 L 166.5 85 L 165 85.5 L 166.5 84 Z " /><path fill="rgb(171,171,171)" stroke="rgb(171,171,171)" stroke-width="1" opacity="0.2627450980392157" d="M 170.5 93 L 171.5 95 Q 168.7 95.7 170.5 93 Z " /><path fill="rgb(171,171,171)" stroke="rgb(171,171,171)" stroke-width="1" opacity="0.2627450980392157" d="M 29.5 99 L 30 101 L 27.5 102 L 29.5 99 Z " /><path fill="rgb(171,171,171)" stroke="rgb(171,171,171)" stroke-width="1" opacity="0.2627450980392157" d="M 175.5 102 L 177 104.5 L 174 104.5 L 175.5 102 Z " /><path fill="rgb(171,171,171)" stroke="rgb(171,171,171)" stroke-width="1" opacity="0.2627450980392157" d="M 177.5 107 L 178.5 109 L 177.5 107 Z " /><path fill="rgb(171,171,171)" stroke="rgb(171,171,171)" stroke-width="1" opacity="0.2627450980392157" d="M 25 108 L 27 108.5 L 24.5 115 L 24 111.5 L 25 108 Z " /><path fill="rgb(171,171,171)" stroke="rgb(171,171,171)" stroke-width="1" opacity="0.2627450980392157" d="M 182.5 116 L 183 124.5 L 182 124.5 L 181 122.5 L 182 120.5 L 182 118.5 L 182.5 116 Z " /><path fill="rgb(171,171,171)" stroke="rgb(171,171,171)" stroke-width="1" opacity="0.2627450980392157" d="M 26 117 L 29 118.5 L 31 123.5 L 30 123.5 Q 30.5 119.5 27.5 119 Q 24.9 119.7 26 117 Z " /><path fill="rgb(171,171,171)" stroke="rgb(171,171,171)" stroke-width="1" opacity="0.2627450980392157" d="M 29.5 125 L 30 127.5 L 29 127.5 L 29.5 125 Z " /><path fill="rgb(171,171,171)" stroke="rgb(171,171,171)" stroke-width="1" opacity="0.2627450980392157" d="M 177 125 L 181 125.5 L 176 128.5 L 178 136.5 L 178 147 L 174 146.5 L 177 146 L 177 136.5 L 175.5 136 L 176 134.5 Q 177.1 131.2 174.5 132 L 175 130.5 L 174 128.5 L 177 126.5 L 177 125 Z " /><path fill="rgb(171,171,171)" stroke="rgb(171,171,171)" stroke-width="1" opacity="0.2627450980392157" d="M 28.5 130 L 29 135.5 L 28 135.5 L 28.5 130 Z " /><path fill="rgb(171,171,171)" stroke="rgb(171,171,171)" stroke-width="1" opacity="0.2627450980392157" d="M 33.5 140 Q 36.5 140.5 36 144.5 Q 33.3 148.8 33.5 156 L 33 149.5 L 35 142.5 L 33.5 140 Z " /><path fill="rgb(171,171,171)" stroke="rgb(171,171,171)" stroke-width="1" opacity="0.2627450980392157" d="M 172.5 147 L 170 150.5 L 172 157.5 L 170 156.5 L 169 150.5 L 172.5 147 Z " /><path fill="rgb(171,171,171)" stroke="rgb(171,171,171)" stroke-width="1" opacity="0.2627450980392157" d="M 62 155 L 65 155.5 L 62.5 157 L 62 155 Z " /><path fill="rgb(171,171,171)" stroke="rgb(171,171,171)" stroke-width="1" opacity="0.2627450980392157" d="M 53.5 156 L 59 156.5 L 53.5 158 L 38.5 159 L 38.5 158 L 52.5 157 L 53.5 156 Z " /><path fill="rgb(171,171,171)" stroke="rgb(171,171,171)" stroke-width="1" opacity="0.2627450980392157" d="M 69.5 157 L 70.5 159 L 69.5 157 Z " /><path fill="rgb(171,171,171)" stroke="rgb(171,171,171)" stroke-width="1" opacity="0.2627450980392157" d="M 171.5 159 L 172 163.5 L 171 163.5 L 171.5 159 Z " /><path fill="rgb(171,171,171)" stroke="rgb(171,171,171)" stroke-width="1" opacity="0.2627450980392157" d="M 135.5 160 L 141 160.5 Q 135 160 132.5 163 L 133.5 161 L 135.5 160 Z " /><path fill="rgb(171,171,171)" stroke="rgb(171,171,171)" stroke-width="1" opacity="0.2627450980392157" d="M 71.5 161 L 72.5 163 L 71.5 161 Z " /><path fill="rgb(171,171,171)" stroke="rgb(171,171,171)" stroke-width="1" opacity="0.2627450980392157" d="M 145.5 162 Q 150 161 151 163.5 L 149.5 163 Q 144.5 164 145.5 162 Z " /><path fill="rgb(171,171,171)" stroke="rgb(171,171,171)" stroke-width="1" opacity="0.2627450980392157" d="M 155.5 164 Q 162.5 162.5 162 165.5 L 160.5 165 Q 154.5 166.3 155.5 164 Z " /><path fill="rgb(171,171,171)" stroke="rgb(171,171,171)" stroke-width="1" opacity="0.2627450980392157" d="M 72.5 165 L 74 166.5 L 74 173.5 L 78 188.5 L 77 188.5 L 75 183.5 L 73 173.5 L 73 166.5 L 72.5 165 Z " /><path fill="rgb(171,171,171)" stroke="rgb(171,171,171)" stroke-width="1" opacity="0.2627450980392157" d="M 130 165 L 132 165.5 L 127.5 187 L 127 184.5 L 128 183.5 L 130 165 Z " /><path fill="rgb(171,171,171)" stroke="rgb(171,171,171)" stroke-width="1" opacity="0.2627450980392157" d="M 165.5 166 L 172 166.5 L 165.5 167 L 165.5 166 Z " /><path fill="rgb(171,171,171)" stroke="rgb(171,171,171)" stroke-width="1" opacity="0.2627450980392157" d="M 124.5 193 L 122.5 196 L 124.5 193 Z " /><path fill="rgb(171,171,171)" stroke="rgb(171,171,171)" stroke-width="1" opacity="0.2627450980392157" d="M 83.5 194 L 86 195.5 L 84.5 196 L 83.5 194 Z " /><path fill="rgb(171,171,171)" stroke="rgb(171,171,171)" stroke-width="1" opacity="0.2627450980392157" d="M 91.5 196 L 101 196.5 L 91.5 197 L 91.5 196 Z " /><path fill="rgb(171,171,171)" stroke="rgb(171,171,171)" stroke-width="1" opacity="0.2627450980392157" d="M 104.5 197 L 114 197.5 L 104.5 198 L 104.5 197 Z " /><path fill="rgb(155,155,155)" stroke="rgb(155,155,155)" stroke-width="1" opacity="1" d="M 49.5 7 L 51 10 L 59 15 L 61.5 19 L 64 20.5 L 65.5 23 L 68 24.5 L 69.5 27 L 75 31.5 Q 74.3 33.8 76.5 33 L 79 37 L 83 38 L 84.5 41 L 87 42.5 L 90.5 47 L 96.5 50 L 107.5 50 L 111 49 L 113.5 45 L 116.5 43 L 120 41 L 122.5 37 L 125.5 35 L 129 33 L 132 27 Q 135.8 27.8 137 24.5 Q 136.3 22.3 138.5 23 L 141 19 Q 144.8 19.8 146 16.5 Q 145.3 14.3 147.5 15 Q 150.2 9.7 156 9 L 157 11.5 L 157 71.5 L 161 78.5 L 162 84 Q 165 82.8 164 86.5 L 166 88.5 L 168 96.5 L 172 101.5 L 177 115.5 L 180 118.5 L 180 123 Q 174.5 121.8 173 125.5 Q 172.2 133.2 174 137 L 144.5 121 Q 139.9 121.6 138.5 119 L 133.5 119 L 125 124.5 L 116 135.5 L 115.5 142 Q 116.5 133 111.5 130 L 107.5 128 L 92.5 128 L 88 131.5 L 86.5 134 L 72.5 117 L 63.5 116 L 51.5 120 L 32.5 130 L 32 127.5 Q 34.8 125.8 33 119.5 L 30.5 116 L 26 115 L 27 109.5 L 32 102.5 L 42 77.5 L 48 67.5 L 48 12.5 L 47 8 L 49.5 7 Z M 52 22 L 51 25 L 51 59 L 54 61 L 79 50 L 78 44 L 77 44 L 55 22 L 52 22 Z M 150 24 L 127 44 Q 122 45 123 51 L 151 64 L 152 63 L 152 40 L 153 39 L 153 29 L 152 28 Q 154 23 150 24 Z M 77 87 L 73 91 L 73 104 L 79 108 L 82 107 L 85 103 Q 86 92 83 88 L 77 87 Z M 124 88 L 119 90 L 118 93 L 118 106 L 119 108 L 124 110 L 127 109 L 130 104 Q 132 95 128 91 L 124 88 Z " /><path fill="rgb(155,155,155)" stroke="rgb(155,155,155)" stroke-width="1" opacity="1" d="M 88.5 143 L 91 146.5 L 88 144.5 L 88.5 143 Z " /><path fill="rgb(155,155,155)" stroke="rgb(155,155,155)" stroke-width="1" opacity="1" d="M 114.5 143 L 115 144.5 L 111.5 149 L 112 147.5 L 114.5 143 Z " /><path fill="rgb(155,155,155)" stroke="rgb(155,155,155)" stroke-width="1" opacity="1" d="M 92.5 149 L 99 155.5 L 99 157.5 L 98 157.5 L 98 155.5 L 92.5 149 Z " /><path fill="rgb(155,155,155)" stroke="rgb(155,155,155)" stroke-width="1" opacity="1" d="M 108.5 151 L 104 156.5 L 103.5 158 L 103 155 L 108.5 151 Z " /><path fill="rgb(155,155,155)" stroke="rgb(155,155,155)" stroke-width="1" opacity="1" d="M 97.5 159 L 98 163.5 L 97 163.5 L 97.5 159 Z " /><path fill="rgb(155,155,155)" stroke="rgb(155,155,155)" stroke-width="1" opacity="1" d="M 104.5 159 L 105 163.5 L 104 163.5 L 104.5 159 Z " /><path fill="rgb(155,155,155)" stroke="rgb(155,155,155)" stroke-width="1" opacity="1" d="M 94.5 170 L 93.5 172 L 94.5 170 Z " /><path fill="rgb(155,155,155)" stroke="rgb(155,155,155)" stroke-width="1" opacity="1" d="M 107.5 171 L 108.5 173 L 107.5 171 Z " /><path fill="rgb(155,155,155)" stroke="rgb(155,155,155)" stroke-width="1" opacity="1" d="M 110.5 174 L 114 176.5 L 112.5 177 L 110.5 174 Z " /><path fill="rgb(155,155,155)" stroke="rgb(155,155,155)" stroke-width="1" opacity="1" d="M 85.5 175 L 85 176.5 L 84.5 178 L 84 176.5 L 85.5 175 Z " /><path fill="rgb(155,155,155)" stroke="rgb(155,155,155)" stroke-width="1" opacity="1" d="M 99.5 175 L 97.5 178 L 99.5 175 Z " /><path fill="rgb(155,155,155)" stroke="rgb(155,155,155)" stroke-width="1" opacity="1" d="M 103.5 177 L 107.5 182 L 103.5 177 Z " /><path fill="rgb(155,155,155)" stroke="rgb(155,155,155)" stroke-width="1" opacity="1" d="M 116.5 177 L 117.5 179 L 116.5 177 Z " /><path fill="rgb(155,155,155)" stroke="rgb(155,155,155)" stroke-width="1" opacity="1" d="M 84.5 179 L 86 181.5 L 84 180.5 L 84.5 179 Z " /><path fill="rgb(155,155,155)" stroke="rgb(155,155,155)" stroke-width="1" opacity="1" d="M 95.5 179 L 94.5 181 L 95.5 179 Z " /><path fill="rgb(155,155,155)" stroke="rgb(155,155,155)" stroke-width="1" opacity="1" d="M 91.5 181 L 93 181.5 L 87.5 183 L 87.5 182 L 91.5 181 Z " /><path fill="rgb(155,155,155)" stroke="rgb(155,155,155)" stroke-width="1" opacity="1" d="M 109.5 182 L 112 183.5 L 110.5 184 L 109.5 182 Z " /><path fill="rgb(218,218,218)" stroke="rgb(218,218,218)" stroke-width="1" opacity="0.49019607843137253" d="M 46.5 5 L 49 5.5 L 46 7.5 L 45.5 9 L 45 6.5 L 46.5 5 Z " /><path fill="rgb(218,218,218)" stroke="rgb(218,218,218)" stroke-width="1" opacity="0.49019607843137253" d="M 50.5 5 L 57 8 L 63.5 17 L 68 19.5 L 67.5 21 Q 70.8 19.9 70 22.5 L 75 26.5 L 77.5 31 L 80 30 L 82.5 35 L 86 37.5 Q 85.3 39.8 87.5 39 L 91 41.5 L 90.5 44 L 80 34.5 Q 80.8 32.3 78.5 33 L 50.5 5 Z " /><path fill="rgb(218,218,218)" stroke="rgb(218,218,218)" stroke-width="1" opacity="0.49019607843137253" d="M 152 5 L 159 7.5 L 159 9.5 L 159 68.5 L 160.5 69 L 160 70.5 L 161 73.5 L 160 73.5 L 158 68.5 L 158 9.5 L 155.5 7 L 150.5 9 L 141 17 L 139.5 20 L 127.5 30 L 126.5 28 Q 127.7 30.3 129 27.5 L 130.5 25 L 133 23.5 L 134.5 20 L 136.5 21 L 137.5 18 L 143 16 L 144 13.5 L 143.5 12 L 145.5 13 L 150.5 7 L 152 7.5 L 152 5 Z " /><path fill="rgb(218,218,218)" stroke="rgb(218,218,218)" stroke-width="1" opacity="0.49019607843137253" d="M 124 30 Q 126.7 28.9 126 31.5 L 122 34 L 120.5 37 L 109.5 46 L 110 44.5 L 111.5 42 L 114 40.5 L 115.5 38 L 118 37.5 L 117.5 36 L 124 31.5 L 124 30 Z " /><path fill="rgb(218,218,218)" stroke="rgb(218,218,218)" stroke-width="1" opacity="0.49019607843137253" d="M 92.5 44 L 97 46.5 L 94.5 47 L 92 46 L 92.5 44 Z " /><path fill="rgb(218,218,218)" stroke="rgb(218,218,218)" stroke-width="1" opacity="0.49019607843137253" d="M 105.5 46 L 108 46.5 L 105.5 47 L 105.5 46 Z " /><path fill="rgb(218,218,218)" stroke="rgb(218,218,218)" stroke-width="1" opacity="0.49019607843137253" d="M 44.5 65 Q 47.3 66.3 45 67.5 L 34.5 91 L 33 88.5 L 35 88.5 L 38 80.5 L 37.5 79 L 39 79.5 L 40 73.5 Q 44.1 71.1 44.5 65 Z " /><path fill="rgb(218,218,218)" stroke="rgb(218,218,218)" stroke-width="1" opacity="0.49019607843137253" d="M 161.5 75 L 167 83.5 Q 164.5 85 168 86.5 L 169.5 92 L 171 91.5 L 169.5 94 L 161 76.5 L 161.5 75 Z " /><path fill="rgb(218,218,218)" stroke="rgb(218,218,218)" stroke-width="1" opacity="0.49019607843137253" d="M 32 92 L 34 92.5 L 32 97 Q 29 98 30 95 Q 33.3 96.1 32 92 Z " /><path fill="rgb(218,218,218)" stroke="rgb(218,218,218)" stroke-width="1" opacity="0.49019607843137253" d="M 170.5 95 L 173 95 L 173 99 L 174.5 99 L 174.5 101 L 176 101.5 L 175 103.5 L 178 105 L 177 107.5 Q 180.1 109.3 178.5 111 Q 181.1 110.3 180 113 Q 177.3 114.1 178 111.5 L 170.5 95 Z " /><path fill="rgb(218,218,218)" stroke="rgb(218,218,218)" stroke-width="1" opacity="0.49019607843137253" d="M 29.5 98 Q 31.8 97.3 31 99.5 L 29.5 98 Z " /><path fill="rgb(218,218,218)" stroke="rgb(218,218,218)" stroke-width="1" opacity="0.49019607843137253" d="M 28.5 101 L 30 101.5 L 27 108 L 25 107.5 L 28.5 101 Z " /><path fill="rgb(218,218,218)" stroke="rgb(218,218,218)" stroke-width="1" opacity="0.49019607843137253" d="M 179.5 114 L 182 115.5 L 181.5 119 L 179.5 114 Z " /><path fill="rgb(218,218,218)" stroke="rgb(218,218,218)" stroke-width="1" opacity="0.49019607843137253" d="M 24.5 115 L 26 118 Q 22.5 119.1 24.5 115 Z " /><path fill="rgb(218,218,218)" stroke="rgb(218,218,218)" stroke-width="1" opacity="0.49019607843137253" d="M 29.5 118 L 31 120.5 L 29 119.5 L 29.5 118 Z " /><path fill="rgb(218,218,218)" stroke="rgb(218,218,218)" stroke-width="1" opacity="0.49019607843137253" d="M 181.5 123 L 183 125.5 L 181.5 126 Q 178.5 124.5 181.5 123 Z " /><path fill="rgb(218,218,218)" stroke="rgb(218,218,218)" stroke-width="1" opacity="0.49019607843137253" d="M 29.5 124 Q 31.8 123.3 31 125.5 L 29.5 124 Z " /><path fill="rgb(218,218,218)" stroke="rgb(218,218,218)" stroke-width="1" opacity="0.49019607843137253" d="M 176.5 125 L 177 126.5 L 176.5 129 L 175 126.5 L 176.5 125 Z " /><path fill="rgb(218,218,218)" stroke="rgb(218,218,218)" stroke-width="1" opacity="0.49019607843137253" d="M 28.5 127 L 30 130 Q 26.5 131.1 28.5 127 Z " /><path fill="rgb(218,218,218)" stroke="rgb(218,218,218)" stroke-width="1" opacity="0.49019607843137253" d="M 175.5 132 L 176 134.5 L 175 134.5 L 175.5 132 Z " /><path fill="rgb(218,218,218)" stroke="rgb(218,218,218)" stroke-width="1" opacity="0.49019607843137253" d="M 28.5 136 L 33.5 137 L 36 139.5 L 37 145.5 Q 34.4 148.4 35 154.5 Q 35.8 157.8 40.5 157 Q 42 154.5 47.5 156 L 47.5 157 L 37.5 159 L 34 156.5 L 34 149.5 L 36 142.5 L 32.5 138 L 30.5 138 L 28.5 136 Z " /><path fill="rgb(218,218,218)" stroke="rgb(218,218,218)" stroke-width="1" opacity="0.49019607843137253" d="M 176.5 136 L 177 138.5 L 176 138.5 L 176.5 136 Z " /><path fill="rgb(218,218,218)" stroke="rgb(218,218,218)" stroke-width="1" opacity="0.49019607843137253" d="M 176.5 144 L 177 146 Q 171 146.2 168.5 151 L 169 149.5 Q 168.5 145.5 171.5 145 L 176.5 144 Z " /><path fill="rgb(218,218,218)" stroke="rgb(218,218,218)" stroke-width="1" opacity="0.49019607843137253" d="M 169.5 153 L 170 155.5 L 169 155.5 L 169.5 153 Z " /><path fill="rgb(218,218,218)" stroke="rgb(218,218,218)" stroke-width="1" opacity="0.49019607843137253" d="M 59 155 Q 63.1 153.7 62 157 Q 57.9 158.3 59 155 Z " /><path fill="rgb(218,218,218)" stroke="rgb(218,218,218)" stroke-width="1" opacity="0.49019607843137253" d="M 65.5 155 Q 71 154 72 157.5 L 73 161.5 L 71 160.5 L 69.5 157 L 65.5 156 L 65.5 155 Z " /><path fill="rgb(218,218,218)" stroke="rgb(218,218,218)" stroke-width="1" opacity="0.49019607843137253" d="M 49.5 156 L 53 156.5 L 49.5 157 L 49.5 156 Z " /><path fill="rgb(218,218,218)" stroke="rgb(218,218,218)" stroke-width="1" opacity="0.49019607843137253" d="M 170.5 157 Q 173.5 158.5 170.5 160 L 170.5 157 Z " /><path fill="rgb(218,218,218)" stroke="rgb(218,218,218)" stroke-width="1" opacity="0.49019607843137253" d="M 133.5 159 L 140 159.5 Q 134.3 159.3 132 162.5 Q 133 166.3 130 165 L 133.5 159 Z " /><path fill="rgb(218,218,218)" stroke="rgb(218,218,218)" stroke-width="1" opacity="0.49019607843137253" d="M 141 160 L 160 163.5 L 154.5 165 L 149.5 162 L 145.5 162 L 143.5 162 Q 139.8 163 141 160 Z " /><path fill="rgb(218,218,218)" stroke="rgb(218,218,218)" stroke-width="1" opacity="0.49019607843137253" d="M 72 163 Q 75 161.8 74 165.5 L 72 164.5 L 72 163 Z " /><path fill="rgb(218,218,218)" stroke="rgb(218,218,218)" stroke-width="1" opacity="0.49019607843137253" d="M 170.5 163 L 172 166 L 165.5 166 L 164.5 167 L 162 166 Q 160.9 163.3 163.5 164 L 170 165 L 170.5 163 Z " /><path fill="rgb(218,218,218)" stroke="rgb(218,218,218)" stroke-width="1" opacity="0.49019607843137253" d="M 129.5 167 L 130 170.5 L 129 170.5 L 129.5 167 Z " /><path fill="rgb(218,218,218)" stroke="rgb(218,218,218)" stroke-width="1" opacity="0.49019607843137253" d="M 74.5 170 L 75 173.5 L 74 173.5 L 74.5 170 Z " /><path fill="rgb(218,218,218)" stroke="rgb(218,218,218)" stroke-width="1" opacity="0.49019607843137253" d="M 128.5 174 L 130 177.5 L 128 177.5 L 127 186.5 L 128 187.5 L 125 190.5 Q 125.5 195.5 121.5 196 L 114.5 198 L 115.5 196 Q 121.9 195.4 124 190.5 L 128.5 174 Z " /><path fill="rgb(218,218,218)" stroke="rgb(218,218,218)" stroke-width="1" opacity="0.49019607843137253" d="M 75.5 175 L 76 178.5 L 75 178.5 L 75.5 175 Z " /><path fill="rgb(218,218,218)" stroke="rgb(218,218,218)" stroke-width="1" opacity="0.49019607843137253" d="M 76.5 181 L 82.5 192 Q 86.5 196.5 96 195.5 L 90.5 197 L 80 193 Q 81.1 190.3 78.5 191 Q 75.8 189.8 78 188.5 L 76.5 181 Z " /><path fill="rgb(218,218,218)" stroke="rgb(218,218,218)" stroke-width="1" opacity="0.49019607843137253" d="M 101.5 196 L 109 196.5 L 101.5 197 L 101.5 196 Z " /><path fill="rgb(210,210,210)" stroke="rgb(210,210,210)" stroke-width="1" opacity="0.996078431372549" d="M 52 22 L 54.5 22 L 76.5 44 L 78 44 L 79 49.5 L 53.5 61 L 51 58.5 L 51 24.5 L 52 22 Z M 54 24 L 53 59 Q 56 60 55 57 L 59 57 L 65 54 Q 68 55 67 52 L 78 49 L 71 39 L 69 38 Q 66 39 67 37 L 65 35 L 63 33 L 54 24 Z " /><path fill="rgb(210,210,210)" stroke="rgb(210,210,210)" stroke-width="1" opacity="0.996078431372549" d="M 149.5 24 Q 153.7 22.7 152 27.5 L 153 28.5 L 153 38.5 L 152 39.5 L 152 62.5 L 150.5 64 L 123 50.5 Q 122.3 44.8 126.5 44 L 149.5 24 Z M 148 26 L 146 30 Q 143 29 144 32 L 142 33 L 140 36 L 131 43 Q 132 45 130 44 L 127 48 L 124 50 L 139 57 Q 142 56 141 59 L 150 61 L 151 62 L 151 27 L 148 26 Z " /><path fill="rgb(210,210,210)" stroke="rgb(210,210,210)" stroke-width="1" opacity="0.996078431372549" d="M 63.5 116 Q 75 115.1 78 122.5 L 87 134.5 L 87 136.5 L 86 136.5 L 82 129 L 79 127.5 L 74.5 121 Q 72.3 121.8 73 119.5 L 71.5 118 L 62.5 118 L 53 121 Q 54.1 123.7 51.5 123 L 38 128 Q 39.3 131 35.5 130 L 31 132 Q 29.5 135.7 32.5 135 L 32.5 136 L 30.5 135 L 29 135.5 L 30 133.5 L 29 130 L 32.5 130 L 51.5 120 L 63.5 116 Z " /><path fill="rgb(210,210,210)" stroke="rgb(210,210,210)" stroke-width="1" opacity="0.996078431372549" d="M 133.5 119 L 138.5 119 Q 139.9 121.6 144.5 121 L 177 139.5 L 174.5 145 L 173.5 143 Q 176.1 143.8 175 140.5 L 172.5 138 L 157 131 Q 158.3 128 154.5 129 L 144.5 123 L 137.5 121 L 131.5 121 L 130 124 L 125 126 L 118 135.5 L 117 142.5 L 110.5 152 Q 108.3 151.3 109 153.5 L 105 156.5 L 104.5 159 L 104 156.5 L 110.5 149 L 113 147.5 Q 117 144 116 135.5 L 126.5 123 L 133.5 119 Z " /><path fill="rgb(210,210,210)" stroke="rgb(210,210,210)" stroke-width="1" opacity="0.996078431372549" d="M 34.5 136 L 35.5 138 L 34.5 136 Z " /><path fill="rgb(210,210,210)" stroke="rgb(210,210,210)" stroke-width="1" opacity="0.996078431372549" d="M 86.5 138 L 88 144.5 L 98 155.5 L 98 158.5 L 97 158.5 L 97 156.5 L 93 151 Q 90.3 152.1 91 149.5 L 86 142.5 L 86.5 138 Z " /><path fill="rgb(210,210,210)" stroke="rgb(210,210,210)" stroke-width="1" opacity="0.996078431372549" d="M 169.5 144 L 172 144.5 L 169.5 145 L 169.5 144 Z " /><path fill="rgb(210,210,210)" stroke="rgb(210,210,210)" stroke-width="1" opacity="0.996078431372549" d="M 167.5 151 L 169 153.5 L 169 155.5 L 170 158.5 L 168 159.5 L 168 157.5 L 167 154.5 L 167 152.5 L 167.5 151 Z " /><path fill="rgb(210,210,210)" stroke="rgb(210,210,210)" stroke-width="1" opacity="0.996078431372549" d="M 63 153 Q 66 152 65 155 Q 62 156 63 153 Z " /><path fill="rgb(210,210,210)" stroke="rgb(210,210,210)" stroke-width="1" opacity="0.996078431372549" d="M 68.5 153 Q 70.8 152.3 70 154.5 L 68.5 153 Z " /><path fill="rgb(210,210,210)" stroke="rgb(210,210,210)" stroke-width="1" opacity="0.996078431372549" d="M 36.5 154 L 39 155.5 L 36 156 L 36.5 154 Z " /><path fill="rgb(210,210,210)" stroke="rgb(210,210,210)" stroke-width="1" opacity="0.996078431372549" d="M 41 154 L 45 155.5 L 43.5 155 L 41.5 156 L 41 154 Z " /><path fill="rgb(210,210,210)" stroke="rgb(210,210,210)" stroke-width="1" opacity="0.996078431372549" d="M 51.5 154 L 54.5 155 L 56 154.5 Q 56.8 157.1 53.5 156 L 51.5 154 Z " /><path fill="rgb(210,210,210)" stroke="rgb(210,210,210)" stroke-width="1" opacity="0.996078431372549" d="M 58.5 154 L 61 154.5 L 58.5 155 L 58.5 154 Z " /><path fill="rgb(210,210,210)" stroke="rgb(210,210,210)" stroke-width="1" opacity="0.996078431372549" d="M 72.5 156 Q 75.8 158.8 76 164.5 L 74 163.5 L 72.5 156 Z " /><path fill="rgb(210,210,210)" stroke="rgb(210,210,210)" stroke-width="1" opacity="0.996078431372549" d="M 133 157 L 137 157 L 137 158.5 L 135.5 158 L 133.5 159 L 133 157 Z " /><path fill="rgb(210,210,210)" stroke="rgb(210,210,210)" stroke-width="1" opacity="0.996078431372549" d="M 140.5 158 L 143 158.5 Q 140.9 161.8 140.5 158 Z " /><path fill="rgb(210,210,210)" stroke="rgb(210,210,210)" stroke-width="1" opacity="0.996078431372549" d="M 130.5 159 L 130.5 162 L 129 162.5 L 129.5 164 Q 126.8 162.8 129 161.5 L 130.5 159 Z " /><path fill="rgb(210,210,210)" stroke="rgb(210,210,210)" stroke-width="1" opacity="0.996078431372549" d="M 144.5 159 L 149 160.5 L 147.5 161 L 144.5 160 L 144.5 159 Z " /><path fill="rgb(210,210,210)" stroke="rgb(210,210,210)" stroke-width="1" opacity="0.996078431372549" d="M 154.5 161 Q 158.9 159.5 158 162.5 L 155.5 163 L 154.5 161 Z " /><path fill="rgb(210,210,210)" stroke="rgb(210,210,210)" stroke-width="1" opacity="0.996078431372549" d="M 96.5 162 L 97 164.5 L 96 164.5 L 96.5 162 Z " /><path fill="rgb(210,210,210)" stroke="rgb(210,210,210)" stroke-width="1" opacity="0.996078431372549" d="M 159.5 162 L 161.5 162 L 168 163.5 L 164.5 164 L 161.5 163 Q 159.8 165.5 159.5 162 Z " /><path fill="rgb(210,210,210)" stroke="rgb(210,210,210)" stroke-width="1" opacity="0.996078431372549" d="M 105 164 Q 108 162.8 107 166.5 L 112.5 175 L 119 177 L 119 185 L 110.5 185 L 105 181.5 L 101.5 177 Q 99.3 176.3 100 178.5 L 97.5 181 L 91.5 183 L 91.5 182 Q 97.6 180.6 100 175.5 Q 99.3 172.9 102 174 Q 102.7 179.4 107.5 182 Q 110.6 185.6 118 184 Q 119.5 178.6 116.5 177 L 109 174 L 105 164 Z " /><path fill="rgb(210,210,210)" stroke="rgb(210,210,210)" stroke-width="1" opacity="0.996078431372549" d="M 95.5 166 L 96 167.5 L 93 173 L 84 176.5 Q 83 181 85.5 182 L 87 182.5 L 84 183 L 83 176.5 L 84 174 Q 90.7 174 94 169.5 L 95.5 166 Z " /><path fill="rgb(210,210,210)" stroke="rgb(210,210,210)" stroke-width="1" opacity="0.996078431372549" d="M 128.5 167 L 129 169.5 L 128 172.5 L 126.5 179 L 126 174.5 L 128.5 167 Z " /><path fill="rgb(210,210,210)" stroke="rgb(210,210,210)" stroke-width="1" opacity="0.996078431372549" d="M 76 178 Q 79.3 176.9 78 181 Q 74.7 182.1 76 178 Z " /><path fill="rgb(210,210,210)" stroke="rgb(210,210,210)" stroke-width="1" opacity="0.996078431372549" d="M 125.5 181 L 126 183.5 L 125 183.5 L 125.5 181 Z " /><path fill="rgb(210,210,210)" stroke="rgb(210,210,210)" stroke-width="1" opacity="0.996078431372549" d="M 125.5 185 L 124.5 187 L 125.5 185 Z " /><path fill="rgb(210,210,210)" stroke="rgb(210,210,210)" stroke-width="1" opacity="0.996078431372549" d="M 82.5 190 L 87 192.5 L 85.5 193 L 82.5 190 Z " /><path fill="rgb(210,210,210)" stroke="rgb(210,210,210)" stroke-width="1" opacity="0.996078431372549" d="M 121.5 191 L 119.5 194 L 121.5 191 Z " /><path fill="rgb(210,210,210)" stroke="rgb(210,210,210)" stroke-width="1" opacity="0.996078431372549" d="M 90.5 193 Q 93.8 191.9 93 194.5 L 91.5 194 L 90.5 193 Z " /><path fill="rgb(210,210,210)" stroke="rgb(210,210,210)" stroke-width="1" opacity="0.996078431372549" d="M 95.5 194 L 99.5 194 L 101 194.5 Q 100.3 196.8 96.5 196 L 95.5 194 Z " /><path fill="rgb(210,210,210)" stroke="rgb(210,210,210)" stroke-width="1" opacity="0.996078431372549" d="M 103.5 194 L 108 195.5 L 106.5 196 L 102 195.5 L 103.5 194 Z " /><path fill="rgb(210,210,210)" stroke="rgb(210,210,210)" stroke-width="1" opacity="0.996078431372549" d="M 113.5 195 L 117 195.5 L 113.5 196 L 113.5 195 Z " /><path fill="rgb(211,211,211)" stroke="rgb(211,211,211)" stroke-width="1" opacity="1" d="M 53.5 24 L 63 32.5 L 64.5 35 L 67 36.5 Q 66.3 38.8 68.5 38 L 71 39 L 78 49 L 67 52 Q 68.3 55 64.5 54 L 58.5 57 L 55 57 Q 56 60 53 59 L 53.5 24 Z " /><path fill="rgb(211,211,211)" stroke="rgb(211,211,211)" stroke-width="1" opacity="1" d="M 148 26 L 151 26.5 L 151 61.5 L 149.5 61 L 141 59 Q 142.3 56 138.5 57 L 124 49.5 L 127 48 L 129.5 44 Q 131.8 44.8 131 42.5 L 140 36 L 141.5 33 L 144 31.5 Q 143.3 29.3 145.5 30 L 148 26 Z " /><path fill="rgb(211,211,211)" stroke="rgb(211,211,211)" stroke-width="1" opacity="1" d="M 62.5 118 L 71.5 118 L 73 119.5 Q 72.3 121.8 74.5 121 L 80.5 129 Q 82.8 128.3 82 130.5 L 86 135.5 L 86 142.5 L 91 151 Q 93.7 149.9 93 152.5 Q 98.3 153.8 97 161.5 L 92.5 171 L 84 174 L 83 180.5 L 84 183 Q 95.4 184.7 100 178.5 Q 99.3 176.3 101.5 177 L 106.5 183 L 110.5 185 L 119 185 L 119 177.5 L 117.5 177 L 110 172.5 L 107 164 L 105 163.5 L 105 156.5 L 109 153.5 Q 108.3 151.3 110.5 152 L 117 142.5 L 118 135.5 L 125 126 L 130 124 L 131.5 121 L 141.5 122 L 154.5 129 L 157 129 Q 155.9 131.7 158.5 131 L 175 140.5 Q 176.1 143.8 173.5 143 L 173.5 145 L 169.5 144 L 169.5 145 L 171 145.5 L 168 150.5 L 169 152.5 L 168.5 155 L 167 154.5 L 171 160.5 L 170 165 Q 162.7 166.1 159.5 162 L 158 162.5 Q 158.9 159.5 154.5 161 L 154.5 163 Q 151.9 163.8 153 160.5 L 152 160.5 Q 152.8 162.8 150.5 162 L 147.5 160 L 144.5 161 L 141.5 159 L 140.5 160 Q 138.8 156.9 137 158.5 L 137 157 L 133 157 L 131.5 161 L 129.5 160 L 129 162 L 131 162.5 L 129 163.5 L 130 167 Q 127.3 165.9 128 168.5 L 127 173.5 L 128 173.5 L 128.5 172 L 129 173.5 L 127.5 177 L 126.5 174 L 126 178.5 L 127 182.5 L 126 182.5 L 125.5 181 L 125 183.5 L 125 187.5 Q 125.8 190.1 122.5 189 L 122.5 190 L 124 190.5 L 117.5 196 L 113.5 195 L 113.5 196 L 115 196.5 L 109.5 197 L 106.5 195 L 105 195.5 L 105.5 194 L 103 194.5 L 103.5 196 L 101.5 196 L 100 195.5 L 100.5 194 L 98.5 195 L 94.5 195 Q 91.9 195.7 93 193 L 90.5 193 L 90.5 194 L 92 194.5 L 87.5 195 L 84 192.5 Q 86.3 191.3 83.5 190 L 82 190.5 L 82.5 192 L 79 187.5 L 79.5 186 Q 77.3 186.8 78 184.5 L 77 181.5 L 78 178 L 76 177.5 Q 78.5 176 75 174.5 L 74 168.5 L 75 166.5 L 74 164.5 L 76 164.5 L 73.5 157 L 72.5 159 L 70 153 L 68 153.5 L 68.5 155 L 66.5 154 L 65 154.5 Q 65.7 151.9 63 153 Q 64.1 155.7 61.5 155 L 58.5 154 L 58.5 156 Q 55.2 157.1 56 154.5 L 53.5 154 L 51 154.5 L 53 155.5 L 49.5 156 L 43.5 156 L 42 155.5 L 44 154.5 L 41 154 Q 42.8 158.5 37.5 157 L 37.5 156 L 39 155.5 L 36.5 154 L 35 154.5 L 36 146 L 38 145.5 L 36 139.5 L 33.5 137 Q 29.1 138.5 30 135.5 L 29 133.5 L 30 133.5 L 30.5 135 L 31 132 L 38 130 Q 36.9 127.3 39.5 128 L 53 123 Q 51.8 120 55.5 121 L 62.5 118 Z M 145 159 L 145 160 L 147 160 L 145 159 Z M 162 162 L 162 163 L 164 163 L 162 162 Z M 165 163 L 165 164 L 168 164 L 165 163 Z " /><path fill="rgb(211,211,211)" stroke="rgb(211,211,211)" stroke-width="1" opacity="1" d="M 176.5 141 L 177 143.5 L 175 144.5 L 176.5 141 Z " /></svg>