<svg width="200" height="200" version="1.1" xmlns="http://www.w3.org/2000/svg" desc="Created with imagetracer.js version 1.2.6" ><path fill="rgb(0,0,0)" stroke="rgb(0,0,0)" stroke-width="1" opacity="0" d="M 0 0 L 200 0 L 200 200 L 0 200 L 0 0 Z M 85 24 L 87 51 L 89 53 L 91 76 L 93 82 Q 94 89 91 92 L 88 84 L 82 73 L 80 63 L 77 59 L 75 51 L 69 38 L 69 35 L 50 35 L 49 40 L 49 41 L 39 41 Q 38 51 42 56 L 41 58 L 43 61 L 47 81 L 49 83 L 54 108 L 56 110 L 58 117 L 57 143 L 56 144 L 56 154 L 57 155 L 58 169 L 63 179 L 76 187 L 135 187 L 141 183 L 148 173 L 151 160 L 151 153 L 153 151 L 153 139 L 151 137 L 151 129 L 149 120 Q 150 111 154 107 L 157 84 L 160 78 L 164 32 L 163 30 L 145 30 L 144 37 L 144 54 L 142 65 Q 144 70 140 69 L 139 82 L 136 91 L 136 94 Q 133 93 134 97 L 133 97 L 134 94 L 134 59 L 133 58 L 133 46 L 131 44 L 130 28 L 126 28 L 124 26 L 117 24 L 110 24 L 113 56 L 114 57 L 114 93 L 111 89 L 111 83 L 108 71 L 108 65 L 106 61 L 106 56 L 104 54 L 100 26 L 99 24 L 85 24 Z " /><path fill="rgb(146,185,105)" stroke="rgb(146,185,105)" stroke-width="1" opacity="1" d="M 90 29 L 95 29 L 95 32.5 L 97 37.5 L 97 42.5 L 99 47.5 L 102 68.5 L 105 77.5 L 105 83.5 L 108 96 L 100 91.5 L 98 84.5 L 97 71.5 L 95 66.5 L 95 60.5 L 94 59.5 L 94 53.5 L 90 29 Z " /><path fill="rgb(146,185,105)" stroke="rgb(146,185,105)" stroke-width="1" opacity="1" d="M 116 31 Q 123.3 30 126 34.5 L 126 42.5 L 128 51.5 L 128 64.5 L 129 65.5 L 129 87.5 L 127 100 L 118 98 L 120 89.5 L 120 62.5 L 119 61.5 L 119 51.5 L 118 50.5 L 118 42.5 L 116 31 Z " /><path fill="rgb(146,185,105)" stroke="rgb(146,185,105)" stroke-width="1" opacity="1" d="M 149 36 L 159 36 L 159 39.5 L 158 40.5 L 157 57.5 L 156 58.5 L 152 90.5 L 146 112 L 136 105.5 L 141 94.5 L 146 74.5 L 148 52.5 L 149 51.5 L 149 36 Z " /><path fill="rgb(146,185,105)" stroke="rgb(146,185,105)" stroke-width="1" opacity="1" d="M 55 40 L 63.5 40 L 65 41.5 L 86 94.5 L 86 98 L 76.5 103 L 61 61.5 L 55 40 Z " /><path fill="rgb(146,185,105)" stroke="rgb(146,185,105)" stroke-width="1" opacity="1" d="M 45 46 L 51.5 46 L 52 47.5 L 72 104.5 L 67 107 L 62.5 113 L 61 111.5 Q 59.1 96.9 54 85.5 L 53 77.5 L 45 50.5 L 45 46 Z " /><path fill="rgb(146,185,105)" stroke="rgb(146,185,105)" stroke-width="1" opacity="1" d="M 95.5 94 L 97.5 94 L 103 98.5 L 101.5 99 Q 100.1 94.3 95 95 Q 96.1 97.7 93.5 97 L 95.5 94 Z " /><path fill="rgb(146,185,105)" stroke="rgb(146,185,105)" stroke-width="1" opacity="1" d="M 92.5 98 L 93 100.5 L 92 100.5 L 92.5 98 Z " /><path fill="rgb(146,185,105)" stroke="rgb(146,185,105)" stroke-width="1" opacity="1" d="M 87.5 101 L 88.5 103 L 86.5 103 L 84.5 104 L 85.5 102 L 87.5 101 Z " /><path fill="rgb(146,185,105)" stroke="rgb(146,185,105)" stroke-width="1" opacity="1" d="M 109.5 101 Q 112.1 100.2 111 103.5 L 108.5 110 L 108 107.5 L 110 102.5 L 109.5 101 Z " /><path fill="rgb(146,185,105)" stroke="rgb(146,185,105)" stroke-width="1" opacity="1" d="M 115 101 Q 121.5 100.3 124 104.5 L 121.5 103 L 116.5 102 L 114.5 105 L 114 103.5 L 115 101 Z " /><path fill="rgb(146,185,105)" stroke="rgb(146,185,105)" stroke-width="1" opacity="1" d="M 89.5 104 L 91 109.5 L 90 109.5 L 89.5 104 Z " /><path fill="rgb(146,185,105)" stroke="rgb(146,185,105)" stroke-width="1" opacity="1" d="M 80.5 105 L 79.5 107 Q 71.7 108.7 67.5 114 L 70.5 110 L 80.5 105 Z " /><path fill="rgb(146,185,105)" stroke="rgb(146,185,105)" stroke-width="1" opacity="1" d="M 125.5 105 L 130 108.5 L 128.5 109 L 125.5 105 Z " /><path fill="rgb(146,185,105)" stroke="rgb(146,185,105)" stroke-width="1" opacity="1" d="M 94.5 106 L 95 108.5 L 94 108.5 L 94.5 106 Z " /><path fill="rgb(146,185,105)" stroke="rgb(146,185,105)" stroke-width="1" opacity="1" d="M 95.5 110 L 98 119.5 L 98 128.5 L 97 128.5 L 97 119.5 L 95.5 110 Z " /><path fill="rgb(146,185,105)" stroke="rgb(146,185,105)" stroke-width="1" opacity="1" d="M 91.5 111 L 92 113.5 L 91 113.5 L 91.5 111 Z " /><path fill="rgb(146,185,105)" stroke="rgb(146,185,105)" stroke-width="1" opacity="1" d="M 107.5 111 L 108 114.5 L 107 114.5 L 107.5 111 Z " /><path fill="rgb(146,185,105)" stroke="rgb(146,185,105)" stroke-width="1" opacity="1" d="M 138.5 112 Q 144.6 114.4 145 122.5 L 144 122.5 L 143 117.5 L 138.5 112 Z " /><path fill="rgb(146,185,105)" stroke="rgb(146,185,105)" stroke-width="1" opacity="1" d="M 111.5 114 L 112 116.5 L 111 116.5 L 111.5 114 Z " /><path fill="rgb(146,185,105)" stroke="rgb(146,185,105)" stroke-width="1" opacity="1" d="M 92.5 116 L 93 120.5 L 92 120.5 L 92.5 116 Z " /><path fill="rgb(146,185,105)" stroke="rgb(146,185,105)" stroke-width="1" opacity="1" d="M 106.5 117 L 107 119.5 L 106 119.5 L 106.5 117 Z " /><path fill="rgb(146,185,105)" stroke="rgb(146,185,105)" stroke-width="1" opacity="1" d="M 110.5 118 L 111 125.5 L 110 126.5 L 110 147.5 L 111 148.5 L 111 156.5 L 110 156.5 L 109 126.5 L 110.5 118 Z " /><path fill="rgb(146,185,105)" stroke="rgb(146,185,105)" stroke-width="1" opacity="1" d="M 64.5 119 L 65 120.5 L 62.5 132 L 62 127.5 L 64.5 119 Z " /><path fill="rgb(146,185,105)" stroke="rgb(146,185,105)" stroke-width="1" opacity="1" d="M 72.5 120 L 75 121.5 L 73.5 121 Q 71.3 120.3 72 122.5 L 70 125.5 L 68.5 133 L 68 129.5 L 72.5 120 Z " /><path fill="rgb(146,185,105)" stroke="rgb(146,185,105)" stroke-width="1" opacity="1" d="M 132.5 120 L 134 120.5 L 132 121 L 131.5 125 L 131 121.5 L 132.5 120 Z " /><path fill="rgb(146,185,105)" stroke="rgb(146,185,105)" stroke-width="1" opacity="1" d="M 135.5 122 Q 139 127 139 135.5 L 138 135.5 L 138 131.5 L 135.5 122 Z " /><path fill="rgb(146,185,105)" stroke="rgb(146,185,105)" stroke-width="1" opacity="1" d="M 105.5 123 L 106 132.5 L 105 132.5 L 105.5 123 Z " /><path fill="rgb(146,185,105)" stroke="rgb(146,185,105)" stroke-width="1" opacity="1" d="M 93.5 125 L 94 131.5 L 93 131.5 L 93.5 125 Z " /><path fill="rgb(146,185,105)" stroke="rgb(146,185,105)" stroke-width="1" opacity="1" d="M 73.5 127 L 74 129.5 L 73 129.5 L 73.5 127 Z " /><path fill="rgb(146,185,105)" stroke="rgb(146,185,105)" stroke-width="1" opacity="1" d="M 133.5 129 L 134 132.5 L 133 132.5 L 133.5 129 Z " /><path fill="rgb(146,185,105)" stroke="rgb(146,185,105)" stroke-width="1" opacity="1" d="M 146.5 130 L 147 137.5 L 146 137.5 L 146.5 130 Z " /><path fill="rgb(146,185,105)" stroke="rgb(146,185,105)" stroke-width="1" opacity="1" d="M 72.5 132 L 73 134.5 L 72 134.5 L 72.5 132 Z " /><path fill="rgb(146,185,105)" stroke="rgb(146,185,105)" stroke-width="1" opacity="1" d="M 61.5 133 L 62 139.5 L 61 139.5 L 61.5 133 Z " /><path fill="rgb(146,185,105)" stroke="rgb(146,185,105)" stroke-width="1" opacity="1" d="M 67.5 136 L 68 139.5 L 67 139.5 L 67.5 136 Z " /><path fill="rgb(146,185,105)" stroke="rgb(146,185,105)" stroke-width="1" opacity="1" d="M 134.5 136 L 135 139.5 L 134 139.5 L 134.5 136 Z " /><path fill="rgb(146,185,105)" stroke="rgb(146,185,105)" stroke-width="1" opacity="1" d="M 71.5 137 L 72 150.5 L 71 150.5 L 71.5 137 Z " /><path fill="rgb(146,185,105)" stroke="rgb(146,185,105)" stroke-width="1" opacity="1" d="M 93.5 139 L 94 145.5 L 93 145.5 L 93.5 139 Z " /><path fill="rgb(146,185,105)" stroke="rgb(146,185,105)" stroke-width="1" opacity="1" d="M 105.5 140 L 106 150.5 L 105 150.5 L 105.5 140 Z " /><path fill="rgb(146,185,105)" stroke="rgb(146,185,105)" stroke-width="1" opacity="1" d="M 139.5 140 L 140 148.5 L 139 148.5 L 139.5 140 Z " /><path fill="rgb(146,185,105)" stroke="rgb(146,185,105)" stroke-width="1" opacity="1" d="M 97.5 143 L 98 152.5 L 95.5 162 L 95 159.5 Q 97.9 152.9 97.5 143 Z " /><path fill="rgb(146,185,105)" stroke="rgb(146,185,105)" stroke-width="1" opacity="1" d="M 60.5 147 L 61 150.5 L 60 150.5 L 60.5 147 Z " /><path fill="rgb(146,185,105)" stroke="rgb(146,185,105)" stroke-width="1" opacity="1" d="M 134.5 149 L 135 152.5 L 134 152.5 L 134.5 149 Z " /><path fill="rgb(146,185,105)" stroke="rgb(146,185,105)" stroke-width="1" opacity="1" d="M 67.5 150 L 68 152.5 L 67 152.5 L 67.5 150 Z " /><path fill="rgb(146,185,105)" stroke="rgb(146,185,105)" stroke-width="1" opacity="1" d="M 146.5 150 L 147 156.5 L 146 156.5 L 146.5 150 Z " /><path fill="rgb(146,185,105)" stroke="rgb(146,185,105)" stroke-width="1" opacity="1" d="M 92.5 151 L 93 155.5 L 92 155.5 L 92.5 151 Z " /><path fill="rgb(146,185,105)" stroke="rgb(146,185,105)" stroke-width="1" opacity="1" d="M 72.5 153 L 73 155.5 L 72 155.5 L 72.5 153 Z " /><path fill="rgb(146,185,105)" stroke="rgb(146,185,105)" stroke-width="1" opacity="1" d="M 138.5 153 L 139 156.5 L 134.5 166 L 135 164.5 L 138.5 153 Z " /><path fill="rgb(146,185,105)" stroke="rgb(146,185,105)" stroke-width="1" opacity="1" d="M 106.5 154 L 107 156.5 L 106 156.5 L 106.5 154 Z " /><path fill="rgb(146,185,105)" stroke="rgb(146,185,105)" stroke-width="1" opacity="1" d="M 68.5 155 L 72 165.5 L 71 165.5 L 68 158.5 L 68.5 155 Z " /><path fill="rgb(146,185,105)" stroke="rgb(146,185,105)" stroke-width="1" opacity="1" d="M 133.5 155 L 134 157.5 L 133 157.5 L 133.5 155 Z " /><path fill="rgb(146,185,105)" stroke="rgb(146,185,105)" stroke-width="1" opacity="1" d="M 61.5 157 L 62 160.5 L 61 160.5 L 61.5 157 Z " /><path fill="rgb(146,185,105)" stroke="rgb(146,185,105)" stroke-width="1" opacity="1" d="M 73.5 157 L 74 159.5 L 73 159.5 L 73.5 157 Z " /><path fill="rgb(146,185,105)" stroke="rgb(146,185,105)" stroke-width="1" opacity="1" d="M 91.5 158 L 92 160.5 L 91 160.5 L 91.5 158 Z " /><path fill="rgb(146,185,105)" stroke="rgb(146,185,105)" stroke-width="1" opacity="1" d="M 111.5 158 L 112 160.5 L 111 160.5 L 111.5 158 Z " /><path fill="rgb(146,185,105)" stroke="rgb(146,185,105)" stroke-width="1" opacity="1" d="M 107.5 160 L 108 162.5 L 107 162.5 L 107.5 160 Z " /><path fill="rgb(146,185,105)" stroke="rgb(146,185,105)" stroke-width="1" opacity="1" d="M 132.5 160 L 132 161.5 Q 130.9 168.9 125.5 172 L 128 168.5 L 132.5 160 Z " /><path fill="rgb(146,185,105)" stroke="rgb(146,185,105)" stroke-width="1" opacity="1" d="M 62.5 162 L 64 167.5 L 63 167.5 L 62.5 162 Z " /><path fill="rgb(146,185,105)" stroke="rgb(146,185,105)" stroke-width="1" opacity="1" d="M 90.5 162 L 91 165.5 L 88.5 172 L 88 170.5 L 90.5 162 Z " /><path fill="rgb(146,185,105)" stroke="rgb(146,185,105)" stroke-width="1" opacity="1" d="M 112.5 162 L 113 164.5 L 112 164.5 L 112.5 162 Z " /><path fill="rgb(146,185,105)" stroke="rgb(146,185,105)" stroke-width="1" opacity="1" d="M 75.5 163 L 82 172.5 L 82 174.5 L 78.5 176 L 72 167.5 L 74 168.5 L 78.5 175 Q 82.3 176.3 81 172.5 L 75.5 163 Z " /><path fill="rgb(146,185,105)" stroke="rgb(146,185,105)" stroke-width="1" opacity="1" d="M 94.5 163 L 95 166.5 L 94 166.5 L 94.5 163 Z " /><path fill="rgb(146,185,105)" stroke="rgb(146,185,105)" stroke-width="1" opacity="1" d="M 144.5 163 L 145 165.5 L 141.5 172 L 142 170.5 L 144.5 163 Z " /><path fill="rgb(146,185,105)" stroke="rgb(146,185,105)" stroke-width="1" opacity="1" d="M 108.5 165 L 112 176.5 L 111 176.5 L 108 167.5 L 108.5 165 Z " /><path fill="rgb(146,185,105)" stroke="rgb(146,185,105)" stroke-width="1" opacity="1" d="M 113.5 167 L 114 169.5 L 113 169.5 L 113.5 167 Z " /><path fill="rgb(146,185,105)" stroke="rgb(146,185,105)" stroke-width="1" opacity="1" d="M 133.5 167 L 134 168.5 L 127.5 176 L 125 175.5 L 131 171.5 L 133.5 167 Z " /><path fill="rgb(146,185,105)" stroke="rgb(146,185,105)" stroke-width="1" opacity="1" d="M 65.5 171 L 72 178.5 L 66 173.5 L 65.5 171 Z " /><path fill="rgb(146,185,105)" stroke="rgb(146,185,105)" stroke-width="1" opacity="1" d="M 140.5 173 L 140 174.5 L 136.5 179 L 139 175.5 L 140.5 173 Z " /><path fill="rgb(146,185,105)" stroke="rgb(146,185,105)" stroke-width="1" opacity="1" d="M 115.5 174 L 117 178.5 L 116 178.5 L 115.5 174 Z " /><path fill="rgb(146,185,105)" stroke="rgb(146,185,105)" stroke-width="1" opacity="1" d="M 86.5 176 L 87 178.5 L 85 183 L 77 181.5 L 79.5 181 L 83.5 182 L 86.5 176 Z " /><path fill="rgb(146,185,105)" stroke="rgb(146,185,105)" stroke-width="1" opacity="1" d="M 90.5 178 L 91 179.5 L 90 182 L 113 182.5 L 89 183 L 90.5 178 Z " /><path fill="rgb(146,185,105)" stroke="rgb(146,185,105)" stroke-width="1" opacity="1" d="M 73.5 179 L 76 180.5 L 74.5 181 L 73.5 179 Z " /><path fill="rgb(146,185,105)" stroke="rgb(146,185,105)" stroke-width="1" opacity="1" d="M 134.5 179 L 133.5 181 Q 128.4 184.4 118.5 183 L 117 180.5 L 118 180.5 L 118.5 182 L 128.5 182 L 134.5 179 Z " /><path fill="rgb(55,56,54)" stroke="rgb(55,56,54)" stroke-width="1" opacity="0.9686274509803922" d="M 86 25 Q 93.7 24.1 98 26 L 102 50.5 L 104 53.5 L 103 55.5 L 105 60.5 L 104 62.5 L 107 70.5 L 109 87.5 L 112 97 L 115 95.5 L 116 93.5 L 116 91.5 L 117 88.5 L 117 67.5 L 115 56.5 L 116 54.5 L 114 48.5 L 114 39.5 L 113 38.5 L 112 26 L 128 30 L 132 57.5 L 132 59.5 Q 130.8 64.3 133 65.5 L 133 87.5 L 131 92.5 L 132 94.5 L 129 103.5 L 133 105 L 138 93.5 L 143 69.5 Q 140.5 68 144 66.5 L 143 62.5 L 145 59.5 L 146 33.5 L 147.5 32 L 162 32 L 162 40.5 L 161 41.5 L 160 61.5 L 159 62.5 L 159 72.5 L 157 77.5 Q 159.5 79 156 80.5 L 157 85.5 L 155 87.5 L 153 101.5 L 147 118.5 L 149 125.5 L 149 131.5 L 151 136.5 L 150 137.5 L 150 150.5 L 151 153.5 L 149 156.5 L 146 171.5 L 137.5 182 L 132.5 185 L 127.5 186 L 81.5 186 L 76.5 185 L 67 180 L 59 165.5 Q 60.3 160.8 58 159.5 L 58 135.5 L 59 134.5 L 60 117.5 L 56 101.5 L 54 99.5 L 54 97.5 L 40 43 L 49.5 43 L 51 41.5 Q 50.5 37 51.5 37 L 67 37 L 89 95 L 96 89.5 L 93 75.5 L 90 48.5 L 88 44.5 L 88 36.5 L 86 25 Z M 89 28 L 99 91 L 107 96 L 108 97 L 108 92 L 106 87 L 106 82 L 100 56 L 96 31 Q 95 27 89 28 Z M 115 30 L 118 48 L 119 67 L 120 68 L 120 87 L 118 98 L 127 101 L 129 94 L 129 82 L 130 81 L 129 57 L 128 56 L 126 34 Q 122 29 115 30 Z M 149 35 L 146 73 L 141 94 L 136 107 L 146 113 L 152 93 L 155 70 L 157 64 L 158 45 L 159 44 L 159 35 L 149 35 Z M 56 39 L 54 41 L 75 103 L 79 103 L 87 98 L 65 41 L 64 39 L 56 39 Z M 44 46 L 50 73 L 53 80 L 61 111 Q 59 115 63 114 L 65 111 Q 67 106 72 106 L 72 103 L 53 48 L 52 46 L 44 46 Z M 96 94 L 91 99 L 94 106 L 97 123 L 97 149 Q 94 150 96 157 L 93 171 L 89 180 L 90 183 L 114 183 L 109 167 L 106 152 L 106 123 L 111 102 L 96 94 Z M 87 101 Q 81 107 72 109 L 63 120 L 61 140 L 60 141 Q 58 163 67 176 Q 72 183 85 183 L 91 167 Q 90 160 93 158 L 93 150 L 94 149 L 94 138 L 95 137 L 93 115 L 90 103 L 87 101 Z M 116 101 L 112 109 L 109 123 L 109 152 L 113 171 L 117 183 Q 128 185 135 181 L 144 170 L 147 159 L 147 146 L 148 145 L 147 143 L 147 129 L 144 117 Q 139 109 128 107 L 124 103 Q 121 100 116 101 Z " /><path fill="rgb(55,56,54)" stroke="rgb(55,56,54)" stroke-width="1" opacity="0.9686274509803922" d="M 73.5 121 L 74 125.5 L 71 134.5 L 71 153.5 L 73 160.5 L 81 172.5 L 81 175 L 75 170.5 L 70 160.5 L 67 143.5 L 70 126.5 L 73.5 121 Z " /><path fill="rgb(55,56,54)" stroke="rgb(55,56,54)" stroke-width="1" opacity="0.9686274509803922" d="M 133.5 121 L 137 128.5 L 139 147.5 L 135 164.5 L 127.5 175 L 125 173.5 Q 137 162.5 136 138.5 L 132 122.5 L 133.5 121 Z " /><path fill="rgb(87,92,80)" stroke="rgb(87,92,80)" stroke-width="1" opacity="0.7725490196078432" d="M 87.5 24 L 93 24.5 L 87.5 25 L 87.5 24 Z " /><path fill="rgb(87,92,80)" stroke="rgb(87,92,80)" stroke-width="1" opacity="0.7725490196078432" d="M 85.5 25 L 86 28.5 L 85 28.5 L 85.5 25 Z " /><path fill="rgb(87,92,80)" stroke="rgb(87,92,80)" stroke-width="1" opacity="0.7725490196078432" d="M 95.5 25 L 99 26.5 L 98.5 29 L 98 26 Q 94.7 26.8 95.5 25 Z " /><path fill="rgb(87,92,80)" stroke="rgb(87,92,80)" stroke-width="1" opacity="0.7725490196078432" d="M 112.5 25 L 115 25.5 L 112 26 L 111.5 28 L 111 26.5 L 112.5 25 Z " /><path fill="rgb(87,92,80)" stroke="rgb(87,92,80)" stroke-width="1" opacity="0.7725490196078432" d="M 121.5 26 L 122 28 Q 127.5 26.8 129 30.5 L 131 39.5 L 132 53.5 L 131 53.5 L 130 39.5 L 128 30 L 119 27.5 L 121.5 26 Z " /><path fill="rgb(87,92,80)" stroke="rgb(87,92,80)" stroke-width="1" opacity="0.7725490196078432" d="M 89 28 L 94 28.5 L 90 29 L 89.5 32 L 89 28 Z " /><path fill="rgb(87,92,80)" stroke="rgb(87,92,80)" stroke-width="1" opacity="0.7725490196078432" d="M 86.5 30 L 87 32.5 L 86 32.5 L 86.5 30 Z " /><path fill="rgb(87,92,80)" stroke="rgb(87,92,80)" stroke-width="1" opacity="0.7725490196078432" d="M 95.5 30 L 96 32.5 L 95 32.5 L 95.5 30 Z " /><path fill="rgb(87,92,80)" stroke="rgb(87,92,80)" stroke-width="1" opacity="0.7725490196078432" d="M 111.5 30 L 113 35.5 L 112 35.5 L 111.5 30 Z " /><path fill="rgb(87,92,80)" stroke="rgb(87,92,80)" stroke-width="1" opacity="0.7725490196078432" d="M 115 30 L 119 30.5 L 116 31 L 115.5 34 L 115 30 Z " /><path fill="rgb(87,92,80)" stroke="rgb(87,92,80)" stroke-width="1" opacity="0.7725490196078432" d="M 99.5 31 L 100 34.5 L 99 34.5 L 99.5 31 Z " /><path fill="rgb(87,92,80)" stroke="rgb(87,92,80)" stroke-width="1" opacity="0.7725490196078432" d="M 147.5 31 L 161 31.5 L 147.5 32 L 146 33.5 L 145.5 36 L 145 33.5 L 147.5 31 Z " /><path fill="rgb(87,92,80)" stroke="rgb(87,92,80)" stroke-width="1" opacity="0.7725490196078432" d="M 124.5 32 L 125.5 34 L 124.5 32 Z " /><path fill="rgb(87,92,80)" stroke="rgb(87,92,80)" stroke-width="1" opacity="0.7725490196078432" d="M 162.5 32 L 163 41.5 L 161.5 48 L 161 41.5 L 162 40.5 L 162.5 32 Z " /><path fill="rgb(87,92,80)" stroke="rgb(87,92,80)" stroke-width="1" opacity="0.7725490196078432" d="M 90.5 34 L 91 36.5 L 90 36.5 L 90.5 34 Z " /><path fill="rgb(87,92,80)" stroke="rgb(87,92,80)" stroke-width="1" opacity="0.7725490196078432" d="M 96.5 34 L 97 36.5 L 96 36.5 L 96.5 34 Z " /><path fill="rgb(87,92,80)" stroke="rgb(87,92,80)" stroke-width="1" opacity="0.7725490196078432" d="M 52.5 35 L 64.5 35 L 68 37.5 L 67.5 39 L 67 37 L 51.5 37 L 51 39.5 L 50 39.5 Q 49.5 35.5 52.5 35 Z " /><path fill="rgb(87,92,80)" stroke="rgb(87,92,80)" stroke-width="1" opacity="0.7725490196078432" d="M 149.5 35 L 159 35.5 L 149.5 36 L 149.5 35 Z " /><path fill="rgb(87,92,80)" stroke="rgb(87,92,80)" stroke-width="1" opacity="0.7725490196078432" d="M 87.5 36 L 88 40.5 L 87 40.5 L 87.5 36 Z " /><path fill="rgb(87,92,80)" stroke="rgb(87,92,80)" stroke-width="1" opacity="0.7725490196078432" d="M 116.5 36 L 117 39.5 L 116 39.5 L 116.5 36 Z " /><path fill="rgb(87,92,80)" stroke="rgb(87,92,80)" stroke-width="1" opacity="0.7725490196078432" d="M 100.5 38 L 102 40.5 L 100 39.5 L 100.5 38 Z " /><path fill="rgb(87,92,80)" stroke="rgb(87,92,80)" stroke-width="1" opacity="0.7725490196078432" d="M 145.5 38 L 146 45.5 L 144.5 54 L 144 46.5 L 145.5 38 Z " /><path fill="rgb(87,92,80)" stroke="rgb(87,92,80)" stroke-width="1" opacity="0.7725490196078432" d="M 55.5 39 L 63.5 39 L 65 40.5 L 63.5 40 L 55.5 40 L 55 41.5 L 54 41.5 L 55.5 39 Z " /><path fill="rgb(87,92,80)" stroke="rgb(87,92,80)" stroke-width="1" opacity="0.7725490196078432" d="M 91.5 39 L 92 42.5 L 91 42.5 L 91.5 39 Z " /><path fill="rgb(87,92,80)" stroke="rgb(87,92,80)" stroke-width="1" opacity="0.7725490196078432" d="M 97.5 39 L 98 42.5 L 97 42.5 L 97.5 39 Z " /><path fill="rgb(87,92,80)" stroke="rgb(87,92,80)" stroke-width="1" opacity="0.7725490196078432" d="M 113.5 39 L 114 44.5 L 113 44.5 L 113.5 39 Z " /><path fill="rgb(87,92,80)" stroke="rgb(87,92,80)" stroke-width="1" opacity="0.7725490196078432" d="M 126.5 39 L 127 42.5 L 126 42.5 L 126.5 39 Z " /><path fill="rgb(87,92,80)" stroke="rgb(87,92,80)" stroke-width="1" opacity="0.7725490196078432" d="M 68.5 40 L 73 50.5 L 71 49.5 L 68.5 40 Z " /><path fill="rgb(87,92,80)" stroke="rgb(87,92,80)" stroke-width="1" opacity="0.7725490196078432" d="M 158.5 40 L 159 43.5 L 158 43.5 L 158.5 40 Z " /><path fill="rgb(87,92,80)" stroke="rgb(87,92,80)" stroke-width="1" opacity="0.7725490196078432" d="M 42.5 41 Q 48 39.5 49.5 42 L 51 41.5 L 49.5 43 L 40.5 43 L 40.5 42 L 42.5 41 Z " /><path fill="rgb(87,92,80)" stroke="rgb(87,92,80)" stroke-width="1" opacity="0.7725490196078432" d="M 101.5 42 L 104 52.5 L 103 52.5 L 101.5 42 Z " /><path fill="rgb(87,92,80)" stroke="rgb(87,92,80)" stroke-width="1" opacity="0.7725490196078432" d="M 117.5 42 L 118 46.5 L 117 46.5 L 117.5 42 Z " /><path fill="rgb(87,92,80)" stroke="rgb(87,92,80)" stroke-width="1" opacity="0.7725490196078432" d="M 148.5 44 L 149 51.5 L 148 51.5 L 148.5 44 Z " /><path fill="rgb(87,92,80)" stroke="rgb(87,92,80)" stroke-width="1" opacity="0.7725490196078432" d="M 88.5 45 L 90 48.5 L 92 65.5 L 91 65.5 L 88.5 45 Z " /><path fill="rgb(87,92,80)" stroke="rgb(87,92,80)" stroke-width="1" opacity="0.7725490196078432" d="M 44.5 46 L 45 48.5 L 44 48.5 L 44.5 46 Z " /><path fill="rgb(87,92,80)" stroke="rgb(87,92,80)" stroke-width="1" opacity="0.7725490196078432" d="M 92.5 47 L 93 49.5 L 92 49.5 L 92.5 47 Z " /><path fill="rgb(87,92,80)" stroke="rgb(87,92,80)" stroke-width="1" opacity="0.7725490196078432" d="M 127.5 47 L 128 50.5 L 127 50.5 L 127.5 47 Z " /><path fill="rgb(87,92,80)" stroke="rgb(87,92,80)" stroke-width="1" opacity="0.7725490196078432" d="M 114.5 49 L 115 52.5 L 114 52.5 L 114.5 49 Z " /><path fill="rgb(87,92,80)" stroke="rgb(87,92,80)" stroke-width="1" opacity="0.7725490196078432" d="M 157.5 49 L 158 54.5 L 157 54.5 L 157.5 49 Z " /><path fill="rgb(87,92,80)" stroke="rgb(87,92,80)" stroke-width="1" opacity="0.7725490196078432" d="M 161.5 49 L 162 53.5 L 160.5 58 L 160 54.5 L 161.5 49 Z " /><path fill="rgb(87,92,80)" stroke="rgb(87,92,80)" stroke-width="1" opacity="0.7725490196078432" d="M 41.5 51 L 45 62.5 L 44 62.5 L 41.5 51 Z " /><path fill="rgb(87,92,80)" stroke="rgb(87,92,80)" stroke-width="1" opacity="0.7725490196078432" d="M 118.5 51 L 119 55.5 L 118 55.5 L 118.5 51 Z " /><path fill="rgb(87,92,80)" stroke="rgb(87,92,80)" stroke-width="1" opacity="0.7725490196078432" d="M 69.5 52 L 71 54.5 L 69 53.5 L 69.5 52 Z " /><path fill="rgb(87,92,80)" stroke="rgb(87,92,80)" stroke-width="1" opacity="0.7725490196078432" d="M 103.5 54 L 104 56 Q 107.7 54.6 106 60.5 L 105 62.5 L 106 65.5 L 105 65.5 L 104 61.5 L 105 59.5 L 103.5 54 Z " /><path fill="rgb(87,92,80)" stroke="rgb(87,92,80)" stroke-width="1" opacity="0.7725490196078432" d="M 115.5 54 L 116 55.5 L 115 58.5 L 117 67.5 L 117 88.5 L 116 92 Q 112 93.4 114 86.5 L 116 86.5 L 115.5 69 L 114 69.5 L 114 56.5 L 115.5 54 Z " /><path fill="rgb(87,92,80)" stroke="rgb(87,92,80)" stroke-width="1" opacity="0.7725490196078432" d="M 144.5 55 L 145 59.5 L 143.5 62 L 143 59.5 L 144.5 55 Z " /><path fill="rgb(87,92,80)" stroke="rgb(87,92,80)" stroke-width="1" opacity="0.7725490196078432" d="M 128.5 56 L 129 64.5 L 128 64.5 L 128.5 56 Z " /><path fill="rgb(87,92,80)" stroke="rgb(87,92,80)" stroke-width="1" opacity="0.7725490196078432" d="M 75.5 58 L 77 61.5 L 76 61.5 L 75.5 58 Z " /><path fill="rgb(87,92,80)" stroke="rgb(87,92,80)" stroke-width="1" opacity="0.7725490196078432" d="M 156.5 58 L 157 63.5 L 156 63.5 L 156.5 58 Z " /><path fill="rgb(87,92,80)" stroke="rgb(87,92,80)" stroke-width="1" opacity="0.7725490196078432" d="M 94.5 60 L 95 62.5 L 94 62.5 L 94.5 60 Z " /><path fill="rgb(87,92,80)" stroke="rgb(87,92,80)" stroke-width="1" opacity="0.7725490196078432" d="M 132.5 60 L 133 64.5 L 132 64.5 L 132.5 60 Z " /><path fill="rgb(87,92,80)" stroke="rgb(87,92,80)" stroke-width="1" opacity="0.7725490196078432" d="M 119.5 62 L 120 66.5 L 119 66.5 L 119.5 62 Z " /><path fill="rgb(87,92,80)" stroke="rgb(87,92,80)" stroke-width="1" opacity="0.7725490196078432" d="M 159.5 62 L 160 67.5 L 159 67.5 L 159.5 62 Z " /><path fill="rgb(87,92,80)" stroke="rgb(87,92,80)" stroke-width="1" opacity="0.7725490196078432" d="M 77.5 63 L 79 66.5 L 78 66.5 L 77.5 63 Z " /><path fill="rgb(87,92,80)" stroke="rgb(87,92,80)" stroke-width="1" opacity="0.7725490196078432" d="M 45.5 64 L 46 66.5 L 45 66.5 L 45.5 64 Z " /><path fill="rgb(87,92,80)" stroke="rgb(87,92,80)" stroke-width="1" opacity="0.7725490196078432" d="M 102.5 65 L 103 68.5 L 102 68.5 L 102.5 65 Z " /><path fill="rgb(87,92,80)" stroke="rgb(87,92,80)" stroke-width="1" opacity="0.7725490196078432" d="M 143.5 65 L 144 66.5 L 142 67.5 L 143.5 65 Z " /><path fill="rgb(87,92,80)" stroke="rgb(87,92,80)" stroke-width="1" opacity="0.7725490196078432" d="M 155.5 65 L 156 68.5 L 155 68.5 L 155.5 65 Z " /><path fill="rgb(87,92,80)" stroke="rgb(87,92,80)" stroke-width="1" opacity="0.7725490196078432" d="M 49.5 66 L 50 68.5 L 49 68.5 L 49.5 66 Z " /><path fill="rgb(87,92,80)" stroke="rgb(87,92,80)" stroke-width="1" opacity="0.7725490196078432" d="M 146.5 66 L 147 68.5 L 146 68.5 L 146.5 66 Z " /><path fill="rgb(87,92,80)" stroke="rgb(87,92,80)" stroke-width="1" opacity="0.7725490196078432" d="M 95.5 67 L 96 69.5 L 95 69.5 L 95.5 67 Z " /><path fill="rgb(87,92,80)" stroke="rgb(87,92,80)" stroke-width="1" opacity="0.7725490196078432" d="M 106.5 67 L 107 69.5 L 106 69.5 L 106.5 67 Z " /><path fill="rgb(87,92,80)" stroke="rgb(87,92,80)" stroke-width="1" opacity="0.7725490196078432" d="M 92.5 68 L 93 72.5 L 92 72.5 L 92.5 68 Z " /><path fill="rgb(87,92,80)" stroke="rgb(87,92,80)" stroke-width="1" opacity="0.7725490196078432" d="M 142.5 69 L 143 72.5 L 141.5 78 L 141 73.5 L 142.5 69 Z " /><path fill="rgb(87,92,80)" stroke="rgb(87,92,80)" stroke-width="1" opacity="0.7725490196078432" d="M 50.5 70 L 51 72.5 L 50 72.5 L 50.5 70 Z " /><path fill="rgb(87,92,80)" stroke="rgb(87,92,80)" stroke-width="1" opacity="0.7725490196078432" d="M 96.5 71 L 97 75.5 L 96 75.5 L 96.5 71 Z " /><path fill="rgb(87,92,80)" stroke="rgb(87,92,80)" stroke-width="1" opacity="0.7725490196078432" d="M 103.5 71 L 104 73.5 L 103 73.5 L 103.5 71 Z " /><path fill="rgb(87,92,80)" stroke="rgb(87,92,80)" stroke-width="1" opacity="0.7725490196078432" d="M 154.5 72 L 155 75.5 L 154 75.5 L 154.5 72 Z " /><path fill="rgb(87,92,80)" stroke="rgb(87,92,80)" stroke-width="1" opacity="0.7725490196078432" d="M 107.5 73 L 108 76.5 L 107 76.5 L 107.5 73 Z " /><path fill="rgb(87,92,80)" stroke="rgb(87,92,80)" stroke-width="1" opacity="0.7725490196078432" d="M 158.5 73 L 159 74.5 L 157.5 78 L 157 75.5 L 158.5 73 Z " /><path fill="rgb(87,92,80)" stroke="rgb(87,92,80)" stroke-width="1" opacity="0.7725490196078432" d="M 129.5 74 L 130 80.5 L 129 80.5 L 129.5 74 Z " /><path fill="rgb(87,92,80)" stroke="rgb(87,92,80)" stroke-width="1" opacity="0.7725490196078432" d="M 82.5 76 L 86 84.5 L 85 84.5 L 82.5 76 Z " /><path fill="rgb(87,92,80)" stroke="rgb(87,92,80)" stroke-width="1" opacity="0.7725490196078432" d="M 93.5 76 L 94 78.5 L 93 78.5 L 93.5 76 Z " /><path fill="rgb(87,92,80)" stroke="rgb(87,92,80)" stroke-width="1" opacity="0.7725490196078432" d="M 48.5 77 L 51 84.5 L 50 84.5 L 48.5 77 Z " /><path fill="rgb(87,92,80)" stroke="rgb(87,92,80)" stroke-width="1" opacity="0.7725490196078432" d="M 144.5 77 L 145 79.5 L 144 79.5 L 144.5 77 Z " /><path fill="rgb(87,92,80)" stroke="rgb(87,92,80)" stroke-width="1" opacity="0.7725490196078432" d="M 97.5 78 L 98 81.5 L 97 81.5 L 97.5 78 Z " /><path fill="rgb(87,92,80)" stroke="rgb(87,92,80)" stroke-width="1" opacity="0.7725490196078432" d="M 108.5 79 L 110 81.5 L 108 80.5 L 108.5 79 Z " /><path fill="rgb(87,92,80)" stroke="rgb(87,92,80)" stroke-width="1" opacity="0.7725490196078432" d="M 157.5 79 L 158 80.5 L 156.5 83 L 156 80.5 L 157.5 79 Z " /><path fill="rgb(87,92,80)" stroke="rgb(87,92,80)" stroke-width="1" opacity="0.7725490196078432" d="M 105.5 81 L 106 83.5 L 105 83.5 L 105.5 81 Z " /><path fill="rgb(87,92,80)" stroke="rgb(87,92,80)" stroke-width="1" opacity="0.7725490196078432" d="M 143.5 81 L 144 84.5 L 143 84.5 L 143.5 81 Z " /><path fill="rgb(87,92,80)" stroke="rgb(87,92,80)" stroke-width="1" opacity="0.7725490196078432" d="M 94.5 82 L 95 85.5 L 94 85.5 L 94.5 82 Z " /><path fill="rgb(87,92,80)" stroke="rgb(87,92,80)" stroke-width="1" opacity="0.7725490196078432" d="M 109.5 84 L 113 96.5 L 112 96.5 L 109 87.5 L 109.5 84 Z " /><path fill="rgb(87,92,80)" stroke="rgb(87,92,80)" stroke-width="1" opacity="0.7725490196078432" d="M 139.5 84 L 140 86.5 L 139 86.5 L 139.5 84 Z " /><path fill="rgb(87,92,80)" stroke="rgb(87,92,80)" stroke-width="1" opacity="0.7725490196078432" d="M 51.5 86 L 52 88.5 L 51 88.5 L 51.5 86 Z " /><path fill="rgb(87,92,80)" stroke="rgb(87,92,80)" stroke-width="1" opacity="0.7725490196078432" d="M 156.5 86 L 157 87.5 L 155 88.5 L 156.5 86 Z " /><path fill="rgb(87,92,80)" stroke="rgb(87,92,80)" stroke-width="1" opacity="0.7725490196078432" d="M 95.5 87 L 96 89.5 L 89.5 95 L 89.5 94 L 95 89.5 L 95.5 87 Z " /><path fill="rgb(87,92,80)" stroke="rgb(87,92,80)" stroke-width="1" opacity="0.7725490196078432" d="M 119.5 87 L 120 89.5 L 119 89.5 L 119.5 87 Z " /><path fill="rgb(87,92,80)" stroke="rgb(87,92,80)" stroke-width="1" opacity="0.7725490196078432" d="M 128.5 88 L 129 93.5 L 128 93.5 L 128.5 88 Z " /><path fill="rgb(87,92,80)" stroke="rgb(87,92,80)" stroke-width="1" opacity="0.7725490196078432" d="M 132.5 88 L 133 91.5 L 131 92.5 L 132.5 88 Z " /><path fill="rgb(87,92,80)" stroke="rgb(87,92,80)" stroke-width="1" opacity="0.7725490196078432" d="M 138.5 88 L 139 89.5 L 134.5 101 L 134 99.5 L 135 97.5 L 134.5 96 Q 137.1 96.8 136 93.5 L 138.5 88 Z " /><path fill="rgb(87,92,80)" stroke="rgb(87,92,80)" stroke-width="1" opacity="0.7725490196078432" d="M 155.5 90 L 156 91.5 L 154.5 94 L 154 92.5 L 155.5 90 Z " /><path fill="rgb(87,92,80)" stroke="rgb(87,92,80)" stroke-width="1" opacity="0.7725490196078432" d="M 102.5 93 L 103.5 95 L 102.5 93 Z " /><path fill="rgb(87,92,80)" stroke="rgb(87,92,80)" stroke-width="1" opacity="0.7725490196078432" d="M 53.5 94 L 54 96.5 L 53 96.5 L 53.5 94 Z " /><path fill="rgb(87,92,80)" stroke="rgb(87,92,80)" stroke-width="1" opacity="0.7725490196078432" d="M 131.5 95 L 132 97.5 L 130 103.5 L 130.5 105 Q 127.7 103.8 130 102.5 L 131.5 95 Z " /><path fill="rgb(87,92,80)" stroke="rgb(87,92,80)" stroke-width="1" opacity="0.7725490196078432" d="M 100.5 96 L 101.5 98 L 100.5 96 Z " /><path fill="rgb(87,92,80)" stroke="rgb(87,92,80)" stroke-width="1" opacity="0.7725490196078432" d="M 92.5 97 L 92 98.5 L 91.5 100 L 91 98.5 L 92.5 97 Z " /><path fill="rgb(87,92,80)" stroke="rgb(87,92,80)" stroke-width="1" opacity="0.7725490196078432" d="M 153.5 97 L 154 99.5 L 153 99.5 L 153.5 97 Z " /><path fill="rgb(87,92,80)" stroke="rgb(87,92,80)" stroke-width="1" opacity="0.7725490196078432" d="M 149.5 98 L 150 100.5 L 149 100.5 L 149.5 98 Z " /><path fill="rgb(87,92,80)" stroke="rgb(87,92,80)" stroke-width="1" opacity="0.7725490196078432" d="M 82.5 99 L 81.5 101 L 82.5 99 Z " /><path fill="rgb(87,92,80)" stroke="rgb(87,92,80)" stroke-width="1" opacity="0.7725490196078432" d="M 54.5 100 L 56 101.5 L 58 110.5 L 56 109.5 L 55.5 105 L 54 105.5 L 55 101.5 L 54.5 100 Z " /><path fill="rgb(87,92,80)" stroke="rgb(87,92,80)" stroke-width="1" opacity="0.7725490196078432" d="M 79.5 101 L 78.5 103 L 77 102.5 L 79.5 101 Z " /><path fill="rgb(87,92,80)" stroke="rgb(87,92,80)" stroke-width="1" opacity="0.7725490196078432" d="M 88.5 101 L 90 103.5 L 89 103.5 L 88.5 101 Z " /><path fill="rgb(87,92,80)" stroke="rgb(87,92,80)" stroke-width="1" opacity="0.7725490196078432" d="M 123.5 103 L 124.5 105 L 123.5 103 Z " /><path fill="rgb(87,92,80)" stroke="rgb(87,92,80)" stroke-width="1" opacity="0.7725490196078432" d="M 151.5 104 L 152 106.5 L 149.5 112 L 149 110.5 L 151.5 104 Z " /><path fill="rgb(87,92,80)" stroke="rgb(87,92,80)" stroke-width="1" opacity="0.7725490196078432" d="M 136.5 106 L 141 109.5 L 138.5 108 L 136.5 106 Z " /><path fill="rgb(87,92,80)" stroke="rgb(87,92,80)" stroke-width="1" opacity="0.7725490196078432" d="M 133.5 109 L 136 110.5 L 134.5 110 L 133.5 109 Z " /><path fill="rgb(87,92,80)" stroke="rgb(87,92,80)" stroke-width="1" opacity="0.7725490196078432" d="M 142.5 110 L 143.5 112 L 142.5 110 Z " /><path fill="rgb(87,92,80)" stroke="rgb(87,92,80)" stroke-width="1" opacity="0.7725490196078432" d="M 64.5 111 L 62.5 114 Q 60.3 114.8 61 112.5 Q 62.8 114.1 64.5 111 Z " /><path fill="rgb(87,92,80)" stroke="rgb(87,92,80)" stroke-width="1" opacity="0.7725490196078432" d="M 140.5 113 L 143.5 117 L 140.5 113 Z " /><path fill="rgb(87,92,80)" stroke="rgb(87,92,80)" stroke-width="1" opacity="0.7725490196078432" d="M 58.5 116 L 60 119.5 L 59 119.5 L 58.5 116 Z " /><path fill="rgb(87,92,80)" stroke="rgb(87,92,80)" stroke-width="1" opacity="0.7725490196078432" d="M 147.5 116 L 149 119.5 L 147 118.5 L 147.5 116 Z " /><path fill="rgb(87,92,80)" stroke="rgb(87,92,80)" stroke-width="1" opacity="0.7725490196078432" d="M 64.5 118 L 64 119.5 L 63.5 121 L 63 119.5 L 64.5 118 Z " /><path fill="rgb(87,92,80)" stroke="rgb(87,92,80)" stroke-width="1" opacity="0.7725490196078432" d="M 96.5 119 L 97 121.5 L 96 121.5 L 96.5 119 Z " /><path fill="rgb(87,92,80)" stroke="rgb(87,92,80)" stroke-width="1" opacity="0.7725490196078432" d="M 148.5 121 L 151 133.5 L 150 133.5 L 148.5 121 Z " /><path fill="rgb(87,92,80)" stroke="rgb(87,92,80)" stroke-width="1" opacity="0.7725490196078432" d="M 109.5 122 L 110 125.5 L 109 125.5 L 109.5 122 Z " /><path fill="rgb(87,92,80)" stroke="rgb(87,92,80)" stroke-width="1" opacity="0.7725490196078432" d="M 59.5 123 L 60 125.5 L 58.5 129 L 58 126.5 L 59.5 123 Z " /><path fill="rgb(87,92,80)" stroke="rgb(87,92,80)" stroke-width="1" opacity="0.7725490196078432" d="M 62.5 124 L 63 126.5 L 62 126.5 L 62.5 124 Z " /><path fill="rgb(87,92,80)" stroke="rgb(87,92,80)" stroke-width="1" opacity="0.7725490196078432" d="M 97.5 129 L 98 142.5 L 97 142.5 L 97.5 129 Z " /><path fill="rgb(87,92,80)" stroke="rgb(87,92,80)" stroke-width="1" opacity="0.7725490196078432" d="M 58.5 131 L 59 134.5 L 58 135.5 L 58 159.5 L 59 162.5 L 58 162.5 L 56 146.5 L 57 145.5 Q 55.8 136.3 58.5 131 Z " /><path fill="rgb(87,92,80)" stroke="rgb(87,92,80)" stroke-width="1" opacity="0.7725490196078432" d="M 68.5 133 L 69 135.5 L 68 135.5 L 68.5 133 Z " /><path fill="rgb(87,92,80)" stroke="rgb(87,92,80)" stroke-width="1" opacity="0.7725490196078432" d="M 105.5 133 L 106 139.5 L 105 139.5 L 105.5 133 Z " /><path fill="rgb(87,92,80)" stroke="rgb(87,92,80)" stroke-width="1" opacity="0.7725490196078432" d="M 134.5 133 L 135 135.5 L 134 135.5 L 134.5 133 Z " /><path fill="rgb(87,92,80)" stroke="rgb(87,92,80)" stroke-width="1" opacity="0.7725490196078432" d="M 71.5 134 L 72 136.5 L 71 136.5 L 71.5 134 Z " /><path fill="rgb(87,92,80)" stroke="rgb(87,92,80)" stroke-width="1" opacity="0.7725490196078432" d="M 94.5 134 L 95 136.5 L 94 136.5 L 94.5 134 Z " /><path fill="rgb(87,92,80)" stroke="rgb(87,92,80)" stroke-width="1" opacity="0.7725490196078432" d="M 138.5 136 L 139 140.5 L 138 140.5 L 138.5 136 Z " /><path fill="rgb(87,92,80)" stroke="rgb(87,92,80)" stroke-width="1" opacity="0.7725490196078432" d="M 150.5 137 L 151 150.5 L 150 150.5 L 150.5 137 Z " /><path fill="rgb(87,92,80)" stroke="rgb(87,92,80)" stroke-width="1" opacity="0.7725490196078432" d="M 135.5 138 L 136 150.5 L 135 150.5 L 135.5 138 Z " /><path fill="rgb(87,92,80)" stroke="rgb(87,92,80)" stroke-width="1" opacity="0.7725490196078432" d="M 60.5 140 L 61 146.5 L 60 146.5 L 60.5 140 Z " /><path fill="rgb(87,92,80)" stroke="rgb(87,92,80)" stroke-width="1" opacity="0.7725490196078432" d="M 67.5 140 L 68 142.5 L 67 142.5 L 67.5 140 Z " /><path fill="rgb(87,92,80)" stroke="rgb(87,92,80)" stroke-width="1" opacity="0.7725490196078432" d="M 67.5 146 L 68 149.5 L 67 149.5 L 67.5 146 Z " /><path fill="rgb(87,92,80)" stroke="rgb(87,92,80)" stroke-width="1" opacity="0.7725490196078432" d="M 93.5 146 L 94 148.5 L 93 148.5 L 93.5 146 Z " /><path fill="rgb(87,92,80)" stroke="rgb(87,92,80)" stroke-width="1" opacity="0.7725490196078432" d="M 109.5 148 L 110 151.5 L 109 151.5 L 109.5 148 Z " /><path fill="rgb(87,92,80)" stroke="rgb(87,92,80)" stroke-width="1" opacity="0.7725490196078432" d="M 138.5 148 L 139 152.5 L 138 152.5 L 138.5 148 Z " /><path fill="rgb(87,92,80)" stroke="rgb(87,92,80)" stroke-width="1" opacity="0.7725490196078432" d="M 96.5 149 L 97 152.5 L 96 152.5 L 96.5 149 Z " /><path fill="rgb(87,92,80)" stroke="rgb(87,92,80)" stroke-width="1" opacity="0.7725490196078432" d="M 60.5 151 L 61 156.5 L 60 156.5 L 60.5 151 Z " /><path fill="rgb(87,92,80)" stroke="rgb(87,92,80)" stroke-width="1" opacity="0.7725490196078432" d="M 71.5 151 L 72 153.5 L 71 153.5 L 71.5 151 Z " /><path fill="rgb(87,92,80)" stroke="rgb(87,92,80)" stroke-width="1" opacity="0.7725490196078432" d="M 150.5 154 L 151 156.5 L 148.5 164 L 148 161.5 L 150.5 154 Z " /><path fill="rgb(87,92,80)" stroke="rgb(87,92,80)" stroke-width="1" opacity="0.7725490196078432" d="M 58.5 164 L 60 166.5 L 58 165.5 L 58.5 164 Z " /><path fill="rgb(87,92,80)" stroke="rgb(87,92,80)" stroke-width="1" opacity="0.7725490196078432" d="M 148.5 165 L 147.5 167 L 148.5 165 Z " /><path fill="rgb(87,92,80)" stroke="rgb(87,92,80)" stroke-width="1" opacity="0.7725490196078432" d="M 61.5 171 L 67 178.5 L 63 175.5 L 61.5 171 Z " /><path fill="rgb(87,92,80)" stroke="rgb(87,92,80)" stroke-width="1" opacity="0.7725490196078432" d="M 126.5 171 L 125.5 173 L 126.5 171 Z " /><path fill="rgb(87,92,80)" stroke="rgb(87,92,80)" stroke-width="1" opacity="0.7725490196078432" d="M 130.5 171 L 129.5 173 L 130.5 171 Z " /><path fill="rgb(87,92,80)" stroke="rgb(87,92,80)" stroke-width="1" opacity="0.7725490196078432" d="M 142.5 171 L 141.5 173 L 142.5 171 Z " /><path fill="rgb(87,92,80)" stroke="rgb(87,92,80)" stroke-width="1" opacity="0.7725490196078432" d="M 145.5 172 L 145 173.5 L 137.5 183 L 135.5 184 L 136.5 182 L 142 177.5 L 145.5 172 Z " /><path fill="rgb(87,92,80)" stroke="rgb(87,92,80)" stroke-width="1" opacity="0.7725490196078432" d="M 77.5 173 L 78.5 175 L 77.5 173 Z " /><path fill="rgb(87,92,80)" stroke="rgb(87,92,80)" stroke-width="1" opacity="0.7725490196078432" d="M 67.5 175 L 69.5 178 L 67.5 175 Z " /><path fill="rgb(87,92,80)" stroke="rgb(87,92,80)" stroke-width="1" opacity="0.7725490196078432" d="M 72.5 179 L 73.5 181 L 72.5 179 Z " /><path fill="rgb(87,92,80)" stroke="rgb(87,92,80)" stroke-width="1" opacity="0.7725490196078432" d="M 135.5 179 L 134.5 181 L 135.5 179 Z " /><path fill="rgb(87,92,80)" stroke="rgb(87,92,80)" stroke-width="1" opacity="0.7725490196078432" d="M 68.5 180 L 76 184.5 L 74.5 185 Q 69.5 183.5 68.5 180 Z " /><path fill="rgb(87,92,80)" stroke="rgb(87,92,80)" stroke-width="1" opacity="0.7725490196078432" d="M 113.5 180 L 114 182.5 L 113 182.5 L 113.5 180 Z " /><path fill="rgb(87,92,80)" stroke="rgb(87,92,80)" stroke-width="1" opacity="0.7725490196078432" d="M 77.5 185 L 81 185.5 L 77.5 186 L 77.5 185 Z " /><path fill="rgb(87,92,80)" stroke="rgb(87,92,80)" stroke-width="1" opacity="0.7725490196078432" d="M 128.5 185 L 132 185.5 L 128.5 186 L 128.5 185 Z " /><path fill="rgb(87,92,80)" stroke="rgb(87,92,80)" stroke-width="1" opacity="0.7725490196078432" d="M 82.5 186 L 127 186.5 L 82.5 187 L 82.5 186 Z " /><path fill="rgb(133,133,132)" stroke="rgb(133,133,132)" stroke-width="1" opacity="0.30196078431372547" d="M 93.5 24 Q 98.8 22.8 100 25.5 L 102 39.5 L 101 39.5 L 99 26.5 L 97.5 25 Q 92.5 26 93.5 24 Z " /><path fill="rgb(133,133,132)" stroke="rgb(133,133,132)" stroke-width="1" opacity="0.30196078431372547" d="M 110 24 Q 117.5 22.8 121 26.5 L 118.5 27 L 112.5 25 L 111 27.5 L 112 30 L 110 30 L 110 24 Z " /><path fill="rgb(133,133,132)" stroke="rgb(133,133,132)" stroke-width="1" opacity="0.30196078431372547" d="M 122.5 26 L 125 27.5 L 122 28 L 122.5 26 Z " /><path fill="rgb(133,133,132)" stroke="rgb(133,133,132)" stroke-width="1" opacity="0.30196078431372547" d="M 127.5 28 L 130 28.5 L 129.5 33 L 127.5 28 Z " /><path fill="rgb(133,133,132)" stroke="rgb(133,133,132)" stroke-width="1" opacity="0.30196078431372547" d="M 85.5 29 L 89 51.5 L 88 51.5 L 85 34.5 L 85.5 29 Z " /><path fill="rgb(133,133,132)" stroke="rgb(133,133,132)" stroke-width="1" opacity="0.30196078431372547" d="M 145 30 L 162.5 30 L 164 31.5 L 163.5 39 L 163 32 L 160.5 31 L 147.5 31 L 145 32.5 L 145 30 Z " /><path fill="rgb(133,133,132)" stroke="rgb(133,133,132)" stroke-width="1" opacity="0.30196078431372547" d="M 111.5 32 L 115 56 L 113 55.5 L 113 48.5 L 112 47.5 L 111.5 32 Z " /><path fill="rgb(133,133,132)" stroke="rgb(133,133,132)" stroke-width="1" opacity="0.30196078431372547" d="M 50 35 L 52 35.5 L 50 36.5 L 50 35 Z " /><path fill="rgb(133,133,132)" stroke="rgb(133,133,132)" stroke-width="1" opacity="0.30196078431372547" d="M 65.5 35 L 67.5 36 L 69 35.5 L 70 41.5 L 73 45.5 L 77 59.5 L 80 63.5 L 82 72.5 L 87 81.5 L 90.5 92 Q 94.7 89.2 93 80.5 L 91 75.5 L 90 63.5 L 91 63.5 L 95 87.5 L 90.5 94 Q 87.9 94.8 89 91.5 L 74 55.5 L 71 44.5 L 66.5 36 L 65.5 35 Z " /><path fill="rgb(133,133,132)" stroke="rgb(133,133,132)" stroke-width="1" opacity="0.30196078431372547" d="M 130.5 35 L 131 38.5 L 130 38.5 L 130.5 35 Z " /><path fill="rgb(133,133,132)" stroke="rgb(133,133,132)" stroke-width="1" opacity="0.30196078431372547" d="M 144 36 Q 146.7 34.9 146 37.5 L 144.5 46 L 144 36 Z " /><path fill="rgb(133,133,132)" stroke="rgb(133,133,132)" stroke-width="1" opacity="0.30196078431372547" d="M 49.5 39 Q 52.5 40.5 49.5 42 L 49.5 39 Z " /><path fill="rgb(133,133,132)" stroke="rgb(133,133,132)" stroke-width="1" opacity="0.30196078431372547" d="M 39 41 L 42 41.5 L 40 42 L 42 54.5 L 40 53.5 L 39 41 Z " /><path fill="rgb(133,133,132)" stroke="rgb(133,133,132)" stroke-width="1" opacity="0.30196078431372547" d="M 101.5 41 Q 104.5 40.1 103 44.5 L 102 44.5 L 101.5 41 Z " /><path fill="rgb(133,133,132)" stroke="rgb(133,133,132)" stroke-width="1" opacity="0.30196078431372547" d="M 162.5 42 L 163 49 L 161 48.5 L 162.5 42 Z " /><path fill="rgb(133,133,132)" stroke="rgb(133,133,132)" stroke-width="1" opacity="0.30196078431372547" d="M 131.5 44 L 133 45.5 L 133 57.5 L 134 58.5 L 134 93.5 L 133 97.5 L 135 97.5 L 131.5 105 L 130.5 103 Q 132.8 103.8 132 101.5 L 131 98.5 L 133 91.5 L 133 60.5 L 132 59.5 L 131.5 44 Z " /><path fill="rgb(133,133,132)" stroke="rgb(133,133,132)" stroke-width="1" opacity="0.30196078431372547" d="M 103.5 48 L 104 50.5 L 103 50.5 L 103.5 48 Z " /><path fill="rgb(133,133,132)" stroke="rgb(133,133,132)" stroke-width="1" opacity="0.30196078431372547" d="M 104.5 54 L 105.5 56 Q 102.7 56.7 104.5 54 Z " /><path fill="rgb(133,133,132)" stroke="rgb(133,133,132)" stroke-width="1" opacity="0.30196078431372547" d="M 143 54 L 145 54.5 L 143.5 59 L 143 54 Z " /><path fill="rgb(133,133,132)" stroke="rgb(133,133,132)" stroke-width="1" opacity="0.30196078431372547" d="M 161.5 54 L 162 60.5 L 161 61.5 L 160 77.5 L 158.5 79 L 158 75.5 L 159 74.5 L 160 58.5 L 161.5 54 Z " /><path fill="rgb(133,133,132)" stroke="rgb(133,133,132)" stroke-width="1" opacity="0.30196078431372547" d="M 89.5 55 L 90 59.5 L 89 59.5 L 89.5 55 Z " /><path fill="rgb(133,133,132)" stroke="rgb(133,133,132)" stroke-width="1" opacity="0.30196078431372547" d="M 42.5 57 L 43 59.5 L 42 59.5 L 42.5 57 Z " /><path fill="rgb(133,133,132)" stroke="rgb(133,133,132)" stroke-width="1" opacity="0.30196078431372547" d="M 43.5 61 L 49 81.5 L 47 80.5 L 43.5 61 Z " /><path fill="rgb(133,133,132)" stroke="rgb(133,133,132)" stroke-width="1" opacity="0.30196078431372547" d="M 105 61 Q 108.3 59.7 107 64.5 L 110 80.5 L 109 80.5 L 105 61 Z " /><path fill="rgb(133,133,132)" stroke="rgb(133,133,132)" stroke-width="1" opacity="0.30196078431372547" d="M 115.5 69 L 116 86.5 L 114 85.5 L 114 70.5 L 115.5 69 Z " /><path fill="rgb(133,133,132)" stroke="rgb(133,133,132)" stroke-width="1" opacity="0.30196078431372547" d="M 140 69 Q 143.3 67.7 142 72.5 L 139 87.5 L 136.5 93 L 136 90.5 L 139 81.5 L 140 69 Z " /><path fill="rgb(133,133,132)" stroke="rgb(133,133,132)" stroke-width="1" opacity="0.30196078431372547" d="M 109 82 Q 112.7 80.7 111 86.5 L 110 86.5 L 109 82 Z " /><path fill="rgb(133,133,132)" stroke="rgb(133,133,132)" stroke-width="1" opacity="0.30196078431372547" d="M 49.5 83 L 55 103 Q 51.7 104.3 53 99.5 L 49 86.5 L 49.5 83 Z " /><path fill="rgb(133,133,132)" stroke="rgb(133,133,132)" stroke-width="1" opacity="0.30196078431372547" d="M 156.5 88 L 157 90 L 155 89.5 L 156.5 88 Z " /><path fill="rgb(133,133,132)" stroke="rgb(133,133,132)" stroke-width="1" opacity="0.30196078431372547" d="M 111.5 89 L 113.5 93 L 115 92.5 L 114.5 95 L 112 94.5 L 111.5 89 Z " /><path fill="rgb(133,133,132)" stroke="rgb(133,133,132)" stroke-width="1" opacity="0.30196078431372547" d="M 155.5 92 L 156 95.5 L 153 110 Q 150 111.3 151 107.5 L 155.5 92 Z " /><path fill="rgb(133,133,132)" stroke="rgb(133,133,132)" stroke-width="1" opacity="0.30196078431372547" d="M 135.5 94 L 136 96 L 134 95.5 L 135.5 94 Z " /><path fill="rgb(133,133,132)" stroke="rgb(133,133,132)" stroke-width="1" opacity="0.30196078431372547" d="M 55.5 105 L 56 108.5 L 54 107.5 L 55.5 105 Z " /><path fill="rgb(133,133,132)" stroke="rgb(133,133,132)" stroke-width="1" opacity="0.30196078431372547" d="M 56.5 110 L 59 115.5 L 57 116 L 56.5 110 Z " /><path fill="rgb(133,133,132)" stroke="rgb(133,133,132)" stroke-width="1" opacity="0.30196078431372547" d="M 150.5 111 L 151 113.5 L 148.5 119 L 148 115.5 L 150.5 111 Z " /><path fill="rgb(133,133,132)" stroke="rgb(133,133,132)" stroke-width="1" opacity="0.30196078431372547" d="M 58.5 117 L 60 122.5 L 58.5 126 L 58.5 117 Z " /><path fill="rgb(133,133,132)" stroke="rgb(133,133,132)" stroke-width="1" opacity="0.30196078431372547" d="M 148.5 120 Q 151.5 119.1 150 123.5 L 149 123.5 L 148.5 120 Z " /><path fill="rgb(133,133,132)" stroke="rgb(133,133,132)" stroke-width="1" opacity="0.30196078431372547" d="M 150.5 128 L 151 130.5 L 150 130.5 L 150.5 128 Z " /><path fill="rgb(133,133,132)" stroke="rgb(133,133,132)" stroke-width="1" opacity="0.30196078431372547" d="M 57 129 Q 59.7 127.9 59 130.5 L 57.5 135 L 57 129 Z " /><path fill="rgb(133,133,132)" stroke="rgb(133,133,132)" stroke-width="1" opacity="0.30196078431372547" d="M 151.5 137 L 153 138.5 L 153 150.5 L 151 151.5 L 151.5 137 Z " /><path fill="rgb(133,133,132)" stroke="rgb(133,133,132)" stroke-width="1" opacity="0.30196078431372547" d="M 56.5 143 L 57 145.5 L 56 145.5 L 56.5 143 Z " /><path fill="rgb(133,133,132)" stroke="rgb(133,133,132)" stroke-width="1" opacity="0.30196078431372547" d="M 56.5 151 L 57 153.5 L 56 153.5 L 56.5 151 Z " /><path fill="rgb(133,133,132)" stroke="rgb(133,133,132)" stroke-width="1" opacity="0.30196078431372547" d="M 150.5 157 L 151 159.5 L 150 159.5 L 150.5 157 Z " /><path fill="rgb(133,133,132)" stroke="rgb(133,133,132)" stroke-width="1" opacity="0.30196078431372547" d="M 57.5 160 L 59 163.5 L 57 164 L 57.5 160 Z " /><path fill="rgb(133,133,132)" stroke="rgb(133,133,132)" stroke-width="1" opacity="0.30196078431372547" d="M 149.5 162 L 150 165.5 L 147 174.5 L 143 178.5 L 144 179.5 L 140.5 183 Q 139.3 180.8 138 183.5 L 136.5 186 L 127.5 187 L 127.5 186 Q 138.5 185 143 177.5 L 149 165.5 L 149 163.5 L 149.5 162 Z " /><path fill="rgb(133,133,132)" stroke="rgb(133,133,132)" stroke-width="1" opacity="0.30196078431372547" d="M 58.5 166 L 63 175.5 L 70.5 183 L 82 186.5 L 75.5 187 Q 67.1 183.4 62 176.5 Q 58 172.5 58.5 166 Z " /><path fill="rgb(225,222,194)" stroke="rgb(225,222,194)" stroke-width="1" opacity="0.9686274509803922" d="M 95 95 Q 98.8 94.3 100 97.5 L 97.5 96 L 95.5 97 L 95 95 Z " /><path fill="rgb(225,222,194)" stroke="rgb(225,222,194)" stroke-width="1" opacity="0.9686274509803922" d="M 102.5 99 L 110 102.5 L 109.5 104 L 109 102 L 102.5 100 L 102.5 99 Z " /><path fill="rgb(225,222,194)" stroke="rgb(225,222,194)" stroke-width="1" opacity="0.9686274509803922" d="M 93.5 101 L 96 109.5 L 95 109.5 L 93.5 101 Z " /><path fill="rgb(225,222,194)" stroke="rgb(225,222,194)" stroke-width="1" opacity="0.9686274509803922" d="M 87.5 102 L 89 104.5 L 88 104.5 L 87.5 102 Z " /><path fill="rgb(225,222,194)" stroke="rgb(225,222,194)" stroke-width="1" opacity="0.9686274509803922" d="M 116.5 102 L 119 102.5 L 116 103 L 114.5 107 L 114 105.5 L 116.5 102 Z " /><path fill="rgb(225,222,194)" stroke="rgb(225,222,194)" stroke-width="1" opacity="0.9686274509803922" d="M 85.5 103 L 84.5 105 L 74.5 110 L 74.5 109 L 85.5 103 Z " /><path fill="rgb(225,222,194)" stroke="rgb(225,222,194)" stroke-width="1" opacity="0.9686274509803922" d="M 121.5 103 L 122.5 105 L 121.5 103 Z " /><path fill="rgb(225,222,194)" stroke="rgb(225,222,194)" stroke-width="1" opacity="0.9686274509803922" d="M 124.5 105 L 127.5 109 L 124.5 105 Z " /><path fill="rgb(225,222,194)" stroke="rgb(225,222,194)" stroke-width="1" opacity="0.9686274509803922" d="M 113.5 108 L 114 110.5 L 113 110.5 L 113.5 108 Z " /><path fill="rgb(225,222,194)" stroke="rgb(225,222,194)" stroke-width="1" opacity="0.9686274509803922" d="M 90.5 110 L 91 112.5 L 90 112.5 L 90.5 110 Z " /><path fill="rgb(225,222,194)" stroke="rgb(225,222,194)" stroke-width="1" opacity="0.9686274509803922" d="M 70.5 111 L 69 113.5 L 65.5 119 L 66 117.5 L 70.5 111 Z " /><path fill="rgb(225,222,194)" stroke="rgb(225,222,194)" stroke-width="1" opacity="0.9686274509803922" d="M 135.5 111 L 141 115.5 L 137.5 113 L 135.5 111 Z " /><path fill="rgb(225,222,194)" stroke="rgb(225,222,194)" stroke-width="1" opacity="0.9686274509803922" d="M 106.5 113 L 107 116.5 L 106 116.5 L 106.5 113 Z " /><path fill="rgb(225,222,194)" stroke="rgb(225,222,194)" stroke-width="1" opacity="0.9686274509803922" d="M 91.5 114 L 93 127.5 L 92 127.5 L 91.5 114 Z " /><path fill="rgb(225,222,194)" stroke="rgb(225,222,194)" stroke-width="1" opacity="0.9686274509803922" d="M 97.5 115 L 98 118.5 L 97 118.5 L 97.5 115 Z " /><path fill="rgb(225,222,194)" stroke="rgb(225,222,194)" stroke-width="1" opacity="0.9686274509803922" d="M 111.5 117 L 112 119.5 L 111 119.5 L 111.5 117 Z " /><path fill="rgb(225,222,194)" stroke="rgb(225,222,194)" stroke-width="1" opacity="0.9686274509803922" d="M 105.5 118 L 106 122.5 L 105 123.5 L 104.5 150 L 104 123.5 L 105.5 118 Z " /><path fill="rgb(225,222,194)" stroke="rgb(225,222,194)" stroke-width="1" opacity="0.9686274509803922" d="M 143.5 119 L 144 121.5 L 143 121.5 L 143.5 119 Z " /><path fill="rgb(225,222,194)" stroke="rgb(225,222,194)" stroke-width="1" opacity="0.9686274509803922" d="M 71.5 120 L 71 121.5 L 70.5 123 L 70 121.5 L 71.5 120 Z " /><path fill="rgb(225,222,194)" stroke="rgb(225,222,194)" stroke-width="1" opacity="0.9686274509803922" d="M 74.5 120 Q 77 121 76 125.5 L 73.5 134 L 73 130.5 Q 75.6 127.6 75 121.5 L 74.5 120 Z " /><path fill="rgb(225,222,194)" stroke="rgb(225,222,194)" stroke-width="1" opacity="0.9686274509803922" d="M 131.5 120 L 131 121.5 L 130.5 124 L 130 121.5 L 131.5 120 Z " /><path fill="rgb(225,222,194)" stroke="rgb(225,222,194)" stroke-width="1" opacity="0.9686274509803922" d="M 134.5 120 Q 136.8 119.3 136 121.5 L 137 123.5 L 136 123.5 L 134.5 120 Z " /><path fill="rgb(225,222,194)" stroke="rgb(225,222,194)" stroke-width="1" opacity="0.9686274509803922" d="M 64.5 121 L 65 123.5 L 64 123.5 L 64.5 121 Z " /><path fill="rgb(225,222,194)" stroke="rgb(225,222,194)" stroke-width="1" opacity="0.9686274509803922" d="M 144.5 123 Q 147.4 127.2 146 135.5 L 145 135.5 Q 145.4 127.2 144.5 123 Z " /><path fill="rgb(225,222,194)" stroke="rgb(225,222,194)" stroke-width="1" opacity="0.9686274509803922" d="M 98.5 124 L 99 147.5 L 98 147.5 L 98.5 124 Z " /><path fill="rgb(225,222,194)" stroke="rgb(225,222,194)" stroke-width="1" opacity="0.9686274509803922" d="M 131.5 125 L 133 130.5 L 132 130.5 L 131.5 125 Z " /><path fill="rgb(225,222,194)" stroke="rgb(225,222,194)" stroke-width="1" opacity="0.9686274509803922" d="M 110.5 126 L 111 147.5 L 110 147.5 L 110.5 126 Z " /><path fill="rgb(225,222,194)" stroke="rgb(225,222,194)" stroke-width="1" opacity="0.9686274509803922" d="M 63.5 127 L 64 129.5 L 63 129.5 L 63.5 127 Z " /><path fill="rgb(225,222,194)" stroke="rgb(225,222,194)" stroke-width="1" opacity="0.9686274509803922" d="M 62.5 132 L 63 138.5 L 62 138.5 L 62.5 132 Z " /><path fill="rgb(225,222,194)" stroke="rgb(225,222,194)" stroke-width="1" opacity="0.9686274509803922" d="M 67.5 132 L 68 135.5 L 67 135.5 L 67.5 132 Z " /><path fill="rgb(225,222,194)" stroke="rgb(225,222,194)" stroke-width="1" opacity="0.9686274509803922" d="M 93.5 132 L 94 138.5 L 93 138.5 L 93.5 132 Z " /><path fill="rgb(225,222,194)" stroke="rgb(225,222,194)" stroke-width="1" opacity="0.9686274509803922" d="M 133.5 133 L 134 136.5 L 133 136.5 L 133.5 133 Z " /><path fill="rgb(225,222,194)" stroke="rgb(225,222,194)" stroke-width="1" opacity="0.9686274509803922" d="M 139.5 133 L 140 139.5 L 139 139.5 L 139.5 133 Z " /><path fill="rgb(225,222,194)" stroke="rgb(225,222,194)" stroke-width="1" opacity="0.9686274509803922" d="M 72.5 135 L 73 139.5 L 72 139.5 L 72.5 135 Z " /><path fill="rgb(225,222,194)" stroke="rgb(225,222,194)" stroke-width="1" opacity="0.9686274509803922" d="M 66.5 138 L 67 150.5 L 66 150.5 L 66.5 138 Z " /><path fill="rgb(225,222,194)" stroke="rgb(225,222,194)" stroke-width="1" opacity="0.9686274509803922" d="M 146.5 138 L 147 149.5 L 146 149.5 L 146.5 138 Z " /><path fill="rgb(225,222,194)" stroke="rgb(225,222,194)" stroke-width="1" opacity="0.9686274509803922" d="M 61.5 140 L 63 161.5 L 62 161.5 L 61 156.5 L 61.5 140 Z " /><path fill="rgb(225,222,194)" stroke="rgb(225,222,194)" stroke-width="1" opacity="0.9686274509803922" d="M 134.5 140 L 135 148.5 L 134 148.5 L 134.5 140 Z " /><path fill="rgb(225,222,194)" stroke="rgb(225,222,194)" stroke-width="1" opacity="0.9686274509803922" d="M 92.5 144 L 93 150.5 L 91.5 158 L 91 151.5 L 92.5 144 Z " /><path fill="rgb(225,222,194)" stroke="rgb(225,222,194)" stroke-width="1" opacity="0.9686274509803922" d="M 72.5 149 L 73 152.5 L 72 152.5 L 72.5 149 Z " /><path fill="rgb(225,222,194)" stroke="rgb(225,222,194)" stroke-width="1" opacity="0.9686274509803922" d="M 139.5 149 L 140 154.5 L 139 154.5 L 139.5 149 Z " /><path fill="rgb(225,222,194)" stroke="rgb(225,222,194)" stroke-width="1" opacity="0.9686274509803922" d="M 105.5 151 L 106 155.5 L 105 155.5 L 105.5 151 Z " /><path fill="rgb(225,222,194)" stroke="rgb(225,222,194)" stroke-width="1" opacity="0.9686274509803922" d="M 133.5 152 L 134 154.5 L 133 154.5 L 133.5 152 Z " /><path fill="rgb(225,222,194)" stroke="rgb(225,222,194)" stroke-width="1" opacity="0.9686274509803922" d="M 145.5 152 L 146 159.5 L 143.5 166 L 143 163.5 Q 146.1 159.6 145.5 152 Z " /><path fill="rgb(225,222,194)" stroke="rgb(225,222,194)" stroke-width="1" opacity="0.9686274509803922" d="M 67.5 153 L 68 156.5 L 67 156.5 L 67.5 153 Z " /><path fill="rgb(225,222,194)" stroke="rgb(225,222,194)" stroke-width="1" opacity="0.9686274509803922" d="M 97.5 153 L 98 156.5 L 97 156.5 L 97.5 153 Z " /><path fill="rgb(225,222,194)" stroke="rgb(225,222,194)" stroke-width="1" opacity="0.9686274509803922" d="M 111.5 154 L 112 157.5 L 111 157.5 L 111.5 154 Z " /><path fill="rgb(225,222,194)" stroke="rgb(225,222,194)" stroke-width="1" opacity="0.9686274509803922" d="M 132.5 156 L 133 159.5 L 131 160.5 L 132.5 156 Z " /><path fill="rgb(225,222,194)" stroke="rgb(225,222,194)" stroke-width="1" opacity="0.9686274509803922" d="M 106.5 157 L 107 160.5 L 106 160.5 L 106.5 157 Z " /><path fill="rgb(225,222,194)" stroke="rgb(225,222,194)" stroke-width="1" opacity="0.9686274509803922" d="M 74.5 158 L 77 163.5 L 75 162.5 L 74.5 158 Z " /><path fill="rgb(225,222,194)" stroke="rgb(225,222,194)" stroke-width="1" opacity="0.9686274509803922" d="M 90.5 159 L 91 161.5 L 90 161.5 L 90.5 159 Z " /><path fill="rgb(225,222,194)" stroke="rgb(225,222,194)" stroke-width="1" opacity="0.9686274509803922" d="M 95.5 162 L 96 166.5 L 93.5 172 L 93 170.5 L 95.5 162 Z " /><path fill="rgb(225,222,194)" stroke="rgb(225,222,194)" stroke-width="1" opacity="0.9686274509803922" d="M 130.5 162 L 131 163.5 L 129 164.5 L 130.5 162 Z " /><path fill="rgb(225,222,194)" stroke="rgb(225,222,194)" stroke-width="1" opacity="0.9686274509803922" d="M 107.5 163 L 108 165.5 L 107 165.5 L 107.5 163 Z " /><path fill="rgb(225,222,194)" stroke="rgb(225,222,194)" stroke-width="1" opacity="0.9686274509803922" d="M 136.5 163 L 137 164.5 L 132.5 171 L 134 168.5 L 136.5 163 Z " /><path fill="rgb(225,222,194)" stroke="rgb(225,222,194)" stroke-width="1" opacity="0.9686274509803922" d="M 70.5 164 L 73 168.5 L 71 167.5 L 70.5 164 Z " /><path fill="rgb(225,222,194)" stroke="rgb(225,222,194)" stroke-width="1" opacity="0.9686274509803922" d="M 113.5 164 L 114 166.5 L 113 166.5 L 113.5 164 Z " /><path fill="rgb(225,222,194)" stroke="rgb(225,222,194)" stroke-width="1" opacity="0.9686274509803922" d="M 64.5 167 L 67 171.5 L 65 170.5 L 64.5 167 Z " /><path fill="rgb(225,222,194)" stroke="rgb(225,222,194)" stroke-width="1" opacity="0.9686274509803922" d="M 78.5 167 L 79.5 169 L 78.5 167 Z " /><path fill="rgb(225,222,194)" stroke="rgb(225,222,194)" stroke-width="1" opacity="0.9686274509803922" d="M 88.5 167 L 89 169.5 L 88 169.5 L 88.5 167 Z " /><path fill="rgb(225,222,194)" stroke="rgb(225,222,194)" stroke-width="1" opacity="0.9686274509803922" d="M 114.5 168 L 117 176.5 L 116 176.5 L 114.5 168 Z " /><path fill="rgb(225,222,194)" stroke="rgb(225,222,194)" stroke-width="1" opacity="0.9686274509803922" d="M 127.5 168 L 125 171.5 L 124.5 173 L 124 171.5 L 127.5 168 Z " /><path fill="rgb(225,222,194)" stroke="rgb(225,222,194)" stroke-width="1" opacity="0.9686274509803922" d="M 73.5 170 L 78 175.5 L 75 173.5 L 73.5 170 Z " /><path fill="rgb(225,222,194)" stroke="rgb(225,222,194)" stroke-width="1" opacity="0.9686274509803922" d="M 80.5 170 Q 83.5 170.5 83 174.5 L 79.5 177 L 79.5 176 L 82 174.5 L 80.5 170 Z " /><path fill="rgb(225,222,194)" stroke="rgb(225,222,194)" stroke-width="1" opacity="0.9686274509803922" d="M 109.5 171 L 110 173.5 L 109 173.5 L 109.5 171 Z " /><path fill="rgb(225,222,194)" stroke="rgb(225,222,194)" stroke-width="1" opacity="0.9686274509803922" d="M 131.5 172 L 130 174.5 Q 130.8 176.8 128.5 176 L 126.5 177 L 126.5 176 L 131.5 172 Z " /><path fill="rgb(225,222,194)" stroke="rgb(225,222,194)" stroke-width="1" opacity="0.9686274509803922" d="M 140.5 172 L 139 174.5 L 135.5 179 L 137 176.5 L 140.5 172 Z " /><path fill="rgb(225,222,194)" stroke="rgb(225,222,194)" stroke-width="1" opacity="0.9686274509803922" d="M 67.5 173 L 72.5 179 L 67.5 173 Z " /><path fill="rgb(225,222,194)" stroke="rgb(225,222,194)" stroke-width="1" opacity="0.9686274509803922" d="M 110.5 175 L 113 181.5 L 112 181.5 L 110.5 175 Z " /><path fill="rgb(225,222,194)" stroke="rgb(225,222,194)" stroke-width="1" opacity="0.9686274509803922" d="M 85.5 177 L 86 178.5 L 83.5 182 L 80 181.5 L 84 181 L 85.5 177 Z " /><path fill="rgb(225,222,194)" stroke="rgb(225,222,194)" stroke-width="1" opacity="0.9686274509803922" d="M 143.5 178 L 142.5 180 L 143.5 178 Z " /><path fill="rgb(225,222,194)" stroke="rgb(225,222,194)" stroke-width="1" opacity="0.9686274509803922" d="M 125.5 181 L 129 181.5 L 125.5 182 L 125.5 181 Z " /><path fill="rgb(242,239,207)" stroke="rgb(242,239,207)" stroke-width="1" opacity="0.9921568627450981" d="M 78.5 61 L 79.5 63 L 78.5 61 Z " /><path fill="rgb(242,239,207)" stroke="rgb(242,239,207)" stroke-width="1" opacity="0.9921568627450981" d="M 97.5 96 L 106 101.5 L 104.5 102 L 98 99 L 97.5 96 Z " /><path fill="rgb(242,239,207)" stroke="rgb(242,239,207)" stroke-width="1" opacity="0.9921568627450981" d="M 94.5 97 L 96 97.5 L 94 100.5 L 96 105.5 L 95 105.5 L 93 98.5 L 94.5 97 Z " /><path fill="rgb(242,239,207)" stroke="rgb(242,239,207)" stroke-width="1" opacity="0.9921568627450981" d="M 107.5 102 Q 110.5 101.1 109 105.5 L 105.5 118 L 104 115.5 L 108 103.5 L 107.5 102 Z " /><path fill="rgb(242,239,207)" stroke="rgb(242,239,207)" stroke-width="1" opacity="0.9921568627450981" d="M 86.5 103 Q 88.8 102.3 88 104.5 L 90 109.5 L 88 110 L 86.5 105 L 69.5 114 L 71.5 111 Q 80.7 108.7 86.5 103 Z " /><path fill="rgb(242,239,207)" stroke="rgb(242,239,207)" stroke-width="1" opacity="0.9921568627450981" d="M 116.5 103 L 120.5 103 L 127.5 109 L 134.5 111 L 142 116 L 143 120.5 L 142 120.5 L 142 118.5 L 137.5 114 L 124 107.5 Q 124.8 105.3 122.5 106 Q 121.1 103.4 116.5 104 L 116.5 103 Z " /><path fill="rgb(242,239,207)" stroke="rgb(242,239,207)" stroke-width="1" opacity="0.9921568627450981" d="M 96.5 107 L 97 110.5 L 96 110.5 L 96.5 107 Z " /><path fill="rgb(242,239,207)" stroke="rgb(242,239,207)" stroke-width="1" opacity="0.9921568627450981" d="M 114.5 107 L 115 110.5 L 113 115.5 L 113 123.5 L 112 124.5 L 112 149.5 L 113 150.5 L 113 159.5 L 116 168 Q 112.7 169.3 114 164.5 L 112 160.5 Q 113.5 155 111 153.5 L 111 120.5 L 114.5 107 Z " /><path fill="rgb(242,239,207)" stroke="rgb(242,239,207)" stroke-width="1" opacity="0.9921568627450981" d="M 89.5 112 Q 92 113 91 117.5 L 90 117.5 L 89.5 112 Z " /><path fill="rgb(242,239,207)" stroke="rgb(242,239,207)" stroke-width="1" opacity="0.9921568627450981" d="M 97.5 113 L 99 114.5 Q 97.7 119.2 100 120.5 L 100 151.5 L 97.5 159 L 97 157.5 L 99 147.5 L 99 124.5 L 98 123.5 Q 98.5 116 97.5 113 Z " /><path fill="rgb(242,239,207)" stroke="rgb(242,239,207)" stroke-width="1" opacity="0.9921568627450981" d="M 68.5 115 L 68 116.5 L 64.5 128 L 64 124.5 L 65 119.5 L 68.5 115 Z " /><path fill="rgb(242,239,207)" stroke="rgb(242,239,207)" stroke-width="1" opacity="0.9921568627450981" d="M 71.5 118 Q 76.5 117.5 77 121.5 L 76.5 124 L 74.5 120 Q 70.3 119.3 69.5 122 L 70 120.5 L 71.5 118 Z " /><path fill="rgb(242,239,207)" stroke="rgb(242,239,207)" stroke-width="1" opacity="0.9921568627450981" d="M 132.5 118 L 135 119.5 L 130.5 121 L 130 119 L 132.5 118 Z " /><path fill="rgb(242,239,207)" stroke="rgb(242,239,207)" stroke-width="1" opacity="0.9921568627450981" d="M 104.5 119 L 105 122.5 L 104 122.5 L 104.5 119 Z " /><path fill="rgb(242,239,207)" stroke="rgb(242,239,207)" stroke-width="1" opacity="0.9921568627450981" d="M 91.5 121 L 92 123.5 L 91 123.5 L 91.5 121 Z " /><path fill="rgb(242,239,207)" stroke="rgb(242,239,207)" stroke-width="1" opacity="0.9921568627450981" d="M 136.5 121 L 139 124.5 L 142 138.5 L 142 150.5 L 139 162.5 L 133 174 Q 130.3 172.9 131 175.5 Q 130.3 178.8 125.5 178 L 123 176.5 L 125.5 176 L 127.5 177 L 130 176 L 137 164.5 L 140 154.5 L 140 133.5 L 136.5 121 Z " /><path fill="rgb(242,239,207)" stroke="rgb(242,239,207)" stroke-width="1" opacity="0.9921568627450981" d="M 130.5 124 L 132 128.5 L 131 128.5 L 130.5 124 Z " /><path fill="rgb(242,239,207)" stroke="rgb(242,239,207)" stroke-width="1" opacity="0.9921568627450981" d="M 67 126 L 69 126.5 L 66 138.5 L 65.5 150 L 65 138.5 L 67 126 Z " /><path fill="rgb(242,239,207)" stroke="rgb(242,239,207)" stroke-width="1" opacity="0.9921568627450981" d="M 75.5 126 L 76 128.5 L 75 128.5 L 75.5 126 Z " /><path fill="rgb(242,239,207)" stroke="rgb(242,239,207)" stroke-width="1" opacity="0.9921568627450981" d="M 103.5 126 L 104 146.5 L 103 146.5 L 103.5 126 Z " /><path fill="rgb(242,239,207)" stroke="rgb(242,239,207)" stroke-width="1" opacity="0.9921568627450981" d="M 143 126 Q 145.7 124.9 145 127.5 L 143 128.5 L 143 126 Z " /><path fill="rgb(242,239,207)" stroke="rgb(242,239,207)" stroke-width="1" opacity="0.9921568627450981" d="M 92.5 128 L 93 143.5 L 92 143.5 L 92.5 128 Z " /><path fill="rgb(242,239,207)" stroke="rgb(242,239,207)" stroke-width="1" opacity="0.9921568627450981" d="M 63.5 130 L 64 132.5 L 63 132.5 L 63.5 130 Z " /><path fill="rgb(242,239,207)" stroke="rgb(242,239,207)" stroke-width="1" opacity="0.9921568627450981" d="M 74.5 130 L 75 132.5 L 74 132.5 L 74.5 130 Z " /><path fill="rgb(242,239,207)" stroke="rgb(242,239,207)" stroke-width="1" opacity="0.9921568627450981" d="M 132.5 131 L 134 137.5 L 134 151.5 L 132.5 156 L 132 152.5 L 133 151.5 L 133 137.5 Q 130.4 135.9 132.5 131 Z " /><path fill="rgb(242,239,207)" stroke="rgb(242,239,207)" stroke-width="1" opacity="0.9921568627450981" d="M 144.5 132 L 145 134.5 L 144 134.5 L 144.5 132 Z " /><path fill="rgb(242,239,207)" stroke="rgb(242,239,207)" stroke-width="1" opacity="0.9921568627450981" d="M 73.5 134 L 75 138.5 L 74 139.5 L 74 154.5 L 76 160.5 L 75 160.5 L 72 148.5 L 72 140.5 L 73.5 134 Z " /><path fill="rgb(242,239,207)" stroke="rgb(242,239,207)" stroke-width="1" opacity="0.9921568627450981" d="M 145.5 136 L 146 151.5 L 144.5 155 L 144 152.5 L 145 151.5 L 145.5 136 Z " /><path fill="rgb(242,239,207)" stroke="rgb(242,239,207)" stroke-width="1" opacity="0.9921568627450981" d="M 62.5 139 L 63 155.5 L 64 157.5 L 62 156.5 L 62.5 139 Z " /><path fill="rgb(242,239,207)" stroke="rgb(242,239,207)" stroke-width="1" opacity="0.9921568627450981" d="M 91.5 148 L 92 150.5 L 91 150.5 L 91.5 148 Z " /><path fill="rgb(242,239,207)" stroke="rgb(242,239,207)" stroke-width="1" opacity="0.9921568627450981" d="M 104.5 150 L 105 154.5 L 104 154.5 L 104.5 150 Z " /><path fill="rgb(242,239,207)" stroke="rgb(242,239,207)" stroke-width="1" opacity="0.9921568627450981" d="M 66.5 151 L 69 161.5 L 67 160.5 L 66.5 151 Z " /><path fill="rgb(242,239,207)" stroke="rgb(242,239,207)" stroke-width="1" opacity="0.9921568627450981" d="M 90.5 153 L 91 158.5 L 89.5 161 L 89 157.5 L 90.5 153 Z " /><path fill="rgb(242,239,207)" stroke="rgb(242,239,207)" stroke-width="1" opacity="0.9921568627450981" d="M 105.5 156 L 110 175.5 L 108 174.5 L 108 170.5 L 104 158.5 L 105.5 156 Z " /><path fill="rgb(242,239,207)" stroke="rgb(242,239,207)" stroke-width="1" opacity="0.9921568627450981" d="M 143.5 157 L 145 159.5 L 143 158.5 L 143.5 157 Z " /><path fill="rgb(242,239,207)" stroke="rgb(242,239,207)" stroke-width="1" opacity="0.9921568627450981" d="M 96.5 161 L 97 166.5 L 95.5 169 L 95 167.5 L 96.5 161 Z " /><path fill="rgb(242,239,207)" stroke="rgb(242,239,207)" stroke-width="1" opacity="0.9921568627450981" d="M 130.5 161 L 130 162.5 Q 128.6 168.6 124 171.5 L 124 175 Q 121.3 176.1 122 173.5 L 124.5 169 Q 127.1 169.8 126 166.5 L 130.5 161 Z " /><path fill="rgb(242,239,207)" stroke="rgb(242,239,207)" stroke-width="1" opacity="0.9921568627450981" d="M 76.5 162 L 79 167 Q 83.5 165.3 82 170.5 L 82.5 172 Q 77.5 167.8 76.5 162 Z " /><path fill="rgb(242,239,207)" stroke="rgb(242,239,207)" stroke-width="1" opacity="0.9921568627450981" d="M 89.5 162 L 90 163.5 L 85.5 177 L 85 173.5 L 89.5 162 Z " /><path fill="rgb(242,239,207)" stroke="rgb(242,239,207)" stroke-width="1" opacity="0.9921568627450981" d="M 64.5 164 L 70 174.5 L 67 172.5 L 64 166.5 L 64.5 164 Z " /><path fill="rgb(242,239,207)" stroke="rgb(242,239,207)" stroke-width="1" opacity="0.9921568627450981" d="M 142.5 164 L 143 166.5 Q 141.8 172.3 137.5 175 L 138 173.5 L 142.5 164 Z " /><path fill="rgb(242,239,207)" stroke="rgb(242,239,207)" stroke-width="1" opacity="0.9921568627450981" d="M 71.5 168 L 77.5 176 L 80.5 177 L 83 175.5 L 81.5 178 L 78.5 178 L 74 173.5 L 71.5 168 Z " /><path fill="rgb(242,239,207)" stroke="rgb(242,239,207)" stroke-width="1" opacity="0.9921568627450981" d="M 94.5 170 L 95 171.5 L 92 179.5 L 112 180 L 111.5 182 L 91 182 L 91 178.5 L 94.5 170 Z " /><path fill="rgb(242,239,207)" stroke="rgb(242,239,207)" stroke-width="1" opacity="0.9921568627450981" d="M 71.5 176 L 80 180.5 L 78.5 181 Q 72.5 179.9 71.5 176 Z " /><path fill="rgb(242,239,207)" stroke="rgb(242,239,207)" stroke-width="1" opacity="0.9921568627450981" d="M 135.5 176 L 137 176.5 L 129.5 181 L 129 179 Q 133.6 179.6 135.5 176 Z " /><path fill="rgb(242,239,207)" stroke="rgb(242,239,207)" stroke-width="1" opacity="0.9921568627450981" d="M 145.5 176 L 144.5 178 L 145.5 176 Z " /><path fill="rgb(242,239,207)" stroke="rgb(242,239,207)" stroke-width="1" opacity="0.9921568627450981" d="M 117.5 177 L 119 180 L 127 180.5 Q 124.9 182.9 119.5 182 L 117.5 177 Z " /><path fill="rgb(242,239,207)" stroke="rgb(242,239,207)" stroke-width="1" opacity="0.9921568627450981" d="M 63.5 178 L 66.5 182 L 63.5 178 Z " /><path fill="rgb(242,239,207)" stroke="rgb(242,239,207)" stroke-width="1" opacity="0.9921568627450981" d="M 84.5 178 L 84 179.5 Q 84.8 182.1 81.5 181 L 81.5 180 L 84.5 178 Z " /><path fill="rgb(243,240,207)" stroke="rgb(243,240,207)" stroke-width="1" opacity="1" d="M 96.5 96 L 98 99 L 108 103.5 L 104 115.5 L 105 118.5 Q 101 129.5 103 146.5 L 105 157.5 L 105 159.5 L 108 174.5 L 111 180 L 92 179.5 L 97 166.5 L 97 159.5 L 100 151.5 L 100 120.5 L 94 99.5 L 96.5 96 Z " /><path fill="rgb(243,240,207)" stroke="rgb(243,240,207)" stroke-width="1" opacity="1" d="M 116 104 L 124 106 L 125.5 109 L 131.5 112 L 134.5 112 L 142 118.5 L 144 125.5 L 143 128.5 L 145 128.5 L 144 134.5 L 145 135.5 L 145 151.5 L 144 154.5 L 145 157.5 L 143 157.5 L 144 161.5 L 137 176 L 129 179 Q 130.1 181.7 127.5 181 L 126.5 180 L 119 180 L 115 168.5 L 116 166.5 L 113 159.5 L 113 150.5 L 112 149.5 L 112 124.5 L 116 104 Z M 133 118 L 130 119 L 130 127 L 132 130 Q 130 136 133 138 L 132 158 L 126 167 Q 127 170 125 169 L 122 174 Q 121 176 124 175 L 123 177 L 126 178 Q 130 179 131 176 Q 130 173 133 174 L 139 163 L 142 151 L 142 139 L 138 123 L 133 118 Z " /><path fill="rgb(243,240,207)" stroke="rgb(243,240,207)" stroke-width="1" opacity="1" d="M 86.5 105 L 88 110 Q 90.7 108.9 90 111.5 L 90 113.5 L 92 124.5 L 92 147.5 L 89 160.5 L 89 162.5 L 85 173.5 L 85 177.5 L 82.5 180 L 80.5 181 L 72.5 176 L 70 176 L 66 168.5 L 63 158.5 L 64 156.5 L 63 155.5 L 63 133.5 L 66 125.5 L 66 120.5 L 70.5 113 L 86.5 105 Z M 72 118 L 70 121 L 69 124 Q 70 127 67 126 L 65 139 L 65 150 L 67 161 L 70 164 L 72 171 L 79 178 Q 82 179 83 177 Q 84 172 82 171 Q 84 165 79 167 L 74 155 L 74 140 L 74 138 L 77 122 Q 77 117 72 118 Z " /></svg>