<svg width="200" height="200" version="1.1" xmlns="http://www.w3.org/2000/svg" desc="Created with imagetracer.js version 1.2.6" ><path fill="rgb(34,207,121)" stroke="rgb(34,207,121)" stroke-width="1" opacity="0.7725490196078432" d="M 54.5 19 L 67.5 19 L 69 20.5 L 61.5 21 L 59.5 21 L 52 20.5 L 54.5 19 Z " /><path fill="rgb(34,207,121)" stroke="rgb(34,207,121)" stroke-width="1" opacity="0.7725490196078432" d="M 139.5 19 Q 149.8 17.2 155 20.5 L 147.5 21 L 145.5 21 L 137 20.5 L 139.5 19 Z " /><path fill="rgb(34,207,121)" stroke="rgb(34,207,121)" stroke-width="1" opacity="0.7725490196078432" d="M 47 21 Q 50 20 49 23 Q 46 24 47 21 Z " /><path fill="rgb(34,207,121)" stroke="rgb(34,207,121)" stroke-width="1" opacity="0.7725490196078432" d="M 71.5 21 L 74 22.5 L 72.5 23 L 71.5 21 Z " /><path fill="rgb(34,207,121)" stroke="rgb(34,207,121)" stroke-width="1" opacity="0.7725490196078432" d="M 133.5 21 Q 136.1 20.3 135 23 L 132 22.5 L 133.5 21 Z " /><path fill="rgb(34,207,121)" stroke="rgb(34,207,121)" stroke-width="1" opacity="0.7725490196078432" d="M 157.5 21 L 160 22.5 L 158.5 23 L 157.5 21 Z " /><path fill="rgb(34,207,121)" stroke="rgb(34,207,121)" stroke-width="1" opacity="0.7725490196078432" d="M 44.5 22 L 45.5 24 L 40 26 Q 41 29 38 28 Q 36.9 25.3 39.5 26 L 44.5 22 Z " /><path fill="rgb(34,207,121)" stroke="rgb(34,207,121)" stroke-width="1" opacity="0.7725490196078432" d="M 76.5 22 L 77 24 L 83 27.5 L 81.5 28 L 75 23.5 L 76.5 22 Z " /><path fill="rgb(34,207,121)" stroke="rgb(34,207,121)" stroke-width="1" opacity="0.7725490196078432" d="M 129.5 23 L 131 23.5 L 123 28 L 123 30 L 121 30 Q 122.1 32.7 119.5 32 L 118 35 Q 115.3 33.9 116 36.5 L 111 44.5 L 110 51 Q 107 52.3 108 48.5 L 114 38.5 L 114 35 L 116 35 Q 114.9 32.3 117.5 33 L 121 28 L 129.5 23 Z " /><path fill="rgb(34,207,121)" stroke="rgb(34,207,121)" stroke-width="1" opacity="0.7725490196078432" d="M 161.5 23 L 176 33 L 179 38.5 L 176 36.5 L 174 33.5 L 169 30 Q 170.1 27.3 167.5 28 Q 167 24.5 162.5 25 L 161.5 23 Z " /><path fill="rgb(34,207,121)" stroke="rgb(34,207,121)" stroke-width="1" opacity="0.7725490196078432" d="M 36.5 28 L 37 30 L 33 32 Q 31.9 29.3 34.5 30 L 36.5 28 Z " /><path fill="rgb(34,207,121)" stroke="rgb(34,207,121)" stroke-width="1" opacity="0.7725490196078432" d="M 84.5 28 L 90.5 35 L 86 31.5 Q 86.7 28.9 84 30 L 84.5 28 Z " /><path fill="rgb(34,207,121)" stroke="rgb(34,207,121)" stroke-width="1" opacity="0.7725490196078432" d="M 31 33 L 33 33.5 L 26.5 43 L 26 40.5 L 31 33 Z " /><path fill="rgb(34,207,121)" stroke="rgb(34,207,121)" stroke-width="1" opacity="0.7725490196078432" d="M 91.5 36 L 93 38.5 L 91 37.5 L 91.5 36 Z " /><path fill="rgb(34,207,121)" stroke="rgb(34,207,121)" stroke-width="1" opacity="0.7725490196078432" d="M 93.5 40 L 95 40 L 95 44 L 97 44 L 97 49.5 L 99 52.5 L 97 53 L 93.5 40 Z " /><path fill="rgb(34,207,121)" stroke="rgb(34,207,121)" stroke-width="1" opacity="0.7725490196078432" d="M 179.5 40 L 180 42 L 182 42.5 Q 180.5 45.5 179 42.5 L 179.5 40 Z " /><path fill="rgb(34,207,121)" stroke="rgb(34,207,121)" stroke-width="1" opacity="0.7725490196078432" d="M 25.5 44 L 26 45.5 L 24.5 48 L 24 45.5 L 25.5 44 Z " /><path fill="rgb(34,207,121)" stroke="rgb(34,207,121)" stroke-width="1" opacity="0.7725490196078432" d="M 181 46 Q 183.7 44.9 183 47.5 L 184 49.5 L 182.5 53 L 181 46 Z " /><path fill="rgb(34,207,121)" stroke="rgb(34,207,121)" stroke-width="1" opacity="0.7725490196078432" d="M 23.5 50 L 24 64.5 L 23 64.5 Q 20.5 61 22 53.5 L 23.5 50 Z " /><path fill="rgb(34,207,121)" stroke="rgb(34,207,121)" stroke-width="1" opacity="0.7725490196078432" d="M 100 52 L 106.5 52 L 107 54 L 100.5 54 L 100 52 Z " /><path fill="rgb(34,207,121)" stroke="rgb(34,207,121)" stroke-width="1" opacity="0.7725490196078432" d="M 183.5 55 L 184 59.5 L 183 59.5 L 183.5 55 Z " /><path fill="rgb(34,207,121)" stroke="rgb(34,207,121)" stroke-width="1" opacity="0.7725490196078432" d="M 182.5 63 L 184 66.5 L 181 68.5 L 182.5 63 Z " /><path fill="rgb(34,207,121)" stroke="rgb(34,207,121)" stroke-width="1" opacity="0.7725490196078432" d="M 24.5 67 L 26 70.5 L 24 69.5 L 24.5 67 Z " /><path fill="rgb(34,207,121)" stroke="rgb(34,207,121)" stroke-width="1" opacity="0.7725490196078432" d="M 180.5 71 L 181 73.5 L 180 76.5 L 183 81.5 L 181 80.5 Q 178 78.5 179 72.5 L 180.5 71 Z " /><path fill="rgb(34,207,121)" stroke="rgb(34,207,121)" stroke-width="1" opacity="0.7725490196078432" d="M 26.5 73 L 28 75.5 L 26 76.5 L 26.5 73 Z " /><path fill="rgb(34,207,121)" stroke="rgb(34,207,121)" stroke-width="1" opacity="0.7725490196078432" d="M 24 79 L 26 79.5 L 23 85 L 21 84.5 L 24 79 Z " /><path fill="rgb(34,207,121)" stroke="rgb(34,207,121)" stroke-width="1" opacity="0.7725490196078432" d="M 183.5 83 Q 185.8 82.3 185 84.5 L 188 88.5 L 186 87.5 L 183.5 83 Z " /><path fill="rgb(34,207,121)" stroke="rgb(34,207,121)" stroke-width="1" opacity="0.7725490196078432" d="M 19 86 Q 22 85 21 88 Q 18 89 19 86 Z " /><path fill="rgb(34,207,121)" stroke="rgb(34,207,121)" stroke-width="1" opacity="0.7725490196078432" d="M 18.5 89 L 19 91.5 L 14.5 99 L 14 97.5 L 18.5 89 Z " /><path fill="rgb(34,207,121)" stroke="rgb(34,207,121)" stroke-width="1" opacity="0.7725490196078432" d="M 188.5 90 L 190 92.5 L 188 91.5 L 188.5 90 Z " /><path fill="rgb(34,207,121)" stroke="rgb(34,207,121)" stroke-width="1" opacity="0.7725490196078432" d="M 190 95 L 192 95 Q 190.3 100.2 194 99 L 194 104.5 Q 197.8 106.3 194.5 108 L 193 106.5 L 193 102.5 L 190 95 Z " /><path fill="rgb(34,207,121)" stroke="rgb(34,207,121)" stroke-width="1" opacity="0.7725490196078432" d="M 13.5 100 L 14 103.5 L 12.5 106 Q 9.8 104.8 12 103.5 L 13.5 100 Z " /><path fill="rgb(34,207,121)" stroke="rgb(34,207,121)" stroke-width="1" opacity="0.7725490196078432" d="M 11.5 108 L 12 112.5 L 11 113.5 L 11 127.5 L 12 131.5 L 9 129.5 L 9 111.5 L 11.5 108 Z " /><path fill="rgb(34,207,121)" stroke="rgb(34,207,121)" stroke-width="1" opacity="0.7725490196078432" d="M 195.5 109 L 198 117.5 L 198 126.5 L 195.5 130 L 195 125.5 L 196 120.5 L 195 119.5 L 195.5 109 Z " /><path fill="rgb(34,207,121)" stroke="rgb(34,207,121)" stroke-width="1" opacity="0.7725490196078432" d="M 193 132 Q 196 131 195 134 Q 192 135 193 132 Z " /><path fill="rgb(36,37,32)" stroke="rgb(36,37,32)" stroke-width="1" opacity="1" d="M 59.5 39 L 68 40 Q 66.8 43 70.5 42 L 77 49.5 L 79 59.5 Q 76.4 60.9 77 65.5 L 73.5 70 L 70.5 72 L 68.5 74 L 60.5 76 L 49 72 L 49 70 Q 46.3 71.1 47 68.5 Q 42.3 64.7 42 56.5 L 43 51.5 L 47 44 L 54.5 40 L 59.5 39 Z " /><path fill="rgb(36,37,32)" stroke="rgb(36,37,32)" stroke-width="1" opacity="1" d="M 144.5 39 L 152.5 40 L 160 45.5 Q 164.7 50.3 164 60.5 L 162 67 L 160 67 Q 161.5 70.7 158.5 70 L 155 72 Q 156.3 75.7 150.5 74 L 146.5 76 L 137 74 Q 138.1 71.3 135.5 72 L 132 67 Q 129 68.3 130 64.5 Q 126.2 61.3 128 52.5 L 133.5 44 Q 136.1 44.7 135 42 L 137.5 42 L 139.5 40 L 144.5 39 Z " /><path fill="rgb(36,37,32)" stroke="rgb(36,37,32)" stroke-width="1" opacity="1" d="M 92.5 85 L 98 87.5 Q 99.3 93.8 95.5 95 Q 89.4 96.3 90 93.5 Q 87.3 92.8 88 88.5 L 92.5 85 Z " /><path fill="rgb(36,37,32)" stroke="rgb(36,37,32)" stroke-width="1" opacity="1" d="M 113.5 85 L 117 86 L 118 92.5 Q 116.8 96.3 110.5 95 L 108 90.5 L 109 86 L 113.5 85 Z " /><path fill="rgb(1,2,1)" stroke="rgb(1,2,1)" stroke-width="1" opacity="0" d="M 0 0 L 200 0 L 200 200 L 0 200 L 0 0 Z M 50 18 L 48 20 L 45 20 L 45 22 L 39 22 L 38 25 Q 35 24 36 27 L 32 27 L 29 34 Q 26 33 27 36 L 25 36 L 25 41 L 23 43 L 21 50 L 21 65 L 24 75 L 22 79 Q 23 81 20 80 L 20 84 L 19 84 L 16 87 L 16 91 L 13 95 Q 14 100 11 99 L 11 105 L 9 105 L 9 138 L 11 139 L 11 147 L 13 147 Q 12 154 16 157 Q 15 160 18 159 L 18 162 L 22 166 L 22 168 L 29 173 L 37 182 Q 40 181 39 184 L 43 184 L 45 188 L 49 189 Q 54 188 53 191 L 59 191 L 60 193 L 68 193 L 68 195 L 139 195 L 141 193 L 148 193 L 148 191 L 154 191 L 154 189 Q 159 189 162 186 Q 165 187 164 184 L 168 184 L 168 182 L 174 179 Q 176 180 175 177 L 177 177 L 177 176 L 184 170 Q 183 166 186 165 L 187 165 L 187 161 L 189 161 L 194 149 Q 193 142 196 143 L 196 134 L 198 133 L 198 108 L 196 107 L 193 93 L 189 87 L 189 84 L 185 82 L 184 80 Q 185 76 182 77 Q 180 72 184 73 Q 183 66 186 64 L 186 53 Q 183 51 184 45 L 182 43 L 182 38 L 180 38 L 180 34 L 179 34 L 177 31 L 169 24 Q 165 25 166 22 L 164 22 L 158 18 L 134 18 L 133 20 L 129 20 Q 130 23 126 22 L 126 24 Q 121 24 119 28 Q 120 30 117 29 L 117 31 L 115 31 L 115 33 L 113 33 L 112 37 Q 113 39 110 38 Q 111 41 108 43 L 108 50 Q 105 49 106 52 Q 101 53 99 50 Q 100 46 97 47 Q 98 39 94 36 L 94 33 L 92 33 L 92 31 L 90 31 L 90 29 Q 87 30 88 28 L 83 24 Q 80 25 81 22 L 76 22 L 76 20 L 72 20 L 72 18 L 50 18 Z " /><path fill="rgb(191,225,171)" stroke="rgb(191,225,171)" stroke-width="1" opacity="0.396078431372549" d="M 49.5 18 L 71.5 18 Q 70.7 21.3 76 20 L 76 23 L 67.5 19 L 54.5 19 Q 52.3 22 47 21 Q 48 24 45 23 Q 43.3 18.9 47.5 20 L 49.5 18 Z " /><path fill="rgb(191,225,171)" stroke="rgb(191,225,171)" stroke-width="1" opacity="0.396078431372549" d="M 133 18 L 157.5 18 L 163.5 22 L 166 22 Q 164.8 25 168.5 24 L 177 31 L 178.5 34 L 180 34 L 180 38 L 182 38 L 182 42 Q 179.3 43.1 180 40.5 L 176 33 L 158.5 21 L 151.5 19 L 139.5 19 L 121 28 L 117.5 33 Q 114.9 32.3 116 35 L 114 35 L 114 38.5 L 108.5 48 L 108 42.5 Q 110.8 41.4 110 38 Q 112.7 39.1 112 36.5 L 113 33 L 115 33 L 115 31 L 117 31 L 117 29 Q 119.7 30.1 119 27.5 Q 121.1 23.9 126 24 L 126 22 Q 130.1 23.3 129 20 L 133 20 L 133 18 Z " /><path fill="rgb(191,225,171)" stroke="rgb(191,225,171)" stroke-width="1" opacity="0.396078431372549" d="M 39 22 L 44 22.5 L 38 26 Q 39.1 28.7 36.5 28 L 33 30 L 33 33 Q 30.3 31.9 31 34.5 L 26 40.5 L 26 43.5 L 24 45.5 Q 24.7 51.7 21.5 54 L 21 49.5 L 23 42.5 L 25 40.5 L 25 36 L 27 36 Q 25.9 33.3 28.5 34 L 32 27 L 36 27 Q 34.9 24.3 37.5 25 L 39 22 Z " /><path fill="rgb(191,225,171)" stroke="rgb(191,225,171)" stroke-width="1" opacity="0.396078431372549" d="M 77 22 L 81 22 Q 79.9 24.7 82.5 24 L 88 27.5 Q 87.3 30.1 90 29 L 90 31 L 92 31 L 92 33 L 94 33 L 94 35.5 Q 97.7 38.3 97 44 L 95 44 L 95 40 Q 92 41.3 93 37.5 L 84.5 28 L 77 24 L 77 22 Z " /><path fill="rgb(191,225,171)" stroke="rgb(191,225,171)" stroke-width="1" opacity="0.396078431372549" d="M 181 43 L 184 44.5 L 183.5 48 L 183 46 Q 179.7 47.1 181 43 Z " /><path fill="rgb(191,225,171)" stroke="rgb(191,225,171)" stroke-width="1" opacity="0.396078431372549" d="M 97 47 Q 100 45.8 99 49.5 Q 102.8 51.3 99.5 53 L 97 47 Z " /><path fill="rgb(191,225,171)" stroke="rgb(191,225,171)" stroke-width="1" opacity="0.396078431372549" d="M 106 50 L 109 51.5 Q 107.5 54.5 106 51.5 L 106 50 Z " /><path fill="rgb(191,225,171)" stroke="rgb(191,225,171)" stroke-width="1" opacity="0.396078431372549" d="M 183 50 Q 185.7 48.9 185 51.5 L 186 52.5 L 186 63.5 L 185 66 Q 181 67.4 183 60.5 L 184 55.5 L 183 50 Z " /><path fill="rgb(191,225,171)" stroke="rgb(191,225,171)" stroke-width="1" opacity="0.396078431372549" d="M 21.5 60 L 24 65.5 L 24 69.5 L 26 71.5 L 26 79 Q 23.3 77.9 24 80.5 L 21 86 Q 18 84.8 19 88.5 L 15 94.5 L 11.5 104 L 11 98 Q 14.3 99.3 13 94.5 L 16 90.5 L 16 86.5 L 18.5 84 L 20 84 L 20 80 Q 22.7 81.1 22 78.5 L 24 74.5 L 21 64.5 L 21.5 60 Z " /><path fill="rgb(191,225,171)" stroke="rgb(191,225,171)" stroke-width="1" opacity="0.396078431372549" d="M 183.5 67 L 184 73 Q 180.3 71.8 182 77 Q 185 75.8 184 79.5 L 185 82 L 189 84 L 189 86.5 L 193 92.5 L 194 99 L 192 99 Q 193.3 93.7 190 94.5 L 190 91.5 L 185 83 Q 182 84.3 183 80.5 L 180 74.5 L 181 69.5 L 183.5 67 Z " /><path fill="rgb(191,225,171)" stroke="rgb(191,225,171)" stroke-width="1" opacity="0.396078431372549" d="M 194.5 101 Q 196.8 101.8 196 105.5 L 194 104.5 L 194.5 101 Z " /><path fill="rgb(191,225,171)" stroke="rgb(191,225,171)" stroke-width="1" opacity="0.396078431372549" d="M 9 105 Q 13.1 103.3 12 107.5 L 9.5 111 L 9 105 Z " /><path fill="rgb(191,225,171)" stroke="rgb(191,225,171)" stroke-width="1" opacity="0.396078431372549" d="M 195 107 L 198 107.5 L 198 116.5 L 197 116.5 Q 197.7 109.6 195 107 Z " /><path fill="rgb(191,225,171)" stroke="rgb(191,225,171)" stroke-width="1" opacity="0.396078431372549" d="M 197.5 127 L 198 133 L 196 133 L 196 142.5 L 194 143 Q 196.2 139.4 195 130.5 L 197.5 127 Z " /><path fill="rgb(191,225,171)" stroke="rgb(191,225,171)" stroke-width="1" opacity="0.396078431372549" d="M 9.5 130 L 12 133.5 L 11 135.5 Q 13.5 137 12 142.5 Q 15 145.5 15 151.5 L 17 153.5 L 17 157 Q 20 155.8 19 159.5 L 24 167 L 26 167 L 26 169 Q 28.7 167.9 28 170.5 L 35 176 L 35 178 L 37 178 Q 35.9 180.7 38.5 180 Q 40.4 183.6 45 183 Q 43.9 185.7 46.5 185 L 58 190.5 L 52 191 Q 53.3 187.7 48.5 189 L 45 188 L 43 184 L 39 184 Q 40.3 181 36.5 182 L 29 173 L 22 167.5 L 22 165.5 L 18 161.5 L 18 159 Q 15 160.3 16 156.5 L 14 153.5 L 14.5 152 L 13 152 L 13 147 L 11 146.5 L 11 138.5 L 9 137.5 L 9.5 130 Z " /><path fill="rgb(191,225,171)" stroke="rgb(191,225,171)" stroke-width="1" opacity="0.396078431372549" d="M 193.5 145 L 194 148.5 L 189 161 L 187 161 L 187 165 L 185.5 165 Q 183 166.2 184 170 L 177 175.5 L 177 177 L 175 177 Q 176.1 179.7 173.5 179 L 168 182 L 168 184 L 164 184 Q 165.3 187 161.5 186 Q 159.3 189.5 154 189 Q 155.3 192.7 149.5 191 L 149.5 190 L 158 187 L 158 185 L 162 185 Q 160.8 182 164.5 183 L 172 178 L 172 176 L 174 176 Q 172.9 173.3 175.5 174 L 179 169 L 183 167 L 183 164.5 L 186 161.5 L 188 155 L 190 155 Q 188.3 149.8 192 151 L 192 146.5 L 193.5 145 Z " /><path fill="rgb(191,225,171)" stroke="rgb(191,225,171)" stroke-width="1" opacity="0.396078431372549" d="M 59 190 Q 62.1 189.3 61.5 192 L 69.5 192 L 71.5 194 L 134.5 194 Q 137.1 190.6 144.5 192 L 148 190 L 148 193 L 140.5 193 L 138.5 195 L 68 195 L 67.5 193 L 59 193 L 59 190 Z " /><path fill="rgb(4,210,105)" stroke="rgb(4,210,105)" stroke-width="1" opacity="0.996078431372549" d="M 49.5 21 L 58 21.5 L 49.5 22 L 49.5 21 Z " /><path fill="rgb(4,210,105)" stroke="rgb(4,210,105)" stroke-width="1" opacity="0.996078431372549" d="M 63.5 21 Q 70.3 19.3 72 22.5 L 70.5 22 L 63.5 22 L 63.5 21 Z " /><path fill="rgb(4,210,105)" stroke="rgb(4,210,105)" stroke-width="1" opacity="0.996078431372549" d="M 135 21 L 144 21.5 L 135.5 23 L 135 21 Z " /><path fill="rgb(4,210,105)" stroke="rgb(4,210,105)" stroke-width="1" opacity="0.996078431372549" d="M 149.5 21 Q 156.3 19.3 158 22.5 L 156.5 23 Q 155 20.5 149.5 22 L 149.5 21 Z " /><path fill="rgb(4,210,105)" stroke="rgb(4,210,105)" stroke-width="1" opacity="0.996078431372549" d="M 74.5 23 L 77 24.5 L 75.5 25 L 74.5 23 Z " /><path fill="rgb(4,210,105)" stroke="rgb(4,210,105)" stroke-width="1" opacity="0.996078431372549" d="M 131.5 23 L 133 23.5 L 130.5 25 L 131.5 23 Z " /><path fill="rgb(4,210,105)" stroke="rgb(4,210,105)" stroke-width="1" opacity="0.996078431372549" d="M 159.5 23 L 162 24.5 L 160.5 25 L 159.5 23 Z " /><path fill="rgb(4,210,105)" stroke="rgb(4,210,105)" stroke-width="1" opacity="0.996078431372549" d="M 78.5 25 L 80.5 28 L 78 27 L 78.5 25 Z " /><path fill="rgb(4,210,105)" stroke="rgb(4,210,105)" stroke-width="1" opacity="0.996078431372549" d="M 128.5 25 L 129 27 L 127 26.5 L 128.5 25 Z " /><path fill="rgb(4,210,105)" stroke="rgb(4,210,105)" stroke-width="1" opacity="0.996078431372549" d="M 163.5 25 L 169 28 L 168.5 30 L 163.5 25 Z " /><path fill="rgb(4,210,105)" stroke="rgb(4,210,105)" stroke-width="1" opacity="0.996078431372549" d="M 82.5 28 Q 84.8 27.3 84 29.5 L 82.5 28 Z " /><path fill="rgb(4,210,105)" stroke="rgb(4,210,105)" stroke-width="1" opacity="0.996078431372549" d="M 170.5 30 L 171.5 32 Q 168.7 32.7 170.5 30 Z " /><path fill="rgb(4,210,105)" stroke="rgb(4,210,105)" stroke-width="1" opacity="0.996078431372549" d="M 54.5 31 L 66.5 31 L 68.5 33 L 75.5 35 L 79 38.5 Q 78.3 41.1 81 40 L 81 42 L 83 42 L 83 45 L 85 45 L 85 48.5 Q 88.7 52.8 87 62.5 L 83 73 L 76 78.5 Q 76.9 81.5 72.5 80 Q 67 85 54.5 83 L 45 80 L 45 78 L 43 78 L 43 76 Q 40.3 77.1 41 74.5 Q 37.2 73.3 38 69 Q 34.3 70.3 36 64.5 L 34 62.5 L 34 51 L 36 51 L 36 45 L 38 45 L 38 42 Q 40.7 43.1 40 40.5 L 41 38 L 43 38 Q 41.9 35.3 44.5 36 L 48.5 33 L 51.5 33 L 50.5 35 L 45 37 L 43.5 40 Q 40.9 39.3 42 42 L 40 42 L 40 44.5 Q 34 49.5 36 62.5 L 40 72 Q 42.7 70.9 42 73.5 L 47 77 Q 45.7 80.3 50.5 79 L 52.5 81 L 62.5 82 L 63.5 81 L 70 81 Q 68.8 78 72.5 79 L 79 73.5 L 81 70.5 L 84 66.5 Q 83.3 59.8 86 56.5 Q 83.3 54.2 84 48.5 L 79 40 L 67.5 33 L 53 32.5 L 54.5 31 Z " /><path fill="rgb(4,210,105)" stroke="rgb(4,210,105)" stroke-width="1" opacity="0.996078431372549" d="M 139.5 31 L 152.5 31 L 154.5 33 L 162 35 Q 160.9 37.7 163.5 37 L 171 47.5 Q 169.8 53.3 173 54.5 L 173 60.5 Q 169.8 61.7 171 67.5 L 166 76 L 164 76 Q 165.1 78.7 162.5 78 Q 155.7 85.2 139.5 83 L 126 76 L 126 73.5 L 121 66.5 L 120 51.5 L 124.5 42 Q 126.8 42.8 126 40.5 L 127 38 L 139.5 31 Z M 139 33 L 137 35 Q 132 34 133 37 L 128 41 Q 129 43 126 42 L 121 54 L 121 62 L 127 74 L 138 81 Q 143 80 145 82 L 155 81 L 165 74 Q 164 71 167 72 L 171 61 Q 172 53 169 50 L 169 46 Q 166 47 167 44 L 160 36 L 154 33 L 139 33 Z " /><path fill="rgb(4,210,105)" stroke="rgb(4,210,105)" stroke-width="1" opacity="0.996078431372549" d="M 33.5 32 L 34 33.5 L 31.5 37 L 31 35.5 L 33.5 32 Z " /><path fill="rgb(4,210,105)" stroke="rgb(4,210,105)" stroke-width="1" opacity="0.996078431372549" d="M 119.5 32 L 120 34 L 118 33.5 L 119.5 32 Z " /><path fill="rgb(4,210,105)" stroke="rgb(4,210,105)" stroke-width="1" opacity="0.996078431372549" d="M 89.5 35 Q 91.8 34.3 91 36.5 L 89.5 35 Z " /><path fill="rgb(4,210,105)" stroke="rgb(4,210,105)" stroke-width="1" opacity="0.996078431372549" d="M 116 35 L 118 35.5 L 115 37.5 L 116 35 Z " /><path fill="rgb(4,210,105)" stroke="rgb(4,210,105)" stroke-width="1" opacity="0.996078431372549" d="M 91.5 38 L 94 42.5 L 93 42.5 L 91.5 38 Z " /><path fill="rgb(4,210,105)" stroke="rgb(4,210,105)" stroke-width="1" opacity="0.996078431372549" d="M 177.5 38 L 179 40.5 L 177 39.5 L 177.5 38 Z " /><path fill="rgb(4,210,105)" stroke="rgb(4,210,105)" stroke-width="1" opacity="0.996078431372549" d="M 114.5 39 L 115 41 L 113 40.5 L 114.5 39 Z " /><path fill="rgb(4,210,105)" stroke="rgb(4,210,105)" stroke-width="1" opacity="0.996078431372549" d="M 27.5 42 L 27 43.5 L 25 48.5 L 24.5 57 L 24 48.5 L 27.5 42 Z " /><path fill="rgb(4,210,105)" stroke="rgb(4,210,105)" stroke-width="1" opacity="0.996078431372549" d="M 179.5 43 L 181 45.5 L 180 45.5 L 179.5 43 Z " /><path fill="rgb(4,210,105)" stroke="rgb(4,210,105)" stroke-width="1" opacity="0.996078431372549" d="M 182.5 53 L 183 62.5 L 182 62.5 L 182.5 53 Z " /><path fill="rgb(4,210,105)" stroke="rgb(4,210,105)" stroke-width="1" opacity="0.996078431372549" d="M 24.5 58 L 25 66.5 L 26 67.5 L 24 66.5 L 24.5 58 Z " /><path fill="rgb(4,210,105)" stroke="rgb(4,210,105)" stroke-width="1" opacity="0.996078431372549" d="M 180.5 67 L 181 70.5 L 179 71.5 L 180.5 67 Z " /><path fill="rgb(4,210,105)" stroke="rgb(4,210,105)" stroke-width="1" opacity="0.996078431372549" d="M 26.5 69 L 28 73.5 L 26 72.5 L 26.5 69 Z " /><path fill="rgb(4,210,105)" stroke="rgb(4,210,105)" stroke-width="1" opacity="0.996078431372549" d="M 27.5 76 L 28 77.5 L 24.5 83 L 24 81.5 L 27.5 76 Z " /><path fill="rgb(4,210,105)" stroke="rgb(4,210,105)" stroke-width="1" opacity="0.996078431372549" d="M 179.5 78 L 186 86.5 L 184 87 L 179 79.5 L 179.5 78 Z " /><path fill="rgb(4,210,105)" stroke="rgb(4,210,105)" stroke-width="1" opacity="0.996078431372549" d="M 91.5 84 L 97 84 Q 96 87 99 86 L 99 89.5 L 99 91.5 Q 100.5 95.9 97.5 95 L 93.5 97 L 87 92.5 Q 85.8 87.3 88.5 86 L 91.5 84 Z M 93 85 L 88 89 Q 87 93 90 94 Q 89 96 96 95 Q 99 94 98 88 L 93 85 Z " /><path fill="rgb(4,210,105)" stroke="rgb(4,210,105)" stroke-width="1" opacity="0.996078431372549" d="M 110.5 84 Q 117.4 82 116 86 L 113.5 85 L 109 86 L 108 90.5 L 110.5 95 Q 116.8 96.3 118 92.5 L 117 86.5 L 118 86.5 Q 117.3 89.1 120 88 L 120 93 L 118 93 Q 119.1 95.7 116.5 95 L 112.5 97 L 108 95 L 107 88.5 L 110.5 84 Z " /><path fill="rgb(4,210,105)" stroke="rgb(4,210,105)" stroke-width="1" opacity="0.996078431372549" d="M 21 85 L 23 85.5 L 21 86.5 L 21 85 Z " /><path fill="rgb(4,210,105)" stroke="rgb(4,210,105)" stroke-width="1" opacity="0.996078431372549" d="M 19 88 L 21 88.5 L 19 89.5 L 19 88 Z " /><path fill="rgb(4,210,105)" stroke="rgb(4,210,105)" stroke-width="1" opacity="0.996078431372549" d="M 186.5 88 L 188 90.5 L 186 89.5 L 186.5 88 Z " /><path fill="rgb(4,210,105)" stroke="rgb(4,210,105)" stroke-width="1" opacity="0.996078431372549" d="M 188.5 92 Q 190.8 92.8 190 96.5 L 189 96.5 L 188.5 92 Z " /><path fill="rgb(4,210,105)" stroke="rgb(4,210,105)" stroke-width="1" opacity="0.996078431372549" d="M 17.5 93 L 18 94.5 L 16 95.5 L 17.5 93 Z " /><path fill="rgb(4,210,105)" stroke="rgb(4,210,105)" stroke-width="1" opacity="0.996078431372549" d="M 13.5 104 L 14 105.5 L 12.5 110 L 12 106.5 L 13.5 104 Z " /><path fill="rgb(4,210,105)" stroke="rgb(4,210,105)" stroke-width="1" opacity="0.996078431372549" d="M 85.5 107 L 98 107.5 L 83.5 109 L 81.5 111 L 75.5 111 L 73.5 113 L 63 116 L 63 118 L 59 118 Q 60.1 120.7 57.5 120 L 49.5 127 L 39.5 132 Q 33.8 130.8 32.5 134 L 13.5 134 L 12 131.5 L 14.5 133 L 26.5 133 L 29.5 131 L 41 130 L 41 128 L 45 128 Q 43.8 125 47.5 126 L 52 123 L 52 121 L 55 121 L 57 117 L 59.5 117 Q 61.9 113.2 68 114 Q 66.8 111 70.5 112 L 72.5 110 L 77.5 110 L 85.5 107 Z " /><path fill="rgb(4,210,105)" stroke="rgb(4,210,105)" stroke-width="1" opacity="0.996078431372549" d="M 107.5 107 L 120.5 107 L 128.5 110 L 134 110 Q 132.7 113.3 137.5 112 L 139.5 114 L 142.5 114 L 150.5 119 L 153 119 Q 151.9 121.7 154.5 121 L 163.5 128 L 166 128 Q 164.8 131 168.5 130 Q 170.3 132.8 176.5 131 L 178.5 133 L 193 133.5 L 173.5 134 L 171.5 132 L 167.5 132 L 158 127 L 158 125 L 155 125 Q 156.1 122.3 153.5 123 L 150.5 120 L 142.5 116 L 139.5 116 L 135.5 113 L 125.5 111 L 122.5 109 L 107.5 108 L 107.5 107 Z " /><path fill="rgb(4,210,105)" stroke="rgb(4,210,105)" stroke-width="1" opacity="0.996078431372549" d="M 193.5 107 L 195 110.5 L 194 110.5 L 193.5 107 Z " /><path fill="rgb(0,210,106)" stroke="rgb(0,210,106)" stroke-width="1" opacity="1" d="M 60.5 20 L 63.5 22 L 70.5 22 L 78 25 Q 76.9 27.7 79.5 27 L 85 30 L 85 32 L 87 32 L 87 34 Q 89.7 32.9 89 35.5 L 96 47.5 L 96 53 L 106.5 54 L 110 53 L 111 44 L 113 44 L 113 41 Q 116 42.3 115 38.5 L 118 34 L 120 34 L 120 32 Q 122.7 33.1 122 30.5 L 125 29 L 125 27 L 129 27 Q 127.8 24 131.5 25 L 133.5 23 L 143.5 22 L 146.5 20 L 149.5 22 L 158.5 23 L 170 30 Q 168.8 33 172.5 32 L 175 37 Q 178 35.8 177 39.5 L 182 48.5 L 182 64.5 Q 177.5 69 179 79.5 L 184 87 Q 187 85.8 186 89.5 Q 189.5 91.7 189 97 Q 192.3 95.7 191 100.5 L 193 102.5 Q 192.2 108.8 195 111.5 Q 193.3 119.7 196 123.5 L 195 124.5 L 195 131 Q 191.9 130.3 192.5 133 L 178.5 133 L 176.5 131 Q 169.4 131.7 166 130 Q 167.3 127 163.5 128 L 153 121 Q 154.3 118 150.5 119 L 142.5 114 L 134 112 Q 135.4 108 128.5 110 L 120.5 107 L 85.5 107 L 68 112 Q 69.3 115.3 64.5 114 L 57 117 L 55 121 L 52 121 Q 53.1 123.7 50.5 123 Q 49.2 126.7 45 126 L 45 128 Q 39.8 126.3 41 130 L 36.5 130 Q 35 132.5 29.5 131 L 26.5 133 L 14.5 133 L 11 127.5 L 11 114.5 L 14 105.5 L 14 99 Q 17 100.3 16 96.5 L 23 85.5 L 23 83 Q 25.7 84.1 25 81.5 Q 28.9 79.9 28 73.5 L 25 66.5 L 25 58.5 L 24 57.5 L 25 56.5 L 25 48.5 Q 28.7 45.1 28 39 L 30 39 L 30 37 Q 32.7 38.1 32 35.5 L 35.5 31 L 38.5 29 L 42 27 L 42 25 L 46 25 Q 44.8 22 48.5 23 L 49.5 22 L 57.5 22 L 60.5 20 Z M 55 31 L 45 36 Q 42 35 43 38 L 41 38 L 40 41 Q 41 43 38 42 L 38 45 L 36 45 L 36 51 L 34 51 L 34 63 L 36 65 Q 34 70 38 69 Q 37 73 41 75 Q 40 77 43 76 L 43 78 L 45 78 L 45 80 L 55 83 Q 67 85 73 80 Q 77 81 76 79 L 83 73 L 87 63 Q 89 53 85 49 L 85 45 L 83 45 L 83 42 L 81 42 L 81 40 Q 78 41 79 39 L 76 35 L 69 33 L 67 31 L 55 31 Z M 140 31 L 127 38 L 126 41 Q 127 43 125 42 L 120 52 L 121 67 L 126 74 L 126 76 L 140 83 Q 156 85 163 78 Q 165 79 164 76 L 166 76 L 171 68 Q 170 62 173 61 L 173 55 Q 170 53 171 48 L 164 37 Q 161 38 162 35 L 155 33 L 153 31 L 140 31 Z M 92 84 L 89 86 Q 86 87 87 93 L 94 97 L 98 95 Q 101 96 99 92 L 99 90 L 99 86 Q 96 87 97 84 L 92 84 Z M 111 84 L 107 89 L 108 95 L 113 97 L 117 95 Q 119 96 118 93 L 120 93 L 120 88 L 116 86 L 116 84 L 111 84 Z " /><path fill="rgb(221,205,72)" stroke="rgb(221,205,72)" stroke-width="1" opacity="0.9333333333333333" d="M 52.5 33 L 67.5 33 L 70 34.5 L 68.5 35 L 67.5 34 L 53.5 34 L 51.5 35 L 52.5 33 Z " /><path fill="rgb(221,205,72)" stroke="rgb(221,205,72)" stroke-width="1" opacity="0.9333333333333333" d="M 138.5 33 L 153.5 33 L 155 34.5 L 153.5 35 L 152.5 34 L 139.5 34 L 137.5 35 L 138.5 33 Z " /><path fill="rgb(221,205,72)" stroke="rgb(221,205,72)" stroke-width="1" opacity="0.9333333333333333" d="M 48.5 35 L 49 37 L 45.5 39 L 45 37 L 48.5 35 Z " /><path fill="rgb(221,205,72)" stroke="rgb(221,205,72)" stroke-width="1" opacity="0.9333333333333333" d="M 71.5 35 L 74 36.5 L 72.5 37 L 71.5 35 Z " /><path fill="rgb(221,205,72)" stroke="rgb(221,205,72)" stroke-width="1" opacity="0.9333333333333333" d="M 133 35 L 135 35.5 L 133 36.5 L 133 35 Z " /><path fill="rgb(221,205,72)" stroke="rgb(221,205,72)" stroke-width="1" opacity="0.9333333333333333" d="M 157.5 35 L 167 43.5 L 165 44 L 165 42 Q 162.3 43.1 163 40.5 L 160 39 Q 161.1 36.3 158.5 37 L 157.5 35 Z " /><path fill="rgb(221,205,72)" stroke="rgb(221,205,72)" stroke-width="1" opacity="0.9333333333333333" d="M 131.5 37 L 132 39 Q 129.3 37.9 130 40.5 L 128 41.5 L 131.5 37 Z " /><path fill="rgb(221,205,72)" stroke="rgb(221,205,72)" stroke-width="1" opacity="0.9333333333333333" d="M 56.5 38 Q 63.3 36.7 66 39.5 L 61.5 40 L 59.5 39 L 55.5 40 L 56.5 38 Z " /><path fill="rgb(221,205,72)" stroke="rgb(221,205,72)" stroke-width="1" opacity="0.9333333333333333" d="M 142.5 38 Q 149.3 36.3 151 39.5 L 148.5 40 L 144.5 39 L 141.5 40 L 142.5 38 Z " /><path fill="rgb(221,205,72)" stroke="rgb(221,205,72)" stroke-width="1" opacity="0.9333333333333333" d="M 51.5 40 L 54 40.5 L 47.5 44 L 48.5 42 L 51.5 40 Z " /><path fill="rgb(221,205,72)" stroke="rgb(221,205,72)" stroke-width="1" opacity="0.9333333333333333" d="M 68 40 Q 71 39 70 42 Q 67 43 68 40 Z " /><path fill="rgb(221,205,72)" stroke="rgb(221,205,72)" stroke-width="1" opacity="0.9333333333333333" d="M 77.5 40 Q 79.8 39.3 79 41.5 L 82 45.5 L 81 45.5 L 77.5 40 Z " /><path fill="rgb(221,205,72)" stroke="rgb(221,205,72)" stroke-width="1" opacity="0.9333333333333333" d="M 137 40 L 139 40.5 L 137 41.5 L 137 40 Z " /><path fill="rgb(221,205,72)" stroke="rgb(221,205,72)" stroke-width="1" opacity="0.9333333333333333" d="M 153.5 40 Q 155.8 39.3 155 41.5 L 153.5 40 Z " /><path fill="rgb(221,205,72)" stroke="rgb(221,205,72)" stroke-width="1" opacity="0.9333333333333333" d="M 40 42 L 42 42.5 L 40 43.5 L 40 42 Z " /><path fill="rgb(221,205,72)" stroke="rgb(221,205,72)" stroke-width="1" opacity="0.9333333333333333" d="M 71.5 42 Q 78 45.5 79 54.5 L 78 54.5 L 77 49.5 L 71.5 42 Z " /><path fill="rgb(221,205,72)" stroke="rgb(221,205,72)" stroke-width="1" opacity="0.9333333333333333" d="M 134.5 42 L 135 44 L 132 45.5 L 130.5 48 L 131 46.5 L 134.5 42 Z " /><path fill="rgb(221,205,72)" stroke="rgb(221,205,72)" stroke-width="1" opacity="0.9333333333333333" d="M 156.5 42 L 160 44.5 L 158.5 44 L 156.5 42 Z " /><path fill="rgb(221,205,72)" stroke="rgb(221,205,72)" stroke-width="1" opacity="0.9333333333333333" d="M 39.5 45 L 39 46.5 L 37 51.5 L 36.5 63 L 36 51.5 L 39.5 45 Z " /><path fill="rgb(221,205,72)" stroke="rgb(221,205,72)" stroke-width="1" opacity="0.9333333333333333" d="M 45 45 L 47 45.5 L 43 51.5 L 42 58.5 L 47 70 Q 50 69 49 72 Q 46.3 73.1 47 70.5 L 45 67 Q 41.7 68.3 43 63.5 Q 40.3 61.2 41 55.5 L 45 45 Z " /><path fill="rgb(221,205,72)" stroke="rgb(221,205,72)" stroke-width="1" opacity="0.9333333333333333" d="M 124.5 46 L 125 48 L 123 47.5 L 124.5 46 Z " /><path fill="rgb(221,205,72)" stroke="rgb(221,205,72)" stroke-width="1" opacity="0.9333333333333333" d="M 160.5 46 Q 162.8 45.3 162 47.5 L 160.5 46 Z " /><path fill="rgb(221,205,72)" stroke="rgb(221,205,72)" stroke-width="1" opacity="0.9333333333333333" d="M 167.5 46 Q 170.1 45.2 169 48.5 L 168 48.5 L 167.5 46 Z " /><path fill="rgb(221,205,72)" stroke="rgb(221,205,72)" stroke-width="1" opacity="0.9333333333333333" d="M 82.5 47 L 83.5 49 Q 80.7 49.7 82.5 47 Z " /><path fill="rgb(221,205,72)" stroke="rgb(221,205,72)" stroke-width="1" opacity="0.9333333333333333" d="M 128 49 Q 130.7 47.9 130 50.5 L 128 51.5 L 128 49 Z " /><path fill="rgb(221,205,72)" stroke="rgb(221,205,72)" stroke-width="1" opacity="0.9333333333333333" d="M 162.5 49 Q 165.9 48.1 164 53.5 L 166 57.5 L 162.5 66 L 163 64.5 L 164 54.5 L 162.5 49 Z " /><path fill="rgb(221,205,72)" stroke="rgb(221,205,72)" stroke-width="1" opacity="0.9333333333333333" d="M 122.5 51 L 123 54.5 L 122 59.5 L 123 62.5 L 121 61.5 Q 119.5 54 122.5 51 Z " /><path fill="rgb(221,205,72)" stroke="rgb(221,205,72)" stroke-width="1" opacity="0.9333333333333333" d="M 84.5 53 L 86 57.5 L 84.5 61 L 84.5 53 Z " /><path fill="rgb(221,205,72)" stroke="rgb(221,205,72)" stroke-width="1" opacity="0.9333333333333333" d="M 170.5 53 L 171 60.5 L 170 60.5 L 170.5 53 Z " /><path fill="rgb(221,205,72)" stroke="rgb(221,205,72)" stroke-width="1" opacity="0.9333333333333333" d="M 127.5 56 L 128 58.5 L 126 57.5 L 127.5 56 Z " /><path fill="rgb(221,205,72)" stroke="rgb(221,205,72)" stroke-width="1" opacity="0.9333333333333333" d="M 78.5 60 L 79 65 Q 76 66.3 77 62.5 L 78.5 60 Z " /><path fill="rgb(221,205,72)" stroke="rgb(221,205,72)" stroke-width="1" opacity="0.9333333333333333" d="M 128.5 62 L 130 65.5 L 128 64.5 L 128.5 62 Z " /><path fill="rgb(221,205,72)" stroke="rgb(221,205,72)" stroke-width="1" opacity="0.9333333333333333" d="M 169.5 62 L 170 64.5 L 167.5 69 L 168 67.5 L 169.5 62 Z " /><path fill="rgb(221,205,72)" stroke="rgb(221,205,72)" stroke-width="1" opacity="0.9333333333333333" d="M 83.5 65 L 84 66.5 L 82 67.5 L 83.5 65 Z " /><path fill="rgb(221,205,72)" stroke="rgb(221,205,72)" stroke-width="1" opacity="0.9333333333333333" d="M 76.5 66 L 76 67.5 L 71.5 73 L 69.5 74 L 70.5 72 L 73.5 70 L 76.5 66 Z " /><path fill="rgb(221,205,72)" stroke="rgb(221,205,72)" stroke-width="1" opacity="0.9333333333333333" d="M 38.5 67 L 40 69.5 L 38 68.5 L 38.5 67 Z " /><path fill="rgb(221,205,72)" stroke="rgb(221,205,72)" stroke-width="1" opacity="0.9333333333333333" d="M 123.5 67 Q 125.8 66.3 125 68.5 L 123.5 67 Z " /><path fill="rgb(221,205,72)" stroke="rgb(221,205,72)" stroke-width="1" opacity="0.9333333333333333" d="M 130 67 Q 132.7 65.9 132 68.5 L 137 72 L 136.5 74 L 130 68.5 L 130 67 Z " /><path fill="rgb(221,205,72)" stroke="rgb(221,205,72)" stroke-width="1" opacity="0.9333333333333333" d="M 160 67 Q 163 66 162 69 Q 159 70 160 67 Z " /><path fill="rgb(221,205,72)" stroke="rgb(221,205,72)" stroke-width="1" opacity="0.9333333333333333" d="M 81.5 69 L 81 70.5 L 80.5 72 L 80 70.5 L 81.5 69 Z " /><path fill="rgb(221,205,72)" stroke="rgb(221,205,72)" stroke-width="1" opacity="0.9333333333333333" d="M 125.5 70 Q 127.8 69.3 127 71.5 L 128 74 L 135 78.5 L 133.5 79 L 127 73.5 L 125.5 70 Z " /><path fill="rgb(221,205,72)" stroke="rgb(221,205,72)" stroke-width="1" opacity="0.9333333333333333" d="M 158.5 70 L 160 70.5 L 155.5 74 L 155 72 L 158.5 70 Z " /><path fill="rgb(221,205,72)" stroke="rgb(221,205,72)" stroke-width="1" opacity="0.9333333333333333" d="M 165 70 Q 168 69 167 72 Q 164.3 70.9 165 73.5 L 158.5 79 L 158 77 L 163 75 L 165 70 Z " /><path fill="rgb(221,205,72)" stroke="rgb(221,205,72)" stroke-width="1" opacity="0.9333333333333333" d="M 50.5 72 L 51.5 74 Q 48.7 74.7 50.5 72 Z " /><path fill="rgb(221,205,72)" stroke="rgb(221,205,72)" stroke-width="1" opacity="0.9333333333333333" d="M 42.5 73 L 45.5 77 L 42.5 73 Z " /><path fill="rgb(221,205,72)" stroke="rgb(221,205,72)" stroke-width="1" opacity="0.9333333333333333" d="M 78.5 73 L 75.5 77 L 75 75 L 78.5 73 Z " /><path fill="rgb(221,205,72)" stroke="rgb(221,205,72)" stroke-width="1" opacity="0.9333333333333333" d="M 53.5 74 L 60 75.5 L 54.5 76 L 53.5 74 Z " /><path fill="rgb(221,205,72)" stroke="rgb(221,205,72)" stroke-width="1" opacity="0.9333333333333333" d="M 65.5 74 L 68 74.5 Q 66.8 77.3 61.5 76 L 61.5 75 L 65.5 74 Z " /><path fill="rgb(221,205,72)" stroke="rgb(221,205,72)" stroke-width="1" opacity="0.9333333333333333" d="M 139 74 L 146 75.5 L 139 76 L 139 74 Z " /><path fill="rgb(221,205,72)" stroke="rgb(221,205,72)" stroke-width="1" opacity="0.9333333333333333" d="M 150.5 74 Q 154.3 73 153 76 L 147 75.5 L 150.5 74 Z " /><path fill="rgb(221,205,72)" stroke="rgb(221,205,72)" stroke-width="1" opacity="0.9333333333333333" d="M 47 77 Q 50 76 49 79 Q 46 80 47 77 Z " /><path fill="rgb(221,205,72)" stroke="rgb(221,205,72)" stroke-width="1" opacity="0.9333333333333333" d="M 72 77 L 74 77.5 L 72 78.5 L 72 77 Z " /><path fill="rgb(221,205,72)" stroke="rgb(221,205,72)" stroke-width="1" opacity="0.9333333333333333" d="M 51.5 79 L 54 80.5 L 52.5 81 L 51.5 79 Z " /><path fill="rgb(221,205,72)" stroke="rgb(221,205,72)" stroke-width="1" opacity="0.9333333333333333" d="M 68.5 79 Q 71.1 78.3 70 81 L 66 80.5 L 68.5 79 Z " /><path fill="rgb(221,205,72)" stroke="rgb(221,205,72)" stroke-width="1" opacity="0.9333333333333333" d="M 136.5 79 L 140 80.5 L 137.5 81 L 136.5 79 Z " /><path fill="rgb(221,205,72)" stroke="rgb(221,205,72)" stroke-width="1" opacity="0.9333333333333333" d="M 153 79 L 156 79.5 L 153 81 L 153 79 Z " /><path fill="rgb(221,205,72)" stroke="rgb(221,205,72)" stroke-width="1" opacity="0.9333333333333333" d="M 58.5 81 L 63 81.5 L 58.5 82 L 58.5 81 Z " /><path fill="rgb(221,205,72)" stroke="rgb(221,205,72)" stroke-width="1" opacity="0.9333333333333333" d="M 144.5 81 L 148 81.5 L 144.5 82 L 144.5 81 Z " /><path fill="rgb(221,205,72)" stroke="rgb(221,205,72)" stroke-width="1" opacity="0.9333333333333333" d="M 98.5 107 L 122.5 109 L 125 110.5 L 121.5 111 L 120.5 110 L 100.5 108 L 99.5 109 L 92.5 109 L 82.5 111 L 83.5 109 L 90.5 109 L 98.5 107 Z " /><path fill="rgb(221,205,72)" stroke="rgb(221,205,72)" stroke-width="1" opacity="0.9333333333333333" d="M 75.5 111 L 79 111.5 Q 78.3 113.8 74.5 113 L 75.5 111 Z " /><path fill="rgb(221,205,72)" stroke="rgb(221,205,72)" stroke-width="1" opacity="0.9333333333333333" d="M 128 111 L 132 112.5 L 128 113 L 128 111 Z " /><path fill="rgb(221,205,72)" stroke="rgb(221,205,72)" stroke-width="1" opacity="0.9333333333333333" d="M 70.5 113 Q 73.1 112.3 72 115 L 68.5 115 L 63 118 Q 61.8 115 65.5 116 L 70.5 113 Z " /><path fill="rgb(221,205,72)" stroke="rgb(221,205,72)" stroke-width="1" opacity="0.9333333333333333" d="M 134.5 113 L 144 117.5 L 142.5 118 L 135.5 115 L 134.5 113 Z " /><path fill="rgb(221,205,72)" stroke="rgb(221,205,72)" stroke-width="1" opacity="0.9333333333333333" d="M 59 118 Q 62 117 61 120 Q 58 121 59 118 Z " /><path fill="rgb(221,205,72)" stroke="rgb(221,205,72)" stroke-width="1" opacity="0.9333333333333333" d="M 146.5 118 L 147.5 120 Q 144.7 120.7 146.5 118 Z " /><path fill="rgb(221,205,72)" stroke="rgb(221,205,72)" stroke-width="1" opacity="0.9333333333333333" d="M 57.5 120 L 58 122 L 47.5 129 L 48.5 127 L 57.5 120 Z " /><path fill="rgb(221,205,72)" stroke="rgb(221,205,72)" stroke-width="1" opacity="0.9333333333333333" d="M 149 120 L 155 123 L 154.5 125 L 149 122 L 149 120 Z " /><path fill="rgb(221,205,72)" stroke="rgb(221,205,72)" stroke-width="1" opacity="0.9333333333333333" d="M 156 125 Q 159 124 158 127 Q 155 128 156 125 Z " /><path fill="rgb(221,205,72)" stroke="rgb(221,205,72)" stroke-width="1" opacity="0.9333333333333333" d="M 159.5 127 L 167 131.5 L 165.5 132 Q 160.3 130.2 159.5 127 Z " /><path fill="rgb(221,205,72)" stroke="rgb(221,205,72)" stroke-width="1" opacity="0.9333333333333333" d="M 44.5 129 L 46 129.5 L 40.5 132 L 41.5 130 L 44.5 129 Z " /><path fill="rgb(221,205,72)" stroke="rgb(221,205,72)" stroke-width="1" opacity="0.9333333333333333" d="M 34.5 132 L 39 132.5 L 33.5 134 L 34.5 132 Z " /><path fill="rgb(221,205,72)" stroke="rgb(221,205,72)" stroke-width="1" opacity="0.9333333333333333" d="M 168.5 132 Q 172.3 131.3 173 133.5 L 170.5 134 L 168.5 132 Z " /><path fill="rgb(251,216,69)" stroke="rgb(251,216,69)" stroke-width="1" opacity="0.996078431372549" d="M 53.5 34 L 67.5 34 L 75 37 L 75 39 Q 77.7 37.9 77 40.5 Q 81.8 43 82 49 L 84 49.5 L 84 64.5 L 76.5 75 Q 73.9 74.3 75 77 L 72 77 L 72 79 L 68.5 79 L 65.5 81 L 54.5 81 Q 53.3 78 49 79 Q 50.3 76 46.5 77 L 38 66.5 Q 35.5 61 37 51.5 L 42 41 L 44 41 Q 42.9 38.3 45.5 39 L 49 37 Q 47.7 33.7 52.5 35 L 53.5 34 Z M 57 38 L 47 44 Q 48 46 45 45 L 41 56 Q 40 61 43 64 Q 42 68 45 67 L 47 71 Q 46 73 50 72 L 50 74 Q 53 73 55 76 L 67 76 L 72 73 L 77 67 Q 76 64 79 65 L 79 52 L 72 42 Q 69 43 70 40 Q 66 41 64 38 L 57 38 Z " /><path fill="rgb(251,216,69)" stroke="rgb(251,216,69)" stroke-width="1" opacity="0.996078431372549" d="M 139.5 34 Q 153.6 32.2 160 37 Q 158.9 39.7 161.5 39 L 163 42 L 167 44 L 167 46.5 Q 171.5 51 170 61.5 L 167 70 Q 164.3 68.9 165 71.5 L 163 75 L 158 77 L 158 79 Q 151.7 77.5 152.5 81 L 140.5 81 L 128 74 L 127 70 L 125 70 Q 126.3 65.9 123 67 L 123 60.5 L 122 55.5 L 123 54.5 L 123 48 L 125 48 L 125 44 L 127 44 Q 125.9 41.3 128.5 42 L 130 39 L 132 39 Q 130.9 36.3 133.5 37 L 139.5 34 Z M 143 38 L 141 40 L 137 40 Q 138 43 135 42 L 130 48 Q 131 50 128 49 Q 130 56 126 58 L 128 60 L 128 65 L 130 69 L 137 74 Q 140 73 139 76 L 153 76 L 153 74 L 156 74 L 160 71 Q 159 68 162 69 L 166 58 L 164 54 L 164 49 Q 161 50 162 46 L 160 46 L 158 42 Q 154 43 155 40 Q 151 41 150 38 L 143 38 Z " /><path fill="rgb(251,216,69)" stroke="rgb(251,216,69)" stroke-width="1" opacity="0.996078431372549" d="M 193 138 Q 196 136.8 195 140.5 L 193.5 143 L 193 138 Z " /><path fill="rgb(251,216,69)" stroke="rgb(251,216,69)" stroke-width="1" opacity="0.996078431372549" d="M 12 141 Q 15.3 139.7 14 144.5 L 13 144.5 L 12 141 Z " /><path fill="rgb(251,216,69)" stroke="rgb(251,216,69)" stroke-width="1" opacity="0.996078431372549" d="M 192.5 144 L 194 144.5 L 191.5 148 L 191 145.5 L 192.5 144 Z " /><path fill="rgb(251,216,69)" stroke="rgb(251,216,69)" stroke-width="1" opacity="0.996078431372549" d="M 14.5 146 L 19 157 Q 15.7 158.3 17 153.5 Q 13.4 151.3 14.5 146 Z " /><path fill="rgb(251,216,69)" stroke="rgb(251,216,69)" stroke-width="1" opacity="0.996078431372549" d="M 189.5 153 L 190 155 L 188 154.5 L 189.5 153 Z " /><path fill="rgb(251,216,69)" stroke="rgb(251,216,69)" stroke-width="1" opacity="0.996078431372549" d="M 186 157 L 188 157.5 L 186 158.5 L 186 157 Z " /><path fill="rgb(251,216,69)" stroke="rgb(251,216,69)" stroke-width="1" opacity="0.996078431372549" d="M 19 158 Q 22 156.8 21 160.5 L 26 167 Q 23.3 168.1 24 165.5 L 19 158 Z " /><path fill="rgb(251,216,69)" stroke="rgb(251,216,69)" stroke-width="1" opacity="0.996078431372549" d="M 184 160 Q 186.7 158.9 186 161.5 Q 182.3 162.8 183 167 L 181 167 L 181 169 Q 178.3 167.9 179 170.5 L 174 174 L 174 176 L 172 176 Q 173.1 178.7 170.5 178 L 163 183 Q 161.8 180 165.5 181 L 170 178 L 170 176 L 172 176 Q 170.9 173.3 173.5 174 L 177 172 L 179 167 Q 181.7 168.1 181 165.5 Q 184.8 164.3 184 160 Z " /><path fill="rgb(251,216,69)" stroke="rgb(251,216,69)" stroke-width="1" opacity="0.996078431372549" d="M 28.5 170 L 32.5 175 L 28.5 170 Z " /><path fill="rgb(251,216,69)" stroke="rgb(251,216,69)" stroke-width="1" opacity="0.996078431372549" d="M 37.5 178 L 40 179 L 40 181 Q 45.2 179.3 44 183 L 37 180 L 37.5 178 Z " /><path fill="rgb(251,216,69)" stroke="rgb(251,216,69)" stroke-width="1" opacity="0.996078431372549" d="M 45.5 183 L 58 189.5 L 55.5 190 L 45 185 L 45.5 183 Z " /><path fill="rgb(251,216,69)" stroke="rgb(251,216,69)" stroke-width="1" opacity="0.996078431372549" d="M 160 183 Q 163 182 162 185 Q 159 186 160 183 Z " /><path fill="rgb(251,216,69)" stroke="rgb(251,216,69)" stroke-width="1" opacity="0.996078431372549" d="M 154.5 186 L 156 186.5 Q 153.9 190.1 149 190 Q 147.7 186.7 152.5 188 L 154.5 186 Z " /><path fill="rgb(251,216,69)" stroke="rgb(251,216,69)" stroke-width="1" opacity="0.996078431372549" d="M 61 190 Q 64 189 63 192 Q 60 193 61 190 Z " /><path fill="rgb(251,216,69)" stroke="rgb(251,216,69)" stroke-width="1" opacity="0.996078431372549" d="M 143.5 190 L 146 190.5 L 142.5 192 L 143.5 190 Z " /><path fill="rgb(251,216,69)" stroke="rgb(251,216,69)" stroke-width="1" opacity="0.996078431372549" d="M 70.5 192 Q 75 191 76 193.5 L 71.5 194 L 70.5 192 Z " /><path fill="rgb(251,216,69)" stroke="rgb(251,216,69)" stroke-width="1" opacity="0.996078431372549" d="M 131 192 L 137 192.5 L 131 194 L 131 192 Z " /><path fill="rgb(252,213,63)" stroke="rgb(252,213,63)" stroke-width="1" opacity="1" d="M 21.5 54 L 22 59.5 L 21 59.5 L 21.5 54 Z " /><path fill="rgb(252,213,63)" stroke="rgb(252,213,63)" stroke-width="1" opacity="1" d="M 100.5 108 L 128 111 Q 126.6 115 133.5 113 L 139.5 117 L 146 118 L 146 120 L 149 120 Q 147.9 122.7 150.5 122 L 156 125 Q 154.8 128 158.5 127 L 170.5 134 L 195 134 Q 196.3 139.3 193 138.5 L 193 142.5 L 193.5 144 L 191 145.5 L 192 150 Q 189 148.8 190 152.5 Q 187.3 153.6 188 157 L 186 157 L 186 160 Q 183 158.8 184 162.5 L 181 167 Q 178.3 165.9 179 168.5 L 177 172 L 172 174 L 172 176 L 170 176 Q 171.1 178.7 168.5 178 Q 167.2 181.7 163 181 L 163 183 L 160 183 L 160 185 L 158 185 Q 159.1 187.7 156.5 187 L 154.5 186 Q 153.3 189 149 188 Q 150.4 192 143.5 190 L 141.5 192 L 131 192 L 130.5 194 L 76.5 194 L 74.5 192 L 63 192 Q 64.3 188.3 58.5 190 L 44 183 L 44 181 L 40 181 Q 41.1 178.3 38.5 179 L 33 176 L 21 160.5 L 21 158 Q 18 159.3 19 155.5 L 14 145.5 L 14 141 L 12 140.5 L 12 134 L 35.5 134 L 48.5 129 L 58 122 L 58 120 Q 62.1 121.3 61 118 L 64.5 118 Q 66.6 114.1 72 115 Q 70.6 111 77.5 113 L 79.5 111 L 99.5 109 L 100.5 108 Z " /></svg>