<svg width="200" height="200" version="1.1" xmlns="http://www.w3.org/2000/svg" desc="Created with imagetracer.js version 1.2.6" ><path fill="rgb(0,0,0)" stroke="rgb(0,0,0)" stroke-width="1" opacity="0" d="M 0 0 L 200 0 L 200 200 L 0 200 L 0 0 Z M 67 19 L 63 21 L 64 29 Q 69 37 81 40 L 95 39 L 99 37 Q 101 38 100 31 L 88 19 L 67 19 Z M 110 26 L 108 27 L 104 31 L 101 38 L 102 41 Q 91 39 85 44 Q 82 43 83 46 L 77 49 L 65 62 L 58 77 L 57 86 L 54 91 L 54 126 L 56 128 L 57 138 L 60 145 L 65 155 L 71 162 L 71 164 L 73 164 Q 72 167 75 166 L 79 172 L 82 172 L 93 180 L 99 181 L 104 184 L 124 184 L 125 183 Q 130 185 129 181 L 133 180 L 136 177 L 137 173 L 137 157 L 136 156 L 137 141 Q 140 139 138 138 Q 137 133 140 134 L 141 121 L 127 121 L 123 124 L 116 121 L 110 115 L 111 112 L 122 104 Q 126 104 127 107 L 146 107 L 147 106 L 147 79 L 141 64 L 141 61 L 138 57 L 129 47 L 121 43 L 108 42 L 111 34 L 115 32 Q 118 23 110 26 Z M 120 107 L 118 108 L 113 113 L 113 116 L 120 121 L 125 121 L 126 119 L 128 117 L 152 117 L 153 116 Q 154 111 152 110 L 127 110 L 126 109 Q 125 106 120 107 Z " /><path fill="rgb(90,96,97)" stroke="rgb(90,96,97)" stroke-width="1" opacity="0.8705882352941177" d="M 70.5 19 L 73 19.5 L 67.5 22 L 68.5 20 L 70.5 19 Z " /><path fill="rgb(90,96,97)" stroke="rgb(90,96,97)" stroke-width="1" opacity="0.8705882352941177" d="M 83.5 19 L 86 20.5 L 84.5 21 L 83.5 19 Z " /><path fill="rgb(90,96,97)" stroke="rgb(90,96,97)" stroke-width="1" opacity="0.8705882352941177" d="M 87.5 21 L 88.5 23 L 87.5 21 Z " /><path fill="rgb(90,96,97)" stroke="rgb(90,96,97)" stroke-width="1" opacity="0.8705882352941177" d="M 65.5 22 L 65 23.5 L 64.5 26 L 64 23.5 L 65.5 22 Z " /><path fill="rgb(90,96,97)" stroke="rgb(90,96,97)" stroke-width="1" opacity="0.8705882352941177" d="M 75.5 23 L 80 23.5 L 75.5 24 L 75.5 23 Z " /><path fill="rgb(90,96,97)" stroke="rgb(90,96,97)" stroke-width="1" opacity="0.8705882352941177" d="M 90.5 23 L 95.5 29 L 90.5 23 Z " /><path fill="rgb(90,96,97)" stroke="rgb(90,96,97)" stroke-width="1" opacity="0.8705882352941177" d="M 71.5 24 L 73 24.5 L 71 25 L 75.5 31 Q 80.2 34.8 90.5 33 L 92 31.5 L 86.5 26 L 82 24.5 L 84.5 24 L 93 31.5 L 91.5 34 L 82.5 35 Q 74.2 32.9 70 26.5 L 71.5 24 Z " /><path fill="rgb(90,96,97)" stroke="rgb(90,96,97)" stroke-width="1" opacity="0.8705882352941177" d="M 65.5 27 L 66.5 29 L 65.5 27 Z " /><path fill="rgb(90,96,97)" stroke="rgb(90,96,97)" stroke-width="1" opacity="0.8705882352941177" d="M 110.5 27 L 114 28.5 L 113.5 30 L 113 28 L 109.5 29 L 110.5 27 Z " /><path fill="rgb(90,96,97)" stroke="rgb(90,96,97)" stroke-width="1" opacity="0.8705882352941177" d="M 96.5 30 L 98.5 33 L 96.5 30 Z " /><path fill="rgb(90,96,97)" stroke="rgb(90,96,97)" stroke-width="1" opacity="0.8705882352941177" d="M 107.5 30 L 106 32.5 L 102.5 41 L 102 38.5 L 107.5 30 Z " /><path fill="rgb(90,96,97)" stroke="rgb(90,96,97)" stroke-width="1" opacity="0.8705882352941177" d="M 70.5 32 L 73.5 36 L 70.5 32 Z " /><path fill="rgb(90,96,97)" stroke="rgb(90,96,97)" stroke-width="1" opacity="0.8705882352941177" d="M 110.5 32 L 110 33.5 L 108.5 36 L 109 34.5 L 110.5 32 Z " /><path fill="rgb(90,96,97)" stroke="rgb(90,96,97)" stroke-width="1" opacity="0.8705882352941177" d="M 98.5 34 L 97.5 36 L 98.5 34 Z " /><path fill="rgb(90,96,97)" stroke="rgb(90,96,97)" stroke-width="1" opacity="0.8705882352941177" d="M 81.5 38 L 89 38.5 L 81.5 39 L 81.5 38 Z " /><path fill="rgb(90,96,97)" stroke="rgb(90,96,97)" stroke-width="1" opacity="0.8705882352941177" d="M 106.5 41 L 107 43.5 L 106 43.5 L 106.5 41 Z " /><path fill="rgb(90,96,97)" stroke="rgb(90,96,97)" stroke-width="1" opacity="0.8705882352941177" d="M 94.5 42 L 98 42.5 L 94.5 43 L 94.5 42 Z " /><path fill="rgb(90,96,97)" stroke="rgb(90,96,97)" stroke-width="1" opacity="0.8705882352941177" d="M 102.5 42 L 103 44 L 100 43.5 L 102.5 42 Z " /><path fill="rgb(90,96,97)" stroke="rgb(90,96,97)" stroke-width="1" opacity="0.8705882352941177" d="M 85.5 45 L 83.5 48 L 81.5 49 L 82.5 47 L 85.5 45 Z " /><path fill="rgb(90,96,97)" stroke="rgb(90,96,97)" stroke-width="1" opacity="0.8705882352941177" d="M 121.5 45 L 125 47.5 L 123.5 47 L 121.5 45 Z " /><path fill="rgb(90,96,97)" stroke="rgb(90,96,97)" stroke-width="1" opacity="0.8705882352941177" d="M 94.5 46 L 98 46.5 L 94.5 47 L 94.5 46 Z " /><path fill="rgb(90,96,97)" stroke="rgb(90,96,97)" stroke-width="1" opacity="0.8705882352941177" d="M 99.5 47 L 102 48.5 L 100.5 49 L 99.5 47 Z " /><path fill="rgb(90,96,97)" stroke="rgb(90,96,97)" stroke-width="1" opacity="0.8705882352941177" d="M 109.5 47 L 111 47.5 L 107.5 49 L 107.5 48 L 109.5 47 Z " /><path fill="rgb(90,96,97)" stroke="rgb(90,96,97)" stroke-width="1" opacity="0.8705882352941177" d="M 126.5 48 L 130.5 53 L 126.5 48 Z " /><path fill="rgb(90,96,97)" stroke="rgb(90,96,97)" stroke-width="1" opacity="0.8705882352941177" d="M 76.5 51 L 74.5 54 L 76.5 51 Z " /><path fill="rgb(90,96,97)" stroke="rgb(90,96,97)" stroke-width="1" opacity="0.8705882352941177" d="M 123.5 51 L 124.5 53 L 123.5 51 Z " /><path fill="rgb(90,96,97)" stroke="rgb(90,96,97)" stroke-width="1" opacity="0.8705882352941177" d="M 79.5 54 L 74.5 60 L 79.5 54 Z " /><path fill="rgb(90,96,97)" stroke="rgb(90,96,97)" stroke-width="1" opacity="0.8705882352941177" d="M 128.5 55 L 131.5 59 L 128.5 55 Z " /><path fill="rgb(90,96,97)" stroke="rgb(90,96,97)" stroke-width="1" opacity="0.8705882352941177" d="M 134.5 56 L 140 62.5 L 137 60.5 L 134.5 56 Z " /><path fill="rgb(90,96,97)" stroke="rgb(90,96,97)" stroke-width="1" opacity="0.8705882352941177" d="M 70.5 58 L 70 59.5 Q 70.8 61.8 68.5 61 L 70.5 58 Z " /><path fill="rgb(90,96,97)" stroke="rgb(90,96,97)" stroke-width="1" opacity="0.8705882352941177" d="M 95.5 59 L 98 59.5 L 95.5 60 L 95.5 59 Z " /><path fill="rgb(90,96,97)" stroke="rgb(90,96,97)" stroke-width="1" opacity="0.8705882352941177" d="M 101.5 59 L 104 59.5 L 101.5 60 L 101.5 59 Z " /><path fill="rgb(90,96,97)" stroke="rgb(90,96,97)" stroke-width="1" opacity="0.8705882352941177" d="M 72.5 62 L 71 64.5 L 69.5 67 L 70 65.5 L 72.5 62 Z " /><path fill="rgb(90,96,97)" stroke="rgb(90,96,97)" stroke-width="1" opacity="0.8705882352941177" d="M 108.5 62 L 109.5 64 L 108.5 62 Z " /><path fill="rgb(90,96,97)" stroke="rgb(90,96,97)" stroke-width="1" opacity="0.8705882352941177" d="M 88.5 63 L 86.5 66 L 88.5 63 Z " /><path fill="rgb(90,96,97)" stroke="rgb(90,96,97)" stroke-width="1" opacity="0.8705882352941177" d="M 98.5 63 L 101 63.5 L 98.5 64 L 98.5 63 Z " /><path fill="rgb(90,96,97)" stroke="rgb(90,96,97)" stroke-width="1" opacity="0.8705882352941177" d="M 103.5 64 L 104.5 66 L 103.5 64 Z " /><path fill="rgb(90,96,97)" stroke="rgb(90,96,97)" stroke-width="1" opacity="0.8705882352941177" d="M 111.5 64 L 112.5 66 L 111.5 64 Z " /><path fill="rgb(90,96,97)" stroke="rgb(90,96,97)" stroke-width="1" opacity="0.8705882352941177" d="M 93.5 65 L 87.5 72 L 90 68.5 L 91.5 66 L 93.5 65 Z " /><path fill="rgb(90,96,97)" stroke="rgb(90,96,97)" stroke-width="1" opacity="0.8705882352941177" d="M 106.5 66 L 111 69.5 L 109.5 69 L 106.5 66 Z " /><path fill="rgb(90,96,97)" stroke="rgb(90,96,97)" stroke-width="1" opacity="0.8705882352941177" d="M 64.5 67 L 64 68.5 L 63.5 70 L 63 68.5 L 64.5 67 Z " /><path fill="rgb(90,96,97)" stroke="rgb(90,96,97)" stroke-width="1" opacity="0.8705882352941177" d="M 115.5 67 L 120.5 73 L 115.5 67 Z " /><path fill="rgb(90,96,97)" stroke="rgb(90,96,97)" stroke-width="1" opacity="0.8705882352941177" d="M 141.5 67 Q 143.8 67.8 143 71.5 L 142 71.5 L 141.5 67 Z " /><path fill="rgb(90,96,97)" stroke="rgb(90,96,97)" stroke-width="1" opacity="0.8705882352941177" d="M 84.5 68 L 84 69.5 L 81.5 74 L 82 72.5 L 84.5 68 Z " /><path fill="rgb(90,96,97)" stroke="rgb(90,96,97)" stroke-width="1" opacity="0.8705882352941177" d="M 113.5 71 L 118 76.5 L 116 75.5 L 113.5 71 Z " /><path fill="rgb(90,96,97)" stroke="rgb(90,96,97)" stroke-width="1" opacity="0.8705882352941177" d="M 86.5 73 L 87 74.5 L 85.5 77 L 85 75.5 L 86.5 73 Z " /><path fill="rgb(90,96,97)" stroke="rgb(90,96,97)" stroke-width="1" opacity="0.8705882352941177" d="M 102.5 73 L 101.5 75 L 102.5 73 Z " /><path fill="rgb(90,96,97)" stroke="rgb(90,96,97)" stroke-width="1" opacity="0.8705882352941177" d="M 104.5 73 L 105.5 75 L 104.5 73 Z " /><path fill="rgb(90,96,97)" stroke="rgb(90,96,97)" stroke-width="1" opacity="0.8705882352941177" d="M 143.5 73 L 145 75.5 L 143 76 L 143.5 73 Z " /><path fill="rgb(90,96,97)" stroke="rgb(90,96,97)" stroke-width="1" opacity="0.8705882352941177" d="M 65.5 74 L 66 75.5 L 64.5 78 L 64 76.5 L 65.5 74 Z " /><path fill="rgb(90,96,97)" stroke="rgb(90,96,97)" stroke-width="1" opacity="0.8705882352941177" d="M 140.5 77 L 141 79.5 L 140 79.5 L 140.5 77 Z " /><path fill="rgb(90,96,97)" stroke="rgb(90,96,97)" stroke-width="1" opacity="0.8705882352941177" d="M 144.5 80 Q 147.9 79.1 146 84.5 L 145 84.5 L 144.5 80 Z " /><path fill="rgb(90,96,97)" stroke="rgb(90,96,97)" stroke-width="1" opacity="0.8705882352941177" d="M 58.5 82 L 59 84.5 L 55.5 98 L 55 92.5 L 58.5 82 Z " /><path fill="rgb(90,96,97)" stroke="rgb(90,96,97)" stroke-width="1" opacity="0.8705882352941177" d="M 83.5 82 L 84 85.5 L 83 85.5 L 83.5 82 Z " /><path fill="rgb(90,96,97)" stroke="rgb(90,96,97)" stroke-width="1" opacity="0.8705882352941177" d="M 124.5 82 L 125 84.5 L 124 84.5 L 124.5 82 Z " /><path fill="rgb(90,96,97)" stroke="rgb(90,96,97)" stroke-width="1" opacity="0.8705882352941177" d="M 141.5 83 L 142 98.5 L 141 98.5 L 141.5 83 Z " /><path fill="rgb(90,96,97)" stroke="rgb(90,96,97)" stroke-width="1" opacity="0.8705882352941177" d="M 93.5 85 L 97 85.5 L 93.5 86 L 93.5 85 Z " /><path fill="rgb(90,96,97)" stroke="rgb(90,96,97)" stroke-width="1" opacity="0.8705882352941177" d="M 78.5 86 L 79 101.5 L 78 101.5 L 78.5 86 Z " /><path fill="rgb(90,96,97)" stroke="rgb(90,96,97)" stroke-width="1" opacity="0.8705882352941177" d="M 125.5 87 L 126 89.5 L 125 89.5 L 125.5 87 Z " /><path fill="rgb(90,96,97)" stroke="rgb(90,96,97)" stroke-width="1" opacity="0.8705882352941177" d="M 60.5 91 L 61 94.5 L 60 94.5 L 60.5 91 Z " /><path fill="rgb(90,96,97)" stroke="rgb(90,96,97)" stroke-width="1" opacity="0.8705882352941177" d="M 109.5 92 L 113 94.5 L 112.5 97 L 110.5 93 L 108 94.5 L 107.5 103 L 107 94.5 L 109.5 92 Z " /><path fill="rgb(90,96,97)" stroke="rgb(90,96,97)" stroke-width="1" opacity="0.8705882352941177" d="M 125.5 95 L 126 98.5 L 125 98.5 L 125.5 95 Z " /><path fill="rgb(90,96,97)" stroke="rgb(90,96,97)" stroke-width="1" opacity="0.8705882352941177" d="M 120.5 97 L 121 101 L 123 101.5 L 120 102 L 120.5 97 Z " /><path fill="rgb(90,96,97)" stroke="rgb(90,96,97)" stroke-width="1" opacity="0.8705882352941177" d="M 145.5 98 L 146 102.5 L 145 106 L 140 106 L 140 103.5 L 141 103.5 Q 140.2 106.5 144 105 L 145.5 98 Z " /><path fill="rgb(90,96,97)" stroke="rgb(90,96,97)" stroke-width="1" opacity="0.8705882352941177" d="M 112.5 99 L 113 102.5 L 112 102.5 L 112.5 99 Z " /><path fill="rgb(90,96,97)" stroke="rgb(90,96,97)" stroke-width="1" opacity="0.8705882352941177" d="M 59.5 102 L 60 115.5 L 59 115.5 L 59.5 102 Z " /><path fill="rgb(90,96,97)" stroke="rgb(90,96,97)" stroke-width="1" opacity="0.8705882352941177" d="M 83.5 102 L 84 118.5 L 83 118.5 L 83.5 102 Z " /><path fill="rgb(90,96,97)" stroke="rgb(90,96,97)" stroke-width="1" opacity="0.8705882352941177" d="M 97.5 105 L 96.5 107 L 97.5 105 Z " /><path fill="rgb(90,96,97)" stroke="rgb(90,96,97)" stroke-width="1" opacity="0.8705882352941177" d="M 121.5 108 L 124 109.5 L 124.5 111 L 149.5 111 L 152 112.5 L 125.5 113 L 123 109 L 121.5 108 Z " /><path fill="rgb(90,96,97)" stroke="rgb(90,96,97)" stroke-width="1" opacity="0.8705882352941177" d="M 119.5 109 L 117.5 112 L 115.5 113 L 116.5 111 L 119.5 109 Z " /><path fill="rgb(90,96,97)" stroke="rgb(90,96,97)" stroke-width="1" opacity="0.8705882352941177" d="M 115.5 115 L 116.5 117 L 115.5 115 Z " /><path fill="rgb(90,96,97)" stroke="rgb(90,96,97)" stroke-width="1" opacity="0.8705882352941177" d="M 124.5 116 L 125 117.5 L 121.5 120 L 121.5 119 Q 123.8 119.8 123 117.5 L 124.5 116 Z " /><path fill="rgb(90,96,97)" stroke="rgb(90,96,97)" stroke-width="1" opacity="0.8705882352941177" d="M 118.5 117 L 119.5 119 L 118.5 117 Z " /><path fill="rgb(90,96,97)" stroke="rgb(90,96,97)" stroke-width="1" opacity="0.8705882352941177" d="M 55.5 119 L 57 126.5 L 56 126.5 L 55.5 119 Z " /><path fill="rgb(90,96,97)" stroke="rgb(90,96,97)" stroke-width="1" opacity="0.8705882352941177" d="M 78.5 119 L 79 121.5 L 78 121.5 L 78.5 119 Z " /><path fill="rgb(90,96,97)" stroke="rgb(90,96,97)" stroke-width="1" opacity="0.8705882352941177" d="M 60.5 122 L 61 124.5 L 60 124.5 L 60.5 122 Z " /><path fill="rgb(90,96,97)" stroke="rgb(90,96,97)" stroke-width="1" opacity="0.8705882352941177" d="M 82.5 122 L 83 129.5 L 82 129.5 L 82.5 122 Z " /><path fill="rgb(90,96,97)" stroke="rgb(90,96,97)" stroke-width="1" opacity="0.8705882352941177" d="M 104.5 122 L 105 125.5 L 104 125.5 L 104.5 122 Z " /><path fill="rgb(90,96,97)" stroke="rgb(90,96,97)" stroke-width="1" opacity="0.8705882352941177" d="M 136.5 122 L 140 122.5 L 136.5 123 L 136.5 122 Z " /><path fill="rgb(90,96,97)" stroke="rgb(90,96,97)" stroke-width="1" opacity="0.8705882352941177" d="M 91.5 123 L 95 124.5 L 93.5 124 Q 89.3 122.7 91 127.5 L 90 127.5 Q 89.3 123.8 91.5 123 Z " /><path fill="rgb(90,96,97)" stroke="rgb(90,96,97)" stroke-width="1" opacity="0.8705882352941177" d="M 135.5 124 L 136 126.5 L 135 126.5 L 135.5 124 Z " /><path fill="rgb(90,96,97)" stroke="rgb(90,96,97)" stroke-width="1" opacity="0.8705882352941177" d="M 119.5 125 Q 123.3 124.3 124 126.5 L 123.5 137 L 123 127 Q 118.8 127.1 119.5 125 Z " /><path fill="rgb(90,96,97)" stroke="rgb(90,96,97)" stroke-width="1" opacity="0.8705882352941177" d="M 110.5 127 L 111 130.5 L 110 130.5 L 110.5 127 Z " /><path fill="rgb(90,96,97)" stroke="rgb(90,96,97)" stroke-width="1" opacity="0.8705882352941177" d="M 56.5 128 Q 59.1 127.2 58 130.5 L 57 130.5 L 56.5 128 Z " /><path fill="rgb(90,96,97)" stroke="rgb(90,96,97)" stroke-width="1" opacity="0.8705882352941177" d="M 138.5 130 L 139 131.5 L 137.5 134 L 137 131.5 L 138.5 130 Z " /><path fill="rgb(90,96,97)" stroke="rgb(90,96,97)" stroke-width="1" opacity="0.8705882352941177" d="M 78.5 131 L 79 133.5 L 78 133.5 L 78.5 131 Z " /><path fill="rgb(90,96,97)" stroke="rgb(90,96,97)" stroke-width="1" opacity="0.8705882352941177" d="M 58.5 132 L 59 134.5 L 58 134.5 L 58.5 132 Z " /><path fill="rgb(90,96,97)" stroke="rgb(90,96,97)" stroke-width="1" opacity="0.8705882352941177" d="M 83.5 132 L 84 134.5 L 83 134.5 L 83.5 132 Z " /><path fill="rgb(90,96,97)" stroke="rgb(90,96,97)" stroke-width="1" opacity="0.8705882352941177" d="M 98.5 134 L 99.5 136 L 98.5 134 Z " /><path fill="rgb(90,96,97)" stroke="rgb(90,96,97)" stroke-width="1" opacity="0.8705882352941177" d="M 137.5 135 L 138 136.5 L 136.5 139 L 136 136.5 L 137.5 135 Z " /><path fill="rgb(90,96,97)" stroke="rgb(90,96,97)" stroke-width="1" opacity="0.8705882352941177" d="M 118.5 136 L 119 142.5 L 118 142.5 L 118.5 136 Z " /><path fill="rgb(90,96,97)" stroke="rgb(90,96,97)" stroke-width="1" opacity="0.8705882352941177" d="M 94.5 137 L 95.5 139 L 94.5 137 Z " /><path fill="rgb(90,96,97)" stroke="rgb(90,96,97)" stroke-width="1" opacity="0.8705882352941177" d="M 100.5 137 L 102 139.5 L 101 139.5 L 100.5 137 Z " /><path fill="rgb(90,96,97)" stroke="rgb(90,96,97)" stroke-width="1" opacity="0.8705882352941177" d="M 132.5 137 L 133 139.5 L 132 139.5 L 132.5 137 Z " /><path fill="rgb(90,96,97)" stroke="rgb(90,96,97)" stroke-width="1" opacity="0.8705882352941177" d="M 96.5 140 L 98.5 143 L 96.5 140 Z " /><path fill="rgb(90,96,97)" stroke="rgb(90,96,97)" stroke-width="1" opacity="0.8705882352941177" d="M 86.5 141 L 88 143.5 L 86 142.5 L 86.5 141 Z " /><path fill="rgb(90,96,97)" stroke="rgb(90,96,97)" stroke-width="1" opacity="0.8705882352941177" d="M 111.5 141 L 112.5 143 L 111.5 141 Z " /><path fill="rgb(90,96,97)" stroke="rgb(90,96,97)" stroke-width="1" opacity="0.8705882352941177" d="M 61.5 143 L 64 146.5 L 62 145.5 L 61.5 143 Z " /><path fill="rgb(90,96,97)" stroke="rgb(90,96,97)" stroke-width="1" opacity="0.8705882352941177" d="M 107.5 143 L 109 150.5 L 107 149.5 L 107.5 143 Z " /><path fill="rgb(90,96,97)" stroke="rgb(90,96,97)" stroke-width="1" opacity="0.8705882352941177" d="M 136.5 143 L 136 144.5 L 135.5 147 L 135 144.5 L 136.5 143 Z " /><path fill="rgb(90,96,97)" stroke="rgb(90,96,97)" stroke-width="1" opacity="0.8705882352941177" d="M 112.5 144 L 113 149.5 L 111 150.5 L 112.5 144 Z " /><path fill="rgb(90,96,97)" stroke="rgb(90,96,97)" stroke-width="1" opacity="0.8705882352941177" d="M 122.5 144 L 123 146.5 L 122 146.5 L 122.5 144 Z " /><path fill="rgb(90,96,97)" stroke="rgb(90,96,97)" stroke-width="1" opacity="0.8705882352941177" d="M 131.5 144 L 132 146.5 L 131 146.5 L 131.5 144 Z " /><path fill="rgb(90,96,97)" stroke="rgb(90,96,97)" stroke-width="1" opacity="0.8705882352941177" d="M 89.5 147 L 91.5 150 L 89.5 147 Z " /><path fill="rgb(90,96,97)" stroke="rgb(90,96,97)" stroke-width="1" opacity="0.8705882352941177" d="M 117.5 147 L 118 149.5 L 117 149.5 L 117.5 147 Z " /><path fill="rgb(90,96,97)" stroke="rgb(90,96,97)" stroke-width="1" opacity="0.8705882352941177" d="M 84.5 148 L 85.5 150 L 84.5 148 Z " /><path fill="rgb(90,96,97)" stroke="rgb(90,96,97)" stroke-width="1" opacity="0.8705882352941177" d="M 69.5 149 L 72 152.5 L 70 151.5 L 69.5 149 Z " /><path fill="rgb(90,96,97)" stroke="rgb(90,96,97)" stroke-width="1" opacity="0.8705882352941177" d="M 135.5 150 L 136 155.5 L 135 155.5 L 135.5 150 Z " /><path fill="rgb(90,96,97)" stroke="rgb(90,96,97)" stroke-width="1" opacity="0.8705882352941177" d="M 86.5 151 L 87.5 153 L 86.5 151 Z " /><path fill="rgb(90,96,97)" stroke="rgb(90,96,97)" stroke-width="1" opacity="0.8705882352941177" d="M 92.5 151 L 101.5 160 L 107.5 161 L 113.5 157 L 111.5 160 Q 109.2 162.7 103.5 162 L 92.5 151 Z " /><path fill="rgb(90,96,97)" stroke="rgb(90,96,97)" stroke-width="1" opacity="0.8705882352941177" d="M 67.5 154 L 73 160.5 L 68 156.5 L 67.5 154 Z " /><path fill="rgb(90,96,97)" stroke="rgb(90,96,97)" stroke-width="1" opacity="0.8705882352941177" d="M 72.5 154 L 73.5 156 L 72.5 154 Z " /><path fill="rgb(90,96,97)" stroke="rgb(90,96,97)" stroke-width="1" opacity="0.8705882352941177" d="M 88.5 154 L 97.5 164 L 88.5 154 Z " /><path fill="rgb(90,96,97)" stroke="rgb(90,96,97)" stroke-width="1" opacity="0.8705882352941177" d="M 115.5 154 L 114.5 156 L 115.5 154 Z " /><path fill="rgb(90,96,97)" stroke="rgb(90,96,97)" stroke-width="1" opacity="0.8705882352941177" d="M 119.5 157 L 117.5 160 L 119.5 157 Z " /><path fill="rgb(90,96,97)" stroke="rgb(90,96,97)" stroke-width="1" opacity="0.8705882352941177" d="M 75.5 158 L 83.5 167 L 75.5 158 Z " /><path fill="rgb(90,96,97)" stroke="rgb(90,96,97)" stroke-width="1" opacity="0.8705882352941177" d="M 135.5 158 L 137 162.5 L 135 161.5 L 135.5 158 Z " /><path fill="rgb(90,96,97)" stroke="rgb(90,96,97)" stroke-width="1" opacity="0.8705882352941177" d="M 73.5 162 L 81.5 171 L 73.5 162 Z " /><path fill="rgb(90,96,97)" stroke="rgb(90,96,97)" stroke-width="1" opacity="0.8705882352941177" d="M 113.5 163 L 112.5 165 L 113.5 163 Z " /><path fill="rgb(90,96,97)" stroke="rgb(90,96,97)" stroke-width="1" opacity="0.8705882352941177" d="M 132.5 164 L 133 166.5 L 132 166.5 L 132.5 164 Z " /><path fill="rgb(90,96,97)" stroke="rgb(90,96,97)" stroke-width="1" opacity="0.8705882352941177" d="M 86.5 168 L 87.5 170 L 86.5 168 Z " /><path fill="rgb(90,96,97)" stroke="rgb(90,96,97)" stroke-width="1" opacity="0.8705882352941177" d="M 89.5 170 L 90.5 172 L 89.5 170 Z " /><path fill="rgb(90,96,97)" stroke="rgb(90,96,97)" stroke-width="1" opacity="0.8705882352941177" d="M 135 170 L 137 170.5 L 134.5 174 L 135 172.5 L 135 170 Z " /><path fill="rgb(90,96,97)" stroke="rgb(90,96,97)" stroke-width="1" opacity="0.8705882352941177" d="M 83.5 171 L 88 174.5 L 86.5 174 L 83.5 171 Z " /><path fill="rgb(90,96,97)" stroke="rgb(90,96,97)" stroke-width="1" opacity="0.8705882352941177" d="M 130.5 172 L 127.5 176 L 130.5 172 Z " /><path fill="rgb(90,96,97)" stroke="rgb(90,96,97)" stroke-width="1" opacity="0.8705882352941177" d="M 94.5 173 L 97 174.5 L 95.5 175 L 94.5 173 Z " /><path fill="rgb(90,96,97)" stroke="rgb(90,96,97)" stroke-width="1" opacity="0.8705882352941177" d="M 133.5 175 L 129.5 180 L 126.5 181 L 126.5 180 L 133.5 175 Z " /><path fill="rgb(90,96,97)" stroke="rgb(90,96,97)" stroke-width="1" opacity="0.8705882352941177" d="M 93.5 177 L 102 181.5 L 100.5 181 Q 94 180.5 93.5 177 Z " /><path fill="rgb(90,96,97)" stroke="rgb(90,96,97)" stroke-width="1" opacity="0.8705882352941177" d="M 108.5 178 L 120 178.5 L 108.5 179 L 108.5 178 Z " /><path fill="rgb(90,96,97)" stroke="rgb(90,96,97)" stroke-width="1" opacity="0.8705882352941177" d="M 105.5 182 L 108 182.5 L 105.5 183 L 105.5 182 Z " /><path fill="rgb(47,69,88)" stroke="rgb(47,69,88)" stroke-width="1" opacity="0.8470588235294118" d="M 73.5 19 L 82.5 19 L 84 20.5 L 72.5 21 L 73.5 19 Z " /><path fill="rgb(47,69,88)" stroke="rgb(47,69,88)" stroke-width="1" opacity="0.8470588235294118" d="M 86.5 21 L 87.5 23 L 86.5 21 Z " /><path fill="rgb(47,69,88)" stroke="rgb(47,69,88)" stroke-width="1" opacity="0.8470588235294118" d="M 89.5 23 L 95.5 30 L 89.5 23 Z " /><path fill="rgb(47,69,88)" stroke="rgb(47,69,88)" stroke-width="1" opacity="0.8470588235294118" d="M 65.5 25 L 67 27.5 L 65 26.5 L 65.5 25 Z " /><path fill="rgb(47,69,88)" stroke="rgb(47,69,88)" stroke-width="1" opacity="0.8470588235294118" d="M 110.5 28 L 106.5 33 L 108 30.5 Q 107.3 28.3 109.5 29 L 110.5 28 Z " /><path fill="rgb(47,69,88)" stroke="rgb(47,69,88)" stroke-width="1" opacity="0.8470588235294118" d="M 67.5 29 L 71 31.5 L 69.5 32 L 67.5 29 Z " /><path fill="rgb(47,69,88)" stroke="rgb(47,69,88)" stroke-width="1" opacity="0.8470588235294118" d="M 112.5 29 L 113 30.5 L 109.5 33 L 112.5 29 Z " /><path fill="rgb(47,69,88)" stroke="rgb(47,69,88)" stroke-width="1" opacity="0.8470588235294118" d="M 97.5 32 Q 101 34 96.5 36 L 97 34.5 L 97.5 32 Z " /><path fill="rgb(47,69,88)" stroke="rgb(47,69,88)" stroke-width="1" opacity="0.8470588235294118" d="M 72.5 33 L 74.5 36 L 72.5 33 Z " /><path fill="rgb(47,69,88)" stroke="rgb(47,69,88)" stroke-width="1" opacity="0.8470588235294118" d="M 78.5 37 L 82 37.5 L 78.5 38 L 78.5 37 Z " /><path fill="rgb(47,69,88)" stroke="rgb(47,69,88)" stroke-width="1" opacity="0.8470588235294118" d="M 87.5 37 L 92 37.5 L 87.5 38 L 87.5 37 Z " /><path fill="rgb(47,69,88)" stroke="rgb(47,69,88)" stroke-width="1" opacity="0.8470588235294118" d="M 106.5 38 L 107 40.5 L 106 40.5 L 106.5 38 Z " /><path fill="rgb(47,69,88)" stroke="rgb(47,69,88)" stroke-width="1" opacity="0.8470588235294118" d="M 103.5 40 L 104 42.5 L 102 41.5 L 103.5 40 Z " /><path fill="rgb(47,69,88)" stroke="rgb(47,69,88)" stroke-width="1" opacity="0.8470588235294118" d="M 110.5 43 L 115 43.5 L 110.5 44 L 110.5 43 Z " /><path fill="rgb(47,69,88)" stroke="rgb(47,69,88)" stroke-width="1" opacity="0.8470588235294118" d="M 116.5 44 L 122 46.5 L 120.5 46 Q 115.7 46 116.5 44 Z " /><path fill="rgb(47,69,88)" stroke="rgb(47,69,88)" stroke-width="1" opacity="0.8470588235294118" d="M 86.5 45 L 88 45.5 L 79.5 51 L 80.5 49 L 86.5 45 Z " /><path fill="rgb(47,69,88)" stroke="rgb(47,69,88)" stroke-width="1" opacity="0.8470588235294118" d="M 77.5 51 L 78 52.5 L 71.5 58 L 77.5 51 Z " /><path fill="rgb(47,69,88)" stroke="rgb(47,69,88)" stroke-width="1" opacity="0.8470588235294118" d="M 131.5 53 L 133.5 56 L 131.5 53 Z " /><path fill="rgb(47,69,88)" stroke="rgb(47,69,88)" stroke-width="1" opacity="0.8470588235294118" d="M 68.5 61 L 69 63 L 67 62.5 L 68.5 61 Z " /><path fill="rgb(47,69,88)" stroke="rgb(47,69,88)" stroke-width="1" opacity="0.8470588235294118" d="M 137.5 61 L 140 63.5 L 142 70.5 L 141 70.5 L 137.5 61 Z " /><path fill="rgb(47,69,88)" stroke="rgb(47,69,88)" stroke-width="1" opacity="0.8470588235294118" d="M 66.5 64 L 67 65.5 L 60.5 79 L 60 77.5 L 63 71.5 L 62.5 70 Q 64.8 70.8 64 68.5 L 66.5 64 Z " /><path fill="rgb(47,69,88)" stroke="rgb(47,69,88)" stroke-width="1" opacity="0.8470588235294118" d="M 142 72 L 144 72.5 L 142 73.5 L 142 72 Z " /><path fill="rgb(47,69,88)" stroke="rgb(47,69,88)" stroke-width="1" opacity="0.8470588235294118" d="M 143 76 Q 145.7 74.9 145 77.5 L 144.5 80 L 143 76 Z " /><path fill="rgb(47,69,88)" stroke="rgb(47,69,88)" stroke-width="1" opacity="0.8470588235294118" d="M 58.5 85 L 59 87.5 L 58 87.5 L 58.5 85 Z " /><path fill="rgb(47,69,88)" stroke="rgb(47,69,88)" stroke-width="1" opacity="0.8470588235294118" d="M 145.5 85 L 146 97.5 L 145 97.5 L 145.5 85 Z " /><path fill="rgb(47,69,88)" stroke="rgb(47,69,88)" stroke-width="1" opacity="0.8470588235294118" d="M 56.5 95 L 57 122.5 L 56 122.5 L 55 118.5 L 55 98.5 L 56.5 95 Z " /><path fill="rgb(47,69,88)" stroke="rgb(47,69,88)" stroke-width="1" opacity="0.8470588235294118" d="M 116.5 112 L 116 113.5 L 118 116.5 L 115 114.5 L 116.5 112 Z " /><path fill="rgb(47,69,88)" stroke="rgb(47,69,88)" stroke-width="1" opacity="0.8470588235294118" d="M 150 113 Q 152.7 111.9 152 114.5 L 150.5 116 L 124.5 116 L 123.5 117 L 124.5 115 L 149.5 115 L 150 113 Z " /><path fill="rgb(47,69,88)" stroke="rgb(47,69,88)" stroke-width="1" opacity="0.8470588235294118" d="M 119.5 117 L 120.5 119 L 119.5 117 Z " /><path fill="rgb(47,69,88)" stroke="rgb(47,69,88)" stroke-width="1" opacity="0.8470588235294118" d="M 139.5 123 L 140 125.5 L 139 125.5 L 139.5 123 Z " /><path fill="rgb(47,69,88)" stroke="rgb(47,69,88)" stroke-width="1" opacity="0.8470588235294118" d="M 57.5 126 L 58 128 L 56 127.5 L 57.5 126 Z " /><path fill="rgb(47,69,88)" stroke="rgb(47,69,88)" stroke-width="1" opacity="0.8470588235294118" d="M 138.5 127 L 139 129.5 L 137 130.5 L 138.5 127 Z " /><path fill="rgb(47,69,88)" stroke="rgb(47,69,88)" stroke-width="1" opacity="0.8470588235294118" d="M 136.5 133 Q 139.5 134.5 136.5 136 L 136.5 133 Z " /><path fill="rgb(47,69,88)" stroke="rgb(47,69,88)" stroke-width="1" opacity="0.8470588235294118" d="M 60.5 138 L 63 143.5 L 61 142.5 L 60.5 138 Z " /><path fill="rgb(47,69,88)" stroke="rgb(47,69,88)" stroke-width="1" opacity="0.8470588235294118" d="M 135.5 138 Q 137.8 138.8 137 142.5 L 135 143.5 L 135.5 138 Z " /><path fill="rgb(47,69,88)" stroke="rgb(47,69,88)" stroke-width="1" opacity="0.8470588235294118" d="M 134.5 145 L 136 149.5 L 134.5 158 L 134.5 145 Z " /><path fill="rgb(47,69,88)" stroke="rgb(47,69,88)" stroke-width="1" opacity="0.8470588235294118" d="M 65.5 149 L 67 151.5 L 65 150.5 L 65.5 149 Z " /><path fill="rgb(47,69,88)" stroke="rgb(47,69,88)" stroke-width="1" opacity="0.8470588235294118" d="M 67.5 153 L 73 159.5 L 69 156.5 L 67.5 153 Z " /><path fill="rgb(47,69,88)" stroke="rgb(47,69,88)" stroke-width="1" opacity="0.8470588235294118" d="M 73.5 161 L 89 174.5 L 86.5 173 Q 77.2 169.2 73.5 161 Z " /><path fill="rgb(47,69,88)" stroke="rgb(47,69,88)" stroke-width="1" opacity="0.8470588235294118" d="M 135.5 162 L 137 163.5 L 137 170 L 135 169.5 L 135.5 162 Z " /><path fill="rgb(47,69,88)" stroke="rgb(47,69,88)" stroke-width="1" opacity="0.8470588235294118" d="M 133.5 174 L 129.5 179 L 133.5 174 Z " /><path fill="rgb(47,69,88)" stroke="rgb(47,69,88)" stroke-width="1" opacity="0.8470588235294118" d="M 99.5 179 L 106 181.5 L 102.5 182 L 99.5 179 Z " /><path fill="rgb(47,69,88)" stroke="rgb(47,69,88)" stroke-width="1" opacity="0.8470588235294118" d="M 123.5 180 Q 127.3 179 126 182 L 121 181.5 L 123.5 180 Z " /><path fill="rgb(47,69,88)" stroke="rgb(47,69,88)" stroke-width="1" opacity="0.8470588235294118" d="M 108.5 182 L 120 182.5 L 108.5 183 L 108.5 182 Z " /><path fill="rgb(48,68,85)" stroke="rgb(48,68,85)" stroke-width="1" opacity="0.996078431372549" d="M 68.5 21 L 85.5 21 L 97 31.5 Q 97.8 35.3 95.5 36 L 82.5 38 Q 81.3 35.8 76.5 37 L 71 33 L 69.5 30 L 67 28.5 L 65 23.5 L 68.5 21 Z M 76 23 L 72 24 L 70 27 Q 74 33 83 35 L 92 34 L 93 32 L 85 24 L 76 23 Z " /><path fill="rgb(48,68,85)" stroke="rgb(48,68,85)" stroke-width="1" opacity="0.996078431372549" d="M 111.5 28 L 113 28.5 L 106 38.5 L 106 43.5 L 108.5 45 Q 110 42.5 115.5 44 L 126.5 49 L 136 58.5 L 141 68.5 L 143 78.5 L 145 81.5 L 145 101.5 L 144 105 Q 138.8 106.8 141 99.5 L 142 98.5 L 142 83.5 L 139 70.5 L 128.5 55 L 115.5 47 L 109.5 47 Q 107.8 49.8 102.5 49 Q 100.6 45.4 94.5 46 Q 81.8 50.3 74 59.5 L 64 76.5 L 61 86.5 L 60 101.5 L 59 102.5 L 59 115.5 L 60 116.5 L 61 129.5 L 66 143.5 Q 72.2 157.8 83.5 167 L 95.5 175 L 108.5 179 L 119.5 179 Q 127.3 177.8 131 172.5 L 133 164.5 L 131 156.5 L 131 147.5 L 132 146.5 L 133 133.5 L 136 123 Q 140.5 121.3 139 126.5 L 137 129.5 L 135 138.5 L 134 157.5 L 135 158.5 L 135 170.5 Q 133.6 176.6 128.5 179 L 120.5 182 L 106.5 182 L 89.5 175 L 73 160.5 L 67 152.5 L 59 135.5 Q 59.7 128.8 57 125.5 L 57 91.5 L 59 87.5 L 60 79.5 L 67 63 Q 69.7 64.1 69 61.5 L 75.5 54 L 78 52.5 Q 77.3 50.3 79.5 51 L 90.5 44 L 98.5 43 L 102.5 44 L 104 42.5 Q 103.2 36.2 106 33.5 L 111.5 28 Z " /><path fill="rgb(48,68,85)" stroke="rgb(48,68,85)" stroke-width="1" opacity="0.996078431372549" d="M 98.5 59 L 104.5 60 Q 114.3 65.3 121 73.5 Q 125.5 82 126 94.5 Q 123.7 95.7 125 100.5 L 123.5 102 L 121 101 L 120 81.5 Q 118.5 74.5 113.5 71 L 103.5 64 L 98.5 63 L 90 67.5 L 85 75.5 L 83 82.5 L 83 121.5 Q 80.2 123.3 82 129.5 Q 86.6 150.4 101.5 161 L 107.5 162 L 114 157.5 L 118 149.5 L 119 127 L 123 127.5 L 123 143.5 L 121 154.5 L 114.5 163 Q 111 167 102.5 166 L 99.5 165 L 88 153.5 L 79 135.5 L 78 122.5 L 79 121.5 L 79 82.5 L 81 74.5 L 85 67.5 L 90.5 62 L 98.5 59 Z " /><path fill="rgb(48,68,85)" stroke="rgb(48,68,85)" stroke-width="1" opacity="0.996078431372549" d="M 103.5 73 Q 107.9 74.6 107 81.5 L 104.5 83 L 101 75.5 L 103.5 73 Z " /><path fill="rgb(48,68,85)" stroke="rgb(48,68,85)" stroke-width="1" opacity="0.996078431372549" d="M 93 86 Q 98.2 83.9 97 88.5 L 99 92.5 L 99 105 L 95.5 106 L 94 104.5 Q 95.2 92.8 93 86 Z " /><path fill="rgb(48,68,85)" stroke="rgb(48,68,85)" stroke-width="1" opacity="0.996078431372549" d="M 109.5 93 L 112 94.5 L 113 98.5 L 112 105 L 108.5 106 L 107 103.5 L 108 102.5 L 108 94.5 L 109.5 93 Z " /><path fill="rgb(48,68,85)" stroke="rgb(48,68,85)" stroke-width="1" opacity="0.996078431372549" d="M 121.5 109 Q 123.8 108.3 123 110.5 L 125.5 113 L 150 113 L 149.5 115 L 124.5 115 L 123 119 L 116 114.5 L 119.5 110 L 121.5 109 Z " /><path fill="rgb(48,68,85)" stroke="rgb(48,68,85)" stroke-width="1" opacity="0.996078431372549" d="M 105 122 L 109 123.5 L 110 131 L 106 129.5 L 105 122 Z " /><path fill="rgb(48,68,85)" stroke="rgb(48,68,85)" stroke-width="1" opacity="0.996078431372549" d="M 91 124 L 95 125.5 L 96 130.5 L 102 140.5 L 101 143 L 96 139.5 L 91 128.5 L 91 124 Z " /><path fill="rgb(48,68,85)" stroke="rgb(48,68,85)" stroke-width="1" opacity="0.996078431372549" d="M 109.5 141 L 113 143.5 Q 110.7 144.8 112 149.5 L 110.5 151 L 108 149.5 Q 106.2 142.8 109.5 141 Z " /><path fill="rgb(141,147,151)" stroke="rgb(141,147,151)" stroke-width="1" opacity="0.1568627450980392" d="M 66.5 19 L 70 19.5 L 64 23.5 L 65 27.5 L 73.5 36 L 81.5 39 L 88.5 39 L 99 34.5 L 99 32.5 L 90.5 23 L 85 19.5 L 87.5 19 L 100 30.5 Q 101.5 37.5 98.5 37 L 94.5 39 L 80.5 40 Q 69.1 37.4 64 28.5 L 63 21 L 66.5 19 Z " /><path fill="rgb(141,147,151)" stroke="rgb(141,147,151)" stroke-width="1" opacity="0.1568627450980392" d="M 109.5 26 Q 117.8 23.3 115 31.5 L 111 34 L 108 42 L 120.5 43 L 128.5 47 L 138 56.5 L 141 60.5 L 143 67.5 L 141 66.5 L 138 59.5 L 126.5 48 L 116.5 43 L 108.5 43 L 107 43.5 L 107 38.5 L 114 28.5 L 110.5 27 Q 104.4 30.7 103 38 L 101 37.5 L 104 30.5 L 107.5 27 L 109.5 26 Z " /><path fill="rgb(141,147,151)" stroke="rgb(141,147,151)" stroke-width="1" opacity="0.1568627450980392" d="M 91.5 41 L 101.5 41 L 102 43 L 94.5 42 L 85.5 45 L 74 53.5 L 63 68.5 L 57.5 84 L 57 80.5 L 65 61.5 L 76.5 49 L 83 45.5 Q 82.3 43.3 84.5 44 L 91.5 41 Z " /><path fill="rgb(141,147,151)" stroke="rgb(141,147,151)" stroke-width="1" opacity="0.1568627450980392" d="M 143.5 69 L 144 71.5 L 143 71.5 L 143.5 69 Z " /><path fill="rgb(141,147,151)" stroke="rgb(141,147,151)" stroke-width="1" opacity="0.1568627450980392" d="M 144.5 73 L 147 78.5 L 147 105.5 Q 145.5 108.5 139.5 107 L 139.5 106 L 145 106 L 145 103.5 L 146 102.5 L 146 80.5 L 144.5 73 Z " /><path fill="rgb(141,147,151)" stroke="rgb(141,147,151)" stroke-width="1" opacity="0.1568627450980392" d="M 55.5 89 L 56 91.5 L 55 92.5 L 55 123.5 L 56 126.5 L 54 125.5 L 54 90.5 L 55.5 89 Z " /><path fill="rgb(141,147,151)" stroke="rgb(141,147,151)" stroke-width="1" opacity="0.1568627450980392" d="M 120 102 L 123.5 102 L 129 106.5 L 126.5 107 Q 126 103.5 121.5 104 L 111 111.5 L 110 114.5 L 115.5 121 L 122.5 124 L 126.5 121 L 141 121 L 140 134 Q 137.3 135.1 138 132.5 Q 140.9 128.6 140 122 L 128.5 122 L 123.5 126 L 118.5 125 L 111 119.5 L 109 112.5 L 112.5 108 L 117.5 104 L 120 104 L 120 102 Z " /><path fill="rgb(141,147,151)" stroke="rgb(141,147,151)" stroke-width="1" opacity="0.1568627450980392" d="M 119.5 107 Q 124.8 105.8 126 108.5 L 126.5 110 L 151.5 110 Q 154 111 153 115.5 L 151.5 117 L 127.5 117 L 126 118.5 L 124.5 121 L 119.5 121 L 113 115.5 L 113 112.5 L 117.5 108 L 119.5 107 Z M 122 108 L 117 111 Q 114 112 115 116 L 122 120 L 125 118 L 126 116 L 152 116 L 152 112 L 150 111 L 125 111 L 124 110 L 122 108 Z " /><path fill="rgb(141,147,151)" stroke="rgb(141,147,151)" stroke-width="1" opacity="0.1568627450980392" d="M 56.5 129 L 61 143.5 L 68 156.5 L 81.5 171 L 98 180.5 L 96.5 181 L 92.5 180 L 81.5 172 L 79 172 L 74.5 166 Q 71.9 166.7 73 164 L 71 164 L 71 161.5 L 65 154.5 L 60 144.5 L 57 137.5 L 56.5 129 Z " /><path fill="rgb(141,147,151)" stroke="rgb(141,147,151)" stroke-width="1" opacity="0.1568627450980392" d="M 137.5 137 Q 140.5 138.5 137.5 140 L 137.5 137 Z " /><path fill="rgb(141,147,151)" stroke="rgb(141,147,151)" stroke-width="1" opacity="0.1568627450980392" d="M 136.5 144 L 137 146.5 L 136 146.5 L 136.5 144 Z " /><path fill="rgb(141,147,151)" stroke="rgb(141,147,151)" stroke-width="1" opacity="0.1568627450980392" d="M 135 156 Q 138.7 154.7 137 160.5 L 136 160.5 L 135 156 Z " /><path fill="rgb(141,147,151)" stroke="rgb(141,147,151)" stroke-width="1" opacity="0.1568627450980392" d="M 136.5 171 L 137 172.5 L 136 176.5 L 132.5 180 L 129 181 Q 130.3 184.7 124.5 183 L 123.5 184 L 103.5 184 L 99 181.5 L 100.5 181 L 105.5 183 L 121.5 183 Q 130 181.5 134 175.5 L 136.5 171 Z " /><path fill="rgb(200,138,87)" stroke="rgb(200,138,87)" stroke-width="1" opacity="0.996078431372549" d="M 73.5 24 L 75 24.5 L 72 26.5 L 80.5 32 L 90 32 L 90.5 30 Q 93.5 31.5 90.5 33 Q 75.1 35.4 71 26.5 Q 70.3 24.3 72.5 25 L 73.5 24 Z " /><path fill="rgb(200,138,87)" stroke="rgb(200,138,87)" stroke-width="1" opacity="0.996078431372549" d="M 86.5 26 L 87.5 28 L 86.5 26 Z " /><path fill="rgb(200,138,87)" stroke="rgb(200,138,87)" stroke-width="1" opacity="0.996078431372549" d="M 93.5 47 Q 98.8 45.8 100 48.5 L 98.5 48 Q 92.5 49.2 93.5 47 Z " /><path fill="rgb(200,138,87)" stroke="rgb(200,138,87)" stroke-width="1" opacity="0.996078431372549" d="M 111.5 47 L 114 47.5 L 111.5 48 L 111.5 47 Z " /><path fill="rgb(200,138,87)" stroke="rgb(200,138,87)" stroke-width="1" opacity="0.996078431372549" d="M 102.5 49 L 107 49.5 L 102.5 50 L 102.5 49 Z " /><path fill="rgb(200,138,87)" stroke="rgb(200,138,87)" stroke-width="1" opacity="0.996078431372549" d="M 84.5 51 L 82.5 54 L 73.5 62 L 81.5 53 L 84.5 51 Z " /><path fill="rgb(200,138,87)" stroke="rgb(200,138,87)" stroke-width="1" opacity="0.996078431372549" d="M 122.5 51 L 123.5 53 L 122.5 51 Z " /><path fill="rgb(200,138,87)" stroke="rgb(200,138,87)" stroke-width="1" opacity="0.996078431372549" d="M 125.5 53 L 132.5 61 L 125.5 53 Z " /><path fill="rgb(200,138,87)" stroke="rgb(200,138,87)" stroke-width="1" opacity="0.996078431372549" d="M 96.5 58 L 103 58.5 L 96.5 59 L 96.5 58 Z " /><path fill="rgb(200,138,87)" stroke="rgb(200,138,87)" stroke-width="1" opacity="0.996078431372549" d="M 93.5 59 L 95 59.5 L 86 65.5 L 82.5 71 L 82 69.5 L 88.5 62 L 93.5 59 Z " /><path fill="rgb(200,138,87)" stroke="rgb(200,138,87)" stroke-width="1" opacity="0.996078431372549" d="M 104.5 59 Q 114.4 63.6 121 71.5 L 115.5 67 L 105.5 61 L 104.5 59 Z " /><path fill="rgb(200,138,87)" stroke="rgb(200,138,87)" stroke-width="1" opacity="0.996078431372549" d="M 133.5 62 L 134.5 64 L 133.5 62 Z " /><path fill="rgb(200,138,87)" stroke="rgb(200,138,87)" stroke-width="1" opacity="0.996078431372549" d="M 72.5 63 L 71.5 65 L 72.5 63 Z " /><path fill="rgb(200,138,87)" stroke="rgb(200,138,87)" stroke-width="1" opacity="0.996078431372549" d="M 96.5 64 L 102.5 64 L 116 74.5 Q 121.7 82.3 121 96.5 L 120 103 L 117.5 103 L 110 109.5 L 109 117.5 L 119 125.5 L 118 146.5 L 116 153.5 L 111.5 159 Q 109.2 161.7 103.5 161 L 92 150.5 L 84 135.5 L 83 119.5 L 84 118.5 L 84 102.5 L 83 101.5 L 83 86.5 L 87 72.5 L 94.5 65 L 96.5 64 Z M 103 73 L 101 75 L 103 82 L 103 83 L 107 83 L 108 81 L 106 75 L 103 73 Z M 93 85 L 93 92 L 94 93 L 94 106 L 96 106 Q 97 109 99 105 L 99 91 L 97 87 L 97 85 L 93 85 Z M 110 92 L 107 95 L 107 105 L 111 106 Q 115 103 113 95 L 110 92 Z M 107 121 L 104 122 L 105 129 Q 106 132 111 131 L 109 122 L 107 121 Z M 92 123 L 90 125 Q 91 137 99 143 L 102 142 L 102 139 Q 96 134 95 125 L 92 123 Z M 108 141 Q 106 143 107 150 Q 108 152 112 151 Q 115 149 113 143 Q 112 140 108 141 Z " /><path fill="rgb(200,138,87)" stroke="rgb(200,138,87)" stroke-width="1" opacity="0.996078431372549" d="M 135.5 65 L 138 70.5 L 137 70.5 L 135.5 65 Z " /><path fill="rgb(200,138,87)" stroke="rgb(200,138,87)" stroke-width="1" opacity="0.996078431372549" d="M 70.5 66 L 70 67.5 L 68.5 70 L 69 68.5 L 70.5 66 Z " /><path fill="rgb(200,138,87)" stroke="rgb(200,138,87)" stroke-width="1" opacity="0.996078431372549" d="M 122.5 75 L 125 81.5 L 124 81.5 L 122.5 75 Z " /><path fill="rgb(200,138,87)" stroke="rgb(200,138,87)" stroke-width="1" opacity="0.996078431372549" d="M 79.5 77 L 80 79.5 L 79 79.5 L 79.5 77 Z " /><path fill="rgb(200,138,87)" stroke="rgb(200,138,87)" stroke-width="1" opacity="0.996078431372549" d="M 140.5 80 L 141 84.5 L 140 84.5 L 140.5 80 Z " /><path fill="rgb(200,138,87)" stroke="rgb(200,138,87)" stroke-width="1" opacity="0.996078431372549" d="M 63.5 81 L 64 83.5 L 62.5 87 L 62 84.5 L 63.5 81 Z " /><path fill="rgb(200,138,87)" stroke="rgb(200,138,87)" stroke-width="1" opacity="0.996078431372549" d="M 78.5 82 L 79 85.5 L 78 85.5 L 78.5 82 Z " /><path fill="rgb(200,138,87)" stroke="rgb(200,138,87)" stroke-width="1" opacity="0.996078431372549" d="M 125.5 84 L 126 86.5 L 125 86.5 L 125.5 84 Z " /><path fill="rgb(200,138,87)" stroke="rgb(200,138,87)" stroke-width="1" opacity="0.996078431372549" d="M 77.5 87 L 78 99.5 L 77 99.5 L 77.5 87 Z " /><path fill="rgb(200,138,87)" stroke="rgb(200,138,87)" stroke-width="1" opacity="0.996078431372549" d="M 61.5 88 L 62 91.5 L 61 91.5 L 61.5 88 Z " /><path fill="rgb(200,138,87)" stroke="rgb(200,138,87)" stroke-width="1" opacity="0.996078431372549" d="M 126.5 91 L 127 93.5 L 126 93.5 L 126.5 91 Z " /><path fill="rgb(200,138,87)" stroke="rgb(200,138,87)" stroke-width="1" opacity="0.996078431372549" d="M 60.5 95 L 61 99.5 L 60 99.5 L 60.5 95 Z " /><path fill="rgb(200,138,87)" stroke="rgb(200,138,87)" stroke-width="1" opacity="0.996078431372549" d="M 140.5 97 L 141 102.5 L 140 102.5 L 140.5 97 Z " /><path fill="rgb(200,138,87)" stroke="rgb(200,138,87)" stroke-width="1" opacity="0.996078431372549" d="M 125.5 99 L 126 101.5 L 125 101.5 L 125.5 99 Z " /><path fill="rgb(200,138,87)" stroke="rgb(200,138,87)" stroke-width="1" opacity="0.996078431372549" d="M 78.5 102 L 79 118.5 L 78 119.5 L 77.5 133 L 77 119.5 L 78 118.5 L 78.5 102 Z " /><path fill="rgb(200,138,87)" stroke="rgb(200,138,87)" stroke-width="1" opacity="0.996078431372549" d="M 60.5 116 L 61 121.5 L 60 121.5 L 60.5 116 Z " /><path fill="rgb(200,138,87)" stroke="rgb(200,138,87)" stroke-width="1" opacity="0.996078431372549" d="M 61.5 124 L 66 139.5 L 65 139.5 L 61 127.5 L 61.5 124 Z " /><path fill="rgb(200,138,87)" stroke="rgb(200,138,87)" stroke-width="1" opacity="0.996078431372549" d="M 134.5 125 L 135 127.5 L 134 127.5 L 134.5 125 Z " /><path fill="rgb(200,138,87)" stroke="rgb(200,138,87)" stroke-width="1" opacity="0.996078431372549" d="M 124.5 127 L 125 132.5 L 124 132.5 L 124.5 127 Z " /><path fill="rgb(200,138,87)" stroke="rgb(200,138,87)" stroke-width="1" opacity="0.996078431372549" d="M 132.5 134 L 133 136.5 L 132 136.5 L 132.5 134 Z " /><path fill="rgb(200,138,87)" stroke="rgb(200,138,87)" stroke-width="1" opacity="0.996078431372549" d="M 79.5 137 L 80 139.5 L 79 139.5 L 79.5 137 Z " /><path fill="rgb(200,138,87)" stroke="rgb(200,138,87)" stroke-width="1" opacity="0.996078431372549" d="M 123.5 137 L 124 145.5 L 123 145.5 L 123.5 137 Z " /><path fill="rgb(200,138,87)" stroke="rgb(200,138,87)" stroke-width="1" opacity="0.996078431372549" d="M 131.5 139 L 132 143.5 L 131 144.5 L 131 158.5 L 132 159.5 L 132 169.5 L 126.5 176 L 121.5 178 L 106.5 178 Q 85.3 172.2 74 156.5 L 66 141.5 L 67 141.5 Q 71.4 154.1 80.5 162 L 98.5 174 L 109.5 177 L 119.5 177 L 129 173 Q 132.7 169.6 131 159.5 L 130 158.5 L 130 144.5 L 131.5 139 Z " /><path fill="rgb(200,138,87)" stroke="rgb(200,138,87)" stroke-width="1" opacity="0.996078431372549" d="M 82.5 145 L 88 153.5 L 85 151.5 L 82 146.5 L 82.5 145 Z " /><path fill="rgb(200,138,87)" stroke="rgb(200,138,87)" stroke-width="1" opacity="0.996078431372549" d="M 122.5 147 L 123 151.5 L 121.5 155 L 121 152.5 L 122.5 147 Z " /><path fill="rgb(200,138,87)" stroke="rgb(200,138,87)" stroke-width="1" opacity="0.996078431372549" d="M 88.5 155 L 96.5 164 L 88.5 155 Z " /><path fill="rgb(200,138,87)" stroke="rgb(200,138,87)" stroke-width="1" opacity="0.996078431372549" d="M 119.5 158 L 119 159.5 L 116.5 163 L 110.5 167 L 106.5 167 L 106.5 166 L 112.5 165 L 119.5 158 Z " /><path fill="rgb(200,138,87)" stroke="rgb(200,138,87)" stroke-width="1" opacity="0.996078431372549" d="M 98.5 164 Q 100 167.1 105 166.5 L 100.5 167 L 98.5 164 Z " /><path fill="rgb(248,216,128)" stroke="rgb(248,216,128)" stroke-width="1" opacity="0.9921568627450981" d="M 75.5 24 Q 85.7 23.8 90 29.5 L 89.5 32 L 80.5 32 L 72 26.5 L 75.5 24 Z " /><path fill="rgb(248,216,128)" stroke="rgb(248,216,128)" stroke-width="1" opacity="0.9921568627450981" d="M 92.5 48 L 98.5 48 Q 100.8 50.7 106.5 50 Q 108.8 47.3 114.5 48 Q 126.4 52.1 133 61.5 L 140 77.5 L 141 96.5 L 140 97.5 L 140 105.5 L 138.5 107 Q 128 109 125 103.5 L 127 91.5 L 126 90.5 L 125 79.5 Q 122.2 70.8 115.5 66 L 102.5 58 L 96.5 58 Q 89.1 60.1 85 65.5 L 79 77.5 L 77 87.5 L 77 99.5 L 78 100.5 L 78 118.5 L 77 119.5 L 77 132.5 L 83 148.5 L 96.5 164 Q 99.9 169.1 110.5 167 L 119 160.5 L 123 151.5 L 125 127.5 L 124 125.5 Q 126.8 120.5 135 122 L 130 144.5 L 130 158.5 L 131 159.5 L 131 169.5 L 129 173 Q 123.1 178.4 109.5 177 Q 90.1 172.9 79 160.5 Q 58.9 141.1 60 100.5 L 61 99.5 L 62 87.5 L 67 72.5 Q 72.2 61.2 81.5 54 L 92.5 48 Z " /><path fill="rgb(248,216,128)" stroke="rgb(248,216,128)" stroke-width="1" opacity="0.9921568627450981" d="M 117.5 103 L 120 103.5 L 117.5 104 L 110.5 110 L 114.5 105 L 117.5 103 Z " /><path fill="rgb(248,216,128)" stroke="rgb(248,216,128)" stroke-width="1" opacity="0.9921568627450981" d="M 109.5 116 L 111 118.5 L 109 117.5 L 109.5 116 Z " /><path fill="rgb(248,216,128)" stroke="rgb(248,216,128)" stroke-width="1" opacity="0.9921568627450981" d="M 113.5 121 L 117 123.5 L 115.5 123 L 113.5 121 Z " /></svg>