<svg width="200" height="200" version="1.1" xmlns="http://www.w3.org/2000/svg" desc="Created with imagetracer.js version 1.2.6" ><path fill="rgb(32,32,32)" stroke="rgb(32,32,32)" stroke-width="1" opacity="0.24705882352941178" d="M 32.5 48 L 175 48.5 L 32.5 49 L 32.5 48 Z " /><path fill="rgb(32,32,32)" stroke="rgb(32,32,32)" stroke-width="1" opacity="0.24705882352941178" d="M 32.5 145 L 175 145.5 L 32.5 146 L 32.5 145 Z " /><path fill="rgb(0,0,0)" stroke="rgb(0,0,0)" stroke-width="1" opacity="0" d="M 0 0 L 200 0 L 200 200 L 0 200 L 0 0 Z M 33 48 L 33 50 L 33 145 L 32 146 L 175 146 L 174 145 L 174 50 L 175 49 L 33 48 Z " /><path fill="rgb(0,0,0)" stroke="rgb(0,0,0)" stroke-width="1" opacity="0.8862745098039215" d="M 33 49 L 174 49 L 174 145 L 33 145 L 33 49 Z M 34 50 L 34 144 L 173 144 L 173 50 L 34 50 Z " /><path fill="rgb(0,0,0)" stroke="rgb(0,0,0)" stroke-width="1" opacity="1" d="M 34 50 L 173 50 L 173 144 L 34 144 L 34 50 Z M 101 55 L 91 60 L 87 68 L 86 84 L 90 86 L 94 93 L 95 91 Q 94 88 97 89 L 99 94 L 99 92 L 102 90 Q 101 94 104 95 L 106 90 L 109 95 L 109 90 Q 114 88 112 94 L 114 94 L 114 89 L 117 89 L 118 93 Q 121 92 120 88 L 126 84 L 125 70 L 122 63 Q 118 57 112 55 L 101 55 Z M 79 93 L 72 102 Q 71 108 76 109 Q 80 110 82 107 L 94 114 L 100 112 L 101 110 L 87 101 Q 84 100 86 99 L 85 96 Q 84 92 79 93 Z M 130 93 L 128 94 Q 125 95 126 100 L 83 125 L 80 124 L 73 125 L 72 128 L 72 131 L 76 138 L 80 140 L 84 139 L 85 136 L 85 134 L 130 107 L 133 109 Q 138 110 139 107 L 139 102 Q 136 101 136 97 Q 135 92 130 93 Z M 117 118 L 112 121 L 110 124 L 125 132 Q 128 131 126 137 L 131 140 L 134 139 L 139 132 L 139 127 L 136 124 L 132 125 L 129 125 L 117 118 Z " /><path fill="rgb(0,0,0)" stroke="rgb(0,0,0)" stroke-width="1" opacity="1" d="M 96.5 73 Q 102 72 103 75.5 L 99.5 80 Q 94.3 81.3 93 78.5 Q 92.3 74.8 94.5 74 L 96.5 73 Z " /><path fill="rgb(0,0,0)" stroke="rgb(0,0,0)" stroke-width="1" opacity="1" d="M 112.5 73 Q 118 72 119 75.5 Q 119.8 79.3 117.5 80 Q 111.7 80.8 110 77.5 Q 108.5 73.1 111.5 74 L 112.5 73 Z " /><path fill="rgb(0,0,0)" stroke="rgb(0,0,0)" stroke-width="1" opacity="1" d="M 105.5 81 Q 107.8 80.3 107 82.5 L 109 85.5 L 103 86 L 105.5 81 Z " /><path fill="rgb(237,237,237)" stroke="rgb(237,237,237)" stroke-width="1" opacity="1" d="M 103.5 55 Q 115.9 55.1 121 62.5 L 124 68.5 L 125 83.5 L 119 87.5 L 118.5 91 L 117 88 Q 113.6 87.3 112.5 90 L 109.5 89 L 106.5 90 Q 105 87.5 103.5 91 L 101.5 89 L 98.5 90 L 95.5 88 L 93.5 91 L 89.5 85 L 87 83.5 L 88 72.5 L 88 70.5 L 89 64.5 L 95.5 58 L 103.5 55 Z M 98 72 L 95 73 Q 91 74 92 79 Q 93 82 100 81 Q 104 80 103 75 L 98 72 Z M 113 72 L 111 73 Q 108 74 109 78 Q 111 82 118 81 Q 121 80 120 76 Q 119 71 113 72 Z M 106 80 Q 102 82 102 87 L 109 87 L 110 86 L 107 82 Q 108 79 106 80 Z " /><path fill="rgb(237,237,237)" stroke="rgb(237,237,237)" stroke-width="1" opacity="1" d="M 78.5 94 Q 83 93 84 95.5 L 86.5 102 L 100 109 Q 101.1 111.7 98.5 111 Q 97.1 113.6 92.5 113 L 81.5 106 Q 80.1 108.6 75.5 108 Q 72 107 73 101.5 L 78.5 94 Z " /><path fill="rgb(237,237,237)" stroke="rgb(237,237,237)" stroke-width="1" opacity="1" d="M 129.5 94 Q 134.3 93.3 135 96.5 L 138 101.5 L 138 105.5 Q 137.3 108.8 132.5 108 L 129.5 106 L 85 132.5 L 84 138 L 79.5 139 L 76 136.5 Q 76.5 132 73 131.5 L 73 127.5 Q 74 124 79.5 125 L 82.5 126 L 121.5 104 L 127 99.5 Q 125.1 94.1 128.5 95 L 129.5 94 Z " /><path fill="rgb(237,237,237)" stroke="rgb(237,237,237)" stroke-width="1" opacity="1" d="M 116.5 119 L 128.5 126 L 131.5 126 L 136.5 125 Q 139.3 126.3 138 131.5 L 132.5 139 Q 127.8 139.8 127 136.5 Q 128 132 125.5 131 L 111 122.5 L 116.5 119 Z " /><path fill="rgb(104,104,104)" stroke="rgb(104,104,104)" stroke-width="1" opacity="0.996078431372549" d="M 100.5 55 L 103 55.5 L 100.5 56 L 100.5 55 Z " /><path fill="rgb(104,104,104)" stroke="rgb(104,104,104)" stroke-width="1" opacity="0.996078431372549" d="M 108.5 55 Q 117.9 56.1 122 62.5 L 124 67.5 L 123 67.5 Q 121.8 61.8 117.5 59 L 111.5 56 L 108.5 56 L 108.5 55 Z " /><path fill="rgb(104,104,104)" stroke="rgb(104,104,104)" stroke-width="1" opacity="0.996078431372549" d="M 97.5 56 L 99 56.5 Q 92.2 58.7 89 64.5 L 88.5 66 L 88 64.5 L 91 60 L 97.5 56 Z " /><path fill="rgb(104,104,104)" stroke="rgb(104,104,104)" stroke-width="1" opacity="0.996078431372549" d="M 87.5 67 L 88 70.5 L 87 70.5 L 87.5 67 Z " /><path fill="rgb(104,104,104)" stroke="rgb(104,104,104)" stroke-width="1" opacity="0.996078431372549" d="M 124.5 69 L 126 83.5 L 122.5 86 L 122.5 85 L 125 83.5 L 124.5 69 Z " /><path fill="rgb(104,104,104)" stroke="rgb(104,104,104)" stroke-width="1" opacity="0.996078431372549" d="M 87.5 72 L 88 76.5 L 87 76.5 L 87.5 72 Z " /><path fill="rgb(104,104,104)" stroke="rgb(104,104,104)" stroke-width="1" opacity="0.996078431372549" d="M 97.5 72 L 100 72.5 L 97.5 73 L 97.5 72 Z " /><path fill="rgb(104,104,104)" stroke="rgb(104,104,104)" stroke-width="1" opacity="0.996078431372549" d="M 112.5 72 L 116 72.5 L 110 74 Q 109 77.8 111.5 79 L 117.5 80 Q 119.8 79.3 119 75.5 L 117.5 73 Q 120.8 73.8 120 78.5 Q 119 82 113.5 81 L 109 77.5 Q 108.3 73.8 110.5 73 L 112.5 72 Z " /><path fill="rgb(104,104,104)" stroke="rgb(104,104,104)" stroke-width="1" opacity="0.996078431372549" d="M 94.5 73 L 96 73.5 L 93 75.5 Q 92.3 79.3 94.5 80 Q 101.3 81.3 102.5 77 L 99.5 81 Q 93.3 82.3 92 78.5 Q 91.3 73.8 94.5 73 Z " /><path fill="rgb(104,104,104)" stroke="rgb(104,104,104)" stroke-width="1" opacity="0.996078431372549" d="M 101.5 73 L 102.5 75 L 101.5 73 Z " /><path fill="rgb(104,104,104)" stroke="rgb(104,104,104)" stroke-width="1" opacity="0.996078431372549" d="M 86.5 78 Q 85.6 83.4 88.5 85 L 92 87.5 L 89.5 86 L 86 83.5 L 86.5 78 Z " /><path fill="rgb(104,104,104)" stroke="rgb(104,104,104)" stroke-width="1" opacity="0.996078431372549" d="M 105.5 80 L 107 80.5 L 104 82.5 L 103 86 L 109 85.5 L 107 82.5 L 109 83.5 L 110 85.5 L 108.5 87 L 102 87 Q 101.9 82.1 105.5 80 Z " /><path fill="rgb(104,104,104)" stroke="rgb(104,104,104)" stroke-width="1" opacity="0.996078431372549" d="M 120.5 86 L 120 87.5 Q 120.8 92.3 117.5 93 L 117 90.5 L 119 90.5 Q 118.3 86.8 120.5 86 Z " /><path fill="rgb(104,104,104)" stroke="rgb(104,104,104)" stroke-width="1" opacity="0.996078431372549" d="M 95.5 88 L 99.5 90 L 101.5 89 L 103.5 91 Q 105 87.5 106.5 90 L 111.5 89 Q 113 91.5 114.5 88 L 117 88.5 L 114 89 L 114 94 L 112 94 Q 113.9 88.4 109 90 L 108.5 95 L 105.5 90 L 103.5 95 Q 101 93.8 102 90 L 99 91.5 L 98.5 94 L 96.5 89 Q 94.3 88.3 95 90.5 L 93.5 93 L 92 90.5 L 94 90.5 L 95.5 88 Z " /><path fill="rgb(104,104,104)" stroke="rgb(104,104,104)" stroke-width="1" opacity="0.996078431372549" d="M 78.5 93 L 82 93.5 Q 77.3 93.3 76 96.5 Q 76.5 101 73 101.5 L 73 105.5 Q 73.8 108.8 78.5 108 L 81.5 106 L 92 112.5 L 90.5 112 L 81.5 107 Q 80.1 109.6 75.5 109 Q 71 108 72 101.5 L 78.5 93 Z " /><path fill="rgb(104,104,104)" stroke="rgb(104,104,104)" stroke-width="1" opacity="0.996078431372549" d="M 129.5 93 Q 135.3 92.3 136 96.5 L 135.5 98 L 132.5 94 L 127 95 Q 128.3 100.5 124.5 102 L 117.5 106 L 118.5 104 L 126 99.5 Q 125 95 127.5 94 L 129.5 93 Z " /><path fill="rgb(104,104,104)" stroke="rgb(104,104,104)" stroke-width="1" opacity="0.996078431372549" d="M 83.5 94 L 86 98.5 L 85 98.5 L 83.5 94 Z " /><path fill="rgb(104,104,104)" stroke="rgb(104,104,104)" stroke-width="1" opacity="0.996078431372549" d="M 136.5 99 Q 140.3 100.3 139 106.5 Q 137.6 109.6 132.5 109 L 129.5 107 L 128 107.5 L 130.5 106 Q 131.3 108.8 135.5 108 Q 139 107 138 101.5 L 136.5 99 Z " /><path fill="rgb(104,104,104)" stroke="rgb(104,104,104)" stroke-width="1" opacity="0.996078431372549" d="M 85.5 100 L 89 102.5 L 87.5 102 L 85.5 100 Z " /><path fill="rgb(104,104,104)" stroke="rgb(104,104,104)" stroke-width="1" opacity="0.996078431372549" d="M 90.5 103 L 96 106.5 L 94.5 106 Q 90.5 105.5 90.5 103 Z " /><path fill="rgb(104,104,104)" stroke="rgb(104,104,104)" stroke-width="1" opacity="0.996078431372549" d="M 115.5 106 L 114.5 108 L 89.5 122 L 90.5 120 L 115.5 106 Z " /><path fill="rgb(104,104,104)" stroke="rgb(104,104,104)" stroke-width="1" opacity="0.996078431372549" d="M 97.5 107 L 101 109.5 L 99.5 112 L 93.5 114 L 93.5 113 L 100 111 Q 101.1 108.3 98.5 109 L 97.5 107 Z " /><path fill="rgb(104,104,104)" stroke="rgb(104,104,104)" stroke-width="1" opacity="0.996078431372549" d="M 126.5 108 L 125.5 110 L 114.5 116 L 115.5 114 L 126.5 108 Z " /><path fill="rgb(104,104,104)" stroke="rgb(104,104,104)" stroke-width="1" opacity="0.996078431372549" d="M 112.5 116 L 111.5 118 L 100.5 124 L 101.5 122 L 112.5 116 Z " /><path fill="rgb(104,104,104)" stroke="rgb(104,104,104)" stroke-width="1" opacity="0.996078431372549" d="M 116.5 118 L 115.5 120 L 111 122.5 L 120 128.5 L 118.5 128 L 110 124 L 111.5 121 L 116.5 118 Z " /><path fill="rgb(104,104,104)" stroke="rgb(104,104,104)" stroke-width="1" opacity="0.996078431372549" d="M 118.5 119 L 124 122.5 L 122.5 122 Q 118.5 121.5 118.5 119 Z " /><path fill="rgb(104,104,104)" stroke="rgb(104,104,104)" stroke-width="1" opacity="0.996078431372549" d="M 87.5 122 L 86.5 124 L 80.5 126 L 75.5 125 Q 72.3 126.3 72.5 131 L 72 127.5 L 73 125 L 79.5 124 L 82.5 125 L 87.5 122 Z " /><path fill="rgb(104,104,104)" stroke="rgb(104,104,104)" stroke-width="1" opacity="0.996078431372549" d="M 125.5 123 Q 126.9 125.6 131.5 125 L 135.5 124 L 135.5 125 L 128.5 126 L 125.5 123 Z " /><path fill="rgb(104,104,104)" stroke="rgb(104,104,104)" stroke-width="1" opacity="0.996078431372549" d="M 98.5 124 L 97.5 126 L 85.5 133 L 87.5 130 L 98.5 124 Z " /><path fill="rgb(104,104,104)" stroke="rgb(104,104,104)" stroke-width="1" opacity="0.996078431372549" d="M 137.5 125 Q 140.3 126.3 139 131.5 L 133.5 139 L 135 136.5 Q 134.5 132 138 131.5 L 138 126.5 L 137.5 125 Z " /><path fill="rgb(104,104,104)" stroke="rgb(104,104,104)" stroke-width="1" opacity="0.996078431372549" d="M 121.5 129 L 127 132.5 Q 126 137.5 129 138.5 L 126 136.5 Q 127.9 131.1 124.5 132 L 121.5 129 Z " /><path fill="rgb(104,104,104)" stroke="rgb(104,104,104)" stroke-width="1" opacity="0.996078431372549" d="M 73.5 132 L 76 135.5 L 75 135.5 L 73.5 132 Z " /><path fill="rgb(104,104,104)" stroke="rgb(104,104,104)" stroke-width="1" opacity="0.996078431372549" d="M 84.5 136 L 85 137.5 L 79.5 140 L 76 137.5 L 77.5 138 L 81.5 139 L 84 138 L 84.5 136 Z " /></svg>