<svg width="200" height="200" version="1.1" xmlns="http://www.w3.org/2000/svg" desc="Created with imagetracer.js version 1.2.6" ><path fill="rgb(251,212,64)" stroke="rgb(251,212,64)" stroke-width="1" opacity="0.996078431372549" d="M 44.5 27 L 48.5 27 L 52 29 L 57 38 Q 60 36.8 59 40.5 L 66 45 Q 64.9 47.7 67.5 47 Q 70 51.5 75 52 L 78 59.5 L 68.5 68 L 66 68 Q 67.1 70.7 64.5 70 L 61 75 Q 58.3 73.9 59 76.5 L 56.5 80 L 53 82.5 L 49.5 88 L 45.5 89 L 41 85.5 Q 40.8 80.8 37.5 79 L 34 76.5 L 28.5 70 L 22.5 66 L 17 63 L 15 59.5 L 17 58.5 L 16 56.5 L 21.5 50 L 33 41.5 L 35 38.5 L 36 36 L 38 36 L 38 33 Q 40.7 34.1 40 31.5 L 44.5 27 Z " /><path fill="rgb(0,0,0)" stroke="rgb(0,0,0)" stroke-width="1" opacity="0" d="M 0 0 L 200 0 L 200 200 L 0 200 L 0 0 Z M 41 25 Q 42 28 40 27 L 34 35 Q 35 37 32 36 L 32 39 L 28 41 L 28 43 L 26 43 L 21 48 L 18 48 Q 19 51 17 50 Q 13 52 14 57 L 11 59 Q 12 61 9 60 L 9 62 L 7 62 L 7 171 Q 10 170 9 173 L 14 176 L 19 177 L 181 177 L 188 175 L 192 169 L 192 65 L 189 59 L 187 59 L 187 57 L 176 57 Q 172 56 173 50 L 168 49 L 136 49 L 135 50 L 131 50 L 131 55 Q 128 54 129 57 L 82 57 Q 82 54 79 55 L 77 50 L 74 50 L 72 46 L 70 46 L 69 43 L 65 43 Q 66 40 63 41 L 60 37 L 60 34 L 56 32 L 53 27 L 53 25 L 41 25 Z " /><path fill="rgb(250,215,85)" stroke="rgb(250,215,85)" stroke-width="1" opacity="0.6980392156862745" d="M 43.5 26 Q 49.6 25.3 52 27 Q 51 30 54 29 L 54 31.5 L 57 36 Q 60 35 59 38 Q 56.3 39.1 57 36.5 Q 52.6 34 52 29 L 48.5 27 L 44.5 27 L 40 33 Q 37 34 38 31 Q 40.7 32.1 40 29.5 L 43.5 26 Z " /><path fill="rgb(250,215,85)" stroke="rgb(250,215,85)" stroke-width="1" opacity="0.6980392156862745" d="M 36 34 Q 39 33 38 36 Q 35.3 34.9 36 37.5 L 35 40 Q 32.3 38.9 33 41.5 L 17 54.5 L 16 57.5 L 16.5 59 L 15 59 L 15 54 Q 17.7 55.1 17 52.5 L 28.5 43 L 31 43 L 36 34 Z " /><path fill="rgb(250,215,85)" stroke="rgb(250,215,85)" stroke-width="1" opacity="0.6980392156862745" d="M 59.5 39 Q 60.9 43.8 66 43 L 66 45 L 68 45 Q 66.9 47.7 69.5 47 Q 70.8 50.8 75 50 Q 74 53 77 52 L 77 54.5 L 79 58 Q 76.3 59.1 77 56.5 L 75 52 L 66 47 Q 67.1 44.3 64.5 45 L 59 40.5 L 59.5 39 Z " /><path fill="rgb(250,215,85)" stroke="rgb(250,215,85)" stroke-width="1" opacity="0.6980392156862745" d="M 36 79 L 40 81.5 L 39.5 84 L 38 81 Q 35 82 36 79 Z " /><path fill="rgb(250,215,85)" stroke="rgb(250,215,85)" stroke-width="1" opacity="0.6980392156862745" d="M 55.5 80 L 56 81.5 L 53 83.5 L 55.5 80 Z " /><path fill="rgb(196,192,181)" stroke="rgb(196,192,181)" stroke-width="1" opacity="0.1843137254901961" d="M 41.5 25 L 52.5 25 L 53 26.5 L 51.5 26 L 41.5 26 L 41.5 25 Z " /><path fill="rgb(196,192,181)" stroke="rgb(196,192,181)" stroke-width="1" opacity="0.1843137254901961" d="M 37.5 29 L 38 33 L 36 32.5 L 37.5 29 Z " /><path fill="rgb(196,192,181)" stroke="rgb(196,192,181)" stroke-width="1" opacity="0.1843137254901961" d="M 54.5 29 L 56.5 32 Q 58.8 31.3 58 33.5 L 54 30.5 L 54.5 29 Z " /><path fill="rgb(196,192,181)" stroke="rgb(196,192,181)" stroke-width="1" opacity="0.1843137254901961" d="M 59.5 34 L 60 37.5 L 59 37.5 L 59.5 34 Z " /><path fill="rgb(196,192,181)" stroke="rgb(196,192,181)" stroke-width="1" opacity="0.1843137254901961" d="M 32.5 37 L 33 38.5 L 31 42 L 28.5 43 L 30 40.5 L 32.5 37 Z " /><path fill="rgb(196,192,181)" stroke="rgb(196,192,181)" stroke-width="1" opacity="0.1843137254901961" d="M 63.5 41 Q 65.8 40.3 65 42.5 L 63.5 41 Z " /><path fill="rgb(196,192,181)" stroke="rgb(196,192,181)" stroke-width="1" opacity="0.1843137254901961" d="M 23.5 45 L 24 47 L 22 46.5 L 23.5 45 Z " /><path fill="rgb(196,192,181)" stroke="rgb(196,192,181)" stroke-width="1" opacity="0.1843137254901961" d="M 70.5 46 L 72 46 L 72 48 Q 74.7 46.9 74 49.5 L 70.5 46 Z " /><path fill="rgb(196,192,181)" stroke="rgb(196,192,181)" stroke-width="1" opacity="0.1843137254901961" d="M 172.5 50 L 174 55.5 L 172 54.5 L 172.5 50 Z " /><path fill="rgb(196,192,181)" stroke="rgb(196,192,181)" stroke-width="1" opacity="0.1843137254901961" d="M 14.5 53 L 15 56.5 L 14 56.5 L 14.5 53 Z " /><path fill="rgb(196,192,181)" stroke="rgb(196,192,181)" stroke-width="1" opacity="0.1843137254901961" d="M 77.5 53 Q 79.8 52.3 79 54.5 L 77.5 53 Z " /><path fill="rgb(196,192,181)" stroke="rgb(196,192,181)" stroke-width="1" opacity="0.1843137254901961" d="M 129 55 L 131 55.5 L 129 56.5 L 129 55 Z " /><path fill="rgb(196,192,181)" stroke="rgb(196,192,181)" stroke-width="1" opacity="0.1843137254901961" d="M 9 60 L 11 60.5 L 8 63.5 L 8 82 L 37.5 82 L 39 83.5 L 37.5 83 L 8.5 83 L 7 81.5 L 7 63.5 L 9 60 Z " /><path fill="rgb(196,192,181)" stroke="rgb(196,192,181)" stroke-width="1" opacity="0.1843137254901961" d="M 55.5 82 L 77 82.5 Q 75.8 85.3 74.5 83 L 56.5 83 L 54.5 84 L 55.5 82 Z " /><path fill="rgb(196,192,181)" stroke="rgb(196,192,181)" stroke-width="1" opacity="0.1843137254901961" d="M 123 82 L 188.5 82 L 190.5 84 L 192 83.5 Q 192.8 85.8 190.5 85 L 188.5 83 L 125.5 83 L 123 84 L 123 82 Z " /><path fill="rgb(196,192,181)" stroke="rgb(196,192,181)" stroke-width="1" opacity="0.1843137254901961" d="M 7.5 162 L 8 169.5 L 7 169.5 L 7.5 162 Z " /><path fill="rgb(196,192,181)" stroke="rgb(196,192,181)" stroke-width="1" opacity="0.1843137254901961" d="M 9.5 171 L 10.5 173 L 9.5 171 Z " /><path fill="rgb(196,192,181)" stroke="rgb(196,192,181)" stroke-width="1" opacity="0.1843137254901961" d="M 188 172 L 190 172.5 L 188 173.5 L 188 172 Z " /><path fill="rgb(229,229,228)" stroke="rgb(229,229,228)" stroke-width="1" opacity="0.9764705882352941" d="M 134.5 51 L 169.5 51 L 172 53.5 L 172 58 L 182.5 58 L 188 61 L 191 68.5 L 191 82 L 119.5 82 L 117.5 80 Q 110.5 80 106.5 77 L 91.5 77 L 88.5 79 L 81.5 80 L 79.5 82 L 56 82 L 59 75 Q 61.7 76.1 61 73.5 L 66 70 Q 64.8 67 68.5 68 L 78 59.5 L 78.5 58 L 130.5 58 L 134.5 51 Z " /><path fill="rgb(229,229,228)" stroke="rgb(229,229,228)" stroke-width="1" opacity="0.9764705882352941" d="M 14.5 60 L 17 61.5 Q 16.3 63.8 18.5 63 L 24 66 L 24 68 L 27 68 Q 25.9 70.7 28.5 70 L 36 78.5 L 36 82 L 9.5 82 L 8 80.5 L 8 66.5 L 10 63 L 12 63 Q 10.9 60.3 13.5 61 L 14.5 60 Z " /><path fill="rgb(229,229,228)" stroke="rgb(229,229,228)" stroke-width="1" opacity="0.9764705882352941" d="M 110.5 103 L 117 105 Q 116 108 119 107 L 119 109.5 L 121 111.5 L 121 119 Q 118 118 119 121 L 114.5 121 L 110 117.5 L 109 114 L 107 113.5 L 107 105 L 110.5 103 Z " /><path fill="rgb(229,229,228)" stroke="rgb(229,229,228)" stroke-width="1" opacity="0.9764705882352941" d="M 8 162 L 12.5 164 L 72.5 164 Q 73.8 161.7 78.5 163 Q 79.8 166 84 165 Q 82.6 169 89.5 167 Q 94.6 170.4 104.5 169 Q 107.4 166.4 113.5 167 L 120.5 163 L 125.5 163 L 126.5 164 L 189.5 164 L 191 163.5 L 191 167 Q 188.3 165.9 189 168.5 L 185.5 173 L 180.5 175 L 17.5 175 L 12 172 L 12 170 Q 9.3 171.1 10 168.5 Q 6.8 167.1 8 162 Z " /><path fill="rgb(241,239,235)" stroke="rgb(241,239,235)" stroke-width="1" opacity="0.3764705882352941" d="M 41.5 26 L 43 26.5 L 40 31 Q 37 32.3 38 28.5 L 40 28.5 L 41.5 26 Z " /><path fill="rgb(241,239,235)" stroke="rgb(241,239,235)" stroke-width="1" opacity="0.3764705882352941" d="M 50.5 26 L 55 28.5 L 52 29 Q 53.1 26.3 50.5 27 L 50.5 26 Z " /><path fill="rgb(241,239,235)" stroke="rgb(241,239,235)" stroke-width="1" opacity="0.3764705882352941" d="M 54.5 31 L 59 34 Q 60 37 57 36 L 54.5 31 Z " /><path fill="rgb(241,239,235)" stroke="rgb(241,239,235)" stroke-width="1" opacity="0.3764705882352941" d="M 36.5 33 L 38 33.5 L 36 34 L 33.5 38 L 32.5 36 L 35.5 34 L 36.5 33 Z " /><path fill="rgb(241,239,235)" stroke="rgb(241,239,235)" stroke-width="1" opacity="0.3764705882352941" d="M 59.5 38 L 61 38 L 61 40 Q 63.7 38.9 63 41.5 L 63.5 43 L 59.5 38 Z " /><path fill="rgb(241,239,235)" stroke="rgb(241,239,235)" stroke-width="1" opacity="0.3764705882352941" d="M 28.5 41 L 31 42.5 L 29.5 43 L 28.5 41 Z " /><path fill="rgb(241,239,235)" stroke="rgb(241,239,235)" stroke-width="1" opacity="0.3764705882352941" d="M 25 43 L 28 43.5 L 22.5 48 L 22.5 47 Q 24.8 47.8 24 45.5 L 25 43 Z " /><path fill="rgb(241,239,235)" stroke="rgb(241,239,235)" stroke-width="1" opacity="0.3764705882352941" d="M 66 43 L 70 44.5 Q 69.5 49 73 49.5 L 69.5 47 Q 66.9 47.7 68 45 L 66 45 L 66 43 Z " /><path fill="rgb(241,239,235)" stroke="rgb(241,239,235)" stroke-width="1" opacity="0.3764705882352941" d="M 18 48 Q 20.7 46.9 20 49.5 L 17 54 Q 14 55.3 15 51.5 L 17 51.5 L 18 48 Z " /><path fill="rgb(241,239,235)" stroke="rgb(241,239,235)" stroke-width="1" opacity="0.3764705882352941" d="M 135.5 49 L 167.5 49 L 172 50 L 171.5 53 L 169.5 51 L 134.5 51 L 130.5 58 L 79.5 58 L 79 56.5 L 77.5 54 L 81.5 57 L 129.5 57 Q 132.5 55.4 131 50 L 135.5 49 Z " /><path fill="rgb(241,239,235)" stroke="rgb(241,239,235)" stroke-width="1" opacity="0.3764705882352941" d="M 75 50 L 78 51.5 L 75 52 L 75 50 Z " /><path fill="rgb(241,239,235)" stroke="rgb(241,239,235)" stroke-width="1" opacity="0.3764705882352941" d="M 172.5 55 L 174.5 57 L 186 57 Q 184.9 59.7 187.5 59 L 192 65.5 L 192 82.5 Q 190.5 85.5 189 82.5 L 191 82 L 191 68.5 L 188 61 L 182.5 58 L 172 58 L 172.5 55 Z " /><path fill="rgb(241,239,235)" stroke="rgb(241,239,235)" stroke-width="1" opacity="0.3764705882352941" d="M 12.5 57 Q 16.3 55.8 15 59.5 L 12 61 L 12 63 Q 9.3 61.9 10 64.5 L 8 65.5 L 7 62.5 Q 9 64.2 11 60.5 L 12.5 57 Z " /><path fill="rgb(241,239,235)" stroke="rgb(241,239,235)" stroke-width="1" opacity="0.3764705882352941" d="M 8.5 81 L 7.5 83 L 8.5 81 Z " /><path fill="rgb(241,239,235)" stroke="rgb(241,239,235)" stroke-width="1" opacity="0.3764705882352941" d="M 190.5 161 Q 193.5 162.5 192 168.5 L 189.5 172 Q 186.9 171.3 188 174 L 185 174 L 185 176 L 181.5 176 L 180.5 177 L 18.5 177 L 13 176 L 13 174 Q 10.3 175.1 11 172.5 L 9 172.5 L 9.5 171 L 7 170.5 L 8.5 167 L 10 170 L 12 170 Q 10.9 172.7 13.5 172 L 17.5 175 L 180.5 175 L 188 170.5 L 189 167 Q 192.3 168.3 191 163.5 L 189.5 164 L 126 163.5 L 127.5 162 L 188.5 162 L 190 162.5 L 190.5 161 Z " /><path fill="rgb(241,239,235)" stroke="rgb(241,239,235)" stroke-width="1" opacity="0.3764705882352941" d="M 12 162 L 71.5 162 L 73 163.5 L 12 164 L 12 162 Z " /><path fill="rgb(103,93,138)" stroke="rgb(103,93,138)" stroke-width="1" opacity="0.9764705882352941" d="M 39.5 84 L 42 87.5 L 39 85.5 L 39.5 84 Z " /><path fill="rgb(103,93,138)" stroke="rgb(103,93,138)" stroke-width="1" opacity="0.9764705882352941" d="M 50.5 88 L 51 90 L 43 89.5 L 50.5 88 Z " /><path fill="rgb(103,93,138)" stroke="rgb(103,93,138)" stroke-width="1" opacity="0.9764705882352941" d="M 95.5 89 L 98 89.5 L 93.5 91 L 93.5 90 L 95.5 89 Z " /><path fill="rgb(103,93,138)" stroke="rgb(103,93,138)" stroke-width="1" opacity="0.9764705882352941" d="M 100.5 89 Q 104.3 88.3 105 90.5 L 103.5 91 L 100.5 90 L 100.5 89 Z " /><path fill="rgb(103,93,138)" stroke="rgb(103,93,138)" stroke-width="1" opacity="0.9764705882352941" d="M 87.5 91 L 89 91.5 L 86.5 93 L 87.5 91 Z " /><path fill="rgb(103,93,138)" stroke="rgb(103,93,138)" stroke-width="1" opacity="0.9764705882352941" d="M 110.5 91 L 113 92.5 L 111.5 93 L 110.5 91 Z " /><path fill="rgb(103,93,138)" stroke="rgb(103,93,138)" stroke-width="1" opacity="0.9764705882352941" d="M 115.5 93 L 117.5 96 L 115.5 93 Z " /><path fill="rgb(103,93,138)" stroke="rgb(103,93,138)" stroke-width="1" opacity="0.9764705882352941" d="M 81.5 94 L 80.5 96 L 81.5 94 Z " /><path fill="rgb(103,93,138)" stroke="rgb(103,93,138)" stroke-width="1" opacity="0.9764705882352941" d="M 119.5 96 L 120.5 98 L 119.5 96 Z " /><path fill="rgb(103,93,138)" stroke="rgb(103,93,138)" stroke-width="1" opacity="0.9764705882352941" d="M 76.5 98 L 75.5 100 L 76.5 98 Z " /><path fill="rgb(103,93,138)" stroke="rgb(103,93,138)" stroke-width="1" opacity="0.9764705882352941" d="M 124.5 100 L 126 102.5 L 124 101.5 L 124.5 100 Z " /><path fill="rgb(103,93,138)" stroke="rgb(103,93,138)" stroke-width="1" opacity="0.9764705882352941" d="M 72.5 103 L 71 105.5 L 70.5 107 L 70 105.5 L 72.5 103 Z " /><path fill="rgb(103,93,138)" stroke="rgb(103,93,138)" stroke-width="1" opacity="0.9764705882352941" d="M 128.5 107 L 129.5 109 L 128.5 107 Z " /><path fill="rgb(103,93,138)" stroke="rgb(103,93,138)" stroke-width="1" opacity="0.9764705882352941" d="M 69.5 108 L 70 109.5 L 68 110.5 L 69.5 108 Z " /><path fill="rgb(103,93,138)" stroke="rgb(103,93,138)" stroke-width="1" opacity="0.9764705882352941" d="M 119.5 108 L 120.5 110 L 119.5 108 Z " /><path fill="rgb(103,93,138)" stroke="rgb(103,93,138)" stroke-width="1" opacity="0.9764705882352941" d="M 131.5 113 L 132 116.5 L 131 116.5 L 131.5 113 Z " /><path fill="rgb(103,93,138)" stroke="rgb(103,93,138)" stroke-width="1" opacity="0.9764705882352941" d="M 67.5 114 L 68 116.5 L 66.5 119 L 66 115.5 L 67.5 114 Z " /><path fill="rgb(103,93,138)" stroke="rgb(103,93,138)" stroke-width="1" opacity="0.9764705882352941" d="M 120.5 119 L 119.5 121 L 120.5 119 Z " /><path fill="rgb(103,93,138)" stroke="rgb(103,93,138)" stroke-width="1" opacity="0.9764705882352941" d="M 132.5 121 L 133 124.5 L 132 124.5 L 132.5 121 Z " /><path fill="rgb(103,93,138)" stroke="rgb(103,93,138)" stroke-width="1" opacity="0.9764705882352941" d="M 66.5 126 L 68 130.5 L 66 129.5 L 66.5 126 Z " /><path fill="rgb(103,93,138)" stroke="rgb(103,93,138)" stroke-width="1" opacity="0.9764705882352941" d="M 131.5 128 L 132 132.5 L 130 133.5 L 131.5 128 Z " /><path fill="rgb(103,93,138)" stroke="rgb(103,93,138)" stroke-width="1" opacity="0.9764705882352941" d="M 129.5 136 L 128.5 138 L 129.5 136 Z " /><path fill="rgb(103,93,138)" stroke="rgb(103,93,138)" stroke-width="1" opacity="0.9764705882352941" d="M 70.5 139 L 72 141.5 L 71 141.5 L 70.5 139 Z " /><path fill="rgb(103,93,138)" stroke="rgb(103,93,138)" stroke-width="1" opacity="0.9764705882352941" d="M 126 140 L 128 140.5 L 125 142.5 L 126 140 Z " /><path fill="rgb(103,93,138)" stroke="rgb(103,93,138)" stroke-width="1" opacity="0.9764705882352941" d="M 123.5 145 L 122.5 147 L 123.5 145 Z " /><path fill="rgb(103,93,138)" stroke="rgb(103,93,138)" stroke-width="1" opacity="0.9764705882352941" d="M 76.5 146 L 78.5 149 L 76.5 146 Z " /><path fill="rgb(103,93,138)" stroke="rgb(103,93,138)" stroke-width="1" opacity="0.9764705882352941" d="M 119.5 148 L 121 148.5 L 117.5 151 L 119.5 148 Z " /><path fill="rgb(103,93,138)" stroke="rgb(103,93,138)" stroke-width="1" opacity="0.9764705882352941" d="M 80.5 149 L 84 151.5 L 82.5 152 L 80 151 L 80.5 149 Z " /><path fill="rgb(103,93,138)" stroke="rgb(103,93,138)" stroke-width="1" opacity="0.9764705882352941" d="M 115.5 151 L 116 153 L 114 152.5 L 115.5 151 Z " /><path fill="rgb(103,93,138)" stroke="rgb(103,93,138)" stroke-width="1" opacity="0.9764705882352941" d="M 87.5 153 L 90 154.5 L 88.5 155 L 87.5 153 Z " /><path fill="rgb(103,93,138)" stroke="rgb(103,93,138)" stroke-width="1" opacity="0.9764705882352941" d="M 111.5 153 L 110.5 155 L 109 154.5 L 111.5 153 Z " /><path fill="rgb(103,93,138)" stroke="rgb(103,93,138)" stroke-width="1" opacity="0.9764705882352941" d="M 91.5 155 L 95 155.5 L 91.5 156 L 91.5 155 Z " /><path fill="rgb(103,93,138)" stroke="rgb(103,93,138)" stroke-width="1" opacity="0.9764705882352941" d="M 103.5 155 L 107 155.5 L 103.5 156 L 103.5 155 Z " /><path fill="rgb(50,27,65)" stroke="rgb(50,27,65)" stroke-width="1" opacity="1" d="M 91.5 91 L 107.5 91 L 121 98 Q 119.9 100.7 122.5 100 L 127 105.5 L 131 114.5 L 131 130.5 L 126 142 L 124 142 Q 125.1 144.7 122.5 144 L 121 147 L 119 147 Q 120.1 149.7 117.5 149 L 109.5 154 L 99.5 154 L 98.5 155 L 97.5 154 L 89.5 154 L 82 151 L 82 149 L 80 149 Q 81.1 146.3 78.5 147 L 75 145 L 75 142 Q 72.3 143.1 73 140.5 Q 69.1 138.4 70 133 L 68 132.5 L 68 112 Q 71.3 113.3 70 108.5 L 75 100 L 91.5 91 Z M 110 101 Q 111 104 107 103 L 106 107 L 94 107 L 89 110 L 83 120 Q 82 128 86 133 L 95 139 L 105 139 L 107 137 L 109 137 Q 108 134 111 135 Q 115 131 116 124 Q 117 120 121 121 Q 120 118 123 117 Q 125 111 121 112 L 121 109 L 119 105 L 110 101 Z " /><path fill="rgb(69,59,103)" stroke="rgb(69,59,103)" stroke-width="1" opacity="1" d="M 98.5 89 L 102 90.5 L 96.5 91 L 96.5 90 L 98.5 89 Z " /><path fill="rgb(69,59,103)" stroke="rgb(69,59,103)" stroke-width="1" opacity="1" d="M 89.5 91 L 91 91.5 L 88.5 93 L 89.5 91 Z " /><path fill="rgb(69,59,103)" stroke="rgb(69,59,103)" stroke-width="1" opacity="1" d="M 108.5 91 L 111 92.5 L 109.5 93 L 108.5 91 Z " /><path fill="rgb(69,59,103)" stroke="rgb(69,59,103)" stroke-width="1" opacity="1" d="M 84.5 93 L 86 93.5 L 79.5 98 L 79 96 L 84.5 93 Z " /><path fill="rgb(69,59,103)" stroke="rgb(69,59,103)" stroke-width="1" opacity="1" d="M 113.5 93 L 116 94.5 L 114.5 95 L 113.5 93 Z " /><path fill="rgb(69,59,103)" stroke="rgb(69,59,103)" stroke-width="1" opacity="1" d="M 121.5 98 L 123.5 101 L 121 100 L 121.5 98 Z " /><path fill="rgb(69,59,103)" stroke="rgb(69,59,103)" stroke-width="1" opacity="1" d="M 110 101 L 114 102.5 L 112.5 103 L 110 102.5 L 110 101 Z " /><path fill="rgb(69,59,103)" stroke="rgb(69,59,103)" stroke-width="1" opacity="1" d="M 73.5 102 L 74 103.5 L 70.5 108 L 71 106.5 L 73.5 102 Z " /><path fill="rgb(69,59,103)" stroke="rgb(69,59,103)" stroke-width="1" opacity="1" d="M 124.5 102 L 125.5 104 L 124.5 102 Z " /><path fill="rgb(69,59,103)" stroke="rgb(69,59,103)" stroke-width="1" opacity="1" d="M 107.5 103 L 108 104.5 L 106 105.5 L 107.5 103 Z " /><path fill="rgb(69,59,103)" stroke="rgb(69,59,103)" stroke-width="1" opacity="1" d="M 93.5 107 L 105.5 107 L 106 108.5 L 106 110.5 L 108 118 L 110 118 Q 108.9 120.7 111.5 120 L 118 121.5 L 110.5 135 Q 107.9 134.3 109 137 L 106.5 137 L 104.5 139 L 94.5 139 L 86 132.5 Q 82.1 128.4 83 119.5 L 88.5 110 L 93.5 107 Z " /><path fill="rgb(69,59,103)" stroke="rgb(69,59,103)" stroke-width="1" opacity="1" d="M 119.5 107 L 120.5 109 L 119.5 107 Z " /><path fill="rgb(69,59,103)" stroke="rgb(69,59,103)" stroke-width="1" opacity="1" d="M 128.5 109 L 130 111.5 L 129 111.5 L 128.5 109 Z " /><path fill="rgb(69,59,103)" stroke="rgb(69,59,103)" stroke-width="1" opacity="1" d="M 69.5 110 L 70 112 L 68 111.5 L 69.5 110 Z " /><path fill="rgb(69,59,103)" stroke="rgb(69,59,103)" stroke-width="1" opacity="1" d="M 121 112 Q 124.7 110.7 123 116.5 L 121 117.5 L 122 114.5 L 121 112 Z " /><path fill="rgb(69,59,103)" stroke="rgb(69,59,103)" stroke-width="1" opacity="1" d="M 67.5 117 L 68 127.5 L 67 127.5 L 66 120.5 L 67.5 117 Z " /><path fill="rgb(69,59,103)" stroke="rgb(69,59,103)" stroke-width="1" opacity="1" d="M 131.5 118 L 132 126.5 L 131 126.5 L 131.5 118 Z " /><path fill="rgb(69,59,103)" stroke="rgb(69,59,103)" stroke-width="1" opacity="1" d="M 130.5 131 L 131 132.5 L 128.5 137 L 128 135.5 L 130.5 131 Z " /><path fill="rgb(69,59,103)" stroke="rgb(69,59,103)" stroke-width="1" opacity="1" d="M 68 133 Q 71 132 70 135 Q 67 136 68 133 Z " /><path fill="rgb(69,59,103)" stroke="rgb(69,59,103)" stroke-width="1" opacity="1" d="M 70.5 137 L 73 142 Q 75.7 140.9 75 143.5 L 72 141.5 L 70.5 137 Z " /><path fill="rgb(69,59,103)" stroke="rgb(69,59,103)" stroke-width="1" opacity="1" d="M 124.5 142 L 125 143.5 L 121.5 146 L 122.5 144 Q 125 144.7 124.5 142 Z " /><path fill="rgb(69,59,103)" stroke="rgb(69,59,103)" stroke-width="1" opacity="1" d="M 75.5 145 L 80 147 L 79.5 149 L 75.5 145 Z " /><path fill="rgb(69,59,103)" stroke="rgb(69,59,103)" stroke-width="1" opacity="1" d="M 84.5 151 L 87 152.5 L 85.5 153 L 84.5 151 Z " /><path fill="rgb(69,59,103)" stroke="rgb(69,59,103)" stroke-width="1" opacity="1" d="M 114.5 151 L 113.5 153 L 110.5 154 L 111.5 152 L 114.5 151 Z " /><path fill="rgb(69,59,103)" stroke="rgb(69,59,103)" stroke-width="1" opacity="1" d="M 91.5 154 Q 97 152.5 98.5 155 L 99.5 154 L 107.5 154 L 107.5 155 L 96.5 156 L 91.5 155 L 91.5 154 Z " /><path fill="rgb(99,89,148)" stroke="rgb(99,89,148)" stroke-width="1" opacity="1" d="M 10 86 L 39.5 86 L 43 88 L 43.5 90 L 51 90 L 53.5 86 L 71 86.5 L 64 92.5 L 61 98 L 59 98 L 59 102 Q 56 100.8 57 104.5 L 54 110.5 Q 55.3 118.7 53 123.5 L 54 124.5 L 54 134.5 L 59 147 Q 61.7 145.9 61 148.5 L 66 156 Q 69 155 68 158 L 70.5 158 L 69.5 160 L 10.5 160 L 8 161 Q 7 156.8 10 157.5 L 10 86 Z " /><path fill="rgb(99,89,148)" stroke="rgb(99,89,148)" stroke-width="1" opacity="1" d="M 128.5 86 L 188.5 86 L 190 87.5 L 190 158.5 L 188.5 160 L 129.5 160 L 128 158.5 L 133 154.5 L 137 149.5 L 144 136.5 Q 143.4 130.4 146 127.5 L 146 117.5 L 142 103.5 L 132 89 L 128.5 86 Z " /><path fill="rgb(99,89,148)" stroke="rgb(99,89,148)" stroke-width="1" opacity="1" d="M 128.5 108 L 129.5 110 L 128.5 108 Z " /><path fill="rgb(99,89,148)" stroke="rgb(99,89,148)" stroke-width="1" opacity="1" d="M 106.5 113 L 107.5 115 L 106.5 113 Z " /><path fill="rgb(106,98,142)" stroke="rgb(106,98,142)" stroke-width="1" opacity="0.25098039215686274" d="M 60.5 37 L 61.5 39 L 60.5 37 Z " /><path fill="rgb(106,98,142)" stroke="rgb(106,98,142)" stroke-width="1" opacity="0.25098039215686274" d="M 188.5 59 L 189.5 61 L 188.5 59 Z " /><path fill="rgb(106,98,142)" stroke="rgb(106,98,142)" stroke-width="1" opacity="0.25098039215686274" d="M 7 83 L 38 83.5 L 8 84 L 7.5 162 L 7 83 Z " /><path fill="rgb(106,98,142)" stroke="rgb(106,98,142)" stroke-width="1" opacity="0.25098039215686274" d="M 56.5 83 L 75 83.5 L 56.5 84 L 56.5 83 Z " /><path fill="rgb(106,98,142)" stroke="rgb(106,98,142)" stroke-width="1" opacity="0.25098039215686274" d="M 125.5 83 L 188.5 83 L 192 85 L 192 160.5 L 190.5 161 L 189.5 162 L 126.5 162 L 126.5 161 L 189.5 161 L 191 159.5 L 191 86.5 L 188.5 84 L 125.5 84 L 125.5 83 Z " /><path fill="rgb(106,98,142)" stroke="rgb(106,98,142)" stroke-width="1" opacity="0.25098039215686274" d="M 11.5 161 L 73 161.5 L 11.5 162 L 11.5 161 Z " /><path fill="rgb(144,142,150)" stroke="rgb(144,142,150)" stroke-width="1" opacity="0.9921568627450981" d="M 53.5 84 L 54 86 L 52 85.5 L 53.5 84 Z " /><path fill="rgb(144,142,150)" stroke="rgb(144,142,150)" stroke-width="1" opacity="0.9921568627450981" d="M 74.5 84 L 75 86 L 70 88 Q 71.1 90.7 68.5 90 L 65 95 L 63 95 L 63 98 Q 60.3 96.9 61 99.5 L 59 100.5 L 59 98 Q 61.7 99.1 61 96.5 L 67.5 89 L 74.5 84 Z " /><path fill="rgb(144,142,150)" stroke="rgb(144,142,150)" stroke-width="1" opacity="0.9921568627450981" d="M 40.5 85 L 43.5 89 L 40.5 85 Z " /><path fill="rgb(144,142,150)" stroke="rgb(144,142,150)" stroke-width="1" opacity="0.9921568627450981" d="M 124.5 85 L 132 89 L 131.5 91 L 126 88 Q 127.1 85.3 124.5 86 L 124.5 85 Z " /><path fill="rgb(144,142,150)" stroke="rgb(144,142,150)" stroke-width="1" opacity="0.9921568627450981" d="M 50.5 87 L 52 87.5 L 49.5 89 L 50.5 87 Z " /><path fill="rgb(144,142,150)" stroke="rgb(144,142,150)" stroke-width="1" opacity="0.9921568627450981" d="M 91.5 89 L 95 89.5 Q 92.9 91.9 87.5 91 L 82.5 94 L 82 92 L 85.5 92 L 91.5 89 Z " /><path fill="rgb(144,142,150)" stroke="rgb(144,142,150)" stroke-width="1" opacity="0.9921568627450981" d="M 104.5 89 L 110 90.5 L 105.5 91 L 104.5 89 Z " /><path fill="rgb(144,142,150)" stroke="rgb(144,142,150)" stroke-width="1" opacity="0.9921568627450981" d="M 113.5 92 L 119 94 L 118.5 96 Q 118 92.5 113.5 93 L 113.5 92 Z " /><path fill="rgb(144,142,150)" stroke="rgb(144,142,150)" stroke-width="1" opacity="0.9921568627450981" d="M 133.5 92 Q 139.5 97.3 142 105 Q 139 106.3 140 102.5 L 138 98 Q 135.3 99.1 136 96.5 Q 131.8 95.3 133.5 92 Z " /><path fill="rgb(144,142,150)" stroke="rgb(144,142,150)" stroke-width="1" opacity="0.9921568627450981" d="M 77.5 96 L 78 98 L 75 99.5 Q 75.8 101.8 73.5 101 L 77.5 96 Z " /><path fill="rgb(144,142,150)" stroke="rgb(144,142,150)" stroke-width="1" opacity="0.9921568627450981" d="M 120.5 96 L 121.5 98 L 120.5 96 Z " /><path fill="rgb(144,142,150)" stroke="rgb(144,142,150)" stroke-width="1" opacity="0.9921568627450981" d="M 123.5 98 L 124.5 100 Q 121.7 100.7 123.5 98 Z " /><path fill="rgb(144,142,150)" stroke="rgb(144,142,150)" stroke-width="1" opacity="0.9921568627450981" d="M 125.5 101 L 128 104.5 L 126 103.5 L 125.5 101 Z " /><path fill="rgb(144,142,150)" stroke="rgb(144,142,150)" stroke-width="1" opacity="0.9921568627450981" d="M 57 102 L 59 102.5 L 58 107 Q 55.3 108.1 56 105.5 L 57 102 Z " /><path fill="rgb(144,142,150)" stroke="rgb(144,142,150)" stroke-width="1" opacity="0.9921568627450981" d="M 72.5 102 L 71.5 104 L 72.5 102 Z " /><path fill="rgb(144,142,150)" stroke="rgb(144,142,150)" stroke-width="1" opacity="0.9921568627450981" d="M 114.5 103 L 115.5 105 L 114.5 103 Z " /><path fill="rgb(144,142,150)" stroke="rgb(144,142,150)" stroke-width="1" opacity="0.9921568627450981" d="M 69.5 105 L 70 107.5 L 66.5 115 L 66 112.5 L 69.5 105 Z " /><path fill="rgb(144,142,150)" stroke="rgb(144,142,150)" stroke-width="1" opacity="0.9921568627450981" d="M 128.5 106 L 129.5 108 L 128.5 106 Z " /><path fill="rgb(144,142,150)" stroke="rgb(144,142,150)" stroke-width="1" opacity="0.9921568627450981" d="M 142.5 107 L 144 108.5 Q 143.2 114.8 146 117.5 L 146 127.5 L 142.5 139 L 142 135.5 L 144 130.5 L 144 114.5 L 142.5 107 Z " /><path fill="rgb(144,142,150)" stroke="rgb(144,142,150)" stroke-width="1" opacity="0.9921568627450981" d="M 55.5 108 L 56 114 Q 52.7 115.3 54 110.5 L 55.5 108 Z " /><path fill="rgb(144,142,150)" stroke="rgb(144,142,150)" stroke-width="1" opacity="0.9921568627450981" d="M 106.5 108 L 107 110.5 L 106 110.5 L 106.5 108 Z " /><path fill="rgb(144,142,150)" stroke="rgb(144,142,150)" stroke-width="1" opacity="0.9921568627450981" d="M 130 110 Q 133 108.8 132 112.5 L 130 111.5 L 130 110 Z " /><path fill="rgb(144,142,150)" stroke="rgb(144,142,150)" stroke-width="1" opacity="0.9921568627450981" d="M 132.5 117 Q 135.3 119.7 134 126.5 L 132 127.5 L 133 121.5 L 132.5 117 Z " /><path fill="rgb(144,142,150)" stroke="rgb(144,142,150)" stroke-width="1" opacity="0.9921568627450981" d="M 53.5 121 L 54 123.5 L 53 123.5 L 53.5 121 Z " /><path fill="rgb(144,142,150)" stroke="rgb(144,142,150)" stroke-width="1" opacity="0.9921568627450981" d="M 66.5 130 L 71 140.5 L 69 139.5 L 66 132.5 L 66.5 130 Z " /><path fill="rgb(144,142,150)" stroke="rgb(144,142,150)" stroke-width="1" opacity="0.9921568627450981" d="M 54.5 131 Q 57 132 56 136.5 L 55 136.5 L 54.5 131 Z " /><path fill="rgb(144,142,150)" stroke="rgb(144,142,150)" stroke-width="1" opacity="0.9921568627450981" d="M 131.5 133 L 132 135 L 130 134.5 L 131.5 133 Z " /><path fill="rgb(144,142,150)" stroke="rgb(144,142,150)" stroke-width="1" opacity="0.9921568627450981" d="M 129.5 137 L 130 138.5 L 128 139.5 L 129.5 137 Z " /><path fill="rgb(144,142,150)" stroke="rgb(144,142,150)" stroke-width="1" opacity="0.9921568627450981" d="M 56.5 138 L 66 154 L 68 154 L 70 158 L 68 158 L 68 156 Q 65.3 157.1 66 154.5 L 61 147 Q 58 148.3 59 144.5 Q 55.7 142.5 56.5 138 Z " /><path fill="rgb(144,142,150)" stroke="rgb(144,142,150)" stroke-width="1" opacity="0.9921568627450981" d="M 140 140 Q 142.7 138.9 142 141.5 L 137 151 L 133 153 L 133 151 Q 135.7 152.1 135 149.5 L 136 147 L 138 147 Q 136.7 142.9 140 144 L 140 140 Z " /><path fill="rgb(144,142,150)" stroke="rgb(144,142,150)" stroke-width="1" opacity="0.9921568627450981" d="M 127.5 141 L 127 142.5 L 125 145.5 L 124 145.5 L 127.5 141 Z " /><path fill="rgb(144,142,150)" stroke="rgb(144,142,150)" stroke-width="1" opacity="0.9921568627450981" d="M 73 144 Q 75.7 142.9 75 145.5 L 80 149.5 L 78.5 150 L 75 148 L 73 144 Z " /><path fill="rgb(144,142,150)" stroke="rgb(144,142,150)" stroke-width="1" opacity="0.9921568627450981" d="M 119.5 149 L 121 149.5 L 116.5 153 L 116 151 L 119.5 149 Z " /><path fill="rgb(144,142,150)" stroke="rgb(144,142,150)" stroke-width="1" opacity="0.9921568627450981" d="M 85 153 L 88 154.5 L 85 155 L 85 153 Z " /><path fill="rgb(144,142,150)" stroke="rgb(144,142,150)" stroke-width="1" opacity="0.9921568627450981" d="M 112.5 153 L 114 153.5 L 111.5 155 L 112.5 153 Z " /><path fill="rgb(144,142,150)" stroke="rgb(144,142,150)" stroke-width="1" opacity="0.9921568627450981" d="M 131 154 L 133 154.5 L 128 158 Q 129.3 161 125.5 160 L 125.5 162 Q 122.5 162.7 124 159 L 131 156 L 131 154 Z " /><path fill="rgb(144,142,150)" stroke="rgb(144,142,150)" stroke-width="1" opacity="0.9921568627450981" d="M 89.5 155 L 91.5 156 L 106.5 156 L 108.5 155 L 107.5 157 L 91.5 157 L 89.5 155 Z " /><path fill="rgb(144,142,150)" stroke="rgb(144,142,150)" stroke-width="1" opacity="0.9921568627450981" d="M 71.5 158 L 75 160.5 Q 75.7 163.1 73 162 Q 74 159 71 160 L 71.5 158 Z " /><path fill="rgb(155,155,155)" stroke="rgb(155,155,155)" stroke-width="1" opacity="0.996078431372549" d="M 91.5 77 L 106.5 77 Q 110.5 80 117.5 80 L 119.5 82 L 123 82 L 124 86 L 126 86 Q 124.9 88.7 127.5 88 L 133 91 L 133 93.5 L 136 98 Q 138.7 96.9 138 99.5 L 140 105 Q 143.7 103.7 142 109.5 L 144 114.5 L 144 130.5 L 142 140 L 140 140 L 140 144 L 138 144 L 138 147 Q 135.3 145.9 136 148.5 L 135 151 L 133 151 L 133 154 L 131 154 Q 132.1 156.7 129.5 156 L 124 159 L 125 162.5 L 104.5 169 L 94.5 169 Q 90.6 166.1 84 167 Q 85.3 163.7 80.5 165 Q 79.1 161.9 74 162.5 L 75 160.5 L 70 158 L 70 156 L 68 156 L 68 154 Q 65.3 155.1 66 152.5 L 56 137.5 Q 57.3 131.8 54 130.5 L 54 114 L 56 114 L 56 107.5 Q 59 108.5 58 103.5 L 61 98 L 63 98 L 63 95 Q 65.7 96.1 65 93.5 L 70 90 Q 68.9 87.3 71.5 88 L 75 86 L 77.5 82 L 91.5 77 Z M 92 89 L 86 92 L 82 92 L 80 96 L 78 96 L 71 104 Q 72 106 69 105 L 66 113 L 66 133 L 71 142 Q 70 144 73 143 L 73 146 L 75 146 L 75 148 L 81 151 Q 83 150 82 153 L 85 153 L 85 155 Q 89 154 92 157 L 108 157 L 110 155 L 117 153 L 120 150 Q 122 151 121 148 L 123 148 L 123 146 L 125 146 L 125 144 L 127 144 L 130 139 Q 129 134 132 135 Q 130 128 134 127 Q 135 119 132 117 Q 134 109 130 110 L 130 108 L 125 100 L 121 96 Q 118 97 119 94 L 107 89 L 92 89 Z " /><path fill="rgb(155,155,155)" stroke="rgb(155,155,155)" stroke-width="1" opacity="0.996078431372549" d="M 43.5 87 L 44.5 89 L 43.5 87 Z " /><path fill="rgb(155,155,155)" stroke="rgb(155,155,155)" stroke-width="1" opacity="0.996078431372549" d="M 109.5 103 L 108.5 105 L 109.5 103 Z " /><path fill="rgb(155,155,155)" stroke="rgb(155,155,155)" stroke-width="1" opacity="0.996078431372549" d="M 119.5 109 L 120.5 111 L 119.5 109 Z " /><path fill="rgb(155,155,155)" stroke="rgb(155,155,155)" stroke-width="1" opacity="0.996078431372549" d="M 108.5 114 L 110 116.5 L 108 115.5 L 108.5 114 Z " /><path fill="rgb(155,155,155)" stroke="rgb(155,155,155)" stroke-width="1" opacity="0.996078431372549" d="M 112.5 119 L 113.5 121 L 112.5 119 Z " /><path fill="rgb(98,89,148)" stroke="rgb(98,89,148)" stroke-width="1" opacity="0.796078431372549" d="M 8 84 L 38.5 84 L 39 86 L 10 86 L 10 157.5 L 8 158 L 8 84 Z " /><path fill="rgb(98,89,148)" stroke="rgb(98,89,148)" stroke-width="1" opacity="0.796078431372549" d="M 54 84 L 74 84.5 L 72.5 86 L 54 86 L 54 84 Z " /><path fill="rgb(98,89,148)" stroke="rgb(98,89,148)" stroke-width="1" opacity="0.796078431372549" d="M 124.5 84 L 188.5 84 L 191 86.5 L 191 159.5 L 189.5 161 L 125 160.5 L 188.5 160 L 190 158.5 L 190 87.5 L 188.5 86 L 126.5 86 L 124.5 84 Z " /><path fill="rgb(98,89,148)" stroke="rgb(98,89,148)" stroke-width="1" opacity="0.796078431372549" d="M 10 160 L 73 160.5 L 11.5 161 L 10.5 162 L 10 160 Z " /></svg>