<svg width="200" height="200" version="1.1" xmlns="http://www.w3.org/2000/svg" desc="Created with imagetracer.js version 1.2.6" ><path fill="rgb(2,2,2)" stroke="rgb(2,2,2)" stroke-width="1" opacity="0.043137254901960784" d="M 0 0 L 200 0 L 200 200 L 0 200 L 0 0 Z M 43 6 L 43 8 L 44 9 Q 38 11 37 8 Q 32 7 34 11 L 31 10 L 29 13 L 30 14 L 28 13 Q 24 12 25 15 L 20 19 Q 21 21 18 20 L 18 24 L 15 26 L 16 29 L 13 29 L 13 37 L 14 38 L 14 154 L 13 155 Q 11 162 16 160 L 15 163 Q 13 168 17 167 L 18 170 L 18 172 L 22 174 L 22 176 L 25 178 L 25 179 L 29 179 L 29 181 L 34 180 L 36 184 L 44 183 L 45 186 L 50 185 L 157 185 L 162 186 L 163 183 Q 164 186 171 184 L 172 182 L 172 180 L 174 181 L 178 179 L 181 179 L 181 176 L 184 176 L 186 172 L 188 172 L 188 167 L 191 166 L 190 164 Q 189 158 193 160 L 192 155 L 192 144 L 195 143 L 195 47 L 192 46 L 192 36 L 193 35 Q 194 30 190 32 L 191 28 L 190 25 L 188 25 L 188 20 Q 185 21 186 18 L 183 17 Q 184 14 181 15 L 181 13 L 178 14 Q 175 15 176 11 L 172 11 L 171 8 L 166 9 Q 160 11 162 6 L 157 7 L 50 7 L 43 6 Z " /><path fill="rgb(4,4,4)" stroke="rgb(4,4,4)" stroke-width="1" opacity="0.9882352941176471" d="M 49.5 7 Q 57.1 5.5 56 9 L 47 8.5 L 49.5 7 Z " /><path fill="rgb(4,4,4)" stroke="rgb(4,4,4)" stroke-width="1" opacity="0.9882352941176471" d="M 150 7 L 156.5 7 L 157 9 L 150.5 9 L 150 7 Z " /><path fill="rgb(4,4,4)" stroke="rgb(4,4,4)" stroke-width="1" opacity="0.9882352941176471" d="M 39 9 Q 43.1 7.7 42 11 L 35 12 L 35 14 L 30 14 Q 31 17 28 16 L 28 19 L 26 19 L 26 21 L 23 21 Q 24 24 21 23 L 21 26.5 L 17.5 33 Q 14.5 33.7 16 30 L 18 30 L 18 25 Q 20.7 26.1 20 23.5 L 21 21 L 23 21 L 23 18 Q 26 19 25 16 L 28 16 Q 26.9 13.3 29.5 14 L 33 13 L 33 11 L 39 11 L 39 9 Z " /><path fill="rgb(4,4,4)" stroke="rgb(4,4,4)" stroke-width="1" opacity="0.9882352941176471" d="M 164 9 Q 168.3 8 167.5 11 L 173 11 L 173 12.5 L 173.5 14 L 171 14 L 170.5 12 L 164 12 L 164 9 Z " /><path fill="rgb(4,4,4)" stroke="rgb(4,4,4)" stroke-width="1" opacity="0.9882352941176471" d="M 175 14 L 178 14 L 178 16 L 180 16 Q 178.9 18.7 181.5 18 L 183 21 Q 186 20 185 23 L 182 23 L 182 21 L 178 19 L 178 16 Q 173.9 17.3 175 14 Z " /><path fill="rgb(4,4,4)" stroke="rgb(4,4,4)" stroke-width="1" opacity="0.9882352941176471" d="M 46.5 20 L 51 20.5 Q 48.5 24.3 42 23 L 42 25 L 39 25 Q 40 28 37 27 L 37 30 Q 33.3 28.5 34 31.5 L 32 32.5 L 32 29 Q 35 30 34 27 L 37 27 L 37 25 L 39 25 Q 37.9 22.3 40.5 23 L 46.5 20 Z " /><path fill="rgb(4,4,4)" stroke="rgb(4,4,4)" stroke-width="1" opacity="0.9882352941176471" d="M 154.5 20 L 160.5 20 Q 162.4 23.6 167 23 L 169 27 L 172 27 L 172 30 Q 174.7 28.9 174 31.5 Q 177 32.8 176 37 Q 173 38.3 174 34.5 L 173 32 Q 170.3 33.1 171 30.5 L 169 27 L 164 25 L 164 23 L 157.5 23 L 157 21 L 154.5 21 L 154.5 20 Z " /><path fill="rgb(4,4,4)" stroke="rgb(4,4,4)" stroke-width="1" opacity="0.9882352941176471" d="M 185 25 Q 188 23.8 187 27.5 L 188 30 L 190 30.5 L 190 36.5 L 192 37.5 L 192 44 Q 189.3 45.1 190 42.5 L 189 41.5 L 189 33 L 187 33 L 187 28.5 Q 184 29.3 185 25 Z " /><path fill="rgb(4,4,4)" stroke="rgb(4,4,4)" stroke-width="1" opacity="0.9882352941176471" d="M 30.5 34 Q 33.5 33.2 32 37 Q 29 36 30 39 L 90.5 39 L 93 40 L 93 54.5 L 91.5 55 L 87 56 L 87 62.5 L 86.5 63 L 49.5 63 L 49 64.5 Q 45.9 70.1 47 79 Q 52.3 80.3 51.5 77 L 70 77 Q 68.7 80.7 74.5 79 L 77 80 Q 78.1 83.3 74 82 L 73.5 80 L 65.5 80 L 64.5 78 L 56 78 L 55.5 80 L 46 80 L 46 62 L 86 62 L 86 55 L 91 54.5 L 91 40 L 30.5 40 L 29 38.5 Q 28.3 34.8 30.5 34 Z " /><path fill="rgb(4,4,4)" stroke="rgb(4,4,4)" stroke-width="1" opacity="0.9882352941176471" d="M 15.5 35 L 16 47 L 14 46.5 L 14 37.5 L 15.5 35 Z " /><path fill="rgb(4,4,4)" stroke="rgb(4,4,4)" stroke-width="1" opacity="0.9882352941176471" d="M 176 39 Q 179 37.8 178 41.5 L 179 42.5 L 179 148.5 L 176 150 L 176 140.5 L 177 138.5 L 176 137.5 L 176 39 Z " /><path fill="rgb(4,4,4)" stroke="rgb(4,4,4)" stroke-width="1" opacity="0.9882352941176471" d="M 28.5 41 L 30 41.5 L 30 55.5 L 28.5 58 L 27 42.5 L 28.5 41 Z " /><path fill="rgb(4,4,4)" stroke="rgb(4,4,4)" stroke-width="1" opacity="0.9882352941176471" d="M 79 82 L 82 82 L 82 84 L 84 84 Q 82.9 86.7 85.5 86 L 88 87 L 89 91 L 93 93 L 93 95.5 L 94 98 L 96 98 L 96 104.5 L 98 105.5 L 98 122 Q 94.5 120.9 96 128.5 L 93 136 L 89 138 L 89 140.5 L 86 145 L 79 148 L 79 150 L 75 150 Q 76.1 153.3 72 152 Q 70.9 149.3 73.5 150 L 77 149 L 77 147 L 81 147 Q 79.9 143.7 84 145 L 84 142 L 86 142 L 86 140 Q 88.7 141.1 88 138.5 L 89 136 L 91 136 Q 89.7 131.9 93 133 L 93 126.5 L 95 125.5 L 95 101 L 93 101 L 93 96.5 L 91 96 L 91 93.5 L 88 89 L 86 89 Q 87.1 86.3 84.5 87 Q 83.3 83.3 79 84 L 79 82 Z " /><path fill="rgb(4,4,4)" stroke="rgb(4,4,4)" stroke-width="1" opacity="0.9882352941176471" d="M 39 100 L 48.5 100 L 51.5 102 L 59.5 102 L 61 103.5 Q 61.7 106.5 58 105 L 57.5 103 L 30 103 L 30 121.5 L 27 122 L 27 102 L 38.5 102 L 39 100 Z " /><path fill="rgb(4,4,4)" stroke="rgb(4,4,4)" stroke-width="1" opacity="0.9882352941176471" d="M 63 105 L 68 107 Q 66.5 113.3 70 112.5 L 70 127 L 68 127 L 68 131 L 66.5 131 L 65 134 L 61 134 Q 62.1 137.3 58 136 Q 56.8 133 60.5 134 L 63 133 L 63 131 Q 65.7 132.1 65 129.5 L 68 126.5 L 68 112.5 L 67 110 L 65 110 L 65 107 Q 62 108 63 105 Z " /><path fill="rgb(4,4,4)" stroke="rgb(4,4,4)" stroke-width="1" opacity="0.9882352941176471" d="M 37 122 Q 40 121 39 124 Q 36 125 37 122 Z " /><path fill="rgb(4,4,4)" stroke="rgb(4,4,4)" stroke-width="1" opacity="0.9882352941176471" d="M 39.5 126 L 42 133 Q 45.3 131.9 44 136 Q 39.5 137.8 41 132.5 Q 37.5 131.1 39.5 126 Z " /><path fill="rgb(4,4,4)" stroke="rgb(4,4,4)" stroke-width="1" opacity="0.9882352941176471" d="M 46 136 L 53.5 136 L 54 138 L 49.5 139 L 46 138 L 46 136 Z " /><path fill="rgb(4,4,4)" stroke="rgb(4,4,4)" stroke-width="1" opacity="0.9882352941176471" d="M 14.5 143 Q 17.7 146.3 16 154.5 L 14 153.5 L 14.5 143 Z " /><path fill="rgb(4,4,4)" stroke="rgb(4,4,4)" stroke-width="1" opacity="0.9882352941176471" d="M 190 145 L 192 145.5 L 192 154 L 190 154 L 190 161.5 L 188 162 L 188 163.5 L 185.5 167 L 185 164 Q 189 165.4 187 158.5 L 189 156.5 L 190 145 Z " /><path fill="rgb(4,4,4)" stroke="rgb(4,4,4)" stroke-width="1" opacity="0.9882352941176471" d="M 30 150 Q 33.5 148.9 32 156.5 L 35 162 L 37 162 L 37 164 L 39 164 Q 37.9 166.7 40.5 166 Q 42.8 170.1 49 169 L 49.5 171 L 157 171 L 157 169 L 162 169 Q 160.9 166.3 163.5 167 L 167 166 L 167 164 L 171 162 L 171 159 Q 173.7 160.1 173 157.5 L 175.5 152 L 176 157 L 174 157 L 174 162 L 172 162 Q 173.1 164.7 170.5 164 L 169 167 L 166.5 167 L 158.5 172 L 46.5 172 L 43.5 169 L 37 167 L 35.5 164 Q 32.9 164.7 34 162 L 32 162 L 32 157 Q 29.3 158.1 30 155.5 L 29 152.5 L 30 150 Z " /><path fill="rgb(4,4,4)" stroke="rgb(4,4,4)" stroke-width="1" opacity="0.9882352941176471" d="M 37.5 152 Q 44.3 150.3 46 153.5 L 39.5 154 L 37.5 152 Z " /><path fill="rgb(4,4,4)" stroke="rgb(4,4,4)" stroke-width="1" opacity="0.9882352941176471" d="M 63.5 152 Q 69.3 150.3 68 154 L 62 153.5 L 63.5 152 Z " /><path fill="rgb(4,4,4)" stroke="rgb(4,4,4)" stroke-width="1" opacity="0.9882352941176471" d="M 16 157 Q 18.7 155.9 18 158.5 L 19 164 L 21 164 L 21 168 Q 24.3 166.9 23 171 L 26 171 L 26 173 L 28 173 Q 26.9 175.7 29.5 175 L 32 176 L 32 178 Q 36.1 176.7 35 180 L 30 178 Q 31.3 175 27.5 176 L 23 173 L 20 166 L 18 166 L 18 161.5 Q 14.7 162.3 16 157 Z " /><path fill="rgb(4,4,4)" stroke="rgb(4,4,4)" stroke-width="1" opacity="0.9882352941176471" d="M 182 168 L 185 168.5 Q 182.3 169.6 183 173 L 180 173 Q 181.1 175.7 178.5 175 L 176 176 L 176 178 Q 171.9 176.7 173 180 L 169.5 180 L 167 181 Q 168.1 184.3 164 183 Q 162.2 178.1 168.5 180 L 175.5 175 L 178 175 L 178 173 L 182 171 L 182 168 Z " /><path fill="rgb(4,4,4)" stroke="rgb(4,4,4)" stroke-width="1" opacity="0.9882352941176471" d="M 37.5 180 Q 43.8 178.1 42 183 L 39 183 Q 40.1 180.3 37.5 181 L 37.5 180 Z " /><path fill="rgb(4,4,4)" stroke="rgb(4,4,4)" stroke-width="1" opacity="0.9882352941176471" d="M 44.5 182 Q 52.2 181.2 56 183 L 55.5 185 L 49 185 Q 50.4 181.3 44.5 183 L 44.5 182 Z " /><path fill="rgb(4,4,4)" stroke="rgb(4,4,4)" stroke-width="1" opacity="0.9882352941176471" d="M 152.5 182 L 162 182.5 L 157 183 L 156.5 185 L 150 185 Q 148.9 182.3 151.5 183 L 152.5 182 Z " /><path fill="rgb(242,242,242)" stroke="rgb(242,242,242)" stroke-width="1" opacity="0.9882352941176471" d="M 25 13 Q 28 12 27 15 Q 24 16 25 13 Z " /><path fill="rgb(242,242,242)" stroke="rgb(242,242,242)" stroke-width="1" opacity="0.9882352941176471" d="M 179.5 13 L 180.5 15 Q 177.7 15.7 179.5 13 Z " /><path fill="rgb(242,242,242)" stroke="rgb(242,242,242)" stroke-width="1" opacity="0.9882352941176471" d="M 18 20 Q 21 19 20 22 Q 17 23 18 20 Z " /><path fill="rgb(242,242,242)" stroke="rgb(242,242,242)" stroke-width="1" opacity="0.9882352941176471" d="M 186.5 20 L 188 22.5 L 186 21.5 L 186.5 20 Z " /><path fill="rgb(242,242,242)" stroke="rgb(242,242,242)" stroke-width="1" opacity="0.9882352941176471" d="M 51 21 L 56 21 L 56 23 L 51 23 L 51 21 Z " /><path fill="rgb(242,242,242)" stroke="rgb(242,242,242)" stroke-width="1" opacity="0.9882352941176471" d="M 150 21 Q 153.8 20 155 22.5 L 150 23 L 150 21 Z " /><path fill="rgb(242,242,242)" stroke="rgb(242,242,242)" stroke-width="1" opacity="0.9882352941176471" d="M 44 23 L 47 23.5 L 42 26 L 40 30 L 37 30 L 37 33 L 35 33 L 35 37 Q 32.3 35.9 33 38.5 L 32 38.5 L 35 30 L 37 30 Q 35.9 27.3 38.5 28 Q 39.8 24.3 44 25 L 44 23 Z " /><path fill="rgb(242,242,242)" stroke="rgb(242,242,242)" stroke-width="1" opacity="0.9882352941176471" d="M 159 23 L 162 23 Q 160.9 25.7 163.5 25 L 166 26 L 166 28 L 169 28 Q 168 31 171 30 L 171 33 L 168 31.5 Q 168.7 28.9 166 30 L 166 28 L 164 28 L 164 26 L 161.5 26 L 159 25 L 159 23 Z " /><path fill="rgb(242,242,242)" stroke="rgb(242,242,242)" stroke-width="1" opacity="0.9882352941176471" d="M 13 30 Q 16 29 15 32 Q 12 33 13 30 Z " /><path fill="rgb(242,242,242)" stroke="rgb(242,242,242)" stroke-width="1" opacity="0.9882352941176471" d="M 171 34 Q 174.3 32.9 173 37 Q 169.7 38.1 171 34 Z " /><path fill="rgb(242,242,242)" stroke="rgb(242,242,242)" stroke-width="1" opacity="0.9882352941176471" d="M 93.5 39 L 96 39.5 L 96 56 L 94 55.5 L 94 40.5 L 93.5 39 Z " /><path fill="rgb(242,242,242)" stroke="rgb(242,242,242)" stroke-width="1" opacity="0.9882352941176471" d="M 173.5 39 L 176 44.5 L 176 146.5 L 173.5 152 L 173 143.5 L 175 140.5 L 175 49.5 L 173 47.5 L 173.5 39 Z " /><path fill="rgb(242,242,242)" stroke="rgb(242,242,242)" stroke-width="1" opacity="0.9882352941176471" d="M 86 63 Q 90.5 61.5 89 66 L 50.5 66 L 49.5 67 L 49 65 L 85.5 65 L 86 63 Z " /><path fill="rgb(242,242,242)" stroke="rgb(242,242,242)" stroke-width="1" opacity="0.9882352941176471" d="M 49.5 76 L 72 76.5 L 49.5 77 L 49.5 76 Z " /><path fill="rgb(242,242,242)" stroke="rgb(242,242,242)" stroke-width="1" opacity="0.9882352941176471" d="M 73 77 Q 76 76 75 79 Q 72 80 73 77 Z " /><path fill="rgb(242,242,242)" stroke="rgb(242,242,242)" stroke-width="1" opacity="0.9882352941176471" d="M 79 79 L 85 82.5 L 84.5 84 L 84 82 L 79 81 L 79 79 Z " /><path fill="rgb(242,242,242)" stroke="rgb(242,242,242)" stroke-width="1" opacity="0.9882352941176471" d="M 86.5 84 L 87.5 86 Q 84.7 86.7 86.5 84 Z " /><path fill="rgb(242,242,242)" stroke="rgb(242,242,242)" stroke-width="1" opacity="0.9882352941176471" d="M 89 86 Q 92 84.8 91 88.5 L 94 93 Q 97.3 91.9 96 96 Q 93 97.3 94 93.5 L 93 91 L 89 89 L 89 86 Z " /><path fill="rgb(242,242,242)" stroke="rgb(242,242,242)" stroke-width="1" opacity="0.9882352941176471" d="M 96 98 L 99 99.5 Q 97.8 105.3 101 106.5 L 101 120.5 L 99 122.5 Q 99.8 128.6 98 131 Q 94.3 132.2 96 127 L 98 126.5 L 98 101.5 L 96 98 Z " /><path fill="rgb(242,242,242)" stroke="rgb(242,242,242)" stroke-width="1" opacity="0.9882352941176471" d="M 30 103 L 35 103.5 L 32 106.5 L 32 121 L 30 120.5 L 30 103 Z " /><path fill="rgb(242,242,242)" stroke="rgb(242,242,242)" stroke-width="1" opacity="0.9882352941176471" d="M 51.5 103 L 55.5 103 Q 54.5 106 59.5 105 L 65 108 Q 66.1 110.7 63.5 110 L 60 108 Q 61.4 104 54.5 106 L 51.5 103 Z " /><path fill="rgb(242,242,242)" stroke="rgb(242,242,242)" stroke-width="1" opacity="0.9882352941176471" d="M 65 112 L 67 112.5 L 67 126 L 65 125.5 L 65 112 Z " /><path fill="rgb(242,242,242)" stroke="rgb(242,242,242)" stroke-width="1" opacity="0.9882352941176471" d="M 39.5 121 Q 44.1 119.7 42 125.5 L 41 125.5 L 39.5 121 Z " /><path fill="rgb(242,242,242)" stroke="rgb(242,242,242)" stroke-width="1" opacity="0.9882352941176471" d="M 42 128 Q 45 126.8 44 130.5 L 45 133 Q 48.1 132.3 47.5 135 L 52.5 135 Q 53.3 132.3 57.5 133 L 57.5 134 Q 54.9 137.4 47.5 136 L 44 133.5 Q 45 129.8 42 131 L 42 128 Z " /><path fill="rgb(242,242,242)" stroke="rgb(242,242,242)" stroke-width="1" opacity="0.9882352941176471" d="M 63.5 128 L 65 128.5 L 63 129 L 62.5 131 L 62 129.5 L 63.5 128 Z " /><path fill="rgb(242,242,242)" stroke="rgb(242,242,242)" stroke-width="1" opacity="0.9882352941176471" d="M 94 133 Q 97.3 131.9 96 136 L 94 136 L 94 139 Q 91.3 137.9 92 140.5 L 91 143 L 89 143 Q 90.1 145.7 87.5 145 L 86 148 Q 82.7 149.1 84 145 L 87 145 L 87 143 L 91 141 L 91 138 Q 93.7 139.1 93 136.5 L 94 133 Z " /><path fill="rgb(242,242,242)" stroke="rgb(242,242,242)" stroke-width="1" opacity="0.9882352941176471" d="M 77 150 L 80 150.5 Q 78 153.8 73 153 Q 74.1 156.3 70 155 Q 68.8 152 72.5 153 L 77 152 L 77 150 Z " /><path fill="rgb(242,242,242)" stroke="rgb(242,242,242)" stroke-width="1" opacity="0.9882352941176471" d="M 33.5 153 L 37 154.5 L 35 155 Q 36 158 33 157 L 33.5 153 Z " /><path fill="rgb(242,242,242)" stroke="rgb(242,242,242)" stroke-width="1" opacity="0.9882352941176471" d="M 171 154 Q 174.3 152.9 173 157 Q 169.7 158.1 171 154 Z " /><path fill="rgb(242,242,242)" stroke="rgb(242,242,242)" stroke-width="1" opacity="0.9882352941176471" d="M 35 159 L 37 159 Q 35.9 161.7 38.5 161 L 40 164 Q 43 163 42 166 Q 39 167 40 164 L 37 164 L 37 161 Q 34 162 35 159 Z " /><path fill="rgb(242,242,242)" stroke="rgb(242,242,242)" stroke-width="1" opacity="0.9882352941176471" d="M 168 159 Q 172.1 157.7 171 161 L 168 162.5 Q 168.8 164.8 166.5 164 L 164 165.5 Q 163.3 162.9 166 164 L 166 161 L 168 161 L 168 159 Z " /><path fill="rgb(242,242,242)" stroke="rgb(242,242,242)" stroke-width="1" opacity="0.9882352941176471" d="M 16.5 164 Q 19.5 165.5 16.5 167 L 16.5 164 Z " /><path fill="rgb(242,242,242)" stroke="rgb(242,242,242)" stroke-width="1" opacity="0.9882352941176471" d="M 44 166 L 47.5 168 L 54.5 168 L 58 170.5 L 52.5 171 L 50.5 169 L 44 168 L 44 166 Z " /><path fill="rgb(242,242,242)" stroke="rgb(242,242,242)" stroke-width="1" opacity="0.9882352941176471" d="M 159 166 L 162 166.5 Q 159.7 170 154 169 Q 155.4 173 148.5 171 L 148.5 170 L 150 170 L 150.5 168 L 159 168 L 159 166 Z " /><path fill="rgb(242,242,242)" stroke="rgb(242,242,242)" stroke-width="1" opacity="0.9882352941176471" d="M 18 169 Q 21 168 20 171 Q 17 172 18 169 Z " /><path fill="rgb(242,242,242)" stroke="rgb(242,242,242)" stroke-width="1" opacity="0.9882352941176471" d="M 186 169 Q 189 168 188 171 Q 185 172 186 169 Z " /><path fill="rgb(242,242,242)" stroke="rgb(242,242,242)" stroke-width="1" opacity="0.9882352941176471" d="M 20.5 172 L 25 174 L 27 178 L 25 178 L 25 176 L 23 176 Q 24.1 173.3 21.5 174 L 20.5 172 Z " /><path fill="rgb(242,242,242)" stroke="rgb(242,242,242)" stroke-width="1" opacity="0.9882352941176471" d="M 183.5 172 Q 185.8 171.3 185 173.5 L 183.5 172 Z " /><path fill="rgb(242,242,242)" stroke="rgb(242,242,242)" stroke-width="1" opacity="0.9882352941176471" d="M 181 174 Q 184 173 183 176 Q 180 175 181 178 L 178.5 178 L 179.5 176 Q 182.1 176.7 181 174 Z " /><path fill="rgb(242,242,242)" stroke="rgb(242,242,242)" stroke-width="1" opacity="0.9882352941176471" d="M 174 179 Q 177 178 176 181 Q 173 182 174 179 Z " /><path fill="rgb(242,242,242)" stroke="rgb(242,242,242)" stroke-width="1" opacity="0.9882352941176471" d="M 169.5 181 Q 171.8 180.3 171 182.5 L 169.5 181 Z " /><path fill="rgb(0,0,0)" stroke="rgb(0,0,0)" stroke-width="1" opacity="1" d="M 56 7 L 149.5 7 L 150.5 9 L 163.5 9 L 164 12 L 170.5 12 Q 169.7 15.3 175 14 L 175 16 L 178 16 L 178 19 L 180 19 L 182 23 L 185 23 L 185 28 L 187 28 Q 185.5 34.3 189 33.5 L 189 41.5 L 190 44 L 192 44.5 L 192 145 Q 188.3 143.7 190 149.5 Q 187.5 151 189 156.5 L 187 158.5 L 187 164 L 185 164 L 185 168 L 182 168 L 182 171 L 180 171 L 178 175 L 175.5 175 L 168.5 180 L 164 180 Q 165.5 183.8 162.5 183 L 161.5 182 L 152.5 182 L 150 183 L 149.5 185 L 56 185 Q 57.3 182 53.5 183 L 52.5 182 L 44.5 182 L 42 183 L 42 180 L 35 180 L 35 178 L 32 178 Q 33.1 175.3 30.5 176 L 28 175 L 26 171 L 23 171 Q 24.3 166.9 21 168 Q 22.3 162.7 19 163.5 L 19 159.5 L 18 157 L 16 156.5 L 16 145.5 L 14 142.5 L 14 47 L 16 46.5 L 16 33.5 L 17.5 33 L 21 26.5 L 21 23 Q 24 24 23 21 L 26 21 L 26 19 L 28 19 L 28 16 Q 31 17 30 14 Q 36.3 15.5 35.5 12 L 39.5 12 L 42 11 L 42.5 9 L 55.5 9 L 56 7 Z M 47 20 L 41 23 Q 38 22 39 25 L 37 25 L 37 27 L 34 27 Q 35 30 32 29 L 32 34 L 31 34 Q 28 35 29 39 L 31 40 L 91 40 L 91 55 L 86 55 L 86 62 L 46 62 L 46 80 L 56 80 L 56 78 L 65 78 L 66 80 L 74 80 Q 73 84 79 82 L 79 84 Q 83 83 85 87 Q 87 86 86 89 L 88 89 L 91 94 L 91 96 L 93 97 L 93 101 L 95 101 L 95 126 L 93 127 L 93 133 Q 90 132 91 136 L 89 136 L 88 139 Q 89 141 86 140 L 86 142 L 84 142 L 84 145 Q 80 144 81 147 L 77 147 L 77 149 L 74 150 Q 71 149 72 152 L 64 152 L 62 154 L 47 154 L 45 152 L 33 152 Q 33 149 30 150 L 29 153 L 30 156 Q 29 158 32 157 L 32 162 L 34 162 Q 33 165 36 164 L 37 167 L 44 169 L 47 172 L 159 172 L 167 167 L 169 167 L 171 164 Q 173 165 172 162 L 174 162 L 174 157 L 176 157 L 176 150 L 179 149 L 179 43 L 178 42 Q 179 38 176 39 Q 177 33 174 32 Q 175 29 172 30 L 172 27 L 169 27 L 167 23 Q 162 24 161 20 L 47 20 Z M 29 41 L 27 43 L 29 58 L 30 56 L 30 42 L 29 41 Z M 39 100 L 39 102 L 27 102 L 27 122 L 37 122 Q 36 125 39 124 Q 37 131 41 133 L 41 136 L 46 136 L 46 138 L 50 139 L 52 138 Q 55 139 54 136 L 61 136 Q 60 133 65 134 L 67 131 L 68 131 L 68 127 L 70 127 L 70 113 Q 67 113 68 107 L 65 105 Q 60 106 61 104 L 60 102 L 52 102 L 49 100 L 39 100 Z " /><path fill="rgb(148,148,148)" stroke="rgb(148,148,148)" stroke-width="1" opacity="0.7411764705882353" d="M 44 6 L 49 6 L 49 8 L 44 9 L 44 6 Z " /><path fill="rgb(148,148,148)" stroke="rgb(148,148,148)" stroke-width="1" opacity="0.7411764705882353" d="M 157 6 L 162 6 L 162 9 L 157 9 L 157 6 Z " /><path fill="rgb(148,148,148)" stroke="rgb(148,148,148)" stroke-width="1" opacity="0.7411764705882353" d="M 34 8 L 39 9 L 39 11 L 34 11 L 34 8 Z " /><path fill="rgb(148,148,148)" stroke="rgb(148,148,148)" stroke-width="1" opacity="0.7411764705882353" d="M 166.5 8 Q 171 7 172 9.5 L 172 11 L 167 11 L 166.5 8 Z " /><path fill="rgb(148,148,148)" stroke="rgb(148,148,148)" stroke-width="1" opacity="0.7411764705882353" d="M 29 11 Q 34.2 9.3 33 13 Q 27.8 14.7 29 11 Z " /><path fill="rgb(148,148,148)" stroke="rgb(148,148,148)" stroke-width="1" opacity="0.7411764705882353" d="M 173 11 Q 177.5 9.5 176 14 L 173 12.5 L 173 11 Z " /><path fill="rgb(148,148,148)" stroke="rgb(148,148,148)" stroke-width="1" opacity="0.7411764705882353" d="M 27.5 13 L 28 16 L 25 16 L 25 18 L 23 18 L 23 21 Q 20.3 19.9 21 22.5 L 20 25 L 18 25 Q 19.5 31.3 16 30.5 L 16 34.5 L 15 37 L 13 37 L 13 32 Q 16 33 15 30 L 13 29.5 L 16 28.5 L 15 25 L 18 23.5 Q 17.3 20.9 20 22 L 20 18 Q 22.7 19.1 22 16.5 Q 23.2 14 27 15 L 27.5 13 Z " /><path fill="rgb(148,148,148)" stroke="rgb(148,148,148)" stroke-width="1" opacity="0.7411764705882353" d="M 178.5 13 L 179 15 L 183 15 Q 181.5 19.5 186 18 L 186 21.5 L 188 25 L 190 25 L 190 30 Q 187.3 31.1 188 28.5 L 187 25 L 185 25 L 185 21 Q 182.3 22.1 183 19.5 L 180 18 Q 181 15 178 16 L 178.5 13 Z " /><path fill="rgb(148,148,148)" stroke="rgb(148,148,148)" stroke-width="1" opacity="0.7411764705882353" d="M 51.5 20 L 153.5 20 L 157 21 Q 158.1 23.7 155.5 23 L 153.5 21 L 51 21 Q 52.3 24 48.5 23 L 49.5 21 L 51.5 20 Z " /><path fill="rgb(148,148,148)" stroke="rgb(148,148,148)" stroke-width="1" opacity="0.7411764705882353" d="M 42 23 Q 45 22 44 25 Q 41 26 42 23 Z " /><path fill="rgb(148,148,148)" stroke="rgb(148,148,148)" stroke-width="1" opacity="0.7411764705882353" d="M 162 23 L 164 23 Q 162.9 25.7 165.5 25 L 169 27.5 L 166 28 Q 167.1 25.3 164.5 26 L 162 25 L 162 23 Z " /><path fill="rgb(148,148,148)" stroke="rgb(148,148,148)" stroke-width="1" opacity="0.7411764705882353" d="M 39 25 L 41 25.5 L 37.5 28 L 37.5 27 Q 40.1 27.7 39 25 Z " /><path fill="rgb(148,148,148)" stroke="rgb(148,148,148)" stroke-width="1" opacity="0.7411764705882353" d="M 34.5 30 L 35 32.5 L 32 39 Q 29 40 30 37 Q 33.3 38.3 32 33.5 L 34.5 30 Z " /><path fill="rgb(148,148,148)" stroke="rgb(148,148,148)" stroke-width="1" opacity="0.7411764705882353" d="M 171 32 Q 173.7 30.9 173 33.5 L 174 37 Q 177.5 35.9 176 43.5 L 175 43.5 L 173 34 Q 170 35 171 32 Z " /><path fill="rgb(148,148,148)" stroke="rgb(148,148,148)" stroke-width="1" opacity="0.7411764705882353" d="M 190 32 Q 194.1 30.3 193 34.5 L 192 37 L 190 37 L 190 32 Z " /><path fill="rgb(148,148,148)" stroke="rgb(148,148,148)" stroke-width="1" opacity="0.7411764705882353" d="M 91.5 39 L 94 40.5 L 94 55.5 L 91.5 56 L 91.5 55 L 93 54.5 L 93 40 L 91.5 39 Z " /><path fill="rgb(148,148,148)" stroke="rgb(148,148,148)" stroke-width="1" opacity="0.7411764705882353" d="M 192 46 L 195 46.5 L 195 143 L 192 142.5 L 192 46 Z " /><path fill="rgb(148,148,148)" stroke="rgb(148,148,148)" stroke-width="1" opacity="0.7411764705882353" d="M 87 56 L 89 56.5 L 89 63 L 87 62.5 L 87 56 Z " /><path fill="rgb(148,148,148)" stroke="rgb(148,148,148)" stroke-width="1" opacity="0.7411764705882353" d="M 49 63 L 85.5 63 L 86 65 L 49.5 65 L 49 65.5 L 49 77 Q 52 76 51 79 L 47 79 L 47 70.5 L 49 63 Z " /><path fill="rgb(148,148,148)" stroke="rgb(148,148,148)" stroke-width="1" opacity="0.7411764705882353" d="M 70 77 Q 74.1 75.7 73 79 Q 68.9 80.3 70 77 Z " /><path fill="rgb(148,148,148)" stroke="rgb(148,148,148)" stroke-width="1" opacity="0.7411764705882353" d="M 75.5 79 L 79 79 Q 77.9 81.7 80.5 81 L 80.5 82 L 77 82 Q 78.1 79.3 75.5 80 L 75.5 79 Z " /><path fill="rgb(148,148,148)" stroke="rgb(148,148,148)" stroke-width="1" opacity="0.7411764705882353" d="M 82 82 L 84 82 L 86 86 L 89 86 L 89 89 L 91 89 L 91 91 Q 93.7 89.9 93 92.5 L 94 96 Q 97 95 96 98 Q 93.3 99.1 94 96.5 L 93 93 L 91 93 L 91 91 Q 88.3 92.1 89 89.5 L 88 87 L 84 86 L 82 82 Z " /><path fill="rgb(148,148,148)" stroke="rgb(148,148,148)" stroke-width="1" opacity="0.7411764705882353" d="M 96.5 100 Q 99 101.2 98 105 Q 93.9 106.2 96.5 100 Z " /><path fill="rgb(148,148,148)" stroke="rgb(148,148,148)" stroke-width="1" opacity="0.7411764705882353" d="M 56 103 Q 59 102 58 105 Q 55 106 56 103 Z " /><path fill="rgb(148,148,148)" stroke="rgb(148,148,148)" stroke-width="1" opacity="0.7411764705882353" d="M 60.5 105 L 63 105 Q 61.9 107.7 64.5 107 L 64.5 108 Q 60.5 107.5 60.5 105 Z " /><path fill="rgb(148,148,148)" stroke="rgb(148,148,148)" stroke-width="1" opacity="0.7411764705882353" d="M 65 110 Q 67.7 108.9 67 111.5 L 68 112.5 L 68 126.5 L 65 131 L 63 131 Q 64.1 133.7 61.5 133 L 58 134 Q 59.3 137 55.5 136 L 56.5 134 L 61 133 L 61 131 L 65 129 L 65 126 L 67 125.5 L 67 112 Q 64 113 65 110 Z " /><path fill="rgb(148,148,148)" stroke="rgb(148,148,148)" stroke-width="1" opacity="0.7411764705882353" d="M 30.5 121 L 38.5 121 L 40 122.5 Q 42.8 125.5 42 131 Q 45 130 44 133 Q 41.3 134.1 42 131.5 Q 38.3 128.1 39 122 L 30.5 122 L 30.5 121 Z " /><path fill="rgb(148,148,148)" stroke="rgb(148,148,148)" stroke-width="1" opacity="0.7411764705882353" d="M 96 122 L 98 122 L 98 127 L 96 127 L 96 122 Z " /><path fill="rgb(148,148,148)" stroke="rgb(148,148,148)" stroke-width="1" opacity="0.7411764705882353" d="M 95.5 129 L 96 133 Q 93 131.8 94 135.5 L 93 138 L 91 138 L 91 141 L 89 141 L 89 143 Q 86.3 141.9 87 144.5 L 86 144.5 L 89 140.5 L 89 138 L 93 136 L 93 133.5 L 95.5 129 Z " /><path fill="rgb(148,148,148)" stroke="rgb(148,148,148)" stroke-width="1" opacity="0.7411764705882353" d="M 44.5 134 L 47 135.5 L 44 136 L 44.5 134 Z " /><path fill="rgb(148,148,148)" stroke="rgb(148,148,148)" stroke-width="1" opacity="0.7411764705882353" d="M 83.5 146 L 84 148 L 79 150 Q 77.9 147.3 80.5 148 L 83.5 146 Z " /><path fill="rgb(148,148,148)" stroke="rgb(148,148,148)" stroke-width="1" opacity="0.7411764705882353" d="M 175.5 147 L 176 151.5 L 173 159 Q 170 160 171 157 Q 174.7 158.3 173 152.5 L 175.5 147 Z " /><path fill="rgb(148,148,148)" stroke="rgb(148,148,148)" stroke-width="1" opacity="0.7411764705882353" d="M 75 150 Q 78 149 77 152 Q 74 153 75 150 Z " /><path fill="rgb(148,148,148)" stroke="rgb(148,148,148)" stroke-width="1" opacity="0.7411764705882353" d="M 32 152 Q 37.3 151 39.5 154 L 68 154 Q 66.7 150.3 72.5 152 L 72.5 153 L 70 153 L 69.5 155 L 37.5 155 L 33.5 153 L 33 157 Q 36 155.8 35 159.5 L 33 158.5 L 32 152 Z " /><path fill="rgb(148,148,148)" stroke="rgb(148,148,148)" stroke-width="1" opacity="0.7411764705882353" d="M 13 154 L 16 155.5 Q 17.9 161.8 13 160 L 13 154 Z " /><path fill="rgb(148,148,148)" stroke="rgb(148,148,148)" stroke-width="1" opacity="0.7411764705882353" d="M 190 154 L 193 155.5 Q 194.9 161.8 190 160 L 190 154 Z " /><path fill="rgb(148,148,148)" stroke="rgb(148,148,148)" stroke-width="1" opacity="0.7411764705882353" d="M 16.5 161 Q 19.5 160.1 18 164.5 L 16 164.5 L 15.5 167 L 15 162.5 L 16.5 161 Z " /><path fill="rgb(148,148,148)" stroke="rgb(148,148,148)" stroke-width="1" opacity="0.7411764705882353" d="M 169.5 161 L 171 161.5 L 169 162 L 168.5 164 L 168 162.5 L 169.5 161 Z " /><path fill="rgb(148,148,148)" stroke="rgb(148,148,148)" stroke-width="1" opacity="0.7411764705882353" d="M 188 162 Q 191.3 160.9 190 165 L 188 165.5 L 190 166.5 L 188 167 L 186 171 L 188 171.5 L 186 172 L 185.5 174 L 185 172 Q 182.3 173.1 183 170.5 L 188 162 Z " /><path fill="rgb(148,148,148)" stroke="rgb(148,148,148)" stroke-width="1" opacity="0.7411764705882353" d="M 166.5 164 L 167 166 L 165 165.5 L 166.5 164 Z " /><path fill="rgb(148,148,148)" stroke="rgb(148,148,148)" stroke-width="1" opacity="0.7411764705882353" d="M 17 166 Q 20.7 164.5 20 167.5 L 23 173 L 27.5 176 L 30 176 Q 28.9 178.7 31.5 178 Q 34.5 179.5 31.5 181 Q 27.8 182 29 179 L 25.5 179 L 25.5 178 Q 28.1 178.7 27 176 L 23 174 L 22.5 176 L 22 174.5 Q 24.3 173.3 21.5 172 L 18 171.5 L 20 171 Q 21.1 168.3 18.5 169 L 17 166 Z " /><path fill="rgb(148,148,148)" stroke="rgb(148,148,148)" stroke-width="1" opacity="0.7411764705882353" d="M 41.5 166 L 44 166 Q 42.9 168.7 45.5 168 L 45.5 169 Q 41.5 168.5 41.5 166 Z " /><path fill="rgb(148,148,148)" stroke="rgb(148,148,148)" stroke-width="1" opacity="0.7411764705882353" d="M 162.5 166 L 164 166.5 L 162 167 Q 163.3 170 159.5 169 L 159.5 168 L 162.5 166 Z " /><path fill="rgb(148,148,148)" stroke="rgb(148,148,148)" stroke-width="1" opacity="0.7411764705882353" d="M 49 169 L 52 170.5 L 49 171 L 49 169 Z " /><path fill="rgb(148,148,148)" stroke="rgb(148,148,148)" stroke-width="1" opacity="0.7411764705882353" d="M 154 169 Q 158.1 167.7 157 171 Q 152.9 172.3 154 169 Z " /><path fill="rgb(148,148,148)" stroke="rgb(148,148,148)" stroke-width="1" opacity="0.7411764705882353" d="M 180 173 L 184 173.5 L 181 174 Q 182.1 176.7 179.5 176 L 178.5 178 L 181 178.5 L 174 179 L 173.5 181 L 173 178 L 176 178 Q 174.9 175.3 177.5 176 L 180 175 L 180 173 Z " /><path fill="rgb(148,148,148)" stroke="rgb(148,148,148)" stroke-width="1" opacity="0.7411764705882353" d="M 34 180 L 39 181 L 37.5 184 L 35.5 181 L 34.5 183 L 34 180 Z " /><path fill="rgb(148,148,148)" stroke="rgb(148,148,148)" stroke-width="1" opacity="0.7411764705882353" d="M 169.5 180 L 172 181.5 L 171.5 183 L 171 181 L 169 181.5 Q 171.3 182.8 168.5 184 L 163 183.5 L 167 183 Q 165.9 180.3 168.5 181 L 169.5 180 Z " /><path fill="rgb(148,148,148)" stroke="rgb(148,148,148)" stroke-width="1" opacity="0.7411764705882353" d="M 44 183 L 49 183 L 49 186 L 44 186 L 44 183 Z " /><path fill="rgb(148,148,148)" stroke="rgb(148,148,148)" stroke-width="1" opacity="0.7411764705882353" d="M 157 183 L 162 183 L 162 186 L 157 186 L 157 183 Z " /><path fill="rgb(255,255,255)" stroke="rgb(255,255,255)" stroke-width="1" opacity="1" d="M 56 21 L 149.5 21 L 150 23 L 158.5 23 L 159 25 L 160.5 25 L 164 26 L 164 28 L 166 28 L 166 30 Q 168.7 28.9 168 31.5 L 171 33 Q 169.8 38.3 173 37.5 L 173 47.5 L 175 49.5 L 175 140.5 L 173 143.5 L 173 154 L 171 154 L 171 159 L 168 159 L 168 161 L 166 161 L 166 164 Q 163 163 164 166 Q 157.7 164.5 158.5 168 L 150.5 168 L 150 170 L 148.5 170 L 147.5 171 L 58.5 171 L 54.5 168 L 47.5 168 Q 46.3 165 42 166 L 42 164 Q 39.3 165.1 40 162.5 L 37 161 Q 38 158 35 159 L 35 155 L 72.5 155 Q 71.5 152 76.5 153 L 82 150 L 82 148 L 86 148 L 86 146.5 L 89 145 L 89 143 Q 91.7 144.1 91 141.5 L 92 139 L 94 139 Q 92.7 134.9 96 136 L 96 131 Q 98.7 132.1 98 129.5 Q 100.5 128 99 122.5 L 101 120.5 L 101 106.5 L 99 104.5 Q 100.3 99.3 97.5 98 L 96 98 L 96 93 Q 93.3 94.1 94 91.5 Q 90.3 90.3 91 86 L 85 84 L 83.5 81 Q 81 77.8 75 79 Q 76.3 76 72.5 77 L 71.5 76 L 49 76 L 49 67.5 L 50.5 66 L 89 66 L 89 56 L 95.5 56 L 96 55.5 L 96 39 L 33.5 39 L 33 37 L 35 37 L 35 33 Q 38.3 34.1 37 30 L 40 30 L 40 28 L 42 28 Q 40.9 25.3 43.5 26 Q 46.8 21.1 56 23 L 56 21 Z " /><path fill="rgb(255,255,255)" stroke="rgb(255,255,255)" stroke-width="1" opacity="1" d="M 35.5 103 L 50.5 103 Q 53 107.3 60 106 Q 58.9 108.7 61.5 108 L 65 110 L 65 127.5 L 63.5 128 L 62 131 Q 58.9 130.3 59.5 133 L 54.5 133 Q 52.8 136.5 47 135 L 47 133 Q 44.3 134.1 45 131.5 L 44 128 L 42 127.5 L 42 121 L 32 121 L 32 106.5 L 35.5 103 Z " /></svg>