<svg width="200" height="200" version="1.1" xmlns="http://www.w3.org/2000/svg" desc="Created with imagetracer.js version 1.2.6" ><path fill="rgb(247,247,247)" stroke="rgb(247,247,247)" stroke-width="1" opacity="1" d="M 34.5 38 L 164.5 38 L 166 39.5 L 166 169.5 L 163 170 L 163 39 L 35 39 L 35 169.5 L 33 170 L 33 39.5 L 34.5 38 Z " /><path fill="rgb(247,247,247)" stroke="rgb(247,247,247)" stroke-width="1" opacity="1" d="M 99.5 61 L 117.5 61 L 120 62 L 120 108.5 L 120.5 109 L 129.5 109 Q 134.1 112.4 132 122.5 L 131 125 L 127 124.5 L 129 124 L 130 114.5 L 126.5 110 L 119.5 110 L 119 109.5 L 119 64.5 L 116.5 62 L 100.5 62 L 65 111.5 Q 62.5 115 64 122.5 L 65.5 125 L 62 123.5 Q 60.7 115.3 63 110.5 L 75 93 Q 77.7 94.1 77 91.5 L 80 87 Q 83 88.3 82 84.5 L 99.5 61 Z " /><path fill="rgb(247,247,247)" stroke="rgb(247,247,247)" stroke-width="1" opacity="1" d="M 100 84 L 102 84.5 L 102 110 L 84.5 110 L 84 107.5 L 100 84 Z M 100 89 L 86 108 L 87 109 L 100 109 L 100 89 Z " /><path fill="rgb(247,247,247)" stroke="rgb(247,247,247)" stroke-width="1" opacity="1" d="M 100 125 L 102 125.5 L 102 142.5 L 103.5 145 L 100 143.5 L 100 125 Z " /><path fill="rgb(247,247,247)" stroke="rgb(247,247,247)" stroke-width="1" opacity="1" d="M 119 125 L 121 125.5 L 120 126.5 L 120 145 L 117 144.5 L 119 141.5 L 119 125 Z " /><path fill="rgb(255,255,255)" stroke="rgb(255,255,255)" stroke-width="1" opacity="1" d="M 35 39 L 163 39 L 163 170 L 35 170 L 35 39 Z M 100 61 L 82 85 Q 83 88 80 87 L 77 92 Q 78 94 75 93 L 63 111 Q 61 115 62 124 L 64 125 L 100 125 L 100 144 L 102 145 L 120 145 L 120 127 L 122 125 L 131 125 L 132 123 Q 134 112 130 109 L 121 109 L 120 109 L 120 62 L 118 61 L 100 61 Z " /><path fill="rgb(255,255,255)" stroke="rgb(255,255,255)" stroke-width="1" opacity="1" d="M 99.5 89 L 100 109 L 86.5 109 L 86 107.5 L 99.5 89 Z " /><path fill="rgb(174,174,174)" stroke="rgb(174,174,174)" stroke-width="1" opacity="0.996078431372549" d="M 32.5 36 L 165.5 36 L 167 37.5 L 167 170.5 L 165.5 172 L 33.5 172 L 31 171 L 31 37.5 L 32.5 36 Z M 35 38 L 33 40 L 33 170 L 166 170 L 166 40 L 165 38 L 35 38 Z " /><path fill="rgb(174,174,174)" stroke="rgb(174,174,174)" stroke-width="1" opacity="0.996078431372549" d="M 100.5 62 L 116.5 62 L 119 64.5 L 119 109.5 L 119.5 110 L 126.5 110 Q 131.3 112.2 130 120.5 L 129 124 Q 125.9 126 119 125 L 119 141.5 L 116.5 145 L 104.5 145 L 102 142.5 L 102 125 L 66.5 125 L 64 122.5 L 64 113.5 L 100.5 62 Z M 103 63 L 66 114 L 66 123 L 67 123 L 102 123 L 104 126 L 104 143 L 106 144 L 116 144 L 117 143 L 117 124 Q 120 122 127 123 L 128 122 L 128 113 Q 125 111 119 112 L 117 111 L 117 65 L 116 63 L 103 63 Z " /><path fill="rgb(174,174,174)" stroke="rgb(174,174,174)" stroke-width="1" opacity="0.996078431372549" d="M 101.5 80 L 104 81.5 L 104 109.5 L 103 112 L 81.5 112 L 81 108.5 L 101.5 80 Z M 100 84 L 84 108 L 85 110 L 102 110 L 102 85 L 100 84 Z " /><path fill="rgb(174,174,174)" stroke="rgb(174,174,174)" stroke-width="1" opacity="0.996078431372549" d="M 20.5 182 L 22.5 185 L 19 184.5 L 20.5 182 Z " /><path fill="rgb(3,3,3)" stroke="rgb(3,3,3)" stroke-width="1" opacity="0.011764705882352941" d="M 0 0 L 200 0 L 200 200 L 0 200 L 0 0 Z M 20 25 L 20 184 Q 18 185 21 186 L 22 185 L 177 185 L 178 184 L 178 27 L 177 25 L 20 25 Z " /><path fill="rgb(13,13,13)" stroke="rgb(13,13,13)" stroke-width="1" opacity="0.984313725490196" d="M 21.5 25 L 176.5 25 L 178 26.5 L 178 183.5 L 176.5 184 L 175.5 185 L 23.5 185 L 20 181.5 L 20 26.5 L 21.5 25 Z M 33 36 L 31 38 L 31 171 L 34 172 L 166 172 L 167 171 L 167 38 L 166 36 L 33 36 Z " /><path fill="rgb(13,13,13)" stroke="rgb(13,13,13)" stroke-width="1" opacity="0.984313725490196" d="M 102.5 63 L 115.5 63 L 117 64.5 L 117 110.5 L 118.5 112 Q 125.3 111.1 128 113 L 128 121.5 L 126.5 123 Q 119.7 122.1 117 124 L 117 142.5 L 115.5 144 L 105.5 144 L 104 142.5 L 104 125.5 L 101.5 123 L 66.5 123 L 66 122.5 L 66 113.5 L 102.5 63 Z M 102 80 L 81 109 L 82 112 L 103 112 L 104 110 L 104 82 L 102 80 Z " /></svg>