<svg width="200" height="200" version="1.1" xmlns="http://www.w3.org/2000/svg" desc="Created with imagetracer.js version 1.2.6" ><path fill="rgb(35,35,35)" stroke="rgb(35,35,35)" stroke-width="1" opacity="0.9725490196078431" d="M 52.5 4 L 69 4.5 L 61 9 L 61 11 Q 58.3 9.9 59 12.5 L 56 14 Q 57 17 54 16 L 54 19.5 L 51 24.5 L 51 29.5 L 49 37 L 35.5 46 L 33 46 Q 34.5 39.7 31 40.5 L 31 25 L 33 25 L 33 20.5 L 35 20 L 35 17.5 L 38 13 L 40 13 L 40 11 L 42 11 L 42 9 L 44 9 Q 42.9 6.3 45.5 7 L 47 7.5 Q 46.1 4.5 50.5 6 L 52.5 4 Z " /><path fill="rgb(35,35,35)" stroke="rgb(35,35,35)" stroke-width="1" opacity="0.9725490196078431" d="M 34.5 62 Q 42.5 60.5 44 65.5 L 45 70.5 L 40.5 76 L 33 76 Q 34 73 31 74 L 31 71.5 L 30 68.5 L 31 64 L 34.5 62 Z " /><path fill="rgb(35,35,35)" stroke="rgb(35,35,35)" stroke-width="1" opacity="0.9725490196078431" d="M 9.5 67 L 10 69 L 14 71.5 L 15 77.5 L 12 83 L 7.5 84 Q 2.9 80.6 5 70.5 L 9.5 67 Z " /><path fill="rgb(251,135,136)" stroke="rgb(251,135,136)" stroke-width="1" opacity="0.9725490196078431" d="M 76.5 10 L 88.5 11 L 97 16 L 102 23.5 L 103 38.5 L 102 42.5 L 97 50 L 89.5 55 Q 82.8 54.3 79.5 57 Q 77.2 54.3 71.5 55 L 63 50 L 58 40.5 L 57 31.5 Q 59.3 30.2 58 25.5 L 61 19.5 L 66.5 14 L 71.5 11 L 76.5 10 Z " /><path fill="rgb(251,135,136)" stroke="rgb(251,135,136)" stroke-width="1" opacity="0.9725490196078431" d="M 189.5 125 L 190 132 Q 186 133.4 188 126.5 L 189.5 125 Z " /><path fill="rgb(251,135,136)" stroke="rgb(251,135,136)" stroke-width="1" opacity="0.9725490196078431" d="M 50 127 L 53.5 128 L 73.5 128 L 75 129.5 Q 75.7 132.1 73 131 L 73 135.5 L 72 140 L 70 140 Q 71.5 143.7 68.5 143 L 65.5 145 L 50.5 145 L 47 143 L 50 127 Z " /><path fill="rgb(251,135,136)" stroke="rgb(251,135,136)" stroke-width="1" opacity="0.9725490196078431" d="M 103.5 128 L 123.5 128 L 125 129.5 L 130.5 136 L 136.5 140 L 144 144.5 L 104.5 145 L 98 142 L 96 138.5 L 96 133.5 L 97 131 L 103.5 128 Z " /><path fill="rgb(251,135,136)" stroke="rgb(251,135,136)" stroke-width="1" opacity="0.9725490196078431" d="M 185.5 138 L 186 139.5 L 185 143 Q 182.3 141.9 183 144.5 L 177.5 152 L 174.5 154 L 166.5 159 Q 160.8 158.3 158.5 161 L 114.5 161 L 111 163 L 109 170.5 L 111 175 L 114.5 177 L 145.5 178 L 148 180.5 L 149 182.5 L 145.5 187 L 116.5 187 L 107 184 L 107 182 Q 104.3 183.1 105 180.5 Q 98.1 176.9 100 164.5 L 105.5 156 L 111.5 152 Q 117 153.5 118.5 151 L 159.5 151 L 167 149 Q 166 146 169 147 L 169 144 L 173.5 144 Q 174.8 141.7 179.5 143 L 185 140 L 185.5 138 Z " /><path fill="rgb(102,101,101)" stroke="rgb(102,101,101)" stroke-width="1" opacity="0.8" d="M 56.5 2 Q 64 0.5 67 3.5 L 54.5 4 L 54.5 3 L 56.5 2 Z " /><path fill="rgb(102,101,101)" stroke="rgb(102,101,101)" stroke-width="1" opacity="0.8" d="M 50.5 4 L 52 4.5 L 48.5 6 L 48.5 5 L 50.5 4 Z " /><path fill="rgb(102,101,101)" stroke="rgb(102,101,101)" stroke-width="1" opacity="0.8" d="M 69.5 4 L 89.5 4 L 102 12.5 L 100 13 Q 101.3 10 97.5 11 L 90.5 6 L 68 5.5 L 69.5 4 Z " /><path fill="rgb(102,101,101)" stroke="rgb(102,101,101)" stroke-width="1" opacity="0.8" d="M 41.5 9 L 42 11 L 40 11 L 40 13 Q 37.3 11.9 38 14.5 L 35 16.5 L 38 11 L 41.5 9 Z " /><path fill="rgb(102,101,101)" stroke="rgb(102,101,101)" stroke-width="1" opacity="0.8" d="M 102.5 14 L 105 18 Q 108.3 16.9 107 21 L 105 21 L 105 18 Q 102.3 19.1 103 16.5 L 102.5 14 Z " /><path fill="rgb(102,101,101)" stroke="rgb(102,101,101)" stroke-width="1" opacity="0.8" d="M 34.5 18 L 35 20 L 33 19.5 L 34.5 18 Z " /><path fill="rgb(102,101,101)" stroke="rgb(102,101,101)" stroke-width="1" opacity="0.8" d="M 107 22 Q 110.3 20.9 109 25 Q 105.7 26.1 107 22 Z " /><path fill="rgb(102,101,101)" stroke="rgb(102,101,101)" stroke-width="1" opacity="0.8" d="M 31 23 Q 34 22 33 25 Q 30 26 31 23 Z " /><path fill="rgb(102,101,101)" stroke="rgb(102,101,101)" stroke-width="1" opacity="0.8" d="M 109.5 27 L 111.5 34 L 112 32 Q 117.8 33.5 119.5 30 L 146 30 L 145.5 32 L 118.5 32 L 116.5 34 L 111.5 35 L 109 34 L 109.5 27 Z " /><path fill="rgb(102,101,101)" stroke="rgb(102,101,101)" stroke-width="1" opacity="0.8" d="M 147.5 32 Q 152.5 31 151.5 34 L 155.5 34 L 162.5 39 L 165 39 L 165 41 L 167 41 Q 165.9 43.7 168.5 43 L 174 50 L 179 53.5 Q 178.3 56.1 181 55 L 181 57.5 Q 186.5 62.5 188 71.5 L 187 71.5 Q 183.2 57.8 173.5 50 Q 171.3 50.8 172 48.5 L 167 45 L 165 41 L 162 41 Q 163.1 38.3 160.5 39 L 156.5 36 L 148.5 34 L 147.5 32 Z " /><path fill="rgb(102,101,101)" stroke="rgb(102,101,101)" stroke-width="1" opacity="0.8" d="M 31 41 Q 34 40 33 43 Q 30 44 31 41 Z " /><path fill="rgb(102,101,101)" stroke="rgb(102,101,101)" stroke-width="1" opacity="0.8" d="M 33 46 Q 36 45 35 48 L 33 48 L 33 50 L 31 50 Q 32.1 52.7 29.5 52 L 24 55 Q 25.3 58 21.5 57 L 14 62 L 14 64 L 12 64 Q 13.1 66.7 10.5 66 L 5.5 70 L 6 68.5 Q 5.3 66.3 7.5 67 L 12 64 Q 10.9 61.3 13.5 62 L 21 57 L 21 55 L 24 55 Q 22.9 52.3 25.5 53 L 31 50 L 33 46 Z " /><path fill="rgb(102,101,101)" stroke="rgb(102,101,101)" stroke-width="1" opacity="0.8" d="M 188.5 73 Q 191.8 74.9 190 81 L 188 80.5 L 188.5 73 Z " /><path fill="rgb(102,101,101)" stroke="rgb(102,101,101)" stroke-width="1" opacity="0.8" d="M 5.5 81 L 8.5 85 L 11.5 87 L 17.5 90 L 45 90 Q 44 93 47 92 L 47 94.5 L 54 106.5 L 52 105.5 L 49 101.5 L 49 99 Q 46 100.3 47 96.5 Q 44.3 95.4 45 92 L 18.5 92 Q 17.1 88.8 12 90 Q 13.1 87.3 10.5 88 L 5 82.5 L 5.5 81 Z " /><path fill="rgb(102,101,101)" stroke="rgb(102,101,101)" stroke-width="1" opacity="0.8" d="M 190.5 82 L 192 83.5 L 192 126.5 L 190.5 129 L 190.5 82 Z " /><path fill="rgb(102,101,101)" stroke="rgb(102,101,101)" stroke-width="1" opacity="0.8" d="M 54.5 108 Q 56.8 107.3 56 109.5 L 56 111.5 L 56 117.5 L 54 119.5 Q 54.6 124.9 53 127 L 51 126.5 L 52 125.5 L 52 119 Q 55.5 120.1 54 112.5 L 56 110.5 L 54.5 108 Z " /><path fill="rgb(102,101,101)" stroke="rgb(102,101,101)" stroke-width="1" opacity="0.8" d="M 75.5 123 L 82.5 126 L 89.5 127 L 91.5 129 L 95.5 129 L 97 130.5 L 92.5 131 L 90.5 129 L 86.5 129 L 84.5 127 L 81.5 127 L 75 124 L 74.5 129 Q 71.8 127.7 74 126.5 L 75.5 123 Z " /><path fill="rgb(102,101,101)" stroke="rgb(102,101,101)" stroke-width="1" opacity="0.8" d="M 188 132 Q 191.7 130.8 190 136 Q 187 134.8 188 138.5 L 185 140.5 L 188 135.5 L 188 132 Z " /><path fill="rgb(102,101,101)" stroke="rgb(102,101,101)" stroke-width="1" opacity="0.8" d="M 143.5 143 L 168.5 143 L 169 145 L 144.5 145 L 143.5 143 Z " /><path fill="rgb(99,99,99)" stroke="rgb(99,99,99)" stroke-width="1" opacity="0.996078431372549" d="M 67.5 6 L 90.5 6 L 93 7.5 L 90.5 8 L 89.5 7 L 67.5 7 L 67.5 6 Z " /><path fill="rgb(99,99,99)" stroke="rgb(99,99,99)" stroke-width="1" opacity="0.996078431372549" d="M 94.5 8 Q 95.8 11.8 100 11 Q 99 14 102 13 L 102 15.5 L 102.5 17 Q 99.9 17.8 101 14.5 Q 99.8 11.3 96 12 Q 97 9 94 10 L 94.5 8 Z " /><path fill="rgb(99,99,99)" stroke="rgb(99,99,99)" stroke-width="1" opacity="0.996078431372549" d="M 103.5 18 Q 106.5 17.2 105 21 L 107 21 L 107 25 L 109 25 L 109 33.5 L 110.5 34 L 112.5 34 Q 117.5 35 118.5 32 L 146.5 32 L 158 37.5 L 156.5 38 L 147 35 L 146.5 33 L 119.5 33 Q 118 36.3 113 35 Q 114.1 37.7 111.5 37 L 108 35 L 108 26.5 L 106 26 L 106 22 Q 103 23.3 104 19.5 L 103.5 18 Z " /><path fill="rgb(99,99,99)" stroke="rgb(99,99,99)" stroke-width="1" opacity="0.996078431372549" d="M 159.5 38 L 162 39 L 162 41 Q 165.8 39.5 165 42.5 L 163.5 42 L 161 42 Q 162 39 159 40 L 159.5 38 Z " /><path fill="rgb(99,99,99)" stroke="rgb(99,99,99)" stroke-width="1" opacity="0.996078431372549" d="M 168.5 45 L 172 50 L 179 55.5 L 186 67.5 L 184 68 L 182 61 L 178 59 L 178 56.5 L 177 54 L 175 54 Q 176.1 51.3 173.5 52 L 170 47 Q 166.8 48 168.5 45 Z " /><path fill="rgb(99,99,99)" stroke="rgb(99,99,99)" stroke-width="1" opacity="0.996078431372549" d="M 35.5 46 L 36 49 L 34 49 Q 35.1 51.7 32.5 51 L 31 51.5 L 35.5 46 Z " /><path fill="rgb(99,99,99)" stroke="rgb(99,99,99)" stroke-width="1" opacity="0.996078431372549" d="M 29.5 52 L 30 54 L 27 54 L 25 58 L 21.5 58 L 20 61 L 17 60.5 L 21.5 57 L 24 57 Q 22.9 54.3 25.5 55 L 29.5 52 Z " /><path fill="rgb(99,99,99)" stroke="rgb(99,99,99)" stroke-width="1" opacity="0.996078431372549" d="M 12 64 L 14 64.5 L 13 67 L 10.5 68 L 10 66 Q 13 67 12 64 Z " /><path fill="rgb(99,99,99)" stroke="rgb(99,99,99)" stroke-width="1" opacity="0.996078431372549" d="M 186.5 70 Q 189.7 73.4 188 81 L 190 81.5 L 190 124.5 L 189 124.5 L 189 82.5 L 187 81.5 L 187 73.5 L 186.5 70 Z " /><path fill="rgb(99,99,99)" stroke="rgb(99,99,99)" stroke-width="1" opacity="0.996078431372549" d="M 8.5 84 L 11 84 L 11 86 Q 13.7 84.9 13 87.5 L 11.5 87 L 8.5 85 L 8.5 84 Z " /><path fill="rgb(99,99,99)" stroke="rgb(99,99,99)" stroke-width="1" opacity="0.996078431372549" d="M 14.5 88 L 18.5 89 L 44.5 89 L 48 91 L 48 95 Q 51 93.8 50 97.5 L 53 104 L 55 104 L 55 107 L 59 109 L 59 112 L 57 112 L 57 118.5 L 55 119.5 L 55 126.5 L 53 127 L 57 110.5 L 56 108 Q 53 109.3 54 105.5 L 51 102.5 L 47 92 Q 43.9 92.8 44.5 90 L 17.5 90 L 14.5 89 L 14.5 88 Z " /><path fill="rgb(99,99,99)" stroke="rgb(99,99,99)" stroke-width="1" opacity="0.996078431372549" d="M 74 121 L 78 121 Q 76.8 124 80.5 123 L 82.5 125 L 86.5 125 L 92.5 128 L 97 128 Q 95.9 130.7 98.5 130 L 98.5 131 L 95.5 129 L 91.5 129 L 89.5 127 L 82.5 126 L 75.5 123 L 73.5 127 L 73 123.5 L 74 121 Z " /><path fill="rgb(99,99,99)" stroke="rgb(99,99,99)" stroke-width="1" opacity="0.996078431372549" d="M 187.5 130 L 188 135.5 L 186 136.5 L 187.5 130 Z " /><path fill="rgb(99,99,99)" stroke="rgb(99,99,99)" stroke-width="1" opacity="0.996078431372549" d="M 141.5 142 L 168.5 142 L 170 143.5 L 168.5 143 L 141.5 143 L 141.5 142 Z " /><path fill="rgb(99,99,99)" stroke="rgb(99,99,99)" stroke-width="1" opacity="1" d="M 66.5 6 L 67.5 7 L 89.5 7 L 94 8 L 96 12 L 98.5 12 Q 101.8 13.2 101 17 Q 103.7 15.9 103 18.5 L 104 22 L 106 22 Q 104.3 27.2 108 26 L 108 34.5 L 109.5 35 L 113 37 Q 111.7 33.3 117.5 35 L 119.5 33 L 147 33 Q 145.8 36 149.5 35 L 152.5 37 L 159 38 L 161 42 L 163.5 42 L 166 43 L 166 45 L 168 45 L 168 47 Q 170.7 45.9 170 48.5 L 175 52 L 175 54 Q 177.7 52.9 177 55.5 L 178 59 L 182 61 L 182 63.5 Q 184.8 64.6 184 68 Q 187.7 66.7 186 72.5 L 187 73.5 L 187 82 L 189 82.5 L 189 125.5 L 186 137.5 L 182.5 141 L 179.5 143 L 170.5 144 L 168.5 142 L 139.5 142 L 135 140 L 135 138 L 132 138 Q 133.1 135.3 130.5 136 L 123.5 128 L 103.5 128 L 97 130 Q 98.3 126.3 92.5 128 L 90.5 126 L 82.5 125 Q 81.4 122.3 78 123 Q 79.2 119.3 74 121 L 73 128 L 53 127.5 L 55 127 L 55 119.5 L 57 119 L 57 112.5 Q 60 113.3 59 109 L 55 107 L 55 104 Q 52.3 105.1 53 102.5 L 50 95 L 48 95 L 48 91 L 46.5 91 L 44.5 89 L 18.5 89 L 13 88 L 13 86 L 11 86 Q 12.1 83.3 9.5 84 L 9.5 83 Q 12.8 84.1 12 81.5 Q 15.9 79.9 15 73.5 L 11.5 69 L 10 68.5 L 13 67 L 14 63 Q 17 64 16 61 L 20 61 L 20 59.5 Q 21.2 57 25 58 L 27 54 L 30 54 Q 28.9 51.3 31.5 52 L 34 51 Q 33 48 36 49 L 36 45.5 L 49 37 L 51 29.5 L 51 24.5 L 54 19.5 L 54 16 L 56 16 Q 54.9 13.3 57.5 14 L 59 11 L 61 11 Q 59.9 8.3 62.5 9 L 66.5 6 Z M 77 10 L 72 11 L 67 14 L 61 20 L 58 26 Q 59 30 57 32 L 58 41 L 63 50 L 72 55 Q 77 54 80 57 Q 83 54 90 55 L 97 50 L 102 43 L 103 39 L 102 24 L 97 16 L 89 11 L 77 10 Z M 35 62 L 31 64 L 30 69 L 31 72 L 31 74 Q 34 73 33 76 L 41 76 L 45 71 L 44 66 Q 43 61 35 62 Z " /><path fill="rgb(0,0,0)" stroke="rgb(0,0,0)" stroke-width="1" opacity="0" d="M 0 0 L 200 0 L 200 200 L 0 200 L 0 0 Z M 52 1 Q 53 5 48 3 L 48 6 L 47 5 Q 44 4 45 7 Q 38 6 36 11 L 36 14 L 34 14 Q 35 18 32 17 L 32 21 L 30 21 L 30 44 L 31 45 L 29 48 Q 30 50 27 49 L 27 51 Q 23 50 22 53 L 22 54 L 18 54 L 16 58 L 13 58 L 13 60 L 6 66 Q 7 68 4 67 L 5 72 L 5 81 L 4 82 L 4 85 L 9 90 L 10 91 L 15 91 L 16 93 L 43 93 L 48 103 L 48 105 L 52 107 L 53 111 Q 54 115 52 117 L 52 123 L 48 125 L 48 132 L 46 133 L 46 145 L 48 146 L 70 146 L 74 140 L 74 134 L 76 133 L 76 126 Q 79 125 78 128 Q 83 127 85 130 Q 90 128 89 132 L 95 133 L 96 134 L 96 144 Q 99 143 101 146 L 165 146 L 165 148 L 159 149 L 114 149 Q 113 152 108 151 L 105 154 Q 106 156 103 155 L 103 157 L 99 160 L 99 179 Q 102 178 101 181 L 103 181 L 103 184 L 107 186 Q 112 185 111 188 L 150 188 L 150 179 Q 147 179 148 176 L 118 176 L 111 171 L 111 167 L 115 165 L 115 163 L 119 162 L 166 162 L 166 160 L 171 160 Q 170 157 175 158 L 175 156 L 178 155 L 180 155 Q 179 152 182 153 L 182 149 L 184 149 L 187 144 Q 186 141 189 142 Q 188 139 191 138 Q 189 132 193 133 L 193 81 Q 189 79 191 72 L 189 70 Q 191 64 187 65 L 187 62 L 182 56 L 182 54 L 178 51 L 173 44 Q 170 45 171 43 L 162 35 Q 158 36 159 33 L 155 33 L 148 29 L 121 29 L 120 30 L 118 29 Q 115 32 111 31 L 111 24 L 106 14 L 104 14 L 104 10 Q 101 11 102 8 L 99 7 Q 96 8 97 5 Q 94 6 93 3 L 70 3 L 68 1 L 52 1 Z " /><path fill="rgb(151,140,140)" stroke="rgb(151,140,140)" stroke-width="1" opacity="0.19607843137254902" d="M 52.5 1 L 67.5 1 L 69.5 3 L 92.5 3 L 95 5.5 Q 94.1 8.5 98.5 7 L 101 8.5 Q 99.8 11.3 98.5 9 L 96.5 9 L 89.5 4 L 67.5 4 Q 64.6 0.4 56.5 2 L 48 5 Q 46.6 1 53.5 3 L 53.5 2 L 52.5 1 Z " /><path fill="rgb(151,140,140)" stroke="rgb(151,140,140)" stroke-width="1" opacity="0.19607843137254902" d="M 45 5 Q 48 4 47 7 Q 44 8 45 5 Z " /><path fill="rgb(151,140,140)" stroke="rgb(151,140,140)" stroke-width="1" opacity="0.19607843137254902" d="M 41.5 7 L 44 7.5 L 40.5 10 L 38 8.5 L 41.5 7 Z " /><path fill="rgb(151,140,140)" stroke="rgb(151,140,140)" stroke-width="1" opacity="0.19607843137254902" d="M 36.5 13 L 36 14.5 L 33 19.5 L 33 23 L 31 23.5 L 31 43 Q 34 41.8 33 45.5 L 31 44.5 L 30 42.5 L 30 22.5 L 34 16.5 L 34 14 L 36.5 13 Z " /><path fill="rgb(151,140,140)" stroke="rgb(151,140,140)" stroke-width="1" opacity="0.19607843137254902" d="M 102.5 13 L 106 14 L 106.5 17 L 108 16.5 L 109 19.5 L 108.5 21 Q 110.8 20.3 110 22.5 L 108.5 22 L 107 22 L 107 18 Q 104.3 19.1 105 16.5 L 102.5 13 Z " /><path fill="rgb(151,140,140)" stroke="rgb(151,140,140)" stroke-width="1" opacity="0.19607843137254902" d="M 109 25 Q 112.3 23.7 111 28.5 L 110 28.5 L 109 25 Z " /><path fill="rgb(151,140,140)" stroke="rgb(151,140,140)" stroke-width="1" opacity="0.19607843137254902" d="M 120.5 29 L 145 29.5 L 120.5 30 L 120.5 29 Z " /><path fill="rgb(151,140,140)" stroke="rgb(151,140,140)" stroke-width="1" opacity="0.19607843137254902" d="M 115.5 30 L 119 30.5 Q 117.4 33.5 112 32 L 111.5 34 L 111 31 L 115.5 30 Z " /><path fill="rgb(151,140,140)" stroke="rgb(151,140,140)" stroke-width="1" opacity="0.19607843137254902" d="M 146 30 Q 149 29 148 32 Q 145 33 146 30 Z " /><path fill="rgb(151,140,140)" stroke="rgb(151,140,140)" stroke-width="1" opacity="0.19607843137254902" d="M 149.5 31 L 157.5 33 L 160 35.5 L 157.5 36 Q 156 32.8 151 34 Q 152.1 31.3 149.5 32 L 149.5 31 Z " /><path fill="rgb(151,140,140)" stroke="rgb(151,140,140)" stroke-width="1" opacity="0.19607843137254902" d="M 161.5 37 Q 167.1 36.9 169 40.5 L 169 42 L 171 42 L 171 44 L 173 44 Q 171.9 46.7 174.5 46 L 178 51 Q 181.3 49.7 180 54.5 L 179 54.5 L 175.5 50 Q 173.3 50.8 174 48.5 L 167 43 Q 169.3 37 162.5 39 L 161.5 37 Z " /><path fill="rgb(151,140,140)" stroke="rgb(151,140,140)" stroke-width="1" opacity="0.19607843137254902" d="M 27 49 L 31 49.5 L 26.5 52 L 27 50.5 L 27 49 Z " /><path fill="rgb(151,140,140)" stroke="rgb(151,140,140)" stroke-width="1" opacity="0.19607843137254902" d="M 22.5 53 Q 25.1 52.3 24 55 L 20 54.5 L 22.5 53 Z " /><path fill="rgb(151,140,140)" stroke="rgb(151,140,140)" stroke-width="1" opacity="0.19607843137254902" d="M 181.5 53 L 184 57.5 Q 182.5 60.5 181 57.5 L 181.5 53 Z " /><path fill="rgb(151,140,140)" stroke="rgb(151,140,140)" stroke-width="1" opacity="0.19607843137254902" d="M 17.5 56 Q 19.8 55.3 19 57.5 L 13.5 62 L 13 60 Q 15.7 61.1 15 58.5 L 17.5 56 Z " /><path fill="rgb(151,140,140)" stroke="rgb(151,140,140)" stroke-width="1" opacity="0.19607843137254902" d="M 11.5 60 L 12 64 L 6 67 L 4.5 71 L 4 67 L 6 67 L 6 65 Q 8.7 66.1 8 63.5 L 11.5 60 Z " /><path fill="rgb(151,140,140)" stroke="rgb(151,140,140)" stroke-width="1" opacity="0.19607843137254902" d="M 183.5 60 L 187 62.5 L 187.5 67 L 188.5 65 Q 187.9 70 191 71.5 L 191 78.5 L 193 82.5 L 193 130.5 L 188.5 142 L 187.5 140 L 187 142 L 185 141.5 Q 188.7 140.2 188 136 Q 191.5 137.1 190 129.5 L 192 126.5 L 192 83.5 L 190 81.5 L 190 74.5 L 188 72.5 L 188 69.5 L 185 63.5 L 185.5 62 L 183.5 60 Z " /><path fill="rgb(151,140,140)" stroke="rgb(151,140,140)" stroke-width="1" opacity="0.19607843137254902" d="M 4.5 81 L 5 83.5 L 4 83.5 L 4.5 81 Z " /><path fill="rgb(151,140,140)" stroke="rgb(151,140,140)" stroke-width="1" opacity="0.19607843137254902" d="M 6.5 84 L 5.5 86 L 6.5 84 Z " /><path fill="rgb(151,140,140)" stroke="rgb(151,140,140)" stroke-width="1" opacity="0.19607843137254902" d="M 8.5 86 L 12 88.5 L 8.5 89 Q 5.5 87.5 8.5 86 Z " /><path fill="rgb(151,140,140)" stroke="rgb(151,140,140)" stroke-width="1" opacity="0.19607843137254902" d="M 11.5 90 Q 17.3 88.8 18.5 92 L 45 92 L 47 99 Q 50 97.8 49 101.5 Q 53.2 103.8 51.5 106 L 54 107.5 L 52.5 108 L 50 107 L 49.5 103 L 48 103.5 L 45 95.5 L 42.5 93 L 15.5 93 Q 16.5 90 11.5 91 L 11.5 90 Z " /><path fill="rgb(151,140,140)" stroke="rgb(151,140,140)" stroke-width="1" opacity="0.19607843137254902" d="M 54.5 109 Q 57.8 110.8 54 112.5 Q 55.5 120.1 52 119 L 54.5 109 Z " /><path fill="rgb(151,140,140)" stroke="rgb(151,140,140)" stroke-width="1" opacity="0.19607843137254902" d="M 50 123 Q 53.3 121.9 52 126 Q 48.7 127.1 50 123 Z " /><path fill="rgb(151,140,140)" stroke="rgb(151,140,140)" stroke-width="1" opacity="0.19607843137254902" d="M 75 124 L 79 125 L 79.5 127 L 81.5 127 Q 85.8 126.3 86.5 129 L 90.5 129 L 94 131.5 L 90.5 132 L 82.5 128 L 78 128 Q 79 125 76 126 L 75.5 131 L 75 124 Z " /><path fill="rgb(151,140,140)" stroke="rgb(151,140,140)" stroke-width="1" opacity="0.19607843137254902" d="M 48.5 127 L 49 131.5 L 48 131.5 L 48.5 127 Z " /><path fill="rgb(151,140,140)" stroke="rgb(151,140,140)" stroke-width="1" opacity="0.19607843137254902" d="M 46.5 134 L 47 142.5 L 46 142.5 L 46.5 134 Z " /><path fill="rgb(151,140,140)" stroke="rgb(151,140,140)" stroke-width="1" opacity="0.19607843137254902" d="M 46.5 144 L 47.5 145 L 69.5 145 L 71 144.5 L 69.5 146 L 47.5 146 L 46.5 144 Z " /><path fill="rgb(151,140,140)" stroke="rgb(151,140,140)" stroke-width="1" opacity="0.19607843137254902" d="M 102.5 145 L 167 145.5 L 102.5 146 L 102.5 145 Z " /><path fill="rgb(151,140,140)" stroke="rgb(151,140,140)" stroke-width="1" opacity="0.19607843137254902" d="M 159.5 148 L 160 150 L 116 149.5 L 158.5 149 L 159.5 148 Z " /><path fill="rgb(151,140,140)" stroke="rgb(151,140,140)" stroke-width="1" opacity="0.19607843137254902" d="M 107.5 151 L 106.5 153 L 107.5 151 Z " /><path fill="rgb(151,140,140)" stroke="rgb(151,140,140)" stroke-width="1" opacity="0.19607843137254902" d="M 109.5 151 L 112 151.5 L 109.5 152 L 109.5 151 Z " /><path fill="rgb(151,140,140)" stroke="rgb(151,140,140)" stroke-width="1" opacity="0.19607843137254902" d="M 176 154 L 178 154.5 L 176 155.5 L 176 154 Z " /><path fill="rgb(151,140,140)" stroke="rgb(151,140,140)" stroke-width="1" opacity="0.19607843137254902" d="M 100.5 158 L 99.5 160 L 100.5 158 Z " /><path fill="rgb(151,140,140)" stroke="rgb(151,140,140)" stroke-width="1" opacity="0.19607843137254902" d="M 99.5 161 L 100 176.5 L 99 176.5 L 99.5 161 Z " /><path fill="rgb(151,140,140)" stroke="rgb(151,140,140)" stroke-width="1" opacity="0.19607843137254902" d="M 118.5 161 L 163 161.5 L 118.5 162 L 118.5 161 Z " /><path fill="rgb(151,140,140)" stroke="rgb(151,140,140)" stroke-width="1" opacity="0.19607843137254902" d="M 115.5 174 L 117.5 176 L 145 176.5 L 117.5 177 L 115.5 174 Z " /><path fill="rgb(151,140,140)" stroke="rgb(151,140,140)" stroke-width="1" opacity="0.19607843137254902" d="M 118.5 187 L 144 187.5 L 118.5 188 L 118.5 187 Z " /><path fill="rgb(240,211,211)" stroke="rgb(240,211,211)" stroke-width="1" opacity="0.3764705882352941" d="M 95.5 5 L 96.5 7 Q 93.7 7.7 95.5 5 Z " /><path fill="rgb(240,211,211)" stroke="rgb(240,211,211)" stroke-width="1" opacity="0.3764705882352941" d="M 101.5 8 L 102 10 Q 105.3 8.9 104 13 L 102 13 L 102 11 Q 99.3 12.1 100 9.5 L 101.5 8 Z " /><path fill="rgb(240,211,211)" stroke="rgb(240,211,211)" stroke-width="1" opacity="0.3764705882352941" d="M 37.5 9 Q 41.3 8 40 11 L 36 13 L 37.5 9 Z " /><path fill="rgb(240,211,211)" stroke="rgb(240,211,211)" stroke-width="1" opacity="0.3764705882352941" d="M 109 23 Q 112 22 111 25 Q 108 26 109 23 Z " /><path fill="rgb(240,211,211)" stroke="rgb(240,211,211)" stroke-width="1" opacity="0.3764705882352941" d="M 145.5 29 L 150 30.5 L 148 31.5 Q 148.8 28.9 145.5 30 L 145.5 29 Z " /><path fill="rgb(240,211,211)" stroke="rgb(240,211,211)" stroke-width="1" opacity="0.3764705882352941" d="M 158.5 33 L 157.5 35 L 158.5 33 Z " /><path fill="rgb(240,211,211)" stroke="rgb(240,211,211)" stroke-width="1" opacity="0.3764705882352941" d="M 160 35 L 163 36.5 L 160 37 L 160 35 Z " /><path fill="rgb(240,211,211)" stroke="rgb(240,211,211)" stroke-width="1" opacity="0.3764705882352941" d="M 165.5 39 Q 167.8 38.3 167 40.5 L 165.5 39 Z " /><path fill="rgb(240,211,211)" stroke="rgb(240,211,211)" stroke-width="1" opacity="0.3764705882352941" d="M 31.5 45 L 33 48 L 29.5 49 L 29.5 48 L 31 47.5 Q 28.7 46.3 31.5 45 Z " /><path fill="rgb(240,211,211)" stroke="rgb(240,211,211)" stroke-width="1" opacity="0.3764705882352941" d="M 23.5 51 Q 27.3 50 26 53 L 22 52.5 L 23.5 51 Z " /><path fill="rgb(240,211,211)" stroke="rgb(240,211,211)" stroke-width="1" opacity="0.3764705882352941" d="M 180.5 52 L 181 54.5 L 180 54.5 L 180.5 52 Z " /><path fill="rgb(240,211,211)" stroke="rgb(240,211,211)" stroke-width="1" opacity="0.3764705882352941" d="M 18 54 L 21 55.5 Q 19.5 58.5 18 55.5 L 18 54 Z " /><path fill="rgb(240,211,211)" stroke="rgb(240,211,211)" stroke-width="1" opacity="0.3764705882352941" d="M 16.5 56 L 17.5 58 L 16.5 56 Z " /><path fill="rgb(240,211,211)" stroke="rgb(240,211,211)" stroke-width="1" opacity="0.3764705882352941" d="M 13 58 Q 16 57 15 60 Q 12.3 58.9 13 61.5 L 12 61.5 L 13 58 Z " /><path fill="rgb(240,211,211)" stroke="rgb(240,211,211)" stroke-width="1" opacity="0.3764705882352941" d="M 183 58 Q 185.7 56.9 185 59.5 Q 188.8 61.3 185.5 63 L 184.5 60 Q 181.9 60.7 183 58 Z " /><path fill="rgb(240,211,211)" stroke="rgb(240,211,211)" stroke-width="1" opacity="0.3764705882352941" d="M 5.5 83 L 6 85 Q 9 84 8 87 L 6 87 Q 7.1 84.3 4.5 85 L 5.5 83 Z " /><path fill="rgb(240,211,211)" stroke="rgb(240,211,211)" stroke-width="1" opacity="0.3764705882352941" d="M 9 89 L 12 89.5 L 9 91 L 9 89 Z " /><path fill="rgb(240,211,211)" stroke="rgb(240,211,211)" stroke-width="1" opacity="0.3764705882352941" d="M 49.5 103 L 50 105 L 48 104.5 L 49.5 103 Z " /><path fill="rgb(240,211,211)" stroke="rgb(240,211,211)" stroke-width="1" opacity="0.3764705882352941" d="M 52 108 Q 55 106.8 54 110.5 L 52 109.5 L 52 108 Z " /><path fill="rgb(240,211,211)" stroke="rgb(240,211,211)" stroke-width="1" opacity="0.3764705882352941" d="M 49.5 125 Q 52.3 126.2 50 127.5 L 49.5 129 L 48 126.5 L 49.5 125 Z " /><path fill="rgb(240,211,211)" stroke="rgb(240,211,211)" stroke-width="1" opacity="0.3764705882352941" d="M 73 131 Q 77.1 129.7 76 133 L 74 133 L 74 139.5 L 72 140 L 72 141.5 Q 74.3 142.8 71.5 144 L 66.5 145 L 66.5 144 L 70 143 Q 68.7 138.9 72 140 L 72 136.5 L 73 131 Z " /><path fill="rgb(240,211,211)" stroke="rgb(240,211,211)" stroke-width="1" opacity="0.3764705882352941" d="M 94 131 Q 98.1 129.7 97 133 Q 92.9 134.3 94 131 Z " /><path fill="rgb(240,211,211)" stroke="rgb(240,211,211)" stroke-width="1" opacity="0.3764705882352941" d="M 47.5 132 Q 50.5 131.1 49 135.5 L 47.5 138 L 46 133.5 L 47.5 132 Z " /><path fill="rgb(240,211,211)" stroke="rgb(240,211,211)" stroke-width="1" opacity="0.3764705882352941" d="M 96.5 139 L 98 142 L 104 144.5 L 101.5 146 L 96 144 L 96.5 139 Z " /><path fill="rgb(240,211,211)" stroke="rgb(240,211,211)" stroke-width="1" opacity="0.3764705882352941" d="M 187.5 140 L 188 141.5 Q 184.4 143.4 185 148 L 182 149.5 L 182 152 L 180 152 Q 181.5 155.8 178.5 155 L 176 154 L 175 158 Q 170.5 157.2 168.5 160 Q 165.5 158.5 168.5 157 L 176 154 Q 174.9 151.3 177.5 152 L 183 143 L 187 142 L 187.5 140 Z " /><path fill="rgb(240,211,211)" stroke="rgb(240,211,211)" stroke-width="1" opacity="0.3764705882352941" d="M 46.5 143 L 50 144.5 L 47.5 145 L 46.5 143 Z " /><path fill="rgb(240,211,211)" stroke="rgb(240,211,211)" stroke-width="1" opacity="0.3764705882352941" d="M 167.5 145 Q 170.1 144.3 169 147 Q 166 146 167 149 L 164.5 149 L 159.5 151 L 118.5 151 L 112 152 L 113.5 149 L 116.5 150 L 160 150 L 160 148 L 165 148 Q 163.9 145.3 166.5 146 L 167.5 145 Z " /><path fill="rgb(240,211,211)" stroke="rgb(240,211,211)" stroke-width="1" opacity="0.3764705882352941" d="M 108.5 151 L 111 152.5 L 104 157.5 L 100.5 164 L 99 160.5 L 101 157 L 103 157 L 103 155 L 105 155 Q 103.9 152.3 106.5 153 L 108.5 151 Z " /><path fill="rgb(240,211,211)" stroke="rgb(240,211,211)" stroke-width="1" opacity="0.3764705882352941" d="M 162.5 159 Q 167.3 157.3 166 161.5 L 162.5 161 L 159 160.5 L 162.5 159 Z " /><path fill="rgb(240,211,211)" stroke="rgb(240,211,211)" stroke-width="1" opacity="0.3764705882352941" d="M 114.5 161 Q 119.3 159.7 118 163 L 115 163 Q 116.1 165.7 113.5 165 Q 110 166.3 111 171 L 115 173.5 L 117 176.5 L 114.5 177 L 111 175 L 109 167.5 L 111 163 L 114.5 161 Z " /><path fill="rgb(240,211,211)" stroke="rgb(240,211,211)" stroke-width="1" opacity="0.3764705882352941" d="M 100.5 174 L 105 182 Q 108 181 107 184 L 109.5 184 L 118 187.5 L 110 188 L 110 186 L 106 186 L 106 184.5 L 103 183.5 L 103 181 L 101 181 L 101 179 Q 98.3 180.1 99 177.5 L 100.5 174 Z " /><path fill="rgb(240,211,211)" stroke="rgb(240,211,211)" stroke-width="1" opacity="0.3764705882352941" d="M 145.5 176 L 148 176 Q 147 179 150 178 L 150 188 L 144 187.5 L 148 184.5 L 149 182.5 L 145.5 178 L 132 177.5 L 144.5 177 L 145.5 176 Z " /></svg>