<svg width="200" height="200" version="1.1" xmlns="http://www.w3.org/2000/svg" desc="Created with imagetracer.js version 1.2.6" ><path fill="rgb(0,0,0)" stroke="rgb(0,0,0)" stroke-width="1" opacity="0" d="M 0 0 L 200 0 L 200 200 L 0 200 L 0 0 Z M 106 10 L 101 12 L 101 22 L 103 24 L 104 32 L 97 25 L 89 25 L 89 33 Q 90 36 94 35 L 94 37 L 89 37 L 89 45 L 91 46 L 115 46 L 116 47 Q 121 46 120 49 L 124 49 L 124 51 Q 129 50 131 53 L 152 53 L 154 54 L 154 113 L 152 113 Q 153 117 149 119 L 149 120 L 145 120 L 145 122 L 139 122 L 138 120 L 137 120 L 131 115 Q 132 110 129 109 L 129 91 L 127 90 Q 128 83 124 79 Q 125 75 122 76 L 122 74 L 113 62 Q 110 63 111 61 L 102 53 Q 98 54 99 51 Q 96 48 90 48 L 88 46 Q 80 47 81 44 L 53 44 L 52 46 L 46 46 L 39 49 Q 35 48 36 51 L 32 51 L 30 55 L 28 55 L 22 61 Q 23 63 21 62 L 13 72 L 11 72 L 11 76 L 9 76 L 6 84 Q 7 91 4 91 L 4 101 L 2 101 L 2 114 L 4 114 L 4 128 L 6 130 L 7 141 L 9 144 Q 8 147 11 146 L 11 149 L 17 158 L 18 158 L 18 162 Q 21 161 20 164 L 23 166 Q 22 168 25 167 L 25 169 L 27 169 L 27 171 L 29 171 L 29 173 L 32 175 Q 31 177 34 176 L 34 178 L 37 178 L 40 181 L 46 183 L 50 187 Q 56 186 58 190 Q 63 188 62 192 Q 67 191 69 194 L 76 194 L 78 196 L 89 196 L 90 197 L 187 197 L 189 195 L 189 185 L 185 182 L 180 175 Q 177 176 178 173 L 176 173 L 169 168 Q 165 169 166 166 Q 161 167 160 164 L 155 164 L 153 162 L 93 162 L 90 160 L 79 159 Q 78 156 74 157 L 63 150 Q 59 151 60 148 L 57 147 Q 58 144 55 145 L 55 143 L 53 143 L 53 141 L 51 141 L 51 139 L 48 138 Q 49 135 46 136 Q 47 132 43 131 L 43 127 Q 40 126 41 122 L 39 120 L 39 108 L 37 108 L 39 107 L 39 100 L 45 90 Q 47 91 46 88 L 48 88 L 48 86 L 50 86 L 50 84 Q 54 85 56 81 Q 61 83 60 79 L 73 79 L 73 81 L 81 84 Q 83 83 82 86 L 89 91 L 92 96 Q 90 101 94 100 L 94 112 L 96 114 L 96 125 L 101 135 Q 100 138 103 137 L 107 144 Q 109 143 108 146 L 110 146 L 110 148 L 112 148 L 112 150 L 116 151 Q 118 150 117 153 Q 122 152 124 155 Q 127 154 126 157 L 157 157 L 157 155 L 162 155 L 171 150 Q 170 147 173 148 L 173 146 L 175 146 L 175 144 L 178 143 Q 177 140 180 141 L 180 139 L 182 139 L 182 137 L 187 129 L 187 122 L 189 121 L 189 24 L 187 23 L 185 18 Q 186 15 182 16 L 182 14 L 172 10 L 106 10 Z " /><path fill="rgb(143,208,81)" stroke="rgb(143,208,81)" stroke-width="1" opacity="0.9725490196078431" d="M 59 45 L 74 45 L 74 51.5 L 70.5 57 L 65.5 59 L 61 57 Q 57.9 53.2 59 45 Z " /><path fill="rgb(143,208,81)" stroke="rgb(143,208,81)" stroke-width="1" opacity="0.9725490196078431" d="M 40.5 50 Q 42.8 49.3 42 51.5 Q 46.5 54 45 62.5 L 42 64 Q 43.4 68 36.5 66 L 33 64 L 30 56 L 33 56 Q 31.9 53.3 34.5 54 L 40.5 50 Z " /><path fill="rgb(143,208,81)" stroke="rgb(143,208,81)" stroke-width="1" opacity="0.9725490196078431" d="M 181.5 51 Q 186.8 49.8 188 52.5 L 188 65 L 179.5 65 L 176 62.5 Q 176.7 59.9 174 61 L 174 56.5 L 177.5 52 L 181.5 51 Z " /><path fill="rgb(143,208,81)" stroke="rgb(143,208,81)" stroke-width="1" opacity="0.9725490196078431" d="M 16.5 71 L 18.5 71 L 24 75.5 L 26 79.5 L 24 84 L 20.5 86 L 15.5 86 L 10 82.5 Q 11.5 74.9 16.5 71 Z " /><path fill="rgb(143,208,81)" stroke="rgb(143,208,81)" stroke-width="1" opacity="0.9725490196078431" d="M 178.5 78 L 188 78 L 188 91 L 178.5 91 L 176 88.5 Q 176.7 85.9 174 87 L 174 82 Q 176.7 83.1 176 80.5 L 178.5 78 Z " /><path fill="rgb(143,208,81)" stroke="rgb(143,208,81)" stroke-width="1" opacity="0.9725490196078431" d="M 5 100 Q 14 98.3 17 103.5 L 17 112 Q 12.8 111 13.5 114 L 5 114 Q 2.4 111.7 3 105.5 L 5 100 Z " /><path fill="rgb(143,208,81)" stroke="rgb(143,208,81)" stroke-width="1" opacity="0.9725490196078431" d="M 180.5 105 L 188 105 L 188 117.5 L 186.5 119 L 178.5 119 L 174 114.5 L 174 110.5 L 176 107 L 180.5 105 Z " /><path fill="rgb(0,209,105)" stroke="rgb(0,209,105)" stroke-width="1" opacity="0.9921568627450981" d="M 104 13 L 175.5 13 L 176 15 L 179 15 Q 177.9 17.7 180.5 17 L 183 18 L 186 26 L 184 26 Q 185.3 21.9 182 23 L 182 19 L 178 19 L 178 17.5 Q 177 15 172.5 16 L 170.5 14 L 106 14 L 106 16 Q 103.3 14.9 104 17.5 L 103 17.5 L 104 13 Z " /><path fill="rgb(0,209,105)" stroke="rgb(0,209,105)" stroke-width="1" opacity="0.9921568627450981" d="M 104 19 L 106 19 L 106 27.5 L 108 28 Q 106.8 33.3 110 32.5 L 110 35.5 L 109 35.5 Q 109.7 32.9 107 34 L 107 30.5 Q 102.7 27 104 19 Z " /><path fill="rgb(0,209,105)" stroke="rgb(0,209,105)" stroke-width="1" opacity="0.9921568627450981" d="M 142.5 24 L 150 25 L 150 38.5 L 148.5 39 L 142 40 Q 138.3 36.6 140 26.5 L 142.5 24 Z " /><path fill="rgb(0,209,105)" stroke="rgb(0,209,105)" stroke-width="1" opacity="0.9921568627450981" d="M 186.5 27 L 187 44.5 L 188 51 L 186 50.5 L 186.5 27 Z " /><path fill="rgb(0,209,105)" stroke="rgb(0,209,105)" stroke-width="1" opacity="0.9921568627450981" d="M 111 37 L 113 37 Q 111.9 39.7 114.5 39 L 119.5 44 L 122 44 Q 120.7 47.7 126.5 46 L 133.5 49 L 154.5 49 L 157 51.5 L 157 115.5 L 156 120 L 154 120 Q 155.1 122.7 152.5 122 L 149 123 L 148.5 125 L 134 125 L 130.5 120 Q 127.9 120.7 129 118 L 127 118 L 127 113.5 L 126 112.5 L 126 94.5 L 127 94.5 L 128 113.5 Q 131 114.8 130 119 L 132 119 Q 130.9 121.7 133.5 121 Q 136.3 125.7 145.5 124 L 152 121 L 153 117 Q 156.7 118.3 155 112.5 L 156 111.5 L 156 54.5 L 153.5 51 L 151.5 50 L 128.5 50 L 126.5 48 L 121.5 47 L 111 38.5 L 111 37 Z " /><path fill="rgb(0,209,105)" stroke="rgb(0,209,105)" stroke-width="1" opacity="0.9921568627450981" d="M 58.5 45 L 59 48 L 48 49 Q 49.4 52.7 43.5 51 L 42 51.5 Q 41.3 49.3 43.5 50 L 49.5 47 Q 56.2 48.2 58.5 45 Z " /><path fill="rgb(0,209,105)" stroke="rgb(0,209,105)" stroke-width="1" opacity="0.9921568627450981" d="M 74 46 L 82.5 47 L 90.5 50 L 107 60.5 Q 106.3 62.8 108.5 62 L 114 67.5 L 114 70 Q 116.7 68.9 116 71.5 Q 124.4 79.4 126 93 L 124 93 Q 125.5 86.7 122 87.5 L 122 83.5 Q 119.3 82.4 120 79 Q 117 80.3 118 76.5 L 117 74 L 113 72 L 113 69.5 L 110 65 L 108 65 Q 109.1 62.3 106.5 63 L 103 58 L 99 58 Q 100.3 55 96.5 56 L 93.5 53 L 89.5 53 Q 88.4 50.3 85 51 Q 86.1 47.5 78.5 49 L 74 48 L 74 46 Z " /><path fill="rgb(0,209,105)" stroke="rgb(0,209,105)" stroke-width="1" opacity="0.9921568627450981" d="M 29.5 58 L 30 59.5 L 25 63 L 25 65 Q 22.3 63.9 23 66.5 L 17.5 71 L 17 69 L 19 69 Q 17.5 65.3 20.5 66 L 26 59 L 29.5 58 Z " /><path fill="rgb(0,209,105)" stroke="rgb(0,209,105)" stroke-width="1" opacity="0.9921568627450981" d="M 186 65 L 188 65.5 L 188 76.5 L 186 77.5 L 186 65 Z " /><path fill="rgb(0,209,105)" stroke="rgb(0,209,105)" stroke-width="1" opacity="0.9921568627450981" d="M 57.5 76 L 75.5 76 L 83 79 L 83 81 L 85 81 L 85 83 L 87 83 Q 85.9 85.7 88.5 85 L 90 88 L 92 88 L 92 90 L 96 92 L 96 96.5 L 97 97.5 L 97 109 L 99 109.5 L 99 121.5 L 101 122 L 101 126.5 L 103 127 L 103 129.5 L 104 134 L 108 136 L 108 138.5 L 113 145 Q 117.9 144.9 120 148.5 L 120 150 L 125.5 150 L 126 152 L 128.5 152 L 129.5 153 L 153.5 153 L 157.5 152 L 156.5 154 Q 151.9 153.4 150.5 156 L 132 156 Q 133.4 152 126.5 154 L 118.5 149 L 116 149 Q 117.1 146.3 114.5 147 L 100 129.5 L 96 113.5 L 97 110.5 L 96 109.5 L 95 96 Q 91.7 97.3 93 92.5 L 91 89 Q 88.3 90.1 89 87.5 L 84 84 L 84 82 Q 79.9 83.3 81 80 Q 75.7 81.3 76.5 78 L 72.5 78 L 71.5 77 L 61.5 77 L 51 80 Q 52.1 82.7 49.5 82 L 47 83 Q 48.1 85.7 45.5 85 L 40 91.5 L 40 94 Q 36.3 92.7 38 98.5 L 36.5 102 L 36 95.5 L 37 92 L 39 92 L 39 88 L 41 88 L 41 86 Q 43.7 87.1 43 84.5 L 46 83 L 46 81 L 50 81 L 50 79.5 L 52.5 77 L 57.5 76 Z " /><path fill="rgb(0,209,105)" stroke="rgb(0,209,105)" stroke-width="1" opacity="0.9921568627450981" d="M 10.5 83 L 11 86 L 9 86 L 9 92.5 L 7 93.5 L 7 99.5 L 5 100 L 7 90.5 L 6.5 89 Q 9.5 89.9 8 85.5 L 10.5 83 Z " /><path fill="rgb(0,209,105)" stroke="rgb(0,209,105)" stroke-width="1" opacity="0.9921568627450981" d="M 186.5 91 L 188 92.5 L 188 105 L 186 104.5 L 186.5 91 Z " /><path fill="rgb(0,209,105)" stroke="rgb(0,209,105)" stroke-width="1" opacity="0.9921568627450981" d="M 34 104 L 36 104.5 L 36 111 L 34 110.5 L 34 104 Z " /><path fill="rgb(0,209,105)" stroke="rgb(0,209,105)" stroke-width="1" opacity="0.9921568627450981" d="M 36.5 113 L 38 123.5 L 40 125.5 L 40 130.5 L 47 142 Q 49.7 140.9 49 143.5 L 54 147 L 56 151 L 58.5 151 L 69.5 158 L 84.5 162 L 86.5 162 L 88.5 163 L 140.5 163 L 147.5 165 L 155.5 165 L 157.5 167 L 167.5 170 L 183 182.5 L 185 185.5 Q 188.5 186 188 190.5 L 184.5 195 L 84.5 195 L 82.5 193 L 74.5 193 L 72.5 191 L 67.5 191 L 59.5 188 L 38 177 Q 39.1 174.3 36.5 175 L 30 170 L 30 168 L 28 168 L 28 166 L 26 166 Q 27.1 163.3 24.5 164 L 21 158 Q 18.3 159.1 19 156.5 L 12 144.5 L 12 142 Q 8.3 143.3 10 137.5 L 8 133.5 L 6 128.5 L 7 126.5 Q 4.1 121.6 5 114 L 7 114.5 L 7 124.5 L 9 125.5 L 9 131.5 Q 12.2 130.6 11 138.5 Q 14.5 140.7 14 146 L 16 146 L 16 150 Q 19 148.8 18 152.5 L 22 156.5 L 22 158.5 L 34.5 171 Q 36.8 170.3 36 172.5 L 43.5 178 L 46 178 L 46 180 L 50 180 Q 48.9 182.7 51.5 182 L 60 185 L 60 187 L 65.5 187 Q 64.5 190.3 70.5 189 Q 72.2 191.8 78.5 190 L 80.5 192 L 92 192 L 92.5 194 L 184 194 Q 183 191 186 192 L 186 187 L 184 187 L 184 185 L 182 185 Q 183.1 182.3 180.5 183 L 177 178 Q 174 179 175 176 L 171 176 L 171 174.5 Q 169.8 172 166 173 L 166 171 Q 161.9 172.3 163 169 L 157.5 169 L 149.5 166 L 89.5 166 L 87.5 164 Q 81.8 165.3 80.5 162 L 74 162 Q 75.3 158.3 69.5 160 L 66 159 L 66 157 L 62 157 L 60 153 L 57.5 153 L 47.5 143 L 46 143 L 46 141 Q 43.3 142.1 44 139.5 L 43 136 L 39 134 L 39 129.5 Q 34.3 123.8 36.5 113 Z " /><path fill="rgb(0,209,105)" stroke="rgb(0,209,105)" stroke-width="1" opacity="0.9921568627450981" d="M 184 119 Q 187.3 117.7 186 122.5 L 181 135 L 179 135 L 179 138 Q 176.3 136.9 177 139.5 L 172 143 L 170 147 L 167 147 Q 168.1 149.7 165.5 149 Q 163.6 152.6 159 152 L 159 150 L 163 150 L 163 148 L 166 148 L 166 146 L 168 146 Q 166.9 143.3 169.5 144 L 171 141 L 173 141 L 173 139 L 175 139 Q 173.9 136.3 176.5 137 L 180 130 L 182 130 L 182 125 L 184 125 L 184 119 Z " /><path fill="rgb(0,210,106)" stroke="rgb(0,210,106)" stroke-width="1" opacity="1" d="M 106 14 L 170.5 14 L 172.5 16 Q 177 15 178 17.5 L 178 19 L 182 19 L 182 23 L 184 23 Q 183 27.3 186 26.5 L 186 51 L 177.5 52 L 176 53.5 Q 173 55.8 174 61 Q 176.7 59.9 176 62.5 Q 178.8 66.5 186 65 L 186 78 L 178.5 78 L 176 82 L 174 82 L 174 87 Q 176.7 85.9 176 88.5 L 178.5 91 L 186 91 L 186 105 L 180.5 105 L 176 107 L 174 110.5 L 174 114.5 Q 175.9 120.5 184 119 L 184 125 L 182 125 L 182 130 Q 179.3 128.9 180 131.5 L 176.5 137 L 175 137 L 175 139 L 173 139 L 173 141 Q 170.3 139.9 171 142.5 L 168 144 L 168 146 Q 165 145 166 148 L 163 148 L 163 150 Q 157.7 148.8 158.5 152 L 154.5 152 L 153.5 153 L 129.5 153 L 126 152 L 126 150 L 120.5 150 L 120 148.5 Q 117.9 144.9 113 145 L 108 138.5 L 108 136 L 104 134 L 104 130.5 L 103 127 L 101 127 Q 102.5 120.7 99 121.5 L 99 109.5 L 97 108.5 L 97 97.5 L 96 92 L 94 92 L 94 90 L 92 90 L 92 88 Q 89.3 89.1 90 86.5 L 87 85 L 87 83 L 85 83 L 83 79 L 80.5 79 L 75.5 76 L 57.5 76 L 52.5 77 L 50 79.5 L 50 81 L 46 81 Q 47.1 83.7 44.5 83 L 43 86 L 39 88 L 39 92 Q 36 90.8 37 94.5 L 36 95.5 L 36 104 L 34 104.5 L 34 111 L 36 111.5 L 36 122.5 L 37 127.5 L 39 129.5 L 39 134 L 43 136 L 43 138.5 L 44 141 L 46 141 Q 44.9 143.7 47.5 143 L 57.5 153 L 60 153 L 62 157 L 66 157 Q 64.8 160 68.5 159 L 74 160 Q 72.9 163.5 80.5 162 L 82.5 164 Q 88.3 162.7 89.5 166 L 149.5 166 L 152.5 168 L 163 169 L 163 171 Q 167.1 169.7 166 173 L 169.5 173 L 171 176 L 175 176 L 175 178 Q 177.7 176.9 177 179.5 L 182 183 L 182 185 L 186 187 L 186 192 Q 182.9 191.3 183.5 194 L 92 194 L 91.5 192 L 80.5 192 L 78.5 190 L 66 189 L 66 187 L 60.5 187 L 60 185 L 57.5 185 L 55.5 183 L 50 182 L 50 180 L 46 180 Q 47.3 177 43.5 178 L 36 172.5 Q 36.8 170.3 34.5 171 L 22 158.5 L 22 156.5 L 18 152.5 L 18 150 L 16 150 L 16 146 Q 13 147.3 14 143.5 L 11 138.5 L 11 132 L 9 132 L 9 125.5 L 7 124.5 L 7 114 L 13.5 114 Q 12.8 111 17 112 L 17 103.5 Q 14.5 98.7 7 100 L 7 93.5 L 9 92.5 L 9 86 Q 12 87 11 84 L 13.5 84 Q 14.7 87.3 20.5 86 L 24 84 L 26 78.5 L 21.5 73 L 18 70.5 L 23 66.5 Q 22.3 63.9 25 65 L 25 63 L 26.5 63 L 31 59.5 L 33 64 L 36.5 66 L 42 66 Q 40.9 63.3 43.5 64 Q 46.8 62.3 45 55.5 L 43 51 Q 49.3 52.5 48.5 49 L 54.5 49 L 59 48 Q 58.3 54 61 57 L 67.5 59 L 72 55.5 L 74 48 L 85 49 Q 83.8 52 87.5 51 L 89.5 53 L 93.5 53 Q 94.7 56.8 99 56 L 99 58 L 103 58 L 103 59.5 L 108 63 L 108 65 Q 110.7 63.9 110 66.5 Q 113.8 67.7 113 72 L 115 72 L 115 74 Q 117.7 72.9 117 75.5 L 118 79 Q 121 77.8 120 81.5 Q 123.3 83 122 88 L 124 88 Q 122.5 94.3 126 93.5 L 126 112.5 L 127 118 L 129 118 Q 127.9 120.7 130.5 120 L 134 125 L 148.5 125 L 149 123 L 151.5 123 L 154 122 Q 153 119 156 120 L 156 116.5 L 157 115.5 L 157 51.5 L 154.5 49 L 133.5 49 L 130.5 47 L 122 46 Q 123.3 43 119.5 44 L 113 39 Q 114.1 35.7 110 37 L 110 32.5 Q 106.8 33.3 108 28 L 106 28 L 106 19.5 Q 103 20.3 104 16 Q 107 17 106 14 Z M 143 24 L 140 27 Q 138 37 142 40 L 149 39 L 150 39 L 150 25 L 143 24 Z " /><path fill="rgb(97,202,132)" stroke="rgb(97,202,132)" stroke-width="1" opacity="0.5764705882352941" d="M 106.5 11 L 169.5 11 L 171 12.5 L 105.5 13 L 106.5 11 Z " /><path fill="rgb(97,202,132)" stroke="rgb(97,202,132)" stroke-width="1" opacity="0.5764705882352941" d="M 175.5 12 L 178 13 Q 179 16 176 15 L 175.5 12 Z " /><path fill="rgb(97,202,132)" stroke="rgb(97,202,132)" stroke-width="1" opacity="0.5764705882352941" d="M 103.5 13 L 104 14.5 L 103 17.5 L 105 27.5 L 103 26.5 Q 103.9 19.1 101 15.5 L 103 15 L 103.5 13 Z " /><path fill="rgb(97,202,132)" stroke="rgb(97,202,132)" stroke-width="1" opacity="0.5764705882352941" d="M 179.5 15 L 183 17.5 L 181.5 18 L 179 17 L 179.5 15 Z " /><path fill="rgb(97,202,132)" stroke="rgb(97,202,132)" stroke-width="1" opacity="0.5764705882352941" d="M 183.5 19 L 185 22 Q 188.7 20.6 187 26.5 L 189 29.5 L 189 52 L 187 51.5 Q 189.3 50.2 188 45.5 L 187 44.5 L 187 27.5 L 183.5 19 Z " /><path fill="rgb(97,202,132)" stroke="rgb(97,202,132)" stroke-width="1" opacity="0.5764705882352941" d="M 105.5 29 L 107 32 Q 103.5 33.1 105.5 29 Z " /><path fill="rgb(97,202,132)" stroke="rgb(97,202,132)" stroke-width="1" opacity="0.5764705882352941" d="M 105.5 34 L 107.5 34 Q 109.8 33.3 109 35.5 L 106.5 36 Q 103.7 36.7 105.5 34 Z " /><path fill="rgb(97,202,132)" stroke="rgb(97,202,132)" stroke-width="1" opacity="0.5764705882352941" d="M 91.5 38 L 90.5 40 L 91.5 38 Z " /><path fill="rgb(97,202,132)" stroke="rgb(97,202,132)" stroke-width="1" opacity="0.5764705882352941" d="M 56.5 44 L 59 44.5 L 55.5 47 L 49.5 47 L 42.5 50 L 43.5 48 Q 47.8 48.8 48.5 46 L 53.5 46 L 56.5 44 Z " /><path fill="rgb(97,202,132)" stroke="rgb(97,202,132)" stroke-width="1" opacity="0.5764705882352941" d="M 73.5 44 L 78.5 46 L 83.5 46 L 90 49.5 L 88.5 50 L 82.5 47 L 74.5 46 L 73.5 44 Z " /><path fill="rgb(97,202,132)" stroke="rgb(97,202,132)" stroke-width="1" opacity="0.5764705882352941" d="M 117.5 44 L 130 50.5 L 127.5 51 L 119.5 47 L 117.5 44 Z " /><path fill="rgb(97,202,132)" stroke="rgb(97,202,132)" stroke-width="1" opacity="0.5764705882352941" d="M 92.5 49 L 105 57 L 104.5 59 L 91 50.5 L 92.5 49 Z " /><path fill="rgb(97,202,132)" stroke="rgb(97,202,132)" stroke-width="1" opacity="0.5764705882352941" d="M 39.5 50 L 38.5 52 L 39.5 50 Z " /><path fill="rgb(97,202,132)" stroke="rgb(97,202,132)" stroke-width="1" opacity="0.5764705882352941" d="M 132 50 L 151.5 50 L 154 51.5 L 151.5 53 L 134.5 53 L 132 52 L 132 50 Z " /><path fill="rgb(97,202,132)" stroke="rgb(97,202,132)" stroke-width="1" opacity="0.5764705882352941" d="M 35.5 52 L 34.5 54 L 35.5 52 Z " /><path fill="rgb(97,202,132)" stroke="rgb(97,202,132)" stroke-width="1" opacity="0.5764705882352941" d="M 154 54 L 156 54.5 L 156 111.5 L 155 117 L 153 116.5 L 154 115.5 L 154 54 Z " /><path fill="rgb(97,202,132)" stroke="rgb(97,202,132)" stroke-width="1" opacity="0.5764705882352941" d="M 28.5 57 L 30 57.5 L 27.5 59 L 28.5 57 Z " /><path fill="rgb(97,202,132)" stroke="rgb(97,202,132)" stroke-width="1" opacity="0.5764705882352941" d="M 25.5 60 L 20.5 66 L 22 63.5 Q 21.3 61.3 23.5 62 L 25.5 60 Z " /><path fill="rgb(97,202,132)" stroke="rgb(97,202,132)" stroke-width="1" opacity="0.5764705882352941" d="M 107.5 61 L 114 66.5 L 108.5 62 L 107.5 61 Z " /><path fill="rgb(97,202,132)" stroke="rgb(97,202,132)" stroke-width="1" opacity="0.5764705882352941" d="M 188.5 65 L 189 78 L 187 77.5 L 188 76.5 L 188.5 65 Z " /><path fill="rgb(97,202,132)" stroke="rgb(97,202,132)" stroke-width="1" opacity="0.5764705882352941" d="M 114 68 Q 117 67 116 70 Q 113 71 114 68 Z " /><path fill="rgb(97,202,132)" stroke="rgb(97,202,132)" stroke-width="1" opacity="0.5764705882352941" d="M 15 70 L 17 70.5 L 15 71.5 L 15 70 Z " /><path fill="rgb(97,202,132)" stroke="rgb(97,202,132)" stroke-width="1" opacity="0.5764705882352941" d="M 116.5 71 Q 118.8 70.3 118 72.5 L 121 76.5 L 119 75.5 L 116.5 71 Z " /><path fill="rgb(97,202,132)" stroke="rgb(97,202,132)" stroke-width="1" opacity="0.5764705882352941" d="M 13.5 74 L 12.5 76 L 13.5 74 Z " /><path fill="rgb(97,202,132)" stroke="rgb(97,202,132)" stroke-width="1" opacity="0.5764705882352941" d="M 61.5 77 L 71.5 77 L 77 78 Q 78.1 80.7 75.5 80 L 65.5 78 Q 63.8 80.7 57.5 79 L 54.5 81 L 56.5 78 L 61.5 77 Z " /><path fill="rgb(97,202,132)" stroke="rgb(97,202,132)" stroke-width="1" opacity="0.5764705882352941" d="M 11.5 78 L 10.5 80 L 11.5 78 Z " /><path fill="rgb(97,202,132)" stroke="rgb(97,202,132)" stroke-width="1" opacity="0.5764705882352941" d="M 121.5 78 L 123 80.5 L 121 79.5 L 121.5 78 Z " /><path fill="rgb(97,202,132)" stroke="rgb(97,202,132)" stroke-width="1" opacity="0.5764705882352941" d="M 51 80 L 53 80.5 L 51 81.5 L 51 80 Z " /><path fill="rgb(97,202,132)" stroke="rgb(97,202,132)" stroke-width="1" opacity="0.5764705882352941" d="M 79 80 Q 82 79 81 82 Q 78 83 79 80 Z " /><path fill="rgb(97,202,132)" stroke="rgb(97,202,132)" stroke-width="1" opacity="0.5764705882352941" d="M 8 82 Q 10.7 80.9 10 83.5 L 8 84.5 L 8 82 Z " /><path fill="rgb(97,202,132)" stroke="rgb(97,202,132)" stroke-width="1" opacity="0.5764705882352941" d="M 49.5 82 L 50 84 L 47 83.5 L 49.5 82 Z " /><path fill="rgb(97,202,132)" stroke="rgb(97,202,132)" stroke-width="1" opacity="0.5764705882352941" d="M 82.5 82 L 85.5 84 L 89 89 Q 91.7 87.9 91 90.5 L 92.5 93 Q 90.3 93.8 91 91.5 L 85.5 85 L 82.5 82 Z " /><path fill="rgb(97,202,132)" stroke="rgb(97,202,132)" stroke-width="1" opacity="0.5764705882352941" d="M 123.5 82 L 129 95.5 L 129 111.5 L 131 114.5 L 129.5 115 L 128 113.5 L 128 99.5 L 123.5 82 Z " /><path fill="rgb(97,202,132)" stroke="rgb(97,202,132)" stroke-width="1" opacity="0.5764705882352941" d="M 45.5 85 L 47 85.5 L 44 87.5 L 43.5 89 L 43 87.5 L 45.5 85 Z " /><path fill="rgb(97,202,132)" stroke="rgb(97,202,132)" stroke-width="1" opacity="0.5764705882352941" d="M 6 87 Q 9 86 8 89 Q 5 90 6 87 Z " /><path fill="rgb(97,202,132)" stroke="rgb(97,202,132)" stroke-width="1" opacity="0.5764705882352941" d="M 6.5 90 L 7 92.5 L 4.5 101 L 4 94.5 L 6.5 90 Z " /><path fill="rgb(97,202,132)" stroke="rgb(97,202,132)" stroke-width="1" opacity="0.5764705882352941" d="M 41.5 90 L 42 91.5 L 40 92.5 L 41.5 90 Z " /><path fill="rgb(97,202,132)" stroke="rgb(97,202,132)" stroke-width="1" opacity="0.5764705882352941" d="M 187.5 91 L 189 91.5 L 189 105.5 L 188 105.5 L 188 92.5 L 187.5 91 Z " /><path fill="rgb(97,202,132)" stroke="rgb(97,202,132)" stroke-width="1" opacity="0.5764705882352941" d="M 38 94 L 41 95.5 L 38.5 97 L 38 94 Z " /><path fill="rgb(97,202,132)" stroke="rgb(97,202,132)" stroke-width="1" opacity="0.5764705882352941" d="M 92.5 95 L 95 96 Q 96 99 93 98 L 92.5 95 Z " /><path fill="rgb(97,202,132)" stroke="rgb(97,202,132)" stroke-width="1" opacity="0.5764705882352941" d="M 38.5 98 L 39 100.5 Q 36.4 103.4 37 109.5 L 39 115.5 L 39 120.5 L 38 120.5 L 36 112.5 L 36 102.5 L 38.5 98 Z " /><path fill="rgb(97,202,132)" stroke="rgb(97,202,132)" stroke-width="1" opacity="0.5764705882352941" d="M 94.5 100 L 96 101.5 L 97 112.5 L 96 112.5 L 94.5 100 Z " /><path fill="rgb(97,202,132)" stroke="rgb(97,202,132)" stroke-width="1" opacity="0.5764705882352941" d="M 4.5 102 L 4 103.5 L 3.5 105 L 3 103.5 L 4.5 102 Z " /><path fill="rgb(97,202,132)" stroke="rgb(97,202,132)" stroke-width="1" opacity="0.5764705882352941" d="M 3.5 110 L 5 112.5 L 3 111.5 L 3.5 110 Z " /><path fill="rgb(97,202,132)" stroke="rgb(97,202,132)" stroke-width="1" opacity="0.5764705882352941" d="M 4.5 114 L 7 127.5 L 6 127.5 Q 2.2 123 4.5 114 Z " /><path fill="rgb(97,202,132)" stroke="rgb(97,202,132)" stroke-width="1" opacity="0.5764705882352941" d="M 96.5 117 L 98 122 Q 93.9 123.2 96.5 117 Z " /><path fill="rgb(97,202,132)" stroke="rgb(97,202,132)" stroke-width="1" opacity="0.5764705882352941" d="M 130 117 Q 132.7 115.9 132 118.5 L 135.5 122 Q 139.3 121.3 140 123.5 L 137.5 124 L 132 121 L 130 117 Z " /><path fill="rgb(97,202,132)" stroke="rgb(97,202,132)" stroke-width="1" opacity="0.5764705882352941" d="M 187.5 118 L 187 119.5 L 187 124.5 L 183 133 L 181 132.5 L 184 128.5 L 186 119.5 L 187.5 118 Z " /><path fill="rgb(97,202,132)" stroke="rgb(97,202,132)" stroke-width="1" opacity="0.5764705882352941" d="M 148.5 121 L 150 121.5 L 144 124 Q 142.7 120.7 147.5 122 L 148.5 121 Z " /><path fill="rgb(97,202,132)" stroke="rgb(97,202,132)" stroke-width="1" opacity="0.5764705882352941" d="M 38.5 122 L 41 123 Q 42.1 125.7 39.5 125 L 38.5 122 Z " /><path fill="rgb(97,202,132)" stroke="rgb(97,202,132)" stroke-width="1" opacity="0.5764705882352941" d="M 98.5 123 L 100 127.5 L 98 126.5 L 98.5 123 Z " /><path fill="rgb(97,202,132)" stroke="rgb(97,202,132)" stroke-width="1" opacity="0.5764705882352941" d="M 40.5 128 L 45 136.5 L 43 135.5 Q 38.8 132.9 40.5 128 Z " /><path fill="rgb(97,202,132)" stroke="rgb(97,202,132)" stroke-width="1" opacity="0.5764705882352941" d="M 6.5 129 L 8 133 Q 4.2 134.2 6.5 129 Z " /><path fill="rgb(97,202,132)" stroke="rgb(97,202,132)" stroke-width="1" opacity="0.5764705882352941" d="M 99.5 130 L 102 131.5 L 100.5 131 L 99.5 130 Z " /><path fill="rgb(97,202,132)" stroke="rgb(97,202,132)" stroke-width="1" opacity="0.5764705882352941" d="M 102.5 133 L 114.5 147 Q 117.1 146.3 116 149 L 114 149 L 114 147 Q 111.3 148.1 112 145.5 L 109 144 L 109 142 L 105 140 L 105 137.5 Q 100.8 136.3 102.5 133 Z " /><path fill="rgb(97,202,132)" stroke="rgb(97,202,132)" stroke-width="1" opacity="0.5764705882352941" d="M 179 135 L 181 135.5 L 177.5 140 L 177 138 Q 180.3 139.1 179 135 Z " /><path fill="rgb(97,202,132)" stroke="rgb(97,202,132)" stroke-width="1" opacity="0.5764705882352941" d="M 8.5 136 L 10 139.5 L 8 138.5 L 8.5 136 Z " /><path fill="rgb(97,202,132)" stroke="rgb(97,202,132)" stroke-width="1" opacity="0.5764705882352941" d="M 45.5 138 Q 47.8 137.3 47 139.5 L 48.5 142 Q 46.3 142.8 47 140.5 L 45.5 138 Z " /><path fill="rgb(97,202,132)" stroke="rgb(97,202,132)" stroke-width="1" opacity="0.5764705882352941" d="M 10.5 142 Q 12.8 141.3 12 143.5 L 10.5 142 Z " /><path fill="rgb(97,202,132)" stroke="rgb(97,202,132)" stroke-width="1" opacity="0.5764705882352941" d="M 49.5 143 Q 52.1 142.3 51 145 L 53 145 L 53 146.5 L 49.5 143 Z " /><path fill="rgb(97,202,132)" stroke="rgb(97,202,132)" stroke-width="1" opacity="0.5764705882352941" d="M 172 143 L 174 143.5 L 170 146.5 Q 169.3 143.9 172 145 L 172 143 Z " /><path fill="rgb(97,202,132)" stroke="rgb(97,202,132)" stroke-width="1" opacity="0.5764705882352941" d="M 12.5 145 L 17 153.5 L 15 152.5 L 13 147 L 11 146.5 L 12.5 145 Z " /><path fill="rgb(97,202,132)" stroke="rgb(97,202,132)" stroke-width="1" opacity="0.5764705882352941" d="M 54.5 147 L 58 149 Q 59 152 56 151 Q 57 148 54 149 L 54.5 147 Z " /><path fill="rgb(97,202,132)" stroke="rgb(97,202,132)" stroke-width="1" opacity="0.5764705882352941" d="M 167 147 Q 170 146 169 149 L 164.5 151 L 165.5 149 Q 168.1 149.7 167 147 Z " /><path fill="rgb(97,202,132)" stroke="rgb(97,202,132)" stroke-width="1" opacity="0.5764705882352941" d="M 117.5 149 L 120 150.5 L 118.5 151 L 117.5 149 Z " /><path fill="rgb(97,202,132)" stroke="rgb(97,202,132)" stroke-width="1" opacity="0.5764705882352941" d="M 59.5 151 L 63.5 154 L 66 154 L 65.5 156 Q 60.3 154.2 59.5 151 Z " /><path fill="rgb(97,202,132)" stroke="rgb(97,202,132)" stroke-width="1" opacity="0.5764705882352941" d="M 121.5 151 L 126 153.5 L 125.5 155 L 125 153 Q 119.4 154.7 121.5 151 Z " /><path fill="rgb(97,202,132)" stroke="rgb(97,202,132)" stroke-width="1" opacity="0.5764705882352941" d="M 162.5 151 L 163 153 L 157.5 155 L 157 153.5 L 162.5 151 Z " /><path fill="rgb(97,202,132)" stroke="rgb(97,202,132)" stroke-width="1" opacity="0.5764705882352941" d="M 128.5 154 Q 133.5 153 132.5 156 L 150.5 156 L 155 154 L 154.5 157 L 152.5 157 L 130.5 157 L 130 155 L 128.5 155 L 128.5 154 Z " /><path fill="rgb(97,202,132)" stroke="rgb(97,202,132)" stroke-width="1" opacity="0.5764705882352941" d="M 69.5 155 L 70 157 Q 74.3 156 75.5 159 L 80.5 159 L 82 160.5 L 79.5 161 L 68 156.5 L 69.5 155 Z " /><path fill="rgb(97,202,132)" stroke="rgb(97,202,132)" stroke-width="1" opacity="0.5764705882352941" d="M 19.5 158 Q 21.8 157.3 21 159.5 L 23 162.5 L 22 162.5 L 19.5 158 Z " /><path fill="rgb(97,202,132)" stroke="rgb(97,202,132)" stroke-width="1" opacity="0.5764705882352941" d="M 86.5 161 Q 91.3 159.7 90 163 Q 85.8 163.1 86.5 161 Z " /><path fill="rgb(97,202,132)" stroke="rgb(97,202,132)" stroke-width="1" opacity="0.5764705882352941" d="M 91.5 162 L 148.5 162 L 152 164.5 L 147.5 165 L 140.5 163 L 91.5 163 L 91.5 162 Z " /><path fill="rgb(97,202,132)" stroke="rgb(97,202,132)" stroke-width="1" opacity="0.5764705882352941" d="M 153.5 164 L 156.5 164 L 163.5 168 L 167 168 Q 168.1 170.7 165.5 170 L 153.5 165 L 153.5 164 Z " /><path fill="rgb(97,202,132)" stroke="rgb(97,202,132)" stroke-width="1" opacity="0.5764705882352941" d="M 26.5 166 Q 29.1 165.3 28 168 L 30 168 L 30 169.5 L 26.5 166 Z " /><path fill="rgb(97,202,132)" stroke="rgb(97,202,132)" stroke-width="1" opacity="0.5764705882352941" d="M 31.5 170 L 38 175 L 37.5 177 L 33 174 Q 34 171 31 172 L 31.5 170 Z " /><path fill="rgb(97,202,132)" stroke="rgb(97,202,132)" stroke-width="1" opacity="0.5764705882352941" d="M 168.5 170 Q 170.8 169.3 170 171.5 L 168.5 170 Z " /><path fill="rgb(97,202,132)" stroke="rgb(97,202,132)" stroke-width="1" opacity="0.5764705882352941" d="M 171.5 172 L 175.5 174 L 188 186.5 L 189 193 L 187 193 Q 188.1 195.7 185.5 195 L 183.5 197 L 93.5 197 L 91 195.5 L 184.5 195 L 187 192.5 L 188 188.5 L 185 184 Q 182.3 185.1 183 182.5 L 172.5 174 L 171.5 172 Z " /><path fill="rgb(97,202,132)" stroke="rgb(97,202,132)" stroke-width="1" opacity="0.5764705882352941" d="M 42 179 L 50 183.5 L 48.5 183 L 42 181 L 42 179 Z " /><path fill="rgb(97,202,132)" stroke="rgb(97,202,132)" stroke-width="1" opacity="0.5764705882352941" d="M 51.5 184 L 54 185.5 Q 54.7 188.1 52 187 L 51.5 184 Z " /><path fill="rgb(97,202,132)" stroke="rgb(97,202,132)" stroke-width="1" opacity="0.5764705882352941" d="M 56 186 L 59 187.5 L 56 188 L 56 186 Z " /><path fill="rgb(97,202,132)" stroke="rgb(97,202,132)" stroke-width="1" opacity="0.5764705882352941" d="M 60.5 188 L 68 191.5 L 66.5 192 Q 65.8 189.2 61.5 190 L 60.5 188 Z " /><path fill="rgb(97,202,132)" stroke="rgb(97,202,132)" stroke-width="1" opacity="0.5764705882352941" d="M 69.5 191 L 72.5 191 L 77 193.5 L 72.5 194 L 69.5 191 Z " /><path fill="rgb(97,202,132)" stroke="rgb(97,202,132)" stroke-width="1" opacity="0.5764705882352941" d="M 79 193 L 89 195.5 L 84.5 196 L 79 195 L 79 193 Z " /><path fill="rgb(116,154,89)" stroke="rgb(116,154,89)" stroke-width="1" opacity="0.9019607843137255" d="M 91 25 Q 94.8 24.3 96 27.5 L 96 29 L 98 29 Q 96.9 31.7 99.5 31 L 105 34 Q 103.7 37.7 109.5 36 L 115.5 43 Q 118.1 42.3 117 45 L 91.5 45 L 91 43.5 L 89 40 L 92.5 38 L 96 38 L 95 34 L 93 34 Q 94.1 31.3 91.5 32 Q 88.3 30.8 89 27 Q 92 28 91 25 Z " /><path fill="rgb(176,211,186)" stroke="rgb(176,211,186)" stroke-width="1" opacity="0.21568627450980393" d="M 105.5 10 L 171.5 10 L 175 11 Q 176.3 14.3 171.5 13 L 169.5 11 L 106.5 11 L 103 13 Q 104 16 101 15 Q 99.5 11.3 102.5 12 L 105.5 10 Z " /><path fill="rgb(176,211,186)" stroke="rgb(176,211,186)" stroke-width="1" opacity="0.21568627450980393" d="M 176.5 12 L 182 14 L 182 16 Q 185.8 14.5 185 17.5 L 187 22 Q 184.3 23.1 185 20.5 L 181.5 16 L 178 15 Q 179.1 12.3 176.5 13 L 176.5 12 Z " /><path fill="rgb(176,211,186)" stroke="rgb(176,211,186)" stroke-width="1" opacity="0.21568627450980393" d="M 101.5 16 L 103 22.5 L 101 21.5 L 101.5 16 Z " /><path fill="rgb(176,211,186)" stroke="rgb(176,211,186)" stroke-width="1" opacity="0.21568627450980393" d="M 187 23 Q 191 21.6 189 28.5 L 188 28.5 L 187 23 Z " /><path fill="rgb(176,211,186)" stroke="rgb(176,211,186)" stroke-width="1" opacity="0.21568627450980393" d="M 89 25 L 91 25.5 L 89 26.5 L 89 25 Z " /><path fill="rgb(176,211,186)" stroke="rgb(176,211,186)" stroke-width="1" opacity="0.21568627450980393" d="M 94.5 25 L 96.5 25 L 103.5 32 L 104 30.5 L 103 27.5 L 105 28.5 L 105 32 Q 108 30.8 107 34.5 L 105.5 34 Q 97 31.7 94.5 25 Z " /><path fill="rgb(176,211,186)" stroke="rgb(176,211,186)" stroke-width="1" opacity="0.21568627450980393" d="M 89.5 30 L 95 34 L 96 38 Q 91 36.7 89.5 40 L 89 37 L 94 37 L 94 35 Q 90.2 35.8 89 32.5 L 89.5 30 Z " /><path fill="rgb(176,211,186)" stroke="rgb(176,211,186)" stroke-width="1" opacity="0.21568627450980393" d="M 89.5 42 L 91 45 L 117.5 45 L 122 48.5 L 119 49 Q 120.3 45.7 115.5 47 L 114.5 46 L 90.5 46 L 89 44.5 L 89.5 42 Z " /><path fill="rgb(176,211,186)" stroke="rgb(176,211,186)" stroke-width="1" opacity="0.21568627450980393" d="M 52 44 L 56 44.5 L 52 46 L 52 44 Z " /><path fill="rgb(176,211,186)" stroke="rgb(176,211,186)" stroke-width="1" opacity="0.21568627450980393" d="M 59.5 44 L 73 44.5 L 59.5 45 L 59.5 44 Z " /><path fill="rgb(176,211,186)" stroke="rgb(176,211,186)" stroke-width="1" opacity="0.21568627450980393" d="M 76.5 44 Q 82.3 42.3 81 46 Q 75.8 46.3 76.5 44 Z " /><path fill="rgb(176,211,186)" stroke="rgb(176,211,186)" stroke-width="1" opacity="0.21568627450980393" d="M 45.5 46 L 48 46.5 L 35.5 52 L 22 62 L 19 68 L 15 70 L 15 72.5 L 12 75.5 L 10 82 L 8 82 L 8 87 L 6 87 L 9 76 L 11 76 L 11 72 L 12.5 72 L 20.5 62 Q 22.8 62.8 22 60.5 L 27.5 55 L 30 55 L 32 51 L 36 51 Q 34.8 48 38.5 49 L 45.5 46 Z " /><path fill="rgb(176,211,186)" stroke="rgb(176,211,186)" stroke-width="1" opacity="0.21568627450980393" d="M 84.5 46 L 92 48 Q 93.1 50.7 90.5 50 L 84.5 47 L 84.5 46 Z " /><path fill="rgb(176,211,186)" stroke="rgb(176,211,186)" stroke-width="1" opacity="0.21568627450980393" d="M 93.5 49 L 99 51 Q 97.8 54 101.5 53 L 111 60.5 Q 110.3 62.8 112.5 62 L 122 73.5 L 122 76 Q 125 74.8 124 78.5 L 127 88.5 L 126 88.5 L 125 83.5 L 118 71 L 116 71 L 116 68 Q 113.3 69.1 114 66.5 L 107 61 L 107 59 L 105 59 Q 106.1 56.3 103.5 57 L 95.5 52 L 93.5 49 Z " /><path fill="rgb(176,211,186)" stroke="rgb(176,211,186)" stroke-width="1" opacity="0.21568627450980393" d="M 124 49 L 127 50.5 L 124 51 L 124 49 Z " /><path fill="rgb(176,211,186)" stroke="rgb(176,211,186)" stroke-width="1" opacity="0.21568627450980393" d="M 130.5 50 L 133.5 52 L 133.5 53 Q 129.8 53.8 129 51.5 L 130.5 50 Z " /><path fill="rgb(176,211,186)" stroke="rgb(176,211,186)" stroke-width="1" opacity="0.21568627450980393" d="M 152 52 Q 156.1 50.7 155 54 Q 150.9 55.3 152 52 Z " /><path fill="rgb(176,211,186)" stroke="rgb(176,211,186)" stroke-width="1" opacity="0.21568627450980393" d="M 188.5 52 L 189 64.5 L 188 64.5 L 188.5 52 Z " /><path fill="rgb(176,211,186)" stroke="rgb(176,211,186)" stroke-width="1" opacity="0.21568627450980393" d="M 65.5 78 L 68 78.5 L 65.5 79 L 65.5 78 Z " /><path fill="rgb(176,211,186)" stroke="rgb(176,211,186)" stroke-width="1" opacity="0.21568627450980393" d="M 188.5 78 L 189 90.5 L 188 90.5 L 188.5 78 Z " /><path fill="rgb(176,211,186)" stroke="rgb(176,211,186)" stroke-width="1" opacity="0.21568627450980393" d="M 57.5 79 Q 61.3 78 60 81 L 56 80.5 L 57.5 79 Z " /><path fill="rgb(176,211,186)" stroke="rgb(176,211,186)" stroke-width="1" opacity="0.21568627450980393" d="M 73 79 L 79 80 Q 77.8 83 81.5 82 L 88 87.5 L 91 93 Q 94 92 93 95 L 89 92.5 Q 89.8 90.3 87.5 91 L 82 84 L 73 81 L 73 79 Z " /><path fill="rgb(176,211,186)" stroke="rgb(176,211,186)" stroke-width="1" opacity="0.21568627450980393" d="M 53.5 80 Q 57 82 52.5 84 L 50 84 L 50 86 L 48 86 L 48 88 L 46 88 Q 47.1 90.7 44.5 90 L 41.5 95 Q 39.3 95.8 40 93.5 Q 42.8 92.4 42 89 Q 44.7 90.1 44 87.5 L 47 86 L 47 84 L 50 84 Q 48.9 81.3 51.5 82 L 53.5 80 Z " /><path fill="rgb(176,211,186)" stroke="rgb(176,211,186)" stroke-width="1" opacity="0.21568627450980393" d="M 4 90 Q 7 88.8 6 92.5 L 4 93.5 L 4 90 Z " /><path fill="rgb(176,211,186)" stroke="rgb(176,211,186)" stroke-width="1" opacity="0.21568627450980393" d="M 127 90 Q 130.7 88.7 129 94.5 L 128 94.5 L 127 90 Z " /><path fill="rgb(176,211,186)" stroke="rgb(176,211,186)" stroke-width="1" opacity="0.21568627450980393" d="M 39.5 96 Q 41.8 95.3 41 97.5 Q 39.5 100.5 38 97.5 L 39.5 96 Z " /><path fill="rgb(176,211,186)" stroke="rgb(176,211,186)" stroke-width="1" opacity="0.21568627450980393" d="M 92.5 96 L 93 98 Q 96 97 95 100 Q 89.9 101.6 92.5 96 Z " /><path fill="rgb(176,211,186)" stroke="rgb(176,211,186)" stroke-width="1" opacity="0.21568627450980393" d="M 2 101 L 5 101.5 Q 1 103.5 3 111.5 L 4.5 114 L 2 113.5 L 2 101 Z " /><path fill="rgb(176,211,186)" stroke="rgb(176,211,186)" stroke-width="1" opacity="0.21568627450980393" d="M 38.5 101 L 39 107 Q 36.3 108.1 37 105.5 L 38.5 101 Z " /><path fill="rgb(176,211,186)" stroke="rgb(176,211,186)" stroke-width="1" opacity="0.21568627450980393" d="M 94.5 103 L 96 112.5 L 94 111.5 L 94.5 103 Z " /><path fill="rgb(176,211,186)" stroke="rgb(176,211,186)" stroke-width="1" opacity="0.21568627450980393" d="M 188.5 106 L 189 121 Q 186.3 122.1 187 119.5 L 188 118.5 L 188.5 106 Z " /><path fill="rgb(176,211,186)" stroke="rgb(176,211,186)" stroke-width="1" opacity="0.21568627450980393" d="M 37 108 Q 40.5 106.9 39 114.5 L 38 114.5 L 37 108 Z " /><path fill="rgb(176,211,186)" stroke="rgb(176,211,186)" stroke-width="1" opacity="0.21568627450980393" d="M 129.5 109 Q 131.8 109.8 131 113.5 L 130 113.5 L 129.5 109 Z " /><path fill="rgb(176,211,186)" stroke="rgb(176,211,186)" stroke-width="1" opacity="0.21568627450980393" d="M 152 113 Q 155 111.8 154 115.5 L 153 119 Q 150 118 151 121 L 148.5 121 L 145 122 L 145 120 L 149 120 L 149 118.5 Q 152.7 117.2 152 113 Z " /><path fill="rgb(176,211,186)" stroke="rgb(176,211,186)" stroke-width="1" opacity="0.21568627450980393" d="M 130 115 L 138 120 Q 139.3 123 135.5 122 L 132 117 Q 129 118 130 115 Z " /><path fill="rgb(176,211,186)" stroke="rgb(176,211,186)" stroke-width="1" opacity="0.21568627450980393" d="M 39.5 120 L 41 123 L 38 121.5 L 39.5 120 Z " /><path fill="rgb(176,211,186)" stroke="rgb(176,211,186)" stroke-width="1" opacity="0.21568627450980393" d="M 96 122 Q 99.7 120.7 98 126.5 L 100 130 L 97 128.5 L 96 122 Z " /><path fill="rgb(176,211,186)" stroke="rgb(176,211,186)" stroke-width="1" opacity="0.21568627450980393" d="M 139.5 122 L 144 122.5 L 141.5 124 L 139.5 122 Z " /><path fill="rgb(176,211,186)" stroke="rgb(176,211,186)" stroke-width="1" opacity="0.21568627450980393" d="M 4.5 124 L 6 128.5 L 4 127.5 L 4.5 124 Z " /><path fill="rgb(176,211,186)" stroke="rgb(176,211,186)" stroke-width="1" opacity="0.21568627450980393" d="M 40 125 L 43 126.5 L 43 130.5 Q 46.8 131.8 46 136 Q 48.7 134.9 48 137.5 L 51 139 L 51 141 L 53 141 L 53 143 L 55 143 L 55 145 Q 57.7 143.9 57 146.5 L 60 148 Q 58.8 151 62.5 150 L 69 154.5 Q 69.7 157.5 66 156 Q 67.3 153 63.5 154 Q 62.3 150.2 58 151 Q 59.1 148.3 56.5 149 L 53 147 L 53 145 L 51 145 L 51 143 Q 48.3 144.1 49 141.5 L 47 138 Q 44 139.3 45 135.5 L 42 132.5 L 40 125 Z " /><path fill="rgb(176,211,186)" stroke="rgb(176,211,186)" stroke-width="1" opacity="0.21568627450980393" d="M 186.5 125 L 187 128.5 L 182 136.5 L 182 139 L 180 139 L 180 141 Q 177.3 139.9 178 142.5 L 175 144 L 175 146 L 173 146 L 173 148 Q 170.3 146.9 171 149.5 L 161.5 155 L 158.5 155 L 158.5 154 L 163 153 Q 161.8 150 165.5 151 L 169 149 Q 167.9 146.3 170.5 147 L 174 142 L 176 142 Q 174.9 139.3 177.5 140 Q 181.1 137.9 181 133 Q 183.7 134.1 183 131.5 L 186.5 125 Z " /><path fill="rgb(176,211,186)" stroke="rgb(176,211,186)" stroke-width="1" opacity="0.21568627450980393" d="M 99 131 L 102 132.5 L 105 140 L 107 140 L 107 142 L 109 142 Q 107.9 144.7 110.5 144 L 112 147 Q 115 146 114 149 L 116.5 149 Q 117.6 151.8 121 151 Q 122.2 154.7 117 153 Q 118.1 150.3 115.5 151 L 112 150 L 112 148 L 110 148 L 110 146 L 108 146 Q 109.1 143.3 106.5 144 L 103 137 Q 100 138.3 101 134.5 L 99 131 Z " /><path fill="rgb(176,211,186)" stroke="rgb(176,211,186)" stroke-width="1" opacity="0.21568627450980393" d="M 6 133 Q 10 131.6 8 138.5 L 12 146 Q 7.9 147.7 9 143.5 L 7 140.5 Q 7.6 135.1 6 133 Z " /><path fill="rgb(176,211,186)" stroke="rgb(176,211,186)" stroke-width="1" opacity="0.21568627450980393" d="M 11 147 Q 14 145.8 13 149.5 L 17 156 Q 20 154.8 19 158.5 L 22 163 L 24 163 L 24 165 Q 26.7 163.9 26 166.5 L 31 170 L 31 172 L 33 172 Q 31.9 174.7 34.5 174 Q 35.7 177.8 40 177 L 42 181 L 44.5 181 L 52 185.5 Q 52.8 188.1 49.5 187 L 45.5 183 L 34 178 L 34 176 Q 31.3 177.1 32 174.5 L 29 173 L 29 171 L 27 171 L 27 169 L 25 169 L 25 167 Q 22.3 168.1 23 165.5 L 20 164 Q 21 161 18 162 L 18 158 L 16.5 158 L 11 147 Z " /><path fill="rgb(176,211,186)" stroke="rgb(176,211,186)" stroke-width="1" opacity="0.21568627450980393" d="M 122.5 153 Q 126.3 152 125 155 L 122.5 153 Z " /><path fill="rgb(176,211,186)" stroke="rgb(176,211,186)" stroke-width="1" opacity="0.21568627450980393" d="M 126 154 L 130 155 Q 131.2 158.7 126 157 L 126 154 Z " /><path fill="rgb(176,211,186)" stroke="rgb(176,211,186)" stroke-width="1" opacity="0.21568627450980393" d="M 155 154 Q 158.3 152.9 157 157 Q 153.7 158.1 155 154 Z " /><path fill="rgb(176,211,186)" stroke="rgb(176,211,186)" stroke-width="1" opacity="0.21568627450980393" d="M 70 155 L 73 156.5 L 70 157 L 70 155 Z " /><path fill="rgb(176,211,186)" stroke="rgb(176,211,186)" stroke-width="1" opacity="0.21568627450980393" d="M 74.5 157 L 78 158.5 L 75.5 159 L 74.5 157 Z " /><path fill="rgb(176,211,186)" stroke="rgb(176,211,186)" stroke-width="1" opacity="0.21568627450980393" d="M 81.5 159 L 89.5 160 L 92 161.5 L 90 162.5 L 89.5 161 L 82.5 161 L 81.5 159 Z " /><path fill="rgb(176,211,186)" stroke="rgb(176,211,186)" stroke-width="1" opacity="0.21568627450980393" d="M 149.5 162 Q 153.3 161.3 154 163.5 Q 152.3 166.8 150.5 163 L 149.5 162 Z " /><path fill="rgb(176,211,186)" stroke="rgb(176,211,186)" stroke-width="1" opacity="0.21568627450980393" d="M 157.5 164 L 161 165.5 L 158.5 166 L 157.5 164 Z " /><path fill="rgb(176,211,186)" stroke="rgb(176,211,186)" stroke-width="1" opacity="0.21568627450980393" d="M 162.5 166 Q 167.3 164.7 166 168 Q 162.2 168.8 162.5 166 Z " /><path fill="rgb(176,211,186)" stroke="rgb(176,211,186)" stroke-width="1" opacity="0.21568627450980393" d="M 167 168 Q 173 168.2 175.5 173 L 178 173 Q 176.9 175.7 179.5 175 L 185 182 L 189 184.5 L 188.5 188 L 175.5 174 L 170 172 L 170 170 Q 165.9 171.3 167 168 Z " /><path fill="rgb(176,211,186)" stroke="rgb(176,211,186)" stroke-width="1" opacity="0.21568627450980393" d="M 54.5 186 Q 57.1 185.3 56 188 L 59.5 188 L 60.5 190 Q 55 190.5 53 187.5 L 54.5 186 Z " /><path fill="rgb(176,211,186)" stroke="rgb(176,211,186)" stroke-width="1" opacity="0.21568627450980393" d="M 62 190 L 66 191.5 L 62 192 L 62 190 Z " /><path fill="rgb(176,211,186)" stroke="rgb(176,211,186)" stroke-width="1" opacity="0.21568627450980393" d="M 68.5 191 L 72 193.5 L 68.5 194 Q 65.5 192.5 68.5 191 Z " /><path fill="rgb(176,211,186)" stroke="rgb(176,211,186)" stroke-width="1" opacity="0.21568627450980393" d="M 77.5 193 Q 80.1 192.3 79 195 L 83.5 195 L 83.5 196 Q 77.5 197.5 76 194.5 L 77.5 193 Z " /><path fill="rgb(176,211,186)" stroke="rgb(176,211,186)" stroke-width="1" opacity="0.21568627450980393" d="M 187 193 Q 189.7 191.9 189 194.5 Q 188.5 197.5 184.5 197 L 185.5 195 Q 188.1 195.7 187 193 Z " /><path fill="rgb(176,211,186)" stroke="rgb(176,211,186)" stroke-width="1" opacity="0.21568627450980393" d="M 89 195 L 93 196.5 L 89 197 L 89 195 Z " /></svg>