<svg width="200" height="200" version="1.1" xmlns="http://www.w3.org/2000/svg" desc="Created with imagetracer.js version 1.2.6" ><path fill="rgb(0,0,0)" stroke="rgb(0,0,0)" stroke-width="1" opacity="0" d="M 0 0 L 200 0 L 200 200 L 0 200 L 0 0 Z M 142 19 L 139 23 Q 140 29 137 33 L 138 40 L 137 39 L 136 43 L 134 44 L 134 43 L 128 36 L 126 36 L 124 34 L 107 20 L 102 20 L 103 23 L 101 29 L 107 42 L 118 51 Q 121 53 118 54 Q 115 53 116 56 L 113 57 L 110 57 L 110 63 L 113 62 L 137 62 L 138 63 L 144 62 L 151 53 Q 150 49 153 50 L 154 48 L 154 42 L 144 42 L 142 37 L 144 37 L 146 32 L 145 34 L 145 37 L 151 37 Q 152 27 148 22 Q 147 18 142 19 Z M 66 26 L 66 28 L 58 35 L 57 34 L 52 30 L 49 31 L 45 30 L 45 36 L 48 36 L 51 41 Q 54 40 56 43 L 59 42 L 63 43 L 73 33 L 73 28 Q 71 25 66 26 Z M 81 54 L 78 59 L 79 64 L 77 64 L 78 69 L 76 69 Q 77 73 74 75 Q 75 82 73 85 L 38 57 L 35 58 L 33 57 L 30 59 L 34 74 L 40 83 Q 39 85 42 84 L 43 87 L 52 94 Q 54 93 53 97 L 46 100 Q 43 99 44 102 L 44 104 L 43 108 L 76 108 L 80 106 Q 84 107 83 105 L 87 102 L 89 100 L 93 90 L 94 90 L 94 82 L 90 80 L 91 77 L 91 66 L 88 58 L 81 54 Z M 137 91 L 129 99 L 121 94 Q 115 93 114 96 L 115 100 L 122 104 L 123 107 L 127 108 L 131 108 L 142 97 Q 145 88 137 91 Z M 98 126 L 99 132 L 97 132 L 98 140 L 97 139 L 96 144 L 93 149 L 92 162 L 91 164 L 75 151 L 73 151 L 69 146 L 62 142 L 47 129 L 42 130 L 39 129 Q 38 138 42 142 L 41 144 L 46 154 L 51 160 L 51 162 L 55 164 L 56 167 L 64 173 Q 63 175 66 174 L 66 176 L 69 177 L 56 184 L 53 184 L 53 190 L 55 189 L 91 189 L 94 190 L 94 188 L 96 189 L 103 187 L 104 185 L 107 183 L 114 171 L 115 162 L 111 159 Q 110 155 113 156 L 113 143 Q 110 144 111 139 L 110 139 L 110 138 L 108 130 Q 106 124 98 126 Z " /><path fill="rgb(218,217,219)" stroke="rgb(218,217,219)" stroke-width="1" opacity="0.9215686274509803" d="M 110.5 23 L 111.5 25 L 110.5 23 Z " /><path fill="rgb(218,217,219)" stroke="rgb(218,217,219)" stroke-width="1" opacity="0.9215686274509803" d="M 54.5 31 L 57 34.5 L 55.5 34 L 54 33.5 L 54.5 31 Z " /><path fill="rgb(218,217,219)" stroke="rgb(218,217,219)" stroke-width="1" opacity="0.9215686274509803" d="M 71.5 32 L 70 34.5 L 69.5 36 L 69 34.5 L 71.5 32 Z " /><path fill="rgb(218,217,219)" stroke="rgb(218,217,219)" stroke-width="1" opacity="0.9215686274509803" d="M 122.5 32 L 123.5 34 Q 120.7 34.7 122.5 32 Z " /><path fill="rgb(218,217,219)" stroke="rgb(218,217,219)" stroke-width="1" opacity="0.9215686274509803" d="M 111.5 33 L 132.5 50 L 138.5 53 L 144.5 48 L 145 49.5 L 139.5 56 Q 136 58.5 128.5 57 L 128.5 56 L 130 56 L 130 51 Q 120.1 47.6 114 39.5 L 111 34.5 L 111.5 33 Z " /><path fill="rgb(218,217,219)" stroke="rgb(218,217,219)" stroke-width="1" opacity="0.9215686274509803" d="M 66.5 37 L 65.5 39 L 66.5 37 Z " /><path fill="rgb(218,217,219)" stroke="rgb(218,217,219)" stroke-width="1" opacity="0.9215686274509803" d="M 51.5 67 L 52.5 69 Q 49.7 69.7 51.5 67 Z " /><path fill="rgb(218,217,219)" stroke="rgb(218,217,219)" stroke-width="1" opacity="0.9215686274509803" d="M 40.5 68 L 73.5 94 L 77.5 94 Q 79.5 89.6 85.5 89 L 85 90.5 Q 83.4 97.4 77.5 100 L 70.5 102 L 61.5 102 L 60.5 100 L 65 99 L 66 95.5 L 53.5 87 L 47 80.5 L 41 71.5 L 40.5 68 Z " /><path fill="rgb(218,217,219)" stroke="rgb(218,217,219)" stroke-width="1" opacity="0.9215686274509803" d="M 83.5 68 L 87.5 77 Q 91.3 75.8 90 79.5 L 91.5 82 Q 83.8 81.2 80 83 L 83.5 68 Z " /><path fill="rgb(218,217,219)" stroke="rgb(218,217,219)" stroke-width="1" opacity="0.9215686274509803" d="M 40.5 83 L 43 84.5 L 41.5 84 L 40.5 83 Z " /><path fill="rgb(218,217,219)" stroke="rgb(218,217,219)" stroke-width="1" opacity="0.9215686274509803" d="M 43.5 86 L 46.5 90 L 43.5 86 Z " /><path fill="rgb(218,217,219)" stroke="rgb(218,217,219)" stroke-width="1" opacity="0.9215686274509803" d="M 127.5 98 L 127.5 100 L 129 100.5 L 127.5 101 Q 124.5 99.5 127.5 98 Z " /><path fill="rgb(218,217,219)" stroke="rgb(218,217,219)" stroke-width="1" opacity="0.9215686274509803" d="M 88.5 99 L 86.5 102 L 88.5 99 Z " /><path fill="rgb(218,217,219)" stroke="rgb(218,217,219)" stroke-width="1" opacity="0.9215686274509803" d="M 83.5 103 L 83 104.5 L 82.5 106 L 82 104.5 L 83.5 103 Z " /><path fill="rgb(218,217,219)" stroke="rgb(218,217,219)" stroke-width="1" opacity="0.9215686274509803" d="M 123 105 L 125 105.5 L 123 106.5 L 123 105 Z " /><path fill="rgb(218,217,219)" stroke="rgb(218,217,219)" stroke-width="1" opacity="0.9215686274509803" d="M 103.5 138 Q 107.3 142.3 106 151.5 L 108.5 156 Q 112.7 154.7 111 159.5 L 111.5 161 L 106.5 160 L 98.5 163 L 98 160.5 L 103.5 138 Z " /><path fill="rgb(218,217,219)" stroke="rgb(218,217,219)" stroke-width="1" opacity="0.9215686274509803" d="M 48.5 140 L 91.5 174 L 95.5 174 Q 98.5 167.1 107 167 Q 105.5 176.1 98.5 181 L 88.5 185 L 70.5 185 L 70.5 184 L 80 178.5 Q 80.8 173.8 77.5 173 Q 65.3 168.2 58 158.5 Q 50.8 151 48.5 140 Z " /><path fill="rgb(218,217,219)" stroke="rgb(218,217,219)" stroke-width="1" opacity="0.9215686274509803" d="M 66.5 146 L 69 146.5 L 66.5 147 L 66.5 146 Z " /><path fill="rgb(218,217,219)" stroke="rgb(218,217,219)" stroke-width="1" opacity="0.9215686274509803" d="M 74.5 151 L 78.5 156 L 74.5 151 Z " /><path fill="rgb(218,217,219)" stroke="rgb(218,217,219)" stroke-width="1" opacity="0.9215686274509803" d="M 56.5 166 L 57.5 168 L 56.5 166 Z " /><path fill="rgb(121,121,121)" stroke="rgb(121,121,121)" stroke-width="1" opacity="0.2196078431372549" d="M 141.5 19 Q 147 18 148 21.5 L 151 31.5 L 150 31.5 L 144.5 20 L 141 21.5 L 137.5 38 L 137 32.5 Q 139.7 29.2 139 22.5 L 141.5 19 Z " /><path fill="rgb(121,121,121)" stroke="rgb(121,121,121)" stroke-width="1" opacity="0.2196078431372549" d="M 102 20 L 106.5 20 Q 110 25.3 116 27 Q 114.9 29.7 117.5 29 L 122 32 Q 120.9 34.7 123.5 34 L 126.5 37 L 127.5 36 L 134.5 43 Q 137.1 42.3 136 45 L 134 45 Q 135.1 42.3 132.5 43 L 104.5 21 L 102 22 L 102 20 Z " /><path fill="rgb(121,121,121)" stroke="rgb(121,121,121)" stroke-width="1" opacity="0.2196078431372549" d="M 67.5 26 L 72 26.5 L 71.5 28 Q 74.9 27.1 73 32.5 Q 71 36.2 69 34.5 L 69 36.5 L 62.5 43 L 60 42.5 L 71 31.5 L 71 28 L 68.5 28 L 57.5 37 L 55.5 34 L 58.5 35 L 67.5 26 Z " /><path fill="rgb(121,121,121)" stroke="rgb(121,121,121)" stroke-width="1" opacity="0.2196078431372549" d="M 102.5 27 L 104 32.5 L 103 32.5 L 102.5 27 Z " /><path fill="rgb(121,121,121)" stroke="rgb(121,121,121)" stroke-width="1" opacity="0.2196078431372549" d="M 45 30 L 47 30.5 L 46 33.5 L 58 42.5 L 55.5 43 L 45 34.5 L 45 30 Z " /><path fill="rgb(121,121,121)" stroke="rgb(121,121,121)" stroke-width="1" opacity="0.2196078431372549" d="M 144.5 30 L 146 33.5 L 147.5 36 L 151 35 L 151 37 L 145 37 L 144.5 30 Z " /><path fill="rgb(121,121,121)" stroke="rgb(121,121,121)" stroke-width="1" opacity="0.2196078431372549" d="M 52.5 31 L 55 32.5 L 53.5 33 L 52.5 31 Z " /><path fill="rgb(121,121,121)" stroke="rgb(121,121,121)" stroke-width="1" opacity="0.2196078431372549" d="M 103.5 34 Q 105.8 33.3 105 35.5 L 118.5 51 L 121 52.5 L 119.5 55 L 111 59.5 L 112 63 L 110 63 L 110 57 L 119 54 L 117.5 51 L 107 41.5 L 103.5 34 Z " /><path fill="rgb(121,121,121)" stroke="rgb(121,121,121)" stroke-width="1" opacity="0.2196078431372549" d="M 143.5 34 L 144 36.5 L 143 36.5 L 143.5 34 Z " /><path fill="rgb(121,121,121)" stroke="rgb(121,121,121)" stroke-width="1" opacity="0.2196078431372549" d="M 136.5 39 Q 139.5 40.5 136.5 42 L 136.5 39 Z " /><path fill="rgb(121,121,121)" stroke="rgb(121,121,121)" stroke-width="1" opacity="0.2196078431372549" d="M 142.5 39 L 144 42.5 L 142 41.5 L 142.5 39 Z " /><path fill="rgb(121,121,121)" stroke="rgb(121,121,121)" stroke-width="1" opacity="0.2196078431372549" d="M 151.5 42 Q 156.1 40.6 154 46.5 L 149 56.5 L 143.5 62 L 137.5 63 L 137.5 62 Q 145.4 60.9 148 54.5 L 151 49.5 L 152 43.5 L 151.5 42 Z " /><path fill="rgb(121,121,121)" stroke="rgb(121,121,121)" stroke-width="1" opacity="0.2196078431372549" d="M 80.5 54 L 88 57 L 91 65.5 L 91 69.5 L 90 69.5 Q 88.8 59.7 82.5 55 L 80 56.5 L 78.5 63 L 78 58.5 L 80.5 54 Z " /><path fill="rgb(121,121,121)" stroke="rgb(121,121,121)" stroke-width="1" opacity="0.2196078431372549" d="M 31.5 57 L 33 57.5 L 32 60.5 Q 37.1 80.9 51.5 92 L 56 94 L 54.5 98 L 43.5 103 L 45.5 100 L 54 95.5 L 50 93 Q 51.1 90.3 48.5 91 L 41.5 83 Q 39.3 83.8 40 81.5 L 33 70.5 L 30 58.5 L 31.5 57 Z " /><path fill="rgb(121,121,121)" stroke="rgb(121,121,121)" stroke-width="1" opacity="0.2196078431372549" d="M 35.5 57 L 39.5 58 L 51 67.5 Q 50.2 70.1 53.5 69 L 72.5 85 L 76 69 Q 78.7 67.9 78 70.5 L 76 73.5 L 74 87 L 68.5 84 L 40 60.5 L 39.5 59 Q 38 61.5 36.5 58 L 35.5 57 Z " /><path fill="rgb(121,121,121)" stroke="rgb(121,121,121)" stroke-width="1" opacity="0.2196078431372549" d="M 77 64 Q 79.7 62.9 79 65.5 L 77.5 68 L 77 64 Z " /><path fill="rgb(121,121,121)" stroke="rgb(121,121,121)" stroke-width="1" opacity="0.2196078431372549" d="M 90.5 75 L 91 77 L 89 76.5 L 90.5 75 Z " /><path fill="rgb(121,121,121)" stroke="rgb(121,121,121)" stroke-width="1" opacity="0.2196078431372549" d="M 91.5 82 L 94 82 L 94 90 L 91.5 91 L 91 89.5 L 93 84.5 L 91.5 82 Z " /><path fill="rgb(121,121,121)" stroke="rgb(121,121,121)" stroke-width="1" opacity="0.2196078431372549" d="M 136.5 91 Q 144.8 88.3 142 96.5 L 130.5 108 L 126.5 108 L 124 106.5 L 126.5 106 L 128.5 107 L 133 103.5 L 135.5 100 L 140 96.5 L 141 93.5 L 138.5 92 L 129.5 101 L 128.5 100 Q 122.3 99.3 119.5 95 L 116 95 L 116 97.5 L 120.5 102 L 124 104.5 L 122.5 105 L 116 100.5 L 114 95.5 Q 115 93 119.5 94 L 128.5 99 L 136.5 91 Z " /><path fill="rgb(121,121,121)" stroke="rgb(121,121,121)" stroke-width="1" opacity="0.2196078431372549" d="M 90.5 92 L 91 94.5 L 84.5 103 L 82 104.5 Q 82.8 107.1 79.5 106 L 75.5 108 L 43 108 L 43.5 106 L 44.5 107 L 73.5 107 Q 82.6 105.1 87 98.5 L 90.5 92 Z " /><path fill="rgb(121,121,121)" stroke="rgb(121,121,121)" stroke-width="1" opacity="0.2196078431372549" d="M 98 126 Q 106 124.3 108 129.5 L 111 140.5 L 110 140.5 L 107 131.5 L 102.5 127 Q 99.2 125.9 100 128.5 L 98.5 131 L 98 126 Z " /><path fill="rgb(121,121,121)" stroke="rgb(121,121,121)" stroke-width="1" opacity="0.2196078431372549" d="M 39 129 Q 41.7 127.9 41 130.5 L 40 133.5 Q 45.9 157.1 62.5 170 L 71 175 L 69.5 179 L 54 186 L 53.5 190 L 53 184 L 55.5 184 L 69 176.5 L 58 168.5 L 53.5 163 L 51 161.5 L 40 139.5 L 39 129 Z " /><path fill="rgb(121,121,121)" stroke="rgb(121,121,121)" stroke-width="1" opacity="0.2196078431372549" d="M 43.5 129 L 47.5 130 L 67 145.5 Q 65.3 148.8 63.5 145 L 43.5 130 L 43.5 129 Z " /><path fill="rgb(121,121,121)" stroke="rgb(121,121,121)" stroke-width="1" opacity="0.2196078431372549" d="M 97 132 Q 99.7 130.9 99 133.5 L 97.5 136 L 97 132 Z " /><path fill="rgb(121,121,121)" stroke="rgb(121,121,121)" stroke-width="1" opacity="0.2196078431372549" d="M 96.5 139 L 97 141.5 L 96 141.5 L 96.5 139 Z " /><path fill="rgb(121,121,121)" stroke="rgb(121,121,121)" stroke-width="1" opacity="0.2196078431372549" d="M 111.5 142 L 113 143.5 L 113 154.5 L 110.5 156 L 112 153.5 L 111.5 142 Z " /><path fill="rgb(121,121,121)" stroke="rgb(121,121,121)" stroke-width="1" opacity="0.2196078431372549" d="M 95.5 144 L 96 146.5 L 94 150.5 L 93 163.5 L 92 166 L 86.5 164 L 67 147.5 L 68.5 147 L 78.5 156 L 79.5 155 L 82.5 158 L 91 164 L 92 161.5 L 93 148.5 L 95.5 144 Z " /><path fill="rgb(121,121,121)" stroke="rgb(121,121,121)" stroke-width="1" opacity="0.2196078431372549" d="M 111.5 159 L 115 161.5 L 114 170.5 L 106.5 183 L 103 185.5 Q 103.8 188.1 100.5 187 L 95.5 189 L 96.5 187 Q 103.7 185.2 107 179.5 Q 112.4 172.9 114 162.5 L 111.5 159 Z " /><path fill="rgb(121,121,121)" stroke="rgb(121,121,121)" stroke-width="1" opacity="0.2196078431372549" d="M 91.5 189 L 94 189.5 L 91.5 190 L 91.5 189 Z " /><path fill="rgb(128,127,128)" stroke="rgb(128,127,128)" stroke-width="1" opacity="0.984313725490196" d="M 50.5 31 L 55 34.5 L 52.5 33 L 50.5 31 Z " /><path fill="rgb(128,127,128)" stroke="rgb(128,127,128)" stroke-width="1" opacity="0.984313725490196" d="M 109 31 L 138.5 52 Q 141 47.6 146 47 Q 145.6 54.1 139.5 57 L 137.5 58 L 125.5 58 L 126.5 56 L 129 54.5 L 127.5 51 Q 118.5 47 113 39.5 L 109 31 Z M 112 33 L 111 35 L 114 40 Q 120 48 130 51 L 130 56 L 129 56 L 129 57 Q 136 59 140 56 L 145 50 L 145 48 L 139 53 L 133 50 L 112 33 Z " /><path fill="rgb(128,127,128)" stroke="rgb(128,127,128)" stroke-width="1" opacity="0.984313725490196" d="M 104.5 32 L 106 35.5 L 105 35.5 L 104.5 32 Z " /><path fill="rgb(128,127,128)" stroke="rgb(128,127,128)" stroke-width="1" opacity="0.984313725490196" d="M 68.5 33 L 66.5 36 L 68.5 33 Z " /><path fill="rgb(128,127,128)" stroke="rgb(128,127,128)" stroke-width="1" opacity="0.984313725490196" d="M 125.5 37 L 126.5 39 L 125.5 37 Z " /><path fill="rgb(128,127,128)" stroke="rgb(128,127,128)" stroke-width="1" opacity="0.984313725490196" d="M 62.5 39 L 60.5 42 L 62.5 39 Z " /><path fill="rgb(128,127,128)" stroke="rgb(128,127,128)" stroke-width="1" opacity="0.984313725490196" d="M 141.5 41 L 142.5 43 Q 139.7 43.7 141.5 41 Z " /><path fill="rgb(128,127,128)" stroke="rgb(128,127,128)" stroke-width="1" opacity="0.984313725490196" d="M 83.5 65 Q 86.1 64.2 85 67.5 L 86 72.5 L 85 72.5 Q 85.8 68.8 83.5 68 L 80.5 81 L 80 76.5 L 82 66.5 L 83.5 65 Z " /><path fill="rgb(128,127,128)" stroke="rgb(128,127,128)" stroke-width="1" opacity="0.984313725490196" d="M 39.5 66 L 74 93.5 L 70.5 91 L 41.5 69 L 41 71.5 L 53.5 87 L 62 92.5 L 60.5 93 L 46 80.5 L 40 71.5 L 39.5 66 Z " /><path fill="rgb(128,127,128)" stroke="rgb(128,127,128)" stroke-width="1" opacity="0.984313725490196" d="M 86.5 74 L 87 76 L 89 76.5 L 87.5 77 L 86.5 74 Z " /><path fill="rgb(128,127,128)" stroke="rgb(128,127,128)" stroke-width="1" opacity="0.984313725490196" d="M 79.5 82 L 82.5 83 Q 84.3 80.2 90.5 82 L 91.5 84 Q 90 81.5 84.5 83 L 79 85 L 79.5 82 Z " /><path fill="rgb(128,127,128)" stroke="rgb(128,127,128)" stroke-width="1" opacity="0.984313725490196" d="M 82.5 88 Q 87.9 86.1 87 89.5 L 80.5 99 L 76.5 101 L 76.5 100 L 84 93.5 L 86 89.5 L 83.5 89 L 77.5 94 L 82.5 88 Z " /><path fill="rgb(128,127,128)" stroke="rgb(128,127,128)" stroke-width="1" opacity="0.984313725490196" d="M 63.5 93 L 66 96.5 L 65 99 L 61.5 100 L 61.5 99 L 65 96.5 L 63.5 93 Z " /><path fill="rgb(128,127,128)" stroke="rgb(128,127,128)" stroke-width="1" opacity="0.984313725490196" d="M 125.5 99 L 126.5 101 L 125.5 99 Z " /><path fill="rgb(128,127,128)" stroke="rgb(128,127,128)" stroke-width="1" opacity="0.984313725490196" d="M 59.5 100 L 60.5 102 L 57 101.5 L 59.5 100 Z " /><path fill="rgb(128,127,128)" stroke="rgb(128,127,128)" stroke-width="1" opacity="0.984313725490196" d="M 119.5 100 L 120.5 102 L 119.5 100 Z " /><path fill="rgb(128,127,128)" stroke="rgb(128,127,128)" stroke-width="1" opacity="0.984313725490196" d="M 71.5 101 L 75 101.5 L 71.5 102 L 71.5 101 Z " /><path fill="rgb(128,127,128)" stroke="rgb(128,127,128)" stroke-width="1" opacity="0.984313725490196" d="M 67.5 102 L 70 102.5 L 67.5 103 L 67.5 102 Z " /><path fill="rgb(128,127,128)" stroke="rgb(128,127,128)" stroke-width="1" opacity="0.984313725490196" d="M 124.5 104 L 125.5 106 L 124.5 104 Z " /><path fill="rgb(128,127,128)" stroke="rgb(128,127,128)" stroke-width="1" opacity="0.984313725490196" d="M 102 136 L 105 137.5 L 106 142.5 L 105 142.5 L 103.5 138 L 100.5 150 L 100 145.5 L 102 136 Z " /><path fill="rgb(128,127,128)" stroke="rgb(128,127,128)" stroke-width="1" opacity="0.984313725490196" d="M 47 139 L 51.5 141 L 73 158.5 L 70.5 157 L 48.5 140 L 48 141.5 Q 53.7 156.8 65.5 166 L 80 175.5 Q 80.8 179.3 78.5 180 L 70 184.5 L 88 185.5 L 68 186 L 69.5 183 L 79 179 Q 80 175.2 77.5 174 Q 63.6 167.9 55 156.5 L 48 144.5 L 47 139 Z " /><path fill="rgb(128,127,128)" stroke="rgb(128,127,128)" stroke-width="1" opacity="0.984313725490196" d="M 106.5 144 L 107 151.5 L 106 151.5 L 106.5 144 Z " /><path fill="rgb(128,127,128)" stroke="rgb(128,127,128)" stroke-width="1" opacity="0.984313725490196" d="M 94.5 150 L 95 152.5 L 94 152.5 L 94.5 150 Z " /><path fill="rgb(128,127,128)" stroke="rgb(128,127,128)" stroke-width="1" opacity="0.984313725490196" d="M 99.5 151 L 100 154.5 L 99 154.5 L 99.5 151 Z " /><path fill="rgb(128,127,128)" stroke="rgb(128,127,128)" stroke-width="1" opacity="0.984313725490196" d="M 107.5 153 L 108 155 L 110 155.5 L 108.5 156 L 107.5 153 Z " /><path fill="rgb(128,127,128)" stroke="rgb(128,127,128)" stroke-width="1" opacity="0.984313725490196" d="M 98.5 156 L 99 159.5 L 98 162.5 L 99.5 162 L 104.5 161 L 104.5 162 L 97 164 L 98.5 156 Z " /><path fill="rgb(128,127,128)" stroke="rgb(128,127,128)" stroke-width="1" opacity="0.984313725490196" d="M 74.5 159 L 93 173.5 L 91.5 174 L 78.5 164 L 74.5 159 Z " /><path fill="rgb(128,127,128)" stroke="rgb(128,127,128)" stroke-width="1" opacity="0.984313725490196" d="M 106.5 160 L 109 160.5 L 106.5 161 L 106.5 160 Z " /><path fill="rgb(128,127,128)" stroke="rgb(128,127,128)" stroke-width="1" opacity="0.984313725490196" d="M 103.5 166 Q 109.3 163.9 108 168.5 Q 105.5 176.5 99.5 181 L 102 177.5 Q 106.4 173.4 107 167 L 101.5 168 L 94.5 174 L 94.5 173 L 103.5 166 Z " /><path fill="rgb(128,127,128)" stroke="rgb(128,127,128)" stroke-width="1" opacity="0.984313725490196" d="M 97.5 181 L 96.5 183 L 89.5 185 L 89.5 184 L 97.5 181 Z " /><path fill="rgb(13,13,13)" stroke="rgb(13,13,13)" stroke-width="1" opacity="0.9333333333333333" d="M 142.5 20 L 146 21.5 L 151 35 L 147.5 36 L 144.5 30 L 141 43 L 150.5 42 Q 152.8 42.8 152 46.5 Q 149.2 55.2 142.5 60 L 138.5 62 L 112.5 62 L 111 59 L 122 53.5 L 110 42.5 Q 103.8 35.2 102 23.5 Q 104.8 18.3 107.5 24 L 136 45 Q 135.3 41.6 138 40.5 L 140 24.5 L 142.5 20 Z M 109 31 L 113 40 Q 118 47 128 51 L 129 55 L 127 56 L 126 58 L 138 58 L 140 57 Q 146 54 146 47 Q 141 48 139 52 L 109 31 Z " /><path fill="rgb(13,13,13)" stroke="rgb(13,13,13)" stroke-width="1" opacity="0.9333333333333333" d="M 68.5 28 Q 72.7 26.7 71 31.5 L 66 35.5 L 63.5 39 L 57.5 42 L 46 33.5 Q 44.7 29.3 49.5 31 L 58.5 37 L 68.5 28 Z " /><path fill="rgb(13,13,13)" stroke="rgb(13,13,13)" stroke-width="1" opacity="0.9333333333333333" d="M 81.5 55 L 86 58.5 L 91 70.5 L 91 74.5 L 87 76 L 85 65 L 82 66.5 L 79 85 Q 82.6 82.3 90.5 83 L 93 84 L 91 91.5 L 83.5 102 L 73.5 107 L 44 107 L 44 102 L 46.5 102 L 57 97 L 55.5 94 Q 47.3 90.7 43 83.5 L 34 68.5 L 32 59.5 Q 32.8 57.3 36.5 58 L 68.5 84 L 74 87 L 76 73.5 L 79 65.5 L 79 60.5 L 81.5 55 Z M 40 66 L 40 72 L 46 81 Q 52 89 63 93 L 65 97 L 57 102 L 67 102 L 68 103 Q 76 103 81 99 Q 86 95 87 88 L 83 88 L 77 94 L 75 94 L 40 66 Z " /><path fill="rgb(13,13,13)" stroke="rgb(13,13,13)" stroke-width="1" opacity="0.9333333333333333" d="M 138.5 92 L 141 93.5 L 136.5 100 L 133 102.5 L 130.5 106 L 127.5 107 L 116 97.5 Q 114.7 93.3 119.5 95 L 126.5 101 L 129.5 101 L 138.5 92 Z " /><path fill="rgb(13,13,13)" stroke="rgb(13,13,13)" stroke-width="1" opacity="0.9333333333333333" d="M 100 127 Q 104.7 126.3 106 130.5 L 111 141.5 L 112 153.5 L 108 155 Q 106 152 107 144.5 L 103.5 136 Q 100.5 135.1 102 139.5 L 97 164 L 105.5 161 L 112.5 161 Q 114.8 161.8 114 165.5 Q 110.3 177.8 101.5 185 L 92.5 189 L 54 189 Q 52.5 185.3 55.5 186 L 72 176.5 Q 60.9 170.1 53 160.5 Q 43.3 149.2 40 131.5 Q 41.7 127.3 43.5 130 L 91.5 167 L 100 127 Z M 47 139 L 48 145 L 55 157 Q 64 168 78 174 Q 80 175 79 179 L 70 183 L 68 186 L 88 186 L 93 185 L 100 181 Q 107 176 108 166 L 102 167 L 94 174 L 52 141 L 47 139 Z " /></svg>