<svg width="200" height="200" version="1.1" xmlns="http://www.w3.org/2000/svg" desc="Created with imagetracer.js version 1.2.6" ><path fill="rgb(220,220,220)" stroke="rgb(220,220,220)" stroke-width="1" opacity="0.19607843137254902" d="M 70 11 L 118.5 11 L 119 13 L 121.5 13 L 133 18 L 133 20 Q 135.7 18.9 135 21.5 L 140 25 L 140 27 Q 142.7 25.9 142 28.5 L 147 33.5 L 147 36 L 149 36 Q 147.9 38.7 150.5 38 L 152 41 L 163.5 41 Q 164.6 43.8 168 43 Q 169.1 45.7 166.5 45 L 161.5 42 Q 151.4 43.7 148 40 L 145 33 L 143 33 L 143 31 L 141 31 Q 142.1 28.3 139.5 29 L 138 26 L 136 26 L 136 24 Q 133.3 25.1 134 22.5 L 129 19 L 129 17 Q 123.8 18.7 125 15 L 120.5 15 L 116.5 12 L 72.5 12 L 62.5 17 Q 59 22.3 53 24 Q 54.1 26.7 51.5 26 L 42 37.5 L 37 47.5 L 37 52 Q 33.5 50.9 35 58.5 L 32 66.5 L 32 72.5 L 28 76.5 L 23 86.5 L 23 93 L 21 93.5 L 21 101.5 L 19 103.5 L 19 115.5 L 21 118.5 L 21 127.5 Q 24.2 128.8 23 134.5 L 28 142.5 L 28 146 Q 31 144.8 30 148.5 L 37 157.5 L 37 160 Q 39.7 158.9 39 161.5 L 44 165 Q 42.8 168 46.5 167 L 53.5 174 L 71.5 183 Q 76.5 182 77.5 185 L 103.5 186 L 120 183 Q 118.7 179.3 124.5 181 L 132.5 176 L 136 176 L 136 174 Q 138.7 175.1 138 172.5 L 142.5 170 L 157 155.5 L 157 153 Q 159.7 154.1 159 151.5 L 169 131.5 L 169 124.5 L 171 122.5 L 171 114 L 178 111 L 178 109 L 180 109 L 180 107 Q 182.7 108.1 182 105.5 L 185 100 Q 188.7 101.3 187 95.5 L 190 90.5 L 190 70.5 L 187 65.5 L 187 61 Q 184.3 62.1 185 59.5 L 182 58 L 182 56 L 180 56 L 180 54 L 178 54 L 178 52 Q 175.3 53.1 176 50.5 L 173 49 Q 174.1 46.3 171.5 47 L 170.5 45 L 175 46 L 175 48 L 177 48 L 177 50 Q 179.7 48.9 179 51.5 L 184 55 L 184 57 L 188 59 L 188 63.5 L 191 68.5 L 191 94 Q 188 92.8 189 96.5 L 188 101.5 L 185.5 104 L 184 104 L 184 108 Q 181.3 106.9 182 109.5 L 179 111 L 179 113 L 175 113 L 175 114.5 Q 170 116.7 172 125 L 170 125.5 L 170 133.5 Q 166.5 132.5 168 139.5 L 163 147.5 L 163 150 L 161 150 L 161 154 L 159.5 154 Q 157 155.2 158 159 L 156 159 Q 157.1 161.7 154.5 161 L 151 166 L 149 166 L 149 168 L 147 168 Q 148.1 170.7 145.5 170 L 142 171 L 142 173 L 140 173 L 138 177 L 135.5 177 L 131 178 L 131 180 Q 126.9 178.7 128 182 L 122.5 182 Q 123.5 185.2 117.5 184 L 114.5 186 L 106.5 186 L 105.5 187 L 86.5 187 L 85.5 186 L 76.5 186 L 61 180 Q 62.3 177 58.5 178 L 49 172.5 Q 49.8 170.3 47.5 171 Q 46.3 167.3 42 168 L 42 166 L 40 166 L 40 164 L 36 162 L 36 159.5 L 33 155 Q 30 156.3 31 152.5 L 26 144.5 L 26 141 Q 23 142.3 24 138.5 L 22 136.5 Q 23.3 130.8 20 129.5 L 20 120.5 L 18 117.5 L 18 101.5 L 20 98.5 L 20 91.5 L 22 89.5 L 22 84.5 Q 24.8 83.4 24 80 Q 27.3 81.3 26 76.5 L 27 73 L 31 73 L 31 64.5 Q 34.2 65.4 33 57.5 Q 35.2 56.2 34 51.5 L 36 49.5 L 36 45 L 38 45 Q 36.7 39.7 40 40.5 L 40 37.5 L 43 32 L 47 29.5 L 47 27 Q 49.7 28.1 49 25.5 Q 50.4 21 56 22 L 59 16 L 70 13 L 70 11 Z " /><path fill="rgb(220,220,220)" stroke="rgb(220,220,220)" stroke-width="1" opacity="0.19607843137254902" d="M 160 63 L 170.5 63 L 171 64.5 L 174.5 70 L 176 70.5 L 176 91 Q 169.7 92.5 168 88.5 L 164 77 Q 161 78.3 162 74.5 Q 158.3 72.3 159 65.5 L 160 63 Z M 161 64 L 161 67 L 161 69 Q 160 72 163 71 L 163 75 L 165 75 L 168 83 L 168 87 Q 171 86 170 89 L 175 90 L 175 73 L 172 70 L 172 67 Q 169 68 170 66 L 169 64 L 161 64 Z " /><path fill="rgb(132,84,69)" stroke="rgb(132,84,69)" stroke-width="1" opacity="1" d="M 84.5 29 L 104.5 29 Q 107.5 31.8 113 31 Q 114.3 34 110.5 33 Q 102.5 28 87.5 30 L 76.5 33 L 77.5 31 Q 83.3 32.3 84.5 29 Z " /><path fill="rgb(132,84,69)" stroke="rgb(132,84,69)" stroke-width="1" opacity="1" d="M 72 33 Q 75 32 74 35 Q 71 36 72 33 Z " /><path fill="rgb(132,84,69)" stroke="rgb(132,84,69)" stroke-width="1" opacity="1" d="M 115.5 33 L 129 40 Q 127.9 42.7 130.5 42 L 133.5 46 L 130.5 44 L 127 42 Q 128.1 39.3 125.5 40 L 116.5 35 L 115.5 33 Z " /><path fill="rgb(132,84,69)" stroke="rgb(132,84,69)" stroke-width="1" opacity="1" d="M 69.5 35 Q 72.1 34.3 71 37 L 67 37 Q 68.1 39.7 65.5 39 L 60 42 L 60 44 Q 57.3 42.9 58 45.5 L 55 47 L 55 49 Q 52.3 47.9 53 50.5 Q 49.3 51.7 50 56 L 48 56 Q 49.1 58.7 46.5 58 L 48 55.5 L 49 52 Q 51.7 53.1 51 50.5 L 53 47 L 55 47 Q 53.9 44.3 56.5 45 L 69.5 35 Z " /><path fill="rgb(132,84,69)" stroke="rgb(132,84,69)" stroke-width="1" opacity="1" d="M 134.5 47 Q 136.8 46.3 136 48.5 L 134.5 47 Z " /><path fill="rgb(132,84,69)" stroke="rgb(132,84,69)" stroke-width="1" opacity="1" d="M 137.5 49 L 138.5 51 Q 135.7 51.7 137.5 49 Z " /><path fill="rgb(132,84,69)" stroke="rgb(132,84,69)" stroke-width="1" opacity="1" d="M 139 52 Q 142 51 141 54 Q 138 55 139 52 Z " /><path fill="rgb(132,84,69)" stroke="rgb(132,84,69)" stroke-width="1" opacity="1" d="M 141.5 55 Q 146.6 60 148 68 L 146 68 L 146 63.5 L 144 63 L 144 60.5 L 141.5 55 Z " /><path fill="rgb(132,84,69)" stroke="rgb(132,84,69)" stroke-width="1" opacity="1" d="M 45.5 59 L 46 61.5 L 44 62.5 L 45.5 59 Z " /><path fill="rgb(132,84,69)" stroke="rgb(132,84,69)" stroke-width="1" opacity="1" d="M 42 64 Q 44.7 62.9 44 65.5 L 42 73.5 L 43 74.5 L 43 83.5 L 46 90.5 L 44 91 Q 45 85.8 42 83.5 L 41 70.5 L 42 64 Z " /><path fill="rgb(132,84,69)" stroke="rgb(132,84,69)" stroke-width="1" opacity="1" d="M 146 82 L 148 82.5 L 146 83.5 L 146 82 Z " /><path fill="rgb(132,84,69)" stroke="rgb(132,84,69)" stroke-width="1" opacity="1" d="M 145.5 87 L 146 88.5 L 144.5 91 L 144 88.5 L 145.5 87 Z " /><path fill="rgb(132,84,69)" stroke="rgb(132,84,69)" stroke-width="1" opacity="1" d="M 46.5 93 L 47.5 95 Q 44.7 95.7 46.5 93 Z " /><path fill="rgb(132,84,69)" stroke="rgb(132,84,69)" stroke-width="1" opacity="1" d="M 142.5 93 L 143 95.5 L 141 96.5 L 142.5 93 Z " /><path fill="rgb(132,84,69)" stroke="rgb(132,84,69)" stroke-width="1" opacity="1" d="M 48.5 96 L 53 102.5 L 51 103 L 48.5 96 Z " /><path fill="rgb(132,84,69)" stroke="rgb(132,84,69)" stroke-width="1" opacity="1" d="M 140.5 98 L 141 100 L 139 99.5 L 140.5 98 Z " /><path fill="rgb(132,84,69)" stroke="rgb(132,84,69)" stroke-width="1" opacity="1" d="M 138.5 101 L 139 103 Q 136.3 101.9 137 104.5 L 134 109 L 131.5 110 L 134 106.5 L 136 103.5 L 138.5 101 Z " /><path fill="rgb(132,84,69)" stroke="rgb(132,84,69)" stroke-width="1" opacity="1" d="M 56.5 107 L 58.5 110 L 56.5 107 Z " /><path fill="rgb(132,84,69)" stroke="rgb(132,84,69)" stroke-width="1" opacity="1" d="M 129.5 110 L 130 112 L 127.5 113 L 129.5 110 Z " /><path fill="rgb(132,84,69)" stroke="rgb(132,84,69)" stroke-width="1" opacity="1" d="M 62.5 112 L 72 118.5 L 70.5 118 L 62 114 L 62.5 112 Z " /><path fill="rgb(132,84,69)" stroke="rgb(132,84,69)" stroke-width="1" opacity="1" d="M 123.5 115 L 125 115.5 L 118 119 Q 116.8 116 120.5 117 L 123.5 115 Z " /><path fill="rgb(132,84,69)" stroke="rgb(132,84,69)" stroke-width="1" opacity="1" d="M 73.5 119 L 76 120.5 L 74.5 121 L 73.5 119 Z " /><path fill="rgb(132,84,69)" stroke="rgb(132,84,69)" stroke-width="1" opacity="1" d="M 115.5 119 L 116 121 L 114 120.5 L 115.5 119 Z " /><path fill="rgb(132,84,69)" stroke="rgb(132,84,69)" stroke-width="1" opacity="1" d="M 79.5 121 L 86 122.5 L 80.5 123 L 79.5 121 Z " /><path fill="rgb(132,84,69)" stroke="rgb(132,84,69)" stroke-width="1" opacity="1" d="M 109.5 121 L 111 121.5 Q 109.5 124.5 103.5 123 L 103.5 122 Q 108.3 123.3 109.5 121 Z " /><path fill="rgb(132,84,69)" stroke="rgb(132,84,69)" stroke-width="1" opacity="1" d="M 88.5 123 L 94 123.5 L 88.5 124 L 88.5 123 Z " /><path fill="rgb(132,84,69)" stroke="rgb(132,84,69)" stroke-width="1" opacity="1" d="M 96.5 123 L 101 123.5 L 96.5 124 L 96.5 123 Z " /><path fill="rgb(125,69,51)" stroke="rgb(125,69,51)" stroke-width="1" opacity="1" d="M 87.5 30 L 102.5 30 L 110.5 33 L 114.5 33 L 119.5 37 L 127 40 Q 125.9 42.7 128.5 42 L 132 44 L 132 46 Q 134.7 44.9 134 47.5 L 137 49 L 137 51 L 139 51 L 139 54 Q 141.7 52.9 141 55.5 L 144 63 L 146 63 Q 144.5 69.3 148 68.5 L 148 82 Q 144.3 80.7 146 86.5 Q 142.8 88 144 93 Q 141 91.8 142 95.5 L 136 105 Q 133.3 103.9 134 106.5 L 127 112.5 Q 127.8 114.8 125.5 114 L 118 117 Q 119.3 120 115.5 119 L 113.5 121 L 94.5 124 L 93.5 123 L 86.5 123 L 76.5 121 L 55 107 Q 56 104 53 105 L 53 102.5 L 46 92.5 Q 46 86.5 43 83.5 Q 44.5 76 42 72.5 L 46 58 L 50 56 L 50 53.5 L 53 49 L 55 49 Q 53.9 46.3 56.5 47 L 58 44 L 60 44 Q 58.9 41.3 61.5 42 L 67 39 L 67 37 L 71 37 L 71 35 Q 75.1 36.3 74 33 L 79.5 33 L 87.5 30 Z " /><path fill="rgb(0,0,0)" stroke="rgb(0,0,0)" stroke-width="1" opacity="0" d="M 0 0 L 200 0 L 200 200 L 0 200 L 0 0 Z M 70 11 L 70 13 L 59 16 L 56 22 Q 50 21 49 26 Q 50 28 47 27 L 47 30 L 43 32 L 40 38 L 40 41 Q 37 40 38 45 L 36 45 L 36 50 L 34 52 Q 35 56 33 58 Q 34 65 31 65 L 31 73 L 27 73 L 26 77 Q 27 81 24 80 Q 25 83 22 85 L 22 90 L 20 92 L 20 99 L 18 102 L 18 118 L 20 121 L 20 130 Q 23 131 22 137 L 24 139 Q 23 142 26 141 L 26 145 L 31 153 Q 30 156 33 155 L 36 160 L 36 162 L 40 164 L 40 166 L 42 166 L 42 168 Q 46 167 48 171 Q 50 170 49 173 L 59 178 Q 62 177 61 180 L 77 186 L 86 186 L 87 187 L 106 187 L 107 186 L 115 186 L 118 184 Q 123 185 123 182 L 128 182 Q 127 179 131 180 L 131 178 L 136 177 L 138 177 L 140 173 L 142 173 L 142 171 L 146 170 Q 148 171 147 168 L 149 168 L 149 166 L 151 166 L 155 161 Q 157 162 156 159 L 158 159 Q 157 155 160 154 L 161 154 L 161 150 L 163 150 L 163 148 L 168 140 Q 167 133 170 134 L 170 126 L 172 125 Q 170 117 175 115 L 175 113 L 179 113 L 179 111 L 182 110 Q 181 107 184 108 L 184 104 L 186 104 L 188 102 L 189 97 Q 188 93 191 94 L 191 69 L 188 64 L 188 59 L 184 57 L 184 55 L 179 52 Q 180 49 177 50 L 177 48 L 175 48 L 175 46 L 173 45 Q 167 47 168 43 Q 165 44 164 41 L 152 41 L 151 38 Q 148 39 149 36 L 147 36 L 147 34 L 142 29 Q 143 26 140 27 L 140 25 L 135 22 Q 136 19 133 20 L 133 18 L 122 13 L 119 13 L 119 11 L 70 11 Z " /><path fill="rgb(0,0,0)" stroke="rgb(0,0,0)" stroke-width="1" opacity="0" d="M 161 64 L 168.5 64 L 170 65.5 Q 169.3 68.1 172 67 L 172 69.5 L 175 72.5 L 175 90 L 170 89 Q 171 86 168 87 L 168 82.5 L 165 75 L 163 75 L 163 71 Q 160 72.3 161 68.5 L 161 66.5 L 161 64 Z " /><path fill="rgb(198,196,195)" stroke="rgb(198,196,195)" stroke-width="1" opacity="1" d="M 92.5 15 L 102 16.5 L 88.5 17 L 88.5 16 L 92.5 15 Z " /><path fill="rgb(198,196,195)" stroke="rgb(198,196,195)" stroke-width="1" opacity="1" d="M 80.5 17 L 82 17.5 L 79.5 19 L 80.5 17 Z " /><path fill="rgb(198,196,195)" stroke="rgb(198,196,195)" stroke-width="1" opacity="1" d="M 108 17 L 111 18.5 L 108 19 L 108 17 Z " /><path fill="rgb(198,196,195)" stroke="rgb(198,196,195)" stroke-width="1" opacity="1" d="M 74.5 19 L 76 19.5 L 71.5 22 L 72.5 20 L 74.5 19 Z " /><path fill="rgb(198,196,195)" stroke="rgb(198,196,195)" stroke-width="1" opacity="1" d="M 114.5 19 L 117 20.5 L 115.5 21 L 114.5 19 Z " /><path fill="rgb(198,196,195)" stroke="rgb(198,196,195)" stroke-width="1" opacity="1" d="M 68.5 22 L 70 22.5 L 67.5 24 L 68.5 22 Z " /><path fill="rgb(198,196,195)" stroke="rgb(198,196,195)" stroke-width="1" opacity="1" d="M 120.5 22 L 123 23.5 L 121.5 23 L 120.5 22 Z " /><path fill="rgb(198,196,195)" stroke="rgb(198,196,195)" stroke-width="1" opacity="1" d="M 65.5 24 L 64.5 26 L 65.5 24 Z " /><path fill="rgb(198,196,195)" stroke="rgb(198,196,195)" stroke-width="1" opacity="1" d="M 124.5 24 L 125.5 26 L 124.5 24 Z " /><path fill="rgb(198,196,195)" stroke="rgb(198,196,195)" stroke-width="1" opacity="1" d="M 62.5 26 L 61.5 28 L 62.5 26 Z " /><path fill="rgb(198,196,195)" stroke="rgb(198,196,195)" stroke-width="1" opacity="1" d="M 127.5 27 L 134 31.5 L 132.5 32 L 127.5 27 Z " /><path fill="rgb(198,196,195)" stroke="rgb(198,196,195)" stroke-width="1" opacity="1" d="M 134.5 33 Q 136.8 32.3 136 34.5 L 138 37.5 L 137 37.5 L 134.5 33 Z " /><path fill="rgb(198,196,195)" stroke="rgb(198,196,195)" stroke-width="1" opacity="1" d="M 52.5 36 L 53 38 Q 50.3 36.9 51 39.5 L 48.5 43 L 49 41.5 L 52.5 36 Z " /><path fill="rgb(198,196,195)" stroke="rgb(198,196,195)" stroke-width="1" opacity="1" d="M 141.5 43 Q 143.8 42.3 143 44.5 L 141.5 43 Z " /><path fill="rgb(198,196,195)" stroke="rgb(198,196,195)" stroke-width="1" opacity="1" d="M 47.5 44 L 47 45.5 L 44.5 50 L 45 48.5 L 47.5 44 Z " /><path fill="rgb(198,196,195)" stroke="rgb(198,196,195)" stroke-width="1" opacity="1" d="M 143.5 46 L 145 48.5 L 144 48.5 L 143.5 46 Z " /><path fill="rgb(198,196,195)" stroke="rgb(198,196,195)" stroke-width="1" opacity="1" d="M 43.5 53 L 44 54.5 L 42.5 57 L 42 54.5 L 43.5 53 Z " /><path fill="rgb(198,196,195)" stroke="rgb(198,196,195)" stroke-width="1" opacity="1" d="M 146.5 53 L 148 55.5 L 146 56 L 146.5 53 Z " /><path fill="rgb(198,196,195)" stroke="rgb(198,196,195)" stroke-width="1" opacity="1" d="M 148.5 60 L 150 63 Q 146.5 64.1 148.5 60 Z " /><path fill="rgb(198,196,195)" stroke="rgb(198,196,195)" stroke-width="1" opacity="1" d="M 40.5 61 L 41 71.5 L 40 71.5 L 40.5 61 Z " /><path fill="rgb(198,196,195)" stroke="rgb(198,196,195)" stroke-width="1" opacity="1" d="M 40.5 73 L 41 79.5 L 40 79.5 L 40.5 73 Z " /><path fill="rgb(198,196,195)" stroke="rgb(198,196,195)" stroke-width="1" opacity="1" d="M 149.5 75 L 150 78.5 L 148.5 81 L 148 79.5 L 149.5 75 Z " /><path fill="rgb(198,196,195)" stroke="rgb(198,196,195)" stroke-width="1" opacity="1" d="M 42.5 86 L 43.5 88 Q 40.7 88.7 42.5 86 Z " /><path fill="rgb(198,196,195)" stroke="rgb(198,196,195)" stroke-width="1" opacity="1" d="M 146.5 87 L 147 89.5 L 146 89.5 L 146.5 87 Z " /><path fill="rgb(198,196,195)" stroke="rgb(198,196,195)" stroke-width="1" opacity="1" d="M 140.5 101 L 138.5 104 L 140.5 101 Z " /><path fill="rgb(198,196,195)" stroke="rgb(198,196,195)" stroke-width="1" opacity="1" d="M 55.5 108 L 57.5 111 L 55.5 108 Z " /><path fill="rgb(198,196,195)" stroke="rgb(198,196,195)" stroke-width="1" opacity="1" d="M 59.5 111 L 61.5 114 L 59.5 111 Z " /><path fill="rgb(198,196,195)" stroke="rgb(198,196,195)" stroke-width="1" opacity="1" d="M 65.5 116 L 66.5 118 L 65.5 116 Z " /><path fill="rgb(198,196,195)" stroke="rgb(198,196,195)" stroke-width="1" opacity="1" d="M 120.5 118 L 119.5 120 L 117.5 121 L 118.5 119 L 120.5 118 Z " /><path fill="rgb(198,196,195)" stroke="rgb(198,196,195)" stroke-width="1" opacity="1" d="M 75.5 121 L 78 122.5 L 76.5 122 L 75.5 121 Z " /><path fill="rgb(198,196,195)" stroke="rgb(198,196,195)" stroke-width="1" opacity="1" d="M 113.5 121 L 115 121.5 L 112.5 123 L 113.5 121 Z " /><path fill="rgb(198,196,195)" stroke="rgb(198,196,195)" stroke-width="1" opacity="1" d="M 106.5 123 L 108 123.5 L 104.5 125 L 104.5 124 L 106.5 123 Z " /><path fill="rgb(198,196,195)" stroke="rgb(198,196,195)" stroke-width="1" opacity="1" d="M 83.5 124 L 86 124.5 L 83.5 125 L 83.5 124 Z " /><path fill="rgb(198,196,195)" stroke="rgb(198,196,195)" stroke-width="1" opacity="1" d="M 41.5 135 L 42 137 Q 45 135.8 44 139.5 Q 49.3 143 51 149 L 56 151 Q 54.9 153.7 57.5 153 L 58.5 156 Q 63.3 155.3 64 158.5 L 63.5 160 Q 66.1 160.7 65 158 L 67 158 Q 68.1 160.7 65.5 160 L 65.5 161 L 69 162 L 69.5 160 L 70.5 162 L 69 162.5 L 77 166.5 L 74.5 167 L 67 164 Q 68.3 161 64.5 162 L 58 158 Q 59.1 155.3 56.5 156 L 44 142.5 L 41.5 135 Z " /><path fill="rgb(198,196,195)" stroke="rgb(198,196,195)" stroke-width="1" opacity="1" d="M 145.5 140 L 146 141.5 L 145 144 Q 142.3 142.9 143 145.5 L 138 153 L 127 160 L 126 157.5 L 129.5 155 L 131.5 156 L 132.5 153 L 134 153.5 Q 132.8 149.8 136.5 151 L 137.5 148 L 139 148.5 L 139 146 L 141 146 L 141 144 L 143 144 L 143 142 Q 145.8 143 145.5 140 Z M 130 156 L 127 158 L 130 158 L 130 156 Z " /><path fill="rgb(198,196,195)" stroke="rgb(198,196,195)" stroke-width="1" opacity="1" d="M 124.5 158 L 123.5 160 L 124.5 158 Z " /><path fill="rgb(198,196,195)" stroke="rgb(198,196,195)" stroke-width="1" opacity="1" d="M 120.5 160 Q 122.8 159.3 122 161.5 L 123.5 161 L 125.5 160 L 126 162 L 120 164 Q 121.3 167.7 115.5 166 L 113.5 167 L 114.5 165 Q 120 165.5 122 162.5 L 119 161.5 L 120.5 160 Z " /><path fill="rgb(198,196,195)" stroke="rgb(198,196,195)" stroke-width="1" opacity="1" d="M 72.5 162 L 81 164.5 L 78.5 165 L 72.5 163 L 72.5 162 Z " /><path fill="rgb(198,196,195)" stroke="rgb(198,196,195)" stroke-width="1" opacity="1" d="M 116.5 162 L 118 162.5 L 116.5 164 L 109.5 165 L 109.5 164 L 116.5 162 Z " /><path fill="rgb(198,196,195)" stroke="rgb(198,196,195)" stroke-width="1" opacity="1" d="M 82.5 165 Q 90.2 163.8 94 166.5 L 87.5 167 L 82.5 166 L 82.5 165 Z " /><path fill="rgb(198,196,195)" stroke="rgb(198,196,195)" stroke-width="1" opacity="1" d="M 102.5 165 L 108 165.5 Q 104.3 167.8 97.5 167 L 97.5 166 L 102.5 165 Z " /><path fill="rgb(198,196,195)" stroke="rgb(198,196,195)" stroke-width="1" opacity="1" d="M 79 167 L 83 168.5 L 79 169 L 79 167 Z " /><path fill="rgb(198,196,195)" stroke="rgb(198,196,195)" stroke-width="1" opacity="1" d="M 108.5 167 Q 112.3 166 111 169 L 107 168.5 L 108.5 167 Z " /><path fill="rgb(198,196,195)" stroke="rgb(198,196,195)" stroke-width="1" opacity="1" d="M 86.5 169 L 104 169.5 Q 99.2 172.7 89.5 171 L 86.5 170 L 86.5 169 Z " /><path fill="rgb(210,210,210)" stroke="rgb(210,210,210)" stroke-width="1" opacity="0.9568627450980393" d="M 158.5 70 L 160 74 Q 156.2 75.2 158.5 70 Z " /><path fill="rgb(210,210,210)" stroke="rgb(210,210,210)" stroke-width="1" opacity="0.9568627450980393" d="M 32.5 71 L 33 73.5 L 32 73.5 L 32.5 71 Z " /><path fill="rgb(210,210,210)" stroke="rgb(210,210,210)" stroke-width="1" opacity="0.9568627450980393" d="M 160.5 75 L 162 77.5 L 160 76.5 L 160.5 75 Z " /><path fill="rgb(210,210,210)" stroke="rgb(210,210,210)" stroke-width="1" opacity="0.9568627450980393" d="M 29.5 77 L 30 78.5 L 27 86 Q 24.3 87.1 25 84.5 L 29.5 77 Z " /><path fill="rgb(210,210,210)" stroke="rgb(210,210,210)" stroke-width="1" opacity="0.9568627450980393" d="M 162.5 79 L 163.5 81 Q 160.7 81.7 162.5 79 Z " /><path fill="rgb(210,210,210)" stroke="rgb(210,210,210)" stroke-width="1" opacity="0.9568627450980393" d="M 164.5 83 L 167 89.5 L 165 88.5 L 164.5 83 Z " /><path fill="rgb(210,210,210)" stroke="rgb(210,210,210)" stroke-width="1" opacity="0.9568627450980393" d="M 24.5 88 L 25 93 Q 22.3 94.1 23 91.5 L 24.5 88 Z " /><path fill="rgb(210,210,210)" stroke="rgb(210,210,210)" stroke-width="1" opacity="0.9568627450980393" d="M 22.5 96 L 23 101.5 L 21.5 104 L 21 102.5 L 22.5 96 Z " /><path fill="rgb(210,210,210)" stroke="rgb(210,210,210)" stroke-width="1" opacity="0.9568627450980393" d="M 21.5 115 Q 24.3 117.7 23 124.5 L 22 124.5 L 21.5 115 Z " /><path fill="rgb(210,210,210)" stroke="rgb(210,210,210)" stroke-width="1" opacity="0.9568627450980393" d="M 168.5 122 L 169 124.5 L 167.5 130 L 167 123.5 L 168.5 122 Z " /><path fill="rgb(210,210,210)" stroke="rgb(210,210,210)" stroke-width="1" opacity="0.9568627450980393" d="M 23 128 Q 26.7 126.7 25 132.5 L 24 132.5 L 23 128 Z " /><path fill="rgb(210,210,210)" stroke="rgb(210,210,210)" stroke-width="1" opacity="0.9568627450980393" d="M 166.5 131 L 167 132.5 L 164.5 138 L 165 136.5 Q 164 132 166.5 131 Z " /><path fill="rgb(210,210,210)" stroke="rgb(210,210,210)" stroke-width="1" opacity="0.9568627450980393" d="M 25 135 Q 28 133.8 27 137.5 L 30 143.5 L 29 143.5 L 25 135 Z " /><path fill="rgb(210,210,210)" stroke="rgb(210,210,210)" stroke-width="1" opacity="0.9568627450980393" d="M 162 140 L 164 140.5 L 162 141.5 L 162 140 Z " /><path fill="rgb(210,210,210)" stroke="rgb(210,210,210)" stroke-width="1" opacity="0.9568627450980393" d="M 160 144 L 162 144.5 L 160 145.5 L 160 144 Z " /><path fill="rgb(210,210,210)" stroke="rgb(210,210,210)" stroke-width="1" opacity="0.9568627450980393" d="M 30.5 145 L 32 147.5 L 30 146.5 L 30.5 145 Z " /><path fill="rgb(210,210,210)" stroke="rgb(210,210,210)" stroke-width="1" opacity="0.9568627450980393" d="M 158 147 Q 160.7 145.9 160 148.5 L 158.5 151 L 158 147 Z " /><path fill="rgb(210,210,210)" stroke="rgb(210,210,210)" stroke-width="1" opacity="0.9568627450980393" d="M 32 149 Q 35 147.8 34 151.5 L 36.5 155 Q 34.3 155.8 35 153.5 L 32 149 Z " /><path fill="rgb(210,210,210)" stroke="rgb(210,210,210)" stroke-width="1" opacity="0.9568627450980393" d="M 156.5 151 L 157 152.5 L 155 153.5 L 156.5 151 Z " /><path fill="rgb(210,210,210)" stroke="rgb(210,210,210)" stroke-width="1" opacity="0.9568627450980393" d="M 37.5 156 Q 39.8 155.3 39 157.5 L 37.5 156 Z " /><path fill="rgb(210,210,210)" stroke="rgb(210,210,210)" stroke-width="1" opacity="0.9568627450980393" d="M 40.5 160 L 44.5 165 L 40.5 160 Z " /><path fill="rgb(210,210,210)" stroke="rgb(210,210,210)" stroke-width="1" opacity="0.9568627450980393" d="M 149.5 160 L 150 162 L 148 161.5 L 149.5 160 Z " /><path fill="rgb(210,210,210)" stroke="rgb(210,210,210)" stroke-width="1" opacity="0.9568627450980393" d="M 146 163 L 148 163.5 L 146 164.5 L 146 163 Z " /><path fill="rgb(210,210,210)" stroke="rgb(210,210,210)" stroke-width="1" opacity="0.9568627450980393" d="M 46 165 Q 49 164 48 167 Q 45 168 46 165 Z " /><path fill="rgb(210,210,210)" stroke="rgb(210,210,210)" stroke-width="1" opacity="0.9568627450980393" d="M 49.5 167 L 52.5 171 Q 49.9 171.7 51 169 L 49 169 L 49.5 167 Z " /><path fill="rgb(210,210,210)" stroke="rgb(210,210,210)" stroke-width="1" opacity="0.9568627450980393" d="M 142.5 167 L 143 169 L 137.5 172 L 137 170 Q 140 171 139 168 L 141.5 168 L 142.5 167 Z " /><path fill="rgb(210,210,210)" stroke="rgb(210,210,210)" stroke-width="1" opacity="0.9568627450980393" d="M 55 172 Q 58 171 57 174 Q 54 175 55 172 Z " /><path fill="rgb(210,210,210)" stroke="rgb(210,210,210)" stroke-width="1" opacity="0.9568627450980393" d="M 58.5 174 L 67 177 L 66.5 179 L 58.5 175 L 58.5 174 Z " /><path fill="rgb(210,210,210)" stroke="rgb(210,210,210)" stroke-width="1" opacity="0.9568627450980393" d="M 132.5 174 L 134 174.5 L 125 179 Q 123.8 176 127.5 177 L 132.5 174 Z " /><path fill="rgb(210,210,210)" stroke="rgb(210,210,210)" stroke-width="1" opacity="0.9568627450980393" d="M 68.5 179 Q 72.3 178 71 181 L 68.5 179 Z " /><path fill="rgb(210,210,210)" stroke="rgb(210,210,210)" stroke-width="1" opacity="0.9568627450980393" d="M 120.5 179 L 123 179.5 L 119.5 181 L 120.5 179 Z " /><path fill="rgb(210,210,210)" stroke="rgb(210,210,210)" stroke-width="1" opacity="0.9568627450980393" d="M 73.5 181 L 77 182.5 L 75.5 183 L 73.5 181 Z " /><path fill="rgb(210,210,210)" stroke="rgb(210,210,210)" stroke-width="1" opacity="0.9568627450980393" d="M 114.5 181 L 118 181.5 Q 114.2 184.2 106.5 183 L 103.5 185 L 89.5 185 Q 85.6 181.9 78 182.5 L 85.5 182 L 89.5 184 L 103.5 184 L 105.5 182 L 113.5 182 L 114.5 181 Z " /><path fill="rgb(226,226,225)" stroke="rgb(226,226,225)" stroke-width="1" opacity="0.996078431372549" d="M 122.5 22 L 123.5 24 L 122.5 22 Z " /><path fill="rgb(226,226,225)" stroke="rgb(226,226,225)" stroke-width="1" opacity="0.996078431372549" d="M 128.5 26 L 129.5 28 L 128.5 26 Z " /><path fill="rgb(226,226,225)" stroke="rgb(226,226,225)" stroke-width="1" opacity="0.996078431372549" d="M 41.5 57 L 40.5 59 L 41.5 57 Z " /><path fill="rgb(226,226,225)" stroke="rgb(226,226,225)" stroke-width="1" opacity="0.996078431372549" d="M 33.5 77 L 34 106.5 L 36 109.5 Q 34.9 117.7 37 121 L 35 120.5 L 35 110.5 L 33 107.5 L 33.5 77 Z " /><path fill="rgb(226,226,225)" stroke="rgb(226,226,225)" stroke-width="1" opacity="0.996078431372549" d="M 156.5 82 L 157 105 L 160 105.5 L 155 107 L 155 88.5 L 156.5 82 Z " /><path fill="rgb(226,226,225)" stroke="rgb(226,226,225)" stroke-width="1" opacity="0.996078431372549" d="M 42.5 88 L 43.5 90 L 42.5 88 Z " /><path fill="rgb(226,226,225)" stroke="rgb(226,226,225)" stroke-width="1" opacity="0.996078431372549" d="M 167.5 100 L 165.5 103 L 167.5 100 Z " /><path fill="rgb(226,226,225)" stroke="rgb(226,226,225)" stroke-width="1" opacity="0.996078431372549" d="M 49.5 102 L 50.5 104 L 49.5 102 Z " /><path fill="rgb(226,226,225)" stroke="rgb(226,226,225)" stroke-width="1" opacity="0.996078431372549" d="M 59.5 112 L 60.5 114 L 59.5 112 Z " /><path fill="rgb(226,226,225)" stroke="rgb(226,226,225)" stroke-width="1" opacity="0.996078431372549" d="M 167.5 116 L 166.5 118 L 167.5 116 Z " /><path fill="rgb(226,226,225)" stroke="rgb(226,226,225)" stroke-width="1" opacity="0.996078431372549" d="M 161.5 118 L 164 118.5 L 161.5 119 L 161.5 118 Z " /><path fill="rgb(226,226,225)" stroke="rgb(226,226,225)" stroke-width="1" opacity="0.996078431372549" d="M 153 119 L 160 119.5 L 153.5 121 L 153 119 Z " /><path fill="rgb(226,226,225)" stroke="rgb(226,226,225)" stroke-width="1" opacity="0.996078431372549" d="M 37.5 124 L 39 126.5 L 37 125.5 L 37.5 124 Z " /><path fill="rgb(226,226,225)" stroke="rgb(226,226,225)" stroke-width="1" opacity="0.996078431372549" d="M 152.5 124 L 152 125.5 L 150 133 L 148 132.5 L 152.5 124 Z " /><path fill="rgb(226,226,225)" stroke="rgb(226,226,225)" stroke-width="1" opacity="0.996078431372549" d="M 42.5 133 L 45 138.5 L 44 138.5 Q 41 136.7 42.5 133 Z " /><path fill="rgb(226,226,225)" stroke="rgb(226,226,225)" stroke-width="1" opacity="0.996078431372549" d="M 146 135 Q 149 134 148 137 Q 145 138 146 135 Z " /><path fill="rgb(226,226,225)" stroke="rgb(226,226,225)" stroke-width="1" opacity="0.996078431372549" d="M 144 138 L 146 138.5 L 143 144 L 136.5 149 L 143 141.5 L 144 138 Z " /><path fill="rgb(226,226,225)" stroke="rgb(226,226,225)" stroke-width="1" opacity="0.996078431372549" d="M 46.5 140 L 47.5 142 Q 44.7 142.7 46.5 140 Z " /><path fill="rgb(226,226,225)" stroke="rgb(226,226,225)" stroke-width="1" opacity="0.996078431372549" d="M 49.5 144 L 52.5 148 Q 50.3 148.8 51 146.5 L 49.5 144 Z " /><path fill="rgb(226,226,225)" stroke="rgb(226,226,225)" stroke-width="1" opacity="0.996078431372549" d="M 134.5 149 L 135 150.5 L 130.5 154 L 132.5 151 Q 135 151.7 134.5 149 Z " /><path fill="rgb(226,226,225)" stroke="rgb(226,226,225)" stroke-width="1" opacity="0.996078431372549" d="M 59.5 153 L 62 154 L 61.5 156 L 59.5 153 Z " /><path fill="rgb(226,226,225)" stroke="rgb(226,226,225)" stroke-width="1" opacity="0.996078431372549" d="M 128.5 154 L 127.5 156 L 128.5 154 Z " /><path fill="rgb(226,226,225)" stroke="rgb(226,226,225)" stroke-width="1" opacity="0.996078431372549" d="M 63.5 156 Q 65.8 155.3 65 157.5 L 63.5 156 Z " /><path fill="rgb(226,226,225)" stroke="rgb(226,226,225)" stroke-width="1" opacity="0.996078431372549" d="M 67 158 Q 70 157 69 160 Q 66 161 67 158 Z " /><path fill="rgb(226,226,225)" stroke="rgb(226,226,225)" stroke-width="1" opacity="0.996078431372549" d="M 122.5 158 L 123 160 L 118.5 161 L 118.5 160 L 122.5 158 Z " /><path fill="rgb(226,226,225)" stroke="rgb(226,226,225)" stroke-width="1" opacity="0.996078431372549" d="M 74.5 161 L 77 162.5 L 75.5 162 L 74.5 161 Z " /><path fill="rgb(226,226,225)" stroke="rgb(226,226,225)" stroke-width="1" opacity="0.996078431372549" d="M 114 161 L 117 161.5 L 114.5 163 L 114 161 Z " /><path fill="rgb(226,226,225)" stroke="rgb(226,226,225)" stroke-width="1" opacity="0.996078431372549" d="M 81 163 Q 84 162 83 165 Q 80 166 81 163 Z " /><path fill="rgb(226,226,225)" stroke="rgb(226,226,225)" stroke-width="1" opacity="0.996078431372549" d="M 107 163 L 109 163.5 L 107 164.5 L 107 163 Z " /><path fill="rgb(243,243,243)" stroke="rgb(243,243,243)" stroke-width="1" opacity="0.9647058823529412" d="M 72.5 12 L 116.5 12 Q 118.8 16.1 125 15 L 125 17 L 129 17 Q 127.9 19.7 130.5 19 L 134 24 L 136 24 L 136 26 Q 138.7 24.9 138 27.5 L 141 29 L 141 31 L 143 31 L 143 33 Q 145.7 31.9 145 34.5 L 148 40 Q 151.4 43.7 161.5 42 L 173 47 Q 171.9 49.7 174.5 49 L 176 52 L 178 52 L 178 54 L 180 54 L 180 56 L 182 56 Q 180.9 58.7 183.5 58 L 185 61 Q 188.7 59.6 187 65.5 L 190 70.5 L 190 90.5 L 187 95.5 L 187 100 Q 184.3 98.9 185 101.5 L 182 107 L 180 107 L 180 109 L 178 109 Q 179.1 111.7 176.5 111 L 165.5 117 L 155 119 L 157 113.5 L 157 107 L 166 104 L 166 102 Q 169.8 103.5 169 100.5 L 171 97.5 Q 168.2 95.8 169 90.5 L 170.5 91 Q 175.9 91.6 176 90.5 L 176 70 L 173 68.5 L 171 63 L 160.5 63 L 160 64.5 L 159 68 L 155.5 67 L 156 68.5 L 155 85.5 L 153 87.5 L 152 94.5 L 145 107 Q 142.3 105.9 143 108.5 L 141 112 L 139 112 Q 140.1 114.7 137.5 114 L 123.5 125 L 117.5 128 L 114.5 128 L 112.5 130 Q 106.8 128.8 105.5 132 L 84.5 132 L 82.5 130 L 77.5 130 L 75.5 128 L 72.5 128 L 64.5 123 L 62 123 Q 63.1 120.3 60.5 121 L 53 116 L 53 114 L 51 114 L 51 112 Q 48.3 113.1 49 110.5 L 44 105.5 L 44 103 Q 41 104.3 42 100.5 L 37 92.5 L 37 88.5 L 35 85.5 Q 36.3 80.8 34 79.5 L 34 69.5 L 32 66.5 L 34 63.5 L 35 52 Q 38.7 53.4 37 47.5 L 42 37.5 L 51.5 26 L 54.5 24 L 62.5 17 L 72.5 12 Z M 83 15 L 83 17 L 75 18 L 64 24 L 59 29 L 56 29 L 51 37 Q 52 39 49 38 L 42 52 Q 44 58 40 57 L 40 69 L 39 70 L 40 71 L 40 83 L 42 85 L 42 90 L 45 96 Q 44 98 47 97 L 47 100 L 49 100 L 49 104 L 51 104 L 53 107 Q 55 106 54 109 L 56 109 L 56 111 L 58 111 L 58 113 L 63 116 Q 66 115 65 118 L 73 122 L 80 123 L 82 125 L 109 125 L 111 123 L 118 122 L 120 120 Q 123 121 122 118 L 125 118 L 133 111 Q 135 112 134 109 L 136 109 L 136 107 L 138 107 L 140 104 Q 139 101 142 102 L 143 100 Q 142 96 145 97 L 145 93 L 147 93 L 147 89 L 150 81 L 150 60 L 149 56 L 143 42 L 138 36 Q 139 33 136 34 L 135 31 Q 132 32 133 29 L 131 29 L 131 27 L 127 24 Q 123 25 124 22 L 106 15 L 83 15 Z " /><path fill="rgb(211,211,211)" stroke="rgb(211,211,211)" stroke-width="1" opacity="1" d="M 88.5 15 L 92 15.5 L 85.5 17 L 85.5 16 L 88.5 15 Z " /><path fill="rgb(211,211,211)" stroke="rgb(211,211,211)" stroke-width="1" opacity="1" d="M 97.5 15 L 105 16.5 L 102.5 17 L 97.5 16 L 97.5 15 Z " /><path fill="rgb(211,211,211)" stroke="rgb(211,211,211)" stroke-width="1" opacity="1" d="M 79.5 17 L 78.5 19 L 79.5 17 Z " /><path fill="rgb(211,211,211)" stroke="rgb(211,211,211)" stroke-width="1" opacity="1" d="M 110.5 17 L 111.5 19 L 110.5 17 Z " /><path fill="rgb(211,211,211)" stroke="rgb(211,211,211)" stroke-width="1" opacity="1" d="M 71.5 20 L 70.5 22 L 71.5 20 Z " /><path fill="rgb(211,211,211)" stroke="rgb(211,211,211)" stroke-width="1" opacity="1" d="M 64.5 24 L 63.5 26 L 64.5 24 Z " /><path fill="rgb(211,211,211)" stroke="rgb(211,211,211)" stroke-width="1" opacity="1" d="M 125.5 24 L 127.5 27 L 125.5 24 Z " /><path fill="rgb(211,211,211)" stroke="rgb(211,211,211)" stroke-width="1" opacity="1" d="M 130.5 28 L 131.5 30 L 130.5 28 Z " /><path fill="rgb(211,211,211)" stroke="rgb(211,211,211)" stroke-width="1" opacity="1" d="M 54.5 33 L 53.5 35 L 54.5 33 Z " /><path fill="rgb(211,211,211)" stroke="rgb(211,211,211)" stroke-width="1" opacity="1" d="M 138.5 37 L 139.5 39 L 138.5 37 Z " /><path fill="rgb(211,211,211)" stroke="rgb(211,211,211)" stroke-width="1" opacity="1" d="M 48.5 41 L 48 42.5 L 47.5 44 L 47 42.5 L 48.5 41 Z " /><path fill="rgb(211,211,211)" stroke="rgb(211,211,211)" stroke-width="1" opacity="1" d="M 143.5 45 L 144.5 47 L 143.5 45 Z " /><path fill="rgb(211,211,211)" stroke="rgb(211,211,211)" stroke-width="1" opacity="1" d="M 43.5 52 L 42.5 54 L 43.5 52 Z " /><path fill="rgb(211,211,211)" stroke="rgb(211,211,211)" stroke-width="1" opacity="1" d="M 41.5 58 L 41 59.5 L 40.5 61 L 40 59.5 L 41.5 58 Z " /><path fill="rgb(211,211,211)" stroke="rgb(211,211,211)" stroke-width="1" opacity="1" d="M 148.5 59 L 149.5 61 L 148.5 59 Z " /><path fill="rgb(211,211,211)" stroke="rgb(211,211,211)" stroke-width="1" opacity="1" d="M 157.5 70 L 158 74 Q 161 72.8 160 76.5 Q 162.8 77.6 162 81 Q 165.3 79.7 164 84.5 L 165 88.5 L 169 92.5 L 169 100 L 164.5 103 L 162 103 L 162 105 L 157 105 L 157.5 70 Z " /><path fill="rgb(211,211,211)" stroke="rgb(211,211,211)" stroke-width="1" opacity="1" d="M 32.5 74 L 33 107.5 L 35 110.5 L 35 121 Q 38.7 119.7 37 125.5 L 42 134.5 L 41 136.5 L 43 136.5 L 42 139.5 L 56.5 156 L 59.5 158 L 64.5 162 L 67 162 Q 65.8 165 69.5 164 Q 72.5 167.9 79 167 Q 77.9 170.5 85.5 169 Q 90.2 172.8 100.5 171 Q 104 167.8 111 169 Q 109.7 165.7 114.5 167 L 120 166 Q 118.8 163 122.5 164 L 126 162 Q 124.8 159 128.5 160 L 138 153 L 143 144 Q 145.7 145.1 145 142.5 L 144 140.5 L 146.5 137 L 147.5 139 L 148 133 Q 151 134.3 150 130.5 L 152 128.5 L 153 121.5 L 154.5 120 Q 164 120.5 168.5 116 L 169 121.5 L 167 123.5 L 167 130.5 L 165 132.5 L 164 140 L 162 140 L 162 144 L 160 144 L 160 147 L 158 147 L 158 151 Q 155.3 149.9 156 152.5 L 155 156 L 153 156 L 153 158 L 151 158 Q 152.1 160.7 149.5 160 L 148 163 L 146 163 L 146 165 L 144 165 Q 145.1 167.7 142.5 167 L 139 168 L 139 170 L 137 170 L 135 174 L 132.5 174 L 125 177 Q 126.3 180.7 120.5 179 L 118.5 181 L 105.5 182 L 103.5 184 L 89.5 184 Q 86.2 180.8 78.5 182 Q 77 184.5 75.5 181 L 71 181 L 71 179 L 67 179 Q 68.3 176 64.5 177 Q 62.3 173.5 57 174 L 57 172 L 53 172 L 53 170.5 L 48 167 Q 49.3 164 45.5 165 L 39 160 L 39 156 Q 36.3 157.1 37 154.5 Q 33.3 153.3 34 149 Q 31 150.3 32 146.5 L 30 144.5 L 27 135 L 25 135 L 25 128.5 L 23 127.5 L 23 117.5 Q 19 114 21 104.5 Q 24.8 101.2 23 93 L 25 93 L 25 86.5 L 27 86 L 27 83.5 Q 30.5 81.3 30 76 Q 32.8 77 32.5 74 Z " /><path fill="rgb(211,211,211)" stroke="rgb(211,211,211)" stroke-width="1" opacity="1" d="M 40.5 80 L 42 82.5 L 40 81.5 L 40.5 80 Z " /><path fill="rgb(211,211,211)" stroke="rgb(211,211,211)" stroke-width="1" opacity="1" d="M 142.5 98 L 141.5 100 L 142.5 98 Z " /><path fill="rgb(211,211,211)" stroke="rgb(211,211,211)" stroke-width="1" opacity="1" d="M 135.5 107 L 133.5 110 L 135.5 107 Z " /><path fill="rgb(211,211,211)" stroke="rgb(211,211,211)" stroke-width="1" opacity="1" d="M 68.5 118 L 69.5 120 L 68.5 118 Z " /><path fill="rgb(211,211,211)" stroke="rgb(211,211,211)" stroke-width="1" opacity="1" d="M 44.5 139 Q 46.8 138.3 46 140.5 L 44.5 139 Z " /><path fill="rgb(211,211,211)" stroke="rgb(211,211,211)" stroke-width="1" opacity="1" d="M 49.5 145 L 50.5 147 L 49.5 145 Z " /><path fill="rgb(211,211,211)" stroke="rgb(211,211,211)" stroke-width="1" opacity="1" d="M 51.5 148 L 55 150.5 L 52.5 149 L 51.5 148 Z " /><path fill="rgb(211,211,211)" stroke="rgb(211,211,211)" stroke-width="1" opacity="1" d="M 58.5 153 L 60.5 156 L 58.5 153 Z " /><path fill="rgb(211,211,211)" stroke="rgb(211,211,211)" stroke-width="1" opacity="1" d="M 131.5 153 L 130.5 155 L 128.5 156 L 129.5 154 L 131.5 153 Z " /><path fill="rgb(211,211,211)" stroke="rgb(211,211,211)" stroke-width="1" opacity="1" d="M 62.5 156 L 63.5 158 L 62.5 156 Z " /><path fill="rgb(211,211,211)" stroke="rgb(211,211,211)" stroke-width="1" opacity="1" d="M 125 156 L 127 156.5 L 125 157.5 L 125 156 Z " /><path fill="rgb(211,211,211)" stroke="rgb(211,211,211)" stroke-width="1" opacity="1" d="M 70.5 160 L 76 162.5 L 74.5 163 Q 70.5 162.5 70.5 160 Z " /><path fill="rgb(211,211,211)" stroke="rgb(211,211,211)" stroke-width="1" opacity="1" d="M 78.5 163 L 81 163.5 L 78.5 164 L 78.5 163 Z " /><path fill="rgb(211,211,211)" stroke="rgb(211,211,211)" stroke-width="1" opacity="1" d="M 109.5 163 L 112 163.5 L 108.5 165 L 109.5 163 Z " /><path fill="rgb(211,211,211)" stroke="rgb(211,211,211)" stroke-width="1" opacity="1" d="M 91.5 165 L 102 165.5 L 94.5 167 L 91.5 166 L 91.5 165 Z " /><path fill="rgb(216,216,216)" stroke="rgb(216,216,216)" stroke-width="1" opacity="0.7215686274509804" d="M 157 68 Q 159.7 66.9 159 69.5 L 162 75.5 L 160 74.5 L 159 70 Q 156 71 157 68 Z " /><path fill="rgb(216,216,216)" stroke="rgb(216,216,216)" stroke-width="1" opacity="0.7215686274509804" d="M 31.5 73 L 32 75 Q 29.3 73.9 30 76.5 L 25 84.5 L 23.5 91 L 23 86.5 L 28 76.5 L 31.5 73 Z " /><path fill="rgb(216,216,216)" stroke="rgb(216,216,216)" stroke-width="1" opacity="0.7215686274509804" d="M 162 77 Q 165 75.8 164 79.5 L 166 81.5 L 169 91 Q 166 92.3 167 88.5 L 162 77 Z " /><path fill="rgb(216,216,216)" stroke="rgb(216,216,216)" stroke-width="1" opacity="0.7215686274509804" d="M 21 93 Q 24 91.8 23 95.5 Q 19.3 103.8 21 117.5 L 23 128.5 L 21 127.5 Q 22.8 118.7 19 115.5 L 19 103.5 L 21 101.5 L 21 93 Z " /><path fill="rgb(216,216,216)" stroke="rgb(216,216,216)" stroke-width="1" opacity="0.7215686274509804" d="M 170.5 115 L 171 122.5 L 169 123.5 Q 168.3 117.8 170.5 115 Z " /><path fill="rgb(216,216,216)" stroke="rgb(216,216,216)" stroke-width="1" opacity="0.7215686274509804" d="M 168.5 125 L 169 131.5 L 159 153 Q 156 151.8 157 155.5 L 142.5 170 L 138 172.5 Q 138.7 175.1 136 174 L 136 176 L 132.5 176 L 124.5 181 L 121.5 181 L 121.5 180 L 126.5 179 L 136 174 Q 134.9 171.3 137.5 172 L 143 169 L 143 167 L 145 167 Q 143.9 164.3 146.5 165 L 148 162 L 150 162 L 150 160 Q 152.7 161.1 152 158.5 L 157 151 Q 159.7 152.1 159 149.5 L 166 136.5 L 168.5 125 Z " /><path fill="rgb(216,216,216)" stroke="rgb(216,216,216)" stroke-width="1" opacity="0.7215686274509804" d="M 23.5 130 L 25 136.5 L 30 146 Q 26.7 147.3 28 142.5 L 23 134.5 L 23.5 130 Z " /><path fill="rgb(216,216,216)" stroke="rgb(216,216,216)" stroke-width="1" opacity="0.7215686274509804" d="M 30.5 147 L 35 155 Q 37.7 153.9 37 156.5 L 44.5 165 Q 47.1 164.3 46 167 L 44 167 Q 45.1 164.3 42.5 165 L 39 160 Q 36 161.3 37 157.5 Q 30.9 153.9 30.5 147 Z " /><path fill="rgb(216,216,216)" stroke="rgb(216,216,216)" stroke-width="1" opacity="0.7215686274509804" d="M 47.5 167 L 52.5 171 L 55 172 Q 56.1 174.7 53.5 174 L 47.5 167 Z " /><path fill="rgb(216,216,216)" stroke="rgb(216,216,216)" stroke-width="1" opacity="0.7215686274509804" d="M 56.5 174 L 69 180.5 L 67.5 181 L 57.5 176 L 56.5 174 Z " /><path fill="rgb(216,216,216)" stroke="rgb(216,216,216)" stroke-width="1" opacity="0.7215686274509804" d="M 70.5 181 L 75 182.5 L 71.5 183 L 70.5 181 Z " /><path fill="rgb(216,216,216)" stroke="rgb(216,216,216)" stroke-width="1" opacity="0.7215686274509804" d="M 118.5 181 Q 121.1 180.3 120 183 L 103.5 186 L 88.5 186 L 87.5 185 L 77.5 185 L 76 183.5 L 85.5 183 L 89.5 185 L 103.5 185 L 106.5 183 Q 114.8 184.3 118.5 181 Z " /><path fill="rgb(230,230,230)" stroke="rgb(230,230,230)" stroke-width="1" opacity="0.996078431372549" d="M 83 15 L 86 15.5 L 83.5 17 L 83 15 Z " /><path fill="rgb(230,230,230)" stroke="rgb(230,230,230)" stroke-width="1" opacity="0.996078431372549" d="M 103.5 15 L 108 16.5 L 106.5 17 L 103.5 16 L 103.5 15 Z " /><path fill="rgb(230,230,230)" stroke="rgb(230,230,230)" stroke-width="1" opacity="0.996078431372549" d="M 111.5 17 L 116 18.5 L 113.5 19 L 111.5 17 Z " /><path fill="rgb(230,230,230)" stroke="rgb(230,230,230)" stroke-width="1" opacity="0.996078431372549" d="M 119.5 20 L 120.5 22 L 119.5 20 Z " /><path fill="rgb(230,230,230)" stroke="rgb(230,230,230)" stroke-width="1" opacity="0.996078431372549" d="M 56 29 L 58 29.5 L 52 34.5 L 56 29 Z " /><path fill="rgb(230,230,230)" stroke="rgb(230,230,230)" stroke-width="1" opacity="0.996078431372549" d="M 134.5 31 L 135.5 33 Q 132.7 33.7 134.5 31 Z " /><path fill="rgb(230,230,230)" stroke="rgb(230,230,230)" stroke-width="1" opacity="0.996078431372549" d="M 139.5 37 L 140.5 39 L 139.5 37 Z " /><path fill="rgb(230,230,230)" stroke="rgb(230,230,230)" stroke-width="1" opacity="0.996078431372549" d="M 48.5 40 L 47.5 42 L 48.5 40 Z " /><path fill="rgb(230,230,230)" stroke="rgb(230,230,230)" stroke-width="1" opacity="0.996078431372549" d="M 141.5 40 L 142.5 42 L 141.5 40 Z " /><path fill="rgb(230,230,230)" stroke="rgb(230,230,230)" stroke-width="1" opacity="0.996078431372549" d="M 145.5 48 L 146.5 50 L 145.5 48 Z " /><path fill="rgb(230,230,230)" stroke="rgb(230,230,230)" stroke-width="1" opacity="0.996078431372549" d="M 43.5 50 L 44 52 L 42 51.5 L 43.5 50 Z " /><path fill="rgb(230,230,230)" stroke="rgb(230,230,230)" stroke-width="1" opacity="0.996078431372549" d="M 148.5 55 L 149 57.5 L 148 57.5 L 148.5 55 Z " /><path fill="rgb(230,230,230)" stroke="rgb(230,230,230)" stroke-width="1" opacity="0.996078431372549" d="M 155.5 67 L 157 67.5 L 157 81.5 L 155 88.5 L 155 107 Q 158.5 105.9 157 113.5 L 155 119 Q 151.3 117.7 153 123.5 L 151 125.5 L 148 135 L 146 135 L 146 138 Q 143.3 136.9 144 139.5 L 135.5 149 L 132.5 151 L 125 156 Q 126.3 159 122.5 158 Q 119.8 161.7 114 161 L 114 163 L 107.5 163 L 106.5 165 L 83 165 Q 84.4 161 77.5 163 L 75.5 161 L 69 160 L 69 158 L 65 158 L 65 156 L 62 156 Q 63.1 153.3 60.5 154 L 55 151 L 55 149 Q 52.3 150.1 53 147.5 L 48 144 L 48 141.5 L 43 135.5 L 43 133 L 41 133 Q 42.3 128.9 39 130 L 39 125.5 L 37 123.5 L 36 109.5 L 34 106.5 L 34 80.5 L 35 80.5 L 35 85.5 Q 37.8 87.2 37 92.5 L 42 100.5 L 42 103 Q 45 101.8 44 105.5 L 49 112 L 51 112 L 51 114 L 53 114 Q 51.9 116.7 54.5 116 L 62 121 Q 60.8 124 64.5 123 L 72.5 128 Q 76.8 127.3 77.5 130 L 82.5 130 L 84.5 132 L 105.5 132 L 107.5 130 L 112.5 130 L 114.5 128 L 117.5 128 L 123.5 125 L 139 114 L 139 112 Q 141.7 113.1 141 110.5 L 143 107 Q 145.7 108.1 145 105.5 L 150 98.5 L 152 94.5 L 153 87.5 L 155 85.5 L 156 68.5 L 155.5 67 Z " /><path fill="rgb(230,230,230)" stroke="rgb(230,230,230)" stroke-width="1" opacity="0.996078431372549" d="M 32.5 68 Q 35.8 69.8 34 76.5 L 33 76.5 Q 33.6 69.8 32.5 68 Z " /><path fill="rgb(230,230,230)" stroke="rgb(230,230,230)" stroke-width="1" opacity="0.996078431372549" d="M 40.5 82 L 41.5 84 L 40.5 82 Z " /><path fill="rgb(230,230,230)" stroke="rgb(230,230,230)" stroke-width="1" opacity="0.996078431372549" d="M 42.5 89 L 43.5 91 L 42.5 89 Z " /><path fill="rgb(230,230,230)" stroke="rgb(230,230,230)" stroke-width="1" opacity="0.996078431372549" d="M 144.5 95 L 145 97 L 143 96.5 L 144.5 95 Z " /><path fill="rgb(230,230,230)" stroke="rgb(230,230,230)" stroke-width="1" opacity="0.996078431372549" d="M 169.5 95 L 171 97.5 L 169 102 L 167 101.5 Q 170.1 100 169.5 95 Z " /><path fill="rgb(230,230,230)" stroke="rgb(230,230,230)" stroke-width="1" opacity="0.996078431372549" d="M 142.5 99 L 142 100.5 L 141.5 102 L 141 100.5 L 142.5 99 Z " /><path fill="rgb(230,230,230)" stroke="rgb(230,230,230)" stroke-width="1" opacity="0.996078431372549" d="M 164.5 103 L 166 103.5 L 158.5 107 L 158.5 106 L 164.5 103 Z " /><path fill="rgb(230,230,230)" stroke="rgb(230,230,230)" stroke-width="1" opacity="0.996078431372549" d="M 51.5 105 L 52.5 107 L 51.5 105 Z " /><path fill="rgb(230,230,230)" stroke="rgb(230,230,230)" stroke-width="1" opacity="0.996078431372549" d="M 129.5 113 L 128.5 115 L 129.5 113 Z " /><path fill="rgb(230,230,230)" stroke="rgb(230,230,230)" stroke-width="1" opacity="0.996078431372549" d="M 61.5 114 L 62.5 116 L 61.5 114 Z " /><path fill="rgb(230,230,230)" stroke="rgb(230,230,230)" stroke-width="1" opacity="0.996078431372549" d="M 169.5 114 L 171 114.5 L 168.5 116 L 169.5 114 Z " /><path fill="rgb(230,230,230)" stroke="rgb(230,230,230)" stroke-width="1" opacity="0.996078431372549" d="M 166.5 116 L 165.5 118 L 158.5 119 L 158.5 118 L 166.5 116 Z " /><path fill="rgb(230,230,230)" stroke="rgb(230,230,230)" stroke-width="1" opacity="0.996078431372549" d="M 67.5 118 L 68.5 120 L 67.5 118 Z " /><path fill="rgb(230,230,230)" stroke="rgb(230,230,230)" stroke-width="1" opacity="0.996078431372549" d="M 70.5 120 L 73 121.5 L 71.5 121 L 70.5 120 Z " /><path fill="rgb(230,230,230)" stroke="rgb(230,230,230)" stroke-width="1" opacity="0.996078431372549" d="M 118.5 120 L 117.5 122 L 118.5 120 Z " /><path fill="rgb(230,230,230)" stroke="rgb(230,230,230)" stroke-width="1" opacity="0.996078431372549" d="M 109.5 123 L 108.5 125 L 109.5 123 Z " /><path fill="rgb(158,154,153)" stroke="rgb(158,154,153)" stroke-width="1" opacity="1" d="M 82.5 17 L 107.5 17 Q 106.5 20.5 113.5 19 L 127 26 Q 125.9 28.7 128.5 28 L 134 32 L 137 38 L 141 40 L 141 43.5 L 146 51.5 L 146 56 L 148 56 L 148 62.5 L 150 63.5 L 150 74.5 L 148.5 79 L 148 65.5 L 141 54.5 L 141 52 Q 138.3 53.1 139 50.5 L 136 49 L 136 47 Q 133.3 48.1 134 45.5 L 129 42 Q 130.1 39.3 127.5 40 L 116.5 33 L 113 33 Q 114.3 29.3 108.5 31 L 104.5 29 L 84.5 29 L 82.5 31 L 77.5 31 Q 76.3 34 72 33 Q 73.3 36 69.5 35 L 55 45 L 55 47 Q 52.3 45.9 53 48.5 L 51 52 Q 48.3 50.9 49 53.5 L 44 60.5 L 44 64 Q 40 62.6 42 69.5 L 41 69.5 L 41 60.5 L 44 54.5 L 44 50.5 L 51 38 L 53 38 L 53 35 L 55 35 L 55 33 Q 57.7 34.1 57 31.5 L 60 30 Q 58.9 27.3 61.5 28 L 66.5 24 L 76.5 19 L 80.5 19 L 82.5 17 Z " /><path fill="rgb(158,154,153)" stroke="rgb(158,154,153)" stroke-width="1" opacity="1" d="M 41.5 77 L 42 80.5 L 41 80.5 L 41.5 77 Z " /><path fill="rgb(158,154,153)" stroke="rgb(158,154,153)" stroke-width="1" opacity="1" d="M 147.5 83 L 148 84.5 L 146.5 87 L 146 84.5 L 147.5 83 Z " /><path fill="rgb(158,154,153)" stroke="rgb(158,154,153)" stroke-width="1" opacity="1" d="M 42.5 84 L 44 86.5 L 42 85.5 L 42.5 84 Z " /><path fill="rgb(158,154,153)" stroke="rgb(158,154,153)" stroke-width="1" opacity="1" d="M 145.5 89 L 146 90.5 L 143.5 95 L 143 93.5 L 145.5 89 Z " /><path fill="rgb(158,154,153)" stroke="rgb(158,154,153)" stroke-width="1" opacity="1" d="M 44 91 Q 47 90 46 93 Q 43 94 44 91 Z " /><path fill="rgb(158,154,153)" stroke="rgb(158,154,153)" stroke-width="1" opacity="1" d="M 46.5 95 Q 48.8 94.3 48 96.5 L 46.5 95 Z " /><path fill="rgb(158,154,153)" stroke="rgb(158,154,153)" stroke-width="1" opacity="1" d="M 142.5 96 L 143 98 L 141 97.5 L 142.5 96 Z " /><path fill="rgb(158,154,153)" stroke="rgb(158,154,153)" stroke-width="1" opacity="1" d="M 49.5 100 L 50.5 102 L 49.5 100 Z " /><path fill="rgb(158,154,153)" stroke="rgb(158,154,153)" stroke-width="1" opacity="1" d="M 139 100 L 141 100.5 L 139 101.5 L 139 100 Z " /><path fill="rgb(158,154,153)" stroke="rgb(158,154,153)" stroke-width="1" opacity="1" d="M 53.5 105 Q 55.8 104.3 55 106.5 L 60 110.5 L 58.5 111 L 53.5 105 Z " /><path fill="rgb(158,154,153)" stroke="rgb(158,154,153)" stroke-width="1" opacity="1" d="M 130 110 L 132 110.5 L 130 111.5 L 130 110 Z " /><path fill="rgb(158,154,153)" stroke="rgb(158,154,153)" stroke-width="1" opacity="1" d="M 128.5 112 L 129 114 L 125.5 116 L 125 114 L 128.5 112 Z " /><path fill="rgb(158,154,153)" stroke="rgb(158,154,153)" stroke-width="1" opacity="1" d="M 63.5 114 L 64.5 116 L 63.5 114 Z " /><path fill="rgb(158,154,153)" stroke="rgb(158,154,153)" stroke-width="1" opacity="1" d="M 66.5 116 L 74 120.5 L 72.5 121 L 67.5 118 L 66.5 116 Z " /><path fill="rgb(158,154,153)" stroke="rgb(158,154,153)" stroke-width="1" opacity="1" d="M 123.5 116 L 122.5 118 L 121 117.5 L 123.5 116 Z " /><path fill="rgb(158,154,153)" stroke="rgb(158,154,153)" stroke-width="1" opacity="1" d="M 116 119 L 118 119.5 L 116 120.5 L 116 119 Z " /><path fill="rgb(158,154,153)" stroke="rgb(158,154,153)" stroke-width="1" opacity="1" d="M 77.5 121 L 80 122.5 L 78.5 123 L 77.5 121 Z " /><path fill="rgb(158,154,153)" stroke="rgb(158,154,153)" stroke-width="1" opacity="1" d="M 111.5 121 L 113 121.5 L 110.5 123 L 111.5 121 Z " /><path fill="rgb(158,154,153)" stroke="rgb(158,154,153)" stroke-width="1" opacity="1" d="M 83.5 123 L 100.5 124 L 105.5 123 L 105.5 124 L 103.5 125 L 86.5 125 L 83.5 124 L 83.5 123 Z " /><path fill="rgb(158,154,153)" stroke="rgb(158,154,153)" stroke-width="1" opacity="1" d="M 130.5 155 L 132 155.5 L 130 156 L 130 158 L 127 158 Q 128.1 160.7 125.5 160 L 117.5 165 Q 113.3 164.3 112.5 167 L 108.5 167 L 106.5 169 L 83.5 169 L 75.5 165 L 72.5 165 L 63 159.5 L 65 158.5 L 65 160 L 69 160 Q 67.8 163 71.5 162 L 74.5 164 L 87.5 167 L 103.5 167 L 122 162 Q 120.9 159.3 123.5 160 L 130.5 155 Z " /></svg>