<svg width="200" height="200" version="1.1" xmlns="http://www.w3.org/2000/svg" desc="Created with imagetracer.js version 1.2.6" ><path fill="rgb(2,1,1)" stroke="rgb(2,1,1)" stroke-width="1" opacity="0" d="M 0 0 L 200 0 L 200 200 L 0 200 L 0 0 Z M 99 16 L 92 21 L 93 26 L 93 44 L 88 39 L 86 39 L 76 32 Q 68 33 69 30 L 20 30 L 20 42 L 22 45 L 23 52 L 25 54 L 25 56 L 29 58 L 31 63 L 29 66 Q 30 68 27 67 L 27 69 L 25 69 L 25 71 L 22 73 Q 23 75 20 74 L 20 76 L 18 76 L 18 79 L 13 87 Q 14 89 11 88 Q 12 93 9 95 Q 10 102 7 101 L 7 134 Q 10 136 9 142 L 11 144 Q 9 149 13 148 L 13 151 L 18 158 L 18 160 L 22 162 L 26 167 Q 28 166 27 169 L 29 169 L 33 174 Q 37 173 36 176 L 39 176 L 43 180 L 48 182 L 50 181 L 50 183 Q 55 182 57 185 L 66 185 L 66 187 L 137 187 L 139 185 L 147 185 L 148 183 L 154 183 L 154 181 Q 159 181 162 178 Q 165 179 164 176 L 168 176 L 168 174 L 171 173 Q 170 170 173 171 L 173 169 L 177 169 L 179 166 L 180 166 L 180 162 L 182 162 Q 181 159 184 160 L 187 155 L 187 151 Q 190 152 189 148 L 191 148 L 191 144 L 193 144 L 194 139 Q 192 133 196 134 L 196 104 L 194 102 L 191 88 L 187 85 L 187 82 L 182 76 Q 183 73 180 74 L 180 72 Q 177 66 170 64 L 171 61 L 174 60 L 175 60 L 175 56 L 177 56 L 178 54 Q 177 50 180 51 L 180 47 L 182 47 L 182 30 L 136 30 L 135 32 L 124 33 L 122 35 L 119 35 L 117 39 L 115 39 L 115 41 L 113 41 L 113 44 L 111 44 L 111 22 L 109 18 L 106 18 L 106 16 L 99 16 Z " /><path fill="rgb(4,198,106)" stroke="rgb(4,198,106)" stroke-width="1" opacity="0.9529411764705882" d="M 97 18 Q 106.7 16 109 22.5 L 109 44.5 L 110 45.5 L 108 46.5 L 108 24.5 L 106 21 L 103 21 Q 104.1 18.3 101.5 19 Q 100.4 21.8 97 21 Q 97.8 24.1 95 23.5 L 95 46.5 L 93 47 L 93 23.5 L 95 20 Q 98 21 97 18 Z " /><path fill="rgb(4,198,106)" stroke="rgb(4,198,106)" stroke-width="1" opacity="0.9529411764705882" d="M 20 30 L 60.5 30 Q 63 33 69 32.5 L 61 33 L 60.5 31 L 21.5 31 L 22 32.5 L 23 41.5 L 22 41.5 Q 23 36.5 20 35.5 L 20 30 Z " /><path fill="rgb(4,198,106)" stroke="rgb(4,198,106)" stroke-width="1" opacity="0.9529411764705882" d="M 142.5 30 L 181 30.5 L 143 31 L 142.5 33 L 135.5 33 L 135.5 32 L 142.5 30 Z " /><path fill="rgb(4,198,106)" stroke="rgb(4,198,106)" stroke-width="1" opacity="0.9529411764705882" d="M 71.5 32 L 72 34 L 76.5 34 L 77 36 L 79.5 36 L 89 43 Q 87.9 45.7 90.5 45 L 89.5 47 L 89 45 Q 86.3 46.1 87 43.5 Q 81.4 36.4 71 35 L 71.5 32 Z " /><path fill="rgb(4,198,106)" stroke="rgb(4,198,106)" stroke-width="1" opacity="0.9529411764705882" d="M 130 32 Q 133.3 30.9 132 35 L 126 36 L 126 34 Q 131.2 35.7 130 32 Z " /><path fill="rgb(4,198,106)" stroke="rgb(4,198,106)" stroke-width="1" opacity="0.9529411764705882" d="M 122 36 L 125 36.5 L 122 38 Q 123.1 40.7 120.5 40 L 116 43.5 L 114.5 46 Q 112.3 46.8 113 44.5 L 116 43 Q 114.9 40.3 117.5 41 L 122 38 L 122 36 Z " /><path fill="rgb(4,198,106)" stroke="rgb(4,198,106)" stroke-width="1" opacity="0.9529411764705882" d="M 179 39 Q 182.7 37.8 181 43 Q 177.3 44.2 179 39 Z " /><path fill="rgb(4,198,106)" stroke="rgb(4,198,106)" stroke-width="1" opacity="0.9529411764705882" d="M 22.5 44 L 25 45.5 L 26 49.5 L 33 60 L 35 60 L 35 62 Q 37.7 60.9 37 63.5 L 37.5 65 L 35 64 L 28 53 L 26 53 Q 27.3 48.9 24 50 L 24 45 L 22.5 45 L 22.5 44 Z " /><path fill="rgb(4,198,106)" stroke="rgb(4,198,106)" stroke-width="1" opacity="0.9529411764705882" d="M 177 46 Q 179.7 44.9 179 47.5 L 178 52 L 174 54 L 174 57 L 172 57 L 172 59 Q 169.3 57.9 170 60.5 L 167 62 Q 168 65 165 64 L 165 62 L 167 62 Q 165.9 59.3 168.5 60 L 170 57 Q 172.7 58.1 172 55.5 Q 175.8 54.2 175 50 Q 178.7 51.2 177 46 Z " /><path fill="rgb(4,198,106)" stroke="rgb(4,198,106)" stroke-width="1" opacity="0.9529411764705882" d="M 37.5 66 L 37 67.5 L 35.5 71 L 36 69.5 L 37.5 66 Z " /><path fill="rgb(4,198,106)" stroke="rgb(4,198,106)" stroke-width="1" opacity="0.9529411764705882" d="M 165.5 67 L 166.5 69 L 165.5 67 Z " /><path fill="rgb(4,198,106)" stroke="rgb(4,198,106)" stroke-width="1" opacity="0.9529411764705882" d="M 167.5 71 L 169 74.5 L 168 74.5 L 167.5 71 Z " /><path fill="rgb(4,198,106)" stroke="rgb(4,198,106)" stroke-width="1" opacity="0.9529411764705882" d="M 34.5 73 L 35 75.5 L 33 76.5 L 34.5 73 Z " /><path fill="rgb(4,198,106)" stroke="rgb(4,198,106)" stroke-width="1" opacity="0.9529411764705882" d="M 101.5 73 L 102.5 75 L 101.5 73 Z " /><path fill="rgb(4,198,106)" stroke="rgb(4,198,106)" stroke-width="1" opacity="0.9529411764705882" d="M 104.5 76 L 107.5 80 L 104.5 76 Z " /><path fill="rgb(4,198,106)" stroke="rgb(4,198,106)" stroke-width="1" opacity="0.9529411764705882" d="M 169.5 77 L 170 80.5 L 169 80.5 L 169.5 77 Z " /><path fill="rgb(4,198,106)" stroke="rgb(4,198,106)" stroke-width="1" opacity="0.9529411764705882" d="M 92.5 80 L 93 82 L 85.5 85 L 86.5 83 L 92.5 80 Z " /><path fill="rgb(4,198,106)" stroke="rgb(4,198,106)" stroke-width="1" opacity="0.9529411764705882" d="M 109.5 80 Q 111.8 79.3 111 81.5 L 109.5 80 Z " /><path fill="rgb(4,198,106)" stroke="rgb(4,198,106)" stroke-width="1" opacity="0.9529411764705882" d="M 112.5 82 L 118 84.5 L 116.5 85 Q 112.5 84.5 112.5 82 Z " /><path fill="rgb(4,198,106)" stroke="rgb(4,198,106)" stroke-width="1" opacity="0.9529411764705882" d="M 170.5 82 L 171 86.5 L 170 86.5 L 170.5 82 Z " /><path fill="rgb(4,198,106)" stroke="rgb(4,198,106)" stroke-width="1" opacity="0.9529411764705882" d="M 32.5 84 L 33 86.5 L 32 86.5 L 32.5 84 Z " /><path fill="rgb(4,198,106)" stroke="rgb(4,198,106)" stroke-width="1" opacity="0.9529411764705882" d="M 80.5 85 L 84 85.5 L 77.5 87 L 77.5 86 L 80.5 85 Z " /><path fill="rgb(4,198,106)" stroke="rgb(4,198,106)" stroke-width="1" opacity="0.9529411764705882" d="M 119.5 85 L 126 86.5 L 121.5 87 L 119.5 85 Z " /><path fill="rgb(0,210,106)" stroke="rgb(0,210,106)" stroke-width="1" opacity="1" d="M 101.5 19 Q 104.1 18.3 103 21 L 106 21 L 106 22.5 L 108 24.5 L 108 47 L 95 47 L 95 23 Q 98 24 97 21 L 99.5 21 L 101.5 19 Z " /><path fill="rgb(0,210,106)" stroke="rgb(0,210,106)" stroke-width="1" opacity="1" d="M 21.5 31 L 60.5 31 Q 59.7 34.4 68.5 33 L 71 32 Q 69.3 36.5 74.5 35 L 87 43.5 Q 86.3 46.1 89 45 L 89 47 L 64.5 47 L 59.5 48 L 57.5 50 L 50.5 52 L 42 59.5 Q 42.7 62.1 40 61 L 40 63.5 L 38.5 66 L 37 62 L 35 62 L 35 60 Q 32.3 61.1 33 58.5 L 23.5 44 Q 21.3 44.8 22 42.5 Q 24.8 40.8 23 34.5 L 21.5 31 Z " /><path fill="rgb(0,210,106)" stroke="rgb(0,210,106)" stroke-width="1" opacity="1" d="M 143 31 L 180.5 31 L 181 31.5 L 181 39 L 179 39 L 179 46 L 177 46 L 177 50 Q 174 48.8 175 52.5 L 172 57 Q 169.3 55.9 170 58.5 L 167 60 Q 168 63 165 62 L 165 65.5 L 164 65.5 L 158.5 57 L 153 54 Q 154.3 51 150.5 52 L 148.5 50 L 145.5 50 L 139.5 47 L 114 46.5 L 117.5 42 L 122 40 Q 120.9 37.3 123.5 38 Q 125.9 34.2 132 35 Q 130.3 30.9 134.5 32 L 135.5 33 L 143 33 L 143 31 Z " /><path fill="rgb(0,210,106)" stroke="rgb(0,210,106)" stroke-width="1" opacity="1" d="M 165.5 68 L 166.5 70 L 165.5 68 Z " /><path fill="rgb(0,210,106)" stroke="rgb(0,210,106)" stroke-width="1" opacity="1" d="M 102.5 73 L 105.5 77 L 102.5 73 Z " /><path fill="rgb(0,210,106)" stroke="rgb(0,210,106)" stroke-width="1" opacity="1" d="M 97.5 76 L 96.5 78 L 97.5 76 Z " /><path fill="rgb(0,210,106)" stroke="rgb(0,210,106)" stroke-width="1" opacity="1" d="M 107.5 78 L 108.5 80 L 107.5 78 Z " /><path fill="rgb(0,210,106)" stroke="rgb(0,210,106)" stroke-width="1" opacity="1" d="M 77.5 85 L 80 85.5 L 76.5 87 L 77.5 85 Z " /><path fill="rgb(0,210,106)" stroke="rgb(0,210,106)" stroke-width="1" opacity="1" d="M 123.5 85 L 127 86.5 L 125.5 86 Q 122.5 86.5 123.5 85 Z " /><path fill="rgb(169,215,191)" stroke="rgb(169,215,191)" stroke-width="1" opacity="0.29411764705882354" d="M 98.5 16 L 105.5 16 L 106 18 L 108.5 18 L 111 21.5 L 111 44 L 113 44 L 113 41 L 115 41 L 115 39 L 117 39 L 119 35 L 121.5 35 L 123.5 33 L 130 32 Q 131.3 35.3 126.5 34 L 116 41 Q 117.1 43.7 114.5 43 L 111.5 47 L 109 44.5 L 109 22.5 L 104.5 18 L 97 18 L 97 20 Q 94.3 18.9 95 21.5 L 92.5 25 L 92 20.5 L 98.5 16 Z " /><path fill="rgb(169,215,191)" stroke="rgb(169,215,191)" stroke-width="1" opacity="0.29411764705882354" d="M 61.5 30 L 68.5 30 L 69 32 L 61.5 31 L 61.5 30 Z " /><path fill="rgb(169,215,191)" stroke="rgb(169,215,191)" stroke-width="1" opacity="0.29411764705882354" d="M 135 30 L 142 30.5 L 135 32 L 135 30 Z " /><path fill="rgb(169,215,191)" stroke="rgb(169,215,191)" stroke-width="1" opacity="0.29411764705882354" d="M 72.5 32 L 75.5 32 L 81.5 35 L 93 44.5 Q 94 48.3 91 47 L 91 45 Q 88.3 46.1 89 43.5 L 79.5 36 L 77 36 Q 78.3 32.7 73.5 34 L 72.5 32 Z " /><path fill="rgb(169,215,191)" stroke="rgb(169,215,191)" stroke-width="1" opacity="0.29411764705882354" d="M 181.5 33 L 182 47 L 180 47 Q 181.7 52.2 178 51 L 181 42.5 L 181.5 33 Z " /><path fill="rgb(169,215,191)" stroke="rgb(169,215,191)" stroke-width="1" opacity="0.29411764705882354" d="M 20.5 36 L 22 43.5 L 21 43.5 L 20.5 36 Z " /><path fill="rgb(169,215,191)" stroke="rgb(169,215,191)" stroke-width="1" opacity="0.29411764705882354" d="M 22.5 45 Q 25 46.2 24 50 Q 27 48.8 26 52.5 L 29 57 L 31 57 L 31 60 L 33 60 L 35 64 L 33 64 L 33 66 L 31 66 Q 32.1 68.7 29.5 68 L 26 73 L 24 73 L 24 75 Q 21.3 73.9 22 76.5 Q 18.2 77.8 19 82 L 17 82 L 17 85 L 15 85 L 15 89 Q 12.3 87.9 13 90.5 L 11 91.5 L 11 88 Q 13.7 89.1 13 86.5 L 18 78.5 L 18 76 L 20 76 L 20 74 Q 22.7 75.1 22 72.5 L 25 71 L 25 69 L 27 69 L 27 67 Q 29.7 68.1 29 65.5 L 31 62.5 L 29 58 L 25 56 L 25 53.5 Q 20.7 50.7 22.5 45 Z " /><path fill="rgb(169,215,191)" stroke="rgb(169,215,191)" stroke-width="1" opacity="0.29411764705882354" d="M 176 52 Q 178.7 50.9 178 53.5 L 177 56 L 175 56 L 175 60 L 173.5 60 L 171 61 L 170 63.5 Q 176.8 65.7 180 71.5 L 180 74 Q 182.7 72.9 182 75.5 L 187 81.5 L 187 84 L 185 84 L 185 80 L 183 80 L 183 78 Q 180.3 79.1 181 76.5 L 173.5 68 Q 170.9 68.7 172 66 L 169 66 L 167 62 L 172 58.5 Q 171.3 55.9 174 57 L 174 54 L 176 54 L 176 52 Z " /><path fill="rgb(169,215,191)" stroke="rgb(169,215,191)" stroke-width="1" opacity="0.29411764705882354" d="M 187 85 L 191 87.5 L 191 91.5 L 193 95.5 L 192 95.5 Q 192.7 92.9 190 94 L 190 89 Q 187.3 90.1 188 87.5 L 187 85 Z " /><path fill="rgb(169,215,191)" stroke="rgb(169,215,191)" stroke-width="1" opacity="0.29411764705882354" d="M 10.5 93 L 12 96 Q 9 94.8 10 98.5 L 9 98.5 Q 8 94 10.5 93 Z " /><path fill="rgb(169,215,191)" stroke="rgb(169,215,191)" stroke-width="1" opacity="0.29411764705882354" d="M 192 97 Q 195.3 95.9 194 100 Q 190.7 101.1 192 97 Z " /><path fill="rgb(169,215,191)" stroke="rgb(169,215,191)" stroke-width="1" opacity="0.29411764705882354" d="M 7 101 Q 11.1 99.7 10 103 Q 7.3 101.9 8 104.5 L 7 104.5 L 7 101 Z " /><path fill="rgb(169,215,191)" stroke="rgb(169,215,191)" stroke-width="1" opacity="0.29411764705882354" d="M 194.5 102 Q 197.5 103.5 196 109.5 L 195 109.5 L 194.5 102 Z " /><path fill="rgb(169,215,191)" stroke="rgb(169,215,191)" stroke-width="1" opacity="0.29411764705882354" d="M 195.5 125 L 196 134 Q 192.7 135.3 194 130.5 L 195.5 125 Z " /><path fill="rgb(169,215,191)" stroke="rgb(169,215,191)" stroke-width="1" opacity="0.29411764705882354" d="M 7.5 131 L 8 133 Q 10.7 131.9 10 134.5 L 8 135.5 L 7.5 131 Z " /><path fill="rgb(169,215,191)" stroke="rgb(169,215,191)" stroke-width="1" opacity="0.29411764705882354" d="M 193.5 135 L 194 139 Q 191 140.3 192 136.5 L 193.5 135 Z " /><path fill="rgb(169,215,191)" stroke="rgb(169,215,191)" stroke-width="1" opacity="0.29411764705882354" d="M 9.5 137 L 10 140 Q 12.7 138.9 12 141.5 Q 10.5 144.5 9 141.5 L 9.5 137 Z " /><path fill="rgb(169,215,191)" stroke="rgb(169,215,191)" stroke-width="1" opacity="0.29411764705882354" d="M 192.5 140 L 193 144 Q 188.9 145.3 190 142 Q 192.8 143 192.5 140 Z " /><path fill="rgb(169,215,191)" stroke="rgb(169,215,191)" stroke-width="1" opacity="0.29411764705882354" d="M 11.5 144 L 15 151 Q 18 150 17 153 L 13 150.5 Q 14 146.8 11 148 L 11.5 144 Z " /><path fill="rgb(169,215,191)" stroke="rgb(169,215,191)" stroke-width="1" opacity="0.29411764705882354" d="M 190.5 145 L 191 148 Q 188.3 149.1 189 146.5 L 190.5 145 Z " /><path fill="rgb(169,215,191)" stroke="rgb(169,215,191)" stroke-width="1" opacity="0.29411764705882354" d="M 187 149 Q 190 148 189 151 Q 186 152 187 149 Z " /><path fill="rgb(169,215,191)" stroke="rgb(169,215,191)" stroke-width="1" opacity="0.29411764705882354" d="M 186.5 152 L 187 154.5 L 183.5 160 Q 180.9 159.3 182 162 L 180 162 L 180 166 L 178.5 166 L 177 169 L 173 169 L 173 171 Q 170.3 169.9 171 172.5 L 168 174 L 168 176 L 164 176 Q 165.3 179 161.5 178 L 158 180 L 159.5 177 L 167 174 L 167 172 L 169 172 Q 167.9 169.3 170.5 170 L 180 161.5 L 181 158 L 185 156 L 185 153.5 L 186.5 152 Z " /><path fill="rgb(169,215,191)" stroke="rgb(169,215,191)" stroke-width="1" opacity="0.29411764705882354" d="M 16 154 L 19 155.5 L 19 158 Q 21.7 156.9 21 159.5 L 24 161 L 24 163 Q 26.7 161.9 26 164.5 L 31 168 L 31 170 L 33 170 Q 31.9 172.7 34.5 172 L 38 174 Q 39 177 36 176 Q 37.3 172.7 32.5 174 L 29 169 L 27 169 Q 28.1 166.3 25.5 167 L 22 162 L 18 160 L 18 157.5 L 16 154 Z " /><path fill="rgb(169,215,191)" stroke="rgb(169,215,191)" stroke-width="1" opacity="0.29411764705882354" d="M 39.5 176 L 44 177 Q 42.8 180 46.5 179 L 48.5 182 L 42.5 180 L 39.5 176 Z " /><path fill="rgb(169,215,191)" stroke="rgb(169,215,191)" stroke-width="1" opacity="0.29411764705882354" d="M 155 179 Q 158 178 157 181 Q 154 182 155 179 Z " /><path fill="rgb(169,215,191)" stroke="rgb(169,215,191)" stroke-width="1" opacity="0.29411764705882354" d="M 50 181 L 54 182.5 L 50 183 L 50 181 Z " /><path fill="rgb(169,215,191)" stroke="rgb(169,215,191)" stroke-width="1" opacity="0.29411764705882354" d="M 151.5 181 Q 155.3 180 154 183 L 150 182.5 L 151.5 181 Z " /><path fill="rgb(169,215,191)" stroke="rgb(169,215,191)" stroke-width="1" opacity="0.29411764705882354" d="M 55.5 183 L 60 184.5 L 56.5 185 L 55.5 183 Z " /><path fill="rgb(169,215,191)" stroke="rgb(169,215,191)" stroke-width="1" opacity="0.29411764705882354" d="M 144 183 Q 148.1 181.7 147 185 Q 142.9 186.3 144 183 Z " /><path fill="rgb(169,215,191)" stroke="rgb(169,215,191)" stroke-width="1" opacity="0.29411764705882354" d="M 66 185 L 69.5 186 L 134.5 186 L 137.5 185 L 136.5 187 L 66.5 187 L 66 185 Z " /><path fill="rgb(1,242,150)" stroke="rgb(1,242,150)" stroke-width="1" opacity="0.996078431372549" d="M 85.5 40 L 87.5 43 L 85.5 40 Z " /><path fill="rgb(1,242,150)" stroke="rgb(1,242,150)" stroke-width="1" opacity="0.996078431372549" d="M 112.5 45 L 114.5 47 L 139.5 47 L 153 52 Q 151.9 54.7 154.5 54 L 160 58.5 L 167 70.5 L 170 84 L 168 83.5 L 168 76.5 Q 164.8 75 166 70 Q 163 71.3 164 67.5 L 163 65 Q 160.3 66.1 161 63.5 L 156.5 58 L 152 56 Q 153.1 53.3 150.5 54 L 147 53 L 147 51 Q 140.7 52.5 141.5 49 L 133.5 49 L 132.5 48 L 113.5 48 L 109.5 48 L 94.5 48 L 93.5 49 L 91.5 49 L 89.5 48 L 71.5 48 L 70.5 49 L 60 49 Q 61.3 52 57.5 51 L 48 56 L 48 58 L 46 58 L 46 60 Q 43.3 58.9 44 61.5 L 41 63 L 39 69 L 37 68.5 L 40 61 Q 42.7 62.1 42 59.5 L 50.5 52 L 57.5 50 L 59.5 48 L 64.5 47 L 89.5 47 L 90.5 46 L 91.5 47 L 108.5 47 L 110.5 46 L 112 46.5 L 112.5 45 Z " /><path fill="rgb(1,242,150)" stroke="rgb(1,242,150)" stroke-width="1" opacity="0.996078431372549" d="M 36.5 70 L 37 71.5 Q 34.8 72.8 36 77.5 L 34 79.5 L 34 86 L 73.5 86 L 76.5 84 L 85.5 83 L 85.5 84 L 77.5 85 L 75.5 87 L 33 87 L 33 77.5 Q 36.5 78.5 35 71.5 L 36.5 70 Z " /><path fill="rgb(1,242,150)" stroke="rgb(1,242,150)" stroke-width="1" opacity="0.996078431372549" d="M 99 72 L 104 72 L 104 74 L 106 74 L 106 76 L 108 76 Q 106.9 78.7 109.5 78 Q 110.7 81.7 115 81 L 114.5 83 L 111 82 Q 112.1 79.3 109.5 80 L 106 78 L 102.5 73 L 100.5 73 L 93.5 80 L 91 80 Q 92.1 82.7 89.5 82 L 87 83 L 87 81 L 90 81 L 90 79 L 94 79 Q 92.9 76.3 95.5 77 L 97 74 Q 100 75 99 72 Z " /><path fill="rgb(1,242,150)" stroke="rgb(1,242,150)" stroke-width="1" opacity="0.996078431372549" d="M 117.5 83 L 125.5 84 L 127.5 86 L 170 86.5 L 127.5 87 Q 125.8 83.3 118.5 85 L 117.5 83 Z " /><path fill="rgb(1,243,151)" stroke="rgb(1,243,151)" stroke-width="1" opacity="1" d="M 112.5 47 L 113.5 48 L 132.5 48 L 133.5 49 L 142 49 L 142 51 L 146.5 51 L 147 53 L 149.5 53 L 152 54 Q 150.9 56.7 153.5 56 L 159 60.5 L 161 65 Q 163.7 63.9 163 66.5 L 164 70 Q 167.7 68.7 166 74.5 L 168 76.5 L 168 84 Q 171 83 170 86 L 127.5 86 L 125.5 84 L 115 83 Q 116.3 80 112.5 81 L 108 78 L 108 76 L 106 76 L 104 72 L 99 72 L 99 74 Q 96.3 72.9 97 75.5 L 94 77 L 94 79 L 90 79 L 90 81 Q 85.9 79.7 87 83 L 83.5 83 Q 82 85.5 76.5 84 L 73.5 86 L 34 86 L 34 79.5 L 36 77.5 L 37 69 Q 39.7 70.1 39 67.5 Q 41.8 66.4 41 63 L 44 61.5 L 44 60 L 46 60 L 46 58 L 48 58 Q 46.9 55.3 49.5 56 L 57.5 51 L 60 51 L 60.5 49 L 70.5 49 L 71.5 48 L 89.5 48 L 91.5 49 L 94.5 48 L 109.5 48 L 110.5 49 L 112.5 47 Z " /><path fill="rgb(230,101,94)" stroke="rgb(230,101,94)" stroke-width="1" opacity="0.7450980392156863" d="M 33 64 Q 36 63 35 66 L 33 66 Q 34.1 68.7 31.5 68 L 28 70 L 26 75 L 24 75 Q 25.1 77.7 22.5 77 L 19.5 81 L 19 79.5 L 22 75 L 24 75 L 24 73 Q 26.7 74.1 26 71.5 L 31 68 L 33 64 Z " /><path fill="rgb(230,101,94)" stroke="rgb(230,101,94)" stroke-width="1" opacity="0.7450980392156863" d="M 36.5 64 Q 39.5 65.5 36.5 67 L 36.5 64 Z " /><path fill="rgb(230,101,94)" stroke="rgb(230,101,94)" stroke-width="1" opacity="0.7450980392156863" d="M 165.5 64 L 167 67.5 L 165 66.5 L 165.5 64 Z " /><path fill="rgb(230,101,94)" stroke="rgb(230,101,94)" stroke-width="1" opacity="0.7450980392156863" d="M 167.5 64 Q 169.8 63.3 169 65.5 L 167.5 64 Z " /><path fill="rgb(230,101,94)" stroke="rgb(230,101,94)" stroke-width="1" opacity="0.7450980392156863" d="M 170 66 L 172 66 Q 170.9 68.7 173.5 68 L 181 76.5 L 179 77 L 176 71 L 170 68 L 170 66 Z " /><path fill="rgb(230,101,94)" stroke="rgb(230,101,94)" stroke-width="1" opacity="0.7450980392156863" d="M 167.5 70 L 168.5 72 L 167.5 70 Z " /><path fill="rgb(230,101,94)" stroke="rgb(230,101,94)" stroke-width="1" opacity="0.7450980392156863" d="M 34.5 71 L 35 72.5 L 33.5 75 L 33 73.5 L 34.5 71 Z " /><path fill="rgb(230,101,94)" stroke="rgb(230,101,94)" stroke-width="1" opacity="0.7450980392156863" d="M 100.5 73 L 101.5 75 L 98.5 77 L 100 74.5 L 100.5 73 Z " /><path fill="rgb(230,101,94)" stroke="rgb(230,101,94)" stroke-width="1" opacity="0.7450980392156863" d="M 169.5 75 Q 171.8 76.8 171 81.5 L 170 81.5 L 169.5 75 Z " /><path fill="rgb(230,101,94)" stroke="rgb(230,101,94)" stroke-width="1" opacity="0.7450980392156863" d="M 181 78 L 185 80 L 185 84 Q 188 82.8 187 86.5 L 188 89 Q 191 88 190 91 Q 187.3 92.1 188 89.5 L 183 80 Q 180 81 181 78 Z " /><path fill="rgb(230,101,94)" stroke="rgb(230,101,94)" stroke-width="1" opacity="0.7450980392156863" d="M 32.5 80 L 33 83.5 L 31.5 87 L 31 83.5 L 32.5 80 Z " /><path fill="rgb(230,101,94)" stroke="rgb(230,101,94)" stroke-width="1" opacity="0.7450980392156863" d="M 17 82 Q 20 81 19 84 Q 16 85 17 82 Z " /><path fill="rgb(230,101,94)" stroke="rgb(230,101,94)" stroke-width="1" opacity="0.7450980392156863" d="M 86.5 84 L 88 84.5 L 84.5 86 L 84.5 85 L 86.5 84 Z " /><path fill="rgb(230,101,94)" stroke="rgb(230,101,94)" stroke-width="1" opacity="0.7450980392156863" d="M 15 85 Q 17.7 83.9 17 86.5 L 12.5 94 Q 10.3 94.8 11 92.5 L 13 89 Q 16.7 90.2 15 85 Z " /><path fill="rgb(230,101,94)" stroke="rgb(230,101,94)" stroke-width="1" opacity="0.7450980392156863" d="M 33.5 87 L 74 87.5 L 33.5 88 L 33.5 87 Z " /><path fill="rgb(230,101,94)" stroke="rgb(230,101,94)" stroke-width="1" opacity="0.7450980392156863" d="M 130.5 87 L 170 87.5 L 130.5 88 L 130.5 87 Z " /><path fill="rgb(230,101,94)" stroke="rgb(230,101,94)" stroke-width="1" opacity="0.7450980392156863" d="M 190 94 Q 192.7 92.9 192 95.5 L 192 97.5 L 192 100 L 194 100.5 L 194 104.5 Q 197.8 111.8 196 124.5 L 192 138.5 L 192 140.5 Q 192.7 143.1 190 142 L 193 132.5 L 193 124.5 L 195 117.5 Q 192 112.5 193 103.5 L 190 94 Z " /><path fill="rgb(230,101,94)" stroke="rgb(230,101,94)" stroke-width="1" opacity="0.7450980392156863" d="M 10 96 Q 13 94.8 12 98.5 L 9 100.5 L 10 96 Z " /><path fill="rgb(230,101,94)" stroke="rgb(230,101,94)" stroke-width="1" opacity="0.7450980392156863" d="M 8 103 Q 11 101.8 10 105.5 L 8 107.5 L 8 128 L 10 128 L 10 133 Q 7.3 134.1 8 131.5 L 7 130.5 L 7 105.5 L 8 103 Z " /><path fill="rgb(230,101,94)" stroke="rgb(230,101,94)" stroke-width="1" opacity="0.7450980392156863" d="M 9.5 135 Q 12.8 136.2 12 140 Q 9 141.3 10 137.5 L 9.5 135 Z " /><path fill="rgb(230,101,94)" stroke="rgb(230,101,94)" stroke-width="1" opacity="0.7450980392156863" d="M 11 142 L 14 143.5 L 14 146.5 L 17 151 Q 14.3 152.1 15 149.5 L 11 142 Z " /><path fill="rgb(230,101,94)" stroke="rgb(230,101,94)" stroke-width="1" opacity="0.7450980392156863" d="M 188 144 L 191 144.5 Q 188.3 145.6 189 149 Q 186 147.8 187 151.5 Q 184.3 152.6 185 156 L 181 158 L 181 156 Q 183.7 157.1 183 154.5 L 188 146.5 L 188 144 Z " /><path fill="rgb(230,101,94)" stroke="rgb(230,101,94)" stroke-width="1" opacity="0.7450980392156863" d="M 17.5 152 L 19 154.5 L 17.5 154 L 16 153.5 L 17.5 152 Z " /><path fill="rgb(230,101,94)" stroke="rgb(230,101,94)" stroke-width="1" opacity="0.7450980392156863" d="M 19 156 Q 21.7 154.9 21 157.5 L 25.5 163 L 22.5 161 L 21 158 Q 18 159 19 156 Z " /><path fill="rgb(230,101,94)" stroke="rgb(230,101,94)" stroke-width="1" opacity="0.7450980392156863" d="M 179 159 L 181 159.5 L 172.5 169 L 170.5 170 L 170 168 L 176 165 L 177 161 Q 180 162 179 159 Z " /><path fill="rgb(230,101,94)" stroke="rgb(230,101,94)" stroke-width="1" opacity="0.7450980392156863" d="M 26.5 164 L 29.5 166 L 35 170 Q 33.9 172.7 36.5 172 L 43 176.5 L 41.5 176 L 38 176 Q 39.1 173.3 36.5 174 L 33 172 L 33 170 L 31 170 Q 32.1 167.3 29.5 168 L 26.5 164 Z " /><path fill="rgb(230,101,94)" stroke="rgb(230,101,94)" stroke-width="1" opacity="0.7450980392156863" d="M 168.5 170 L 169 172 L 167 172 Q 168.1 174.7 165.5 174 L 160 177 Q 158.8 174 162.5 175 L 168.5 170 Z " /><path fill="rgb(230,101,94)" stroke="rgb(230,101,94)" stroke-width="1" opacity="0.7450980392156863" d="M 44 177 L 49.5 180 L 59.5 182 L 61.5 184 L 140.5 184 L 142.5 182 L 146.5 182 L 155 179 Q 156.3 182.3 151.5 181 Q 149.8 184.5 144 183 L 143.5 185 L 135.5 185 L 134.5 186 L 69.5 186 L 68.5 185 L 60.5 185 L 44 179 L 44 177 Z " /><path fill="rgb(230,101,94)" stroke="rgb(230,101,94)" stroke-width="1" opacity="0.7450980392156863" d="M 156 177 L 159 177.5 L 157.5 180 L 156 177 Z " /><path fill="rgb(247,49,47)" stroke="rgb(247,49,47)" stroke-width="1" opacity="0.996078431372549" d="M 35.5 64 Q 38.3 65.3 36 66.5 L 33 73.5 L 33 79.5 L 31 87 L 33.5 88 L 73.5 88 L 85 86 L 85 88 L 74.5 88 L 73.5 90 L 31.5 90 L 30 88.5 L 30 78.5 Q 33.8 76.6 32 70 Q 29.3 68.9 30 71.5 L 29 74 L 27 74 L 27 76 L 25 76 Q 26.1 78.7 23.5 78 L 20 83.5 L 20 86 Q 16.3 84.8 18 90 L 14 92 L 17 84 Q 20 85.3 19 81.5 L 22.5 77 L 24 77 L 24 75 Q 26.7 76.1 26 73.5 L 28 70 L 33 68 L 33 66 Q 35.8 67 35.5 64 Z " /><path fill="rgb(247,49,47)" stroke="rgb(247,49,47)" stroke-width="1" opacity="0.996078431372549" d="M 166.5 64 L 170 66 Q 168.9 68.7 171.5 68 L 176 71 L 179 77 L 181 77 L 181 80 Q 183.7 78.9 183 81.5 L 188 91 Q 191.7 89.7 190 95.5 L 193 106 L 191 106 L 191 100.5 L 189 100 Q 190.5 93.7 187 94.5 L 187 90.5 L 186 88 Q 183 89.3 184 85.5 Q 181.3 84.4 182 81 L 180 81 L 180 79 Q 177.3 80.1 178 77.5 L 177 74 L 175 74 L 175 72 L 173 72 Q 174.1 69.3 171.5 70 L 170 69.5 Q 169 74.5 172 75.5 L 172 88.5 L 170.5 90 L 129 90 L 128.5 88 L 119.5 88 L 118.5 86 Q 122 88.5 129.5 87 L 130.5 88 L 169.5 88 L 171 86.5 L 171 77.5 L 167 69.5 L 166.5 64 Z " /><path fill="rgb(247,49,47)" stroke="rgb(247,49,47)" stroke-width="1" opacity="0.996078431372549" d="M 100.5 75 L 103 75 L 103 77 L 105 77 Q 103.9 79.7 106.5 79 L 109 80 L 109 82 Q 113.1 80.7 112 84 L 115.5 84 L 116.5 86 L 113.5 86 L 108 83 L 108 81 L 104 81 L 104 79.5 L 103 77 L 97 79 L 96 83 L 92 83 Q 93.1 85.7 90.5 85 L 86.5 86 L 86.5 85 L 91 84 Q 89.9 81.3 92.5 82 L 100.5 75 Z " /><path fill="rgb(247,49,47)" stroke="rgb(247,49,47)" stroke-width="1" opacity="0.996078431372549" d="M 13.5 93 L 14 96.5 L 13 97.5 L 13 104 L 11 104.5 L 11 131.5 L 13 133.5 L 14 142.5 L 12 141.5 Q 13 136.5 10 135.5 L 10 128 L 8 127.5 L 8 107.5 L 10 105.5 L 10 100.5 L 12 98.5 Q 11 94 13.5 93 Z " /><path fill="rgb(247,49,47)" stroke="rgb(247,49,47)" stroke-width="1" opacity="0.996078431372549" d="M 193.5 112 L 195 118.5 L 193.5 124 L 193.5 112 Z " /><path fill="rgb(247,49,47)" stroke="rgb(247,49,47)" stroke-width="1" opacity="0.996078431372549" d="M 191 130 Q 194 128.8 193 132.5 Q 189.3 136.7 190 144 Q 187 142.8 188 146.5 L 183 156 L 181 156 L 181 159 L 177 161 L 180 155 L 182 155 Q 180.7 150.9 184 152 Q 182.8 146.7 186 147.5 L 186 144.5 L 187 141 L 189 141 L 189 136 L 191 136 L 191 130 Z " /><path fill="rgb(247,49,47)" stroke="rgb(247,49,47)" stroke-width="1" opacity="0.996078431372549" d="M 14 145 L 16 145 L 16 148 L 20 150 L 20 152.5 L 23 159 L 30 164.5 Q 29.3 166.8 31.5 166 L 36.5 171 L 39 171 L 39 173 L 43 173 L 43 174.5 L 48.5 178 L 53 178 L 53 180 L 59 180 L 59 182 L 49.5 180 L 35 172 Q 36.1 169.3 33.5 170 L 28 166 L 28 164 Q 25.3 165.1 26 162.5 L 21 156 Q 18 157.3 19 153.5 L 14 145 Z " /><path fill="rgb(247,49,47)" stroke="rgb(247,49,47)" stroke-width="1" opacity="0.996078431372549" d="M 175 162 L 177 162.5 L 176 165 L 170 168 Q 171.1 170.7 168.5 170 L 162.5 175 L 160 175 L 160 177 L 156 177 Q 157.3 180 153.5 179 L 143 182 L 143 180 L 150 180 L 150 178 L 154 178 L 154 176 Q 158.1 177.3 157 174 L 160.5 174 L 164 173 L 164 171 L 166 171 L 166 169 L 168 169 Q 166.9 166.3 169.5 167 L 173 166 L 175 162 Z " /><path fill="rgb(247,49,47)" stroke="rgb(247,49,47)" stroke-width="1" opacity="0.996078431372549" d="M 60.5 182 L 68.5 182 L 69.5 183 L 133.5 183 Q 135.2 180.2 141.5 182 L 140.5 184 L 61.5 184 L 60.5 182 Z " /><path fill="rgb(248,49,47)" stroke="rgb(248,49,47)" stroke-width="1" opacity="1" d="M 32.5 69 L 34 69.5 L 32 70 Q 33.8 76.6 30 78.5 L 30 88.5 L 31.5 90 L 74 90 L 74.5 88 L 84.5 88 Q 83.5 84.8 89.5 86 L 92 85 L 92 83 L 96 83 L 96 81.5 L 97 79 L 103 77 L 104 81 L 108 81 Q 106.9 83.7 109.5 83 L 119.5 88 L 129 88 L 129.5 90 L 170.5 90 L 172 88.5 L 172 75.5 Q 169 74.5 170 69.5 L 171.5 70 Q 174.1 69.3 173 72 L 175 72 L 175 74 L 177 74 L 177 76.5 L 178 79 L 182 81 L 182 83.5 Q 184.8 84.6 184 88 Q 186.7 86.9 186 89.5 L 187 95 L 189 95 Q 187.5 101.3 191 100.5 L 191 106 L 193 106.5 L 193 130 L 191 130 L 191 136 L 189 136 L 189 140.5 L 187 141 L 187 143.5 L 186 148 L 184 148 L 184 152 L 182 152 L 182 155 Q 179.3 153.9 180 156.5 Q 176.3 157.8 177 162 L 175 162 L 173 166 L 170.5 166 L 168 167 L 168 169 L 166 169 L 164 173 L 161.5 173 L 157 174 L 157 176 Q 152.9 174.7 154 178 L 150 178 L 150 180 L 143.5 180 L 142.5 182 L 134.5 182 L 133.5 183 L 69.5 183 L 68.5 182 L 59 182 L 59 180 L 53.5 180 Q 54.5 176.8 48.5 178 L 43 174.5 L 43 173 L 39 173 Q 40.3 170 36.5 171 L 30 166 L 24.5 159 Q 22.3 159.8 23 157.5 L 20 150 L 18 150 Q 19 147 16 148 L 16 145 L 14 145 L 14 139.5 Q 11.8 138.3 13 133.5 L 11 131.5 L 11 104 Q 14.5 105.1 13 97.5 L 14 92 L 18 90 L 18 86 Q 21 87.3 20 83.5 L 23.5 78 L 25 78 L 25 76 L 27 76 L 27 74 Q 29.7 75.1 29 72.5 L 30 70 L 32.5 69 Z " /></svg>