<svg width="200" height="200" version="1.1" xmlns="http://www.w3.org/2000/svg" desc="Created with imagetracer.js version 1.2.6" ><path fill="rgb(0,0,0)" stroke="rgb(0,0,0)" stroke-width="1" opacity="0" d="M 0 0 L 200 0 L 200 200 L 0 200 L 0 0 Z M 86 22 L 71 26 Q 66 25 67 28 L 64 29 Q 59 28 60 31 L 53 34 L 51 37 L 46 38 L 45 41 Q 42 40 43 43 L 39 45 Q 40 47 37 46 L 37 49 Q 32 52 30 59 L 27 60 L 26 64 Q 28 69 24 68 L 23 72 Q 24 76 21 75 L 20 88 L 18 90 L 18 105 L 20 107 L 20 115 L 21 116 Q 20 120 23 119 L 24 124 Q 23 127 26 126 L 29 134 L 39 145 L 39 147 Q 39 150 44 149 L 46 153 L 52 157 L 54 157 L 56 160 Q 58 159 57 162 L 60 162 L 67 168 L 89 178 L 105 178 L 113 174 Q 116 175 115 172 L 119 171 Q 122 172 121 169 L 125 168 Q 128 169 127 166 L 134 162 L 136 162 Q 135 159 138 160 L 139 157 L 142 157 L 150 149 L 152 149 L 152 147 L 161 138 Q 160 134 163 135 Q 168 128 171 119 Q 170 114 173 115 L 173 107 L 174 106 L 174 91 L 173 90 L 173 82 L 171 81 L 170 72 Q 166 69 166 63 L 157 49 Q 154 50 155 47 Q 154 42 149 43 L 148 40 Q 145 41 146 39 L 132 29 L 121 25 L 116 25 L 114 23 Q 109 24 108 22 L 86 22 Z " /><path fill="rgb(211,235,184)" stroke="rgb(211,235,184)" stroke-width="1" opacity="0.6627450980392157" d="M 85 22 L 100.5 23 Q 101.8 20.8 106.5 22 L 107.5 24 L 85.5 24 L 85 22 Z " /><path fill="rgb(211,235,184)" stroke="rgb(211,235,184)" stroke-width="1" opacity="0.6627450980392157" d="M 78.5 23 L 83 24.5 L 78 26 L 78.5 23 Z " /><path fill="rgb(211,235,184)" stroke="rgb(211,235,184)" stroke-width="1" opacity="0.6627450980392157" d="M 113.5 23 L 115 26 Q 111.2 27 110 24.5 L 113.5 23 Z " /><path fill="rgb(211,235,184)" stroke="rgb(211,235,184)" stroke-width="1" opacity="0.6627450980392157" d="M 72 25 L 76 26.5 L 59.5 33 L 41 46 L 32 58.5 L 27.5 68 L 26 64.5 L 28 61.5 L 27.5 60 L 31 58.5 L 31 56.5 L 33.5 52 Q 35.8 52.8 35 50.5 Q 39.3 48.2 37.5 46 Q 39.8 46.8 39 44.5 L 43 43 Q 41.9 40.3 44.5 41 L 46.5 38 L 48 38.5 Q 47.2 35.9 50.5 37 L 61.5 29 L 64 30 Q 62.9 27.3 65.5 28 L 67 28.5 L 67.5 26 L 72 27 L 72 25 Z " /><path fill="rgb(211,235,184)" stroke="rgb(211,235,184)" stroke-width="1" opacity="0.6627450980392157" d="M 118.5 25 L 121 25 Q 119.8 28 123.5 27 L 125 26.5 L 125 28 L 129 28 L 129 29.5 L 131.5 30 L 142.5 37 L 145 37 L 146.5 40 Q 148.8 39.3 148 41.5 L 155 46.5 L 156.5 50 L 160 52.5 L 159 55 L 163 57.5 L 162 58.5 L 166 62.5 L 165 63.5 L 167 66.5 L 166.5 68 Q 168.8 67.3 168 69.5 L 170 72.5 L 169 75 L 171 75 L 171 80 Q 167.7 81.3 169 76.5 Q 162.9 57.1 149.5 45 Q 136.9 31.6 116 26.5 L 118.5 25 Z " /><path fill="rgb(211,235,184)" stroke="rgb(211,235,184)" stroke-width="1" opacity="0.6627450980392157" d="M 24.5 68 L 27 69.5 Q 24 70.8 25 75 L 23 75.5 L 24 77.5 L 22.5 80 L 21 76.5 Q 24 75.3 23 71 Q 25.7 72.1 25 69.5 L 24.5 68 Z " /><path fill="rgb(211,235,184)" stroke="rgb(211,235,184)" stroke-width="1" opacity="0.6627450980392157" d="M 67.5 80 Q 75.6 81.4 79 87.5 L 80 95.5 L 77.5 99 L 71.5 100 L 67.5 99 L 62 93.5 L 61 85.5 L 63.5 82 L 67.5 80 Z " /><path fill="rgb(211,235,184)" stroke="rgb(211,235,184)" stroke-width="1" opacity="0.6627450980392157" d="M 140.5 80 Q 147.9 81.1 151 86.5 Q 154.2 88.8 153 95.5 Q 151.4 100.9 143.5 100 Q 137.4 98.6 135 93.5 L 134 84.5 L 140.5 80 Z " /><path fill="rgb(211,235,184)" stroke="rgb(211,235,184)" stroke-width="1" opacity="0.6627450980392157" d="M 20 81 Q 24 79.6 22 86.5 L 21 86.5 L 20 81 Z " /><path fill="rgb(211,235,184)" stroke="rgb(211,235,184)" stroke-width="1" opacity="0.6627450980392157" d="M 171.5 81 Q 174.3 82.3 172 83.5 L 171.5 88 L 170 82.5 L 171.5 81 Z " /><path fill="rgb(211,235,184)" stroke="rgb(211,235,184)" stroke-width="1" opacity="0.6627450980392157" d="M 19.5 88 Q 22.8 89.8 21 96.5 L 20 100.5 L 21 104.5 L 19 105.5 L 19.5 88 Z " /><path fill="rgb(211,235,184)" stroke="rgb(211,235,184)" stroke-width="1" opacity="0.6627450980392157" d="M 172 90 L 174 90.5 L 174 105.5 L 172 104.5 L 172 90 Z " /><path fill="rgb(211,235,184)" stroke="rgb(211,235,184)" stroke-width="1" opacity="0.6627450980392157" d="M 171.5 109 L 173 115 L 171 115 L 171 119 Q 168.3 117.9 169 120.5 L 170 123 Q 166.7 121.7 168 126.5 L 162.5 135 L 161 135 L 161 138 Q 158.3 136.9 159 139.5 L 155 142.5 L 153.5 145 Q 150.5 144.1 152 148.5 L 150.5 148 L 149 148 L 149 150 Q 146.3 148.9 147 151.5 L 144 153 L 141.5 157 L 138 158.5 Q 138.8 160.8 136.5 160 L 133 161 L 133 163 Q 130.3 161.9 131 164.5 L 129.5 164 Q 126.8 169.4 124 167.5 Q 124.8 170.1 121.5 169 L 118 170 L 118 172 Q 114.2 170.5 115 173.5 L 113.5 173 Q 110.9 172.3 112 175 L 109 175 L 109 176.5 L 107.5 176 L 105 176 Q 106.3 179 102.5 178 L 97 176.5 L 108.5 174 L 123.5 166 Q 139 157 151 144.5 L 153 141.5 L 157 136 Q 159.7 137.1 159 134.5 L 169 118.5 L 169 114.5 L 171.5 109 Z " /><path fill="rgb(211,235,184)" stroke="rgb(211,235,184)" stroke-width="1" opacity="0.6627450980392157" d="M 21.5 110 L 24 117.5 L 21 119 L 22 115 Q 18.7 116.3 20 111.5 L 21.5 110 Z " /><path fill="rgb(211,235,184)" stroke="rgb(211,235,184)" stroke-width="1" opacity="0.6627450980392157" d="M 24.5 119 L 26 123.5 L 38 142 L 41 143.5 Q 40.3 145.8 42.5 145 L 65.5 164 L 75 168 Q 73.8 171 77.5 170 L 89.5 176 L 96 176.5 L 88.5 178 L 84.5 176 L 80 175 L 79.5 173 L 78 173.5 L 78 172 L 74 172 Q 75.1 169.3 72.5 170 L 68.5 169 L 64 165.5 L 63.5 164 L 62.5 165 L 58.5 161 L 55 160 L 53.5 157 L 51.5 157 L 46 153 L 43.5 148 L 41.5 149 L 32 137.5 L 26 128.5 L 26 126 Q 23 127.3 24 123.5 L 23 120.5 L 24.5 119 Z " /><path fill="rgb(133,213,47)" stroke="rgb(133,213,47)" stroke-width="1" opacity="0.996078431372549" d="M 86.5 25 Q 89.1 24.3 88 27 L 79.5 27 L 78.5 28 L 78 26 L 85.5 26 L 86.5 25 Z " /><path fill="rgb(133,213,47)" stroke="rgb(133,213,47)" stroke-width="1" opacity="0.996078431372549" d="M 105.5 25 L 113.5 26 L 115 27.5 L 112.5 28 Q 111.2 25.7 106.5 27 L 105.5 25 Z " /><path fill="rgb(133,213,47)" stroke="rgb(133,213,47)" stroke-width="1" opacity="0.996078431372549" d="M 118.5 28 L 123 29.5 L 119.5 30 L 118.5 28 Z " /><path fill="rgb(133,213,47)" stroke="rgb(133,213,47)" stroke-width="1" opacity="0.996078431372549" d="M 69.5 29 L 74 29.5 L 68.5 31 L 69.5 29 Z " /><path fill="rgb(133,213,47)" stroke="rgb(133,213,47)" stroke-width="1" opacity="0.996078431372549" d="M 65.5 31 L 66.5 33 L 62.5 34 L 62 32 L 65.5 31 Z " /><path fill="rgb(133,213,47)" stroke="rgb(133,213,47)" stroke-width="1" opacity="0.996078431372549" d="M 126.5 31 L 131 33.5 L 129.5 33 Q 125.7 33.5 126.5 31 Z " /><path fill="rgb(133,213,47)" stroke="rgb(133,213,47)" stroke-width="1" opacity="0.996078431372549" d="M 134.5 35 L 135.5 37 Q 132.7 37.7 134.5 35 Z " /><path fill="rgb(133,213,47)" stroke="rgb(133,213,47)" stroke-width="1" opacity="0.996078431372549" d="M 53.5 38 L 54 40 L 52 39.5 L 53.5 38 Z " /><path fill="rgb(133,213,47)" stroke="rgb(133,213,47)" stroke-width="1" opacity="0.996078431372549" d="M 143.5 41 L 144.5 43 L 143.5 41 Z " /><path fill="rgb(133,213,47)" stroke="rgb(133,213,47)" stroke-width="1" opacity="0.996078431372549" d="M 48.5 42 L 45.5 46 L 43.5 47 L 44.5 45 L 48.5 42 Z " /><path fill="rgb(133,213,47)" stroke="rgb(133,213,47)" stroke-width="1" opacity="0.996078431372549" d="M 146.5 44 L 147.5 46 L 146.5 44 Z " /><path fill="rgb(133,213,47)" stroke="rgb(133,213,47)" stroke-width="1" opacity="0.996078431372549" d="M 41.5 48 L 41 49.5 Q 42.1 52.8 39.5 52 L 40 50.5 L 41.5 48 Z " /><path fill="rgb(133,213,47)" stroke="rgb(133,213,47)" stroke-width="1" opacity="0.996078431372549" d="M 153.5 51 L 154.5 53 L 153.5 51 Z " /><path fill="rgb(133,213,47)" stroke="rgb(133,213,47)" stroke-width="1" opacity="0.996078431372549" d="M 37.5 53 L 38 55 L 36 54.5 L 37.5 53 Z " /><path fill="rgb(133,213,47)" stroke="rgb(133,213,47)" stroke-width="1" opacity="0.996078431372549" d="M 156.5 54 L 157 56.5 L 156 56.5 L 156.5 54 Z " /><path fill="rgb(133,213,47)" stroke="rgb(133,213,47)" stroke-width="1" opacity="0.996078431372549" d="M 158.5 58 L 161 61.5 L 159 62 L 158.5 58 Z " /><path fill="rgb(133,213,47)" stroke="rgb(133,213,47)" stroke-width="1" opacity="0.996078431372549" d="M 31 61 L 33 61.5 L 31 62.5 L 31 61 Z " /><path fill="rgb(133,213,47)" stroke="rgb(133,213,47)" stroke-width="1" opacity="0.996078431372549" d="M 162.5 63 L 164 67.5 L 162 66.5 L 162.5 63 Z " /><path fill="rgb(133,213,47)" stroke="rgb(133,213,47)" stroke-width="1" opacity="0.996078431372549" d="M 27 69 Q 30 68 29 71 Q 26 72 27 69 Z " /><path fill="rgb(133,213,47)" stroke="rgb(133,213,47)" stroke-width="1" opacity="0.996078431372549" d="M 164.5 69 L 167 73.5 L 165 72.5 L 164.5 69 Z " /><path fill="rgb(133,213,47)" stroke="rgb(133,213,47)" stroke-width="1" opacity="0.996078431372549" d="M 49.5 72 L 69.5 72 L 73.5 75 L 76.5 75 L 84 81.5 L 91 91.5 L 93 106.5 L 91 117.5 L 81.5 130 L 79 131.5 Q 79.8 133.8 77.5 133 L 76.5 134 L 61 134 Q 62.3 131 58.5 132 L 55 131 Q 56.3 128 52.5 129 L 47 124.5 Q 47.8 122.3 45.5 123 Q 35.7 115.3 30 103.5 L 30 88.5 L 37.5 79 L 42.5 75 L 46 75 Q 44.8 72 48.5 73 L 49.5 72 Z M 54 73 L 43 77 L 40 80 Q 37 79 38 82 L 35 83 L 31 91 L 31 101 L 38 112 L 38 114 L 41 116 Q 40 118 43 117 L 46 121 L 49 123 L 50 126 L 65 133 Q 76 135 80 129 Q 82 130 81 128 L 84 126 L 91 112 Q 92 101 90 94 L 84 85 L 82 82 L 77 77 L 67 73 L 54 73 Z " /><path fill="rgb(133,213,47)" stroke="rgb(133,213,47)" stroke-width="1" opacity="0.996078431372549" d="M 124.5 72 L 142.5 72 L 145.5 73 Q 155.5 76.5 161 84.5 L 161 87 Q 164 85.8 163 89.5 L 164 90.5 L 164 101.5 L 159.5 110 Q 156.9 109.2 158 112.5 L 157 115 L 154 116.5 Q 154.8 118.8 152.5 118 L 151 121 L 148 122.5 Q 148.8 124.8 146.5 124 L 145 127 L 141 128 Q 142.1 130.7 139.5 130 L 131.5 134 L 117 134 Q 118.3 131 114.5 132 L 109 128 L 102 115.5 L 101 98.5 L 105 86 Q 107.7 87.1 107 84.5 L 109.5 81 Q 111.8 81.8 111 79.5 L 124.5 72 Z M 128 73 L 119 77 Q 115 76 116 79 L 109 85 Q 110 87 107 86 L 103 96 Q 105 101 102 103 L 104 117 L 110 126 L 120 133 L 133 132 L 150 120 L 153 116 Q 152 113 155 114 L 162 102 L 163 97 L 162 90 L 159 85 Q 153 77 144 74 Q 138 71 128 73 Z " /><path fill="rgb(133,213,47)" stroke="rgb(133,213,47)" stroke-width="1" opacity="0.996078431372549" d="M 168.5 79 L 170 82.5 L 168 83.5 L 168.5 79 Z " /><path fill="rgb(133,213,47)" stroke="rgb(133,213,47)" stroke-width="1" opacity="0.996078431372549" d="M 22.5 89 L 23 90.5 L 22 91.5 L 22 102.5 L 23 105 L 21 104.5 L 21 91.5 L 22.5 89 Z " /><path fill="rgb(133,213,47)" stroke="rgb(133,213,47)" stroke-width="1" opacity="0.996078431372549" d="M 170.5 90 L 171 92.5 L 170 92.5 L 170.5 90 Z " /><path fill="rgb(133,213,47)" stroke="rgb(133,213,47)" stroke-width="1" opacity="0.996078431372549" d="M 170.5 103 L 172 106 Q 168.5 107.1 170.5 103 Z " /><path fill="rgb(133,213,47)" stroke="rgb(133,213,47)" stroke-width="1" opacity="0.996078431372549" d="M 168.5 112 L 169 114.5 L 168 114.5 L 168.5 112 Z " /><path fill="rgb(133,213,47)" stroke="rgb(133,213,47)" stroke-width="1" opacity="0.996078431372549" d="M 24.5 116 Q 27.1 115.2 26 118.5 L 25 118.5 L 24.5 116 Z " /><path fill="rgb(133,213,47)" stroke="rgb(133,213,47)" stroke-width="1" opacity="0.996078431372549" d="M 165 120 L 167 120.5 L 164.5 124 L 165 122.5 L 165 120 Z " /><path fill="rgb(133,213,47)" stroke="rgb(133,213,47)" stroke-width="1" opacity="0.996078431372549" d="M 27.5 123 L 28.5 125 L 27.5 123 Z " /><path fill="rgb(133,213,47)" stroke="rgb(133,213,47)" stroke-width="1" opacity="0.996078431372549" d="M 162 126 L 164 126.5 L 161 128.5 L 162 126 Z " /><path fill="rgb(133,213,47)" stroke="rgb(133,213,47)" stroke-width="1" opacity="0.996078431372549" d="M 159.5 131 L 159 132.5 L 158.5 134 L 158 132.5 L 159.5 131 Z " /><path fill="rgb(133,213,47)" stroke="rgb(133,213,47)" stroke-width="1" opacity="0.996078431372549" d="M 33.5 132 L 36 135.5 L 34 134.5 L 33.5 132 Z " /><path fill="rgb(133,213,47)" stroke="rgb(133,213,47)" stroke-width="1" opacity="0.996078431372549" d="M 37.5 137 L 38.5 139 L 37.5 137 Z " /><path fill="rgb(133,213,47)" stroke="rgb(133,213,47)" stroke-width="1" opacity="0.996078431372549" d="M 154.5 138 L 153.5 140 L 154.5 138 Z " /><path fill="rgb(133,213,47)" stroke="rgb(133,213,47)" stroke-width="1" opacity="0.996078431372549" d="M 40.5 140 L 42 142.5 L 40 141.5 L 40.5 140 Z " /><path fill="rgb(133,213,47)" stroke="rgb(133,213,47)" stroke-width="1" opacity="0.996078431372549" d="M 151.5 141 L 149.5 144 L 149 142 L 151.5 141 Z " /><path fill="rgb(133,213,47)" stroke="rgb(133,213,47)" stroke-width="1" opacity="0.996078431372549" d="M 83.5 142 L 92 144 L 93.5 147 L 97.5 148 L 101 147 L 102.5 144 Q 103.9 141.4 108.5 142 L 113 144 Q 115 147 114 154.5 L 111 156 L 109.5 159 L 104 160 L 103.5 162 L 90 162 Q 91.3 158.7 86.5 160 L 84 159 L 79 152.5 L 78 148.5 L 80.5 144 L 83.5 142 Z M 85 144 L 83 145 L 80 149 L 83 155 Q 85 154 84 157 L 93 161 Q 103 162 108 157 L 111 155 L 113 152 L 112 145 L 110 144 Q 102 144 100 149 L 94 149 Q 91 144 85 144 Z " /><path fill="rgb(133,213,47)" stroke="rgb(133,213,47)" stroke-width="1" opacity="0.996078431372549" d="M 146 145 L 148 145.5 L 146 146.5 L 146 145 Z " /><path fill="rgb(133,213,47)" stroke="rgb(133,213,47)" stroke-width="1" opacity="0.996078431372549" d="M 46.5 146 L 48.5 149 Q 46.3 149.8 47 147.5 L 46.5 146 Z " /><path fill="rgb(133,213,47)" stroke="rgb(133,213,47)" stroke-width="1" opacity="0.996078431372549" d="M 143 148 L 145 148.5 L 143 149.5 L 143 148 Z " /><path fill="rgb(133,213,47)" stroke="rgb(133,213,47)" stroke-width="1" opacity="0.996078431372549" d="M 50.5 150 L 51.5 152 L 50.5 150 Z " /><path fill="rgb(133,213,47)" stroke="rgb(133,213,47)" stroke-width="1" opacity="0.996078431372549" d="M 140 151 L 142 151.5 L 140 152.5 L 140 151 Z " /><path fill="rgb(133,213,47)" stroke="rgb(133,213,47)" stroke-width="1" opacity="0.996078431372549" d="M 53.5 153 L 57 155.5 L 55.5 155 L 53.5 153 Z " /><path fill="rgb(133,213,47)" stroke="rgb(133,213,47)" stroke-width="1" opacity="0.996078431372549" d="M 134.5 156 L 133.5 158 L 134.5 156 Z " /><path fill="rgb(133,213,47)" stroke="rgb(133,213,47)" stroke-width="1" opacity="0.996078431372549" d="M 58.5 157 L 59.5 159 L 58.5 157 Z " /><path fill="rgb(133,213,47)" stroke="rgb(133,213,47)" stroke-width="1" opacity="0.996078431372549" d="M 62.5 159 L 63.5 161 L 62.5 159 Z " /><path fill="rgb(133,213,47)" stroke="rgb(133,213,47)" stroke-width="1" opacity="0.996078431372549" d="M 73.5 166 L 76 167.5 L 74.5 168 L 73.5 166 Z " /><path fill="rgb(133,213,47)" stroke="rgb(133,213,47)" stroke-width="1" opacity="0.996078431372549" d="M 118.5 166 L 119 168 L 115.5 169 L 115 167 L 118.5 166 Z " /><path fill="rgb(133,213,47)" stroke="rgb(133,213,47)" stroke-width="1" opacity="0.996078431372549" d="M 78.5 169 L 83 171.5 L 81.5 171 Q 77.8 170.8 78.5 169 Z " /><path fill="rgb(133,213,47)" stroke="rgb(133,213,47)" stroke-width="1" opacity="0.996078431372549" d="M 112.5 169 L 114 169.5 L 109.5 172 L 109 170 L 112.5 169 Z " /><path fill="rgb(133,213,47)" stroke="rgb(133,213,47)" stroke-width="1" opacity="0.996078431372549" d="M 85.5 172 L 91 174.5 L 89.5 174 Q 84.9 174.8 85.5 172 Z " /><path fill="rgb(133,213,47)" stroke="rgb(133,213,47)" stroke-width="1" opacity="0.996078431372549" d="M 106.5 172 L 107 174 L 102 173.5 L 106.5 172 Z " /><path fill="rgb(93,92,86)" stroke="rgb(93,92,86)" stroke-width="1" opacity="1" d="M 53.5 73 L 58 73.5 Q 46.7 75 40 80 Q 41.1 82.7 38.5 82 L 36 86 L 34 85.5 L 35 83 L 38 81.5 Q 37.3 79.3 39.5 80 L 42.5 77 L 53.5 73 Z " /><path fill="rgb(93,92,86)" stroke="rgb(93,92,86)" stroke-width="1" opacity="1" d="M 61.5 73 Q 75.2 73.8 82 81.5 L 84 84.5 L 88 90.5 L 87 90.5 Q 84 83 77.5 79 Q 71.4 74.6 61.5 74 L 61.5 73 Z " /><path fill="rgb(93,92,86)" stroke="rgb(93,92,86)" stroke-width="1" opacity="1" d="M 127.5 73 L 132 73.5 L 122.5 76 L 123.5 74 L 127.5 73 Z " /><path fill="rgb(93,92,86)" stroke="rgb(93,92,86)" stroke-width="1" opacity="1" d="M 136.5 73 Q 143.1 72.4 146 75.5 L 144.5 76 L 136.5 74 L 136.5 73 Z " /><path fill="rgb(93,92,86)" stroke="rgb(93,92,86)" stroke-width="1" opacity="1" d="M 119.5 76 L 121 76.5 L 111 83.5 L 108 89 L 106 88.5 L 107 86 Q 109.7 87.1 109 84.5 L 116 78.5 Q 115.2 75.9 118.5 77 L 119.5 76 Z " /><path fill="rgb(93,92,86)" stroke="rgb(93,92,86)" stroke-width="1" opacity="1" d="M 147.5 76 L 159 84.5 L 162 89.5 L 163 96.5 L 160.5 104 L 160 101.5 L 161 100.5 L 161 90.5 L 155.5 82 L 147.5 77 L 147.5 76 Z " /><path fill="rgb(93,92,86)" stroke="rgb(93,92,86)" stroke-width="1" opacity="1" d="M 64.5 80 L 66 80.5 L 62 83.5 L 60.5 87 L 60 84.5 L 64.5 80 Z " /><path fill="rgb(93,92,86)" stroke="rgb(93,92,86)" stroke-width="1" opacity="1" d="M 70.5 80 L 75 82.5 L 73.5 82 Q 69.8 81.7 70.5 80 Z " /><path fill="rgb(93,92,86)" stroke="rgb(93,92,86)" stroke-width="1" opacity="1" d="M 137.5 80 L 139 80.5 L 134 84.5 L 133.5 92 L 133 84.5 L 135 81 L 137.5 80 Z " /><path fill="rgb(93,92,86)" stroke="rgb(93,92,86)" stroke-width="1" opacity="1" d="M 143.5 80 L 148 82.5 L 146.5 82 Q 142.8 81.7 143.5 80 Z " /><path fill="rgb(93,92,86)" stroke="rgb(93,92,86)" stroke-width="1" opacity="1" d="M 76.5 83 L 77.5 85 L 76.5 83 Z " /><path fill="rgb(93,92,86)" stroke="rgb(93,92,86)" stroke-width="1" opacity="1" d="M 150.5 85 L 153 88.5 L 152 88.5 L 150.5 85 Z " /><path fill="rgb(93,92,86)" stroke="rgb(93,92,86)" stroke-width="1" opacity="1" d="M 78.5 86 L 80 88.5 L 79 88.5 L 78.5 86 Z " /><path fill="rgb(93,92,86)" stroke="rgb(93,92,86)" stroke-width="1" opacity="1" d="M 33.5 87 L 34 88.5 L 31.5 93 L 31 90.5 L 33.5 87 Z " /><path fill="rgb(93,92,86)" stroke="rgb(93,92,86)" stroke-width="1" opacity="1" d="M 60.5 90 L 63 94.5 L 61 93.5 L 60.5 90 Z " /><path fill="rgb(93,92,86)" stroke="rgb(93,92,86)" stroke-width="1" opacity="1" d="M 80.5 90 L 81 92.5 L 80 92.5 L 80.5 90 Z " /><path fill="rgb(93,92,86)" stroke="rgb(93,92,86)" stroke-width="1" opacity="1" d="M 105.5 91 L 106 92.5 L 103.5 98 L 103 95.5 L 105.5 91 Z " /><path fill="rgb(93,92,86)" stroke="rgb(93,92,86)" stroke-width="1" opacity="1" d="M 88.5 92 Q 91.8 95.2 91 102.5 L 90 102.5 L 88.5 92 Z " /><path fill="rgb(93,92,86)" stroke="rgb(93,92,86)" stroke-width="1" opacity="1" d="M 80.5 94 L 81 95.5 L 79.5 98 L 79 96.5 L 80.5 94 Z " /><path fill="rgb(93,92,86)" stroke="rgb(93,92,86)" stroke-width="1" opacity="1" d="M 31.5 95 L 34 104.5 L 32 103.5 L 31.5 95 Z " /><path fill="rgb(93,92,86)" stroke="rgb(93,92,86)" stroke-width="1" opacity="1" d="M 136.5 95 L 138 97.5 L 136 96.5 L 136.5 95 Z " /><path fill="rgb(93,92,86)" stroke="rgb(93,92,86)" stroke-width="1" opacity="1" d="M 152.5 96 L 153 97.5 Q 150.8 102.3 142.5 101 L 139 98.5 L 140.5 99 L 148.5 100 L 152 98 L 152.5 96 Z " /><path fill="rgb(93,92,86)" stroke="rgb(93,92,86)" stroke-width="1" opacity="1" d="M 66.5 98 L 72 100.5 L 70.5 101 Q 66.5 100.5 66.5 98 Z " /><path fill="rgb(93,92,86)" stroke="rgb(93,92,86)" stroke-width="1" opacity="1" d="M 76.5 99 L 78 99.5 L 73.5 101 L 73.5 100 L 76.5 99 Z " /><path fill="rgb(93,92,86)" stroke="rgb(93,92,86)" stroke-width="1" opacity="1" d="M 102.5 102 L 103 107.5 L 102 107.5 L 102.5 102 Z " /><path fill="rgb(93,92,86)" stroke="rgb(93,92,86)" stroke-width="1" opacity="1" d="M 159.5 105 L 159 106.5 L 154.5 114 L 154 112.5 L 159.5 105 Z " /><path fill="rgb(93,92,86)" stroke="rgb(93,92,86)" stroke-width="1" opacity="1" d="M 34.5 106 L 50.5 124 L 53 125.5 L 52.5 127 L 50 126 L 48.5 123 L 45.5 121 L 43 117 Q 40.3 118.1 41 115.5 L 38 114 L 38 111.5 L 34.5 106 Z " /><path fill="rgb(93,92,86)" stroke="rgb(93,92,86)" stroke-width="1" opacity="1" d="M 90.5 107 L 91 111.5 L 88.5 117 L 88 114.5 L 90.5 107 Z " /><path fill="rgb(93,92,86)" stroke="rgb(93,92,86)" stroke-width="1" opacity="1" d="M 103.5 111 L 106 117.5 L 104 116.5 L 103.5 111 Z " /><path fill="rgb(93,92,86)" stroke="rgb(93,92,86)" stroke-width="1" opacity="1" d="M 151 115 L 153 115.5 L 150 120 L 135.5 130 L 136.5 128 L 144 124 L 145.5 121 L 148 119.5 Q 147.3 117.3 149.5 118 L 151 115 Z " /><path fill="rgb(93,92,86)" stroke="rgb(93,92,86)" stroke-width="1" opacity="1" d="M 87.5 118 L 88 119.5 L 84 126 L 81 127.5 Q 81.8 129.8 79.5 129 Q 77.5 133 71.5 133 L 71.5 132 L 78 130 Q 76.9 127.3 79.5 128 L 82 124 Q 84.7 125.1 84 122.5 L 87.5 118 Z " /><path fill="rgb(93,92,86)" stroke="rgb(93,92,86)" stroke-width="1" opacity="1" d="M 106.5 119 L 112 127 L 115 128.5 L 114.5 130 L 106 120.5 L 106.5 119 Z " /><path fill="rgb(93,92,86)" stroke="rgb(93,92,86)" stroke-width="1" opacity="1" d="M 54.5 127 L 68 132.5 L 64.5 133 L 55.5 129 L 54.5 127 Z " /><path fill="rgb(93,92,86)" stroke="rgb(93,92,86)" stroke-width="1" opacity="1" d="M 116.5 130 L 123 132.5 L 119.5 133 L 116.5 130 Z " /><path fill="rgb(93,92,86)" stroke="rgb(93,92,86)" stroke-width="1" opacity="1" d="M 132.5 130 L 134 130.5 L 132.5 132 L 125.5 133 L 125.5 132 L 132.5 130 Z " /><path fill="rgb(93,92,86)" stroke="rgb(93,92,86)" stroke-width="1" opacity="1" d="M 84.5 144 L 88 144.5 L 84.5 145 L 84.5 144 Z " /><path fill="rgb(93,92,86)" stroke="rgb(93,92,86)" stroke-width="1" opacity="1" d="M 106.5 144 L 110 144.5 L 106.5 145 L 106.5 144 Z " /><path fill="rgb(93,92,86)" stroke="rgb(93,92,86)" stroke-width="1" opacity="1" d="M 82.5 145 L 81.5 147 L 82.5 145 Z " /><path fill="rgb(93,92,86)" stroke="rgb(93,92,86)" stroke-width="1" opacity="1" d="M 89.5 145 L 92.5 149 L 89.5 145 Z " /><path fill="rgb(93,92,86)" stroke="rgb(93,92,86)" stroke-width="1" opacity="1" d="M 80.5 148 L 81 150.5 L 80 150.5 L 80.5 148 Z " /><path fill="rgb(93,92,86)" stroke="rgb(93,92,86)" stroke-width="1" opacity="1" d="M 95.5 149 L 99 149.5 L 95.5 150 L 95.5 149 Z " /><path fill="rgb(93,92,86)" stroke="rgb(93,92,86)" stroke-width="1" opacity="1" d="M 81.5 152 L 86.5 158 L 84 157 Q 85.1 154.3 82.5 155 L 81.5 152 Z " /><path fill="rgb(93,92,86)" stroke="rgb(93,92,86)" stroke-width="1" opacity="1" d="M 111.5 153 L 110.5 155 L 111.5 153 Z " /><path fill="rgb(93,92,86)" stroke="rgb(93,92,86)" stroke-width="1" opacity="1" d="M 104.5 158 L 106 158.5 L 97.5 161 L 97.5 160 L 104.5 158 Z " /><path fill="rgb(93,92,86)" stroke="rgb(93,92,86)" stroke-width="1" opacity="1" d="M 90.5 159 L 96 160.5 L 92.5 161 L 90.5 159 Z " /><path fill="rgb(146,154,134)" stroke="rgb(146,154,134)" stroke-width="1" opacity="0.49019607843137253" d="M 92.5 22 L 101 22.5 L 92.5 23 L 92.5 22 Z " /><path fill="rgb(146,154,134)" stroke="rgb(146,154,134)" stroke-width="1" opacity="0.49019607843137253" d="M 107.5 22 L 113 23.5 L 107.5 25 L 107.5 22 Z " /><path fill="rgb(146,154,134)" stroke="rgb(146,154,134)" stroke-width="1" opacity="0.49019607843137253" d="M 79.5 23 Q 86.4 21 85 25 L 79.5 24 L 79.5 23 Z " /><path fill="rgb(146,154,134)" stroke="rgb(146,154,134)" stroke-width="1" opacity="0.49019607843137253" d="M 77.5 24 L 78 26 L 75 25.5 L 77.5 24 Z " /><path fill="rgb(146,154,134)" stroke="rgb(146,154,134)" stroke-width="1" opacity="0.49019607843137253" d="M 71.5 25 L 72 27 L 68 26.5 L 71.5 25 Z " /><path fill="rgb(146,154,134)" stroke="rgb(146,154,134)" stroke-width="1" opacity="0.49019607843137253" d="M 115.5 25 L 118 25.5 L 115.5 26 L 115.5 25 Z " /><path fill="rgb(146,154,134)" stroke="rgb(146,154,134)" stroke-width="1" opacity="0.49019607843137253" d="M 121.5 26 L 124 26.5 L 121.5 27 L 121.5 26 Z " /><path fill="rgb(146,154,134)" stroke="rgb(146,154,134)" stroke-width="1" opacity="0.49019607843137253" d="M 135.5 31 L 136.5 33 L 135.5 31 Z " /><path fill="rgb(146,154,134)" stroke="rgb(146,154,134)" stroke-width="1" opacity="0.49019607843137253" d="M 52.5 34 L 51.5 36 L 52.5 34 Z " /><path fill="rgb(146,154,134)" stroke="rgb(146,154,134)" stroke-width="1" opacity="0.49019607843137253" d="M 162.5 58 L 164.5 61 L 162.5 58 Z " /><path fill="rgb(146,154,134)" stroke="rgb(146,154,134)" stroke-width="1" opacity="0.49019607843137253" d="M 165.5 63 L 167 65.5 L 165 64.5 L 165.5 63 Z " /><path fill="rgb(146,154,134)" stroke="rgb(146,154,134)" stroke-width="1" opacity="0.49019607843137253" d="M 21.5 77 L 22 80.5 L 21 80.5 L 21.5 77 Z " /><path fill="rgb(146,154,134)" stroke="rgb(146,154,134)" stroke-width="1" opacity="0.49019607843137253" d="M 75.5 83 L 77.5 86 L 75.5 83 Z " /><path fill="rgb(146,154,134)" stroke="rgb(146,154,134)" stroke-width="1" opacity="0.49019607843137253" d="M 148.5 83 L 149.5 85 L 148.5 83 Z " /><path fill="rgb(146,154,134)" stroke="rgb(146,154,134)" stroke-width="1" opacity="0.49019607843137253" d="M 172.5 83 L 173 89.5 L 172 89.5 L 172.5 83 Z " /><path fill="rgb(146,154,134)" stroke="rgb(146,154,134)" stroke-width="1" opacity="0.49019607843137253" d="M 20.5 85 L 21 88.5 L 20 88.5 L 20.5 85 Z " /><path fill="rgb(146,154,134)" stroke="rgb(146,154,134)" stroke-width="1" opacity="0.49019607843137253" d="M 60.5 87 L 61 89.5 L 60 89.5 L 60.5 87 Z " /><path fill="rgb(146,154,134)" stroke="rgb(146,154,134)" stroke-width="1" opacity="0.49019607843137253" d="M 18.5 89 L 19 104.5 L 18 104.5 L 18.5 89 Z " /><path fill="rgb(146,154,134)" stroke="rgb(146,154,134)" stroke-width="1" opacity="0.49019607843137253" d="M 137.5 96 L 138.5 98 L 137.5 96 Z " /><path fill="rgb(146,154,134)" stroke="rgb(146,154,134)" stroke-width="1" opacity="0.49019607843137253" d="M 20.5 105 L 21 110.5 L 20 110.5 L 20.5 105 Z " /><path fill="rgb(146,154,134)" stroke="rgb(146,154,134)" stroke-width="1" opacity="0.49019607843137253" d="M 172.5 105 L 173 112.5 L 172 112.5 L 172.5 105 Z " /><path fill="rgb(146,154,134)" stroke="rgb(146,154,134)" stroke-width="1" opacity="0.49019607843137253" d="M 29.5 133 L 30.5 135 L 29.5 133 Z " /><path fill="rgb(146,154,134)" stroke="rgb(146,154,134)" stroke-width="1" opacity="0.49019607843137253" d="M 156.5 141 L 155.5 143 L 156.5 141 Z " /><path fill="rgb(146,154,134)" stroke="rgb(146,154,134)" stroke-width="1" opacity="0.49019607843137253" d="M 133.5 161 L 136 161.5 L 133.5 162 L 133.5 161 Z " /><path fill="rgb(146,154,134)" stroke="rgb(146,154,134)" stroke-width="1" opacity="0.49019607843137253" d="M 129.5 164 L 128.5 166 L 129.5 164 Z " /><path fill="rgb(146,154,134)" stroke="rgb(146,154,134)" stroke-width="1" opacity="0.49019607843137253" d="M 71.5 169 L 74 170.5 L 72.5 171 L 71.5 169 Z " /><path fill="rgb(146,154,134)" stroke="rgb(146,154,134)" stroke-width="1" opacity="0.49019607843137253" d="M 118.5 170 L 121 170.5 L 118.5 171 L 118.5 170 Z " /><path fill="rgb(146,154,134)" stroke="rgb(146,154,134)" stroke-width="1" opacity="0.49019607843137253" d="M 105.5 176 L 108 176.5 L 105.5 177 L 105.5 176 Z " /><path fill="rgb(146,154,134)" stroke="rgb(146,154,134)" stroke-width="1" opacity="0.49019607843137253" d="M 91.5 177 L 102 177.5 L 91.5 178 L 91.5 177 Z " /><path fill="rgb(34,35,33)" stroke="rgb(34,35,33)" stroke-width="1" opacity="1" d="M 83.5 145 L 88.5 145 Q 90.8 150.2 98.5 150 L 103 148 Q 101.9 145.3 104.5 146 Q 105.8 143.8 110.5 145 L 113 150.5 L 106.5 158 L 96.5 161 Q 85.6 159.4 81 151.5 Q 80 146 83.5 145 Z " /><path fill="rgb(134,215,47)" stroke="rgb(134,215,47)" stroke-width="1" opacity="1" d="M 85.5 24 L 106.5 24 L 111 25.5 L 107.5 26 L 105.5 25 L 106.5 27 L 114.5 28 L 114.5 26 L 122 28.5 L 119 29.5 L 122.5 30 L 124.5 29 L 129 31.5 L 127 32.5 L 129.5 33 L 131.5 32 Q 144.5 39 154 49.5 L 157 53.5 L 156 56.5 L 157 56.5 L 157.5 55 L 163 62.5 L 162 66.5 L 164 67.5 L 163 64.5 L 164 64.5 L 169 78.5 L 168 83.5 L 169.5 83 Q 172.9 82.1 171 87.5 L 172 88.5 L 172 103.5 L 170 103.5 L 170 106 Q 173 104.8 172 108.5 L 169.5 114 L 168.5 112 L 168 114.5 L 169 118.5 L 159 136 L 156 136.5 L 157 137.5 L 153 141.5 L 151 144.5 L 129.5 162 L 128 161.5 L 126.5 164 L 119.5 168 L 118.5 166 L 115 167 L 115.5 169 L 117.5 168 L 116.5 170 L 113.5 171 L 113.5 169 L 109 170 L 109.5 172 L 111.5 171 L 110.5 173 L 107 174 L 106.5 172 L 102 173.5 L 105 174.5 L 96.5 177 L 87 174.5 L 90 173.5 L 86.5 173 L 84.5 174 L 75 170 L 76 167.5 L 74.5 167 L 72.5 168 L 69 165.5 L 68.5 164 L 66.5 164 L 60 159.5 L 58.5 157 Q 56.7 159.8 55 155.5 L 55.5 154 L 53.5 155 L 41 145 L 29 128.5 L 24 117.5 L 25 117.5 L 25.5 119 L 26 116 Q 22.3 117.5 23 114.5 L 21 105 Q 23.7 106.1 23 103.5 L 22 102.5 L 21 87.5 Q 23.5 86 22 80.5 L 26.5 70 L 29 71 Q 30.1 68.3 27.5 69 L 28 67.5 L 30.5 62 Q 31.7 64.3 33 61.5 L 31 60.5 L 41 46 L 61.5 32 L 62.5 34 L 67 32.5 Q 65.8 29.8 64.5 32 L 63 31.5 L 68.5 29 L 68.5 31 L 74 29.5 L 71 28.5 L 78 26 L 78.5 28 L 79.5 27 L 88 27 Q 89.1 24.3 86.5 25 L 81.5 26 L 81.5 25 L 85.5 24 Z M 135 35 Q 133 38 136 37 L 135 35 Z M 54 38 L 52 40 L 54 40 L 54 38 Z M 41 49 L 39 52 L 41 52 L 41 49 Z M 38 53 L 36 55 L 38 55 L 38 53 Z M 160 59 L 159 62 L 161 62 L 160 59 Z M 50 72 L 49 73 Q 45 72 46 75 L 43 75 L 38 79 L 30 89 L 30 104 Q 36 115 46 123 Q 48 122 47 125 L 53 129 Q 56 128 55 131 L 59 132 Q 62 131 61 134 L 77 134 L 78 133 Q 80 134 79 132 L 82 130 L 91 118 L 93 107 L 91 92 L 84 82 L 77 75 L 74 75 L 70 72 L 50 72 Z M 125 72 L 111 80 Q 112 82 110 81 L 107 85 Q 108 87 105 86 L 101 99 L 102 116 L 109 128 L 115 132 Q 118 131 117 134 L 132 134 L 140 130 Q 142 131 141 128 L 145 127 L 147 124 Q 149 125 148 123 L 151 121 L 153 118 Q 155 119 154 117 L 157 115 L 158 113 Q 157 109 160 110 L 164 102 L 164 91 L 163 90 Q 164 86 161 87 L 161 85 Q 156 76 146 73 L 143 72 L 125 72 Z M 171 90 L 170 93 L 171 93 L 171 90 Z M 165 120 L 166 123 L 167 121 L 165 120 Z M 162 126 L 162 128 L 164 127 L 162 126 Z M 41 140 L 40 142 L 42 143 L 41 140 Z M 84 142 L 81 144 L 78 149 L 79 153 L 84 159 L 87 160 Q 91 159 90 162 L 104 162 L 104 160 L 110 159 L 111 156 L 114 155 Q 115 147 113 144 L 109 142 Q 104 141 103 144 L 101 147 L 98 148 L 94 147 L 92 144 L 84 142 Z M 149 142 L 149 144 L 151 143 L 149 142 Z M 146 145 L 146 147 L 148 146 L 146 145 Z M 48 147 Q 46 150 49 149 L 48 147 Z M 143 148 L 143 150 L 145 149 L 143 148 Z M 140 151 L 140 153 L 142 152 L 140 151 Z " /><path fill="rgb(134,215,47)" stroke="rgb(134,215,47)" stroke-width="1" opacity="1" d="M 20.5 97 L 21 100.5 L 20 100.5 L 20.5 97 Z " /><path fill="rgb(83,53,101)" stroke="rgb(83,53,101)" stroke-width="1" opacity="1" d="M 58.5 73 L 65 74.5 L 54.5 75 L 54.5 74 L 58.5 73 Z " /><path fill="rgb(83,53,101)" stroke="rgb(83,53,101)" stroke-width="1" opacity="1" d="M 132.5 73 L 140 74.5 L 128.5 75 L 128.5 74 L 132.5 73 Z " /><path fill="rgb(83,53,101)" stroke="rgb(83,53,101)" stroke-width="1" opacity="1" d="M 50.5 75 L 52 75.5 L 43 79 L 43 81 L 41 81 Q 42.1 83.7 39.5 83 L 36.5 85 L 38.5 82 L 41.5 80 L 50.5 75 Z " /><path fill="rgb(83,53,101)" stroke="rgb(83,53,101)" stroke-width="1" opacity="1" d="M 67.5 75 Q 79.4 77.6 85 86.5 L 89 95.5 L 87 94.5 L 83 85 L 80 83.5 Q 80.8 81.3 78.5 82 L 76 81 Q 77.1 78.3 74.5 79 L 67.5 76 L 67.5 75 Z " /><path fill="rgb(83,53,101)" stroke="rgb(83,53,101)" stroke-width="1" opacity="1" d="M 124.5 75 Q 127.1 74.3 126 77 L 119.5 78 L 111 85.5 L 109.5 88 L 108 87.5 L 112.5 82 L 124.5 75 Z " /><path fill="rgb(83,53,101)" stroke="rgb(83,53,101)" stroke-width="1" opacity="1" d="M 142.5 75 Q 150 76.4 154 81.5 L 152.5 82 L 148.5 78 L 143.5 77 L 142.5 75 Z " /><path fill="rgb(83,53,101)" stroke="rgb(83,53,101)" stroke-width="1" opacity="1" d="M 155.5 82 L 161 90.5 L 159 91 L 157 85 Q 153.5 86.1 155.5 82 Z " /><path fill="rgb(83,53,101)" stroke="rgb(83,53,101)" stroke-width="1" opacity="1" d="M 34 86 Q 36.7 84.9 36 87.5 L 35 90 L 33 89.5 L 34 86 Z " /><path fill="rgb(83,53,101)" stroke="rgb(83,53,101)" stroke-width="1" opacity="1" d="M 106 89 Q 108.7 87.9 108 90.5 L 107 94 L 105 93.5 L 106 89 Z " /><path fill="rgb(83,53,101)" stroke="rgb(83,53,101)" stroke-width="1" opacity="1" d="M 32.5 92 L 33 98.5 L 32 98.5 L 31 93.5 L 32.5 92 Z " /><path fill="rgb(83,53,101)" stroke="rgb(83,53,101)" stroke-width="1" opacity="1" d="M 104.5 96 L 105 99.5 L 104 100.5 L 104 109.5 L 105 112.5 L 104 112.5 L 103 110.5 L 103 98.5 L 104.5 96 Z " /><path fill="rgb(83,53,101)" stroke="rgb(83,53,101)" stroke-width="1" opacity="1" d="M 89.5 99 L 91 106.5 L 89.5 110 L 89 106.5 L 90 104.5 Q 87.6 103.2 89.5 99 Z " /><path fill="rgb(83,53,101)" stroke="rgb(83,53,101)" stroke-width="1" opacity="1" d="M 159 100 L 161 100.5 L 160 104.5 L 152.5 115 Q 149.9 115.7 151 113 L 154 111.5 L 155 108 Q 157.7 109.1 157 106.5 L 159 100 Z " /><path fill="rgb(83,53,101)" stroke="rgb(83,53,101)" stroke-width="1" opacity="1" d="M 33.5 101 L 39 110.5 L 37 109.5 Q 33 106.4 33.5 101 Z " /><path fill="rgb(83,53,101)" stroke="rgb(83,53,101)" stroke-width="1" opacity="1" d="M 40.5 112 L 43.5 116 Q 45.8 115.3 45 117.5 L 48 119 L 49.5 122 L 52 123.5 L 50.5 124 L 40 113.5 L 40.5 112 Z " /><path fill="rgb(83,53,101)" stroke="rgb(83,53,101)" stroke-width="1" opacity="1" d="M 87 113 L 89 113.5 L 84 124 Q 81.3 122.9 82 125.5 L 79 127.5 L 86 118.5 L 87 113 Z " /><path fill="rgb(83,53,101)" stroke="rgb(83,53,101)" stroke-width="1" opacity="1" d="M 105.5 115 Q 108.1 114.2 107 117.5 L 113 126.5 L 112 126.5 L 106 118.5 L 105.5 115 Z " /><path fill="rgb(83,53,101)" stroke="rgb(83,53,101)" stroke-width="1" opacity="1" d="M 149.5 116 L 151 116.5 L 148.5 118 L 149.5 116 Z " /><path fill="rgb(83,53,101)" stroke="rgb(83,53,101)" stroke-width="1" opacity="1" d="M 146.5 119 L 148 119.5 L 144 122.5 Q 144.8 124.8 142.5 124 L 134.5 130 L 130 131 Q 128.7 127.7 133.5 129 L 146.5 119 Z " /><path fill="rgb(83,53,101)" stroke="rgb(83,53,101)" stroke-width="1" opacity="1" d="M 53 125 L 64 130.5 L 62.5 131 L 53 127 L 53 125 Z " /><path fill="rgb(83,53,101)" stroke="rgb(83,53,101)" stroke-width="1" opacity="1" d="M 114.5 127 L 119 130.5 L 117.5 130 Q 114.2 131.1 115 128.5 L 114.5 127 Z " /><path fill="rgb(83,53,101)" stroke="rgb(83,53,101)" stroke-width="1" opacity="1" d="M 77.5 128 L 78 130 L 74.5 131 L 75.5 129 L 77.5 128 Z " /><path fill="rgb(83,53,101)" stroke="rgb(83,53,101)" stroke-width="1" opacity="1" d="M 66.5 131 L 73 131.5 L 68.5 133 L 66.5 131 Z " /><path fill="rgb(83,53,101)" stroke="rgb(83,53,101)" stroke-width="1" opacity="1" d="M 121.5 131 L 127 131.5 L 123.5 133 L 121.5 131 Z " /><path fill="rgb(83,53,102)" stroke="rgb(83,53,102)" stroke-width="1" opacity="1" d="M 52.5 75 L 66.5 75 L 76 79 Q 74.9 81.7 77.5 81 L 80 82 L 81.5 85 Q 84.1 84.2 83 87.5 L 89 96.5 L 90 105.5 L 89 106.5 L 89 113 Q 86 111.8 87 115.5 L 79 128 L 73.5 131 L 64.5 131 L 57.5 128 L 54.5 125 L 52 125 L 50.5 122 L 48 120.5 Q 48.8 118.3 46.5 119 L 45 116 L 42 114.5 L 40.5 112 Q 37.9 112.8 39 109.5 L 33 100.5 L 33 90 Q 35.7 91.1 35 88.5 L 36 85 L 41 83 L 41 81 L 43 81 Q 41.9 78.3 44.5 79 L 52.5 75 Z M 65 80 L 60 85 L 60 92 L 63 97 L 71 101 Q 75 102 77 100 Q 79 101 78 98 L 80 98 L 81 96 Q 82 88 78 85 L 72 80 L 65 80 Z " /><path fill="rgb(83,53,102)" stroke="rgb(83,53,102)" stroke-width="1" opacity="1" d="M 126 75 L 141.5 75 Q 142.9 78.6 148.5 78 L 152.5 82 L 155 82 L 155 85 Q 157.7 83.9 157 86.5 Q 159.8 87.6 159 91 L 161 91.5 L 161 100 Q 158 98.8 159 102.5 L 157 108 Q 154.3 106.9 155 109.5 L 152.5 113 L 151 113 Q 152.5 116.7 149.5 116 L 148 119 L 135.5 128 L 130 129 L 129.5 131 L 119.5 131 L 113 127 L 108 119.5 L 107 115 Q 103.3 116.3 105 110.5 L 104 109.5 L 104 100.5 L 105 94 Q 108 95.3 107 91.5 L 108 88 L 111 86.5 L 115.5 81 L 119.5 78 L 126 77 L 126 75 Z M 138 80 L 135 81 L 133 85 Q 132 93 136 97 L 143 101 Q 151 102 153 98 L 153 88 L 150 83 L 145 80 L 138 80 Z " /></svg>