<svg width="200" height="200" version="1.1" xmlns="http://www.w3.org/2000/svg" desc="Created with imagetracer.js version 1.2.6" ><path fill="rgb(0,0,0)" stroke="rgb(0,0,0)" stroke-width="1" opacity="0" d="M 0 0 L 200 0 L 200 200 L 0 200 L 0 0 Z M 87 20 L 87 22 L 85 21 L 80 21 L 74 23 L 70 26 L 67 26 L 59 30 Q 56 29 57 32 L 50 36 L 36 50 L 36 52 L 34 53 L 31 57 L 29 66 L 25 67 Q 26 71 23 74 L 24 78 L 22 78 Q 23 82 20 81 L 19 88 L 19 115 Q 22 116 20 122 L 22 124 Q 21 127 24 126 L 23 128 L 23 131 L 27 140 Q 26 142 29 141 L 29 144 L 36 154 L 55 171 L 73 180 L 77 179 L 77 181 L 88 184 L 116 184 L 121 183 L 123 181 Q 126 182 125 179 L 128 180 L 136 178 L 141 175 L 140 174 L 142 174 L 149 171 L 150 168 L 153 168 L 158 164 L 165 156 Q 164 153 167 154 L 171 148 Q 170 145 173 146 L 177 137 L 176 134 L 178 133 L 180 130 L 183 118 Q 184 113 182 112 L 183 105 L 181 106 L 181 105 L 180 104 L 173 113 L 160 126 L 161 127 L 160 126 L 148 135 L 144 134 Q 137 133 135 136 L 118 136 L 117 135 Q 112 134 111 136 L 110 134 L 116 133 L 116 131 Q 117 134 123 132 L 124 131 L 124 123 L 121 120 L 114 121 L 114 120 L 112 119 L 110 117 L 106 113 Q 103 112 104 109 L 102 109 L 103 107 L 102 101 Q 100 97 94 99 L 91 102 Q 92 108 89 111 Q 90 114 88 113 L 83 119 L 79 115 L 76 113 L 77 111 Q 76 104 71 101 L 69 90 L 67 86 L 67 69 Q 70 66 69 60 Q 72 58 71 54 L 78 44 Q 77 40 80 41 L 85 34 L 98 25 L 97 23 L 98 20 L 96 21 L 87 20 Z " /><path fill="rgb(170,125,54)" stroke="rgb(170,125,54)" stroke-width="1" opacity="0.996078431372549" d="M 80.5 27 L 84 27.5 L 81 29.5 L 80.5 28 L 74.5 30 L 74.5 29 L 80.5 27 Z " /><path fill="rgb(170,125,54)" stroke="rgb(170,125,54)" stroke-width="1" opacity="0.996078431372549" d="M 72.5 30 L 71.5 32 Q 51.8 39.3 40.5 55 L 42 52.5 Q 41.3 50.3 43.5 51 L 49.5 44 Q 59.1 35.1 72.5 30 Z " /><path fill="rgb(170,125,54)" stroke="rgb(170,125,54)" stroke-width="1" opacity="0.996078431372549" d="M 79.5 30 L 80 31.5 Q 66.4 43.4 62.5 65 L 62 61.5 L 70 41.5 L 79.5 30 Z " /><path fill="rgb(170,125,54)" stroke="rgb(170,125,54)" stroke-width="1" opacity="0.996078431372549" d="M 39.5 56 L 38 58.5 L 34.5 64 L 31 62.5 L 32.5 63 L 37 59.5 L 39.5 56 Z " /><path fill="rgb(170,125,54)" stroke="rgb(170,125,54)" stroke-width="1" opacity="0.996078431372549" d="M 61.5 66 L 62 69.5 L 61 69.5 L 61.5 66 Z " /><path fill="rgb(170,125,54)" stroke="rgb(170,125,54)" stroke-width="1" opacity="0.996078431372549" d="M 29.5 67 L 32 70.5 L 27.5 82 L 27 79.5 L 31 69.5 L 29.5 67 Z " /><path fill="rgb(170,125,54)" stroke="rgb(170,125,54)" stroke-width="1" opacity="0.996078431372549" d="M 26.5 83 L 27 86.5 L 26 86.5 L 26.5 83 Z " /><path fill="rgb(170,125,54)" stroke="rgb(170,125,54)" stroke-width="1" opacity="0.996078431372549" d="M 61.5 83 L 62 86.5 L 61 86.5 L 61.5 83 Z " /><path fill="rgb(170,125,54)" stroke="rgb(170,125,54)" stroke-width="1" opacity="0.996078431372549" d="M 25.5 88 L 26 92.5 L 25 92.5 L 25.5 88 Z " /><path fill="rgb(170,125,54)" stroke="rgb(170,125,54)" stroke-width="1" opacity="0.996078431372549" d="M 62.5 88 L 66 100.5 L 65 100.5 L 62 92.5 L 62.5 88 Z " /><path fill="rgb(170,125,54)" stroke="rgb(170,125,54)" stroke-width="1" opacity="0.996078431372549" d="M 24.5 97 L 25 106.5 L 24 106.5 L 24.5 97 Z " /><path fill="rgb(170,125,54)" stroke="rgb(170,125,54)" stroke-width="1" opacity="0.996078431372549" d="M 66.5 102 L 74.5 115 L 76 115.5 L 74.5 116 Q 67.8 110.6 66.5 102 Z " /><path fill="rgb(170,125,54)" stroke="rgb(170,125,54)" stroke-width="1" opacity="0.996078431372549" d="M 96 105 Q 99.3 103.7 98 108.5 L 100 114.5 L 99 114.5 L 96.5 108 L 94.5 114 L 94 112.5 L 96 105 Z " /><path fill="rgb(170,125,54)" stroke="rgb(170,125,54)" stroke-width="1" opacity="0.996078431372549" d="M 25.5 110 L 26 115.5 L 25 115.5 L 25.5 110 Z " /><path fill="rgb(170,125,54)" stroke="rgb(170,125,54)" stroke-width="1" opacity="0.996078431372549" d="M 100.5 116 L 106.5 123 L 102 119.5 L 100.5 116 Z " /><path fill="rgb(170,125,54)" stroke="rgb(170,125,54)" stroke-width="1" opacity="0.996078431372549" d="M 26.5 117 L 33 135.5 L 31 134.5 L 26 120.5 L 26.5 117 Z " /><path fill="rgb(170,125,54)" stroke="rgb(170,125,54)" stroke-width="1" opacity="0.996078431372549" d="M 92.5 117 L 91 119.5 Q 91.8 121.8 89.5 121 L 87 122.5 L 92.5 117 Z " /><path fill="rgb(170,125,54)" stroke="rgb(170,125,54)" stroke-width="1" opacity="0.996078431372549" d="M 80.5 119 L 79.5 121 Q 73 120 71 123.5 L 70 126.5 L 73.5 131 L 83.5 133 L 86 135.5 L 83.5 134 L 73.5 132 L 70 128.5 L 69 125.5 L 72.5 121 L 80.5 119 Z " /><path fill="rgb(170,125,54)" stroke="rgb(170,125,54)" stroke-width="1" opacity="0.996078431372549" d="M 175.5 119 Q 177.8 118.3 177 120.5 L 175.5 123 L 174.5 121 Q 167.3 129.8 156.5 135 L 154 134 L 154.5 132 Q 156 135.5 157.5 133 L 163.5 130 L 175.5 119 Z " /><path fill="rgb(170,125,54)" stroke="rgb(170,125,54)" stroke-width="1" opacity="0.996078431372549" d="M 111.5 124 L 118 125 Q 119.1 127.7 116.5 127 L 109.5 129 L 109.5 128 L 115 126.5 Q 110.8 125.9 111.5 124 Z " /><path fill="rgb(170,125,54)" stroke="rgb(170,125,54)" stroke-width="1" opacity="0.996078431372549" d="M 76 125 L 80 125.5 L 79.5 127 Q 85.3 127.3 88 130.5 L 86.5 130 L 76 127 L 76 125 Z " /><path fill="rgb(170,125,54)" stroke="rgb(170,125,54)" stroke-width="1" opacity="0.996078431372549" d="M 173.5 127 L 174 129.5 L 166.5 143 L 167 141.5 L 173.5 127 Z " /><path fill="rgb(170,125,54)" stroke="rgb(170,125,54)" stroke-width="1" opacity="0.996078431372549" d="M 107.5 129 L 106.5 131 L 101.5 135 L 105.5 130 L 107.5 129 Z " /><path fill="rgb(170,125,54)" stroke="rgb(170,125,54)" stroke-width="1" opacity="0.996078431372549" d="M 89.5 131 Q 93.8 133.8 95 139.5 L 94 139.5 L 89.5 131 Z " /><path fill="rgb(170,125,54)" stroke="rgb(170,125,54)" stroke-width="1" opacity="0.996078431372549" d="M 149.5 135 L 150 136.5 L 145.5 140 L 132.5 142 L 132.5 141 L 145.5 139 L 149 136.5 L 149.5 135 Z " /><path fill="rgb(170,125,54)" stroke="rgb(170,125,54)" stroke-width="1" opacity="0.996078431372549" d="M 87.5 136 L 91 141.5 L 92 148.5 L 91 148.5 L 90 141.5 L 87 137.5 L 87.5 136 Z " /><path fill="rgb(170,125,54)" stroke="rgb(170,125,54)" stroke-width="1" opacity="0.996078431372549" d="M 106.5 136 L 106 137.5 Q 103 141.5 103 148.5 L 98.5 154 L 93 152.5 L 94.5 152 L 97.5 153 L 101 150.5 Q 101.7 141.2 106.5 136 Z " /><path fill="rgb(170,125,54)" stroke="rgb(170,125,54)" stroke-width="1" opacity="0.996078431372549" d="M 33.5 137 L 43 152 Q 45.7 150.9 45 153.5 Q 54.1 163.4 66.5 170 L 82.5 176 L 93 177.5 L 87.5 178 L 75.5 175 L 62.5 169 Q 50.6 161.9 42 151.5 L 33 138.5 L 33.5 137 Z " /><path fill="rgb(170,125,54)" stroke="rgb(170,125,54)" stroke-width="1" opacity="0.996078431372549" d="M 111.5 137 L 113.5 140 L 115 140.5 L 112 141 L 111.5 137 Z " /><path fill="rgb(170,125,54)" stroke="rgb(170,125,54)" stroke-width="1" opacity="0.996078431372549" d="M 98.5 140 L 99 143.5 L 98 148 Q 95 149.3 96 145.5 L 95 141.5 L 96 141.5 L 96.5 145 L 98.5 140 Z " /><path fill="rgb(170,125,54)" stroke="rgb(170,125,54)" stroke-width="1" opacity="0.996078431372549" d="M 116.5 141 L 120 141.5 L 116.5 142 L 116.5 141 Z " /><path fill="rgb(170,125,54)" stroke="rgb(170,125,54)" stroke-width="1" opacity="0.996078431372549" d="M 165.5 144 L 164 146.5 L 160.5 151 L 163 147.5 L 165.5 144 Z " /><path fill="rgb(170,125,54)" stroke="rgb(170,125,54)" stroke-width="1" opacity="0.996078431372549" d="M 159.5 152 L 150.5 162 L 147.5 164 L 150.5 160 L 159.5 152 Z " /><path fill="rgb(170,125,54)" stroke="rgb(170,125,54)" stroke-width="1" opacity="0.996078431372549" d="M 145.5 164 L 143.5 167 Q 135.3 173.8 122.5 176 L 122.5 175 Q 136.6 172.1 145.5 164 Z " /><path fill="rgb(170,125,54)" stroke="rgb(170,125,54)" stroke-width="1" opacity="0.996078431372549" d="M 112.5 177 L 117 177.5 L 112.5 178 L 112.5 177 Z " /><path fill="rgb(170,125,54)" stroke="rgb(170,125,54)" stroke-width="1" opacity="0.996078431372549" d="M 96.5 178 L 109 178.5 L 96.5 179 L 96.5 178 Z " /><path fill="rgb(221,136,51)" stroke="rgb(221,136,51)" stroke-width="1" opacity="0.996078431372549" d="M 80.5 28 L 81 30 L 76 33.5 Q 68 42 64.5 55 Q 62.8 52.2 61 56.5 Q 47.3 74.8 47 106.5 L 48 107.5 L 49 119.5 L 54 134.5 Q 61.8 150.8 74.5 162 Q 86.1 172.4 103 177.5 L 93.5 178 L 82.5 176 L 66.5 170 Q 54.1 163.4 45 153.5 L 43 150.5 Q 31.7 138.8 27 120.5 L 25 109.5 L 25 93.5 L 27 82.5 L 32 69.5 Q 28.5 68 31 66.5 L 32.5 64 Q 36.5 64.5 37 61.5 L 40 55.5 L 54.5 41 Q 65.5 32.5 80.5 28 Z " /><path fill="rgb(221,136,51)" stroke="rgb(221,136,51)" stroke-width="1" opacity="0.996078431372549" d="M 96.5 108 L 97.5 110 L 96.5 108 Z " /><path fill="rgb(221,136,51)" stroke="rgb(221,136,51)" stroke-width="1" opacity="0.996078431372549" d="M 70.5 129 L 71.5 131 L 70.5 129 Z " /><path fill="rgb(221,136,51)" stroke="rgb(221,136,51)" stroke-width="1" opacity="0.996078431372549" d="M 97.5 143 L 96.5 145 L 97.5 143 Z " /><path fill="rgb(221,136,51)" stroke="rgb(221,136,51)" stroke-width="1" opacity="0.996078431372549" d="M 158.5 152 L 157.5 154 L 158.5 152 Z " /><path fill="rgb(19,15,10)" stroke="rgb(19,15,10)" stroke-width="1" opacity="0.9215686274509803" d="M 88.5 21 L 97 21 L 97 24 Q 85.6 29.3 78 39.5 L 68 57.5 L 66 66.5 L 66 87.5 L 69 98.5 L 77 113.5 L 74.5 115 Q 60.7 99.8 61 70.5 L 67 49.5 L 80 30 L 84 27.5 L 80.5 27 Q 59.3 33.3 46 47.5 L 43.5 51 Q 41.3 50.3 42 52.5 L 33.5 63 Q 30.1 63.9 32 58.5 L 44.5 43 L 47.5 41 L 55.5 34 L 69.5 26 L 88.5 21 Z " /><path fill="rgb(19,15,10)" stroke="rgb(19,15,10)" stroke-width="1" opacity="0.9215686274509803" d="M 27.5 68 L 31 69.5 L 25 88.5 L 24 106.5 L 25 107.5 L 26 120.5 L 33 138.5 Q 40.8 152.2 52.5 162 L 62.5 169 L 75.5 175 L 87.5 178 L 108.5 179 L 124.5 176 L 140.5 169 Q 151.8 162.3 160 152.5 L 171 136.5 L 177 119 L 156.5 134 L 155 130.5 Q 166.4 124.4 174 114.5 L 179 106 L 182 106.5 L 182 115.5 Q 175.8 146.3 155.5 163 L 139.5 174 L 122.5 181 L 112.5 183 L 90.5 183 L 79.5 181 L 62.5 174 L 49.5 165 L 39 154.5 L 29 140.5 L 22 122.5 L 20 112.5 L 20 90.5 L 22 80.5 L 27.5 68 Z " /><path fill="rgb(19,15,10)" stroke="rgb(19,15,10)" stroke-width="1" opacity="0.9215686274509803" d="M 95.5 100 Q 100.3 99.3 101 102.5 L 102 109.5 L 107.5 118 Q 112.2 121.8 120.5 122 L 123 124.5 Q 124 129 121.5 130 Q 110.4 130.9 105 137.5 L 102 144.5 L 102 148.5 L 99.5 152 L 95.5 153 L 93 152 L 91 141.5 L 88 136 L 83.5 133 L 73.5 131 L 71 128.5 L 70 125.5 L 72.5 122 L 84.5 119 L 89 114.5 Q 92.5 111 92 103.5 L 95.5 100 Z M 96 105 L 93 117 Q 89 123 81 125 Q 75 123 76 127 L 89 131 L 92 135 L 96 146 Q 95 149 98 148 L 99 140 L 101 136 L 109 129 L 117 127 Q 119 128 118 125 L 108 123 L 100 116 L 98 109 Q 99 104 96 105 Z " /><path fill="rgb(19,15,10)" stroke="rgb(19,15,10)" stroke-width="1" opacity="0.9215686274509803" d="M 141.5 135 L 148.5 135 L 149 136.5 L 145.5 139 L 131.5 142 L 120.5 142 L 115.5 141 L 112 138.5 Q 111.3 136.3 113.5 137 L 115.5 137 L 136.5 137 L 141.5 135 Z " /><path fill="rgb(99,99,99)" stroke="rgb(99,99,99)" stroke-width="1" opacity="0.1803921568627451" d="M 86.5 20 L 91 20.5 L 87.5 22 L 86.5 20 Z " /><path fill="rgb(99,99,99)" stroke="rgb(99,99,99)" stroke-width="1" opacity="0.1803921568627451" d="M 96.5 20 Q 98.8 19.3 98 21.5 L 96.5 20 Z " /><path fill="rgb(99,99,99)" stroke="rgb(99,99,99)" stroke-width="1" opacity="0.1803921568627451" d="M 81.5 21 L 85 21.5 L 70.5 26 L 71.5 24 L 81.5 21 Z " /><path fill="rgb(99,99,99)" stroke="rgb(99,99,99)" stroke-width="1" opacity="0.1803921568627451" d="M 97.5 23 L 98 24.5 L 92.5 29 L 91 28.5 L 89.5 31 L 87.5 31 L 82 36.5 L 82.5 38 Q 81.3 35.8 80 38.5 Q 81.1 41.8 78.5 41 L 77.5 44 L 75 45.5 L 71.5 53 L 71 51.5 Q 77.1 37.6 88.5 29 L 97.5 23 Z " /><path fill="rgb(99,99,99)" stroke="rgb(99,99,99)" stroke-width="1" opacity="0.1803921568627451" d="M 66.5 26 L 69 26.5 L 59.5 32 L 59 30 L 66.5 26 Z " /><path fill="rgb(99,99,99)" stroke="rgb(99,99,99)" stroke-width="1" opacity="0.1803921568627451" d="M 56.5 32 L 58 32.5 L 46 41 Q 47.1 43.7 44.5 43 L 33 56.5 L 32 62 Q 29.3 63.1 30 60.5 L 32.5 55 L 34 54.5 L 33.5 53 L 37 50.5 L 38 47.5 L 49.5 36 L 53.5 33 Q 55 35.5 56.5 32 Z " /><path fill="rgb(99,99,99)" stroke="rgb(99,99,99)" stroke-width="1" opacity="0.1803921568627451" d="M 70.5 54 L 70 57.5 L 67 68.5 L 67 85.5 L 71 99.5 L 69 98.5 L 66 87.5 L 66 66.5 L 68 57.5 L 70.5 54 Z " /><path fill="rgb(99,99,99)" stroke="rgb(99,99,99)" stroke-width="1" opacity="0.1803921568627451" d="M 27.5 67 L 29 67.5 L 26 69.5 L 23.5 76 L 23 74.5 L 27.5 67 Z " /><path fill="rgb(99,99,99)" stroke="rgb(99,99,99)" stroke-width="1" opacity="0.1803921568627451" d="M 22.5 77 L 23 79.5 L 22 79.5 L 22.5 77 Z " /><path fill="rgb(99,99,99)" stroke="rgb(99,99,99)" stroke-width="1" opacity="0.1803921568627451" d="M 21.5 81 L 22 83.5 L 20 90.5 L 20 112.5 L 22 120.5 Q 19.5 122 23 123.5 L 22.5 126 L 20 121.5 Q 21.5 116 19 114.5 L 19 87.5 L 21.5 81 Z " /><path fill="rgb(99,99,99)" stroke="rgb(99,99,99)" stroke-width="1" opacity="0.1803921568627451" d="M 94.5 99 L 99.5 100 L 101 99.5 L 103 106.5 L 102 106.5 Q 101.8 101.8 98.5 100 Q 92.8 99.3 92 103.5 Q 92.5 112.5 87.5 116 L 86.5 114 L 88 114.5 L 90 111.5 L 91 101.5 L 92.5 100 L 94.5 99 Z " /><path fill="rgb(99,99,99)" stroke="rgb(99,99,99)" stroke-width="1" opacity="0.1803921568627451" d="M 72.5 104 Q 74.8 103.3 74 105.5 L 77 110.5 L 74 108.5 L 72.5 104 Z " /><path fill="rgb(99,99,99)" stroke="rgb(99,99,99)" stroke-width="1" opacity="0.1803921568627451" d="M 179.5 104 L 183 105 L 182.5 107 Q 180.8 103.3 179 106.5 Q 173.2 117.7 163.5 125 L 160 126 Q 161.1 128.7 158.5 128 L 155 130.5 L 154.5 132 L 154 129.5 L 163.5 122 Q 165.3 124.8 167 120.5 Q 164.3 118.7 168.5 117 Q 170.2 119.8 172 115.5 Q 169.5 114 173 112.5 L 174.5 110 L 176 110.5 L 179.5 104 Z " /><path fill="rgb(99,99,99)" stroke="rgb(99,99,99)" stroke-width="1" opacity="0.1803921568627451" d="M 103.5 108 L 104 110.5 L 102 109.5 L 103.5 108 Z " /><path fill="rgb(99,99,99)" stroke="rgb(99,99,99)" stroke-width="1" opacity="0.1803921568627451" d="M 182.5 112 L 183 117.5 L 181 122.5 L 181 124.5 Q 180.8 130.3 177.5 133 L 177 131.5 L 179 128.5 L 182.5 112 Z " /><path fill="rgb(99,99,99)" stroke="rgb(99,99,99)" stroke-width="1" opacity="0.1803921568627451" d="M 107.5 114 L 108.5 116 L 107.5 114 Z " /><path fill="rgb(99,99,99)" stroke="rgb(99,99,99)" stroke-width="1" opacity="0.1803921568627451" d="M 105.5 115 L 107.5 118 L 105.5 115 Z " /><path fill="rgb(99,99,99)" stroke="rgb(99,99,99)" stroke-width="1" opacity="0.1803921568627451" d="M 83.5 117 L 86 117.5 L 83 119 L 83.5 117 Z " /><path fill="rgb(99,99,99)" stroke="rgb(99,99,99)" stroke-width="1" opacity="0.1803921568627451" d="M 109.5 118 L 114 119.5 L 111.5 120 L 109.5 118 Z " /><path fill="rgb(99,99,99)" stroke="rgb(99,99,99)" stroke-width="1" opacity="0.1803921568627451" d="M 115.5 120 L 119.5 121 Q 120.8 118.8 122 121.5 Q 124.8 123.2 124 128.5 L 120.5 132 Q 115.2 131.2 113.5 134 L 111 133.5 L 112.5 132 L 119.5 131 L 123 128.5 Q 124 123 120.5 122 L 115.5 121 L 115.5 120 Z " /><path fill="rgb(99,99,99)" stroke="rgb(99,99,99)" stroke-width="1" opacity="0.1803921568627451" d="M 23.5 127 L 27 136.5 L 26 136.5 L 23 130.5 L 23 128.5 L 23.5 127 Z " /><path fill="rgb(99,99,99)" stroke="rgb(99,99,99)" stroke-width="1" opacity="0.1803921568627451" d="M 140.5 134 L 144 134.5 L 136.5 137 L 115.5 137 L 113 136.5 Q 112.1 133.5 116.5 135 L 117.5 136 L 134.5 136 L 140.5 134 Z " /><path fill="rgb(99,99,99)" stroke="rgb(99,99,99)" stroke-width="1" opacity="0.1803921568627451" d="M 176.5 134 L 177 135.5 Q 174.6 143.6 169 148.5 L 169.5 150 L 167 149.5 L 176.5 134 Z " /><path fill="rgb(99,99,99)" stroke="rgb(99,99,99)" stroke-width="1" opacity="0.1803921568627451" d="M 29.5 141 L 34 148.5 L 48 163.5 L 46.5 164 L 39 156.5 L 38 153 L 35 151.5 L 29 143.5 L 29.5 141 Z " /><path fill="rgb(99,99,99)" stroke="rgb(99,99,99)" stroke-width="1" opacity="0.1803921568627451" d="M 165.5 152 L 164 154.5 Q 165 158.3 162 157 L 165.5 152 Z " /><path fill="rgb(99,99,99)" stroke="rgb(99,99,99)" stroke-width="1" opacity="0.1803921568627451" d="M 160.5 158 L 158 161.5 L 158.5 163 L 157 162.5 L 153.5 167 Q 151.8 164.3 150 168.5 L 148.5 171 Q 140.3 172.8 135.5 178 L 127.5 180 L 128.5 178 L 141 174 Q 139.9 171.3 142.5 172 Q 153.3 166.8 160.5 158 Z " /><path fill="rgb(99,99,99)" stroke="rgb(99,99,99)" stroke-width="1" opacity="0.1803921568627451" d="M 50.5 165 L 53.5 169 L 50 166.5 L 50.5 165 Z " /><path fill="rgb(99,99,99)" stroke="rgb(99,99,99)" stroke-width="1" opacity="0.1803921568627451" d="M 55.5 169 L 64 174.5 L 62.5 175 L 54 170.5 L 55.5 169 Z " /><path fill="rgb(99,99,99)" stroke="rgb(99,99,99)" stroke-width="1" opacity="0.1803921568627451" d="M 65.5 175 L 76 179.5 L 74.5 180 L 71.5 179 Q 65.9 178.7 65.5 175 Z " /><path fill="rgb(99,99,99)" stroke="rgb(99,99,99)" stroke-width="1" opacity="0.1803921568627451" d="M 80.5 181 L 90.5 183 L 112.5 183 L 121.5 181 L 120.5 183 L 115.5 184 L 87.5 184 L 80.5 182 L 80.5 181 Z " /><path fill="rgb(241,202,97)" stroke="rgb(241,202,97)" stroke-width="1" opacity="0.9921568627450981" d="M 63.5 54 L 64 56.5 L 62.5 60 Q 60.7 57.3 59 61.5 L 53 74.5 L 49 90.5 L 49 113.5 Q 51.7 116.8 51 123.5 L 60 143.5 L 77.5 163 L 87.5 170 L 100.5 176 L 110.5 177 L 123.5 174 L 123.5 175 L 117.5 177 L 103.5 178 Q 80.8 170.7 67 154.5 L 56 138.5 L 50 123.5 L 47 106.5 L 47 96.5 Q 49.7 94.8 48 88.5 L 53 71.5 L 63.5 54 Z " /><path fill="rgb(241,202,97)" stroke="rgb(241,202,97)" stroke-width="1" opacity="0.9921568627450981" d="M 31.5 63 L 32 64.5 L 30.5 67 L 30 65.5 L 31.5 63 Z " /><path fill="rgb(241,202,97)" stroke="rgb(241,202,97)" stroke-width="1" opacity="0.9921568627450981" d="M 60.5 67 L 61 75.5 L 60 75.5 L 60.5 67 Z " /><path fill="rgb(241,202,97)" stroke="rgb(241,202,97)" stroke-width="1" opacity="0.9921568627450981" d="M 60.5 78 L 61 86.5 L 60 86.5 L 60.5 78 Z " /><path fill="rgb(241,202,97)" stroke="rgb(241,202,97)" stroke-width="1" opacity="0.9921568627450981" d="M 62.5 93 L 63 95.5 L 62 95.5 L 62.5 93 Z " /><path fill="rgb(241,202,97)" stroke="rgb(241,202,97)" stroke-width="1" opacity="0.9921568627450981" d="M 63.5 97 L 70 110.5 L 68 109.5 Q 63.5 104 63.5 97 Z " /><path fill="rgb(241,202,97)" stroke="rgb(241,202,97)" stroke-width="1" opacity="0.9921568627450981" d="M 96.5 109 L 101 118.5 L 104 121.5 L 100 118.5 L 96 111.5 L 96.5 109 Z " /><path fill="rgb(241,202,97)" stroke="rgb(241,202,97)" stroke-width="1" opacity="0.9921568627450981" d="M 70.5 112 L 75.5 116 L 77 115.5 L 74.5 117 L 71 114.5 L 70.5 112 Z " /><path fill="rgb(241,202,97)" stroke="rgb(241,202,97)" stroke-width="1" opacity="0.9921568627450981" d="M 95.5 113 L 96 114.5 L 90.5 122 L 86.5 125 L 79.5 127 L 79.5 126 Q 87.3 124.3 92 119.5 L 95.5 113 Z " /><path fill="rgb(241,202,97)" stroke="rgb(241,202,97)" stroke-width="1" opacity="0.9921568627450981" d="M 75.5 119 L 80 119.5 L 75.5 120 L 75.5 119 Z " /><path fill="rgb(241,202,97)" stroke="rgb(241,202,97)" stroke-width="1" opacity="0.9921568627450981" d="M 72.5 120 L 74 120.5 L 70 123.5 L 69.5 125 L 69 123.5 L 70 121 L 72.5 120 Z " /><path fill="rgb(241,202,97)" stroke="rgb(241,202,97)" stroke-width="1" opacity="0.9921568627450981" d="M 174.5 121 L 175 123.5 L 170.5 134 L 170 132.5 L 173 124.5 L 166.5 130 L 161.5 133 L 162.5 131 Q 170.3 127.8 174.5 121 Z " /><path fill="rgb(241,202,97)" stroke="rgb(241,202,97)" stroke-width="1" opacity="0.9921568627450981" d="M 105.5 122 L 107.5 124 L 115 126.5 L 113.5 127 L 107.5 125 L 105.5 122 Z " /><path fill="rgb(241,202,97)" stroke="rgb(241,202,97)" stroke-width="1" opacity="0.9921568627450981" d="M 82.5 127 Q 90.6 128.4 94 134.5 L 96 139.5 L 95 139.5 Q 93.5 133 88.5 130 L 82.5 128 L 82.5 127 Z " /><path fill="rgb(241,202,97)" stroke="rgb(241,202,97)" stroke-width="1" opacity="0.9921568627450981" d="M 108.5 127 L 111 127.5 Q 103.7 129.7 100 135.5 L 96.5 144 L 96 141.5 L 103 130 L 108.5 127 Z " /><path fill="rgb(241,202,97)" stroke="rgb(241,202,97)" stroke-width="1" opacity="0.9921568627450981" d="M 70.5 130 L 77 132.5 L 73.5 133 L 70.5 130 Z " /><path fill="rgb(241,202,97)" stroke="rgb(241,202,97)" stroke-width="1" opacity="0.9921568627450981" d="M 159.5 133 L 158.5 135 L 159.5 133 Z " /><path fill="rgb(241,202,97)" stroke="rgb(241,202,97)" stroke-width="1" opacity="0.9921568627450981" d="M 84.5 135 L 89 140.5 L 88 140.5 L 84.5 135 Z " /><path fill="rgb(241,202,97)" stroke="rgb(241,202,97)" stroke-width="1" opacity="0.9921568627450981" d="M 107.5 136 L 107 137.5 L 105.5 140 L 106 138.5 L 107.5 136 Z " /><path fill="rgb(241,202,97)" stroke="rgb(241,202,97)" stroke-width="1" opacity="0.9921568627450981" d="M 150.5 136 L 150 137.5 Q 150.8 139.8 148.5 139 L 146.5 140 L 146.5 139 L 150.5 136 Z " /><path fill="rgb(241,202,97)" stroke="rgb(241,202,97)" stroke-width="1" opacity="0.9921568627450981" d="M 168.5 137 L 168 138.5 L 162.5 147 L 164 144.5 L 168.5 137 Z " /><path fill="rgb(241,202,97)" stroke="rgb(241,202,97)" stroke-width="1" opacity="0.9921568627450981" d="M 110.5 138 L 112 140.5 L 111 140.5 L 110.5 138 Z " /><path fill="rgb(241,202,97)" stroke="rgb(241,202,97)" stroke-width="1" opacity="0.9921568627450981" d="M 89.5 142 L 90 144.5 L 89 144.5 L 89.5 142 Z " /><path fill="rgb(241,202,97)" stroke="rgb(241,202,97)" stroke-width="1" opacity="0.9921568627450981" d="M 118.5 142 L 125 142.5 L 118.5 143 L 118.5 142 Z " /><path fill="rgb(241,202,97)" stroke="rgb(241,202,97)" stroke-width="1" opacity="0.9921568627450981" d="M 127.5 142 L 135 142.5 L 127.5 143 L 127.5 142 Z " /><path fill="rgb(241,202,97)" stroke="rgb(241,202,97)" stroke-width="1" opacity="0.9921568627450981" d="M 161.5 148 L 160 150.5 Q 160.8 152.8 158.5 152 L 152.5 159 L 144.5 165 L 146.5 162 L 161.5 148 Z " /><path fill="rgb(241,202,97)" stroke="rgb(241,202,97)" stroke-width="1" opacity="0.9921568627450981" d="M 102.5 149 L 103 151.5 L 99.5 154 L 102 150.5 L 102.5 149 Z " /><path fill="rgb(241,202,97)" stroke="rgb(241,202,97)" stroke-width="1" opacity="0.9921568627450981" d="M 91.5 150 L 93.5 153 L 95 153.5 L 93.5 154 Q 89.9 152.9 91.5 150 Z " /><path fill="rgb(241,202,97)" stroke="rgb(241,202,97)" stroke-width="1" opacity="0.9921568627450981" d="M 142.5 165 L 141.5 167 L 131.5 172 L 131.5 171 L 142.5 165 Z " /><path fill="rgb(241,202,97)" stroke="rgb(241,202,97)" stroke-width="1" opacity="0.9921568627450981" d="M 125.5 173 L 128 173.5 L 125.5 174 L 125.5 173 Z " /><path fill="rgb(248,210,102)" stroke="rgb(248,210,102)" stroke-width="1" opacity="0.996078431372549" d="M 61.5 59 L 62 63.5 L 60 67.5 L 60 86.5 L 62 90.5 L 62 95.5 L 64 101.5 L 72.5 116 L 75.5 117 L 77.5 116 L 79.5 119 L 75.5 119 L 70 121 Q 68.4 123.1 69 128.5 L 71.5 132 L 81.5 134 L 88 139.5 L 91 151.5 L 93.5 154 Q 100.8 155.3 103 151.5 Q 103.2 142 107 137 L 111 137.5 L 111 139.5 Q 110.3 141.8 112.5 141 Q 120.5 145 134.5 143 L 150 139 L 151 136.5 L 150 134 L 154 133 Q 152.7 136.7 158.5 135 Q 166.9 130.9 172.5 124 L 173 126.5 Q 165 149 147.5 162 L 128.5 173 L 117.5 176 L 103.5 177 Q 80 169 66 151.5 L 60 143.5 L 51 123.5 Q 51.7 116.8 49 113.5 L 49 90.5 L 53 74.5 L 59 61.5 L 61.5 59 Z " /><path fill="rgb(248,210,102)" stroke="rgb(248,210,102)" stroke-width="1" opacity="0.996078431372549" d="M 96.5 112 L 103.5 122 Q 106.8 125.8 113 126.5 L 108.5 127 L 103 130 L 96.5 141 Q 94.7 132.8 88.5 129 L 81 126.5 L 86.5 125 L 93 119.5 L 96.5 112 Z " /><path fill="rgb(186,185,183)" stroke="rgb(186,185,183)" stroke-width="1" opacity="0.11372549019607843" d="M 92.5 27 L 92 28.5 L 91.5 30 L 91 28.5 L 92.5 27 Z " /><path fill="rgb(186,185,183)" stroke="rgb(186,185,183)" stroke-width="1" opacity="0.11372549019607843" d="M 59.5 29 L 61 29.5 L 59 30 Q 60 33 57 32 Q 55.9 29.3 58.5 30 L 59.5 29 Z " /><path fill="rgb(186,185,183)" stroke="rgb(186,185,183)" stroke-width="1" opacity="0.11372549019607843" d="M 87.5 31 L 89 31.5 L 85 34 L 83.5 37 Q 81.3 36.3 82 38.5 L 80 39.5 L 87.5 31 Z " /><path fill="rgb(186,185,183)" stroke="rgb(186,185,183)" stroke-width="1" opacity="0.11372549019607843" d="M 49.5 37 L 48.5 39 L 49.5 37 Z " /><path fill="rgb(186,185,183)" stroke="rgb(186,185,183)" stroke-width="1" opacity="0.11372549019607843" d="M 76.5 44 L 77 45.5 L 75 46.5 L 76.5 44 Z " /><path fill="rgb(186,185,183)" stroke="rgb(186,185,183)" stroke-width="1" opacity="0.11372549019607843" d="M 37.5 48 L 37 49.5 L 36.5 51 L 36 49.5 L 37.5 48 Z " /><path fill="rgb(186,185,183)" stroke="rgb(186,185,183)" stroke-width="1" opacity="0.11372549019607843" d="M 30.5 62 L 31 64.5 L 30 67 Q 26.6 66.3 25.5 69 L 25 67 L 29 66 L 30.5 62 Z " /><path fill="rgb(186,185,183)" stroke="rgb(186,185,183)" stroke-width="1" opacity="0.11372549019607843" d="M 72.5 102 L 73.5 104 Q 70.7 104.7 72.5 102 Z " /><path fill="rgb(186,185,183)" stroke="rgb(186,185,183)" stroke-width="1" opacity="0.11372549019607843" d="M 75.5 107 L 77 109.5 L 75 108.5 L 75.5 107 Z " /><path fill="rgb(186,185,183)" stroke="rgb(186,185,183)" stroke-width="1" opacity="0.11372549019607843" d="M 175.5 109 L 176 110.5 L 174 111.5 L 175.5 109 Z " /><path fill="rgb(186,185,183)" stroke="rgb(186,185,183)" stroke-width="1" opacity="0.11372549019607843" d="M 77.5 113 L 82 118.5 L 80.5 119 Q 75.7 117.7 77.5 113 Z " /><path fill="rgb(186,185,183)" stroke="rgb(186,185,183)" stroke-width="1" opacity="0.11372549019607843" d="M 87.5 113 L 88 114.5 L 87 117 L 84.5 118 L 84 116.5 L 87 115 L 87.5 113 Z " /><path fill="rgb(186,185,183)" stroke="rgb(186,185,183)" stroke-width="1" opacity="0.11372549019607843" d="M 105 113 Q 107.7 111.9 107 114.5 L 110 116 Q 111.1 118.7 108.5 118 L 105 113 Z " /><path fill="rgb(186,185,183)" stroke="rgb(186,185,183)" stroke-width="1" opacity="0.11372549019607843" d="M 170.5 115 L 172 115.5 L 164 122.5 L 165.5 120 L 169 117.5 L 170.5 115 Z " /><path fill="rgb(186,185,183)" stroke="rgb(186,185,183)" stroke-width="1" opacity="0.11372549019607843" d="M 122.5 121 L 124 123.5 L 122 122.5 L 122.5 121 Z " /><path fill="rgb(186,185,183)" stroke="rgb(186,185,183)" stroke-width="1" opacity="0.11372549019607843" d="M 123.5 129 L 124 130.5 L 121.5 132 L 123.5 129 Z " /><path fill="rgb(186,185,183)" stroke="rgb(186,185,183)" stroke-width="1" opacity="0.11372549019607843" d="M 153.5 130 L 154 133 L 149.5 135 L 149 133 L 153.5 130 Z " /><path fill="rgb(186,185,183)" stroke="rgb(186,185,183)" stroke-width="1" opacity="0.11372549019607843" d="M 107.5 135 L 110.5 136 L 113 135 Q 114.3 138.7 108.5 137 L 107.5 135 Z " /><path fill="rgb(186,185,183)" stroke="rgb(186,185,183)" stroke-width="1" opacity="0.11372549019607843" d="M 26 137 Q 29 136 28 139 Q 25 140 26 137 Z " /><path fill="rgb(186,185,183)" stroke="rgb(186,185,183)" stroke-width="1" opacity="0.11372549019607843" d="M 173.5 143 L 173 144.5 L 171 147.5 L 169 148.5 L 173.5 143 Z " /><path fill="rgb(186,185,183)" stroke="rgb(186,185,183)" stroke-width="1" opacity="0.11372549019607843" d="M 33.5 149 L 34.5 151 L 33.5 149 Z " /><path fill="rgb(186,185,183)" stroke="rgb(186,185,183)" stroke-width="1" opacity="0.11372549019607843" d="M 167.5 150 Q 169.8 149.3 169 151.5 L 165 154 L 164.5 156 L 164 154.5 L 167.5 150 Z " /><path fill="rgb(186,185,183)" stroke="rgb(186,185,183)" stroke-width="1" opacity="0.11372549019607843" d="M 36.5 153 Q 38.8 152.3 38 154.5 L 38.5 156 L 36.5 153 Z " /><path fill="rgb(186,185,183)" stroke="rgb(186,185,183)" stroke-width="1" opacity="0.11372549019607843" d="M 161 157 Q 163.7 155.9 163 158.5 L 158 162 L 157.5 164 L 157 162.5 L 161 157 Z " /><path fill="rgb(186,185,183)" stroke="rgb(186,185,183)" stroke-width="1" opacity="0.11372549019607843" d="M 47.5 164 L 50 165.5 L 49.5 167 L 47.5 164 Z " /><path fill="rgb(186,185,183)" stroke="rgb(186,185,183)" stroke-width="1" opacity="0.11372549019607843" d="M 152.5 166 L 153 168 L 151 167.5 L 152.5 166 Z " /><path fill="rgb(186,185,183)" stroke="rgb(186,185,183)" stroke-width="1" opacity="0.11372549019607843" d="M 52.5 168 L 55 169.5 L 53.5 170 L 52.5 168 Z " /><path fill="rgb(186,185,183)" stroke="rgb(186,185,183)" stroke-width="1" opacity="0.11372549019607843" d="M 64.5 175 L 65.5 177 L 64.5 175 Z " /></svg>