<svg width="200" height="200" version="1.1" xmlns="http://www.w3.org/2000/svg" desc="Created with imagetracer.js version 1.2.6" ><path fill="rgb(211,211,211)" stroke="rgb(211,211,211)" stroke-width="1" opacity="0.9215686274509803" d="M 144.5 2 L 150 2.5 L 144.5 3 L 144.5 2 Z " /><path fill="rgb(211,211,211)" stroke="rgb(211,211,211)" stroke-width="1" opacity="0.9215686274509803" d="M 159.5 2 L 162 3 Q 163.1 6.3 159 5 L 159.5 2 Z " /><path fill="rgb(211,211,211)" stroke="rgb(211,211,211)" stroke-width="1" opacity="0.9215686274509803" d="M 46.5 3 L 46 4.5 Q 46.7 7.5 43 6 Q 41.8 3 45.5 4 L 46.5 3 Z " /><path fill="rgb(211,211,211)" stroke="rgb(211,211,211)" stroke-width="1" opacity="0.9215686274509803" d="M 168 5 Q 172.1 3.7 171 7 Q 166.9 8.3 168 5 Z " /><path fill="rgb(211,211,211)" stroke="rgb(211,211,211)" stroke-width="1" opacity="0.9215686274509803" d="M 34 6 Q 38.5 4.5 37 9 Q 32.5 10.5 34 6 Z " /><path fill="rgb(211,211,211)" stroke="rgb(211,211,211)" stroke-width="1" opacity="0.9215686274509803" d="M 173 7 Q 176.8 5.5 176 8.5 L 173 10 L 173 7 Z " /><path fill="rgb(211,211,211)" stroke="rgb(211,211,211)" stroke-width="1" opacity="0.9215686274509803" d="M 29 8 Q 33.5 6.5 32 11 Q 27.5 12.5 29 8 Z " /><path fill="rgb(211,211,211)" stroke="rgb(211,211,211)" stroke-width="1" opacity="0.9215686274509803" d="M 177 9 Q 180.7 7.5 180 10.5 L 183 12 L 183 14 L 187 16 L 187 18.5 L 187.5 20 L 185 19 Q 186.1 16.3 183.5 17 L 182 14 Q 179 15 180 12 L 177 12 L 177 9 Z " /><path fill="rgb(211,211,211)" stroke="rgb(211,211,211)" stroke-width="1" opacity="0.9215686274509803" d="M 25 11 Q 28.3 9.9 27 14 L 25 14 L 23 18 L 20 18 Q 21.3 22.1 18 21 L 18 25 L 15 25 L 18 18 L 22 16 L 22 13 Q 26.1 14.3 25 11 Z " /><path fill="rgb(211,211,211)" stroke="rgb(211,211,211)" stroke-width="1" opacity="0.9215686274509803" d="M 95.5 17 L 155.5 17 Q 154.5 20.3 160.5 19 L 166 22 Q 167 25 164 24 L 164 22 Q 159.9 23.3 161 20 L 154.5 20 L 150.5 18 L 95.5 18 L 95.5 17 Z " /><path fill="rgb(211,211,211)" stroke="rgb(211,211,211)" stroke-width="1" opacity="0.9215686274509803" d="M 49.5 18 L 55 18.5 Q 51.5 22.3 44 21 L 44 23 L 41 23 Q 42.1 25.7 39.5 25 L 37 26 L 37 28.5 L 32.5 34 L 32 30 Q 34.7 31.1 34 28.5 L 39 25 Q 37.9 22.3 40.5 23 L 49.5 18 Z " /><path fill="rgb(211,211,211)" stroke="rgb(211,211,211)" stroke-width="1" opacity="0.9215686274509803" d="M 187 21 Q 191.5 19.5 190 24 Q 185.5 25.5 187 21 Z " /><path fill="rgb(211,211,211)" stroke="rgb(211,211,211)" stroke-width="1" opacity="0.9215686274509803" d="M 168.5 24 L 171 29 L 173 29 Q 171.3 34.2 175 33 L 175 40 Q 171 41.4 173 34.5 L 172 31 L 170 31 L 170 27.5 Q 166.8 28.3 168.5 24 Z " /><path fill="rgb(211,211,211)" stroke="rgb(211,211,211)" stroke-width="1" opacity="0.9215686274509803" d="M 13 27 L 16 28.5 L 14.5 33 Q 11.8 31.6 13 27 Z " /><path fill="rgb(211,211,211)" stroke="rgb(211,211,211)" stroke-width="1" opacity="0.9215686274509803" d="M 190 28 Q 193 27 192 30 Q 189 31 190 28 Z " /><path fill="rgb(211,211,211)" stroke="rgb(211,211,211)" stroke-width="1" opacity="0.9215686274509803" d="M 58 34 L 62 34.5 L 60 35 L 60 39 Q 56.7 37.9 58 42 Q 55 41 56 44 L 53 44 L 53 46 L 50 46 L 51.5 43 L 55 43 L 55 41 Q 57.7 42.1 57 39.5 L 58 34 Z " /><path fill="rgb(211,211,211)" stroke="rgb(211,211,211)" stroke-width="1" opacity="0.9215686274509803" d="M 75.5 34 Q 78.9 33.1 77 38.5 L 78 39.5 L 78 147.5 L 76 148.5 L 76 35.5 L 75.5 34 Z " /><path fill="rgb(211,211,211)" stroke="rgb(211,211,211)" stroke-width="1" opacity="0.9215686274509803" d="M 30 35 L 32 35.5 L 32 42 L 30 42.5 L 30 53 L 32 53.5 L 30.5 54 L 29 52.5 L 29 42.5 L 30 41.5 L 30 35 Z " /><path fill="rgb(211,211,211)" stroke="rgb(211,211,211)" stroke-width="1" opacity="0.9215686274509803" d="M 175.5 42 L 176 144.5 L 173.5 150 L 173 143.5 L 175 141.5 L 175.5 42 Z " /><path fill="rgb(211,211,211)" stroke="rgb(211,211,211)" stroke-width="1" opacity="0.9215686274509803" d="M 46 46 L 49 46.5 L 42.5 51 L 37 51 Q 38.1 54.3 34 53 Q 32.8 50 36.5 51 L 41 50 L 41 48 L 46 48 L 46 46 Z " /><path fill="rgb(211,211,211)" stroke="rgb(211,211,211)" stroke-width="1" opacity="0.9215686274509803" d="M 48 67 L 53 67.5 L 53 149 L 50 148.5 L 50 83.5 L 51 82.5 L 51 70.5 Q 49.7 67.8 48.5 70 L 44.5 70 L 44 72 L 41.5 72 L 43.5 69 Q 49.4 70.7 48 67 Z " /><path fill="rgb(211,211,211)" stroke="rgb(211,211,211)" stroke-width="1" opacity="0.9215686274509803" d="M 34 72 L 39 72 L 39 74 L 30 75 L 30 141.5 L 32 143.5 L 32 151 Q 35 149.8 34 153.5 L 35 156 L 37 156 L 37 159 L 39 159 L 41 163 L 44 163 L 44 165 L 52.5 165 L 54.5 167 L 120 167.5 L 49.5 168 L 39 163 L 39 161 Q 35.2 162.5 36 159.5 L 34 156 Q 30.3 157.3 32 151.5 L 29 145.5 L 29 74 L 34 74 L 34 72 Z " /><path fill="rgb(211,211,211)" stroke="rgb(211,211,211)" stroke-width="1" opacity="0.9215686274509803" d="M 192.5 96 L 193 120.5 L 192 120.5 L 192.5 96 Z " /><path fill="rgb(211,211,211)" stroke="rgb(211,211,211)" stroke-width="1" opacity="0.9215686274509803" d="M 12.5 99 L 13 125.5 L 12 125.5 L 12.5 99 Z " /><path fill="rgb(211,211,211)" stroke="rgb(211,211,211)" stroke-width="1" opacity="0.9215686274509803" d="M 192.5 150 L 193 151.5 L 193 153.5 L 191.5 156 L 190 156 L 190 152 Q 192.8 153 192.5 150 Z " /><path fill="rgb(211,211,211)" stroke="rgb(211,211,211)" stroke-width="1" opacity="0.9215686274509803" d="M 171 151 Q 174.7 149.8 173 155 L 171 155 L 171 158 Q 168 157 169 160 L 166 160 Q 167.1 162.7 164.5 162 Q 162.2 166.1 156 165 Q 157.4 169 150.5 167 L 151.5 165 L 158.5 164 L 163 162 L 163 160 L 166 160 Q 165 157 168 158 L 168 155 Q 170.7 156.1 170 153.5 L 171 151 Z " /><path fill="rgb(211,211,211)" stroke="rgb(211,211,211)" stroke-width="1" opacity="0.9215686274509803" d="M 13.5 152 L 15 152 L 15 157 L 12 155.5 L 13.5 152 Z " /><path fill="rgb(211,211,211)" stroke="rgb(211,211,211)" stroke-width="1" opacity="0.9215686274509803" d="M 188.5 158 Q 191 159.2 190 163 Q 186.7 161.7 188 166.5 L 187 166.5 Q 187.7 163.9 185 165 L 185 163 Q 188 164.3 187 160.5 L 188.5 158 Z " /><path fill="rgb(211,211,211)" stroke="rgb(211,211,211)" stroke-width="1" opacity="0.9215686274509803" d="M 15 159 Q 17.7 157.9 17 160.5 L 18 164 Q 21 162.8 20 166.5 L 18 166.5 L 18 168 L 22 168 Q 20.9 170.7 23.5 170 Q 26 171.2 25 175 L 27 175.5 L 25.5 176 L 24 173 L 22 173 L 22 171 L 20 171 Q 21.1 168.3 18.5 169 Q 16 167.8 17 164 L 15 164 L 15 159 Z " /><path fill="rgb(211,211,211)" stroke="rgb(211,211,211)" stroke-width="1" opacity="0.9215686274509803" d="M 185.5 166 L 186 167.5 L 185 170 L 183 170 L 183 172 Q 180.3 170.9 181 173.5 L 178.5 175 L 177 172 L 179 172.5 L 178.5 174 L 180 174 L 180 169 L 183 169 Q 181.9 166.3 184.5 167 L 185.5 166 Z " /><path fill="rgb(211,211,211)" stroke="rgb(211,211,211)" stroke-width="1" opacity="0.9215686274509803" d="M 173 174 Q 177.5 172.5 176 177 Q 171.5 178.5 173 174 Z " /><path fill="rgb(211,211,211)" stroke="rgb(211,211,211)" stroke-width="1" opacity="0.9215686274509803" d="M 29 175 Q 33.5 173.5 32 178 Q 27.5 179.5 29 175 Z " /><path fill="rgb(211,211,211)" stroke="rgb(211,211,211)" stroke-width="1" opacity="0.9215686274509803" d="M 34 177 L 37 178.5 Q 37.7 181.5 34 180 L 34 177 Z " /><path fill="rgb(211,211,211)" stroke="rgb(211,211,211)" stroke-width="1" opacity="0.9215686274509803" d="M 168 177 Q 172.1 175.7 171 179 Q 166.9 180.3 168 177 Z " /><path fill="rgb(211,211,211)" stroke="rgb(211,211,211)" stroke-width="1" opacity="0.9215686274509803" d="M 159 179 L 167 179.5 L 162 180 Q 163.1 183.3 159 182 L 159 179 Z " /><path fill="rgb(211,211,211)" stroke="rgb(211,211,211)" stroke-width="1" opacity="0.9215686274509803" d="M 43 180 Q 46.8 178.5 46 181.5 L 46.5 183 L 43 181.5 L 43 180 Z " /><path fill="rgb(211,211,211)" stroke="rgb(211,211,211)" stroke-width="1" opacity="0.9215686274509803" d="M 57.5 182 L 67 182.5 L 57.5 183 L 57.5 182 Z " /><path fill="rgb(255,255,255)" stroke="rgb(255,255,255)" stroke-width="1" opacity="0.996078431372549" d="M 185.5 165 Q 188.1 164.2 187 167.5 L 185 168.5 L 186 166.5 L 185.5 165 Z " /><path fill="rgb(255,255,255)" stroke="rgb(255,255,255)" stroke-width="1" opacity="0.996078431372549" d="M 18.5 166 L 19.5 168 Q 16.7 168.7 18.5 166 Z " /><path fill="rgb(255,255,255)" stroke="rgb(255,255,255)" stroke-width="1" opacity="0.996078431372549" d="M 179.5 172 L 180 174 L 178 173.5 L 179.5 172 Z " /><path fill="rgb(255,255,255)" stroke="rgb(255,255,255)" stroke-width="1" opacity="0.996078431372549" d="M 25.5 173 L 26.5 175 Q 23.7 175.7 25.5 173 Z " /><path fill="rgb(255,255,255)" stroke="rgb(255,255,255)" stroke-width="1" opacity="1" d="M 55.5 18 L 150.5 18 Q 154 21.2 161 20 L 161 22 Q 165.1 20.7 164 24 L 168 24 L 168 27 L 170 27 L 170 31 Q 173 29.8 172 33.5 L 173 40 L 175 40.5 L 175 141.5 L 173 143.5 L 173 151 Q 170.3 149.9 171 152.5 L 170 155 L 168 155 L 168 158 Q 165 157 166 160 L 163 160 Q 164.1 162.7 161.5 162 L 158.5 164 L 151.5 165 L 149.5 167 L 54.5 167 L 52.5 165 L 44 165 L 44 163 L 41 163 L 41 161 L 37 159 L 37 156 Q 34.3 157.1 35 154.5 L 34 151 L 32 150.5 L 32 143.5 L 30 141.5 L 30 75 L 39 74 L 39 72 Q 45.3 73.5 44.5 70 L 48.5 70 Q 49.7 67.8 51 70.5 L 51 82.5 L 50 83.5 L 50 149 L 76.5 149 L 78 147.5 L 78 39.5 L 77 34 L 58.5 34 Q 57.5 34 58 38.5 L 57 41 Q 54 40 55 43 L 51.5 43 L 50 46 L 46 46 L 46 48 L 41.5 48 Q 42.5 51 37.5 50 L 34 51 Q 35.2 54.7 30 53 L 30 42.5 Q 33.4 43.3 32 34.5 L 37 28.5 L 37 26 L 41 25 L 41 23 Q 45.1 24.3 44 21 L 50.5 21 L 55.5 18 Z " /><path fill="rgb(5,5,5)" stroke="rgb(5,5,5)" stroke-width="1" opacity="0.5568627450980392" d="M 0 0 L 200 0 L 200 200 L 0 200 L 0 0 Z M 145 2 L 145 3 L 150 3 L 145 2 Z M 159 2 L 159 5 Q 163 6 162 4 L 159 2 Z M 45 3 L 43 5 Q 42 7 46 6 L 47 4 L 45 3 Z M 168 5 Q 167 8 171 7 Q 172 4 168 5 Z M 34 6 Q 33 11 37 9 Q 39 5 34 6 Z M 173 7 L 173 10 L 176 9 Q 177 6 173 7 Z M 29 8 Q 28 13 32 11 Q 34 7 29 8 Z M 177 9 L 177 12 L 180 12 Q 179 15 182 14 L 184 17 L 187 19 L 188 20 L 187 16 Q 184 17 185 14 L 183 14 L 183 12 L 180 11 Q 181 8 177 9 Z M 24 11 L 22 15 L 20 15 L 20 18 L 23 18 L 25 14 L 27 14 Q 29 10 24 11 Z M 96 17 L 95 18 L 50 18 L 41 23 Q 38 22 39 25 L 34 29 Q 35 31 32 30 L 32 35 L 30 35 L 30 42 L 29 43 L 29 53 L 31 54 L 33 53 Q 38 55 37 51 L 43 51 L 50 46 L 53 46 L 53 44 L 56 44 Q 55 41 58 42 Q 57 38 60 39 L 60 35 L 63 34 L 75 34 L 76 36 L 76 149 L 54 149 L 53 149 L 53 67 L 48 67 L 48 69 Q 42 68 41 72 L 35 72 Q 35 76 29 74 L 29 146 L 32 152 Q 30 157 34 156 L 36 160 Q 35 163 39 161 L 39 163 L 50 168 L 120 168 L 121 167 L 156 167 L 156 165 Q 162 166 165 162 Q 167 163 166 160 L 169 160 Q 168 157 171 158 L 171 155 L 173 155 L 173 151 L 176 145 L 176 43 L 175 42 L 175 34 Q 172 34 173 29 L 171 29 L 169 26 Q 170 23 166 24 L 166 22 L 161 19 Q 155 20 156 17 L 96 17 Z M 17 18 L 17 22 Q 14 21 15 25 L 18 25 Q 16 20 20 21 Q 22 17 17 18 Z M 187 21 Q 186 26 190 24 Q 192 20 187 21 Z M 13 27 Q 12 32 15 33 L 16 29 L 13 27 Z M 190 28 Q 189 31 192 30 Q 193 27 190 28 Z M 193 96 L 192 121 L 193 121 L 193 96 Z M 13 99 L 12 126 L 13 126 L 13 99 Z M 14 152 L 12 156 L 15 157 L 15 152 L 14 152 Z M 190 152 L 190 156 L 192 156 L 193 154 L 190 152 Z M 189 158 L 187 161 Q 188 164 185 163 L 185 167 Q 182 166 183 169 L 180 169 L 180 172 L 177 172 L 179 175 L 181 174 Q 180 171 183 172 L 183 170 L 188 167 Q 187 162 190 163 Q 191 159 189 158 Z M 15 159 L 15 164 L 17 164 Q 16 170 21 171 Q 23 170 22 173 L 24 173 L 24 175 L 27 176 Q 28 172 25 173 L 24 170 Q 21 171 22 168 L 20 168 L 20 164 L 18 164 L 17 161 Q 18 158 15 159 Z M 173 174 Q 172 179 176 177 Q 178 173 173 174 Z M 29 175 Q 28 180 32 178 Q 34 174 29 175 Z M 35 177 Q 32 179 35 180 Q 38 181 37 179 L 35 177 Z M 168 177 L 169 180 L 171 179 Q 172 176 168 177 Z M 159 179 L 159 182 Q 163 183 162 180 L 167 180 L 159 179 Z M 43 180 L 43 182 L 47 183 L 46 182 Q 47 179 43 180 Z M 58 182 L 58 183 L 67 183 L 58 182 Z " /></svg>