<svg width="200" height="200" version="1.1" xmlns="http://www.w3.org/2000/svg" desc="Created with imagetracer.js version 1.2.6" ><path fill="rgb(0,0,0)" stroke="rgb(0,0,0)" stroke-width="1" opacity="0" d="M 0 0 L 200 0 L 200 200 L 0 200 L 0 0 Z M 20 20 L 18 22 L 18 28 L 22 30 L 28 30 L 28 21 L 20 20 Z M 32 26 L 32 33 L 38 36 L 44 36 L 44 28 Q 40 25 32 26 Z M 49 33 L 50 36 L 49 40 Q 52 42 58 41 L 58 35 L 57 33 L 53 34 L 49 33 Z M 102 36 L 98 41 L 96 40 L 72 42 L 70 44 L 70 67 Q 71 69 77 68 L 79 70 L 98 71 L 99 74 L 129 74 L 131 72 L 137 72 L 142 75 L 146 82 Q 147 89 143 92 L 137 96 L 111 96 L 109 100 L 104 101 L 102 98 Q 101 95 95 96 L 93 100 Q 92 102 89 101 L 85 96 L 56 96 L 55 97 Q 50 96 51 99 L 47 100 L 43 105 L 41 106 L 36 114 L 37 118 L 36 117 L 35 119 L 28 123 L 22 130 Q 21 135 23 137 L 22 140 Q 21 145 23 147 L 20 148 L 14 155 L 14 170 L 17 174 L 25 179 L 180 179 L 185 176 Q 184 173 187 174 L 189 171 L 189 155 L 188 153 L 183 148 Q 180 147 182 146 L 182 130 L 181 128 L 179 126 L 177 123 Q 172 120 162 121 L 174 108 L 178 96 L 178 94 L 178 75 L 179 74 L 177 72 L 177 69 L 173 61 Q 174 58 171 59 L 171 57 Q 164 47 153 42 L 143 39 L 131 39 L 129 38 L 129 36 L 102 36 Z M 34 51 L 32 53 L 32 59 L 47 59 L 47 52 L 35 52 L 34 51 Z M 14 52 L 15 58 L 16 59 L 24 59 L 23 56 L 24 54 L 24 52 L 14 52 Z M 56 52 Q 52 54 53 60 L 64 59 L 63 57 L 64 54 L 64 52 L 56 52 Z M 51 69 L 49 71 L 50 74 L 49 78 L 57 78 L 58 77 L 58 69 L 51 69 Z M 36 75 L 32 76 L 32 84 L 34 85 Q 41 86 44 83 L 44 75 L 36 75 Z M 21 81 L 18 82 L 18 90 L 20 91 L 27 90 Q 30 89 29 83 Q 27 79 21 81 Z " /><path fill="rgb(2,2,2)" stroke="rgb(2,2,2)" stroke-width="1" opacity="0.9882352941176471" d="M 20 22 Q 25 21.2 27 24.5 Q 28.1 27.8 25.5 27 L 23.5 27 L 20 25.5 L 20 22 Z " /><path fill="rgb(2,2,2)" stroke="rgb(2,2,2)" stroke-width="1" opacity="0.9882352941176471" d="M 34 28 Q 40.7 26.9 43 31.5 L 40.5 35 L 34 32 L 34 28 Z " /><path fill="rgb(2,2,2)" stroke="rgb(2,2,2)" stroke-width="1" opacity="0.9882352941176471" d="M 51.5 34 Q 56.3 34.3 58 37.5 Q 57.5 40.5 53.5 40 L 50 37.5 L 51.5 34 Z " /><path fill="rgb(2,2,2)" stroke="rgb(2,2,2)" stroke-width="1" opacity="0.9882352941176471" d="M 102.5 38 L 126.5 38 L 129.5 41 Q 139.8 39.7 146.5 42 Q 159.2 46.3 167 55.5 L 176 71.5 L 178 86.5 L 172 105.5 L 162.5 117 L 157 121.5 L 158.5 123 L 170.5 123 L 180 130.5 L 181 141.5 L 178 147.5 L 186 154.5 Q 188.9 158.1 188 165.5 Q 186.8 171.3 182.5 174 L 176.5 177 L 26.5 177 L 18 170.5 L 15 164.5 L 15 159.5 L 21.5 150 L 25 149 L 25 145.5 L 22 139.5 L 23 136.5 L 22 134.5 L 27.5 126 L 37 120.5 Q 38.7 107.2 48.5 102 L 59.5 98 L 82.5 98 Q 87.5 100.5 82.5 103 L 58.5 103 L 48 108.5 Q 48.8 110.8 46.5 110 Q 41.7 113.7 41 121.5 L 42.5 123 L 138.5 123 Q 156.5 120 165 107.5 L 172 92.5 L 172 76.5 Q 168.5 61 157.5 53 L 143.5 46 L 129.5 45 L 128 46.5 L 128 63.5 L 129.5 65 Q 137.9 64.1 142.5 67 L 149 72.5 L 153 80.5 L 153 87.5 Q 150.5 95.5 144.5 100 L 138.5 103 L 112.5 103 L 111 99.5 L 112.5 98 L 137.5 98 L 146 91.5 L 148 82.5 Q 146.9 75.1 141.5 72 Q 137.1 68.9 128.5 70 L 126.5 72 L 101 72 Q 102.3 69 98.5 70 L 88.5 68 L 86.5 68 L 75.5 67 L 72 64.5 L 72 45.5 L 73.5 44 L 99.5 41 L 102.5 38 Z M 106 43 L 106 67 L 108 68 L 122 68 L 123 67 L 123 45 L 122 43 L 106 43 Z M 94 46 L 93 47 L 79 48 L 77 50 L 77 62 L 90 64 L 98 64 L 100 65 L 101 63 L 101 49 L 100 48 Q 100 45 94 46 Z M 37 127 L 32 129 L 28 133 L 28 143 L 34 147 L 171 147 L 176 142 L 175 133 L 171 128 L 167 127 L 37 127 Z M 29 152 L 26 153 Q 19 156 21 167 L 28 172 L 177 172 L 179 171 L 183 166 L 182 158 L 176 152 L 29 152 Z " /><path fill="rgb(2,2,2)" stroke="rgb(2,2,2)" stroke-width="1" opacity="0.9882352941176471" d="M 18.5 52 Q 22.5 51.5 23 54.5 L 21.5 58 Q 16 59 15 55.5 Q 14.3 53.3 16.5 54 L 18.5 52 Z " /><path fill="rgb(2,2,2)" stroke="rgb(2,2,2)" stroke-width="1" opacity="0.9882352941176471" d="M 37.5 52 Q 43.3 51.2 45 54.5 L 42.5 58 Q 36.4 58.8 34 57 L 35.5 53 L 37.5 52 Z " /><path fill="rgb(2,2,2)" stroke="rgb(2,2,2)" stroke-width="1" opacity="0.9882352941176471" d="M 58.5 52 Q 62.5 51.5 63 54.5 L 61.5 58 Q 57 59 56 56.5 Q 55.5 52.5 58.5 52 Z " /><path fill="rgb(2,2,2)" stroke="rgb(2,2,2)" stroke-width="1" opacity="0.9882352941176471" d="M 52.5 71 Q 56.3 70.3 57 72.5 L 54.5 76 L 51.5 77 L 50 73.5 L 52.5 71 Z " /><path fill="rgb(2,2,2)" stroke="rgb(2,2,2)" stroke-width="1" opacity="0.9882352941176471" d="M 37.5 77 Q 42 76 43 78.5 L 42 81 L 35.5 83 L 34 79.5 L 37.5 77 Z " /><path fill="rgb(2,2,2)" stroke="rgb(2,2,2)" stroke-width="1" opacity="0.9882352941176471" d="M 22.5 83 Q 26.3 82.3 27 84.5 L 23.5 89 L 20 87.5 Q 18.5 83.1 21.5 84 L 22.5 83 Z " /><path fill="rgb(2,2,2)" stroke="rgb(2,2,2)" stroke-width="1" opacity="0.9882352941176471" d="M 97.5 98 L 100 99.5 L 98.5 103 Q 95.2 104.1 96 101.5 Q 93.2 99.8 97.5 98 Z " /><path fill="rgb(52,52,52)" stroke="rgb(52,52,52)" stroke-width="1" opacity="0.6823529411764706" d="M 19.5 22 L 20 25.5 L 19 25.5 L 19.5 22 Z " /><path fill="rgb(52,52,52)" stroke="rgb(52,52,52)" stroke-width="1" opacity="0.6823529411764706" d="M 24.5 22 L 28 24.5 L 27.5 26 L 25.5 23 L 24.5 22 Z " /><path fill="rgb(52,52,52)" stroke="rgb(52,52,52)" stroke-width="1" opacity="0.6823529411764706" d="M 21.5 27 L 24 28.5 L 22.5 28 L 21.5 27 Z " /><path fill="rgb(52,52,52)" stroke="rgb(52,52,52)" stroke-width="1" opacity="0.6823529411764706" d="M 41.5 29 L 44 30 Q 44.8 33.8 41.5 35 L 42 33.5 L 43 31.5 L 41.5 29 Z " /><path fill="rgb(52,52,52)" stroke="rgb(52,52,52)" stroke-width="1" opacity="0.6823529411764706" d="M 34.5 32 L 40 34.5 L 38.5 35 L 34.5 33 L 34.5 32 Z " /><path fill="rgb(52,52,52)" stroke="rgb(52,52,52)" stroke-width="1" opacity="0.6823529411764706" d="M 53.5 33 L 54.5 35 L 53.5 33 Z " /><path fill="rgb(52,52,52)" stroke="rgb(52,52,52)" stroke-width="1" opacity="0.6823529411764706" d="M 56.5 35 L 57.5 37 L 56.5 35 Z " /><path fill="rgb(52,52,52)" stroke="rgb(52,52,52)" stroke-width="1" opacity="0.6823529411764706" d="M 102.5 37 L 126.5 37 L 128.5 39 L 136.5 39 L 138 40.5 L 129.5 41 L 126.5 38 L 102.5 38 L 98.5 41 L 98.5 40 L 102.5 37 Z " /><path fill="rgb(52,52,52)" stroke="rgb(52,52,52)" stroke-width="1" opacity="0.6823529411764706" d="M 50.5 38 L 55.5 40 L 58 38.5 Q 57.5 41.5 53.5 41 L 50.5 38 Z " /><path fill="rgb(52,52,52)" stroke="rgb(52,52,52)" stroke-width="1" opacity="0.6823529411764706" d="M 93 40 L 96 40.5 L 93.5 42 L 93 40 Z " /><path fill="rgb(52,52,52)" stroke="rgb(52,52,52)" stroke-width="1" opacity="0.6823529411764706" d="M 141.5 40 L 146 41.5 L 143.5 42 L 141.5 40 Z " /><path fill="rgb(52,52,52)" stroke="rgb(52,52,52)" stroke-width="1" opacity="0.6823529411764706" d="M 86.5 41 L 88 41.5 L 82.5 43 L 82.5 42 L 86.5 41 Z " /><path fill="rgb(52,52,52)" stroke="rgb(52,52,52)" stroke-width="1" opacity="0.6823529411764706" d="M 79.5 42 L 81 42.5 L 72.5 45 L 73.5 43 Q 78.3 44.2 79.5 42 Z " /><path fill="rgb(52,52,52)" stroke="rgb(52,52,52)" stroke-width="1" opacity="0.6823529411764706" d="M 150.5 43 Q 160.6 46.9 167 54.5 L 162.5 51 L 150.5 44 L 150.5 43 Z " /><path fill="rgb(52,52,52)" stroke="rgb(52,52,52)" stroke-width="1" opacity="0.6823529411764706" d="M 16.5 52 L 18 52.5 L 15.5 54 L 16.5 52 Z " /><path fill="rgb(52,52,52)" stroke="rgb(52,52,52)" stroke-width="1" opacity="0.6823529411764706" d="M 21.5 52 L 22.5 54 L 21.5 52 Z " /><path fill="rgb(52,52,52)" stroke="rgb(52,52,52)" stroke-width="1" opacity="0.6823529411764706" d="M 35.5 52 L 37 52.5 L 34 54.5 L 33.5 56 L 33 54.5 L 35.5 52 Z " /><path fill="rgb(52,52,52)" stroke="rgb(52,52,52)" stroke-width="1" opacity="0.6823529411764706" d="M 42.5 52 L 45 53.5 L 43.5 53 L 42.5 52 Z " /><path fill="rgb(52,52,52)" stroke="rgb(52,52,52)" stroke-width="1" opacity="0.6823529411764706" d="M 56.5 52 L 58 52.5 L 55.5 56 L 55 53.5 L 56.5 52 Z " /><path fill="rgb(52,52,52)" stroke="rgb(52,52,52)" stroke-width="1" opacity="0.6823529411764706" d="M 61.5 52 L 62.5 54 L 61.5 52 Z " /><path fill="rgb(52,52,52)" stroke="rgb(52,52,52)" stroke-width="1" opacity="0.6823529411764706" d="M 45.5 55 L 42.5 59 Q 36.4 60.1 34 57.5 L 35.5 57 Q 37 59.5 42.5 58 L 45.5 55 Z " /><path fill="rgb(52,52,52)" stroke="rgb(52,52,52)" stroke-width="1" opacity="0.6823529411764706" d="M 15.5 56 Q 16.5 59 21.5 58 L 24 56.5 Q 23 60 17.5 59 L 15.5 56 Z " /><path fill="rgb(52,52,52)" stroke="rgb(52,52,52)" stroke-width="1" opacity="0.6823529411764706" d="M 167.5 56 L 173 63.5 L 171 62.5 L 167.5 56 Z " /><path fill="rgb(52,52,52)" stroke="rgb(52,52,52)" stroke-width="1" opacity="0.6823529411764706" d="M 62.5 57 L 61.5 59 L 59 58.5 L 62.5 57 Z " /><path fill="rgb(52,52,52)" stroke="rgb(52,52,52)" stroke-width="1" opacity="0.6823529411764706" d="M 71.5 64 Q 73.8 67.7 80 67.5 L 74.5 68 L 71.5 64 Z " /><path fill="rgb(52,52,52)" stroke="rgb(52,52,52)" stroke-width="1" opacity="0.6823529411764706" d="M 82.5 68 L 87 68.5 L 82.5 69 L 82.5 68 Z " /><path fill="rgb(52,52,52)" stroke="rgb(52,52,52)" stroke-width="1" opacity="0.6823529411764706" d="M 90.5 69 L 98 69.5 L 90.5 70 L 90.5 69 Z " /><path fill="rgb(52,52,52)" stroke="rgb(52,52,52)" stroke-width="1" opacity="0.6823529411764706" d="M 52.5 70 L 58 71 L 58 75 L 56.5 75 L 54 76.5 L 57 72.5 Q 56.3 70.3 52.5 71 L 49.5 73 L 50.5 71 L 52.5 70 Z " /><path fill="rgb(52,52,52)" stroke="rgb(52,52,52)" stroke-width="1" opacity="0.6823529411764706" d="M 100.5 70 L 101 72 L 126.5 72 Q 128.5 68 136.5 70 L 136.5 71 Q 127.5 69 125.5 74 L 103.5 74 L 100 71.5 L 100.5 70 Z " /><path fill="rgb(52,52,52)" stroke="rgb(52,52,52)" stroke-width="1" opacity="0.6823529411764706" d="M 175.5 70 L 177 73.5 L 176 73.5 L 175.5 70 Z " /><path fill="rgb(52,52,52)" stroke="rgb(52,52,52)" stroke-width="1" opacity="0.6823529411764706" d="M 138.5 71 L 146 76.5 L 141.5 73 Q 137.8 72.8 138.5 71 Z " /><path fill="rgb(52,52,52)" stroke="rgb(52,52,52)" stroke-width="1" opacity="0.6823529411764706" d="M 49.5 75 L 50.5 77 L 49.5 75 Z " /><path fill="rgb(52,52,52)" stroke="rgb(52,52,52)" stroke-width="1" opacity="0.6823529411764706" d="M 176 75 Q 180 73.6 178 80.5 L 177 80.5 L 176 75 Z " /><path fill="rgb(52,52,52)" stroke="rgb(52,52,52)" stroke-width="1" opacity="0.6823529411764706" d="M 37.5 76 L 44 77 Q 44.8 80.8 41.5 82 L 38.5 83 L 38.5 82 L 42 81 L 43 78.5 Q 42 76 37.5 77 L 34 79.5 L 33.5 82 L 33 79.5 L 37.5 76 Z " /><path fill="rgb(52,52,52)" stroke="rgb(52,52,52)" stroke-width="1" opacity="0.6823529411764706" d="M 23.5 82 L 27 83.5 L 25.5 83 Q 22.5 83.5 23.5 82 Z " /><path fill="rgb(52,52,52)" stroke="rgb(52,52,52)" stroke-width="1" opacity="0.6823529411764706" d="M 147.5 82 L 148 85.5 L 147 85.5 L 147.5 82 Z " /><path fill="rgb(52,52,52)" stroke="rgb(52,52,52)" stroke-width="1" opacity="0.6823529411764706" d="M 19.5 85 L 20 87.5 L 19 87.5 L 19.5 85 Z " /><path fill="rgb(52,52,52)" stroke="rgb(52,52,52)" stroke-width="1" opacity="0.6823529411764706" d="M 26.5 86 L 27 87.5 L 24.5 89 L 24.5 88 Q 27 88.7 26.5 86 Z " /><path fill="rgb(52,52,52)" stroke="rgb(52,52,52)" stroke-width="1" opacity="0.6823529411764706" d="M 177.5 87 L 178 93 L 176 92.5 L 177.5 87 Z " /><path fill="rgb(52,52,52)" stroke="rgb(52,52,52)" stroke-width="1" opacity="0.6823529411764706" d="M 145.5 91 L 141.5 96 L 145.5 91 Z " /><path fill="rgb(52,52,52)" stroke="rgb(52,52,52)" stroke-width="1" opacity="0.6823529411764706" d="M 176.5 94 L 177 96.5 L 175 97.5 L 176.5 94 Z " /><path fill="rgb(52,52,52)" stroke="rgb(52,52,52)" stroke-width="1" opacity="0.6823529411764706" d="M 59.5 97 L 82.5 97 L 85 98 L 84.5 100 L 82.5 98 L 59.5 98 L 59.5 97 Z " /><path fill="rgb(52,52,52)" stroke="rgb(52,52,52)" stroke-width="1" opacity="0.6823529411764706" d="M 112.5 97 L 138 97.5 L 112.5 98 L 111 99.5 L 110.5 101 L 110 99.5 L 112.5 97 Z " /><path fill="rgb(52,52,52)" stroke="rgb(52,52,52)" stroke-width="1" opacity="0.6823529411764706" d="M 54.5 98 L 57 98.5 Q 45.5 101.5 40 110.5 L 36.5 117 L 36 115.5 L 44.5 104 L 54.5 98 Z " /><path fill="rgb(52,52,52)" stroke="rgb(52,52,52)" stroke-width="1" opacity="0.6823529411764706" d="M 173.5 102 L 174 103.5 L 162.5 118 L 159.5 120 L 161.5 117 L 167 112.5 L 173.5 102 Z " /><path fill="rgb(52,52,52)" stroke="rgb(52,52,52)" stroke-width="1" opacity="0.6823529411764706" d="M 36.5 118 L 37 120.5 L 35 121.5 L 36.5 118 Z " /><path fill="rgb(52,52,52)" stroke="rgb(52,52,52)" stroke-width="1" opacity="0.6823529411764706" d="M 160.5 122 L 168 122.5 L 160.5 123 L 160.5 122 Z " /><path fill="rgb(52,52,52)" stroke="rgb(52,52,52)" stroke-width="1" opacity="0.6823529411764706" d="M 171.5 123 Q 177.6 124.4 180 129.5 L 174.5 125 Q 170.7 124.7 171.5 123 Z " /><path fill="rgb(52,52,52)" stroke="rgb(52,52,52)" stroke-width="1" opacity="0.6823529411764706" d="M 29.5 124 L 28.5 126 L 26.5 127 L 27.5 125 L 29.5 124 Z " /><path fill="rgb(52,52,52)" stroke="rgb(52,52,52)" stroke-width="1" opacity="0.6823529411764706" d="M 25.5 128 L 24 130.5 L 22.5 134 L 22 132.5 L 23 129 L 25.5 128 Z " /><path fill="rgb(52,52,52)" stroke="rgb(52,52,52)" stroke-width="1" opacity="0.6823529411764706" d="M 180.5 131 Q 183.5 134 182 141.5 L 180.5 144 L 180 142.5 Q 182.8 140.8 181 134.5 L 180.5 131 Z " /><path fill="rgb(52,52,52)" stroke="rgb(52,52,52)" stroke-width="1" opacity="0.6823529411764706" d="M 22.5 141 Q 25.7 143.7 25 149 Q 20.3 149.5 18 153.5 L 17.5 155 L 17 153.5 L 24 147.5 L 22.5 141 Z " /><path fill="rgb(52,52,52)" stroke="rgb(52,52,52)" stroke-width="1" opacity="0.6823529411764706" d="M 179.5 145 L 179 146.5 L 180 148.5 L 178 147.5 L 179.5 145 Z " /><path fill="rgb(52,52,52)" stroke="rgb(52,52,52)" stroke-width="1" opacity="0.6823529411764706" d="M 181.5 149 L 189 158.5 L 189 165.5 L 187.5 168 L 187 166.5 Q 189.5 165 188 159.5 Q 185.9 152.3 181.5 149 Z " /><path fill="rgb(52,52,52)" stroke="rgb(52,52,52)" stroke-width="1" opacity="0.6823529411764706" d="M 15.5 165 Q 17.4 171.6 22.5 175 L 24 175.5 L 22.5 176 L 16 169.5 L 15.5 165 Z " /><path fill="rgb(52,52,52)" stroke="rgb(52,52,52)" stroke-width="1" opacity="0.6823529411764706" d="M 185.5 171 L 182.5 175 L 185.5 171 Z " /><path fill="rgb(252,252,252)" stroke="rgb(252,252,252)" stroke-width="1" opacity="0.996078431372549" d="M 108 45 L 120.5 45 L 122 46.5 L 121.5 64 L 121 46 L 109 46 L 109 64.5 L 108 64.5 L 108 45 Z " /><path fill="rgb(252,252,252)" stroke="rgb(252,252,252)" stroke-width="1" opacity="0.996078431372549" d="M 94.5 48 L 97 48.5 L 94.5 49 L 94.5 48 Z " /><path fill="rgb(252,252,252)" stroke="rgb(252,252,252)" stroke-width="1" opacity="0.996078431372549" d="M 87.5 49 L 93 49.5 L 87.5 50 L 87.5 49 Z " /><path fill="rgb(252,252,252)" stroke="rgb(252,252,252)" stroke-width="1" opacity="0.996078431372549" d="M 144.5 49 L 150 51.5 L 148.5 52 L 144.5 50 L 144.5 49 Z " /><path fill="rgb(252,252,252)" stroke="rgb(252,252,252)" stroke-width="1" opacity="0.996078431372549" d="M 79.5 50 L 86 50.5 L 79 51 L 78.5 60 L 78 51.5 L 79.5 50 Z " /><path fill="rgb(252,252,252)" stroke="rgb(252,252,252)" stroke-width="1" opacity="0.996078431372549" d="M 153.5 53 L 154.5 55 L 153.5 53 Z " /><path fill="rgb(252,252,252)" stroke="rgb(252,252,252)" stroke-width="1" opacity="0.996078431372549" d="M 156.5 55 L 160.5 60 L 156.5 55 Z " /><path fill="rgb(252,252,252)" stroke="rgb(252,252,252)" stroke-width="1" opacity="0.996078431372549" d="M 82.5 60 L 85 60.5 L 82.5 61 L 82.5 60 Z " /><path fill="rgb(252,252,252)" stroke="rgb(252,252,252)" stroke-width="1" opacity="0.996078431372549" d="M 91.5 61 L 98 61.5 L 91.5 62 L 91.5 61 Z " /><path fill="rgb(252,252,252)" stroke="rgb(252,252,252)" stroke-width="1" opacity="0.996078431372549" d="M 130.5 62 L 137 62.5 L 130.5 63 L 130.5 62 Z " /><path fill="rgb(252,252,252)" stroke="rgb(252,252,252)" stroke-width="1" opacity="0.996078431372549" d="M 162.5 62 L 164.5 65 L 162.5 62 Z " /><path fill="rgb(252,252,252)" stroke="rgb(252,252,252)" stroke-width="1" opacity="0.996078431372549" d="M 146.5 66 L 150.5 71 L 146.5 66 Z " /><path fill="rgb(252,252,252)" stroke="rgb(252,252,252)" stroke-width="1" opacity="0.996078431372549" d="M 165.5 66 L 169 72.5 L 167 71.5 L 165.5 66 Z " /><path fill="rgb(252,252,252)" stroke="rgb(252,252,252)" stroke-width="1" opacity="0.996078431372549" d="M 151.5 72 L 153 74.5 L 152 74.5 L 151.5 72 Z " /><path fill="rgb(252,252,252)" stroke="rgb(252,252,252)" stroke-width="1" opacity="0.996078431372549" d="M 169.5 77 L 170 79.5 L 169 79.5 L 169.5 77 Z " /><path fill="rgb(252,252,252)" stroke="rgb(252,252,252)" stroke-width="1" opacity="0.996078431372549" d="M 154.5 88 L 155 90.5 L 152.5 95 L 152 93.5 L 154.5 88 Z " /><path fill="rgb(252,252,252)" stroke="rgb(252,252,252)" stroke-width="1" opacity="0.996078431372549" d="M 169.5 88 L 170 90.5 L 169 90.5 L 169.5 88 Z " /><path fill="rgb(252,252,252)" stroke="rgb(252,252,252)" stroke-width="1" opacity="0.996078431372549" d="M 168.5 95 L 168 96.5 L 162.5 106 L 164 103.5 L 168.5 95 Z " /><path fill="rgb(252,252,252)" stroke="rgb(252,252,252)" stroke-width="1" opacity="0.996078431372549" d="M 151.5 96 L 145.5 103 L 142.5 104 L 142.5 103 Q 149 101.5 151.5 96 Z " /><path fill="rgb(252,252,252)" stroke="rgb(252,252,252)" stroke-width="1" opacity="0.996078431372549" d="M 108.5 101 L 111.5 105 L 138 105.5 L 111.5 106 L 108 103.5 L 108.5 101 Z " /><path fill="rgb(252,252,252)" stroke="rgb(252,252,252)" stroke-width="1" opacity="0.996078431372549" d="M 86.5 102 L 87 104 L 85 103.5 L 86.5 102 Z " /><path fill="rgb(252,252,252)" stroke="rgb(252,252,252)" stroke-width="1" opacity="0.996078431372549" d="M 93.5 102 L 95.5 105 Q 100.5 106 101.5 103 L 99.5 106 Q 94 107 93 103.5 L 93.5 102 Z " /><path fill="rgb(252,252,252)" stroke="rgb(252,252,252)" stroke-width="1" opacity="0.996078431372549" d="M 60.5 105 L 85 105.5 L 60.5 106 L 60.5 105 Z " /><path fill="rgb(252,252,252)" stroke="rgb(252,252,252)" stroke-width="1" opacity="0.996078431372549" d="M 53.5 107 L 55 107.5 L 50 110 L 45.5 116 L 47 113.5 L 50.5 109 L 53.5 107 Z " /><path fill="rgb(252,252,252)" stroke="rgb(252,252,252)" stroke-width="1" opacity="0.996078431372549" d="M 161.5 107 L 156.5 113 L 161.5 107 Z " /><path fill="rgb(252,252,252)" stroke="rgb(252,252,252)" stroke-width="1" opacity="0.996078431372549" d="M 154.5 113 L 152.5 116 L 149.5 117 L 149.5 116 L 154.5 113 Z " /><path fill="rgb(252,252,252)" stroke="rgb(252,252,252)" stroke-width="1" opacity="0.996078431372549" d="M 146.5 117 L 148 117.5 L 144.5 119 L 144.5 118 L 146.5 117 Z " /><path fill="rgb(252,252,252)" stroke="rgb(252,252,252)" stroke-width="1" opacity="0.996078431372549" d="M 34.5 130 L 169.5 130 L 174 134.5 L 173.5 140 Q 174.2 132.8 169.5 131 L 34.5 131 L 31.5 133 L 32.5 131 L 34.5 130 Z " /><path fill="rgb(252,252,252)" stroke="rgb(252,252,252)" stroke-width="1" opacity="0.996078431372549" d="M 29.5 136 L 30 138.5 L 29 138.5 L 29.5 136 Z " /><path fill="rgb(252,252,252)" stroke="rgb(252,252,252)" stroke-width="1" opacity="0.996078431372549" d="M 172.5 141 L 169.5 145 L 168 144.5 L 172.5 141 Z " /><path fill="rgb(252,252,252)" stroke="rgb(252,252,252)" stroke-width="1" opacity="0.996078431372549" d="M 31.5 142 L 32.5 144 L 31.5 142 Z " /><path fill="rgb(252,252,252)" stroke="rgb(252,252,252)" stroke-width="1" opacity="0.996078431372549" d="M 29.5 154 L 175 154.5 L 29.5 155 L 29.5 154 Z " /><path fill="rgb(252,252,252)" stroke="rgb(252,252,252)" stroke-width="1" opacity="0.996078431372549" d="M 26.5 155 L 28 155.5 L 24.5 158 L 26.5 155 Z " /><path fill="rgb(252,252,252)" stroke="rgb(252,252,252)" stroke-width="1" opacity="0.996078431372549" d="M 176.5 155 L 177.5 157 L 176.5 155 Z " /><path fill="rgb(252,252,252)" stroke="rgb(252,252,252)" stroke-width="1" opacity="0.996078431372549" d="M 180.5 160 L 181 164.5 L 177.5 169 L 175.5 170 L 28.5 170 L 28.5 169 L 175.5 169 L 179 166.5 L 180.5 160 Z " /><path fill="rgb(252,252,252)" stroke="rgb(252,252,252)" stroke-width="1" opacity="0.996078431372549" d="M 25.5 167 L 26.5 169 L 25.5 167 Z " /><path fill="rgb(61,61,61)" stroke="rgb(61,61,61)" stroke-width="1" opacity="0.996078431372549" d="M 23.5 27 L 25.5 27 L 27 27.5 L 24.5 29 L 23.5 27 Z " /><path fill="rgb(61,61,61)" stroke="rgb(61,61,61)" stroke-width="1" opacity="0.996078431372549" d="M 138.5 40 L 141 40.5 L 138.5 41 L 138.5 40 Z " /><path fill="rgb(61,61,61)" stroke="rgb(61,61,61)" stroke-width="1" opacity="0.996078431372549" d="M 106.5 43 L 121.5 43 L 123 44.5 L 123 66.5 L 121.5 68 L 107.5 68 L 106 66.5 L 107.5 67 L 122 67 L 122 44 L 106.5 44 L 106.5 43 Z " /><path fill="rgb(61,61,61)" stroke="rgb(61,61,61)" stroke-width="1" opacity="0.996078431372549" d="M 129.5 45 L 138 45.5 L 129 46 L 129 64 L 136.5 64 L 144 67.5 L 142.5 67 Q 137.9 64.1 129.5 65 L 128 63.5 L 128 46.5 L 129.5 45 Z " /><path fill="rgb(61,61,61)" stroke="rgb(61,61,61)" stroke-width="1" opacity="0.996078431372549" d="M 71.5 46 L 72 63.5 L 71 63.5 L 71.5 46 Z " /><path fill="rgb(61,61,61)" stroke="rgb(61,61,61)" stroke-width="1" opacity="0.996078431372549" d="M 93.5 46 L 100 46.5 L 78 49 L 77.5 62 L 77 49.5 L 78.5 48 L 92.5 47 L 93.5 46 Z " /><path fill="rgb(61,61,61)" stroke="rgb(61,61,61)" stroke-width="1" opacity="0.996078431372549" d="M 139.5 46 L 143.5 46 L 151 49.5 L 149.5 50 Q 146.7 46.3 139.5 47 L 139.5 46 Z " /><path fill="rgb(61,61,61)" stroke="rgb(61,61,61)" stroke-width="1" opacity="0.996078431372549" d="M 100.5 48 L 101 62.5 L 100 62.5 L 100.5 48 Z " /><path fill="rgb(61,61,61)" stroke="rgb(61,61,61)" stroke-width="1" opacity="0.996078431372549" d="M 152.5 50 L 165 60.5 L 166 62.5 L 163 60.5 L 157.5 54 Q 152.9 52.8 152.5 50 Z " /><path fill="rgb(61,61,61)" stroke="rgb(61,61,61)" stroke-width="1" opacity="0.996078431372549" d="M 55.5 56 L 56.5 58 L 55.5 56 Z " /><path fill="rgb(61,61,61)" stroke="rgb(61,61,61)" stroke-width="1" opacity="0.996078431372549" d="M 82.5 62 L 86 62.5 L 82.5 63 L 82.5 62 Z " /><path fill="rgb(61,61,61)" stroke="rgb(61,61,61)" stroke-width="1" opacity="0.996078431372549" d="M 89.5 63 L 96 63.5 L 89.5 64 L 89.5 63 Z " /><path fill="rgb(61,61,61)" stroke="rgb(61,61,61)" stroke-width="1" opacity="0.996078431372549" d="M 166.5 64 L 171 74.5 L 170 74.5 L 166.5 64 Z " /><path fill="rgb(61,61,61)" stroke="rgb(61,61,61)" stroke-width="1" opacity="0.996078431372549" d="M 145.5 68 L 152 76.5 L 150 75.5 L 145.5 68 Z " /><path fill="rgb(61,61,61)" stroke="rgb(61,61,61)" stroke-width="1" opacity="0.996078431372549" d="M 171.5 76 L 172 81.5 L 171 81.5 L 171.5 76 Z " /><path fill="rgb(61,61,61)" stroke="rgb(61,61,61)" stroke-width="1" opacity="0.996078431372549" d="M 171.5 86 L 172 92.5 L 171 92.5 L 171.5 86 Z " /><path fill="rgb(61,61,61)" stroke="rgb(61,61,61)" stroke-width="1" opacity="0.996078431372549" d="M 152.5 88 L 153 90.5 L 144.5 101 L 139.5 103 L 139.5 102 Q 146 100.5 149 95.5 L 152.5 88 Z " /><path fill="rgb(61,61,61)" stroke="rgb(61,61,61)" stroke-width="1" opacity="0.996078431372549" d="M 170.5 94 L 171 95.5 Q 166.7 108.7 156.5 116 L 154.5 117 L 155.5 115 L 164 107.5 L 170.5 94 Z " /><path fill="rgb(61,61,61)" stroke="rgb(61,61,61)" stroke-width="1" opacity="0.996078431372549" d="M 95 98 L 97 98.5 L 95 99.5 L 95 98 Z " /><path fill="rgb(61,61,61)" stroke="rgb(61,61,61)" stroke-width="1" opacity="0.996078431372549" d="M 84.5 101 L 85 103 L 82.5 104 L 58.5 104 L 58.5 103 L 82.5 103 L 84.5 101 Z " /><path fill="rgb(61,61,61)" stroke="rgb(61,61,61)" stroke-width="1" opacity="0.996078431372549" d="M 95.5 101 L 96 103 L 99.5 102 L 98.5 104 L 95 102.5 L 95.5 101 Z " /><path fill="rgb(61,61,61)" stroke="rgb(61,61,61)" stroke-width="1" opacity="0.996078431372549" d="M 110.5 101 L 112.5 103 L 137 103.5 L 112.5 104 L 110.5 101 Z " /><path fill="rgb(61,61,61)" stroke="rgb(61,61,61)" stroke-width="1" opacity="0.996078431372549" d="M 51.5 106 L 50.5 108 L 48.5 109 L 49.5 107 L 51.5 106 Z " /><path fill="rgb(61,61,61)" stroke="rgb(61,61,61)" stroke-width="1" opacity="0.996078431372549" d="M 46.5 110 L 46 111.5 Q 42.3 115.5 42 122 L 139 122.5 L 42.5 123 L 41 119.5 L 46.5 110 Z " /><path fill="rgb(61,61,61)" stroke="rgb(61,61,61)" stroke-width="1" opacity="0.996078431372549" d="M 152.5 117 L 151.5 119 L 145.5 121 L 145.5 120 L 152.5 117 Z " /><path fill="rgb(61,61,61)" stroke="rgb(61,61,61)" stroke-width="1" opacity="0.996078431372549" d="M 158.5 120 L 160 122.5 L 158.5 123 Q 155.5 121.5 158.5 120 Z " /><path fill="rgb(61,61,61)" stroke="rgb(61,61,61)" stroke-width="1" opacity="0.996078431372549" d="M 141.5 121 L 144 121.5 L 141.5 122 L 141.5 121 Z " /><path fill="rgb(61,61,61)" stroke="rgb(61,61,61)" stroke-width="1" opacity="0.996078431372549" d="M 36.5 127 L 166.5 127 L 170.5 128 L 175 132.5 L 170.5 129 L 165.5 128 L 37.5 128 L 31.5 130 L 29 132.5 L 28.5 134 L 28 132.5 Q 30.8 128.3 36.5 127 Z " /><path fill="rgb(61,61,61)" stroke="rgb(61,61,61)" stroke-width="1" opacity="0.996078431372549" d="M 175.5 134 L 176 141.5 L 170.5 147 L 168.5 147 L 168.5 146 L 170.5 146 L 175 141.5 L 175.5 134 Z " /><path fill="rgb(61,61,61)" stroke="rgb(61,61,61)" stroke-width="1" opacity="0.996078431372549" d="M 28.5 141 L 31.5 145 L 36 146.5 L 33.5 147 L 28 142.5 L 28.5 141 Z " /><path fill="rgb(61,61,61)" stroke="rgb(61,61,61)" stroke-width="1" opacity="0.996078431372549" d="M 28.5 152 L 175.5 152 L 182 157.5 L 183 165.5 L 178.5 171 L 176.5 172 L 27.5 172 L 21 166.5 L 21.5 165 L 25.5 170 L 27.5 171 L 176.5 171 L 181 167.5 L 182 159.5 L 177.5 154 L 175.5 153 L 28.5 153 L 28.5 152 Z " /><path fill="rgb(61,61,61)" stroke="rgb(61,61,61)" stroke-width="1" opacity="0.996078431372549" d="M 25.5 153 L 27 153.5 L 22.5 157 L 25.5 153 Z " /><path fill="rgb(61,61,61)" stroke="rgb(61,61,61)" stroke-width="1" opacity="0.996078431372549" d="M 28.5 177 L 176 177.5 L 28.5 178 L 28.5 177 Z " /><path fill="rgb(175,175,175)" stroke="rgb(175,175,175)" stroke-width="1" opacity="0.984313725490196" d="M 106 44 L 108 44.5 L 107 45.5 L 107 66 L 122 66.5 L 107.5 67 L 106 65.5 L 106 44 Z " /><path fill="rgb(175,175,175)" stroke="rgb(175,175,175)" stroke-width="1" opacity="0.984313725490196" d="M 129 46 L 139 46.5 L 130 47 L 129.5 64 L 129 46 Z " /><path fill="rgb(175,175,175)" stroke="rgb(175,175,175)" stroke-width="1" opacity="0.984313725490196" d="M 93.5 47 L 100 47 L 100 64 L 96 63.5 L 99 63 L 99 48 L 93.5 48 L 93.5 47 Z " /><path fill="rgb(175,175,175)" stroke="rgb(175,175,175)" stroke-width="1" opacity="0.984313725490196" d="M 140.5 47 L 144 47.5 L 140.5 48 L 140.5 47 Z " /><path fill="rgb(175,175,175)" stroke="rgb(175,175,175)" stroke-width="1" opacity="0.984313725490196" d="M 85.5 48 L 90 48.5 L 85.5 49 L 85.5 48 Z " /><path fill="rgb(175,175,175)" stroke="rgb(175,175,175)" stroke-width="1" opacity="0.984313725490196" d="M 145.5 48 L 149 49.5 L 147.5 50 L 145.5 48 Z " /><path fill="rgb(175,175,175)" stroke="rgb(175,175,175)" stroke-width="1" opacity="0.984313725490196" d="M 78.5 49 L 82 49.5 L 78.5 50 L 78.5 49 Z " /><path fill="rgb(175,175,175)" stroke="rgb(175,175,175)" stroke-width="1" opacity="0.984313725490196" d="M 150.5 50 Q 158.3 53.3 163 59.5 L 166 63.5 L 162 60.5 L 157.5 55 L 150.5 51 L 150.5 50 Z " /><path fill="rgb(175,175,175)" stroke="rgb(175,175,175)" stroke-width="1" opacity="0.984313725490196" d="M 55.5 57 L 58 58 L 57.5 60 L 55.5 57 Z " /><path fill="rgb(175,175,175)" stroke="rgb(175,175,175)" stroke-width="1" opacity="0.984313725490196" d="M 78.5 61 L 84 61.5 L 78.5 62 L 78.5 61 Z " /><path fill="rgb(175,175,175)" stroke="rgb(175,175,175)" stroke-width="1" opacity="0.984313725490196" d="M 86.5 62 L 93 62.5 L 86.5 63 L 86.5 62 Z " /><path fill="rgb(175,175,175)" stroke="rgb(175,175,175)" stroke-width="1" opacity="0.984313725490196" d="M 143.5 66 L 151 72.5 L 153 77.5 L 152 77.5 Q 150.5 71 145.5 68 L 143.5 66 Z " /><path fill="rgb(175,175,175)" stroke="rgb(175,175,175)" stroke-width="1" opacity="0.984313725490196" d="M 170.5 75 L 171 79.5 L 170 79.5 L 170.5 75 Z " /><path fill="rgb(175,175,175)" stroke="rgb(175,175,175)" stroke-width="1" opacity="0.984313725490196" d="M 153.5 79 L 154 88.5 L 153 88.5 L 153.5 79 Z " /><path fill="rgb(175,175,175)" stroke="rgb(175,175,175)" stroke-width="1" opacity="0.984313725490196" d="M 171.5 82 L 172 85.5 L 171 85.5 L 171.5 82 Z " /><path fill="rgb(175,175,175)" stroke="rgb(175,175,175)" stroke-width="1" opacity="0.984313725490196" d="M 170.5 88 L 171 93.5 L 169.5 96 L 169 94.5 L 170.5 88 Z " /><path fill="rgb(175,175,175)" stroke="rgb(175,175,175)" stroke-width="1" opacity="0.984313725490196" d="M 151.5 93 L 151 94.5 L 144.5 102 L 141.5 103 L 141.5 102 Q 147.6 100.6 150 95.5 L 151.5 93 Z " /><path fill="rgb(175,175,175)" stroke="rgb(175,175,175)" stroke-width="1" opacity="0.984313725490196" d="M 99.5 97 L 102 100.5 L 99.5 104 L 100 102.5 L 101 100.5 L 99.5 97 Z " /><path fill="rgb(175,175,175)" stroke="rgb(175,175,175)" stroke-width="1" opacity="0.984313725490196" d="M 109.5 101 L 111.5 104 L 109.5 101 Z " /><path fill="rgb(175,175,175)" stroke="rgb(175,175,175)" stroke-width="1" opacity="0.984313725490196" d="M 94.5 102 L 95.5 104 L 94.5 102 Z " /><path fill="rgb(175,175,175)" stroke="rgb(175,175,175)" stroke-width="1" opacity="0.984313725490196" d="M 137.5 103 L 140 103.5 L 137.5 104 L 137.5 103 Z " /><path fill="rgb(175,175,175)" stroke="rgb(175,175,175)" stroke-width="1" opacity="0.984313725490196" d="M 57.5 104 L 62 104.5 Q 51.7 105.2 47 111.5 L 43.5 118 L 43 116.5 L 49.5 108 L 57.5 104 Z " /><path fill="rgb(175,175,175)" stroke="rgb(175,175,175)" stroke-width="1" opacity="0.984313725490196" d="M 165.5 104 L 164 106.5 L 156.5 115 L 150.5 118 L 150.5 117 Q 158.3 113.8 163 107.5 L 165.5 104 Z " /><path fill="rgb(175,175,175)" stroke="rgb(175,175,175)" stroke-width="1" opacity="0.984313725490196" d="M 42.5 119 L 43 121 L 140.5 121 L 146.5 119 L 146.5 120 L 140.5 122 L 42 122 L 42.5 119 Z " /><path fill="rgb(175,175,175)" stroke="rgb(175,175,175)" stroke-width="1" opacity="0.984313725490196" d="M 37.5 128 L 166 128.5 L 37.5 129 L 37.5 128 Z " /><path fill="rgb(175,175,175)" stroke="rgb(175,175,175)" stroke-width="1" opacity="0.984313725490196" d="M 169.5 129 L 175 133.5 L 174.5 135 L 170.5 130 L 169.5 129 Z " /><path fill="rgb(175,175,175)" stroke="rgb(175,175,175)" stroke-width="1" opacity="0.984313725490196" d="M 31.5 130 L 31 131.5 Q 27.8 133.8 29 140.5 L 32 144.5 L 29 142.5 L 28 134.5 L 31.5 130 Z " /><path fill="rgb(175,175,175)" stroke="rgb(175,175,175)" stroke-width="1" opacity="0.984313725490196" d="M 174.5 140 L 175 141.5 L 173 142.5 L 174.5 140 Z " /><path fill="rgb(175,175,175)" stroke="rgb(175,175,175)" stroke-width="1" opacity="0.984313725490196" d="M 171.5 144 L 170.5 146 L 169 145.5 L 171.5 144 Z " /><path fill="rgb(175,175,175)" stroke="rgb(175,175,175)" stroke-width="1" opacity="0.984313725490196" d="M 36.5 146 L 168 146.5 L 36.5 147 L 36.5 146 Z " /><path fill="rgb(175,175,175)" stroke="rgb(175,175,175)" stroke-width="1" opacity="0.984313725490196" d="M 27.5 153 L 176 153.5 L 27.5 154 L 26.5 155 L 27.5 153 Z " /><path fill="rgb(175,175,175)" stroke="rgb(175,175,175)" stroke-width="1" opacity="0.984313725490196" d="M 177.5 154 L 180.5 158 L 177.5 154 Z " /><path fill="rgb(175,175,175)" stroke="rgb(175,175,175)" stroke-width="1" opacity="0.984313725490196" d="M 24.5 155 L 23 157.5 L 22.5 159 L 22 157.5 L 24.5 155 Z " /><path fill="rgb(175,175,175)" stroke="rgb(175,175,175)" stroke-width="1" opacity="0.984313725490196" d="M 21.5 160 Q 21.3 167.2 26 169.5 L 22 166.5 L 21.5 160 Z " /><path fill="rgb(175,175,175)" stroke="rgb(175,175,175)" stroke-width="1" opacity="0.984313725490196" d="M 181.5 163 L 182 165.5 L 178.5 170 L 175.5 171 L 175.5 170 L 180 167.5 L 181.5 163 Z " /><path fill="rgb(236,236,236)" stroke="rgb(236,236,236)" stroke-width="1" opacity="0.9882352941176471" d="M 108.5 44 L 121.5 44 L 122 45.5 L 120.5 45 L 108 45 L 108 65 L 120.5 65 L 121.5 64 L 122 66 L 107 66 L 107 45.5 L 108.5 44 Z " /><path fill="rgb(236,236,236)" stroke="rgb(236,236,236)" stroke-width="1" opacity="0.9882352941176471" d="M 130.5 47 L 140 47.5 L 130.5 48 L 130.5 47 Z " /><path fill="rgb(236,236,236)" stroke="rgb(236,236,236)" stroke-width="1" opacity="0.9882352941176471" d="M 90.5 48 L 94 48.5 L 90.5 49 L 90.5 48 Z " /><path fill="rgb(236,236,236)" stroke="rgb(236,236,236)" stroke-width="1" opacity="0.9882352941176471" d="M 98.5 48 L 99 63 L 93 62.5 L 98 62 L 98.5 48 Z " /><path fill="rgb(236,236,236)" stroke="rgb(236,236,236)" stroke-width="1" opacity="0.9882352941176471" d="M 82.5 49 L 87 49.5 L 82.5 50 L 82.5 49 Z " /><path fill="rgb(236,236,236)" stroke="rgb(236,236,236)" stroke-width="1" opacity="0.9882352941176471" d="M 148.5 50 L 153 52.5 L 151.5 52 Q 147.7 51.7 148.5 50 Z " /><path fill="rgb(236,236,236)" stroke="rgb(236,236,236)" stroke-width="1" opacity="0.9882352941176471" d="M 154.5 53 L 155.5 55 L 154.5 53 Z " /><path fill="rgb(236,236,236)" stroke="rgb(236,236,236)" stroke-width="1" opacity="0.9882352941176471" d="M 157.5 55 L 166 64.5 L 167 67.5 L 166 67.5 L 157.5 55 Z " /><path fill="rgb(236,236,236)" stroke="rgb(236,236,236)" stroke-width="1" opacity="0.9882352941176471" d="M 55.5 58 L 56.5 60 L 54 59.5 L 55.5 58 Z " /><path fill="rgb(236,236,236)" stroke="rgb(236,236,236)" stroke-width="1" opacity="0.9882352941176471" d="M 78.5 60 L 82 60.5 L 78.5 61 L 78.5 60 Z " /><path fill="rgb(236,236,236)" stroke="rgb(236,236,236)" stroke-width="1" opacity="0.9882352941176471" d="M 84.5 61 L 91 61.5 L 84.5 62 L 84.5 61 Z " /><path fill="rgb(236,236,236)" stroke="rgb(236,236,236)" stroke-width="1" opacity="0.9882352941176471" d="M 130.5 63 L 138 63.5 L 130.5 64 L 130.5 63 Z " /><path fill="rgb(236,236,236)" stroke="rgb(236,236,236)" stroke-width="1" opacity="0.9882352941176471" d="M 142.5 65 Q 148.6 66.4 151 71.5 L 145.5 67 Q 141.8 66.8 142.5 65 Z " /><path fill="rgb(236,236,236)" stroke="rgb(236,236,236)" stroke-width="1" opacity="0.9882352941176471" d="M 169.5 74 L 170 76.5 L 169 76.5 L 169.5 74 Z " /><path fill="rgb(236,236,236)" stroke="rgb(236,236,236)" stroke-width="1" opacity="0.9882352941176471" d="M 154.5 80 L 155 87.5 L 154 87.5 L 154.5 80 Z " /><path fill="rgb(236,236,236)" stroke="rgb(236,236,236)" stroke-width="1" opacity="0.9882352941176471" d="M 170.5 80 L 171 87.5 L 170 87.5 L 170.5 80 Z " /><path fill="rgb(236,236,236)" stroke="rgb(236,236,236)" stroke-width="1" opacity="0.9882352941176471" d="M 169.5 91 L 170 93.5 L 169 93.5 L 169.5 91 Z " /><path fill="rgb(236,236,236)" stroke="rgb(236,236,236)" stroke-width="1" opacity="0.9882352941176471" d="M 151.5 94 L 152 95.5 L 145 101.5 L 151.5 94 Z " /><path fill="rgb(236,236,236)" stroke="rgb(236,236,236)" stroke-width="1" opacity="0.9882352941176471" d="M 167.5 98 L 168 99.5 L 157.5 113 L 162 107.5 L 167.5 98 Z " /><path fill="rgb(236,236,236)" stroke="rgb(236,236,236)" stroke-width="1" opacity="0.9882352941176471" d="M 86.5 100 L 94 101.5 L 85.5 103 L 86 101.5 L 86.5 100 Z " /><path fill="rgb(236,236,236)" stroke="rgb(236,236,236)" stroke-width="1" opacity="0.9882352941176471" d="M 108.5 100 L 107.5 102 L 103 101.5 L 108.5 100 Z " /><path fill="rgb(236,236,236)" stroke="rgb(236,236,236)" stroke-width="1" opacity="0.9882352941176471" d="M 101.5 101 L 102 102.5 Q 101 106 95.5 105 L 94.5 103 L 99.5 104 L 101.5 101 Z " /><path fill="rgb(236,236,236)" stroke="rgb(236,236,236)" stroke-width="1" opacity="0.9882352941176471" d="M 109.5 102 L 111.5 104 L 139 104.5 L 111.5 105 L 109.5 102 Z " /><path fill="rgb(236,236,236)" stroke="rgb(236,236,236)" stroke-width="1" opacity="0.9882352941176471" d="M 62.5 104 L 85 104.5 L 62.5 105 L 62.5 104 Z " /><path fill="rgb(236,236,236)" stroke="rgb(236,236,236)" stroke-width="1" opacity="0.9882352941176471" d="M 57.5 105 L 60 105.5 L 57.5 106 L 57.5 105 Z " /><path fill="rgb(236,236,236)" stroke="rgb(236,236,236)" stroke-width="1" opacity="0.9882352941176471" d="M 52.5 107 L 51.5 109 L 52.5 107 Z " /><path fill="rgb(236,236,236)" stroke="rgb(236,236,236)" stroke-width="1" opacity="0.9882352941176471" d="M 49.5 109 L 47.5 112 L 49.5 109 Z " /><path fill="rgb(236,236,236)" stroke="rgb(236,236,236)" stroke-width="1" opacity="0.9882352941176471" d="M 46.5 113 L 45.5 115 L 46.5 113 Z " /><path fill="rgb(236,236,236)" stroke="rgb(236,236,236)" stroke-width="1" opacity="0.9882352941176471" d="M 155.5 113 L 153.5 116 L 155.5 113 Z " /><path fill="rgb(236,236,236)" stroke="rgb(236,236,236)" stroke-width="1" opacity="0.9882352941176471" d="M 148.5 117 L 150 117.5 L 146.5 119 L 146.5 118 L 148.5 117 Z " /><path fill="rgb(236,236,236)" stroke="rgb(236,236,236)" stroke-width="1" opacity="0.9882352941176471" d="M 43.5 118 L 44 120 L 141 120.5 L 43 121 L 43.5 118 Z " /><path fill="rgb(236,236,236)" stroke="rgb(236,236,236)" stroke-width="1" opacity="0.9882352941176471" d="M 35.5 129 L 169 129.5 L 35.5 130 L 35.5 129 Z " /><path fill="rgb(236,236,236)" stroke="rgb(236,236,236)" stroke-width="1" opacity="0.9882352941176471" d="M 32.5 130 L 34 130.5 L 31.5 132 L 32.5 130 Z " /><path fill="rgb(236,236,236)" stroke="rgb(236,236,236)" stroke-width="1" opacity="0.9882352941176471" d="M 170.5 130 L 173.5 134 L 170.5 130 Z " /><path fill="rgb(236,236,236)" stroke="rgb(236,236,236)" stroke-width="1" opacity="0.9882352941176471" d="M 30.5 133 L 30 134.5 L 29.5 136 L 29 134.5 L 30.5 133 Z " /><path fill="rgb(236,236,236)" stroke="rgb(236,236,236)" stroke-width="1" opacity="0.9882352941176471" d="M 174.5 135 L 175 139.5 L 173 144 L 170.5 145 L 173 141.5 L 174.5 135 Z " /><path fill="rgb(236,236,236)" stroke="rgb(236,236,236)" stroke-width="1" opacity="0.9882352941176471" d="M 29.5 139 L 32.5 144 L 34 144.5 L 32.5 145 L 29 140.5 L 29.5 139 Z " /><path fill="rgb(236,236,236)" stroke="rgb(236,236,236)" stroke-width="1" opacity="0.9882352941176471" d="M 35.5 145 L 169 145.5 L 35.5 146 L 35.5 145 Z " /><path fill="rgb(236,236,236)" stroke="rgb(236,236,236)" stroke-width="1" opacity="0.9882352941176471" d="M 175.5 154 L 181 158.5 L 180.5 160 L 176.5 155 L 175.5 154 Z " /><path fill="rgb(236,236,236)" stroke="rgb(236,236,236)" stroke-width="1" opacity="0.9882352941176471" d="M 25.5 155 L 24 157.5 L 22.5 165 L 22 159.5 L 25.5 155 Z " /><path fill="rgb(236,236,236)" stroke="rgb(236,236,236)" stroke-width="1" opacity="0.9882352941176471" d="M 23.5 166 L 28 169.5 L 26.5 170 L 23.5 166 Z " /><path fill="rgb(236,236,236)" stroke="rgb(236,236,236)" stroke-width="1" opacity="0.9882352941176471" d="M 179.5 167 L 178.5 169 L 179.5 167 Z " /><path fill="rgb(236,236,236)" stroke="rgb(236,236,236)" stroke-width="1" opacity="0.9882352941176471" d="M 29.5 170 L 175 170.5 L 29.5 171 L 29.5 170 Z " /><path fill="rgb(124,124,124)" stroke="rgb(124,124,124)" stroke-width="1" opacity="0.18823529411764706" d="M 19.5 20 Q 26 19 28 22.5 L 27.5 24 L 21.5 21 L 19 22 Q 18 26.7 21.5 28 L 27 29 L 27.5 26 L 28 30 L 21.5 30 L 18 28 L 18 21.5 L 19.5 20 Z " /><path fill="rgb(124,124,124)" stroke="rgb(124,124,124)" stroke-width="1" opacity="0.18823529411764706" d="M 32.5 26 L 34 28.5 L 33 30.5 L 34 33 L 41.5 35 L 44 33.5 L 42.5 36 L 38.5 36 L 32 33 L 32.5 26 Z " /><path fill="rgb(124,124,124)" stroke="rgb(124,124,124)" stroke-width="1" opacity="0.18823529411764706" d="M 34.5 26 L 38.5 26 L 44 28 Q 45.1 30.7 42.5 30 Q 40.6 26.4 34.5 27 L 34.5 26 Z " /><path fill="rgb(124,124,124)" stroke="rgb(124,124,124)" stroke-width="1" opacity="0.18823529411764706" d="M 54.5 33 L 58 34.5 L 57.5 36 L 54.5 33 Z " /><path fill="rgb(124,124,124)" stroke="rgb(124,124,124)" stroke-width="1" opacity="0.18823529411764706" d="M 101.5 36 L 127.5 36 L 130 38.5 L 128 39 L 127.5 37 L 102.5 37 L 98.5 40 L 101.5 36 Z " /><path fill="rgb(124,124,124)" stroke="rgb(124,124,124)" stroke-width="1" opacity="0.18823529411764706" d="M 49.5 38 L 53 40.5 L 51.5 41 L 49 40 L 49.5 38 Z " /><path fill="rgb(124,124,124)" stroke="rgb(124,124,124)" stroke-width="1" opacity="0.18823529411764706" d="M 57.5 39 L 58 41 L 56 40.5 L 57.5 39 Z " /><path fill="rgb(124,124,124)" stroke="rgb(124,124,124)" stroke-width="1" opacity="0.18823529411764706" d="M 137.5 39 L 143 39.5 L 137.5 40 L 137.5 39 Z " /><path fill="rgb(124,124,124)" stroke="rgb(124,124,124)" stroke-width="1" opacity="0.18823529411764706" d="M 88 40 L 93 40.5 L 88 42 L 88 40 Z " /><path fill="rgb(124,124,124)" stroke="rgb(124,124,124)" stroke-width="1" opacity="0.18823529411764706" d="M 144.5 40 L 152.5 42 L 164 49.5 L 165.5 52 L 171 56.5 L 177 70.5 L 175 69.5 Q 171.7 56.8 162.5 50 Q 155.5 43.5 144.5 41 L 144.5 40 Z " /><path fill="rgb(124,124,124)" stroke="rgb(124,124,124)" stroke-width="1" opacity="0.18823529411764706" d="M 81 41 L 86 41.5 L 81.5 43 L 81 41 Z " /><path fill="rgb(124,124,124)" stroke="rgb(124,124,124)" stroke-width="1" opacity="0.18823529411764706" d="M 71.5 42 L 79 42.5 Q 73.6 41.6 72 44.5 L 71 46.5 L 71 64.5 L 73.5 68 L 70 66.5 L 70 43.5 L 71.5 42 Z " /><path fill="rgb(124,124,124)" stroke="rgb(124,124,124)" stroke-width="1" opacity="0.18823529411764706" d="M 14 52 L 16 52.5 L 15 56.5 L 16.5 59 Q 14.3 59.8 15 57.5 L 14 52 Z " /><path fill="rgb(124,124,124)" stroke="rgb(124,124,124)" stroke-width="1" opacity="0.18823529411764706" d="M 22.5 52 Q 24.8 51.3 24 53.5 L 22.5 52 Z " /><path fill="rgb(124,124,124)" stroke="rgb(124,124,124)" stroke-width="1" opacity="0.18823529411764706" d="M 32 52 L 35 52.5 L 33 55.5 L 33.5 58 L 36 58.5 L 33.5 59 Q 30.5 57.4 32 52 Z " /><path fill="rgb(124,124,124)" stroke="rgb(124,124,124)" stroke-width="1" opacity="0.18823529411764706" d="M 44.5 52 L 47 52 L 47 57.5 L 43.5 59 L 46 55.5 L 45 54.5 L 44.5 52 Z " /><path fill="rgb(124,124,124)" stroke="rgb(124,124,124)" stroke-width="1" opacity="0.18823529411764706" d="M 55.5 52 L 55 53.5 L 53.5 60 L 53 54.5 L 55.5 52 Z " /><path fill="rgb(124,124,124)" stroke="rgb(124,124,124)" stroke-width="1" opacity="0.18823529411764706" d="M 62.5 52 Q 64.8 51.3 64 53.5 L 62.5 52 Z " /><path fill="rgb(124,124,124)" stroke="rgb(124,124,124)" stroke-width="1" opacity="0.18823529411764706" d="M 23.5 57 L 24 59 L 22 58.5 L 23.5 57 Z " /><path fill="rgb(124,124,124)" stroke="rgb(124,124,124)" stroke-width="1" opacity="0.18823529411764706" d="M 63.5 57 L 64 59 L 62 58.5 L 63.5 57 Z " /><path fill="rgb(124,124,124)" stroke="rgb(124,124,124)" stroke-width="1" opacity="0.18823529411764706" d="M 58.5 58 L 59.5 60 Q 56.7 60.7 58.5 58 Z " /><path fill="rgb(124,124,124)" stroke="rgb(124,124,124)" stroke-width="1" opacity="0.18823529411764706" d="M 77.5 68 L 100 70 L 101.5 73 L 103 73.5 L 99 74 L 97.5 71 L 78.5 70 L 77.5 68 Z " /><path fill="rgb(124,124,124)" stroke="rgb(124,124,124)" stroke-width="1" opacity="0.18823529411764706" d="M 50.5 69 L 57.5 69 L 58 71 L 52.5 70 L 49.5 72 L 49 70.5 L 50.5 69 Z " /><path fill="rgb(124,124,124)" stroke="rgb(124,124,124)" stroke-width="1" opacity="0.18823529411764706" d="M 128.5 71 L 137.5 71 L 146 77.5 L 147 87.5 Q 145.6 93.6 140.5 96 L 138.5 97 L 112.5 97 L 110 99.5 L 109.5 101 L 109 97.5 L 110.5 96 L 136.5 96 L 140.5 93 L 143 93 Q 142.4 88.4 146 86.5 L 146 81.5 L 142 76.5 L 142.5 75 L 136.5 72 L 130.5 72 L 126.5 74 L 128.5 71 Z " /><path fill="rgb(124,124,124)" stroke="rgb(124,124,124)" stroke-width="1" opacity="0.18823529411764706" d="M 177.5 72 L 178 74.5 L 177 74.5 L 177.5 72 Z " /><path fill="rgb(124,124,124)" stroke="rgb(124,124,124)" stroke-width="1" opacity="0.18823529411764706" d="M 35.5 75 L 43.5 75 L 44 77 L 37.5 76 L 33 79.5 Q 32.5 83.5 35.5 84 L 43.5 80 L 44 83 Q 40.8 85.6 33.5 85 Q 30.5 83.5 32 77.5 L 35.5 75 Z " /><path fill="rgb(124,124,124)" stroke="rgb(124,124,124)" stroke-width="1" opacity="0.18823529411764706" d="M 56.5 75 Q 58.8 74.3 58 76.5 L 56.5 78 L 49 78 L 49.5 76 L 54.5 77 L 56.5 75 Z " /><path fill="rgb(124,124,124)" stroke="rgb(124,124,124)" stroke-width="1" opacity="0.18823529411764706" d="M 21.5 81 Q 26.9 80.4 29 82 Q 30.5 88.3 26.5 90 L 19.5 91 L 18 89.5 L 18 82 L 21.5 81 Z M 22 82 L 19 88 L 20 90 L 26 89 L 28 84 L 24 82 L 22 82 Z " /><path fill="rgb(124,124,124)" stroke="rgb(124,124,124)" stroke-width="1" opacity="0.18823529411764706" d="M 177.5 93 L 178 96.5 L 174 107.5 L 162 120.5 Q 176.8 119.2 181 128.5 L 182 132.5 L 181 132.5 Q 179.6 126.4 174.5 124 Q 169.8 120.7 160.5 122 L 159 120.5 L 168 112.5 L 171.5 107 L 173 107.5 L 173 104.5 L 177.5 93 Z " /><path fill="rgb(124,124,124)" stroke="rgb(124,124,124)" stroke-width="1" opacity="0.18823529411764706" d="M 55.5 96 L 84.5 96 L 87 98.5 L 88 100.5 L 85 100.5 Q 86.1 97.2 83.5 98 L 82.5 97 L 59.5 97 Q 48.2 99.2 42 106.5 L 36.5 115 L 36 113.5 L 40.5 106 L 43 104.5 L 46.5 100 L 55.5 96 Z " /><path fill="rgb(124,124,124)" stroke="rgb(124,124,124)" stroke-width="1" opacity="0.18823529411764706" d="M 94.5 96 Q 100.5 94.5 102 97.5 L 103 100.5 L 101 99.5 Q 102.3 95.3 97.5 97 L 95 98 L 94 100.5 L 94.5 102 L 92 100.5 L 94.5 96 Z " /><path fill="rgb(124,124,124)" stroke="rgb(124,124,124)" stroke-width="1" opacity="0.18823529411764706" d="M 35.5 117 L 36 119.5 L 26 126.5 L 24.5 129 Q 21.9 128.2 23 131.5 L 22 131.5 Q 22.7 125.2 27.5 123 L 35 118.5 L 35.5 117 Z " /><path fill="rgb(124,124,124)" stroke="rgb(124,124,124)" stroke-width="1" opacity="0.18823529411764706" d="M 181.5 142 L 182 145.5 Q 179.8 146.8 182.5 148 L 188 152.5 L 189 157.5 L 188 157.5 Q 186.6 151.4 181.5 149 L 179 147.5 L 181.5 142 Z " /><path fill="rgb(124,124,124)" stroke="rgb(124,124,124)" stroke-width="1" opacity="0.18823529411764706" d="M 22.5 143 L 24 147.5 L 17 153.5 Q 13.3 157.8 15 167.5 L 22.5 176 L 27.5 178 L 175.5 178 L 181.5 175 L 184 176.5 Q 179.8 176.3 178.5 179 L 24.5 179 L 17 173.5 L 14 168.5 L 14 154.5 L 17 153 L 19.5 148 L 23 146.5 L 22.5 143 Z " /><path fill="rgb(124,124,124)" stroke="rgb(124,124,124)" stroke-width="1" opacity="0.18823529411764706" d="M 188.5 166 L 189 170.5 L 187 174 L 183.5 175 L 186 171.5 L 188.5 166 Z " /><path fill="rgb(255,255,255)" stroke="rgb(255,255,255)" stroke-width="1" opacity="0.9921568627450981" d="M 164.5 50 L 165.5 52 L 164.5 50 Z " /><path fill="rgb(255,255,255)" stroke="rgb(255,255,255)" stroke-width="1" opacity="0.9921568627450981" d="M 87 102 L 93 102 L 93 104 L 87 104 L 87 102 Z " /><path fill="rgb(255,255,255)" stroke="rgb(255,255,255)" stroke-width="1" opacity="0.9921568627450981" d="M 102 102 L 108 102 L 108 104 L 102 104 L 102 102 Z " /><path fill="rgb(255,255,255)" stroke="rgb(255,255,255)" stroke-width="1" opacity="0.9921568627450981" d="M 179.5 126 L 180.5 128 L 179.5 126 Z " /><path fill="rgb(255,255,255)" stroke="rgb(255,255,255)" stroke-width="1" opacity="0.9921568627450981" d="M 180.5 177 L 179.5 179 L 180.5 177 Z " /><path fill="rgb(255,255,255)" stroke="rgb(255,255,255)" stroke-width="1" opacity="1" d="M 109 46 L 121 46 L 121 65 L 109 65 L 109 46 Z " /><path fill="rgb(255,255,255)" stroke="rgb(255,255,255)" stroke-width="1" opacity="1" d="M 97.5 48 L 98 61 L 79 60 L 79 51 L 85.5 51 L 97.5 48 Z " /><path fill="rgb(255,255,255)" stroke="rgb(255,255,255)" stroke-width="1" opacity="1" d="M 130 48 L 141.5 48 L 152.5 53 L 162 61.5 L 169 73.5 L 170 87.5 Q 166.7 104.2 155.5 113 L 141.5 120 L 44.5 120 L 45 118.5 L 45 116.5 L 50 110 L 58.5 106 L 85 106 L 85.5 104 L 93.5 104 Q 94.5 107 99.5 106 Q 101.3 102.3 108.5 104 L 111.5 106 L 137.5 106 Q 147.5 104 152 96.5 Q 157 91 155 78.5 Q 152.5 70.5 146.5 66 L 136.5 62 L 130 62 L 130 48 Z " /><path fill="rgb(255,255,255)" stroke="rgb(255,255,255)" stroke-width="1" opacity="1" d="M 34.5 131 L 169.5 131 L 173 134.5 Q 174.5 142.5 169.5 144 L 167.5 145 L 35.5 145 L 31 141.5 L 30 135.5 L 32.5 132 L 34.5 131 Z " /><path fill="rgb(255,255,255)" stroke="rgb(255,255,255)" stroke-width="1" opacity="1" d="M 28.5 155 L 175.5 155 L 179 157 Q 180.6 159.1 180 164.5 L 177.5 168 L 175.5 169 L 27.5 169 L 24 167 L 23 160.5 L 26.5 156 L 28.5 155 Z " /></svg>