<svg width="200" height="200" version="1.1" xmlns="http://www.w3.org/2000/svg" desc="Created with imagetracer.js version 1.2.6" ><path fill="rgb(192,183,177)" stroke="rgb(192,183,177)" stroke-width="1" opacity="0.3803921568627451" d="M 52.5 13 L 62.5 13 L 64 14.5 L 62.5 14 L 52.5 14 L 52.5 13 Z " /><path fill="rgb(192,183,177)" stroke="rgb(192,183,177)" stroke-width="1" opacity="0.3803921568627451" d="M 52.5 16 L 53 22 L 50.5 23 L 51 21.5 L 52.5 16 Z " /><path fill="rgb(192,183,177)" stroke="rgb(192,183,177)" stroke-width="1" opacity="0.3803921568627451" d="M 64.5 17 L 65.5 19 L 64.5 17 Z " /><path fill="rgb(192,183,177)" stroke="rgb(192,183,177)" stroke-width="1" opacity="0.3803921568627451" d="M 66.5 21 L 67.5 22 L 95 22 Q 96.3 25 92.5 24 L 91.5 23 L 74.5 23 L 72.5 23 L 66 23 L 66.5 21 Z " /><path fill="rgb(192,183,177)" stroke="rgb(192,183,177)" stroke-width="1" opacity="0.3803921568627451" d="M 46.5 26 L 45.5 28 L 43 27.5 L 46.5 26 Z " /><path fill="rgb(192,183,177)" stroke="rgb(192,183,177)" stroke-width="1" opacity="0.3803921568627451" d="M 40.5 29 L 43 29.5 L 39.5 31 L 40.5 29 Z " /><path fill="rgb(192,183,177)" stroke="rgb(192,183,177)" stroke-width="1" opacity="0.3803921568627451" d="M 94.5 30 L 95 32 L 93 31.5 L 94.5 30 Z " /><path fill="rgb(192,183,177)" stroke="rgb(192,183,177)" stroke-width="1" opacity="0.3803921568627451" d="M 93 33 L 95 33.5 L 93.5 37 L 93 33 Z " /><path fill="rgb(192,183,177)" stroke="rgb(192,183,177)" stroke-width="1" opacity="0.3803921568627451" d="M 33.5 34 L 31.5 37 L 30 36.5 L 33.5 34 Z " /><path fill="rgb(192,183,177)" stroke="rgb(192,183,177)" stroke-width="1" opacity="0.3803921568627451" d="M 91.5 35 L 92 38.5 L 91 38.5 L 91.5 35 Z " /><path fill="rgb(192,183,177)" stroke="rgb(192,183,177)" stroke-width="1" opacity="0.3803921568627451" d="M 89.5 37 L 90 39 L 87.5 40 L 89.5 37 Z " /><path fill="rgb(192,183,177)" stroke="rgb(192,183,177)" stroke-width="1" opacity="0.3803921568627451" d="M 83.5 42 L 88 42.5 L 83.5 43 L 83.5 42 Z " /><path fill="rgb(192,183,177)" stroke="rgb(192,183,177)" stroke-width="1" opacity="0.3803921568627451" d="M 18 43 Q 21.8 42 23 44.5 L 18.5 47 Q 15.8 45.8 18 44.5 L 18 43 Z " /><path fill="rgb(192,183,177)" stroke="rgb(192,183,177)" stroke-width="1" opacity="0.3803921568627451" d="M 15 47 L 17 47.5 L 15 48.5 L 15 47 Z " /><path fill="rgb(192,183,177)" stroke="rgb(192,183,177)" stroke-width="1" opacity="0.3803921568627451" d="M 12.5 48 Q 15.5 49.5 12.5 51 L 12.5 48 Z " /><path fill="rgb(192,183,177)" stroke="rgb(192,183,177)" stroke-width="1" opacity="0.3803921568627451" d="M 88.5 50 L 93 52.5 L 88.5 53 Q 85.5 51.5 88.5 50 Z " /><path fill="rgb(192,183,177)" stroke="rgb(192,183,177)" stroke-width="1" opacity="0.3803921568627451" d="M 6.5 54 Q 9.3 55.2 7 56.5 L 7 67.5 L 8 68.5 L 6 69 L 6.5 54 Z " /><path fill="rgb(192,183,177)" stroke="rgb(192,183,177)" stroke-width="1" opacity="0.3803921568627451" d="M 93.5 54 Q 98.9 53.1 101 55.5 L 96.5 56 L 93.5 55 L 93.5 54 Z " /><path fill="rgb(192,183,177)" stroke="rgb(192,183,177)" stroke-width="1" opacity="0.3803921568627451" d="M 104.5 55 L 162 55.5 L 104.5 56 L 104.5 55 Z " /><path fill="rgb(192,183,177)" stroke="rgb(192,183,177)" stroke-width="1" opacity="0.3803921568627451" d="M 165.5 56 Q 167.3 58.7 173.5 57 L 178 59.5 L 175.5 60 Q 173.8 56.3 166.5 58 L 165.5 56 Z " /><path fill="rgb(192,183,177)" stroke="rgb(192,183,177)" stroke-width="1" opacity="0.3803921568627451" d="M 6.5 70 Q 9.8 68.9 9 71.5 L 7.5 71 L 6.5 70 Z " /><path fill="rgb(192,183,177)" stroke="rgb(192,183,177)" stroke-width="1" opacity="0.3803921568627451" d="M 190.5 71 L 192 75.5 L 190 74.5 L 190.5 71 Z " /><path fill="rgb(192,183,177)" stroke="rgb(192,183,177)" stroke-width="1" opacity="0.3803921568627451" d="M 13.5 77 L 19 78 L 18.5 81 L 15 79.5 L 17 78.5 Q 12.6 78.9 13.5 77 Z " /><path fill="rgb(192,183,177)" stroke="rgb(192,183,177)" stroke-width="1" opacity="0.3803921568627451" d="M 21.5 79 L 23.5 81 L 34 81.5 L 20.5 82 L 20.5 81 L 22 80.5 L 21.5 79 Z " /><path fill="rgb(192,183,177)" stroke="rgb(192,183,177)" stroke-width="1" opacity="0.3803921568627451" d="M 37.5 93 L 40 96.5 L 37 97 L 37.5 93 Z " /><path fill="rgb(192,183,177)" stroke="rgb(192,183,177)" stroke-width="1" opacity="0.3803921568627451" d="M 39 106 L 41 106.5 L 39.5 111 L 39 106 Z " /><path fill="rgb(192,183,177)" stroke="rgb(192,183,177)" stroke-width="1" opacity="0.3803921568627451" d="M 41.5 108 L 42 110.5 L 41 110.5 L 41.5 108 Z " /><path fill="rgb(192,183,177)" stroke="rgb(192,183,177)" stroke-width="1" opacity="0.3803921568627451" d="M 41.5 114 L 43 117.5 L 41.5 122 L 41.5 114 Z " /><path fill="rgb(192,183,177)" stroke="rgb(192,183,177)" stroke-width="1" opacity="0.3803921568627451" d="M 43.5 125 L 45 128.5 L 43 129.5 L 43.5 125 Z " /><path fill="rgb(192,183,177)" stroke="rgb(192,183,177)" stroke-width="1" opacity="0.3803921568627451" d="M 45 134 Q 48 133 47 136 Q 44 137 45 134 Z " /><path fill="rgb(192,183,177)" stroke="rgb(192,183,177)" stroke-width="1" opacity="0.3803921568627451" d="M 193.5 140 L 194 142.5 L 192 141.5 L 193.5 140 Z " /><path fill="rgb(192,183,177)" stroke="rgb(192,183,177)" stroke-width="1" opacity="0.3803921568627451" d="M 55.5 145 L 58 147.5 L 58 188.5 L 57 188.5 L 57 147.5 L 55.5 145 Z " /><path fill="rgb(192,183,177)" stroke="rgb(192,183,177)" stroke-width="1" opacity="0.3803921568627451" d="M 91.5 147 Q 94.5 148.5 91.5 150 L 88 148.5 L 91.5 147 Z " /><path fill="rgb(192,183,177)" stroke="rgb(192,183,177)" stroke-width="1" opacity="0.3803921568627451" d="M 109 148 L 112 148.5 L 109 150 L 109 148 Z " /><path fill="rgb(192,183,177)" stroke="rgb(192,183,177)" stroke-width="1" opacity="0.3803921568627451" d="M 114.5 149 L 123 158.5 L 121 157.5 L 119.5 155 L 118.5 156 L 113 150.5 L 114.5 149 Z " /><path fill="rgb(192,183,177)" stroke="rgb(192,183,177)" stroke-width="1" opacity="0.3803921568627451" d="M 92.5 151 L 95 156.5 L 94 156.5 L 93.5 155 L 92.5 159 L 92.5 151 Z " /><path fill="rgb(192,183,177)" stroke="rgb(192,183,177)" stroke-width="1" opacity="0.3803921568627451" d="M 110.5 152 L 112 154.5 L 110.5 157 L 109 153.5 L 110.5 152 Z " /><path fill="rgb(192,183,177)" stroke="rgb(192,183,177)" stroke-width="1" opacity="0.3803921568627451" d="M 112.5 157 L 113.5 165 L 114.5 162 L 115 167.5 L 114 167.5 Q 110.2 164.4 112.5 157 Z " /><path fill="rgb(192,183,177)" stroke="rgb(192,183,177)" stroke-width="1" opacity="0.3803921568627451" d="M 124 157 L 131 158.5 L 130.5 160 L 132 160.5 L 132 167 Q 127.9 168.7 129 164.5 L 131 161.5 Q 129.5 157.8 124 159 L 124 157 Z " /><path fill="rgb(192,183,177)" stroke="rgb(192,183,177)" stroke-width="1" opacity="0.3803921568627451" d="M 94.5 158 Q 98.1 160.9 97 168.5 L 96 168.5 L 95.5 162 L 94.5 164 L 94.5 158 Z " /><path fill="rgb(192,183,177)" stroke="rgb(192,183,177)" stroke-width="1" opacity="0.3803921568627451" d="M 147.5 164 L 148 168.5 L 146 167.5 L 147.5 164 Z " /><path fill="rgb(192,183,177)" stroke="rgb(192,183,177)" stroke-width="1" opacity="0.3803921568627451" d="M 154.5 164 L 160 164.5 L 154.5 165 L 154.5 164 Z " /><path fill="rgb(192,183,177)" stroke="rgb(192,183,177)" stroke-width="1" opacity="0.3803921568627451" d="M 163.5 168 L 164 187.5 L 163 187.5 L 163.5 168 Z " /><path fill="rgb(192,183,177)" stroke="rgb(192,183,177)" stroke-width="1" opacity="0.3803921568627451" d="M 183.5 169 Q 185.8 168.3 185 170.5 L 185.5 172 L 182 172.5 L 182 193 L 163.5 193 L 163.5 192 L 181 192 L 181 171.5 L 183.5 171 L 183.5 169 Z " /><path fill="rgb(192,183,177)" stroke="rgb(192,183,177)" stroke-width="1" opacity="0.3803921568627451" d="M 77 171 L 79 171.5 L 77 172.5 L 77 171 Z " /><path fill="rgb(192,183,177)" stroke="rgb(192,183,177)" stroke-width="1" opacity="0.3803921568627451" d="M 96.5 171 L 97 176.5 L 96 176.5 L 96.5 171 Z " /><path fill="rgb(192,183,177)" stroke="rgb(192,183,177)" stroke-width="1" opacity="0.3803921568627451" d="M 128.5 171 Q 130.8 170.3 130 172.5 L 129 175 Q 126 176.3 127 172.5 L 128.5 171 Z " /><path fill="rgb(192,183,177)" stroke="rgb(192,183,177)" stroke-width="1" opacity="0.3803921568627451" d="M 146.5 171 L 147 176.5 L 146 176.5 L 145 173.5 L 146.5 171 Z " /><path fill="rgb(192,183,177)" stroke="rgb(192,183,177)" stroke-width="1" opacity="0.3803921568627451" d="M 188.5 171 Q 195.4 169 194 173 Q 189.1 173.8 188.5 171 Z " /><path fill="rgb(192,183,177)" stroke="rgb(192,183,177)" stroke-width="1" opacity="0.3803921568627451" d="M 75.5 173 L 76 190.5 L 75 190.5 L 75.5 173 Z " /><path fill="rgb(192,183,177)" stroke="rgb(192,183,177)" stroke-width="1" opacity="0.3803921568627451" d="M 114.5 173 L 115 177.5 Q 112.3 178.8 112.5 183 L 111 180.5 L 112 175.5 L 114.5 173 Z M 114 175 L 113 178 L 114 178 L 114 175 Z " /><path fill="rgb(192,183,177)" stroke="rgb(192,183,177)" stroke-width="1" opacity="0.3803921568627451" d="M 94.5 176 L 96 179.5 L 94.5 185 L 94.5 176 Z " /><path fill="rgb(192,183,177)" stroke="rgb(192,183,177)" stroke-width="1" opacity="0.3803921568627451" d="M 127.5 176 L 128 179.5 L 126.5 183 L 126 178.5 L 127.5 176 Z " /><path fill="rgb(192,183,177)" stroke="rgb(192,183,177)" stroke-width="1" opacity="0.3803921568627451" d="M 144.5 178 L 146 178.5 L 145 184 Q 141.3 182.7 143 188.5 L 142 188.5 L 141 186.5 L 142 181.5 L 144.5 178 Z " /><path fill="rgb(192,183,177)" stroke="rgb(192,183,177)" stroke-width="1" opacity="0.3803921568627451" d="M 92.5 181 L 93 190 Q 96.9 192.4 106.5 191 Q 108.3 187.3 110 190.5 L 107 191.5 L 109 192.5 L 93.5 193 L 92 191.5 L 92.5 181 Z " /><path fill="rgb(192,183,177)" stroke="rgb(192,183,177)" stroke-width="1" opacity="0.3803921568627451" d="M 124.5 181 L 125 190 Q 128.6 192.3 137.5 191 L 140 190 L 140.5 188 L 141 191 L 139 191.5 L 141 192.5 L 125.5 193 L 124 191.5 L 124.5 181 Z " /><path fill="rgb(192,183,177)" stroke="rgb(192,183,177)" stroke-width="1" opacity="0.3803921568627451" d="M 110.5 183 L 111 185 L 113 185.5 L 111 186 L 110.5 188 Q 107.8 186.7 110 185.5 L 110.5 183 Z " /><path fill="rgb(192,183,177)" stroke="rgb(192,183,177)" stroke-width="1" opacity="0.3803921568627451" d="M 58.5 192 L 76 192.5 L 58.5 193 L 58.5 192 Z " /><path fill="rgb(130,130,130)" stroke="rgb(130,130,130)" stroke-width="1" opacity="0.7568627450980392" d="M 68.5 24 L 94.5 24 L 96 25.5 Q 96.8 30.3 93.5 31 L 93 28 Q 96.3 29.1 95 25 L 68.5 25 L 67.5 26 L 68.5 24 Z " /><path fill="rgb(130,130,130)" stroke="rgb(130,130,130)" stroke-width="1" opacity="0.7568627450980392" d="M 91 33 Q 94 32 93 35 L 91 35 Q 92.1 37.7 89.5 37 L 86 39.5 Q 85.3 37.3 87.5 38 L 91 33 Z " /><path fill="rgb(130,130,130)" stroke="rgb(130,130,130)" stroke-width="1" opacity="0.7568627450980392" d="M 50.5 35 L 49.5 37 L 50.5 35 Z " /><path fill="rgb(130,130,130)" stroke="rgb(130,130,130)" stroke-width="1" opacity="0.7568627450980392" d="M 44.5 39 L 43.5 41 L 44.5 39 Z " /><path fill="rgb(130,130,130)" stroke="rgb(130,130,130)" stroke-width="1" opacity="0.7568627450980392" d="M 23.5 40 L 22.5 42 L 23.5 40 Z " /><path fill="rgb(130,130,130)" stroke="rgb(130,130,130)" stroke-width="1" opacity="0.7568627450980392" d="M 81.5 40 Q 84.8 38.9 84 41.5 L 81.5 43 L 79 41.5 L 81.5 40 Z " /><path fill="rgb(130,130,130)" stroke="rgb(130,130,130)" stroke-width="1" opacity="0.7568627450980392" d="M 39.5 42 L 38.5 44 L 39.5 42 Z " /><path fill="rgb(130,130,130)" stroke="rgb(130,130,130)" stroke-width="1" opacity="0.7568627450980392" d="M 36.5 51 L 37 54.5 L 36 54.5 L 36.5 51 Z " /><path fill="rgb(130,130,130)" stroke="rgb(130,130,130)" stroke-width="1" opacity="0.7568627450980392" d="M 86.5 51 L 87.5 53 L 85 52.5 L 86.5 51 Z " /><path fill="rgb(130,130,130)" stroke="rgb(130,130,130)" stroke-width="1" opacity="0.7568627450980392" d="M 89.5 53 L 95 55.5 L 93.5 56 Q 89.5 55.5 89.5 53 Z " /><path fill="rgb(130,130,130)" stroke="rgb(130,130,130)" stroke-width="1" opacity="0.7568627450980392" d="M 103 56 L 159.5 56 L 160 58 L 103.5 58 L 103 56 Z " /><path fill="rgb(130,130,130)" stroke="rgb(130,130,130)" stroke-width="1" opacity="0.7568627450980392" d="M 76.5 60 L 77 62.5 L 76 62.5 L 76.5 60 Z " /><path fill="rgb(130,130,130)" stroke="rgb(130,130,130)" stroke-width="1" opacity="0.7568627450980392" d="M 155.5 62 L 154.5 64 L 155.5 62 Z " /><path fill="rgb(130,130,130)" stroke="rgb(130,130,130)" stroke-width="1" opacity="0.7568627450980392" d="M 165.5 70 L 168 70.5 L 165.5 71 L 165.5 70 Z " /><path fill="rgb(130,130,130)" stroke="rgb(130,130,130)" stroke-width="1" opacity="0.7568627450980392" d="M 154.5 81 L 153.5 83 L 154.5 81 Z " /><path fill="rgb(130,130,130)" stroke="rgb(130,130,130)" stroke-width="1" opacity="0.7568627450980392" d="M 86.5 86 L 87.5 88 L 86.5 86 Z " /><path fill="rgb(130,130,130)" stroke="rgb(130,130,130)" stroke-width="1" opacity="0.7568627450980392" d="M 152.5 86 L 151.5 88 L 152.5 86 Z " /><path fill="rgb(130,130,130)" stroke="rgb(130,130,130)" stroke-width="1" opacity="0.7568627450980392" d="M 37.5 90 L 40 91 Q 41.7 96.2 38 95 L 37.5 90 Z " /><path fill="rgb(130,130,130)" stroke="rgb(130,130,130)" stroke-width="1" opacity="0.7568627450980392" d="M 88.5 90 L 89.5 92 L 88.5 90 Z " /><path fill="rgb(130,130,130)" stroke="rgb(130,130,130)" stroke-width="1" opacity="0.7568627450980392" d="M 40.5 100 L 42 105 L 39.5 106 L 39 101.5 L 40.5 100 Z " /><path fill="rgb(130,130,130)" stroke="rgb(130,130,130)" stroke-width="1" opacity="0.7568627450980392" d="M 85.5 100 L 86.5 102 L 85.5 100 Z " /><path fill="rgb(130,130,130)" stroke="rgb(130,130,130)" stroke-width="1" opacity="0.7568627450980392" d="M 173.5 102 L 174 103.5 L 172 104.5 L 173.5 102 Z " /><path fill="rgb(130,130,130)" stroke="rgb(130,130,130)" stroke-width="1" opacity="0.7568627450980392" d="M 108.5 104 L 109.5 106 L 108.5 104 Z " /><path fill="rgb(130,130,130)" stroke="rgb(130,130,130)" stroke-width="1" opacity="0.7568627450980392" d="M 40.5 111 L 43 112.5 Q 45.3 115.7 44 122.5 L 47 134 Q 43.5 135.1 45 127.5 Q 41.4 124.6 43 116.5 L 40.5 111 Z " /><path fill="rgb(130,130,130)" stroke="rgb(130,130,130)" stroke-width="1" opacity="0.7568627450980392" d="M 100.5 111 L 101.5 113 L 100.5 111 Z " /><path fill="rgb(130,130,130)" stroke="rgb(130,130,130)" stroke-width="1" opacity="0.7568627450980392" d="M 125.5 112 L 131 112.5 L 125.5 113 L 125.5 112 Z " /><path fill="rgb(130,130,130)" stroke="rgb(130,130,130)" stroke-width="1" opacity="0.7568627450980392" d="M 104.5 114 L 105.5 116 L 104.5 114 Z " /><path fill="rgb(130,130,130)" stroke="rgb(130,130,130)" stroke-width="1" opacity="0.7568627450980392" d="M 148.5 116 L 149.5 118 L 148.5 116 Z " /><path fill="rgb(130,130,130)" stroke="rgb(130,130,130)" stroke-width="1" opacity="0.7568627450980392" d="M 79.5 121 L 81.5 124 L 79.5 121 Z " /><path fill="rgb(130,130,130)" stroke="rgb(130,130,130)" stroke-width="1" opacity="0.7568627450980392" d="M 138.5 122 L 138 123.5 L 139 126.5 L 138 126.5 L 137 123.5 L 138.5 122 Z " /><path fill="rgb(130,130,130)" stroke="rgb(130,130,130)" stroke-width="1" opacity="0.7568627450980392" d="M 106.5 123 L 105.5 125 L 106.5 123 Z " /><path fill="rgb(130,130,130)" stroke="rgb(130,130,130)" stroke-width="1" opacity="0.7568627450980392" d="M 152.5 128 L 149.5 132 L 152.5 128 Z " /><path fill="rgb(130,130,130)" stroke="rgb(130,130,130)" stroke-width="1" opacity="0.7568627450980392" d="M 47.5 136 L 48.5 138 Q 45.7 138.7 47.5 136 Z " /><path fill="rgb(130,130,130)" stroke="rgb(130,130,130)" stroke-width="1" opacity="0.7568627450980392" d="M 46.5 140 L 47.5 142 L 46.5 140 Z " /><path fill="rgb(130,130,130)" stroke="rgb(130,130,130)" stroke-width="1" opacity="0.7568627450980392" d="M 108.5 148 L 109 150.5 L 108 150.5 L 108.5 148 Z " /><path fill="rgb(130,130,130)" stroke="rgb(130,130,130)" stroke-width="1" opacity="0.7568627450980392" d="M 93.5 150 L 94 152.5 L 93 152.5 L 93.5 150 Z " /><path fill="rgb(130,130,130)" stroke="rgb(130,130,130)" stroke-width="1" opacity="0.7568627450980392" d="M 113.5 167 Q 116 168 115 172.5 L 113 173.5 L 113.5 167 Z " /><path fill="rgb(130,130,130)" stroke="rgb(130,130,130)" stroke-width="1" opacity="0.7568627450980392" d="M 129.5 167 Q 132.1 166.2 131 169.5 L 130 169.5 L 129.5 167 Z " /><path fill="rgb(130,130,130)" stroke="rgb(130,130,130)" stroke-width="1" opacity="0.7568627450980392" d="M 182.5 167 L 183.5 169 L 182.5 167 Z " /><path fill="rgb(130,130,130)" stroke="rgb(130,130,130)" stroke-width="1" opacity="0.7568627450980392" d="M 185 169 Q 187.7 167.9 187 170.5 L 187.5 172 L 185 170.5 L 185 169 Z " /><path fill="rgb(130,130,130)" stroke="rgb(130,130,130)" stroke-width="1" opacity="0.7568627450980392" d="M 145.5 170 L 146 172.5 L 145 172.5 L 145.5 170 Z " /><path fill="rgb(130,130,130)" stroke="rgb(130,130,130)" stroke-width="1" opacity="0.7568627450980392" d="M 127.5 175 L 130 175.5 L 128.5 178 L 127.5 175 Z " /><path fill="rgb(130,130,130)" stroke="rgb(130,130,130)" stroke-width="1" opacity="0.7568627450980392" d="M 93.5 186 L 95 189.5 L 93 190 L 93.5 186 Z " /><path fill="rgb(130,130,130)" stroke="rgb(130,130,130)" stroke-width="1" opacity="0.7568627450980392" d="M 125.5 187 L 126 189.5 L 125 189.5 L 125.5 187 Z " /><path fill="rgb(0,0,0)" stroke="rgb(0,0,0)" stroke-width="1" opacity="0" d="M 0 0 L 200 0 L 200 200 L 0 200 L 0 0 Z M 52 13 L 50 24 L 46 27 Q 42 26 43 29 L 39 29 L 39 31 L 32 36 L 29 36 L 27 40 Q 23 39 22 42 L 22 43 L 18 43 L 18 45 L 15 45 L 15 47 Q 9 47 6 53 L 6 71 L 10 76 Q 12 75 11 78 L 15 78 L 15 80 Q 18 79 20 82 L 34 82 L 36 83 Q 34 90 38 92 L 37 94 Q 36 100 39 102 L 39 111 L 41 113 L 41 122 L 43 122 L 43 133 L 46 141 L 53 145 L 55 145 Q 54 148 57 148 L 57 193 L 76 193 L 76 175 L 79 172 L 81 172 L 83 168 L 87 168 L 89 160 L 90 149 L 92 153 Q 91 160 94 159 Q 93 164 96 166 L 96 174 L 94 175 L 94 181 L 92 181 L 92 192 L 94 193 L 109 193 L 111 191 Q 110 185 113 186 L 113 179 L 115 179 L 115 163 L 113 161 L 113 156 Q 110 155 111 150 L 113 151 Q 112 153 115 152 L 115 154 L 123 159 L 129 159 Q 128 162 131 161 Q 132 164 129 163 L 129 168 L 127 170 Q 128 174 126 176 Q 127 182 124 182 L 124 193 L 141 193 Q 140 190 143 191 L 143 184 L 145 184 Q 144 179 147 178 L 148 168 L 152 164 L 160 166 L 163 169 L 163 193 L 182 193 L 182 172 L 188 172 Q 190 175 194 174 L 194 80 L 191 75 L 191 70 L 187 68 L 187 66 L 185 66 L 184 63 Q 181 64 182 61 L 178 61 L 178 59 Q 175 60 174 57 L 167 57 L 165 55 L 105 55 L 104 56 L 101 56 L 101 54 L 95 54 L 95 52 L 90 52 L 90 50 L 87 49 Q 88 46 85 47 L 85 45 L 81 45 L 82 43 L 88 43 L 88 41 L 90 41 Q 89 38 92 39 L 96 32 L 96 24 L 95 22 L 67 22 L 64 15 L 64 13 L 52 13 Z " /><path fill="rgb(189,143,148)" stroke="rgb(189,143,148)" stroke-width="1" opacity="0.9568627450980393" d="M 56 14 L 59 14.5 L 56 16 L 56 14 Z " /><path fill="rgb(189,143,148)" stroke="rgb(189,143,148)" stroke-width="1" opacity="0.9568627450980393" d="M 54.5 16 L 55 23.5 L 53 22.5 Q 52.3 17.8 54.5 16 Z " /><path fill="rgb(189,143,148)" stroke="rgb(189,143,148)" stroke-width="1" opacity="0.9568627450980393" d="M 62.5 16 L 64 21 Q 59.9 22.2 62.5 16 Z " /><path fill="rgb(189,143,148)" stroke="rgb(189,143,148)" stroke-width="1" opacity="0.9568627450980393" d="M 74.5 23 L 92 23.5 L 74.5 24 L 74.5 23 Z " /><path fill="rgb(189,143,148)" stroke="rgb(189,143,148)" stroke-width="1" opacity="0.9568627450980393" d="M 60.5 28 L 61 30 L 59 29.5 L 60.5 28 Z " /><path fill="rgb(189,143,148)" stroke="rgb(189,143,148)" stroke-width="1" opacity="0.9568627450980393" d="M 57.5 30 L 58 32 L 52.5 35 L 52 33 L 57.5 30 Z " /><path fill="rgb(189,143,148)" stroke="rgb(189,143,148)" stroke-width="1" opacity="0.9568627450980393" d="M 46.5 37 L 47 39 L 45 38.5 L 46.5 37 Z " /><path fill="rgb(189,143,148)" stroke="rgb(189,143,148)" stroke-width="1" opacity="0.9568627450980393" d="M 43.5 39 L 41.5 42 L 40 41.5 L 43.5 39 Z " /><path fill="rgb(189,143,148)" stroke="rgb(189,143,148)" stroke-width="1" opacity="0.9568627450980393" d="M 38.5 42 L 37 44.5 L 37 50.5 L 34 60.5 L 34 79 L 59 79.5 L 55.5 81 L 23.5 81 L 10 74 L 7 67.5 L 7 56.5 L 10 51 L 12.5 51 Q 16.3 46.3 23.5 45 L 29 47 L 29 49 Q 31.7 47.9 31 50.5 Q 34.3 52.2 33.5 58 L 36 50.5 L 36 44.5 L 38.5 42 Z " /><path fill="rgb(189,143,148)" stroke="rgb(189,143,148)" stroke-width="1" opacity="0.9568627450980393" d="M 84 51 L 86 51.5 L 85 52.5 L 85 79.5 L 86 84.5 L 85 84.5 L 84 82.5 L 84 51 Z " /><path fill="rgb(189,143,148)" stroke="rgb(189,143,148)" stroke-width="1" opacity="0.9568627450980393" d="M 158.5 58 L 159 59.5 L 156.5 63 L 156 60 Q 158.8 61 158.5 58 Z " /><path fill="rgb(189,143,148)" stroke="rgb(189,143,148)" stroke-width="1" opacity="0.9568627450980393" d="M 75 63 Q 77.7 61.9 77 64.5 L 75 65.5 L 75 63 Z " /><path fill="rgb(189,143,148)" stroke="rgb(189,143,148)" stroke-width="1" opacity="0.9568627450980393" d="M 154.5 64 L 153.5 66 L 154.5 64 Z " /><path fill="rgb(189,143,148)" stroke="rgb(189,143,148)" stroke-width="1" opacity="0.9568627450980393" d="M 74.5 67 L 75 68.5 L 72 70.5 L 74.5 67 Z " /><path fill="rgb(189,143,148)" stroke="rgb(189,143,148)" stroke-width="1" opacity="0.9568627450980393" d="M 152.5 67 L 153 69 L 151 68.5 L 152.5 67 Z " /><path fill="rgb(189,143,148)" stroke="rgb(189,143,148)" stroke-width="1" opacity="0.9568627450980393" d="M 150.5 70 L 151 71.5 L 148.5 78 L 148 74.5 L 150.5 70 Z " /><path fill="rgb(189,143,148)" stroke="rgb(189,143,148)" stroke-width="1" opacity="0.9568627450980393" d="M 162 70 L 165 70.5 L 162.5 72 L 162 70 Z " /><path fill="rgb(189,143,148)" stroke="rgb(189,143,148)" stroke-width="1" opacity="0.9568627450980393" d="M 168.5 70 Q 171.8 68.9 171 71.5 L 169.5 71 L 168.5 70 Z " /><path fill="rgb(189,143,148)" stroke="rgb(189,143,148)" stroke-width="1" opacity="0.9568627450980393" d="M 70 72 L 72 72.5 L 70 73.5 L 70 72 Z " /><path fill="rgb(189,143,148)" stroke="rgb(189,143,148)" stroke-width="1" opacity="0.9568627450980393" d="M 172.5 72 L 174 75.5 L 173 75.5 L 172.5 72 Z " /><path fill="rgb(189,143,148)" stroke="rgb(189,143,148)" stroke-width="1" opacity="0.9568627450980393" d="M 68.5 74 L 66.5 77 L 61.5 79 L 61.5 78 L 68.5 74 Z " /><path fill="rgb(189,143,148)" stroke="rgb(189,143,148)" stroke-width="1" opacity="0.9568627450980393" d="M 156.5 76 L 158 76.5 L 153.5 82 L 154 80.5 L 156.5 76 Z " /><path fill="rgb(189,143,148)" stroke="rgb(189,143,148)" stroke-width="1" opacity="0.9568627450980393" d="M 147.5 79 L 148 100 Q 145.3 101.1 146 98.5 L 147 97.5 L 147.5 79 Z " /><path fill="rgb(189,143,148)" stroke="rgb(189,143,148)" stroke-width="1" opacity="0.9568627450980393" d="M 152.5 83 L 153 85.5 L 151 86.5 L 152.5 83 Z " /><path fill="rgb(189,143,148)" stroke="rgb(189,143,148)" stroke-width="1" opacity="0.9568627450980393" d="M 86.5 87 L 91 93.5 L 87 90.5 L 86.5 87 Z " /><path fill="rgb(189,143,148)" stroke="rgb(189,143,148)" stroke-width="1" opacity="0.9568627450980393" d="M 39.5 88 L 40.5 89 L 56 89.5 L 39 90 L 39.5 88 Z " /><path fill="rgb(189,143,148)" stroke="rgb(189,143,148)" stroke-width="1" opacity="0.9568627450980393" d="M 59.5 90 L 63 91.5 L 61.5 92 L 59.5 90 Z " /><path fill="rgb(189,143,148)" stroke="rgb(189,143,148)" stroke-width="1" opacity="0.9568627450980393" d="M 150.5 91 L 151 100.5 L 150 100.5 L 150.5 91 Z " /><path fill="rgb(189,143,148)" stroke="rgb(189,143,148)" stroke-width="1" opacity="0.9568627450980393" d="M 63.5 93 Q 65.8 92.3 65 94.5 L 63.5 93 Z " /><path fill="rgb(189,143,148)" stroke="rgb(189,143,148)" stroke-width="1" opacity="0.9568627450980393" d="M 94.5 97 L 102 101.5 L 100.5 102 Q 95.2 100.3 94.5 97 Z " /><path fill="rgb(189,143,148)" stroke="rgb(189,143,148)" stroke-width="1" opacity="0.9568627450980393" d="M 68.5 98 Q 70.8 97.3 70 99.5 L 68.5 98 Z " /><path fill="rgb(189,143,148)" stroke="rgb(189,143,148)" stroke-width="1" opacity="0.9568627450980393" d="M 80.5 98 L 88 100 L 87.5 102 L 81.5 99 L 79.5 100 L 80.5 98 Z " /><path fill="rgb(189,143,148)" stroke="rgb(189,143,148)" stroke-width="1" opacity="0.9568627450980393" d="M 78.5 101 L 79 120.5 L 78 120.5 L 77 118.5 L 77 102.5 L 78.5 101 Z " /><path fill="rgb(189,143,148)" stroke="rgb(189,143,148)" stroke-width="1" opacity="0.9568627450980393" d="M 70.5 102 L 72 104.5 L 70 105.5 L 70.5 102 Z " /><path fill="rgb(189,143,148)" stroke="rgb(189,143,148)" stroke-width="1" opacity="0.9568627450980393" d="M 89.5 102 L 100 109 L 99.5 111 L 89 104 L 89.5 102 Z " /><path fill="rgb(189,143,148)" stroke="rgb(189,143,148)" stroke-width="1" opacity="0.9568627450980393" d="M 103.5 102 Q 105.8 101.3 105 103.5 L 103.5 102 Z " /><path fill="rgb(189,143,148)" stroke="rgb(189,143,148)" stroke-width="1" opacity="0.9568627450980393" d="M 144 102 Q 147 101 146 104 Q 143 105 144 102 Z " /><path fill="rgb(189,143,148)" stroke="rgb(189,143,148)" stroke-width="1" opacity="0.9568627450980393" d="M 107.5 104 L 108.5 106 Q 105.7 106.7 107.5 104 Z " /><path fill="rgb(189,143,148)" stroke="rgb(189,143,148)" stroke-width="1" opacity="0.9568627450980393" d="M 173.5 104 L 174 105.5 L 171 111 Q 168 112 169 109 Q 171.7 110.1 171 107.5 L 173.5 104 Z " /><path fill="rgb(189,143,148)" stroke="rgb(189,143,148)" stroke-width="1" opacity="0.9568627450980393" d="M 40.5 105 Q 43.1 104.2 42 107.5 L 41 107.5 L 40.5 105 Z " /><path fill="rgb(189,143,148)" stroke="rgb(189,143,148)" stroke-width="1" opacity="0.9568627450980393" d="M 143.5 105 L 140.5 109 L 143.5 105 Z " /><path fill="rgb(189,143,148)" stroke="rgb(189,143,148)" stroke-width="1" opacity="0.9568627450980393" d="M 110.5 106 L 114 107.5 L 111.5 108 L 110.5 106 Z " /><path fill="rgb(189,143,148)" stroke="rgb(189,143,148)" stroke-width="1" opacity="0.9568627450980393" d="M 151.5 106 Q 153.8 105.3 153 107.5 L 151.5 106 Z " /><path fill="rgb(189,143,148)" stroke="rgb(189,143,148)" stroke-width="1" opacity="0.9568627450980393" d="M 69.5 109 L 70 110.5 L 68 111.5 L 69.5 109 Z " /><path fill="rgb(189,143,148)" stroke="rgb(189,143,148)" stroke-width="1" opacity="0.9568627450980393" d="M 116.5 109 Q 118.8 108.3 118 110.5 L 116.5 109 Z " /><path fill="rgb(189,143,148)" stroke="rgb(189,143,148)" stroke-width="1" opacity="0.9568627450980393" d="M 137 109 Q 140 108 139 111 Q 136 112 137 109 Z " /><path fill="rgb(189,143,148)" stroke="rgb(189,143,148)" stroke-width="1" opacity="0.9568627450980393" d="M 153.5 109 Q 155.8 108.3 155 110.5 L 153.5 109 Z " /><path fill="rgb(189,143,148)" stroke="rgb(189,143,148)" stroke-width="1" opacity="0.9568627450980393" d="M 101.5 111 L 107 114 L 106.5 116 L 101.5 111 Z " /><path fill="rgb(189,143,148)" stroke="rgb(189,143,148)" stroke-width="1" opacity="0.9568627450980393" d="M 121.5 111 L 125 112.5 L 121 113 L 121.5 111 Z " /><path fill="rgb(189,143,148)" stroke="rgb(189,143,148)" stroke-width="1" opacity="0.9568627450980393" d="M 133.5 111 Q 136.1 110.3 135 113 L 131 112.5 L 133.5 111 Z " /><path fill="rgb(189,143,148)" stroke="rgb(189,143,148)" stroke-width="1" opacity="0.9568627450980393" d="M 156.5 111 L 162 112.5 L 157.5 113 L 156.5 111 Z " /><path fill="rgb(189,143,148)" stroke="rgb(189,143,148)" stroke-width="1" opacity="0.9568627450980393" d="M 163.5 112 L 167 112.5 L 163.5 113 L 163.5 112 Z " /><path fill="rgb(189,143,148)" stroke="rgb(189,143,148)" stroke-width="1" opacity="0.9568627450980393" d="M 66.5 113 L 67 115 L 65 114.5 L 66.5 113 Z " /><path fill="rgb(189,143,148)" stroke="rgb(189,143,148)" stroke-width="1" opacity="0.9568627450980393" d="M 63 116 L 65 116.5 L 63 118.5 L 63 126.5 L 61.5 128 L 61 120.5 L 63 116 Z " /><path fill="rgb(189,143,148)" stroke="rgb(189,143,148)" stroke-width="1" opacity="0.9568627450980393" d="M 141.5 116 L 143 116.5 L 139.5 119 L 141.5 116 Z " /><path fill="rgb(189,143,148)" stroke="rgb(189,143,148)" stroke-width="1" opacity="0.9568627450980393" d="M 149.5 116 Q 151.8 115.3 151 117.5 L 149.5 116 Z " /><path fill="rgb(189,143,148)" stroke="rgb(189,143,148)" stroke-width="1" opacity="0.9568627450980393" d="M 107.5 117 Q 110.3 118.4 109 123 L 107 123 L 107.5 117 Z " /><path fill="rgb(189,143,148)" stroke="rgb(189,143,148)" stroke-width="1" opacity="0.9568627450980393" d="M 152.5 118 Q 156 120 155 126.5 L 153 127.5 L 154 123.5 L 152.5 118 Z " /><path fill="rgb(189,143,148)" stroke="rgb(189,143,148)" stroke-width="1" opacity="0.9568627450980393" d="M 137 120 Q 139.7 118.9 139 121.5 L 137 122.5 L 137 120 Z " /><path fill="rgb(189,143,148)" stroke="rgb(189,143,148)" stroke-width="1" opacity="0.9568627450980393" d="M 79.5 122 L 81.5 125 Q 79.3 125.8 80 123.5 L 79.5 122 Z " /><path fill="rgb(189,143,148)" stroke="rgb(189,143,148)" stroke-width="1" opacity="0.9568627450980393" d="M 83.5 125 L 104 125.5 L 102.5 127 L 84.5 127 L 83.5 125 Z " /><path fill="rgb(189,143,148)" stroke="rgb(189,143,148)" stroke-width="1" opacity="0.9568627450980393" d="M 137.5 125 L 139 128.5 L 137 127.5 L 137.5 125 Z " /><path fill="rgb(189,143,148)" stroke="rgb(189,143,148)" stroke-width="1" opacity="0.9568627450980393" d="M 152.5 129 L 150.5 132 L 152.5 129 Z " /><path fill="rgb(189,143,148)" stroke="rgb(189,143,148)" stroke-width="1" opacity="0.9568627450980393" d="M 60.5 130 L 61 131.5 L 58 137 L 56 137 Q 57.1 139.7 54.5 139 L 59 133.5 L 60.5 130 Z " /><path fill="rgb(189,143,148)" stroke="rgb(189,143,148)" stroke-width="1" opacity="0.9568627450980393" d="M 139.5 130 L 142 131.5 L 140.5 131 L 139.5 130 Z " /><path fill="rgb(189,143,148)" stroke="rgb(189,143,148)" stroke-width="1" opacity="0.9568627450980393" d="M 144.5 132 L 148 132.5 L 144.5 133 L 144.5 132 Z " /><path fill="rgb(189,143,148)" stroke="rgb(189,143,148)" stroke-width="1" opacity="0.9568627450980393" d="M 188.5 142 L 192 142.5 L 188.5 143 L 188.5 142 Z " /><path fill="rgb(189,143,148)" stroke="rgb(189,143,148)" stroke-width="1" opacity="0.9568627450980393" d="M 135.5 143 Q 137.8 142.3 137 144.5 L 142 155 L 144 155 L 144 157 L 148 159 L 148 163.5 L 141 184.5 L 141 186.5 L 137.5 191 L 127.5 191 L 126 189.5 L 125 185.5 L 130 175.5 L 129 173.5 L 133 162.5 L 132 160.5 L 132.5 159 L 122.5 157 L 121 155.5 L 121 154 L 119 154 L 119 152 L 117 152 Q 118.1 149.3 115.5 150 L 113 146 L 131.5 146 L 135.5 143 Z " /><path fill="rgb(189,143,148)" stroke="rgb(189,143,148)" stroke-width="1" opacity="0.9568627450980393" d="M 185.5 143 L 187 143.5 L 183.5 145 L 183.5 144 L 185.5 143 Z " /><path fill="rgb(189,143,148)" stroke="rgb(189,143,148)" stroke-width="1" opacity="0.9568627450980393" d="M 92 146 L 106.5 146 L 108 147.5 L 112 160.5 L 112 162.5 L 114 166.5 Q 111.2 168.3 113 174.5 L 111 178.5 L 111 180.5 L 109 189 Q 105.9 188.3 106.5 191 L 95 191 L 93 185.5 L 95 185 L 98 172.5 L 98 167.5 L 98 165.5 L 95 155.5 L 93 153.5 L 94 150.5 L 92 146 Z " /><path fill="rgb(189,143,148)" stroke="rgb(189,143,148)" stroke-width="1" opacity="0.9568627450980393" d="M 179.5 148 L 180 149.5 L 178 151.5 L 177.5 163 L 176 155.5 L 179.5 148 Z " /><path fill="rgb(189,143,148)" stroke="rgb(189,143,148)" stroke-width="1" opacity="0.9568627450980393" d="M 179.5 164 L 183 168.5 L 179 165.5 L 179.5 164 Z " /><path fill="rgb(224,223,222)" stroke="rgb(224,223,222)" stroke-width="1" opacity="0.5725490196078431" d="M 52 14 L 56 14.5 L 53.5 18 L 52 14 Z " /><path fill="rgb(224,223,222)" stroke="rgb(224,223,222)" stroke-width="1" opacity="0.5725490196078431" d="M 63 15 Q 65.7 13.9 65 16.5 L 65.5 19 Q 67.8 18.3 67 20.5 L 66 23 L 72 23.5 L 66.5 24 Q 62.2 21.2 63 15 Z " /><path fill="rgb(224,223,222)" stroke="rgb(224,223,222)" stroke-width="1" opacity="0.5725490196078431" d="M 51.5 22 Q 54.1 21.2 53 24.5 L 51 28 L 40 33 Q 41.3 36 37.5 35 L 28.5 42 L 26 42 Q 27.2 45.7 22 44 L 24 40 L 26.5 40 L 29.5 36 L 31.5 37 L 34 33 L 36.5 32 L 38 32.5 Q 37.3 30.3 39.5 31 L 39.5 29 L 43 30 Q 41.8 27 45.5 28 L 47.5 25 L 49 25.5 L 51.5 22 Z " /><path fill="rgb(224,223,222)" stroke="rgb(224,223,222)" stroke-width="1" opacity="0.5725490196078431" d="M 95.5 29 L 96 31.5 L 93.5 33 L 93.5 32 Q 96.4 32.7 95.5 29 Z " /><path fill="rgb(224,223,222)" stroke="rgb(224,223,222)" stroke-width="1" opacity="0.5725490196078431" d="M 92.5 35 L 93 37.5 L 92 37.5 L 92.5 35 Z " /><path fill="rgb(224,223,222)" stroke="rgb(224,223,222)" stroke-width="1" opacity="0.5725490196078431" d="M 90.5 37 L 91 38.5 L 90 41 L 84.5 42 L 84.5 41 L 90 39 L 90.5 37 Z " /><path fill="rgb(224,223,222)" stroke="rgb(224,223,222)" stroke-width="1" opacity="0.5725490196078431" d="M 79.5 42 L 81.5 46 L 84 45 Q 82.8 48 86.5 47 L 86.5 49 Q 88.8 48.3 88 50.5 L 90 50.5 Q 88.7 53.3 87.5 51 L 85.5 51 L 79 44.5 L 79.5 42 Z " /><path fill="rgb(224,223,222)" stroke="rgb(224,223,222)" stroke-width="1" opacity="0.5725490196078431" d="M 15 45 L 18 46.5 L 15 47 Q 16 50 13 49 L 15 45 Z " /><path fill="rgb(224,223,222)" stroke="rgb(224,223,222)" stroke-width="1" opacity="0.5725490196078431" d="M 10.5 48 L 12 51 L 10 51 L 10 53 Q 7.3 51.9 8 54.5 L 6 53.5 L 8.5 50 Q 11 50.7 10.5 48 Z " /><path fill="rgb(224,223,222)" stroke="rgb(224,223,222)" stroke-width="1" opacity="0.5725490196078431" d="M 93.5 52 Q 96.1 51.3 95 54 L 91 53.5 L 93.5 52 Z " /><path fill="rgb(224,223,222)" stroke="rgb(224,223,222)" stroke-width="1" opacity="0.5725490196078431" d="M 163.5 55 Q 165.8 54.3 165 56.5 L 165.5 58 Q 161 59 160 56.5 L 163.5 55 Z " /><path fill="rgb(224,223,222)" stroke="rgb(224,223,222)" stroke-width="1" opacity="0.5725490196078431" d="M 170.5 58 L 180.5 61 L 185 64.5 Q 183.9 67.8 186.5 67 L 191 70.5 L 190 74 Q 187.3 75.1 188 72.5 L 182 65 L 171.5 60 L 170.5 58 Z " /><path fill="rgb(224,223,222)" stroke="rgb(224,223,222)" stroke-width="1" opacity="0.5725490196078431" d="M 7.5 72 L 10 72 L 12 76 L 14.5 76 L 14.5 77 L 12.5 78 L 8 75 L 7.5 72 Z " /><path fill="rgb(224,223,222)" stroke="rgb(224,223,222)" stroke-width="1" opacity="0.5725490196078431" d="M 190.5 75 L 193 76 L 192 78.5 L 194 79 L 193.5 140 L 193 85.5 L 190 78.5 L 190.5 75 Z " /><path fill="rgb(224,223,222)" stroke="rgb(224,223,222)" stroke-width="1" opacity="0.5725490196078431" d="M 19 79 L 22 80.5 L 19 81 L 19 79 Z " /><path fill="rgb(224,223,222)" stroke="rgb(224,223,222)" stroke-width="1" opacity="0.5725490196078431" d="M 34 81 Q 38.1 79.3 37 83.5 L 38 90 L 36 90 L 36 83.5 Q 33.3 84.1 34 81 Z " /><path fill="rgb(224,223,222)" stroke="rgb(224,223,222)" stroke-width="1" opacity="0.5725490196078431" d="M 38.5 97 Q 41.5 96.2 40 100 Q 36.3 101.5 37 98.5 L 38.5 97 Z " /><path fill="rgb(224,223,222)" stroke="rgb(224,223,222)" stroke-width="1" opacity="0.5725490196078431" d="M 40.5 107 L 41 110.5 L 40 110.5 L 40.5 107 Z " /><path fill="rgb(224,223,222)" stroke="rgb(224,223,222)" stroke-width="1" opacity="0.5725490196078431" d="M 42.5 118 L 43 121.5 L 42 121.5 L 42.5 118 Z " /><path fill="rgb(224,223,222)" stroke="rgb(224,223,222)" stroke-width="1" opacity="0.5725490196078431" d="M 44.5 129 L 45 132 Q 42.3 133.1 43 130.5 L 44.5 129 Z " /><path fill="rgb(224,223,222)" stroke="rgb(224,223,222)" stroke-width="1" opacity="0.5725490196078431" d="M 44.5 133 L 45 136 Q 47.7 134.9 47 137.5 Q 51.3 142.6 58 144 L 59 146.5 L 59 190 Q 62.6 192.3 71.5 191 L 74 190 L 74.5 188 L 76 191.5 L 58.5 192 L 57.5 193 L 57 189.5 L 58 188.5 L 58 147.5 L 55 146.5 L 55.5 145 L 49.5 143 L 47 140.5 L 47 138 Q 44.3 139.1 45 136.5 L 44.5 133 Z " /><path fill="rgb(224,223,222)" stroke="rgb(224,223,222)" stroke-width="1" opacity="0.5725490196078431" d="M 109.5 145 L 113 146 L 114 150 Q 111 151 112 148 L 109 148 L 109.5 145 Z " /><path fill="rgb(224,223,222)" stroke="rgb(224,223,222)" stroke-width="1" opacity="0.5725490196078431" d="M 87 146 L 91 146 L 91 147.5 L 93 150.5 L 91 151.5 L 92 149.5 L 88.5 148 L 89 149.5 Q 89.8 158.8 88 164 Q 85 162.8 86 166.5 L 86.5 168 L 81 169 Q 82.2 172.7 77 171 L 77 173.5 L 75 172.5 L 75 171 L 77 171 Q 75.9 168.3 78.5 169 L 84 166 L 87 159.5 L 87 146 Z " /><path fill="rgb(224,223,222)" stroke="rgb(224,223,222)" stroke-width="1" opacity="0.5725490196078431" d="M 109 150 Q 111.7 148.9 111 151.5 L 109 152.5 L 109 150 Z " /><path fill="rgb(224,223,222)" stroke="rgb(224,223,222)" stroke-width="1" opacity="0.5725490196078431" d="M 93.5 155 L 95 157.5 L 93 158.5 L 93.5 155 Z " /><path fill="rgb(224,223,222)" stroke="rgb(224,223,222)" stroke-width="1" opacity="0.5725490196078431" d="M 111 155 Q 113.7 153.9 113 156.5 L 111 157.5 L 111 155 Z " /><path fill="rgb(224,223,222)" stroke="rgb(224,223,222)" stroke-width="1" opacity="0.5725490196078431" d="M 119.5 155 L 121 157.5 L 119 156.5 L 119.5 155 Z " /><path fill="rgb(224,223,222)" stroke="rgb(224,223,222)" stroke-width="1" opacity="0.5725490196078431" d="M 130.5 159 L 132 159.5 L 129.5 161 L 130.5 159 Z " /><path fill="rgb(224,223,222)" stroke="rgb(224,223,222)" stroke-width="1" opacity="0.5725490196078431" d="M 150.5 161 Q 158.8 161.7 164 165.5 Q 165.1 168.8 162.5 168 L 160 164 L 151.5 163 L 148.5 167 L 148 163.5 L 150.5 161 Z " /><path fill="rgb(224,223,222)" stroke="rgb(224,223,222)" stroke-width="1" opacity="0.5725490196078431" d="M 113.5 162 L 114 164.5 L 113 164.5 L 113.5 162 Z " /><path fill="rgb(224,223,222)" stroke="rgb(224,223,222)" stroke-width="1" opacity="0.5725490196078431" d="M 129.5 163 L 130.5 165 L 129.5 163 Z " /><path fill="rgb(224,223,222)" stroke="rgb(224,223,222)" stroke-width="1" opacity="0.5725490196078431" d="M 128.5 168 L 130 171 Q 126.3 172.5 127 169.5 L 128.5 168 Z " /><path fill="rgb(224,223,222)" stroke="rgb(224,223,222)" stroke-width="1" opacity="0.5725490196078431" d="M 146.5 168 L 148 171 Q 144.5 172.1 146.5 168 Z " /><path fill="rgb(224,223,222)" stroke="rgb(224,223,222)" stroke-width="1" opacity="0.5725490196078431" d="M 96 169 Q 99 168 98 171 Q 95 172 96 169 Z " /><path fill="rgb(224,223,222)" stroke="rgb(224,223,222)" stroke-width="1" opacity="0.5725490196078431" d="M 180 169 L 184 170.5 L 181 171 L 181 192 L 163 192 Q 161.3 186.8 165 188 Q 163.9 190.7 166.5 190 L 167.5 191 L 177.5 191 L 180 188.5 L 180 169 Z " /><path fill="rgb(224,223,222)" stroke="rgb(224,223,222)" stroke-width="1" opacity="0.5725490196078431" d="M 188.5 172 L 194 173.5 L 190.5 174 L 188.5 172 Z " /><path fill="rgb(224,223,222)" stroke="rgb(224,223,222)" stroke-width="1" opacity="0.5725490196078431" d="M 94 174 Q 97.3 172.7 96 177.5 L 95 177.5 L 94 174 Z " /><path fill="rgb(224,223,222)" stroke="rgb(224,223,222)" stroke-width="1" opacity="0.5725490196078431" d="M 145.5 174 L 146 178 Q 143.3 179.1 144 176.5 L 145.5 174 Z " /><path fill="rgb(224,223,222)" stroke="rgb(224,223,222)" stroke-width="1" opacity="0.5725490196078431" d="M 113.5 175 L 115 178.5 L 113 177.5 L 113.5 175 Z " /><path fill="rgb(224,223,222)" stroke="rgb(224,223,222)" stroke-width="1" opacity="0.5725490196078431" d="M 126.5 175 L 127 177.5 L 126 177.5 L 126.5 175 Z " /><path fill="rgb(224,223,222)" stroke="rgb(224,223,222)" stroke-width="1" opacity="0.5725490196078431" d="M 93.5 181 L 94 184.5 L 93 184.5 L 93.5 181 Z " /><path fill="rgb(224,223,222)" stroke="rgb(224,223,222)" stroke-width="1" opacity="0.5725490196078431" d="M 125.5 181 L 126 184.5 L 125 184.5 L 125.5 181 Z " /><path fill="rgb(224,223,222)" stroke="rgb(224,223,222)" stroke-width="1" opacity="0.5725490196078431" d="M 111.5 182 L 113 185 Q 109.5 186.1 111.5 182 Z " /><path fill="rgb(224,223,222)" stroke="rgb(224,223,222)" stroke-width="1" opacity="0.5725490196078431" d="M 109.5 187 L 111 190.5 L 107.5 192 L 107.5 191 L 110 190.5 L 109.5 187 Z " /><path fill="rgb(224,223,222)" stroke="rgb(224,223,222)" stroke-width="1" opacity="0.5725490196078431" d="M 141.5 187 L 143 189.5 L 139.5 192 L 139.5 191 L 141 191 L 141.5 187 Z " /><path fill="rgb(224,223,222)" stroke="rgb(224,223,222)" stroke-width="1" opacity="0.5725490196078431" d="M 125.5 191 L 124.5 193 L 125.5 191 Z " /><path fill="rgb(60,60,60)" stroke="rgb(60,60,60)" stroke-width="1" opacity="0.9607843137254902" d="M 40 49 L 47.5 49 L 49 50.5 L 49 60.5 L 46.5 63 L 40.5 63 Q 41.1 60.3 38 61 L 38 51 Q 41 52 40 49 Z " /><path fill="rgb(99,99,99)" stroke="rgb(99,99,99)" stroke-width="1" opacity="0.996078431372549" d="M 68.5 25 Q 72.3 24 71 27 L 66 26.5 L 68.5 25 Z " /><path fill="rgb(99,99,99)" stroke="rgb(99,99,99)" stroke-width="1" opacity="0.996078431372549" d="M 92 25 Q 96.5 23.5 95 28 L 93 28 L 93 33 Q 90.3 31.9 91 34.5 L 87 37.5 L 90 33.5 L 90 31 L 92 31 L 92 25 Z " /><path fill="rgb(99,99,99)" stroke="rgb(99,99,99)" stroke-width="1" opacity="0.996078431372549" d="M 85.5 38 L 86 40 Q 80 39.3 77 42 L 76.5 44 L 76 41 Q 79.1 41.8 78.5 39 L 84.5 39 L 85.5 38 Z " /><path fill="rgb(99,99,99)" stroke="rgb(99,99,99)" stroke-width="1" opacity="0.996078431372549" d="M 86.5 53 L 90 54.5 L 87.5 55 L 86.5 53 Z " /><path fill="rgb(99,99,99)" stroke="rgb(99,99,99)" stroke-width="1" opacity="0.996078431372549" d="M 92.5 55 L 99.5 57 L 103 56 L 103.5 58 L 157.5 58 L 157.5 59 L 98.5 59 Q 97 55.7 92 57 L 92.5 55 Z " /><path fill="rgb(99,99,99)" stroke="rgb(99,99,99)" stroke-width="1" opacity="0.996078431372549" d="M 34.5 78 L 37 78.5 L 34.5 79 L 34.5 78 Z " /><path fill="rgb(99,99,99)" stroke="rgb(99,99,99)" stroke-width="1" opacity="0.996078431372549" d="M 38.5 90 L 41 90 L 41 97.5 L 43 98.5 L 43 107.5 Q 45.3 108.7 44 113.5 L 43 113.5 Q 40.5 110 42 102.5 L 40 99.5 L 40 91 L 38.5 90 Z " /><path fill="rgb(99,99,99)" stroke="rgb(99,99,99)" stroke-width="1" opacity="0.996078431372549" d="M 44 119 L 46 119.5 L 46 126.5 L 45 126.5 L 44 119 Z " /><path fill="rgb(99,99,99)" stroke="rgb(99,99,99)" stroke-width="1" opacity="0.996078431372549" d="M 46.5 129 Q 49.3 130.4 48 135 Q 51 133.8 50 137.5 L 50.5 139 Q 48.3 139.8 49 137.5 L 47 135.5 L 46.5 129 Z " /><path fill="rgb(99,99,99)" stroke="rgb(99,99,99)" stroke-width="1" opacity="0.996078431372549" d="M 191 143 L 194 143.5 L 194 171 L 187.5 171 L 187 169 L 184.5 169 L 181 166.5 L 183.5 166 L 190.5 169 L 191 143 Z " /><path fill="rgb(99,99,99)" stroke="rgb(99,99,99)" stroke-width="1" opacity="1" d="M 71 25 L 91.5 25 L 92 25.5 L 92 31 Q 89 29.8 90 33.5 L 87 38 Q 84.2 39.9 78 39 Q 79 42 76 41 L 76 43.5 L 77 44.5 L 77 59.5 L 75 67 Q 72 65.8 73 69.5 L 70 74 L 64.5 77 L 61 77 L 60.5 79 L 37.5 79 L 34 78 L 34 60.5 L 37 54.5 L 37 44 L 47 39 Q 45.8 36 49.5 37 L 61 30 Q 59.8 27 63.5 28 Q 65 24.5 66.5 27 Q 72.3 28.7 71 25 Z M 40 49 Q 41 52 38 51 L 38 61 Q 41 60 41 63 L 47 63 L 49 61 L 49 51 L 48 49 L 40 49 Z " /><path fill="rgb(99,99,99)" stroke="rgb(99,99,99)" stroke-width="1" opacity="1" d="M 85.5 53 Q 86.9 56.3 92 55 Q 90.7 58.7 96.5 57 L 98.5 59 L 158 59.5 L 156 60 L 153 67 Q 150 65.8 151 69.5 L 147 77.5 L 147 96.5 L 146 102 L 144 102 L 144 105 L 142 105 L 140 109 Q 135.9 107.7 137 111 L 133.5 111 L 132.5 112 L 123.5 112 L 118 111 Q 119.3 108 115.5 109 Q 110.2 103.5 102 102 L 102 100 L 98 100 Q 99.1 97.3 96.5 98 L 90 92.5 L 86 85.5 Q 87.5 80 85 78.5 L 85.5 53 Z " /><path fill="rgb(99,99,99)" stroke="rgb(99,99,99)" stroke-width="1" opacity="1" d="M 163.5 71 Q 169.6 70.3 172 72 Q 171.3 75.4 174 76.5 L 174 101.5 L 169 111 L 159.5 112 L 153 109 Q 153.8 105.6 151 104.5 L 151 88.5 L 153 86.5 L 155 79 Q 157.7 80.1 157 77.5 L 160.5 73 L 163.5 71 Z " /><path fill="rgb(99,99,99)" stroke="rgb(99,99,99)" stroke-width="1" opacity="1" d="M 41 90 L 57.5 90 L 63 92 L 68 100 L 70 100.5 L 70 109 Q 67 107.8 68 111.5 L 63 118 L 61 118.5 L 61 129.5 Q 58.3 130.6 59 134 Q 56.3 132.9 57 135.5 L 54 137 Q 55.3 140 51.5 139 L 50 135 Q 46.3 136.3 48 130.5 L 46 128.5 L 46 119 L 44 118.5 L 44 108.5 L 43 107.5 L 43 98 L 41 97.5 L 41 90 Z " /><path fill="rgb(99,99,99)" stroke="rgb(99,99,99)" stroke-width="1" opacity="1" d="M 81.5 99 L 89 102 L 91 106 L 93.5 106 L 98 109 Q 96.9 111.7 99.5 111 L 107 116 Q 108.7 123.1 104.5 125 L 82.5 125 L 82 123.5 L 79 120.5 L 79 100 L 81.5 99 Z " /><path fill="rgb(99,99,99)" stroke="rgb(99,99,99)" stroke-width="1" opacity="1" d="M 144.5 116 L 147.5 116 L 153 120.5 Q 154.8 130.3 148.5 132 L 142.5 132 L 142 130 L 140.5 130 L 138 123.5 L 140 118 L 144.5 116 Z " /><path fill="rgb(99,99,99)" stroke="rgb(99,99,99)" stroke-width="1" opacity="1" d="M 188.5 143 L 191 143.5 L 191 168.5 L 189.5 168 Q 181.2 167.8 178 162.5 Q 176.2 151.7 180 148 L 188.5 143 Z " /><path fill="rgb(211,210,209)" stroke="rgb(211,210,209)" stroke-width="1" opacity="0.996078431372549" d="M 59.5 14 L 63 15.5 L 62 21 Q 65.8 19.5 65 22.5 L 66 25.5 L 64.5 25 L 53.5 25 L 53 23.5 L 55 23.5 L 55.5 15 L 57.5 16 L 59.5 14 Z " /><path fill="rgb(211,210,209)" stroke="rgb(211,210,209)" stroke-width="1" opacity="0.996078431372549" d="M 62.5 26 L 63 28 L 61 27.5 L 62.5 26 Z " /><path fill="rgb(211,210,209)" stroke="rgb(211,210,209)" stroke-width="1" opacity="0.996078431372549" d="M 59.5 28 L 58.5 30 L 59.5 28 Z " /><path fill="rgb(211,210,209)" stroke="rgb(211,210,209)" stroke-width="1" opacity="0.996078431372549" d="M 56.5 30 L 55.5 32 L 54 31.5 L 56.5 30 Z " /><path fill="rgb(211,210,209)" stroke="rgb(211,210,209)" stroke-width="1" opacity="0.996078431372549" d="M 51.5 33 L 52 35 L 50 34.5 L 51.5 33 Z " /><path fill="rgb(211,210,209)" stroke="rgb(211,210,209)" stroke-width="1" opacity="0.996078431372549" d="M 48.5 35 L 49 37 L 47 36.5 L 48.5 35 Z " /><path fill="rgb(211,210,209)" stroke="rgb(211,210,209)" stroke-width="1" opacity="0.996078431372549" d="M 45.5 37 L 44.5 39 L 42.5 40 L 43.5 38 L 45.5 37 Z " /><path fill="rgb(211,210,209)" stroke="rgb(211,210,209)" stroke-width="1" opacity="0.996078431372549" d="M 37.5 42 L 36.5 44 L 37.5 42 Z " /><path fill="rgb(211,210,209)" stroke="rgb(211,210,209)" stroke-width="1" opacity="0.996078431372549" d="M 78.5 42 L 79 44.5 L 78 45.5 L 78 66 L 76 66 L 76 71 Q 73.3 69.9 74 72.5 L 73 75 L 71 75 Q 72.1 77.7 69.5 77 L 66 78 L 66 80 L 60 80 L 59.5 82 L 39.5 82 L 39 83.5 L 38 83.5 L 37 81.5 L 55.5 81 L 66.5 77 L 72 72.5 L 77 64.5 L 77 43.5 L 78.5 42 Z " /><path fill="rgb(211,210,209)" stroke="rgb(211,210,209)" stroke-width="1" opacity="0.996078431372549" d="M 23.5 44 L 28 45 L 27.5 47 Q 23.5 46.5 23.5 44 Z " /><path fill="rgb(211,210,209)" stroke="rgb(211,210,209)" stroke-width="1" opacity="0.996078431372549" d="M 79.5 46 L 85 50.5 L 84 51.5 L 84 82.5 L 87 90.5 L 95 98.5 L 92.5 99 L 87 93.5 L 83 85.5 L 83 50.5 L 79.5 46 Z " /><path fill="rgb(211,210,209)" stroke="rgb(211,210,209)" stroke-width="1" opacity="0.996078431372549" d="M 29.5 47 L 30.5 49 Q 27.7 49.7 29.5 47 Z " /><path fill="rgb(211,210,209)" stroke="rgb(211,210,209)" stroke-width="1" opacity="0.996078431372549" d="M 35.5 47 L 36 50.5 L 35 50.5 L 35.5 47 Z " /><path fill="rgb(211,210,209)" stroke="rgb(211,210,209)" stroke-width="1" opacity="0.996078431372549" d="M 31.5 50 L 32.5 52 L 31.5 50 Z " /><path fill="rgb(211,210,209)" stroke="rgb(211,210,209)" stroke-width="1" opacity="0.996078431372549" d="M 34.5 52 L 35 55.5 L 33.5 58 L 33 55.5 L 34.5 52 Z " /><path fill="rgb(211,210,209)" stroke="rgb(211,210,209)" stroke-width="1" opacity="0.996078431372549" d="M 159 58 Q 162.3 56.9 161 61 L 157.5 62 L 159 59.5 L 159 58 Z " /><path fill="rgb(211,210,209)" stroke="rgb(211,210,209)" stroke-width="1" opacity="0.996078431372549" d="M 165.5 58 Q 170.5 57 169.5 60 L 173.5 60 L 172.5 62 L 163 60.5 L 166 59.5 L 165.5 58 Z " /><path fill="rgb(211,210,209)" stroke="rgb(211,210,209)" stroke-width="1" opacity="0.996078431372549" d="M 175 62 Q 178 61 177 64 Q 174 65 175 62 Z " /><path fill="rgb(211,210,209)" stroke="rgb(211,210,209)" stroke-width="1" opacity="0.996078431372549" d="M 155 63 Q 158 61.8 157 65.5 L 156 68 L 154 68 L 154 71 L 152 71 Q 153.1 73.7 150.5 73 L 151 71.5 L 151 69 Q 154 70.3 153 66.5 L 155 63 Z " /><path fill="rgb(211,210,209)" stroke="rgb(211,210,209)" stroke-width="1" opacity="0.996078431372549" d="M 178.5 64 L 184 68.5 L 182.5 69 L 178.5 64 Z " /><path fill="rgb(211,210,209)" stroke="rgb(211,210,209)" stroke-width="1" opacity="0.996078431372549" d="M 164.5 68 L 169.5 68 L 175 71 L 175 107.5 L 173 108 L 173 109.5 L 170 114 L 156.5 114 L 156 112 L 152 112 L 152 110.5 L 147.5 103 L 147 106 L 145 106 L 145 108 L 143 108 L 141 112 L 138 112 L 137.5 114 L 119.5 114 Q 118.4 111.3 115 112 Q 116.3 109 112.5 110 L 96 100.5 L 96.5 99 L 104.5 104 L 107 104 Q 105.8 107 109.5 106 L 117.5 111 L 121 111 L 121.5 113 L 135 113 L 135 111 L 139 111 Q 137.9 108.3 140.5 109 L 144 104 L 146 104 Q 144.7 98.7 148 99.5 L 148 78.5 L 149.5 74 L 150 79.5 L 149 80.5 L 149 88.5 L 150 88.5 L 150 82 L 152 82 L 152 78 L 154 78 Q 152.9 75.3 155.5 76 L 159.5 70 L 164.5 68 Z M 162 70 L 162 72 L 160 72 L 160 74 L 158 74 Q 159 77 157 76 L 151 85 Q 153 90 150 92 L 151 107 L 153 110 L 158 113 L 167 113 Q 166 110 171 111 L 174 106 L 174 74 L 173 72 L 171 72 L 171 70 L 162 70 Z " /><path fill="rgb(211,210,209)" stroke="rgb(211,210,209)" stroke-width="1" opacity="0.996078431372549" d="M 187.5 73 L 189.5 76 L 188 75.5 L 189 77.5 L 187 78 L 187.5 73 Z " /><path fill="rgb(211,210,209)" stroke="rgb(211,210,209)" stroke-width="1" opacity="0.996078431372549" d="M 190.5 79 L 191 82 Q 188.3 83.1 189 80.5 L 190.5 79 Z " /><path fill="rgb(211,210,209)" stroke="rgb(211,210,209)" stroke-width="1" opacity="0.996078431372549" d="M 191.5 86 L 193 88.5 L 193 140.5 L 191 141.5 L 191.5 86 Z " /><path fill="rgb(211,210,209)" stroke="rgb(211,210,209)" stroke-width="1" opacity="0.996078431372549" d="M 39.5 87 L 55.5 87 Q 57.8 90 63 89 L 63 91 Q 66.7 89.5 66 92.5 L 73 100.5 L 73 107.5 L 71 113 L 69 113 L 69 115 Q 66.3 113.9 67 116.5 L 66 119 L 64 119 L 64 128.5 L 62 129 L 62 134.5 L 60 135 L 60 136.5 L 57 138 L 57 140 Q 54.3 138.9 55 141.5 L 54 141.5 L 53.5 140 L 51.5 140 L 49 139.5 L 56 139 L 56 137 Q 58.7 138.1 58 135.5 L 63 126.5 L 63 118.5 L 65 115 Q 67.7 116.1 67 113.5 L 70 110.5 Q 69 105.5 72 104.5 Q 69.2 102.5 70 98 L 67 96.5 L 67 95 L 65 95 L 65 93 L 63 93 Q 64.1 90.3 61.5 91 Q 53.9 87.1 40.5 89 L 39.5 87 Z " /><path fill="rgb(211,210,209)" stroke="rgb(211,210,209)" stroke-width="1" opacity="0.996078431372549" d="M 78.5 98 L 80 98.5 L 77 102.5 L 77 118.5 L 80 125 Q 83.4 124.3 84.5 127 L 102.5 127 Q 103.6 124.3 107 125 Q 106 122 109 123 L 109 118.5 Q 106.3 117.4 107 114 Q 109.7 112.9 109 115.5 L 110 116.5 L 110 124 L 108 124 Q 109.5 127.7 106.5 127 L 105.5 128 L 82.5 128 L 78 124.5 L 78 122 L 76 121.5 L 76 99 L 78.5 98 Z " /><path fill="rgb(211,210,209)" stroke="rgb(211,210,209)" stroke-width="1" opacity="0.996078431372549" d="M 84.5 98 L 88 98 Q 86.9 100.7 89.5 100 L 92 101 L 92 103 L 95 103 L 95 105 L 97 105 Q 95.9 107.7 98.5 107 L 104 110 L 104 112 Q 106.7 110.9 106 113.5 L 104.5 113 L 100 111 Q 101.1 108.3 98.5 109 L 88 102 Q 89.1 99.3 86.5 100 L 84.5 98 Z " /><path fill="rgb(211,210,209)" stroke="rgb(211,210,209)" stroke-width="1" opacity="0.996078431372549" d="M 143.5 114 L 148.5 114 L 154 117 Q 153.3 120.1 156 119.5 L 156 130 L 152 131 Q 153.3 134 149.5 133 Q 147.8 136.5 142 135 L 142 133 L 138 133 Q 139.7 127.8 136 129 L 136 119 L 138 119 L 140 115 L 142.5 115 L 143.5 114 Z M 142 116 L 139 119 Q 140 121 137 120 L 137 128 L 139 131 L 145 133 L 151 132 L 155 127 Q 156 121 153 120 L 151 116 L 142 116 Z " /><path fill="rgb(211,210,209)" stroke="rgb(211,210,209)" stroke-width="1" opacity="0.996078431372549" d="M 137.5 140 Q 139.8 139.3 139 141.5 L 143 154 L 145 154 L 145 156 L 148 156 Q 146.9 158.7 149.5 158 L 156 160.5 L 153.5 162 L 153.5 160 Q 148.1 158.1 149 161.5 L 148 161.5 L 148 159 L 146 159 L 146 157 L 144 157 L 144 155 Q 141.3 156.1 142 153.5 Q 137.8 149.5 137 143 L 131.5 146 L 112 146 L 112.5 144 L 132.5 144 L 133 142 L 135.5 142 L 137.5 140 Z " /><path fill="rgb(211,210,209)" stroke="rgb(211,210,209)" stroke-width="1" opacity="0.996078431372549" d="M 185.5 142 L 188 142.5 L 184.5 144 L 185.5 142 Z " /><path fill="rgb(211,210,209)" stroke="rgb(211,210,209)" stroke-width="1" opacity="0.996078431372549" d="M 91 144 L 106.5 144 L 109 147.5 L 106.5 146 L 92.5 146 L 91.5 147 L 91 144 Z " /><path fill="rgb(211,210,209)" stroke="rgb(211,210,209)" stroke-width="1" opacity="0.996078431372549" d="M 85 145 L 87 145.5 L 87 149.5 Q 89.2 160.7 83.5 164 L 83 161 L 85 160.5 L 85 145 Z " /><path fill="rgb(211,210,209)" stroke="rgb(211,210,209)" stroke-width="1" opacity="0.996078431372549" d="M 179 146 Q 182 145 181 148 Q 178.3 146.9 179 149.5 L 177 150.5 L 179 146 Z " /><path fill="rgb(211,210,209)" stroke="rgb(211,210,209)" stroke-width="1" opacity="0.996078431372549" d="M 175 152 Q 178 150.8 177 154.5 L 176 158.5 L 177 161 L 175 160.5 L 175 152 Z " /><path fill="rgb(211,210,209)" stroke="rgb(211,210,209)" stroke-width="1" opacity="0.996078431372549" d="M 157.5 161 Q 162 160 163 162.5 L 161.5 162 L 158.5 163 L 157.5 161 Z " /><path fill="rgb(211,210,209)" stroke="rgb(211,210,209)" stroke-width="1" opacity="0.996078431372549" d="M 177.5 163 L 182 168.5 L 180.5 168 Q 177.2 169.1 178 166.5 L 177.5 163 Z " /><path fill="rgb(211,210,209)" stroke="rgb(211,210,209)" stroke-width="1" opacity="0.996078431372549" d="M 80.5 165 L 81 167 L 78 166.5 L 80.5 165 Z " /><path fill="rgb(211,210,209)" stroke="rgb(211,210,209)" stroke-width="1" opacity="0.996078431372549" d="M 74 168 L 77 168.5 L 75 169 L 74.5 171 L 74 168 Z " /><path fill="rgb(211,210,209)" stroke="rgb(211,210,209)" stroke-width="1" opacity="0.996078431372549" d="M 178.5 169 L 179 190 L 166 189.5 L 178 189 L 178.5 169 Z " /><path fill="rgb(211,210,209)" stroke="rgb(211,210,209)" stroke-width="1" opacity="0.996078431372549" d="M 60.5 189 L 73 189.5 L 60.5 190 L 60.5 189 Z " /><path fill="rgb(211,211,211)" stroke="rgb(211,211,211)" stroke-width="1" opacity="1" d="M 52.5 25 L 65 25.5 L 54 31 Q 55.3 34 51.5 33 L 40 40 Q 41.3 43 37.5 42 L 36 43.5 L 33.5 55 Q 33.4 49.1 29.5 47 Q 26.9 47.7 28 45 L 26 45 L 26 42 L 28.5 42 L 37.5 35 L 40 35 Q 38.9 32.3 41.5 33 L 51 28 L 52.5 25 Z " /><path fill="rgb(211,211,211)" stroke="rgb(211,211,211)" stroke-width="1" opacity="1" d="M 78 45 L 84 49.5 L 83 50.5 L 83 85.5 L 87 93.5 L 92.5 99 Q 96.9 97.5 96 100.5 L 98.5 103 L 115 110 Q 113.8 113 117.5 112 L 119.5 114 L 138 114 L 138 112 L 141 112 L 141 110 L 143 110 L 143 108 L 147 106 L 147 103.5 L 150 105.5 L 150 108.5 L 152 112 Q 157.3 110.8 156.5 114 L 170 114 L 173 108 L 175 107.5 L 175 71 L 169.5 68 L 164.5 68 L 157 72.5 L 155.5 76 Q 152.9 75.3 154 78 L 152 78 L 152 82 L 150 82 L 150 88.5 L 149 88.5 L 150 73 L 154 71 L 154 68 Q 156.7 69.1 156 66.5 L 157 62 L 161 61 L 160 57.5 L 161.5 58 L 163.5 59 Q 164.8 56.8 166 59.5 L 163 60.5 L 172.5 62 L 175.5 61 L 175 62.5 Q 174.3 65.1 177 64 L 177.5 62 L 182 65 L 183 67.5 L 182.5 69 Q 187.5 68.5 188 72.5 L 187 78 L 189 77.5 L 188 75.5 L 190 74.5 L 190 76.5 L 189 82 L 191.5 81 L 193 87.5 L 192 87.5 L 191.5 86 L 191 142 Q 184.7 140.5 183 144.5 L 183 146 L 179 146 L 179 147.5 Q 176.3 148.6 177 152 L 175 152.5 L 175 161 Q 178.7 159.7 177 165.5 L 178 168 L 181 168.5 L 180 169.5 L 179.5 189 L 178.5 169 L 178 189 L 166.5 189 L 165.5 190 L 164 187.5 L 164 165.5 L 162.5 164 L 159 162.5 L 162 161.5 L 157.5 161 L 157.5 163 L 153.5 161 L 151.5 161 L 148.5 163 L 149 161.5 Q 148.1 158.1 153.5 160 L 153.5 159 L 148 158 L 148 156 L 145 156 Q 146 153 143 154 L 143 151.5 L 141 149.5 L 139 140 L 133 142 L 132.5 144 L 112.5 144 L 112 146 L 110.5 146 L 108.5 146 L 107 146 L 106.5 144 L 91 144 Q 92.3 147.3 87.5 146 L 86 146.5 L 86.5 145 L 85 145.5 L 85 160.5 L 86 162.5 L 84 166 L 81.5 167 L 80.5 165 L 78 166.5 L 80 167.5 L 77 169.5 L 77 171 L 75 171.5 L 75 187.5 L 73.5 190 L 72.5 189 L 60.5 189 L 59 189.5 L 59 146.5 L 58 144 L 51 140.5 L 54 140.5 L 54.5 142 L 55 140 L 57 140 Q 55.9 137.3 58.5 138 L 60 135 L 62 135 L 62 129 L 64 128.5 L 64 119.5 L 66 119 L 66 117.5 L 67 115 L 71 113 L 71 110.5 Q 74.4 107.9 73 100.5 L 66 91 Q 61.8 92 62.5 89 L 58.5 89 L 55.5 87 L 39.5 87 L 38 87.5 L 37 82.5 L 38 82.5 L 38.5 84 L 39 82 L 59.5 82 L 60 80 L 65.5 80 L 66 78 L 68.5 78 L 71 77 L 71 75 Q 73.7 76.1 73 73.5 L 74 71 L 76 71 Q 74.5 64.7 78 65.5 L 78 45 Z M 79 98 L 76 99 L 76 122 L 78 122 L 78 125 L 83 128 L 106 128 L 107 127 Q 110 128 108 124 L 110 124 L 110 117 L 109 116 L 109 114 L 106 114 Q 107 111 104 112 L 104 110 L 99 107 Q 96 108 97 105 L 95 105 L 95 103 L 92 103 L 92 101 L 90 100 L 88 100 L 88 98 L 79 98 Z M 144 114 L 143 115 L 140 115 L 138 119 L 136 119 L 136 129 Q 140 128 138 133 L 142 133 L 142 135 Q 148 137 150 133 Q 153 134 152 131 L 156 130 L 156 120 Q 153 120 154 117 L 149 114 L 144 114 Z M 83 161 L 84 164 L 85 162 L 83 161 Z M 74 168 L 75 171 L 75 169 L 77 169 L 74 168 Z " /><path fill="rgb(211,211,211)" stroke="rgb(211,211,211)" stroke-width="1" opacity="1" d="M 169.5 58 L 170.5 60 Q 167.7 60.7 169.5 58 Z " /><path fill="rgb(211,211,211)" stroke="rgb(211,211,211)" stroke-width="1" opacity="1" d="M 61.5 190 L 72 190.5 L 61.5 191 L 61.5 190 Z " /><path fill="rgb(211,211,211)" stroke="rgb(211,211,211)" stroke-width="1" opacity="1" d="M 167.5 190 L 178 190.5 L 167.5 191 L 167.5 190 Z " /></svg>