<svg width="200" height="200" version="1.1" xmlns="http://www.w3.org/2000/svg" desc="Created with imagetracer.js version 1.2.6" ><path fill="rgb(0,0,0)" stroke="rgb(0,0,0)" stroke-width="1" opacity="0" d="M 0 0 L 200 0 L 200 200 L 0 200 L 0 0 Z M 85 22 L 85 24 L 84 23 L 72 25 L 69 28 L 59 31 L 57 34 L 55 34 L 49 38 L 34 53 L 30 61 L 27 62 L 22 76 L 22 79 L 20 81 L 18 90 L 18 118 L 20 127 L 22 129 L 22 133 L 27 145 Q 29 149 31 146 L 30 148 L 35 156 L 46 167 L 46 168 L 61 177 Q 64 176 63 179 L 72 182 L 75 181 Q 77 180 76 183 L 82 185 L 86 185 L 89 187 L 112 187 Q 114 184 120 185 L 122 183 Q 125 184 124 181 L 127 182 Q 139 180 147 172 Q 150 173 149 171 L 153 169 L 157 164 L 160 162 L 166 155 Q 165 152 168 153 Q 167 150 170 149 L 169 147 L 171 147 L 176 139 L 182 118 L 182 90 L 181 85 L 176 73 L 176 70 L 166 53 L 149 36 L 135 28 L 132 28 L 128 25 L 120 23 L 116 24 L 115 22 L 109 22 L 108 23 L 93 23 L 92 22 L 85 22 Z " /><path fill="rgb(11,11,11)" stroke="rgb(11,11,11)" stroke-width="1" opacity="0.9058823529411765" d="M 88.5 23 L 95 23.5 L 88.5 24 L 88.5 23 Z " /><path fill="rgb(11,11,11)" stroke="rgb(11,11,11)" stroke-width="1" opacity="0.9058823529411765" d="M 105.5 23 L 112 23.5 L 105.5 24 L 105.5 23 Z " /><path fill="rgb(11,11,11)" stroke="rgb(11,11,11)" stroke-width="1" opacity="0.9058823529411765" d="M 82.5 24 L 85 24.5 L 82.5 25 L 82.5 24 Z " /><path fill="rgb(11,11,11)" stroke="rgb(11,11,11)" stroke-width="1" opacity="0.9058823529411765" d="M 78.5 25 L 81 25.5 Q 66.1 29.1 55.5 37 L 57.5 34 L 68.5 28 L 78.5 25 Z " /><path fill="rgb(11,11,11)" stroke="rgb(11,11,11)" stroke-width="1" opacity="0.9058823529411765" d="M 119.5 25 Q 126.7 25.3 130.5 29 Q 132 26.5 133.5 30 Q 145.5 34 153 42.5 L 149.5 40 L 138.5 33 L 125.5 27 L 119.5 26 L 119.5 25 Z " /><path fill="rgb(11,11,11)" stroke="rgb(11,11,11)" stroke-width="1" opacity="0.9058823529411765" d="M 53.5 37 L 50.5 41 L 37 53.5 Q 29 63 24.5 76 L 24 74.5 Q 30.7 57.7 42.5 46 L 53.5 37 Z " /><path fill="rgb(11,11,11)" stroke="rgb(11,11,11)" stroke-width="1" opacity="0.9058823529411765" d="M 154.5 44 L 159 47.5 Q 170.1 58.9 176 75.5 L 175 75.5 L 168 60.5 L 154.5 44 Z " /><path fill="rgb(11,11,11)" stroke="rgb(11,11,11)" stroke-width="1" opacity="0.9058823529411765" d="M 109.5 70 L 124.5 70 L 130 72.5 L 128.5 73 L 124.5 71 L 109.5 71 L 107.5 72 L 107.5 71 L 109.5 70 Z " /><path fill="rgb(11,11,11)" stroke="rgb(11,11,11)" stroke-width="1" opacity="0.9058823529411765" d="M 59.5 71 L 83 71.5 L 59 72 L 59 86 L 66.5 86 L 67 87.5 L 65.5 87 Q 59.5 88.5 58 85.5 L 58 72.5 L 59.5 71 Z " /><path fill="rgb(11,11,11)" stroke="rgb(11,11,11)" stroke-width="1" opacity="0.9058823529411765" d="M 102.5 73 L 104 73.5 L 97 79.5 L 96.5 81 L 96 79.5 L 102.5 73 Z " /><path fill="rgb(11,11,11)" stroke="rgb(11,11,11)" stroke-width="1" opacity="0.9058823529411765" d="M 131.5 73 L 132.5 75 L 131.5 73 Z " /><path fill="rgb(11,11,11)" stroke="rgb(11,11,11)" stroke-width="1" opacity="0.9058823529411765" d="M 134.5 75 L 136.5 78 L 134.5 75 Z " /><path fill="rgb(11,11,11)" stroke="rgb(11,11,11)" stroke-width="1" opacity="0.9058823529411765" d="M 23.5 77 L 24 79.5 L 20.5 88 L 20 86.5 L 23.5 77 Z " /><path fill="rgb(11,11,11)" stroke="rgb(11,11,11)" stroke-width="1" opacity="0.9058823529411765" d="M 176.5 77 L 178 78.5 L 180 87.5 L 179 87.5 L 176.5 77 Z " /><path fill="rgb(11,11,11)" stroke="rgb(11,11,11)" stroke-width="1" opacity="0.9058823529411765" d="M 137.5 79 L 139 81.5 L 138 81.5 L 137.5 79 Z " /><path fill="rgb(11,11,11)" stroke="rgb(11,11,11)" stroke-width="1" opacity="0.9058823529411765" d="M 115.5 83 L 120 83.5 L 115.5 84 L 115.5 83 Z " /><path fill="rgb(11,11,11)" stroke="rgb(11,11,11)" stroke-width="1" opacity="0.9058823529411765" d="M 113.5 84 L 112 86.5 L 111.5 88 L 111 86.5 L 113.5 84 Z " /><path fill="rgb(11,11,11)" stroke="rgb(11,11,11)" stroke-width="1" opacity="0.9058823529411765" d="M 121.5 84 L 122.5 86 L 121.5 84 Z " /><path fill="rgb(11,11,11)" stroke="rgb(11,11,11)" stroke-width="1" opacity="0.9058823529411765" d="M 139.5 84 L 140 91.5 L 139 91.5 L 139.5 84 Z " /><path fill="rgb(11,11,11)" stroke="rgb(11,11,11)" stroke-width="1" opacity="0.9058823529411765" d="M 94.5 86 L 95 89.5 L 94 89.5 L 94.5 86 Z " /><path fill="rgb(11,11,11)" stroke="rgb(11,11,11)" stroke-width="1" opacity="0.9058823529411765" d="M 123.5 87 L 124 92.5 L 123 92.5 L 123.5 87 Z " /><path fill="rgb(11,11,11)" stroke="rgb(11,11,11)" stroke-width="1" opacity="0.9058823529411765" d="M 179.5 89 L 180 91.5 L 179 91.5 L 179.5 89 Z " /><path fill="rgb(11,11,11)" stroke="rgb(11,11,11)" stroke-width="1" opacity="0.9058823529411765" d="M 19.5 92 L 20 98.5 L 19 98.5 L 19.5 92 Z " /><path fill="rgb(11,11,11)" stroke="rgb(11,11,11)" stroke-width="1" opacity="0.9058823529411765" d="M 111.5 93 Q 113.3 97.3 120 96.5 L 114.5 97 L 111.5 93 Z " /><path fill="rgb(11,11,11)" stroke="rgb(11,11,11)" stroke-width="1" opacity="0.9058823529411765" d="M 180.5 93 L 181 98.5 L 180 98.5 L 180.5 93 Z " /><path fill="rgb(11,11,11)" stroke="rgb(11,11,11)" stroke-width="1" opacity="0.9058823529411765" d="M 122.5 94 L 121.5 96 L 122.5 94 Z " /><path fill="rgb(11,11,11)" stroke="rgb(11,11,11)" stroke-width="1" opacity="0.9058823529411765" d="M 138.5 94 L 139 95.5 L 134 101.5 L 138.5 107 L 133 100.5 L 136 99 L 138.5 94 Z " /><path fill="rgb(11,11,11)" stroke="rgb(11,11,11)" stroke-width="1" opacity="0.9058823529411765" d="M 96.5 95 L 102 101.5 L 97 105 L 95.5 108 L 96 106.5 L 98.5 103 L 101 101.5 L 96 96.5 L 96.5 95 Z " /><path fill="rgb(11,11,11)" stroke="rgb(11,11,11)" stroke-width="1" opacity="0.9058823529411765" d="M 180.5 108 L 181 113.5 L 180 113.5 L 180.5 108 Z " /><path fill="rgb(11,11,11)" stroke="rgb(11,11,11)" stroke-width="1" opacity="0.9058823529411765" d="M 19.5 109 L 20 114.5 L 19 114.5 L 19.5 109 Z " /><path fill="rgb(11,11,11)" stroke="rgb(11,11,11)" stroke-width="1" opacity="0.9058823529411765" d="M 111.5 110 L 110.5 112 L 111.5 110 Z " /><path fill="rgb(11,11,11)" stroke="rgb(11,11,11)" stroke-width="1" opacity="0.9058823529411765" d="M 140.5 110 Q 143.7 113.3 142 121.5 L 140.5 124 L 140 122.5 L 141 121.5 L 141 112.5 L 140.5 110 Z " /><path fill="rgb(11,11,11)" stroke="rgb(11,11,11)" stroke-width="1" opacity="0.9058823529411765" d="M 123.5 111 Q 127.3 112.3 126 118.5 L 123.5 122 L 123 120.5 Q 126.2 119.3 125 113.5 L 123.5 111 Z " /><path fill="rgb(11,11,11)" stroke="rgb(11,11,11)" stroke-width="1" opacity="0.9058823529411765" d="M 93.5 112 L 94 121.5 L 93 121.5 L 93.5 112 Z " /><path fill="rgb(11,11,11)" stroke="rgb(11,11,11)" stroke-width="1" opacity="0.9058823529411765" d="M 109.5 113 L 110 118.5 L 109 118.5 L 109.5 113 Z " /><path fill="rgb(11,11,11)" stroke="rgb(11,11,11)" stroke-width="1" opacity="0.9058823529411765" d="M 20.5 119 L 25 132.5 L 24 132.5 L 22 129.5 L 20.5 119 Z " /><path fill="rgb(11,11,11)" stroke="rgb(11,11,11)" stroke-width="1" opacity="0.9058823529411765" d="M 179.5 119 L 180 121.5 Q 177.3 123.8 178 129.5 L 175.5 133 L 175 131.5 L 179.5 119 Z " /><path fill="rgb(11,11,11)" stroke="rgb(11,11,11)" stroke-width="1" opacity="0.9058823529411765" d="M 110.5 120 Q 113 124 120 123.5 L 114.5 124 L 110.5 120 Z " /><path fill="rgb(11,11,11)" stroke="rgb(11,11,11)" stroke-width="1" opacity="0.9058823529411765" d="M 94.5 123 L 96 125.5 L 94 124.5 L 94.5 123 Z " /><path fill="rgb(11,11,11)" stroke="rgb(11,11,11)" stroke-width="1" opacity="0.9058823529411765" d="M 96.5 127 L 100 131.5 L 96 128.5 L 96.5 127 Z " /><path fill="rgb(11,11,11)" stroke="rgb(11,11,11)" stroke-width="1" opacity="0.9058823529411765" d="M 138.5 127 L 137 129.5 L 135.5 132 L 129.5 135 L 129.5 134 Q 136 132.5 138.5 127 Z " /><path fill="rgb(11,11,11)" stroke="rgb(11,11,11)" stroke-width="1" opacity="0.9058823529411765" d="M 101.5 132 L 106 134.5 L 103.5 135 L 101.5 132 Z " /><path fill="rgb(11,11,11)" stroke="rgb(11,11,11)" stroke-width="1" opacity="0.9058823529411765" d="M 109.5 136 L 112 136.5 L 109.5 137 L 109.5 136 Z " /><path fill="rgb(11,11,11)" stroke="rgb(11,11,11)" stroke-width="1" opacity="0.9058823529411765" d="M 123.5 136 L 126 136.5 L 123.5 137 L 123.5 136 Z " /><path fill="rgb(11,11,11)" stroke="rgb(11,11,11)" stroke-width="1" opacity="0.9058823529411765" d="M 26.5 137 L 31 144.5 L 28 142.5 L 26.5 137 Z " /><path fill="rgb(11,11,11)" stroke="rgb(11,11,11)" stroke-width="1" opacity="0.9058823529411765" d="M 116.5 137 L 120 137.5 L 116.5 138 L 116.5 137 Z " /><path fill="rgb(11,11,11)" stroke="rgb(11,11,11)" stroke-width="1" opacity="0.9058823529411765" d="M 173.5 137 L 173 138.5 Q 172.8 143.3 169.5 145 L 170 143.5 L 173.5 137 Z " /><path fill="rgb(11,11,11)" stroke="rgb(11,11,11)" stroke-width="1" opacity="0.9058823529411765" d="M 31.5 146 L 47.5 165 L 58 172.5 L 56.5 172 Q 44.7 165.8 37 155.5 L 31.5 146 Z " /><path fill="rgb(11,11,11)" stroke="rgb(11,11,11)" stroke-width="1" opacity="0.9058823529411765" d="M 168.5 146 L 168 147.5 Q 161.6 159.1 151.5 167 Q 140.3 176.3 124.5 181 L 124.5 180 Q 147.6 173.1 161 156.5 L 168.5 146 Z " /><path fill="rgb(11,11,11)" stroke="rgb(11,11,11)" stroke-width="1" opacity="0.9058823529411765" d="M 59.5 173 L 76 180.5 L 73.5 181 L 60.5 175 L 59.5 173 Z " /><path fill="rgb(11,11,11)" stroke="rgb(11,11,11)" stroke-width="1" opacity="0.9058823529411765" d="M 77.5 181 L 92.5 184 L 107.5 184 Q 108.7 181.8 113.5 183 L 113.5 184 L 109.5 185 L 90.5 185 L 79.5 183 L 77.5 181 Z " /><path fill="rgb(11,11,11)" stroke="rgb(11,11,11)" stroke-width="1" opacity="0.9058823529411765" d="M 120.5 181 L 122 181.5 L 115.5 184 L 116.5 182 L 120.5 181 Z " /><path fill="rgb(0,0,0)" stroke="rgb(0,0,0)" stroke-width="1" opacity="0.996078431372549" d="M 95.5 23 L 115.5 24 L 132.5 30 L 142 35.5 L 140.5 36 L 132.5 31 L 117.5 26 Q 112.7 27.3 111.5 25 L 88.5 25 L 75.5 28 L 75.5 27 L 85.5 24 L 94.5 24 L 95.5 23 Z " /><path fill="rgb(0,0,0)" stroke="rgb(0,0,0)" stroke-width="1" opacity="0.996078431372549" d="M 70.5 29 L 71 31 L 58.5 36 L 58.5 35 L 70.5 29 Z " /><path fill="rgb(0,0,0)" stroke="rgb(0,0,0)" stroke-width="1" opacity="0.996078431372549" d="M 56.5 36 L 57 38 L 51.5 41 L 54.5 37 L 56.5 36 Z " /><path fill="rgb(0,0,0)" stroke="rgb(0,0,0)" stroke-width="1" opacity="0.996078431372549" d="M 143.5 36 L 154 43 L 154 44.5 L 163 53.5 L 155.5 47 Q 153.3 47.8 154 45.5 L 149.5 41 L 143 37.5 L 143.5 36 Z " /><path fill="rgb(0,0,0)" stroke="rgb(0,0,0)" stroke-width="1" opacity="0.996078431372549" d="M 49.5 41 L 49 42.5 L 45.5 47 L 42 49.5 L 38.5 54 L 37 53.5 L 49.5 41 Z " /><path fill="rgb(0,0,0)" stroke="rgb(0,0,0)" stroke-width="1" opacity="0.996078431372549" d="M 36.5 55 L 36 56.5 L 33 64 L 30 65.5 L 29.5 67 L 29 65.5 L 36.5 55 Z " /><path fill="rgb(0,0,0)" stroke="rgb(0,0,0)" stroke-width="1" opacity="0.996078431372549" d="M 163.5 55 Q 171.9 64.1 176 77.5 L 174 76.5 L 170 65.5 Q 164.6 61.1 163.5 55 Z " /><path fill="rgb(0,0,0)" stroke="rgb(0,0,0)" stroke-width="1" opacity="0.996078431372549" d="M 28.5 68 L 28 69.5 L 26 78 Q 23.3 79.1 24 76.5 L 28.5 68 Z " /><path fill="rgb(0,0,0)" stroke="rgb(0,0,0)" stroke-width="1" opacity="0.996078431372549" d="M 176.5 79 L 177 81.5 L 176 81.5 L 176.5 79 Z " /><path fill="rgb(0,0,0)" stroke="rgb(0,0,0)" stroke-width="1" opacity="0.996078431372549" d="M 22.5 83 L 23 85.5 L 21 92.5 L 21 115.5 L 22 120.5 L 21 120.5 L 20 118.5 L 21 116.5 L 19 108.5 L 19 99.5 L 21 90.5 L 20 88.5 L 22.5 83 Z " /><path fill="rgb(0,0,0)" stroke="rgb(0,0,0)" stroke-width="1" opacity="0.996078431372549" d="M 177.5 83 L 180 88.5 L 179 91.5 L 181 99.5 L 181 107.5 L 179 117.5 L 179 119.5 L 178.5 121 L 178 116.5 L 179 115.5 L 179 92.5 L 177.5 83 Z " /><path fill="rgb(0,0,0)" stroke="rgb(0,0,0)" stroke-width="1" opacity="0.996078431372549" d="M 23.5 125 L 24 127.5 L 23 127.5 L 23.5 125 Z " /><path fill="rgb(0,0,0)" stroke="rgb(0,0,0)" stroke-width="1" opacity="0.996078431372549" d="M 176.5 125 L 177 127.5 L 176 127.5 L 176.5 125 Z " /><path fill="rgb(0,0,0)" stroke="rgb(0,0,0)" stroke-width="1" opacity="0.996078431372549" d="M 24.5 130 Q 27.1 129.2 26 132.5 L 29 139.5 L 28 139.5 L 24.5 130 Z " /><path fill="rgb(0,0,0)" stroke="rgb(0,0,0)" stroke-width="1" opacity="0.996078431372549" d="M 174 130 L 176 130.5 L 170.5 142 L 170 140.5 Q 173.7 136.5 174 130 Z " /><path fill="rgb(0,0,0)" stroke="rgb(0,0,0)" stroke-width="1" opacity="0.996078431372549" d="M 30.5 143 L 33 144 L 33 146.5 L 37 152.5 L 35 151.5 L 30.5 143 Z " /><path fill="rgb(0,0,0)" stroke="rgb(0,0,0)" stroke-width="1" opacity="0.996078431372549" d="M 169.5 143 L 169 144.5 Q 162.6 156.6 152.5 165 L 137.5 175 L 137 173 L 147 167.5 Q 146.2 164.9 149.5 166 L 154 160 L 163 152.5 L 167 144 L 169.5 143 Z " /><path fill="rgb(0,0,0)" stroke="rgb(0,0,0)" stroke-width="1" opacity="0.996078431372549" d="M 38.5 154 L 44 161 L 57.5 171 L 60 171 Q 58.9 173.7 61.5 173 L 62.5 175 Q 49.3 168.3 40 157.5 L 38.5 154 Z " /><path fill="rgb(0,0,0)" stroke="rgb(0,0,0)" stroke-width="1" opacity="0.996078431372549" d="M 64.5 175 L 82 181.5 L 80.5 182 L 68.5 178 L 64.5 176 L 64.5 175 Z " /><path fill="rgb(0,0,0)" stroke="rgb(0,0,0)" stroke-width="1" opacity="0.996078431372549" d="M 134.5 175 L 136 175.5 Q 128.2 180.5 118 182 Q 116.7 178.7 121.5 180 L 134.5 175 Z " /><path fill="rgb(0,0,0)" stroke="rgb(0,0,0)" stroke-width="1" opacity="0.996078431372549" d="M 84.5 182 L 88 182.5 L 84.5 183 L 84.5 182 Z " /><path fill="rgb(0,0,0)" stroke="rgb(0,0,0)" stroke-width="1" opacity="0.996078431372549" d="M 112.5 182 L 116 182.5 Q 114.8 185.3 113.5 183 L 112.5 182 Z " /><path fill="rgb(0,0,0)" stroke="rgb(0,0,0)" stroke-width="1" opacity="0.996078431372549" d="M 92.5 183 L 108 183.5 L 92.5 184 L 92.5 183 Z " /><path fill="rgb(0,0,0)" stroke="rgb(0,0,0)" stroke-width="1" opacity="1" d="M 88.5 25 L 111.5 25 Q 112.7 27.3 117.5 26 Q 119.8 28.7 125.5 28 L 140.5 36 L 143 36 L 144.5 39 Q 151 40.5 154 45.5 Q 153.3 47.8 155.5 47 L 165 57.5 L 176 78.5 L 179 92.5 L 179 115.5 L 176 130 Q 173.3 128.9 174 131.5 L 168.5 144 Q 166.3 143.3 167 145.5 Q 163 154.5 155.5 160 Q 153.3 159.3 154 161.5 L 149.5 166 L 147 166 L 145.5 169 L 137 173 Q 138.3 176 134.5 175 Q 127.8 179.7 118 180 Q 119.4 184 112.5 182 L 111.5 183 L 88.5 183 L 68.5 177 L 60 173 Q 61.3 170 57.5 171 L 44 161 L 38.5 154 Q 35.9 154.8 37 151.5 L 33 146.5 L 33 144 L 30 142.5 L 26 130 Q 22.3 131.3 24 125.5 L 21 115.5 L 21 92.5 L 24 78 Q 27 79.3 26 75.5 L 31.5 64 Q 34.1 64.8 33 61.5 L 37 54 L 42 50.5 L 44.5 47 L 49 43.5 L 50.5 41 L 57 38 Q 55.8 35 59.5 36 Q 63.7 31.6 71 31 Q 69.8 28 73.5 29 L 88.5 25 Z M 110 70 L 103 73 L 96 80 L 94 87 Q 94 98 101 102 L 99 103 L 93 113 L 93 122 L 96 129 L 104 135 L 117 138 L 126 137 L 136 132 L 142 122 L 142 113 Q 140 105 134 102 Q 139 99 140 92 Q 141 82 137 78 Q 130 67 110 70 Z M 60 71 L 58 73 L 58 86 Q 59 88 66 87 L 67 89 L 67 136 L 84 136 L 84 136 L 84 73 L 83 71 L 60 71 Z " /><path fill="rgb(0,0,0)" stroke="rgb(0,0,0)" stroke-width="1" opacity="1" d="M 114.5 84 Q 121.5 82.5 123 86.5 Q 124.8 94.3 120.5 96 Q 112.5 97.5 111 92.5 Q 110.1 85.6 114.5 84 Z " /><path fill="rgb(0,0,0)" stroke="rgb(0,0,0)" stroke-width="1" opacity="1" d="M 114.5 109 L 123 110 L 125 113.5 L 125 118.5 L 123 122 Q 120.6 123.7 114.5 123 L 110 119.5 Q 108.2 111.7 112.5 110 L 114.5 109 Z " /><path fill="rgb(210,210,210)" stroke="rgb(210,210,210)" stroke-width="1" opacity="1" d="M 113.5 71 L 122 71.5 L 113.5 72 L 113.5 71 Z " /><path fill="rgb(210,210,210)" stroke="rgb(210,210,210)" stroke-width="1" opacity="1" d="M 60 72 L 81.5 72 L 83 73.5 L 83 134.5 L 82.5 135 L 68 135 L 68 86.5 L 67.5 86 L 60.5 86 L 60.5 85 Q 67.3 83.3 69 86.5 L 69 133.5 L 69.5 134 L 82 134 L 82 73 L 61.5 73 L 60 73.5 L 60 72 Z " /><path fill="rgb(210,210,210)" stroke="rgb(210,210,210)" stroke-width="1" opacity="1" d="M 108.5 72 L 111 72.5 Q 103 74 99 79.5 Q 95.5 83.5 97 92.5 L 98 94.5 L 97 94.5 Q 94.5 91 96 83.5 L 103.5 74 L 108.5 72 Z " /><path fill="rgb(210,210,210)" stroke="rgb(210,210,210)" stroke-width="1" opacity="1" d="M 124.5 72 Q 132.3 73.2 136 78.5 Q 140.2 82.3 139 91.5 L 133.5 100 Q 130.9 99.2 132 102.5 L 131 102.5 L 132.5 99 Q 134.8 99.8 134 97.5 Q 139.1 94.1 138 84.5 L 132.5 76 L 124.5 73 L 124.5 72 Z " /><path fill="rgb(210,210,210)" stroke="rgb(210,210,210)" stroke-width="1" opacity="1" d="M 113.5 82 Q 122.5 80.5 125 85.5 L 124.5 87 L 122.5 84 L 114.5 83 L 111 85.5 L 110 92.5 L 113.5 97 L 115 97.5 L 113.5 98 L 110 96 L 109 87.5 L 113.5 82 Z " /><path fill="rgb(210,210,210)" stroke="rgb(210,210,210)" stroke-width="1" opacity="1" d="M 125.5 89 L 126 91.5 L 125 91.5 L 125.5 89 Z " /><path fill="rgb(210,210,210)" stroke="rgb(210,210,210)" stroke-width="1" opacity="1" d="M 124.5 93 L 125 94.5 L 122 96.5 L 124.5 93 Z " /><path fill="rgb(210,210,210)" stroke="rgb(210,210,210)" stroke-width="1" opacity="1" d="M 98.5 96 L 104 100 Q 105.5 103.7 102.5 103 L 99 105 Q 94.8 109.5 95 119.5 Q 96.5 127 101.5 131 L 104 132.5 L 102.5 132 L 98 128.5 Q 93.3 123.7 94 113.5 L 99.5 104 L 103 101.5 L 98.5 96 Z " /><path fill="rgb(210,210,210)" stroke="rgb(210,210,210)" stroke-width="1" opacity="1" d="M 133.5 103 Q 139.3 106.3 140 114.5 L 139 114.5 Q 137.8 106.3 133.5 103 Z " /><path fill="rgb(210,210,210)" stroke="rgb(210,210,210)" stroke-width="1" opacity="1" d="M 114.5 107 Q 122.1 106.1 125 109 L 126 111.5 L 122.5 109 L 114.5 108 L 114.5 107 Z " /><path fill="rgb(210,210,210)" stroke="rgb(210,210,210)" stroke-width="1" opacity="1" d="M 111.5 108 L 113 108.5 L 109 111.5 L 108.5 113 L 108 111.5 L 111.5 108 Z " /><path fill="rgb(210,210,210)" stroke="rgb(210,210,210)" stroke-width="1" opacity="1" d="M 126.5 113 L 127 119.5 L 123.5 124 L 122 123.5 L 125 121.5 L 126.5 113 Z " /><path fill="rgb(210,210,210)" stroke="rgb(210,210,210)" stroke-width="1" opacity="1" d="M 107.5 114 L 108 117.5 L 107 117.5 L 107.5 114 Z " /><path fill="rgb(210,210,210)" stroke="rgb(210,210,210)" stroke-width="1" opacity="1" d="M 108.5 119 L 111.5 123 L 116 124.5 L 113.5 125 L 108 120.5 L 108.5 119 Z " /><path fill="rgb(210,210,210)" stroke="rgb(210,210,210)" stroke-width="1" opacity="1" d="M 139.5 119 L 140 122.5 L 135 131 L 128.5 134 L 128.5 133 Q 134.6 131.6 137 126.5 L 139.5 119 Z " /><path fill="rgb(210,210,210)" stroke="rgb(210,210,210)" stroke-width="1" opacity="1" d="M 125.5 134 L 127 134.5 L 124.5 136 L 110.5 136 L 110.5 135 L 124.5 135 L 125.5 134 Z " /><path fill="rgb(246,246,246)" stroke="rgb(246,246,246)" stroke-width="1" opacity="0.9921568627450981" d="M 111.5 72 L 123.5 72 L 135 78.5 Q 139 82 138 90.5 L 136.5 94 L 136 91.5 Q 138.5 90 137 84.5 L 136 81 Q 133.3 82.1 134 79.5 L 128.5 75 L 120.5 73 L 114.5 73 L 104.5 76 L 100 80.5 L 97.5 89 L 97 83.5 L 102.5 76 L 111.5 72 Z " /><path fill="rgb(246,246,246)" stroke="rgb(246,246,246)" stroke-width="1" opacity="0.9921568627450981" d="M 61.5 73 L 82 73 L 82 134 L 69.5 134 L 69 133.5 L 69 86.5 L 67.5 85 L 60 85 L 60 74.5 L 61.5 73 Z M 62 75 L 62 84 L 69 84 L 70 86 L 70 133 L 71 133 L 81 133 L 81 76 L 81 75 L 62 75 Z " /><path fill="rgb(246,246,246)" stroke="rgb(246,246,246)" stroke-width="1" opacity="0.9921568627450981" d="M 116.5 80 L 126 84.5 Q 128.3 87.7 127 94.5 L 124 96 L 122.5 99 L 115.5 100 L 108 94.5 Q 106.3 84.8 111.5 82 L 116.5 80 Z M 114 82 L 109 88 L 110 96 L 118 99 L 123 97 L 126 92 L 125 86 Q 123 80 114 82 Z " /><path fill="rgb(246,246,246)" stroke="rgb(246,246,246)" stroke-width="1" opacity="0.9921568627450981" d="M 97.5 90 Q 99.6 96.9 105 100.5 L 105 102.5 L 100 106 L 96 114.5 L 96 119.5 Q 97.5 126.4 102.5 130 Q 107 134 115 134.5 L 109.5 135 L 99 128.5 Q 94.5 124 95 114.5 L 99 105 L 104 103 Q 105.5 99.3 102.5 100 Q 96.6 97.3 97.5 90 Z " /><path fill="rgb(246,246,246)" stroke="rgb(246,246,246)" stroke-width="1" opacity="0.9921568627450981" d="M 134.5 95 L 136 95.5 L 134 99 L 131 100.5 Q 129.9 103.8 132.5 103 Q 139.8 107.2 140 118.5 Q 138.3 127.8 131.5 132 L 124.5 135 L 120.5 135 L 120.5 134 Q 131.4 132.9 136 125.5 L 138 122.5 L 138 111.5 L 134 105 L 130 104 Q 128.8 96.7 134.5 95 Z " /><path fill="rgb(246,246,246)" stroke="rgb(246,246,246)" stroke-width="1" opacity="0.9921568627450981" d="M 112.5 106 L 121.5 106 Q 122.6 108.8 126 108 Q 128.7 111 129 117.5 L 124.5 125 Q 120.7 127.7 112.5 126 L 108 122.5 Q 104.6 119.9 106 112.5 L 107 110 L 109 110 Q 107.9 107.3 110.5 108 L 112.5 106 Z M 115 107 L 112 108 L 107 115 L 108 121 L 114 125 L 124 124 L 127 120 Q 128 112 125 109 Q 122 106 115 107 Z " /><path fill="rgb(247,247,247)" stroke="rgb(247,247,247)" stroke-width="1" opacity="1" d="M 114.5 73 L 125.5 74 Q 131.3 75.3 134 79.5 Q 133.3 82.1 136 81 L 136 83.5 Q 138.5 85 137 90.5 L 136 95 L 130 99.5 Q 128.1 104.9 131.5 104 L 134 105 L 138 111.5 L 138 122.5 L 131.5 130 L 126.5 133 L 115.5 135 L 107.5 133 L 99 126.5 L 96 119.5 L 96 114.5 L 100 106 L 105 102.5 L 105 100.5 Q 99.4 96.6 97 89.5 L 100 80.5 L 104.5 76 L 114.5 73 Z M 117 80 L 112 82 Q 106 85 108 95 L 116 100 L 123 99 L 124 96 L 127 95 Q 128 88 126 85 L 117 80 Z M 113 106 L 111 108 Q 108 107 109 110 L 107 110 L 106 113 Q 105 120 108 123 L 113 126 Q 121 128 125 125 L 129 118 Q 129 111 126 108 Q 123 109 122 106 L 113 106 Z " /><path fill="rgb(247,247,247)" stroke="rgb(247,247,247)" stroke-width="1" opacity="1" d="M 62 75 L 80.5 75 L 81 75.5 L 81 133 L 70.5 133 L 70 132.5 L 70 85.5 L 68.5 84 L 62 84 L 62 75 Z " /><path fill="rgb(76,76,76)" stroke="rgb(76,76,76)" stroke-width="1" opacity="0.5019607843137255" d="M 87.5 22 L 92 22.5 L 85.5 24 L 85.5 23 L 87.5 22 Z " /><path fill="rgb(76,76,76)" stroke="rgb(76,76,76)" stroke-width="1" opacity="0.5019607843137255" d="M 108.5 22 Q 113.3 21.3 115 23.5 L 112.5 24 L 108.5 23 L 108.5 22 Z " /><path fill="rgb(76,76,76)" stroke="rgb(76,76,76)" stroke-width="1" opacity="0.5019607843137255" d="M 79.5 23 L 81.5 23 L 84 23.5 L 73.5 27 L 73 25 Q 77.5 25.8 79.5 23 Z " /><path fill="rgb(76,76,76)" stroke="rgb(76,76,76)" stroke-width="1" opacity="0.5019607843137255" d="M 116.5 23 L 125.5 25 L 127 26.5 L 125.5 26 L 118.5 25 L 116.5 23 Z " /><path fill="rgb(76,76,76)" stroke="rgb(76,76,76)" stroke-width="1" opacity="0.5019607843137255" d="M 128.5 27 L 131 28.5 L 129.5 28 L 128.5 27 Z " /><path fill="rgb(76,76,76)" stroke="rgb(76,76,76)" stroke-width="1" opacity="0.5019607843137255" d="M 67.5 28 L 66.5 30 L 64.5 31 L 65.5 29 L 67.5 28 Z " /><path fill="rgb(76,76,76)" stroke="rgb(76,76,76)" stroke-width="1" opacity="0.5019607843137255" d="M 132.5 28 L 136 30.5 L 134.5 30 L 132.5 28 Z " /><path fill="rgb(76,76,76)" stroke="rgb(76,76,76)" stroke-width="1" opacity="0.5019607843137255" d="M 57.5 33 L 59 33.5 L 54.5 37 L 54 35 L 57.5 33 Z " /><path fill="rgb(76,76,76)" stroke="rgb(76,76,76)" stroke-width="1" opacity="0.5019607843137255" d="M 141.5 33 L 161 47.5 Q 160.5 52.5 164.5 53 Q 167.1 52.2 166 55.5 L 172 64.5 L 170 63.5 Q 165.4 53.1 157.5 46 L 141.5 34 L 141.5 33 Z " /><path fill="rgb(76,76,76)" stroke="rgb(76,76,76)" stroke-width="1" opacity="0.5019607843137255" d="M 50 37 L 53 37.5 L 41 47.5 L 28.5 65 L 27.5 63 L 29 63.5 L 31 59.5 L 30.5 58 Q 33.1 58.7 32 56 L 34 56 Q 32.5 52.2 35.5 53 L 42 44 Q 45 45 44 42 L 46.5 42 L 50 37 Z " /><path fill="rgb(76,76,76)" stroke="rgb(76,76,76)" stroke-width="1" opacity="0.5019607843137255" d="M 25.5 70 L 25 71.5 L 22.5 78 L 22 76.5 L 25.5 70 Z " /><path fill="rgb(76,76,76)" stroke="rgb(76,76,76)" stroke-width="1" opacity="0.5019607843137255" d="M 174.5 70 L 178 77.5 L 176 76.5 L 174.5 70 Z " /><path fill="rgb(76,76,76)" stroke="rgb(76,76,76)" stroke-width="1" opacity="0.5019607843137255" d="M 83.5 72 L 84 134.5 L 81.5 136 L 81.5 135 L 83 134.5 L 83.5 72 Z " /><path fill="rgb(76,76,76)" stroke="rgb(76,76,76)" stroke-width="1" opacity="0.5019607843137255" d="M 102.5 74 L 101.5 76 L 102.5 74 Z " /><path fill="rgb(76,76,76)" stroke="rgb(76,76,76)" stroke-width="1" opacity="0.5019607843137255" d="M 133.5 75 L 136.5 79 L 133.5 75 Z " /><path fill="rgb(76,76,76)" stroke="rgb(76,76,76)" stroke-width="1" opacity="0.5019607843137255" d="M 98.5 78 L 97.5 80 L 98.5 78 Z " /><path fill="rgb(76,76,76)" stroke="rgb(76,76,76)" stroke-width="1" opacity="0.5019607843137255" d="M 20 80 Q 22.7 78.9 22 81.5 Q 18.5 83 21 84.5 L 19 92.5 L 19 114.5 L 21 122.5 L 19 121.5 L 18 117.5 L 18 90.5 L 20 84.5 L 20 82.5 L 20 80 Z " /><path fill="rgb(76,76,76)" stroke="rgb(76,76,76)" stroke-width="1" opacity="0.5019607843137255" d="M 178.5 81 L 179.5 83 L 178.5 81 Z " /><path fill="rgb(76,76,76)" stroke="rgb(76,76,76)" stroke-width="1" opacity="0.5019607843137255" d="M 179.5 85 Q 182.3 84.4 181 90.5 L 182 91.5 L 182 116.5 L 179.5 123 L 180 121.5 L 181 93.5 L 179.5 85 Z " /><path fill="rgb(76,76,76)" stroke="rgb(76,76,76)" stroke-width="1" opacity="0.5019607843137255" d="M 67.5 87 L 68 135 L 70 135.5 L 68.5 136 L 67 134.5 L 67.5 87 Z " /><path fill="rgb(76,76,76)" stroke="rgb(76,76,76)" stroke-width="1" opacity="0.5019607843137255" d="M 110.5 88 L 111 91.5 L 110 91.5 L 110.5 88 Z " /><path fill="rgb(76,76,76)" stroke="rgb(76,76,76)" stroke-width="1" opacity="0.5019607843137255" d="M 124.5 88 L 125 91.5 L 124 91.5 L 124.5 88 Z " /><path fill="rgb(76,76,76)" stroke="rgb(76,76,76)" stroke-width="1" opacity="0.5019607843137255" d="M 111.5 94 L 113.5 97 L 111.5 94 Z " /><path fill="rgb(76,76,76)" stroke="rgb(76,76,76)" stroke-width="1" opacity="0.5019607843137255" d="M 97.5 96 L 101.5 101 L 97.5 96 Z " /><path fill="rgb(76,76,76)" stroke="rgb(76,76,76)" stroke-width="1" opacity="0.5019607843137255" d="M 132.5 101 L 134.5 104 L 132.5 101 Z " /><path fill="rgb(76,76,76)" stroke="rgb(76,76,76)" stroke-width="1" opacity="0.5019607843137255" d="M 96.5 107 L 95.5 109 L 96.5 107 Z " /><path fill="rgb(76,76,76)" stroke="rgb(76,76,76)" stroke-width="1" opacity="0.5019607843137255" d="M 114.5 108 L 117 108.5 L 114.5 109 L 114.5 108 Z " /><path fill="rgb(76,76,76)" stroke="rgb(76,76,76)" stroke-width="1" opacity="0.5019607843137255" d="M 118.5 108 L 121 108.5 L 118.5 109 L 118.5 108 Z " /><path fill="rgb(76,76,76)" stroke="rgb(76,76,76)" stroke-width="1" opacity="0.5019607843137255" d="M 122.5 109 L 124.5 112 L 122.5 109 Z " /><path fill="rgb(76,76,76)" stroke="rgb(76,76,76)" stroke-width="1" opacity="0.5019607843137255" d="M 140.5 112 L 141 114.5 L 140 114.5 L 140.5 112 Z " /><path fill="rgb(76,76,76)" stroke="rgb(76,76,76)" stroke-width="1" opacity="0.5019607843137255" d="M 108.5 114 L 109 117.5 L 108 117.5 L 108.5 114 Z " /><path fill="rgb(76,76,76)" stroke="rgb(76,76,76)" stroke-width="1" opacity="0.5019607843137255" d="M 125.5 119 L 124.5 121 L 125.5 119 Z " /><path fill="rgb(76,76,76)" stroke="rgb(76,76,76)" stroke-width="1" opacity="0.5019607843137255" d="M 140.5 119 L 141 121.5 L 140 121.5 L 140.5 119 Z " /><path fill="rgb(76,76,76)" stroke="rgb(76,76,76)" stroke-width="1" opacity="0.5019607843137255" d="M 110.5 121 L 111.5 123 L 110.5 121 Z " /><path fill="rgb(76,76,76)" stroke="rgb(76,76,76)" stroke-width="1" opacity="0.5019607843137255" d="M 122.5 122 L 121.5 124 L 120 123.5 L 122.5 122 Z " /><path fill="rgb(76,76,76)" stroke="rgb(76,76,76)" stroke-width="1" opacity="0.5019607843137255" d="M 179.5 124 L 180 125.5 L 178 126.5 L 179.5 124 Z " /><path fill="rgb(76,76,76)" stroke="rgb(76,76,76)" stroke-width="1" opacity="0.5019607843137255" d="M 21.5 125 L 22 127 L 20 126.5 L 21.5 125 Z " /><path fill="rgb(76,76,76)" stroke="rgb(76,76,76)" stroke-width="1" opacity="0.5019607843137255" d="M 97.5 128 L 100.5 132 L 97.5 128 Z " /><path fill="rgb(76,76,76)" stroke="rgb(76,76,76)" stroke-width="1" opacity="0.5019607843137255" d="M 22.5 130 L 26 136.5 L 24 137 L 22.5 130 Z " /><path fill="rgb(76,76,76)" stroke="rgb(76,76,76)" stroke-width="1" opacity="0.5019607843137255" d="M 177.5 130 L 177 131.5 L 176 137 L 174 136.5 L 177.5 130 Z " /><path fill="rgb(76,76,76)" stroke="rgb(76,76,76)" stroke-width="1" opacity="0.5019607843137255" d="M 112.5 136 L 115 136.5 L 112.5 137 L 112.5 136 Z " /><path fill="rgb(76,76,76)" stroke="rgb(76,76,76)" stroke-width="1" opacity="0.5019607843137255" d="M 120.5 136 L 123 136.5 L 120.5 137 L 120.5 136 Z " /><path fill="rgb(76,76,76)" stroke="rgb(76,76,76)" stroke-width="1" opacity="0.5019607843137255" d="M 28.5 143 Q 32.2 145 30.5 147 Q 32.8 146.3 32 148.5 L 33 150.5 L 31 149.5 L 28.5 143 Z " /><path fill="rgb(76,76,76)" stroke="rgb(76,76,76)" stroke-width="1" opacity="0.5019607843137255" d="M 171.5 143 L 171 144.5 Q 171.8 146.8 169.5 146 L 171.5 143 Z " /><path fill="rgb(76,76,76)" stroke="rgb(76,76,76)" stroke-width="1" opacity="0.5019607843137255" d="M 168 147 L 170 147.5 L 167.5 151 L 167 149.5 L 168 147 Z " /><path fill="rgb(76,76,76)" stroke="rgb(76,76,76)" stroke-width="1" opacity="0.5019607843137255" d="M 34.5 152 L 36.5 155 L 34 154 L 34.5 152 Z " /><path fill="rgb(76,76,76)" stroke="rgb(76,76,76)" stroke-width="1" opacity="0.5019607843137255" d="M 165.5 152 L 166 154 Q 163.3 152.9 164 155.5 Q 159.8 157.7 161.5 160 L 154.5 165 L 162 156.5 L 165.5 152 Z " /><path fill="rgb(76,76,76)" stroke="rgb(76,76,76)" stroke-width="1" opacity="0.5019607843137255" d="M 38.5 157 L 45.5 165 L 39 159.5 L 38.5 157 Z " /><path fill="rgb(76,76,76)" stroke="rgb(76,76,76)" stroke-width="1" opacity="0.5019607843137255" d="M 49.5 167 L 51.5 170 Q 49.3 170.8 50 168.5 L 49.5 167 Z " /><path fill="rgb(76,76,76)" stroke="rgb(76,76,76)" stroke-width="1" opacity="0.5019607843137255" d="M 150.5 167 L 151 168.5 L 148.5 170 L 150.5 167 Z " /><path fill="rgb(76,76,76)" stroke="rgb(76,76,76)" stroke-width="1" opacity="0.5019607843137255" d="M 145 171 L 147 171.5 L 145 172.5 L 145 171 Z " /><path fill="rgb(76,76,76)" stroke="rgb(76,76,76)" stroke-width="1" opacity="0.5019607843137255" d="M 56.5 172 L 64 176.5 L 62.5 177 L 58.5 174 Q 57.3 176.3 56 173.5 L 56.5 172 Z " /><path fill="rgb(76,76,76)" stroke="rgb(76,76,76)" stroke-width="1" opacity="0.5019607843137255" d="M 143.5 172 L 144 174 L 138 176 L 137.5 178 L 136.5 176 L 143.5 172 Z " /><path fill="rgb(76,76,76)" stroke="rgb(76,76,76)" stroke-width="1" opacity="0.5019607843137255" d="M 67.5 178 L 74 181.5 L 72.5 181 L 67 180 L 67.5 178 Z " /><path fill="rgb(76,76,76)" stroke="rgb(76,76,76)" stroke-width="1" opacity="0.5019607843137255" d="M 132.5 178 L 133 180 L 126.5 182 L 127.5 180 L 132.5 178 Z " /><path fill="rgb(76,76,76)" stroke="rgb(76,76,76)" stroke-width="1" opacity="0.5019607843137255" d="M 76.5 181 L 79 182.5 L 77.5 183 L 76.5 181 Z " /><path fill="rgb(76,76,76)" stroke="rgb(76,76,76)" stroke-width="1" opacity="0.5019607843137255" d="M 122.5 181 L 124 181.5 L 121.5 183 L 122.5 181 Z " /><path fill="rgb(76,76,76)" stroke="rgb(76,76,76)" stroke-width="1" opacity="0.5019607843137255" d="M 81.5 183 L 90 184.5 L 83.5 185 L 81.5 183 Z " /><path fill="rgb(76,76,76)" stroke="rgb(76,76,76)" stroke-width="1" opacity="0.5019607843137255" d="M 118.5 183 L 117.5 185 L 115 184.5 L 118.5 183 Z " /><path fill="rgb(76,76,76)" stroke="rgb(76,76,76)" stroke-width="1" opacity="0.5019607843137255" d="M 110.5 184 L 113 184.5 L 110.5 185 L 110.5 184 Z " /><path fill="rgb(76,76,76)" stroke="rgb(76,76,76)" stroke-width="1" opacity="0.5019607843137255" d="M 95.5 185 L 105 185.5 L 95.5 186 L 95.5 185 Z " /><path fill="rgb(131,131,131)" stroke="rgb(131,131,131)" stroke-width="1" opacity="0.37254901960784315" d="M 71.5 25 Q 74.1 24.3 73 27 L 69.5 28 L 71.5 25 Z " /><path fill="rgb(131,131,131)" stroke="rgb(131,131,131)" stroke-width="1" opacity="0.37254901960784315" d="M 126.5 25 L 129 26.5 L 127.5 27 L 126.5 25 Z " /><path fill="rgb(131,131,131)" stroke="rgb(131,131,131)" stroke-width="1" opacity="0.37254901960784315" d="M 65.5 28 L 67 28.5 L 63.5 31 L 63 29 L 65.5 28 Z " /><path fill="rgb(131,131,131)" stroke="rgb(131,131,131)" stroke-width="1" opacity="0.37254901960784315" d="M 133.5 28 L 139 30 L 138.5 32 L 133.5 29 L 133.5 28 Z " /><path fill="rgb(131,131,131)" stroke="rgb(131,131,131)" stroke-width="1" opacity="0.37254901960784315" d="M 58.5 31 Q 61.1 30.3 60 33 L 57 32.5 L 58.5 31 Z " /><path fill="rgb(131,131,131)" stroke="rgb(131,131,131)" stroke-width="1" opacity="0.37254901960784315" d="M 140.5 31 L 141.5 33 Q 138.7 33.7 140.5 31 Z " /><path fill="rgb(131,131,131)" stroke="rgb(131,131,131)" stroke-width="1" opacity="0.37254901960784315" d="M 52.5 35 Q 55.1 34.3 54 37 L 51 36.5 L 52.5 35 Z " /><path fill="rgb(131,131,131)" stroke="rgb(131,131,131)" stroke-width="1" opacity="0.37254901960784315" d="M 146.5 35 L 158 44.5 L 154.5 42 Q 148.4 39.3 146.5 35 Z " /><path fill="rgb(131,131,131)" stroke="rgb(131,131,131)" stroke-width="1" opacity="0.37254901960784315" d="M 48.5 38 L 50 38.5 L 45.5 42 L 48.5 38 Z " /><path fill="rgb(131,131,131)" stroke="rgb(131,131,131)" stroke-width="1" opacity="0.37254901960784315" d="M 41.5 45 L 38 49.5 L 35.5 53 L 35 51.5 L 41.5 45 Z " /><path fill="rgb(131,131,131)" stroke="rgb(131,131,131)" stroke-width="1" opacity="0.37254901960784315" d="M 161.5 48 L 165 52.5 L 161 49.5 L 161.5 48 Z " /><path fill="rgb(131,131,131)" stroke="rgb(131,131,131)" stroke-width="1" opacity="0.37254901960784315" d="M 33.5 54 L 34 56 L 32 55.5 L 33.5 54 Z " /><path fill="rgb(131,131,131)" stroke="rgb(131,131,131)" stroke-width="1" opacity="0.37254901960784315" d="M 166.5 54 L 169 57.5 L 166 55.5 L 166.5 54 Z " /><path fill="rgb(131,131,131)" stroke="rgb(131,131,131)" stroke-width="1" opacity="0.37254901960784315" d="M 28.5 62 L 29 63.5 L 24.5 71 L 24 69.5 L 26 64 Q 28.8 65 28.5 62 Z " /><path fill="rgb(131,131,131)" stroke="rgb(131,131,131)" stroke-width="1" opacity="0.37254901960784315" d="M 171.5 62 L 174 65.5 L 172 66 L 171.5 62 Z " /><path fill="rgb(131,131,131)" stroke="rgb(131,131,131)" stroke-width="1" opacity="0.37254901960784315" d="M 173.5 67 Q 175.8 66.3 175 68.5 L 176 70.5 L 174 69.5 L 173.5 67 Z " /><path fill="rgb(131,131,131)" stroke="rgb(131,131,131)" stroke-width="1" opacity="0.37254901960784315" d="M 59.5 73 L 60 84.5 L 59 84.5 L 59.5 73 Z " /><path fill="rgb(131,131,131)" stroke="rgb(131,131,131)" stroke-width="1" opacity="0.37254901960784315" d="M 100.5 76 L 99.5 78 L 100.5 76 Z " /><path fill="rgb(131,131,131)" stroke="rgb(131,131,131)" stroke-width="1" opacity="0.37254901960784315" d="M 178.5 80 Q 180.8 79.3 180 81.5 L 178.5 80 Z " /><path fill="rgb(131,131,131)" stroke="rgb(131,131,131)" stroke-width="1" opacity="0.37254901960784315" d="M 20.5 83 L 19.5 85 L 20.5 83 Z " /><path fill="rgb(131,131,131)" stroke="rgb(131,131,131)" stroke-width="1" opacity="0.37254901960784315" d="M 179.5 83 L 180.5 85 Q 177.7 85.7 179.5 83 Z " /><path fill="rgb(131,131,131)" stroke="rgb(131,131,131)" stroke-width="1" opacity="0.37254901960784315" d="M 112.5 84 L 111.5 86 L 112.5 84 Z " /><path fill="rgb(131,131,131)" stroke="rgb(131,131,131)" stroke-width="1" opacity="0.37254901960784315" d="M 122.5 84 L 123.5 86 L 122.5 84 Z " /><path fill="rgb(131,131,131)" stroke="rgb(131,131,131)" stroke-width="1" opacity="0.37254901960784315" d="M 95.5 85 L 96 90.5 L 95 90.5 L 95.5 85 Z " /><path fill="rgb(131,131,131)" stroke="rgb(131,131,131)" stroke-width="1" opacity="0.37254901960784315" d="M 123.5 94 L 121.5 97 L 123.5 94 Z " /><path fill="rgb(131,131,131)" stroke="rgb(131,131,131)" stroke-width="1" opacity="0.37254901960784315" d="M 135.5 104 L 137.5 107 L 135.5 104 Z " /><path fill="rgb(131,131,131)" stroke="rgb(131,131,131)" stroke-width="1" opacity="0.37254901960784315" d="M 111.5 109 L 109.5 112 L 111.5 109 Z " /><path fill="rgb(131,131,131)" stroke="rgb(131,131,131)" stroke-width="1" opacity="0.37254901960784315" d="M 140.5 115 L 141 118.5 L 140 118.5 L 140.5 115 Z " /><path fill="rgb(131,131,131)" stroke="rgb(131,131,131)" stroke-width="1" opacity="0.37254901960784315" d="M 124.5 121 L 123.5 123 L 124.5 121 Z " /><path fill="rgb(131,131,131)" stroke="rgb(131,131,131)" stroke-width="1" opacity="0.37254901960784315" d="M 19.5 122 L 21 125.5 L 20 125.5 L 19.5 122 Z " /><path fill="rgb(131,131,131)" stroke="rgb(131,131,131)" stroke-width="1" opacity="0.37254901960784315" d="M 180.5 122 L 181 124 L 179 123.5 L 180.5 122 Z " /><path fill="rgb(131,131,131)" stroke="rgb(131,131,131)" stroke-width="1" opacity="0.37254901960784315" d="M 116.5 124 L 119 124.5 L 116.5 125 L 116.5 124 Z " /><path fill="rgb(131,131,131)" stroke="rgb(131,131,131)" stroke-width="1" opacity="0.37254901960784315" d="M 179.5 126 L 178.5 128 L 179.5 126 Z " /><path fill="rgb(131,131,131)" stroke="rgb(131,131,131)" stroke-width="1" opacity="0.37254901960784315" d="M 137.5 127 L 135.5 130 L 137.5 127 Z " /><path fill="rgb(131,131,131)" stroke="rgb(131,131,131)" stroke-width="1" opacity="0.37254901960784315" d="M 70.5 135 L 81 135.5 L 70.5 136 L 70.5 135 Z " /><path fill="rgb(131,131,131)" stroke="rgb(131,131,131)" stroke-width="1" opacity="0.37254901960784315" d="M 115.5 136 L 120 136.5 L 115.5 137 L 115.5 136 Z " /><path fill="rgb(131,131,131)" stroke="rgb(131,131,131)" stroke-width="1" opacity="0.37254901960784315" d="M 174.5 137 Q 176.8 136.3 176 138.5 L 170.5 147 L 171 145.5 L 173 139 L 175 138.5 L 174.5 137 Z " /><path fill="rgb(131,131,131)" stroke="rgb(131,131,131)" stroke-width="1" opacity="0.37254901960784315" d="M 25.5 139 Q 28.1 138.2 27 141.5 L 29 145.5 L 28 145.5 L 25.5 139 Z " /><path fill="rgb(131,131,131)" stroke="rgb(131,131,131)" stroke-width="1" opacity="0.37254901960784315" d="M 32.5 151 Q 34.8 150.3 34 152.5 L 32.5 151 Z " /><path fill="rgb(131,131,131)" stroke="rgb(131,131,131)" stroke-width="1" opacity="0.37254901960784315" d="M 166 151 L 168 151.5 L 166 152.5 L 166 151 Z " /><path fill="rgb(131,131,131)" stroke="rgb(131,131,131)" stroke-width="1" opacity="0.37254901960784315" d="M 35.5 154 L 39 158.5 L 35 155.5 L 35.5 154 Z " /><path fill="rgb(131,131,131)" stroke="rgb(131,131,131)" stroke-width="1" opacity="0.37254901960784315" d="M 164 154 L 166 154.5 L 163 159 L 161 158.5 L 164 154 Z " /><path fill="rgb(131,131,131)" stroke="rgb(131,131,131)" stroke-width="1" opacity="0.37254901960784315" d="M 160.5 160 L 159.5 162 L 160.5 160 Z " /><path fill="rgb(131,131,131)" stroke="rgb(131,131,131)" stroke-width="1" opacity="0.37254901960784315" d="M 44.5 164 L 50 168.5 L 48.5 169 L 44.5 164 Z " /><path fill="rgb(131,131,131)" stroke="rgb(131,131,131)" stroke-width="1" opacity="0.37254901960784315" d="M 156.5 164 L 153.5 168 L 151.5 169 L 151 167.5 L 156.5 164 Z " /><path fill="rgb(131,131,131)" stroke="rgb(131,131,131)" stroke-width="1" opacity="0.37254901960784315" d="M 51.5 170 Q 53.8 169.3 53 171.5 L 51.5 170 Z " /><path fill="rgb(131,131,131)" stroke="rgb(131,131,131)" stroke-width="1" opacity="0.37254901960784315" d="M 147 170 L 149 170.5 L 147 171.5 L 147 170 Z " /><path fill="rgb(131,131,131)" stroke="rgb(131,131,131)" stroke-width="1" opacity="0.37254901960784315" d="M 54.5 172 Q 56.8 171.3 56 173.5 L 54.5 172 Z " /><path fill="rgb(131,131,131)" stroke="rgb(131,131,131)" stroke-width="1" opacity="0.37254901960784315" d="M 58.5 174 L 62 176.5 L 60.5 177 L 58 176 L 58.5 174 Z " /><path fill="rgb(131,131,131)" stroke="rgb(131,131,131)" stroke-width="1" opacity="0.37254901960784315" d="M 142.5 174 L 141.5 176 L 138.5 177 L 138.5 176 L 142.5 174 Z " /><path fill="rgb(131,131,131)" stroke="rgb(131,131,131)" stroke-width="1" opacity="0.37254901960784315" d="M 63.5 177 L 67 178 L 66.5 180 L 63.5 177 Z " /><path fill="rgb(131,131,131)" stroke="rgb(131,131,131)" stroke-width="1" opacity="0.37254901960784315" d="M 135.5 177 Q 138.1 176.3 137 179 L 133 180 Q 131.9 177.3 134.5 178 L 135.5 177 Z " /><path fill="rgb(131,131,131)" stroke="rgb(131,131,131)" stroke-width="1" opacity="0.37254901960784315" d="M 79.5 183 L 83 184.5 L 81.5 185 L 79.5 183 Z " /><path fill="rgb(131,131,131)" stroke="rgb(131,131,131)" stroke-width="1" opacity="0.37254901960784315" d="M 119.5 183 L 121 183.5 L 118.5 185 L 119.5 183 Z " /><path fill="rgb(131,131,131)" stroke="rgb(131,131,131)" stroke-width="1" opacity="0.37254901960784315" d="M 113.5 184 L 115 184.5 L 111.5 187 L 88.5 187 L 86 185.5 L 94.5 185 L 95.5 186 L 104.5 186 L 113.5 184 Z " /></svg>