<svg width="200" height="200" version="1.1" xmlns="http://www.w3.org/2000/svg" desc="Created with imagetracer.js version 1.2.6" ><path fill="rgb(0,0,0)" stroke="rgb(0,0,0)" stroke-width="1" opacity="0" d="M 0 0 L 200 0 L 200 200 L 0 200 L 0 0 Z M 100 24 L 97 27 Q 99 33 96 35 L 96 36 L 63 36 Q 63 39 60 38 L 59 42 Q 60 47 57 46 L 57 50 Q 53 49 55 54 L 53 54 L 52 62 L 50 64 Q 51 67 48 66 Q 49 72 45 74 Q 46 76 43 75 L 43 77 L 32 78 L 30 80 L 26 80 Q 26 84 20 82 L 20 84 L 16 85 L 13 85 L 11 89 L 9 89 L 9 93 L 7 93 L 6 97 Q 8 102 4 101 L 4 131 L 6 132 L 6 140 L 8 140 L 10 143 Q 12 142 11 145 L 15 145 L 15 147 L 23 147 L 25 150 Q 24 153 27 152 L 27 155 L 32 161 Q 35 160 34 163 Q 37 166 46 166 L 48 166 Q 53 165 55 167 L 63 165 L 65 163 L 67 163 L 67 161 L 69 161 Q 68 158 71 159 Q 75 158 74 152 L 79 147 L 122 147 L 124 150 Q 123 153 126 152 L 126 156 L 128 156 L 129 159 L 129 161 L 133 161 L 135 165 L 145 166 L 147 166 Q 152 165 154 167 L 162 165 L 164 163 L 166 163 L 168 159 L 171 158 Q 170 153 173 154 L 173 152 L 178 147 L 184 147 L 184 145 L 189 145 Q 188 142 191 143 L 194 138 L 194 83 L 189 77 Q 184 78 183 75 L 180 75 Q 181 72 178 73 Q 178 66 173 64 Q 174 60 171 61 L 171 58 L 166 50 Q 167 46 164 47 L 164 43 L 162 43 L 161 41 L 161 38 Q 156 40 157 36 L 118 36 L 115 34 L 115 24 L 100 24 Z " /><path fill="rgb(245,110,79)" stroke="rgb(245,110,79)" stroke-width="1" opacity="0.996078431372549" d="M 185.5 102 L 194 102 L 194 126 L 187.5 127 Q 186.8 124.3 182.5 125 L 179 121.5 Q 176 118.5 176 112.5 L 181.5 104 L 185.5 102 Z " /><path fill="rgb(248,194,60)" stroke="rgb(248,194,60)" stroke-width="1" opacity="0.996078431372549" d="M 68.5 38 L 96.5 38 L 97 40 L 98.5 40 L 98.5 41 Q 96.3 40.3 97 42.5 L 95.5 42 L 63.5 42 L 63 40 L 68.5 38 Z M 67 40 L 67 41 L 96 41 L 67 40 Z " /><path fill="rgb(248,194,60)" stroke="rgb(248,194,60)" stroke-width="1" opacity="0.996078431372549" d="M 116 38 L 152.5 38 L 158 40 L 157.5 42 L 116.5 42 L 115 42.5 L 114 40.5 L 116 40 L 116 38 Z M 118 40 L 118 41 L 154 41 L 118 40 Z " /><path fill="rgb(248,194,60)" stroke="rgb(248,194,60)" stroke-width="1" opacity="0.996078431372549" d="M 98.5 43 L 101 43 Q 100.3 46.1 103 45.5 L 103 78 Q 100 77 101 80 L 98.5 80 L 98.5 79 Q 101.5 79.7 100 76 L 102 75.5 L 102 47 L 100 47 Q 101.5 43.2 98.5 44 L 98.5 43 Z " /><path fill="rgb(248,194,60)" stroke="rgb(248,194,60)" stroke-width="1" opacity="0.996078431372549" d="M 111 43 L 114 43.5 L 112 47 Q 109.3 48.1 110 45.5 L 111 43 Z " /><path fill="rgb(248,194,60)" stroke="rgb(248,194,60)" stroke-width="1" opacity="0.996078431372549" d="M 65.5 65 L 67 65.5 L 62.5 68 L 63.5 66 L 65.5 65 Z " /><path fill="rgb(248,194,60)" stroke="rgb(248,194,60)" stroke-width="1" opacity="0.996078431372549" d="M 61.5 69 L 62 71 L 60 70.5 L 61.5 69 Z " /><path fill="rgb(248,194,60)" stroke="rgb(248,194,60)" stroke-width="1" opacity="0.996078431372549" d="M 110 76 Q 112.7 74.9 112 77.5 L 113.5 80 L 110 77.5 L 110 76 Z " /><path fill="rgb(248,194,60)" stroke="rgb(248,194,60)" stroke-width="1" opacity="0.996078431372549" d="M 43.5 78 L 45 78 L 45.5 81 L 60 81 L 60.5 79 L 61 82 L 45.5 82 Q 44.4 79.3 41 80 L 41 82 L 34.5 82 Q 35.5 85.2 29.5 84 L 24.5 85 L 24.5 84 L 43.5 78 Z " /><path fill="rgb(248,194,60)" stroke="rgb(248,194,60)" stroke-width="1" opacity="0.996078431372549" d="M 181 78 Q 188.9 78.6 192 85.5 L 191.5 102 L 191 85 L 186 81.5 L 186 80 L 182 80 L 181.5 82 L 115 82 L 115.5 80 L 116.5 81 L 179.5 81 L 181 78 Z " /><path fill="rgb(248,194,60)" stroke="rgb(248,194,60)" stroke-width="1" opacity="0.996078431372549" d="M 96.5 80 L 97 82 L 76 81.5 L 95.5 81 L 96.5 80 Z " /><path fill="rgb(248,194,60)" stroke="rgb(248,194,60)" stroke-width="1" opacity="0.996078431372549" d="M 21.5 85 Q 24.1 84.3 23 87 L 20 87 L 20 89 L 16 89 Q 17.1 91.7 14.5 91 Q 12 92.2 13 96 L 11 96 L 11 100 L 9.5 100 L 9.5 101 Q 20 99 23 104.5 L 22.5 106 L 18.5 102 L 8 102 L 10 94 Q 12.7 95.1 12 92.5 L 15 88 L 21.5 85 Z " /><path fill="rgb(248,194,60)" stroke="rgb(248,194,60)" stroke-width="1" opacity="0.996078431372549" d="M 69 87 L 89.5 87 L 90 89.5 L 87.5 88 L 72.5 88 L 70 90.5 L 70 105.5 L 71.5 106 L 72.5 107 L 84 107 L 84 120 L 102 120 L 102 107 L 109.5 107 L 109.5 108 L 103 108 L 103 121 L 84.5 121 L 83 119.5 L 83 108 L 69 108 L 69 87 Z " /><path fill="rgb(248,194,60)" stroke="rgb(248,194,60)" stroke-width="1" opacity="0.996078431372549" d="M 96 87 L 115.5 87 L 117 88.5 L 117 101 L 122 101 L 122 87 L 143 87 L 143 108 L 129.5 108 L 129.5 107 L 140.5 107 L 142 105.5 L 142 90.5 L 141 88 L 125.5 88 L 123 90.5 L 123 102 L 116 102 L 116 90.5 L 113.5 88 L 98.5 88 L 98 89.5 L 97 90.5 L 97 100.5 L 95.5 102 L 90 101.5 L 96 101 L 96 87 Z " /><path fill="rgb(248,194,60)" stroke="rgb(248,194,60)" stroke-width="1" opacity="0.996078431372549" d="M 23 109 L 25 109.5 L 25 120 L 23 119.5 L 23 109 Z " /><path fill="rgb(248,194,60)" stroke="rgb(248,194,60)" stroke-width="1" opacity="0.996078431372549" d="M 46.5 114 L 60.5 115 L 67 119.5 L 66.5 121 Q 64.6 117.4 60 118 Q 61.1 114.5 53.5 116 L 48.5 115 Q 47 117.5 41.5 116 L 34.5 121 L 34 119 Q 37 120 36 117 L 39 117 L 39 115 L 45.5 115 L 46.5 114 Z " /><path fill="rgb(248,194,60)" stroke="rgb(248,194,60)" stroke-width="1" opacity="0.996078431372549" d="M 145.5 114 L 159.5 115 Q 160.6 117.8 164 117 L 164 119 Q 166.7 117.9 166 120.5 L 163.5 119 L 157.5 116 L 147.5 115 L 135 118 Q 136.1 120.7 133.5 120 L 134 118.5 L 134 117 L 138 117 L 138 115 L 144.5 115 L 145.5 114 Z " /><path fill="rgb(248,194,60)" stroke="rgb(248,194,60)" stroke-width="1" opacity="0.996078431372549" d="M 128.5 119 L 129 121 L 132 121.5 L 130 125 Q 127.3 123.9 128 126.5 L 126 127.5 L 127 124 Q 130.3 125.1 129 121 L 110 120.5 L 127.5 120 L 128.5 119 Z " /><path fill="rgb(248,194,60)" stroke="rgb(248,194,60)" stroke-width="1" opacity="0.996078431372549" d="M 30 121 Q 34.1 119.7 33 123 L 31 123 L 31 125 Q 28.3 123.9 29 126.5 L 27 127.5 L 30 123.5 L 30 121 Z " /><path fill="rgb(248,194,60)" stroke="rgb(248,194,60)" stroke-width="1" opacity="0.996078431372549" d="M 68.5 121 L 74 126.5 L 74 128.5 L 72 127.5 L 70 123 Q 66.8 124 68.5 121 Z " /><path fill="rgb(248,194,60)" stroke="rgb(248,194,60)" stroke-width="1" opacity="0.996078431372549" d="M 167.5 121 L 173 128.5 L 169 125.5 L 169 123 Q 165.8 124 167.5 121 Z " /><path fill="rgb(248,194,60)" stroke="rgb(248,194,60)" stroke-width="1" opacity="0.996078431372549" d="M 22.5 122 L 23 126 Q 19.6 125.3 18.5 128 L 9 128 L 9 136.5 L 10.5 137 L 14 142 Q 19.2 140.3 18 144 Q 11.2 142.9 8 136.5 L 7 127 L 17.5 127 L 21 125 L 22.5 122 Z " /><path fill="rgb(248,194,60)" stroke="rgb(248,194,60)" stroke-width="1" opacity="0.996078431372549" d="M 191.5 127 L 192 134.5 L 185.5 143 L 180 144 L 180 142 L 185.5 142 L 186 140.5 L 187 138 L 189 138 Q 187.7 133.9 191 135 L 191.5 127 Z " /><path fill="rgb(248,194,60)" stroke="rgb(248,194,60)" stroke-width="1" opacity="0.996078431372549" d="M 25 129 Q 28 127.8 27 131.5 L 24 142.5 L 25.5 145 Q 23.3 145.8 24 143.5 L 23 142.5 L 23 136 L 25 135.5 L 25 129 Z " /><path fill="rgb(248,194,60)" stroke="rgb(248,194,60)" stroke-width="1" opacity="0.996078431372549" d="M 124 129 Q 126.7 127.9 126 130.5 L 124 131.5 L 124 129 Z " /><path fill="rgb(248,194,60)" stroke="rgb(248,194,60)" stroke-width="1" opacity="0.996078431372549" d="M 74.5 131 Q 77.1 130.2 76 133.5 L 75 133.5 L 74.5 131 Z " /><path fill="rgb(248,194,60)" stroke="rgb(248,194,60)" stroke-width="1" opacity="0.996078431372549" d="M 173.5 131 L 175 131.5 L 175 139.5 L 174 139.5 Q 174.6 132.7 173.5 131 Z " /><path fill="rgb(248,194,60)" stroke="rgb(248,194,60)" stroke-width="1" opacity="0.996078431372549" d="M 122 136 Q 125 134.8 124 138.5 L 123 142.5 L 124 144.5 L 123 144.5 L 122 136 Z " /><path fill="rgb(248,194,60)" stroke="rgb(248,194,60)" stroke-width="1" opacity="0.996078431372549" d="M 174.5 141 L 176 144.5 L 174 145 L 174.5 141 Z " /><path fill="rgb(206,203,181)" stroke="rgb(206,203,181)" stroke-width="1" opacity="0.2235294117647059" d="M 99.5 24 L 115 24 L 115 33.5 L 117.5 36 L 157 36 Q 155.8 39.7 161 38 L 161 40.5 L 162 43 L 164 43 L 164 47 Q 167 45.8 166 49.5 L 171 57.5 L 171 60 L 169 60 L 169 56 Q 166 57.3 167 53.5 L 162 44 L 160 44 L 160 40 L 158.5 40 L 154.5 37 L 114 37 L 114 27.5 L 111.5 25 Q 101.3 22.8 99 28.5 Q 99.8 34.6 98 37 L 65.5 37 L 61 41.5 L 56 56 Q 52.7 54.7 54 59.5 L 52 60.5 L 53 54 L 55 54 Q 53.3 48.8 57 50 L 57 45.5 Q 60 46.5 59 41.5 L 60 38 Q 63.1 38.8 62.5 36 L 95.5 36 L 96 34.5 Q 98.7 32.8 97 26.5 L 99.5 24 Z " /><path fill="rgb(206,203,181)" stroke="rgb(206,203,181)" stroke-width="1" opacity="0.2235294117647059" d="M 171 61 Q 174 59.8 173 63.5 Q 178.2 66.1 178 73 Q 181 72 180 75 L 182.5 75 L 183.5 77 L 178 76 L 176 69 Q 173.3 70.1 174 67.5 L 171 61 Z " /><path fill="rgb(206,203,181)" stroke="rgb(206,203,181)" stroke-width="1" opacity="0.2235294117647059" d="M 51.5 62 L 52 64.5 Q 48.1 67.5 49 74 Q 46.3 72.9 47 75.5 L 43 77 L 43 75 Q 45.7 76.1 45 73.5 Q 49.3 71.9 48 66 Q 51 67.3 50 63.5 L 51.5 62 Z " /><path fill="rgb(206,203,181)" stroke="rgb(206,203,181)" stroke-width="1" opacity="0.2235294117647059" d="M 37.5 77 Q 41.3 76 40 79 L 33.5 79 Q 34.5 82.2 28.5 81 L 16.5 86 L 10 92.5 Q 11 96.3 8 95 L 8 98.5 L 6 99.5 L 7 93 L 9 93 L 9 89 L 11 89 L 13 85 L 15.5 85 L 20 84 L 20 82 Q 26.3 83.5 25.5 80 L 29.5 80 L 31.5 78 Q 36.2 79.3 37.5 77 Z " /><path fill="rgb(206,203,181)" stroke="rgb(206,203,181)" stroke-width="1" opacity="0.2235294117647059" d="M 185.5 77 L 188.5 77 L 194 82.5 L 193.5 86 L 192 83 L 190 83 L 190 81 L 188 81 Q 189.1 78.3 186.5 79 L 185.5 77 Z " /><path fill="rgb(206,203,181)" stroke="rgb(206,203,181)" stroke-width="1" opacity="0.2235294117647059" d="M 4 101 L 7 102.5 L 5 104.5 L 5 127.5 L 6 131 L 4 130.5 L 4 101 Z " /><path fill="rgb(206,203,181)" stroke="rgb(206,203,181)" stroke-width="1" opacity="0.2235294117647059" d="M 193.5 134 L 194 137.5 L 190.5 143 Q 187.9 142.3 189 145 L 185.5 145 L 186.5 143 Q 189.1 143.7 188 141 L 190 141 L 190 139 L 192 139 L 192 136.5 L 193.5 134 Z " /><path fill="rgb(206,203,181)" stroke="rgb(206,203,181)" stroke-width="1" opacity="0.2235294117647059" d="M 6.5 136 L 8 139 Q 10.7 137.9 10 140.5 L 13.5 145 L 11 145 Q 12.1 142.3 9.5 143 L 8 140 Q 4.2 141.2 6.5 136 Z " /><path fill="rgb(206,203,181)" stroke="rgb(206,203,181)" stroke-width="1" opacity="0.2235294117647059" d="M 15 145 Q 18.4 147.1 26 146 L 29 155 Q 31.7 153.9 31 156.5 L 33 160 L 36 160 Q 34.9 162.7 37.5 162 L 47 166.5 L 45.5 166 Q 37.5 166.2 34 163 Q 35.3 160 31.5 161 L 27 154.5 L 27 152 Q 24 153.3 25 149.5 L 22.5 147 L 15 147 L 15 145 Z " /><path fill="rgb(206,203,181)" stroke="rgb(206,203,181)" stroke-width="1" opacity="0.2235294117647059" d="M 181.5 145 Q 185.3 144 184 147 Q 175.1 145.3 173 151.5 Q 174 155.3 171 154 L 171 157.5 L 168 159 L 166 163 L 163.5 163 L 161.5 165 L 153.5 167 L 154.5 165 L 160 164 Q 158.8 161 162.5 162 L 167 159 L 167 157 Q 169.7 158.1 169 155.5 Q 172.5 153.3 172 148 Q 175.1 148.8 174.5 146 L 180.5 146 L 181.5 145 Z " /><path fill="rgb(206,203,181)" stroke="rgb(206,203,181)" stroke-width="1" opacity="0.2235294117647059" d="M 75 146 L 123.5 146 L 125 147.5 L 128 155 Q 131 153.8 130 157.5 Q 131.2 160.8 135 160 Q 133.9 162.7 136.5 162 L 144 165.5 L 140.5 166 L 135 165 L 133 161 L 129 161 L 129 158.5 L 128 156 L 126 156 L 126 152 Q 123 153.3 124 149.5 L 121.5 147 L 78.5 147 L 74 151.5 Q 75 158 70.5 159 Q 67.9 158.3 69 161 L 67 161 L 67 163 L 64.5 163 L 62.5 165 L 54.5 167 L 55.5 165 L 61 164 Q 59.8 161 63.5 162 L 68 159 L 68 157 Q 70.7 158.1 70 155.5 Q 74.6 152.4 75 146 Z " /><path fill="rgb(248,181,85)" stroke="rgb(248,181,85)" stroke-width="1" opacity="0.7529411764705882" d="M 65.5 37 L 98 37.5 L 68.5 38 L 63 40 Q 64.1 42.7 61.5 42 L 65.5 37 Z " /><path fill="rgb(248,181,85)" stroke="rgb(248,181,85)" stroke-width="1" opacity="0.7529411764705882" d="M 114.5 37 L 154.5 37 L 160 40 Q 161 43 158 42 Q 159.1 39.3 156.5 40 L 152.5 38 L 114.5 38 L 114.5 37 Z " /><path fill="rgb(248,181,85)" stroke="rgb(248,181,85)" stroke-width="1" opacity="0.7529411764705882" d="M 180.5 76 L 188 79 L 188 81 L 190 81 L 190 83 Q 192.7 81.9 192 84.5 L 194 86.5 L 194 102 L 192 101.5 L 192 85.5 Q 189.4 79.1 181.5 78 L 180.5 76 Z " /><path fill="rgb(248,181,85)" stroke="rgb(248,181,85)" stroke-width="1" opacity="0.7529411764705882" d="M 40 77 L 45 77.5 L 36.5 81 L 33 81 L 33 79 L 39.5 79 L 40 77 Z " /><path fill="rgb(248,181,85)" stroke="rgb(248,181,85)" stroke-width="1" opacity="0.7529411764705882" d="M 28.5 81 L 32 81.5 L 15 88 L 12 94 Q 9.3 95.1 10 92.5 L 16.5 86 L 28.5 81 Z " /><path fill="rgb(248,181,85)" stroke="rgb(248,181,85)" stroke-width="1" opacity="0.7529411764705882" d="M 8 95 Q 10.7 93.9 10 96.5 L 8 102 Q 5.3 103.1 6 100.5 Q 9 99.3 8 95 Z " /><path fill="rgb(248,181,85)" stroke="rgb(248,181,85)" stroke-width="1" opacity="0.7529411764705882" d="M 192 126 L 194 126.5 L 194 133.5 L 192 139 L 190 139 L 190 141 L 188 141 Q 189.1 143.7 186.5 143 L 184.5 145 L 174.5 146 L 174.5 145 L 185.5 143 L 190 138.5 Q 193.5 134.3 192 126 Z " /><path fill="rgb(248,181,85)" stroke="rgb(248,181,85)" stroke-width="1" opacity="0.7529411764705882" d="M 5.5 127 Q 8.5 126.1 7 130.5 Q 9.2 131.8 8 136.5 L 14.5 143 L 23.5 144 L 26 145.5 L 17.5 146 L 10 140.5 L 8 137.5 L 6 135.5 Q 6.6 128.8 5.5 127 Z " /><path fill="rgb(248,181,85)" stroke="rgb(248,181,85)" stroke-width="1" opacity="0.7529411764705882" d="M 77.5 144 L 122.5 144 L 124 145.5 L 76.5 146 L 77.5 144 Z " /><path fill="rgb(44,201,248)" stroke="rgb(44,201,248)" stroke-width="1" opacity="0.984313725490196" d="M 60.5 44 L 97.5 44 Q 96.9 46.8 100 46 L 100 48.5 L 102 51.5 L 102 71.5 L 100 77 Q 96.9 76.3 97.5 79 L 76 79 Q 77.3 68.6 75 63 L 65.5 63 L 65 65 L 62.5 65 Q 57.8 68.3 58 76.5 L 59 79 L 47 79 L 47 74 Q 50.7 75.3 49 69.5 L 54 59.5 L 54 56 Q 57 57.3 56 53.5 L 60.5 44 Z " /><path fill="rgb(44,201,248)" stroke="rgb(44,201,248)" stroke-width="1" opacity="0.984313725490196" d="M 114 44 L 161.5 44 L 162 45.5 L 167 53.5 L 167 56 L 169 56 L 169 60 Q 172 58.8 171 62.5 L 174 69 Q 177 67.8 176 71.5 L 179 79 L 115.5 79 L 112 75.5 L 111 72.5 L 111 50.5 L 114 44 Z " /><path fill="rgb(200,201,178)" stroke="rgb(200,201,178)" stroke-width="1" opacity="0.9921568627450981" d="M 102.5 25 L 111.5 25 L 114 27.5 L 114 40 L 98 40 L 99 28.5 L 102.5 25 Z " /><path fill="rgb(200,201,178)" stroke="rgb(200,201,178)" stroke-width="1" opacity="0.9921568627450981" d="M 100.5 48 L 102 50.5 L 101 50.5 L 100.5 48 Z " /><path fill="rgb(200,201,178)" stroke="rgb(200,201,178)" stroke-width="1" opacity="0.9921568627450981" d="M 62.5 65 L 63 67 L 61 66.5 L 62.5 65 Z " /><path fill="rgb(200,201,178)" stroke="rgb(200,201,178)" stroke-width="1" opacity="0.9921568627450981" d="M 75.5 66 L 76 78.5 L 75 78.5 L 75.5 66 Z " /><path fill="rgb(200,201,178)" stroke="rgb(200,201,178)" stroke-width="1" opacity="0.9921568627450981" d="M 60.5 68 L 59.5 70 L 60.5 68 Z " /><path fill="rgb(200,201,178)" stroke="rgb(200,201,178)" stroke-width="1" opacity="0.9921568627450981" d="M 58.5 72 L 59 76.5 L 58 76.5 L 58.5 72 Z " /><path fill="rgb(200,201,178)" stroke="rgb(200,201,178)" stroke-width="1" opacity="0.9921568627450981" d="M 101.5 72 L 102 73.5 L 100 74.5 L 101.5 72 Z " /><path fill="rgb(200,201,178)" stroke="rgb(200,201,178)" stroke-width="1" opacity="0.9921568627450981" d="M 46.5 76 L 47 79 Q 44.3 80.1 45 77.5 L 46.5 76 Z " /><path fill="rgb(200,201,178)" stroke="rgb(200,201,178)" stroke-width="1" opacity="0.9921568627450981" d="M 112.5 76 L 114.5 79 L 112.5 76 Z " /><path fill="rgb(200,201,178)" stroke="rgb(200,201,178)" stroke-width="1" opacity="0.9921568627450981" d="M 178.5 76 Q 181.1 75.2 180 78.5 L 179 78.5 L 178.5 76 Z " /><path fill="rgb(200,201,178)" stroke="rgb(200,201,178)" stroke-width="1" opacity="0.9921568627450981" d="M 7.5 102 Q 17.1 100.7 21 104 L 22 106.5 L 22 121.5 L 19.5 125 L 7.5 126 L 5 127 L 5 104.5 L 7.5 102 Z " /><path fill="rgb(200,201,178)" stroke="rgb(200,201,178)" stroke-width="1" opacity="0.9921568627450981" d="M 49.5 129 L 56 130 L 56 132 Q 59.8 130.5 59 133.5 L 61 135.5 L 61 145.5 Q 58.5 152 49.5 152 L 42 148.5 Q 39 145.5 39 139.5 L 40 134 L 42 134 Q 40.9 131.3 43.5 132 L 49.5 129 Z " /><path fill="rgb(200,201,178)" stroke="rgb(200,201,178)" stroke-width="1" opacity="0.9921568627450981" d="M 147.5 129 L 158 132 Q 157 136.3 160 135.5 L 160 146 Q 157.3 144.9 158 147.5 Q 155.1 151.6 148.5 152 Q 141.9 151.1 139 146.5 L 137 139.5 Q 140 138.3 139 134 L 141 134 Q 139.9 131.3 142.5 132 L 147.5 129 Z " /><path fill="rgb(200,201,178)" stroke="rgb(200,201,178)" stroke-width="1" opacity="0.9921568627450981" d="M 130.5 157 L 132.5 160 L 130.5 157 Z " /><path fill="rgb(201,196,102)" stroke="rgb(201,196,102)" stroke-width="1" opacity="1" d="M 114 38 Q 117 37 116 40 L 113.5 41 L 99.5 41 L 99.5 40 L 113.5 40 L 114 38 Z " /><path fill="rgb(201,196,102)" stroke="rgb(201,196,102)" stroke-width="1" opacity="1" d="M 61.5 42 L 95.5 42 L 100 44.5 L 98.5 45 L 97.5 44 L 62.5 44 L 61.5 42 Z " /><path fill="rgb(201,196,102)" stroke="rgb(201,196,102)" stroke-width="1" opacity="1" d="M 116.5 42 L 159.5 42 L 160 44 L 114.5 44 L 114 46 L 112.5 46 L 114.5 43 L 116.5 42 Z " /><path fill="rgb(201,196,102)" stroke="rgb(201,196,102)" stroke-width="1" opacity="1" d="M 100.5 47 Q 102.8 46.3 102 48.5 L 100.5 47 Z " /><path fill="rgb(201,196,102)" stroke="rgb(201,196,102)" stroke-width="1" opacity="1" d="M 110 47 L 112 47.5 L 111 48.5 L 111 74.5 L 111.5 76 L 110 75.5 L 110 47 Z " /><path fill="rgb(201,196,102)" stroke="rgb(201,196,102)" stroke-width="1" opacity="1" d="M 67.5 63 Q 73.5 61.5 75 64.5 L 73.5 65 L 68.5 64 L 63.5 66 L 63.5 65 L 67.5 63 Z " /><path fill="rgb(201,196,102)" stroke="rgb(201,196,102)" stroke-width="1" opacity="1" d="M 61.5 67 L 62 68.5 L 60 70.5 L 60 81 L 45.5 81 L 45 79 L 59 79 L 59 70.5 L 61.5 67 Z " /><path fill="rgb(201,196,102)" stroke="rgb(201,196,102)" stroke-width="1" opacity="1" d="M 101.5 74 L 102 76 L 100 75.5 L 101.5 74 Z " /><path fill="rgb(201,196,102)" stroke="rgb(201,196,102)" stroke-width="1" opacity="1" d="M 112.5 77 L 114.5 79 L 180 79 L 180.5 77 L 181 79.5 L 179.5 81 L 116.5 81 L 112.5 77 Z " /><path fill="rgb(201,196,102)" stroke="rgb(201,196,102)" stroke-width="1" opacity="1" d="M 98.5 78 L 100 78.5 L 95.5 81 L 75 81 L 75.5 79 L 97.5 79 L 98.5 78 Z " /><path fill="rgb(201,196,102)" stroke="rgb(201,196,102)" stroke-width="1" opacity="1" d="M 17.5 102 L 20 103.5 L 18.5 103 L 17.5 102 Z " /><path fill="rgb(201,196,102)" stroke="rgb(201,196,102)" stroke-width="1" opacity="1" d="M 21.5 105 L 23 106.5 L 23 121.5 L 21 122.5 L 22 121.5 L 22 106.5 L 21.5 105 Z " /><path fill="rgb(201,196,102)" stroke="rgb(201,196,102)" stroke-width="1" opacity="1" d="M 17.5 125 L 19 125.5 L 17.5 127 L 7.5 127 L 7.5 126 L 16.5 126 L 17.5 125 Z " /><path fill="rgb(32,32,32)" stroke="rgb(32,32,32)" stroke-width="1" opacity="0.9098039215686274" d="M 72.5 148 L 73 149.5 L 71 150.5 L 72.5 148 Z " /><path fill="rgb(32,32,32)" stroke="rgb(32,32,32)" stroke-width="1" opacity="0.9098039215686274" d="M 170 148 L 172 148.5 L 170 149.5 L 170 148 Z " /><path fill="rgb(32,32,32)" stroke="rgb(32,32,32)" stroke-width="1" opacity="0.9098039215686274" d="M 28.5 150 Q 30.8 149.3 30 151.5 L 28.5 150 Z " /><path fill="rgb(32,32,32)" stroke="rgb(32,32,32)" stroke-width="1" opacity="0.9098039215686274" d="M 127.5 150 L 128.5 152 L 127.5 150 Z " /><path fill="rgb(32,32,32)" stroke="rgb(32,32,32)" stroke-width="1" opacity="0.9098039215686274" d="M 169.5 151 L 170 152.5 L 168.5 155 L 168 153.5 L 169.5 151 Z " /><path fill="rgb(32,32,32)" stroke="rgb(32,32,32)" stroke-width="1" opacity="0.9098039215686274" d="M 31.5 154 L 32.5 156 L 31.5 154 Z " /><path fill="rgb(32,32,32)" stroke="rgb(32,32,32)" stroke-width="1" opacity="0.9098039215686274" d="M 130.5 155 Q 132.8 154.3 132 156.5 L 130.5 155 Z " /><path fill="rgb(32,32,32)" stroke="rgb(32,32,32)" stroke-width="1" opacity="0.9098039215686274" d="M 67.5 156 L 68 158 L 64.5 160 L 67.5 156 Z " /><path fill="rgb(32,32,32)" stroke="rgb(32,32,32)" stroke-width="1" opacity="0.9098039215686274" d="M 165 156 L 167 156.5 L 163.5 159 L 163.5 158 Q 166.1 158.7 165 156 Z " /><path fill="rgb(32,32,32)" stroke="rgb(32,32,32)" stroke-width="1" opacity="0.9098039215686274" d="M 35.5 158 L 38.5 162 L 35 160 L 35.5 158 Z " /><path fill="rgb(32,32,32)" stroke="rgb(32,32,32)" stroke-width="1" opacity="0.9098039215686274" d="M 134.5 158 L 136.5 161 L 134 160 L 134.5 158 Z " /><path fill="rgb(32,32,32)" stroke="rgb(32,32,32)" stroke-width="1" opacity="0.9098039215686274" d="M 61 160 Q 64 159 63 162 Q 60 163 61 160 Z " /><path fill="rgb(32,32,32)" stroke="rgb(32,32,32)" stroke-width="1" opacity="0.9098039215686274" d="M 160 160 L 162 160.5 L 160 161.5 L 160 160 Z " /><path fill="rgb(32,32,32)" stroke="rgb(32,32,32)" stroke-width="1" opacity="0.9098039215686274" d="M 42 162 L 45 163.5 L 42 164 L 42 162 Z " /><path fill="rgb(32,32,32)" stroke="rgb(32,32,32)" stroke-width="1" opacity="0.9098039215686274" d="M 57.5 162 L 59 162.5 L 56.5 164 L 57.5 162 Z " /><path fill="rgb(32,32,32)" stroke="rgb(32,32,32)" stroke-width="1" opacity="0.9098039215686274" d="M 141 162 L 144 163.5 L 141 164 L 141 162 Z " /><path fill="rgb(32,32,32)" stroke="rgb(32,32,32)" stroke-width="1" opacity="0.9098039215686274" d="M 156.5 162 L 158 162.5 L 155.5 164 L 156.5 162 Z " /><path fill="rgb(249,194,60)" stroke="rgb(249,194,60)" stroke-width="1" opacity="1" d="M 66.5 40 L 96 40.5 L 66.5 41 L 66.5 40 Z " /><path fill="rgb(249,194,60)" stroke="rgb(249,194,60)" stroke-width="1" opacity="1" d="M 117.5 40 L 154 40.5 L 117.5 41 L 117.5 40 Z " /><path fill="rgb(249,194,60)" stroke="rgb(249,194,60)" stroke-width="1" opacity="1" d="M 97 41 L 114.5 41 L 115 43 L 111 43 L 111 44.5 L 110 45.5 L 110 77.5 Q 111.2 80.8 115 80 L 115.5 82 L 182 82 Q 180.8 78.3 186 80 L 189.5 85 L 191 85.5 L 191 102 Q 182.2 100.8 179 106.5 Q 176 109.5 176 115.5 L 182.5 125 L 191 127 L 191 135 L 189 135 L 189 138 Q 186.3 136.9 187 139.5 L 186 142 L 180.5 142 Q 181.3 145.5 175 144 L 175 131.5 L 173 131 L 173 128.5 L 167.5 121 Q 164.9 121.7 166 119 L 164 119 L 164 117 L 161.5 117 L 159.5 115 L 145.5 114 L 144.5 115 L 138 115 L 138 117 L 134 117 L 134 118.5 L 133 121 L 129 121 L 129 124 Q 126.3 122.9 127 125.5 L 126 129 L 124 129 L 124 135.5 L 122 136.5 L 122 142.5 L 122.5 144 L 76 144 L 76 131.5 Q 72.8 132.5 74 126.5 L 67 121 L 64.5 117 L 60.5 115 L 46.5 114 L 45.5 115 L 39 115 L 39 117 L 36 117 L 34 121 L 30 121 L 30 123.5 Q 26.2 124.7 27 129 L 25 129 L 25 135.5 L 23 136.5 L 23 142.5 L 23.5 144 L 18 144 L 18 142 L 14 142 L 14 140.5 L 9 137 L 9 128 L 18.5 128 Q 19.6 125.3 23 126 L 23 120 L 25 119.5 L 25 109 Q 21.3 110.3 23 104.5 L 18.5 101 L 9 100.5 L 11 100 Q 9.7 94.7 13 95.5 L 13 92.5 L 16 91 L 16 89 L 20 89 L 20 87 Q 24.1 88.3 23 85 L 28.5 85 L 34 84 L 34 82 L 40.5 82 L 41 80 L 43.5 80 L 45.5 82 L 61 82 L 60 71 Q 63 72.3 62 68.5 L 69.5 64 L 72.5 64 L 75 66.5 L 75 80.5 L 76.5 82 L 96.5 82 L 97 80 L 101 80 Q 100 77 103 78 L 103 45 Q 100 46 101 43 L 97 43 L 97 41 Z M 69 87 L 69 108 L 83 108 L 83 120 L 85 121 L 103 121 L 103 108 L 110 108 L 110 121 L 129 121 L 129 108 L 143 108 L 143 87 L 122 87 L 122 101 L 117 101 L 117 89 L 116 87 L 96 87 L 96 101 L 90 101 L 90 87 L 69 87 Z " /><path fill="rgb(190,150,52)" stroke="rgb(190,150,52)" stroke-width="1" opacity="0.996078431372549" d="M 72.5 88 L 87.5 88 L 90 90.5 L 89.5 102 L 89 91.5 L 87.5 90 L 72 90 L 72 106 L 84 106.5 L 72.5 107 L 70 106 L 70 90.5 L 72.5 88 Z " /><path fill="rgb(190,150,52)" stroke="rgb(190,150,52)" stroke-width="1" opacity="0.996078431372549" d="M 98 88 L 113.5 88 L 116 90.5 L 116 101.5 L 114 102 L 114 90 L 98 90 L 98 101.5 L 96.5 102 L 97 100.5 Q 95.8 91.6 98 88 Z " /><path fill="rgb(190,150,52)" stroke="rgb(190,150,52)" stroke-width="1" opacity="0.996078431372549" d="M 125.5 88 L 140.5 88 L 141 89.5 L 142 90.5 L 142 105.5 L 140.5 107 L 129 107 L 129 118.5 L 127.5 120 L 126 119.5 L 128 119 L 128 106 L 139.5 106 L 141 104.5 L 141 90 L 125 90 L 125 101.5 L 123 102 L 123 90.5 L 125.5 88 Z " /><path fill="rgb(190,150,52)" stroke="rgb(190,150,52)" stroke-width="1" opacity="0.996078431372549" d="M 102.5 106 L 111 106 L 111 118.5 L 111.5 120 L 110 119.5 L 110 107 L 102.5 107 L 102.5 106 Z " /><path fill="rgb(190,150,52)" stroke="rgb(190,150,52)" stroke-width="1" opacity="0.996078431372549" d="M 48.5 115 L 53 115.5 L 48.5 116 L 48.5 115 Z " /><path fill="rgb(190,150,52)" stroke="rgb(190,150,52)" stroke-width="1" opacity="0.996078431372549" d="M 147.5 115 L 151 115.5 L 147.5 116 L 147.5 115 Z " /><path fill="rgb(190,150,52)" stroke="rgb(190,150,52)" stroke-width="1" opacity="0.996078431372549" d="M 41.5 116 L 43 116.5 L 40.5 118 L 41.5 116 Z " /><path fill="rgb(190,150,52)" stroke="rgb(190,150,52)" stroke-width="1" opacity="0.996078431372549" d="M 57.5 116 Q 61.3 115 60 118 L 57.5 116 Z " /><path fill="rgb(190,150,52)" stroke="rgb(190,150,52)" stroke-width="1" opacity="0.996078431372549" d="M 140.5 116 L 142 116.5 L 139.5 118 L 140.5 116 Z " /><path fill="rgb(190,150,52)" stroke="rgb(190,150,52)" stroke-width="1" opacity="0.996078431372549" d="M 156.5 116 L 159 117.5 L 157.5 118 L 156.5 116 Z " /><path fill="rgb(190,150,52)" stroke="rgb(190,150,52)" stroke-width="1" opacity="0.996078431372549" d="M 37.5 118 L 38 120 L 33.5 122 L 33.5 121 L 37.5 118 Z " /><path fill="rgb(190,150,52)" stroke="rgb(190,150,52)" stroke-width="1" opacity="0.996078431372549" d="M 84.5 118 L 85.5 120 Q 82.7 120.7 84.5 118 Z " /><path fill="rgb(190,150,52)" stroke="rgb(190,150,52)" stroke-width="1" opacity="0.996078431372549" d="M 135 118 Q 138 117 137 120 L 130.5 124 L 133.5 120 Q 136.1 120.7 135 118 Z " /><path fill="rgb(190,150,52)" stroke="rgb(190,150,52)" stroke-width="1" opacity="0.996078431372549" d="M 161.5 118 L 167 121 L 169 125 Q 166.3 126.1 167 123.5 L 161.5 118 Z " /><path fill="rgb(190,150,52)" stroke="rgb(190,150,52)" stroke-width="1" opacity="0.996078431372549" d="M 63.5 119 L 68 121 L 68 123 Q 70.7 121.9 70 124.5 L 71.5 127 Q 69.3 127.8 70 125.5 L 63.5 119 Z " /><path fill="rgb(190,150,52)" stroke="rgb(190,150,52)" stroke-width="1" opacity="0.996078431372549" d="M 29 125 L 31 125.5 L 26.5 133 L 27 131.5 L 27 128.5 L 29 125 Z " /><path fill="rgb(190,150,52)" stroke="rgb(190,150,52)" stroke-width="1" opacity="0.996078431372549" d="M 128 125 L 130 125.5 L 126.5 130 L 126 128.5 L 128 125 Z " /><path fill="rgb(190,150,52)" stroke="rgb(190,150,52)" stroke-width="1" opacity="0.996078431372549" d="M 169.5 126 Q 173.9 128.1 174 134.5 L 173 134.5 L 169.5 126 Z " /><path fill="rgb(190,150,52)" stroke="rgb(190,150,52)" stroke-width="1" opacity="0.996078431372549" d="M 72.5 128 Q 77.8 132.8 76 144.5 L 75 144.5 L 75 135.5 L 72.5 128 Z " /><path fill="rgb(190,150,52)" stroke="rgb(190,150,52)" stroke-width="1" opacity="0.996078431372549" d="M 143.5 130 L 142.5 132 L 143.5 130 Z " /><path fill="rgb(190,150,52)" stroke="rgb(190,150,52)" stroke-width="1" opacity="0.996078431372549" d="M 154.5 130 L 155.5 132 L 154.5 130 Z " /><path fill="rgb(190,150,52)" stroke="rgb(190,150,52)" stroke-width="1" opacity="0.996078431372549" d="M 125.5 131 L 126 132.5 L 125 133.5 L 124.5 146 L 123 139.5 Q 125.5 138 124 132.5 L 125.5 131 Z " /><path fill="rgb(190,150,52)" stroke="rgb(190,150,52)" stroke-width="1" opacity="0.996078431372549" d="M 25.5 136 L 26 143.5 L 24 142.5 L 25.5 136 Z " /><path fill="rgb(190,150,52)" stroke="rgb(190,150,52)" stroke-width="1" opacity="0.996078431372549" d="M 138.5 137 L 137.5 139 L 138.5 137 Z " /><path fill="rgb(190,150,52)" stroke="rgb(190,150,52)" stroke-width="1" opacity="0.996078431372549" d="M 39.5 138 L 39 139.5 L 38.5 141 L 38 139.5 L 39.5 138 Z " /><path fill="rgb(190,150,52)" stroke="rgb(190,150,52)" stroke-width="1" opacity="0.996078431372549" d="M 137.5 141 L 139 143.5 L 137 142.5 L 137.5 141 Z " /><path fill="rgb(190,150,52)" stroke="rgb(190,150,52)" stroke-width="1" opacity="0.996078431372549" d="M 40.5 146 L 41.5 148 L 40.5 146 Z " /><path fill="rgb(190,150,52)" stroke="rgb(190,150,52)" stroke-width="1" opacity="0.996078431372549" d="M 150.5 151 L 153 151.5 L 150.5 152 L 150.5 151 Z " /><path fill="rgb(84,74,49)" stroke="rgb(84,74,49)" stroke-width="1" opacity="0.996078431372549" d="M 87.5 90 L 89 91.5 L 89 102 L 98 102 L 98 90.5 L 99 90.5 Q 100.4 100.1 98 104 L 89.5 104 L 87 101.5 L 87.5 90 Z " /><path fill="rgb(84,74,49)" stroke="rgb(84,74,49)" stroke-width="1" opacity="0.996078431372549" d="M 140.5 90 L 141 104.5 L 139.5 106 L 128 106 L 128 118.5 L 126.5 119 L 125.5 120 L 112.5 120 L 111 118.5 L 111 106 L 102 106 L 102 118.5 L 100.5 120 L 86.5 120 L 84 117.5 L 84 106 L 72 105.5 L 83.5 105 L 86 106 L 86 118 L 101 118 L 101 106.5 L 102.5 105 L 110.5 105 L 112 106.5 L 112 118 L 125.5 118 L 127 116.5 L 127 106.5 L 128.5 105 L 140 105 L 140.5 90 Z " /><path fill="rgb(84,74,49)" stroke="rgb(84,74,49)" stroke-width="1" opacity="0.996078431372549" d="M 114.5 102 L 125 102.5 L 123.5 104 L 115.5 104 L 114.5 102 Z " /><path fill="rgb(84,74,49)" stroke="rgb(84,74,49)" stroke-width="1" opacity="0.996078431372549" d="M 43.5 116 L 56.5 116 L 58 117.5 L 56.5 118 L 55.5 117 L 44.5 117 L 42.5 118 L 43.5 116 Z " /><path fill="rgb(84,74,49)" stroke="rgb(84,74,49)" stroke-width="1" opacity="0.996078431372549" d="M 142.5 116 L 155.5 116 L 157 117.5 L 155.5 118 L 154.5 117 L 143.5 117 L 141.5 118 L 142.5 116 Z " /><path fill="rgb(84,74,49)" stroke="rgb(84,74,49)" stroke-width="1" opacity="0.996078431372549" d="M 38 118 Q 41 117 40 120 Q 37 121 38 118 Z " /><path fill="rgb(84,74,49)" stroke="rgb(84,74,49)" stroke-width="1" opacity="0.996078431372549" d="M 61 118 Q 64 117 63 120 Q 60 121 61 118 Z " /><path fill="rgb(84,74,49)" stroke="rgb(84,74,49)" stroke-width="1" opacity="0.996078431372549" d="M 137 118 Q 140 117 139 120 Q 136 121 137 118 Z " /><path fill="rgb(84,74,49)" stroke="rgb(84,74,49)" stroke-width="1" opacity="0.996078431372549" d="M 160.5 118 L 161.5 120 Q 158.7 120.7 160.5 118 Z " /><path fill="rgb(84,74,49)" stroke="rgb(84,74,49)" stroke-width="1" opacity="0.996078431372549" d="M 36.5 120 L 37 122 L 33 123 L 28.5 130 L 29 128.5 L 33.5 122 L 36.5 120 Z " /><path fill="rgb(84,74,49)" stroke="rgb(84,74,49)" stroke-width="1" opacity="0.996078431372549" d="M 64.5 120 L 69.5 126 L 64 122 L 64.5 120 Z " /><path fill="rgb(84,74,49)" stroke="rgb(84,74,49)" stroke-width="1" opacity="0.996078431372549" d="M 135.5 120 L 133.5 123 L 130.5 125 L 133.5 121 L 135.5 120 Z " /><path fill="rgb(84,74,49)" stroke="rgb(84,74,49)" stroke-width="1" opacity="0.996078431372549" d="M 163.5 120 L 166.5 124 L 163 122 L 163.5 120 Z " /><path fill="rgb(84,74,49)" stroke="rgb(84,74,49)" stroke-width="1" opacity="0.996078431372549" d="M 168.5 125 L 172 131.5 L 170 130.5 L 168.5 125 Z " /><path fill="rgb(84,74,49)" stroke="rgb(84,74,49)" stroke-width="1" opacity="0.996078431372549" d="M 129.5 126 L 129 127.5 Q 126.2 129.5 127 134 L 125 133.5 L 129.5 126 Z " /><path fill="rgb(84,74,49)" stroke="rgb(84,74,49)" stroke-width="1" opacity="0.996078431372549" d="M 70.5 127 Q 73.1 126.2 72 129.5 L 72.5 131 L 70.5 127 Z " /><path fill="rgb(84,74,49)" stroke="rgb(84,74,49)" stroke-width="1" opacity="0.996078431372549" d="M 45 128 Q 54.4 126.3 58 130 L 57.5 132 Q 54.9 128.1 47.5 129 L 45 130 L 45 128 Z " /><path fill="rgb(84,74,49)" stroke="rgb(84,74,49)" stroke-width="1" opacity="0.996078431372549" d="M 144 128 Q 153.4 126.3 157 130 L 156.5 132 Q 153.9 128.1 146.5 129 L 144 130 L 144 128 Z " /><path fill="rgb(84,74,49)" stroke="rgb(84,74,49)" stroke-width="1" opacity="0.996078431372549" d="M 42 130 Q 45 129 44 132 L 40 134 L 42 130 Z " /><path fill="rgb(84,74,49)" stroke="rgb(84,74,49)" stroke-width="1" opacity="0.996078431372549" d="M 141 130 L 143 130.5 L 137.5 138 L 137 135.5 L 139 132 Q 142 133 141 130 Z " /><path fill="rgb(84,74,49)" stroke="rgb(84,74,49)" stroke-width="1" opacity="0.996078431372549" d="M 27.5 132 L 28 133.5 L 26.5 136 L 26 133.5 L 27.5 132 Z " /><path fill="rgb(84,74,49)" stroke="rgb(84,74,49)" stroke-width="1" opacity="0.996078431372549" d="M 59.5 132 Q 64.2 134.8 63 143.5 L 60 150 L 54.5 152 L 54.5 151 L 58 150 L 58 148 Q 60.7 149.1 60 146.5 L 62 139.5 L 59.5 132 Z " /><path fill="rgb(84,74,49)" stroke="rgb(84,74,49)" stroke-width="1" opacity="0.996078431372549" d="M 73.5 132 L 75 138.5 L 74 138.5 L 73.5 132 Z " /><path fill="rgb(84,74,49)" stroke="rgb(84,74,49)" stroke-width="1" opacity="0.996078431372549" d="M 158.5 132 L 160 134.5 L 158 133.5 L 158.5 132 Z " /><path fill="rgb(84,74,49)" stroke="rgb(84,74,49)" stroke-width="1" opacity="0.996078431372549" d="M 172.5 133 L 174 139 L 172 139 L 172.5 133 Z " /><path fill="rgb(84,74,49)" stroke="rgb(84,74,49)" stroke-width="1" opacity="0.996078431372549" d="M 39.5 135 L 40 137.5 L 38 138.5 L 39.5 135 Z " /><path fill="rgb(84,74,49)" stroke="rgb(84,74,49)" stroke-width="1" opacity="0.996078431372549" d="M 160 137 Q 163.5 135.9 162 143.5 L 160 144.5 L 160 137 Z " /><path fill="rgb(84,74,49)" stroke="rgb(84,74,49)" stroke-width="1" opacity="0.996078431372549" d="M 38.5 141 L 40 145.5 L 38 144.5 L 38.5 141 Z " /><path fill="rgb(84,74,49)" stroke="rgb(84,74,49)" stroke-width="1" opacity="0.996078431372549" d="M 173.5 141 L 174 146 Q 171 147.3 172 143.5 L 173.5 141 Z " /><path fill="rgb(84,74,49)" stroke="rgb(84,74,49)" stroke-width="1" opacity="0.996078431372549" d="M 74.5 142 L 75 146 Q 72.3 147.1 73 144.5 L 74.5 142 Z " /><path fill="rgb(84,74,49)" stroke="rgb(84,74,49)" stroke-width="1" opacity="0.996078431372549" d="M 137.5 143 L 139 146.5 L 137 145.5 L 137.5 143 Z " /><path fill="rgb(84,74,49)" stroke="rgb(84,74,49)" stroke-width="1" opacity="0.996078431372549" d="M 26.5 146 Q 28.8 145.3 28 147.5 L 26.5 146 Z " /><path fill="rgb(84,74,49)" stroke="rgb(84,74,49)" stroke-width="1" opacity="0.996078431372549" d="M 125.5 146 L 126.5 148 L 125.5 146 Z " /><path fill="rgb(84,74,49)" stroke="rgb(84,74,49)" stroke-width="1" opacity="0.996078431372549" d="M 158 146 Q 160.7 144.9 160 147.5 L 157 149.5 L 158 146 Z " /><path fill="rgb(84,74,49)" stroke="rgb(84,74,49)" stroke-width="1" opacity="0.996078431372549" d="M 40.5 147 L 42 149.5 L 41 149.5 L 40.5 147 Z " /><path fill="rgb(84,74,49)" stroke="rgb(84,74,49)" stroke-width="1" opacity="0.996078431372549" d="M 43.5 150 Q 46.8 152.8 53 152.5 L 47.5 153 Q 43.5 152.5 43.5 150 Z " /><path fill="rgb(84,74,49)" stroke="rgb(84,74,49)" stroke-width="1" opacity="0.996078431372549" d="M 142 150 L 151 152.5 L 146.5 153 L 142 152 L 142 150 Z " /><path fill="rgb(84,74,49)" stroke="rgb(84,74,49)" stroke-width="1" opacity="0.996078431372549" d="M 155.5 150 L 154.5 152 L 153 151.5 L 155.5 150 Z " /><path fill="rgb(33,33,33)" stroke="rgb(33,33,33)" stroke-width="1" opacity="0.996078431372549" d="M 72 90 L 87 90 L 87 101.5 L 89.5 104 L 98 104 L 99 101.5 L 99 90 L 114 90 L 114 102.5 L 115.5 104 L 123.5 104 L 125 102.5 L 125 90 L 140 90 L 140 105 L 128.5 105 L 127 106.5 L 127 116.5 L 125.5 118 L 112 118 L 112 106.5 L 110.5 105 L 102.5 105 L 101 106.5 L 101 118 L 86 118 L 86 106.5 L 84.5 106 L 83.5 105 L 72 105 L 72 90 Z " /><path fill="rgb(33,33,33)" stroke="rgb(33,33,33)" stroke-width="1" opacity="0.996078431372549" d="M 44.5 117 L 55.5 117 L 61 118 L 61 120 L 64 120 Q 62.9 122.7 65.5 122 L 73 131.5 L 75 141.5 L 70 155 L 63.5 160 L 61 160 Q 62.3 163.3 57.5 162 L 55.5 164 L 45.5 164 Q 44.5 161 39.5 162 L 35.5 158 L 33 158 L 30 150 L 28 150 Q 29.3 144.7 26 145.5 L 26 136.5 Q 28.6 135.1 28 130.5 L 33 123 L 37 122 L 37 120 Q 41.1 121.3 40 118 L 43.5 118 L 44.5 117 Z M 45 128 L 45 130 L 42 130 Q 43 133 40 132 Q 41 135 38 137 L 38 145 L 41 150 L 48 153 Q 56 153 60 150 L 63 144 Q 64 136 60 134 Q 61 131 58 132 L 58 130 Q 54 126 45 128 Z " /><path fill="rgb(33,33,33)" stroke="rgb(33,33,33)" stroke-width="1" opacity="0.996078431372549" d="M 143.5 117 L 154.5 117 L 160 118 L 160 120 L 163 120 Q 161.9 122.7 164.5 122 L 172 132.5 L 172 139 Q 174.7 137.9 174 140.5 Q 171 142.8 172 148 Q 169 146.8 170 150.5 L 166.5 156 Q 163.9 155.3 165 158 L 163 158 L 163 160 L 160 160 L 160 162 L 156.5 162 L 154.5 164 L 144.5 164 Q 142.8 160.5 137 162 L 134.5 158 L 132 158 L 132 155 Q 129.3 156.1 130 153.5 Q 126.1 151.4 127 146 L 125 145.5 L 125 134 Q 128.3 135.3 127 130.5 L 130 125 L 132 125 Q 130.9 122.3 133.5 123 Q 134.7 119.2 139 120 Q 137.7 116.7 142.5 118 L 143.5 117 Z M 144 128 L 144 130 L 141 130 Q 142 133 139 132 L 137 136 L 137 146 L 140 149 Q 139 151 142 150 L 142 152 L 147 153 Q 154 154 158 150 L 162 144 Q 164 136 160 137 L 159 134 Q 160 131 157 132 L 157 130 Q 153 126 144 128 Z " /><path fill="rgb(87,87,87)" stroke="rgb(87,87,87)" stroke-width="1" opacity="0.7176470588235294" d="M 73 146 L 75 146.5 L 74 151 L 72 150.5 L 73 146 Z " /><path fill="rgb(87,87,87)" stroke="rgb(87,87,87)" stroke-width="1" opacity="0.7176470588235294" d="M 172 146 L 174 146.5 L 172 147.5 L 172 146 Z " /><path fill="rgb(87,87,87)" stroke="rgb(87,87,87)" stroke-width="1" opacity="0.7176470588235294" d="M 26.5 147 L 28 149.5 L 27 149.5 L 26.5 147 Z " /><path fill="rgb(87,87,87)" stroke="rgb(87,87,87)" stroke-width="1" opacity="0.7176470588235294" d="M 125.5 147 L 130 154.5 L 128 155 L 125.5 147 Z " /><path fill="rgb(87,87,87)" stroke="rgb(87,87,87)" stroke-width="1" opacity="0.7176470588235294" d="M 171.5 149 L 172 150.5 L 169 157 L 167 157 Q 168.1 159.7 165.5 159 L 161.5 162 L 162.5 160 L 167 156.5 L 169 153.5 L 171.5 149 Z " /><path fill="rgb(87,87,87)" stroke="rgb(87,87,87)" stroke-width="1" opacity="0.7176470588235294" d="M 28.5 151 L 35 159.5 L 31 156.5 L 29 153.5 L 28.5 151 Z " /><path fill="rgb(87,87,87)" stroke="rgb(87,87,87)" stroke-width="1" opacity="0.7176470588235294" d="M 70 153 L 72 153.5 L 70 157 L 68 156.5 L 70 153 Z " /><path fill="rgb(87,87,87)" stroke="rgb(87,87,87)" stroke-width="1" opacity="0.7176470588235294" d="M 130.5 156 L 133.5 160 L 130.5 156 Z " /><path fill="rgb(87,87,87)" stroke="rgb(87,87,87)" stroke-width="1" opacity="0.7176470588235294" d="M 66.5 158 L 68 158.5 L 63.5 162 L 63 160 L 66.5 158 Z " /><path fill="rgb(87,87,87)" stroke="rgb(87,87,87)" stroke-width="1" opacity="0.7176470588235294" d="M 36.5 160 L 37.5 162 Q 34.7 162.7 36.5 160 Z " /><path fill="rgb(87,87,87)" stroke="rgb(87,87,87)" stroke-width="1" opacity="0.7176470588235294" d="M 135.5 160 L 136.5 162 Q 133.7 162.7 135.5 160 Z " /><path fill="rgb(87,87,87)" stroke="rgb(87,87,87)" stroke-width="1" opacity="0.7176470588235294" d="M 40 162 Q 43 161 42 164 Q 39 165 40 162 Z " /><path fill="rgb(87,87,87)" stroke="rgb(87,87,87)" stroke-width="1" opacity="0.7176470588235294" d="M 59.5 162 Q 62.1 161.3 61 164 L 58 163.5 L 59.5 162 Z " /><path fill="rgb(87,87,87)" stroke="rgb(87,87,87)" stroke-width="1" opacity="0.7176470588235294" d="M 138.5 162 L 141 163.5 L 139.5 164 L 138.5 162 Z " /><path fill="rgb(87,87,87)" stroke="rgb(87,87,87)" stroke-width="1" opacity="0.7176470588235294" d="M 158.5 162 Q 161.1 161.3 160 164 L 157 163.5 L 158.5 162 Z " /><path fill="rgb(87,87,87)" stroke="rgb(87,87,87)" stroke-width="1" opacity="0.7176470588235294" d="M 44.5 164 L 56 164.5 L 54.5 166 L 46.5 166 L 44.5 164 Z " /><path fill="rgb(87,87,87)" stroke="rgb(87,87,87)" stroke-width="1" opacity="0.7176470588235294" d="M 143.5 164 L 155 164.5 L 153.5 166 L 144.5 166 L 143.5 164 Z " /></svg>