<svg width="200" height="200" version="1.1" xmlns="http://www.w3.org/2000/svg" desc="Created with imagetracer.js version 1.2.6" ><path fill="rgb(8,8,9)" stroke="rgb(8,8,9)" stroke-width="1" opacity="0.9882352941176471" d="M 52.5 25 L 54.5 28 L 52.5 25 Z " /><path fill="rgb(8,8,9)" stroke="rgb(8,8,9)" stroke-width="1" opacity="0.9882352941176471" d="M 29.5 26 L 50 26.5 L 29.5 27 L 29.5 26 Z " /><path fill="rgb(8,8,9)" stroke="rgb(8,8,9)" stroke-width="1" opacity="0.9882352941176471" d="M 27.5 27 L 26 29.5 L 26 129.5 L 27 130.5 L 25 129.5 L 25 29.5 L 27.5 27 Z " /><path fill="rgb(8,8,9)" stroke="rgb(8,8,9)" stroke-width="1" opacity="0.9882352941176471" d="M 51.5 27 L 53 29.5 L 52 29.5 L 51.5 27 Z " /><path fill="rgb(8,8,9)" stroke="rgb(8,8,9)" stroke-width="1" opacity="0.9882352941176471" d="M 53.5 31 L 54 55 L 56 55.5 L 53 56 L 53.5 31 Z " /><path fill="rgb(8,8,9)" stroke="rgb(8,8,9)" stroke-width="1" opacity="0.9882352941176471" d="M 61.5 31 L 79 31.5 L 61.5 32 L 61.5 31 Z " /><path fill="rgb(8,8,9)" stroke="rgb(8,8,9)" stroke-width="1" opacity="0.9882352941176471" d="M 80.5 32 L 84 34.5 L 81.5 33 L 80.5 32 Z " /><path fill="rgb(8,8,9)" stroke="rgb(8,8,9)" stroke-width="1" opacity="0.9882352941176471" d="M 57.5 33 L 57 34.5 L 56.5 36 L 56 34.5 L 57.5 33 Z " /><path fill="rgb(8,8,9)" stroke="rgb(8,8,9)" stroke-width="1" opacity="0.9882352941176471" d="M 85.5 33 L 86.5 35 L 85.5 33 Z " /><path fill="rgb(8,8,9)" stroke="rgb(8,8,9)" stroke-width="1" opacity="0.9882352941176471" d="M 84.5 36 L 85 99.5 L 83.5 101 L 73.5 102 L 73.5 101 L 84 100 L 84.5 36 Z " /><path fill="rgb(8,8,9)" stroke="rgb(8,8,9)" stroke-width="1" opacity="0.9882352941176471" d="M 38.5 37 L 42 38.5 L 41.5 41 L 41 38 Q 36.5 36.3 38 41.5 L 37 41.5 Q 36.3 37.8 38.5 37 Z " /><path fill="rgb(8,8,9)" stroke="rgb(8,8,9)" stroke-width="1" opacity="0.9882352941176471" d="M 89.5 37 L 112.5 37 L 115 39.5 L 114.5 41 L 112.5 38 L 89.5 38 L 88.5 39 L 89.5 37 Z " /><path fill="rgb(8,8,9)" stroke="rgb(8,8,9)" stroke-width="1" opacity="0.9882352941176471" d="M 87.5 40 L 88 101.5 L 87 101.5 L 87.5 40 Z " /><path fill="rgb(8,8,9)" stroke="rgb(8,8,9)" stroke-width="1" opacity="0.9882352941176471" d="M 121.5 40 L 143.5 40 L 145 41.5 L 143.5 41 L 121.5 41 L 121.5 40 Z " /><path fill="rgb(8,8,9)" stroke="rgb(8,8,9)" stroke-width="1" opacity="0.9882352941176471" d="M 69.5 42 L 73 43.5 L 71.5 47 L 68 45.5 L 69.5 42 Z M 69 43 Q 68 48 72 46 Q 74 42 69 43 Z " /><path fill="rgb(8,8,9)" stroke="rgb(8,8,9)" stroke-width="1" opacity="0.9882352941176471" d="M 121.5 42 L 142.5 42 L 146 45.5 L 142.5 43 L 121.5 43 L 119 45.5 L 118.5 47 L 118 45.5 L 121.5 42 Z " /><path fill="rgb(8,8,9)" stroke="rgb(8,8,9)" stroke-width="1" opacity="0.9882352941176471" d="M 115.5 43 L 116 100.5 L 113.5 104 L 114 102.5 L 115 100.5 L 115.5 43 Z " /><path fill="rgb(8,8,9)" stroke="rgb(8,8,9)" stroke-width="1" opacity="0.9882352941176471" d="M 147.5 44 L 151 46.5 L 149.5 47 L 147.5 44 Z " /><path fill="rgb(8,8,9)" stroke="rgb(8,8,9)" stroke-width="1" opacity="0.9882352941176471" d="M 152.5 45 L 174 45.5 L 152.5 46 L 152.5 45 Z " /><path fill="rgb(8,8,9)" stroke="rgb(8,8,9)" stroke-width="1" opacity="0.9882352941176471" d="M 100.5 46 L 103 47.5 L 101.5 47 L 99.5 48 L 100.5 46 Z " /><path fill="rgb(8,8,9)" stroke="rgb(8,8,9)" stroke-width="1" opacity="0.9882352941176471" d="M 175.5 46 L 180 51.5 L 180 107.5 L 179 107.5 L 179 51.5 L 175.5 46 Z " /><path fill="rgb(8,8,9)" stroke="rgb(8,8,9)" stroke-width="1" opacity="0.9882352941176471" d="M 154.5 47 L 171 47.5 L 154.5 48 L 154.5 47 Z " /><path fill="rgb(8,8,9)" stroke="rgb(8,8,9)" stroke-width="1" opacity="0.9882352941176471" d="M 146.5 48 L 147 88 L 149 88.5 L 146 89 L 146.5 48 Z " /><path fill="rgb(8,8,9)" stroke="rgb(8,8,9)" stroke-width="1" opacity="0.9882352941176471" d="M 151.5 48 L 153 48.5 L 150 50.5 L 149.5 52 L 149 50.5 L 151.5 48 Z " /><path fill="rgb(8,8,9)" stroke="rgb(8,8,9)" stroke-width="1" opacity="0.9882352941176471" d="M 173.5 48 L 177 50.5 L 176.5 52 L 174.5 49 L 173.5 48 Z " /><path fill="rgb(8,8,9)" stroke="rgb(8,8,9)" stroke-width="1" opacity="0.9882352941176471" d="M 133.5 51 L 135 54.5 L 134 54.5 L 133.5 51 Z " /><path fill="rgb(8,8,9)" stroke="rgb(8,8,9)" stroke-width="1" opacity="0.9882352941176471" d="M 162.5 55 L 166 57.5 L 164.5 60 L 165 58.5 L 163.5 56 L 161 57.5 L 162 59.5 L 160 58.5 L 162.5 55 Z " /><path fill="rgb(8,8,9)" stroke="rgb(8,8,9)" stroke-width="1" opacity="0.9882352941176471" d="M 53.5 63 L 54 128.5 L 53 128.5 L 53.5 63 Z " /><path fill="rgb(8,8,9)" stroke="rgb(8,8,9)" stroke-width="1" opacity="0.9882352941176471" d="M 118.5 95 L 119 100 Q 129.6 98.5 134 104.5 L 131.5 103 Q 126.6 99.7 118 101 L 118.5 95 Z " /><path fill="rgb(8,8,9)" stroke="rgb(8,8,9)" stroke-width="1" opacity="0.9882352941176471" d="M 147.5 95 L 147 96.5 L 146.5 111 L 146 96.5 L 147.5 95 Z " /><path fill="rgb(8,8,9)" stroke="rgb(8,8,9)" stroke-width="1" opacity="0.9882352941176471" d="M 162.5 99 L 166 101.5 L 163.5 105 L 160 102.5 L 162.5 99 Z M 163 100 L 161 103 L 164 104 L 165 102 L 163 100 Z " /><path fill="rgb(8,8,9)" stroke="rgb(8,8,9)" stroke-width="1" opacity="0.9882352941176471" d="M 71.5 102 L 70.5 104 L 71.5 102 Z " /><path fill="rgb(8,8,9)" stroke="rgb(8,8,9)" stroke-width="1" opacity="0.9882352941176471" d="M 75.5 103 L 78 103.5 Q 71.1 104.1 68.5 109 L 72.5 104 L 75.5 103 Z " /><path fill="rgb(8,8,9)" stroke="rgb(8,8,9)" stroke-width="1" opacity="0.9882352941176471" d="M 81.5 103 L 86 104.5 L 84.5 105 L 81.5 104 L 81.5 103 Z " /><path fill="rgb(8,8,9)" stroke="rgb(8,8,9)" stroke-width="1" opacity="0.9882352941176471" d="M 89.5 103 L 95 109.5 L 93 108.5 L 89.5 103 Z " /><path fill="rgb(8,8,9)" stroke="rgb(8,8,9)" stroke-width="1" opacity="0.9882352941176471" d="M 118.5 103 L 121 103.5 L 115.5 106 L 116.5 104 L 118.5 103 Z " /><path fill="rgb(8,8,9)" stroke="rgb(8,8,9)" stroke-width="1" opacity="0.9882352941176471" d="M 124.5 103 L 127 103.5 L 124.5 104 L 124.5 103 Z " /><path fill="rgb(8,8,9)" stroke="rgb(8,8,9)" stroke-width="1" opacity="0.9882352941176471" d="M 68.5 104 L 66 107.5 L 63.5 113 L 63 111.5 L 68.5 104 Z " /><path fill="rgb(8,8,9)" stroke="rgb(8,8,9)" stroke-width="1" opacity="0.9882352941176471" d="M 111.5 104 L 110.5 106 L 111.5 104 Z " /><path fill="rgb(8,8,9)" stroke="rgb(8,8,9)" stroke-width="1" opacity="0.9882352941176471" d="M 128.5 104 L 135 109.5 L 129.5 105 L 128.5 104 Z " /><path fill="rgb(8,8,9)" stroke="rgb(8,8,9)" stroke-width="1" opacity="0.9882352941176471" d="M 87.5 105 L 92 110.5 L 91 110.5 L 87.5 105 Z " /><path fill="rgb(8,8,9)" stroke="rgb(8,8,9)" stroke-width="1" opacity="0.9882352941176471" d="M 113.5 106 L 112 108.5 L 110.5 111 L 111 109.5 L 113.5 106 Z " /><path fill="rgb(8,8,9)" stroke="rgb(8,8,9)" stroke-width="1" opacity="0.9882352941176471" d="M 135.5 106 L 138 108.5 L 141 116.5 L 139 115.5 L 139 112.5 L 135.5 106 Z " /><path fill="rgb(8,8,9)" stroke="rgb(8,8,9)" stroke-width="1" opacity="0.9882352941176471" d="M 109.5 107 L 108 109.5 L 106.5 116 L 106 112.5 L 109.5 107 Z " /><path fill="rgb(8,8,9)" stroke="rgb(8,8,9)" stroke-width="1" opacity="0.9882352941176471" d="M 149.5 108 L 151 110.5 L 149 109.5 L 149.5 108 Z " /><path fill="rgb(8,8,9)" stroke="rgb(8,8,9)" stroke-width="1" opacity="0.9882352941176471" d="M 176.5 108 L 177 109.5 Q 176.5 112.5 172.5 112 L 172.5 111 L 176 109.5 L 176.5 108 Z " /><path fill="rgb(8,8,9)" stroke="rgb(8,8,9)" stroke-width="1" opacity="0.9882352941176471" d="M 102.5 109 L 104 111.5 L 100.5 114 L 99.5 112 L 101.5 113 L 103 110.5 L 102.5 109 Z " /><path fill="rgb(8,8,9)" stroke="rgb(8,8,9)" stroke-width="1" opacity="0.9882352941176471" d="M 67.5 110 L 67 111.5 L 65.5 121 L 65 113.5 L 67.5 110 Z " /><path fill="rgb(8,8,9)" stroke="rgb(8,8,9)" stroke-width="1" opacity="0.9882352941176471" d="M 95.5 111 L 96 113.5 L 95 113.5 L 95.5 111 Z " /><path fill="rgb(8,8,9)" stroke="rgb(8,8,9)" stroke-width="1" opacity="0.9882352941176471" d="M 135.5 111 L 137 114.5 L 136 114.5 L 135.5 111 Z " /><path fill="rgb(8,8,9)" stroke="rgb(8,8,9)" stroke-width="1" opacity="0.9882352941176471" d="M 145.5 113 L 146 114.5 L 143 116.5 L 145.5 113 Z " /><path fill="rgb(8,8,9)" stroke="rgb(8,8,9)" stroke-width="1" opacity="0.9882352941176471" d="M 93.5 114 L 94 120.5 L 92.5 123 L 92 121.5 L 93.5 114 Z " /><path fill="rgb(8,8,9)" stroke="rgb(8,8,9)" stroke-width="1" opacity="0.9882352941176471" d="M 62.5 116 L 63 118.5 L 62 118.5 L 62.5 116 Z " /><path fill="rgb(8,8,9)" stroke="rgb(8,8,9)" stroke-width="1" opacity="0.9882352941176471" d="M 38.5 117 L 42 118.5 L 41.5 121 L 41 118 Q 37.2 116.5 38 119.5 L 37 119.5 L 38.5 117 Z " /><path fill="rgb(8,8,9)" stroke="rgb(8,8,9)" stroke-width="1" opacity="0.9882352941176471" d="M 106.5 119 L 107 121.5 L 104.5 123 L 104.5 122 Q 107.4 122.7 106.5 119 Z " /><path fill="rgb(8,8,9)" stroke="rgb(8,8,9)" stroke-width="1" opacity="0.9882352941176471" d="M 96.5 122 L 99 122.5 L 96.5 123 L 96.5 122 Z " /><path fill="rgb(8,8,9)" stroke="rgb(8,8,9)" stroke-width="1" opacity="0.9882352941176471" d="M 56.5 123 L 60 127.5 L 56 124.5 L 56.5 123 Z " /><path fill="rgb(8,8,9)" stroke="rgb(8,8,9)" stroke-width="1" opacity="0.9882352941176471" d="M 135.5 123 L 135 124.5 L 130.5 130 L 127.5 131 L 127.5 130 L 134 125.5 L 135.5 123 Z " /><path fill="rgb(8,8,9)" stroke="rgb(8,8,9)" stroke-width="1" opacity="0.9882352941176471" d="M 67.5 124 L 68.5 126 L 67.5 124 Z " /><path fill="rgb(8,8,9)" stroke="rgb(8,8,9)" stroke-width="1" opacity="0.9882352941176471" d="M 110.5 124 L 115.5 130 L 110.5 124 Z " /><path fill="rgb(8,8,9)" stroke="rgb(8,8,9)" stroke-width="1" opacity="0.9882352941176471" d="M 108.5 125 L 109.5 127 L 108.5 125 Z " /><path fill="rgb(8,8,9)" stroke="rgb(8,8,9)" stroke-width="1" opacity="0.9882352941176471" d="M 90.5 126 L 88.5 129 L 90.5 126 Z " /><path fill="rgb(8,8,9)" stroke="rgb(8,8,9)" stroke-width="1" opacity="0.9882352941176471" d="M 64.5 127 L 63.5 129 L 61 128.5 L 64.5 127 Z " /><path fill="rgb(8,8,9)" stroke="rgb(8,8,9)" stroke-width="1" opacity="0.9882352941176471" d="M 69.5 127 L 73 129.5 L 71.5 129 L 69.5 127 Z " /><path fill="rgb(8,8,9)" stroke="rgb(8,8,9)" stroke-width="1" opacity="0.9882352941176471" d="M 92.5 127 L 89.5 131 L 92.5 127 Z " /><path fill="rgb(8,8,9)" stroke="rgb(8,8,9)" stroke-width="1" opacity="0.9882352941176471" d="M 137.5 128 L 138.5 130 L 137.5 128 Z " /><path fill="rgb(8,8,9)" stroke="rgb(8,8,9)" stroke-width="1" opacity="0.9882352941176471" d="M 56.5 129 L 59 129.5 L 55.5 131 L 56.5 129 Z " /><path fill="rgb(8,8,9)" stroke="rgb(8,8,9)" stroke-width="1" opacity="0.9882352941176471" d="M 134.5 129 L 137.5 133 L 133.5 131 Q 128.8 133.3 133 135.5 L 142 148.5 L 139 146.5 L 130 132 L 134.5 129 Z " /><path fill="rgb(8,8,9)" stroke="rgb(8,8,9)" stroke-width="1" opacity="0.9882352941176471" d="M 52.5 130 L 49.5 134 L 29.5 134 L 28 132.5 L 29.5 133 L 48.5 133 L 52.5 130 Z " /><path fill="rgb(8,8,9)" stroke="rgb(8,8,9)" stroke-width="1" opacity="0.9882352941176471" d="M 60.5 130 L 62 133.5 L 60 134.5 L 61 131.5 L 60.5 130 Z " /><path fill="rgb(8,8,9)" stroke="rgb(8,8,9)" stroke-width="1" opacity="0.9882352941176471" d="M 66.5 131 L 70 131.5 Q 65.3 131.3 64 134.5 L 61.5 138 L 63 135.5 L 66.5 131 Z " /><path fill="rgb(8,8,9)" stroke="rgb(8,8,9)" stroke-width="1" opacity="0.9882352941176471" d="M 77.5 131 L 83 131.5 L 77.5 132 L 77.5 131 Z " /><path fill="rgb(8,8,9)" stroke="rgb(8,8,9)" stroke-width="1" opacity="0.9882352941176471" d="M 120.5 131 L 126 131.5 L 120.5 132 L 120.5 131 Z " /><path fill="rgb(8,8,9)" stroke="rgb(8,8,9)" stroke-width="1" opacity="0.9882352941176471" d="M 139.5 131 L 140.5 133 L 139.5 131 Z " /><path fill="rgb(8,8,9)" stroke="rgb(8,8,9)" stroke-width="1" opacity="0.9882352941176471" d="M 71.5 132 L 72 134.5 L 41.5 177 L 42 175.5 L 71 134.5 L 71.5 132 Z " /><path fill="rgb(8,8,9)" stroke="rgb(8,8,9)" stroke-width="1" opacity="0.9882352941176471" d="M 74.5 134 L 72.5 137 L 74.5 134 Z " /><path fill="rgb(8,8,9)" stroke="rgb(8,8,9)" stroke-width="1" opacity="0.9882352941176471" d="M 127.5 134 L 129.5 137 L 127.5 134 Z " /><path fill="rgb(8,8,9)" stroke="rgb(8,8,9)" stroke-width="1" opacity="0.9882352941176471" d="M 138.5 134 L 152 152.5 L 149 150.5 L 139 136.5 L 138.5 134 Z " /><path fill="rgb(8,8,9)" stroke="rgb(8,8,9)" stroke-width="1" opacity="0.9882352941176471" d="M 30.5 135 L 49 135.5 L 30.5 136 L 30.5 135 Z " /><path fill="rgb(8,8,9)" stroke="rgb(8,8,9)" stroke-width="1" opacity="0.9882352941176471" d="M 71.5 138 L 70.5 140 L 71.5 138 Z " /><path fill="rgb(8,8,9)" stroke="rgb(8,8,9)" stroke-width="1" opacity="0.9882352941176471" d="M 144.5 138 L 145.5 140 L 144.5 138 Z " /><path fill="rgb(8,8,9)" stroke="rgb(8,8,9)" stroke-width="1" opacity="0.9882352941176471" d="M 60.5 139 L 59 141.5 L 56.5 145 L 57 143.5 L 60.5 139 Z " /><path fill="rgb(8,8,9)" stroke="rgb(8,8,9)" stroke-width="1" opacity="0.9882352941176471" d="M 69.5 141 L 68.5 143 L 69.5 141 Z " /><path fill="rgb(8,8,9)" stroke="rgb(8,8,9)" stroke-width="1" opacity="0.9882352941176471" d="M 133.5 142 L 134.5 144 L 133.5 142 Z " /><path fill="rgb(8,8,9)" stroke="rgb(8,8,9)" stroke-width="1" opacity="0.9882352941176471" d="M 54.5 143 L 53.5 145 L 54.5 143 Z " /><path fill="rgb(8,8,9)" stroke="rgb(8,8,9)" stroke-width="1" opacity="0.9882352941176471" d="M 67.5 144 L 66 146.5 L 63.5 150 L 65 147.5 L 67.5 144 Z " /><path fill="rgb(8,8,9)" stroke="rgb(8,8,9)" stroke-width="1" opacity="0.9882352941176471" d="M 55.5 146 L 54 148.5 L 38 171.5 L 37 175.5 L 37.5 177 Q 35.3 176.3 36 172.5 L 55.5 146 Z " /><path fill="rgb(8,8,9)" stroke="rgb(8,8,9)" stroke-width="1" opacity="0.9882352941176471" d="M 151.5 148 L 152.5 150 L 151.5 148 Z " /><path fill="rgb(8,8,9)" stroke="rgb(8,8,9)" stroke-width="1" opacity="0.9882352941176471" d="M 49.5 150 L 48.5 152 L 49.5 150 Z " /><path fill="rgb(8,8,9)" stroke="rgb(8,8,9)" stroke-width="1" opacity="0.9882352941176471" d="M 142.5 150 L 149 158.5 L 145 155.5 L 142.5 150 Z " /><path fill="rgb(8,8,9)" stroke="rgb(8,8,9)" stroke-width="1" opacity="0.9882352941176471" d="M 62.5 151 L 61.5 153 L 62.5 151 Z " /><path fill="rgb(8,8,9)" stroke="rgb(8,8,9)" stroke-width="1" opacity="0.9882352941176471" d="M 140.5 152 L 141.5 154 L 140.5 152 Z " /><path fill="rgb(8,8,9)" stroke="rgb(8,8,9)" stroke-width="1" opacity="0.9882352941176471" d="M 60.5 154 L 58.5 157 L 60.5 154 Z " /><path fill="rgb(8,8,9)" stroke="rgb(8,8,9)" stroke-width="1" opacity="0.9882352941176471" d="M 152.5 154 L 166 172.5 L 166 177 L 162.5 178 L 160 177 L 149 160.5 L 152 162.5 L 162.5 177 L 165 175.5 L 165 172.5 L 153 156.5 L 152.5 154 Z " /><path fill="rgb(8,8,9)" stroke="rgb(8,8,9)" stroke-width="1" opacity="0.9882352941176471" d="M 57.5 158 L 56.5 160 L 57.5 158 Z " /><path fill="rgb(8,8,9)" stroke="rgb(8,8,9)" stroke-width="1" opacity="0.9882352941176471" d="M 158.5 158 L 159.5 160 L 158.5 158 Z " /><path fill="rgb(8,8,9)" stroke="rgb(8,8,9)" stroke-width="1" opacity="0.9882352941176471" d="M 145.5 159 L 146.5 161 L 145.5 159 Z " /><path fill="rgb(8,8,9)" stroke="rgb(8,8,9)" stroke-width="1" opacity="0.9882352941176471" d="M 42.5 160 L 41.5 162 L 42.5 160 Z " /><path fill="rgb(8,8,9)" stroke="rgb(8,8,9)" stroke-width="1" opacity="0.9882352941176471" d="M 52.5 165 L 51.5 167 L 52.5 165 Z " /><path fill="rgb(8,8,9)" stroke="rgb(8,8,9)" stroke-width="1" opacity="0.9882352941176471" d="M 150.5 166 L 151.5 168 L 150.5 166 Z " /><path fill="rgb(8,8,9)" stroke="rgb(8,8,9)" stroke-width="1" opacity="0.9882352941176471" d="M 152.5 169 L 153.5 171 L 152.5 169 Z " /><path fill="rgb(8,8,9)" stroke="rgb(8,8,9)" stroke-width="1" opacity="0.9882352941176471" d="M 35.5 170 L 34.5 172 L 35.5 170 Z " /><path fill="rgb(8,8,9)" stroke="rgb(8,8,9)" stroke-width="1" opacity="0.9882352941176471" d="M 154.5 172 L 156.5 175 L 154.5 172 Z " /><path fill="rgb(8,8,9)" stroke="rgb(8,8,9)" stroke-width="1" opacity="0.9882352941176471" d="M 45.5 175 L 43.5 178 L 45.5 175 Z " /><path fill="rgb(8,8,9)" stroke="rgb(8,8,9)" stroke-width="1" opacity="0.9882352941176471" d="M 157.5 176 L 160.5 180 L 157.5 176 Z " /><path fill="rgb(8,8,9)" stroke="rgb(8,8,9)" stroke-width="1" opacity="0.9882352941176471" d="M 34.5 177 L 35.5 179 L 34.5 177 Z " /><path fill="rgb(8,8,9)" stroke="rgb(8,8,9)" stroke-width="1" opacity="0.9882352941176471" d="M 167.5 177 L 165.5 180 L 167.5 177 Z " /><path fill="rgb(233,144,179)" stroke="rgb(233,144,179)" stroke-width="1" opacity="0.996078431372549" d="M 60.5 33 L 79.5 33 L 82 34.5 L 80.5 35 L 79.5 34 L 60.5 34 L 58 35.5 L 60.5 33 Z " /><path fill="rgb(233,144,179)" stroke="rgb(233,144,179)" stroke-width="1" opacity="0.996078431372549" d="M 82.5 36 L 83 99 L 75.5 99 L 67 103 L 62 110.5 L 61 120.5 L 63 127 L 58 124.5 L 58.5 107 L 59 123.5 L 60.5 125 L 61 123.5 L 60 122.5 L 60 112.5 L 66.5 102 L 73.5 98 Q 80.3 99.8 82 96.5 L 82.5 36 Z " /><path fill="rgb(233,144,179)" stroke="rgb(233,144,179)" stroke-width="1" opacity="0.996078431372549" d="M 68.5 40 L 72 40.5 L 67 42.5 Q 66 47 68.5 48 Q 73.3 48.8 74 45.5 L 73 42.5 L 75 43.5 L 74 48 L 68.5 49 Q 65 48 66 42.5 L 68.5 40 Z " /><path fill="rgb(233,144,179)" stroke="rgb(233,144,179)" stroke-width="1" opacity="0.996078431372549" d="M 57.5 55 L 58 56.5 L 55.5 58 L 55.5 57 Q 58 57.7 57.5 55 Z " /><path fill="rgb(233,144,179)" stroke="rgb(233,144,179)" stroke-width="1" opacity="0.996078431372549" d="M 56.5 61 L 58 63.5 L 57 63.5 L 56.5 61 Z " /><path fill="rgb(233,144,179)" stroke="rgb(233,144,179)" stroke-width="1" opacity="0.996078431372549" d="M 129.5 106 L 131.5 109 L 129.5 106 Z " /><path fill="rgb(233,144,179)" stroke="rgb(233,144,179)" stroke-width="1" opacity="0.996078431372549" d="M 87.5 107 L 88.5 109 L 87.5 107 Z " /><path fill="rgb(233,144,179)" stroke="rgb(233,144,179)" stroke-width="1" opacity="0.996078431372549" d="M 110.5 116 L 111 118.5 L 110 118.5 L 110.5 116 Z " /><path fill="rgb(233,144,179)" stroke="rgb(233,144,179)" stroke-width="1" opacity="0.996078431372549" d="M 112.5 124 L 113.5 126 L 112.5 124 Z " /><path fill="rgb(233,144,179)" stroke="rgb(233,144,179)" stroke-width="1" opacity="0.996078431372549" d="M 132.5 125 L 131.5 127 L 132.5 125 Z " /><path fill="rgb(233,144,179)" stroke="rgb(233,144,179)" stroke-width="1" opacity="0.996078431372549" d="M 76.5 129 L 79 129.5 L 76.5 130 L 76.5 129 Z " /><path fill="rgb(233,144,179)" stroke="rgb(233,144,179)" stroke-width="1" opacity="0.996078431372549" d="M 80.5 129 L 83 129.5 L 80.5 130 L 80.5 129 Z " /><path fill="rgb(233,144,179)" stroke="rgb(233,144,179)" stroke-width="1" opacity="0.996078431372549" d="M 119.5 129 L 122 129.5 L 119.5 130 L 119.5 129 Z " /><path fill="rgb(16,16,16)" stroke="rgb(16,16,16)" stroke-width="1" opacity="0.7803921568627451" d="M 26.5 24 L 28 24.5 L 24.5 27 L 26.5 24 Z " /><path fill="rgb(16,16,16)" stroke="rgb(16,16,16)" stroke-width="1" opacity="0.7803921568627451" d="M 53.5 25 L 54.5 27 L 53.5 25 Z " /><path fill="rgb(16,16,16)" stroke="rgb(16,16,16)" stroke-width="1" opacity="0.7803921568627451" d="M 60.5 28 L 80.5 28 L 81 30 L 59 29.5 L 60.5 28 Z " /><path fill="rgb(16,16,16)" stroke="rgb(16,16,16)" stroke-width="1" opacity="0.7803921568627451" d="M 83.5 30 L 85.5 33 L 83.5 30 Z " /><path fill="rgb(16,16,16)" stroke="rgb(16,16,16)" stroke-width="1" opacity="0.7803921568627451" d="M 113.5 34 L 114 36 L 116 36.5 L 114.5 37 L 113.5 34 Z " /><path fill="rgb(16,16,16)" stroke="rgb(16,16,16)" stroke-width="1" opacity="0.7803921568627451" d="M 116.5 38 Q 119.1 37.3 118 40 L 120.5 40 L 121.5 39 L 142.5 39 L 142.5 40 L 121.5 40 L 118.5 41 L 116.5 38 Z " /><path fill="rgb(16,16,16)" stroke="rgb(16,16,16)" stroke-width="1" opacity="0.7803921568627451" d="M 145.5 41 L 147.5 44 L 145.5 41 Z " /><path fill="rgb(16,16,16)" stroke="rgb(16,16,16)" stroke-width="1" opacity="0.7803921568627451" d="M 177.5 47 L 178.5 49 L 177.5 47 Z " /><path fill="rgb(16,16,16)" stroke="rgb(16,16,16)" stroke-width="1" opacity="0.7803921568627451" d="M 179.5 108 L 180 109.5 L 177.5 113 L 175.5 114 L 176.5 112 Q 178.8 112.8 178 110.5 L 179.5 108 Z " /><path fill="rgb(16,16,16)" stroke="rgb(16,16,16)" stroke-width="1" opacity="0.7803921568627451" d="M 152.5 114 L 174 114.5 L 172.5 116 L 153.5 116 L 152.5 114 Z " /><path fill="rgb(16,16,16)" stroke="rgb(16,16,16)" stroke-width="1" opacity="0.7803921568627451" d="M 147.5 116 L 145.5 119 L 147.5 116 Z " /><path fill="rgb(16,16,16)" stroke="rgb(16,16,16)" stroke-width="1" opacity="0.7803921568627451" d="M 138.5 123 L 138 124.5 L 137.5 126 L 137 124.5 L 138.5 123 Z " /><path fill="rgb(16,16,16)" stroke="rgb(16,16,16)" stroke-width="1" opacity="0.7803921568627451" d="M 94.5 125 L 107.5 125 L 114 131.5 L 107.5 126 L 94.5 126 L 93.5 127 L 94.5 125 Z " /><path fill="rgb(16,16,16)" stroke="rgb(16,16,16)" stroke-width="1" opacity="0.7803921568627451" d="M 23.5 131 L 26.5 135 L 23.5 131 Z " /><path fill="rgb(16,16,16)" stroke="rgb(16,16,16)" stroke-width="1" opacity="0.7803921568627451" d="M 55.5 131 L 52.5 135 L 55.5 131 Z " /><path fill="rgb(16,16,16)" stroke="rgb(16,16,16)" stroke-width="1" opacity="0.7803921568627451" d="M 141.5 133 L 142.5 135 L 141.5 133 Z " /><path fill="rgb(16,16,16)" stroke="rgb(16,16,16)" stroke-width="1" opacity="0.7803921568627451" d="M 28.5 135 L 30.5 136 L 48.5 136 L 50 135.5 L 49.5 137 L 29.5 137 L 28.5 135 Z " /><path fill="rgb(16,16,16)" stroke="rgb(16,16,16)" stroke-width="1" opacity="0.7803921568627451" d="M 59.5 135 L 58.5 137 L 59.5 135 Z " /><path fill="rgb(16,16,16)" stroke="rgb(16,16,16)" stroke-width="1" opacity="0.7803921568627451" d="M 143.5 136 L 144.5 138 L 143.5 136 Z " /><path fill="rgb(16,16,16)" stroke="rgb(16,16,16)" stroke-width="1" opacity="0.7803921568627451" d="M 129.5 137 L 130.5 139 L 129.5 137 Z " /><path fill="rgb(16,16,16)" stroke="rgb(16,16,16)" stroke-width="1" opacity="0.7803921568627451" d="M 57.5 138 L 56 140.5 L 53.5 144 L 55 141.5 L 57.5 138 Z " /><path fill="rgb(16,16,16)" stroke="rgb(16,16,16)" stroke-width="1" opacity="0.7803921568627451" d="M 71.5 139 L 70.5 141 L 71.5 139 Z " /><path fill="rgb(16,16,16)" stroke="rgb(16,16,16)" stroke-width="1" opacity="0.7803921568627451" d="M 146.5 140 L 147.5 142 L 146.5 140 Z " /><path fill="rgb(16,16,16)" stroke="rgb(16,16,16)" stroke-width="1" opacity="0.7803921568627451" d="M 134.5 144 L 135.5 146 L 134.5 144 Z " /><path fill="rgb(16,16,16)" stroke="rgb(16,16,16)" stroke-width="1" opacity="0.7803921568627451" d="M 52.5 145 L 51.5 147 L 52.5 145 Z " /><path fill="rgb(16,16,16)" stroke="rgb(16,16,16)" stroke-width="1" opacity="0.7803921568627451" d="M 150.5 146 L 151.5 148 L 150.5 146 Z " /><path fill="rgb(16,16,16)" stroke="rgb(16,16,16)" stroke-width="1" opacity="0.7803921568627451" d="M 50.5 148 L 48.5 151 L 50.5 148 Z " /><path fill="rgb(16,16,16)" stroke="rgb(16,16,16)" stroke-width="1" opacity="0.7803921568627451" d="M 64.5 149 L 63.5 151 L 64.5 149 Z " /><path fill="rgb(16,16,16)" stroke="rgb(16,16,16)" stroke-width="1" opacity="0.7803921568627451" d="M 153.5 150 L 154.5 152 L 153.5 150 Z " /><path fill="rgb(16,16,16)" stroke="rgb(16,16,16)" stroke-width="1" opacity="0.7803921568627451" d="M 47.5 152 L 46.5 154 L 47.5 152 Z " /><path fill="rgb(16,16,16)" stroke="rgb(16,16,16)" stroke-width="1" opacity="0.7803921568627451" d="M 155.5 153 L 156.5 155 L 155.5 153 Z " /><path fill="rgb(16,16,16)" stroke="rgb(16,16,16)" stroke-width="1" opacity="0.7803921568627451" d="M 141.5 154 L 142.5 156 L 141.5 154 Z " /><path fill="rgb(16,16,16)" stroke="rgb(16,16,16)" stroke-width="1" opacity="0.7803921568627451" d="M 59.5 156 L 58.5 158 L 59.5 156 Z " /><path fill="rgb(16,16,16)" stroke="rgb(16,16,16)" stroke-width="1" opacity="0.7803921568627451" d="M 157.5 156 L 159.5 159 L 157.5 156 Z " /><path fill="rgb(16,16,16)" stroke="rgb(16,16,16)" stroke-width="1" opacity="0.7803921568627451" d="M 43.5 158 L 42.5 160 L 43.5 158 Z " /><path fill="rgb(16,16,16)" stroke="rgb(16,16,16)" stroke-width="1" opacity="0.7803921568627451" d="M 146.5 161 L 147.5 163 L 146.5 161 Z " /><path fill="rgb(16,16,16)" stroke="rgb(16,16,16)" stroke-width="1" opacity="0.7803921568627451" d="M 54.5 163 L 53.5 165 L 54.5 163 Z " /><path fill="rgb(16,16,16)" stroke="rgb(16,16,16)" stroke-width="1" opacity="0.7803921568627451" d="M 162.5 163 L 167 168.5 L 164 166.5 L 162.5 163 Z " /><path fill="rgb(16,16,16)" stroke="rgb(16,16,16)" stroke-width="1" opacity="0.7803921568627451" d="M 148.5 164 L 149.5 166 L 148.5 164 Z " /><path fill="rgb(16,16,16)" stroke="rgb(16,16,16)" stroke-width="1" opacity="0.7803921568627451" d="M 38.5 165 L 37.5 167 L 38.5 165 Z " /><path fill="rgb(16,16,16)" stroke="rgb(16,16,16)" stroke-width="1" opacity="0.7803921568627451" d="M 52.5 166 L 51 168.5 L 48.5 172 L 50 169.5 L 52.5 166 Z " /><path fill="rgb(16,16,16)" stroke="rgb(16,16,16)" stroke-width="1" opacity="0.7803921568627451" d="M 36.5 168 L 34.5 171 L 36.5 168 Z " /><path fill="rgb(16,16,16)" stroke="rgb(16,16,16)" stroke-width="1" opacity="0.7803921568627451" d="M 167.5 170 Q 171.3 171.5 170 177 L 168 176.5 L 169 173.5 L 167.5 170 Z " /><path fill="rgb(16,16,16)" stroke="rgb(16,16,16)" stroke-width="1" opacity="0.7803921568627451" d="M 33.5 172 L 34 176.5 L 33 176.5 L 33.5 172 Z " /><path fill="rgb(16,16,16)" stroke="rgb(16,16,16)" stroke-width="1" opacity="0.7803921568627451" d="M 47.5 173 L 46.5 175 L 47.5 173 Z " /><path fill="rgb(16,16,16)" stroke="rgb(16,16,16)" stroke-width="1" opacity="0.7803921568627451" d="M 155.5 174 L 156.5 176 L 155.5 174 Z " /><path fill="rgb(16,16,16)" stroke="rgb(16,16,16)" stroke-width="1" opacity="0.7803921568627451" d="M 45.5 176 L 42.5 180 L 45.5 176 Z " /><path fill="rgb(16,16,16)" stroke="rgb(16,16,16)" stroke-width="1" opacity="0.7803921568627451" d="M 167.5 178 L 166.5 180 L 167.5 178 Z " /><path fill="rgb(0,0,0)" stroke="rgb(0,0,0)" stroke-width="1" opacity="0" d="M 0 0 L 200 0 L 200 200 L 0 200 L 0 0 Z M 27 22 L 20 28 L 20 131 L 22 134 L 28 138 L 53 138 L 58 134 L 49 146 Q 50 149 48 148 L 43 156 L 41 157 L 32 170 L 33 173 L 32 179 Q 34 184 44 182 L 57 164 L 60 162 L 62 157 L 71 145 Q 70 142 73 143 L 77 136 Q 86 137 92 133 L 95 129 L 97 127 L 106 127 L 109 132 L 119 136 L 125 136 L 130 142 L 140 158 L 159 182 L 168 182 L 170 180 L 170 170 L 160 156 Q 161 153 158 154 L 140 127 L 141 124 L 148 121 L 150 116 L 177 116 L 181 113 L 183 108 L 183 52 L 181 48 L 176 43 L 151 43 L 146 38 L 119 38 L 118 37 L 113 32 L 89 32 L 88 31 L 85 28 L 59 28 L 57 26 L 52 22 L 27 22 Z " /><path fill="rgb(76,152,229)" stroke="rgb(76,152,229)" stroke-width="1" opacity="1" d="M 29.5 28 L 49.5 28 L 52 30.5 L 52 55.5 Q 55.5 56 55 60.5 L 52 63.5 L 52 128.5 L 51 131 L 48.5 132 L 29.5 132 L 27 129.5 L 27 30.5 L 29.5 28 Z M 39 36 L 38 37 L 36 38 L 36 43 L 41 44 Q 44 43 43 39 Q 43 35 39 36 Z M 39 116 L 38 117 L 36 118 L 36 123 L 41 124 Q 44 123 43 119 Q 43 115 39 116 Z " /><path fill="rgb(254,154,190)" stroke="rgb(254,154,190)" stroke-width="1" opacity="1" d="M 60.5 34 L 79.5 34 L 82 35 L 82 96.5 L 80.5 98 L 73.5 98 L 64 104.5 L 60 112.5 L 60 122.5 L 61 124.5 L 59 123.5 L 59 107.5 L 58 106.5 L 58 62.5 L 56.5 61 Q 53.5 61.7 55 58 L 58 56.5 L 58 36.5 L 60.5 34 Z M 69 40 L 66 43 Q 65 48 69 49 L 74 48 L 75 44 Q 74 39 69 40 Z " /><path fill="rgb(243,159,116)" stroke="rgb(243,159,116)" stroke-width="1" opacity="1" d="M 57.5 36 L 58 54.5 L 57 54.5 L 57.5 36 Z " /><path fill="rgb(243,159,116)" stroke="rgb(243,159,116)" stroke-width="1" opacity="1" d="M 91.5 38 L 110.5 38 L 114 40.5 L 114 101.5 L 112.5 103 L 108 106.5 Q 103.8 111.6 105 121 L 97.5 121 L 97 119.5 L 98 116.5 Q 96.2 105.3 88 100.5 L 88 41.5 L 89 39 L 91.5 38 Z M 100 46 L 98 48 Q 97 51 100 52 Q 104 53 105 50 L 104 48 Q 105 44 100 46 Z M 100 108 L 98 110 Q 97 113 100 114 Q 104 115 105 112 L 104 110 Q 105 106 100 108 Z " /><path fill="rgb(243,159,116)" stroke="rgb(243,159,116)" stroke-width="1" opacity="1" d="M 121.5 44 L 142.5 44 L 145 46.5 L 145 88.5 Q 147.8 89.3 147 93.5 L 145 95.5 Q 147.2 108.7 142.5 115 Q 139.9 115.8 141 112.5 Q 138.8 105.8 133.5 102 Q 128.4 97.8 119 99 L 119 47.5 L 121.5 44 Z M 131 50 L 128 53 L 129 56 Q 130 58 134 57 L 136 53 Q 135 49 131 50 Z " /><path fill="rgb(243,159,116)" stroke="rgb(243,159,116)" stroke-width="1" opacity="1" d="M 67.5 46 L 68.5 48 L 67.5 46 Z " /><path fill="rgb(243,159,116)" stroke="rgb(243,159,116)" stroke-width="1" opacity="1" d="M 57.5 64 L 58 121.5 L 57 121.5 L 57.5 64 Z " /><path fill="rgb(243,159,116)" stroke="rgb(243,159,116)" stroke-width="1" opacity="1" d="M 61.5 113 L 62 115.5 L 61 115.5 L 61.5 113 Z " /><path fill="rgb(75,150,147)" stroke="rgb(75,150,147)" stroke-width="1" opacity="0.996078431372549" d="M 29.5 27 L 49 27.5 L 29.5 28 L 27.5 30 L 29.5 27 Z " /><path fill="rgb(75,150,147)" stroke="rgb(75,150,147)" stroke-width="1" opacity="0.996078431372549" d="M 50.5 28 L 51.5 30 L 50.5 28 Z " /><path fill="rgb(75,150,147)" stroke="rgb(75,150,147)" stroke-width="1" opacity="0.996078431372549" d="M 26.5 31 L 27 128.5 L 26 128.5 L 26.5 31 Z " /><path fill="rgb(75,150,147)" stroke="rgb(75,150,147)" stroke-width="1" opacity="0.996078431372549" d="M 38.5 36 Q 42.5 35.5 43 38.5 Q 43.8 43.3 40.5 44 L 38 43.5 L 42 41.5 Q 42.8 37.8 40.5 37 Q 37.5 37.5 38.5 36 Z " /><path fill="rgb(75,150,147)" stroke="rgb(75,150,147)" stroke-width="1" opacity="0.996078431372549" d="M 68.5 41 L 67.5 43 L 68.5 41 Z " /><path fill="rgb(75,150,147)" stroke="rgb(75,150,147)" stroke-width="1" opacity="0.996078431372549" d="M 152.5 49 L 173.5 49 L 175 50.5 L 176 52.5 L 176 107.5 L 173.5 111 L 152.5 111 L 151 109.5 L 150 107.5 L 150 96.5 Q 146 95.1 147 90 L 150 88.5 L 150 52.5 L 152.5 49 Z M 163 54 Q 159 55 160 60 Q 161 62 165 61 Q 167 60 166 57 L 163 54 Z M 162 99 Q 159 100 160 104 Q 161 106 165 105 Q 167 104 166 101 Q 165 98 162 99 Z " /><path fill="rgb(75,150,147)" stroke="rgb(75,150,147)" stroke-width="1" opacity="0.996078431372549" d="M 76.5 104 L 79 104.5 L 76.5 105 L 76.5 104 Z " /><path fill="rgb(75,150,147)" stroke="rgb(75,150,147)" stroke-width="1" opacity="0.996078431372549" d="M 80.5 104 L 83 104.5 L 80.5 105 L 80.5 104 Z " /><path fill="rgb(75,150,147)" stroke="rgb(75,150,147)" stroke-width="1" opacity="0.996078431372549" d="M 123.5 104 L 126 104.5 L 123.5 105 L 123.5 104 Z " /><path fill="rgb(75,150,147)" stroke="rgb(75,150,147)" stroke-width="1" opacity="0.996078431372549" d="M 73.5 105 L 75 105.5 L 68.5 111 L 73.5 105 Z " /><path fill="rgb(75,150,147)" stroke="rgb(75,150,147)" stroke-width="1" opacity="0.996078431372549" d="M 84.5 105 L 87 106.5 L 85.5 106 L 84.5 105 Z " /><path fill="rgb(75,150,147)" stroke="rgb(75,150,147)" stroke-width="1" opacity="0.996078431372549" d="M 115.5 106 L 112.5 110 L 115.5 106 Z " /><path fill="rgb(75,150,147)" stroke="rgb(75,150,147)" stroke-width="1" opacity="0.996078431372549" d="M 130.5 106 L 132.5 109 L 130.5 106 Z " /><path fill="rgb(75,150,147)" stroke="rgb(75,150,147)" stroke-width="1" opacity="0.996078431372549" d="M 89.5 109 L 90.5 111 L 89.5 109 Z " /><path fill="rgb(75,150,147)" stroke="rgb(75,150,147)" stroke-width="1" opacity="0.996078431372549" d="M 133.5 110 L 134.5 112 L 133.5 110 Z " /><path fill="rgb(75,150,147)" stroke="rgb(75,150,147)" stroke-width="1" opacity="0.996078431372549" d="M 110.5 113 L 111 115.5 L 110 115.5 L 110.5 113 Z " /><path fill="rgb(75,150,147)" stroke="rgb(75,150,147)" stroke-width="1" opacity="0.996078431372549" d="M 135.5 114 L 136 120.5 L 135 120.5 L 135.5 114 Z " /><path fill="rgb(75,150,147)" stroke="rgb(75,150,147)" stroke-width="1" opacity="0.996078431372549" d="M 66.5 115 L 67 118.5 L 66 118.5 L 66.5 115 Z " /><path fill="rgb(75,150,147)" stroke="rgb(75,150,147)" stroke-width="1" opacity="0.996078431372549" d="M 92.5 115 L 93 119.5 L 92 119.5 L 92.5 115 Z " /><path fill="rgb(75,150,147)" stroke="rgb(75,150,147)" stroke-width="1" opacity="0.996078431372549" d="M 38.5 116 Q 42.5 115.5 43 118.5 Q 43.8 123.3 40.5 124 L 38 123.5 L 42 121.5 Q 42.8 117.8 40.5 117 Q 37.5 117.5 38.5 116 Z " /><path fill="rgb(75,150,147)" stroke="rgb(75,150,147)" stroke-width="1" opacity="0.996078431372549" d="M 110.5 119 L 111 121.5 L 110 121.5 L 110.5 119 Z " /><path fill="rgb(75,150,147)" stroke="rgb(75,150,147)" stroke-width="1" opacity="0.996078431372549" d="M 67.5 122 L 72 127.5 L 68 124.5 L 67.5 122 Z " /><path fill="rgb(75,150,147)" stroke="rgb(75,150,147)" stroke-width="1" opacity="0.996078431372549" d="M 90.5 124 L 87.5 128 L 90.5 124 Z " /><path fill="rgb(75,150,147)" stroke="rgb(75,150,147)" stroke-width="1" opacity="0.996078431372549" d="M 113.5 126 L 114.5 128 L 113.5 126 Z " /><path fill="rgb(75,150,147)" stroke="rgb(75,150,147)" stroke-width="1" opacity="0.996078431372549" d="M 130.5 127 L 129.5 129 L 126.5 130 L 126.5 129 L 130.5 127 Z " /><path fill="rgb(75,150,147)" stroke="rgb(75,150,147)" stroke-width="1" opacity="0.996078431372549" d="M 73.5 128 L 76 129.5 L 74.5 130 L 73.5 128 Z " /><path fill="rgb(75,150,147)" stroke="rgb(75,150,147)" stroke-width="1" opacity="0.996078431372549" d="M 85.5 128 L 84.5 130 L 83 129.5 L 85.5 128 Z " /><path fill="rgb(75,150,147)" stroke="rgb(75,150,147)" stroke-width="1" opacity="0.996078431372549" d="M 51.5 129 L 52 130.5 L 49.5 132 L 49.5 131 Q 52 131.7 51.5 129 Z " /><path fill="rgb(75,150,147)" stroke="rgb(75,150,147)" stroke-width="1" opacity="0.996078431372549" d="M 27.5 130 L 28.5 132 L 27.5 130 Z " /><path fill="rgb(75,150,147)" stroke="rgb(75,150,147)" stroke-width="1" opacity="0.996078431372549" d="M 77.5 130 L 82 130.5 L 77.5 131 L 77.5 130 Z " /><path fill="rgb(75,150,147)" stroke="rgb(75,150,147)" stroke-width="1" opacity="0.996078431372549" d="M 121.5 130 L 125 130.5 L 121.5 131 L 121.5 130 Z " /><path fill="rgb(75,150,147)" stroke="rgb(75,150,147)" stroke-width="1" opacity="0.996078431372549" d="M 134.5 132 L 163 171.5 L 164 175 L 159 171.5 L 133 133.5 L 134.5 132 Z " /><path fill="rgb(75,150,147)" stroke="rgb(75,150,147)" stroke-width="1" opacity="0.996078431372549" d="M 67.5 133 Q 69.8 132.3 69 134.5 L 40.5 175 L 38 174.5 L 67.5 133 Z " /><path fill="rgb(0,0,0)" stroke="rgb(0,0,0)" stroke-width="1" opacity="0.996078431372549" d="M 29.5 24 L 49.5 24 L 55 28.5 L 55.5 30 L 82.5 30 L 87.5 36 L 90.5 35 L 112.5 35 L 116 37 L 117 41 L 143.5 41 L 147 43.5 L 149.5 47 L 151.5 46 L 174.5 46 L 179 51.5 L 179 108.5 L 178 112 L 174.5 114 L 151.5 114 L 149.5 113 L 145.5 118 L 139 120 Q 136.4 122.3 137 128.5 L 166 168.5 L 169 175.5 L 164.5 180 L 161.5 180 L 127.5 134 Q 114.8 134.7 110 127.5 L 108.5 125 L 94.5 125 L 88.5 131 Q 84.1 135.1 74.5 134 L 72 136.5 L 43 179 L 38.5 180 L 34 176.5 L 34 172.5 L 62 133.5 L 62 131.5 L 56.5 129 L 52.5 134 L 50.5 135 L 27.5 135 L 23 129.5 L 23 30.5 L 26.5 25 L 29.5 24 Z M 30 26 L 28 27 L 25 30 L 25 130 L 30 134 L 50 134 L 54 129 L 54 63 L 56 64 L 56 125 L 62 129 L 65 128 Q 66 123 63 122 L 63 114 L 66 108 L 73 102 L 84 101 L 85 100 L 85 37 L 84 35 L 79 31 L 62 31 L 56 35 L 56 55 L 54 55 L 54 32 L 53 29 L 50 26 L 30 26 Z M 90 37 L 87 41 L 87 102 L 95 111 L 96 123 L 106 123 L 107 122 L 106 119 Q 106 111 110 107 L 114 104 L 116 101 L 116 44 L 115 40 L 113 37 L 90 37 Z M 122 42 L 118 46 L 118 101 L 127 101 L 135 105 L 139 113 L 139 116 Q 140 118 144 117 L 146 115 L 147 111 L 147 96 L 149 97 L 149 110 L 153 112 L 175 112 L 177 110 L 177 51 L 175 48 L 171 47 L 155 47 L 149 51 L 149 88 L 147 88 L 147 49 L 146 46 L 143 42 L 122 42 Z M 76 103 L 73 104 L 65 114 L 65 121 L 69 128 L 78 132 L 83 132 L 89 129 L 94 121 L 94 115 L 92 110 L 84 103 L 76 103 Z M 119 103 L 114 106 L 109 113 L 110 125 Q 113 130 121 132 Q 127 133 131 130 L 137 122 Q 139 113 135 110 Q 132 101 119 103 Z M 135 129 L 130 132 L 131 136 L 149 160 L 160 177 L 163 178 L 166 177 L 166 173 L 135 129 Z M 67 131 L 36 173 L 36 176 L 40 178 L 42 177 L 70 138 L 72 132 L 67 131 Z " /><path fill="rgb(0,0,0)" stroke="rgb(0,0,0)" stroke-width="1" opacity="0.996078431372549" d="M 38 38 Q 42.9 36.4 41 42 Q 36.1 43.6 38 38 Z " /><path fill="rgb(0,0,0)" stroke="rgb(0,0,0)" stroke-width="1" opacity="0.996078431372549" d="M 69 43 Q 73.5 41.5 72 46 Q 67.5 47.5 69 43 Z " /><path fill="rgb(0,0,0)" stroke="rgb(0,0,0)" stroke-width="1" opacity="0.996078431372549" d="M 100.5 47 L 103 48.5 L 101.5 51 L 99 49.5 L 100.5 47 Z " /><path fill="rgb(0,0,0)" stroke="rgb(0,0,0)" stroke-width="1" opacity="0.996078431372549" d="M 132.5 51 L 134 55 Q 128.4 56.9 130 52 L 132.5 51 Z " /><path fill="rgb(0,0,0)" stroke="rgb(0,0,0)" stroke-width="1" opacity="0.996078431372549" d="M 162.5 56 L 165 57.5 L 163.5 60 L 161 58.5 L 162.5 56 Z " /><path fill="rgb(0,0,0)" stroke="rgb(0,0,0)" stroke-width="1" opacity="0.996078431372549" d="M 162.5 100 L 165 101.5 L 163.5 104 L 161 102.5 L 162.5 100 Z " /><path fill="rgb(0,0,0)" stroke="rgb(0,0,0)" stroke-width="1" opacity="0.996078431372549" d="M 100.5 109 L 103 110.5 L 101.5 113 L 99 111.5 L 100.5 109 Z " /><path fill="rgb(0,0,0)" stroke="rgb(0,0,0)" stroke-width="1" opacity="0.996078431372549" d="M 38 118 Q 42.9 116.4 41 122 L 37 120.5 L 38 118 Z " /><path fill="rgb(216,216,217)" stroke="rgb(216,216,217)" stroke-width="1" opacity="0.8549019607843137" d="M 181.5 52 L 182 106.5 L 181 106.5 L 181.5 52 Z " /><path fill="rgb(216,216,217)" stroke="rgb(216,216,217)" stroke-width="1" opacity="0.8549019607843137" d="M 75.5 105 L 77 105.5 L 70.5 110 L 73.5 106 L 75.5 105 Z " /><path fill="rgb(216,216,217)" stroke="rgb(216,216,217)" stroke-width="1" opacity="0.8549019607843137" d="M 82.5 105 L 90 110.5 L 85.5 107 Q 81.8 106.7 82.5 105 Z " /><path fill="rgb(216,216,217)" stroke="rgb(216,216,217)" stroke-width="1" opacity="0.8549019607843137" d="M 128.5 106 L 129.5 108 L 128.5 106 Z " /><path fill="rgb(216,216,217)" stroke="rgb(216,216,217)" stroke-width="1" opacity="0.8549019607843137" d="M 115.5 107 L 114 109.5 L 113 112.5 L 116 120.5 L 118.5 123 L 129 127.5 L 127.5 129 L 118.5 129 L 112 123.5 Q 109.7 120.3 111 113.5 L 115.5 107 Z " /><path fill="rgb(216,216,217)" stroke="rgb(216,216,217)" stroke-width="1" opacity="0.8549019607843137" d="M 132.5 110 L 133.5 112 L 132.5 110 Z " /><path fill="rgb(216,216,217)" stroke="rgb(216,216,217)" stroke-width="1" opacity="0.8549019607843137" d="M 69.5 111 Q 70.3 120.2 76.5 124 L 85.5 127 L 89.5 124 L 87.5 127 Q 83.8 130.3 75.5 129 L 71 127 L 68 122.5 L 67 115.5 L 69.5 111 Z " /><path fill="rgb(216,216,217)" stroke="rgb(216,216,217)" stroke-width="1" opacity="0.8549019607843137" d="M 91.5 114 L 92 119.5 L 91 119.5 L 91.5 114 Z " /><path fill="rgb(216,216,217)" stroke="rgb(216,216,217)" stroke-width="1" opacity="0.8549019607843137" d="M 133.5 123 L 130.5 127 L 133.5 123 Z " /><path fill="rgb(216,216,217)" stroke="rgb(216,216,217)" stroke-width="1" opacity="0.8549019607843137" d="M 93.5 129 L 91.5 132 L 93.5 129 Z " /><path fill="rgb(216,216,217)" stroke="rgb(216,216,217)" stroke-width="1" opacity="0.8549019607843137" d="M 126.5 137 Q 128.8 136.3 128 138.5 L 126.5 137 Z " /><path fill="rgb(216,216,217)" stroke="rgb(216,216,217)" stroke-width="1" opacity="0.8549019607843137" d="M 66.5 149 L 65.5 151 L 66.5 149 Z " /><path fill="rgb(216,216,217)" stroke="rgb(216,216,217)" stroke-width="1" opacity="0.8549019607843137" d="M 135.5 149 L 136.5 151 L 135.5 149 Z " /><path fill="rgb(216,216,217)" stroke="rgb(216,216,217)" stroke-width="1" opacity="0.8549019607843137" d="M 58.5 160 L 59 161.5 L 57 162.5 L 58.5 160 Z " /><path fill="rgb(236,236,238)" stroke="rgb(236,236,238)" stroke-width="1" opacity="0.9450980392156862" d="M 86.5 29 L 87.5 31 L 86.5 29 Z " /><path fill="rgb(236,236,238)" stroke="rgb(236,236,238)" stroke-width="1" opacity="0.9450980392156862" d="M 77.5 105 Q 86.6 105.4 90 111.5 Q 92.3 114.7 91 121.5 L 87.5 126 L 84.5 127 Q 76.7 125.8 73 120.5 Q 69.3 117.7 70 110.5 L 77.5 105 Z " /><path fill="rgb(236,236,238)" stroke="rgb(236,236,238)" stroke-width="1" opacity="0.9450980392156862" d="M 120.5 105 Q 128.8 104.8 132 109.5 Q 135.9 112.1 135 119.5 L 129.5 127 Q 119.9 126.6 116 120.5 L 113 111.5 L 116.5 107 L 120.5 105 Z " /><path fill="rgb(236,236,238)" stroke="rgb(236,236,238)" stroke-width="1" opacity="0.9450980392156862" d="M 108.5 129 L 111 132.5 L 109 131.5 L 108.5 129 Z " /><path fill="rgb(236,236,238)" stroke="rgb(236,236,238)" stroke-width="1" opacity="0.9450980392156862" d="M 133.5 147 L 134.5 149 L 133.5 147 Z " /><path fill="rgb(236,236,238)" stroke="rgb(236,236,238)" stroke-width="1" opacity="0.9450980392156862" d="M 160.5 156 L 162.5 159 L 160.5 156 Z " /><path fill="rgb(236,236,238)" stroke="rgb(236,236,238)" stroke-width="1" opacity="0.9450980392156862" d="M 40.5 157 L 39.5 159 L 40.5 157 Z " /><path fill="rgb(236,236,238)" stroke="rgb(236,236,238)" stroke-width="1" opacity="0.9450980392156862" d="M 61.5 158 L 60.5 160 L 61.5 158 Z " /><path fill="rgb(128,128,128)" stroke="rgb(128,128,128)" stroke-width="1" opacity="0.23529411764705882" d="M 26.5 22 L 51.5 22 L 56 24 L 57.5 28 L 59 28.5 L 56 29 L 52.5 24 L 50.5 23 L 28.5 23 L 22 28.5 L 21 32.5 L 21 126.5 L 22 131.5 L 26.5 136 L 28.5 137 L 50.5 137 L 54 135 L 56.5 131 L 58.5 131 Q 61.1 130.2 60 133.5 L 45 156 Q 42.3 154.9 43 157.5 L 32.5 172 L 32 169.5 L 36 166.5 Q 33.5 165 37 163.5 L 46 149 L 50 146.5 Q 47.5 145 51 143.5 L 57 134.5 L 53.5 137 L 51.5 138 L 27.5 138 L 22 133.5 L 20 130.5 L 20 27.5 L 26.5 22 Z " /><path fill="rgb(128,128,128)" stroke="rgb(128,128,128)" stroke-width="1" opacity="0.23529411764705882" d="M 81.5 28 L 83.5 28 L 88.5 32 L 112.5 32 L 118 36.5 L 118.5 38 L 145.5 38 L 150.5 43 L 175.5 43 L 181 47.5 L 183 51.5 L 183 107.5 L 176.5 116 L 174 115.5 L 180 110.5 L 182 106.5 L 182 52 Q 179 53.3 180 49.5 L 172.5 44 L 153.5 44 L 149.5 45 L 146.5 41 L 143.5 39 L 120.5 39 L 118 40 L 113.5 34 L 89.5 34 L 88.5 33 Q 87.3 35.3 86 32.5 L 84.5 30 Q 80.7 29.8 81.5 28 Z " /><path fill="rgb(128,128,128)" stroke="rgb(128,128,128)" stroke-width="1" opacity="0.23529411764705882" d="M 149.5 115 L 152 115.5 L 149 117.5 L 147.5 121 L 141 123.5 L 140 126.5 L 143 130.5 Q 140.5 132 144 133.5 L 146 136.5 L 156 149.5 L 158 155 Q 160.7 153.9 160 156.5 L 170 171 Q 167.3 172.1 168 169.5 L 142 133.5 L 138 125.5 L 140 121 Q 145.3 121.6 148 117.5 L 149.5 115 Z " /><path fill="rgb(128,128,128)" stroke="rgb(128,128,128)" stroke-width="1" opacity="0.23529411764705882" d="M 94 126 L 107.5 126 L 109 127.5 L 111.5 131 L 120.5 135 L 126 135 L 125.5 137 Q 124 134.5 118.5 136 L 111 133 L 108.5 129 Q 105.3 125.2 96.5 127 L 91.5 133 L 85.5 135 L 86.5 133 L 94 127.5 L 94 126 Z " /><path fill="rgb(128,128,128)" stroke="rgb(128,128,128)" stroke-width="1" opacity="0.23529411764705882" d="M 82.5 134 Q 85.1 133.3 84 136 L 76 135.5 L 82.5 134 Z " /><path fill="rgb(128,128,128)" stroke="rgb(128,128,128)" stroke-width="1" opacity="0.23529411764705882" d="M 74.5 136 L 76 138.5 L 71 142 L 70 146.5 Q 62.8 152.3 59.5 162 L 58.5 160 Q 53 173 43.5 182 L 40 181.5 L 47 177.5 L 47 175.5 L 59.5 158 L 61 157.5 L 61 155.5 L 74.5 136 Z " /><path fill="rgb(128,128,128)" stroke="rgb(128,128,128)" stroke-width="1" opacity="0.23529411764705882" d="M 127.5 136 L 134 144.5 L 133.5 146 L 136 147.5 L 155 175.5 L 160.5 181 L 162 181.5 L 158.5 182 Q 153.7 179.5 155.5 177 L 152 174.5 L 152 172.5 L 144 162.5 L 144.5 161 L 140 157.5 L 137 150.5 L 128 139.5 L 127.5 136 Z " /><path fill="rgb(128,128,128)" stroke="rgb(128,128,128)" stroke-width="1" opacity="0.23529411764705882" d="M 32.5 176 L 35.5 180 L 39 181.5 L 35.5 182 Q 30.7 180.7 32.5 176 Z " /><path fill="rgb(128,128,128)" stroke="rgb(128,128,128)" stroke-width="1" opacity="0.23529411764705882" d="M 169.5 177 L 170 179.5 Q 169.3 182.8 164.5 182 L 164.5 181 L 169.5 177 Z " /><path fill="rgb(54,50,55)" stroke="rgb(54,50,55)" stroke-width="1" opacity="0.9372549019607843" d="M 28.5 23 L 51 23.5 L 28.5 24 L 28.5 23 Z " /><path fill="rgb(54,50,55)" stroke="rgb(54,50,55)" stroke-width="1" opacity="0.9372549019607843" d="M 23.5 27 L 23 28.5 L 23 131.5 L 26.5 135 L 29 136.5 L 27.5 136 L 22 131.5 L 21 126.5 L 21 32.5 L 23.5 27 Z " /><path fill="rgb(54,50,55)" stroke="rgb(54,50,55)" stroke-width="1" opacity="0.9372549019607843" d="M 28.5 27 L 27 29.5 L 26.5 31 L 26 29.5 L 28.5 27 Z " /><path fill="rgb(54,50,55)" stroke="rgb(54,50,55)" stroke-width="1" opacity="0.9372549019607843" d="M 49.5 27 L 52 28.5 L 50.5 28 L 49.5 27 Z " /><path fill="rgb(54,50,55)" stroke="rgb(54,50,55)" stroke-width="1" opacity="0.9372549019607843" d="M 59.5 28 L 58.5 30 L 56 29.5 L 59.5 28 Z " /><path fill="rgb(54,50,55)" stroke="rgb(54,50,55)" stroke-width="1" opacity="0.9372549019607843" d="M 52.5 30 L 53 54.5 L 52 54.5 L 52.5 30 Z " /><path fill="rgb(54,50,55)" stroke="rgb(54,50,55)" stroke-width="1" opacity="0.9372549019607843" d="M 84.5 30 L 85.5 32 L 84.5 30 Z " /><path fill="rgb(54,50,55)" stroke="rgb(54,50,55)" stroke-width="1" opacity="0.9372549019607843" d="M 60.5 32 L 80 32.5 L 60.5 33 L 60.5 32 Z " /><path fill="rgb(54,50,55)" stroke="rgb(54,50,55)" stroke-width="1" opacity="0.9372549019607843" d="M 58.5 33 L 58 34.5 L 57 36.5 L 57 55.5 L 55.5 57 L 53 56.5 L 56 56 L 56 36.5 L 58.5 33 Z " /><path fill="rgb(54,50,55)" stroke="rgb(54,50,55)" stroke-width="1" opacity="0.9372549019607843" d="M 81.5 33 L 84 35.5 L 84 100 L 77 99.5 L 83 99 L 83 35.5 L 81.5 33 Z " /><path fill="rgb(54,50,55)" stroke="rgb(54,50,55)" stroke-width="1" opacity="0.9372549019607843" d="M 86.5 33 L 87.5 34 L 113 34.5 L 88.5 35 L 87.5 36 L 86.5 33 Z " /><path fill="rgb(54,50,55)" stroke="rgb(54,50,55)" stroke-width="1" opacity="0.9372549019607843" d="M 37.5 37 L 37 38.5 L 36.5 41 L 36 38.5 L 37.5 37 Z " /><path fill="rgb(54,50,55)" stroke="rgb(54,50,55)" stroke-width="1" opacity="0.9372549019607843" d="M 89.5 38 L 91 38.5 L 89 39 L 88.5 41 L 88 39.5 L 89.5 38 Z " /><path fill="rgb(54,50,55)" stroke="rgb(54,50,55)" stroke-width="1" opacity="0.9372549019607843" d="M 111.5 38 L 114 39.5 L 112.5 39 L 111.5 38 Z " /><path fill="rgb(54,50,55)" stroke="rgb(54,50,55)" stroke-width="1" opacity="0.9372549019607843" d="M 143.5 39 L 144.5 41 L 143.5 39 Z " /><path fill="rgb(54,50,55)" stroke="rgb(54,50,55)" stroke-width="1" opacity="0.9372549019607843" d="M 41.5 41 L 40.5 43 L 41.5 41 Z " /><path fill="rgb(54,50,55)" stroke="rgb(54,50,55)" stroke-width="1" opacity="0.9372549019607843" d="M 69.5 41 L 73 42.5 L 71.5 42 L 68 43.5 L 69.5 47 L 71 47.5 L 69.5 48 Q 66.5 47.5 67 43.5 L 69.5 41 Z " /><path fill="rgb(54,50,55)" stroke="rgb(54,50,55)" stroke-width="1" opacity="0.9372549019607843" d="M 114.5 41 L 115 100.5 L 114 100.5 L 114.5 41 Z " /><path fill="rgb(54,50,55)" stroke="rgb(54,50,55)" stroke-width="1" opacity="0.9372549019607843" d="M 146.5 41 L 147.5 43 L 146.5 41 Z " /><path fill="rgb(54,50,55)" stroke="rgb(54,50,55)" stroke-width="1" opacity="0.9372549019607843" d="M 121.5 43 L 142.5 43 L 146 46.5 L 146 88.5 L 149 89 L 149 52.5 L 151.5 49 L 151 50.5 L 150 52.5 L 150 88.5 L 148.5 90 L 145 88.5 L 145 46.5 L 142.5 44 L 121.5 44 L 120 45.5 L 119 47.5 L 118.5 95 L 118 47.5 L 121.5 43 Z " /><path fill="rgb(54,50,55)" stroke="rgb(54,50,55)" stroke-width="1" opacity="0.9372549019607843" d="M 148.5 44 L 151 45.5 L 149.5 46 L 148.5 44 Z " /><path fill="rgb(54,50,55)" stroke="rgb(54,50,55)" stroke-width="1" opacity="0.9372549019607843" d="M 153.5 44 L 173 44.5 L 153.5 45 L 153.5 44 Z " /><path fill="rgb(54,50,55)" stroke="rgb(54,50,55)" stroke-width="1" opacity="0.9372549019607843" d="M 175.5 45 L 176.5 47 L 175.5 45 Z " /><path fill="rgb(54,50,55)" stroke="rgb(54,50,55)" stroke-width="1" opacity="0.9372549019607843" d="M 99.5 46 L 99 47.5 Q 97.4 53.2 103 51 L 102 46.5 L 104 47.5 Q 104.8 51.3 102.5 52 Q 98.8 52.8 98 50.5 Q 97.3 46.8 99.5 46 Z " /><path fill="rgb(54,50,55)" stroke="rgb(54,50,55)" stroke-width="1" opacity="0.9372549019607843" d="M 153.5 48 L 173 48.5 L 153.5 49 L 153.5 48 Z " /><path fill="rgb(54,50,55)" stroke="rgb(54,50,55)" stroke-width="1" opacity="0.9372549019607843" d="M 174.5 49 L 177 52.5 L 177 107.5 L 174.5 111 L 175 109.5 L 176 107.5 L 176 52.5 L 174.5 49 Z " /><path fill="rgb(54,50,55)" stroke="rgb(54,50,55)" stroke-width="1" opacity="0.9372549019607843" d="M 130.5 50 Q 135.3 49.3 136 52.5 L 135.5 54 L 133.5 51 Q 129.1 49.5 130 52.5 Q 127.3 54.3 131.5 56 L 134.5 55 L 133.5 57 Q 129.8 57.8 129 55.5 L 128 52.5 L 130.5 50 Z " /><path fill="rgb(54,50,55)" stroke="rgb(54,50,55)" stroke-width="1" opacity="0.9372549019607843" d="M 180.5 52 L 181 107.5 L 180 107.5 L 180.5 52 Z " /><path fill="rgb(54,50,55)" stroke="rgb(54,50,55)" stroke-width="1" opacity="0.9372549019607843" d="M 162.5 54 L 166 56.5 L 163.5 55 L 160.5 57 L 162.5 54 Z " /><path fill="rgb(54,50,55)" stroke="rgb(54,50,55)" stroke-width="1" opacity="0.9372549019607843" d="M 160.5 59 L 164.5 60 L 166 59.5 Q 165.3 61.8 161.5 61 L 160.5 59 Z " /><path fill="rgb(54,50,55)" stroke="rgb(54,50,55)" stroke-width="1" opacity="0.9372549019607843" d="M 53.5 62 L 57 63.5 L 57 121.5 L 60.5 127 Q 64.9 128.5 64 125.5 L 62 123.5 L 61 116.5 L 64 107.5 L 69.5 102 L 75.5 100 L 75.5 101 Q 68.1 102.1 65 107.5 L 63 111.5 L 62 118.5 L 65 126.5 Q 64.3 128.8 60.5 128 L 56 122.5 L 56 63 Q 52.7 63.7 53.5 62 Z " /><path fill="rgb(54,50,55)" stroke="rgb(54,50,55)" stroke-width="1" opacity="0.9372549019607843" d="M 52.5 64 L 53 129.5 L 52 129.5 L 52.5 64 Z " /><path fill="rgb(54,50,55)" stroke="rgb(54,50,55)" stroke-width="1" opacity="0.9372549019607843" d="M 146.5 94 L 150 96.5 L 150 107.5 L 152 110.5 L 150 109.5 L 149 107.5 L 149 96.5 L 147.5 95 L 146 96.5 L 146 112.5 L 142.5 117 L 140 115.5 Q 138.8 105.7 131.5 102 Q 126.9 99.1 119 99.5 L 126.5 99 Q 134.8 100.2 138 106.5 L 141 115 L 144 113.5 Q 146.4 106.4 145 95.5 L 146.5 94 Z " /><path fill="rgb(54,50,55)" stroke="rgb(54,50,55)" stroke-width="1" opacity="0.9372549019607843" d="M 161.5 99 L 160.5 101 L 161.5 99 Z " /><path fill="rgb(54,50,55)" stroke="rgb(54,50,55)" stroke-width="1" opacity="0.9372549019607843" d="M 164.5 99 L 165.5 101 L 164.5 99 Z " /><path fill="rgb(54,50,55)" stroke="rgb(54,50,55)" stroke-width="1" opacity="0.9372549019607843" d="M 88.5 101 L 93.5 107 L 88 103 L 88.5 101 Z " /><path fill="rgb(54,50,55)" stroke="rgb(54,50,55)" stroke-width="1" opacity="0.9372549019607843" d="M 113.5 102 L 112.5 104 L 110 105.5 L 107.5 109 L 108 107.5 L 111.5 103 L 113.5 102 Z " /><path fill="rgb(54,50,55)" stroke="rgb(54,50,55)" stroke-width="1" opacity="0.9372549019607843" d="M 78.5 103 L 81 103.5 L 78.5 104 L 78.5 103 Z " /><path fill="rgb(54,50,55)" stroke="rgb(54,50,55)" stroke-width="1" opacity="0.9372549019607843" d="M 121.5 103 L 124 103.5 L 121.5 104 L 121.5 103 Z " /><path fill="rgb(54,50,55)" stroke="rgb(54,50,55)" stroke-width="1" opacity="0.9372549019607843" d="M 160.5 103 L 161.5 105 L 160.5 103 Z " /><path fill="rgb(54,50,55)" stroke="rgb(54,50,55)" stroke-width="1" opacity="0.9372549019607843" d="M 165.5 103 L 164.5 105 L 165.5 103 Z " /><path fill="rgb(54,50,55)" stroke="rgb(54,50,55)" stroke-width="1" opacity="0.9372549019607843" d="M 72.5 105 L 68.5 110 L 72.5 105 Z " /><path fill="rgb(54,50,55)" stroke="rgb(54,50,55)" stroke-width="1" opacity="0.9372549019607843" d="M 86.5 105 L 90.5 110 L 86.5 105 Z " /><path fill="rgb(54,50,55)" stroke="rgb(54,50,55)" stroke-width="1" opacity="0.9372549019607843" d="M 114.5 106 L 112.5 109 L 114.5 106 Z " /><path fill="rgb(54,50,55)" stroke="rgb(54,50,55)" stroke-width="1" opacity="0.9372549019607843" d="M 94.5 108 L 97 111.5 L 98 118.5 L 97 121 L 105 121 L 105 113.5 L 106 113.5 L 106 121.5 L 104.5 122 L 99.5 123 L 96 122 L 96 111.5 L 94.5 108 Z " /><path fill="rgb(54,50,55)" stroke="rgb(54,50,55)" stroke-width="1" opacity="0.9372549019607843" d="M 99.5 108 Q 104.9 106.1 104 109.5 L 105 111.5 L 102 113.5 L 104 110.5 Q 102.8 108 99 109 L 100 113.5 L 98 112.5 Q 97.3 108.8 99.5 108 Z " /><path fill="rgb(54,50,55)" stroke="rgb(54,50,55)" stroke-width="1" opacity="0.9372549019607843" d="M 133.5 109 L 134.5 111 L 133.5 109 Z " /><path fill="rgb(54,50,55)" stroke="rgb(54,50,55)" stroke-width="1" opacity="0.9372549019607843" d="M 111.5 110 L 111 111.5 L 110.5 113 L 110 111.5 L 111.5 110 Z " /><path fill="rgb(54,50,55)" stroke="rgb(54,50,55)" stroke-width="1" opacity="0.9372549019607843" d="M 154.5 111 L 172 111.5 L 154.5 112 L 154.5 111 Z " /><path fill="rgb(54,50,55)" stroke="rgb(54,50,55)" stroke-width="1" opacity="0.9372549019607843" d="M 109.5 114 L 110 119.5 L 109 119.5 L 109.5 114 Z " /><path fill="rgb(54,50,55)" stroke="rgb(54,50,55)" stroke-width="1" opacity="0.9372549019607843" d="M 149.5 114 L 153 115.5 L 151.5 115 L 148.5 116 L 149.5 114 Z " /><path fill="rgb(54,50,55)" stroke="rgb(54,50,55)" stroke-width="1" opacity="0.9372549019607843" d="M 174.5 114 L 173.5 116 L 174.5 114 Z " /><path fill="rgb(54,50,55)" stroke="rgb(54,50,55)" stroke-width="1" opacity="0.9372549019607843" d="M 136.5 115 L 137 119.5 L 136 119.5 L 136.5 115 Z " /><path fill="rgb(54,50,55)" stroke="rgb(54,50,55)" stroke-width="1" opacity="0.9372549019607843" d="M 147.5 117 L 146.5 119 L 147.5 117 Z " /><path fill="rgb(54,50,55)" stroke="rgb(54,50,55)" stroke-width="1" opacity="0.9372549019607843" d="M 66.5 119 L 67 121.5 L 66 121.5 L 66.5 119 Z " /><path fill="rgb(54,50,55)" stroke="rgb(54,50,55)" stroke-width="1" opacity="0.9372549019607843" d="M 41.5 121 L 40.5 123 L 41.5 121 Z " /><path fill="rgb(54,50,55)" stroke="rgb(54,50,55)" stroke-width="1" opacity="0.9372549019607843" d="M 135.5 121 L 136 122.5 L 134 123.5 L 135.5 121 Z " /><path fill="rgb(54,50,55)" stroke="rgb(54,50,55)" stroke-width="1" opacity="0.9372549019607843" d="M 110.5 122 L 113 125.5 L 110 123.5 L 110.5 122 Z " /><path fill="rgb(54,50,55)" stroke="rgb(54,50,55)" stroke-width="1" opacity="0.9372549019607843" d="M 90.5 125 L 87.5 129 L 85.5 130 L 86.5 128 L 90.5 125 Z " /><path fill="rgb(54,50,55)" stroke="rgb(54,50,55)" stroke-width="1" opacity="0.9372549019607843" d="M 133.5 125 L 130.5 129 L 133.5 125 Z " /><path fill="rgb(54,50,55)" stroke="rgb(54,50,55)" stroke-width="1" opacity="0.9372549019607843" d="M 69.5 126 L 70.5 128 L 69.5 126 Z " /><path fill="rgb(54,50,55)" stroke="rgb(54,50,55)" stroke-width="1" opacity="0.9372549019607843" d="M 93.5 127 L 89.5 132 L 93.5 127 Z " /><path fill="rgb(54,50,55)" stroke="rgb(54,50,55)" stroke-width="1" opacity="0.9372549019607843" d="M 72.5 128 L 73.5 130 L 72.5 128 Z " /><path fill="rgb(54,50,55)" stroke="rgb(54,50,55)" stroke-width="1" opacity="0.9372549019607843" d="M 109.5 128 L 111.5 131 L 109.5 128 Z " /><path fill="rgb(54,50,55)" stroke="rgb(54,50,55)" stroke-width="1" opacity="0.9372549019607843" d="M 115.5 128 L 118 129.5 L 116.5 130 L 115.5 128 Z " /><path fill="rgb(54,50,55)" stroke="rgb(54,50,55)" stroke-width="1" opacity="0.9372549019607843" d="M 138.5 128 L 139.5 130 L 138.5 128 Z " /><path fill="rgb(54,50,55)" stroke="rgb(54,50,55)" stroke-width="1" opacity="0.9372549019607843" d="M 133.5 131 Q 137.5 130.5 138 133.5 L 165 172.5 L 165 175.5 L 162.5 177 L 131 133.5 L 133.5 131 Z M 135 132 L 133 134 L 159 172 L 164 175 L 163 172 L 135 132 Z " /><path fill="rgb(54,50,55)" stroke="rgb(54,50,55)" stroke-width="1" opacity="0.9372549019607843" d="M 140.5 131 L 141.5 133 L 140.5 131 Z " /><path fill="rgb(54,50,55)" stroke="rgb(54,50,55)" stroke-width="1" opacity="0.9372549019607843" d="M 29.5 132 L 49 132.5 L 29.5 133 L 29.5 132 Z " /><path fill="rgb(54,50,55)" stroke="rgb(54,50,55)" stroke-width="1" opacity="0.9372549019607843" d="M 66.5 132 Q 72.3 129.9 71 134.5 L 40.5 177 L 37 175.5 L 42 165.5 L 66.5 132 Z M 68 133 L 38 175 L 41 175 L 69 135 Q 70 132 68 133 Z " /><path fill="rgb(54,50,55)" stroke="rgb(54,50,55)" stroke-width="1" opacity="0.9372549019607843" d="M 85.5 133 L 84.5 135 L 85.5 133 Z " /><path fill="rgb(54,50,55)" stroke="rgb(54,50,55)" stroke-width="1" opacity="0.9372549019607843" d="M 75.5 134 L 82 134.5 L 75.5 135 L 74 136.5 L 72.5 139 L 73 137.5 L 75.5 134 Z " /><path fill="rgb(54,50,55)" stroke="rgb(54,50,55)" stroke-width="1" opacity="0.9372549019607843" d="M 120.5 134 Q 127.5 132.5 129 136.5 L 126.5 135 L 120.5 135 L 120.5 134 Z " /><path fill="rgb(54,50,55)" stroke="rgb(54,50,55)" stroke-width="1" opacity="0.9372549019607843" d="M 50 135 L 52 135.5 L 50 136.5 L 50 135 Z " /><path fill="rgb(54,50,55)" stroke="rgb(54,50,55)" stroke-width="1" opacity="0.9372549019607843" d="M 143.5 135 L 144.5 137 L 143.5 135 Z " /><path fill="rgb(54,50,55)" stroke="rgb(54,50,55)" stroke-width="1" opacity="0.9372549019607843" d="M 57.5 137 L 55.5 140 L 57.5 137 Z " /><path fill="rgb(54,50,55)" stroke="rgb(54,50,55)" stroke-width="1" opacity="0.9372549019607843" d="M 129.5 138 L 131.5 141 L 129.5 138 Z " /><path fill="rgb(54,50,55)" stroke="rgb(54,50,55)" stroke-width="1" opacity="0.9372549019607843" d="M 145.5 138 L 146.5 140 L 145.5 138 Z " /><path fill="rgb(54,50,55)" stroke="rgb(54,50,55)" stroke-width="1" opacity="0.9372549019607843" d="M 71.5 140 L 69 143.5 L 67.5 146 L 68 144.5 L 71.5 140 Z " /><path fill="rgb(54,50,55)" stroke="rgb(54,50,55)" stroke-width="1" opacity="0.9372549019607843" d="M 132.5 142 L 133.5 144 L 132.5 142 Z " /><path fill="rgb(54,50,55)" stroke="rgb(54,50,55)" stroke-width="1" opacity="0.9372549019607843" d="M 149.5 144 L 151.5 147 L 149.5 144 Z " /><path fill="rgb(54,50,55)" stroke="rgb(54,50,55)" stroke-width="1" opacity="0.9372549019607843" d="M 134.5 145 L 139 150.5 L 136 148.5 L 134.5 145 Z " /><path fill="rgb(54,50,55)" stroke="rgb(54,50,55)" stroke-width="1" opacity="0.9372549019607843" d="M 50.5 147 L 49.5 149 L 50.5 147 Z " /><path fill="rgb(54,50,55)" stroke="rgb(54,50,55)" stroke-width="1" opacity="0.9372549019607843" d="M 66.5 147 L 65.5 149 L 66.5 147 Z " /><path fill="rgb(54,50,55)" stroke="rgb(54,50,55)" stroke-width="1" opacity="0.9372549019607843" d="M 152.5 148 L 153.5 150 L 152.5 148 Z " /><path fill="rgb(54,50,55)" stroke="rgb(54,50,55)" stroke-width="1" opacity="0.9372549019607843" d="M 63.5 151 L 62.5 153 L 63.5 151 Z " /><path fill="rgb(54,50,55)" stroke="rgb(54,50,55)" stroke-width="1" opacity="0.9372549019607843" d="M 139.5 152 L 140.5 154 L 139.5 152 Z " /><path fill="rgb(54,50,55)" stroke="rgb(54,50,55)" stroke-width="1" opacity="0.9372549019607843" d="M 141.5 155 L 146 160.5 L 143 158.5 L 141.5 155 Z " /><path fill="rgb(54,50,55)" stroke="rgb(54,50,55)" stroke-width="1" opacity="0.9372549019607843" d="M 157.5 155 L 158.5 157 L 157.5 155 Z " /><path fill="rgb(54,50,55)" stroke="rgb(54,50,55)" stroke-width="1" opacity="0.9372549019607843" d="M 43 156 L 45 156.5 L 42 158.5 L 43 156 Z " /><path fill="rgb(54,50,55)" stroke="rgb(54,50,55)" stroke-width="1" opacity="0.9372549019607843" d="M 59.5 157 L 57 160.5 L 55.5 163 L 56 161.5 L 59.5 157 Z " /><path fill="rgb(54,50,55)" stroke="rgb(54,50,55)" stroke-width="1" opacity="0.9372549019607843" d="M 41.5 160 L 40.5 162 L 41.5 160 Z " /><path fill="rgb(54,50,55)" stroke="rgb(54,50,55)" stroke-width="1" opacity="0.9372549019607843" d="M 161.5 161 L 162.5 163 L 161.5 161 Z " /><path fill="rgb(54,50,55)" stroke="rgb(54,50,55)" stroke-width="1" opacity="0.9372549019607843" d="M 146.5 162 L 147.5 164 L 146.5 162 Z " /><path fill="rgb(54,50,55)" stroke="rgb(54,50,55)" stroke-width="1" opacity="0.9372549019607843" d="M 39.5 163 L 37.5 166 L 39.5 163 Z " /><path fill="rgb(54,50,55)" stroke="rgb(54,50,55)" stroke-width="1" opacity="0.9372549019607843" d="M 148.5 165 L 150.5 168 L 148.5 165 Z " /><path fill="rgb(54,50,55)" stroke="rgb(54,50,55)" stroke-width="1" opacity="0.9372549019607843" d="M 36.5 167 L 35.5 169 L 36.5 167 Z " /><path fill="rgb(54,50,55)" stroke="rgb(54,50,55)" stroke-width="1" opacity="0.9372549019607843" d="M 151.5 169 L 152.5 171 L 151.5 169 Z " /><path fill="rgb(54,50,55)" stroke="rgb(54,50,55)" stroke-width="1" opacity="0.9372549019607843" d="M 49.5 171 L 48.5 173 L 49.5 171 Z " /><path fill="rgb(54,50,55)" stroke="rgb(54,50,55)" stroke-width="1" opacity="0.9372549019607843" d="M 153.5 172 L 154.5 174 L 153.5 172 Z " /><path fill="rgb(54,50,55)" stroke="rgb(54,50,55)" stroke-width="1" opacity="0.9372549019607843" d="M 155.5 175 L 157.5 178 L 155.5 175 Z " /><path fill="rgb(54,50,55)" stroke="rgb(54,50,55)" stroke-width="1" opacity="0.9372549019607843" d="M 45.5 177 L 43.5 180 L 45.5 177 Z " /><path fill="rgb(54,50,55)" stroke="rgb(54,50,55)" stroke-width="1" opacity="0.9372549019607843" d="M 159.5 179 L 166 180.5 L 162.5 182 L 159.5 179 Z " /><path fill="rgb(54,50,55)" stroke="rgb(54,50,55)" stroke-width="1" opacity="0.9372549019607843" d="M 37.5 180 L 42 180.5 L 39.5 182 L 37.5 180 Z " /></svg>