<svg width="200" height="200" version="1.1" xmlns="http://www.w3.org/2000/svg" desc="Created with imagetracer.js version 1.2.6" ><path fill="rgb(6,13,16)" stroke="rgb(6,13,16)" stroke-width="1" opacity="0.011764705882352941" d="M 0 0 L 199.5 0 L 200 0.5 L 200 25.5 L 198 24.5 L 191.5 13 L 189.5 13 L 183.5 8 Q 177 9.5 175.5 6 L 34 6 L 34 8 L 27.5 8 L 27 9.5 L 25.5 9 Q 22.9 8.3 24 11 L 21.5 11 L 18 13 L 18 15 Q 15.3 13.9 16 16.5 Q 12.1 18.6 13 24 L 11 24.5 L 11 178 Q 14.3 176.7 13 181.5 Q 15.8 182.6 15 186 L 18 187.5 Q 17.3 190.1 20 189 L 20 191 L 22 191 L 22 193 L 26.5 193 L 29.5 195 L 31.5 195 L 34.5 196 L 176.5 196 L 181.5 194 Q 183 196.5 184.5 193 L 189 193 L 189 191 Q 191.7 192.1 191 189.5 L 192 187 L 196 186 L 196 180.5 L 198 180 L 198 177.5 L 199.5 175 L 200 200 L 0 200 L 0 0 Z " /><path fill="rgb(1,166,237)" stroke="rgb(1,166,237)" stroke-width="1" opacity="0.9882352941176471" d="M 37.5 8 L 173.5 8 L 186 12 Q 184.9 14.7 187.5 14 L 190 15 L 190 17 Q 192.7 15.9 192 18.5 L 193 21 Q 196.3 19.7 195 24.5 L 197 26.5 Q 196.2 31.8 199 33.5 L 199 168.5 L 194 182.5 L 186.5 190 L 178.5 194 L 31.5 194 L 23.5 190 L 17 183.5 L 12 173.5 L 12 28.5 L 19 16 L 21 16 L 21 14 L 24 14 Q 22.9 11.3 25.5 12 L 28.5 10 L 37.5 8 Z M 37 9 L 37 11 L 30 11 L 30 13 L 21 16 L 18 21 Q 19 24 16 23 L 16 27 L 14 27 L 14 175 L 16 177 Q 15 180 18 179 Q 17 183 20 184 Q 22 183 21 186 L 23 186 L 23 188 Q 27 191 36 191 L 38 193 L 173 193 L 175 191 Q 182 192 186 189 L 193 182 Q 191 176 195 177 L 196 174 L 196 29 L 195 28 L 195 25 L 193 25 L 193 21 Q 190 22 191 19 L 184 13 Q 180 14 181 11 Q 174 13 173 9 L 37 9 Z " /><path fill="rgb(0,166,237)" stroke="rgb(0,166,237)" stroke-width="1" opacity="1" d="M 37 9 L 172.5 9 Q 174.4 12.7 181 11 Q 179.8 14 183.5 13 L 191 18.5 Q 190 22.3 193 21 L 193 25 L 195 25 L 195 27.5 L 196 28.5 L 196 173.5 L 195 177 Q 191.3 175.7 193 181.5 L 185.5 189 Q 181.9 191.9 174.5 191 L 172.5 193 L 37.5 193 L 35.5 191 Q 26.7 191.4 23 188 L 23 186 L 21 186 Q 22.1 183.3 19.5 184 Q 17 182.8 18 179 Q 15 180.3 16 176.5 L 14 174.5 L 14 27 L 16 27 L 16 23 Q 19 24.3 18 20.5 L 21 16 L 30 13 L 30 11 L 36.5 11 L 37 9 Z M 63 45 L 58 49 Q 55 48 56 51 L 54 51 L 54 53 L 49 56 L 47 60 Q 48 62 45 61 L 45 63 L 43 63 L 43 65 L 40 67 Q 41 69 38 68 L 38 70 L 36 70 L 33 76 L 33 86 L 34 87 L 36 90 L 44 94 L 53 93 L 53 144 Q 55 145 54 150 L 56 153 L 62 157 L 67 158 L 70 157 L 74 157 Q 73 154 77 155 L 81 148 L 81 55 L 76 47 Q 72 44 63 45 Z M 122 45 L 112 49 L 109 52 Q 106 51 107 54 L 104 56 Q 101 55 102 58 L 100 58 L 98 62 Q 99 64 96 63 L 93 69 Q 94 73 91 72 Q 92 79 89 82 L 89 121 Q 92 123 91 130 L 96 138 L 100 144 L 112 153 Q 115 152 114 155 Q 118 154 120 157 L 129 157 L 130 158 L 143 157 L 145 155 L 152 153 L 161 146 Q 164 147 162 143 L 164 143 L 165 141 Q 164 138 167 139 L 167 136 L 169 136 L 169 133 L 171 131 L 173 123 L 173 81 L 169 70 Q 170 66 167 67 Q 166 60 160 56 Q 157 57 158 54 L 151 49 L 141 45 L 122 45 Z " /><path fill="rgb(0,166,237)" stroke="rgb(0,166,237)" stroke-width="1" opacity="1" d="M 129.5 72 L 133.5 72 Q 134.8 75 139 74 Q 137.9 76.7 140.5 76 L 142 79 Q 145.3 77.7 144 82.5 L 146 84.5 L 146 117.5 Q 143 118.8 144 123 Q 141 121.8 142 125.5 L 135.5 130 L 127.5 130 L 120 124.5 L 118 121.5 L 118 81.5 L 121 76 L 129.5 72 Z " /><path fill="rgb(236,248,253)" stroke="rgb(236,248,253)" stroke-width="1" opacity="0.9725490196078431" d="M 17.5 15 L 18 16.5 L 17 19 Q 14 20 15 17 Q 17.8 18 17.5 15 Z " /><path fill="rgb(236,248,253)" stroke="rgb(236,248,253)" stroke-width="1" opacity="0.9725490196078431" d="M 193.5 15 L 192.5 17 L 193.5 15 Z " /><path fill="rgb(236,248,253)" stroke="rgb(236,248,253)" stroke-width="1" opacity="0.9725490196078431" d="M 63.5 46 L 65 46.5 L 60.5 49 L 61.5 47 L 63.5 46 Z " /><path fill="rgb(236,248,253)" stroke="rgb(236,248,253)" stroke-width="1" opacity="0.9725490196078431" d="M 70.5 46 L 77 49 L 80 57.5 L 79 57.5 Q 78.4 51.6 74.5 49 Q 70.5 48.5 70.5 46 Z " /><path fill="rgb(236,248,253)" stroke="rgb(236,248,253)" stroke-width="1" opacity="0.9725490196078431" d="M 123.5 46 Q 126.1 45.3 125 48 L 119 47.5 L 123.5 46 Z " /><path fill="rgb(236,248,253)" stroke="rgb(236,248,253)" stroke-width="1" opacity="0.9725490196078431" d="M 135.5 46 L 143.5 47 L 145 48.5 L 143.5 48 Q 136.2 49.2 135.5 46 Z " /><path fill="rgb(236,248,253)" stroke="rgb(236,248,253)" stroke-width="1" opacity="0.9725490196078431" d="M 113 49 L 116 49.5 L 113.5 51 L 113 49 Z " /><path fill="rgb(236,248,253)" stroke="rgb(236,248,253)" stroke-width="1" opacity="0.9725490196078431" d="M 146.5 49 L 150 50.5 L 148.5 51 L 146.5 49 Z " /><path fill="rgb(236,248,253)" stroke="rgb(236,248,253)" stroke-width="1" opacity="0.9725490196078431" d="M 110.5 51 L 111 53 L 103.5 58 L 105.5 55 L 108.5 53 L 110.5 51 Z " /><path fill="rgb(236,248,253)" stroke="rgb(236,248,253)" stroke-width="1" opacity="0.9725490196078431" d="M 151.5 51 Q 153.8 50.3 153 52.5 L 151.5 51 Z " /><path fill="rgb(236,248,253)" stroke="rgb(236,248,253)" stroke-width="1" opacity="0.9725490196078431" d="M 54.5 53 L 51.5 57 L 54.5 53 Z " /><path fill="rgb(236,248,253)" stroke="rgb(236,248,253)" stroke-width="1" opacity="0.9725490196078431" d="M 154.5 53 L 160 56 L 165 63.5 L 160 59.5 L 157.5 56 L 154.5 53 Z " /><path fill="rgb(236,248,253)" stroke="rgb(236,248,253)" stroke-width="1" opacity="0.9725490196078431" d="M 49 58 L 51 58.5 L 42 67.5 L 42 69 L 40 69 Q 41.1 71.7 38.5 71 L 36.5 74 L 36 72.5 L 40 67 L 42 67 L 42 65 L 44 65 Q 42.9 62.3 45.5 63 L 47 60 Q 50 61 49 58 Z " /><path fill="rgb(236,248,253)" stroke="rgb(236,248,253)" stroke-width="1" opacity="0.9725490196078431" d="M 99.5 62 L 97 65.5 L 96.5 67 L 96 65.5 L 99.5 62 Z " /><path fill="rgb(236,248,253)" stroke="rgb(236,248,253)" stroke-width="1" opacity="0.9725490196078431" d="M 165.5 65 Q 167.8 64.3 167 66.5 L 165.5 65 Z " /><path fill="rgb(236,248,253)" stroke="rgb(236,248,253)" stroke-width="1" opacity="0.9725490196078431" d="M 94.5 69 L 95 71 L 93 70.5 L 94.5 69 Z " /><path fill="rgb(236,248,253)" stroke="rgb(236,248,253)" stroke-width="1" opacity="0.9725490196078431" d="M 167.5 69 L 170 73.5 L 168 72.5 L 167.5 69 Z " /><path fill="rgb(236,248,253)" stroke="rgb(236,248,253)" stroke-width="1" opacity="0.9725490196078431" d="M 128.5 71 L 134 71.5 L 128.5 72 L 128.5 71 Z " /><path fill="rgb(236,248,253)" stroke="rgb(236,248,253)" stroke-width="1" opacity="0.9725490196078431" d="M 124.5 72 L 122.5 75 Q 119.9 74.3 121 77 L 119 77 Q 117.9 74.3 120.5 75 L 124.5 72 Z " /><path fill="rgb(236,248,253)" stroke="rgb(236,248,253)" stroke-width="1" opacity="0.9725490196078431" d="M 137.5 72 L 141 73 L 140.5 75 L 137.5 72 Z " /><path fill="rgb(236,248,253)" stroke="rgb(236,248,253)" stroke-width="1" opacity="0.9725490196078431" d="M 92.5 75 L 92 76.5 L 92 125.5 L 93 127.5 L 91 126.5 L 91 117.5 L 90 116.5 L 90 86.5 L 91 85.5 L 91 76.5 L 92.5 75 Z " /><path fill="rgb(236,248,253)" stroke="rgb(236,248,253)" stroke-width="1" opacity="0.9725490196078431" d="M 142.5 75 L 146 80.5 L 144 79.5 L 142.5 75 Z " /><path fill="rgb(236,248,253)" stroke="rgb(236,248,253)" stroke-width="1" opacity="0.9725490196078431" d="M 34.5 76 L 35 78.5 L 34 81.5 L 35 83.5 L 33 82.5 L 34.5 76 Z " /><path fill="rgb(236,248,253)" stroke="rgb(236,248,253)" stroke-width="1" opacity="0.9725490196078431" d="M 170.5 76 L 172 82.5 L 170 81.5 L 170.5 76 Z " /><path fill="rgb(236,248,253)" stroke="rgb(236,248,253)" stroke-width="1" opacity="0.9725490196078431" d="M 118.5 78 L 118 79.5 L 117.5 81 L 117 79.5 L 118.5 78 Z " /><path fill="rgb(236,248,253)" stroke="rgb(236,248,253)" stroke-width="1" opacity="0.9725490196078431" d="M 116.5 82 L 117 83.5 L 116 84.5 L 116 117.5 L 117 119.5 L 116 119.5 L 115 117.5 L 115 84.5 L 116.5 82 Z " /><path fill="rgb(236,248,253)" stroke="rgb(236,248,253)" stroke-width="1" opacity="0.9725490196078431" d="M 35.5 86 L 36.5 88 Q 33.7 88.7 35.5 86 Z " /><path fill="rgb(236,248,253)" stroke="rgb(236,248,253)" stroke-width="1" opacity="0.9725490196078431" d="M 37.5 89 L 42 91.5 L 40.5 92 L 37.5 89 Z " /><path fill="rgb(236,248,253)" stroke="rgb(236,248,253)" stroke-width="1" opacity="0.9725490196078431" d="M 50 91 L 52 91.5 L 50 92.5 L 50 91 Z " /><path fill="rgb(236,248,253)" stroke="rgb(236,248,253)" stroke-width="1" opacity="0.9725490196078431" d="M 54.5 91 L 55 145.5 L 56 147.5 L 54 146.5 L 54.5 91 Z " /><path fill="rgb(236,248,253)" stroke="rgb(236,248,253)" stroke-width="1" opacity="0.9725490196078431" d="M 171.5 119 L 172 122.5 L 170.5 127 L 170 120.5 L 171.5 119 Z " /><path fill="rgb(236,248,253)" stroke="rgb(236,248,253)" stroke-width="1" opacity="0.9725490196078431" d="M 117.5 122 L 123.5 129 L 129 130.5 L 124.5 131 L 121 129 L 121 127 Q 118.3 128.1 119 125.5 L 117.5 122 Z " /><path fill="rgb(236,248,253)" stroke="rgb(236,248,253)" stroke-width="1" opacity="0.9725490196078431" d="M 145.5 122 L 145 123.5 L 144.5 125 L 144 123.5 L 145.5 122 Z " /><path fill="rgb(236,248,253)" stroke="rgb(236,248,253)" stroke-width="1" opacity="0.9725490196078431" d="M 142.5 126 L 140.5 129 L 142.5 126 Z " /><path fill="rgb(236,248,253)" stroke="rgb(236,248,253)" stroke-width="1" opacity="0.9725490196078431" d="M 169.5 128 L 170 129.5 L 167.5 134 L 167 132.5 L 169.5 128 Z " /><path fill="rgb(236,248,253)" stroke="rgb(236,248,253)" stroke-width="1" opacity="0.9725490196078431" d="M 138.5 129 L 139 131 L 130.5 132 L 130.5 131 L 138.5 129 Z " /><path fill="rgb(236,248,253)" stroke="rgb(236,248,253)" stroke-width="1" opacity="0.9725490196078431" d="M 93.5 131 L 94.5 133 L 93.5 131 Z " /><path fill="rgb(236,248,253)" stroke="rgb(236,248,253)" stroke-width="1" opacity="0.9725490196078431" d="M 95.5 135 Q 97.8 134.3 97 136.5 L 100 140.5 L 97 138.5 L 95.5 135 Z " /><path fill="rgb(236,248,253)" stroke="rgb(236,248,253)" stroke-width="1" opacity="0.9725490196078431" d="M 163.5 139 L 164 140.5 L 162 144 L 160 143.5 L 161 141 Q 163.8 142 163.5 139 Z " /><path fill="rgb(236,248,253)" stroke="rgb(236,248,253)" stroke-width="1" opacity="0.9725490196078431" d="M 79.5 144 L 80 145.5 L 77.5 151 L 78 149.5 L 79.5 144 Z " /><path fill="rgb(236,248,253)" stroke="rgb(236,248,253)" stroke-width="1" opacity="0.9725490196078431" d="M 102 144 Q 105 143 104 146 Q 101 147 102 144 Z " /><path fill="rgb(236,248,253)" stroke="rgb(236,248,253)" stroke-width="1" opacity="0.9725490196078431" d="M 105.5 146 L 107.5 149 L 105 148 L 105.5 146 Z " /><path fill="rgb(236,248,253)" stroke="rgb(236,248,253)" stroke-width="1" opacity="0.9725490196078431" d="M 156 146 L 158 146.5 L 152.5 151 L 154.5 148 Q 157.1 148.7 156 146 Z " /><path fill="rgb(236,248,253)" stroke="rgb(236,248,253)" stroke-width="1" opacity="0.9725490196078431" d="M 109.5 149 L 110.5 151 Q 107.7 151.7 109.5 149 Z " /><path fill="rgb(236,248,253)" stroke="rgb(236,248,253)" stroke-width="1" opacity="0.9725490196078431" d="M 112.5 151 L 113.5 153 Q 110.7 153.7 112.5 151 Z " /><path fill="rgb(236,248,253)" stroke="rgb(236,248,253)" stroke-width="1" opacity="0.9725490196078431" d="M 149 151 L 151 151.5 L 149 152.5 L 149 151 Z " /><path fill="rgb(236,248,253)" stroke="rgb(236,248,253)" stroke-width="1" opacity="0.9725490196078431" d="M 59.5 153 L 63 155.5 L 61.5 156 L 59 155 L 59.5 153 Z " /><path fill="rgb(236,248,253)" stroke="rgb(236,248,253)" stroke-width="1" opacity="0.9725490196078431" d="M 74.5 153 L 75 155 L 71.5 156 L 71.5 155 L 74.5 153 Z " /><path fill="rgb(236,248,253)" stroke="rgb(236,248,253)" stroke-width="1" opacity="0.9725490196078431" d="M 116.5 153 L 120 154.5 L 116 155 L 116.5 153 Z " /><path fill="rgb(236,248,253)" stroke="rgb(236,248,253)" stroke-width="1" opacity="0.9725490196078431" d="M 145.5 153 L 146 155 L 138.5 156 L 138.5 155 L 145.5 153 Z " /><path fill="rgb(236,248,253)" stroke="rgb(236,248,253)" stroke-width="1" opacity="0.9725490196078431" d="M 65.5 156 L 70 156.5 L 65.5 157 L 65.5 156 Z " /><path fill="rgb(236,248,253)" stroke="rgb(236,248,253)" stroke-width="1" opacity="0.9725490196078431" d="M 125.5 156 L 135 156.5 L 125.5 157 L 125.5 156 Z " /><path fill="rgb(236,248,253)" stroke="rgb(236,248,253)" stroke-width="1" opacity="0.9725490196078431" d="M 192 185 Q 195 184 194 187 Q 191.3 185.9 192 188.5 L 191 188.5 L 192 185 Z " /><path fill="rgb(84,191,237)" stroke="rgb(84,191,237)" stroke-width="1" opacity="0.5333333333333333" d="M 34 6 L 175.5 6 Q 174.6 9.2 182.5 8 L 192 13.5 L 190 14.5 L 192 15 Q 190.9 17.7 193.5 17 L 200 28.5 L 200 174.5 L 198 180 Q 194.3 178.7 196 184.5 Q 194.8 187.3 193.5 185 Q 191.3 184.3 192 186.5 L 187.5 193 L 175.5 196 L 34.5 196 L 23 192.5 L 23.5 191 L 20 191 L 20 189 Q 17.3 190.1 18 187.5 L 15 182 L 13 182 Q 14.3 176.7 11 177.5 L 11 24 L 13 24 L 13 20 L 14.5 20 L 17 19 L 16 16.5 L 18 16.5 Q 16.3 11.3 21.5 13 L 21.5 11 L 27 10 L 27 8 L 33.5 8 L 34 6 Z M 38 8 L 29 10 L 26 12 Q 23 11 24 14 L 21 14 L 21 16 L 19 16 L 12 29 L 12 174 L 17 184 L 24 190 L 32 194 L 179 194 L 187 190 L 194 183 L 199 169 L 199 34 Q 196 32 197 27 L 195 25 Q 196 20 193 21 L 192 19 Q 193 16 190 17 L 190 15 L 188 14 Q 185 15 186 12 L 174 8 L 38 8 Z " /><path fill="rgb(254,254,255)" stroke="rgb(254,254,255)" stroke-width="1" opacity="0.996078431372549" d="M 65.5 46 L 66 48 L 64 47.5 L 65.5 46 Z " /><path fill="rgb(254,254,255)" stroke="rgb(254,254,255)" stroke-width="1" opacity="0.996078431372549" d="M 69.5 46 L 70.5 48 Q 67.7 48.7 69.5 46 Z " /><path fill="rgb(254,254,255)" stroke="rgb(254,254,255)" stroke-width="1" opacity="0.996078431372549" d="M 134.5 46 L 137 47.5 L 135.5 48 L 134.5 46 Z " /><path fill="rgb(254,254,255)" stroke="rgb(254,254,255)" stroke-width="1" opacity="0.996078431372549" d="M 61.5 48 L 62 50 Q 58.2 49.3 57 52.5 Q 57.8 54.8 55.5 54 L 54 54.5 L 56 51 L 61.5 48 Z " /><path fill="rgb(254,254,255)" stroke="rgb(254,254,255)" stroke-width="1" opacity="0.996078431372549" d="M 118.5 48 L 117.5 50 L 116 49.5 L 118.5 48 Z " /><path fill="rgb(254,254,255)" stroke="rgb(254,254,255)" stroke-width="1" opacity="0.996078431372549" d="M 143.5 48 L 146 49.5 L 143 50 L 143.5 48 Z " /><path fill="rgb(254,254,255)" stroke="rgb(254,254,255)" stroke-width="1" opacity="0.996078431372549" d="M 73.5 49 L 77 51.5 L 76.5 53 L 75 50 L 73.5 49 Z " /><path fill="rgb(254,254,255)" stroke="rgb(254,254,255)" stroke-width="1" opacity="0.996078431372549" d="M 114.5 50 L 115 52 L 111 51.5 L 114.5 50 Z " /><path fill="rgb(254,254,255)" stroke="rgb(254,254,255)" stroke-width="1" opacity="0.996078431372549" d="M 147.5 50 L 152 52.5 L 150.5 53 L 147.5 50 Z " /><path fill="rgb(254,254,255)" stroke="rgb(254,254,255)" stroke-width="1" opacity="0.996078431372549" d="M 109.5 53 L 111 53.5 L 108 55 Q 109.1 57.7 106.5 57 L 109.5 53 Z " /><path fill="rgb(254,254,255)" stroke="rgb(254,254,255)" stroke-width="1" opacity="0.996078431372549" d="M 52.5 56 L 51.5 58 L 52.5 56 Z " /><path fill="rgb(254,254,255)" stroke="rgb(254,254,255)" stroke-width="1" opacity="0.996078431372549" d="M 78.5 56 L 80 58.5 L 78 57.5 L 78.5 56 Z " /><path fill="rgb(254,254,255)" stroke="rgb(254,254,255)" stroke-width="1" opacity="0.996078431372549" d="M 156.5 56 L 160 58.5 L 159.5 60 L 156.5 56 Z " /><path fill="rgb(254,254,255)" stroke="rgb(254,254,255)" stroke-width="1" opacity="0.996078431372549" d="M 102 58 L 104 58.5 L 103 61 L 101 61 L 101 64 L 99 64 Q 100.1 66.7 97.5 66 L 100 62.5 L 100 60 Q 103 61 102 58 Z " /><path fill="rgb(254,254,255)" stroke="rgb(254,254,255)" stroke-width="1" opacity="0.996078431372549" d="M 50.5 59 L 50 60.5 L 44 67.5 L 42 68.5 L 50.5 59 Z " /><path fill="rgb(254,254,255)" stroke="rgb(254,254,255)" stroke-width="1" opacity="0.996078431372549" d="M 163.5 63 L 168 70.5 L 166 71 L 166 67.5 L 163.5 63 Z " /><path fill="rgb(254,254,255)" stroke="rgb(254,254,255)" stroke-width="1" opacity="0.996078431372549" d="M 95 67 L 97 67.5 L 95.5 71 L 95 67 Z " /><path fill="rgb(254,254,255)" stroke="rgb(254,254,255)" stroke-width="1" opacity="0.996078431372549" d="M 38.5 71 L 39 73 L 37 72.5 L 38.5 71 Z " /><path fill="rgb(254,254,255)" stroke="rgb(254,254,255)" stroke-width="1" opacity="0.996078431372549" d="M 93.5 71 L 94 75.5 L 93 75.5 L 93.5 71 Z " /><path fill="rgb(254,254,255)" stroke="rgb(254,254,255)" stroke-width="1" opacity="0.996078431372549" d="M 124.5 71 L 128 71.5 L 124.5 72 L 124.5 71 Z " /><path fill="rgb(254,254,255)" stroke="rgb(254,254,255)" stroke-width="1" opacity="0.996078431372549" d="M 134.5 71 Q 139 70 140 72.5 L 138.5 72 Q 133.5 73 134.5 71 Z " /><path fill="rgb(254,254,255)" stroke="rgb(254,254,255)" stroke-width="1" opacity="0.996078431372549" d="M 120 73 L 123 73.5 L 120.5 75 L 120 73 Z " /><path fill="rgb(254,254,255)" stroke="rgb(254,254,255)" stroke-width="1" opacity="0.996078431372549" d="M 168.5 73 L 169.5 75 L 168.5 73 Z " /><path fill="rgb(254,254,255)" stroke="rgb(254,254,255)" stroke-width="1" opacity="0.996078431372549" d="M 35 74 L 37 74.5 L 35 81.5 L 37 86.5 L 35 85.5 L 34 79.5 L 35 74 Z " /><path fill="rgb(254,254,255)" stroke="rgb(254,254,255)" stroke-width="1" opacity="0.996078431372549" d="M 143.5 76 L 147 79.5 L 147 124 L 145 123.5 L 146 122.5 L 146 79.5 L 143.5 76 Z " /><path fill="rgb(254,254,255)" stroke="rgb(254,254,255)" stroke-width="1" opacity="0.996078431372549" d="M 117 77 L 119 77.5 L 117 78.5 L 117 77 Z " /><path fill="rgb(254,254,255)" stroke="rgb(254,254,255)" stroke-width="1" opacity="0.996078431372549" d="M 170.5 82 L 172 83.5 L 172 118.5 L 170 119.5 L 171 118.5 L 171 83.5 L 170.5 82 Z " /><path fill="rgb(254,254,255)" stroke="rgb(254,254,255)" stroke-width="1" opacity="0.996078431372549" d="M 39.5 89 Q 41.8 88.3 41 90.5 L 39.5 89 Z " /><path fill="rgb(254,254,255)" stroke="rgb(254,254,255)" stroke-width="1" opacity="0.996078431372549" d="M 50.5 90 L 53 90.5 L 50.5 91 L 50.5 90 Z " /><path fill="rgb(254,254,255)" stroke="rgb(254,254,255)" stroke-width="1" opacity="0.996078431372549" d="M 42.5 91 L 50 92.5 L 42 93 L 42.5 91 Z " /><path fill="rgb(254,254,255)" stroke="rgb(254,254,255)" stroke-width="1" opacity="0.996078431372549" d="M 115.5 118 L 117 120.5 L 115 119.5 L 115.5 118 Z " /><path fill="rgb(254,254,255)" stroke="rgb(254,254,255)" stroke-width="1" opacity="0.996078431372549" d="M 117.5 123 L 119 127 Q 121.7 125.9 121 128.5 L 118 126.5 L 117.5 123 Z " /><path fill="rgb(254,254,255)" stroke="rgb(254,254,255)" stroke-width="1" opacity="0.996078431372549" d="M 93.5 126 L 94 131 Q 97.3 129.7 96 134.5 L 95 134.5 L 93 130.5 L 93.5 126 Z " /><path fill="rgb(254,254,255)" stroke="rgb(254,254,255)" stroke-width="1" opacity="0.996078431372549" d="M 142.5 127 L 143 129 L 141 128.5 L 142.5 127 Z " /><path fill="rgb(254,254,255)" stroke="rgb(254,254,255)" stroke-width="1" opacity="0.996078431372549" d="M 122.5 129 L 123.5 131 L 122.5 129 Z " /><path fill="rgb(254,254,255)" stroke="rgb(254,254,255)" stroke-width="1" opacity="0.996078431372549" d="M 129.5 131 L 134 132.5 L 129 133 L 129.5 131 Z " /><path fill="rgb(254,254,255)" stroke="rgb(254,254,255)" stroke-width="1" opacity="0.996078431372549" d="M 167.5 131 L 167 132.5 L 167 137 L 165 137 Q 166.1 139.7 163.5 139 L 164 137.5 Q 163.3 134.9 166 136 L 166 132.5 L 167.5 131 Z " /><path fill="rgb(254,254,255)" stroke="rgb(254,254,255)" stroke-width="1" opacity="0.996078431372549" d="M 97.5 136 L 99 138.5 L 98 138.5 L 97.5 136 Z " /><path fill="rgb(254,254,255)" stroke="rgb(254,254,255)" stroke-width="1" opacity="0.996078431372549" d="M 159 142 L 161 142.5 L 158.5 146 L 156 145.5 L 159 145 L 159 142 Z " /><path fill="rgb(254,254,255)" stroke="rgb(254,254,255)" stroke-width="1" opacity="0.996078431372549" d="M 79.5 143 L 79 144.5 L 78.5 146 L 78 144.5 L 79.5 143 Z " /><path fill="rgb(254,254,255)" stroke="rgb(254,254,255)" stroke-width="1" opacity="0.996078431372549" d="M 55.5 145 Q 58 146 57 150.5 L 56 150.5 L 55.5 145 Z " /><path fill="rgb(254,254,255)" stroke="rgb(254,254,255)" stroke-width="1" opacity="0.996078431372549" d="M 107.5 147 L 112 150.5 L 109.5 149 L 107.5 147 Z " /><path fill="rgb(254,254,255)" stroke="rgb(254,254,255)" stroke-width="1" opacity="0.996078431372549" d="M 76 149 L 78 149.5 L 75.5 153 L 71.5 155 L 71.5 154 Q 74.1 154.7 73 152 L 76 152 L 76 149 Z " /><path fill="rgb(254,254,255)" stroke="rgb(254,254,255)" stroke-width="1" opacity="0.996078431372549" d="M 152.5 149 L 151.5 151 L 149 150.5 L 152.5 149 Z " /><path fill="rgb(254,254,255)" stroke="rgb(254,254,255)" stroke-width="1" opacity="0.996078431372549" d="M 58.5 151 L 59.5 153 Q 56.7 153.7 58.5 151 Z " /><path fill="rgb(254,254,255)" stroke="rgb(254,254,255)" stroke-width="1" opacity="0.996078431372549" d="M 113.5 151 L 118 153.5 L 116.5 153 Q 112.7 153.5 113.5 151 Z " /><path fill="rgb(254,254,255)" stroke="rgb(254,254,255)" stroke-width="1" opacity="0.996078431372549" d="M 144.5 152 L 149 152.5 L 143.5 154 L 144.5 152 Z " /><path fill="rgb(254,254,255)" stroke="rgb(254,254,255)" stroke-width="1" opacity="0.996078431372549" d="M 61.5 154 L 64 155.5 L 62.5 155 L 61.5 154 Z " /><path fill="rgb(254,254,255)" stroke="rgb(254,254,255)" stroke-width="1" opacity="0.996078431372549" d="M 120.5 154 Q 124.9 152.5 124 155.5 L 122.5 155 Q 119.5 155.5 120.5 154 Z " /><path fill="rgb(254,254,255)" stroke="rgb(254,254,255)" stroke-width="1" opacity="0.996078431372549" d="M 138.5 154 L 142 154.5 L 138.5 155 L 138.5 154 Z " /><path fill="rgb(137,213,246)" stroke="rgb(137,213,246)" stroke-width="1" opacity="1" d="M 62.5 45 Q 72.1 43.7 76 47 L 75.5 49 Q 72.7 44.3 63.5 46 L 58 49 L 58 51 L 56 51 Q 57.1 53.7 54.5 53 L 51 58 L 49 58 Q 50.1 60.7 47.5 60 L 49 57.5 Q 48.3 55.3 50.5 56 L 54 51 L 56 51 Q 54.9 48.3 57.5 49 L 62.5 45 Z " /><path fill="rgb(137,213,246)" stroke="rgb(137,213,246)" stroke-width="1" opacity="1" d="M 121.5 45 L 140.5 45 L 143 46.5 L 138.5 47 L 137.5 46 L 123.5 46 L 114.5 49 L 115.5 47 Q 120.1 47.6 121.5 45 Z " /><path fill="rgb(137,213,246)" stroke="rgb(137,213,246)" stroke-width="1" opacity="1" d="M 144.5 47 L 148 48.5 L 145.5 49 L 144.5 47 Z " /><path fill="rgb(137,213,246)" stroke="rgb(137,213,246)" stroke-width="1" opacity="1" d="M 111.5 49 Q 114.1 48.3 113 51 L 107.5 53 L 107.5 52 L 111.5 49 Z " /><path fill="rgb(137,213,246)" stroke="rgb(137,213,246)" stroke-width="1" opacity="1" d="M 149.5 49 L 152 50.5 L 150.5 51 L 149.5 49 Z " /><path fill="rgb(137,213,246)" stroke="rgb(137,213,246)" stroke-width="1" opacity="1" d="M 77.5 50 L 78.5 52 L 77.5 50 Z " /><path fill="rgb(137,213,246)" stroke="rgb(137,213,246)" stroke-width="1" opacity="1" d="M 153.5 51 L 158 54.5 L 156.5 55 L 153 53 L 153.5 51 Z " /><path fill="rgb(137,213,246)" stroke="rgb(137,213,246)" stroke-width="1" opacity="1" d="M 79.5 53 L 81 54.5 L 81 147.5 L 77 155 Q 74 156 75 153 Q 77.7 154.1 77 151.5 L 80 145.5 L 80 55.5 L 79.5 53 Z " /><path fill="rgb(137,213,246)" stroke="rgb(137,213,246)" stroke-width="1" opacity="1" d="M 105.5 54 L 107 54.5 L 100 60.5 L 93.5 70 L 93 68.5 L 96 63 Q 98.7 64.1 98 61.5 L 100 58 L 102 58 Q 100.9 55.3 103.5 56 L 105.5 54 Z " /><path fill="rgb(137,213,246)" stroke="rgb(137,213,246)" stroke-width="1" opacity="1" d="M 160.5 57 L 167 64.5 L 165 65 L 160.5 57 Z " /><path fill="rgb(137,213,246)" stroke="rgb(137,213,246)" stroke-width="1" opacity="1" d="M 45 61 L 47 61.5 L 45 62.5 L 45 61 Z " /><path fill="rgb(137,213,246)" stroke="rgb(137,213,246)" stroke-width="1" opacity="1" d="M 41.5 65 L 42 67 L 40 66.5 L 41.5 65 Z " /><path fill="rgb(137,213,246)" stroke="rgb(137,213,246)" stroke-width="1" opacity="1" d="M 167 67 Q 170 65.8 169 69.5 L 173 80.5 L 173 122.5 L 169.5 132 L 169 130.5 L 172 122.5 L 172 80.5 L 167 67 Z " /><path fill="rgb(137,213,246)" stroke="rgb(137,213,246)" stroke-width="1" opacity="1" d="M 38 68 L 40 68.5 Q 34.9 71.9 33.5 79 L 33 75.5 L 36 70 Q 39 71 38 68 Z " /><path fill="rgb(137,213,246)" stroke="rgb(137,213,246)" stroke-width="1" opacity="1" d="M 91 72 Q 94 70.8 93 74.5 L 91 75.5 L 91 72 Z " /><path fill="rgb(137,213,246)" stroke="rgb(137,213,246)" stroke-width="1" opacity="1" d="M 125.5 72 L 129 72.5 L 121.5 76 L 121.5 75 L 125.5 72 Z " /><path fill="rgb(137,213,246)" stroke="rgb(137,213,246)" stroke-width="1" opacity="1" d="M 134.5 72 L 142 75 L 144 78.5 L 142 79 L 140.5 76 Q 137.9 76.7 139 74 L 135.5 74 L 134.5 72 Z " /><path fill="rgb(137,213,246)" stroke="rgb(137,213,246)" stroke-width="1" opacity="1" d="M 119 77 L 121 77.5 L 118 81.5 L 118 121.5 L 123.5 128 L 127 129.5 L 125.5 130 L 119 124.5 L 116 117.5 L 116 84.5 L 119 77 Z " /><path fill="rgb(137,213,246)" stroke="rgb(137,213,246)" stroke-width="1" opacity="1" d="M 90.5 79 L 91 85.5 L 90 86.5 L 90 116.5 Q 92.5 118 91 123.5 L 90 123.5 L 89 120.5 L 89 81.5 L 90.5 79 Z " /><path fill="rgb(137,213,246)" stroke="rgb(137,213,246)" stroke-width="1" opacity="1" d="M 144.5 80 L 146 83.5 L 144 82.5 L 144.5 80 Z " /><path fill="rgb(137,213,246)" stroke="rgb(137,213,246)" stroke-width="1" opacity="1" d="M 33.5 83 Q 35.8 83.8 35 87.5 L 34 87.5 L 33.5 83 Z " /><path fill="rgb(137,213,246)" stroke="rgb(137,213,246)" stroke-width="1" opacity="1" d="M 36.5 88 L 38.5 91 L 42 92.5 L 40.5 93 L 36 89.5 L 36.5 88 Z " /><path fill="rgb(137,213,246)" stroke="rgb(137,213,246)" stroke-width="1" opacity="1" d="M 52.5 91 L 54 91.5 L 54 143.5 L 53 143.5 L 53 93.5 L 51.5 93 L 52.5 91 Z " /><path fill="rgb(137,213,246)" stroke="rgb(137,213,246)" stroke-width="1" opacity="1" d="M 43.5 93 L 49 93.5 L 43.5 94 L 43.5 93 Z " /><path fill="rgb(137,213,246)" stroke="rgb(137,213,246)" stroke-width="1" opacity="1" d="M 145.5 118 L 146 121.5 L 139.5 129 L 136.5 130 L 137.5 128 L 142 125.5 Q 141 121.8 144 123 L 144 119.5 L 145.5 118 Z " /><path fill="rgb(137,213,246)" stroke="rgb(137,213,246)" stroke-width="1" opacity="1" d="M 91.5 127 L 93 130.5 L 91 129.5 L 91.5 127 Z " /><path fill="rgb(137,213,246)" stroke="rgb(137,213,246)" stroke-width="1" opacity="1" d="M 129.5 130 L 134 130.5 L 129.5 131 L 129.5 130 Z " /><path fill="rgb(137,213,246)" stroke="rgb(137,213,246)" stroke-width="1" opacity="1" d="M 93.5 132 L 97 138.5 L 96 138.5 L 93 133.5 L 93.5 132 Z " /><path fill="rgb(137,213,246)" stroke="rgb(137,213,246)" stroke-width="1" opacity="1" d="M 168.5 133 L 169 136 Q 166.3 137.1 167 134.5 L 168.5 133 Z " /><path fill="rgb(137,213,246)" stroke="rgb(137,213,246)" stroke-width="1" opacity="1" d="M 165 137 Q 168 136 167 139 Q 164.3 137.9 165 140.5 L 164 143 L 162 142.5 L 165 137 Z " /><path fill="rgb(137,213,246)" stroke="rgb(137,213,246)" stroke-width="1" opacity="1" d="M 98.5 140 L 99.5 142 Q 96.7 142.7 98.5 140 Z " /><path fill="rgb(137,213,246)" stroke="rgb(137,213,246)" stroke-width="1" opacity="1" d="M 100.5 143 Q 102.8 142.3 102 144.5 L 100.5 143 Z " /><path fill="rgb(137,213,246)" stroke="rgb(137,213,246)" stroke-width="1" opacity="1" d="M 160 144 Q 163 143 162 146 L 150.5 153 L 151.5 151 L 160 146 L 160 144 Z " /><path fill="rgb(137,213,246)" stroke="rgb(137,213,246)" stroke-width="1" opacity="1" d="M 103.5 146 L 106.5 148 L 109 149 L 109 151 Q 112.8 149.5 112 152.5 L 110.5 152 Q 105 149.9 103.5 146 Z " /><path fill="rgb(137,213,246)" stroke="rgb(137,213,246)" stroke-width="1" opacity="1" d="M 54.5 147 L 59 154.5 L 56 152.5 Q 53 150.7 54.5 147 Z " /><path fill="rgb(137,213,246)" stroke="rgb(137,213,246)" stroke-width="1" opacity="1" d="M 114 153 Q 117 152 116 155 Q 113 156 114 153 Z " /><path fill="rgb(137,213,246)" stroke="rgb(137,213,246)" stroke-width="1" opacity="1" d="M 146 153 L 149 153.5 L 146 155 L 146 153 Z " /><path fill="rgb(137,213,246)" stroke="rgb(137,213,246)" stroke-width="1" opacity="1" d="M 60.5 155 L 65 156.5 L 61.5 157 L 60.5 155 Z " /><path fill="rgb(137,213,246)" stroke="rgb(137,213,246)" stroke-width="1" opacity="1" d="M 73.5 155 L 74 157 L 70 156.5 L 73.5 155 Z " /><path fill="rgb(137,213,246)" stroke="rgb(137,213,246)" stroke-width="1" opacity="1" d="M 118.5 155 L 125 156.5 L 119.5 157 L 118.5 155 Z " /><path fill="rgb(137,213,246)" stroke="rgb(137,213,246)" stroke-width="1" opacity="1" d="M 142.5 155 L 144 155.5 Q 142.3 158.8 135.5 157 L 135.5 156 Q 141 157.5 142.5 155 Z " /><path fill="rgb(137,213,246)" stroke="rgb(137,213,246)" stroke-width="1" opacity="1" d="M 66.5 157 L 69 157.5 L 66.5 158 L 66.5 157 Z " /><path fill="rgb(137,213,246)" stroke="rgb(137,213,246)" stroke-width="1" opacity="1" d="M 129.5 157 L 134 157.5 L 129.5 158 L 129.5 157 Z " /><path fill="rgb(255,255,255)" stroke="rgb(255,255,255)" stroke-width="1" opacity="1" d="M 183.5 8 L 186 9.5 L 184.5 10 L 183.5 8 Z " /><path fill="rgb(255,255,255)" stroke="rgb(255,255,255)" stroke-width="1" opacity="1" d="M 198.5 25 L 199.5 27 L 198.5 25 Z " /><path fill="rgb(255,255,255)" stroke="rgb(255,255,255)" stroke-width="1" opacity="1" d="M 66 46 Q 70.1 44.7 69 48 L 73 48 L 73 50 Q 75.7 48.9 75 51.5 L 78 53 Q 76.8 58 80 59.5 L 80 142.5 Q 76.8 144 78 149 Q 74.7 147.9 76 152 L 73 152 L 71 156 L 64.5 156 Q 63.4 153.3 60 154 L 58.5 151 Q 55.1 151.9 57 146.5 L 55 144.5 L 55 91 L 50 90 Q 51.1 93.5 43.5 92 L 41 91 Q 42.2 87.3 37 89 L 37 86.5 L 35 80.5 L 37 73 L 39 73 L 39 71 L 41 71 Q 39.9 68.3 42.5 69 L 44 66 L 46 66 L 46 64 L 48 64 L 48 62 Q 50.7 63.1 50 60.5 L 53 55 L 57 54 L 59.5 50 Q 63.3 51 62 48 L 66 48 L 66 46 Z " /><path fill="rgb(255,255,255)" stroke="rgb(255,255,255)" stroke-width="1" opacity="1" d="M 126 46 L 133.5 46 L 135.5 48 L 143 48 Q 141.7 51.3 146.5 50 Q 148.6 53.9 154 53 L 154 55 Q 156.7 53.9 156 56.5 L 161 60 L 161 62 Q 163.7 60.9 163 63.5 Q 166.9 65.6 166 71 Q 169 69.8 168 73.5 L 170 75.5 Q 168.3 81.8 171 83.5 L 171 118.5 L 170 119.5 L 170 128 Q 167 126.8 168 130.5 Q 165 131.8 166 136 Q 163.3 134.9 164 137.5 L 163 140 L 161 140 Q 162 143 159 142 L 159 145 L 156 145 L 156 147 L 154 147 Q 155.1 149.7 152.5 149 L 149 150 Q 150.3 153.7 144.5 152 Q 143.1 155.3 138 154 L 137.5 156 L 124 156 Q 125.4 152 118.5 154 L 108.5 147 L 106 147 Q 107.1 144.3 104.5 145 L 103 142 L 99 140 L 99 137.5 Q 95 136.1 96 131 L 94 131 Q 95.5 124.7 92 125.5 L 92 76 L 94 76 L 94 71.5 L 96 71 L 96 68.5 L 97 66 L 101 64 L 101 61 Q 103.7 62.1 103 59.5 L 104 57 L 108 57 Q 106.9 54.3 109.5 55 L 111 52 L 115 52 Q 113.8 49 117.5 50 Q 119.4 46.3 126 48 L 126 46 Z M 124 71 Q 125 75 120 73 L 119 76 Q 120 78 117 77 L 117 82 L 115 82 L 115 120 L 117 122 L 118 127 L 124 131 Q 130 129 129 133 Q 135 135 135 131 L 140 131 L 140 129 L 143 129 L 143 126 L 145 126 Q 144 123 147 124 L 147 80 L 139 71 L 124 71 Z " /><path fill="rgb(255,255,255)" stroke="rgb(255,255,255)" stroke-width="1" opacity="1" d="M 187.5 191 L 188.5 193 L 187.5 191 Z " /></svg>