<svg width="200" height="200" version="1.1" xmlns="http://www.w3.org/2000/svg" desc="Created with imagetracer.js version 1.2.6" ><path fill="rgb(0,0,0)" stroke="rgb(0,0,0)" stroke-width="1" opacity="0" d="M 0 0 L 200 0 L 200 200 L 0 200 L 0 0 Z M 161 15 Q 159 18 158 16 L 157 18 L 146 21 Q 147 27 145 30 L 143 30 L 99 74 Q 93 73 92 76 Q 93 78 90 77 L 90 83 L 54 119 Q 55 125 53 124 L 51 127 L 48 129 Q 49 131 47 130 L 45 133 L 42 135 Q 43 137 41 136 L 31 161 Q 30 168 34 170 Q 41 172 40 168 L 47 167 L 53 164 Q 56 165 55 162 L 64 161 L 66 158 Q 69 159 68 156 L 71 155 Q 70 151 73 152 L 75 149 Q 77 150 76 147 L 83 146 L 90 137 L 93 136 Q 92 133 95 134 L 96 131 L 99 130 Q 98 127 101 128 L 102 125 L 105 124 Q 104 121 107 122 L 115 114 L 115 112 L 118 111 Q 122 112 121 109 L 126 108 L 127 106 L 127 99 L 130 99 Q 129 96 132 97 L 140 89 L 140 87 L 144 85 L 146 87 L 158 87 L 168 77 L 168 75 L 171 74 Q 170 71 173 72 L 186 58 Q 188 47 182 45 L 185 43 L 185 27 L 182 21 L 173 15 L 161 15 Z " /><path fill="rgb(171,189,200)" stroke="rgb(171,189,200)" stroke-width="1" opacity="0.9803921568627451" d="M 157.5 22 L 179.5 45 L 157.5 22 Z " /><path fill="rgb(171,189,200)" stroke="rgb(171,189,200)" stroke-width="1" opacity="0.9803921568627451" d="M 147.5 30 L 155.5 39 L 169 51.5 L 166.5 57 Q 164.3 56.3 165 58.5 L 162 60 L 160.5 63 Q 158.3 62.3 159 64.5 L 155 67.5 Q 155.8 69.8 153.5 69 L 152 72 L 149 73.5 Q 149.8 75.8 147.5 75 L 144.5 82 L 144 77.5 L 147 73 L 150 71.5 Q 149.3 69.3 151.5 70 L 153 67 L 154.5 67 L 168 53.5 Q 169.1 50.2 166.5 51 L 159 42 L 157.5 42 L 147 31.5 L 147.5 30 Z " /><path fill="rgb(171,189,200)" stroke="rgb(171,189,200)" stroke-width="1" opacity="0.9803921568627451" d="M 101.5 74 L 126 99.5 L 101 75.5 L 101.5 74 Z " /><path fill="rgb(171,189,200)" stroke="rgb(171,189,200)" stroke-width="1" opacity="0.9803921568627451" d="M 91.5 84 Q 93.8 83.3 93 85.5 L 96 87 L 97.5 90 Q 99.8 89.3 99 91.5 L 102 93 L 103.5 96 Q 105.8 95.3 105 97.5 L 108 99 L 109.5 102 Q 111.8 101.3 111 103.5 L 114 105 L 117 109.5 L 91.5 84 Z " /><path fill="rgb(171,189,200)" stroke="rgb(171,189,200)" stroke-width="1" opacity="0.9803921568627451" d="M 56.5 123 L 57 125 L 58.5 125 L 76 142.5 L 77 145.5 L 76 145.5 L 59 127.5 L 59 126 L 56 124.5 L 56.5 123 Z " /><path fill="rgb(171,189,200)" stroke="rgb(171,189,200)" stroke-width="1" opacity="0.9803921568627451" d="M 53.5 138 Q 59.9 138.1 62 142.5 Q 63.8 149.3 60.5 151 Q 57.9 150.3 59 153 L 56.5 153 L 53.5 154 L 47 149.5 L 47.5 147 L 49 151 Q 51.1 152.6 56.5 152 L 60 149.5 L 61 145.5 L 57.5 140 L 53.5 139 L 49 141 L 47.5 145 L 47 142.5 L 48 140 L 53.5 138 Z " /><path fill="rgb(43,121,167)" stroke="rgb(43,121,167)" stroke-width="1" opacity="0.807843137254902" d="M 162.5 15 Q 170 13.5 173 16.5 Q 171.3 19.8 169.5 16 Q 162.8 14.8 160.5 18 L 162.5 15 Z " /><path fill="rgb(43,121,167)" stroke="rgb(43,121,167)" stroke-width="1" opacity="0.807843137254902" d="M 158.5 17 L 159 18.5 Q 155.9 20.3 157.5 22 Q 154.9 22.8 156 19.5 L 158.5 17 Z " /><path fill="rgb(43,121,167)" stroke="rgb(43,121,167)" stroke-width="1" opacity="0.807843137254902" d="M 175.5 18 Q 178.8 16.9 178 19.5 L 184 27.5 L 182 28 L 182 25.5 L 178 20 L 175.5 18 Z " /><path fill="rgb(43,121,167)" stroke="rgb(43,121,167)" stroke-width="1" opacity="0.807843137254902" d="M 184.5 29 L 185 39.5 Q 180.8 41.8 182.5 44 Q 178.1 45.5 179 42.5 L 182 41.5 L 182 39 L 184 38.5 L 184.5 29 Z " /><path fill="rgb(43,121,167)" stroke="rgb(43,121,167)" stroke-width="1" opacity="0.807843137254902" d="M 144 30 Q 148.1 28.7 147 32 L 143 33.5 Q 143.8 35.8 141.5 35 L 140 38 L 137 39.5 Q 137.8 41.8 135.5 41 L 134 44 L 131 45.5 Q 131.8 47.8 129.5 47 L 128 50 L 125 51.5 Q 125.8 53.8 123.5 53 L 121 57 L 118 58.5 Q 118.8 60.8 116.5 60 L 115 63 L 112 64.5 Q 112.8 66.8 110.5 66 L 109 69 L 106 70.5 Q 106.8 72.8 104.5 72 L 102.5 75 L 102 73.5 L 144 31.5 L 144 30 Z " /><path fill="rgb(43,121,167)" stroke="rgb(43,121,167)" stroke-width="1" opacity="0.807843137254902" d="M 143.5 81 L 128 97.5 Q 128.8 100.1 125.5 99 L 125.5 98 L 143.5 81 Z " /><path fill="rgb(43,121,167)" stroke="rgb(43,121,167)" stroke-width="1" opacity="0.807843137254902" d="M 90.5 85 L 92 85.5 L 63.5 113 L 63 111 L 66 109.5 Q 65.3 107.3 67.5 108 L 69 105 L 76 99.5 Q 75.3 97.3 77.5 98 L 79 95 L 82 93.5 Q 81.3 91.3 83.5 92 L 85 89 L 88 87.5 Q 87.3 85.3 89.5 86 L 90.5 85 Z " /><path fill="rgb(43,121,167)" stroke="rgb(43,121,167)" stroke-width="1" opacity="0.807843137254902" d="M 115.5 109 L 81 144.5 Q 81.8 147.1 78.5 146 L 77 146.5 Q 76.2 143.9 79.5 145 L 115.5 109 Z " /><path fill="rgb(43,121,167)" stroke="rgb(43,121,167)" stroke-width="1" opacity="0.807843137254902" d="M 60 114 L 62 114.5 L 57 118.5 Q 56.3 116.3 58.5 117 L 60 114 Z " /><path fill="rgb(43,121,167)" stroke="rgb(43,121,167)" stroke-width="1" opacity="0.807843137254902" d="M 54 120 Q 57 119 56 122 Q 53 123 54 120 Z " /><path fill="rgb(43,121,167)" stroke="rgb(43,121,167)" stroke-width="1" opacity="0.807843137254902" d="M 57.5 123 L 58.5 125 Q 55.7 125.7 57.5 123 Z " /><path fill="rgb(43,121,167)" stroke="rgb(43,121,167)" stroke-width="1" opacity="0.807843137254902" d="M 53.5 139 Q 58.3 139.3 60 142.5 L 61 146.5 L 58.5 151 L 51.5 152 L 49 151 L 47 145.5 Q 49.8 144.4 49 141 L 53.5 139 Z " /><path fill="rgb(185,202,213)" stroke="rgb(185,202,213)" stroke-width="1" opacity="0.2" d="M 160.5 15 L 162 15.5 L 159.5 17 L 160.5 15 Z " /><path fill="rgb(185,202,213)" stroke="rgb(185,202,213)" stroke-width="1" opacity="0.2" d="M 171.5 15 L 177 17.5 L 175.5 18 L 171.5 16 L 171.5 15 Z " /><path fill="rgb(185,202,213)" stroke="rgb(185,202,213)" stroke-width="1" opacity="0.2" d="M 157.5 16 L 158 17.5 L 156 21 Q 150 20.3 147 23 L 147 29.5 L 145 30 Q 146.9 27.2 146 21 L 157 18 L 157.5 16 Z " /><path fill="rgb(185,202,213)" stroke="rgb(185,202,213)" stroke-width="1" opacity="0.2" d="M 178 18 L 182 20.5 L 185 28.5 L 184 28.5 L 178 18 Z " /><path fill="rgb(185,202,213)" stroke="rgb(185,202,213)" stroke-width="1" opacity="0.2" d="M 142.5 30 Q 144.8 29.3 144 31.5 L 100.5 75 L 94 76 L 91 80.5 Q 92 85 89.5 86 Q 87.3 85.3 88 87.5 L 85 89 L 83.5 92 Q 81.3 91.3 82 93.5 L 79 95 L 77.5 98 Q 75.3 97.3 76 99.5 L 69 105 L 67.5 108 Q 65.3 107.3 66 109.5 L 63 111 L 61.5 114 Q 59.3 113.3 60 115.5 L 57 117 L 55.5 120 Q 53.3 120.8 54 118.5 L 90 82.5 L 90 77 Q 92.7 78.1 92 75.5 Q 93.3 72.8 98.5 74 L 142.5 30 Z " /><path fill="rgb(185,202,213)" stroke="rgb(185,202,213)" stroke-width="1" opacity="0.2" d="M 184.5 40 L 185 43 L 182 42.5 L 184.5 40 Z " /><path fill="rgb(185,202,213)" stroke="rgb(185,202,213)" stroke-width="1" opacity="0.2" d="M 180 44 L 186 48.5 Q 187.5 56 185 59.5 L 172.5 72 Q 170.3 71.3 171 73.5 L 168 75 L 168 76.5 L 157.5 87 L 145.5 87 L 143.5 85 L 140 87 L 140 88.5 L 131.5 97 Q 128.9 96.3 130 99 L 128 99 L 128 97.5 L 143.5 82 Q 145.5 88 155.5 86 L 184 57.5 L 185 50.5 L 184 48 L 180 45.5 L 180 44 Z " /><path fill="rgb(185,202,213)" stroke="rgb(185,202,213)" stroke-width="1" opacity="0.2" d="M 126.5 99 L 127 105.5 L 126 108 L 121 109 Q 122.3 112.3 117.5 111 L 115 112 L 115 113.5 L 106.5 122 Q 104.3 121.3 105 123.5 L 102 125 L 100.5 128 Q 98.3 127.3 99 129.5 L 96 131 L 94.5 134 Q 92.3 133.3 93 135.5 L 90 137 L 82.5 146 Q 80.3 146.8 81 144.5 L 115.5 110 L 118.5 110 L 126 103.5 L 126.5 99 Z " /><path fill="rgb(185,202,213)" stroke="rgb(185,202,213)" stroke-width="1" opacity="0.2" d="M 55.5 123 L 56 124.5 L 53 126 Q 54.1 128.7 51.5 128 L 49 132 L 46 133.5 Q 46.8 135.8 44.5 135 L 43 138 L 40 139.5 L 37 151.5 L 34 156.5 L 33 166.5 L 36.5 169 L 46.5 164 L 60.5 160 L 70 152.5 L 73.5 147 Q 75.8 147.8 75 145.5 L 77 146.5 L 76 149 L 73 150.5 Q 73.7 153.1 71 152 L 71 154.5 L 68 156 Q 69.3 159 65.5 158 L 64 161 L 55 162 Q 56.3 165 52.5 164 L 46.5 167 L 40 168 Q 41.1 171.5 33.5 170 Q 29.8 167.8 31 160.5 L 40.5 136 Q 42.8 136.8 42 134.5 L 45 133 L 46.5 130 Q 48.8 130.8 48 128.5 L 51 127 L 52.5 124 L 55.5 123 Z " /><path fill="rgb(2,117,186)" stroke="rgb(2,117,186)" stroke-width="1" opacity="0.996078431372549" d="M 163.5 16 Q 170 14.5 171.5 18 L 175 17 L 176.5 20 Q 178.8 19.3 178 21.5 Q 182.8 22.9 182 28 L 184 28.5 L 184 39 Q 181 37.8 182 41.5 L 178.5 43 L 158 22.5 L 157 20.5 L 159.5 17 L 161.5 18 L 163.5 16 Z " /><path fill="rgb(2,117,186)" stroke="rgb(2,117,186)" stroke-width="1" opacity="0.996078431372549" d="M 144.5 32 L 147.5 32 L 157.5 42 L 159 42 L 166.5 51 Q 169.1 50.2 168 53.5 L 154.5 67 L 153 67 L 151.5 70 Q 149.3 69.3 150 71.5 L 147 73 L 144 77.5 L 144 80.5 L 126.5 98 L 124.5 98 L 102 75.5 L 104.5 72 Q 106.8 72.8 106 70.5 L 109 69 L 110.5 66 Q 112.8 66.8 112 64.5 L 115 63 L 116.5 60 Q 118.8 60.8 118 58.5 L 121 57 L 123.5 53 Q 125.8 53.8 125 51.5 L 128 50 L 129.5 47 Q 131.8 47.8 131 45.5 L 134 44 L 135.5 41 Q 137.8 41.8 137 39.5 L 140 38 L 141.5 35 Q 143.8 35.8 143 33.5 L 144.5 32 Z " /><path fill="rgb(2,117,186)" stroke="rgb(2,117,186)" stroke-width="1" opacity="0.996078431372549" d="M 90.5 86 L 92.5 86 L 115 108.5 L 79.5 145 L 76 143.5 L 57.5 123 L 54 122.5 L 56 122 Q 54.5 118.3 57.5 119 L 62 113 L 63.5 113 L 90.5 86 Z " /><path fill="rgb(211,211,211)" stroke="rgb(211,211,211)" stroke-width="1" opacity="0.9725490196078431" d="M 151.5 21 L 156.5 22 L 182.5 48 L 184 48 L 185 54.5 L 184 57.5 L 155.5 86 Q 146 88 144 82.5 L 147.5 75 Q 149.8 75.8 149 73.5 L 152 72 L 153.5 69 Q 155.8 69.8 155 67.5 L 159 64.5 Q 158.3 62.3 160.5 63 L 162 60 L 165 58.5 Q 164.3 56.3 166.5 57 L 169 51.5 L 149 32.5 Q 145.6 29.7 147 23 L 151.5 21 Z " /><path fill="rgb(211,211,211)" stroke="rgb(211,211,211)" stroke-width="1" opacity="0.9725490196078431" d="M 96.5 75 L 100.5 75 L 126 100.5 L 126 103.5 L 121.5 108 L 117.5 110 L 114 105 L 111 103.5 Q 111.8 101.3 109.5 102 L 108 99 L 105 97.5 Q 105.8 95.3 103.5 96 L 102 93 L 99 91.5 Q 99.8 89.3 97.5 90 L 96 87 L 93 85.5 Q 93.7 82.9 91 84 L 91 80.5 L 94 76 L 96.5 75 Z " /><path fill="rgb(211,211,211)" stroke="rgb(211,211,211)" stroke-width="1" opacity="0.9725490196078431" d="M 55.5 125 L 59 126 L 59 127.5 L 76 144.5 L 75 147 L 72 148.5 L 65.5 157 Q 61 156.5 60.5 160 L 54.5 161 L 35.5 169 Q 31.5 167.5 33 160.5 L 41.5 138 Q 43.8 138.8 43 136.5 L 46 135 L 47.5 132 Q 49.8 132.8 49 130.5 L 53 128 Q 51.9 125.3 54.5 126 L 55.5 125 Z M 54 138 L 48 140 Q 46 143 47 150 L 54 154 L 57 153 L 59 153 Q 58 150 61 151 Q 64 149 62 143 Q 60 138 54 138 Z " /></svg>