<svg width="200" height="200" version="1.1" xmlns="http://www.w3.org/2000/svg" desc="Created with imagetracer.js version 1.2.6" ><path fill="rgb(172,86,53)" stroke="rgb(172,86,53)" stroke-width="1" opacity="0.996078431372549" d="M 183.5 56 L 184 60.5 L 183 60.5 L 183.5 56 Z " /><path fill="rgb(172,86,53)" stroke="rgb(172,86,53)" stroke-width="1" opacity="0.996078431372549" d="M 58.5 83 L 72.5 83 L 73 87 L 61.5 87 Q 58.5 89.8 53 89 L 53 84 L 57.5 84 L 58.5 83 Z " /><path fill="rgb(172,86,53)" stroke="rgb(172,86,53)" stroke-width="1" opacity="0.996078431372549" d="M 120.5 83 L 134.5 83 L 140 86.5 L 138.5 89 Q 133.2 89.8 131.5 87 L 120.5 87 L 119 85.5 L 120.5 83 Z " /><path fill="rgb(172,86,53)" stroke="rgb(172,86,53)" stroke-width="1" opacity="0.996078431372549" d="M 66.5 100 L 71.5 100 L 77 102 L 77 104 Q 79.7 102.9 79 105.5 Q 83.5 108.3 82 116 Q 76 119.6 63.5 118 L 56 116 L 56 111.5 L 62.5 102 L 66.5 100 Z M 63 106 Q 61 112 66 110 Q 68 104 63 106 Z M 69 107 L 69 109 Q 68 112 63 111 L 63 115 L 75 115 L 75 109 Q 72 110 73 107 L 69 107 Z " /><path fill="rgb(172,86,53)" stroke="rgb(172,86,53)" stroke-width="1" opacity="0.996078431372549" d="M 123.5 100 L 129.5 100 L 137 105.5 L 137 107 L 139 107.5 L 139 115.5 Q 132.7 120.2 119.5 118 L 114 115.5 L 114 108.5 L 119.5 102 L 123.5 100 Z M 121 106 L 123 110 L 124 108 L 121 106 Z M 125 107 Q 127 113 120 111 L 121 115 L 133 115 L 132 111 Q 133 108 130 109 L 130 107 L 125 107 Z " /><path fill="rgb(172,86,53)" stroke="rgb(172,86,53)" stroke-width="1" opacity="0.996078431372549" d="M 166.5 132 L 169 132.5 L 166.5 133 L 166.5 132 Z " /><path fill="rgb(172,86,53)" stroke="rgb(172,86,53)" stroke-width="1" opacity="0.996078431372549" d="M 118.5 141 L 121 142 L 121 146 Q 118.3 144.9 119 147.5 L 114 151 L 114 153 Q 109.9 151.7 111 155 L 107.5 155 L 104.5 157 Q 99 155.5 97.5 158 Q 96 155.5 90.5 157 L 82 153 Q 83.1 150.3 80.5 151 L 77 146 Q 73.3 147.2 75 142 L 80.5 142 L 88.5 146 L 106.5 146 L 118.5 141 Z " /><path fill="rgb(172,86,53)" stroke="rgb(172,86,53)" stroke-width="1" opacity="0.996078431372549" d="M 95.5 192 L 100 192.5 L 95.5 193 L 95.5 192 Z " /><path fill="rgb(241,161,30)" stroke="rgb(241,161,30)" stroke-width="1" opacity="0.996078431372549" d="M 81.5 9 Q 84.1 8.3 83 11 L 78.5 11 Q 79.5 14 74.5 13 L 73 16 Q 70 15 71 18 L 67.5 18 L 67.5 17 L 74.5 12 L 77 12 Q 75.7 8.7 80.5 10 L 81.5 9 Z " /><path fill="rgb(241,161,30)" stroke="rgb(241,161,30)" stroke-width="1" opacity="0.996078431372549" d="M 96 9 L 105 12 L 104.5 14 Q 102.2 9.9 96 11 L 96 9 Z " /><path fill="rgb(241,161,30)" stroke="rgb(241,161,30)" stroke-width="1" opacity="0.996078431372549" d="M 123.5 9 L 124 11 L 120 11 Q 121.3 14 117.5 13 L 114.5 14 L 114.5 13 L 118 12 Q 116.7 8.3 122.5 10 L 123.5 9 Z " /><path fill="rgb(241,161,30)" stroke="rgb(241,161,30)" stroke-width="1" opacity="0.996078431372549" d="M 136 9 L 142.5 10 L 147 13.5 L 145.5 14 L 140.5 11 L 136 11 L 136 9 Z " /><path fill="rgb(241,161,30)" stroke="rgb(241,161,30)" stroke-width="1" opacity="0.996078431372549" d="M 108 14 L 113 14 L 113 16 L 108 16 L 108 14 Z " /><path fill="rgb(241,161,30)" stroke="rgb(241,161,30)" stroke-width="1" opacity="0.996078431372549" d="M 150.5 16 L 154 20.5 L 152 21 L 152 18 Q 148.8 19 150.5 16 Z " /><path fill="rgb(241,161,30)" stroke="rgb(241,161,30)" stroke-width="1" opacity="0.996078431372549" d="M 65 19 L 67 19.5 L 66 22 L 59.5 23 L 60.5 21 Q 66.3 22.7 65 19 Z " /><path fill="rgb(241,161,30)" stroke="rgb(241,161,30)" stroke-width="1" opacity="0.996078431372549" d="M 54.5 23 Q 58.3 22 57 25 Q 51.5 23.8 50 27.5 Q 50.9 30.5 46.5 29 L 45 29.5 Q 44.3 27.3 46.5 28 L 54.5 23 Z " /><path fill="rgb(241,161,30)" stroke="rgb(241,161,30)" stroke-width="1" opacity="0.996078431372549" d="M 156.5 26 Q 158.8 25.3 158 27.5 L 156.5 26 Z " /><path fill="rgb(241,161,30)" stroke="rgb(241,161,30)" stroke-width="1" opacity="0.996078431372549" d="M 42 31 L 44 31.5 L 43 34 L 41 34 Q 42.1 36.7 39.5 36 L 40 34.5 Q 39.3 31.9 42 33 L 42 31 Z " /><path fill="rgb(241,161,30)" stroke="rgb(241,161,30)" stroke-width="1" opacity="0.996078431372549" d="M 163.5 33 L 169 35 L 168.5 37 Q 163.9 36.3 163.5 33 Z " /><path fill="rgb(241,161,30)" stroke="rgb(241,161,30)" stroke-width="1" opacity="0.996078431372549" d="M 37 37 Q 40 36 39 39 Q 36 40 37 37 Z " /><path fill="rgb(241,161,30)" stroke="rgb(241,161,30)" stroke-width="1" opacity="0.996078431372549" d="M 171.5 37 L 174.5 41 Q 172.3 41.8 173 39.5 L 171.5 37 Z " /><path fill="rgb(241,161,30)" stroke="rgb(241,161,30)" stroke-width="1" opacity="0.996078431372549" d="M 35 40 L 37 40.5 L 36 44 L 34 44 L 34 48 L 32.5 48 L 33 46.5 L 33 43.5 L 35 40 Z " /><path fill="rgb(241,161,30)" stroke="rgb(241,161,30)" stroke-width="1" opacity="0.996078431372549" d="M 177.5 45 L 179 49 L 181 49.5 L 181 66.5 L 177.5 72 L 177 69.5 L 180 65.5 L 180 50.5 L 177.5 45 Z " /><path fill="rgb(241,161,30)" stroke="rgb(241,161,30)" stroke-width="1" opacity="0.996078431372549" d="M 31.5 49 L 32 52 Q 29.3 53.1 30 50.5 L 31.5 49 Z " /><path fill="rgb(241,161,30)" stroke="rgb(241,161,30)" stroke-width="1" opacity="0.996078431372549" d="M 29.5 54 L 30 58.5 L 29 59.5 L 29 69.5 L 27 71.5 L 26.5 92 L 26 68.5 L 25 65 L 28 65 L 28 56.5 L 29.5 54 Z " /><path fill="rgb(241,161,30)" stroke="rgb(241,161,30)" stroke-width="1" opacity="0.996078431372549" d="M 175.5 73 L 176 74.5 Q 173.3 75.6 174 79 Q 171 77.8 172 81.5 L 170.5 84 L 170 80.5 L 171 78 L 173 78 L 173 74 L 174.5 74 L 175.5 73 Z " /><path fill="rgb(241,161,30)" stroke="rgb(241,161,30)" stroke-width="1" opacity="1" d="M 83 9 L 95.5 9 Q 94.5 12.3 100.5 11 Q 102.6 14.9 108 14 L 108 16 L 113 16 Q 111.7 12.7 116.5 14 L 120 13 L 120 11 Q 125.3 12.3 124.5 9 L 136 9 Q 134.7 12.7 140.5 11 Q 142.7 14.5 148 14 L 148 16 L 152 18 L 152 21 L 156 23 L 156 26.5 L 159 28 L 161.5 32 Q 163.8 31.3 163 33.5 L 173 39.5 Q 172.3 41.8 174.5 41 L 180 50.5 L 180 65.5 Q 176.1 67.6 177 73 L 173 74 L 173 78 Q 170.3 76.9 171 79.5 L 170 80.5 L 170 94.5 L 171 95.5 L 171 103.5 L 169 111 L 164 112 L 164 102.5 L 165 101.5 L 165 86.5 Q 163.8 78.2 157.5 75 L 152.5 73 L 115.5 73 L 114.5 72 L 105.5 72 L 91 65 L 91 63 L 88 63 L 88 61 L 86 61 L 86 59 Q 83.3 60.1 84 57.5 L 80.5 55 L 79 56.5 L 79 70 L 77 70 Q 78.1 72.7 75.5 72 L 72.5 73 Q 71 70.5 65.5 72 L 54 65 L 51 58.5 L 47.5 55 L 45 57.5 L 42 68 Q 39.3 66.9 40 69.5 L 33 78.5 L 31 86.5 L 31 112 L 26 108.5 L 27 71.5 L 29 69.5 L 30 52 L 32 52 L 32 48 L 34 48 L 34 44 Q 37 45.3 36 41.5 L 37 39 L 39 39 L 39 36 L 41 36 L 41 34 Q 43.7 35.1 43 32.5 L 44 30 L 50 29 L 52.5 25 L 56.5 25 Q 55.5 21.8 61.5 23 L 66 22 L 67 18 L 71 18 L 71 16 Q 73.7 17.1 73 14.5 Q 74.2 12 78 13 L 78 11 L 83 11 L 83 9 Z " /><path fill="rgb(241,161,30)" stroke="rgb(241,161,30)" stroke-width="1" opacity="1" d="M 63.5 81 L 74 82 L 74 87.5 L 72.5 88 L 70.5 89 Q 69 86.5 63.5 88 Q 60.2 90.7 53.5 90 L 51 86.5 L 52.5 84 L 53 89 Q 58.5 89.8 61.5 87 L 73 87 L 72.5 83 L 58.5 83 L 54.5 84 L 54.5 83 L 63.5 81 Z " /><path fill="rgb(241,161,30)" stroke="rgb(241,161,30)" stroke-width="1" opacity="1" d="M 123.5 81 L 136.5 82 Q 137.6 84.8 141 84 L 141 89 L 139.5 89 Q 138.3 91.3 133.5 90 L 123.5 88 L 121.5 89 L 118 88 Q 116.8 83.4 119.5 82 L 123.5 81 Z M 121 83 L 119 86 L 121 87 L 132 87 Q 133 90 139 89 L 140 87 L 135 83 L 121 83 Z " /><path fill="rgb(241,161,30)" stroke="rgb(241,161,30)" stroke-width="1" opacity="1" d="M 80.5 116 L 79.5 118 L 77 117.5 L 80.5 116 Z " /><path fill="rgb(241,161,30)" stroke="rgb(241,161,30)" stroke-width="1" opacity="1" d="M 114.5 116 L 119 117.5 L 115.5 118 L 114.5 116 Z " /><path fill="rgb(241,161,30)" stroke="rgb(241,161,30)" stroke-width="1" opacity="1" d="M 138.5 116 L 137.5 118 L 134 117.5 L 138.5 116 Z " /><path fill="rgb(241,161,30)" stroke="rgb(241,161,30)" stroke-width="1" opacity="1" d="M 58.5 117 L 63 117.5 L 58.5 118 L 58.5 117 Z " /><path fill="rgb(241,161,30)" stroke="rgb(241,161,30)" stroke-width="1" opacity="1" d="M 91.5 125 Q 103.8 123.1 109 127 L 109 133.5 L 107.5 134 L 101.5 139 L 93 139 Q 94.3 136 90.5 137 L 86 131.5 L 86 129.5 L 88 126 L 91.5 125 Z " /><path fill="rgb(241,161,30)" stroke="rgb(241,161,30)" stroke-width="1" opacity="1" d="M 118.5 140 L 119.5 142 L 117 141.5 L 118.5 140 Z " /><path fill="rgb(241,161,30)" stroke="rgb(241,161,30)" stroke-width="1" opacity="1" d="M 75.5 141 L 79 141.5 L 75.5 142 L 75.5 141 Z " /><path fill="rgb(241,161,30)" stroke="rgb(241,161,30)" stroke-width="1" opacity="1" d="M 81.5 142 L 82.5 144 L 81.5 142 Z " /><path fill="rgb(241,161,30)" stroke="rgb(241,161,30)" stroke-width="1" opacity="1" d="M 112 142 L 114 142.5 L 112 143.5 L 112 142 Z " /><path fill="rgb(241,161,30)" stroke="rgb(241,161,30)" stroke-width="1" opacity="1" d="M 87.5 144 L 90 145.5 L 88.5 146 L 87.5 144 Z " /><path fill="rgb(241,161,30)" stroke="rgb(241,161,30)" stroke-width="1" opacity="1" d="M 106.5 144 L 109 144.5 L 105.5 146 L 106.5 144 Z " /><path fill="rgb(241,161,30)" stroke="rgb(241,161,30)" stroke-width="1" opacity="1" d="M 77.5 148 L 82 151 L 81.5 153 L 77.5 148 Z " /><path fill="rgb(241,161,30)" stroke="rgb(241,161,30)" stroke-width="1" opacity="1" d="M 117.5 149 L 115.5 152 L 114 151.5 L 117.5 149 Z " /><path fill="rgb(241,161,30)" stroke="rgb(241,161,30)" stroke-width="1" opacity="1" d="M 87.5 155 L 90 156.5 L 88.5 157 L 87.5 155 Z " /><path fill="rgb(241,161,30)" stroke="rgb(241,161,30)" stroke-width="1" opacity="1" d="M 107.5 155 L 109 155.5 L 105.5 157 L 105.5 156 L 107.5 155 Z " /><path fill="rgb(241,161,30)" stroke="rgb(241,161,30)" stroke-width="1" opacity="1" d="M 93.5 157 L 97 157.5 L 93.5 158 L 93.5 157 Z " /><path fill="rgb(241,161,30)" stroke="rgb(241,161,30)" stroke-width="1" opacity="1" d="M 98.5 157 L 102 157.5 L 98.5 158 L 98.5 157 Z " /><path fill="rgb(250,208,111)" stroke="rgb(250,208,111)" stroke-width="1" opacity="0.9019607843137255" d="M 85.5 7 L 94 7.5 L 85.5 8 L 85.5 7 Z " /><path fill="rgb(250,208,111)" stroke="rgb(250,208,111)" stroke-width="1" opacity="0.9019607843137255" d="M 125.5 7 L 135 7.5 L 125.5 8 L 125.5 7 Z " /><path fill="rgb(250,208,111)" stroke="rgb(250,208,111)" stroke-width="1" opacity="0.9019607843137255" d="M 79.5 8 L 82 8.5 L 78.5 10 L 79.5 8 Z " /><path fill="rgb(250,208,111)" stroke="rgb(250,208,111)" stroke-width="1" opacity="0.9019607843137255" d="M 97.5 8 Q 101.3 7 100 10 L 97.5 8 Z " /><path fill="rgb(250,208,111)" stroke="rgb(250,208,111)" stroke-width="1" opacity="0.9019607843137255" d="M 121.5 8 L 123 8.5 L 120.5 10 L 121.5 8 Z " /><path fill="rgb(250,208,111)" stroke="rgb(250,208,111)" stroke-width="1" opacity="0.9019607843137255" d="M 140.5 8 L 141.5 10 Q 138.7 10.7 140.5 8 Z " /><path fill="rgb(250,208,111)" stroke="rgb(250,208,111)" stroke-width="1" opacity="0.9019607843137255" d="M 75.5 10 L 76 12 L 74 11.5 L 75.5 10 Z " /><path fill="rgb(250,208,111)" stroke="rgb(250,208,111)" stroke-width="1" opacity="0.9019607843137255" d="M 102.5 10 Q 106 14 114 13.5 L 106.5 14 L 102.5 10 Z " /><path fill="rgb(250,208,111)" stroke="rgb(250,208,111)" stroke-width="1" opacity="0.9019607843137255" d="M 116 10 Q 119 9 118 12 Q 115 13 116 10 Z " /><path fill="rgb(250,208,111)" stroke="rgb(250,208,111)" stroke-width="1" opacity="0.9019607843137255" d="M 144.5 10 L 145.5 12 Q 142.7 12.7 144.5 10 Z " /><path fill="rgb(250,208,111)" stroke="rgb(250,208,111)" stroke-width="1" opacity="0.9019607843137255" d="M 72.5 12 L 71.5 14 L 72.5 12 Z " /><path fill="rgb(250,208,111)" stroke="rgb(250,208,111)" stroke-width="1" opacity="0.9019607843137255" d="M 147.5 12 L 151.5 17 L 147.5 12 Z " /><path fill="rgb(250,208,111)" stroke="rgb(250,208,111)" stroke-width="1" opacity="0.9019607843137255" d="M 66.5 17 L 67 19 L 65 18.5 L 66.5 17 Z " /><path fill="rgb(250,208,111)" stroke="rgb(250,208,111)" stroke-width="1" opacity="0.9019607843137255" d="M 153.5 18 L 158 24.5 L 156 23.5 L 153.5 18 Z " /><path fill="rgb(250,208,111)" stroke="rgb(250,208,111)" stroke-width="1" opacity="0.9019607843137255" d="M 63.5 19 L 62.5 21 L 61 20.5 L 63.5 19 Z " /><path fill="rgb(250,208,111)" stroke="rgb(250,208,111)" stroke-width="1" opacity="0.9019607843137255" d="M 53.5 22 L 56 22.5 L 52.5 24 L 53.5 22 Z " /><path fill="rgb(250,208,111)" stroke="rgb(250,208,111)" stroke-width="1" opacity="0.9019607843137255" d="M 49 24 L 51 24.5 L 49 25.5 L 49 24 Z " /><path fill="rgb(250,208,111)" stroke="rgb(250,208,111)" stroke-width="1" opacity="0.9019607843137255" d="M 158 26 Q 161 25 160 28 Q 157 29 158 26 Z " /><path fill="rgb(250,208,111)" stroke="rgb(250,208,111)" stroke-width="1" opacity="0.9019607843137255" d="M 45.5 27 L 47 27.5 L 42 31.5 L 42 33 L 40 33 Q 41.1 35.7 38.5 35 L 40 32.5 Q 39.3 30.3 41.5 31 L 45.5 27 Z " /><path fill="rgb(250,208,111)" stroke="rgb(250,208,111)" stroke-width="1" opacity="0.9019607843137255" d="M 160.5 29 Q 162.8 28.3 162 30.5 L 160.5 29 Z " /><path fill="rgb(250,208,111)" stroke="rgb(250,208,111)" stroke-width="1" opacity="0.9019607843137255" d="M 163.5 31 L 164.5 33 L 163.5 31 Z " /><path fill="rgb(250,208,111)" stroke="rgb(250,208,111)" stroke-width="1" opacity="0.9019607843137255" d="M 167.5 34 L 173 37.5 L 171.5 37 Q 166.8 36.2 167.5 34 Z " /><path fill="rgb(250,208,111)" stroke="rgb(250,208,111)" stroke-width="1" opacity="0.9019607843137255" d="M 37.5 36 L 36 38.5 L 35 42 L 33 41.5 L 37.5 36 Z " /><path fill="rgb(250,208,111)" stroke="rgb(250,208,111)" stroke-width="1" opacity="0.9019607843137255" d="M 176.5 41 L 181 48.5 L 180 48.5 L 176.5 41 Z " /><path fill="rgb(250,208,111)" stroke="rgb(250,208,111)" stroke-width="1" opacity="0.9019607843137255" d="M 32.5 44 L 33 45.5 L 31 46.5 L 32.5 44 Z " /><path fill="rgb(250,208,111)" stroke="rgb(250,208,111)" stroke-width="1" opacity="0.9019607843137255" d="M 30.5 48 L 30 49.5 Q 30.6 54.6 27.5 56 L 27 54.5 L 30.5 48 Z " /><path fill="rgb(250,208,111)" stroke="rgb(250,208,111)" stroke-width="1" opacity="0.9019607843137255" d="M 181.5 50 L 183 52.5 L 183 60.5 L 184 61.5 L 181.5 65 L 181 61.5 L 182 56.5 Q 179.4 54.9 181.5 50 Z " /><path fill="rgb(250,208,111)" stroke="rgb(250,208,111)" stroke-width="1" opacity="0.9019607843137255" d="M 27.5 57 L 28 59.5 L 25.5 65 L 25 61.5 L 27.5 57 Z " /><path fill="rgb(250,208,111)" stroke="rgb(250,208,111)" stroke-width="1" opacity="0.9019607843137255" d="M 179 68 L 181 68.5 L 179 69.5 L 179 68 Z " /><path fill="rgb(250,208,111)" stroke="rgb(250,208,111)" stroke-width="1" opacity="0.9019607843137255" d="M 25.5 71 L 26 91.5 L 23.5 93 L 25 90.5 L 25.5 71 Z " /><path fill="rgb(250,208,111)" stroke="rgb(250,208,111)" stroke-width="1" opacity="0.9019607843137255" d="M 177.5 73 L 176.5 75 L 177.5 73 Z " /><path fill="rgb(250,208,111)" stroke="rgb(250,208,111)" stroke-width="1" opacity="0.9019607843137255" d="M 173.5 79 L 172.5 81 L 173.5 79 Z " /><path fill="rgb(250,208,111)" stroke="rgb(250,208,111)" stroke-width="1" opacity="0.9019607843137255" d="M 171 83 L 173 83.5 L 171 90.5 L 172.5 93 Q 170.3 93.8 171 91.5 L 170 86.5 L 171 83 Z " /><path fill="rgb(250,208,111)" stroke="rgb(250,208,111)" stroke-width="1" opacity="0.9019607843137255" d="M 21.5 93 L 20.5 95 L 21.5 93 Z " /><path fill="rgb(250,208,111)" stroke="rgb(250,208,111)" stroke-width="1" opacity="0.9019607843137255" d="M 174.5 93 L 180 99.5 L 179 99.5 L 175.5 95 Q 172.7 95.7 174.5 93 Z " /><path fill="rgb(250,208,111)" stroke="rgb(250,208,111)" stroke-width="1" opacity="0.9019607843137255" d="M 59.5 96 L 72.5 96 Q 73.6 98.8 77 98 Q 78.1 100.7 75.5 100 L 75.5 102 L 72 100.5 L 75 99.5 Q 71.1 95.9 62.5 97 L 55.5 100 L 56.5 98 L 59.5 96 Z " /><path fill="rgb(250,208,111)" stroke="rgb(250,208,111)" stroke-width="1" opacity="0.9019607843137255" d="M 123.5 96 L 136.5 96 Q 135.7 99.3 141 98 L 141 100 L 133.5 97 L 126.5 97 L 121.5 98 L 119.5 100 L 119 98 L 123.5 96 Z " /><path fill="rgb(250,208,111)" stroke="rgb(250,208,111)" stroke-width="1" opacity="0.9019607843137255" d="M 16.5 98 L 17 99.5 L 15 100.5 L 16.5 98 Z " /><path fill="rgb(250,208,111)" stroke="rgb(250,208,111)" stroke-width="1" opacity="0.9019607843137255" d="M 52 100 Q 55 99 54 102 Q 51.3 100.9 52 103.5 Q 48.3 104.8 49 109 Q 46.3 110.1 47 107.5 L 52 100 Z " /><path fill="rgb(250,208,111)" stroke="rgb(250,208,111)" stroke-width="1" opacity="0.9019607843137255" d="M 64.5 100 L 66 100.5 L 63.5 102 L 64.5 100 Z " /><path fill="rgb(250,208,111)" stroke="rgb(250,208,111)" stroke-width="1" opacity="0.9019607843137255" d="M 78.5 100 L 81 101.5 L 86 108.5 L 86 111 Q 82.7 112.3 84 107.5 L 82 104 Q 79.3 105.1 80 102.5 L 78.5 100 Z " /><path fill="rgb(250,208,111)" stroke="rgb(250,208,111)" stroke-width="1" opacity="0.9019607843137255" d="M 116.5 100 Q 119.1 99.3 118 102 Q 115.3 100.9 116 103.5 L 118 103.5 Q 116.8 106.3 115.5 104 L 113 105.5 Q 109.8 109 111 116 Q 114.7 117.3 113 111.5 L 114 111.5 Q 115.5 118.5 112.5 118 L 109 116 L 110 107 Q 113 108.3 112 104.5 L 116.5 100 Z " /><path fill="rgb(250,208,111)" stroke="rgb(250,208,111)" stroke-width="1" opacity="0.9019607843137255" d="M 121.5 100 L 123 100.5 L 120.5 102 L 121.5 100 Z " /><path fill="rgb(250,208,111)" stroke="rgb(250,208,111)" stroke-width="1" opacity="0.9019607843137255" d="M 130.5 100 L 133 101.5 L 131.5 101 L 130.5 100 Z " /><path fill="rgb(250,208,111)" stroke="rgb(250,208,111)" stroke-width="1" opacity="0.9019607843137255" d="M 142.5 100 L 143.5 102 Q 140.7 102.7 142.5 100 Z " /><path fill="rgb(250,208,111)" stroke="rgb(250,208,111)" stroke-width="1" opacity="0.9019607843137255" d="M 14.5 102 L 14 103.5 L 13 112.5 L 14 117.5 L 13 117.5 L 11 109.5 L 14.5 102 Z " /><path fill="rgb(250,208,111)" stroke="rgb(250,208,111)" stroke-width="1" opacity="0.9019607843137255" d="M 61.5 102 L 58.5 106 L 59 104.5 Q 58.3 102.3 60.5 103 L 61.5 102 Z " /><path fill="rgb(250,208,111)" stroke="rgb(250,208,111)" stroke-width="1" opacity="0.9019607843137255" d="M 134.5 102 L 136.5 105 L 134.5 102 Z " /><path fill="rgb(250,208,111)" stroke="rgb(250,208,111)" stroke-width="1" opacity="0.9019607843137255" d="M 181.5 102 L 183 104.5 L 181 103.5 L 181.5 102 Z " /><path fill="rgb(250,208,111)" stroke="rgb(250,208,111)" stroke-width="1" opacity="0.9019607843137255" d="M 144.5 103 Q 147.1 102.3 146 105 L 148 105 L 148 107.5 Q 151.8 109.4 150 116 Q 146.6 115.3 145.5 118 L 139 118 L 139.5 111 L 141 113.5 L 140 116 Q 147.1 117.7 149 113.5 L 144.5 103 Z " /><path fill="rgb(250,208,111)" stroke="rgb(250,208,111)" stroke-width="1" opacity="0.9019607843137255" d="M 80.5 105 Q 84 108.5 83.5 116 L 86.5 112 L 87 113.5 L 86 116 L 84 116 Q 85.1 118.7 82.5 118 Q 79.8 116.8 82 115.5 L 82 109.5 L 80.5 105 Z " /><path fill="rgb(250,208,111)" stroke="rgb(250,208,111)" stroke-width="1" opacity="0.9019607843137255" d="M 63.5 106 L 66 106.5 L 63.5 107 L 63.5 106 Z " /><path fill="rgb(250,208,111)" stroke="rgb(250,208,111)" stroke-width="1" opacity="0.9019607843137255" d="M 57.5 107 L 58 108.5 L 56.5 111 L 56 109.5 L 57.5 107 Z " /><path fill="rgb(250,208,111)" stroke="rgb(250,208,111)" stroke-width="1" opacity="0.9019607843137255" d="M 63.5 109 L 66 109.5 L 63.5 110 L 63.5 109 Z " /><path fill="rgb(250,208,111)" stroke="rgb(250,208,111)" stroke-width="1" opacity="0.9019607843137255" d="M 45 111 Q 48.3 109.9 47 114 Q 43.7 115.1 45 111 Z " /><path fill="rgb(250,208,111)" stroke="rgb(250,208,111)" stroke-width="1" opacity="0.9019607843137255" d="M 47.5 115 L 58 116.5 L 56.5 118 L 49 118 Q 50.1 115.3 47.5 116 L 47.5 115 Z " /><path fill="rgb(250,208,111)" stroke="rgb(250,208,111)" stroke-width="1" opacity="0.9019607843137255" d="M 182.5 117 L 184 117.5 L 181.5 119 L 182.5 117 Z " /><path fill="rgb(250,208,111)" stroke="rgb(250,208,111)" stroke-width="1" opacity="0.9019607843137255" d="M 180.5 121 L 181 123 L 179 122.5 L 180.5 121 Z " /><path fill="rgb(250,208,111)" stroke="rgb(250,208,111)" stroke-width="1" opacity="0.9019607843137255" d="M 17.5 124 L 20.5 128 L 17.5 124 Z " /><path fill="rgb(250,208,111)" stroke="rgb(250,208,111)" stroke-width="1" opacity="0.9019607843137255" d="M 178.5 124 L 177.5 126 L 178.5 124 Z " /><path fill="rgb(250,208,111)" stroke="rgb(250,208,111)" stroke-width="1" opacity="0.9019607843137255" d="M 174.5 127 L 176 127.5 L 174 128 Q 175 131 172 130 Q 170.9 127.3 173.5 128 L 174.5 127 Z " /><path fill="rgb(250,208,111)" stroke="rgb(250,208,111)" stroke-width="1" opacity="0.9019607843137255" d="M 22.5 128 L 23.5 130 L 22.5 128 Z " /><path fill="rgb(250,208,111)" stroke="rgb(250,208,111)" stroke-width="1" opacity="0.9019607843137255" d="M 26 130 Q 29 129 28 132 Q 25 133 26 130 Z " /><path fill="rgb(250,208,111)" stroke="rgb(250,208,111)" stroke-width="1" opacity="0.9019607843137255" d="M 168 130 L 170 130.5 L 168 131.5 L 168 130 Z " /><path fill="rgb(250,208,111)" stroke="rgb(250,208,111)" stroke-width="1" opacity="0.9019607843137255" d="M 162.5 132 L 163 134.5 Q 160.3 136.3 162 142.5 L 160.5 144 L 160 141.5 L 162.5 132 Z " /><path fill="rgb(250,208,111)" stroke="rgb(250,208,111)" stroke-width="1" opacity="0.9019607843137255" d="M 33.5 133 Q 36.8 134.8 35 141.5 L 34 141.5 Q 31.7 138.6 33.5 133 Z " /><path fill="rgb(250,208,111)" stroke="rgb(250,208,111)" stroke-width="1" opacity="0.9019607843137255" d="M 35.5 143 L 40 155 Q 36.7 156.3 38 151.5 L 35 145.5 L 35.5 143 Z " /><path fill="rgb(250,208,111)" stroke="rgb(250,208,111)" stroke-width="1" opacity="0.9019607843137255" d="M 159.5 146 L 160 148.5 L 158 149.5 L 159.5 146 Z " /><path fill="rgb(250,208,111)" stroke="rgb(250,208,111)" stroke-width="1" opacity="0.9019607843137255" d="M 157.5 151 L 158 152.5 L 156.5 155 L 156 153.5 L 157.5 151 Z " /><path fill="rgb(250,208,111)" stroke="rgb(250,208,111)" stroke-width="1" opacity="0.9019607843137255" d="M 155.5 156 L 155 157.5 Q 156.1 160.8 153.5 160 L 154 158.5 L 155.5 156 Z " /><path fill="rgb(250,208,111)" stroke="rgb(250,208,111)" stroke-width="1" opacity="0.9019607843137255" d="M 40.5 157 L 49 168.5 L 47 169 L 40 158.5 L 40.5 157 Z " /><path fill="rgb(250,208,111)" stroke="rgb(250,208,111)" stroke-width="1" opacity="0.9019607843137255" d="M 152.5 161 L 153 162.5 L 151 163.5 L 152.5 161 Z " /><path fill="rgb(250,208,111)" stroke="rgb(250,208,111)" stroke-width="1" opacity="0.9019607843137255" d="M 149 165 L 151 165.5 L 146 172 L 144 172 Q 145.1 174.7 142.5 174 L 140 175.5 L 140 174 L 142 174 L 142 172 L 144 172 Q 142.9 169.3 145.5 170 L 147 167 Q 150 168 149 165 Z " /><path fill="rgb(250,208,111)" stroke="rgb(250,208,111)" stroke-width="1" opacity="0.9019607843137255" d="M 49.5 170 Q 52.1 169.3 51 172 L 53 172 L 53 173.5 L 49.5 170 Z " /><path fill="rgb(250,208,111)" stroke="rgb(250,208,111)" stroke-width="1" opacity="0.9019607843137255" d="M 54 174 L 56 174 Q 54.9 176.7 57.5 176 L 62 179 L 61.5 181 L 54 176 L 54 174 Z " /><path fill="rgb(250,208,111)" stroke="rgb(250,208,111)" stroke-width="1" opacity="0.9019607843137255" d="M 138.5 176 L 139 178 L 130 183 Q 128.8 180 132.5 181 L 138.5 176 Z " /><path fill="rgb(250,208,111)" stroke="rgb(250,208,111)" stroke-width="1" opacity="0.9019607843137255" d="M 63.5 181 L 66 182.5 L 64.5 183 L 63.5 181 Z " /><path fill="rgb(250,208,111)" stroke="rgb(250,208,111)" stroke-width="1" opacity="0.9019607843137255" d="M 67.5 183 L 72.5 186 L 77 186 Q 78.3 189 74.5 188 L 68.5 185 L 67.5 183 Z " /><path fill="rgb(250,208,111)" stroke="rgb(250,208,111)" stroke-width="1" opacity="0.9019607843137255" d="M 127.5 183 L 129 183.5 L 119 188 Q 117.7 184.7 122.5 186 L 127.5 183 Z " /><path fill="rgb(250,208,111)" stroke="rgb(250,208,111)" stroke-width="1" opacity="0.9019607843137255" d="M 79.5 188 Q 83.3 187.3 84 189.5 L 81.5 190 L 79.5 188 Z " /><path fill="rgb(250,208,111)" stroke="rgb(250,208,111)" stroke-width="1" opacity="0.9019607843137255" d="M 113.5 188 L 117 188.5 Q 116.3 190.8 112.5 190 L 113.5 188 Z " /><path fill="rgb(250,208,111)" stroke="rgb(250,208,111)" stroke-width="1" opacity="0.9019607843137255" d="M 87.5 190 L 109 190.5 L 94.5 192 Q 93 189.5 87.5 191 L 87.5 190 Z " /><path fill="rgb(254,199,60)" stroke="rgb(254,199,60)" stroke-width="1" opacity="0.996078431372549" d="M 47.5 56 L 50 59.5 L 46 60 L 47.5 56 Z " /><path fill="rgb(254,199,60)" stroke="rgb(254,199,60)" stroke-width="1" opacity="0.996078431372549" d="M 80 56 L 82 56 L 82 58 Q 84.7 56.9 84 59.5 L 89 63 Q 87.9 65.7 90.5 65 L 91.5 67 L 87 65 Q 88.1 62.3 85.5 63 L 84 60 Q 81.3 61.1 82 58.5 L 81 58.5 Q 83.4 70.4 77.5 74 L 77 72 Q 80.3 73.3 79 68.5 L 80 67.5 L 80 56 Z " /><path fill="rgb(254,199,60)" stroke="rgb(254,199,60)" stroke-width="1" opacity="0.996078431372549" d="M 50.5 61 L 56.5 68 L 68 73.5 L 66.5 74 L 53 67 L 50 62.5 L 50.5 61 Z " /><path fill="rgb(254,199,60)" stroke="rgb(254,199,60)" stroke-width="1" opacity="0.996078431372549" d="M 45.5 63 L 46 65 L 44 64.5 L 45.5 63 Z " /><path fill="rgb(254,199,60)" stroke="rgb(254,199,60)" stroke-width="1" opacity="0.996078431372549" d="M 42 67 Q 44.7 65.9 44 68.5 L 41 73 L 39 73 L 39 76 Q 36.3 74.9 37 77.5 L 34 81.5 L 34 133 L 36 133.5 L 36 141.5 L 37 143.5 L 35 142.5 Q 37 134 32.5 132 L 29 131.5 L 33 131 L 32 113.5 L 33 112.5 L 33 80.5 L 40 70 Q 43.3 71.1 42 67 Z " /><path fill="rgb(254,199,60)" stroke="rgb(254,199,60)" stroke-width="1" opacity="0.996078431372549" d="M 94.5 68 L 102 70 Q 100.6 74 107.5 72 L 108.5 74 L 97.5 71 L 94.5 68 Z " /><path fill="rgb(254,199,60)" stroke="rgb(254,199,60)" stroke-width="1" opacity="0.996078431372549" d="M 151 74 L 155 75.5 L 151 76 L 151 74 Z " /><path fill="rgb(254,199,60)" stroke="rgb(254,199,60)" stroke-width="1" opacity="0.996078431372549" d="M 156.5 76 L 160 77 L 163 82.5 L 161 83 L 158.5 78 Q 154.5 79 156.5 76 Z " /><path fill="rgb(254,199,60)" stroke="rgb(254,199,60)" stroke-width="1" opacity="0.996078431372549" d="M 59.5 80 L 61 80.5 Q 58.9 82.9 53.5 82 L 50.5 84 L 50.5 83 L 53.5 81 Q 58.3 82.3 59.5 80 Z " /><path fill="rgb(254,199,60)" stroke="rgb(254,199,60)" stroke-width="1" opacity="0.996078431372549" d="M 72.5 80 Q 75.1 79.3 74 82 L 76 82 L 76 88 L 74 88 Q 75.1 90.7 72.5 90 L 75 86.5 L 75 83.5 L 72.5 80 Z " /><path fill="rgb(254,199,60)" stroke="rgb(254,199,60)" stroke-width="1" opacity="0.996078431372549" d="M 119.5 80 L 118.5 82 L 117 81.5 L 119.5 80 Z " /><path fill="rgb(254,199,60)" stroke="rgb(254,199,60)" stroke-width="1" opacity="0.996078431372549" d="M 131.5 80 L 138 81.5 L 132.5 82 L 131.5 80 Z " /><path fill="rgb(254,199,60)" stroke="rgb(254,199,60)" stroke-width="1" opacity="0.996078431372549" d="M 139.5 82 Q 143 83 142 88.5 L 141 88.5 L 141 84.5 L 139 84 L 139.5 82 Z " /><path fill="rgb(254,199,60)" stroke="rgb(254,199,60)" stroke-width="1" opacity="0.996078431372549" d="M 118.5 88 L 119.5 90 L 118.5 88 Z " /><path fill="rgb(254,199,60)" stroke="rgb(254,199,60)" stroke-width="1" opacity="0.996078431372549" d="M 52.5 90 L 55.5 91 L 58 90 L 58 92 L 52 92 L 52.5 90 Z " /><path fill="rgb(254,199,60)" stroke="rgb(254,199,60)" stroke-width="1" opacity="0.996078431372549" d="M 134.5 90 L 138.5 91 L 140 90.5 Q 140.9 93.9 135.5 92 L 134.5 90 Z " /><path fill="rgb(254,199,60)" stroke="rgb(254,199,60)" stroke-width="1" opacity="0.996078431372549" d="M 163.5 113 L 164 118.5 L 163 118.5 L 163.5 113 Z " /><path fill="rgb(254,199,60)" stroke="rgb(254,199,60)" stroke-width="1" opacity="0.996078431372549" d="M 57.5 118 L 83 118.5 L 57.5 119 L 57.5 118 Z " /><path fill="rgb(254,199,60)" stroke="rgb(254,199,60)" stroke-width="1" opacity="0.996078431372549" d="M 114.5 118 L 140 118.5 L 114.5 119 L 114.5 118 Z " /><path fill="rgb(254,199,60)" stroke="rgb(254,199,60)" stroke-width="1" opacity="0.996078431372549" d="M 87 124 L 90 124.5 L 87 126.5 L 85.5 130 L 85 126 Q 88 127 87 124 Z " /><path fill="rgb(254,199,60)" stroke="rgb(254,199,60)" stroke-width="1" opacity="0.996078431372549" d="M 106.5 124 Q 108.8 123.3 108 125.5 L 106.5 124 Z " /><path fill="rgb(254,199,60)" stroke="rgb(254,199,60)" stroke-width="1" opacity="0.996078431372549" d="M 176.5 125 L 175.5 127 L 176.5 125 Z " /><path fill="rgb(254,199,60)" stroke="rgb(254,199,60)" stroke-width="1" opacity="0.996078431372549" d="M 109.5 126 L 111 129.5 L 109 128.5 L 109.5 126 Z " /><path fill="rgb(254,199,60)" stroke="rgb(254,199,60)" stroke-width="1" opacity="0.996078431372549" d="M 161 126 L 163 126 L 163 131 L 164.5 131 L 164.5 132 Q 161.2 130.9 162 133.5 L 161 133.5 L 161 126 Z " /><path fill="rgb(254,199,60)" stroke="rgb(254,199,60)" stroke-width="1" opacity="0.996078431372549" d="M 85.5 131 L 86 133.5 L 85 133.5 L 85.5 131 Z " /><path fill="rgb(254,199,60)" stroke="rgb(254,199,60)" stroke-width="1" opacity="0.996078431372549" d="M 109 132 L 111 132.5 L 110 136 L 108 136 Q 109.1 138.7 106.5 138 L 103.5 140 L 91.5 140 L 87 136.5 L 87.5 135 L 91 137 L 91.5 139 L 103.5 139 L 109 134.5 L 109 132 Z " /><path fill="rgb(254,199,60)" stroke="rgb(254,199,60)" stroke-width="1" opacity="0.996078431372549" d="M 159 138 Q 162 136.8 161 140.5 L 159.5 144 L 159 138 Z " /><path fill="rgb(254,199,60)" stroke="rgb(254,199,60)" stroke-width="1" opacity="0.996078431372549" d="M 74.5 140 L 75 142 L 73 141.5 L 74.5 140 Z " /><path fill="rgb(254,199,60)" stroke="rgb(254,199,60)" stroke-width="1" opacity="0.996078431372549" d="M 79.5 140 L 82 141.5 L 79 142 L 79.5 140 Z " /><path fill="rgb(254,199,60)" stroke="rgb(254,199,60)" stroke-width="1" opacity="0.996078431372549" d="M 115.5 140 L 116 142 L 112 141.5 L 115.5 140 Z " /><path fill="rgb(254,199,60)" stroke="rgb(254,199,60)" stroke-width="1" opacity="0.996078431372549" d="M 83.5 142 L 90 143.5 L 84.5 144 L 83.5 142 Z " /><path fill="rgb(254,199,60)" stroke="rgb(254,199,60)" stroke-width="1" opacity="0.996078431372549" d="M 110.5 142 L 109.5 144 L 104.5 145 L 105.5 143 L 110.5 142 Z " /><path fill="rgb(254,199,60)" stroke="rgb(254,199,60)" stroke-width="1" opacity="0.996078431372549" d="M 73.5 144 L 75 146.5 L 73 145.5 L 73.5 144 Z " /><path fill="rgb(254,199,60)" stroke="rgb(254,199,60)" stroke-width="1" opacity="0.996078431372549" d="M 157 145 L 160 145.5 L 158 147.5 L 156.5 153 L 156 150.5 L 157 145 Z " /><path fill="rgb(254,199,60)" stroke="rgb(254,199,60)" stroke-width="1" opacity="0.996078431372549" d="M 37 147 Q 40 145.8 39 149.5 L 37 148.5 L 37 147 Z " /><path fill="rgb(254,199,60)" stroke="rgb(254,199,60)" stroke-width="1" opacity="0.996078431372549" d="M 119.5 148 L 120 149.5 L 117 151.5 L 119.5 148 Z " /><path fill="rgb(254,199,60)" stroke="rgb(254,199,60)" stroke-width="1" opacity="0.996078431372549" d="M 39.5 152 L 41 152 L 41 156 Q 44 154.8 43 158.5 L 44 160.5 L 42 159.5 Q 43 155.8 40 157 L 40 153.5 L 39.5 152 Z " /><path fill="rgb(254,199,60)" stroke="rgb(254,199,60)" stroke-width="1" opacity="0.996078431372549" d="M 80.5 153 L 83 154.5 L 81.5 154 L 80.5 153 Z " /><path fill="rgb(254,199,60)" stroke="rgb(254,199,60)" stroke-width="1" opacity="0.996078431372549" d="M 154 154 Q 156.7 152.9 156 155.5 L 150.5 163 L 150 161 L 152 161 L 152 157 Q 155.3 158.1 154 154 Z " /><path fill="rgb(254,199,60)" stroke="rgb(254,199,60)" stroke-width="1" opacity="0.996078431372549" d="M 84.5 155 L 87 156.5 L 85.5 157 L 84.5 155 Z " /><path fill="rgb(254,199,60)" stroke="rgb(254,199,60)" stroke-width="1" opacity="0.996078431372549" d="M 109 155 L 113 155.5 L 109.5 157 L 109 155 Z " /><path fill="rgb(254,199,60)" stroke="rgb(254,199,60)" stroke-width="1" opacity="0.996078431372549" d="M 103.5 157 L 104 159 L 102 158.5 L 103.5 157 Z " /><path fill="rgb(254,199,60)" stroke="rgb(254,199,60)" stroke-width="1" opacity="0.996078431372549" d="M 45.5 163 L 50 168.5 L 49 168.5 L 47 165.5 L 45.5 163 Z " /><path fill="rgb(254,199,60)" stroke="rgb(254,199,60)" stroke-width="1" opacity="0.996078431372549" d="M 143.5 170 L 144 172 L 142 172 Q 143.1 174.7 140.5 174 L 143.5 170 Z " /><path fill="rgb(254,199,60)" stroke="rgb(254,199,60)" stroke-width="1" opacity="0.996078431372549" d="M 53.5 173 L 55.5 173 L 60.5 178 L 67 180 L 67 182 L 71 182 L 71 184 Q 73.7 182.9 73 185.5 L 70.5 184 L 62 181 Q 63.1 178.3 60.5 179 L 56 176 Q 57.3 173 53.5 174 L 53.5 173 Z " /><path fill="rgb(254,199,60)" stroke="rgb(254,199,60)" stroke-width="1" opacity="0.996078431372549" d="M 134.5 177 L 137 177.5 L 132.5 181 L 130 181 Q 131.3 184 127.5 183 L 126 183.5 L 126 182 L 129 182 L 129 180 L 133 180 L 133 178.5 L 134.5 177 Z " /><path fill="rgb(254,199,60)" stroke="rgb(254,199,60)" stroke-width="1" opacity="0.996078431372549" d="M 122 184 L 125 184.5 L 122.5 186 L 122 184 Z " /><path fill="rgb(254,199,60)" stroke="rgb(254,199,60)" stroke-width="1" opacity="0.996078431372549" d="M 77 186 L 83.5 187 L 85.5 189 L 110.5 189 L 112.5 187 L 119 186 Q 120.4 190 113.5 188 L 110.5 190 L 84 190 L 84 188 L 77.5 188 L 77 186 Z " /><path fill="rgb(250,184,30)" stroke="rgb(250,184,30)" stroke-width="1" opacity="0.9725490196078431" d="M 49.5 57 L 50.5 59 L 49.5 57 Z " /><path fill="rgb(250,184,30)" stroke="rgb(250,184,30)" stroke-width="1" opacity="0.9725490196078431" d="M 39.5 70 L 38.5 72 L 39.5 70 Z " /><path fill="rgb(250,184,30)" stroke="rgb(250,184,30)" stroke-width="1" opacity="0.9725490196078431" d="M 31.5 86 L 32 122.5 L 33 123.5 L 33 131 L 24 130 L 24 128 L 21 128 L 21 126 Q 18.3 127.1 19 124.5 L 14 117.5 L 14 104.5 L 17 98 Q 19.7 99.1 19 96.5 L 22 95 Q 21 92 24 93 L 24 106.5 L 26 107 L 26 108.5 L 31 112 L 31.5 86 Z " /><path fill="rgb(250,184,30)" stroke="rgb(250,184,30)" stroke-width="1" opacity="0.9725490196078431" d="M 164.5 89 L 165 101.5 L 164 101.5 L 164.5 89 Z " /><path fill="rgb(250,184,30)" stroke="rgb(250,184,30)" stroke-width="1" opacity="0.9725490196078431" d="M 173.5 93 L 174 95 Q 176.7 93.9 176 96.5 L 181 101.5 Q 180.3 105.8 183 106.5 L 183 115.5 Q 180 116.8 181 121 Q 178.3 119.9 179 122.5 L 174 126 L 172 130 L 167 130 Q 168.1 132.7 165.5 132 L 163 131 L 164 125.5 L 164 112 L 169 111 L 171 103.5 L 171 95.5 L 170.5 94 Q 172 96.5 173.5 93 Z " /><path fill="rgb(250,184,30)" stroke="rgb(250,184,30)" stroke-width="1" opacity="0.9725490196078431" d="M 87.5 127 L 86.5 129 L 87.5 127 Z " /><path fill="rgb(250,184,30)" stroke="rgb(250,184,30)" stroke-width="1" opacity="0.9725490196078431" d="M 86.5 132 L 87.5 134 L 86.5 132 Z " /><path fill="rgb(250,184,30)" stroke="rgb(250,184,30)" stroke-width="1" opacity="0.9725490196078431" d="M 107.5 134 L 105.5 137 L 107.5 134 Z " /><path fill="rgb(250,184,30)" stroke="rgb(250,184,30)" stroke-width="1" opacity="0.9725490196078431" d="M 103.5 137 L 102.5 139 L 103.5 137 Z " /><path fill="rgb(250,190,55)" stroke="rgb(250,190,55)" stroke-width="1" opacity="0.984313725490196" d="M 82.5 8 L 97 8.5 L 82.5 9 L 82.5 8 Z " /><path fill="rgb(250,190,55)" stroke="rgb(250,190,55)" stroke-width="1" opacity="0.984313725490196" d="M 123.5 8 L 139.5 8 L 140 9.5 L 138.5 9 L 123.5 9 L 122.5 10 L 123.5 8 Z " /><path fill="rgb(250,190,55)" stroke="rgb(250,190,55)" stroke-width="1" opacity="0.984313725490196" d="M 101.5 10 L 102.5 12 L 101.5 10 Z " /><path fill="rgb(250,190,55)" stroke="rgb(250,190,55)" stroke-width="1" opacity="0.984313725490196" d="M 73.5 12 L 71.5 15 L 70 14.5 L 73.5 12 Z " /><path fill="rgb(250,190,55)" stroke="rgb(250,190,55)" stroke-width="1" opacity="0.984313725490196" d="M 146.5 12 L 147.5 14 L 146.5 12 Z " /><path fill="rgb(250,190,55)" stroke="rgb(250,190,55)" stroke-width="1" opacity="0.984313725490196" d="M 64.5 19 L 65 21 L 63 20.5 L 64.5 19 Z " /><path fill="rgb(250,190,55)" stroke="rgb(250,190,55)" stroke-width="1" opacity="0.984313725490196" d="M 59.5 21 L 58.5 23 L 56 22.5 L 59.5 21 Z " /><path fill="rgb(250,190,55)" stroke="rgb(250,190,55)" stroke-width="1" opacity="0.984313725490196" d="M 154.5 21 L 155.5 23 L 154.5 21 Z " /><path fill="rgb(250,190,55)" stroke="rgb(250,190,55)" stroke-width="1" opacity="0.984313725490196" d="M 51.5 24 L 50.5 26 L 51.5 24 Z " /><path fill="rgb(250,190,55)" stroke="rgb(250,190,55)" stroke-width="1" opacity="0.984313725490196" d="M 156.5 24 L 157.5 26 Q 154.7 26.7 156.5 24 Z " /><path fill="rgb(250,190,55)" stroke="rgb(250,190,55)" stroke-width="1" opacity="0.984313725490196" d="M 44.5 29 L 43.5 31 L 44.5 29 Z " /><path fill="rgb(250,190,55)" stroke="rgb(250,190,55)" stroke-width="1" opacity="0.984313725490196" d="M 162.5 31 L 163.5 33 L 162.5 31 Z " /><path fill="rgb(250,190,55)" stroke="rgb(250,190,55)" stroke-width="1" opacity="0.984313725490196" d="M 177.5 43 L 179 45.5 L 177 44.5 L 177.5 43 Z " /><path fill="rgb(250,190,55)" stroke="rgb(250,190,55)" stroke-width="1" opacity="0.984313725490196" d="M 32.5 46 L 32 47.5 L 30.5 50 L 31 48.5 L 32.5 46 Z " /><path fill="rgb(250,190,55)" stroke="rgb(250,190,55)" stroke-width="1" opacity="0.984313725490196" d="M 29.5 53 L 29 54.5 L 28.5 56 L 28 54.5 L 29.5 53 Z " /><path fill="rgb(250,190,55)" stroke="rgb(250,190,55)" stroke-width="1" opacity="0.984313725490196" d="M 46.5 56 L 47 57.5 L 44 67 L 42 66.5 L 46.5 56 Z " /><path fill="rgb(250,190,55)" stroke="rgb(250,190,55)" stroke-width="1" opacity="0.984313725490196" d="M 79.5 56 L 80 67.5 L 79 67.5 L 79.5 56 Z " /><path fill="rgb(250,190,55)" stroke="rgb(250,190,55)" stroke-width="1" opacity="0.984313725490196" d="M 82.5 56 L 83.5 58 Q 80.7 58.7 82.5 56 Z " /><path fill="rgb(250,190,55)" stroke="rgb(250,190,55)" stroke-width="1" opacity="0.984313725490196" d="M 181.5 56 L 182 60.5 L 181 60.5 L 181.5 56 Z " /><path fill="rgb(250,190,55)" stroke="rgb(250,190,55)" stroke-width="1" opacity="0.984313725490196" d="M 49.5 58 L 52 61.5 L 50 60.5 L 49.5 58 Z " /><path fill="rgb(250,190,55)" stroke="rgb(250,190,55)" stroke-width="1" opacity="0.984313725490196" d="M 84.5 59 L 86 59 L 86 61 Q 88.7 59.9 88 62.5 L 84.5 59 Z " /><path fill="rgb(250,190,55)" stroke="rgb(250,190,55)" stroke-width="1" opacity="0.984313725490196" d="M 27.5 60 L 28 65 L 26 64.5 L 27.5 60 Z " /><path fill="rgb(250,190,55)" stroke="rgb(250,190,55)" stroke-width="1" opacity="0.984313725490196" d="M 52.5 63 L 57.5 67 L 61 69.5 L 59.5 70 L 52.5 63 Z " /><path fill="rgb(250,190,55)" stroke="rgb(250,190,55)" stroke-width="1" opacity="0.984313725490196" d="M 89.5 63 L 100 69.5 L 98.5 70 L 89 65 L 89.5 63 Z " /><path fill="rgb(250,190,55)" stroke="rgb(250,190,55)" stroke-width="1" opacity="0.984313725490196" d="M 40 68 Q 43 67 42 70 Q 39 71 40 68 Z " /><path fill="rgb(250,190,55)" stroke="rgb(250,190,55)" stroke-width="1" opacity="0.984313725490196" d="M 62.5 70 L 65 71.5 L 63.5 72 L 62.5 70 Z " /><path fill="rgb(250,190,55)" stroke="rgb(250,190,55)" stroke-width="1" opacity="0.984313725490196" d="M 78.5 70 L 79 72 Q 75.9 71.3 76.5 74 L 68.5 74 L 67.5 72 L 74.5 73 L 78.5 70 Z " /><path fill="rgb(250,190,55)" stroke="rgb(250,190,55)" stroke-width="1" opacity="0.984313725490196" d="M 102 70 L 105 71.5 L 102 72 L 102 70 Z " /><path fill="rgb(250,190,55)" stroke="rgb(250,190,55)" stroke-width="1" opacity="0.984313725490196" d="M 39.5 71 L 37 74.5 L 33.5 80 L 34 78.5 L 39.5 71 Z " /><path fill="rgb(250,190,55)" stroke="rgb(250,190,55)" stroke-width="1" opacity="0.984313725490196" d="M 108.5 72 L 113.5 73 L 151 73.5 L 109.5 74 L 108.5 72 Z " /><path fill="rgb(250,190,55)" stroke="rgb(250,190,55)" stroke-width="1" opacity="0.984313725490196" d="M 177.5 72 L 176.5 74 L 177.5 72 Z " /><path fill="rgb(250,190,55)" stroke="rgb(250,190,55)" stroke-width="1" opacity="0.984313725490196" d="M 153.5 74 L 158 75 L 157.5 77 L 153.5 75 L 153.5 74 Z " /><path fill="rgb(250,190,55)" stroke="rgb(250,190,55)" stroke-width="1" opacity="0.984313725490196" d="M 175.5 75 L 176 77 L 174 76.5 L 175.5 75 Z " /><path fill="rgb(250,190,55)" stroke="rgb(250,190,55)" stroke-width="1" opacity="0.984313725490196" d="M 160.5 78 L 163 81.5 L 161 80.5 L 160.5 78 Z " /><path fill="rgb(250,190,55)" stroke="rgb(250,190,55)" stroke-width="1" opacity="0.984313725490196" d="M 61.5 80 L 71.5 80 L 73 81.5 L 70.5 82 Q 69 79.5 63.5 81 L 59.5 82 L 59.5 81 L 61.5 80 Z " /><path fill="rgb(250,190,55)" stroke="rgb(250,190,55)" stroke-width="1" opacity="0.984313725490196" d="M 120.5 80 L 130.5 80 L 132 81.5 L 130.5 82 Q 129 79.5 123.5 81 L 118 83.5 L 117.5 88 L 117 82 L 120.5 80 Z " /><path fill="rgb(250,190,55)" stroke="rgb(250,190,55)" stroke-width="1" opacity="0.984313725490196" d="M 53.5 82 L 56 82.5 L 52 84 L 51 87.5 L 56 90.5 L 53.5 91 L 50 88.5 Q 48.1 83.1 51.5 84 L 53.5 82 Z " /><path fill="rgb(250,190,55)" stroke="rgb(250,190,55)" stroke-width="1" opacity="0.984313725490196" d="M 137.5 82 Q 139.8 81.3 139 83.5 L 137.5 82 Z " /><path fill="rgb(250,190,55)" stroke="rgb(250,190,55)" stroke-width="1" opacity="0.984313725490196" d="M 74.5 83 L 75 86.5 L 74 86.5 L 74.5 83 Z " /><path fill="rgb(250,190,55)" stroke="rgb(250,190,55)" stroke-width="1" opacity="0.984313725490196" d="M 163.5 83 L 165 88.5 L 164 89.5 L 163.5 113 L 163.5 83 Z " /><path fill="rgb(250,190,55)" stroke="rgb(250,190,55)" stroke-width="1" opacity="0.984313725490196" d="M 32.5 84 L 33 112.5 L 32 112.5 L 32.5 84 Z " /><path fill="rgb(250,190,55)" stroke="rgb(250,190,55)" stroke-width="1" opacity="0.984313725490196" d="M 63.5 88 L 71.5 89 L 73 88.5 L 71.5 90 L 59.5 90 L 59.5 89 L 63.5 88 Z " /><path fill="rgb(250,190,55)" stroke="rgb(250,190,55)" stroke-width="1" opacity="0.984313725490196" d="M 119.5 88 L 122.5 89 L 127.5 88 L 133 89.5 L 120.5 90 L 119.5 88 Z " /><path fill="rgb(250,190,55)" stroke="rgb(250,190,55)" stroke-width="1" opacity="0.984313725490196" d="M 139.5 89 L 141 89.5 L 135.5 91 L 135.5 90 L 139.5 89 Z " /><path fill="rgb(250,190,55)" stroke="rgb(250,190,55)" stroke-width="1" opacity="0.984313725490196" d="M 170.5 91 L 171 93.5 L 170 93.5 L 170.5 91 Z " /><path fill="rgb(250,190,55)" stroke="rgb(250,190,55)" stroke-width="1" opacity="0.984313725490196" d="M 24 93 L 26 93.5 L 26 107 L 24 106.5 L 24 93 Z " /><path fill="rgb(250,190,55)" stroke="rgb(250,190,55)" stroke-width="1" opacity="0.984313725490196" d="M 14.5 118 L 15.5 120 L 14.5 118 Z " /><path fill="rgb(250,190,55)" stroke="rgb(250,190,55)" stroke-width="1" opacity="0.984313725490196" d="M 163.5 119 L 164 125.5 L 163 125.5 L 163.5 119 Z " /><path fill="rgb(250,190,55)" stroke="rgb(250,190,55)" stroke-width="1" opacity="0.984313725490196" d="M 32.5 120 L 33 122.5 L 32 122.5 L 32.5 120 Z " /><path fill="rgb(250,190,55)" stroke="rgb(250,190,55)" stroke-width="1" opacity="0.984313725490196" d="M 17.5 123 L 18.5 125 L 17.5 123 Z " /><path fill="rgb(250,190,55)" stroke="rgb(250,190,55)" stroke-width="1" opacity="0.984313725490196" d="M 90.5 124 L 105.5 124 L 107 125.5 L 105.5 125 L 90.5 125 L 87.5 127 L 88.5 125 L 90.5 124 Z " /><path fill="rgb(250,190,55)" stroke="rgb(250,190,55)" stroke-width="1" opacity="0.984313725490196" d="M 109.5 129 L 111 132 Q 107.5 133.1 109.5 129 Z " /><path fill="rgb(250,190,55)" stroke="rgb(250,190,55)" stroke-width="1" opacity="0.984313725490196" d="M 86.5 133 L 88.5 136 L 86.5 133 Z " /><path fill="rgb(250,190,55)" stroke="rgb(250,190,55)" stroke-width="1" opacity="0.984313725490196" d="M 108.5 134 L 106.5 137 L 108.5 134 Z " /><path fill="rgb(250,190,55)" stroke="rgb(250,190,55)" stroke-width="1" opacity="0.984313725490196" d="M 104.5 137 L 103.5 139 L 104.5 137 Z " /><path fill="rgb(250,190,55)" stroke="rgb(250,190,55)" stroke-width="1" opacity="0.984313725490196" d="M 75.5 140 L 79 140.5 L 75.5 141 L 75.5 140 Z " /><path fill="rgb(250,190,55)" stroke="rgb(250,190,55)" stroke-width="1" opacity="0.984313725490196" d="M 116 140 L 118 140.5 L 116 141.5 L 116 140 Z " /><path fill="rgb(250,190,55)" stroke="rgb(250,190,55)" stroke-width="1" opacity="0.984313725490196" d="M 119.5 140 Q 121.8 139.3 121 141.5 L 122 145.5 L 121 145.5 Q 121.5 140.8 119.5 140 Z " /><path fill="rgb(250,190,55)" stroke="rgb(250,190,55)" stroke-width="1" opacity="0.984313725490196" d="M 73 142 L 75 142.5 L 75 144.5 L 77 147.5 L 75 148 L 73 142 Z " /><path fill="rgb(250,190,55)" stroke="rgb(250,190,55)" stroke-width="1" opacity="0.984313725490196" d="M 82.5 142 L 83.5 144 L 82.5 142 Z " /><path fill="rgb(250,190,55)" stroke="rgb(250,190,55)" stroke-width="1" opacity="0.984313725490196" d="M 111.5 142 L 112 144 L 110 143.5 L 111.5 142 Z " /><path fill="rgb(250,190,55)" stroke="rgb(250,190,55)" stroke-width="1" opacity="0.984313725490196" d="M 89.5 144 L 90.5 145 L 104.5 145 L 106 144.5 L 104.5 146 L 90.5 146 L 89.5 144 Z " /><path fill="rgb(250,190,55)" stroke="rgb(250,190,55)" stroke-width="1" opacity="0.984313725490196" d="M 77.5 149 L 80.5 153 L 77.5 149 Z " /><path fill="rgb(250,190,55)" stroke="rgb(250,190,55)" stroke-width="1" opacity="0.984313725490196" d="M 117.5 150 L 116.5 152 L 117.5 150 Z " /><path fill="rgb(250,190,55)" stroke="rgb(250,190,55)" stroke-width="1" opacity="0.984313725490196" d="M 82.5 153 Q 84.8 152.3 84 154.5 L 82.5 153 Z " /><path fill="rgb(250,190,55)" stroke="rgb(250,190,55)" stroke-width="1" opacity="0.984313725490196" d="M 86.5 155 L 87.5 157 L 86.5 155 Z " /><path fill="rgb(250,190,55)" stroke="rgb(250,190,55)" stroke-width="1" opacity="0.984313725490196" d="M 102.5 157 L 101.5 159 L 93 158.5 L 101.5 158 L 102.5 157 Z " /><path fill="rgb(255,200,61)" stroke="rgb(255,200,61)" stroke-width="1" opacity="1" d="M 81.5 58 L 82 60 Q 84.7 58.9 84 61.5 L 87 63 Q 85.9 65.7 88.5 65 Q 89.8 68 94 67 Q 92.9 69.7 95.5 69 L 97.5 71 L 107.5 74 L 151 74 L 151 76 L 155.5 76 L 156 78 L 158.5 78 L 161 83 L 163 83.5 L 163 126 L 161 126.5 L 161 137.5 Q 157.5 136.5 159 143.5 L 159.5 145 Q 154.9 143.7 157 149.5 L 156 154 L 154 154 L 154 157 L 152 157 L 152 161 Q 149.3 159.9 150 162.5 L 150.5 164 Q 147.9 163.3 149 166 L 147 166 L 147 168.5 L 145 168.5 Q 145.8 170.8 143.5 170 L 137.5 177 Q 133.8 176.3 133 178.5 L 133 180 L 129 180 Q 130.1 183.3 126 182 L 126 184 L 122 184 L 122 186 L 117.5 186 L 111 188.5 L 111.5 190 L 110.5 189 L 85.5 189 L 84.5 188 L 83 188.5 L 83.5 187 L 73 186 L 71 182 L 67 182 Q 68.3 179 64.5 180 L 52 171.5 Q 52.8 168.9 49.5 170 L 50 168.5 L 49.5 167 L 48 167.5 L 49 166.5 L 45.5 163 Q 42.5 163.9 44 159.5 L 43 156 L 41 156 L 41 152 L 39.5 152 Q 36.8 150.8 39 149.5 L 39 147 L 37 146.5 L 37 142.5 L 36 141.5 L 36 133 L 34 132.5 L 34 81.5 L 37 76 L 39 76 L 39 73 Q 41.7 74.1 41 71.5 Q 45 70.1 44 65 L 46 65 L 46 60 L 50 60 L 50 62.5 L 53 67 L 66.5 74 L 77.5 74 L 81 69.5 L 81.5 58 Z M 60 80 Q 58 82 54 81 L 50 83 L 50 90 Q 53 89 52 92 L 58 92 L 59 90 L 74 90 Q 73 87 76 88 L 76 83 Q 73 83 74 80 L 60 80 Z M 120 80 L 119 81 Q 115 80 117 88 L 120 90 L 134 90 Q 135 93 140 92 L 142 89 L 142 85 Q 135 78 120 80 Z M 60 96 L 55 100 L 52 100 L 47 108 Q 48 112 45 111 L 45 114 L 49 116 L 49 118 L 57 118 L 58 119 L 83 119 L 84 118 Q 83 115 86 116 L 87 114 L 86 109 L 80 100 Q 76 101 77 98 Q 74 99 73 96 L 60 96 Z M 124 96 L 121 98 Q 118 97 119 100 L 117 100 L 112 105 Q 113 108 110 107 L 109 116 L 115 119 L 140 119 L 150 116 Q 152 109 148 108 L 148 105 L 144 103 L 143 100 Q 140 101 141 98 L 137 98 L 137 96 L 124 96 Z M 87 124 Q 88 127 85 126 L 85 134 L 87 134 L 87 137 L 92 140 L 104 140 L 107 138 Q 109 139 108 136 L 110 136 L 111 133 L 110 128 L 108 124 L 87 124 Z M 75 140 L 73 142 Q 72 148 76 149 Q 75 151 78 150 L 78 152 L 80 152 L 80 154 L 86 157 Q 93 156 92 159 L 104 159 L 104 157 L 111 156 L 113 156 L 115 152 Q 119 153 120 150 L 120 147 L 122 147 L 122 140 L 116 140 L 110 143 L 106 143 L 104 145 L 91 145 L 90 143 Q 83 144 80 140 L 75 140 Z " /><path fill="rgb(240,230,209)" stroke="rgb(240,230,209)" stroke-width="1" opacity="0.49411764705882355" d="M 80 6 L 98.5 6 L 101.5 8 Q 103 5.5 104.5 9 L 108.5 11 L 114 11 Q 112.8 8 116.5 9 Q 118.3 5.9 120 7.5 L 120.5 6 L 138.5 6 L 139.5 8 L 125.5 7 L 119.5 10 L 116 10 Q 117.1 12.7 114.5 12 Q 113 14.5 107.5 13 Q 105.4 9.1 100 10 Q 101.4 6 94.5 8 L 93.5 7 L 85.5 7 L 80 8 L 80 6 Z " /><path fill="rgb(240,230,209)" stroke="rgb(240,230,209)" stroke-width="1" opacity="0.49411764705882355" d="M 75 7 L 77.5 8 L 79 7.5 L 77.5 10 L 68 15 Q 69.1 17.7 66.5 17 L 60.5 21 L 53.5 22 Q 52.4 24.8 49 24 Q 50.1 26.7 47.5 26 L 40 31 L 33 41.5 L 27.5 54 L 27 48 Q 30 49.3 29 45.5 L 34.5 36 Q 37.5 36.9 36 32.5 L 41 29 L 43 25 L 45.5 25 L 48 24 L 48 22 L 53 22 L 53 20 L 58.5 20 L 59 18 L 61.5 18 L 64 17 Q 62.9 14.3 65.5 15 L 68 14.5 L 69 11 Q 72 12 71 9 L 75 9 L 75 7 Z " /><path fill="rgb(240,230,209)" stroke="rgb(240,230,209)" stroke-width="1" opacity="0.49411764705882355" d="M 142.5 7 L 148 9 L 148 11 L 152 11 L 152 13 Q 154.7 11.9 154 14.5 L 157 20 Q 160.3 18.7 159 23.5 L 164 27.5 Q 163.3 29.8 165.5 29 L 171.5 34 L 175 34 L 175 36 Q 177.7 34.9 177 37.5 L 180 39 Q 178.8 44.3 182 43.5 L 182 46.5 Q 185.7 48.2 184 55.5 L 183 55.5 Q 180.9 41.1 170.5 35 L 162 31 L 162 29 L 160 29 L 160 26 Q 157.3 27.1 158 24.5 L 147.5 12 L 141 8.5 L 142.5 7 Z " /><path fill="rgb(240,230,209)" stroke="rgb(240,230,209)" stroke-width="1" opacity="0.49411764705882355" d="M 25 55 L 28 56.5 L 25.5 61 L 25 55 Z " /><path fill="rgb(240,230,209)" stroke="rgb(240,230,209)" stroke-width="1" opacity="0.49411764705882355" d="M 183.5 62 L 184 69 Q 181 67.8 182 71.5 Q 179.2 72.6 180 76 Q 177.3 74.9 178 77.5 L 177 81 Q 174 80 175 83 L 172 83 L 181 68.5 Q 180.4 63.4 183.5 62 Z " /><path fill="rgb(240,230,209)" stroke="rgb(240,230,209)" stroke-width="1" opacity="0.49411764705882355" d="M 24.5 67 L 26 70.5 L 25 71.5 L 25 90.5 L 22.5 93 L 15 99.5 L 11.5 109 L 11 101 Q 14.3 102.3 13 97.5 L 15 97.5 L 16 94 L 18 94 L 18 92 Q 20.7 93.1 20 90.5 L 22 90.5 L 23 88.5 L 23 69.5 L 24.5 67 Z " /><path fill="rgb(240,230,209)" stroke="rgb(240,230,209)" stroke-width="1" opacity="0.49411764705882355" d="M 172.5 84 L 173 89 L 177 91.5 L 178.5 94 Q 181.1 93.3 180 96 L 182 96 Q 180.8 101.3 184 100.5 L 184 104.5 L 186 109.5 L 185 111.5 L 186 114.5 L 183 116.5 L 183 103.5 L 174.5 93 L 171 90.5 L 172.5 84 Z " /><path fill="rgb(240,230,209)" stroke="rgb(240,230,209)" stroke-width="1" opacity="0.49411764705882355" d="M 62.5 97 L 73.5 98 L 80 102.5 L 82 105.5 Q 85 106.8 84 111 Q 87 109.8 86 113.5 L 83 115.5 Q 83.9 107.9 81 105 L 79 105 Q 80.1 102.3 77.5 103 L 74.5 100 L 64.5 100 L 59 103 L 56 109.5 L 56 116 Q 49.8 116.9 47 115 L 47 109.5 L 49 109 L 49 106.5 L 52 102 Q 55 103 54 100 L 56.5 100 L 62.5 97 Z " /><path fill="rgb(240,230,209)" stroke="rgb(240,230,209)" stroke-width="1" opacity="0.49411764705882355" d="M 126.5 97 L 133.5 97 L 142 100 L 142 102 Q 144.7 100.9 144 103.5 L 149 113.5 Q 147.1 117.8 140 116 L 141 112.5 L 134.5 102 Q 131 98 121.5 100 L 116 104.5 L 114 107.5 L 113 116 Q 109.5 117.1 111 109.5 L 114.5 104 L 119.5 100 L 121.5 98 L 126.5 97 Z " /><path fill="rgb(240,230,209)" stroke="rgb(240,230,209)" stroke-width="1" opacity="0.49411764705882355" d="M 63 107 Q 67.1 105.7 66 109 Q 61.9 110.3 63 107 Z " /><path fill="rgb(240,230,209)" stroke="rgb(240,230,209)" stroke-width="1" opacity="0.49411764705882355" d="M 121 107 Q 125.1 105.7 124 109 Q 119.9 110.3 121 107 Z " /><path fill="rgb(240,230,209)" stroke="rgb(240,230,209)" stroke-width="1" opacity="0.49411764705882355" d="M 11.5 112 L 15 123 Q 17.7 121.9 17 124.5 L 23.5 130 L 26 130 L 27 132.5 L 25.5 132 L 23.5 133 L 20 131 Q 21.3 128 17.5 129 L 13 123.5 L 13 120 L 11 119.5 L 11.5 112 Z " /><path fill="rgb(240,230,209)" stroke="rgb(240,230,209)" stroke-width="1" opacity="0.49411764705882355" d="M 183.5 118 L 184 122 L 182 122 L 182 125 L 180 125 L 180 127 L 176 129 L 176 131 L 173.5 131 Q 172 134.5 170.5 132 L 169 131.5 Q 170.2 129 174 130 L 174 128 L 176 128 Q 174.9 125.3 177.5 126 L 179 123 L 181 123 L 181 119 L 182.5 119 L 183.5 118 Z " /><path fill="rgb(240,230,209)" stroke="rgb(240,230,209)" stroke-width="1" opacity="0.49411764705882355" d="M 29 132 L 33 132 L 33 139.5 L 38 151.5 L 38 155 Q 41.3 153.7 40 158.5 L 47 169 Q 49.7 167.9 49 170.5 L 54 174 Q 52.9 176.7 55.5 176 L 64.5 183 L 74.5 188 L 78.5 188 L 81.5 190 Q 86.2 188.8 87.5 191 L 93.5 191 L 95 192.5 L 86.5 193 L 84.5 192 Q 83 194.5 81.5 191 Q 76.5 192 75.5 189 L 70.5 189 Q 65.8 183 57 182 L 57 180 L 55 180 Q 56.1 177.3 53.5 178 L 46 171.5 L 42.5 166 L 41 166 L 41 162 Q 38 163.3 39 159.5 Q 35.1 156.5 36 150 Q 32.3 151.3 34 145.5 Q 30.3 143.8 32 136.5 L 29 132 Z " /><path fill="rgb(240,230,209)" stroke="rgb(240,230,209)" stroke-width="1" opacity="0.49411764705882355" d="M 163 132 Q 167.1 130.7 166 134 L 164 134 L 164 140.5 L 162 141 L 163 132 Z " /><path fill="rgb(240,230,209)" stroke="rgb(240,230,209)" stroke-width="1" opacity="0.49411764705882355" d="M 161.5 143 L 163 143.5 L 162 145.5 L 163 148 Q 159.3 146.7 161 152.5 Q 158.3 153.6 159 157 Q 155.7 155.7 157 160.5 Q 153.1 162.6 154 168 L 148 171 L 148 173 Q 145.3 171.9 146 174.5 L 143 176 L 141 180 L 138 180 L 136 184 L 133.5 184 Q 130.8 187.8 125 187 Q 126.3 190.7 120.5 189 L 113.5 193 L 111.5 192 L 110.5 193 L 100.5 193 L 100.5 192 L 115.5 190 L 117.5 188 L 120.5 188 L 131.5 183 L 139 178 Q 137.9 175.3 140.5 176 L 144 174 L 144 172 Q 146.7 173.1 146 170.5 Q 151.8 166.9 153 160 Q 156 161.3 155 157.5 L 161.5 143 Z " /><path fill="rgb(0,0,0)" stroke="rgb(0,0,0)" stroke-width="1" opacity="0.011764705882352941" d="M 0 0 L 200 0 L 200 200 L 0 200 L 0 0 Z M 81 6 L 79 7 L 77 7 Q 74 6 75 9 L 71 9 Q 72 12 69 11 L 68 15 L 66 15 Q 63 14 64 17 L 62 18 Q 58 17 59 20 Q 53 19 52 22 Q 47 21 48 24 L 46 25 L 43 25 L 41 29 L 36 33 Q 37 37 35 36 L 29 46 L 29 48 L 27 49 L 27 55 L 25 55 L 25 67 L 23 70 L 23 89 L 22 91 L 20 91 Q 21 93 18 92 L 18 94 L 16 94 L 15 98 L 13 98 Q 14 102 11 101 L 11 120 L 13 120 L 13 124 L 18 129 L 20 129 Q 19 132 22 131 Q 23 134 25 132 L 29 133 L 32 137 Q 30 144 34 146 Q 32 151 36 150 Q 35 157 39 160 Q 38 163 41 162 L 41 166 L 43 166 L 46 172 L 54 178 Q 56 177 55 180 L 57 180 L 57 182 Q 66 183 71 189 L 76 189 Q 77 192 82 191 Q 83 194 85 192 L 87 193 L 111 193 L 112 192 L 114 193 L 121 189 Q 126 191 125 187 Q 131 188 134 184 L 136 184 L 138 180 L 141 180 L 143 176 L 146 175 Q 145 172 148 173 L 148 171 L 154 168 Q 153 163 157 161 Q 156 156 159 157 Q 158 154 161 153 Q 159 147 163 148 L 162 146 Q 165 141 164 134 L 171 132 Q 172 134 174 131 L 176 131 L 176 129 L 180 127 L 180 125 L 182 125 L 182 122 L 184 122 Q 183 116 186 115 L 185 112 L 186 110 L 184 105 L 184 101 Q 181 101 182 96 L 180 96 Q 181 93 179 94 L 177 92 L 173 89 L 173 83 L 177 81 L 178 78 Q 177 75 180 76 Q 179 73 182 72 Q 181 68 184 69 L 184 49 L 182 47 L 182 44 Q 179 44 180 39 L 177 38 Q 178 35 175 36 L 175 34 L 172 34 L 166 29 Q 163 30 164 28 L 159 24 Q 160 19 157 20 L 154 15 Q 155 12 152 13 L 152 11 L 148 11 L 148 9 Q 145 10 144 7 L 142 8 L 139 6 L 121 6 L 120 8 Q 118 6 117 9 Q 113 8 114 11 L 109 11 L 105 9 Q 103 5 102 8 L 99 6 L 81 6 Z " /><path fill="rgb(0,0,0)" stroke="rgb(0,0,0)" stroke-width="1" opacity="0.011764705882352941" d="M 69 107 L 73 107 Q 72 110 75 109 L 75 115 L 63 115 L 63 111 Q 67.7 112 69 108.5 L 69 107 Z " /><path fill="rgb(0,0,0)" stroke="rgb(0,0,0)" stroke-width="1" opacity="0.011764705882352941" d="M 125 107 L 130 107 L 130 109 Q 132.7 107.9 132 110.5 L 133 115 L 120.5 115 L 120 111 Q 127.1 113.4 125 107 Z " /></svg>