<svg width="200" height="200" version="1.1" xmlns="http://www.w3.org/2000/svg" desc="Created with imagetracer.js version 1.2.6" ><path fill="rgb(63,63,63)" stroke="rgb(63,63,63)" stroke-width="1" opacity="0.30196078431372547" d="M 80.5 5 L 84 5.5 L 78 8.5 L 77 10.5 L 77 50 L 67 57.5 Q 61 63.5 58 72.5 L 56 79.5 L 56 89.5 L 56.5 91 Q 53.5 91.9 55 87.5 L 55 85.5 L 56 73.5 L 62 61.5 L 74.5 49 L 76 48.5 L 76 14.5 L 75 12.5 L 78.5 6 L 80.5 5 Z " /><path fill="rgb(63,63,63)" stroke="rgb(63,63,63)" stroke-width="1" opacity="0.30196078431372547" d="M 117.5 5 L 120.5 5 L 125 9.5 L 125 48.5 L 126.5 50 L 128 50 L 128 52 Q 130.7 50.9 130 53.5 L 125.5 50 L 124 49.5 L 124 10.5 L 121.5 7 L 117.5 6 L 117.5 5 Z " /><path fill="rgb(63,63,63)" stroke="rgb(63,63,63)" stroke-width="1" opacity="0.30196078431372547" d="M 114.5 37 L 114 38.5 L 113.5 47 L 113 38.5 L 114.5 37 Z " /><path fill="rgb(63,63,63)" stroke="rgb(63,63,63)" stroke-width="1" opacity="0.30196078431372547" d="M 81.5 38 L 82 51.5 L 81 51.5 L 81.5 38 Z " /><path fill="rgb(63,63,63)" stroke="rgb(63,63,63)" stroke-width="1" opacity="0.30196078431372547" d="M 131.5 54 L 139 62.5 L 144 71.5 L 147 85.5 L 146 87.5 L 146 89.5 L 144.5 92 L 144 90.5 L 145 89.5 L 145 79.5 L 141 67.5 L 131.5 54 Z " /><path fill="rgb(63,63,63)" stroke="rgb(63,63,63)" stroke-width="1" opacity="0.30196078431372547" d="M 55 96 L 59 96.5 L 56 97 Q 53.7 112.1 61 118.5 L 59 119 L 55 110.5 Q 56.3 105.8 54 104.5 L 55 99.5 L 55 97.5 L 55 96 Z " /><path fill="rgb(63,63,63)" stroke="rgb(63,63,63)" stroke-width="1" opacity="0.30196078431372547" d="M 142.5 96 Q 146.5 95.5 147 98.5 L 146 99.5 L 146 110.5 L 140.5 120 L 140 118.5 Q 147.3 112.1 145 97 Q 141.7 97.7 142.5 96 Z " /><path fill="rgb(63,63,63)" stroke="rgb(63,63,63)" stroke-width="1" opacity="0.30196078431372547" d="M 60.5 99 L 61 103.5 L 60 103.5 L 60.5 99 Z " /><path fill="rgb(63,63,63)" stroke="rgb(63,63,63)" stroke-width="1" opacity="0.30196078431372547" d="M 58.5 149 L 61 149.5 L 53 154.5 Q 49.8 157.8 51 165.5 L 54 170.5 L 47 176.5 L 45 182.5 L 46 185 L 124 185.5 L 45 186 L 44 180.5 Q 45.5 174 50.5 171 Q 52.8 171.8 52 169.5 Q 48.2 166.3 50 157.5 L 52 153 L 58.5 149 Z " /><path fill="rgb(63,63,63)" stroke="rgb(63,63,63)" stroke-width="1" opacity="0.30196078431372547" d="M 140.5 149 L 146 151.5 Q 145.3 153.8 147.5 153 Q 152.6 156.4 151 166.5 L 149 170.5 L 152 172 L 152 174 Q 154.7 172.9 154 175.5 L 156 177.5 L 157 184.5 L 154.5 186 L 156 183.5 Q 155.3 175.3 149.5 172 L 147 170.5 Q 151.3 167.3 150 158.5 L 143.5 151 Q 139.8 150.8 140.5 149 Z " /><path fill="rgb(218,129,109)" stroke="rgb(218,129,109)" stroke-width="1" opacity="0.9490196078431372" d="M 86.5 5 L 97 5.5 L 90.5 8 L 86.5 6 L 86.5 5 Z " /><path fill="rgb(218,129,109)" stroke="rgb(218,129,109)" stroke-width="1" opacity="0.9490196078431372" d="M 104.5 5 L 115 5.5 L 109.5 8 L 104.5 6 L 104.5 5 Z " /><path fill="rgb(218,129,109)" stroke="rgb(218,129,109)" stroke-width="1" opacity="0.9490196078431372" d="M 83.5 11 L 87 12.5 L 88.5 15 L 96.5 11 L 104.5 11 L 112.5 15 L 115.5 11 L 119 12.5 L 119 32 L 82 32 L 82 12.5 L 83.5 11 Z " /><path fill="rgb(218,129,109)" stroke="rgb(218,129,109)" stroke-width="1" opacity="0.9490196078431372" d="M 125.5 12 L 126 48.5 L 125 48.5 L 125.5 12 Z " /><path fill="rgb(218,129,109)" stroke="rgb(218,129,109)" stroke-width="1" opacity="0.9490196078431372" d="M 75.5 14 L 76 48.5 L 75 48.5 L 75.5 14 Z " /><path fill="rgb(218,129,109)" stroke="rgb(218,129,109)" stroke-width="1" opacity="0.9490196078431372" d="M 82 37 Q 85.8 36 87 38.5 Q 85.5 52.5 93.5 57 Q 96.2 59.8 102.5 59 Q 109 57.5 112 52.5 Q 115 47.5 114 38.5 L 115.5 37 L 119 38.5 L 119 55.5 L 112.5 66 Q 107.7 70.7 97.5 70 Q 90 68.5 86 63.5 L 82 56.5 L 82 37 Z " /><path fill="rgb(218,129,109)" stroke="rgb(218,129,109)" stroke-width="1" opacity="0.9490196078431372" d="M 92 38 L 108 38 L 108 48.5 L 104.5 53 L 99.5 54 L 93 49.5 L 92 38 Z " /><path fill="rgb(218,129,109)" stroke="rgb(218,129,109)" stroke-width="1" opacity="0.9490196078431372" d="M 71.5 51 L 65.5 58 L 71.5 51 Z " /><path fill="rgb(218,129,109)" stroke="rgb(218,129,109)" stroke-width="1" opacity="0.9490196078431372" d="M 124.5 56 L 130 60.5 L 138 73.5 L 140 80.5 L 140 88.5 L 142.5 91 L 144 91 L 144 96 L 140 98.5 Q 141.8 112.8 134.5 118 L 127.5 122 L 124 122 L 124.5 56 Z " /><path fill="rgb(218,129,109)" stroke="rgb(218,129,109)" stroke-width="1" opacity="0.9490196078431372" d="M 74.5 57 L 77 57.5 L 77 122 L 73.5 122 L 65 116.5 L 61 109.5 Q 63.1 99.4 58.5 96 L 56 95.5 L 57 92.5 L 56.5 91 L 60 89.5 L 61 79.5 L 64 70.5 L 74.5 57 Z " /><path fill="rgb(218,129,109)" stroke="rgb(218,129,109)" stroke-width="1" opacity="0.9490196078431372" d="M 135.5 58 L 137.5 61 L 135.5 58 Z " /><path fill="rgb(218,129,109)" stroke="rgb(218,129,109)" stroke-width="1" opacity="0.9490196078431372" d="M 82.5 67 Q 88.5 77 106.5 75 L 118.5 68 L 119 72.5 L 118 73.5 L 118 85 L 111.5 86 L 103.5 80 L 97.5 80 L 90 84.5 Q 90.9 87.5 86.5 86 L 83.5 85 L 82 85.5 L 82.5 67 Z " /><path fill="rgb(218,129,109)" stroke="rgb(218,129,109)" stroke-width="1" opacity="0.9490196078431372" d="M 54.5 82 L 55 85.5 L 54 85.5 L 54.5 82 Z " /><path fill="rgb(218,129,109)" stroke="rgb(218,129,109)" stroke-width="1" opacity="0.9490196078431372" d="M 97.5 86 Q 104.8 84.8 107 88.5 L 108 90.5 L 100.5 96 L 93 90.5 L 95.5 87 L 97.5 86 Z " /><path fill="rgb(218,129,109)" stroke="rgb(218,129,109)" stroke-width="1" opacity="0.9490196078431372" d="M 83.5 91 L 87 92.5 L 88.5 96 Q 94.9 96.1 97 100.5 L 98 105.5 L 94.5 111 L 87.5 112 L 83 108.5 L 82 106.5 L 82 92.5 L 83.5 91 Z " /><path fill="rgb(218,129,109)" stroke="rgb(218,129,109)" stroke-width="1" opacity="0.9490196078431372" d="M 115.5 91 L 119 92.5 L 119 106.5 L 115.5 111 L 108.5 112 L 104 108.5 L 103 102.5 L 105 98 L 113 96 L 115.5 91 Z " /><path fill="rgb(218,129,109)" stroke="rgb(218,129,109)" stroke-width="1" opacity="0.9490196078431372" d="M 54.5 99 L 55 103.5 L 54 103.5 L 54.5 99 Z " /><path fill="rgb(218,129,109)" stroke="rgb(218,129,109)" stroke-width="1" opacity="0.9490196078431372" d="M 146.5 99 L 147 105.5 L 146 105.5 L 146.5 99 Z " /><path fill="rgb(218,129,109)" stroke="rgb(218,129,109)" stroke-width="1" opacity="0.9490196078431372" d="M 99.5 113 L 106.5 117 L 113.5 118 L 117.5 116 L 118 159.5 L 123 169.5 L 78 170 L 82 161.5 L 82.5 115 L 89.5 118 L 94.5 117 L 99.5 113 Z " /><path fill="rgb(218,129,109)" stroke="rgb(218,129,109)" stroke-width="1" opacity="0.9490196078431372" d="M 60.5 119 L 61 132.5 L 60 132.5 L 60.5 119 Z " /><path fill="rgb(218,129,109)" stroke="rgb(218,129,109)" stroke-width="1" opacity="0.9490196078431372" d="M 140.5 120 L 141 148.5 L 140 148.5 L 140.5 120 Z " /><path fill="rgb(218,129,109)" stroke="rgb(218,129,109)" stroke-width="1" opacity="0.9490196078431372" d="M 66.5 124 Q 70.5 127.7 77 128 L 77 158.5 L 72.5 167 Q 69.3 170.8 61.5 170 L 57 166.5 L 56 159.5 L 60.5 155 L 66 154 L 66.5 124 Z " /><path fill="rgb(218,129,109)" stroke="rgb(218,129,109)" stroke-width="1" opacity="0.9490196078431372" d="M 133.5 125 Q 135.8 124.3 135 126.5 L 134 127.5 L 134 152.5 L 144 158.5 L 145 164.5 L 141.5 169 L 134.5 170 L 127 165.5 L 124 158.5 L 124 128 L 133.5 125 Z " /><path fill="rgb(218,129,109)" stroke="rgb(218,129,109)" stroke-width="1" opacity="0.9490196078431372" d="M 60.5 134 L 61 148.5 L 60 148.5 L 60.5 134 Z " /><path fill="rgb(218,129,109)" stroke="rgb(218,129,109)" stroke-width="1" opacity="0.9490196078431372" d="M 54.5 151 L 53.5 153 L 54.5 151 Z " /><path fill="rgb(218,129,109)" stroke="rgb(218,129,109)" stroke-width="1" opacity="0.9490196078431372" d="M 55.5 175 L 143.5 175 L 150 179.5 L 149.5 181 L 52.5 181 Q 49.8 179.8 52 178.5 Q 51.3 176.3 53.5 177 L 55.5 175 Z " /><path fill="rgb(6,3,2)" stroke="rgb(6,3,2)" stroke-width="1" opacity="0.9882352941176471" d="M 99.5 5 L 102 5.5 L 99.5 6 L 99.5 5 Z " /><path fill="rgb(6,3,2)" stroke="rgb(6,3,2)" stroke-width="1" opacity="0.9882352941176471" d="M 113.5 6 L 115 6.5 L 109.5 9 L 107 7.5 L 108.5 7 L 110.5 8 L 113.5 6 Z " /><path fill="rgb(6,3,2)" stroke="rgb(6,3,2)" stroke-width="1" opacity="0.9882352941176471" d="M 79.5 7 L 79 8.5 L 77.5 12 L 77 10.5 L 79.5 7 Z " /><path fill="rgb(6,3,2)" stroke="rgb(6,3,2)" stroke-width="1" opacity="0.9882352941176471" d="M 92.5 7 L 94 7.5 L 90.5 9 L 90.5 8 L 92.5 7 Z " /><path fill="rgb(6,3,2)" stroke="rgb(6,3,2)" stroke-width="1" opacity="0.9882352941176471" d="M 121.5 7 L 122.5 9 L 121.5 7 Z " /><path fill="rgb(6,3,2)" stroke="rgb(6,3,2)" stroke-width="1" opacity="0.9882352941176471" d="M 82.5 10 Q 87.3 9.3 88 12.5 Q 87.2 15.1 90.5 14 Q 93.9 8.4 104.5 10 L 111.5 14 L 114.5 10 Q 119.9 8.1 119 11.5 L 120 12.5 L 120 33 L 81 33 L 81 11.5 L 82.5 10 Z M 84 11 L 82 13 L 82 32 L 119 32 L 119 13 L 116 11 L 113 15 L 105 11 L 97 11 L 89 15 L 87 13 L 84 11 Z " /><path fill="rgb(6,3,2)" stroke="rgb(6,3,2)" stroke-width="1" opacity="0.9882352941176471" d="M 87.5 37 L 88 46.5 L 87 46.5 L 87.5 37 Z " /><path fill="rgb(6,3,2)" stroke="rgb(6,3,2)" stroke-width="1" opacity="0.9882352941176471" d="M 92.5 37 L 109 37 L 109 49.5 Q 106.9 54.3 100.5 55 L 100.5 54 Q 105.3 53.8 107 50.5 L 108 48.5 L 108 38 L 92 38 L 92 43.5 L 91 43.5 Q 89.8 38.3 92.5 37 Z " /><path fill="rgb(6,3,2)" stroke="rgb(6,3,2)" stroke-width="1" opacity="0.9882352941176471" d="M 119.5 37 L 120 55.5 L 119 55.5 L 119.5 37 Z " /><path fill="rgb(6,3,2)" stroke="rgb(6,3,2)" stroke-width="1" opacity="0.9882352941176471" d="M 123.5 38 L 124 48.5 L 123 48.5 L 123.5 38 Z " /><path fill="rgb(6,3,2)" stroke="rgb(6,3,2)" stroke-width="1" opacity="0.9882352941176471" d="M 92.5 47 L 96.5 53 L 99 53.5 L 96.5 54 L 92 49.5 L 92.5 47 Z " /><path fill="rgb(6,3,2)" stroke="rgb(6,3,2)" stroke-width="1" opacity="0.9882352941176471" d="M 112.5 48 L 113 50.5 L 107.5 57 L 104.5 58 L 104.5 57 L 111 52.5 L 112.5 48 Z " /><path fill="rgb(6,3,2)" stroke="rgb(6,3,2)" stroke-width="1" opacity="0.9882352941176471" d="M 75.5 50 L 77 50.5 L 67.5 58 L 71.5 53 L 75.5 50 Z " /><path fill="rgb(6,3,2)" stroke="rgb(6,3,2)" stroke-width="1" opacity="0.9882352941176471" d="M 124.5 50 L 128 52.5 L 125.5 51 L 124.5 50 Z " /><path fill="rgb(6,3,2)" stroke="rgb(6,3,2)" stroke-width="1" opacity="0.9882352941176471" d="M 81.5 52 L 82 55.5 L 81 55.5 L 81.5 52 Z " /><path fill="rgb(6,3,2)" stroke="rgb(6,3,2)" stroke-width="1" opacity="0.9882352941176471" d="M 89.5 52 L 93.5 57 L 89.5 52 Z " /><path fill="rgb(6,3,2)" stroke="rgb(6,3,2)" stroke-width="1" opacity="0.9882352941176471" d="M 130.5 54 L 133.5 58 L 130.5 54 Z " /><path fill="rgb(6,3,2)" stroke="rgb(6,3,2)" stroke-width="1" opacity="0.9882352941176471" d="M 124.5 55 L 125.5 57 L 124 56.5 L 124 121.5 L 127.5 122 L 127.5 123 Q 123 123.5 123 122.5 L 123 56.5 L 124.5 55 Z " /><path fill="rgb(6,3,2)" stroke="rgb(6,3,2)" stroke-width="1" opacity="0.9882352941176471" d="M 74.5 56 L 69 62.5 L 65.5 68 L 66 66.5 L 74.5 56 Z " /><path fill="rgb(6,3,2)" stroke="rgb(6,3,2)" stroke-width="1" opacity="0.9882352941176471" d="M 82.5 57 L 85 61.5 L 83 60.5 L 82.5 57 Z " /><path fill="rgb(6,3,2)" stroke="rgb(6,3,2)" stroke-width="1" opacity="0.9882352941176471" d="M 118.5 57 L 119 58.5 L 112.5 67 L 110.5 68 L 111.5 66 L 115 63.5 L 118.5 57 Z " /><path fill="rgb(6,3,2)" stroke="rgb(6,3,2)" stroke-width="1" opacity="0.9882352941176471" d="M 98.5 58 L 103 58.5 L 98.5 59 L 98.5 58 Z " /><path fill="rgb(6,3,2)" stroke="rgb(6,3,2)" stroke-width="1" opacity="0.9882352941176471" d="M 128.5 58 L 129.5 60 L 128.5 58 Z " /><path fill="rgb(6,3,2)" stroke="rgb(6,3,2)" stroke-width="1" opacity="0.9882352941176471" d="M 66.5 59 L 64 62.5 L 60.5 69 L 60 67.5 L 66.5 59 Z " /><path fill="rgb(6,3,2)" stroke="rgb(6,3,2)" stroke-width="1" opacity="0.9882352941176471" d="M 135.5 60 L 139 64.5 L 137 63.5 L 135.5 60 Z " /><path fill="rgb(6,3,2)" stroke="rgb(6,3,2)" stroke-width="1" opacity="0.9882352941176471" d="M 131.5 62 L 133.5 65 L 131.5 62 Z " /><path fill="rgb(6,3,2)" stroke="rgb(6,3,2)" stroke-width="1" opacity="0.9882352941176471" d="M 85.5 63 L 87.5 66 L 85.5 63 Z " /><path fill="rgb(6,3,2)" stroke="rgb(6,3,2)" stroke-width="1" opacity="0.9882352941176471" d="M 81 66 L 89.5 72 Q 95.3 75.3 105.5 74 L 120 66 L 120 86.5 L 117.5 87 L 115.5 87 L 112.5 88 Q 108.8 81.2 98.5 81 Q 92.8 82.3 90 86.5 Q 90.8 88.8 88.5 88 L 84.5 86 L 82.5 87 L 81 85.5 L 81 66 Z M 83 67 L 82 86 L 84 85 L 87 86 Q 91 87 90 85 L 98 80 L 104 80 L 112 86 L 118 85 L 118 74 L 119 73 L 119 68 L 107 75 Q 89 77 83 67 Z " /><path fill="rgb(6,3,2)" stroke="rgb(6,3,2)" stroke-width="1" opacity="0.9882352941176471" d="M 89.5 66 L 90.5 68 L 89.5 66 Z " /><path fill="rgb(6,3,2)" stroke="rgb(6,3,2)" stroke-width="1" opacity="0.9882352941176471" d="M 134.5 66 L 137 69.5 L 135 68.5 L 134.5 66 Z " /><path fill="rgb(6,3,2)" stroke="rgb(6,3,2)" stroke-width="1" opacity="0.9882352941176471" d="M 139.5 66 L 141 68.5 L 140 68.5 L 139.5 66 Z " /><path fill="rgb(6,3,2)" stroke="rgb(6,3,2)" stroke-width="1" opacity="0.9882352941176471" d="M 99.5 70 L 103 70.5 L 99.5 71 L 99.5 70 Z " /><path fill="rgb(6,3,2)" stroke="rgb(6,3,2)" stroke-width="1" opacity="0.9882352941176471" d="M 57.5 75 L 58 77.5 L 57 77.5 L 57.5 75 Z " /><path fill="rgb(6,3,2)" stroke="rgb(6,3,2)" stroke-width="1" opacity="0.9882352941176471" d="M 143.5 75 L 144 77.5 L 143 77.5 L 143.5 75 Z " /><path fill="rgb(6,3,2)" stroke="rgb(6,3,2)" stroke-width="1" opacity="0.9882352941176471" d="M 56.5 79 L 57 83.5 L 56 83.5 L 56.5 79 Z " /><path fill="rgb(6,3,2)" stroke="rgb(6,3,2)" stroke-width="1" opacity="0.9882352941176471" d="M 144.5 79 L 145 83.5 L 144 83.5 L 144.5 79 Z " /><path fill="rgb(6,3,2)" stroke="rgb(6,3,2)" stroke-width="1" opacity="0.9882352941176471" d="M 60.5 80 L 61 84.5 L 60 84.5 L 60.5 80 Z " /><path fill="rgb(6,3,2)" stroke="rgb(6,3,2)" stroke-width="1" opacity="0.9882352941176471" d="M 140.5 81 L 141 86.5 L 140 86.5 L 140.5 81 Z " /><path fill="rgb(6,3,2)" stroke="rgb(6,3,2)" stroke-width="1" opacity="0.9882352941176471" d="M 97.5 85 Q 105.8 83.7 108 88.5 L 109 92 L 100.5 97 Q 97.6 92.8 92 92 L 95.5 86 L 97.5 85 Z M 98 86 L 96 87 L 93 91 L 101 96 L 108 91 L 107 89 Q 105 85 98 86 Z " /><path fill="rgb(6,3,2)" stroke="rgb(6,3,2)" stroke-width="1" opacity="0.9882352941176471" d="M 56.5 89 L 58.5 90 L 60 89.5 L 57.5 91 L 56.5 89 Z " /><path fill="rgb(6,3,2)" stroke="rgb(6,3,2)" stroke-width="1" opacity="0.9882352941176471" d="M 77.5 89 L 78 123 L 74 122.5 L 77 122 L 77.5 89 Z " /><path fill="rgb(6,3,2)" stroke="rgb(6,3,2)" stroke-width="1" opacity="0.9882352941176471" d="M 141.5 89 L 143.5 90 L 145 89.5 L 142.5 91 L 141.5 89 Z " /><path fill="rgb(6,3,2)" stroke="rgb(6,3,2)" stroke-width="1" opacity="0.9882352941176471" d="M 83.5 90 Q 87.5 89.5 88 92.5 Q 86.8 96.3 90.5 95 L 90.5 96 L 87 94.5 L 85.5 91 L 82 92.5 L 82 106.5 L 85.5 111 L 92.5 112 L 96 109.5 L 98.5 103 L 99 105.5 L 94.5 112 L 87.5 113 L 82 108.5 L 81 106.5 L 81 92.5 L 83.5 90 Z " /><path fill="rgb(6,3,2)" stroke="rgb(6,3,2)" stroke-width="1" opacity="0.9882352941176471" d="M 115.5 90 Q 119.5 89.5 120 92.5 L 120 106.5 L 115.5 112 L 109.5 113 L 109.5 112 Q 116.4 112.9 118 108.5 L 119 106.5 L 119 92.5 L 115.5 91 L 113 96 L 105 98 L 102.5 106 L 102 102.5 L 106.5 96 L 113 93.5 Q 111.9 90.2 114.5 91 L 115.5 90 Z " /><path fill="rgb(6,3,2)" stroke="rgb(6,3,2)" stroke-width="1" opacity="0.9882352941176471" d="M 92.5 96 L 97 98 L 98 101.5 L 97 101.5 L 93.5 97 L 92.5 96 Z " /><path fill="rgb(6,3,2)" stroke="rgb(6,3,2)" stroke-width="1" opacity="0.9882352941176471" d="M 140.5 99 L 141 108.5 L 140 108.5 L 140.5 99 Z " /><path fill="rgb(6,3,2)" stroke="rgb(6,3,2)" stroke-width="1" opacity="0.9882352941176471" d="M 144.5 102 L 145 104.5 L 144 104.5 L 144.5 102 Z " /><path fill="rgb(6,3,2)" stroke="rgb(6,3,2)" stroke-width="1" opacity="0.9882352941176471" d="M 60.5 104 L 61 108.5 L 60 108.5 L 60.5 104 Z " /><path fill="rgb(6,3,2)" stroke="rgb(6,3,2)" stroke-width="1" opacity="0.9882352941176471" d="M 144.5 106 L 145 109.5 L 144 109.5 L 144.5 106 Z " /><path fill="rgb(6,3,2)" stroke="rgb(6,3,2)" stroke-width="1" opacity="0.9882352941176471" d="M 56.5 107 L 57 109.5 L 56 109.5 L 56.5 107 Z " /><path fill="rgb(6,3,2)" stroke="rgb(6,3,2)" stroke-width="1" opacity="0.9882352941176471" d="M 103.5 107 L 106.5 111 L 108 111.5 L 106.5 112 L 103 108.5 L 103.5 107 Z " /><path fill="rgb(6,3,2)" stroke="rgb(6,3,2)" stroke-width="1" opacity="0.9882352941176471" d="M 61.5 110 L 64 114.5 L 62 113.5 L 61.5 110 Z " /><path fill="rgb(6,3,2)" stroke="rgb(6,3,2)" stroke-width="1" opacity="0.9882352941176471" d="M 139.5 110 L 140 111.5 L 133.5 120 L 131.5 121 L 132.5 119 L 136 116.5 L 139.5 110 Z " /><path fill="rgb(6,3,2)" stroke="rgb(6,3,2)" stroke-width="1" opacity="0.9882352941176471" d="M 100.5 111 Q 103.6 116.4 111.5 117 L 118.5 114 L 120 115.5 L 120 162.5 L 125 171 L 76.5 171 L 76 169.5 L 81 161.5 L 81 114 Q 84.6 117.1 93.5 116 L 100.5 111 Z M 100 113 L 95 117 L 90 118 L 83 115 L 82 162 L 78 170 L 123 170 L 118 160 L 118 116 L 114 118 L 107 117 L 100 113 Z " /><path fill="rgb(6,3,2)" stroke="rgb(6,3,2)" stroke-width="1" opacity="0.9882352941176471" d="M 143.5 111 L 144 112.5 L 140 118.5 L 140 150 L 145 152.5 L 143.5 152 L 139 149.5 L 139 118.5 L 143.5 111 Z " /><path fill="rgb(6,3,2)" stroke="rgb(6,3,2)" stroke-width="1" opacity="0.9882352941176471" d="M 59.5 116 L 62 118.5 L 62 149.5 L 59.5 151 L 59.5 150 L 61 149.5 L 61 118.5 L 59.5 116 Z " /><path fill="rgb(6,3,2)" stroke="rgb(6,3,2)" stroke-width="1" opacity="0.9882352941176471" d="M 65.5 117 L 66.5 119 L 65.5 117 Z " /><path fill="rgb(6,3,2)" stroke="rgb(6,3,2)" stroke-width="1" opacity="0.9882352941176471" d="M 68.5 119 L 69.5 121 L 68.5 119 Z " /><path fill="rgb(6,3,2)" stroke="rgb(6,3,2)" stroke-width="1" opacity="0.9882352941176471" d="M 65 123 L 78 128.5 L 78 158.5 Q 76.9 165.9 71.5 169 Q 68.2 171.7 61.5 171 L 56 166.5 L 55 159.5 L 58.5 155 L 65 152.5 L 65 123 Z M 67 124 L 66 154 L 61 155 L 56 160 L 57 167 L 62 170 Q 69 171 73 167 L 77 159 L 77 128 Q 71 128 67 124 Z " /><path fill="rgb(6,3,2)" stroke="rgb(6,3,2)" stroke-width="1" opacity="0.9882352941176471" d="M 134.5 123 L 136 124.5 L 136 154 Q 142.5 153.8 145 158.5 L 146 164.5 L 144 169 Q 141.1 171.9 133.5 171 L 125 164.5 L 123 158.5 L 123 127 Q 130.3 127 134.5 123 Z M 134 125 L 124 128 L 124 159 L 127 166 L 135 170 L 142 169 L 145 165 L 144 159 L 134 153 L 134 128 L 135 127 Q 136 124 134 125 Z " /><path fill="rgb(6,3,2)" stroke="rgb(6,3,2)" stroke-width="1" opacity="0.9882352941176471" d="M 57.5 151 L 56.5 153 L 54 154.5 L 52.5 157 L 53 155.5 L 55.5 152 L 57.5 151 Z " /><path fill="rgb(6,3,2)" stroke="rgb(6,3,2)" stroke-width="1" opacity="0.9882352941176471" d="M 147.5 155 Q 151.5 157.5 150 165.5 L 149 165.5 Q 149.9 157.5 147.5 155 Z " /><path fill="rgb(6,3,2)" stroke="rgb(6,3,2)" stroke-width="1" opacity="0.9882352941176471" d="M 51.5 158 L 52 165.5 L 51 165.5 L 51.5 158 Z " /><path fill="rgb(6,3,2)" stroke="rgb(6,3,2)" stroke-width="1" opacity="0.9882352941176471" d="M 148.5 167 L 149 168.5 Q 145.3 170.3 148.5 172 L 154 176.5 L 149.5 173 L 146 170.5 L 148.5 167 Z " /><path fill="rgb(6,3,2)" stroke="rgb(6,3,2)" stroke-width="1" opacity="0.9882352941176471" d="M 53.5 169 Q 56.5 170.5 53.5 172 L 53.5 169 Z " /><path fill="rgb(6,3,2)" stroke="rgb(6,3,2)" stroke-width="1" opacity="0.9882352941176471" d="M 51.5 172 L 47.5 177 L 51.5 172 Z " /><path fill="rgb(6,3,2)" stroke="rgb(6,3,2)" stroke-width="1" opacity="0.9882352941176471" d="M 56.5 174 L 97 174.5 L 56.5 175 L 56.5 174 Z " /><path fill="rgb(6,3,2)" stroke="rgb(6,3,2)" stroke-width="1" opacity="0.9882352941176471" d="M 145.5 175 L 151 179.5 L 150.5 181 L 146.5 176 L 145.5 175 Z " /><path fill="rgb(6,3,2)" stroke="rgb(6,3,2)" stroke-width="1" opacity="0.9882352941176471" d="M 52.5 176 L 51.5 178 L 52.5 176 Z " /><path fill="rgb(6,3,2)" stroke="rgb(6,3,2)" stroke-width="1" opacity="0.9882352941176471" d="M 155.5 182 L 156 183.5 L 153.5 186 L 124.5 186 L 124.5 185 L 153.5 185 L 155 183.5 L 155.5 182 Z " /><path fill="rgb(0,0,0)" stroke="rgb(0,0,0)" stroke-width="1" opacity="0" d="M 0 0 L 200 0 L 200 200 L 0 200 L 0 0 Z M 80 5 L 75 12 L 75 49 L 72 51 Q 58 62 54 83 Q 53 90 57 93 L 54 99 Q 53 113 60 120 L 60 149 L 55 151 L 50 158 L 49 163 L 52 170 Q 53 172 51 171 Q 45 173 44 180 L 45 186 L 156 186 L 157 185 Q 158 178 155 176 L 149 171 L 152 163 L 149 155 Q 146 150 141 149 L 141 120 L 145 114 L 147 106 Q 149 99 146 98 Q 147 95 144 96 Q 143 91 147 90 L 146 78 Q 144 67 138 61 L 128 50 L 126 50 L 126 13 L 123 6 L 121 5 L 80 5 Z " /><path fill="rgb(0,0,0)" stroke="rgb(0,0,0)" stroke-width="1" opacity="1" d="M 83.5 6 Q 89.6 5.4 91.5 9 Q 95 5 103.5 6 L 110.5 9 Q 112.4 5.4 118.5 6 L 123 9.5 L 124 12.5 L 124 37.5 L 123 38.5 L 123 48.5 L 124 51 Q 130.9 53.1 135 59.5 Q 144.3 69.7 145 88.5 L 142.5 90 L 141 88.5 L 141 81.5 L 138 71.5 L 128.5 58 L 124.5 55 L 123 56.5 L 123 123 L 127.5 123 L 137 116.5 L 141 108.5 L 141 98.5 L 142.5 97 L 145 98.5 L 144 104.5 L 144 106.5 L 144 110.5 L 139 118.5 L 139 149.5 L 147 154.5 Q 150.3 158.2 149 166.5 L 146 170.5 L 154 177.5 L 155 183.5 L 153.5 185 L 47.5 185 Q 45.3 184.3 46 180.5 Q 47.4 174.4 52.5 172 L 55 170.5 Q 50.1 167.4 52 157.5 L 55.5 153 L 62 149.5 L 62 118.5 Q 55 112.5 56 98.5 L 58.5 97 L 60 98.5 Q 58.7 106.7 61 111.5 L 66.5 119 Q 70.8 123 78 123 L 76.5 55 L 68 62.5 L 62 73.5 L 60 80.5 L 60 88.5 L 58.5 90 L 56 88.5 L 59 71.5 Q 63.3 61.8 70.5 55 L 77 51 L 77 12.5 L 80.5 7 L 83.5 6 Z M 83 10 L 81 12 L 81 33 L 120 33 L 120 13 L 119 12 Q 120 8 115 10 L 112 14 L 105 10 Q 94 8 91 14 Q 87 15 88 13 Q 87 9 83 10 Z M 81 37 L 81 56 L 85 64 Q 90 69 100 71 Q 108 71 113 67 Q 118 63 120 56 L 120 37 L 113 37 Q 115 47 111 53 L 104 58 L 95 57 Q 89 55 88 49 L 88 37 L 81 37 Z M 93 37 L 91 39 L 92 50 L 97 54 L 101 55 Q 107 54 109 50 L 109 37 L 93 37 Z M 81 66 L 81 86 L 83 87 L 85 86 L 89 88 Q 91 89 90 87 Q 93 82 99 81 Q 109 81 113 88 L 116 87 L 118 87 L 120 87 L 120 66 L 106 74 Q 95 75 90 72 L 81 66 Z M 98 85 L 96 86 L 92 92 Q 98 93 101 97 L 109 92 L 108 89 Q 106 84 98 85 Z M 84 90 L 81 93 L 81 107 L 82 109 L 88 113 L 95 112 L 99 106 L 97 98 L 91 95 Q 87 96 88 93 Q 88 89 84 90 Z M 116 90 L 115 91 Q 112 90 113 94 L 107 96 L 102 103 L 103 109 L 110 113 L 116 112 L 120 107 L 120 93 Q 119 89 116 90 Z M 101 111 L 94 116 Q 85 117 81 114 L 81 162 L 76 170 L 77 171 L 125 171 L 120 163 L 120 116 L 119 114 L 112 117 Q 104 116 101 111 Z M 65 123 L 65 153 L 59 155 L 55 160 L 56 167 L 62 171 Q 68 172 72 169 Q 77 166 78 159 L 78 129 L 65 123 Z M 135 123 Q 130 127 123 127 L 123 159 L 125 165 L 134 171 Q 141 172 144 169 L 146 165 L 145 159 Q 143 154 136 154 L 136 125 L 135 123 Z M 57 174 L 53 176 L 50 181 L 151 181 L 151 180 L 147 175 L 57 174 Z " /></svg>