<svg width="200" height="200" version="1.1" xmlns="http://www.w3.org/2000/svg" desc="Created with imagetracer.js version 1.2.6" ><path fill="rgb(0,0,0)" stroke="rgb(0,0,0)" stroke-width="1" opacity="0" d="M 0 0 L 200 0 L 200 200 L 0 200 L 0 0 Z M 99 9 L 97 11 L 97 36 L 93 39 L 91 42 L 89 43 L 87 46 L 83 48 L 80 53 Q 77 52 78 55 L 65 68 L 23 68 L 20 69 L 20 73 L 17 77 L 11 93 Q 12 96 9 95 L 8 100 L 8 192 L 10 193 L 193 193 L 193 137 L 194 136 L 194 101 L 192 99 L 190 92 Q 191 89 188 90 L 188 87 L 183 77 L 182 71 L 179 68 L 138 68 L 107 37 L 105 37 Q 103 34 104 28 Q 104 25 109 25 Q 111 26 110 31 L 112 32 L 131 32 L 132 31 L 132 19 Q 131 16 127 17 Q 124 16 125 11 L 107 11 Q 105 7 99 9 Z " /><path fill="rgb(125,69,51)" stroke="rgb(125,69,51)" stroke-width="1" opacity="0.9725490196078431" d="M 98 10 L 103 10.5 L 103 25.5 L 104 26.5 L 104 34.5 L 103 37.5 L 107 40.5 L 108.5 43 L 112 45.5 Q 111.3 47.8 113.5 47 L 117.5 52 L 120 53.5 L 121.5 56 L 125 58.5 L 126.5 61 L 129 62.5 L 130.5 65 Q 143.9 73.1 153 85.5 L 154 89.5 L 153 90.5 Q 153.9 98.9 152 103 Q 146.8 105.1 148 100.5 L 147 99.5 L 147 89.5 L 103.5 46 L 97.5 46 L 76 67.5 L 66.5 78 L 64 79.5 L 61.5 83 L 59 84.5 L 57.5 87 Q 55.3 86.3 56 88.5 L 54 91.5 L 54 103 Q 50.2 104 49 101.5 L 48 99.5 L 48 87.5 L 49 84.5 L 65.5 68 L 67 68.5 Q 66.3 66.3 68.5 67 L 98 37.5 L 98 10 Z " /><path fill="rgb(125,69,51)" stroke="rgb(125,69,51)" stroke-width="1" opacity="0.9725490196078431" d="M 99 83 L 103 83 L 103 93.5 L 112 102.5 L 112 105.5 Q 110.8 108.3 109.5 106 L 106.5 104 L 99 96.5 L 99 83 Z " /><path fill="rgb(125,69,51)" stroke="rgb(125,69,51)" stroke-width="1" opacity="0.9725490196078431" d="M 84.5 154 L 116.5 154 L 119 155 L 120 157.5 L 120 192 L 82 192 L 82 155 L 84.5 154 Z " /><path fill="rgb(237,203,112)" stroke="rgb(237,203,112)" stroke-width="1" opacity="0.9686274509803922" d="M 129.5 18 Q 132.5 21 131 28.5 L 129 29.5 L 130 28.5 L 130 20.5 L 129.5 18 Z " /><path fill="rgb(237,203,112)" stroke="rgb(237,203,112)" stroke-width="1" opacity="0.9686274509803922" d="M 95.5 50 L 94.5 52 L 95.5 50 Z " /><path fill="rgb(237,203,112)" stroke="rgb(237,203,112)" stroke-width="1" opacity="0.9686274509803922" d="M 91.5 54 L 89.5 57 L 91.5 54 Z " /><path fill="rgb(237,203,112)" stroke="rgb(237,203,112)" stroke-width="1" opacity="0.9686274509803922" d="M 87.5 58 L 57.5 89 L 87.5 58 Z " /><path fill="rgb(237,203,112)" stroke="rgb(237,203,112)" stroke-width="1" opacity="0.9686274509803922" d="M 124.5 69 L 125.5 71 L 124.5 69 Z " /><path fill="rgb(237,203,112)" stroke="rgb(237,203,112)" stroke-width="1" opacity="0.9686274509803922" d="M 127.5 72 L 129.5 75 L 127.5 72 Z " /><path fill="rgb(237,203,112)" stroke="rgb(237,203,112)" stroke-width="1" opacity="0.9686274509803922" d="M 132.5 77 L 133.5 79 L 132.5 77 Z " /><path fill="rgb(237,203,112)" stroke="rgb(237,203,112)" stroke-width="1" opacity="0.9686274509803922" d="M 136.5 81 L 138.5 84 L 136.5 81 Z " /><path fill="rgb(237,203,112)" stroke="rgb(237,203,112)" stroke-width="1" opacity="0.9686274509803922" d="M 141.5 86 L 145.5 91 L 141.5 86 Z " /><path fill="rgb(237,203,112)" stroke="rgb(237,203,112)" stroke-width="1" opacity="0.9686274509803922" d="M 54.5 103 L 53.5 105 L 54.5 103 Z " /><path fill="rgb(237,203,112)" stroke="rgb(237,203,112)" stroke-width="1" opacity="0.9686274509803922" d="M 152.5 103 L 151.5 105 L 152.5 103 Z " /><path fill="rgb(237,203,112)" stroke="rgb(237,203,112)" stroke-width="1" opacity="0.9686274509803922" d="M 84.5 152 L 117 152.5 L 84.5 153 L 84.5 152 Z " /><path fill="rgb(237,203,112)" stroke="rgb(237,203,112)" stroke-width="1" opacity="0.9686274509803922" d="M 82.5 153 L 81.5 155 L 82.5 153 Z " /><path fill="rgb(237,203,112)" stroke="rgb(237,203,112)" stroke-width="1" opacity="0.9686274509803922" d="M 119.5 154 L 121 156.5 L 120 156.5 L 119.5 154 Z " /><path fill="rgb(255,206,124)" stroke="rgb(255,206,124)" stroke-width="1" opacity="1" d="M 100.5 47 L 103.5 48 L 124 68.5 L 125.5 71 Q 127.8 70.3 127 72.5 L 132 76.5 L 133.5 79 L 136 80.5 L 138.5 84 L 141 85.5 L 146 91.5 L 146 102.5 L 148 104.5 L 146 104.5 L 146 191.5 L 145.5 192 L 122 192 L 121 189.5 L 121 155.5 L 118.5 153 L 116.5 152 L 84.5 152 L 81 154.5 L 80 156.5 L 80 192 L 55.5 192 L 55 191.5 L 55 105.5 L 55 103.5 L 56 101.5 L 56 90.5 L 88 58.5 L 88 57 L 92 54.5 L 93.5 52 L 96 50.5 L 97.5 48 L 100.5 47 Z M 96 75 L 87 80 L 81 89 Q 79 102 85 108 L 95 114 Q 107 116 113 111 Q 118 107 120 101 Q 122 88 117 83 Q 111 74 96 75 Z " /><path fill="rgb(141,87,68)" stroke="rgb(141,87,68)" stroke-width="1" opacity="0.9647058823529412" d="M 103.5 11 L 104 25.5 L 103 25.5 L 103.5 11 Z " /><path fill="rgb(141,87,68)" stroke="rgb(141,87,68)" stroke-width="1" opacity="0.9647058823529412" d="M 103.5 35 L 105 38.5 L 103 37.5 L 103.5 35 Z " /><path fill="rgb(141,87,68)" stroke="rgb(141,87,68)" stroke-width="1" opacity="0.9647058823529412" d="M 97.5 37 L 68.5 67 L 97.5 37 Z " /><path fill="rgb(141,87,68)" stroke="rgb(141,87,68)" stroke-width="1" opacity="0.9647058823529412" d="M 107.5 41 L 108.5 43 L 107.5 41 Z " /><path fill="rgb(141,87,68)" stroke="rgb(141,87,68)" stroke-width="1" opacity="0.9647058823529412" d="M 97.5 46 L 99 46.5 L 84 60.5 Q 84.8 62.8 82.5 62 L 76 67.5 L 97.5 46 Z " /><path fill="rgb(141,87,68)" stroke="rgb(141,87,68)" stroke-width="1" opacity="0.9647058823529412" d="M 103.5 46 L 147 89.5 Q 145.8 97.7 148 102.5 L 147 102.5 L 146 100.5 L 146 89.5 L 103.5 46 Z " /><path fill="rgb(141,87,68)" stroke="rgb(141,87,68)" stroke-width="1" opacity="0.9647058823529412" d="M 116.5 50 L 117.5 52 L 116.5 50 Z " /><path fill="rgb(141,87,68)" stroke="rgb(141,87,68)" stroke-width="1" opacity="0.9647058823529412" d="M 120.5 54 L 121.5 56 L 120.5 54 Z " /><path fill="rgb(141,87,68)" stroke="rgb(141,87,68)" stroke-width="1" opacity="0.9647058823529412" d="M 125.5 59 L 126.5 61 L 125.5 59 Z " /><path fill="rgb(141,87,68)" stroke="rgb(141,87,68)" stroke-width="1" opacity="0.9647058823529412" d="M 129.5 63 L 130.5 65 L 129.5 63 Z " /><path fill="rgb(141,87,68)" stroke="rgb(141,87,68)" stroke-width="1" opacity="0.9647058823529412" d="M 134.5 67 L 135.5 68 L 176.5 68 L 180 70 L 191 100 L 154.5 100 L 152.5 102 L 152 100.5 L 154 89.5 L 153 85.5 L 136.5 69 L 134.5 67 Z " /><path fill="rgb(141,87,68)" stroke="rgb(141,87,68)" stroke-width="1" opacity="0.9647058823529412" d="M 25.5 68 L 65 68.5 L 49 84.5 Q 46.5 90 48 99.5 L 48.5 101 L 12.5 101 L 10 100 L 11 94 Q 14 95.3 13 91.5 L 15 84 Q 18 85.3 17 81.5 L 20 72.5 L 22.5 70 L 25.5 68 Z " /><path fill="rgb(141,87,68)" stroke="rgb(141,87,68)" stroke-width="1" opacity="0.9647058823529412" d="M 75.5 69 L 73.5 72 L 75.5 69 Z " /><path fill="rgb(141,87,68)" stroke="rgb(141,87,68)" stroke-width="1" opacity="0.9647058823529412" d="M 71.5 73 L 69.5 76 L 71.5 73 Z " /><path fill="rgb(141,87,68)" stroke="rgb(141,87,68)" stroke-width="1" opacity="0.9647058823529412" d="M 65.5 78 L 67 78.5 L 64.5 80 L 65.5 78 Z " /><path fill="rgb(141,87,68)" stroke="rgb(141,87,68)" stroke-width="1" opacity="0.9647058823529412" d="M 62.5 82 L 60.5 85 L 59 84.5 L 62.5 82 Z " /><path fill="rgb(141,87,68)" stroke="rgb(141,87,68)" stroke-width="1" opacity="0.9647058823529412" d="M 99.5 82 L 102 82.5 L 99 83 L 98.5 97 L 98 83.5 L 99.5 82 Z " /><path fill="rgb(141,87,68)" stroke="rgb(141,87,68)" stroke-width="1" opacity="0.9647058823529412" d="M 56 87 L 58 87.5 L 55 89.5 L 56 87 Z " /><path fill="rgb(141,87,68)" stroke="rgb(141,87,68)" stroke-width="1" opacity="0.9647058823529412" d="M 54.5 91 L 55 100.5 L 54 100.5 L 54.5 91 Z " /><path fill="rgb(141,87,68)" stroke="rgb(141,87,68)" stroke-width="1" opacity="0.9647058823529412" d="M 103.5 93 L 111.5 102 L 103.5 93 Z " /><path fill="rgb(141,87,68)" stroke="rgb(141,87,68)" stroke-width="1" opacity="0.9647058823529412" d="M 102.5 100 L 103.5 102 L 102.5 100 Z " /><path fill="rgb(141,87,68)" stroke="rgb(141,87,68)" stroke-width="1" opacity="0.9647058823529412" d="M 49.5 102 L 53 103.5 L 50.5 104 L 49.5 102 Z " /><path fill="rgb(141,87,68)" stroke="rgb(141,87,68)" stroke-width="1" opacity="0.9647058823529412" d="M 112.5 103 L 113 105.5 L 111 106.5 L 112.5 103 Z " /><path fill="rgb(141,87,68)" stroke="rgb(141,87,68)" stroke-width="1" opacity="0.9647058823529412" d="M 104.5 153 L 116 153.5 L 104.5 154 L 104.5 153 Z " /><path fill="rgb(141,87,68)" stroke="rgb(141,87,68)" stroke-width="1" opacity="0.9647058823529412" d="M 81.5 156 L 82 191.5 L 81 191.5 L 81.5 156 Z " /><path fill="rgb(97,224,195)" stroke="rgb(97,224,195)" stroke-width="1" opacity="0.9882352941176471" d="M 104 11 L 122.5 11 L 123 12.5 L 124 13.5 L 124 22.5 L 121.5 25 L 109.5 25 L 104 22.5 L 104 11 Z " /><path fill="rgb(132,203,254)" stroke="rgb(132,203,254)" stroke-width="1" opacity="1" d="M 17.5 114 L 26.5 114 L 28 115.5 L 28 133 L 16 133 L 16 115.5 L 17.5 114 Z " /><path fill="rgb(132,203,254)" stroke="rgb(132,203,254)" stroke-width="1" opacity="1" d="M 37.5 114 Q 45 113 48 115 L 48 133 L 36.5 133 L 35 131.5 L 35 116.5 L 37.5 114 Z " /><path fill="rgb(132,203,254)" stroke="rgb(132,203,254)" stroke-width="1" opacity="1" d="M 155.5 114 L 164.5 114 L 166 115.5 L 166 131.5 L 164.5 133 L 154 133 L 154 115.5 L 155.5 114 Z " /><path fill="rgb(132,203,254)" stroke="rgb(132,203,254)" stroke-width="1" opacity="1" d="M 175.5 114 Q 184 112 186 116.5 L 186 131.5 L 184.5 133 L 173 133 L 173 115 L 175.5 114 Z " /><path fill="rgb(132,203,254)" stroke="rgb(132,203,254)" stroke-width="1" opacity="1" d="M 155.5 140 Q 163 139 166 141 L 166 157.5 L 164.5 159 L 154 159 L 154 141.5 L 155.5 140 Z " /><path fill="rgb(132,203,254)" stroke="rgb(132,203,254)" stroke-width="1" opacity="1" d="M 175.5 140 Q 184 138 186 142.5 L 186 157.5 L 184.5 159 L 173 159 L 173 141 L 175.5 140 Z " /><path fill="rgb(132,203,254)" stroke="rgb(132,203,254)" stroke-width="1" opacity="1" d="M 16 141 L 28 141 L 28 158.5 L 26.5 160 L 17.5 160 L 16 158.5 L 16 141 Z " /><path fill="rgb(132,203,254)" stroke="rgb(132,203,254)" stroke-width="1" opacity="1" d="M 36.5 141 L 48 141 L 48 159 Q 45 161 37.5 160 L 35 157.5 L 35 142.5 L 36.5 141 Z " /><path fill="rgb(213,220,211)" stroke="rgb(213,220,211)" stroke-width="1" opacity="0.9882352941176471" d="M 98.5 81 L 97.5 83 L 98.5 81 Z " /><path fill="rgb(213,220,211)" stroke="rgb(213,220,211)" stroke-width="1" opacity="0.9882352941176471" d="M 102.5 81 L 103.5 83 L 102.5 81 Z " /><path fill="rgb(213,220,211)" stroke="rgb(213,220,211)" stroke-width="1" opacity="0.9882352941176471" d="M 104.5 84 L 105 92.5 L 104 92.5 L 104.5 84 Z " /><path fill="rgb(213,220,211)" stroke="rgb(213,220,211)" stroke-width="1" opacity="0.9882352941176471" d="M 105.5 94 L 108.5 98 L 105.5 94 Z " /><path fill="rgb(213,220,211)" stroke="rgb(213,220,211)" stroke-width="1" opacity="0.9882352941176471" d="M 97.5 96 L 108.5 107 L 112.5 107 L 114 106.5 Q 113 109 108.5 108 L 97.5 96 Z " /><path fill="rgb(213,220,211)" stroke="rgb(213,220,211)" stroke-width="1" opacity="0.9882352941176471" d="M 110.5 99 L 113.5 103 L 110.5 99 Z " /><path fill="rgb(213,220,211)" stroke="rgb(213,220,211)" stroke-width="1" opacity="0.9882352941176471" d="M 17.5 113 L 26.5 113 L 29 115.5 L 29 132.5 L 27.5 134 L 16.5 134 L 15 132.5 L 15 114.5 L 16.5 114 L 17.5 113 Z M 18 114 L 16 116 L 16 133 L 28 133 L 28 116 L 27 114 L 18 114 Z " /><path fill="rgb(213,220,211)" stroke="rgb(213,220,211)" stroke-width="1" opacity="0.9882352941176471" d="M 36.5 113 L 46.5 113 L 49 115.5 L 49 132.5 L 47.5 134 L 35.5 134 L 35 132.5 L 36.5 133 L 48 133 L 48 115 Q 45 113 37.5 114 L 35 115.5 L 36.5 113 Z " /><path fill="rgb(213,220,211)" stroke="rgb(213,220,211)" stroke-width="1" opacity="0.9882352941176471" d="M 154.5 113 L 164.5 113 L 167 115.5 L 167 132.5 L 165.5 134 L 154.5 134 L 152 131.5 L 152 115.5 L 154.5 113 Z M 156 114 L 154 116 L 154 133 L 165 133 L 166 132 L 166 116 L 165 114 L 156 114 Z " /><path fill="rgb(213,220,211)" stroke="rgb(213,220,211)" stroke-width="1" opacity="0.9882352941176471" d="M 174.5 113 L 184.5 113 L 186 114.5 L 187 116.5 L 187 127.5 L 186 127.5 L 186 116.5 L 183.5 114 Q 176 113 173 115 L 173 133 L 184.5 133 L 186 132.5 L 184.5 134 L 173.5 134 L 172 132.5 L 172 115.5 L 174.5 113 Z " /><path fill="rgb(213,220,211)" stroke="rgb(213,220,211)" stroke-width="1" opacity="0.9882352941176471" d="M 17.5 139 L 26.5 139 L 29 141.5 L 29 159.5 L 27.5 160 L 28 158.5 L 28 141 L 16 141 L 16 158.5 L 17 159.5 L 15 160 L 15 140.5 L 16.5 140 L 17.5 139 Z " /><path fill="rgb(213,220,211)" stroke="rgb(213,220,211)" stroke-width="1" opacity="0.9882352941176471" d="M 36.5 139 L 46.5 139 L 48 140.5 L 36.5 141 L 35.5 142 L 35 140.5 L 36.5 139 Z " /><path fill="rgb(213,220,211)" stroke="rgb(213,220,211)" stroke-width="1" opacity="0.9882352941176471" d="M 154.5 139 L 164.5 139 L 167 141.5 L 167 158.5 L 165.5 160 L 153.5 160 L 153 158.5 L 152 157.5 L 152 141.5 L 154.5 139 Z M 156 140 L 154 142 L 154 159 L 165 159 L 166 158 L 166 141 Q 163 139 156 140 Z " /><path fill="rgb(213,220,211)" stroke="rgb(213,220,211)" stroke-width="1" opacity="0.9882352941176471" d="M 174.5 139 L 184.5 139 L 186 140.5 L 185.5 142 Q 183.5 138 175.5 140 L 173 141 L 173 159 L 184.5 159 L 186 158.5 L 185.5 160 L 173.5 160 L 172 158.5 L 172 141.5 L 174.5 139 Z " /><path fill="rgb(213,220,211)" stroke="rgb(213,220,211)" stroke-width="1" opacity="0.9882352941176471" d="M 48.5 142 L 49 158.5 L 46.5 160 L 46.5 159 L 48 158.5 L 48.5 142 Z " /><path fill="rgb(213,220,211)" stroke="rgb(213,220,211)" stroke-width="1" opacity="0.9882352941176471" d="M 35.5 158 L 36.5 160 Q 33.7 160.7 35.5 158 Z " /><path fill="rgb(190,167,93)" stroke="rgb(190,167,93)" stroke-width="1" opacity="0.9137254901960784" d="M 124 18 L 129 18 L 129 19.5 L 130 20.5 L 130 28.5 L 129 31 L 113.5 31 L 111 28.5 L 111.5 25 L 121.5 25 Q 125.3 23.5 124 18 Z " /><path fill="rgb(190,167,93)" stroke="rgb(190,167,93)" stroke-width="1" opacity="0.9137254901960784" d="M 99.5 46 Q 104.3 45.3 105 48.5 L 102.5 47 L 98.5 48 L 99.5 46 Z " /><path fill="rgb(190,167,93)" stroke="rgb(190,167,93)" stroke-width="1" opacity="0.9137254901960784" d="M 96.5 48 L 84.5 61 L 96.5 48 Z " /><path fill="rgb(190,167,93)" stroke="rgb(190,167,93)" stroke-width="1" opacity="0.9137254901960784" d="M 106.5 50 L 108.5 53 L 106.5 50 Z " /><path fill="rgb(190,167,93)" stroke="rgb(190,167,93)" stroke-width="1" opacity="0.9137254901960784" d="M 110.5 54 L 113.5 58 L 110.5 54 Z " /><path fill="rgb(190,167,93)" stroke="rgb(190,167,93)" stroke-width="1" opacity="0.9137254901960784" d="M 115.5 59 L 117.5 62 L 115.5 59 Z " /><path fill="rgb(190,167,93)" stroke="rgb(190,167,93)" stroke-width="1" opacity="0.9137254901960784" d="M 82.5 62 L 76.5 69 L 82.5 62 Z " /><path fill="rgb(190,167,93)" stroke="rgb(190,167,93)" stroke-width="1" opacity="0.9137254901960784" d="M 119.5 63 L 145.5 90 L 119.5 63 Z " /><path fill="rgb(190,167,93)" stroke="rgb(190,167,93)" stroke-width="1" opacity="0.9137254901960784" d="M 68.5 76 L 67.5 78 L 68.5 76 Z " /><path fill="rgb(190,167,93)" stroke="rgb(190,167,93)" stroke-width="1" opacity="0.9137254901960784" d="M 64.5 80 L 63.5 82 L 64.5 80 Z " /><path fill="rgb(190,167,93)" stroke="rgb(190,167,93)" stroke-width="1" opacity="0.9137254901960784" d="M 99.5 81 Q 103.5 80.5 104 83.5 L 104 92.5 L 105 93.5 L 103 92.5 L 103 83.5 L 101.5 82 L 98 83.5 L 97.5 96 L 97 83.5 L 99.5 81 Z " /><path fill="rgb(190,167,93)" stroke="rgb(190,167,93)" stroke-width="1" opacity="0.9137254901960784" d="M 59.5 85 L 58.5 87 L 59.5 85 Z " /><path fill="rgb(190,167,93)" stroke="rgb(190,167,93)" stroke-width="1" opacity="0.9137254901960784" d="M 56.5 89 L 56 90.5 Q 58.2 101.7 52.5 105 Q 48.5 105.5 48 102.5 L 48.5 101 L 50.5 104 L 54 102.5 Q 56.7 98.7 55 90.5 L 56.5 89 Z " /><path fill="rgb(190,167,93)" stroke="rgb(190,167,93)" stroke-width="1" opacity="0.9137254901960784" d="M 99.5 97 L 101.5 100 L 99.5 97 Z " /><path fill="rgb(190,167,93)" stroke="rgb(190,167,93)" stroke-width="1" opacity="0.9137254901960784" d="M 154.5 100 L 192 100.5 L 154.5 101 L 149.5 105 L 147 103.5 L 148.5 103 L 150.5 104 L 154.5 100 Z " /><path fill="rgb(190,167,93)" stroke="rgb(190,167,93)" stroke-width="1" opacity="0.9137254901960784" d="M 104.5 102 L 106.5 105 L 104.5 102 Z " /><path fill="rgb(190,167,93)" stroke="rgb(190,167,93)" stroke-width="1" opacity="0.9137254901960784" d="M 112.5 102 L 114 105.5 L 112 106.5 L 113 103.5 L 112.5 102 Z " /><path fill="rgb(190,167,93)" stroke="rgb(190,167,93)" stroke-width="1" opacity="0.9137254901960784" d="M 83.5 153 L 104 153.5 L 83.5 154 L 81 156.5 L 80.5 192 L 80 156.5 L 83.5 153 Z " /><path fill="rgb(190,167,93)" stroke="rgb(190,167,93)" stroke-width="1" opacity="0.9137254901960784" d="M 116.5 153 L 119 153.5 L 116.5 154 L 116.5 153 Z " /><path fill="rgb(190,167,93)" stroke="rgb(190,167,93)" stroke-width="1" opacity="0.9137254901960784" d="M 120.5 157 L 121 191.5 L 120 191.5 L 120.5 157 Z " /><path fill="rgb(164,156,132)" stroke="rgb(164,156,132)" stroke-width="1" opacity="0.12941176470588237" d="M 98.5 9 Q 104.6 7.8 104 10.5 L 102.5 10 Q 98 9.5 98 10.5 L 98 36.5 L 65.5 68 L 78 54.5 Q 77.3 52.3 79.5 53 L 83 48 L 87 45.5 L 88.5 43 L 91 41.5 L 92.5 39 L 97 35.5 L 97 10.5 L 98.5 9 Z " /><path fill="rgb(164,156,132)" stroke="rgb(164,156,132)" stroke-width="1" opacity="0.12941176470588237" d="M 123.5 11 Q 126.9 10.1 125 15.5 Q 126.4 18.1 131 17.5 L 126.5 18 L 124 15.5 L 123.5 11 Z " /><path fill="rgb(164,156,132)" stroke="rgb(164,156,132)" stroke-width="1" opacity="0.12941176470588237" d="M 130.5 19 L 132 19.5 L 132 29.5 L 131 32 L 111.5 32 L 111 30.5 L 108.5 25 L 104.5 26 L 104 24 L 111 25 Q 110 29.7 113.5 31 L 128.5 31 L 131 28.5 Q 131.7 21 130.5 19 Z " /><path fill="rgb(164,156,132)" stroke="rgb(164,156,132)" stroke-width="1" opacity="0.12941176470588237" d="M 104.5 35 L 105 37 L 109 39.5 Q 108.3 41.8 110.5 41 L 114.5 46 L 118 48.5 Q 117.3 50.8 119.5 50 L 122 54 L 127 57.5 Q 126.3 59.8 128.5 59 L 131 63 L 137 67.5 L 135.5 68 L 104 37.5 L 104.5 35 Z " /><path fill="rgb(164,156,132)" stroke="rgb(164,156,132)" stroke-width="1" opacity="0.12941176470588237" d="M 22.5 68 L 25 68.5 L 20.5 72 L 20 69 L 22.5 68 Z " /><path fill="rgb(164,156,132)" stroke="rgb(164,156,132)" stroke-width="1" opacity="0.12941176470588237" d="M 177.5 68 L 181 69 L 183 75.5 L 181 74.5 L 180 70 L 177.5 68 Z " /><path fill="rgb(164,156,132)" stroke="rgb(164,156,132)" stroke-width="1" opacity="0.12941176470588237" d="M 19.5 73 L 20 74.5 L 15 84.5 L 13 94 Q 10.3 95.1 11 92.5 L 19.5 73 Z " /><path fill="rgb(164,156,132)" stroke="rgb(164,156,132)" stroke-width="1" opacity="0.12941176470588237" d="M 183.5 77 Q 187.5 81 188 88.5 L 187 88.5 L 183.5 77 Z " /><path fill="rgb(164,156,132)" stroke="rgb(164,156,132)" stroke-width="1" opacity="0.12941176470588237" d="M 188 90 Q 191 88.8 190 92.5 L 194 100.5 L 194 118.5 L 193 118.5 L 193 101.5 L 190 97.5 L 188 90 Z " /><path fill="rgb(164,156,132)" stroke="rgb(164,156,132)" stroke-width="1" opacity="0.12941176470588237" d="M 10.5 95 L 11 96.5 L 9 101.5 L 9 192 L 193 192.5 L 9.5 193 L 8 191.5 L 8 99.5 L 10.5 95 Z " /><path fill="rgb(254,234,200)" stroke="rgb(254,234,200)" stroke-width="1" opacity="0.9764705882352941" d="M 104.5 9 L 105.5 11 Q 102.7 11.7 104.5 9 Z " /><path fill="rgb(254,234,200)" stroke="rgb(254,234,200)" stroke-width="1" opacity="0.9764705882352941" d="M 105.5 25 L 104.5 27 L 105.5 25 Z " /><path fill="rgb(254,234,200)" stroke="rgb(254,234,200)" stroke-width="1" opacity="0.9764705882352941" d="M 113.5 44 L 114.5 46 L 113.5 44 Z " /><path fill="rgb(254,234,200)" stroke="rgb(254,234,200)" stroke-width="1" opacity="0.9764705882352941" d="M 95.5 75 Q 111.5 73.5 117 82.5 Q 121.7 88.3 120 100.5 Q 117.8 107.3 112.5 111 Q 107 116 94.5 114 L 85 107.5 Q 78.8 102.2 81 88.5 L 86.5 80 L 95.5 75 Z M 99 81 L 97 83 L 97 97 L 109 108 Q 113 109 114 107 L 114 103 L 105 94 Q 107 86 104 83 Q 103 80 99 81 Z " /><path fill="rgb(254,234,200)" stroke="rgb(254,234,200)" stroke-width="1" opacity="0.9764705882352941" d="M 9 101 L 46.5 101 L 48 102.5 L 49.5 105 Q 54.9 104.4 55 105.5 L 55 192 L 9 192 L 9 101 Z M 18 113 L 17 114 L 15 115 L 15 133 L 17 134 L 28 134 L 29 133 L 29 116 L 27 113 L 18 113 Z M 37 113 L 35 115 L 35 134 L 48 134 L 49 133 L 49 116 L 47 113 L 37 113 Z M 18 139 L 17 140 L 15 141 L 15 160 L 29 160 L 29 142 L 27 139 L 18 139 Z M 37 139 L 35 141 L 35 160 L 48 160 L 49 159 L 49 143 L 48 141 L 47 139 L 37 139 Z " /><path fill="rgb(254,234,200)" stroke="rgb(254,234,200)" stroke-width="1" opacity="0.9764705882352941" d="M 154 101 L 193 101 L 193 118.5 L 194 119.5 L 194 135.5 L 193 136.5 L 193 192 L 146 192 L 146 104.5 L 147.5 105 Q 153 106 154 102.5 L 154 101 Z M 155 113 L 152 116 L 152 132 L 155 134 L 166 134 L 167 133 L 167 116 L 165 113 L 155 113 Z M 175 113 L 172 116 L 172 133 L 174 134 L 185 134 L 187 128 L 187 117 L 186 115 L 185 113 L 175 113 Z M 155 139 L 152 142 L 152 158 L 153 159 L 154 160 L 166 160 L 167 159 L 167 142 L 165 139 L 155 139 Z M 175 139 L 172 142 L 172 159 L 174 160 L 186 160 L 186 141 L 185 139 L 175 139 Z " /></svg>