<svg width="200" height="200" version="1.1" xmlns="http://www.w3.org/2000/svg" desc="Created with imagetracer.js version 1.2.6" ><path fill="rgb(4,3,3)" stroke="rgb(4,3,3)" stroke-width="1" opacity="0.9647058823529412" d="M 24.5 93 L 34.5 94 L 37.5 93 L 39.5 95 L 61.5 95 L 62.5 96 L 81.5 96 L 82.5 97 L 100 97.5 L 97 99.5 Q 97.8 101.8 95.5 101 L 94 104 L 90 106.5 L 89.5 108 L 69.5 108 L 68.5 107 L 56.5 107 L 55.5 106 L 43.5 106 L 42.5 105 L 28.5 105 Q 26.8 102.3 20.5 104 L 19 102.5 Q 17.5 96.5 20.5 95 L 24.5 93 Z " /><path fill="rgb(4,3,3)" stroke="rgb(4,3,3)" stroke-width="1" opacity="0.9647058823529412" d="M 155.5 93 L 157.5 94 L 159.5 94 L 168.5 93 L 175 97.5 Q 176.3 103.6 173.5 103 L 165.5 105 L 150.5 105 L 149.5 106 L 125.5 107 L 124.5 108 L 102.5 108 L 103 106.5 Q 102.3 104.3 104.5 105 L 106 102 L 114.5 96 L 153.5 95 L 155.5 93 Z " /><path fill="rgb(0,0,0)" stroke="rgb(0,0,0)" stroke-width="1" opacity="0" d="M 0 0 L 200 0 L 200 200 L 0 200 L 0 0 Z M 141 48 L 139 50 Q 140 56 138 56 L 135 60 Q 132 59 133 62 L 130 63 L 129 66 Q 126 65 127 68 L 124 69 L 123 72 Q 120 71 121 74 L 119 75 L 117 78 L 114 80 Q 115 82 113 81 L 110 85 Q 107 84 108 87 L 105 88 L 104 91 Q 101 90 102 93 L 101 94 L 69 94 L 68 95 L 56 95 L 55 93 L 37 93 L 36 91 L 22 91 L 21 93 L 17 95 L 17 106 L 18 107 Q 17 111 20 110 L 21 116 Q 20 120 23 119 Q 22 123 26 125 L 17 125 L 17 168 L 18 168 L 176 168 L 176 126 L 176 125 L 169 125 L 174 113 Q 172 106 176 107 L 175 104 L 176 93 Q 173 94 172 91 L 159 91 L 158 94 L 156 93 L 138 93 L 138 95 L 126 95 L 118 94 L 123 90 L 125 87 Q 127 88 126 86 L 129 84 L 131 81 Q 133 82 132 80 L 141 71 L 142 71 L 147 65 Q 149 66 148 63 Q 153 64 155 62 L 154 53 L 148 48 L 141 48 Z " /><path fill="rgb(190,181,170)" stroke="rgb(190,181,170)" stroke-width="1" opacity="0.3137254901960784" d="M 140.5 48 L 147.5 48 L 154 52.5 L 155 61.5 Q 153.4 64.5 148 63 Q 149.1 65.7 146.5 65 L 142 71 L 140.5 71 L 132 79.5 Q 132.8 81.8 130.5 81 L 129 84 L 126 85.5 Q 126.8 87.8 124.5 87 L 123 90 L 118 93.5 L 125 94.5 L 115 95 L 115 93.5 L 146.5 62 L 153 61 Q 154.5 52.9 148.5 51 Q 145.9 51.7 147 49 L 142.5 49 Q 138.8 51.5 140 58 Q 137.3 56.9 138 59.5 L 102.5 95 L 100.5 96 L 81.5 96 L 80.5 95 L 68 94.5 L 100.5 94 L 102 92.5 Q 101.3 90.3 103.5 91 L 105 88 L 108 86.5 Q 107.3 84.3 109.5 85 L 112.5 81 Q 114.8 81.8 114 79.5 L 117 78 L 118.5 75 L 121 73.5 Q 120.3 71.3 122.5 72 L 124 69 L 127 67.5 Q 126.3 65.3 128.5 66 L 130 63 L 133 61.5 Q 132.3 59.3 134.5 60 L 137.5 56 Q 140.5 56.5 139 49.5 L 140.5 48 Z " /><path fill="rgb(190,181,170)" stroke="rgb(190,181,170)" stroke-width="1" opacity="0.3137254901960784" d="M 21 91 L 35.5 91 L 36 93 L 24.5 92 L 21 93 Q 22 96 19 95 L 19 97.5 L 18 100.5 L 20 110 Q 16.7 111.3 18 106.5 L 17 105.5 L 17 94.5 L 21 93 L 21 91 Z " /><path fill="rgb(190,181,170)" stroke="rgb(190,181,170)" stroke-width="1" opacity="0.3137254901960784" d="M 158 91 L 171.5 91 Q 172.6 93.8 176 93 L 175.5 97 Q 173 91.5 164.5 92 L 158 93 L 158 91 Z " /><path fill="rgb(190,181,170)" stroke="rgb(190,181,170)" stroke-width="1" opacity="0.3137254901960784" d="M 43.5 93 L 54.5 93 L 55 95 L 43.5 94 L 43.5 93 Z " /><path fill="rgb(190,181,170)" stroke="rgb(190,181,170)" stroke-width="1" opacity="0.3137254901960784" d="M 137.5 93 L 151 93.5 L 138.5 95 L 137.5 93 Z " /><path fill="rgb(190,181,170)" stroke="rgb(190,181,170)" stroke-width="1" opacity="0.3137254901960784" d="M 175.5 104 L 176 107 Q 173.3 108.1 174 105.5 L 175.5 104 Z " /><path fill="rgb(190,181,170)" stroke="rgb(190,181,170)" stroke-width="1" opacity="0.3137254901960784" d="M 173.5 110 L 174 112.5 L 169 126 Q 165.2 127.5 166 124.5 L 171 117.5 L 172 111.5 L 173.5 110 Z " /><path fill="rgb(190,181,170)" stroke="rgb(190,181,170)" stroke-width="1" opacity="0.3137254901960784" d="M 20.5 111 L 26 124 Q 28.7 122.9 28 125.5 L 28.5 127 L 25 125.5 L 26 124.5 L 23 121.5 Q 24 117.8 21 119 L 21 115.5 L 20.5 111 Z " /><path fill="rgb(190,181,170)" stroke="rgb(190,181,170)" stroke-width="1" opacity="0.3137254901960784" d="M 17 125 L 19 125.5 L 18 126.5 L 18 167 L 174.5 167 L 175 166.5 L 175 125.5 L 176 125.5 L 176 167.5 L 175.5 168 L 17 168 L 17 125 Z " /><path fill="rgb(145,85,41)" stroke="rgb(145,85,41)" stroke-width="1" opacity="0.9647058823529412" d="M 24.5 92 L 35 93.5 L 29.5 94 L 24.5 93 L 21.5 95 L 21 93 L 24.5 92 Z " /><path fill="rgb(145,85,41)" stroke="rgb(145,85,41)" stroke-width="1" opacity="0.9647058823529412" d="M 164.5 92 Q 172.6 91.4 175 96.5 L 171.5 94 L 165.5 93 Q 164.3 95.3 159.5 94 L 159.5 93 L 164.5 92 Z " /><path fill="rgb(145,85,41)" stroke="rgb(145,85,41)" stroke-width="1" opacity="0.9647058823529412" d="M 38.5 93 L 49 94.5 L 39.5 95 L 38.5 93 Z " /><path fill="rgb(145,85,41)" stroke="rgb(145,85,41)" stroke-width="1" opacity="0.9647058823529412" d="M 151.5 93 L 155 93.5 L 153.5 95 L 145.5 95 L 145.5 94 Q 150.3 95.3 151.5 93 Z " /><path fill="rgb(145,85,41)" stroke="rgb(145,85,41)" stroke-width="1" opacity="0.9647058823529412" d="M 62.5 95 L 81 95.5 L 62.5 96 L 62.5 95 Z " /><path fill="rgb(145,85,41)" stroke="rgb(145,85,41)" stroke-width="1" opacity="0.9647058823529412" d="M 114.5 95 L 131 95.5 L 114.5 96 L 107.5 102 L 107 100 L 110 98.5 Q 109.3 96.3 111.5 97 L 114.5 95 Z " /><path fill="rgb(145,85,41)" stroke="rgb(145,85,41)" stroke-width="1" opacity="0.9647058823529412" d="M 82.5 96 L 100 96.5 L 82.5 97 L 82.5 96 Z " /><path fill="rgb(145,85,41)" stroke="rgb(145,85,41)" stroke-width="1" opacity="0.9647058823529412" d="M 18.5 98 L 19 100.5 L 18 100.5 L 18.5 98 Z " /><path fill="rgb(145,85,41)" stroke="rgb(145,85,41)" stroke-width="1" opacity="0.9647058823529412" d="M 98.5 98 L 97.5 100 L 98.5 98 Z " /><path fill="rgb(145,85,41)" stroke="rgb(145,85,41)" stroke-width="1" opacity="0.9647058823529412" d="M 95.5 101 L 96 103 L 94 102.5 L 95.5 101 Z " /><path fill="rgb(145,85,41)" stroke="rgb(145,85,41)" stroke-width="1" opacity="0.9647058823529412" d="M 19.5 103 L 28 104.5 L 20.5 105 L 19.5 103 Z " /><path fill="rgb(145,85,41)" stroke="rgb(145,85,41)" stroke-width="1" opacity="0.9647058823529412" d="M 104 103 L 106 103.5 L 104 104.5 L 104 103 Z " /><path fill="rgb(145,85,41)" stroke="rgb(145,85,41)" stroke-width="1" opacity="0.9647058823529412" d="M 173.5 103 L 175 103.5 Q 172.6 106.1 166.5 105 L 166.5 104 Q 172 105.5 173.5 103 Z " /><path fill="rgb(145,85,41)" stroke="rgb(145,85,41)" stroke-width="1" opacity="0.9647058823529412" d="M 92.5 104 L 93 105.5 L 90 107.5 L 92.5 104 Z " /><path fill="rgb(145,85,41)" stroke="rgb(145,85,41)" stroke-width="1" opacity="0.9647058823529412" d="M 34.5 105 L 69 107.5 L 56.5 108 L 55.5 107 L 38.5 107 L 34.5 106 L 34.5 105 Z " /><path fill="rgb(145,85,41)" stroke="rgb(145,85,41)" stroke-width="1" opacity="0.9647058823529412" d="M 150.5 105 L 159 105.5 L 154.5 107 L 125.5 108 L 125.5 107 L 137.5 107 L 138.5 106 L 149.5 106 L 150.5 105 Z " /><path fill="rgb(145,85,41)" stroke="rgb(145,85,41)" stroke-width="1" opacity="0.9647058823529412" d="M 101 106 L 103 106.5 L 101 107.5 L 101 106 Z " /><path fill="rgb(232,169,99)" stroke="rgb(232,169,99)" stroke-width="1" opacity="0.9882352941176471" d="M 142.5 49 L 147 49 Q 145.9 51.7 148.5 51 Q 154.5 52.9 153 61 L 146.5 62 L 115 93.5 L 113.5 96 L 110 97.5 Q 110.8 99.8 108.5 99 L 107 102 L 104 103.5 L 102.5 106 Q 100.3 105.3 101 107.5 L 90 118.5 L 90 120 L 87 121.5 Q 86.4 126.9 88 129 L 82.5 132 L 72.5 132 L 63.5 126 L 53.5 126 L 51.5 127 L 51.5 126 L 65 123 L 66.5 120 Q 68.8 120.8 68 118.5 Q 70.6 115.1 77.5 116 L 80.5 117 L 100 98.5 L 101.5 95 L 138 59.5 L 138 58 L 140 57.5 L 140 52.5 L 142.5 49 Z " /><path fill="rgb(232,169,99)" stroke="rgb(232,169,99)" stroke-width="1" opacity="0.9882352941176471" d="M 141.5 94 L 145 94.5 L 141.5 95 L 141.5 94 Z " /><path fill="rgb(232,169,99)" stroke="rgb(232,169,99)" stroke-width="1" opacity="0.9882352941176471" d="M 174.5 104 L 173.5 106 L 174.5 104 Z " /><path fill="rgb(232,169,99)" stroke="rgb(232,169,99)" stroke-width="1" opacity="0.9882352941176471" d="M 19.5 105 L 21 109.5 L 20 109.5 L 19.5 105 Z " /><path fill="rgb(232,169,99)" stroke="rgb(232,169,99)" stroke-width="1" opacity="0.9882352941176471" d="M 22.5 115 L 24 117.5 L 23 117.5 L 22.5 115 Z " /><path fill="rgb(232,169,99)" stroke="rgb(232,169,99)" stroke-width="1" opacity="0.9882352941176471" d="M 25.5 121 L 26.5 123 L 25.5 121 Z " /><path fill="rgb(232,169,99)" stroke="rgb(232,169,99)" stroke-width="1" opacity="0.9882352941176471" d="M 167.5 122 L 166.5 124 L 167.5 122 Z " /><path fill="rgb(232,169,99)" stroke="rgb(232,169,99)" stroke-width="1" opacity="0.9882352941176471" d="M 94.5 124 L 102.5 125 L 104 126.5 L 102.5 126 L 91.5 126 L 89.5 127 L 89.5 126 L 94.5 124 Z " /><path fill="rgb(232,169,99)" stroke="rgb(232,169,99)" stroke-width="1" opacity="0.9882352941176471" d="M 133.5 124 Q 142.9 124.1 147 129.5 L 145.5 129 Q 141.1 123.9 129.5 126 L 128 126.5 L 133.5 124 Z " /><path fill="rgb(232,169,99)" stroke="rgb(232,169,99)" stroke-width="1" opacity="0.9882352941176471" d="M 28.5 125 L 34.5 131 L 43.5 131 L 45.5 130 L 44.5 132 L 37.5 133 L 29 127.5 L 28.5 125 Z " /><path fill="rgb(232,169,99)" stroke="rgb(232,169,99)" stroke-width="1" opacity="0.9882352941176471" d="M 165.5 125 L 166 126.5 L 159.5 132 L 152.5 133 L 148 130.5 L 149.5 131 Q 162.6 133.1 165.5 125 Z " /><path fill="rgb(232,169,99)" stroke="rgb(232,169,99)" stroke-width="1" opacity="0.9882352941176471" d="M 48.5 127 L 50 127.5 L 47.5 129 L 48.5 127 Z " /><path fill="rgb(232,169,99)" stroke="rgb(232,169,99)" stroke-width="1" opacity="0.9882352941176471" d="M 105.5 127 Q 109.2 132.8 120.5 131 L 122 130.5 Q 122.9 133.5 118.5 132 L 113.5 133 Q 107 131.3 105.5 127 Z " /><path fill="rgb(232,169,99)" stroke="rgb(232,169,99)" stroke-width="1" opacity="0.9882352941176471" d="M 125.5 127 L 127 127.5 L 123.5 130 L 125.5 127 Z " /><path fill="rgb(254,130,45)" stroke="rgb(254,130,45)" stroke-width="1" opacity="0.9921568627450981" d="M 19.5 104 L 22 105 L 24 116 Q 27 114.8 26 118.5 L 27 122 L 30 123.5 Q 29.3 126.1 32 125 L 32 127.5 L 27.5 124 L 26 123.5 Q 28.5 122 25 120.5 L 20 110.5 L 21 107.5 L 19.5 104 Z " /><path fill="rgb(254,130,45)" stroke="rgb(254,130,45)" stroke-width="1" opacity="0.9921568627450981" d="M 173.5 104 L 174 106.5 L 174 109.5 Q 171 108.5 172 113.5 L 170 116.5 L 170.5 118 Q 168.3 117.3 169 119.5 L 164.5 126 L 164 123.5 L 165 120 Q 168 121.3 167 117.5 L 168 115 Q 171.7 116.3 170 110.5 L 171 105 L 173.5 104 Z " /><path fill="rgb(255,130,45)" stroke="rgb(255,130,45)" stroke-width="1" opacity="1" d="M 99.5 98 L 96.5 102 L 99.5 98 Z " /><path fill="rgb(255,130,45)" stroke="rgb(255,130,45)" stroke-width="1" opacity="1" d="M 94.5 103 L 93.5 105 L 94.5 103 Z " /><path fill="rgb(255,130,45)" stroke="rgb(255,130,45)" stroke-width="1" opacity="1" d="M 22 105 Q 32.6 103.3 38.5 107 L 89 108.5 L 80.5 117 L 78.5 117 Q 77.3 114.8 72.5 116 L 68 118.5 Q 68.8 120.8 66.5 120 L 65 123 Q 62.6 124.8 56.5 124 L 47 128.5 Q 47.8 131.1 44.5 130 L 43.5 131 L 34.5 131 Q 31 129.7 32 125 Q 29.3 126.1 30 123.5 L 27 122 L 26 116 Q 22.7 117.3 24 112.5 L 22 105 Z " /><path fill="rgb(255,130,45)" stroke="rgb(255,130,45)" stroke-width="1" opacity="1" d="M 159.5 105 L 171 105 L 171 109.5 L 170 115 Q 167.3 113.9 168 116.5 L 167 120 Q 164 118.8 165 122.5 L 164 126.5 L 160.5 130 Q 157 132.5 149.5 131 L 140.5 125 L 133.5 124 Q 125.3 125.8 120.5 131 L 111.5 131 L 102.5 125 L 94.5 124 L 87 127 Q 85.5 121.6 88.5 120 Q 90.8 120.8 90 118.5 L 100.5 108 L 137.5 108 L 138.5 107 L 154.5 107 L 159.5 105 Z " /><path fill="rgb(49,177,230)" stroke="rgb(49,177,230)" stroke-width="1" opacity="0.7333333333333333" d="M 19.5 125 Q 27.5 124 30 128.5 L 28.5 129 L 20.5 126 L 19 127.5 L 19 165 L 173.5 165 L 174 164.5 L 174 127.5 L 170.5 126 L 166.5 127 L 166.5 126 L 175 125 L 175 166.5 L 174.5 167 L 18 167 L 18 126.5 L 19.5 125 Z " /><path fill="rgb(0,165,236)" stroke="rgb(0,165,236)" stroke-width="1" opacity="0.996078431372549" d="M 53.5 126 L 63 126.5 L 52.5 128 L 44.5 134 L 35 134 Q 33.9 131.3 36.5 132 L 41.5 133 L 53.5 126 Z " /><path fill="rgb(0,165,236)" stroke="rgb(0,165,236)" stroke-width="1" opacity="0.996078431372549" d="M 91.5 126 L 102.5 126 L 110.5 132 L 117.5 133 L 122 132 Q 120.8 129 124.5 130 Q 128.1 123.6 140.5 126 L 149.5 132 L 156.5 133 L 160.5 132 L 159.5 134 L 149.5 134 L 149 132 L 146.5 132 Q 142.8 126.2 132.5 127 L 120.5 134 L 111.5 134 L 103.5 128 L 93.5 127 L 88.5 130 L 88 127 L 91.5 126 Z " /><path fill="rgb(0,165,236)" stroke="rgb(0,165,236)" stroke-width="1" opacity="0.996078431372549" d="M 173.5 127 L 174 164.5 L 173 164.5 L 173.5 127 Z " /><path fill="rgb(0,165,236)" stroke="rgb(0,165,236)" stroke-width="1" opacity="0.996078431372549" d="M 26.5 128 L 29 129.5 L 27.5 130 L 26.5 128 Z " /><path fill="rgb(0,166,237)" stroke="rgb(0,166,237)" stroke-width="1" opacity="1" d="M 20.5 126 L 26 127 L 27.5 130 L 30.5 129 L 35 132.5 L 35.5 134 L 44.5 134 L 52.5 128 L 63.5 126 L 72.5 132 L 82.5 132 L 87.5 129 Q 89 131.5 90.5 128 L 100.5 127 L 111.5 134 L 120.5 134 L 129.5 128 L 138.5 127 L 146.5 132 L 149 132 L 149.5 134 L 159.5 134 L 162.5 129 L 165.5 127 L 173 126 L 173 164.5 L 172.5 165 L 19 165 L 19 127.5 L 20.5 126 Z " /></svg>