<svg width="200" height="200" version="1.1" xmlns="http://www.w3.org/2000/svg" desc="Created with imagetracer.js version 1.2.6" ><path fill="rgb(0,0,0)" stroke="rgb(0,0,0)" stroke-width="1" opacity="0" d="M 0 0 L 200 0 L 200 200 L 0 200 L 0 0 Z M 126 8 Q 127 11 123 10 L 120 13 L 120 20 Q 117 21 116 18 L 103 18 L 97 22 L 94 22 Q 95 27 90 29 L 90 45 L 79 45 L 78 47 L 75 48 Q 72 47 73 50 L 71 50 L 71 54 L 69 54 L 69 73 L 71 73 L 71 75 L 65 75 L 64 77 L 58 77 L 53 70 Q 50 71 51 68 L 46 68 L 43 74 L 43 78 L 41 80 Q 42 83 39 82 L 36 92 L 36 94 L 34 95 L 34 100 L 32 100 L 32 108 L 30 110 L 30 128 L 32 130 L 32 136 L 34 137 L 34 143 L 36 143 Q 35 148 39 151 Q 38 153 41 152 L 41 155 L 45 160 L 43 168 L 43 179 L 46 187 L 51 189 Q 53 188 52 191 L 57 191 L 57 193 L 69 193 L 69 191 L 76 189 L 80 185 L 80 183 L 82 181 L 100 181 Q 101 177 109 179 L 111 177 Q 116 179 115 175 Q 121 175 125 170 L 127 170 L 129 166 L 132 165 L 134 165 L 136 161 L 138 161 L 138 159 L 141 158 L 143 158 L 145 154 L 147 154 L 147 152 L 150 152 L 155 147 L 157 147 L 159 143 L 164 140 L 166 140 L 168 136 L 173 135 L 173 127 L 171 126 L 170 123 Q 167 124 168 121 L 161 116 Q 162 113 159 114 L 159 112 L 155 112 Q 156 109 154 110 L 157 106 Q 155 100 159 101 L 159 83 L 157 82 L 159 78 L 166 76 L 168 74 Q 167 70 170 71 L 170 54 L 166 47 Q 163 48 164 45 L 161 45 Q 160 42 164 43 L 164 39 L 166 39 L 166 27 L 163 22 L 163 12 L 161 10 L 161 8 L 126 8 Z " /><path fill="rgb(249,207,68)" stroke="rgb(249,207,68)" stroke-width="1" opacity="0.9568627450980393" d="M 128.5 9 L 132 9.5 L 123 14 Q 121.9 11.3 124.5 12 L 128.5 9 Z " /><path fill="rgb(249,207,68)" stroke="rgb(249,207,68)" stroke-width="1" opacity="0.9568627450980393" d="M 133.5 9 L 137 10.5 L 134.5 11 L 133.5 9 Z " /><path fill="rgb(249,207,68)" stroke="rgb(249,207,68)" stroke-width="1" opacity="0.9568627450980393" d="M 158 10 Q 161 8.8 160 12.5 L 158 11.5 L 158 10 Z " /><path fill="rgb(249,207,68)" stroke="rgb(249,207,68)" stroke-width="1" opacity="0.9568627450980393" d="M 160.5 14 L 162 18.5 Q 159.3 19.6 160 23 Q 162.7 21.9 162 24.5 L 165 30 Q 162 31.3 163 27.5 Q 159.3 25.7 159 20.5 L 160.5 14 Z " /><path fill="rgb(249,207,68)" stroke="rgb(249,207,68)" stroke-width="1" opacity="0.9568627450980393" d="M 122.5 15 L 123 18 Q 120.3 19.1 121 16.5 L 122.5 15 Z " /><path fill="rgb(249,207,68)" stroke="rgb(249,207,68)" stroke-width="1" opacity="0.9568627450980393" d="M 105.5 19 Q 108.1 18.3 107 21 L 104 20.5 L 105.5 19 Z " /><path fill="rgb(249,207,68)" stroke="rgb(249,207,68)" stroke-width="1" opacity="0.9568627450980393" d="M 109 19 Q 112.8 18 114 20.5 L 109 21 L 109 19 Z " /><path fill="rgb(249,207,68)" stroke="rgb(249,207,68)" stroke-width="1" opacity="0.9568627450980393" d="M 100 21 Q 103 20 102 23 Q 99 24 100 21 Z " /><path fill="rgb(249,207,68)" stroke="rgb(249,207,68)" stroke-width="1" opacity="0.9568627450980393" d="M 115.5 21 L 118 22.5 L 116.5 23 L 115.5 21 Z " /><path fill="rgb(249,207,68)" stroke="rgb(249,207,68)" stroke-width="1" opacity="0.9568627450980393" d="M 121.5 22 L 122 25 Q 118.3 26.5 119 23.5 L 121 23.5 L 121.5 22 Z " /><path fill="rgb(249,207,68)" stroke="rgb(249,207,68)" stroke-width="1" opacity="0.9568627450980393" d="M 97.5 23 Q 100.1 22.3 99 25 L 95 27 L 97.5 23 Z " /><path fill="rgb(249,207,68)" stroke="rgb(249,207,68)" stroke-width="1" opacity="0.9568627450980393" d="M 92.5 30 L 93 34 Q 90 35.3 91 31.5 L 92.5 30 Z " /><path fill="rgb(249,207,68)" stroke="rgb(249,207,68)" stroke-width="1" opacity="0.9568627450980393" d="M 163 33 Q 165.7 31.9 165 34.5 L 160.5 42 L 160 40.5 L 161 38 L 163 38 L 163 33 Z " /><path fill="rgb(249,207,68)" stroke="rgb(249,207,68)" stroke-width="1" opacity="0.9568627450980393" d="M 91 40 Q 94 39 93 42 Q 90 43 91 40 Z " /><path fill="rgb(249,207,68)" stroke="rgb(249,207,68)" stroke-width="1" opacity="0.9568627450980393" d="M 156 42 Q 159 40.8 158 44.5 L 158.5 46 Q 153.9 47.2 156 42 Z " /><path fill="rgb(249,207,68)" stroke="rgb(249,207,68)" stroke-width="1" opacity="0.9568627450980393" d="M 93.5 44 L 95 44.5 L 92.5 46 L 93.5 44 Z " /><path fill="rgb(249,207,68)" stroke="rgb(249,207,68)" stroke-width="1" opacity="0.9568627450980393" d="M 81.5 46 L 84 46.5 Q 82.8 49 79 48 Q 80.1 50.7 77.5 50 L 76 53 L 72 55 L 72 53 Q 74.7 54.1 74 51.5 L 81.5 46 Z " /><path fill="rgb(249,207,68)" stroke="rgb(249,207,68)" stroke-width="1" opacity="0.9568627450980393" d="M 160.5 46 L 165 49 L 167 53 Q 164.3 54.1 165 51.5 L 160 47.5 L 160.5 46 Z " /><path fill="rgb(249,207,68)" stroke="rgb(249,207,68)" stroke-width="1" opacity="0.9568627450980393" d="M 167.5 55 L 169 58 Q 165.5 59.1 167.5 55 Z " /><path fill="rgb(249,207,68)" stroke="rgb(249,207,68)" stroke-width="1" opacity="0.9568627450980393" d="M 71.5 56 L 72 60 Q 69 61.3 70 57.5 L 71.5 56 Z " /><path fill="rgb(249,207,68)" stroke="rgb(249,207,68)" stroke-width="1" opacity="0.9568627450980393" d="M 167 65 Q 169.7 63.9 169 66.5 L 167 67.5 L 167 65 Z " /><path fill="rgb(249,207,68)" stroke="rgb(249,207,68)" stroke-width="1" opacity="0.9568627450980393" d="M 70 70 Q 73 69 72 72 Q 69 73 70 70 Z " /><path fill="rgb(249,207,68)" stroke="rgb(249,207,68)" stroke-width="1" opacity="0.9568627450980393" d="M 165 70 L 167 70.5 L 165 74 L 158 77 Q 156.8 74 160.5 75 L 165 72 L 165 70 Z " /><path fill="rgb(249,207,68)" stroke="rgb(249,207,68)" stroke-width="1" opacity="0.9568627450980393" d="M 72.5 73 Q 75.5 72.2 74 76 L 72 75.5 L 72.5 73 Z " /><path fill="rgb(249,207,68)" stroke="rgb(249,207,68)" stroke-width="1" opacity="0.9568627450980393" d="M 67.5 76 Q 70.1 75.3 69 78 Q 63.6 77.1 61.5 81 L 64.5 77 L 67.5 76 Z " /><path fill="rgb(249,207,68)" stroke="rgb(249,207,68)" stroke-width="1" opacity="0.9568627450980393" d="M 153 77 L 157 77.5 L 154 80.5 L 155 81.5 Q 158.6 83.4 158 89.5 L 156 88.5 L 153 77 Z " /><path fill="rgb(249,207,68)" stroke="rgb(249,207,68)" stroke-width="1" opacity="0.9568627450980393" d="M 156 97 Q 158.7 95.9 158 98.5 L 156.5 101 L 156 97 Z " /><path fill="rgb(249,207,68)" stroke="rgb(249,207,68)" stroke-width="1" opacity="0.9568627450980393" d="M 154 102 L 156 102.5 L 155 105 L 153 105 L 153 107 L 151 107 L 151 109 Q 148.3 107.9 149 110.5 L 148 110.5 L 149 107 L 151 107 Q 149.9 104.3 152.5 105 L 154 102 Z " /><path fill="rgb(249,207,68)" stroke="rgb(249,207,68)" stroke-width="1" opacity="0.9568627450980393" d="M 90.5 178 L 96 178.5 L 90.5 179 L 90.5 178 Z " /><path fill="rgb(197,204,169)" stroke="rgb(197,204,169)" stroke-width="1" opacity="0.28627450980392155" d="M 126 8 L 160.5 8 L 161 9.5 L 163 11.5 L 163 21.5 L 166 26.5 L 166 39 L 164 39 L 164 43 Q 159.9 41.7 161 45 L 164 45 Q 162.9 47.7 165.5 47 L 170 53.5 L 170 71 Q 167 69.8 168 73.5 L 165.5 76 L 159 78 L 157 82 L 159 82.5 L 159 101 Q 156.3 102.1 157 99.5 L 158 98.5 L 158 86.5 L 154 80.5 L 157.5 77 L 165 74 L 169 66.5 L 169 56.5 Q 166 55.3 167 51 L 165 51 Q 166.1 48.3 163.5 49 L 158 44.5 Q 156.8 40.8 160.5 42 Q 165.8 38.3 165 28.5 L 162 23 Q 159 24.3 160 20.5 L 162 16.5 Q 159.2 14.5 160 10 L 157.5 9 L 128.5 9 L 123 12 Q 123.8 15.4 121 16.5 L 120.5 24 L 112.5 19 L 105.5 19 Q 104.3 22 100 21 Q 101.3 24 97.5 23 Q 94.3 24.2 95 28 Q 92.3 26.9 93 29.5 L 91 31.5 L 91 42 Q 94 40.8 93 44.5 L 91.5 46 L 81.5 46 L 74 51.5 Q 74.7 54.1 72 53 L 72 55.5 L 70 57.5 L 70 72 Q 72.7 70.9 72 73.5 Q 74.3 74.8 71.5 76 L 64.5 77 L 59 81 L 55.5 76 L 50.5 72 L 47 70 L 47 74 Q 44 72.8 45 76.5 L 40 86.5 L 40 90 Q 36.7 88.7 38 93.5 L 32.5 107 L 32 100 L 34 100 L 34 94.5 L 36 94 L 36 91.5 L 39 82 Q 42 83.3 41 79.5 L 43 77.5 L 43 73.5 L 46 68 L 51 68 Q 49.9 70.7 52.5 70 L 58 77 L 64 77 L 64.5 75 L 71 75 L 71 73 L 69 72.5 L 69 54 L 71 54 L 71 50 L 73 50 Q 71.9 47.3 74.5 48 L 78 47 L 78.5 45 L 90 45 L 90 28.5 Q 94.8 27.1 94 22 L 96.5 22 L 102.5 18 L 115.5 18 Q 116.6 20.8 120 20 L 120 12.5 L 122.5 10 Q 127.3 11.3 126 8 Z " /><path fill="rgb(197,204,169)" stroke="rgb(197,204,169)" stroke-width="1" opacity="0.28627450980392155" d="M 156.5 102 L 157 105.5 L 153.5 110 Q 156.1 109.3 155 112 L 159 112 L 159 114 Q 161.7 112.9 161 115.5 L 168 120.5 Q 166.9 123.8 169.5 123 L 171 126 Q 174.3 124.9 173 129 L 169 126.5 L 167 123.5 L 160 118 Q 161.1 115.3 158.5 116 L 149 111 L 149 109 L 151 109 L 151 107 L 153 107 L 153 105 Q 155.7 106.1 155 103.5 L 156.5 102 Z " /><path fill="rgb(197,204,169)" stroke="rgb(197,204,169)" stroke-width="1" opacity="0.28627450980392155" d="M 31.5 108 Q 34.5 107.5 33 114.5 Q 30.7 115.8 32 120.5 L 33 121.5 L 33 129 L 30 127.5 L 30 109.5 L 31.5 108 Z " /><path fill="rgb(197,204,169)" stroke="rgb(197,204,169)" stroke-width="1" opacity="0.28627450980392155" d="M 32.5 130 L 35 136 L 32 136 L 32.5 130 Z " /><path fill="rgb(197,204,169)" stroke="rgb(197,204,169)" stroke-width="1" opacity="0.28627450980392155" d="M 172.5 130 L 173 135 L 168 136 L 166 140 L 163.5 140 L 159 143 L 157 147 L 154.5 147 L 149.5 152 L 147 152 L 147 154 L 145 154 L 143 158 L 140.5 158 L 138 159 L 138 161 L 136 161 L 134 165 L 131.5 165 L 129 166 L 127 170 L 124.5 170 Q 121.4 174.6 115 175 Q 116.3 178.7 110.5 177 L 108.5 179 Q 101.3 177.3 99.5 181 L 81.5 181 L 80 182.5 L 80 184.5 L 75.5 189 L 69 191 L 68.5 193 L 57 193 Q 55.5 189.3 58.5 190 Q 60 192.5 65.5 191 L 73 189 L 73 187 L 75 187 L 75 185 Q 77.7 186.1 77 183.5 L 80.5 178 L 95.5 179 L 96.5 178 L 104.5 178 L 121 171 Q 119.9 168.3 122.5 169 L 130 164 L 130 162 L 133 162 Q 131.9 159.3 134.5 160 L 142 155 Q 140.9 152.3 143.5 153 L 151 148 Q 149.9 145.3 152.5 146 L 160 141 Q 158.9 138.3 161.5 139 L 169 134 L 169 132 Q 172.8 133.3 172.5 130 Z " /><path fill="rgb(197,204,169)" stroke="rgb(197,204,169)" stroke-width="1" opacity="0.28627450980392155" d="M 34.5 137 L 40 150 Q 42.7 148.9 42 151.5 L 45 157 Q 48 155.8 47 159.5 L 48 161.5 L 45 166.5 L 45 179.5 L 50.5 187 L 56 190.5 L 52 191 Q 53.1 188.3 50.5 189 L 46 186.5 L 43 178.5 L 43 167.5 L 45 159.5 L 41 154.5 L 41 152 Q 38.3 153.1 39 150.5 Q 35.1 148.4 36 143 L 34 143 L 34.5 137 Z " /><path fill="rgb(245,193,60)" stroke="rgb(245,193,60)" stroke-width="1" opacity="0.9803921568627451" d="M 132.5 9 L 134.5 11 Q 139.8 9.8 141 12.5 L 133.5 15 L 130 18.5 L 128 28 L 122.5 26 Q 120.6 29.8 114 28 Q 115.1 30.7 112.5 30 L 109 35 Q 106 33.8 107 37.5 Q 103 41 105 50.5 L 107 53.5 L 105.5 53 L 93 56 L 93 58 Q 90.3 56.9 91 59.5 Q 83.7 63.7 85 76.5 L 88 83.5 Q 77 84.5 72 91.5 Q 68.8 94.3 69.5 101 L 68 99.5 L 68 95.5 L 66 90.5 L 61 81 L 65.5 78 L 69 78 L 69 76 L 74 76 L 74 73 L 72 73 Q 73 68.8 70 69.5 L 70 60 L 72 60 L 72 55 L 74 55 L 74 53 Q 76.7 54.1 76 51.5 L 79 50 Q 77.7 46.7 82.5 48 L 84.5 46 L 93.5 46 L 95 44.5 L 93 44 Q 94.2 38.7 91 39.5 L 91 34 L 93 34 L 93 28.5 L 94.5 28 L 97 27 L 99 23 Q 103.3 24 102.5 21 L 107 21 Q 106 18 109 19 Q 107.6 23 114.5 21 Q 115.6 23.8 119 23 Q 117.9 26.3 122 25 L 121 18 L 123 18 L 123 14 L 124.5 14 L 132.5 9 Z " /><path fill="rgb(245,193,60)" stroke="rgb(245,193,60)" stroke-width="1" opacity="0.9803921568627451" d="M 155.5 20 L 159 21 L 163 27.5 L 163 30 Q 166.3 28.9 165 33 L 163 33 L 163 38 Q 160.3 36.9 161 39.5 L 160 42 Q 154 40 156 46 L 160 46 L 160 47.5 L 165 51.5 Q 164.3 54.1 167 53 L 167 58 L 169 58 L 169 65 L 167 65 L 167 70 L 165 70 Q 166.1 72.7 163.5 72 Q 162.3 75.8 158 75 L 158 77 L 153 77 L 153 80.5 L 158 90.5 L 158 97 Q 154.7 95.7 156 100.5 L 156.5 102 Q 153.2 100.9 154 103.5 L 151 105 L 151 107 Q 148.3 105.9 149 108.5 L 147.5 111 L 147 109 L 142.5 109 L 133.5 106 L 121.5 106 L 116.5 107 L 116.5 106 L 123 105 L 123.5 103 L 125.5 104 Q 126.2 101.3 130.5 102 L 139 94.5 Q 143.8 89.3 142 77.5 L 141 74 Q 137.7 75.1 139 71 Q 146.6 69.9 151 64.5 Q 150.3 61.9 153 63 L 153 59.5 Q 157 57.5 155 49.5 L 152 42.5 L 149 39.5 L 153 36.5 L 155 33.5 Q 157.8 30.8 157 24.5 L 155.5 20 Z " /><path fill="rgb(245,193,60)" stroke="rgb(245,193,60)" stroke-width="1" opacity="0.9803921568627451" d="M 70.5 105 Q 73.8 106.8 72 113.5 L 71 113.5 L 70.5 105 Z " /><path fill="rgb(245,193,60)" stroke="rgb(245,193,60)" stroke-width="1" opacity="0.9803921568627451" d="M 110.5 107 L 114 107.5 L 109.5 109 L 110.5 107 Z " /><path fill="rgb(245,193,60)" stroke="rgb(245,193,60)" stroke-width="1" opacity="0.9803921568627451" d="M 105.5 109 Q 108.1 108.3 107 111 L 103.5 111 L 95.5 116 L 96.5 114 L 105.5 109 Z " /><path fill="rgb(245,193,60)" stroke="rgb(245,193,60)" stroke-width="1" opacity="0.9803921568627451" d="M 72.5 116 L 73 117.5 L 72 118.5 L 72 129 L 70 128.5 L 70 121.5 L 72.5 116 Z " /><path fill="rgb(245,193,60)" stroke="rgb(245,193,60)" stroke-width="1" opacity="0.9803921568627451" d="M 93.5 116 L 92.5 118 L 93.5 116 Z " /><path fill="rgb(245,193,60)" stroke="rgb(245,193,60)" stroke-width="1" opacity="0.9803921568627451" d="M 90.5 118 L 91 120 L 84.5 124 L 84.5 123 Q 86.8 123.8 86 121.5 L 90.5 118 Z " /><path fill="rgb(245,193,60)" stroke="rgb(245,193,60)" stroke-width="1" opacity="0.9803921568627451" d="M 82.5 125 L 78.5 130 L 75.5 132 L 75 130 L 77 130 Q 75.9 127.3 78.5 128 L 82.5 125 Z " /><path fill="rgb(245,193,60)" stroke="rgb(245,193,60)" stroke-width="1" opacity="0.9803921568627451" d="M 69.5 132 L 70 134 L 73.5 132 L 74 134 L 68 137 Q 67 133.2 69.5 132 Z " /><path fill="rgb(251,212,63)" stroke="rgb(251,212,63)" stroke-width="1" opacity="0.996078431372549" d="M 156 9 Q 159 7.8 158 11.5 Q 161.5 13 160 19.5 L 156.5 21 L 155 20.5 Q 157.8 23.2 157 29.5 L 155 35 Q 152.3 33.9 153 36.5 L 149 39.5 L 152 42.5 L 155 49.5 L 155 57.5 Q 152 58.8 153 63 Q 150.3 61.9 151 64.5 Q 146.6 69.9 139 71 L 139 74 Q 142 72.8 141 76.5 L 142 77.5 L 142 88.5 Q 139.8 95.3 134.5 99 L 130.5 102 L 128 102 L 128 100 L 131 100 L 133 96 L 136.5 96 Q 139 94.8 138 91 L 140 90.5 L 140 76 Q 137.3 77.1 138 74.5 L 137 70 Q 141.3 71 140.5 68 L 145 68 Q 143.9 65.3 146.5 66 L 149 65 L 149 63 Q 151.7 64.1 151 61.5 L 152 60.5 L 152 54 Q 155.3 55.1 154 51 Q 150.3 52.4 152 46.5 L 151 43 L 147 41 L 147 38 Q 150 39 149 36 L 152 36 Q 150.7 31.9 154 33 L 154 29 L 156 29 L 156 25 L 154 25 L 154 21 L 152.5 21 L 151 17 L 155 17 Q 153.9 19.7 156.5 19 L 159 20 L 159 13.5 L 157 13 L 157 11.5 L 156 9 Z " /><path fill="rgb(251,212,63)" stroke="rgb(251,212,63)" stroke-width="1" opacity="0.996078431372549" d="M 137.5 10 L 141 10 Q 139.9 13.3 144 12 L 146 16 Q 143 17 144 14 L 139.5 14 L 139.5 13 L 141 12.5 L 137.5 11 L 137.5 10 Z " /><path fill="rgb(251,212,63)" stroke="rgb(251,212,63)" stroke-width="1" opacity="0.996078431372549" d="M 135.5 14 L 138 14.5 L 134 16 L 134 18 L 130 20 L 133.5 15 L 135.5 14 Z " /><path fill="rgb(251,212,63)" stroke="rgb(251,212,63)" stroke-width="1" opacity="0.996078431372549" d="M 129.5 21 L 130 28 Q 126.3 29.4 128 23.5 L 129.5 21 Z " /><path fill="rgb(251,212,63)" stroke="rgb(251,212,63)" stroke-width="1" opacity="0.996078431372549" d="M 122.5 26 L 125 27.5 L 121.5 28 L 122.5 26 Z " /><path fill="rgb(251,212,63)" stroke="rgb(251,212,63)" stroke-width="1" opacity="0.996078431372549" d="M 114 28 L 120 28.5 L 115 30 Q 116.2 33.7 111 32 L 111 36 L 109.5 36 Q 107 37 108 41.5 L 106 43.5 L 106 49 Q 109.7 47.6 108 53.5 L 106.5 55 L 100 55 Q 101.3 58.7 95.5 57 L 93 58 L 92 62 L 88 64 Q 89.5 70.3 86 69.5 L 86 76.5 L 85 76.5 L 86 65.5 L 91 58 Q 94 59 93 56 L 95.5 56 L 98.5 54 L 106 53 Q 103.8 49.4 105 40.5 L 107 35 Q 109.7 36.1 109 33.5 L 114 30 L 114 28 Z " /><path fill="rgb(251,212,63)" stroke="rgb(251,212,63)" stroke-width="1" opacity="0.996078431372549" d="M 86 79 L 88 79 L 88 82 Q 91.3 80.9 90 85 Q 83.7 83.5 84.5 87 L 79.5 87 L 78 90 L 76 90 L 76 92 L 74 92 L 74 94 Q 71.3 92.9 72 95.5 Q 69.5 97 71 102.5 L 73 105.5 L 73 116 Q 77.1 114.7 76 118 L 73 118.5 L 73 129.5 L 72.5 131 L 75.5 129 L 77 128.5 L 77 130 L 75 130 Q 76.1 132.7 73.5 132 L 69.5 135 L 70 133.5 Q 68.8 127.5 72 128.5 L 72 118.5 L 73 116.5 L 72 115.5 L 72 106.5 L 70 104.5 L 70 94.5 L 75.5 88 L 83.5 84 L 88 83.5 L 86 79 Z " /><path fill="rgb(251,212,63)" stroke="rgb(251,212,63)" stroke-width="1" opacity="0.996078431372549" d="M 121 102 L 127 102.5 L 124.5 104 L 123 103.5 Q 123.7 106.1 121 105 L 121 102 Z " /><path fill="rgb(251,212,63)" stroke="rgb(251,212,63)" stroke-width="1" opacity="0.996078431372549" d="M 115.5 105 L 118 105.5 Q 115.9 107.9 110.5 107 L 100.5 112 L 100 110 Q 104.3 111 103.5 108 L 107.5 108 L 115.5 105 Z " /><path fill="rgb(251,212,63)" stroke="rgb(251,212,63)" stroke-width="1" opacity="0.996078431372549" d="M 97 112 L 99 112.5 L 97 113.5 L 97 112 Z " /><path fill="rgb(251,212,63)" stroke="rgb(251,212,63)" stroke-width="1" opacity="0.996078431372549" d="M 94.5 114 L 96 114.5 L 87.5 120 L 87.5 119 L 90.5 117 L 94.5 114 Z " /><path fill="rgb(251,212,63)" stroke="rgb(251,212,63)" stroke-width="1" opacity="0.996078431372549" d="M 85.5 121 L 86 123 L 84 123 Q 85.1 125.7 82.5 125 L 78.5 128 L 78 126 L 80 126 Q 78.9 123.3 81.5 124 L 85.5 121 Z " /><path fill="rgb(75,149,37)" stroke="rgb(75,149,37)" stroke-width="1" opacity="0.8901960784313725" d="M 47 70 L 52 72 L 52 74 L 54 74 Q 52.9 76.7 55.5 76 L 59 81 Q 62 80 61 83 L 59 83 L 59 81 Q 56.3 82.1 57 79.5 L 54 78 L 54 76 L 52 76 L 52 74 L 48 72 L 42 88 Q 39.3 89.1 40 86.5 L 44 80.5 L 45 74 Q 48.7 75.2 47 70 Z " /><path fill="rgb(75,149,37)" stroke="rgb(75,149,37)" stroke-width="1" opacity="0.8901960784313725" d="M 38 90 Q 41 88.8 40 92.5 L 35.5 102 L 35 99.5 L 38 93.5 L 38 90 Z " /><path fill="rgb(75,149,37)" stroke="rgb(75,149,37)" stroke-width="1" opacity="0.8901960784313725" d="M 34.5 104 L 35 111 Q 32 112.3 33 108.5 L 33 106.5 L 34.5 104 Z " /><path fill="rgb(75,149,37)" stroke="rgb(75,149,37)" stroke-width="1" opacity="0.8901960784313725" d="M 149 111 L 152 112.5 L 149 113 L 149 111 Z " /><path fill="rgb(75,149,37)" stroke="rgb(75,149,37)" stroke-width="1" opacity="0.8901960784313725" d="M 153 113 L 160 116 Q 158.9 118.7 161.5 118 L 167 125 Q 169.7 123.9 169 126.5 L 173 129.5 L 172 132 Q 169 133.3 170 129.5 L 169 127 L 165 125 L 165 122 Q 162 123 163 120 L 160 120 Q 161.1 117.3 158.5 118 Q 157.2 114.2 153 115 L 153 113 Z " /><path fill="rgb(75,149,37)" stroke="rgb(75,149,37)" stroke-width="1" opacity="0.8901960784313725" d="M 33 127 Q 36.5 125.9 35 133.5 L 40 146.5 L 38 145.5 L 34 136.5 L 35 134.5 L 32 129.5 L 33 127 Z " /><path fill="rgb(75,149,37)" stroke="rgb(75,149,37)" stroke-width="1" opacity="0.8901960784313725" d="M 167 132 Q 170 131 169 134 L 160 139 Q 161.1 141.7 158.5 141 L 151 146 Q 152.1 148.7 149.5 148 L 142 153 Q 143.1 155.7 140.5 155 L 133 160 Q 134 163 131 162 L 131 160 L 133 160 Q 131.9 157.3 134.5 158 L 137 157 L 137 155 L 140 155 L 140 153 L 142 153 Q 140.9 150.3 143.5 151 L 149 148 L 151 144 L 154 144 Q 152.9 141.3 155.5 142 L 158 141 L 160 137 L 163 137 Q 161.9 134.3 164.5 135 L 167 134 L 167 132 Z " /><path fill="rgb(75,149,37)" stroke="rgb(75,149,37)" stroke-width="1" opacity="0.8901960784313725" d="M 40 148 Q 42.7 146.9 42 149.5 L 47 157 Q 44.3 158.1 45 155.5 L 42 150 Q 39 151 40 148 Z " /><path fill="rgb(75,149,37)" stroke="rgb(75,149,37)" stroke-width="1" opacity="0.8901960784313725" d="M 47 158 Q 50.3 156.7 49 161.5 L 48 161.5 L 47 158 Z " /><path fill="rgb(75,149,37)" stroke="rgb(75,149,37)" stroke-width="1" opacity="0.8901960784313725" d="M 128 162 Q 131 161 130 164 L 121 169 Q 122.3 172 118.5 171 L 116.5 173 L 107.5 176 L 108.5 174 L 111.5 174 L 121 169 Q 119.8 166 123.5 167 L 128 164 L 128 162 Z " /><path fill="rgb(75,149,37)" stroke="rgb(75,149,37)" stroke-width="1" opacity="0.8901960784313725" d="M 98 176 L 106 176.5 L 104.5 178 L 98 178 L 98 176 Z " /><path fill="rgb(75,149,37)" stroke="rgb(75,149,37)" stroke-width="1" opacity="0.8901960784313725" d="M 80.5 177 L 83 177.5 L 79.5 179 L 80.5 177 Z " /><path fill="rgb(75,149,37)" stroke="rgb(75,149,37)" stroke-width="1" opacity="0.8901960784313725" d="M 47.5 183 L 49.5 186 L 47.5 183 Z " /><path fill="rgb(75,149,37)" stroke="rgb(75,149,37)" stroke-width="1" opacity="0.8901960784313725" d="M 59.5 190 L 66 190.5 L 59.5 191 L 59.5 190 Z " /><path fill="rgb(252,213,63)" stroke="rgb(252,213,63)" stroke-width="1" opacity="1" d="M 136.5 9 L 155.5 9 L 156 10.5 L 157 13 L 159 13.5 L 159 20 L 155 19 Q 156.2 15.3 151 17 L 152.5 21 L 154 21 L 154 25 L 156 25 L 156 29 L 154 29 L 154 33 Q 150.7 31.9 152 36 L 149 36 Q 150 39 147 38 L 147 41 L 151 43 L 151 45.5 L 152 51 Q 155.3 49.9 154 54 Q 150.5 52.9 152 60.5 L 151 63 L 149 63 Q 150.1 65.7 147.5 65 L 145 66 L 145 68 L 140.5 68 Q 141.3 71 137 70 L 137 73.5 L 138 76 L 140 76.5 L 140 91 Q 136.7 89.7 138 94.5 Q 136.8 97 133 96 L 133 98 Q 130 97 131 100 L 128 100 L 128 102 L 121.5 102 L 121 105 L 115.5 105 L 107.5 108 L 103 108 L 103 110 L 100 110 L 100 112 L 97 112 Q 98.3 115 94.5 114 L 89 117 L 89 119 L 87 119 Q 88.1 121.7 85.5 121 L 80 124 L 80 126 L 78 126 Q 79.1 128.7 76.5 128 L 74 129 Q 75.1 131.7 72.5 131 L 71 131.5 L 73 129.5 L 73 118 Q 77.1 119.3 76 116 L 73 115.5 L 73 105.5 Q 69.8 103.2 71 96.5 L 72 94 L 74 94 L 74 92 L 76 92 L 76 90 Q 78.7 91.1 78 88.5 Q 79.6 85.5 85 87 L 85 85 L 90 85 L 90 82 L 88 82 Q 89 77.8 86 78.5 L 86 69 L 88 69 L 88 64 L 90 64 L 90 62 Q 92.7 63.1 92 60.5 L 93 58 L 100 57 Q 98.9 53.5 106.5 55 Q 109.3 53.6 108 49 Q 104 50.4 106 43.5 L 108 41.5 Q 107 37 109.5 36 L 111 36 L 111 32 L 115 32 Q 113.8 29 117.5 30 L 120.5 28 L 130 28 L 130 20 L 132 20 L 134 16 L 136.5 16 Q 138.2 12.5 144 14 L 144 12 Q 139.9 13.3 141 10 L 136.5 10 L 136.5 9 Z M 144 14 Q 143 17 146 16 Q 147 13 144 14 Z " /><path fill="rgb(69,145,27)" stroke="rgb(69,145,27)" stroke-width="1" opacity="0.996078431372549" d="M 47.5 74 L 48 77 L 46 76.5 L 47.5 74 Z " /><path fill="rgb(69,145,27)" stroke="rgb(69,145,27)" stroke-width="1" opacity="0.996078431372549" d="M 50.5 74 Q 52.8 73.3 52 75.5 L 50.5 74 Z " /><path fill="rgb(69,145,27)" stroke="rgb(69,145,27)" stroke-width="1" opacity="0.996078431372549" d="M 55.5 78 L 56.5 80 Q 53.7 80.7 55.5 78 Z " /><path fill="rgb(69,145,27)" stroke="rgb(69,145,27)" stroke-width="1" opacity="0.996078431372549" d="M 45.5 79 L 46 82 L 44 81.5 L 45.5 79 Z " /><path fill="rgb(69,145,27)" stroke="rgb(69,145,27)" stroke-width="1" opacity="0.996078431372549" d="M 57.5 81 Q 60.1 80.3 59 83 L 61.5 83 L 68 95.5 L 68 99.5 L 70 101.5 L 70 110.5 L 72 117.5 L 70 121.5 L 70 131.5 Q 67 132.8 68 137 L 74 134 Q 72.9 131.3 75.5 132 L 91 120 Q 89.9 117.3 92.5 118 L 103.5 111 L 107 111 Q 105.7 107.3 111.5 109 L 114.5 107 Q 120 108.5 121.5 106 L 133.5 106 L 142.5 109 L 147 109 L 149 113 L 153 113 L 153 114.5 L 151.5 114 L 143.5 110 L 139.5 110 L 137.5 108 L 115 108 L 115 110 L 109.5 110 Q 110.5 113 105.5 112 Q 103.6 115.6 99 115 Q 100.3 118 96.5 117 L 90.5 122 L 88 122 L 84.5 127 Q 81.9 126.3 83 129 L 81 129 L 81 131 L 78 131 Q 79.1 133.7 76.5 133 L 72 136 L 72 138 L 69 138 Q 70.1 141.3 66 140 L 67 131.5 L 69 128.5 L 69 104.5 L 63 88.5 L 57.5 81 Z " /><path fill="rgb(69,145,27)" stroke="rgb(69,145,27)" stroke-width="1" opacity="0.996078431372549" d="M 43.5 84 L 43 85.5 L 43 89 L 41 89 L 41 94 L 39.5 94 L 40 92.5 L 40 88.5 L 42 88 L 42 85.5 L 43.5 84 Z " /><path fill="rgb(69,145,27)" stroke="rgb(69,145,27)" stroke-width="1" opacity="0.996078431372549" d="M 38.5 95 L 39 98 L 37 97.5 L 38.5 95 Z " /><path fill="rgb(69,145,27)" stroke="rgb(69,145,27)" stroke-width="1" opacity="0.996078431372549" d="M 36.5 101 L 37 102.5 L 36 103.5 L 36 112 L 34 112.5 L 34 126 Q 37.5 124.9 36 132.5 L 37 135.5 L 36 135.5 L 35 127 L 33 126.5 L 33 111 L 35 110.5 L 35 102.5 L 36.5 101 Z " /><path fill="rgb(69,145,27)" stroke="rgb(69,145,27)" stroke-width="1" opacity="0.996078431372549" d="M 156.5 116 L 160 118 Q 158.8 121 162.5 120 L 162.5 121 L 160.5 121 L 156.5 116 Z " /><path fill="rgb(69,145,27)" stroke="rgb(69,145,27)" stroke-width="1" opacity="0.996078431372549" d="M 164.5 122 L 165 125 L 167 125 L 167 127 Q 169.7 125.9 169 128.5 L 165.5 126 Q 162 126.8 164.5 122 Z " /><path fill="rgb(69,145,27)" stroke="rgb(69,145,27)" stroke-width="1" opacity="0.996078431372549" d="M 166 131 L 170 131.5 L 167 132 Q 168.1 134.7 165.5 134 L 164 134.5 Q 163.3 131.9 166 133 L 166 131 Z " /><path fill="rgb(69,145,27)" stroke="rgb(69,145,27)" stroke-width="1" opacity="0.996078431372549" d="M 159 136 L 163 136.5 L 160 137 L 160 139 L 158 139 Q 159.1 141.7 156.5 141 L 157 139.5 Q 156.3 136.9 159 138 L 159 136 Z " /><path fill="rgb(69,145,27)" stroke="rgb(69,145,27)" stroke-width="1" opacity="0.996078431372549" d="M 37.5 140 Q 39.8 139.3 39 141.5 L 37.5 140 Z " /><path fill="rgb(69,145,27)" stroke="rgb(69,145,27)" stroke-width="1" opacity="0.996078431372549" d="M 40.5 144 L 41 147 Q 43.7 145.9 43 148.5 L 44 150.5 L 42 149.5 Q 42.7 146.9 40 148 L 40.5 144 Z " /><path fill="rgb(69,145,27)" stroke="rgb(69,145,27)" stroke-width="1" opacity="0.996078431372549" d="M 150.5 144 L 151 146 L 149 146 Q 150.1 148.7 147.5 148 L 150.5 144 Z " /><path fill="rgb(69,145,27)" stroke="rgb(69,145,27)" stroke-width="1" opacity="0.996078431372549" d="M 143 149 L 145 149.5 L 143 150.5 L 143 149 Z " /><path fill="rgb(69,145,27)" stroke="rgb(69,145,27)" stroke-width="1" opacity="0.996078431372549" d="M 141.5 151 L 142 153 L 140 152.5 L 141.5 151 Z " /><path fill="rgb(69,145,27)" stroke="rgb(69,145,27)" stroke-width="1" opacity="0.996078431372549" d="M 44.5 152 L 48 154 L 47.5 158 L 44.5 152 Z " /><path fill="rgb(69,145,27)" stroke="rgb(69,145,27)" stroke-width="1" opacity="0.996078431372549" d="M 136 154 L 140 154.5 L 137 155 Q 138.1 157.7 135.5 157 L 134 157.5 Q 133.3 154.9 136 156 L 136 154 Z " /><path fill="rgb(69,145,27)" stroke="rgb(69,145,27)" stroke-width="1" opacity="0.996078431372549" d="M 49.5 158 L 50 161.5 L 49 161.5 L 49.5 158 Z " /><path fill="rgb(69,145,27)" stroke="rgb(69,145,27)" stroke-width="1" opacity="0.996078431372549" d="M 127 161 L 131 161.5 L 128 162 Q 129.1 164.7 126.5 164 L 127 162.5 L 127 161 Z " /><path fill="rgb(69,145,27)" stroke="rgb(69,145,27)" stroke-width="1" opacity="0.996078431372549" d="M 124.5 165 L 123.5 167 L 121 167 Q 122.1 169.7 119.5 169 L 118 169.5 L 120 166 L 124.5 165 Z " /><path fill="rgb(69,145,27)" stroke="rgb(69,145,27)" stroke-width="1" opacity="0.996078431372549" d="M 115 170 L 117 170.5 L 115 171.5 L 115 170 Z " /><path fill="rgb(69,145,27)" stroke="rgb(69,145,27)" stroke-width="1" opacity="0.996078431372549" d="M 111 172 L 113 172.5 L 111 173.5 L 111 172 Z " /><path fill="rgb(69,145,27)" stroke="rgb(69,145,27)" stroke-width="1" opacity="0.996078431372549" d="M 106.5 174 L 108 174.5 L 106.5 176 L 98 176 L 97.5 178 L 83.5 178 L 80.5 177 L 78.5 178 L 78.5 177 L 81.5 175 L 83.5 177 L 97 177 L 97.5 175 L 105.5 175 L 106.5 174 Z " /><path fill="rgb(22,139,95)" stroke="rgb(22,139,95)" stroke-width="1" opacity="0.9294117647058824" d="M 47 162 L 53.5 164 L 61 169 Q 59.9 171.7 62.5 171 L 70.5 176 Q 76.7 175.4 79 178 L 79 182 Q 75.7 180.9 77 185 L 75 185 L 73 189 L 70.5 189 L 69.5 190 L 57.5 190 L 56.5 191 L 56 189 L 50 187 L 47 182.5 L 47 180 L 45 179.5 L 45 166 Q 48.7 167.2 47 162 Z " /><path fill="rgb(68,145,27)" stroke="rgb(68,145,27)" stroke-width="1" opacity="1" d="M 48 73 Q 50.7 71.9 50 74.5 L 53 76 L 53 78 L 55 78 L 55 80 Q 57.7 78.9 57 81.5 L 63 88.5 L 69 104.5 L 69 128.5 L 67 131.5 L 66 140 L 69 140 L 69 138 L 72 138 Q 70.9 135.3 73.5 136 L 78 133 L 78 131 L 81 131 L 81 129 L 83 129 Q 81.9 126.3 84.5 127 L 88 122 L 90.5 122 L 96.5 117 L 99 117 Q 97.8 114 101.5 115 Q 103.6 111.1 109 112 L 109 110 L 115 110 L 115.5 108 L 137.5 108 L 149.5 114 L 156 115 L 160.5 121 L 164 122.5 Q 162.5 126.9 165.5 126 L 170 129 L 170 131 L 166 131 L 166 133 Q 163.3 131.9 164 134.5 Q 162.8 137 159 136 L 159 138 Q 156.3 136.9 157 139.5 L 156 142 Q 153 141 154 144 L 150.5 144 L 147 149 L 143 149 Q 144.1 151.7 141.5 151 L 140 154 L 136 154 L 136 156 Q 133.3 154.9 134 157.5 L 131 159 L 131 161 L 127 161 L 127 162.5 L 126 165 L 120 166 L 117.5 170 Q 113.8 169 115 172 L 111 172 L 111 174 L 106.5 174 L 105.5 175 L 97 175 L 96.5 177 L 83.5 177 L 80 175 Q 81.1 177.7 78.5 177 L 76.5 177 L 70.5 176 L 61 171 Q 62.1 168.3 59.5 169 L 50 162.5 L 50 158 L 48 158 L 48 154 L 46.5 154 Q 42.9 151.9 43 147 L 41 147 Q 42.3 142.9 39 144 L 39 140 L 37 140 L 37 133.5 L 36 132.5 L 36 126 L 34 125.5 L 34 112 L 36 111.5 L 36 103.5 L 37 98 L 39 98 Q 37.3 92.8 41 94 L 41 89.5 Q 44 90.5 43 85.5 L 44 82 L 46 82 L 46 77.5 Q 49.3 78.3 48 73 Z " /></svg>